%
M48
M72
T01C0.0276
T02C0.0354
%
T01
X2301Y2001
X3001Y3701
X4001Y3701
X7301Y2001
X8001Y3701
X9001Y3701
X12301Y2001
X13001Y3701
X14001Y3701
X17301Y2001
X18101Y3701
X19101Y3701
X22301Y2001
X23001Y3701
X24001Y3701
X32601Y3501
X32601Y5001
X32601Y6001
X32601Y9251
X32601Y10001
X32601Y11251
X32601Y12251
X32601Y13251
X32601Y15501
X32601Y16501
X32601Y17501
X32601Y18501
X29601Y18501
X29601Y17501
X29601Y16501
X29601Y15501
X23901Y15901
X22901Y15901
X22301Y18001
X18901Y15901
X17901Y15901
X17301Y18001
X13901Y15901
X12901Y15901
X12301Y18001
X8901Y15901
X7901Y15901
X7301Y18001
X3901Y15901
X2901Y15901
X2301Y18001
X1701Y11001
X4701Y11001
X6801Y11001
X9801Y11001
X11801Y11001
X11801Y9151
X9801Y9151
X6801Y9151
X4701Y9151
X1701Y9151
X14801Y9151
X16901Y9151
X16901Y11001
X14801Y11001
X19901Y11001
X21801Y11001
X21801Y9151
X19901Y9151
X24801Y9151
X24801Y11001
T02
X24701Y12601
X22801Y13601
X21801Y13601
X19801Y14601
X18001Y13601
X17001Y13601
X14801Y14601
X12801Y13601
X11801Y13601
X9801Y14601
X7801Y13601
X6801Y13601
X4801Y14601
X2801Y13601
X1801Y13601
X4801Y12601
X9801Y12601
X14801Y12601
X19801Y12601
X24701Y14601
X24701Y7501
X22801Y6501
X21801Y6501
X19801Y7501
X17801Y6501
X16801Y6501
X14801Y7501
X12801Y6501
X11801Y6501
X9801Y7501
X7801Y6501
X6801Y6501
X4801Y7501
X2801Y6501
X1801Y6501
X4801Y5501
X9801Y5501
X14801Y5501
X19801Y5501
X24701Y5501
M30
