G75*
G70*
%OFA0B0*%
%FSLAX24Y24*%
%IPPOS*%
%LPD*%
%AMOC8*
5,1,8,0,0,1.08239X$1,22.5*
%
%ADD10C,0.1182*%
%ADD11R,0.0556X0.0556*%
%ADD12C,0.0556*%
%ADD13C,0.0966*%
%ADD14C,0.0634*%
%ADD15R,0.0634X0.0634*%
%ADD16C,0.1261*%
%ADD17OC8,0.0556*%
%ADD18C,0.0600*%
%ADD19C,0.1025*%
%ADD20C,0.0946*%
D10*
X001802Y001802D03*
X001802Y021302D03*
X023802Y021302D03*
X023802Y005302D03*
D11*
X020302Y013302D03*
X018552Y013302D03*
X014302Y018302D03*
X018052Y018802D03*
X021552Y018802D03*
X008552Y018302D03*
X008052Y011552D03*
D12*
X007052Y011552D03*
X010052Y011052D03*
X010052Y010052D03*
X010052Y008052D03*
X009052Y005552D03*
X009052Y001552D03*
X016552Y001552D03*
X016552Y005552D03*
X018802Y005552D03*
X020052Y005552D03*
X021302Y005552D03*
X021302Y009552D03*
X021552Y010552D03*
X020052Y009552D03*
X018802Y009552D03*
X017552Y010552D03*
X016302Y012302D03*
X015052Y012302D03*
X013802Y012302D03*
X013802Y013802D03*
X015302Y013552D03*
X013802Y015302D03*
X013802Y016802D03*
X015302Y015552D03*
X015552Y017802D03*
X014302Y019302D03*
X014302Y020302D03*
X014302Y021302D03*
X015552Y021802D03*
X011302Y021302D03*
X010302Y021552D03*
X011302Y020302D03*
X011302Y019302D03*
X011302Y018302D03*
X010302Y017552D03*
X011802Y016802D03*
X011802Y015302D03*
X011802Y013802D03*
X011802Y012302D03*
X010052Y015052D03*
X007552Y018302D03*
X005802Y018302D03*
X003802Y018302D03*
X002302Y020052D03*
X002302Y016052D03*
X002302Y013802D03*
X002302Y009802D03*
X015052Y008302D03*
X016302Y008302D03*
X017552Y013302D03*
X021302Y013302D03*
X021552Y017802D03*
X018052Y017802D03*
D13*
X023552Y011052D03*
X023552Y009552D03*
X023552Y008052D03*
X001552Y007552D03*
X001552Y005552D03*
D14*
X012802Y008802D03*
X017552Y009552D03*
D15*
X017552Y005552D03*
X012802Y009802D03*
D16*
X012802Y006052D03*
X010802Y006052D03*
X010802Y004052D03*
X012802Y004052D03*
X014802Y004052D03*
X014802Y002052D03*
X012802Y002052D03*
X010802Y002052D03*
X014802Y006052D03*
X017834Y015802D03*
X019802Y015802D03*
X021771Y015802D03*
X021771Y020802D03*
X019802Y020802D03*
X017834Y020802D03*
X008271Y020802D03*
X006302Y020802D03*
X004334Y020802D03*
X004334Y015802D03*
X006302Y015802D03*
X008271Y015802D03*
D17*
X004552Y013802D03*
X004552Y012802D03*
X004552Y011802D03*
D18*
X004302Y009312D02*
X004302Y008792D01*
X005302Y008792D02*
X005302Y009312D01*
X006302Y009312D02*
X006302Y008792D01*
X007302Y008792D02*
X007302Y009312D01*
X007302Y006312D02*
X007302Y005792D01*
X006302Y005792D02*
X006302Y006312D01*
X005302Y006312D02*
X005302Y005792D01*
X004302Y005792D02*
X004302Y006312D01*
X004302Y004812D02*
X004302Y004292D01*
X005302Y004292D02*
X005302Y004812D01*
X006302Y004812D02*
X006302Y004292D01*
X007302Y004292D02*
X007302Y004812D01*
X007302Y001812D02*
X007302Y001292D01*
X006302Y001292D02*
X006302Y001812D01*
X005302Y001812D02*
X005302Y001292D01*
X004302Y001292D02*
X004302Y001812D01*
D19*
X018012Y003122D03*
X019262Y003122D03*
X020512Y003122D03*
X022152Y003127D03*
X023552Y003127D03*
D20*
X023552Y001577D03*
X022152Y001577D03*
X020487Y001572D03*
X019262Y001572D03*
X018037Y001572D03*
M02*
