G75*
G70*
%OFA0B0*%
%FSLAX24Y24*%
%IPPOS*%
%LPD*%
%AMOC8*
5,1,8,0,0,1.08239X$1,22.5*
%
%ADD10C,0.0000*%
%ADD11C,0.0520*%
%ADD12R,0.0476X0.0476*%
%ADD13C,0.0476*%
%ADD14C,0.1181*%
%ADD15OC8,0.0520*%
%ADD16R,0.0560X0.0560*%
%ADD17C,0.0560*%
%ADD18C,0.1266*%
%ADD19OC8,0.0630*%
%ADD20OC8,0.0476*%
%ADD21C,0.0554*%
%ADD22R,0.0554X0.0554*%
%ADD23C,0.0945*%
%ADD24C,0.0886*%
%ADD25C,0.0400*%
%ADD26C,0.0320*%
%ADD27C,0.0531*%
D10*
X000302Y000806D02*
X000302Y024806D01*
X035302Y024806D01*
X035302Y000806D01*
X000302Y000806D01*
X001007Y001806D02*
X001009Y001840D01*
X001015Y001874D01*
X001025Y001907D01*
X001038Y001938D01*
X001056Y001968D01*
X001076Y001996D01*
X001100Y002021D01*
X001126Y002043D01*
X001154Y002061D01*
X001185Y002077D01*
X001217Y002089D01*
X001251Y002097D01*
X001285Y002101D01*
X001319Y002101D01*
X001353Y002097D01*
X001387Y002089D01*
X001419Y002077D01*
X001449Y002061D01*
X001478Y002043D01*
X001504Y002021D01*
X001528Y001996D01*
X001548Y001968D01*
X001566Y001938D01*
X001579Y001907D01*
X001589Y001874D01*
X001595Y001840D01*
X001597Y001806D01*
X001595Y001772D01*
X001589Y001738D01*
X001579Y001705D01*
X001566Y001674D01*
X001548Y001644D01*
X001528Y001616D01*
X001504Y001591D01*
X001478Y001569D01*
X001450Y001551D01*
X001419Y001535D01*
X001387Y001523D01*
X001353Y001515D01*
X001319Y001511D01*
X001285Y001511D01*
X001251Y001515D01*
X001217Y001523D01*
X001185Y001535D01*
X001154Y001551D01*
X001126Y001569D01*
X001100Y001591D01*
X001076Y001616D01*
X001056Y001644D01*
X001038Y001674D01*
X001025Y001705D01*
X001015Y001738D01*
X001009Y001772D01*
X001007Y001806D01*
X001319Y004081D02*
X001321Y004122D01*
X001327Y004163D01*
X001337Y004203D01*
X001350Y004242D01*
X001367Y004279D01*
X001388Y004315D01*
X001412Y004349D01*
X001439Y004380D01*
X001468Y004408D01*
X001501Y004434D01*
X001535Y004456D01*
X001572Y004475D01*
X001610Y004490D01*
X001650Y004502D01*
X001690Y004510D01*
X001731Y004514D01*
X001773Y004514D01*
X001814Y004510D01*
X001854Y004502D01*
X001894Y004490D01*
X001932Y004475D01*
X001968Y004456D01*
X002003Y004434D01*
X002036Y004408D01*
X002065Y004380D01*
X002092Y004349D01*
X002116Y004315D01*
X002137Y004279D01*
X002154Y004242D01*
X002167Y004203D01*
X002177Y004163D01*
X002183Y004122D01*
X002185Y004081D01*
X002183Y004040D01*
X002177Y003999D01*
X002167Y003959D01*
X002154Y003920D01*
X002137Y003883D01*
X002116Y003847D01*
X002092Y003813D01*
X002065Y003782D01*
X002036Y003754D01*
X002003Y003728D01*
X001969Y003706D01*
X001932Y003687D01*
X001894Y003672D01*
X001854Y003660D01*
X001814Y003652D01*
X001773Y003648D01*
X001731Y003648D01*
X001690Y003652D01*
X001650Y003660D01*
X001610Y003672D01*
X001572Y003687D01*
X001536Y003706D01*
X001501Y003728D01*
X001468Y003754D01*
X001439Y003782D01*
X001412Y003813D01*
X001388Y003847D01*
X001367Y003883D01*
X001350Y003920D01*
X001337Y003959D01*
X001327Y003999D01*
X001321Y004040D01*
X001319Y004081D01*
X001319Y005306D02*
X001321Y005347D01*
X001327Y005388D01*
X001337Y005428D01*
X001350Y005467D01*
X001367Y005504D01*
X001388Y005540D01*
X001412Y005574D01*
X001439Y005605D01*
X001468Y005633D01*
X001501Y005659D01*
X001535Y005681D01*
X001572Y005700D01*
X001610Y005715D01*
X001650Y005727D01*
X001690Y005735D01*
X001731Y005739D01*
X001773Y005739D01*
X001814Y005735D01*
X001854Y005727D01*
X001894Y005715D01*
X001932Y005700D01*
X001968Y005681D01*
X002003Y005659D01*
X002036Y005633D01*
X002065Y005605D01*
X002092Y005574D01*
X002116Y005540D01*
X002137Y005504D01*
X002154Y005467D01*
X002167Y005428D01*
X002177Y005388D01*
X002183Y005347D01*
X002185Y005306D01*
X002183Y005265D01*
X002177Y005224D01*
X002167Y005184D01*
X002154Y005145D01*
X002137Y005108D01*
X002116Y005072D01*
X002092Y005038D01*
X002065Y005007D01*
X002036Y004979D01*
X002003Y004953D01*
X001969Y004931D01*
X001932Y004912D01*
X001894Y004897D01*
X001854Y004885D01*
X001814Y004877D01*
X001773Y004873D01*
X001731Y004873D01*
X001690Y004877D01*
X001650Y004885D01*
X001610Y004897D01*
X001572Y004912D01*
X001536Y004931D01*
X001501Y004953D01*
X001468Y004979D01*
X001439Y005007D01*
X001412Y005038D01*
X001388Y005072D01*
X001367Y005108D01*
X001350Y005145D01*
X001337Y005184D01*
X001327Y005224D01*
X001321Y005265D01*
X001319Y005306D01*
X001319Y006531D02*
X001321Y006572D01*
X001327Y006613D01*
X001337Y006653D01*
X001350Y006692D01*
X001367Y006729D01*
X001388Y006765D01*
X001412Y006799D01*
X001439Y006830D01*
X001468Y006858D01*
X001501Y006884D01*
X001535Y006906D01*
X001572Y006925D01*
X001610Y006940D01*
X001650Y006952D01*
X001690Y006960D01*
X001731Y006964D01*
X001773Y006964D01*
X001814Y006960D01*
X001854Y006952D01*
X001894Y006940D01*
X001932Y006925D01*
X001968Y006906D01*
X002003Y006884D01*
X002036Y006858D01*
X002065Y006830D01*
X002092Y006799D01*
X002116Y006765D01*
X002137Y006729D01*
X002154Y006692D01*
X002167Y006653D01*
X002177Y006613D01*
X002183Y006572D01*
X002185Y006531D01*
X002183Y006490D01*
X002177Y006449D01*
X002167Y006409D01*
X002154Y006370D01*
X002137Y006333D01*
X002116Y006297D01*
X002092Y006263D01*
X002065Y006232D01*
X002036Y006204D01*
X002003Y006178D01*
X001969Y006156D01*
X001932Y006137D01*
X001894Y006122D01*
X001854Y006110D01*
X001814Y006102D01*
X001773Y006098D01*
X001731Y006098D01*
X001690Y006102D01*
X001650Y006110D01*
X001610Y006122D01*
X001572Y006137D01*
X001536Y006156D01*
X001501Y006178D01*
X001468Y006204D01*
X001439Y006232D01*
X001412Y006263D01*
X001388Y006297D01*
X001367Y006333D01*
X001350Y006370D01*
X001337Y006409D01*
X001327Y006449D01*
X001321Y006490D01*
X001319Y006531D01*
X004669Y002006D02*
X004671Y002047D01*
X004677Y002088D01*
X004687Y002128D01*
X004700Y002167D01*
X004717Y002204D01*
X004738Y002240D01*
X004762Y002274D01*
X004789Y002305D01*
X004818Y002333D01*
X004851Y002359D01*
X004885Y002381D01*
X004922Y002400D01*
X004960Y002415D01*
X005000Y002427D01*
X005040Y002435D01*
X005081Y002439D01*
X005123Y002439D01*
X005164Y002435D01*
X005204Y002427D01*
X005244Y002415D01*
X005282Y002400D01*
X005318Y002381D01*
X005353Y002359D01*
X005386Y002333D01*
X005415Y002305D01*
X005442Y002274D01*
X005466Y002240D01*
X005487Y002204D01*
X005504Y002167D01*
X005517Y002128D01*
X005527Y002088D01*
X005533Y002047D01*
X005535Y002006D01*
X005533Y001965D01*
X005527Y001924D01*
X005517Y001884D01*
X005504Y001845D01*
X005487Y001808D01*
X005466Y001772D01*
X005442Y001738D01*
X005415Y001707D01*
X005386Y001679D01*
X005353Y001653D01*
X005319Y001631D01*
X005282Y001612D01*
X005244Y001597D01*
X005204Y001585D01*
X005164Y001577D01*
X005123Y001573D01*
X005081Y001573D01*
X005040Y001577D01*
X005000Y001585D01*
X004960Y001597D01*
X004922Y001612D01*
X004886Y001631D01*
X004851Y001653D01*
X004818Y001679D01*
X004789Y001707D01*
X004762Y001738D01*
X004738Y001772D01*
X004717Y001808D01*
X004700Y001845D01*
X004687Y001884D01*
X004677Y001924D01*
X004671Y001965D01*
X004669Y002006D01*
X006069Y002006D02*
X006071Y002047D01*
X006077Y002088D01*
X006087Y002128D01*
X006100Y002167D01*
X006117Y002204D01*
X006138Y002240D01*
X006162Y002274D01*
X006189Y002305D01*
X006218Y002333D01*
X006251Y002359D01*
X006285Y002381D01*
X006322Y002400D01*
X006360Y002415D01*
X006400Y002427D01*
X006440Y002435D01*
X006481Y002439D01*
X006523Y002439D01*
X006564Y002435D01*
X006604Y002427D01*
X006644Y002415D01*
X006682Y002400D01*
X006718Y002381D01*
X006753Y002359D01*
X006786Y002333D01*
X006815Y002305D01*
X006842Y002274D01*
X006866Y002240D01*
X006887Y002204D01*
X006904Y002167D01*
X006917Y002128D01*
X006927Y002088D01*
X006933Y002047D01*
X006935Y002006D01*
X006933Y001965D01*
X006927Y001924D01*
X006917Y001884D01*
X006904Y001845D01*
X006887Y001808D01*
X006866Y001772D01*
X006842Y001738D01*
X006815Y001707D01*
X006786Y001679D01*
X006753Y001653D01*
X006719Y001631D01*
X006682Y001612D01*
X006644Y001597D01*
X006604Y001585D01*
X006564Y001577D01*
X006523Y001573D01*
X006481Y001573D01*
X006440Y001577D01*
X006400Y001585D01*
X006360Y001597D01*
X006322Y001612D01*
X006286Y001631D01*
X006251Y001653D01*
X006218Y001679D01*
X006189Y001707D01*
X006162Y001738D01*
X006138Y001772D01*
X006117Y001808D01*
X006100Y001845D01*
X006087Y001884D01*
X006077Y001924D01*
X006071Y001965D01*
X006069Y002006D01*
X034007Y001806D02*
X034009Y001840D01*
X034015Y001874D01*
X034025Y001907D01*
X034038Y001938D01*
X034056Y001968D01*
X034076Y001996D01*
X034100Y002021D01*
X034126Y002043D01*
X034154Y002061D01*
X034185Y002077D01*
X034217Y002089D01*
X034251Y002097D01*
X034285Y002101D01*
X034319Y002101D01*
X034353Y002097D01*
X034387Y002089D01*
X034419Y002077D01*
X034449Y002061D01*
X034478Y002043D01*
X034504Y002021D01*
X034528Y001996D01*
X034548Y001968D01*
X034566Y001938D01*
X034579Y001907D01*
X034589Y001874D01*
X034595Y001840D01*
X034597Y001806D01*
X034595Y001772D01*
X034589Y001738D01*
X034579Y001705D01*
X034566Y001674D01*
X034548Y001644D01*
X034528Y001616D01*
X034504Y001591D01*
X034478Y001569D01*
X034450Y001551D01*
X034419Y001535D01*
X034387Y001523D01*
X034353Y001515D01*
X034319Y001511D01*
X034285Y001511D01*
X034251Y001515D01*
X034217Y001523D01*
X034185Y001535D01*
X034154Y001551D01*
X034126Y001569D01*
X034100Y001591D01*
X034076Y001616D01*
X034056Y001644D01*
X034038Y001674D01*
X034025Y001705D01*
X034015Y001738D01*
X034009Y001772D01*
X034007Y001806D01*
X034007Y023806D02*
X034009Y023840D01*
X034015Y023874D01*
X034025Y023907D01*
X034038Y023938D01*
X034056Y023968D01*
X034076Y023996D01*
X034100Y024021D01*
X034126Y024043D01*
X034154Y024061D01*
X034185Y024077D01*
X034217Y024089D01*
X034251Y024097D01*
X034285Y024101D01*
X034319Y024101D01*
X034353Y024097D01*
X034387Y024089D01*
X034419Y024077D01*
X034449Y024061D01*
X034478Y024043D01*
X034504Y024021D01*
X034528Y023996D01*
X034548Y023968D01*
X034566Y023938D01*
X034579Y023907D01*
X034589Y023874D01*
X034595Y023840D01*
X034597Y023806D01*
X034595Y023772D01*
X034589Y023738D01*
X034579Y023705D01*
X034566Y023674D01*
X034548Y023644D01*
X034528Y023616D01*
X034504Y023591D01*
X034478Y023569D01*
X034450Y023551D01*
X034419Y023535D01*
X034387Y023523D01*
X034353Y023515D01*
X034319Y023511D01*
X034285Y023511D01*
X034251Y023515D01*
X034217Y023523D01*
X034185Y023535D01*
X034154Y023551D01*
X034126Y023569D01*
X034100Y023591D01*
X034076Y023616D01*
X034056Y023644D01*
X034038Y023674D01*
X034025Y023705D01*
X034015Y023738D01*
X034009Y023772D01*
X034007Y023806D01*
X001007Y023806D02*
X001009Y023840D01*
X001015Y023874D01*
X001025Y023907D01*
X001038Y023938D01*
X001056Y023968D01*
X001076Y023996D01*
X001100Y024021D01*
X001126Y024043D01*
X001154Y024061D01*
X001185Y024077D01*
X001217Y024089D01*
X001251Y024097D01*
X001285Y024101D01*
X001319Y024101D01*
X001353Y024097D01*
X001387Y024089D01*
X001419Y024077D01*
X001449Y024061D01*
X001478Y024043D01*
X001504Y024021D01*
X001528Y023996D01*
X001548Y023968D01*
X001566Y023938D01*
X001579Y023907D01*
X001589Y023874D01*
X001595Y023840D01*
X001597Y023806D01*
X001595Y023772D01*
X001589Y023738D01*
X001579Y023705D01*
X001566Y023674D01*
X001548Y023644D01*
X001528Y023616D01*
X001504Y023591D01*
X001478Y023569D01*
X001450Y023551D01*
X001419Y023535D01*
X001387Y023523D01*
X001353Y023515D01*
X001319Y023511D01*
X001285Y023511D01*
X001251Y023515D01*
X001217Y023523D01*
X001185Y023535D01*
X001154Y023551D01*
X001126Y023569D01*
X001100Y023591D01*
X001076Y023616D01*
X001056Y023644D01*
X001038Y023674D01*
X001025Y023705D01*
X001015Y023738D01*
X001009Y023772D01*
X001007Y023806D01*
D11*
X011542Y018806D02*
X012062Y018806D01*
X012062Y017806D02*
X011542Y017806D01*
X011542Y016806D02*
X012062Y016806D01*
X012062Y015806D02*
X011542Y015806D01*
X014542Y015806D02*
X015062Y015806D01*
X015062Y016806D02*
X014542Y016806D01*
X014542Y017806D02*
X015062Y017806D01*
X015062Y018806D02*
X014542Y018806D01*
X012562Y011306D02*
X012042Y011306D01*
X012042Y010306D02*
X012562Y010306D01*
X012562Y009306D02*
X012042Y009306D01*
X012042Y008306D02*
X012562Y008306D01*
X012562Y007306D02*
X012042Y007306D01*
X012042Y006306D02*
X012562Y006306D01*
X012562Y005306D02*
X012042Y005306D01*
X009562Y005306D02*
X009042Y005306D01*
X009042Y006306D02*
X009562Y006306D01*
X009562Y007306D02*
X009042Y007306D01*
X009042Y008306D02*
X009562Y008306D01*
X009562Y009306D02*
X009042Y009306D01*
X009042Y010306D02*
X009562Y010306D01*
X009562Y011306D02*
X009042Y011306D01*
X021292Y008306D02*
X021812Y008306D01*
X021812Y007306D02*
X021292Y007306D01*
X021292Y006306D02*
X021812Y006306D01*
X021812Y005306D02*
X021292Y005306D01*
X021292Y004306D02*
X021812Y004306D01*
X021812Y003306D02*
X021292Y003306D01*
X021292Y002306D02*
X021812Y002306D01*
X024292Y002306D02*
X024812Y002306D01*
X024812Y003306D02*
X024292Y003306D01*
X024292Y004306D02*
X024812Y004306D01*
X024812Y005306D02*
X024292Y005306D01*
X024292Y006306D02*
X024812Y006306D01*
X024812Y007306D02*
X024292Y007306D01*
X024292Y008306D02*
X024812Y008306D01*
X027542Y012806D02*
X028062Y012806D01*
X028062Y013806D02*
X027542Y013806D01*
X027542Y014806D02*
X028062Y014806D01*
X028062Y015806D02*
X027542Y015806D01*
X027542Y016806D02*
X028062Y016806D01*
X028062Y017806D02*
X027542Y017806D01*
X027542Y018806D02*
X028062Y018806D01*
X030542Y018806D02*
X031062Y018806D01*
X031062Y017806D02*
X030542Y017806D01*
X030542Y016806D02*
X031062Y016806D01*
X031062Y015806D02*
X030542Y015806D01*
X030542Y014806D02*
X031062Y014806D01*
X031062Y013806D02*
X030542Y013806D01*
X030542Y012806D02*
X031062Y012806D01*
D12*
X026552Y010806D03*
X033552Y017556D03*
X021552Y018806D03*
X017052Y014556D03*
X009552Y018806D03*
X008302Y014306D03*
X007552Y009806D03*
D13*
X007552Y010806D03*
X006302Y009056D03*
X006302Y005056D03*
X014802Y005306D03*
X014802Y006806D03*
X018802Y006806D03*
X018802Y005306D03*
X018802Y009806D03*
X017802Y011306D03*
X014802Y009806D03*
X013802Y011306D03*
X017052Y013556D03*
X016552Y016306D03*
X018052Y016306D03*
X021552Y019806D03*
X018052Y020306D03*
X016552Y020306D03*
X008552Y018806D03*
X006802Y020556D03*
X005302Y020556D03*
X005302Y016556D03*
X006802Y016556D03*
X008302Y015306D03*
X025552Y010806D03*
X033552Y018556D03*
D14*
X032521Y022306D03*
X030552Y022306D03*
X028584Y022306D03*
X026271Y022306D03*
X024302Y022306D03*
X022334Y022306D03*
X020021Y022306D03*
X018052Y022306D03*
X016084Y022306D03*
X013771Y022306D03*
X011802Y022306D03*
X009834Y022306D03*
X007271Y022306D03*
X005302Y022306D03*
X003334Y022306D03*
D15*
X012302Y020306D03*
X014302Y020306D03*
X014302Y014306D03*
X012302Y014306D03*
X011802Y012806D03*
X009802Y012806D03*
X022052Y009806D03*
X024052Y009806D03*
X028302Y020306D03*
X030302Y020306D03*
D16*
X014802Y008306D03*
X005052Y010056D03*
D17*
X005052Y006056D03*
X018802Y008306D03*
D18*
X020302Y011706D03*
X020302Y013556D03*
X013653Y002806D03*
X011802Y002806D03*
X009952Y002806D03*
X003052Y011706D03*
X003052Y013556D03*
D19*
X024302Y013806D03*
X025302Y013806D03*
X026302Y013806D03*
X026302Y014806D03*
X025302Y014806D03*
X024302Y014806D03*
X024302Y015806D03*
X025302Y015806D03*
X026302Y015806D03*
X025302Y016806D03*
X024302Y016806D03*
X024302Y012806D03*
X025302Y012806D03*
X027052Y008556D03*
X028052Y008556D03*
X029052Y008556D03*
X030052Y008556D03*
X029052Y007556D03*
X028052Y007556D03*
X027052Y007556D03*
X027052Y006556D03*
X028052Y006556D03*
X029052Y006556D03*
X029052Y005556D03*
X028052Y005556D03*
X027052Y005556D03*
X027052Y004556D03*
X028052Y004556D03*
X029052Y004556D03*
X029052Y003556D03*
X028052Y003556D03*
X027052Y003556D03*
X027052Y002556D03*
X028052Y002556D03*
X029052Y002556D03*
X029052Y001556D03*
X028052Y001556D03*
X027052Y001556D03*
X030052Y001556D03*
D20*
X006302Y011806D03*
X006302Y012806D03*
X006302Y013806D03*
D21*
X002302Y009056D03*
D22*
X003302Y009056D03*
D23*
X003302Y006556D03*
X003302Y005306D03*
X003302Y004056D03*
X005102Y003556D03*
X006502Y003556D03*
D24*
X016802Y002306D03*
X018302Y002306D03*
X019802Y002306D03*
X033302Y010806D03*
X033302Y012306D03*
X033302Y013806D03*
X002302Y017806D03*
X002302Y019806D03*
D25*
X002877Y020367D02*
X002757Y020487D01*
X002462Y020609D01*
X002143Y020609D01*
X001848Y020487D01*
X001622Y020261D01*
X001499Y019966D01*
X001499Y019647D01*
X001622Y019351D01*
X001848Y019126D01*
X002143Y019003D01*
X002462Y019003D01*
X002757Y019126D01*
X002918Y019286D01*
X003156Y019286D01*
X003347Y019365D01*
X003493Y019512D01*
X004739Y020757D01*
X004705Y020675D01*
X004705Y020437D01*
X004796Y020218D01*
X004964Y020049D01*
X005183Y019959D01*
X005421Y019959D01*
X005641Y020049D01*
X005809Y020218D01*
X005900Y020437D01*
X005900Y020675D01*
X005809Y020895D01*
X005641Y021063D01*
X005421Y021154D01*
X005183Y021154D01*
X005101Y021120D01*
X005337Y021356D01*
X005491Y021356D01*
X005841Y021500D01*
X006108Y021768D01*
X006253Y022117D01*
X006253Y022495D01*
X006108Y022845D01*
X005841Y023112D01*
X005491Y023257D01*
X005113Y023257D01*
X004764Y023112D01*
X004497Y022845D01*
X004352Y022495D01*
X004352Y022117D01*
X004433Y021922D01*
X002877Y020367D01*
X003244Y020733D02*
X000902Y020733D01*
X000902Y021132D02*
X003643Y021132D01*
X003523Y021356D02*
X003872Y021500D01*
X004140Y021768D01*
X004284Y022117D01*
X004284Y022495D01*
X004140Y022845D01*
X003872Y023112D01*
X003523Y023257D01*
X003145Y023257D01*
X002795Y023112D01*
X002528Y022845D01*
X002383Y022495D01*
X002383Y022117D01*
X002528Y021768D01*
X002795Y021500D01*
X003145Y021356D01*
X003523Y021356D01*
X003902Y021531D02*
X004041Y021531D01*
X004206Y021929D02*
X004430Y021929D01*
X004352Y022328D02*
X004284Y022328D01*
X004189Y022726D02*
X004447Y022726D01*
X004794Y023125D02*
X003842Y023125D01*
X002826Y023125D02*
X001887Y023125D01*
X001809Y023047D02*
X002061Y023299D01*
X002198Y023628D01*
X002198Y023806D01*
X033407Y023806D01*
X033407Y023628D01*
X033543Y023299D01*
X033795Y023047D01*
X034124Y022911D01*
X034480Y022911D01*
X034552Y022941D01*
X034552Y002672D01*
X034480Y002702D01*
X034124Y002702D01*
X033795Y002565D01*
X033543Y002313D01*
X033407Y001984D01*
X033407Y001628D01*
X033499Y001406D01*
X030667Y001406D01*
X030667Y001556D01*
X030053Y001556D01*
X030053Y001556D01*
X030667Y001556D01*
X030667Y001811D01*
X030307Y002171D01*
X030053Y002171D01*
X030053Y001557D01*
X030052Y001557D01*
X030052Y002171D01*
X029798Y002171D01*
X029552Y001926D01*
X029464Y002014D01*
X029727Y002277D01*
X029727Y002836D01*
X029507Y003056D01*
X029727Y003277D01*
X029727Y003836D01*
X029507Y004056D01*
X029727Y004277D01*
X029727Y004836D01*
X029507Y005056D01*
X029727Y005277D01*
X029727Y005836D01*
X029507Y006056D01*
X029727Y006277D01*
X029727Y006836D01*
X029507Y007056D01*
X029727Y007277D01*
X029727Y007836D01*
X029507Y008056D01*
X029552Y008102D01*
X029773Y007881D01*
X030332Y007881D01*
X030727Y008277D01*
X030727Y008836D01*
X030332Y009231D01*
X029773Y009231D01*
X029552Y009011D01*
X029332Y009231D01*
X028773Y009231D01*
X028552Y009011D01*
X028332Y009231D01*
X027773Y009231D01*
X027552Y009011D01*
X027426Y009138D01*
X027527Y009239D01*
X028777Y010489D01*
X029777Y011489D01*
X029862Y011695D01*
X029862Y011918D01*
X029862Y015668D01*
X029777Y015874D01*
X029620Y016031D01*
X028655Y016996D01*
X028588Y017157D01*
X028439Y017306D01*
X028588Y017455D01*
X028682Y017683D01*
X028682Y017930D01*
X028588Y018157D01*
X028439Y018306D01*
X028588Y018455D01*
X028682Y018683D01*
X028682Y018930D01*
X028588Y019157D01*
X028414Y019332D01*
X028186Y019426D01*
X027419Y019426D01*
X027191Y019332D01*
X027017Y019157D01*
X026922Y018930D01*
X026922Y018683D01*
X027017Y018455D01*
X027166Y018306D01*
X027017Y018157D01*
X026922Y017930D01*
X026922Y017683D01*
X027017Y017455D01*
X027166Y017306D01*
X027017Y017157D01*
X026922Y016930D01*
X026922Y016683D01*
X027017Y016455D01*
X027166Y016306D01*
X027017Y016157D01*
X026977Y016062D01*
X026977Y016086D01*
X026582Y016481D01*
X026023Y016481D01*
X025802Y016261D01*
X025757Y016306D01*
X025977Y016527D01*
X025977Y017086D01*
X025582Y017481D01*
X025023Y017481D01*
X024802Y017261D01*
X024582Y017481D01*
X024023Y017481D01*
X023627Y017086D01*
X023627Y016527D01*
X023848Y016306D01*
X023627Y016086D01*
X023627Y015527D01*
X023848Y015306D01*
X023627Y015086D01*
X023627Y014527D01*
X023848Y014306D01*
X023627Y014086D01*
X023627Y013527D01*
X023890Y013264D01*
X023687Y013061D01*
X023687Y012806D01*
X023687Y012552D01*
X024048Y012191D01*
X024302Y012191D01*
X024302Y012806D01*
X023687Y012806D01*
X024302Y012806D01*
X024302Y012806D01*
X024303Y012806D01*
X024303Y012806D01*
X024687Y012806D01*
X025302Y012806D01*
X025302Y012806D01*
X025303Y012806D01*
X025303Y012806D01*
X025917Y012806D01*
X025917Y012552D01*
X025557Y012191D01*
X025303Y012191D01*
X025303Y012806D01*
X025917Y012806D01*
X025917Y013061D01*
X025714Y013264D01*
X025802Y013352D01*
X026023Y013131D01*
X026582Y013131D01*
X026977Y013527D01*
X026977Y013550D01*
X027017Y013455D01*
X027191Y013281D01*
X027224Y013267D01*
X027178Y013233D01*
X027115Y013171D01*
X027063Y013100D01*
X027023Y013021D01*
X026996Y012937D01*
X026982Y012850D01*
X026982Y012806D01*
X026982Y012762D01*
X026996Y012675D01*
X027023Y012591D01*
X027063Y012513D01*
X027115Y012441D01*
X027178Y012379D01*
X027249Y012327D01*
X027327Y012287D01*
X027411Y012260D01*
X027498Y012246D01*
X027802Y012246D01*
X027802Y012806D01*
X026982Y012806D01*
X027802Y012806D01*
X027802Y012806D01*
X027803Y012806D01*
X027803Y012806D01*
X028622Y012806D01*
X028622Y012762D01*
X028609Y012675D01*
X028581Y012591D01*
X028541Y012513D01*
X028489Y012441D01*
X028427Y012379D01*
X028356Y012327D01*
X028277Y012287D01*
X028194Y012260D01*
X028106Y012246D01*
X027803Y012246D01*
X027803Y012806D01*
X028622Y012806D01*
X028622Y012850D01*
X028609Y012937D01*
X028581Y013021D01*
X028541Y013100D01*
X028489Y013171D01*
X028427Y013233D01*
X028381Y013267D01*
X028414Y013281D01*
X028588Y013455D01*
X028682Y013683D01*
X028682Y013930D01*
X028588Y014157D01*
X028439Y014306D01*
X028588Y014455D01*
X028682Y014683D01*
X028682Y014930D01*
X028588Y015157D01*
X028439Y015306D01*
X028588Y015455D01*
X028595Y015472D01*
X028742Y015324D01*
X028742Y012038D01*
X027985Y011281D01*
X027114Y010410D01*
X027150Y010497D01*
X027150Y011116D01*
X027095Y011248D01*
X026994Y011349D01*
X026862Y011404D01*
X026243Y011404D01*
X026111Y011349D01*
X026009Y011248D01*
X025968Y011149D01*
X025963Y011157D01*
X025903Y011216D01*
X025834Y011266D01*
X025759Y011305D01*
X025678Y011331D01*
X025595Y011344D01*
X025553Y011344D01*
X025553Y010807D01*
X025552Y010807D01*
X025552Y011344D01*
X025510Y011344D01*
X025426Y011331D01*
X025346Y011305D01*
X025270Y011266D01*
X025202Y011216D01*
X025142Y011157D01*
X025092Y011088D01*
X025054Y011013D01*
X025028Y010932D01*
X025020Y010881D01*
X024620Y011281D01*
X024414Y011366D01*
X024191Y011366D01*
X021237Y011366D01*
X021295Y011508D01*
X021295Y011903D01*
X021144Y012268D01*
X020865Y012548D01*
X020664Y012631D01*
X020865Y012714D01*
X021144Y012994D01*
X021295Y013359D01*
X021295Y013754D01*
X021144Y014119D01*
X020865Y014398D01*
X020822Y014416D01*
X020822Y015841D01*
X024743Y019762D01*
X024822Y019953D01*
X024822Y020160D01*
X024822Y021493D01*
X024841Y021500D01*
X025108Y021768D01*
X025253Y022117D01*
X025253Y022495D01*
X025108Y022845D01*
X024841Y023112D01*
X024491Y023257D01*
X024113Y023257D01*
X023764Y023112D01*
X023497Y022845D01*
X023352Y022495D01*
X023352Y022117D01*
X023497Y021768D01*
X023764Y021500D01*
X023782Y021493D01*
X023782Y020272D01*
X022150Y018639D01*
X022150Y019116D01*
X022095Y019248D01*
X021994Y019349D01*
X021895Y019390D01*
X021903Y019396D01*
X021963Y019456D01*
X022012Y019524D01*
X022051Y019600D01*
X022077Y019680D01*
X022090Y019764D01*
X022090Y019806D01*
X021553Y019806D01*
X021553Y019806D01*
X022090Y019806D01*
X022090Y019849D01*
X022077Y019932D01*
X022051Y020013D01*
X022012Y020088D01*
X021963Y020157D01*
X021903Y020216D01*
X021834Y020266D01*
X021759Y020305D01*
X021678Y020331D01*
X021595Y020344D01*
X021553Y020344D01*
X021553Y019807D01*
X021552Y019807D01*
X021552Y020344D01*
X021510Y020344D01*
X021426Y020331D01*
X021346Y020305D01*
X021270Y020266D01*
X021202Y020216D01*
X021142Y020157D01*
X021092Y020088D01*
X021054Y020013D01*
X021028Y019932D01*
X021015Y019849D01*
X021015Y019806D01*
X021015Y019764D01*
X021028Y019680D01*
X021054Y019600D01*
X021092Y019524D01*
X021142Y019456D01*
X021202Y019396D01*
X021210Y019390D01*
X021111Y019349D01*
X021009Y019248D01*
X020955Y019116D01*
X020955Y018497D01*
X021009Y018365D01*
X021111Y018263D01*
X021243Y018209D01*
X021719Y018209D01*
X020008Y016497D01*
X019862Y016351D01*
X019782Y016160D01*
X019782Y014416D01*
X019740Y014398D01*
X019612Y014271D01*
X019612Y018824D01*
X020496Y019708D01*
X020581Y019913D01*
X020581Y020136D01*
X020581Y021522D01*
X020827Y021768D01*
X020971Y022117D01*
X020971Y022495D01*
X020827Y022845D01*
X020559Y023112D01*
X020210Y023257D01*
X019832Y023257D01*
X019482Y023112D01*
X019215Y022845D01*
X019070Y022495D01*
X019070Y022117D01*
X019215Y021768D01*
X019461Y021522D01*
X019461Y020257D01*
X018735Y019531D01*
X018578Y019374D01*
X018492Y019168D01*
X018492Y016712D01*
X018391Y016813D01*
X018171Y016904D01*
X017933Y016904D01*
X017714Y016813D01*
X017546Y016645D01*
X017455Y016425D01*
X017455Y016187D01*
X017546Y015968D01*
X017714Y015799D01*
X017933Y015709D01*
X018171Y015709D01*
X018391Y015799D01*
X018492Y015901D01*
X018492Y011418D01*
X018492Y011195D01*
X018578Y010989D01*
X019078Y010489D01*
X019235Y010332D01*
X019441Y010246D01*
X021700Y010246D01*
X021492Y010038D01*
X021492Y009806D01*
X021492Y009574D01*
X019411Y009574D01*
X019406Y009576D02*
X019354Y009576D01*
X019400Y009687D01*
X019400Y009925D01*
X019309Y010145D01*
X019141Y010313D01*
X019050Y010351D01*
X018362Y011038D01*
X018362Y011096D01*
X018400Y011187D01*
X018400Y011425D01*
X018309Y011645D01*
X018141Y011813D01*
X017921Y011904D01*
X017683Y011904D01*
X017464Y011813D01*
X017296Y011645D01*
X017205Y011425D01*
X017205Y011187D01*
X017242Y011096D01*
X017242Y010918D01*
X017242Y010695D01*
X017328Y010489D01*
X018240Y009576D01*
X016572Y009576D01*
X016572Y012660D01*
X016493Y012851D01*
X016347Y012997D01*
X014922Y014422D01*
X014922Y014563D01*
X014559Y014926D01*
X014046Y014926D01*
X013822Y014703D01*
X013822Y015910D01*
X013743Y016101D01*
X013597Y016247D01*
X013347Y016497D01*
X012597Y017247D01*
X012502Y017286D01*
X013087Y017286D01*
X014008Y016365D01*
X014161Y016302D01*
X014017Y016157D01*
X013922Y015930D01*
X013922Y015683D01*
X014017Y015455D01*
X014191Y015281D01*
X014419Y015186D01*
X015186Y015186D01*
X015414Y015281D01*
X015588Y015455D01*
X015682Y015683D01*
X015682Y015930D01*
X015588Y016157D01*
X015439Y016306D01*
X015588Y016455D01*
X015682Y016683D01*
X015682Y016930D01*
X015588Y017157D01*
X015439Y017306D01*
X015588Y017455D01*
X015682Y017683D01*
X015682Y017930D01*
X015588Y018157D01*
X015439Y018306D01*
X015588Y018455D01*
X015682Y018683D01*
X015682Y018930D01*
X015588Y019157D01*
X015414Y019332D01*
X015186Y019426D01*
X014419Y019426D01*
X014191Y019332D01*
X014057Y019197D01*
X013993Y019351D01*
X013847Y019497D01*
X013347Y019997D01*
X013156Y020076D01*
X012949Y020076D01*
X012862Y020076D01*
X012862Y020306D01*
X012303Y020306D01*
X012303Y020306D01*
X012862Y020306D01*
X012862Y020538D01*
X012534Y020866D01*
X012303Y020866D01*
X012303Y020307D01*
X012302Y020307D01*
X012302Y020866D01*
X012070Y020866D01*
X011742Y020538D01*
X011742Y020306D01*
X011742Y020102D01*
X010354Y021490D01*
X010354Y021493D01*
X010372Y021500D01*
X010640Y021768D01*
X010784Y022117D01*
X010784Y022495D01*
X010640Y022845D01*
X010372Y023112D01*
X010023Y023257D01*
X009645Y023257D01*
X009295Y023112D01*
X009028Y022845D01*
X008883Y022495D01*
X008883Y022117D01*
X009028Y021768D01*
X009295Y021500D01*
X009314Y021493D01*
X009314Y021378D01*
X009314Y021171D01*
X009393Y020980D01*
X011112Y019262D01*
X011159Y019215D01*
X011115Y019171D01*
X011063Y019100D01*
X011023Y019021D01*
X010996Y018937D01*
X010982Y018850D01*
X010982Y018806D01*
X010982Y018762D01*
X010996Y018675D01*
X011023Y018591D01*
X011063Y018513D01*
X011115Y018441D01*
X011178Y018379D01*
X011224Y018345D01*
X011191Y018332D01*
X011017Y018157D01*
X010922Y017930D01*
X010922Y017922D01*
X010847Y017997D01*
X010847Y017997D01*
X010150Y018694D01*
X010150Y019116D01*
X010095Y019248D01*
X009994Y019349D01*
X009862Y019404D01*
X009243Y019404D01*
X009111Y019349D01*
X009009Y019248D01*
X008994Y019210D01*
X008891Y019313D01*
X008671Y019404D01*
X008433Y019404D01*
X008214Y019313D01*
X008046Y019145D01*
X007955Y018925D01*
X007955Y018687D01*
X008046Y018468D01*
X008214Y018299D01*
X008433Y018209D01*
X008671Y018209D01*
X008891Y018299D01*
X008994Y018402D01*
X009009Y018365D01*
X009111Y018263D01*
X009112Y018262D01*
X010032Y017341D01*
X010032Y013366D01*
X009803Y013366D01*
X009803Y012807D01*
X009802Y012807D01*
X009802Y013366D01*
X009570Y013366D01*
X009242Y013038D01*
X009242Y012806D01*
X009242Y012574D01*
X009570Y012246D01*
X009802Y012246D01*
X009802Y012806D01*
X009242Y012806D01*
X009802Y012806D01*
X009802Y012806D01*
X009803Y012806D01*
X009803Y012246D01*
X010032Y012246D01*
X010032Y011713D01*
X009914Y011832D01*
X009686Y011926D01*
X008919Y011926D01*
X008691Y011832D01*
X008517Y011657D01*
X008422Y011430D01*
X008422Y011183D01*
X008517Y010955D01*
X008666Y010806D01*
X008517Y010657D01*
X008422Y010430D01*
X008422Y010183D01*
X008517Y009955D01*
X008666Y009806D01*
X008517Y009657D01*
X008422Y009430D01*
X008422Y009183D01*
X008517Y008955D01*
X008666Y008806D01*
X008517Y008657D01*
X008422Y008430D01*
X008422Y008183D01*
X008517Y007955D01*
X008666Y007806D01*
X008517Y007657D01*
X008422Y007430D01*
X008422Y007183D01*
X003853Y007183D01*
X003774Y007262D02*
X003468Y007389D01*
X003137Y007389D01*
X002831Y007262D01*
X002636Y007067D01*
X002579Y007166D01*
X002387Y007358D01*
X002151Y007494D01*
X001888Y007564D01*
X001616Y007564D01*
X001354Y007494D01*
X001118Y007358D01*
X000926Y007166D01*
X000902Y007125D01*
X000902Y023003D01*
X001124Y022911D01*
X001480Y022911D01*
X001809Y023047D01*
X002479Y022726D02*
X000902Y022726D01*
X000902Y022328D02*
X002383Y022328D01*
X002461Y021929D02*
X000902Y021929D01*
X000902Y021531D02*
X002765Y021531D01*
X001696Y020335D02*
X000902Y020335D01*
X000902Y019936D02*
X001499Y019936D01*
X001544Y019538D02*
X000902Y019538D01*
X000902Y019139D02*
X001834Y019139D01*
X002063Y018511D02*
X001973Y018474D01*
X001889Y018425D01*
X001811Y018366D01*
X001743Y018297D01*
X001683Y018220D01*
X001635Y018136D01*
X001597Y018046D01*
X001572Y017952D01*
X001559Y017855D01*
X001559Y017806D01*
X001559Y017758D01*
X001572Y017661D01*
X001597Y017567D01*
X001635Y017477D01*
X001683Y017393D01*
X001743Y017315D01*
X001811Y017247D01*
X001889Y017187D01*
X001973Y017139D01*
X002063Y017101D01*
X002157Y017076D01*
X002254Y017063D01*
X002302Y017063D01*
X002302Y017806D01*
X001559Y017806D01*
X002302Y017806D01*
X002302Y017806D01*
X002303Y017806D01*
X002303Y017806D01*
X003045Y017806D01*
X003045Y017758D01*
X003033Y017661D01*
X003007Y017567D01*
X002970Y017477D01*
X002921Y017393D01*
X002862Y017315D01*
X002793Y017247D01*
X002716Y017187D01*
X002632Y017139D01*
X002542Y017101D01*
X002448Y017076D01*
X002351Y017063D01*
X002303Y017063D01*
X002303Y017806D01*
X003045Y017806D01*
X003045Y017855D01*
X003033Y017952D01*
X003007Y018046D01*
X002970Y018136D01*
X002921Y018220D01*
X002862Y018297D01*
X002793Y018366D01*
X002716Y018425D01*
X002632Y018474D01*
X002542Y018511D01*
X002448Y018536D01*
X002351Y018549D01*
X002303Y018549D01*
X002303Y017807D01*
X002302Y017807D01*
X002302Y018549D01*
X002254Y018549D01*
X002157Y018536D01*
X002063Y018511D01*
X002302Y018342D02*
X002303Y018342D01*
X002302Y017944D02*
X002303Y017944D01*
X002817Y018342D02*
X008171Y018342D01*
X007955Y018741D02*
X000902Y018741D01*
X000902Y018342D02*
X001788Y018342D01*
X001571Y017944D02*
X000902Y017944D01*
X000902Y017545D02*
X001606Y017545D01*
X001959Y017147D02*
X000902Y017147D01*
X000902Y016748D02*
X004799Y016748D01*
X004804Y016763D02*
X004778Y016682D01*
X004765Y016599D01*
X004765Y016556D01*
X004765Y016514D01*
X004778Y016430D01*
X004804Y016350D01*
X004842Y016274D01*
X004892Y016206D01*
X004952Y016146D01*
X005020Y016096D01*
X005096Y016058D01*
X005176Y016032D01*
X005260Y016019D01*
X005302Y016019D01*
X005302Y016556D01*
X004765Y016556D01*
X005302Y016556D01*
X005302Y016556D01*
X005303Y016556D01*
X005303Y016556D01*
X005840Y016556D01*
X005840Y016514D01*
X005827Y016430D01*
X005801Y016350D01*
X005762Y016274D01*
X005713Y016206D01*
X005653Y016146D01*
X005584Y016096D01*
X005509Y016058D01*
X005428Y016032D01*
X005345Y016019D01*
X005303Y016019D01*
X005303Y016556D01*
X005840Y016556D01*
X005840Y016599D01*
X005827Y016682D01*
X005801Y016763D01*
X005762Y016838D01*
X005713Y016907D01*
X005653Y016966D01*
X005584Y017016D01*
X005509Y017055D01*
X005428Y017081D01*
X005345Y017094D01*
X005303Y017094D01*
X005303Y016557D01*
X005302Y016557D01*
X005302Y017094D01*
X005260Y017094D01*
X005176Y017081D01*
X005096Y017055D01*
X005020Y017016D01*
X004952Y016966D01*
X004892Y016907D01*
X004842Y016838D01*
X004804Y016763D01*
X005302Y016748D02*
X005303Y016748D01*
X005302Y016349D02*
X005303Y016349D01*
X004804Y016349D02*
X000902Y016349D01*
X000902Y015951D02*
X010032Y015951D01*
X010032Y016349D02*
X007364Y016349D01*
X007400Y016437D02*
X007309Y016218D01*
X007141Y016049D01*
X006921Y015959D01*
X006683Y015959D01*
X006464Y016049D01*
X006296Y016218D01*
X006205Y016437D01*
X006205Y016675D01*
X006296Y016895D01*
X006464Y017063D01*
X006683Y017154D01*
X006921Y017154D01*
X007141Y017063D01*
X007309Y016895D01*
X007400Y016675D01*
X007400Y016437D01*
X007370Y016748D02*
X010032Y016748D01*
X010032Y017147D02*
X006939Y017147D01*
X006665Y017147D02*
X002645Y017147D01*
X002303Y017147D02*
X002302Y017147D01*
X002302Y017545D02*
X002303Y017545D01*
X002998Y017545D02*
X009828Y017545D01*
X009430Y017944D02*
X003034Y017944D01*
X002771Y019139D02*
X008043Y019139D01*
X008934Y018342D02*
X009032Y018342D01*
X009111Y018263D02*
X009111Y018263D01*
X010150Y018741D02*
X010986Y018741D01*
X010982Y018806D02*
X011802Y018806D01*
X011802Y018806D01*
X010982Y018806D01*
X011092Y019139D02*
X010140Y019139D01*
X010835Y019538D02*
X003519Y019538D01*
X003918Y019936D02*
X010437Y019936D01*
X010038Y020335D02*
X007358Y020335D01*
X007400Y020437D02*
X007309Y020218D01*
X007141Y020049D01*
X006921Y019959D01*
X006683Y019959D01*
X006464Y020049D01*
X006296Y020218D01*
X006205Y020437D01*
X006205Y020675D01*
X006296Y020895D01*
X006464Y021063D01*
X006683Y021154D01*
X006921Y021154D01*
X007141Y021063D01*
X007309Y020895D01*
X007400Y020675D01*
X007400Y020437D01*
X007376Y020733D02*
X009640Y020733D01*
X009330Y021132D02*
X006975Y021132D01*
X007097Y021431D02*
X007212Y021416D01*
X007271Y021416D01*
X007329Y021416D01*
X007445Y021431D01*
X007558Y021461D01*
X007666Y021506D01*
X007767Y021564D01*
X007859Y021635D01*
X007942Y021718D01*
X008013Y021810D01*
X008071Y021912D01*
X008116Y022019D01*
X008146Y022132D01*
X008161Y022248D01*
X008161Y022306D01*
X007271Y022306D01*
X007271Y021416D01*
X007271Y022306D01*
X007271Y022306D01*
X007271Y022306D01*
X008161Y022306D01*
X008161Y022365D01*
X008146Y022480D01*
X008116Y022593D01*
X008071Y022701D01*
X008013Y022802D01*
X007942Y022895D01*
X007859Y022977D01*
X007767Y023048D01*
X007666Y023107D01*
X007558Y023151D01*
X007445Y023182D01*
X007329Y023197D01*
X007271Y023197D01*
X007271Y022307D01*
X007271Y022307D01*
X007271Y023197D01*
X007212Y023197D01*
X007097Y023182D01*
X006984Y023151D01*
X006876Y023107D01*
X006775Y023048D01*
X006682Y022977D01*
X006600Y022895D01*
X006529Y022802D01*
X006470Y022701D01*
X006426Y022593D01*
X006396Y022480D01*
X006380Y022365D01*
X006380Y022306D01*
X006380Y022248D01*
X006396Y022132D01*
X006426Y022019D01*
X006470Y021912D01*
X006529Y021810D01*
X006600Y021718D01*
X006682Y021635D01*
X006775Y021564D01*
X006876Y021506D01*
X006984Y021461D01*
X007097Y021431D01*
X007271Y021531D02*
X007271Y021531D01*
X007708Y021531D02*
X009265Y021531D01*
X008961Y021929D02*
X008079Y021929D01*
X008161Y022328D02*
X008883Y022328D01*
X008979Y022726D02*
X008057Y022726D01*
X007622Y023125D02*
X009326Y023125D01*
X010342Y023125D02*
X011294Y023125D01*
X011264Y023112D02*
X010997Y022845D01*
X010852Y022495D01*
X010852Y022117D01*
X010997Y021768D01*
X011264Y021500D01*
X011613Y021356D01*
X011991Y021356D01*
X012341Y021500D01*
X012608Y021768D01*
X012753Y022117D01*
X012753Y022495D01*
X012608Y022845D01*
X012341Y023112D01*
X011991Y023257D01*
X011613Y023257D01*
X011264Y023112D01*
X010947Y022726D02*
X010689Y022726D01*
X010784Y022328D02*
X010852Y022328D01*
X010930Y021929D02*
X010706Y021929D01*
X010402Y021531D02*
X011234Y021531D01*
X010712Y021132D02*
X019461Y021132D01*
X019461Y020733D02*
X018471Y020733D01*
X018391Y020813D02*
X018171Y020904D01*
X017933Y020904D01*
X017714Y020813D01*
X017546Y020645D01*
X017455Y020425D01*
X017455Y020187D01*
X017546Y019968D01*
X017714Y019799D01*
X017933Y019709D01*
X018171Y019709D01*
X018391Y019799D01*
X018559Y019968D01*
X018650Y020187D01*
X018650Y020425D01*
X018559Y020645D01*
X018391Y020813D01*
X018650Y020335D02*
X019461Y020335D01*
X019141Y019936D02*
X018528Y019936D01*
X018742Y019538D02*
X013806Y019538D01*
X014046Y019686D02*
X014559Y019686D01*
X014922Y020049D01*
X014922Y020563D01*
X014559Y020926D01*
X014046Y020926D01*
X013682Y020563D01*
X013682Y020049D01*
X014046Y019686D01*
X013795Y019936D02*
X013408Y019936D01*
X013682Y020335D02*
X012862Y020335D01*
X012667Y020733D02*
X013853Y020733D01*
X013960Y021356D02*
X013582Y021356D01*
X013232Y021500D01*
X012965Y021768D01*
X012820Y022117D01*
X012820Y022495D01*
X012965Y022845D01*
X013232Y023112D01*
X013582Y023257D01*
X013960Y023257D01*
X014309Y023112D01*
X014577Y022845D01*
X014721Y022495D01*
X014721Y022117D01*
X014577Y021768D01*
X014309Y021500D01*
X013960Y021356D01*
X014339Y021531D02*
X015515Y021531D01*
X015545Y021500D02*
X015895Y021356D01*
X016273Y021356D01*
X016622Y021500D01*
X016890Y021768D01*
X017034Y022117D01*
X017034Y022495D01*
X016890Y022845D01*
X016622Y023112D01*
X016273Y023257D01*
X015895Y023257D01*
X015545Y023112D01*
X015278Y022845D01*
X015133Y022495D01*
X015133Y022117D01*
X015278Y021768D01*
X015545Y021500D01*
X015211Y021929D02*
X014643Y021929D01*
X014721Y022328D02*
X015133Y022328D01*
X015229Y022726D02*
X014626Y022726D01*
X014279Y023125D02*
X015576Y023125D01*
X016592Y023125D02*
X017544Y023125D01*
X017514Y023112D02*
X017247Y022845D01*
X017102Y022495D01*
X017102Y022117D01*
X017247Y021768D01*
X017514Y021500D01*
X017863Y021356D01*
X018241Y021356D01*
X018591Y021500D01*
X018858Y021768D01*
X019003Y022117D01*
X019003Y022495D01*
X018858Y022845D01*
X018591Y023112D01*
X018241Y023257D01*
X017863Y023257D01*
X017514Y023112D01*
X017197Y022726D02*
X016939Y022726D01*
X017034Y022328D02*
X017102Y022328D01*
X017180Y021929D02*
X016956Y021929D01*
X016652Y021531D02*
X017484Y021531D01*
X017634Y020733D02*
X016971Y020733D01*
X016891Y020813D02*
X016671Y020904D01*
X016433Y020904D01*
X016214Y020813D01*
X016046Y020645D01*
X015955Y020425D01*
X015955Y020187D01*
X016046Y019968D01*
X016214Y019799D01*
X016433Y019709D01*
X016671Y019709D01*
X016891Y019799D01*
X017059Y019968D01*
X017150Y020187D01*
X017150Y020425D01*
X017059Y020645D01*
X016891Y020813D01*
X017150Y020335D02*
X017455Y020335D01*
X017577Y019936D02*
X017028Y019936D01*
X016077Y019936D02*
X014809Y019936D01*
X014922Y020335D02*
X015955Y020335D01*
X016134Y020733D02*
X014752Y020733D01*
X013202Y021531D02*
X012371Y021531D01*
X012675Y021929D02*
X012898Y021929D01*
X012820Y022328D02*
X012753Y022328D01*
X012657Y022726D02*
X012916Y022726D01*
X013263Y023125D02*
X012310Y023125D01*
X012302Y020733D02*
X012303Y020733D01*
X011938Y020733D02*
X011111Y020733D01*
X011509Y020335D02*
X011742Y020335D01*
X011742Y020306D02*
X012302Y020306D01*
X011742Y020306D01*
X012302Y020306D02*
X012302Y020306D01*
X012302Y020335D02*
X012303Y020335D01*
X012574Y019036D02*
X012837Y019036D01*
X013032Y018841D01*
X013032Y018660D01*
X013032Y018453D01*
X013085Y018326D01*
X012419Y018326D01*
X012414Y018332D01*
X012381Y018345D01*
X012427Y018379D01*
X012489Y018441D01*
X012541Y018513D01*
X012581Y018591D01*
X012609Y018675D01*
X012622Y018762D01*
X012622Y018806D01*
X011803Y018806D01*
X011803Y018806D01*
X012622Y018806D01*
X012622Y018850D01*
X012609Y018937D01*
X012581Y019021D01*
X012574Y019036D01*
X012619Y018741D02*
X013032Y018741D01*
X013078Y018342D02*
X012389Y018342D01*
X011216Y018342D02*
X010502Y018342D01*
X010900Y017944D02*
X010928Y017944D01*
X012697Y017147D02*
X013227Y017147D01*
X013096Y016748D02*
X013625Y016748D01*
X013494Y016349D02*
X014046Y016349D01*
X013931Y015951D02*
X013805Y015951D01*
X013822Y015552D02*
X013976Y015552D01*
X013822Y015154D02*
X016742Y015154D01*
X016743Y015154D02*
X016611Y015099D01*
X016509Y014998D01*
X016455Y014866D01*
X016455Y014247D01*
X016509Y014115D01*
X016611Y014013D01*
X016710Y013972D01*
X016702Y013966D01*
X016642Y013907D01*
X016592Y013838D01*
X016554Y013763D01*
X016528Y013682D01*
X016515Y013599D01*
X016515Y013556D01*
X016515Y013514D01*
X016528Y013430D01*
X016554Y013350D01*
X016592Y013274D01*
X016642Y013206D01*
X016702Y013146D01*
X016770Y013096D01*
X016846Y013058D01*
X016926Y013032D01*
X017010Y013019D01*
X017052Y013019D01*
X017052Y013556D01*
X016515Y013556D01*
X017052Y013556D01*
X017052Y013556D01*
X017053Y013556D01*
X017053Y013556D01*
X017590Y013556D01*
X017590Y013514D01*
X017577Y013430D01*
X017551Y013350D01*
X017512Y013274D01*
X017463Y013206D01*
X017403Y013146D01*
X017334Y013096D01*
X017259Y013058D01*
X017178Y013032D01*
X017095Y013019D01*
X017053Y013019D01*
X017053Y013556D01*
X017590Y013556D01*
X017590Y013599D01*
X017577Y013682D01*
X017551Y013763D01*
X017512Y013838D01*
X017463Y013907D01*
X017403Y013966D01*
X017395Y013972D01*
X017494Y014013D01*
X017595Y014115D01*
X017650Y014247D01*
X017650Y014866D01*
X017595Y014998D01*
X017494Y015099D01*
X017362Y015154D01*
X016743Y015154D01*
X016455Y014755D02*
X014730Y014755D01*
X014987Y014357D02*
X016455Y014357D01*
X016694Y013958D02*
X015386Y013958D01*
X015784Y013560D02*
X016515Y013560D01*
X016687Y013161D02*
X016183Y013161D01*
X016530Y012763D02*
X018492Y012763D01*
X018492Y013161D02*
X017418Y013161D01*
X017053Y013161D02*
X017052Y013161D01*
X017590Y013560D02*
X018492Y013560D01*
X018492Y013958D02*
X017411Y013958D01*
X017650Y014357D02*
X018492Y014357D01*
X018492Y014755D02*
X017650Y014755D01*
X017362Y015154D02*
X018492Y015154D01*
X018492Y015552D02*
X015628Y015552D01*
X015674Y015951D02*
X016062Y015951D01*
X016046Y015968D02*
X016214Y015799D01*
X016433Y015709D01*
X016671Y015709D01*
X016891Y015799D01*
X017059Y015968D01*
X017150Y016187D01*
X017150Y016425D01*
X017059Y016645D01*
X016891Y016813D01*
X016671Y016904D01*
X016433Y016904D01*
X016214Y016813D01*
X016046Y016645D01*
X015955Y016425D01*
X015955Y016187D01*
X016046Y015968D01*
X015955Y016349D02*
X015482Y016349D01*
X015682Y016748D02*
X016149Y016748D01*
X015592Y017147D02*
X018492Y017147D01*
X018492Y016748D02*
X018456Y016748D01*
X017649Y016748D02*
X016956Y016748D01*
X017150Y016349D02*
X017455Y016349D01*
X017562Y015951D02*
X017042Y015951D01*
X015625Y017545D02*
X018492Y017545D01*
X018492Y017944D02*
X015677Y017944D01*
X015475Y018342D02*
X018492Y018342D01*
X018492Y018741D02*
X015682Y018741D01*
X015596Y019139D02*
X018492Y019139D01*
X018735Y019531D02*
X018735Y019531D01*
X019052Y019056D02*
X019052Y011306D01*
X019552Y010806D01*
X024302Y010806D01*
X025302Y009806D01*
X025552Y009806D01*
X026552Y010806D01*
X027150Y010770D02*
X027474Y010770D01*
X027128Y011168D02*
X027873Y011168D01*
X028302Y010806D02*
X027052Y009556D01*
X026302Y009556D01*
X025552Y008806D01*
X025302Y008806D01*
X025052Y009056D01*
X024052Y009056D01*
X022802Y007806D01*
X022802Y006556D01*
X021552Y005306D01*
X020974Y004767D02*
X020928Y004733D01*
X020865Y004671D01*
X020813Y004600D01*
X020773Y004521D01*
X020746Y004437D01*
X020732Y004350D01*
X020732Y004306D01*
X020732Y004262D01*
X020746Y004175D01*
X020773Y004091D01*
X020795Y004049D01*
X020572Y004272D01*
X020572Y007051D01*
X020758Y006865D01*
X020911Y006802D01*
X020767Y006657D01*
X020672Y006430D01*
X020672Y006183D01*
X020767Y005955D01*
X020916Y005806D01*
X020767Y005657D01*
X020672Y005430D01*
X020672Y005183D01*
X020767Y004955D01*
X020941Y004781D01*
X020974Y004767D01*
X020930Y004792D02*
X020572Y004792D01*
X020572Y005190D02*
X020672Y005190D01*
X020738Y005589D02*
X020572Y005589D01*
X020572Y005987D02*
X020753Y005987D01*
X020672Y006386D02*
X020572Y006386D01*
X020572Y006784D02*
X020894Y006784D01*
X019552Y006056D02*
X017552Y006056D01*
X017862Y005496D02*
X018234Y005496D01*
X018205Y005425D01*
X018205Y005187D01*
X018296Y004968D01*
X018464Y004799D01*
X018683Y004709D01*
X018921Y004709D01*
X019141Y004799D01*
X019309Y004968D01*
X019400Y005187D01*
X019400Y005425D01*
X019392Y005446D01*
X019428Y005431D01*
X019532Y005431D01*
X019532Y004160D01*
X019532Y003953D01*
X019612Y003762D01*
X020362Y003012D01*
X020508Y002865D01*
X020699Y002786D01*
X020936Y002786D01*
X020941Y002781D01*
X020974Y002767D01*
X020928Y002733D01*
X020865Y002671D01*
X020813Y002600D01*
X020773Y002521D01*
X020746Y002437D01*
X020732Y002350D01*
X020732Y002306D01*
X020732Y002262D01*
X020746Y002175D01*
X020773Y002091D01*
X020813Y002013D01*
X020865Y001941D01*
X020928Y001879D01*
X020999Y001827D01*
X021077Y001787D01*
X021161Y001760D01*
X021248Y001746D01*
X021552Y001746D01*
X021552Y002306D01*
X020732Y002306D01*
X021552Y002306D01*
X021552Y002306D01*
X021553Y002306D01*
X021553Y002306D01*
X022372Y002306D01*
X022372Y002262D01*
X022359Y002175D01*
X022331Y002091D01*
X022291Y002013D01*
X022239Y001941D01*
X022177Y001879D01*
X022106Y001827D01*
X022027Y001787D01*
X021944Y001760D01*
X021856Y001746D01*
X021553Y001746D01*
X021553Y002306D01*
X022372Y002306D01*
X022372Y002350D01*
X022359Y002437D01*
X022331Y002521D01*
X022291Y002600D01*
X022239Y002671D01*
X022177Y002733D01*
X022131Y002767D01*
X022164Y002781D01*
X022338Y002955D01*
X022432Y003183D01*
X022432Y003430D01*
X022338Y003657D01*
X022164Y003832D01*
X022131Y003845D01*
X022177Y003879D01*
X022239Y003941D01*
X022291Y004013D01*
X022331Y004091D01*
X022359Y004175D01*
X022372Y004262D01*
X022372Y004306D01*
X021553Y004306D01*
X021553Y004306D01*
X022372Y004306D01*
X022372Y004350D01*
X022359Y004437D01*
X022331Y004521D01*
X022291Y004600D01*
X022239Y004671D01*
X022177Y004733D01*
X022131Y004767D01*
X022164Y004781D01*
X022338Y004955D01*
X022432Y005183D01*
X022432Y005394D01*
X023277Y006239D01*
X023362Y006445D01*
X023362Y006668D01*
X023362Y007574D01*
X023760Y007972D01*
X023767Y007955D01*
X023916Y007806D01*
X023767Y007657D01*
X023672Y007430D01*
X023672Y007183D01*
X023362Y007183D01*
X023672Y007183D02*
X023767Y006955D01*
X023916Y006806D01*
X023767Y006657D01*
X023672Y006430D01*
X023672Y006183D01*
X023767Y005955D01*
X023916Y005806D01*
X023767Y005657D01*
X023672Y005430D01*
X023672Y005183D01*
X023767Y004955D01*
X023916Y004806D01*
X023767Y004657D01*
X023672Y004430D01*
X023672Y004183D01*
X023767Y003955D01*
X023916Y003806D01*
X023767Y003657D01*
X023672Y003430D01*
X023672Y003183D01*
X023767Y002955D01*
X023916Y002806D01*
X023767Y002657D01*
X023672Y002430D01*
X023672Y002183D01*
X023767Y001955D01*
X023941Y001781D01*
X024169Y001686D01*
X024936Y001686D01*
X025164Y001781D01*
X025338Y001955D01*
X025432Y002183D01*
X025432Y002430D01*
X025338Y002657D01*
X025189Y002806D01*
X025338Y002955D01*
X025432Y003183D01*
X025432Y003430D01*
X025338Y003657D01*
X025189Y003806D01*
X025338Y003955D01*
X025432Y004183D01*
X025432Y004430D01*
X025338Y004657D01*
X025189Y004806D01*
X025338Y004955D01*
X025432Y005183D01*
X025432Y005430D01*
X025338Y005657D01*
X025189Y005806D01*
X025338Y005955D01*
X025432Y006183D01*
X025432Y006430D01*
X025338Y006657D01*
X025189Y006806D01*
X025338Y006955D01*
X025432Y007183D01*
X026471Y007183D01*
X026377Y007277D02*
X026598Y007056D01*
X026377Y006836D01*
X026377Y006277D01*
X026598Y006056D01*
X026377Y005836D01*
X026377Y005277D01*
X026598Y005056D01*
X026377Y004836D01*
X026377Y004277D01*
X026598Y004056D01*
X026377Y003836D01*
X026377Y003277D01*
X026598Y003056D01*
X026377Y002836D01*
X026377Y002277D01*
X026640Y002014D01*
X026437Y001811D01*
X026437Y001556D01*
X026437Y001406D01*
X007349Y001406D01*
X007465Y001608D01*
X007535Y001870D01*
X007535Y002142D01*
X007465Y002405D01*
X007329Y002641D01*
X007137Y002833D01*
X006961Y002934D01*
X007013Y002974D01*
X007084Y003046D01*
X007146Y003126D01*
X007197Y003214D01*
X007235Y003307D01*
X007262Y003405D01*
X007275Y003506D01*
X007275Y003556D01*
X006503Y003556D01*
X006503Y003556D01*
X007275Y003556D01*
X007275Y003607D01*
X007262Y003707D01*
X007235Y003805D01*
X007197Y003899D01*
X007146Y003986D01*
X007084Y004067D01*
X007013Y004138D01*
X006932Y004200D01*
X006845Y004251D01*
X006751Y004289D01*
X006653Y004315D01*
X006553Y004329D01*
X006503Y004329D01*
X006503Y003557D01*
X006502Y003557D01*
X006502Y004329D01*
X006452Y004329D01*
X006351Y004315D01*
X006254Y004289D01*
X006160Y004251D01*
X006072Y004200D01*
X005992Y004138D01*
X005920Y004067D01*
X005859Y003986D01*
X005839Y003953D01*
X005808Y004028D01*
X005574Y004262D01*
X005268Y004389D01*
X004937Y004389D01*
X004631Y004262D01*
X004397Y004028D01*
X004270Y003722D01*
X004270Y003391D01*
X004397Y003085D01*
X004582Y002899D01*
X004468Y002833D01*
X004276Y002641D01*
X004140Y002405D01*
X004069Y002142D01*
X004069Y001870D01*
X004140Y001608D01*
X004256Y001406D01*
X002106Y001406D01*
X002198Y001628D01*
X002198Y001984D01*
X002061Y002313D01*
X001809Y002565D01*
X001480Y002702D01*
X001124Y002702D01*
X000902Y002610D01*
X000902Y003488D01*
X000926Y003447D01*
X001118Y003255D01*
X001354Y003119D01*
X001616Y003048D01*
X001888Y003048D01*
X002151Y003119D01*
X002387Y003255D01*
X002579Y003447D01*
X002672Y003609D01*
X002720Y003546D01*
X002792Y003474D01*
X002872Y003413D01*
X002960Y003362D01*
X003054Y003323D01*
X003151Y003297D01*
X003252Y003284D01*
X003302Y003284D01*
X003302Y004056D01*
X003303Y004056D01*
X003303Y004056D01*
X004075Y004056D01*
X004075Y004006D01*
X004062Y003905D01*
X004035Y003807D01*
X003997Y003714D01*
X003946Y003626D01*
X003884Y003546D01*
X003813Y003474D01*
X003732Y003413D01*
X003645Y003362D01*
X003551Y003323D01*
X003453Y003297D01*
X003353Y003284D01*
X003303Y003284D01*
X003303Y004056D01*
X004075Y004056D01*
X004075Y004107D01*
X004062Y004207D01*
X004035Y004305D01*
X003997Y004399D01*
X003946Y004486D01*
X003884Y004567D01*
X003813Y004638D01*
X003812Y004639D01*
X004008Y004835D01*
X004135Y005141D01*
X004135Y005472D01*
X004008Y005778D01*
X003855Y005931D01*
X004008Y006085D01*
X004135Y006391D01*
X004135Y006722D01*
X004008Y007028D01*
X003774Y007262D01*
X004109Y006784D02*
X008644Y006784D01*
X008666Y006806D02*
X008517Y006657D01*
X008422Y006430D01*
X008422Y006183D01*
X008517Y005955D01*
X008691Y005781D01*
X008724Y005767D01*
X008678Y005733D01*
X008615Y005671D01*
X008563Y005600D01*
X008523Y005521D01*
X008496Y005437D01*
X008482Y005350D01*
X008482Y005306D01*
X008482Y005262D01*
X008496Y005175D01*
X008523Y005091D01*
X008563Y005013D01*
X008615Y004941D01*
X008678Y004879D01*
X008749Y004827D01*
X008827Y004787D01*
X008911Y004760D01*
X008998Y004746D01*
X009302Y004746D01*
X009302Y005306D01*
X008482Y005306D01*
X009302Y005306D01*
X009302Y005306D01*
X009303Y005306D01*
X009303Y005306D01*
X010122Y005306D01*
X010122Y005262D01*
X010109Y005175D01*
X010081Y005091D01*
X010041Y005013D01*
X009989Y004941D01*
X009927Y004879D01*
X009856Y004827D01*
X009777Y004787D01*
X009694Y004760D01*
X009606Y004746D01*
X009303Y004746D01*
X009303Y005306D01*
X010122Y005306D01*
X010122Y005350D01*
X010109Y005437D01*
X010081Y005521D01*
X010041Y005600D01*
X009989Y005671D01*
X009927Y005733D01*
X009881Y005767D01*
X009914Y005781D01*
X010088Y005955D01*
X010182Y006183D01*
X010182Y006430D01*
X010088Y006657D01*
X009939Y006806D01*
X010088Y006955D01*
X010182Y007183D01*
X010782Y007183D01*
X010782Y006784D02*
X009961Y006784D01*
X010182Y007183D02*
X010182Y007430D01*
X010088Y007657D01*
X009939Y007806D01*
X010088Y007955D01*
X010182Y008183D01*
X010182Y008430D01*
X010088Y008657D01*
X009939Y008806D01*
X010088Y008955D01*
X010182Y009183D01*
X010182Y009430D01*
X010088Y009657D01*
X009939Y009806D01*
X010088Y009955D01*
X010182Y010183D01*
X010182Y010430D01*
X010088Y010657D01*
X009939Y010806D01*
X010088Y010955D01*
X010182Y011183D01*
X010182Y011191D01*
X011362Y010012D01*
X011508Y009865D01*
X011661Y009802D01*
X011517Y009657D01*
X011422Y009430D01*
X011422Y009183D01*
X011517Y008955D01*
X011661Y008811D01*
X011508Y008747D01*
X011008Y008247D01*
X010862Y008101D01*
X010782Y007910D01*
X010782Y003410D01*
X010782Y003232D01*
X010770Y003258D01*
X010714Y003347D01*
X010649Y003429D01*
X010575Y003503D01*
X010493Y003568D01*
X010404Y003624D01*
X010310Y003670D01*
X010211Y003704D01*
X010109Y003728D01*
X010004Y003739D01*
X009969Y003739D01*
X009969Y002823D01*
X009935Y002823D01*
X009935Y002790D01*
X009019Y002790D01*
X009019Y002754D01*
X009031Y002650D01*
X009054Y002548D01*
X009089Y002449D01*
X009134Y002354D01*
X009190Y002265D01*
X009255Y002184D01*
X009329Y002109D01*
X009411Y002044D01*
X009500Y001988D01*
X009594Y001943D01*
X009693Y001908D01*
X009795Y001885D01*
X009900Y001873D01*
X009935Y001873D01*
X009935Y002789D01*
X009969Y002789D01*
X009969Y001873D01*
X010004Y001873D01*
X010109Y001885D01*
X010211Y001908D01*
X010310Y001943D01*
X010404Y001988D01*
X010493Y002044D01*
X010575Y002109D01*
X010649Y002184D01*
X010714Y002265D01*
X010770Y002354D01*
X010815Y002449D01*
X010843Y002528D01*
X010960Y002244D01*
X011240Y001964D01*
X011605Y001813D01*
X012000Y001813D01*
X012365Y001964D01*
X012644Y002244D01*
X012728Y002445D01*
X012811Y002244D01*
X013090Y001964D01*
X013455Y001813D01*
X013850Y001813D01*
X014215Y001964D01*
X014495Y002244D01*
X014646Y002609D01*
X014646Y003004D01*
X014495Y003369D01*
X014326Y003538D01*
X014748Y003960D01*
X014907Y004026D01*
X015083Y004202D01*
X015178Y004432D01*
X015178Y004681D01*
X015131Y004795D01*
X015141Y004799D01*
X015309Y004968D01*
X015400Y005187D01*
X015400Y005425D01*
X015309Y005645D01*
X015141Y005813D01*
X014921Y005904D01*
X014683Y005904D01*
X014464Y005813D01*
X014296Y005645D01*
X014205Y005425D01*
X014205Y005187D01*
X014239Y005104D01*
X014198Y005087D01*
X014022Y004911D01*
X013956Y004752D01*
X013178Y003974D01*
X013093Y003768D01*
X013093Y003649D01*
X013090Y003648D01*
X012811Y003369D01*
X012728Y003168D01*
X012644Y003369D01*
X012365Y003648D01*
X012000Y003799D01*
X011822Y003799D01*
X011822Y004726D01*
X011919Y004686D01*
X012686Y004686D01*
X012914Y004781D01*
X012919Y004786D01*
X013156Y004786D01*
X013347Y004865D01*
X013493Y005012D01*
X013743Y005262D01*
X013822Y005453D01*
X013822Y005660D01*
X013822Y007224D01*
X013928Y007181D01*
X014177Y007181D01*
X014407Y007276D01*
X014583Y007452D01*
X014672Y007666D01*
X015154Y007666D01*
X015286Y007721D01*
X015388Y007822D01*
X015442Y007955D01*
X015442Y008211D01*
X015532Y008301D01*
X015532Y003160D01*
X015532Y002953D01*
X015612Y002762D01*
X015999Y002374D01*
X015999Y002147D01*
X016122Y001851D01*
X016348Y001626D01*
X016643Y001503D01*
X016962Y001503D01*
X017257Y001626D01*
X017483Y001851D01*
X017552Y002019D01*
X017622Y001851D01*
X017848Y001626D01*
X018143Y001503D01*
X018462Y001503D01*
X018757Y001626D01*
X018983Y001851D01*
X019088Y002104D01*
X019097Y002067D01*
X019135Y001977D01*
X019183Y001893D01*
X019243Y001815D01*
X019311Y001747D01*
X019389Y001687D01*
X019473Y001639D01*
X019563Y001601D01*
X019657Y001576D01*
X019754Y001563D01*
X019802Y001563D01*
X019802Y002306D01*
X019803Y002306D01*
X019803Y002306D01*
X020545Y002306D01*
X020545Y002258D01*
X020533Y002161D01*
X020507Y002067D01*
X020470Y001977D01*
X020421Y001893D01*
X020362Y001815D01*
X020293Y001747D01*
X020216Y001687D01*
X020132Y001639D01*
X020042Y001601D01*
X019948Y001576D01*
X019851Y001563D01*
X019803Y001563D01*
X019803Y002306D01*
X020545Y002306D01*
X020545Y002355D01*
X020533Y002452D01*
X020507Y002546D01*
X020470Y002636D01*
X020421Y002720D01*
X020362Y002797D01*
X020293Y002866D01*
X020216Y002925D01*
X020132Y002974D01*
X020042Y003011D01*
X019948Y003036D01*
X019851Y003049D01*
X019803Y003049D01*
X019803Y002307D01*
X019802Y002307D01*
X019802Y003049D01*
X019754Y003049D01*
X019657Y003036D01*
X019563Y003011D01*
X019473Y002974D01*
X019389Y002925D01*
X019311Y002866D01*
X019243Y002797D01*
X019183Y002720D01*
X019135Y002636D01*
X019097Y002546D01*
X019088Y002509D01*
X018983Y002761D01*
X018862Y002882D01*
X018862Y002945D01*
X018862Y003168D01*
X018777Y003374D01*
X017862Y004288D01*
X017862Y005496D01*
X017862Y005190D02*
X018205Y005190D01*
X018482Y004792D02*
X017862Y004792D01*
X017862Y004393D02*
X019532Y004393D01*
X019532Y003995D02*
X018156Y003995D01*
X018554Y003596D02*
X019777Y003596D01*
X020176Y003198D02*
X018850Y003198D01*
X018945Y002799D02*
X019244Y002799D01*
X019802Y002799D02*
X019803Y002799D01*
X019802Y002400D02*
X019803Y002400D01*
X019802Y002002D02*
X019803Y002002D01*
X019802Y001603D02*
X019803Y001603D01*
X020047Y001603D02*
X026437Y001603D01*
X026437Y001556D02*
X027052Y001556D01*
X026437Y001556D01*
X027052Y001556D02*
X027052Y001556D01*
X027053Y001556D02*
X027053Y001556D01*
X027437Y001556D01*
X028052Y001556D01*
X028052Y001556D01*
X027437Y001556D01*
X027053Y001556D01*
X026628Y002002D02*
X025357Y002002D01*
X025432Y002400D02*
X026377Y002400D01*
X026377Y002799D02*
X025196Y002799D01*
X025432Y003198D02*
X026456Y003198D01*
X026377Y003596D02*
X025363Y003596D01*
X025354Y003995D02*
X026536Y003995D01*
X026377Y004393D02*
X025432Y004393D01*
X025204Y004792D02*
X026377Y004792D01*
X026464Y005190D02*
X025432Y005190D01*
X025366Y005589D02*
X026377Y005589D01*
X026529Y005987D02*
X025351Y005987D01*
X025432Y006386D02*
X026377Y006386D01*
X026377Y006784D02*
X025211Y006784D01*
X025432Y007183D02*
X025432Y007430D01*
X025338Y007657D01*
X025189Y007806D01*
X025338Y007955D01*
X025432Y008183D01*
X025432Y008246D01*
X025664Y008246D01*
X025870Y008332D01*
X026027Y008489D01*
X026534Y008996D01*
X026538Y008996D01*
X026377Y008836D01*
X026377Y008277D01*
X026598Y008056D01*
X026377Y007836D01*
X026377Y007277D01*
X026377Y007582D02*
X025369Y007582D01*
X025348Y007980D02*
X026522Y007980D01*
X026377Y008379D02*
X025917Y008379D01*
X026315Y008777D02*
X026377Y008777D01*
X027464Y009176D02*
X027717Y009176D01*
X027862Y009574D02*
X034552Y009574D01*
X034552Y009176D02*
X030387Y009176D01*
X030727Y008777D02*
X034552Y008777D01*
X034552Y008379D02*
X030727Y008379D01*
X030431Y007980D02*
X034552Y007980D01*
X034552Y007582D02*
X029727Y007582D01*
X029674Y007980D02*
X029583Y007980D01*
X029634Y007183D02*
X034552Y007183D01*
X034552Y006784D02*
X029727Y006784D01*
X029727Y006386D02*
X034552Y006386D01*
X034552Y005987D02*
X029576Y005987D01*
X029727Y005589D02*
X034552Y005589D01*
X034552Y005190D02*
X029641Y005190D01*
X029727Y004792D02*
X034552Y004792D01*
X034552Y004393D02*
X029727Y004393D01*
X029569Y003995D02*
X034552Y003995D01*
X034552Y003596D02*
X029727Y003596D01*
X029648Y003198D02*
X034552Y003198D01*
X034552Y002799D02*
X029727Y002799D01*
X029727Y002400D02*
X033630Y002400D01*
X033414Y002002D02*
X030476Y002002D01*
X030053Y002002D02*
X030052Y002002D01*
X029628Y002002D02*
X029476Y002002D01*
X029667Y001556D02*
X029053Y001556D01*
X029053Y001556D01*
X029667Y001556D01*
X030052Y001556D01*
X030052Y001556D01*
X029667Y001556D01*
X030052Y001603D02*
X030053Y001603D01*
X030667Y001603D02*
X033417Y001603D01*
X029052Y001556D02*
X028437Y001556D01*
X028053Y001556D01*
X028053Y001556D01*
X028437Y001556D01*
X029052Y001556D01*
X029052Y001556D01*
X023908Y002799D02*
X022182Y002799D01*
X022432Y003198D02*
X023672Y003198D01*
X023741Y003596D02*
X022363Y003596D01*
X022278Y003995D02*
X023750Y003995D01*
X023672Y004393D02*
X022366Y004393D01*
X022175Y004792D02*
X023901Y004792D01*
X023672Y005190D02*
X022432Y005190D01*
X022627Y005589D02*
X023738Y005589D01*
X023753Y005987D02*
X023025Y005987D01*
X023338Y006386D02*
X023672Y006386D01*
X023894Y006784D02*
X023362Y006784D01*
X023370Y007582D02*
X023735Y007582D01*
X022583Y008379D02*
X022432Y008379D01*
X022432Y008430D02*
X022338Y008657D01*
X022164Y008832D01*
X021936Y008926D01*
X021169Y008926D01*
X020941Y008832D01*
X020767Y008657D01*
X020672Y008430D01*
X020672Y008422D01*
X019743Y009351D01*
X019597Y009497D01*
X019406Y009576D01*
X019380Y009973D02*
X021492Y009973D01*
X021492Y009806D02*
X022052Y009806D01*
X021492Y009806D01*
X021492Y009574D02*
X021820Y009246D01*
X022052Y009246D01*
X022052Y009806D01*
X022052Y009806D01*
X022053Y009806D01*
X022053Y009806D01*
X022612Y009806D01*
X022612Y009574D01*
X023432Y009574D01*
X023432Y009549D02*
X023593Y009389D01*
X022485Y008281D01*
X022432Y008228D01*
X022432Y008430D01*
X022218Y008777D02*
X022981Y008777D01*
X023380Y009176D02*
X019918Y009176D01*
X020317Y008777D02*
X020886Y008777D01*
X022053Y009246D02*
X022284Y009246D01*
X022612Y009574D01*
X022612Y009806D02*
X022612Y010038D01*
X022404Y010246D01*
X023616Y010246D01*
X023432Y010063D01*
X023432Y009549D01*
X023432Y009973D02*
X022612Y009973D01*
X022612Y009806D02*
X022053Y009806D01*
X022053Y009246D01*
X022052Y009574D02*
X022053Y009574D01*
X021295Y011567D02*
X028271Y011567D01*
X028670Y011966D02*
X021270Y011966D01*
X021049Y012364D02*
X023875Y012364D01*
X024302Y012364D02*
X024303Y012364D01*
X024303Y012191D02*
X024557Y012191D01*
X024802Y012437D01*
X025048Y012191D01*
X025302Y012191D01*
X025302Y012806D01*
X024687Y012806D01*
X024303Y012806D01*
X024303Y012191D01*
X024730Y012364D02*
X024875Y012364D01*
X025302Y012364D02*
X025303Y012364D01*
X025302Y012763D02*
X025303Y012763D01*
X025730Y012364D02*
X027198Y012364D01*
X027802Y012364D02*
X027803Y012364D01*
X027802Y012763D02*
X027803Y012763D01*
X027108Y013161D02*
X026612Y013161D01*
X026982Y012763D02*
X025917Y012763D01*
X025993Y013161D02*
X025817Y013161D01*
X024303Y012763D02*
X024302Y012763D01*
X023687Y012763D02*
X020913Y012763D01*
X021214Y013161D02*
X023788Y013161D01*
X023627Y013560D02*
X021295Y013560D01*
X021211Y013958D02*
X023627Y013958D01*
X023797Y014357D02*
X020906Y014357D01*
X020822Y014755D02*
X023627Y014755D01*
X023695Y015154D02*
X020822Y015154D01*
X020822Y015552D02*
X023627Y015552D01*
X023627Y015951D02*
X020932Y015951D01*
X021331Y016349D02*
X023805Y016349D01*
X023627Y016748D02*
X021729Y016748D01*
X022128Y017147D02*
X023688Y017147D01*
X022527Y017545D02*
X026979Y017545D01*
X027012Y017147D02*
X025917Y017147D01*
X025977Y016748D02*
X026922Y016748D01*
X027122Y016349D02*
X026714Y016349D01*
X025891Y016349D02*
X025800Y016349D01*
X027802Y016806D02*
X028052Y016806D01*
X029302Y015556D01*
X029302Y011806D01*
X028302Y010806D01*
X028659Y010371D02*
X032700Y010371D01*
X032683Y010393D02*
X032743Y010315D01*
X032811Y010247D01*
X032889Y010187D01*
X032973Y010139D01*
X033063Y010101D01*
X033157Y010076D01*
X033254Y010063D01*
X033302Y010063D01*
X033302Y010806D01*
X032559Y010806D01*
X032559Y010758D01*
X032572Y010661D01*
X032597Y010567D01*
X032635Y010477D01*
X032683Y010393D01*
X032559Y010770D02*
X029058Y010770D01*
X029456Y011168D02*
X032654Y011168D01*
X032635Y011136D02*
X032597Y011046D01*
X032572Y010952D01*
X032559Y010855D01*
X032559Y010806D01*
X033302Y010806D01*
X033302Y010806D01*
X033303Y010806D01*
X033303Y010806D01*
X034045Y010806D01*
X034045Y010758D01*
X034033Y010661D01*
X034007Y010567D01*
X033970Y010477D01*
X033921Y010393D01*
X033862Y010315D01*
X033793Y010247D01*
X033716Y010187D01*
X033632Y010139D01*
X033542Y010101D01*
X033448Y010076D01*
X033351Y010063D01*
X033303Y010063D01*
X033303Y010806D01*
X034045Y010806D01*
X034045Y010855D01*
X034033Y010952D01*
X034007Y011046D01*
X033970Y011136D01*
X033921Y011220D01*
X033862Y011297D01*
X033793Y011366D01*
X033716Y011425D01*
X033632Y011474D01*
X033542Y011511D01*
X033505Y011521D01*
X033757Y011626D01*
X033983Y011851D01*
X034105Y012147D01*
X034105Y012466D01*
X033983Y012761D01*
X033757Y012987D01*
X033590Y013056D01*
X033757Y013126D01*
X033983Y013351D01*
X034105Y013647D01*
X034105Y013966D01*
X033983Y014261D01*
X033757Y014487D01*
X033462Y014609D01*
X033143Y014609D01*
X032848Y014487D01*
X032622Y014261D01*
X032572Y014142D01*
X032572Y017910D01*
X032493Y018101D01*
X032347Y018247D01*
X031682Y018912D01*
X031682Y018930D01*
X031588Y019157D01*
X031414Y019332D01*
X031186Y019426D01*
X030419Y019426D01*
X030191Y019332D01*
X030017Y019157D01*
X029922Y018930D01*
X029922Y018683D01*
X030017Y018455D01*
X030166Y018306D01*
X030017Y018157D01*
X029922Y017930D01*
X029922Y017683D01*
X030017Y017455D01*
X030166Y017306D01*
X030017Y017157D01*
X029922Y016930D01*
X029922Y016683D01*
X030017Y016455D01*
X030166Y016306D01*
X030017Y016157D01*
X029922Y015930D01*
X029922Y015683D01*
X030017Y015455D01*
X030166Y015306D01*
X030017Y015157D01*
X029922Y014930D01*
X029922Y014683D01*
X030017Y014455D01*
X030166Y014306D01*
X030017Y014157D01*
X029922Y013930D01*
X029922Y013683D01*
X030017Y013455D01*
X030166Y013306D01*
X030017Y013157D01*
X029922Y012930D01*
X029922Y012683D01*
X030017Y012455D01*
X030191Y012281D01*
X030419Y012186D01*
X031186Y012186D01*
X031414Y012281D01*
X031588Y012455D01*
X031682Y012683D01*
X031682Y012930D01*
X031674Y012949D01*
X032362Y012262D01*
X032508Y012115D01*
X032513Y012113D01*
X032622Y011851D01*
X032848Y011626D01*
X033100Y011521D01*
X033063Y011511D01*
X032973Y011474D01*
X032889Y011425D01*
X032811Y011366D01*
X032743Y011297D01*
X032683Y011220D01*
X032635Y011136D01*
X032989Y011567D02*
X029809Y011567D01*
X029862Y011966D02*
X032574Y011966D01*
X032259Y012364D02*
X031497Y012364D01*
X031682Y012763D02*
X031861Y012763D01*
X030108Y012364D02*
X029862Y012364D01*
X029862Y012763D02*
X029922Y012763D01*
X029862Y013161D02*
X030020Y013161D01*
X029973Y013560D02*
X029862Y013560D01*
X029862Y013958D02*
X029934Y013958D01*
X029862Y014357D02*
X030115Y014357D01*
X029922Y014755D02*
X029862Y014755D01*
X029862Y015154D02*
X030015Y015154D01*
X029976Y015552D02*
X029862Y015552D01*
X029931Y015951D02*
X029700Y015951D01*
X029301Y016349D02*
X030122Y016349D01*
X029922Y016748D02*
X028903Y016748D01*
X028592Y017147D02*
X030012Y017147D01*
X029979Y017545D02*
X028625Y017545D01*
X028677Y017944D02*
X029928Y017944D01*
X030130Y018342D02*
X028475Y018342D01*
X028682Y018741D02*
X029922Y018741D01*
X030009Y019139D02*
X028596Y019139D01*
X028534Y019746D02*
X028303Y019746D01*
X028303Y020306D01*
X028303Y020306D01*
X028862Y020306D01*
X028862Y020074D01*
X028534Y019746D01*
X028302Y019746D02*
X028302Y020306D01*
X027742Y020306D01*
X027742Y020074D01*
X028070Y019746D01*
X028302Y019746D01*
X028302Y019936D02*
X028303Y019936D01*
X028302Y020306D02*
X028303Y020306D01*
X028862Y020306D01*
X028862Y020538D01*
X028534Y020866D01*
X028303Y020866D01*
X028303Y020307D01*
X028302Y020307D01*
X028302Y020866D01*
X028070Y020866D01*
X027742Y020538D01*
X027742Y020306D01*
X028302Y020306D01*
X028302Y020306D01*
X028302Y020335D02*
X028303Y020335D01*
X028862Y020335D02*
X029682Y020335D01*
X029682Y020563D02*
X029682Y020049D01*
X030046Y019686D01*
X030559Y019686D01*
X030922Y020049D01*
X030922Y020563D01*
X030559Y020926D01*
X030046Y020926D01*
X029682Y020563D01*
X029853Y020733D02*
X028667Y020733D01*
X028303Y020733D02*
X028302Y020733D01*
X027938Y020733D02*
X024822Y020733D01*
X024822Y021132D02*
X034552Y021132D01*
X034552Y020733D02*
X030752Y020733D01*
X030922Y020335D02*
X034552Y020335D01*
X034552Y019936D02*
X030809Y019936D01*
X029795Y019936D02*
X028724Y019936D01*
X027880Y019936D02*
X024815Y019936D01*
X024822Y020335D02*
X027742Y020335D01*
X028045Y021500D02*
X028395Y021356D01*
X028773Y021356D01*
X029122Y021500D01*
X029390Y021768D01*
X029534Y022117D01*
X029534Y022495D01*
X029390Y022845D01*
X029122Y023112D01*
X028773Y023257D01*
X028395Y023257D01*
X028045Y023112D01*
X027778Y022845D01*
X027633Y022495D01*
X027633Y022117D01*
X027778Y021768D01*
X028045Y021500D01*
X028015Y021531D02*
X026708Y021531D01*
X026666Y021506D02*
X026767Y021564D01*
X026859Y021635D01*
X026942Y021718D01*
X027013Y021810D01*
X027071Y021912D01*
X027116Y022019D01*
X027146Y022132D01*
X027161Y022248D01*
X027161Y022306D01*
X026271Y022306D01*
X026271Y021416D01*
X026329Y021416D01*
X026445Y021431D01*
X026558Y021461D01*
X026666Y021506D01*
X026271Y021531D02*
X026271Y021531D01*
X026271Y021416D02*
X026271Y022306D01*
X026271Y022306D01*
X026271Y022306D01*
X027161Y022306D01*
X027161Y022365D01*
X027146Y022480D01*
X027116Y022593D01*
X027071Y022701D01*
X027013Y022802D01*
X026942Y022895D01*
X026859Y022977D01*
X026767Y023048D01*
X026666Y023107D01*
X026558Y023151D01*
X026445Y023182D01*
X026329Y023197D01*
X026271Y023197D01*
X026271Y022307D01*
X026271Y022307D01*
X026271Y023197D01*
X026212Y023197D01*
X026097Y023182D01*
X025984Y023151D01*
X025876Y023107D01*
X025775Y023048D01*
X025682Y022977D01*
X025600Y022895D01*
X025529Y022802D01*
X025470Y022701D01*
X025426Y022593D01*
X025396Y022480D01*
X025380Y022365D01*
X025380Y022306D01*
X025380Y022248D01*
X025396Y022132D01*
X025426Y022019D01*
X025470Y021912D01*
X025529Y021810D01*
X025600Y021718D01*
X025682Y021635D01*
X025775Y021564D01*
X025876Y021506D01*
X025984Y021461D01*
X026097Y021431D01*
X026212Y021416D01*
X026271Y021416D01*
X025833Y021531D02*
X024871Y021531D01*
X025175Y021929D02*
X025463Y021929D01*
X025380Y022306D02*
X026270Y022306D01*
X026270Y022306D01*
X025380Y022306D01*
X025380Y022328D02*
X025253Y022328D01*
X025157Y022726D02*
X025485Y022726D01*
X025920Y023125D02*
X024810Y023125D01*
X023794Y023125D02*
X022842Y023125D01*
X022872Y023112D02*
X022523Y023257D01*
X022145Y023257D01*
X021795Y023112D01*
X021528Y022845D01*
X021383Y022495D01*
X021383Y022117D01*
X021528Y021768D01*
X021795Y021500D01*
X022145Y021356D01*
X022523Y021356D01*
X022872Y021500D01*
X023140Y021768D01*
X023284Y022117D01*
X023284Y022495D01*
X023140Y022845D01*
X022872Y023112D01*
X023189Y022726D02*
X023447Y022726D01*
X023352Y022328D02*
X023284Y022328D01*
X023206Y021929D02*
X023430Y021929D01*
X023734Y021531D02*
X022902Y021531D01*
X023782Y021132D02*
X020581Y021132D01*
X020581Y020733D02*
X023782Y020733D01*
X023782Y020335D02*
X021652Y020335D01*
X021553Y020335D02*
X021552Y020335D01*
X021452Y020335D02*
X020581Y020335D01*
X020581Y019936D02*
X021029Y019936D01*
X021015Y019806D02*
X021552Y019806D01*
X021015Y019806D01*
X021086Y019538D02*
X020326Y019538D01*
X019927Y019139D02*
X020964Y019139D01*
X020955Y018741D02*
X019612Y018741D01*
X019612Y018342D02*
X021032Y018342D01*
X021454Y017944D02*
X019612Y017944D01*
X019612Y017545D02*
X021056Y017545D01*
X020657Y017147D02*
X019612Y017147D01*
X019612Y016748D02*
X020259Y016748D01*
X019861Y016349D02*
X019612Y016349D01*
X019612Y015951D02*
X019782Y015951D01*
X019782Y015552D02*
X019612Y015552D01*
X019612Y015154D02*
X019782Y015154D01*
X019782Y014755D02*
X019612Y014755D01*
X019612Y014357D02*
X019698Y014357D01*
X018492Y012364D02*
X016572Y012364D01*
X016572Y011966D02*
X018492Y011966D01*
X018492Y011567D02*
X018341Y011567D01*
X018392Y011168D02*
X018503Y011168D01*
X018631Y010770D02*
X018797Y010770D01*
X019029Y010371D02*
X019195Y010371D01*
X018802Y009806D02*
X017802Y010806D01*
X017802Y011306D01*
X017263Y011567D02*
X016572Y011567D01*
X016572Y011168D02*
X017212Y011168D01*
X017242Y010770D02*
X016572Y010770D01*
X016572Y010371D02*
X017445Y010371D01*
X017844Y009973D02*
X016572Y009973D01*
X017302Y008056D02*
X017302Y004056D01*
X018302Y003056D01*
X018302Y002306D01*
X017559Y002002D02*
X017545Y002002D01*
X017203Y001603D02*
X017901Y001603D01*
X018703Y001603D02*
X019558Y001603D01*
X019124Y002002D02*
X019045Y002002D01*
X020480Y002002D02*
X020821Y002002D01*
X020740Y002400D02*
X020539Y002400D01*
X020668Y002799D02*
X020360Y002799D01*
X021552Y002002D02*
X021553Y002002D01*
X022283Y002002D02*
X023747Y002002D01*
X023672Y002400D02*
X022364Y002400D01*
X021552Y004306D02*
X020732Y004306D01*
X021552Y004306D01*
X021552Y004306D01*
X020739Y004393D02*
X020572Y004393D01*
X019532Y004792D02*
X019122Y004792D01*
X019400Y005190D02*
X019532Y005190D01*
X015532Y005190D02*
X015400Y005190D01*
X015532Y004792D02*
X015132Y004792D01*
X015162Y004393D02*
X015532Y004393D01*
X015532Y003995D02*
X014831Y003995D01*
X014384Y003596D02*
X015532Y003596D01*
X015532Y003198D02*
X014566Y003198D01*
X014646Y002799D02*
X015596Y002799D01*
X015973Y002400D02*
X014559Y002400D01*
X014253Y002002D02*
X016059Y002002D01*
X016401Y001603D02*
X007463Y001603D01*
X007535Y002002D02*
X009478Y002002D01*
X009935Y002002D02*
X009969Y002002D01*
X009969Y002400D02*
X009935Y002400D01*
X009935Y002799D02*
X007171Y002799D01*
X007187Y003198D02*
X009105Y003198D01*
X009089Y003164D02*
X009054Y003065D01*
X009031Y002963D01*
X009019Y002859D01*
X009019Y002823D01*
X009935Y002823D01*
X009935Y003739D01*
X009900Y003739D01*
X009795Y003728D01*
X009693Y003704D01*
X009594Y003670D01*
X009500Y003624D01*
X009411Y003568D01*
X009329Y003503D01*
X009255Y003429D01*
X009190Y003347D01*
X009134Y003258D01*
X009089Y003164D01*
X009455Y003596D02*
X007275Y003596D01*
X007140Y003995D02*
X010782Y003995D01*
X010782Y004393D02*
X003999Y004393D01*
X004073Y003995D02*
X004383Y003995D01*
X004270Y003596D02*
X003923Y003596D01*
X004350Y003198D02*
X002288Y003198D01*
X002665Y003596D02*
X002682Y003596D01*
X003302Y003596D02*
X003303Y003596D01*
X003302Y003995D02*
X003303Y003995D01*
X003965Y004792D02*
X005834Y004792D01*
X005842Y004774D02*
X005892Y004706D01*
X005952Y004646D01*
X006020Y004596D01*
X006096Y004558D01*
X006176Y004532D01*
X006260Y004519D01*
X006302Y004519D01*
X006302Y005056D01*
X005765Y005056D01*
X005765Y005014D01*
X005778Y004930D01*
X005804Y004850D01*
X005842Y004774D01*
X005765Y005056D02*
X006302Y005056D01*
X006302Y005056D01*
X006303Y005056D01*
X006303Y005056D01*
X006840Y005056D01*
X006840Y005014D01*
X006827Y004930D01*
X006801Y004850D01*
X006762Y004774D01*
X006713Y004706D01*
X006653Y004646D01*
X006584Y004596D01*
X006509Y004558D01*
X006428Y004532D01*
X006345Y004519D01*
X006303Y004519D01*
X006303Y005056D01*
X006840Y005056D01*
X006840Y005099D01*
X006827Y005182D01*
X006801Y005263D01*
X006762Y005338D01*
X006713Y005407D01*
X006653Y005466D01*
X006584Y005516D01*
X006509Y005555D01*
X006428Y005581D01*
X006345Y005594D01*
X006303Y005594D01*
X006303Y005057D01*
X006302Y005057D01*
X006302Y005594D01*
X006260Y005594D01*
X006176Y005581D01*
X006096Y005555D01*
X006020Y005516D01*
X005952Y005466D01*
X005892Y005407D01*
X005842Y005338D01*
X005804Y005263D01*
X005778Y005182D01*
X005765Y005099D01*
X005765Y005056D01*
X005780Y005190D02*
X004135Y005190D01*
X004086Y005589D02*
X004615Y005589D01*
X004690Y005514D02*
X004510Y005694D01*
X004412Y005929D01*
X004412Y006184D01*
X004510Y006419D01*
X004690Y006599D01*
X004925Y006696D01*
X005180Y006696D01*
X005415Y006599D01*
X005595Y006419D01*
X005692Y006184D01*
X005692Y005929D01*
X005595Y005694D01*
X005415Y005514D01*
X005180Y005416D01*
X004925Y005416D01*
X004690Y005514D01*
X004412Y005987D02*
X003911Y005987D01*
X004133Y006386D02*
X004496Y006386D01*
X005609Y006386D02*
X008422Y006386D01*
X008503Y005987D02*
X005692Y005987D01*
X005490Y005589D02*
X006227Y005589D01*
X006302Y005589D02*
X006303Y005589D01*
X006378Y005589D02*
X008558Y005589D01*
X008494Y005190D02*
X006824Y005190D01*
X006771Y004792D02*
X008819Y004792D01*
X009302Y004792D02*
X009303Y004792D01*
X009302Y005190D02*
X009303Y005190D01*
X009786Y004792D02*
X010782Y004792D01*
X010782Y005190D02*
X010111Y005190D01*
X010047Y005589D02*
X010782Y005589D01*
X010782Y005987D02*
X010101Y005987D01*
X010182Y006386D02*
X010782Y006386D01*
X010782Y007582D02*
X010119Y007582D01*
X010098Y007980D02*
X010812Y007980D01*
X011139Y008379D02*
X010182Y008379D01*
X009968Y008777D02*
X011580Y008777D01*
X011425Y009176D02*
X010179Y009176D01*
X010122Y009574D02*
X011482Y009574D01*
X011400Y009973D02*
X010095Y009973D01*
X010182Y010371D02*
X011002Y010371D01*
X010603Y010770D02*
X009976Y010770D01*
X010176Y011168D02*
X010205Y011168D01*
X011072Y011772D02*
X011072Y015400D01*
X011191Y015281D01*
X011419Y015186D01*
X012186Y015186D01*
X012414Y015281D01*
X012588Y015455D01*
X012682Y015683D01*
X012682Y015691D01*
X012782Y015591D01*
X012782Y014618D01*
X012534Y014866D01*
X012303Y014866D01*
X012303Y014307D01*
X012302Y014307D01*
X012302Y014866D01*
X012070Y014866D01*
X011742Y014538D01*
X011742Y014306D01*
X011742Y014074D01*
X012070Y013746D01*
X012302Y013746D01*
X012302Y014306D01*
X011742Y014306D01*
X012302Y014306D01*
X012302Y014306D01*
X012303Y014306D01*
X012303Y013746D01*
X012534Y013746D01*
X012782Y013994D01*
X012782Y011886D01*
X012686Y011926D01*
X011919Y011926D01*
X011691Y011832D01*
X011517Y011657D01*
X011422Y011430D01*
X011422Y011422D01*
X011072Y011772D01*
X011072Y011966D02*
X012782Y011966D01*
X012782Y012364D02*
X012237Y012364D01*
X012059Y012186D02*
X012422Y012549D01*
X012422Y013063D01*
X012059Y013426D01*
X011546Y013426D01*
X011182Y013063D01*
X011182Y012549D01*
X011546Y012186D01*
X012059Y012186D01*
X011368Y012364D02*
X011072Y012364D01*
X011072Y012763D02*
X011182Y012763D01*
X011280Y013161D02*
X011072Y013161D01*
X011072Y013560D02*
X012782Y013560D01*
X012782Y013958D02*
X012746Y013958D01*
X012303Y013958D02*
X012302Y013958D01*
X012302Y014357D02*
X012303Y014357D01*
X011858Y013958D02*
X011072Y013958D01*
X011072Y014357D02*
X011742Y014357D01*
X011959Y014755D02*
X011072Y014755D01*
X011072Y015154D02*
X012782Y015154D01*
X012782Y014755D02*
X012645Y014755D01*
X012303Y014755D02*
X012302Y014755D01*
X012628Y015552D02*
X012782Y015552D01*
X013822Y014755D02*
X013875Y014755D01*
X012782Y013161D02*
X012324Y013161D01*
X012422Y012763D02*
X012782Y012763D01*
X011479Y011567D02*
X011277Y011567D01*
X010032Y011966D02*
X006900Y011966D01*
X006900Y012054D02*
X006605Y012349D01*
X006840Y012584D01*
X006840Y012806D01*
X006303Y012806D01*
X006303Y012806D01*
X006840Y012806D01*
X006840Y013029D01*
X006605Y013264D01*
X006900Y013559D01*
X006900Y014054D01*
X006550Y014404D01*
X006055Y014404D01*
X005705Y014054D01*
X005705Y013559D01*
X005999Y013264D01*
X005765Y013029D01*
X005765Y012806D01*
X005765Y012584D01*
X005999Y012349D01*
X005705Y012054D01*
X005705Y011559D01*
X006055Y011209D01*
X006550Y011209D01*
X006900Y011559D01*
X006900Y012054D01*
X006621Y012364D02*
X009453Y012364D01*
X009802Y012364D02*
X009803Y012364D01*
X009802Y012763D02*
X009803Y012763D01*
X009802Y013161D02*
X009803Y013161D01*
X009365Y013161D02*
X006708Y013161D01*
X006840Y012763D02*
X009242Y012763D01*
X010032Y013560D02*
X006900Y013560D01*
X006900Y013958D02*
X007721Y013958D01*
X007705Y013997D02*
X007759Y013865D01*
X007861Y013763D01*
X007993Y013709D01*
X008612Y013709D01*
X008744Y013763D01*
X008845Y013865D01*
X008900Y013997D01*
X008900Y014616D01*
X008845Y014748D01*
X008744Y014849D01*
X008645Y014890D01*
X008653Y014896D01*
X008713Y014956D01*
X008762Y015024D01*
X008801Y015100D01*
X008827Y015180D01*
X008840Y015264D01*
X008840Y015306D01*
X008303Y015306D01*
X008303Y015306D01*
X008840Y015306D01*
X008840Y015349D01*
X008827Y015432D01*
X008801Y015513D01*
X008762Y015588D01*
X008713Y015657D01*
X008653Y015716D01*
X008584Y015766D01*
X008509Y015805D01*
X008428Y015831D01*
X008345Y015844D01*
X008303Y015844D01*
X008303Y015307D01*
X008302Y015307D01*
X008302Y015844D01*
X008260Y015844D01*
X008176Y015831D01*
X008096Y015805D01*
X008020Y015766D01*
X007952Y015716D01*
X007892Y015657D01*
X007842Y015588D01*
X007804Y015513D01*
X007778Y015432D01*
X007765Y015349D01*
X007765Y015306D01*
X007765Y015264D01*
X007778Y015180D01*
X007804Y015100D01*
X007842Y015024D01*
X007892Y014956D01*
X007952Y014896D01*
X007960Y014890D01*
X007861Y014849D01*
X007759Y014748D01*
X007705Y014616D01*
X007705Y013997D01*
X007705Y014357D02*
X006597Y014357D01*
X006007Y014357D02*
X003656Y014357D01*
X003615Y014398D02*
X003250Y014549D01*
X002855Y014549D01*
X002490Y014398D01*
X002210Y014119D01*
X002059Y013754D01*
X002059Y013359D01*
X002210Y012994D01*
X002490Y012714D01*
X002691Y012631D01*
X002490Y012548D01*
X002210Y012268D01*
X002059Y011903D01*
X002059Y011508D01*
X002210Y011143D01*
X002490Y010864D01*
X002855Y010713D01*
X003250Y010713D01*
X003615Y010864D01*
X003894Y011143D01*
X004045Y011508D01*
X004045Y011903D01*
X003894Y012268D01*
X003615Y012548D01*
X003414Y012631D01*
X003615Y012714D01*
X003894Y012994D01*
X004045Y013359D01*
X004045Y013754D01*
X003894Y014119D01*
X003615Y014398D01*
X003961Y013958D02*
X005705Y013958D01*
X005705Y013560D02*
X004045Y013560D01*
X003964Y013161D02*
X005897Y013161D01*
X005765Y012806D02*
X006302Y012806D01*
X005765Y012806D01*
X005765Y012763D02*
X003663Y012763D01*
X003799Y012364D02*
X005984Y012364D01*
X005705Y011966D02*
X004020Y011966D01*
X004045Y011567D02*
X005705Y011567D01*
X005404Y010696D02*
X004701Y010696D01*
X004568Y010641D01*
X004467Y010540D01*
X004412Y010408D01*
X004412Y009705D01*
X004467Y009572D01*
X004568Y009471D01*
X004701Y009416D01*
X005404Y009416D01*
X005536Y009471D01*
X005638Y009572D01*
X005692Y009705D01*
X005692Y010408D01*
X005638Y010540D01*
X005536Y010641D01*
X005404Y010696D01*
X005692Y010371D02*
X007164Y010371D01*
X007202Y010396D02*
X007210Y010390D01*
X007111Y010349D01*
X007009Y010248D01*
X006955Y010116D01*
X006955Y009497D01*
X007009Y009365D01*
X007111Y009263D01*
X007243Y009209D01*
X007862Y009209D01*
X007994Y009263D01*
X008095Y009365D01*
X008150Y009497D01*
X008150Y010116D01*
X008095Y010248D01*
X007994Y010349D01*
X007895Y010390D01*
X007903Y010396D01*
X007963Y010456D01*
X008012Y010524D01*
X008051Y010600D01*
X008077Y010680D01*
X008090Y010764D01*
X008090Y010806D01*
X007553Y010806D01*
X007553Y010806D01*
X008090Y010806D01*
X008090Y010849D01*
X008077Y010932D01*
X008051Y011013D01*
X008012Y011088D01*
X007963Y011157D01*
X007903Y011216D01*
X007834Y011266D01*
X007759Y011305D01*
X007678Y011331D01*
X007595Y011344D01*
X007553Y011344D01*
X007553Y010807D01*
X007552Y010807D01*
X007552Y011344D01*
X007510Y011344D01*
X007426Y011331D01*
X007346Y011305D01*
X007270Y011266D01*
X007202Y011216D01*
X007142Y011157D01*
X007092Y011088D01*
X007054Y011013D01*
X007028Y010932D01*
X007015Y010849D01*
X007015Y010806D01*
X007015Y010764D01*
X007028Y010680D01*
X007054Y010600D01*
X007092Y010524D01*
X007142Y010456D01*
X007202Y010396D01*
X006955Y009973D02*
X005692Y009973D01*
X005638Y009574D02*
X005991Y009574D01*
X005964Y009563D02*
X005796Y009395D01*
X005705Y009175D01*
X005705Y008937D01*
X005796Y008718D01*
X005964Y008549D01*
X006183Y008459D01*
X006421Y008459D01*
X006641Y008549D01*
X006809Y008718D01*
X006900Y008937D01*
X006900Y009175D01*
X006809Y009395D01*
X006641Y009563D01*
X006421Y009654D01*
X006183Y009654D01*
X005964Y009563D01*
X005705Y009176D02*
X003939Y009176D01*
X003939Y009405D02*
X003885Y009537D01*
X003783Y009639D01*
X003651Y009693D01*
X002954Y009693D01*
X002821Y009639D01*
X002721Y009539D01*
X002663Y009596D01*
X002429Y009693D01*
X002176Y009693D01*
X001941Y009596D01*
X001762Y009417D01*
X001665Y009183D01*
X001665Y008930D01*
X001762Y008695D01*
X001941Y008516D01*
X002176Y008419D01*
X002429Y008419D01*
X002663Y008516D01*
X002721Y008574D01*
X002821Y008474D01*
X002954Y008419D01*
X003651Y008419D01*
X003783Y008474D01*
X003885Y008575D01*
X003939Y008707D01*
X003939Y009405D01*
X003848Y009574D02*
X004466Y009574D01*
X004412Y009973D02*
X000902Y009973D01*
X000902Y010371D02*
X004412Y010371D01*
X003905Y011168D02*
X007154Y011168D01*
X007015Y010806D02*
X007552Y010806D01*
X007015Y010806D01*
X007015Y010770D02*
X003388Y010770D01*
X002717Y010770D02*
X000902Y010770D01*
X000902Y011168D02*
X002200Y011168D01*
X002059Y011567D02*
X000902Y011567D01*
X000902Y011966D02*
X002085Y011966D01*
X002306Y012364D02*
X000902Y012364D01*
X000902Y012763D02*
X002442Y012763D01*
X002141Y013161D02*
X000902Y013161D01*
X000902Y013560D02*
X002059Y013560D01*
X002144Y013958D02*
X000902Y013958D01*
X000902Y014357D02*
X002448Y014357D01*
X000902Y014755D02*
X007767Y014755D01*
X007786Y015154D02*
X000902Y015154D01*
X000902Y015552D02*
X007824Y015552D01*
X007765Y015306D02*
X008302Y015306D01*
X007765Y015306D01*
X008302Y015306D02*
X008302Y015306D01*
X008302Y015552D02*
X008303Y015552D01*
X008781Y015552D02*
X010032Y015552D01*
X010032Y015154D02*
X008818Y015154D01*
X008838Y014755D02*
X010032Y014755D01*
X010032Y014357D02*
X008900Y014357D01*
X008884Y013958D02*
X010032Y013958D01*
X008479Y011567D02*
X006900Y011567D01*
X007552Y011168D02*
X007553Y011168D01*
X007552Y010806D02*
X007552Y010806D01*
X007951Y011168D02*
X008428Y011168D01*
X008629Y010770D02*
X008090Y010770D01*
X007941Y010371D02*
X008422Y010371D01*
X008509Y009973D02*
X008150Y009973D01*
X008150Y009574D02*
X008482Y009574D01*
X008425Y009176D02*
X006900Y009176D01*
X006834Y008777D02*
X008636Y008777D01*
X008422Y008379D02*
X000902Y008379D01*
X000902Y007980D02*
X008506Y007980D01*
X008485Y007582D02*
X000902Y007582D01*
X000902Y007183D02*
X000943Y007183D01*
X002562Y007183D02*
X002752Y007183D01*
X001728Y008777D02*
X000902Y008777D01*
X000902Y009176D02*
X001665Y009176D01*
X001919Y009574D02*
X000902Y009574D01*
X002685Y009574D02*
X002757Y009574D01*
X003939Y008777D02*
X005771Y008777D01*
X006614Y009574D02*
X006955Y009574D01*
X008422Y007183D02*
X008517Y006955D01*
X008666Y006806D01*
X006303Y005190D02*
X006302Y005190D01*
X006302Y004792D02*
X006303Y004792D01*
X006502Y003995D02*
X006503Y003995D01*
X006502Y003596D02*
X006503Y003596D01*
X005865Y003995D02*
X005822Y003995D01*
X004434Y002799D02*
X000902Y002799D01*
X000902Y003198D02*
X001217Y003198D01*
X001974Y002400D02*
X004138Y002400D01*
X004069Y002002D02*
X002190Y002002D01*
X002187Y001603D02*
X004142Y001603D01*
X007466Y002400D02*
X009112Y002400D01*
X009935Y003198D02*
X009969Y003198D01*
X009969Y003596D02*
X009935Y003596D01*
X010449Y003596D02*
X010782Y003596D01*
X011822Y003995D02*
X013199Y003995D01*
X013597Y004393D02*
X011822Y004393D01*
X012417Y003596D02*
X013038Y003596D01*
X012740Y003198D02*
X012715Y003198D01*
X012709Y002400D02*
X012746Y002400D01*
X013053Y002002D02*
X012402Y002002D01*
X011202Y002002D02*
X010426Y002002D01*
X010792Y002400D02*
X010896Y002400D01*
X013653Y002806D02*
X013653Y003657D01*
X014552Y004556D01*
X013973Y004792D02*
X013169Y004792D01*
X013672Y005190D02*
X014205Y005190D01*
X014272Y005589D02*
X013822Y005589D01*
X013822Y005987D02*
X015532Y005987D01*
X015532Y006386D02*
X015227Y006386D01*
X015309Y006468D02*
X015400Y006687D01*
X015400Y006925D01*
X015309Y007145D01*
X015141Y007313D01*
X014921Y007404D01*
X014683Y007404D01*
X014464Y007313D01*
X014296Y007145D01*
X014205Y006925D01*
X014205Y006687D01*
X014296Y006468D01*
X014464Y006299D01*
X014683Y006209D01*
X014921Y006209D01*
X015141Y006299D01*
X015309Y006468D01*
X015400Y006784D02*
X015532Y006784D01*
X015532Y007183D02*
X015271Y007183D01*
X015532Y007582D02*
X014637Y007582D01*
X014334Y007183D02*
X014183Y007183D01*
X013922Y007183D02*
X013822Y007183D01*
X013822Y006784D02*
X014205Y006784D01*
X014377Y006386D02*
X013822Y006386D01*
X015332Y005589D02*
X015532Y005589D01*
X015532Y007980D02*
X015442Y007980D01*
X024732Y011168D02*
X025154Y011168D01*
X025552Y011168D02*
X025553Y011168D01*
X025951Y011168D02*
X025976Y011168D01*
X028261Y009973D02*
X034552Y009973D01*
X034552Y010371D02*
X033905Y010371D01*
X034045Y010770D02*
X034552Y010770D01*
X034552Y011168D02*
X033951Y011168D01*
X033616Y011567D02*
X034552Y011567D01*
X034552Y011966D02*
X034030Y011966D01*
X034105Y012364D02*
X034552Y012364D01*
X034552Y012763D02*
X033981Y012763D01*
X033793Y013161D02*
X034552Y013161D01*
X034552Y013560D02*
X034069Y013560D01*
X034105Y013958D02*
X034552Y013958D01*
X034552Y014357D02*
X033887Y014357D01*
X034552Y014755D02*
X032572Y014755D01*
X032572Y015154D02*
X034552Y015154D01*
X034552Y015552D02*
X032572Y015552D01*
X032572Y015951D02*
X034552Y015951D01*
X034552Y016349D02*
X032572Y016349D01*
X032572Y016748D02*
X034552Y016748D01*
X034552Y017147D02*
X034109Y017147D01*
X034095Y017115D02*
X034150Y017247D01*
X034150Y017866D01*
X034095Y017998D01*
X033994Y018099D01*
X033895Y018140D01*
X033903Y018146D01*
X033963Y018206D01*
X034012Y018274D01*
X034051Y018350D01*
X034077Y018430D01*
X034090Y018514D01*
X034090Y018556D01*
X033553Y018556D01*
X033553Y018556D01*
X034090Y018556D01*
X034090Y018599D01*
X034077Y018682D01*
X034051Y018763D01*
X034012Y018838D01*
X033963Y018907D01*
X033903Y018966D01*
X033834Y019016D01*
X033759Y019055D01*
X033678Y019081D01*
X033595Y019094D01*
X033553Y019094D01*
X033553Y018557D01*
X033552Y018557D01*
X033552Y019094D01*
X033510Y019094D01*
X033426Y019081D01*
X033346Y019055D01*
X033270Y019016D01*
X033202Y018966D01*
X033142Y018907D01*
X033092Y018838D01*
X033054Y018763D01*
X033028Y018682D01*
X033015Y018599D01*
X033015Y018556D01*
X033015Y018514D01*
X033028Y018430D01*
X033054Y018350D01*
X033092Y018274D01*
X033142Y018206D01*
X033202Y018146D01*
X033210Y018140D01*
X033111Y018099D01*
X033009Y017998D01*
X032955Y017866D01*
X032955Y017247D01*
X033009Y017115D01*
X033111Y017013D01*
X033243Y016959D01*
X033862Y016959D01*
X033994Y017013D01*
X034095Y017115D01*
X034150Y017545D02*
X034552Y017545D01*
X034552Y017944D02*
X034118Y017944D01*
X034047Y018342D02*
X034552Y018342D01*
X034552Y018741D02*
X034058Y018741D01*
X033553Y018741D02*
X033552Y018741D01*
X033552Y018556D02*
X033552Y018556D01*
X033015Y018556D01*
X033552Y018556D01*
X033047Y018741D02*
X031853Y018741D01*
X031596Y019139D02*
X034552Y019139D01*
X034552Y019538D02*
X024519Y019538D01*
X024121Y019139D02*
X027009Y019139D01*
X026922Y018741D02*
X023722Y018741D01*
X023324Y018342D02*
X027130Y018342D01*
X026928Y017944D02*
X022925Y017944D01*
X022251Y018741D02*
X022150Y018741D01*
X022140Y019139D02*
X022650Y019139D01*
X023049Y019538D02*
X022019Y019538D01*
X021552Y019806D02*
X021552Y019806D01*
X021552Y019936D02*
X021553Y019936D01*
X022076Y019936D02*
X023447Y019936D01*
X021765Y021531D02*
X020589Y021531D01*
X020893Y021929D02*
X021461Y021929D01*
X021383Y022328D02*
X020971Y022328D01*
X020876Y022726D02*
X021479Y022726D01*
X021826Y023125D02*
X020529Y023125D01*
X020021Y022306D02*
X020021Y020025D01*
X019052Y019056D01*
X019452Y021531D02*
X018621Y021531D01*
X018925Y021929D02*
X019148Y021929D01*
X019070Y022328D02*
X019003Y022328D01*
X018907Y022726D02*
X019166Y022726D01*
X019513Y023125D02*
X018560Y023125D01*
X026271Y023125D02*
X026271Y023125D01*
X026622Y023125D02*
X028076Y023125D01*
X027729Y022726D02*
X027057Y022726D01*
X027161Y022328D02*
X027633Y022328D01*
X027711Y021929D02*
X027079Y021929D01*
X026271Y021929D02*
X026271Y021929D01*
X026271Y022328D02*
X026271Y022328D01*
X026271Y022726D02*
X026271Y022726D01*
X029092Y023125D02*
X030044Y023125D01*
X030014Y023112D02*
X029747Y022845D01*
X029602Y022495D01*
X029602Y022117D01*
X029747Y021768D01*
X030014Y021500D01*
X030363Y021356D01*
X030741Y021356D01*
X031091Y021500D01*
X031358Y021768D01*
X031503Y022117D01*
X031503Y022495D01*
X031358Y022845D01*
X031091Y023112D01*
X030741Y023257D01*
X030363Y023257D01*
X030014Y023112D01*
X029697Y022726D02*
X029439Y022726D01*
X029534Y022328D02*
X029602Y022328D01*
X029680Y021929D02*
X029456Y021929D01*
X029152Y021531D02*
X029984Y021531D01*
X031121Y021531D02*
X031952Y021531D01*
X031982Y021500D02*
X032332Y021356D01*
X032710Y021356D01*
X033059Y021500D01*
X033327Y021768D01*
X033471Y022117D01*
X033471Y022495D01*
X033327Y022845D01*
X033059Y023112D01*
X032710Y023257D01*
X032332Y023257D01*
X031982Y023112D01*
X031715Y022845D01*
X031570Y022495D01*
X031570Y022117D01*
X031715Y021768D01*
X031982Y021500D01*
X031648Y021929D02*
X031425Y021929D01*
X031503Y022328D02*
X031570Y022328D01*
X031666Y022726D02*
X031407Y022726D01*
X031060Y023125D02*
X032013Y023125D01*
X033029Y023125D02*
X033718Y023125D01*
X033376Y022726D02*
X034552Y022726D01*
X034552Y022328D02*
X033471Y022328D01*
X033393Y021929D02*
X034552Y021929D01*
X034552Y021531D02*
X033089Y021531D01*
X033451Y023523D02*
X002154Y023523D01*
X005810Y023125D02*
X006920Y023125D01*
X007271Y023125D02*
X007271Y023125D01*
X007271Y022726D02*
X007271Y022726D01*
X007271Y022328D02*
X007271Y022328D01*
X007270Y022306D02*
X007270Y022306D01*
X006380Y022306D01*
X007270Y022306D01*
X007271Y021929D02*
X007271Y021929D01*
X006833Y021531D02*
X005871Y021531D01*
X006175Y021929D02*
X006463Y021929D01*
X006380Y022328D02*
X006253Y022328D01*
X006157Y022726D02*
X006485Y022726D01*
X006630Y021132D02*
X005475Y021132D01*
X005130Y021132D02*
X005113Y021132D01*
X004729Y020733D02*
X004715Y020733D01*
X004747Y020335D02*
X004316Y020335D01*
X005858Y020335D02*
X006247Y020335D01*
X006229Y020733D02*
X005876Y020733D01*
X005806Y016748D02*
X006235Y016748D01*
X006241Y016349D02*
X005801Y016349D01*
X006302Y012806D02*
X006302Y012806D01*
X028406Y012364D02*
X028742Y012364D01*
X028742Y012763D02*
X028622Y012763D01*
X028742Y013161D02*
X028497Y013161D01*
X028631Y013560D02*
X028742Y013560D01*
X028742Y013958D02*
X028670Y013958D01*
X028742Y014357D02*
X028490Y014357D01*
X028682Y014755D02*
X028742Y014755D01*
X028742Y015154D02*
X028589Y015154D01*
X032572Y014357D02*
X032717Y014357D01*
X032572Y017147D02*
X032996Y017147D01*
X032955Y017545D02*
X032572Y017545D01*
X032558Y017944D02*
X032987Y017944D01*
X033058Y018342D02*
X032252Y018342D01*
X033302Y010770D02*
X033303Y010770D01*
X033302Y010371D02*
X033303Y010371D01*
X029717Y009176D02*
X029387Y009176D01*
X028717Y009176D02*
X028387Y009176D01*
D26*
X032052Y013306D02*
X032802Y012556D01*
X033052Y012556D01*
X033302Y012306D01*
X032052Y013306D02*
X032052Y017806D01*
X031052Y018806D01*
X030802Y018806D01*
X024302Y020056D02*
X020302Y016056D01*
X020302Y013556D01*
X016052Y012556D02*
X016052Y003056D01*
X016802Y002306D01*
X020052Y004056D02*
X020802Y003306D01*
X021552Y003306D01*
X020052Y004056D02*
X020052Y007306D01*
X019052Y008306D01*
X018802Y008306D01*
X019302Y009056D02*
X015552Y009056D01*
X014802Y008306D01*
X014052Y007806D02*
X014052Y009806D01*
X014052Y010306D01*
X014052Y010556D01*
X014052Y010806D01*
X013802Y011306D01*
X012302Y010306D02*
X011802Y010306D01*
X010552Y011556D01*
X010552Y017556D01*
X009552Y018556D01*
X009552Y018806D01*
X011552Y019556D02*
X013052Y019556D01*
X013552Y019056D01*
X013552Y018556D01*
X014302Y017806D01*
X014802Y017806D01*
X014802Y016806D02*
X014302Y016806D01*
X013302Y017806D01*
X011802Y017806D01*
X011802Y016806D02*
X012302Y016806D01*
X013052Y016056D01*
X013302Y015806D01*
X013302Y005556D01*
X013052Y005306D01*
X012302Y005306D01*
X011302Y003306D02*
X011802Y002806D01*
X011302Y003306D02*
X011302Y007806D01*
X011802Y008306D01*
X012302Y008306D01*
X016052Y012556D02*
X014302Y014306D01*
X011552Y019556D02*
X009834Y021275D01*
X009834Y022306D01*
X005302Y022306D02*
X005302Y022056D01*
X003052Y019806D01*
X002302Y019806D01*
X019302Y009056D02*
X021052Y007306D01*
X021552Y007306D01*
X024302Y020056D02*
X024302Y022306D01*
D27*
X017302Y008056D03*
X017552Y006056D03*
X019552Y006056D03*
X014552Y004556D03*
X014052Y007806D03*
M02*
