G75*
G70*
%OFA0B0*%
%FSLAX24Y24*%
%IPPOS*%
%LPD*%
%AMOC8*
5,1,8,0,0,1.08239X$1,22.5*
%
%ADD10C,0.0000*%
%ADD11C,0.0100*%
D10*
X000300Y000800D02*
X000300Y024550D01*
X035300Y024550D01*
X035300Y000800D01*
X000300Y000800D01*
X001005Y001800D02*
X001007Y001834D01*
X001013Y001868D01*
X001023Y001901D01*
X001036Y001932D01*
X001054Y001962D01*
X001074Y001990D01*
X001098Y002015D01*
X001124Y002037D01*
X001152Y002055D01*
X001183Y002071D01*
X001215Y002083D01*
X001249Y002091D01*
X001283Y002095D01*
X001317Y002095D01*
X001351Y002091D01*
X001385Y002083D01*
X001417Y002071D01*
X001447Y002055D01*
X001476Y002037D01*
X001502Y002015D01*
X001526Y001990D01*
X001546Y001962D01*
X001564Y001932D01*
X001577Y001901D01*
X001587Y001868D01*
X001593Y001834D01*
X001595Y001800D01*
X001593Y001766D01*
X001587Y001732D01*
X001577Y001699D01*
X001564Y001668D01*
X001546Y001638D01*
X001526Y001610D01*
X001502Y001585D01*
X001476Y001563D01*
X001448Y001545D01*
X001417Y001529D01*
X001385Y001517D01*
X001351Y001509D01*
X001317Y001505D01*
X001283Y001505D01*
X001249Y001509D01*
X001215Y001517D01*
X001183Y001529D01*
X001152Y001545D01*
X001124Y001563D01*
X001098Y001585D01*
X001074Y001610D01*
X001054Y001638D01*
X001036Y001668D01*
X001023Y001699D01*
X001013Y001732D01*
X001007Y001766D01*
X001005Y001800D01*
X001317Y004075D02*
X001319Y004116D01*
X001325Y004157D01*
X001335Y004197D01*
X001348Y004236D01*
X001365Y004273D01*
X001386Y004309D01*
X001410Y004343D01*
X001437Y004374D01*
X001466Y004402D01*
X001499Y004428D01*
X001533Y004450D01*
X001570Y004469D01*
X001608Y004484D01*
X001648Y004496D01*
X001688Y004504D01*
X001729Y004508D01*
X001771Y004508D01*
X001812Y004504D01*
X001852Y004496D01*
X001892Y004484D01*
X001930Y004469D01*
X001966Y004450D01*
X002001Y004428D01*
X002034Y004402D01*
X002063Y004374D01*
X002090Y004343D01*
X002114Y004309D01*
X002135Y004273D01*
X002152Y004236D01*
X002165Y004197D01*
X002175Y004157D01*
X002181Y004116D01*
X002183Y004075D01*
X002181Y004034D01*
X002175Y003993D01*
X002165Y003953D01*
X002152Y003914D01*
X002135Y003877D01*
X002114Y003841D01*
X002090Y003807D01*
X002063Y003776D01*
X002034Y003748D01*
X002001Y003722D01*
X001967Y003700D01*
X001930Y003681D01*
X001892Y003666D01*
X001852Y003654D01*
X001812Y003646D01*
X001771Y003642D01*
X001729Y003642D01*
X001688Y003646D01*
X001648Y003654D01*
X001608Y003666D01*
X001570Y003681D01*
X001534Y003700D01*
X001499Y003722D01*
X001466Y003748D01*
X001437Y003776D01*
X001410Y003807D01*
X001386Y003841D01*
X001365Y003877D01*
X001348Y003914D01*
X001335Y003953D01*
X001325Y003993D01*
X001319Y004034D01*
X001317Y004075D01*
X001317Y005300D02*
X001319Y005341D01*
X001325Y005382D01*
X001335Y005422D01*
X001348Y005461D01*
X001365Y005498D01*
X001386Y005534D01*
X001410Y005568D01*
X001437Y005599D01*
X001466Y005627D01*
X001499Y005653D01*
X001533Y005675D01*
X001570Y005694D01*
X001608Y005709D01*
X001648Y005721D01*
X001688Y005729D01*
X001729Y005733D01*
X001771Y005733D01*
X001812Y005729D01*
X001852Y005721D01*
X001892Y005709D01*
X001930Y005694D01*
X001966Y005675D01*
X002001Y005653D01*
X002034Y005627D01*
X002063Y005599D01*
X002090Y005568D01*
X002114Y005534D01*
X002135Y005498D01*
X002152Y005461D01*
X002165Y005422D01*
X002175Y005382D01*
X002181Y005341D01*
X002183Y005300D01*
X002181Y005259D01*
X002175Y005218D01*
X002165Y005178D01*
X002152Y005139D01*
X002135Y005102D01*
X002114Y005066D01*
X002090Y005032D01*
X002063Y005001D01*
X002034Y004973D01*
X002001Y004947D01*
X001967Y004925D01*
X001930Y004906D01*
X001892Y004891D01*
X001852Y004879D01*
X001812Y004871D01*
X001771Y004867D01*
X001729Y004867D01*
X001688Y004871D01*
X001648Y004879D01*
X001608Y004891D01*
X001570Y004906D01*
X001534Y004925D01*
X001499Y004947D01*
X001466Y004973D01*
X001437Y005001D01*
X001410Y005032D01*
X001386Y005066D01*
X001365Y005102D01*
X001348Y005139D01*
X001335Y005178D01*
X001325Y005218D01*
X001319Y005259D01*
X001317Y005300D01*
X001317Y006525D02*
X001319Y006566D01*
X001325Y006607D01*
X001335Y006647D01*
X001348Y006686D01*
X001365Y006723D01*
X001386Y006759D01*
X001410Y006793D01*
X001437Y006824D01*
X001466Y006852D01*
X001499Y006878D01*
X001533Y006900D01*
X001570Y006919D01*
X001608Y006934D01*
X001648Y006946D01*
X001688Y006954D01*
X001729Y006958D01*
X001771Y006958D01*
X001812Y006954D01*
X001852Y006946D01*
X001892Y006934D01*
X001930Y006919D01*
X001966Y006900D01*
X002001Y006878D01*
X002034Y006852D01*
X002063Y006824D01*
X002090Y006793D01*
X002114Y006759D01*
X002135Y006723D01*
X002152Y006686D01*
X002165Y006647D01*
X002175Y006607D01*
X002181Y006566D01*
X002183Y006525D01*
X002181Y006484D01*
X002175Y006443D01*
X002165Y006403D01*
X002152Y006364D01*
X002135Y006327D01*
X002114Y006291D01*
X002090Y006257D01*
X002063Y006226D01*
X002034Y006198D01*
X002001Y006172D01*
X001967Y006150D01*
X001930Y006131D01*
X001892Y006116D01*
X001852Y006104D01*
X001812Y006096D01*
X001771Y006092D01*
X001729Y006092D01*
X001688Y006096D01*
X001648Y006104D01*
X001608Y006116D01*
X001570Y006131D01*
X001534Y006150D01*
X001499Y006172D01*
X001466Y006198D01*
X001437Y006226D01*
X001410Y006257D01*
X001386Y006291D01*
X001365Y006327D01*
X001348Y006364D01*
X001335Y006403D01*
X001325Y006443D01*
X001319Y006484D01*
X001317Y006525D01*
X004667Y002000D02*
X004669Y002041D01*
X004675Y002082D01*
X004685Y002122D01*
X004698Y002161D01*
X004715Y002198D01*
X004736Y002234D01*
X004760Y002268D01*
X004787Y002299D01*
X004816Y002327D01*
X004849Y002353D01*
X004883Y002375D01*
X004920Y002394D01*
X004958Y002409D01*
X004998Y002421D01*
X005038Y002429D01*
X005079Y002433D01*
X005121Y002433D01*
X005162Y002429D01*
X005202Y002421D01*
X005242Y002409D01*
X005280Y002394D01*
X005316Y002375D01*
X005351Y002353D01*
X005384Y002327D01*
X005413Y002299D01*
X005440Y002268D01*
X005464Y002234D01*
X005485Y002198D01*
X005502Y002161D01*
X005515Y002122D01*
X005525Y002082D01*
X005531Y002041D01*
X005533Y002000D01*
X005531Y001959D01*
X005525Y001918D01*
X005515Y001878D01*
X005502Y001839D01*
X005485Y001802D01*
X005464Y001766D01*
X005440Y001732D01*
X005413Y001701D01*
X005384Y001673D01*
X005351Y001647D01*
X005317Y001625D01*
X005280Y001606D01*
X005242Y001591D01*
X005202Y001579D01*
X005162Y001571D01*
X005121Y001567D01*
X005079Y001567D01*
X005038Y001571D01*
X004998Y001579D01*
X004958Y001591D01*
X004920Y001606D01*
X004884Y001625D01*
X004849Y001647D01*
X004816Y001673D01*
X004787Y001701D01*
X004760Y001732D01*
X004736Y001766D01*
X004715Y001802D01*
X004698Y001839D01*
X004685Y001878D01*
X004675Y001918D01*
X004669Y001959D01*
X004667Y002000D01*
X006067Y002000D02*
X006069Y002041D01*
X006075Y002082D01*
X006085Y002122D01*
X006098Y002161D01*
X006115Y002198D01*
X006136Y002234D01*
X006160Y002268D01*
X006187Y002299D01*
X006216Y002327D01*
X006249Y002353D01*
X006283Y002375D01*
X006320Y002394D01*
X006358Y002409D01*
X006398Y002421D01*
X006438Y002429D01*
X006479Y002433D01*
X006521Y002433D01*
X006562Y002429D01*
X006602Y002421D01*
X006642Y002409D01*
X006680Y002394D01*
X006716Y002375D01*
X006751Y002353D01*
X006784Y002327D01*
X006813Y002299D01*
X006840Y002268D01*
X006864Y002234D01*
X006885Y002198D01*
X006902Y002161D01*
X006915Y002122D01*
X006925Y002082D01*
X006931Y002041D01*
X006933Y002000D01*
X006931Y001959D01*
X006925Y001918D01*
X006915Y001878D01*
X006902Y001839D01*
X006885Y001802D01*
X006864Y001766D01*
X006840Y001732D01*
X006813Y001701D01*
X006784Y001673D01*
X006751Y001647D01*
X006717Y001625D01*
X006680Y001606D01*
X006642Y001591D01*
X006602Y001579D01*
X006562Y001571D01*
X006521Y001567D01*
X006479Y001567D01*
X006438Y001571D01*
X006398Y001579D01*
X006358Y001591D01*
X006320Y001606D01*
X006284Y001625D01*
X006249Y001647D01*
X006216Y001673D01*
X006187Y001701D01*
X006160Y001732D01*
X006136Y001766D01*
X006115Y001802D01*
X006098Y001839D01*
X006085Y001878D01*
X006075Y001918D01*
X006069Y001959D01*
X006067Y002000D01*
X034005Y001800D02*
X034007Y001834D01*
X034013Y001868D01*
X034023Y001901D01*
X034036Y001932D01*
X034054Y001962D01*
X034074Y001990D01*
X034098Y002015D01*
X034124Y002037D01*
X034152Y002055D01*
X034183Y002071D01*
X034215Y002083D01*
X034249Y002091D01*
X034283Y002095D01*
X034317Y002095D01*
X034351Y002091D01*
X034385Y002083D01*
X034417Y002071D01*
X034447Y002055D01*
X034476Y002037D01*
X034502Y002015D01*
X034526Y001990D01*
X034546Y001962D01*
X034564Y001932D01*
X034577Y001901D01*
X034587Y001868D01*
X034593Y001834D01*
X034595Y001800D01*
X034593Y001766D01*
X034587Y001732D01*
X034577Y001699D01*
X034564Y001668D01*
X034546Y001638D01*
X034526Y001610D01*
X034502Y001585D01*
X034476Y001563D01*
X034448Y001545D01*
X034417Y001529D01*
X034385Y001517D01*
X034351Y001509D01*
X034317Y001505D01*
X034283Y001505D01*
X034249Y001509D01*
X034215Y001517D01*
X034183Y001529D01*
X034152Y001545D01*
X034124Y001563D01*
X034098Y001585D01*
X034074Y001610D01*
X034054Y001638D01*
X034036Y001668D01*
X034023Y001699D01*
X034013Y001732D01*
X034007Y001766D01*
X034005Y001800D01*
X034005Y023800D02*
X034007Y023834D01*
X034013Y023868D01*
X034023Y023901D01*
X034036Y023932D01*
X034054Y023962D01*
X034074Y023990D01*
X034098Y024015D01*
X034124Y024037D01*
X034152Y024055D01*
X034183Y024071D01*
X034215Y024083D01*
X034249Y024091D01*
X034283Y024095D01*
X034317Y024095D01*
X034351Y024091D01*
X034385Y024083D01*
X034417Y024071D01*
X034447Y024055D01*
X034476Y024037D01*
X034502Y024015D01*
X034526Y023990D01*
X034546Y023962D01*
X034564Y023932D01*
X034577Y023901D01*
X034587Y023868D01*
X034593Y023834D01*
X034595Y023800D01*
X034593Y023766D01*
X034587Y023732D01*
X034577Y023699D01*
X034564Y023668D01*
X034546Y023638D01*
X034526Y023610D01*
X034502Y023585D01*
X034476Y023563D01*
X034448Y023545D01*
X034417Y023529D01*
X034385Y023517D01*
X034351Y023509D01*
X034317Y023505D01*
X034283Y023505D01*
X034249Y023509D01*
X034215Y023517D01*
X034183Y023529D01*
X034152Y023545D01*
X034124Y023563D01*
X034098Y023585D01*
X034074Y023610D01*
X034054Y023638D01*
X034036Y023668D01*
X034023Y023699D01*
X034013Y023732D01*
X034007Y023766D01*
X034005Y023800D01*
X001005Y023800D02*
X001007Y023834D01*
X001013Y023868D01*
X001023Y023901D01*
X001036Y023932D01*
X001054Y023962D01*
X001074Y023990D01*
X001098Y024015D01*
X001124Y024037D01*
X001152Y024055D01*
X001183Y024071D01*
X001215Y024083D01*
X001249Y024091D01*
X001283Y024095D01*
X001317Y024095D01*
X001351Y024091D01*
X001385Y024083D01*
X001417Y024071D01*
X001447Y024055D01*
X001476Y024037D01*
X001502Y024015D01*
X001526Y023990D01*
X001546Y023962D01*
X001564Y023932D01*
X001577Y023901D01*
X001587Y023868D01*
X001593Y023834D01*
X001595Y023800D01*
X001593Y023766D01*
X001587Y023732D01*
X001577Y023699D01*
X001564Y023668D01*
X001546Y023638D01*
X001526Y023610D01*
X001502Y023585D01*
X001476Y023563D01*
X001448Y023545D01*
X001417Y023529D01*
X001385Y023517D01*
X001351Y023509D01*
X001317Y023505D01*
X001283Y023505D01*
X001249Y023509D01*
X001215Y023517D01*
X001183Y023529D01*
X001152Y023545D01*
X001124Y023563D01*
X001098Y023585D01*
X001074Y023610D01*
X001054Y023638D01*
X001036Y023668D01*
X001023Y023699D01*
X001013Y023732D01*
X001007Y023766D01*
X001005Y023800D01*
D11*
X033857Y006303D02*
X033862Y006303D01*
X033862Y006298D01*
M02*
