G75*
G70*
%OFA0B0*%
%FSLAX24Y24*%
%IPPOS*%
%LPD*%
%AMOC8*
5,1,8,0,0,1.08239X$1,22.5*
%
%ADD10C,0.0671*%
%ADD11C,0.0600*%
%ADD12R,0.0556X0.0556*%
%ADD13C,0.0556*%
%ADD14C,0.1261*%
%ADD15OC8,0.0600*%
%ADD16R,0.0640X0.0640*%
%ADD17C,0.0640*%
%ADD18C,0.1346*%
%ADD19OC8,0.0710*%
%ADD20OC8,0.0556*%
%ADD21C,0.0634*%
%ADD22R,0.0634X0.0634*%
%ADD23C,0.1025*%
%ADD24C,0.0946*%
%ADD25C,0.0966*%
%ADD26C,0.0611*%
D10*
X001302Y001806D03*
X001302Y023806D03*
X034302Y023806D03*
X034302Y001806D03*
D11*
X024812Y002306D02*
X024292Y002306D01*
X024292Y003306D02*
X024812Y003306D01*
X024812Y004306D02*
X024292Y004306D01*
X024292Y005306D02*
X024812Y005306D01*
X024812Y006306D02*
X024292Y006306D01*
X024292Y007306D02*
X024812Y007306D01*
X024812Y008306D02*
X024292Y008306D01*
X021812Y008306D02*
X021292Y008306D01*
X021292Y007306D02*
X021812Y007306D01*
X021812Y006306D02*
X021292Y006306D01*
X021292Y005306D02*
X021812Y005306D01*
X021812Y004306D02*
X021292Y004306D01*
X021292Y003306D02*
X021812Y003306D01*
X021812Y002306D02*
X021292Y002306D01*
X012562Y005306D02*
X012042Y005306D01*
X012042Y006306D02*
X012562Y006306D01*
X012562Y007306D02*
X012042Y007306D01*
X012042Y008306D02*
X012562Y008306D01*
X012562Y009306D02*
X012042Y009306D01*
X012042Y010306D02*
X012562Y010306D01*
X012562Y011306D02*
X012042Y011306D01*
X009562Y011306D02*
X009042Y011306D01*
X009042Y010306D02*
X009562Y010306D01*
X009562Y009306D02*
X009042Y009306D01*
X009042Y008306D02*
X009562Y008306D01*
X009562Y007306D02*
X009042Y007306D01*
X009042Y006306D02*
X009562Y006306D01*
X009562Y005306D02*
X009042Y005306D01*
X011542Y015806D02*
X012062Y015806D01*
X012062Y016806D02*
X011542Y016806D01*
X011542Y017806D02*
X012062Y017806D01*
X012062Y018806D02*
X011542Y018806D01*
X014542Y018806D02*
X015062Y018806D01*
X015062Y017806D02*
X014542Y017806D01*
X014542Y016806D02*
X015062Y016806D01*
X015062Y015806D02*
X014542Y015806D01*
X027542Y015806D02*
X028062Y015806D01*
X028062Y014806D02*
X027542Y014806D01*
X027542Y013806D02*
X028062Y013806D01*
X028062Y012806D02*
X027542Y012806D01*
X030542Y012806D02*
X031062Y012806D01*
X031062Y013806D02*
X030542Y013806D01*
X030542Y014806D02*
X031062Y014806D01*
X031062Y015806D02*
X030542Y015806D01*
X030542Y016806D02*
X031062Y016806D01*
X031062Y017806D02*
X030542Y017806D01*
X030542Y018806D02*
X031062Y018806D01*
X028062Y018806D02*
X027542Y018806D01*
X027542Y017806D02*
X028062Y017806D01*
X028062Y016806D02*
X027542Y016806D01*
D12*
X033552Y017556D03*
X026552Y010806D03*
X017052Y014556D03*
X021552Y018806D03*
X009552Y018806D03*
X008302Y014306D03*
X007552Y009806D03*
D13*
X007552Y010806D03*
X006302Y009056D03*
X006302Y005056D03*
X014802Y005306D03*
X014802Y006806D03*
X018802Y006806D03*
X018802Y005306D03*
X018802Y009806D03*
X017802Y011306D03*
X014802Y009806D03*
X013802Y011306D03*
X017052Y013556D03*
X016552Y016306D03*
X018052Y016306D03*
X021552Y019806D03*
X018052Y020306D03*
X016552Y020306D03*
X008552Y018806D03*
X006802Y020556D03*
X005302Y020556D03*
X005302Y016556D03*
X006802Y016556D03*
X008302Y015306D03*
X025552Y010806D03*
X033552Y018556D03*
D14*
X032521Y022306D03*
X030552Y022306D03*
X028584Y022306D03*
X026271Y022306D03*
X024302Y022306D03*
X022334Y022306D03*
X020021Y022306D03*
X018052Y022306D03*
X016084Y022306D03*
X013771Y022306D03*
X011802Y022306D03*
X009834Y022306D03*
X007271Y022306D03*
X005302Y022306D03*
X003334Y022306D03*
D15*
X012302Y020306D03*
X014302Y020306D03*
X014302Y014306D03*
X012302Y014306D03*
X011802Y012806D03*
X009802Y012806D03*
X022052Y009806D03*
X024052Y009806D03*
X028302Y020306D03*
X030302Y020306D03*
D16*
X014802Y008306D03*
X005052Y010056D03*
D17*
X005052Y006056D03*
X018802Y008306D03*
D18*
X020302Y011706D03*
X020302Y013556D03*
X013653Y002806D03*
X011802Y002806D03*
X009952Y002806D03*
X003052Y011706D03*
X003052Y013556D03*
D19*
X024302Y013806D03*
X025302Y013806D03*
X026302Y013806D03*
X026302Y014806D03*
X025302Y014806D03*
X024302Y014806D03*
X024302Y015806D03*
X025302Y015806D03*
X026302Y015806D03*
X025302Y016806D03*
X024302Y016806D03*
X024302Y012806D03*
X025302Y012806D03*
X027052Y008556D03*
X028052Y008556D03*
X029052Y008556D03*
X030052Y008556D03*
X029052Y007556D03*
X028052Y007556D03*
X027052Y007556D03*
X027052Y006556D03*
X028052Y006556D03*
X029052Y006556D03*
X029052Y005556D03*
X028052Y005556D03*
X027052Y005556D03*
X027052Y004556D03*
X028052Y004556D03*
X029052Y004556D03*
X029052Y003556D03*
X028052Y003556D03*
X027052Y003556D03*
X027052Y002556D03*
X028052Y002556D03*
X029052Y002556D03*
X029052Y001556D03*
X028052Y001556D03*
X027052Y001556D03*
X030052Y001556D03*
D20*
X006302Y011806D03*
X006302Y012806D03*
X006302Y013806D03*
D21*
X002302Y009056D03*
D22*
X003302Y009056D03*
D23*
X003302Y006556D03*
X003302Y005306D03*
X003302Y004056D03*
X005102Y003556D03*
X006502Y003556D03*
D24*
X006502Y002006D03*
X005102Y002006D03*
X001752Y004081D03*
X001752Y005306D03*
X001752Y006531D03*
D25*
X016802Y002306D03*
X018302Y002306D03*
X019802Y002306D03*
X033302Y010806D03*
X033302Y012306D03*
X033302Y013806D03*
X002302Y017806D03*
X002302Y019806D03*
D26*
X017302Y008056D03*
X017552Y006056D03*
X019552Y006056D03*
X014552Y004556D03*
X014052Y007806D03*
M02*
