G75*
G70*
%OFA0B0*%
%FSLAX24Y24*%
%IPPOS*%
%LPD*%
%AMOC8*
5,1,8,0,0,1.08239X$1,22.5*
%
%ADD10C,0.0000*%
%ADD11C,0.0520*%
%ADD12R,0.0476X0.0476*%
%ADD13C,0.0476*%
%ADD14C,0.1181*%
%ADD15OC8,0.0520*%
%ADD16R,0.0560X0.0560*%
%ADD17C,0.0560*%
%ADD18C,0.1266*%
%ADD19OC8,0.0630*%
%ADD20OC8,0.0476*%
%ADD21C,0.0554*%
%ADD22R,0.0554X0.0554*%
%ADD23C,0.0945*%
%ADD24C,0.0886*%
%ADD25C,0.0400*%
%ADD26C,0.0320*%
%ADD27C,0.0531*%
D10*
X000300Y000800D02*
X000300Y024550D01*
X035300Y024550D01*
X035300Y000800D01*
X000300Y000800D01*
X001005Y001800D02*
X001007Y001834D01*
X001013Y001868D01*
X001023Y001901D01*
X001036Y001932D01*
X001054Y001962D01*
X001074Y001990D01*
X001098Y002015D01*
X001124Y002037D01*
X001152Y002055D01*
X001183Y002071D01*
X001215Y002083D01*
X001249Y002091D01*
X001283Y002095D01*
X001317Y002095D01*
X001351Y002091D01*
X001385Y002083D01*
X001417Y002071D01*
X001447Y002055D01*
X001476Y002037D01*
X001502Y002015D01*
X001526Y001990D01*
X001546Y001962D01*
X001564Y001932D01*
X001577Y001901D01*
X001587Y001868D01*
X001593Y001834D01*
X001595Y001800D01*
X001593Y001766D01*
X001587Y001732D01*
X001577Y001699D01*
X001564Y001668D01*
X001546Y001638D01*
X001526Y001610D01*
X001502Y001585D01*
X001476Y001563D01*
X001448Y001545D01*
X001417Y001529D01*
X001385Y001517D01*
X001351Y001509D01*
X001317Y001505D01*
X001283Y001505D01*
X001249Y001509D01*
X001215Y001517D01*
X001183Y001529D01*
X001152Y001545D01*
X001124Y001563D01*
X001098Y001585D01*
X001074Y001610D01*
X001054Y001638D01*
X001036Y001668D01*
X001023Y001699D01*
X001013Y001732D01*
X001007Y001766D01*
X001005Y001800D01*
X001317Y004075D02*
X001319Y004116D01*
X001325Y004157D01*
X001335Y004197D01*
X001348Y004236D01*
X001365Y004273D01*
X001386Y004309D01*
X001410Y004343D01*
X001437Y004374D01*
X001466Y004402D01*
X001499Y004428D01*
X001533Y004450D01*
X001570Y004469D01*
X001608Y004484D01*
X001648Y004496D01*
X001688Y004504D01*
X001729Y004508D01*
X001771Y004508D01*
X001812Y004504D01*
X001852Y004496D01*
X001892Y004484D01*
X001930Y004469D01*
X001966Y004450D01*
X002001Y004428D01*
X002034Y004402D01*
X002063Y004374D01*
X002090Y004343D01*
X002114Y004309D01*
X002135Y004273D01*
X002152Y004236D01*
X002165Y004197D01*
X002175Y004157D01*
X002181Y004116D01*
X002183Y004075D01*
X002181Y004034D01*
X002175Y003993D01*
X002165Y003953D01*
X002152Y003914D01*
X002135Y003877D01*
X002114Y003841D01*
X002090Y003807D01*
X002063Y003776D01*
X002034Y003748D01*
X002001Y003722D01*
X001967Y003700D01*
X001930Y003681D01*
X001892Y003666D01*
X001852Y003654D01*
X001812Y003646D01*
X001771Y003642D01*
X001729Y003642D01*
X001688Y003646D01*
X001648Y003654D01*
X001608Y003666D01*
X001570Y003681D01*
X001534Y003700D01*
X001499Y003722D01*
X001466Y003748D01*
X001437Y003776D01*
X001410Y003807D01*
X001386Y003841D01*
X001365Y003877D01*
X001348Y003914D01*
X001335Y003953D01*
X001325Y003993D01*
X001319Y004034D01*
X001317Y004075D01*
X001317Y005300D02*
X001319Y005341D01*
X001325Y005382D01*
X001335Y005422D01*
X001348Y005461D01*
X001365Y005498D01*
X001386Y005534D01*
X001410Y005568D01*
X001437Y005599D01*
X001466Y005627D01*
X001499Y005653D01*
X001533Y005675D01*
X001570Y005694D01*
X001608Y005709D01*
X001648Y005721D01*
X001688Y005729D01*
X001729Y005733D01*
X001771Y005733D01*
X001812Y005729D01*
X001852Y005721D01*
X001892Y005709D01*
X001930Y005694D01*
X001966Y005675D01*
X002001Y005653D01*
X002034Y005627D01*
X002063Y005599D01*
X002090Y005568D01*
X002114Y005534D01*
X002135Y005498D01*
X002152Y005461D01*
X002165Y005422D01*
X002175Y005382D01*
X002181Y005341D01*
X002183Y005300D01*
X002181Y005259D01*
X002175Y005218D01*
X002165Y005178D01*
X002152Y005139D01*
X002135Y005102D01*
X002114Y005066D01*
X002090Y005032D01*
X002063Y005001D01*
X002034Y004973D01*
X002001Y004947D01*
X001967Y004925D01*
X001930Y004906D01*
X001892Y004891D01*
X001852Y004879D01*
X001812Y004871D01*
X001771Y004867D01*
X001729Y004867D01*
X001688Y004871D01*
X001648Y004879D01*
X001608Y004891D01*
X001570Y004906D01*
X001534Y004925D01*
X001499Y004947D01*
X001466Y004973D01*
X001437Y005001D01*
X001410Y005032D01*
X001386Y005066D01*
X001365Y005102D01*
X001348Y005139D01*
X001335Y005178D01*
X001325Y005218D01*
X001319Y005259D01*
X001317Y005300D01*
X001317Y006525D02*
X001319Y006566D01*
X001325Y006607D01*
X001335Y006647D01*
X001348Y006686D01*
X001365Y006723D01*
X001386Y006759D01*
X001410Y006793D01*
X001437Y006824D01*
X001466Y006852D01*
X001499Y006878D01*
X001533Y006900D01*
X001570Y006919D01*
X001608Y006934D01*
X001648Y006946D01*
X001688Y006954D01*
X001729Y006958D01*
X001771Y006958D01*
X001812Y006954D01*
X001852Y006946D01*
X001892Y006934D01*
X001930Y006919D01*
X001966Y006900D01*
X002001Y006878D01*
X002034Y006852D01*
X002063Y006824D01*
X002090Y006793D01*
X002114Y006759D01*
X002135Y006723D01*
X002152Y006686D01*
X002165Y006647D01*
X002175Y006607D01*
X002181Y006566D01*
X002183Y006525D01*
X002181Y006484D01*
X002175Y006443D01*
X002165Y006403D01*
X002152Y006364D01*
X002135Y006327D01*
X002114Y006291D01*
X002090Y006257D01*
X002063Y006226D01*
X002034Y006198D01*
X002001Y006172D01*
X001967Y006150D01*
X001930Y006131D01*
X001892Y006116D01*
X001852Y006104D01*
X001812Y006096D01*
X001771Y006092D01*
X001729Y006092D01*
X001688Y006096D01*
X001648Y006104D01*
X001608Y006116D01*
X001570Y006131D01*
X001534Y006150D01*
X001499Y006172D01*
X001466Y006198D01*
X001437Y006226D01*
X001410Y006257D01*
X001386Y006291D01*
X001365Y006327D01*
X001348Y006364D01*
X001335Y006403D01*
X001325Y006443D01*
X001319Y006484D01*
X001317Y006525D01*
X004667Y002000D02*
X004669Y002041D01*
X004675Y002082D01*
X004685Y002122D01*
X004698Y002161D01*
X004715Y002198D01*
X004736Y002234D01*
X004760Y002268D01*
X004787Y002299D01*
X004816Y002327D01*
X004849Y002353D01*
X004883Y002375D01*
X004920Y002394D01*
X004958Y002409D01*
X004998Y002421D01*
X005038Y002429D01*
X005079Y002433D01*
X005121Y002433D01*
X005162Y002429D01*
X005202Y002421D01*
X005242Y002409D01*
X005280Y002394D01*
X005316Y002375D01*
X005351Y002353D01*
X005384Y002327D01*
X005413Y002299D01*
X005440Y002268D01*
X005464Y002234D01*
X005485Y002198D01*
X005502Y002161D01*
X005515Y002122D01*
X005525Y002082D01*
X005531Y002041D01*
X005533Y002000D01*
X005531Y001959D01*
X005525Y001918D01*
X005515Y001878D01*
X005502Y001839D01*
X005485Y001802D01*
X005464Y001766D01*
X005440Y001732D01*
X005413Y001701D01*
X005384Y001673D01*
X005351Y001647D01*
X005317Y001625D01*
X005280Y001606D01*
X005242Y001591D01*
X005202Y001579D01*
X005162Y001571D01*
X005121Y001567D01*
X005079Y001567D01*
X005038Y001571D01*
X004998Y001579D01*
X004958Y001591D01*
X004920Y001606D01*
X004884Y001625D01*
X004849Y001647D01*
X004816Y001673D01*
X004787Y001701D01*
X004760Y001732D01*
X004736Y001766D01*
X004715Y001802D01*
X004698Y001839D01*
X004685Y001878D01*
X004675Y001918D01*
X004669Y001959D01*
X004667Y002000D01*
X006067Y002000D02*
X006069Y002041D01*
X006075Y002082D01*
X006085Y002122D01*
X006098Y002161D01*
X006115Y002198D01*
X006136Y002234D01*
X006160Y002268D01*
X006187Y002299D01*
X006216Y002327D01*
X006249Y002353D01*
X006283Y002375D01*
X006320Y002394D01*
X006358Y002409D01*
X006398Y002421D01*
X006438Y002429D01*
X006479Y002433D01*
X006521Y002433D01*
X006562Y002429D01*
X006602Y002421D01*
X006642Y002409D01*
X006680Y002394D01*
X006716Y002375D01*
X006751Y002353D01*
X006784Y002327D01*
X006813Y002299D01*
X006840Y002268D01*
X006864Y002234D01*
X006885Y002198D01*
X006902Y002161D01*
X006915Y002122D01*
X006925Y002082D01*
X006931Y002041D01*
X006933Y002000D01*
X006931Y001959D01*
X006925Y001918D01*
X006915Y001878D01*
X006902Y001839D01*
X006885Y001802D01*
X006864Y001766D01*
X006840Y001732D01*
X006813Y001701D01*
X006784Y001673D01*
X006751Y001647D01*
X006717Y001625D01*
X006680Y001606D01*
X006642Y001591D01*
X006602Y001579D01*
X006562Y001571D01*
X006521Y001567D01*
X006479Y001567D01*
X006438Y001571D01*
X006398Y001579D01*
X006358Y001591D01*
X006320Y001606D01*
X006284Y001625D01*
X006249Y001647D01*
X006216Y001673D01*
X006187Y001701D01*
X006160Y001732D01*
X006136Y001766D01*
X006115Y001802D01*
X006098Y001839D01*
X006085Y001878D01*
X006075Y001918D01*
X006069Y001959D01*
X006067Y002000D01*
X034005Y001800D02*
X034007Y001834D01*
X034013Y001868D01*
X034023Y001901D01*
X034036Y001932D01*
X034054Y001962D01*
X034074Y001990D01*
X034098Y002015D01*
X034124Y002037D01*
X034152Y002055D01*
X034183Y002071D01*
X034215Y002083D01*
X034249Y002091D01*
X034283Y002095D01*
X034317Y002095D01*
X034351Y002091D01*
X034385Y002083D01*
X034417Y002071D01*
X034447Y002055D01*
X034476Y002037D01*
X034502Y002015D01*
X034526Y001990D01*
X034546Y001962D01*
X034564Y001932D01*
X034577Y001901D01*
X034587Y001868D01*
X034593Y001834D01*
X034595Y001800D01*
X034593Y001766D01*
X034587Y001732D01*
X034577Y001699D01*
X034564Y001668D01*
X034546Y001638D01*
X034526Y001610D01*
X034502Y001585D01*
X034476Y001563D01*
X034448Y001545D01*
X034417Y001529D01*
X034385Y001517D01*
X034351Y001509D01*
X034317Y001505D01*
X034283Y001505D01*
X034249Y001509D01*
X034215Y001517D01*
X034183Y001529D01*
X034152Y001545D01*
X034124Y001563D01*
X034098Y001585D01*
X034074Y001610D01*
X034054Y001638D01*
X034036Y001668D01*
X034023Y001699D01*
X034013Y001732D01*
X034007Y001766D01*
X034005Y001800D01*
X034005Y023800D02*
X034007Y023834D01*
X034013Y023868D01*
X034023Y023901D01*
X034036Y023932D01*
X034054Y023962D01*
X034074Y023990D01*
X034098Y024015D01*
X034124Y024037D01*
X034152Y024055D01*
X034183Y024071D01*
X034215Y024083D01*
X034249Y024091D01*
X034283Y024095D01*
X034317Y024095D01*
X034351Y024091D01*
X034385Y024083D01*
X034417Y024071D01*
X034447Y024055D01*
X034476Y024037D01*
X034502Y024015D01*
X034526Y023990D01*
X034546Y023962D01*
X034564Y023932D01*
X034577Y023901D01*
X034587Y023868D01*
X034593Y023834D01*
X034595Y023800D01*
X034593Y023766D01*
X034587Y023732D01*
X034577Y023699D01*
X034564Y023668D01*
X034546Y023638D01*
X034526Y023610D01*
X034502Y023585D01*
X034476Y023563D01*
X034448Y023545D01*
X034417Y023529D01*
X034385Y023517D01*
X034351Y023509D01*
X034317Y023505D01*
X034283Y023505D01*
X034249Y023509D01*
X034215Y023517D01*
X034183Y023529D01*
X034152Y023545D01*
X034124Y023563D01*
X034098Y023585D01*
X034074Y023610D01*
X034054Y023638D01*
X034036Y023668D01*
X034023Y023699D01*
X034013Y023732D01*
X034007Y023766D01*
X034005Y023800D01*
X001005Y023800D02*
X001007Y023834D01*
X001013Y023868D01*
X001023Y023901D01*
X001036Y023932D01*
X001054Y023962D01*
X001074Y023990D01*
X001098Y024015D01*
X001124Y024037D01*
X001152Y024055D01*
X001183Y024071D01*
X001215Y024083D01*
X001249Y024091D01*
X001283Y024095D01*
X001317Y024095D01*
X001351Y024091D01*
X001385Y024083D01*
X001417Y024071D01*
X001447Y024055D01*
X001476Y024037D01*
X001502Y024015D01*
X001526Y023990D01*
X001546Y023962D01*
X001564Y023932D01*
X001577Y023901D01*
X001587Y023868D01*
X001593Y023834D01*
X001595Y023800D01*
X001593Y023766D01*
X001587Y023732D01*
X001577Y023699D01*
X001564Y023668D01*
X001546Y023638D01*
X001526Y023610D01*
X001502Y023585D01*
X001476Y023563D01*
X001448Y023545D01*
X001417Y023529D01*
X001385Y023517D01*
X001351Y023509D01*
X001317Y023505D01*
X001283Y023505D01*
X001249Y023509D01*
X001215Y023517D01*
X001183Y023529D01*
X001152Y023545D01*
X001124Y023563D01*
X001098Y023585D01*
X001074Y023610D01*
X001054Y023638D01*
X001036Y023668D01*
X001023Y023699D01*
X001013Y023732D01*
X001007Y023766D01*
X001005Y023800D01*
D11*
X011540Y018800D02*
X012060Y018800D01*
X012060Y017800D02*
X011540Y017800D01*
X011540Y016800D02*
X012060Y016800D01*
X012060Y015800D02*
X011540Y015800D01*
X014540Y015800D02*
X015060Y015800D01*
X015060Y016800D02*
X014540Y016800D01*
X014540Y017800D02*
X015060Y017800D01*
X015060Y018800D02*
X014540Y018800D01*
X012560Y011300D02*
X012040Y011300D01*
X012040Y010300D02*
X012560Y010300D01*
X012560Y009300D02*
X012040Y009300D01*
X012040Y008300D02*
X012560Y008300D01*
X012560Y007300D02*
X012040Y007300D01*
X012040Y006300D02*
X012560Y006300D01*
X012560Y005300D02*
X012040Y005300D01*
X009560Y005300D02*
X009040Y005300D01*
X009040Y006300D02*
X009560Y006300D01*
X009560Y007300D02*
X009040Y007300D01*
X009040Y008300D02*
X009560Y008300D01*
X009560Y009300D02*
X009040Y009300D01*
X009040Y010300D02*
X009560Y010300D01*
X009560Y011300D02*
X009040Y011300D01*
X021290Y008300D02*
X021810Y008300D01*
X021810Y007300D02*
X021290Y007300D01*
X021290Y006300D02*
X021810Y006300D01*
X021810Y005300D02*
X021290Y005300D01*
X021290Y004300D02*
X021810Y004300D01*
X021810Y003300D02*
X021290Y003300D01*
X021290Y002300D02*
X021810Y002300D01*
X024290Y002300D02*
X024810Y002300D01*
X024810Y003300D02*
X024290Y003300D01*
X024290Y004300D02*
X024810Y004300D01*
X024810Y005300D02*
X024290Y005300D01*
X024290Y006300D02*
X024810Y006300D01*
X024810Y007300D02*
X024290Y007300D01*
X024290Y008300D02*
X024810Y008300D01*
X027540Y012800D02*
X028060Y012800D01*
X028060Y013800D02*
X027540Y013800D01*
X027540Y014800D02*
X028060Y014800D01*
X028060Y015800D02*
X027540Y015800D01*
X027540Y016800D02*
X028060Y016800D01*
X028060Y017800D02*
X027540Y017800D01*
X027540Y018800D02*
X028060Y018800D01*
X030540Y018800D02*
X031060Y018800D01*
X031060Y017800D02*
X030540Y017800D01*
X030540Y016800D02*
X031060Y016800D01*
X031060Y015800D02*
X030540Y015800D01*
X030540Y014800D02*
X031060Y014800D01*
X031060Y013800D02*
X030540Y013800D01*
X030540Y012800D02*
X031060Y012800D01*
D12*
X026550Y010800D03*
X033550Y017550D03*
X021550Y018800D03*
X017050Y014550D03*
X009550Y018800D03*
X008300Y014300D03*
X007550Y009800D03*
D13*
X007550Y010800D03*
X006300Y009050D03*
X006300Y005050D03*
X014800Y005300D03*
X014800Y006800D03*
X018800Y006800D03*
X018800Y005300D03*
X018800Y009800D03*
X017800Y011300D03*
X014800Y009800D03*
X013800Y011300D03*
X017050Y013550D03*
X016550Y016300D03*
X018050Y016300D03*
X021550Y019800D03*
X018050Y020300D03*
X016550Y020300D03*
X008550Y018800D03*
X006800Y020550D03*
X005300Y020550D03*
X005300Y016550D03*
X006800Y016550D03*
X008300Y015300D03*
X025550Y010800D03*
X033550Y018550D03*
D14*
X032519Y022300D03*
X030550Y022300D03*
X028581Y022300D03*
X026269Y022300D03*
X024300Y022300D03*
X022331Y022300D03*
X020019Y022300D03*
X018050Y022300D03*
X016081Y022300D03*
X013769Y022300D03*
X011800Y022300D03*
X009831Y022300D03*
X007269Y022300D03*
X005300Y022300D03*
X003331Y022300D03*
D15*
X012300Y020300D03*
X014300Y020300D03*
X014300Y014300D03*
X012300Y014300D03*
X011800Y012800D03*
X009800Y012800D03*
X022050Y009800D03*
X024050Y009800D03*
X028300Y020300D03*
X030300Y020300D03*
D16*
X014800Y008300D03*
X005050Y010050D03*
D17*
X005050Y006050D03*
X018800Y008300D03*
D18*
X020300Y011700D03*
X020300Y013550D03*
X013650Y002800D03*
X011800Y002800D03*
X009950Y002800D03*
X003050Y011700D03*
X003050Y013550D03*
D19*
X024300Y013800D03*
X025300Y013800D03*
X026300Y013800D03*
X026300Y014800D03*
X025300Y014800D03*
X024300Y014800D03*
X024300Y015800D03*
X025300Y015800D03*
X026300Y015800D03*
X025300Y016800D03*
X024300Y016800D03*
X024300Y012800D03*
X025300Y012800D03*
X027050Y008550D03*
X028050Y008550D03*
X029050Y008550D03*
X030050Y008550D03*
X029050Y007550D03*
X028050Y007550D03*
X027050Y007550D03*
X027050Y006550D03*
X028050Y006550D03*
X029050Y006550D03*
X029050Y005550D03*
X028050Y005550D03*
X027050Y005550D03*
X027050Y004550D03*
X028050Y004550D03*
X029050Y004550D03*
X029050Y003550D03*
X028050Y003550D03*
X027050Y003550D03*
X027050Y002550D03*
X028050Y002550D03*
X029050Y002550D03*
X029050Y001550D03*
X028050Y001550D03*
X027050Y001550D03*
X030050Y001550D03*
D20*
X006300Y011800D03*
X006300Y012800D03*
X006300Y013800D03*
D21*
X002300Y009050D03*
D22*
X003300Y009050D03*
D23*
X003300Y006550D03*
X003300Y005300D03*
X003300Y004050D03*
X005100Y003550D03*
X006500Y003550D03*
D24*
X016800Y002300D03*
X018300Y002300D03*
X019800Y002300D03*
X033300Y010800D03*
X033300Y012300D03*
X033300Y013800D03*
X002300Y017800D03*
X002300Y019800D03*
D25*
X002875Y020360D02*
X002755Y020481D01*
X002460Y020603D01*
X002140Y020603D01*
X001845Y020481D01*
X001619Y020255D01*
X001497Y019960D01*
X001497Y019640D01*
X001619Y019345D01*
X001845Y019119D01*
X002140Y018997D01*
X002460Y018997D01*
X002755Y019119D01*
X002915Y019280D01*
X003153Y019280D01*
X003345Y019359D01*
X003491Y019505D01*
X004736Y020751D01*
X004702Y020669D01*
X004702Y020431D01*
X004793Y020211D01*
X004961Y020043D01*
X005181Y019952D01*
X005419Y019952D01*
X005639Y020043D01*
X005807Y020211D01*
X005898Y020431D01*
X005898Y020669D01*
X005807Y020889D01*
X005639Y021057D01*
X005419Y021148D01*
X005181Y021148D01*
X005099Y021114D01*
X005335Y021349D01*
X005489Y021349D01*
X005838Y021494D01*
X006106Y021762D01*
X006251Y022111D01*
X006251Y022489D01*
X006106Y022838D01*
X005838Y023106D01*
X005489Y023251D01*
X005111Y023251D01*
X004762Y023106D01*
X004494Y022838D01*
X004349Y022489D01*
X004349Y022111D01*
X004430Y021916D01*
X002875Y020360D01*
X003240Y020725D02*
X000900Y020725D01*
X000900Y020327D02*
X001691Y020327D01*
X001497Y019928D02*
X000900Y019928D01*
X000900Y019530D02*
X001543Y019530D01*
X001833Y019131D02*
X000900Y019131D01*
X000900Y018733D02*
X007952Y018733D01*
X007952Y018681D02*
X008043Y018461D01*
X008211Y018293D01*
X008431Y018202D01*
X008669Y018202D01*
X008889Y018293D01*
X008991Y018396D01*
X009007Y018358D01*
X009108Y018257D01*
X009109Y018257D01*
X009109Y018255D01*
X010030Y017335D01*
X010030Y013360D01*
X009800Y013360D01*
X009800Y012800D01*
X009800Y012800D01*
X009800Y012240D01*
X010030Y012240D01*
X010030Y011707D01*
X009911Y011826D01*
X009683Y011920D01*
X008917Y011920D01*
X008689Y011826D01*
X008514Y011651D01*
X008420Y011423D01*
X008420Y011177D01*
X008514Y010949D01*
X008663Y010800D01*
X008514Y010651D01*
X008420Y010423D01*
X008420Y010177D01*
X008514Y009949D01*
X008663Y009800D01*
X008514Y009651D01*
X008420Y009423D01*
X008420Y009177D01*
X008514Y008949D01*
X008663Y008800D01*
X008514Y008651D01*
X008420Y008423D01*
X008420Y008177D01*
X008514Y007949D01*
X008663Y007800D01*
X008514Y007651D01*
X008420Y007423D01*
X008420Y007177D01*
X008514Y006949D01*
X008663Y006800D01*
X008514Y006651D01*
X008420Y006423D01*
X008420Y006177D01*
X008514Y005949D01*
X008689Y005774D01*
X008722Y005761D01*
X008675Y005727D01*
X008613Y005665D01*
X008561Y005594D01*
X008521Y005515D01*
X008494Y005431D01*
X008480Y005344D01*
X008480Y005300D01*
X009300Y005300D01*
X010120Y005300D01*
X010120Y005344D01*
X010106Y005431D01*
X010079Y005515D01*
X010039Y005594D01*
X009987Y005665D01*
X009925Y005727D01*
X009878Y005761D01*
X009911Y005774D01*
X010086Y005949D01*
X010180Y006177D01*
X010180Y006423D01*
X010086Y006651D01*
X009937Y006800D01*
X010086Y006949D01*
X010180Y007177D01*
X010180Y007423D01*
X010086Y007651D01*
X009937Y007800D01*
X010086Y007949D01*
X010180Y008177D01*
X010180Y008423D01*
X010086Y008651D01*
X009937Y008800D01*
X010086Y008949D01*
X010180Y009177D01*
X010180Y009423D01*
X010086Y009651D01*
X009937Y009800D01*
X010086Y009949D01*
X010180Y010177D01*
X010180Y010423D01*
X010086Y010651D01*
X009937Y010800D01*
X010086Y010949D01*
X010180Y011177D01*
X010180Y011185D01*
X011359Y010005D01*
X011505Y009859D01*
X011659Y009796D01*
X011514Y009651D01*
X011420Y009423D01*
X011420Y009177D01*
X011514Y008949D01*
X011659Y008804D01*
X011505Y008741D01*
X011005Y008241D01*
X010859Y008095D01*
X010780Y007903D01*
X010780Y003226D01*
X010768Y003252D01*
X010712Y003341D01*
X010646Y003423D01*
X010572Y003497D01*
X010490Y003562D01*
X010402Y003618D01*
X010307Y003663D01*
X010208Y003698D01*
X010106Y003721D01*
X010002Y003733D01*
X009966Y003733D01*
X009966Y002817D01*
X009933Y002817D01*
X009933Y003733D01*
X009897Y003733D01*
X009793Y003721D01*
X009691Y003698D01*
X009592Y003663D01*
X009498Y003618D01*
X009409Y003562D01*
X009327Y003497D01*
X009253Y003423D01*
X009187Y003341D01*
X009132Y003252D01*
X009086Y003158D01*
X009052Y003059D01*
X009028Y002957D01*
X009017Y002852D01*
X009017Y002817D01*
X009933Y002817D01*
X009933Y002783D01*
X009966Y002783D01*
X009966Y001867D01*
X010002Y001867D01*
X010106Y001879D01*
X010208Y001902D01*
X010307Y001937D01*
X010402Y001982D01*
X010490Y002038D01*
X010572Y002103D01*
X010646Y002177D01*
X010712Y002259D01*
X010768Y002348D01*
X010813Y002442D01*
X010841Y002521D01*
X010958Y002237D01*
X011237Y001958D01*
X011602Y001807D01*
X011998Y001807D01*
X012363Y001958D01*
X012642Y002237D01*
X012725Y002439D01*
X012809Y002237D01*
X013088Y001958D01*
X013453Y001807D01*
X013848Y001807D01*
X014213Y001958D01*
X014492Y002237D01*
X014643Y002602D01*
X014643Y002998D01*
X014492Y003363D01*
X014323Y003531D01*
X014746Y003954D01*
X014904Y004020D01*
X015080Y004196D01*
X015176Y004426D01*
X015176Y004674D01*
X015128Y004789D01*
X015139Y004793D01*
X015307Y004961D01*
X015398Y005181D01*
X015398Y005419D01*
X015307Y005639D01*
X015139Y005807D01*
X014919Y005898D01*
X014681Y005898D01*
X014461Y005807D01*
X014293Y005639D01*
X014202Y005419D01*
X014202Y005181D01*
X014237Y005098D01*
X014196Y005080D01*
X014020Y004904D01*
X013954Y004746D01*
X013176Y003968D01*
X013090Y003762D01*
X013090Y003643D01*
X013088Y003642D01*
X012809Y003363D01*
X012725Y003161D01*
X012642Y003363D01*
X012363Y003642D01*
X011998Y003793D01*
X011820Y003793D01*
X011820Y004720D01*
X011917Y004680D01*
X012683Y004680D01*
X012911Y004774D01*
X012917Y004780D01*
X013153Y004780D01*
X013345Y004859D01*
X013491Y005005D01*
X013741Y005255D01*
X013820Y005447D01*
X013820Y007218D01*
X013926Y007174D01*
X014174Y007174D01*
X014404Y007270D01*
X014580Y007446D01*
X014669Y007660D01*
X015152Y007660D01*
X015284Y007715D01*
X015385Y007816D01*
X015440Y007948D01*
X015440Y008652D01*
X015385Y008784D01*
X015284Y008885D01*
X015152Y008940D01*
X014570Y008940D01*
X014570Y009248D01*
X014681Y009202D01*
X014919Y009202D01*
X015139Y009293D01*
X015307Y009461D01*
X015398Y009681D01*
X015398Y009919D01*
X015307Y010139D01*
X015139Y010307D01*
X014919Y010398D01*
X014681Y010398D01*
X014570Y010352D01*
X014570Y010716D01*
X014576Y010734D01*
X014570Y010818D01*
X014570Y010903D01*
X014563Y010921D01*
X014561Y010940D01*
X014523Y011016D01*
X014491Y011095D01*
X014477Y011108D01*
X014398Y011267D01*
X014398Y011419D01*
X014307Y011639D01*
X014139Y011807D01*
X013919Y011898D01*
X013820Y011898D01*
X013820Y013903D01*
X014043Y013680D01*
X014185Y013680D01*
X015530Y012335D01*
X015530Y002947D01*
X015609Y002755D01*
X015997Y002368D01*
X015997Y002140D01*
X016119Y001845D01*
X016345Y001619D01*
X016640Y001497D01*
X016960Y001497D01*
X017255Y001619D01*
X017481Y001845D01*
X017550Y002013D01*
X017619Y001845D01*
X017845Y001619D01*
X018140Y001497D01*
X018460Y001497D01*
X018755Y001619D01*
X018981Y001845D01*
X019085Y002097D01*
X019095Y002061D01*
X019132Y001971D01*
X019181Y001886D01*
X019240Y001809D01*
X019309Y001740D01*
X019386Y001681D01*
X019471Y001632D01*
X019561Y001595D01*
X019655Y001570D01*
X019751Y001557D01*
X019800Y001557D01*
X019849Y001557D01*
X019945Y001570D01*
X020039Y001595D01*
X020129Y001632D01*
X020214Y001681D01*
X020291Y001740D01*
X020360Y001809D01*
X020419Y001886D01*
X020468Y001971D01*
X020505Y002061D01*
X020530Y002155D01*
X020543Y002251D01*
X020543Y002300D01*
X020543Y002349D01*
X020530Y002445D01*
X020505Y002539D01*
X020468Y002629D01*
X020419Y002714D01*
X020360Y002791D01*
X020291Y002860D01*
X020214Y002919D01*
X020129Y002968D01*
X020039Y003005D01*
X019945Y003030D01*
X019849Y003043D01*
X019800Y003043D01*
X019751Y003043D01*
X019655Y003030D01*
X019561Y003005D01*
X019471Y002968D01*
X019386Y002919D01*
X019309Y002860D01*
X019240Y002791D01*
X019181Y002714D01*
X019132Y002629D01*
X019095Y002539D01*
X019085Y002503D01*
X018981Y002755D01*
X018860Y002875D01*
X018860Y003161D01*
X018775Y003367D01*
X017860Y004282D01*
X017860Y005446D01*
X017936Y005414D01*
X018184Y005414D01*
X018204Y005422D01*
X018202Y005419D01*
X018202Y005181D01*
X018293Y004961D01*
X018461Y004793D01*
X018681Y004702D01*
X018919Y004702D01*
X019139Y004793D01*
X019307Y004961D01*
X019398Y005181D01*
X019398Y005419D01*
X019396Y005424D01*
X019530Y005424D01*
X019530Y003947D01*
X019609Y003755D01*
X020359Y003005D01*
X020505Y002859D01*
X020697Y002780D01*
X020933Y002780D01*
X020939Y002774D01*
X020972Y002761D01*
X020925Y002727D01*
X020863Y002665D01*
X020811Y002594D01*
X020771Y002515D01*
X020744Y002431D01*
X020730Y002344D01*
X020730Y002300D01*
X021550Y002300D01*
X022370Y002300D01*
X022370Y002344D01*
X022356Y002431D01*
X022329Y002515D01*
X022289Y002594D01*
X022237Y002665D01*
X022175Y002727D01*
X022128Y002761D01*
X022161Y002774D01*
X022336Y002949D01*
X022430Y003177D01*
X022430Y003423D01*
X022336Y003651D01*
X022161Y003826D01*
X022128Y003839D01*
X022175Y003873D01*
X022237Y003935D01*
X022289Y004006D01*
X022329Y004085D01*
X022356Y004169D01*
X022370Y004256D01*
X022370Y004300D01*
X022370Y004344D01*
X022356Y004431D01*
X022329Y004515D01*
X022289Y004594D01*
X022237Y004665D01*
X022175Y004727D01*
X022128Y004761D01*
X022161Y004774D01*
X022336Y004949D01*
X022352Y004989D01*
X023516Y005400D01*
X023531Y005400D01*
X023620Y005437D01*
X023685Y005460D01*
X023670Y005423D01*
X023670Y005177D01*
X023764Y004949D01*
X023913Y004800D01*
X023764Y004651D01*
X023670Y004423D01*
X023670Y004177D01*
X023764Y003949D01*
X023913Y003800D01*
X023764Y003651D01*
X023670Y003423D01*
X023670Y003177D01*
X023764Y002949D01*
X023913Y002800D01*
X023764Y002651D01*
X023670Y002423D01*
X023670Y002177D01*
X023764Y001949D01*
X023939Y001774D01*
X024167Y001680D01*
X024933Y001680D01*
X025161Y001774D01*
X025336Y001949D01*
X025430Y002177D01*
X025430Y002423D01*
X025336Y002651D01*
X025187Y002800D01*
X025336Y002949D01*
X025430Y003177D01*
X025430Y003423D01*
X025336Y003651D01*
X025187Y003800D01*
X025336Y003949D01*
X025430Y004177D01*
X025430Y004423D01*
X025336Y004651D01*
X025187Y004800D01*
X025336Y004949D01*
X025430Y005177D01*
X025430Y005423D01*
X025336Y005651D01*
X025187Y005800D01*
X025336Y005949D01*
X025430Y006177D01*
X025430Y006423D01*
X025336Y006651D01*
X025187Y006800D01*
X025336Y006949D01*
X025430Y007177D01*
X025430Y007423D01*
X025336Y007651D01*
X025187Y007800D01*
X025336Y007949D01*
X025430Y008177D01*
X025430Y008423D01*
X025402Y008490D01*
X025495Y008490D01*
X025549Y008479D01*
X025605Y008490D01*
X025661Y008490D01*
X025713Y008511D01*
X025768Y008522D01*
X025815Y008554D01*
X025867Y008575D01*
X025907Y008615D01*
X026470Y008990D01*
X026535Y008990D01*
X026375Y008830D01*
X026375Y008270D01*
X026595Y008050D01*
X026375Y007830D01*
X026375Y007270D01*
X026595Y007050D01*
X026375Y006830D01*
X026375Y006270D01*
X026595Y006050D01*
X026375Y005830D01*
X026375Y005270D01*
X026595Y005050D01*
X026375Y004830D01*
X026375Y004270D01*
X026595Y004050D01*
X026375Y003830D01*
X026375Y003270D01*
X026595Y003050D01*
X026375Y002830D01*
X026375Y002270D01*
X026638Y002008D01*
X026435Y001805D01*
X026435Y001550D01*
X027050Y001550D01*
X028050Y001550D01*
X029050Y001550D01*
X030050Y001550D01*
X030050Y001550D01*
X030050Y002165D01*
X030305Y002165D01*
X030665Y001805D01*
X030665Y001550D01*
X030050Y001550D01*
X030050Y001550D01*
X030050Y001550D01*
X030050Y002165D01*
X029795Y002165D01*
X029550Y001920D01*
X029462Y002008D01*
X029725Y002270D01*
X029725Y002830D01*
X029505Y003050D01*
X029725Y003270D01*
X029725Y003830D01*
X029505Y004050D01*
X029725Y004270D01*
X029725Y004830D01*
X029505Y005050D01*
X029725Y005270D01*
X029725Y005830D01*
X029505Y006050D01*
X029725Y006270D01*
X029725Y006830D01*
X029505Y007050D01*
X029725Y007270D01*
X029725Y007830D01*
X029505Y008050D01*
X029550Y008095D01*
X029770Y007875D01*
X030330Y007875D01*
X030725Y008270D01*
X030725Y008830D01*
X030330Y009225D01*
X029770Y009225D01*
X029550Y009005D01*
X029330Y009225D01*
X028770Y009225D01*
X028550Y009005D01*
X028330Y009225D01*
X027770Y009225D01*
X027550Y009005D01*
X027423Y009131D01*
X027525Y009233D01*
X028775Y010483D01*
X029775Y011483D01*
X029860Y011689D01*
X029860Y015661D01*
X029775Y015867D01*
X029617Y016025D01*
X028653Y016989D01*
X028586Y017151D01*
X028437Y017300D01*
X028586Y017449D01*
X028680Y017677D01*
X028680Y017923D01*
X028586Y018151D01*
X028437Y018300D01*
X028586Y018449D01*
X028680Y018677D01*
X028680Y018923D01*
X028586Y019151D01*
X028411Y019326D01*
X028183Y019420D01*
X027417Y019420D01*
X027189Y019326D01*
X027014Y019151D01*
X026920Y018923D01*
X026920Y018677D01*
X027014Y018449D01*
X027163Y018300D01*
X027014Y018151D01*
X026920Y017923D01*
X026920Y017677D01*
X027014Y017449D01*
X027163Y017300D01*
X027014Y017151D01*
X026920Y016923D01*
X026920Y016677D01*
X027014Y016449D01*
X027163Y016300D01*
X027014Y016151D01*
X026975Y016056D01*
X026975Y016080D01*
X026580Y016475D01*
X026020Y016475D01*
X025800Y016255D01*
X025755Y016300D01*
X025975Y016520D01*
X025975Y017080D01*
X025580Y017475D01*
X025020Y017475D01*
X024800Y017255D01*
X024580Y017475D01*
X024020Y017475D01*
X023625Y017080D01*
X023625Y016520D01*
X023845Y016300D01*
X023625Y016080D01*
X023625Y015520D01*
X023845Y015300D01*
X023625Y015080D01*
X023625Y014520D01*
X023845Y014300D01*
X023625Y014080D01*
X023625Y013520D01*
X023888Y013258D01*
X023685Y013055D01*
X023685Y012800D01*
X024300Y012800D01*
X025300Y012800D01*
X025915Y012800D01*
X025915Y013055D01*
X025712Y013258D01*
X025800Y013345D01*
X026020Y013125D01*
X026580Y013125D01*
X026975Y013520D01*
X026975Y013544D01*
X027014Y013449D01*
X027189Y013274D01*
X027222Y013261D01*
X027175Y013227D01*
X027113Y013165D01*
X027061Y013094D01*
X027021Y013015D01*
X026994Y012931D01*
X026980Y012844D01*
X026980Y012800D01*
X027800Y012800D01*
X028620Y012800D01*
X028620Y012844D01*
X028606Y012931D01*
X028579Y013015D01*
X028539Y013094D01*
X028487Y013165D01*
X028425Y013227D01*
X028378Y013261D01*
X028411Y013274D01*
X028586Y013449D01*
X028680Y013677D01*
X028680Y013923D01*
X028586Y014151D01*
X028437Y014300D01*
X028586Y014449D01*
X028680Y014677D01*
X028680Y014923D01*
X028586Y015151D01*
X028437Y015300D01*
X028586Y015449D01*
X028593Y015466D01*
X028740Y015318D01*
X028740Y012032D01*
X027983Y011275D01*
X027112Y010404D01*
X027148Y010491D01*
X027148Y011109D01*
X027093Y011242D01*
X026992Y011343D01*
X026859Y011398D01*
X026241Y011398D01*
X026108Y011343D01*
X026007Y011242D01*
X025966Y011142D01*
X025960Y011150D01*
X025900Y011210D01*
X025832Y011260D01*
X025756Y011298D01*
X025676Y011325D01*
X025592Y011338D01*
X025550Y011338D01*
X025550Y010800D01*
X025550Y010800D01*
X025550Y011338D01*
X025508Y011338D01*
X025424Y011325D01*
X025344Y011298D01*
X025268Y011260D01*
X025200Y011210D01*
X025140Y011150D01*
X025090Y011082D01*
X025052Y011006D01*
X025025Y010926D01*
X025020Y010892D01*
X024660Y011092D01*
X024636Y011115D01*
X024563Y011145D01*
X024494Y011184D01*
X024461Y011188D01*
X024430Y011200D01*
X024351Y011200D01*
X024273Y011209D01*
X024241Y011200D01*
X021165Y011193D01*
X021293Y011502D01*
X021293Y011897D01*
X021142Y012262D01*
X020863Y012541D01*
X020661Y012625D01*
X020863Y012708D01*
X021142Y012987D01*
X021293Y013352D01*
X021293Y013748D01*
X021142Y014113D01*
X020863Y014392D01*
X020820Y014409D01*
X020820Y015835D01*
X024741Y019755D01*
X024820Y019947D01*
X024820Y021487D01*
X024838Y021494D01*
X025106Y021762D01*
X025251Y022111D01*
X025251Y022489D01*
X025106Y022838D01*
X024838Y023106D01*
X024489Y023251D01*
X024111Y023251D01*
X023762Y023106D01*
X023494Y022838D01*
X023349Y022489D01*
X023349Y022111D01*
X023494Y021762D01*
X023762Y021494D01*
X023780Y021487D01*
X023780Y020265D01*
X022148Y018633D01*
X022148Y019109D01*
X022093Y019242D01*
X021992Y019343D01*
X021892Y019384D01*
X021900Y019390D01*
X021960Y019450D01*
X022010Y019518D01*
X022048Y019594D01*
X022075Y019674D01*
X022088Y019758D01*
X022088Y019800D01*
X021550Y019800D01*
X021550Y019800D01*
X021550Y020338D01*
X021508Y020338D01*
X021424Y020325D01*
X021344Y020298D01*
X021268Y020260D01*
X021200Y020210D01*
X021140Y020150D01*
X021090Y020082D01*
X021052Y020006D01*
X021025Y019926D01*
X021012Y019842D01*
X021012Y019800D01*
X021012Y019758D01*
X021025Y019674D01*
X021052Y019594D01*
X021090Y019518D01*
X021140Y019450D01*
X021200Y019390D01*
X021208Y019384D01*
X021108Y019343D01*
X021007Y019242D01*
X020952Y019109D01*
X020952Y018491D01*
X021007Y018358D01*
X021108Y018257D01*
X021241Y018202D01*
X021717Y018202D01*
X020005Y016491D01*
X019859Y016345D01*
X019780Y016153D01*
X019780Y014409D01*
X019737Y014392D01*
X019610Y014264D01*
X019610Y018818D01*
X020493Y019701D01*
X020579Y019907D01*
X020579Y021516D01*
X020824Y021762D01*
X020969Y022111D01*
X020969Y022489D01*
X020824Y022838D01*
X020557Y023106D01*
X020208Y023251D01*
X019829Y023251D01*
X019480Y023106D01*
X019213Y022838D01*
X019068Y022489D01*
X019068Y022111D01*
X019213Y021762D01*
X019459Y021516D01*
X019459Y020250D01*
X018733Y019525D01*
X018733Y019525D01*
X018575Y019367D01*
X018490Y019161D01*
X018490Y016705D01*
X018389Y016807D01*
X018169Y016898D01*
X017931Y016898D01*
X017711Y016807D01*
X017543Y016639D01*
X017452Y016419D01*
X017452Y016181D01*
X017543Y015961D01*
X017711Y015793D01*
X017931Y015702D01*
X018169Y015702D01*
X018389Y015793D01*
X018490Y015895D01*
X018490Y011340D01*
X018480Y011270D01*
X018490Y011230D01*
X018490Y011189D01*
X018517Y011123D01*
X018535Y011054D01*
X018559Y011021D01*
X018575Y010983D01*
X018625Y010933D01*
X019060Y010351D01*
X019065Y010337D01*
X019047Y010345D01*
X018360Y011032D01*
X018360Y011090D01*
X018398Y011181D01*
X018398Y011419D01*
X018307Y011639D01*
X018139Y011807D01*
X017919Y011898D01*
X017681Y011898D01*
X017461Y011807D01*
X017293Y011639D01*
X017202Y011419D01*
X017202Y011181D01*
X017240Y011090D01*
X017240Y010689D01*
X017325Y010483D01*
X018238Y009570D01*
X017035Y009570D01*
X017034Y009570D01*
X016804Y009666D01*
X016570Y009666D01*
X016570Y012653D01*
X016491Y012845D01*
X016345Y012991D01*
X014920Y014415D01*
X014920Y014557D01*
X014557Y014920D01*
X014043Y014920D01*
X013820Y014697D01*
X013820Y015903D01*
X013741Y016095D01*
X013595Y016241D01*
X013345Y016491D01*
X012595Y017241D01*
X012500Y017280D01*
X013085Y017280D01*
X014005Y016359D01*
X014159Y016296D01*
X014014Y016151D01*
X013920Y015923D01*
X013920Y015677D01*
X014014Y015449D01*
X014189Y015274D01*
X014417Y015180D01*
X015183Y015180D01*
X015411Y015274D01*
X015586Y015449D01*
X015680Y015677D01*
X015680Y015923D01*
X015586Y016151D01*
X015437Y016300D01*
X015586Y016449D01*
X015680Y016677D01*
X015680Y016923D01*
X015586Y017151D01*
X015437Y017300D01*
X015586Y017449D01*
X015680Y017677D01*
X015680Y017923D01*
X015586Y018151D01*
X015437Y018300D01*
X015586Y018449D01*
X015680Y018677D01*
X015680Y018923D01*
X015586Y019151D01*
X015411Y019326D01*
X015183Y019420D01*
X014417Y019420D01*
X014189Y019326D01*
X014054Y019191D01*
X013991Y019345D01*
X013845Y019491D01*
X013345Y019991D01*
X013153Y020070D01*
X012860Y020070D01*
X012860Y020300D01*
X012860Y020532D01*
X012532Y020860D01*
X012300Y020860D01*
X012300Y020300D01*
X012300Y020300D01*
X012860Y020300D01*
X012300Y020300D01*
X012300Y020300D01*
X012300Y020300D01*
X011740Y020300D01*
X011740Y020532D01*
X012068Y020860D01*
X012300Y020860D01*
X012300Y020300D01*
X011740Y020300D01*
X011740Y020095D01*
X010351Y021484D01*
X010351Y021487D01*
X010370Y021494D01*
X010637Y021762D01*
X010782Y022111D01*
X010782Y022489D01*
X010637Y022838D01*
X010370Y023106D01*
X010021Y023251D01*
X009642Y023251D01*
X009293Y023106D01*
X009026Y022838D01*
X008881Y022489D01*
X008881Y022111D01*
X009026Y021762D01*
X009293Y021494D01*
X009311Y021487D01*
X009311Y021165D01*
X009391Y020974D01*
X011109Y019255D01*
X011156Y019208D01*
X011113Y019165D01*
X011061Y019094D01*
X011021Y019015D01*
X010994Y018931D01*
X010980Y018844D01*
X010980Y018800D01*
X011800Y018800D01*
X012620Y018800D01*
X012620Y018844D01*
X012606Y018931D01*
X012579Y019015D01*
X012571Y019030D01*
X012835Y019030D01*
X013030Y018835D01*
X013030Y018447D01*
X013082Y018320D01*
X012417Y018320D01*
X012411Y018326D01*
X012378Y018339D01*
X012425Y018373D01*
X012487Y018435D01*
X012539Y018506D01*
X012579Y018585D01*
X012606Y018669D01*
X012620Y018756D01*
X012620Y018800D01*
X011800Y018800D01*
X011800Y018800D01*
X011800Y018800D01*
X010980Y018800D01*
X010980Y018756D01*
X010994Y018669D01*
X011021Y018585D01*
X011061Y018506D01*
X011113Y018435D01*
X011175Y018373D01*
X011222Y018339D01*
X011189Y018326D01*
X011014Y018151D01*
X010920Y017923D01*
X010920Y017915D01*
X010845Y017991D01*
X010845Y017991D01*
X010148Y018688D01*
X010148Y019109D01*
X010093Y019242D01*
X009992Y019343D01*
X009859Y019398D01*
X009241Y019398D01*
X009108Y019343D01*
X009007Y019242D01*
X008991Y019204D01*
X008889Y019307D01*
X008669Y019398D01*
X008431Y019398D01*
X008211Y019307D01*
X008043Y019139D01*
X007952Y018919D01*
X007952Y018681D01*
X008040Y019131D02*
X002767Y019131D01*
X002539Y018505D02*
X002445Y018530D01*
X002349Y018543D01*
X002300Y018543D01*
X002251Y018543D01*
X002155Y018530D01*
X002061Y018505D01*
X001971Y018468D01*
X001886Y018419D01*
X001809Y018360D01*
X001740Y018291D01*
X001681Y018214D01*
X001632Y018129D01*
X001595Y018039D01*
X001570Y017945D01*
X001557Y017849D01*
X001557Y017800D01*
X001557Y017751D01*
X001570Y017655D01*
X001595Y017561D01*
X001632Y017471D01*
X001681Y017386D01*
X001740Y017309D01*
X001809Y017240D01*
X001886Y017181D01*
X001971Y017132D01*
X002061Y017095D01*
X002155Y017070D01*
X002251Y017057D01*
X002300Y017057D01*
X002349Y017057D01*
X002445Y017070D01*
X002539Y017095D01*
X002629Y017132D01*
X002714Y017181D01*
X002791Y017240D01*
X002860Y017309D01*
X002919Y017386D01*
X002968Y017471D01*
X003005Y017561D01*
X003030Y017655D01*
X003043Y017751D01*
X003043Y017800D01*
X003043Y017849D01*
X003030Y017945D01*
X003005Y018039D01*
X002968Y018129D01*
X002919Y018214D01*
X002860Y018291D01*
X002791Y018360D01*
X002714Y018419D01*
X002629Y018468D01*
X002539Y018505D01*
X002300Y018543D02*
X002300Y017800D01*
X002300Y017800D01*
X003043Y017800D01*
X002300Y017800D01*
X002300Y017800D01*
X002300Y017800D01*
X001557Y017800D01*
X002300Y017800D01*
X002300Y018543D01*
X002300Y018334D02*
X002300Y018334D01*
X002300Y017936D02*
X002300Y017936D01*
X002300Y017800D02*
X002300Y017057D01*
X002300Y017800D01*
X002300Y017800D01*
X002300Y017537D02*
X002300Y017537D01*
X002300Y017139D02*
X002300Y017139D01*
X002640Y017139D02*
X006659Y017139D01*
X006681Y017148D02*
X006461Y017057D01*
X006293Y016889D01*
X006202Y016669D01*
X006202Y016431D01*
X006293Y016211D01*
X006461Y016043D01*
X006681Y015952D01*
X006919Y015952D01*
X007139Y016043D01*
X007307Y016211D01*
X007398Y016431D01*
X007398Y016669D01*
X007307Y016889D01*
X007139Y017057D01*
X006919Y017148D01*
X006681Y017148D01*
X006941Y017139D02*
X010030Y017139D01*
X010030Y016740D02*
X007368Y016740D01*
X007361Y016342D02*
X010030Y016342D01*
X010030Y015943D02*
X000900Y015943D01*
X000900Y016342D02*
X004803Y016342D01*
X004802Y016344D02*
X004840Y016268D01*
X004890Y016200D01*
X004950Y016140D01*
X005018Y016090D01*
X005094Y016052D01*
X005174Y016025D01*
X005258Y016012D01*
X005300Y016012D01*
X005342Y016012D01*
X005426Y016025D01*
X005506Y016052D01*
X005582Y016090D01*
X005650Y016140D01*
X005710Y016200D01*
X005760Y016268D01*
X005798Y016344D01*
X005825Y016424D01*
X005838Y016508D01*
X005838Y016550D01*
X005300Y016550D01*
X005300Y016550D01*
X005300Y017088D01*
X005258Y017088D01*
X005174Y017075D01*
X005094Y017048D01*
X005018Y017010D01*
X004950Y016960D01*
X004890Y016900D01*
X004840Y016832D01*
X004802Y016756D01*
X004775Y016676D01*
X004762Y016592D01*
X004762Y016550D01*
X004762Y016508D01*
X004775Y016424D01*
X004802Y016344D01*
X004762Y016550D02*
X005300Y016550D01*
X005838Y016550D01*
X005838Y016592D01*
X005825Y016676D01*
X005798Y016756D01*
X005760Y016832D01*
X005710Y016900D01*
X005650Y016960D01*
X005582Y017010D01*
X005506Y017048D01*
X005426Y017075D01*
X005342Y017088D01*
X005300Y017088D01*
X005300Y016550D01*
X005300Y016550D01*
X005300Y016550D01*
X004762Y016550D01*
X004796Y016740D02*
X000900Y016740D01*
X000900Y017139D02*
X001960Y017139D01*
X001605Y017537D02*
X000900Y017537D01*
X000900Y017936D02*
X001569Y017936D01*
X001783Y018334D02*
X000900Y018334D01*
X002817Y018334D02*
X008171Y018334D01*
X008929Y018334D02*
X009031Y018334D01*
X009429Y017936D02*
X003031Y017936D01*
X002995Y017537D02*
X009828Y017537D01*
X010501Y018334D02*
X011209Y018334D01*
X010925Y017936D02*
X010900Y017936D01*
X010984Y018733D02*
X010148Y018733D01*
X010139Y019131D02*
X011088Y019131D01*
X010835Y019530D02*
X003515Y019530D01*
X003913Y019928D02*
X010437Y019928D01*
X010038Y020327D02*
X007354Y020327D01*
X007398Y020431D02*
X007307Y020211D01*
X007139Y020043D01*
X006919Y019952D01*
X006681Y019952D01*
X006461Y020043D01*
X006293Y020211D01*
X006202Y020431D01*
X006202Y020669D01*
X006293Y020889D01*
X006461Y021057D01*
X006681Y021148D01*
X006919Y021148D01*
X007139Y021057D01*
X007307Y020889D01*
X007398Y020669D01*
X007398Y020431D01*
X007375Y020725D02*
X009640Y020725D01*
X009329Y021124D02*
X006978Y021124D01*
X007094Y021425D02*
X007210Y021409D01*
X007268Y021409D01*
X007268Y022300D01*
X006378Y022300D01*
X006378Y022242D01*
X006393Y022126D01*
X006423Y022013D01*
X006468Y021905D01*
X006526Y021804D01*
X006598Y021712D01*
X006680Y021629D01*
X006773Y021558D01*
X006874Y021500D01*
X006982Y021455D01*
X007094Y021425D01*
X007269Y021409D02*
X007327Y021409D01*
X007443Y021425D01*
X007555Y021455D01*
X007663Y021500D01*
X007764Y021558D01*
X007857Y021629D01*
X007939Y021712D01*
X008011Y021804D01*
X008069Y021905D01*
X008114Y022013D01*
X008144Y022126D01*
X008159Y022242D01*
X008159Y022300D01*
X008159Y022358D01*
X008144Y022474D01*
X008114Y022587D01*
X008069Y022695D01*
X008011Y022796D01*
X007939Y022888D01*
X007857Y022971D01*
X007764Y023042D01*
X007663Y023100D01*
X007555Y023145D01*
X007443Y023175D01*
X007327Y023191D01*
X007269Y023191D01*
X007269Y022300D01*
X008159Y022300D01*
X007269Y022300D01*
X007269Y022300D01*
X007269Y021409D01*
X007268Y021522D02*
X007269Y021522D01*
X007702Y021522D02*
X009265Y021522D01*
X008960Y021921D02*
X008075Y021921D01*
X008159Y022319D02*
X008881Y022319D01*
X008976Y022718D02*
X008056Y022718D01*
X007626Y023116D02*
X009318Y023116D01*
X010345Y023116D02*
X011286Y023116D01*
X011262Y023106D02*
X010994Y022838D01*
X010849Y022489D01*
X010849Y022111D01*
X010994Y021762D01*
X011262Y021494D01*
X011611Y021349D01*
X011989Y021349D01*
X012338Y021494D01*
X012606Y021762D01*
X012751Y022111D01*
X012751Y022489D01*
X012606Y022838D01*
X012338Y023106D01*
X011989Y023251D01*
X011611Y023251D01*
X011262Y023106D01*
X010944Y022718D02*
X010687Y022718D01*
X010782Y022319D02*
X010849Y022319D01*
X010928Y021921D02*
X010703Y021921D01*
X010398Y021522D02*
X011234Y021522D01*
X010712Y021124D02*
X019459Y021124D01*
X019452Y021522D02*
X018616Y021522D01*
X018588Y021494D02*
X018856Y021762D01*
X019001Y022111D01*
X019001Y022489D01*
X018856Y022838D01*
X018588Y023106D01*
X018239Y023251D01*
X017861Y023251D01*
X017512Y023106D01*
X017244Y022838D01*
X017099Y022489D01*
X017099Y022111D01*
X017244Y021762D01*
X017512Y021494D01*
X017861Y021349D01*
X018239Y021349D01*
X018588Y021494D01*
X018922Y021921D02*
X019147Y021921D01*
X019068Y022319D02*
X019001Y022319D01*
X018906Y022718D02*
X019163Y022718D01*
X019505Y023116D02*
X018564Y023116D01*
X017536Y023116D02*
X016595Y023116D01*
X016620Y023106D02*
X016271Y023251D01*
X015892Y023251D01*
X015543Y023106D01*
X015276Y022838D01*
X015131Y022489D01*
X015131Y022111D01*
X015276Y021762D01*
X015543Y021494D01*
X015892Y021349D01*
X016271Y021349D01*
X016620Y021494D01*
X016887Y021762D01*
X017032Y022111D01*
X017032Y022489D01*
X016887Y022838D01*
X016620Y023106D01*
X016937Y022718D02*
X017194Y022718D01*
X017099Y022319D02*
X017032Y022319D01*
X016953Y021921D02*
X017178Y021921D01*
X017484Y021522D02*
X016648Y021522D01*
X016669Y020898D02*
X016431Y020898D01*
X016211Y020807D01*
X016043Y020639D01*
X015952Y020419D01*
X015952Y020181D01*
X016043Y019961D01*
X016211Y019793D01*
X016431Y019702D01*
X016669Y019702D01*
X016889Y019793D01*
X017057Y019961D01*
X017148Y020181D01*
X017148Y020419D01*
X017057Y020639D01*
X016889Y020807D01*
X016669Y020898D01*
X016970Y020725D02*
X017630Y020725D01*
X017711Y020807D02*
X017543Y020639D01*
X017452Y020419D01*
X017452Y020181D01*
X017543Y019961D01*
X017711Y019793D01*
X017931Y019702D01*
X018169Y019702D01*
X018389Y019793D01*
X018557Y019961D01*
X018648Y020181D01*
X018648Y020419D01*
X018557Y020639D01*
X018389Y020807D01*
X018169Y020898D01*
X017931Y020898D01*
X017711Y020807D01*
X017452Y020327D02*
X017148Y020327D01*
X017023Y019928D02*
X017577Y019928D01*
X018523Y019928D02*
X019136Y019928D01*
X019459Y020327D02*
X018648Y020327D01*
X018470Y020725D02*
X019459Y020725D01*
X020019Y020019D02*
X019050Y019050D01*
X019050Y011300D01*
X019550Y010630D01*
X024320Y010640D01*
X025420Y010030D01*
X025670Y010030D01*
X026550Y010800D01*
X027148Y010763D02*
X027471Y010763D01*
X027126Y011161D02*
X027869Y011161D01*
X028300Y010800D02*
X027050Y009550D01*
X026300Y009550D01*
X025550Y009050D01*
X025300Y009050D01*
X025050Y009050D01*
X024050Y009050D01*
X023420Y007780D01*
X023420Y005960D01*
X021550Y005300D01*
X020972Y004761D02*
X020925Y004727D01*
X020863Y004665D01*
X020811Y004594D01*
X020771Y004515D01*
X020744Y004431D01*
X020730Y004344D01*
X020730Y004300D01*
X021550Y004300D01*
X022370Y004300D01*
X021550Y004300D01*
X021550Y004300D01*
X021550Y004300D01*
X020730Y004300D01*
X020730Y004256D01*
X020744Y004169D01*
X020771Y004085D01*
X020793Y004043D01*
X020570Y004265D01*
X020570Y007045D01*
X020755Y006859D01*
X020909Y006796D01*
X020764Y006651D01*
X020670Y006423D01*
X020670Y006177D01*
X020764Y005949D01*
X020913Y005800D01*
X020764Y005651D01*
X020670Y005423D01*
X020670Y005177D01*
X020764Y004949D01*
X020939Y004774D01*
X020972Y004761D01*
X020928Y004785D02*
X020570Y004785D01*
X020570Y005184D02*
X020670Y005184D01*
X020736Y005582D02*
X020570Y005582D01*
X020570Y005981D02*
X020751Y005981D01*
X020670Y006379D02*
X020570Y006379D01*
X020570Y006778D02*
X020891Y006778D01*
X022187Y006800D02*
X022336Y006651D01*
X022430Y006423D01*
X022430Y006204D01*
X022860Y006356D01*
X022860Y007688D01*
X022854Y007707D01*
X022860Y007799D01*
X022860Y007891D01*
X022868Y007910D01*
X022869Y007929D01*
X022910Y008012D01*
X022945Y008097D01*
X022959Y008111D01*
X023540Y009282D01*
X023575Y009367D01*
X023589Y009381D01*
X023590Y009383D01*
X023430Y009543D01*
X023430Y010057D01*
X023451Y010078D01*
X022566Y010076D01*
X022610Y010032D01*
X022610Y009800D01*
X022050Y009800D01*
X022050Y009800D01*
X022610Y009800D01*
X022610Y009568D01*
X022282Y009240D01*
X022050Y009240D01*
X022050Y009800D01*
X022050Y009800D01*
X022050Y009800D01*
X021490Y009800D01*
X021490Y010032D01*
X021532Y010074D01*
X019620Y010070D01*
X019580Y010060D01*
X019510Y010070D01*
X019440Y010070D01*
X019401Y010086D01*
X019359Y010092D01*
X019315Y010118D01*
X019398Y009919D01*
X019398Y009681D01*
X019352Y009570D01*
X019403Y009570D01*
X019595Y009491D01*
X019741Y009345D01*
X020670Y008415D01*
X020670Y008423D01*
X020764Y008651D01*
X020939Y008826D01*
X021167Y008920D01*
X021933Y008920D01*
X022161Y008826D01*
X022336Y008651D01*
X022430Y008423D01*
X022430Y008177D01*
X022336Y007949D01*
X022187Y007800D01*
X022336Y007651D01*
X022430Y007423D01*
X022430Y007177D01*
X022336Y006949D01*
X022187Y006800D01*
X022209Y006778D02*
X022860Y006778D01*
X022860Y007176D02*
X022430Y007176D01*
X022367Y007575D02*
X022860Y007575D01*
X022891Y007973D02*
X022346Y007973D01*
X022430Y008372D02*
X023088Y008372D01*
X023286Y008770D02*
X022217Y008770D01*
X022050Y009240D02*
X022050Y009800D01*
X021490Y009800D01*
X021490Y009568D01*
X021818Y009240D01*
X022050Y009240D01*
X022050Y009567D02*
X022050Y009567D01*
X021491Y009567D02*
X019411Y009567D01*
X019378Y009966D02*
X021490Y009966D01*
X022610Y009966D02*
X023430Y009966D01*
X023430Y009567D02*
X022609Y009567D01*
X023484Y009169D02*
X019917Y009169D01*
X020315Y008770D02*
X020883Y008770D01*
X018800Y009800D02*
X017800Y010800D01*
X017800Y011300D01*
X017260Y011560D02*
X016570Y011560D01*
X016570Y011958D02*
X018490Y011958D01*
X018490Y012357D02*
X016570Y012357D01*
X016528Y012755D02*
X018490Y012755D01*
X018490Y013154D02*
X017414Y013154D01*
X017400Y013140D02*
X017460Y013200D01*
X017510Y013268D01*
X017548Y013344D01*
X017575Y013424D01*
X017588Y013508D01*
X017588Y013550D01*
X017050Y013550D01*
X017588Y013550D01*
X017588Y013592D01*
X017575Y013676D01*
X017548Y013756D01*
X017510Y013832D01*
X017460Y013900D01*
X017400Y013960D01*
X017392Y013966D01*
X017492Y014007D01*
X017593Y014108D01*
X017648Y014241D01*
X017648Y014859D01*
X017593Y014992D01*
X017492Y015093D01*
X017359Y015148D01*
X016741Y015148D01*
X016608Y015093D01*
X016507Y014992D01*
X016452Y014859D01*
X016452Y014241D01*
X016507Y014108D01*
X016608Y014007D01*
X016708Y013966D01*
X016700Y013960D01*
X016640Y013900D01*
X016590Y013832D01*
X016552Y013756D01*
X016525Y013676D01*
X016512Y013592D01*
X016512Y013550D01*
X016512Y013508D01*
X016525Y013424D01*
X016552Y013344D01*
X016590Y013268D01*
X016640Y013200D01*
X016700Y013140D01*
X016768Y013090D01*
X016844Y013052D01*
X016924Y013025D01*
X017008Y013012D01*
X017050Y013012D01*
X017092Y013012D01*
X017176Y013025D01*
X017256Y013052D01*
X017332Y013090D01*
X017400Y013140D01*
X017050Y013154D02*
X017050Y013154D01*
X017050Y013012D02*
X017050Y013550D01*
X017050Y013550D01*
X017050Y013550D01*
X016512Y013550D01*
X017050Y013550D01*
X017050Y013550D01*
X017050Y013012D01*
X016686Y013154D02*
X016182Y013154D01*
X016512Y013552D02*
X015783Y013552D01*
X015385Y013951D02*
X016690Y013951D01*
X016452Y014349D02*
X014986Y014349D01*
X014729Y014748D02*
X016452Y014748D01*
X016736Y015146D02*
X013820Y015146D01*
X013820Y014748D02*
X013871Y014748D01*
X013820Y015545D02*
X013975Y015545D01*
X013928Y015943D02*
X013804Y015943D01*
X014048Y016342D02*
X013494Y016342D01*
X013625Y016740D02*
X013095Y016740D01*
X013226Y017139D02*
X012697Y017139D01*
X012391Y018334D02*
X013077Y018334D01*
X013030Y018733D02*
X012616Y018733D01*
X013806Y019530D02*
X018738Y019530D01*
X018490Y019131D02*
X015594Y019131D01*
X015680Y018733D02*
X018490Y018733D01*
X018490Y018334D02*
X015471Y018334D01*
X015675Y017936D02*
X018490Y017936D01*
X018490Y017537D02*
X015622Y017537D01*
X015591Y017139D02*
X018490Y017139D01*
X018490Y016740D02*
X018455Y016740D01*
X017645Y016740D02*
X016955Y016740D01*
X016889Y016807D02*
X016669Y016898D01*
X016431Y016898D01*
X016211Y016807D01*
X016043Y016639D01*
X015952Y016419D01*
X015952Y016181D01*
X016043Y015961D01*
X016211Y015793D01*
X016431Y015702D01*
X016669Y015702D01*
X016889Y015793D01*
X017057Y015961D01*
X017148Y016181D01*
X017148Y016419D01*
X017057Y016639D01*
X016889Y016807D01*
X017148Y016342D02*
X017452Y016342D01*
X017562Y015943D02*
X017038Y015943D01*
X016062Y015943D02*
X015672Y015943D01*
X015478Y016342D02*
X015952Y016342D01*
X016145Y016740D02*
X015680Y016740D01*
X015625Y015545D02*
X018490Y015545D01*
X018490Y015146D02*
X017364Y015146D01*
X017648Y014748D02*
X018490Y014748D01*
X018490Y014349D02*
X017648Y014349D01*
X017410Y013951D02*
X018490Y013951D01*
X018490Y013552D02*
X017588Y013552D01*
X019610Y014349D02*
X019695Y014349D01*
X019610Y014748D02*
X019780Y014748D01*
X019780Y015146D02*
X019610Y015146D01*
X019610Y015545D02*
X019780Y015545D01*
X019780Y015943D02*
X019610Y015943D01*
X019610Y016342D02*
X019858Y016342D01*
X019610Y016740D02*
X020255Y016740D01*
X020653Y017139D02*
X019610Y017139D01*
X019610Y017537D02*
X021052Y017537D01*
X021450Y017936D02*
X019610Y017936D01*
X019610Y018334D02*
X021031Y018334D01*
X020952Y018733D02*
X019610Y018733D01*
X019923Y019131D02*
X020961Y019131D01*
X021084Y019530D02*
X020321Y019530D01*
X021012Y019800D02*
X021550Y019800D01*
X022088Y019800D01*
X022088Y019842D01*
X022075Y019926D01*
X022048Y020006D01*
X022010Y020082D01*
X021960Y020150D01*
X021900Y020210D01*
X021832Y020260D01*
X021756Y020298D01*
X021676Y020325D01*
X021592Y020338D01*
X021550Y020338D01*
X021550Y019800D01*
X021550Y019800D01*
X021550Y019800D01*
X021012Y019800D01*
X021026Y019928D02*
X020579Y019928D01*
X020579Y020327D02*
X021436Y020327D01*
X021550Y020327D02*
X021550Y020327D01*
X021664Y020327D02*
X023780Y020327D01*
X023443Y019928D02*
X022074Y019928D01*
X021550Y019928D02*
X021550Y019928D01*
X022016Y019530D02*
X023044Y019530D01*
X022646Y019131D02*
X022139Y019131D01*
X022148Y018733D02*
X022247Y018733D01*
X022921Y017936D02*
X026925Y017936D01*
X027129Y018334D02*
X023319Y018334D01*
X023718Y018733D02*
X026920Y018733D01*
X027006Y019131D02*
X024116Y019131D01*
X024515Y019530D02*
X034700Y019530D01*
X034700Y019928D02*
X030805Y019928D01*
X030920Y020043D02*
X030557Y019680D01*
X030043Y019680D01*
X029680Y020043D01*
X029680Y020557D01*
X030043Y020920D01*
X030557Y020920D01*
X030920Y020557D01*
X030920Y020043D01*
X030920Y020327D02*
X034700Y020327D01*
X034700Y020725D02*
X030752Y020725D01*
X030739Y021349D02*
X030361Y021349D01*
X030012Y021494D01*
X029744Y021762D01*
X029599Y022111D01*
X029599Y022489D01*
X029744Y022838D01*
X030012Y023106D01*
X030361Y023251D01*
X030739Y023251D01*
X031088Y023106D01*
X031356Y022838D01*
X031501Y022489D01*
X031501Y022111D01*
X031356Y021762D01*
X031088Y021494D01*
X030739Y021349D01*
X031116Y021522D02*
X031952Y021522D01*
X031980Y021494D02*
X032329Y021349D01*
X032708Y021349D01*
X033057Y021494D01*
X033324Y021762D01*
X033469Y022111D01*
X033469Y022489D01*
X033324Y022838D01*
X033057Y023106D01*
X032708Y023251D01*
X032329Y023251D01*
X031980Y023106D01*
X031713Y022838D01*
X031568Y022489D01*
X031568Y022111D01*
X031713Y021762D01*
X031980Y021494D01*
X031647Y021921D02*
X031422Y021921D01*
X031501Y022319D02*
X031568Y022319D01*
X031663Y022718D02*
X031406Y022718D01*
X031064Y023116D02*
X032005Y023116D01*
X033032Y023116D02*
X033718Y023116D01*
X033793Y023041D02*
X033541Y023293D01*
X033405Y023622D01*
X033405Y023950D01*
X002195Y023950D01*
X002195Y023622D01*
X002059Y023293D01*
X001807Y023041D01*
X001478Y022905D01*
X001122Y022905D01*
X000900Y022997D01*
X000900Y007119D01*
X000923Y007159D01*
X001116Y007352D01*
X001351Y007488D01*
X001614Y007558D01*
X001886Y007558D01*
X002149Y007488D01*
X002384Y007352D01*
X002577Y007159D01*
X002634Y007061D01*
X002828Y007256D01*
X003134Y007382D01*
X003466Y007382D01*
X003772Y007256D01*
X004006Y007022D01*
X004132Y006716D01*
X004132Y006384D01*
X004006Y006078D01*
X003852Y005925D01*
X004006Y005772D01*
X004132Y005466D01*
X004132Y005134D01*
X004006Y004828D01*
X003810Y004632D01*
X003810Y004632D01*
X003882Y004560D01*
X003944Y004480D01*
X003994Y004392D01*
X004033Y004299D01*
X004059Y004201D01*
X004072Y004101D01*
X004072Y004050D01*
X003300Y004050D01*
X003300Y004050D01*
X004072Y004050D01*
X004072Y003999D01*
X004059Y003899D01*
X004033Y003801D01*
X003994Y003708D01*
X003944Y003620D01*
X003882Y003540D01*
X003810Y003468D01*
X003730Y003406D01*
X003642Y003356D01*
X003549Y003317D01*
X003451Y003291D01*
X003351Y003278D01*
X003300Y003278D01*
X003300Y004050D01*
X003300Y004050D01*
X003300Y003278D01*
X003249Y003278D01*
X003149Y003291D01*
X003051Y003317D01*
X002958Y003356D01*
X002870Y003406D01*
X002790Y003468D01*
X002718Y003540D01*
X002670Y003602D01*
X002577Y003441D01*
X002384Y003248D01*
X002149Y003112D01*
X001886Y003042D01*
X001614Y003042D01*
X001351Y003112D01*
X001116Y003248D01*
X000923Y003441D01*
X000900Y003481D01*
X000900Y002603D01*
X001122Y002695D01*
X001478Y002695D01*
X001807Y002559D01*
X002059Y002307D01*
X002195Y001978D01*
X002195Y001622D01*
X002103Y001400D01*
X004254Y001400D01*
X004137Y001601D01*
X004067Y001864D01*
X004067Y002136D01*
X004137Y002399D01*
X004273Y002634D01*
X004466Y002827D01*
X004580Y002893D01*
X004394Y003078D01*
X004268Y003384D01*
X004268Y003716D01*
X004394Y004022D01*
X004628Y004256D01*
X004934Y004382D01*
X005266Y004382D01*
X005572Y004256D01*
X005806Y004022D01*
X005837Y003946D01*
X005856Y003980D01*
X005918Y004060D01*
X005990Y004132D01*
X006070Y004194D01*
X006158Y004244D01*
X006251Y004283D01*
X006349Y004309D01*
X006449Y004322D01*
X006500Y004322D01*
X006500Y003550D01*
X006500Y003550D01*
X006500Y004322D01*
X006551Y004322D01*
X006651Y004309D01*
X006749Y004283D01*
X006842Y004244D01*
X006930Y004194D01*
X007010Y004132D01*
X007082Y004060D01*
X007144Y003980D01*
X007194Y003892D01*
X007233Y003799D01*
X007259Y003701D01*
X007272Y003601D01*
X007272Y003550D01*
X006500Y003550D01*
X007272Y003550D01*
X007272Y003499D01*
X007259Y003399D01*
X007233Y003301D01*
X007194Y003208D01*
X007144Y003120D01*
X007082Y003040D01*
X007010Y002968D01*
X006958Y002928D01*
X007134Y002827D01*
X007327Y002634D01*
X007463Y002399D01*
X007533Y002136D01*
X007533Y001864D01*
X007463Y001601D01*
X007346Y001400D01*
X026435Y001400D01*
X026435Y001550D01*
X027050Y001550D01*
X027050Y001550D01*
X027050Y001550D01*
X027435Y001550D01*
X028050Y001550D01*
X028050Y001550D01*
X028435Y001550D01*
X029050Y001550D01*
X029050Y001550D01*
X029665Y001550D01*
X030050Y001550D01*
X030665Y001550D01*
X030665Y001400D01*
X033497Y001400D01*
X033405Y001622D01*
X033405Y001978D01*
X033541Y002307D01*
X033793Y002559D01*
X034122Y002695D01*
X034478Y002695D01*
X034700Y002603D01*
X034700Y022997D01*
X034478Y022905D01*
X034122Y022905D01*
X033793Y023041D01*
X033374Y022718D02*
X034700Y022718D01*
X034700Y022319D02*
X033469Y022319D01*
X033390Y021921D02*
X034700Y021921D01*
X034700Y021522D02*
X033085Y021522D01*
X034700Y021124D02*
X024820Y021124D01*
X024866Y021522D02*
X025835Y021522D01*
X025874Y021500D02*
X025982Y021455D01*
X026094Y021425D01*
X026210Y021409D01*
X026268Y021409D01*
X026268Y022300D01*
X025378Y022300D01*
X025378Y022242D01*
X025393Y022126D01*
X025423Y022013D01*
X025468Y021905D01*
X025526Y021804D01*
X025598Y021712D01*
X025680Y021629D01*
X025773Y021558D01*
X025874Y021500D01*
X026268Y021522D02*
X026269Y021522D01*
X026269Y021409D02*
X026327Y021409D01*
X026443Y021425D01*
X026555Y021455D01*
X026663Y021500D01*
X026764Y021558D01*
X026857Y021629D01*
X026939Y021712D01*
X027011Y021804D01*
X027069Y021905D01*
X027114Y022013D01*
X027144Y022126D01*
X027159Y022242D01*
X027159Y022300D01*
X027159Y022358D01*
X027144Y022474D01*
X027114Y022587D01*
X027069Y022695D01*
X027011Y022796D01*
X026939Y022888D01*
X026857Y022971D01*
X026764Y023042D01*
X026663Y023100D01*
X026555Y023145D01*
X026443Y023175D01*
X026327Y023191D01*
X026269Y023191D01*
X026269Y022300D01*
X027159Y022300D01*
X026269Y022300D01*
X026269Y022300D01*
X026269Y021409D01*
X026702Y021522D02*
X028015Y021522D01*
X028043Y021494D02*
X028392Y021349D01*
X028771Y021349D01*
X029120Y021494D01*
X029387Y021762D01*
X029532Y022111D01*
X029532Y022489D01*
X029387Y022838D01*
X029120Y023106D01*
X028771Y023251D01*
X028392Y023251D01*
X028043Y023106D01*
X027776Y022838D01*
X027631Y022489D01*
X027631Y022111D01*
X027776Y021762D01*
X028043Y021494D01*
X027710Y021921D02*
X027075Y021921D01*
X027159Y022319D02*
X027631Y022319D01*
X027726Y022718D02*
X027056Y022718D01*
X026626Y023116D02*
X028068Y023116D01*
X029095Y023116D02*
X030036Y023116D01*
X029694Y022718D02*
X029437Y022718D01*
X029532Y022319D02*
X029599Y022319D01*
X029678Y021921D02*
X029453Y021921D01*
X029148Y021522D02*
X029984Y021522D01*
X029848Y020725D02*
X028667Y020725D01*
X028532Y020860D02*
X028300Y020860D01*
X028300Y020300D01*
X028860Y020300D01*
X028860Y020532D01*
X028532Y020860D01*
X028300Y020860D02*
X028068Y020860D01*
X027740Y020532D01*
X027740Y020300D01*
X028300Y020300D01*
X028300Y020300D01*
X028300Y020300D01*
X028860Y020300D01*
X028860Y020068D01*
X028532Y019740D01*
X028300Y019740D01*
X028300Y020300D01*
X028300Y020300D01*
X028300Y020300D01*
X028300Y020860D01*
X028300Y020725D02*
X028300Y020725D01*
X027933Y020725D02*
X024820Y020725D01*
X024820Y020327D02*
X027740Y020327D01*
X027740Y020300D02*
X027740Y020068D01*
X028068Y019740D01*
X028300Y019740D01*
X028300Y020300D01*
X027740Y020300D01*
X027880Y019928D02*
X024812Y019928D01*
X023780Y020725D02*
X020579Y020725D01*
X020579Y021124D02*
X023780Y021124D01*
X023734Y021522D02*
X022898Y021522D01*
X022870Y021494D02*
X023137Y021762D01*
X023282Y022111D01*
X023282Y022489D01*
X023137Y022838D01*
X022870Y023106D01*
X022521Y023251D01*
X022142Y023251D01*
X021793Y023106D01*
X021526Y022838D01*
X021381Y022489D01*
X021381Y022111D01*
X021526Y021762D01*
X021793Y021494D01*
X022142Y021349D01*
X022521Y021349D01*
X022870Y021494D01*
X023203Y021921D02*
X023428Y021921D01*
X023349Y022319D02*
X023282Y022319D01*
X023187Y022718D02*
X023444Y022718D01*
X023786Y023116D02*
X022845Y023116D01*
X021818Y023116D02*
X020532Y023116D01*
X020874Y022718D02*
X021476Y022718D01*
X021381Y022319D02*
X020969Y022319D01*
X020890Y021921D02*
X021460Y021921D01*
X021765Y021522D02*
X020585Y021522D01*
X020019Y022300D02*
X020019Y020019D01*
X022522Y017537D02*
X026978Y017537D01*
X027009Y017139D02*
X025916Y017139D01*
X025975Y016740D02*
X026920Y016740D01*
X027122Y016342D02*
X026713Y016342D01*
X025887Y016342D02*
X025796Y016342D01*
X027800Y016800D02*
X028050Y016800D01*
X029300Y015550D01*
X029300Y011800D01*
X028300Y010800D01*
X028656Y010364D02*
X032698Y010364D01*
X032681Y010386D02*
X032740Y010309D01*
X032809Y010240D01*
X032886Y010181D01*
X032971Y010132D01*
X033061Y010095D01*
X033155Y010070D01*
X033251Y010057D01*
X033300Y010057D01*
X033349Y010057D01*
X033445Y010070D01*
X033539Y010095D01*
X033629Y010132D01*
X033714Y010181D01*
X033791Y010240D01*
X033860Y010309D01*
X033919Y010386D01*
X033968Y010471D01*
X034005Y010561D01*
X034030Y010655D01*
X034043Y010751D01*
X034043Y010800D01*
X034043Y010849D01*
X034030Y010945D01*
X034005Y011039D01*
X033968Y011129D01*
X033919Y011214D01*
X033860Y011291D01*
X033791Y011360D01*
X033714Y011419D01*
X033629Y011468D01*
X033539Y011505D01*
X033503Y011515D01*
X033755Y011619D01*
X033981Y011845D01*
X034103Y012140D01*
X034103Y012460D01*
X033981Y012755D01*
X033755Y012981D01*
X033587Y013050D01*
X033755Y013119D01*
X033981Y013345D01*
X034103Y013640D01*
X034103Y013960D01*
X033981Y014255D01*
X033755Y014481D01*
X033460Y014603D01*
X033140Y014603D01*
X032845Y014481D01*
X032619Y014255D01*
X032570Y014136D01*
X032570Y017903D01*
X032491Y018095D01*
X032345Y018241D01*
X031680Y018905D01*
X031680Y018923D01*
X031586Y019151D01*
X031411Y019326D01*
X031183Y019420D01*
X030417Y019420D01*
X030189Y019326D01*
X030014Y019151D01*
X029920Y018923D01*
X029920Y018677D01*
X030014Y018449D01*
X030163Y018300D01*
X030014Y018151D01*
X029920Y017923D01*
X029920Y017677D01*
X030014Y017449D01*
X030163Y017300D01*
X030014Y017151D01*
X029920Y016923D01*
X029920Y016677D01*
X030014Y016449D01*
X030163Y016300D01*
X030014Y016151D01*
X029920Y015923D01*
X029920Y015677D01*
X030014Y015449D01*
X030163Y015300D01*
X030014Y015151D01*
X029920Y014923D01*
X029920Y014677D01*
X030014Y014449D01*
X030163Y014300D01*
X030014Y014151D01*
X029920Y013923D01*
X029920Y013677D01*
X030014Y013449D01*
X030163Y013300D01*
X030014Y013151D01*
X029920Y012923D01*
X029920Y012677D01*
X030014Y012449D01*
X030189Y012274D01*
X030417Y012180D01*
X031183Y012180D01*
X031411Y012274D01*
X031586Y012449D01*
X031680Y012677D01*
X031680Y012923D01*
X031672Y012943D01*
X032359Y012255D01*
X032505Y012109D01*
X032511Y012107D01*
X032619Y011845D01*
X032845Y011619D01*
X033097Y011515D01*
X033061Y011505D01*
X032971Y011468D01*
X032886Y011419D01*
X032809Y011360D01*
X032740Y011291D01*
X032681Y011214D01*
X032632Y011129D01*
X032595Y011039D01*
X032570Y010945D01*
X032557Y010849D01*
X032557Y010800D01*
X032557Y010751D01*
X032570Y010655D01*
X032595Y010561D01*
X032632Y010471D01*
X032681Y010386D01*
X032557Y010763D02*
X029054Y010763D01*
X029453Y011161D02*
X032651Y011161D01*
X032557Y010800D02*
X033300Y010800D01*
X034043Y010800D01*
X033300Y010800D01*
X033300Y010800D01*
X033300Y010800D01*
X033300Y010057D01*
X033300Y010800D01*
X033300Y010800D01*
X032557Y010800D01*
X033300Y010763D02*
X033300Y010763D01*
X033300Y010364D02*
X033300Y010364D01*
X033902Y010364D02*
X034700Y010364D01*
X034700Y009966D02*
X028257Y009966D01*
X027859Y009567D02*
X034700Y009567D01*
X034700Y009169D02*
X030386Y009169D01*
X030725Y008770D02*
X034700Y008770D01*
X034700Y008372D02*
X030725Y008372D01*
X030428Y007973D02*
X034700Y007973D01*
X034700Y007575D02*
X029725Y007575D01*
X029672Y007973D02*
X029582Y007973D01*
X029631Y007176D02*
X034700Y007176D01*
X034700Y006778D02*
X029725Y006778D01*
X029725Y006379D02*
X034700Y006379D01*
X034700Y005981D02*
X029574Y005981D01*
X029725Y005582D02*
X034700Y005582D01*
X034700Y005184D02*
X029638Y005184D01*
X029725Y004785D02*
X034700Y004785D01*
X034700Y004387D02*
X029725Y004387D01*
X029567Y003988D02*
X034700Y003988D01*
X034700Y003590D02*
X029725Y003590D01*
X029646Y003191D02*
X034700Y003191D01*
X034700Y002793D02*
X029725Y002793D01*
X029725Y002394D02*
X033628Y002394D01*
X033412Y001996D02*
X030474Y001996D01*
X030050Y001996D02*
X030050Y001996D01*
X029626Y001996D02*
X029474Y001996D01*
X029050Y001550D02*
X029050Y001550D01*
X028050Y001550D02*
X028050Y001550D01*
X026626Y001996D02*
X025355Y001996D01*
X025430Y002394D02*
X026375Y002394D01*
X026375Y002793D02*
X025194Y002793D01*
X025430Y003191D02*
X026454Y003191D01*
X026375Y003590D02*
X025361Y003590D01*
X025352Y003988D02*
X026533Y003988D01*
X026375Y004387D02*
X025430Y004387D01*
X025202Y004785D02*
X026375Y004785D01*
X026462Y005184D02*
X025430Y005184D01*
X025364Y005582D02*
X026375Y005582D01*
X026526Y005981D02*
X025349Y005981D01*
X025430Y006379D02*
X026375Y006379D01*
X026375Y006778D02*
X025209Y006778D01*
X025430Y007176D02*
X026469Y007176D01*
X026375Y007575D02*
X025367Y007575D01*
X025346Y007973D02*
X026518Y007973D01*
X026375Y008372D02*
X025430Y008372D01*
X026140Y008770D02*
X026375Y008770D01*
X027460Y009169D02*
X027714Y009169D01*
X028386Y009169D02*
X028714Y009169D01*
X029386Y009169D02*
X029714Y009169D01*
X029807Y011560D02*
X032990Y011560D01*
X032573Y011958D02*
X029860Y011958D01*
X029860Y012357D02*
X030107Y012357D01*
X029920Y012755D02*
X029860Y012755D01*
X029860Y013154D02*
X030017Y013154D01*
X029972Y013552D02*
X029860Y013552D01*
X029860Y013951D02*
X029931Y013951D01*
X029860Y014349D02*
X030114Y014349D01*
X029920Y014748D02*
X029860Y014748D01*
X029860Y015146D02*
X030012Y015146D01*
X029975Y015545D02*
X029860Y015545D01*
X029928Y015943D02*
X029699Y015943D01*
X029300Y016342D02*
X030122Y016342D01*
X029920Y016740D02*
X028902Y016740D01*
X028591Y017139D02*
X030009Y017139D01*
X029978Y017537D02*
X028622Y017537D01*
X028675Y017936D02*
X029925Y017936D01*
X030129Y018334D02*
X028471Y018334D01*
X028680Y018733D02*
X029920Y018733D01*
X030006Y019131D02*
X028594Y019131D01*
X028720Y019928D02*
X029795Y019928D01*
X029680Y020327D02*
X028860Y020327D01*
X028300Y020327D02*
X028300Y020327D01*
X028300Y019928D02*
X028300Y019928D01*
X026269Y021921D02*
X026268Y021921D01*
X026268Y022300D02*
X026269Y022300D01*
X026268Y022300D01*
X026268Y022300D01*
X025378Y022300D01*
X025378Y022358D01*
X025393Y022474D01*
X025423Y022587D01*
X025468Y022695D01*
X025526Y022796D01*
X025598Y022888D01*
X025680Y022971D01*
X025773Y023042D01*
X025874Y023100D01*
X025982Y023145D01*
X026094Y023175D01*
X026210Y023191D01*
X026268Y023191D01*
X026268Y022300D01*
X026268Y022319D02*
X026269Y022319D01*
X026268Y022718D02*
X026269Y022718D01*
X026268Y023116D02*
X026269Y023116D01*
X025911Y023116D02*
X024814Y023116D01*
X025156Y022718D02*
X025481Y022718D01*
X025378Y022319D02*
X025251Y022319D01*
X025172Y021921D02*
X025462Y021921D01*
X031594Y019131D02*
X034700Y019131D01*
X034700Y018733D02*
X034056Y018733D01*
X034048Y018756D02*
X034010Y018832D01*
X033960Y018900D01*
X033900Y018960D01*
X033832Y019010D01*
X033756Y019048D01*
X033676Y019075D01*
X033592Y019088D01*
X033550Y019088D01*
X033508Y019088D01*
X033424Y019075D01*
X033344Y019048D01*
X033268Y019010D01*
X033200Y018960D01*
X033140Y018900D01*
X033090Y018832D01*
X033052Y018756D01*
X033025Y018676D01*
X033012Y018592D01*
X033012Y018550D01*
X033012Y018508D01*
X033025Y018424D01*
X033052Y018344D01*
X033090Y018268D01*
X033140Y018200D01*
X033200Y018140D01*
X033208Y018134D01*
X033108Y018093D01*
X033007Y017992D01*
X032952Y017859D01*
X032952Y017241D01*
X033007Y017108D01*
X033108Y017007D01*
X033241Y016952D01*
X033859Y016952D01*
X033992Y017007D01*
X034093Y017108D01*
X034148Y017241D01*
X034148Y017859D01*
X034093Y017992D01*
X033992Y018093D01*
X033892Y018134D01*
X033900Y018140D01*
X033960Y018200D01*
X034010Y018268D01*
X034048Y018344D01*
X034075Y018424D01*
X034088Y018508D01*
X034088Y018550D01*
X033550Y018550D01*
X034088Y018550D01*
X034088Y018592D01*
X034075Y018676D01*
X034048Y018756D01*
X033550Y018733D02*
X033550Y018733D01*
X033550Y018550D02*
X033550Y019088D01*
X033550Y018550D01*
X033550Y018550D01*
X033550Y018550D01*
X033550Y018550D01*
X033012Y018550D01*
X033550Y018550D01*
X034044Y018334D02*
X034700Y018334D01*
X034700Y017936D02*
X034116Y017936D01*
X034148Y017537D02*
X034700Y017537D01*
X034700Y017139D02*
X034106Y017139D01*
X034700Y016740D02*
X032570Y016740D01*
X032570Y017139D02*
X032994Y017139D01*
X032952Y017537D02*
X032570Y017537D01*
X032557Y017936D02*
X032984Y017936D01*
X033056Y018334D02*
X032251Y018334D01*
X031853Y018733D02*
X033044Y018733D01*
X032570Y016342D02*
X034700Y016342D01*
X034700Y015943D02*
X032570Y015943D01*
X032570Y015545D02*
X034700Y015545D01*
X034700Y015146D02*
X032570Y015146D01*
X032570Y014748D02*
X034700Y014748D01*
X034700Y014349D02*
X033886Y014349D01*
X034103Y013951D02*
X034700Y013951D01*
X034700Y013552D02*
X034066Y013552D01*
X033789Y013154D02*
X034700Y013154D01*
X034700Y012755D02*
X033980Y012755D01*
X034103Y012357D02*
X034700Y012357D01*
X034700Y011958D02*
X034027Y011958D01*
X033610Y011560D02*
X034700Y011560D01*
X034700Y011161D02*
X033949Y011161D01*
X034043Y010763D02*
X034700Y010763D01*
X032258Y012357D02*
X031493Y012357D01*
X031680Y012755D02*
X031860Y012755D01*
X032570Y014349D02*
X032714Y014349D01*
X028740Y014349D02*
X028486Y014349D01*
X028669Y013951D02*
X028740Y013951D01*
X028740Y013552D02*
X028628Y013552D01*
X028740Y013154D02*
X028495Y013154D01*
X028620Y012800D02*
X027800Y012800D01*
X027800Y012800D01*
X027800Y012240D01*
X028104Y012240D01*
X028191Y012254D01*
X028275Y012281D01*
X028354Y012321D01*
X028425Y012373D01*
X028487Y012435D01*
X028539Y012506D01*
X028579Y012585D01*
X028606Y012669D01*
X028620Y012756D01*
X028620Y012800D01*
X028620Y012755D02*
X028740Y012755D01*
X028740Y012357D02*
X028402Y012357D01*
X028666Y011958D02*
X021268Y011958D01*
X021048Y012357D02*
X023874Y012357D01*
X024045Y012185D02*
X023685Y012545D01*
X023685Y012800D01*
X024300Y012800D01*
X024300Y012800D01*
X024685Y012800D01*
X025300Y012800D01*
X025300Y012800D01*
X025300Y012800D01*
X025915Y012800D01*
X025915Y012545D01*
X025555Y012185D01*
X025300Y012185D01*
X025300Y012800D01*
X025300Y012800D01*
X025300Y012185D01*
X025045Y012185D01*
X024800Y012430D01*
X024555Y012185D01*
X024300Y012185D01*
X024300Y012800D01*
X024300Y012800D01*
X024300Y012800D01*
X024300Y012185D01*
X024045Y012185D01*
X024300Y012357D02*
X024300Y012357D01*
X024726Y012357D02*
X024874Y012357D01*
X025300Y012357D02*
X025300Y012357D01*
X025300Y012755D02*
X025300Y012755D01*
X025726Y012357D02*
X027198Y012357D01*
X027175Y012373D02*
X027246Y012321D01*
X027325Y012281D01*
X027409Y012254D01*
X027496Y012240D01*
X027800Y012240D01*
X027800Y012800D01*
X027800Y012800D01*
X027800Y012800D01*
X026980Y012800D01*
X026980Y012756D01*
X026994Y012669D01*
X027021Y012585D01*
X027061Y012506D01*
X027113Y012435D01*
X027175Y012373D01*
X027800Y012357D02*
X027800Y012357D01*
X027800Y012755D02*
X027800Y012755D01*
X027105Y013154D02*
X026608Y013154D01*
X026980Y012755D02*
X025915Y012755D01*
X025992Y013154D02*
X025816Y013154D01*
X024300Y012755D02*
X024300Y012755D01*
X023685Y012755D02*
X020909Y012755D01*
X021211Y013154D02*
X023784Y013154D01*
X023625Y013552D02*
X021293Y013552D01*
X021209Y013951D02*
X023625Y013951D01*
X023796Y014349D02*
X020905Y014349D01*
X020820Y014748D02*
X023625Y014748D01*
X023691Y015146D02*
X020820Y015146D01*
X020820Y015545D02*
X023625Y015545D01*
X023625Y015943D02*
X020928Y015943D01*
X021327Y016342D02*
X023804Y016342D01*
X023625Y016740D02*
X021725Y016740D01*
X022124Y017139D02*
X023684Y017139D01*
X028588Y015146D02*
X028740Y015146D01*
X028740Y014748D02*
X028680Y014748D01*
X028268Y011560D02*
X021293Y011560D01*
X019050Y010364D02*
X019028Y010364D01*
X018752Y010763D02*
X018629Y010763D01*
X018501Y011161D02*
X018389Y011161D01*
X018340Y011560D02*
X018490Y011560D01*
X017211Y011161D02*
X016570Y011161D01*
X016570Y010763D02*
X017240Y010763D01*
X017444Y010364D02*
X016570Y010364D01*
X016570Y009966D02*
X017843Y009966D01*
X015530Y009966D02*
X015378Y009966D01*
X015530Y010364D02*
X015000Y010364D01*
X014600Y010364D02*
X014570Y010364D01*
X014574Y010763D02*
X015530Y010763D01*
X015530Y011161D02*
X014451Y011161D01*
X014340Y011560D02*
X015530Y011560D01*
X015530Y011958D02*
X013820Y011958D01*
X013820Y012357D02*
X015508Y012357D01*
X015110Y012755D02*
X013820Y012755D01*
X013820Y013154D02*
X014711Y013154D01*
X014313Y013552D02*
X013820Y013552D01*
X012780Y013552D02*
X011070Y013552D01*
X011543Y013420D02*
X011180Y013057D01*
X011180Y012543D01*
X011543Y012180D01*
X012057Y012180D01*
X012420Y012543D01*
X012420Y013057D01*
X012057Y013420D01*
X011543Y013420D01*
X012068Y013740D02*
X012300Y013740D01*
X012532Y013740D01*
X012780Y013988D01*
X012780Y011880D01*
X012683Y011920D01*
X011917Y011920D01*
X011689Y011826D01*
X011514Y011651D01*
X011420Y011423D01*
X011420Y011415D01*
X011070Y011765D01*
X011070Y015393D01*
X011189Y015274D01*
X011417Y015180D01*
X012183Y015180D01*
X012411Y015274D01*
X012586Y015449D01*
X012680Y015677D01*
X012680Y015685D01*
X012780Y015585D01*
X012780Y014612D01*
X012532Y014860D01*
X012300Y014860D01*
X012300Y014300D01*
X012300Y014300D01*
X012300Y013740D01*
X012300Y014300D01*
X012300Y014300D01*
X012300Y014300D01*
X011740Y014300D01*
X011740Y014532D01*
X012068Y014860D01*
X012300Y014860D01*
X012300Y014300D01*
X011740Y014300D01*
X011740Y014068D01*
X012068Y013740D01*
X011858Y013951D02*
X011070Y013951D01*
X011070Y014349D02*
X011740Y014349D01*
X011956Y014748D02*
X011070Y014748D01*
X011070Y015146D02*
X012780Y015146D01*
X012780Y014748D02*
X012644Y014748D01*
X012300Y014748D02*
X012300Y014748D01*
X012300Y014349D02*
X012300Y014349D01*
X012300Y013951D02*
X012300Y013951D01*
X012742Y013951D02*
X012780Y013951D01*
X012780Y013154D02*
X012323Y013154D01*
X012420Y012755D02*
X012780Y012755D01*
X012780Y012357D02*
X012233Y012357D01*
X012780Y011958D02*
X011070Y011958D01*
X011070Y012357D02*
X011367Y012357D01*
X011180Y012755D02*
X011070Y012755D01*
X011070Y013154D02*
X011277Y013154D01*
X010030Y013552D02*
X006897Y013552D01*
X006898Y013552D02*
X006898Y014048D01*
X006548Y014398D01*
X006052Y014398D01*
X005702Y014048D01*
X005702Y013552D01*
X005997Y013258D01*
X005762Y013023D01*
X005762Y012800D01*
X005762Y012577D01*
X005997Y012342D01*
X005702Y012048D01*
X005702Y011552D01*
X006052Y011202D01*
X006548Y011202D01*
X006898Y011552D01*
X006898Y012048D01*
X006603Y012342D01*
X006838Y012577D01*
X006838Y012800D01*
X006838Y013023D01*
X006603Y013258D01*
X006898Y013552D01*
X006898Y013951D02*
X007719Y013951D01*
X007702Y013991D02*
X007757Y013858D01*
X007858Y013757D01*
X007991Y013702D01*
X008609Y013702D01*
X008742Y013757D01*
X008843Y013858D01*
X008898Y013991D01*
X008898Y014609D01*
X008843Y014742D01*
X008742Y014843D01*
X008642Y014884D01*
X008650Y014890D01*
X008710Y014950D01*
X008760Y015018D01*
X008798Y015094D01*
X008825Y015174D01*
X008838Y015258D01*
X008838Y015300D01*
X008300Y015300D01*
X008838Y015300D01*
X008838Y015342D01*
X008825Y015426D01*
X008798Y015506D01*
X008760Y015582D01*
X008710Y015650D01*
X008650Y015710D01*
X008582Y015760D01*
X008506Y015798D01*
X008426Y015825D01*
X008342Y015838D01*
X008300Y015838D01*
X008258Y015838D01*
X008174Y015825D01*
X008094Y015798D01*
X008018Y015760D01*
X007950Y015710D01*
X007890Y015650D01*
X007840Y015582D01*
X007802Y015506D01*
X007775Y015426D01*
X007762Y015342D01*
X007762Y015300D01*
X007762Y015258D01*
X007775Y015174D01*
X007802Y015094D01*
X007840Y015018D01*
X007890Y014950D01*
X007950Y014890D01*
X007958Y014884D01*
X007858Y014843D01*
X007757Y014742D01*
X007702Y014609D01*
X007702Y013991D01*
X007702Y014349D02*
X006596Y014349D01*
X006004Y014349D02*
X003655Y014349D01*
X003613Y014392D02*
X003248Y014543D01*
X002852Y014543D01*
X002487Y014392D01*
X002208Y014113D01*
X002057Y013748D01*
X002057Y013352D01*
X002208Y012987D01*
X002487Y012708D01*
X002689Y012625D01*
X002487Y012541D01*
X002208Y012262D01*
X002057Y011897D01*
X002057Y011502D01*
X002208Y011137D01*
X002487Y010858D01*
X002852Y010707D01*
X003248Y010707D01*
X003613Y010858D01*
X003892Y011137D01*
X004043Y011502D01*
X004043Y011897D01*
X003892Y012262D01*
X003613Y012541D01*
X003411Y012625D01*
X003613Y012708D01*
X003892Y012987D01*
X004043Y013352D01*
X004043Y013748D01*
X003892Y014113D01*
X003613Y014392D01*
X003959Y013951D02*
X005702Y013951D01*
X005703Y013552D02*
X004043Y013552D01*
X003961Y013154D02*
X005893Y013154D01*
X005762Y012800D02*
X006300Y012800D01*
X006838Y012800D01*
X006300Y012800D01*
X006300Y012800D01*
X006300Y012800D01*
X005762Y012800D01*
X005762Y012755D02*
X003659Y012755D01*
X003798Y012357D02*
X005983Y012357D01*
X005702Y011958D02*
X004018Y011958D01*
X004043Y011560D02*
X005702Y011560D01*
X005402Y010690D02*
X004698Y010690D01*
X004566Y010635D01*
X004465Y010534D01*
X004410Y010402D01*
X004410Y009698D01*
X004465Y009566D01*
X004566Y009465D01*
X004698Y009410D01*
X005402Y009410D01*
X005534Y009465D01*
X005635Y009566D01*
X005690Y009698D01*
X005690Y010402D01*
X005635Y010534D01*
X005534Y010635D01*
X005402Y010690D01*
X005690Y010364D02*
X007159Y010364D01*
X007200Y010390D02*
X007208Y010384D01*
X007108Y010343D01*
X007007Y010242D01*
X006952Y010109D01*
X006952Y009491D01*
X007007Y009358D01*
X007108Y009257D01*
X007241Y009202D01*
X007859Y009202D01*
X007992Y009257D01*
X008093Y009358D01*
X008148Y009491D01*
X008148Y010109D01*
X008093Y010242D01*
X007992Y010343D01*
X007892Y010384D01*
X007900Y010390D01*
X007960Y010450D01*
X008010Y010518D01*
X008048Y010594D01*
X008075Y010674D01*
X008088Y010758D01*
X008088Y010800D01*
X007550Y010800D01*
X008088Y010800D01*
X008088Y010842D01*
X008075Y010926D01*
X008048Y011006D01*
X008010Y011082D01*
X007960Y011150D01*
X007900Y011210D01*
X007832Y011260D01*
X007756Y011298D01*
X007676Y011325D01*
X007592Y011338D01*
X007550Y011338D01*
X007508Y011338D01*
X007424Y011325D01*
X007344Y011298D01*
X007268Y011260D01*
X007200Y011210D01*
X007140Y011150D01*
X007090Y011082D01*
X007052Y011006D01*
X007025Y010926D01*
X007012Y010842D01*
X007012Y010800D01*
X007012Y010758D01*
X007025Y010674D01*
X007052Y010594D01*
X007090Y010518D01*
X007140Y010450D01*
X007200Y010390D01*
X006952Y009966D02*
X005690Y009966D01*
X005636Y009567D02*
X005986Y009567D01*
X005961Y009557D02*
X005793Y009389D01*
X005702Y009169D01*
X005702Y008931D01*
X005793Y008711D01*
X005961Y008543D01*
X006181Y008452D01*
X006419Y008452D01*
X006639Y008543D01*
X006807Y008711D01*
X006898Y008931D01*
X006898Y009169D01*
X006807Y009389D01*
X006639Y009557D01*
X006419Y009648D01*
X006181Y009648D01*
X005961Y009557D01*
X005702Y009169D02*
X003937Y009169D01*
X003937Y009399D02*
X003937Y008701D01*
X003882Y008569D01*
X003781Y008468D01*
X003649Y008413D01*
X002951Y008413D01*
X002819Y008468D01*
X002719Y008568D01*
X002661Y008510D01*
X002427Y008413D01*
X002173Y008413D01*
X001939Y008510D01*
X001760Y008689D01*
X001663Y008923D01*
X001663Y009177D01*
X001760Y009411D01*
X001939Y009590D01*
X002173Y009687D01*
X002427Y009687D01*
X002661Y009590D01*
X002719Y009532D01*
X002819Y009632D01*
X002951Y009687D01*
X003649Y009687D01*
X003781Y009632D01*
X003882Y009531D01*
X003937Y009399D01*
X003846Y009567D02*
X004464Y009567D01*
X004410Y009966D02*
X000900Y009966D01*
X000900Y010364D02*
X004410Y010364D01*
X003902Y011161D02*
X007150Y011161D01*
X007012Y010800D02*
X007550Y010800D01*
X007550Y010800D01*
X007550Y010800D01*
X007550Y011338D01*
X007550Y010800D01*
X007550Y010800D01*
X007012Y010800D01*
X007012Y010763D02*
X003383Y010763D01*
X002717Y010763D02*
X000900Y010763D01*
X000900Y011161D02*
X002198Y011161D01*
X002057Y011560D02*
X000900Y011560D01*
X000900Y011958D02*
X002082Y011958D01*
X002302Y012357D02*
X000900Y012357D01*
X000900Y012755D02*
X002441Y012755D01*
X002139Y013154D02*
X000900Y013154D01*
X000900Y013552D02*
X002057Y013552D01*
X002141Y013951D02*
X000900Y013951D01*
X000900Y014349D02*
X002445Y014349D01*
X000900Y014748D02*
X007763Y014748D01*
X007785Y015146D02*
X000900Y015146D01*
X000900Y015545D02*
X007821Y015545D01*
X007762Y015300D02*
X008300Y015300D01*
X008300Y015300D01*
X008300Y015300D01*
X008300Y015838D01*
X008300Y015300D01*
X008300Y015300D01*
X007762Y015300D01*
X008300Y015545D02*
X008300Y015545D01*
X008779Y015545D02*
X010030Y015545D01*
X010030Y015146D02*
X008815Y015146D01*
X008837Y014748D02*
X010030Y014748D01*
X010030Y014349D02*
X008898Y014349D01*
X008881Y013951D02*
X010030Y013951D01*
X009800Y013360D02*
X009568Y013360D01*
X009240Y013032D01*
X009240Y012800D01*
X009800Y012800D01*
X009800Y012800D01*
X009800Y012800D01*
X009800Y013360D01*
X009800Y013154D02*
X009800Y013154D01*
X009800Y012800D02*
X009240Y012800D01*
X009240Y012568D01*
X009568Y012240D01*
X009800Y012240D01*
X009800Y012800D01*
X009800Y012755D02*
X009800Y012755D01*
X009362Y013154D02*
X006707Y013154D01*
X006838Y012755D02*
X009240Y012755D01*
X009452Y012357D02*
X006617Y012357D01*
X006898Y011958D02*
X010030Y011958D01*
X009800Y012357D02*
X009800Y012357D01*
X008476Y011560D02*
X006898Y011560D01*
X007550Y011161D02*
X007550Y011161D01*
X007950Y011161D02*
X008426Y011161D01*
X008626Y010763D02*
X008088Y010763D01*
X007941Y010364D02*
X008420Y010364D01*
X008507Y009966D02*
X008148Y009966D01*
X008148Y009567D02*
X008480Y009567D01*
X008423Y009169D02*
X006898Y009169D01*
X006831Y008770D02*
X008633Y008770D01*
X008420Y008372D02*
X000900Y008372D01*
X000900Y007973D02*
X008504Y007973D01*
X008483Y007575D02*
X000900Y007575D01*
X000900Y007176D02*
X000940Y007176D01*
X002560Y007176D02*
X002749Y007176D01*
X003851Y007176D02*
X008420Y007176D01*
X008641Y006778D02*
X004107Y006778D01*
X004130Y006379D02*
X004494Y006379D01*
X004507Y006413D02*
X004410Y006177D01*
X004410Y005923D01*
X004507Y005687D01*
X004687Y005507D01*
X004923Y005410D01*
X005177Y005410D01*
X005413Y005507D01*
X005593Y005687D01*
X005690Y005923D01*
X005690Y006177D01*
X005593Y006413D01*
X005413Y006593D01*
X005177Y006690D01*
X004923Y006690D01*
X004687Y006593D01*
X004507Y006413D01*
X004410Y005981D02*
X003908Y005981D01*
X004084Y005582D02*
X004613Y005582D01*
X004132Y005184D02*
X005778Y005184D01*
X005775Y005176D02*
X005762Y005092D01*
X005762Y005050D01*
X005762Y005008D01*
X005775Y004924D01*
X005802Y004844D01*
X005840Y004768D01*
X005890Y004700D01*
X005950Y004640D01*
X006018Y004590D01*
X006094Y004552D01*
X006174Y004525D01*
X006258Y004512D01*
X006300Y004512D01*
X006342Y004512D01*
X006426Y004525D01*
X006506Y004552D01*
X006582Y004590D01*
X006650Y004640D01*
X006710Y004700D01*
X006760Y004768D01*
X006798Y004844D01*
X006825Y004924D01*
X006838Y005008D01*
X006838Y005050D01*
X006300Y005050D01*
X006300Y005050D01*
X006300Y005588D01*
X006258Y005588D01*
X006174Y005575D01*
X006094Y005548D01*
X006018Y005510D01*
X005950Y005460D01*
X005890Y005400D01*
X005840Y005332D01*
X005802Y005256D01*
X005775Y005176D01*
X005762Y005050D02*
X006300Y005050D01*
X006838Y005050D01*
X006838Y005092D01*
X006825Y005176D01*
X006798Y005256D01*
X006760Y005332D01*
X006710Y005400D01*
X006650Y005460D01*
X006582Y005510D01*
X006506Y005548D01*
X006426Y005575D01*
X006342Y005588D01*
X006300Y005588D01*
X006300Y005050D01*
X006300Y005050D01*
X006300Y005050D01*
X006300Y004512D01*
X006300Y005050D01*
X006300Y005050D01*
X005762Y005050D01*
X005831Y004785D02*
X003962Y004785D01*
X003997Y004387D02*
X010780Y004387D01*
X010780Y003988D02*
X007138Y003988D01*
X007272Y003590D02*
X009452Y003590D01*
X009933Y003590D02*
X009966Y003590D01*
X009966Y003191D02*
X009933Y003191D01*
X009933Y002793D02*
X007168Y002793D01*
X007185Y003191D02*
X009102Y003191D01*
X009017Y002783D02*
X009017Y002748D01*
X009028Y002643D01*
X009052Y002541D01*
X009086Y002442D01*
X009132Y002348D01*
X009187Y002259D01*
X009253Y002177D01*
X009327Y002103D01*
X009409Y002038D01*
X009498Y001982D01*
X009592Y001937D01*
X009691Y001902D01*
X009793Y001879D01*
X009897Y001867D01*
X009933Y001867D01*
X009933Y002783D01*
X009017Y002783D01*
X009109Y002394D02*
X007464Y002394D01*
X007533Y001996D02*
X009476Y001996D01*
X009933Y001996D02*
X009966Y001996D01*
X009966Y002394D02*
X009933Y002394D01*
X010423Y001996D02*
X011200Y001996D01*
X010893Y002394D02*
X010790Y002394D01*
X012400Y001996D02*
X013050Y001996D01*
X012744Y002394D02*
X012707Y002394D01*
X012713Y003191D02*
X012737Y003191D01*
X013035Y003590D02*
X012415Y003590D01*
X011820Y003988D02*
X013196Y003988D01*
X013595Y004387D02*
X011820Y004387D01*
X010780Y004785D02*
X009783Y004785D01*
X009775Y004781D02*
X009854Y004821D01*
X009925Y004873D01*
X009987Y004935D01*
X010039Y005006D01*
X010079Y005085D01*
X010106Y005169D01*
X010120Y005256D01*
X010120Y005300D01*
X009300Y005300D01*
X009300Y005300D01*
X009300Y004740D01*
X009604Y004740D01*
X009691Y004754D01*
X009775Y004781D01*
X009300Y004785D02*
X009300Y004785D01*
X009300Y004740D02*
X009300Y005300D01*
X009300Y005300D01*
X009300Y005300D01*
X008480Y005300D01*
X008480Y005256D01*
X008494Y005169D01*
X008521Y005085D01*
X008561Y005006D01*
X008613Y004935D01*
X008675Y004873D01*
X008746Y004821D01*
X008825Y004781D01*
X008909Y004754D01*
X008996Y004740D01*
X009300Y004740D01*
X009300Y005184D02*
X009300Y005184D01*
X008817Y004785D02*
X006769Y004785D01*
X006822Y005184D02*
X008491Y005184D01*
X008555Y005582D02*
X006379Y005582D01*
X006300Y005582D02*
X006300Y005582D01*
X006221Y005582D02*
X005487Y005582D01*
X005690Y005981D02*
X008501Y005981D01*
X008420Y006379D02*
X005606Y006379D01*
X006300Y005184D02*
X006300Y005184D01*
X006300Y004785D02*
X006300Y004785D01*
X006500Y003988D02*
X006500Y003988D01*
X006500Y003590D02*
X006500Y003590D01*
X006500Y003550D02*
X006500Y003550D01*
X005862Y003988D02*
X005820Y003988D01*
X004380Y003988D02*
X004071Y003988D01*
X003920Y003590D02*
X004268Y003590D01*
X004348Y003191D02*
X002285Y003191D01*
X002663Y003590D02*
X002680Y003590D01*
X003300Y003590D02*
X003300Y003590D01*
X003300Y003988D02*
X003300Y003988D01*
X004432Y002793D02*
X000900Y002793D01*
X000900Y003191D02*
X001215Y003191D01*
X001972Y002394D02*
X004136Y002394D01*
X004067Y001996D02*
X002188Y001996D01*
X002185Y001597D02*
X004140Y001597D01*
X007460Y001597D02*
X016399Y001597D01*
X016057Y001996D02*
X014250Y001996D01*
X014557Y002394D02*
X015971Y002394D01*
X015594Y002793D02*
X014643Y002793D01*
X014563Y003191D02*
X015530Y003191D01*
X015530Y003590D02*
X014381Y003590D01*
X014828Y003988D02*
X015530Y003988D01*
X015530Y004387D02*
X015160Y004387D01*
X015130Y004785D02*
X015530Y004785D01*
X015530Y005184D02*
X015398Y005184D01*
X015330Y005582D02*
X015530Y005582D01*
X015530Y005981D02*
X013820Y005981D01*
X013820Y006379D02*
X014376Y006379D01*
X014293Y006461D02*
X014461Y006293D01*
X014681Y006202D01*
X014919Y006202D01*
X015139Y006293D01*
X015307Y006461D01*
X015398Y006681D01*
X015398Y006919D01*
X015307Y007139D01*
X015139Y007307D01*
X014919Y007398D01*
X014681Y007398D01*
X014461Y007307D01*
X014293Y007139D01*
X014202Y006919D01*
X014202Y006681D01*
X014293Y006461D01*
X014202Y006778D02*
X013820Y006778D01*
X013820Y007176D02*
X013921Y007176D01*
X014179Y007176D02*
X014331Y007176D01*
X014634Y007575D02*
X015530Y007575D01*
X015530Y007973D02*
X015440Y007973D01*
X015440Y008372D02*
X015530Y008372D01*
X015530Y008770D02*
X015391Y008770D01*
X015530Y009169D02*
X014570Y009169D01*
X015351Y009567D02*
X015530Y009567D01*
X017300Y008050D02*
X017300Y004050D01*
X018300Y003050D01*
X018300Y002300D01*
X019043Y001996D02*
X019122Y001996D01*
X018701Y001597D02*
X019556Y001597D01*
X019800Y001597D02*
X019800Y001597D01*
X019800Y001557D02*
X019800Y002300D01*
X019800Y002300D01*
X019800Y003043D01*
X019800Y002300D01*
X020543Y002300D01*
X019800Y002300D01*
X019800Y002300D01*
X019800Y002300D01*
X019800Y001557D01*
X020044Y001597D02*
X026435Y001597D01*
X023906Y002793D02*
X022179Y002793D01*
X022430Y003191D02*
X023670Y003191D01*
X023739Y003590D02*
X022361Y003590D01*
X022276Y003988D02*
X023748Y003988D01*
X023670Y004387D02*
X022363Y004387D01*
X022172Y004785D02*
X023898Y004785D01*
X023670Y005184D02*
X022903Y005184D01*
X022860Y006379D02*
X022430Y006379D01*
X020737Y004387D02*
X020570Y004387D01*
X019530Y004387D02*
X017860Y004387D01*
X018154Y003988D02*
X019530Y003988D01*
X019775Y003590D02*
X018552Y003590D01*
X018848Y003191D02*
X020174Y003191D01*
X020358Y002793D02*
X020666Y002793D01*
X020738Y002394D02*
X020537Y002394D01*
X020730Y002300D02*
X020730Y002256D01*
X020744Y002169D01*
X020771Y002085D01*
X020811Y002006D01*
X020863Y001935D01*
X020925Y001873D01*
X020996Y001821D01*
X021075Y001781D01*
X021159Y001754D01*
X021246Y001740D01*
X021550Y001740D01*
X021854Y001740D01*
X021941Y001754D01*
X022025Y001781D01*
X022104Y001821D01*
X022175Y001873D01*
X022237Y001935D01*
X022289Y002006D01*
X022329Y002085D01*
X022356Y002169D01*
X022370Y002256D01*
X022370Y002300D01*
X021550Y002300D01*
X021550Y002300D01*
X021550Y001740D01*
X021550Y002300D01*
X021550Y002300D01*
X021550Y002300D01*
X020730Y002300D01*
X020819Y001996D02*
X020478Y001996D01*
X019800Y001996D02*
X019800Y001996D01*
X019800Y002394D02*
X019800Y002394D01*
X019800Y002793D02*
X019800Y002793D01*
X019242Y002793D02*
X018943Y002793D01*
X017557Y001996D02*
X017543Y001996D01*
X017201Y001597D02*
X017899Y001597D01*
X021550Y001996D02*
X021550Y001996D01*
X022281Y001996D02*
X023745Y001996D01*
X023670Y002394D02*
X022362Y002394D01*
X019530Y004785D02*
X019119Y004785D01*
X019398Y005184D02*
X019530Y005184D01*
X018481Y004785D02*
X017860Y004785D01*
X017860Y005184D02*
X018202Y005184D01*
X018060Y006040D02*
X019410Y006050D01*
X015530Y006379D02*
X015224Y006379D01*
X015398Y006778D02*
X015530Y006778D01*
X015530Y007176D02*
X015269Y007176D01*
X014270Y005582D02*
X013820Y005582D01*
X013669Y005184D02*
X014202Y005184D01*
X013970Y004785D02*
X013166Y004785D01*
X013650Y003650D02*
X014550Y004550D01*
X013650Y003650D02*
X013650Y002800D01*
X010780Y003590D02*
X010447Y003590D01*
X010780Y005184D02*
X010109Y005184D01*
X010045Y005582D02*
X010780Y005582D01*
X010780Y005981D02*
X010099Y005981D01*
X010180Y006379D02*
X010780Y006379D01*
X010780Y006778D02*
X009959Y006778D01*
X010180Y007176D02*
X010780Y007176D01*
X010780Y007575D02*
X010117Y007575D01*
X010096Y007973D02*
X010809Y007973D01*
X011136Y008372D02*
X010180Y008372D01*
X009967Y008770D02*
X011576Y008770D01*
X011423Y009169D02*
X010177Y009169D01*
X010120Y009567D02*
X011480Y009567D01*
X011399Y009966D02*
X010093Y009966D01*
X010180Y010364D02*
X011001Y010364D01*
X010602Y010763D02*
X009974Y010763D01*
X010174Y011161D02*
X010204Y011161D01*
X011276Y011560D02*
X011476Y011560D01*
X006952Y009567D02*
X006614Y009567D01*
X005769Y008770D02*
X003937Y008770D01*
X002754Y009567D02*
X002684Y009567D01*
X001916Y009567D02*
X000900Y009567D01*
X000900Y009169D02*
X001663Y009169D01*
X001726Y008770D02*
X000900Y008770D01*
X005300Y016012D02*
X005300Y016550D01*
X005300Y016012D01*
X005300Y016342D02*
X005300Y016342D01*
X005300Y016550D02*
X005300Y016550D01*
X005300Y016740D02*
X005300Y016740D01*
X005804Y016740D02*
X006232Y016740D01*
X006239Y016342D02*
X005797Y016342D01*
X005854Y020327D02*
X006246Y020327D01*
X006225Y020725D02*
X005875Y020725D01*
X005478Y021124D02*
X006622Y021124D01*
X006835Y021522D02*
X005866Y021522D01*
X006172Y021921D02*
X006462Y021921D01*
X006378Y022300D02*
X007268Y022300D01*
X007268Y022300D01*
X007269Y022300D01*
X007268Y022300D01*
X007268Y023191D01*
X007210Y023191D01*
X007094Y023175D01*
X006982Y023145D01*
X006874Y023100D01*
X006773Y023042D01*
X006680Y022971D01*
X006598Y022888D01*
X006526Y022796D01*
X006468Y022695D01*
X006423Y022587D01*
X006393Y022474D01*
X006378Y022358D01*
X006378Y022300D01*
X006378Y022319D02*
X006251Y022319D01*
X006156Y022718D02*
X006481Y022718D01*
X006911Y023116D02*
X005814Y023116D01*
X004786Y023116D02*
X003845Y023116D01*
X003870Y023106D02*
X003521Y023251D01*
X003142Y023251D01*
X002793Y023106D01*
X002526Y022838D01*
X002381Y022489D01*
X002381Y022111D01*
X002526Y021762D01*
X002793Y021494D01*
X003142Y021349D01*
X003521Y021349D01*
X003870Y021494D01*
X004137Y021762D01*
X004282Y022111D01*
X004282Y022489D01*
X004137Y022838D01*
X003870Y023106D01*
X004187Y022718D02*
X004444Y022718D01*
X004349Y022319D02*
X004282Y022319D01*
X004203Y021921D02*
X004428Y021921D01*
X004037Y021522D02*
X003898Y021522D01*
X003638Y021124D02*
X000900Y021124D01*
X000900Y021522D02*
X002765Y021522D01*
X002460Y021921D02*
X000900Y021921D01*
X000900Y022319D02*
X002381Y022319D01*
X002476Y022718D02*
X000900Y022718D01*
X001882Y023116D02*
X002818Y023116D01*
X002151Y023515D02*
X033449Y023515D01*
X033405Y023913D02*
X002195Y023913D01*
X005109Y021124D02*
X005122Y021124D01*
X004725Y020725D02*
X004710Y020725D01*
X004746Y020327D02*
X004312Y020327D01*
X007268Y021921D02*
X007269Y021921D01*
X007268Y022319D02*
X007269Y022319D01*
X007268Y022718D02*
X007269Y022718D01*
X007268Y023116D02*
X007269Y023116D01*
X011110Y020725D02*
X011933Y020725D01*
X012300Y020725D02*
X012300Y020725D01*
X012667Y020725D02*
X013848Y020725D01*
X013680Y020557D02*
X013680Y020043D01*
X014043Y019680D01*
X014557Y019680D01*
X014920Y020043D01*
X014920Y020557D01*
X014557Y020920D01*
X014043Y020920D01*
X013680Y020557D01*
X013680Y020327D02*
X012860Y020327D01*
X013407Y019928D02*
X013795Y019928D01*
X014805Y019928D02*
X016077Y019928D01*
X015952Y020327D02*
X014920Y020327D01*
X014752Y020725D02*
X016130Y020725D01*
X015515Y021522D02*
X014335Y021522D01*
X014307Y021494D02*
X014574Y021762D01*
X014719Y022111D01*
X014719Y022489D01*
X014574Y022838D01*
X014307Y023106D01*
X013958Y023251D01*
X013579Y023251D01*
X013230Y023106D01*
X012963Y022838D01*
X012818Y022489D01*
X012818Y022111D01*
X012963Y021762D01*
X013230Y021494D01*
X013579Y021349D01*
X013958Y021349D01*
X014307Y021494D01*
X014640Y021921D02*
X015210Y021921D01*
X015131Y022319D02*
X014719Y022319D01*
X014624Y022718D02*
X015226Y022718D01*
X015568Y023116D02*
X014282Y023116D01*
X013255Y023116D02*
X012314Y023116D01*
X012656Y022718D02*
X012913Y022718D01*
X012818Y022319D02*
X012751Y022319D01*
X012672Y021921D02*
X012897Y021921D01*
X013202Y021522D02*
X012366Y021522D01*
X012300Y020327D02*
X012300Y020327D01*
X011740Y020327D02*
X011509Y020327D01*
X012625Y015545D02*
X012780Y015545D01*
X024535Y011161D02*
X025150Y011161D01*
X025550Y011161D02*
X025550Y011161D01*
X025950Y011161D02*
X025974Y011161D01*
X030050Y001597D02*
X030050Y001597D01*
X030665Y001597D02*
X033415Y001597D01*
D26*
X021550Y003300D02*
X020800Y003300D01*
X020050Y004050D01*
X020050Y007300D01*
X019050Y008300D01*
X018800Y008300D01*
X019300Y009050D02*
X016680Y009050D01*
X016680Y009040D01*
X014050Y009800D02*
X014050Y007800D01*
X012300Y008300D02*
X011800Y008300D01*
X011300Y007800D01*
X011300Y003300D01*
X011800Y002800D01*
X012300Y005300D02*
X013050Y005300D01*
X013300Y005550D01*
X013300Y015800D01*
X013050Y016050D01*
X012300Y016800D01*
X011800Y016800D01*
X011800Y017800D02*
X013300Y017800D01*
X014300Y016800D01*
X014800Y016800D01*
X014800Y017800D02*
X014300Y017800D01*
X013550Y018550D01*
X013550Y019050D01*
X013050Y019550D01*
X011550Y019550D01*
X009831Y021269D01*
X009831Y022300D01*
X005300Y022300D02*
X005300Y022050D01*
X003050Y019800D01*
X002300Y019800D01*
X009550Y018800D02*
X009550Y018550D01*
X010550Y017550D01*
X010550Y011550D01*
X011800Y010300D01*
X012300Y010300D01*
X013800Y011300D02*
X014050Y010800D01*
X014050Y010550D01*
X014050Y010300D01*
X014050Y009800D01*
X016050Y012550D02*
X016050Y003050D01*
X016800Y002300D01*
X021050Y007300D02*
X019300Y009050D01*
X021050Y007300D02*
X021550Y007300D01*
X016050Y012550D02*
X014300Y014300D01*
X020300Y013550D02*
X020300Y016050D01*
X024300Y020050D01*
X024300Y022300D01*
X030800Y018800D02*
X031050Y018800D01*
X032050Y017800D01*
X032050Y013300D01*
X032800Y012550D01*
X033050Y012550D01*
X033300Y012300D01*
D27*
X019410Y006050D03*
X018060Y006040D03*
X017300Y008050D03*
X016680Y009040D03*
X014050Y007800D03*
X014550Y004550D03*
M02*
