%
M48
M72
T01C0.0276
T02C0.0320
T03C0.0354
T04C0.0360
T05C0.0591
T06C0.0630
T07C0.0787
T08C0.0866
%
T01
X6300Y5050
X6300Y9050
X7550Y9800
X7550Y10800
X6300Y11800
X6300Y12800
X6300Y13800
X8300Y14300
X8300Y15300
X6800Y16550
X5300Y16550
X8550Y18800
X9550Y18800
X6800Y20550
X5300Y20550
X16550Y20300
X18050Y20300
X21550Y19800
X21550Y18800
X18050Y16300
X16550Y16300
X17050Y14550
X17050Y13550
X17800Y11300
X18800Y9800
X14800Y9800
X13800Y11300
X14800Y6800
X14800Y5300
X18800Y5300
X18800Y6800
X25550Y10800
X26550Y10800
X33550Y17550
X33550Y18550
T02
X30800Y18800
X30800Y17800
X30800Y16800
X30800Y15800
X30800Y14800
X30800Y13800
X30800Y12800
X27800Y12800
X27800Y13800
X27800Y14800
X27800Y15800
X27800Y16800
X27800Y17800
X27800Y18800
X28300Y20300
X30300Y20300
X24050Y9800
X24550Y8300
X24550Y7300
X24550Y6300
X24550Y5300
X24550Y4300
X24550Y3300
X24550Y2300
X21550Y2300
X21550Y3300
X21550Y4300
X21550Y5300
X21550Y6300
X21550Y7300
X21550Y8300
X22050Y9800
X14300Y14300
X14800Y15800
X14800Y16800
X14800Y17800
X14800Y18800
X14300Y20300
X12300Y20300
X11800Y18800
X11800Y17800
X11800Y16800
X11800Y15800
X12300Y14300
X11800Y12800
X12300Y11300
X12300Y10300
X12300Y9300
X12300Y8300
X12300Y7300
X12300Y6300
X12300Y5300
X9300Y5300
X9300Y6300
X9300Y7300
X9300Y8300
X9300Y9300
X9300Y10300
X9300Y11300
X9800Y12800
T03
X5050Y10050
X3300Y9050
X2300Y9050
X5050Y6050
X14050Y7800
X14800Y8300
X16680Y9040
X17300Y8050
X18800Y8300
X19410Y6050
X18060Y6040
X14550Y4550
T04
X24300Y12800
X25300Y12800
X25300Y13800
X24300Y13800
X24300Y14800
X25300Y14800
X26300Y14800
X26300Y13800
X26300Y15800
X25300Y15800
X24300Y15800
X24300Y16800
X25300Y16800
X27050Y8550
X28050Y8550
X29050Y8550
X30050Y8550
X29050Y7550
X28050Y7550
X27050Y7550
X27050Y6550
X28050Y6550
X29050Y6550
X29050Y5550
X28050Y5550
X27050Y5550
X27050Y4550
X28050Y4550
X29050Y4550
X29050Y3550
X28050Y3550
X27050Y3550
X27050Y2550
X28050Y2550
X29050Y2550
X29050Y1550
X28050Y1550
X27050Y1550
X30050Y1550
T05
X1300Y1800
X16800Y2300
X18300Y2300
X19800Y2300
X33300Y10800
X33300Y12300
X33300Y13800
X34300Y23800
X34300Y1800
X2300Y17800
X2300Y19800
X1300Y23800
T06
X3300Y6550
X3300Y5300
X3300Y4050
X5100Y3550
X6500Y3550
T07
X7269Y22300
X5300Y22300
X3331Y22300
X9831Y22300
X11800Y22300
X13769Y22300
X16081Y22300
X18050Y22300
X20019Y22300
X22331Y22300
X24300Y22300
X26269Y22300
X28581Y22300
X30550Y22300
X32519Y22300
T08
X20300Y13550
X20300Y11700
X13650Y2800
X11800Y2800
X9950Y2800
X6500Y2000
X5100Y2000
X1750Y4075
X1750Y5300
X1750Y6525
X3050Y11700
X3050Y13550
M30
