%
M48
M72
T01C0.0276
T02C0.0320
T03C0.0591
T04C0.0630
T05C0.0787
T06C0.0866
%
T01
X4802Y2302
X6302Y1302
X11302Y1302
X4802Y7302
X6302Y9302
X6302Y10302
X11302Y10302
X11302Y9302
T02
X10802Y12302
X11802Y12302
X6302Y12302
X5302Y12302
T03
X4802Y15302
X6802Y15302
X10302Y15302
X12302Y15302
X2302Y6552
X2302Y5052
X2302Y3552
T04
X2802Y8602
X2802Y10002
X2802Y11552
X2802Y12802
X2802Y14052
T05
X1302Y1302
X6802Y3302
X6802Y5302
X6802Y7302
X8802Y7302
X8802Y5302
X8802Y3302
X10802Y3302
X10802Y5302
X10802Y7302
X14302Y1302
X14302Y15802
X1302Y15802
T06
X1252Y14027
X1252Y12802
X1252Y11577
X1252Y10002
X1252Y8602
M30
