G75*
G70*
%OFA0B0*%
%FSLAX24Y24*%
%IPPOS*%
%LPD*%
%AMOC8*
5,1,8,0,0,1.08239X$1,22.5*
%
%ADD10C,0.0867*%
%ADD11C,0.1261*%
%ADD12C,0.0966*%
%ADD13C,0.1025*%
%ADD14C,0.0946*%
%ADD15C,0.0820*%
%ADD16C,0.0556*%
D10*
X001302Y001302D03*
X014302Y001302D03*
X014302Y015802D03*
X001302Y015802D03*
D11*
X006802Y007302D03*
X006802Y005302D03*
X006802Y003302D03*
X008802Y003302D03*
X008802Y005302D03*
X008802Y007302D03*
X010802Y007302D03*
X010802Y005302D03*
X010802Y003302D03*
D12*
X002302Y003552D03*
X002302Y005052D03*
X002302Y006552D03*
X004802Y015302D03*
X006802Y015302D03*
X010302Y015302D03*
X012302Y015302D03*
D13*
X002802Y014052D03*
X002802Y012802D03*
X002802Y011552D03*
X002802Y010002D03*
X002802Y008602D03*
D14*
X001252Y008602D03*
X001252Y010002D03*
X001252Y011577D03*
X001252Y012802D03*
X001252Y014027D03*
D15*
X005302Y012302D03*
X006302Y012302D03*
X010802Y012302D03*
X011802Y012302D03*
D16*
X011302Y010302D03*
X011302Y009302D03*
X006302Y009302D03*
X006302Y010302D03*
X004802Y007302D03*
X004802Y002302D03*
X006302Y001302D03*
X011302Y001302D03*
M02*
