G75*
G70*
%OFA0B0*%
%FSLAX24Y24*%
%IPPOS*%
%LPD*%
%AMOC8*
5,1,8,0,0,1.08239X$1,22.5*
%
%ADD10C,0.0000*%
%ADD11C,0.0060*%
%ADD12C,0.0050*%
%ADD13C,0.0120*%
%ADD14C,0.0040*%
%ADD15R,0.0150X0.0200*%
D10*
X000180Y000180D02*
X000180Y014180D01*
X013680Y014180D01*
X013680Y000180D01*
X000180Y000180D01*
D11*
X002830Y004980D02*
X005530Y004980D01*
X005547Y004982D01*
X005564Y004986D01*
X005580Y004993D01*
X005594Y005003D01*
X005607Y005016D01*
X005617Y005030D01*
X005624Y005046D01*
X005628Y005063D01*
X005630Y005080D01*
X005630Y006280D01*
X005628Y006297D01*
X005624Y006314D01*
X005617Y006330D01*
X005607Y006344D01*
X005594Y006357D01*
X005580Y006367D01*
X005564Y006374D01*
X005547Y006378D01*
X005530Y006380D01*
X002830Y006380D01*
X002813Y006378D01*
X002796Y006374D01*
X002780Y006367D01*
X002766Y006357D01*
X002753Y006344D01*
X002743Y006330D01*
X002736Y006314D01*
X002732Y006297D01*
X002730Y006280D01*
X002730Y005080D01*
X002732Y005063D01*
X002736Y005046D01*
X002743Y005030D01*
X002753Y005016D01*
X002766Y005003D01*
X002780Y004993D01*
X002796Y004986D01*
X002813Y004982D01*
X002830Y004980D01*
X003580Y005680D02*
X004050Y005680D01*
X004300Y005680D02*
X004780Y005680D01*
X004786Y006780D02*
X005186Y006780D01*
X005203Y006782D01*
X005220Y006786D01*
X005236Y006793D01*
X005250Y006803D01*
X005263Y006816D01*
X005273Y006830D01*
X005280Y006846D01*
X005284Y006863D01*
X005286Y006880D01*
X005286Y007480D01*
X005284Y007497D01*
X005280Y007514D01*
X005273Y007530D01*
X005263Y007544D01*
X005250Y007557D01*
X005236Y007567D01*
X005220Y007574D01*
X005203Y007578D01*
X005186Y007580D01*
X004786Y007580D01*
X004736Y007530D01*
X003624Y007530D01*
X003574Y007580D01*
X003174Y007580D01*
X003157Y007578D01*
X003140Y007574D01*
X003124Y007567D01*
X003110Y007557D01*
X003097Y007544D01*
X003087Y007530D01*
X003080Y007514D01*
X003076Y007497D01*
X003074Y007480D01*
X003074Y006880D01*
X003076Y006863D01*
X003080Y006846D01*
X003087Y006830D01*
X003097Y006816D01*
X003110Y006803D01*
X003124Y006793D01*
X003140Y006786D01*
X003157Y006782D01*
X003174Y006780D01*
X003574Y006780D01*
X003624Y006830D01*
X004736Y006830D01*
X004786Y006780D01*
X004464Y006960D02*
X004170Y006960D01*
X004317Y006960D02*
X004317Y007400D01*
X004170Y007254D01*
X004004Y007327D02*
X004004Y007180D01*
X003930Y007107D01*
X003710Y007107D01*
X003857Y007107D02*
X004004Y006960D01*
X003710Y006960D02*
X003710Y007400D01*
X003930Y007400D01*
X004004Y007327D01*
X003780Y009230D02*
X002580Y009230D01*
X002563Y009232D01*
X002546Y009236D01*
X002530Y009243D01*
X002516Y009253D01*
X002503Y009266D01*
X002493Y009280D01*
X002486Y009296D01*
X002482Y009313D01*
X002480Y009330D01*
X002480Y012030D01*
X002482Y012047D01*
X002486Y012064D01*
X002493Y012080D01*
X002503Y012094D01*
X002516Y012107D01*
X002530Y012117D01*
X002546Y012124D01*
X002563Y012128D01*
X002580Y012130D01*
X003780Y012130D01*
X003797Y012128D01*
X003814Y012124D01*
X003830Y012117D01*
X003844Y012107D01*
X003857Y012094D01*
X003867Y012080D01*
X003874Y012064D01*
X003878Y012047D01*
X003880Y012030D01*
X003880Y009330D01*
X003878Y009313D01*
X003874Y009296D01*
X003867Y009280D01*
X003857Y009266D01*
X003844Y009253D01*
X003830Y009243D01*
X003814Y009236D01*
X003797Y009232D01*
X003780Y009230D01*
X004180Y009530D02*
X004180Y010280D01*
X004219Y010282D01*
X004258Y010288D01*
X004296Y010297D01*
X004333Y010310D01*
X004369Y010327D01*
X004402Y010347D01*
X004434Y010371D01*
X004463Y010397D01*
X004489Y010426D01*
X004513Y010458D01*
X004533Y010491D01*
X004550Y010527D01*
X004563Y010564D01*
X004572Y010602D01*
X004578Y010641D01*
X004580Y010680D01*
X004578Y010719D01*
X004572Y010758D01*
X004563Y010796D01*
X004550Y010833D01*
X004533Y010869D01*
X004513Y010902D01*
X004489Y010934D01*
X004463Y010963D01*
X004434Y010989D01*
X004402Y011013D01*
X004369Y011033D01*
X004333Y011050D01*
X004296Y011063D01*
X004258Y011072D01*
X004219Y011078D01*
X004180Y011080D01*
X004180Y011830D01*
X011180Y011830D01*
X011180Y009530D01*
X004180Y009530D01*
X003180Y010080D02*
X003180Y010550D01*
X003180Y010800D02*
X003180Y011280D01*
X001780Y011280D02*
X001780Y011080D01*
X001580Y011080D01*
X000780Y011080D02*
X000580Y011080D01*
X000580Y011280D01*
X000580Y012080D02*
X000580Y012280D01*
X000780Y012280D01*
X001580Y012280D02*
X001780Y012280D01*
X001780Y012080D01*
X001780Y009780D02*
X001580Y009780D01*
X001780Y009780D02*
X001780Y009580D01*
X001780Y008780D02*
X001780Y008580D01*
X001580Y008580D01*
X000780Y008580D02*
X000580Y008580D01*
X000580Y008780D01*
X000580Y009580D02*
X000580Y009780D01*
X000780Y009780D01*
X008074Y007480D02*
X008074Y006880D01*
X008076Y006863D01*
X008080Y006846D01*
X008087Y006830D01*
X008097Y006816D01*
X008110Y006803D01*
X008124Y006793D01*
X008140Y006786D01*
X008157Y006782D01*
X008174Y006780D01*
X008574Y006780D01*
X008624Y006830D01*
X009736Y006830D01*
X009786Y006780D01*
X010186Y006780D01*
X010203Y006782D01*
X010220Y006786D01*
X010236Y006793D01*
X010250Y006803D01*
X010263Y006816D01*
X010273Y006830D01*
X010280Y006846D01*
X010284Y006863D01*
X010286Y006880D01*
X010286Y007480D01*
X010284Y007497D01*
X010280Y007514D01*
X010273Y007530D01*
X010263Y007544D01*
X010250Y007557D01*
X010236Y007567D01*
X010220Y007574D01*
X010203Y007578D01*
X010186Y007580D01*
X009786Y007580D01*
X009736Y007530D01*
X008624Y007530D01*
X008574Y007580D01*
X008174Y007580D01*
X008157Y007578D01*
X008140Y007574D01*
X008124Y007567D01*
X008110Y007557D01*
X008097Y007544D01*
X008087Y007530D01*
X008080Y007514D01*
X008076Y007497D01*
X008074Y007480D01*
X008789Y007400D02*
X008789Y006960D01*
X008789Y007107D02*
X009009Y007107D01*
X009083Y007180D01*
X009083Y007327D01*
X009009Y007400D01*
X008789Y007400D01*
X008936Y007107D02*
X009083Y006960D01*
X009250Y006960D02*
X009543Y007254D01*
X009543Y007327D01*
X009470Y007400D01*
X009323Y007400D01*
X009250Y007327D01*
X009250Y006960D02*
X009543Y006960D01*
X008330Y006380D02*
X011030Y006380D01*
X011047Y006378D01*
X011064Y006374D01*
X011080Y006367D01*
X011094Y006357D01*
X011107Y006344D01*
X011117Y006330D01*
X011124Y006314D01*
X011128Y006297D01*
X011130Y006280D01*
X011130Y005080D01*
X011128Y005063D01*
X011124Y005046D01*
X011117Y005030D01*
X011107Y005016D01*
X011094Y005003D01*
X011080Y004993D01*
X011064Y004986D01*
X011047Y004982D01*
X011030Y004980D01*
X008330Y004980D01*
X008313Y004982D01*
X008296Y004986D01*
X008280Y004993D01*
X008266Y005003D01*
X008253Y005016D01*
X008243Y005030D01*
X008236Y005046D01*
X008232Y005063D01*
X008230Y005080D01*
X008230Y006280D01*
X008232Y006297D01*
X008236Y006314D01*
X008243Y006330D01*
X008253Y006344D01*
X008266Y006357D01*
X008280Y006367D01*
X008296Y006374D01*
X008313Y006378D01*
X008330Y006380D01*
X009080Y005680D02*
X009550Y005680D01*
X009800Y005680D02*
X010280Y005680D01*
D12*
X010259Y004805D02*
X010184Y004730D01*
X010184Y004430D01*
X010259Y004355D01*
X010409Y004355D01*
X010484Y004430D01*
X010645Y004355D02*
X010945Y004655D01*
X010945Y004730D01*
X010870Y004805D01*
X010720Y004805D01*
X010645Y004730D01*
X010484Y004730D02*
X010409Y004805D01*
X010259Y004805D01*
X010645Y004355D02*
X010945Y004355D01*
X005445Y004355D02*
X005145Y004355D01*
X005295Y004355D02*
X005295Y004805D01*
X005145Y004655D01*
X004984Y004730D02*
X004909Y004805D01*
X004759Y004805D01*
X004684Y004730D01*
X004684Y004430D01*
X004759Y004355D01*
X004909Y004355D01*
X004984Y004430D01*
X004005Y009505D02*
X004005Y009655D01*
X004005Y009580D02*
X003555Y009580D01*
X003555Y009505D02*
X003555Y009655D01*
X003630Y009812D02*
X003555Y009887D01*
X003555Y010037D01*
X003630Y010112D01*
X003705Y010272D02*
X003555Y010422D01*
X004005Y010422D01*
X004005Y010272D02*
X004005Y010573D01*
X003930Y010112D02*
X004005Y010037D01*
X004005Y009887D01*
X003930Y009812D01*
X003630Y009812D01*
X004130Y011184D02*
X004430Y011184D01*
X004505Y011259D01*
X004505Y011409D01*
X004430Y011484D01*
X004430Y011645D02*
X004505Y011720D01*
X004505Y011870D01*
X004430Y011945D01*
X004355Y011945D01*
X004280Y011870D01*
X004280Y011795D01*
X004280Y011870D02*
X004205Y011945D01*
X004130Y011945D01*
X004055Y011870D01*
X004055Y011720D01*
X004130Y011645D01*
X004130Y011484D02*
X004055Y011409D01*
X004055Y011259D01*
X004130Y011184D01*
X002286Y010330D02*
X002211Y010405D01*
X002061Y010405D01*
X001986Y010330D01*
X001826Y010330D02*
X001751Y010405D01*
X001526Y010405D01*
X001526Y009955D01*
X001751Y009955D01*
X001826Y010030D01*
X001826Y010330D01*
X001986Y009955D02*
X002286Y010255D01*
X002286Y010330D01*
X002286Y009955D02*
X001986Y009955D01*
X001366Y009955D02*
X001366Y010255D01*
X001216Y010405D01*
X001065Y010255D01*
X001065Y009955D01*
X001065Y010180D02*
X001366Y010180D01*
X000905Y010180D02*
X000830Y010105D01*
X000605Y010105D01*
X000605Y009955D02*
X000605Y010405D01*
X000830Y010405D01*
X000905Y010330D01*
X000905Y010180D01*
X001065Y012455D02*
X001065Y012755D01*
X001216Y012905D01*
X001366Y012755D01*
X001366Y012455D01*
X001526Y012455D02*
X001751Y012455D01*
X001826Y012530D01*
X001826Y012830D01*
X001751Y012905D01*
X001526Y012905D01*
X001526Y012455D01*
X001366Y012680D02*
X001065Y012680D01*
X000905Y012680D02*
X000905Y012830D01*
X000830Y012905D01*
X000605Y012905D01*
X000605Y012455D01*
X000605Y012605D02*
X000830Y012605D01*
X000905Y012680D01*
X001986Y012755D02*
X002136Y012905D01*
X002136Y012455D01*
X001986Y012455D02*
X002286Y012455D01*
D13*
X002930Y010800D02*
X003180Y010800D01*
X003430Y010800D01*
X003430Y010550D02*
X003180Y010550D01*
X002930Y010550D01*
X004050Y005930D02*
X004050Y005680D01*
X004050Y005430D01*
X004300Y005430D02*
X004300Y005680D01*
X004300Y005930D01*
X006403Y003780D02*
X002132Y003780D01*
X002132Y000630D01*
X006403Y000630D01*
X006403Y003780D01*
X007632Y003780D02*
X011903Y003780D01*
X011903Y000630D01*
X007632Y000630D01*
X007632Y003780D01*
X009550Y005430D02*
X009550Y005680D01*
X009550Y005930D01*
X009800Y005930D02*
X009800Y005680D01*
X009800Y005430D01*
D14*
X009701Y004510D02*
X009548Y004510D01*
X009471Y004434D01*
X009317Y004510D02*
X009317Y004050D01*
X009164Y004203D01*
X009010Y004050D01*
X009010Y004510D01*
X008857Y004434D02*
X008780Y004510D01*
X008627Y004510D01*
X008550Y004434D01*
X008550Y004357D01*
X008627Y004280D01*
X008780Y004280D01*
X008857Y004203D01*
X008857Y004127D01*
X008780Y004050D01*
X008627Y004050D01*
X008550Y004127D01*
X009471Y004050D02*
X009778Y004357D01*
X009778Y004434D01*
X009701Y004510D01*
X009778Y004050D02*
X009471Y004050D01*
X004278Y004050D02*
X003971Y004050D01*
X004124Y004050D02*
X004124Y004510D01*
X003971Y004357D01*
X003817Y004510D02*
X003817Y004050D01*
X003664Y004203D01*
X003510Y004050D01*
X003510Y004510D01*
X003357Y004434D02*
X003280Y004510D01*
X003127Y004510D01*
X003050Y004434D01*
X003050Y004357D01*
X003127Y004280D01*
X003280Y004280D01*
X003357Y004203D01*
X003357Y004127D01*
X003280Y004050D01*
X003127Y004050D01*
X003050Y004127D01*
D15*
X002999Y007180D03*
X005361Y007180D03*
X007999Y007180D03*
X010361Y007180D03*
M02*
