%
M48
M72
T01C0.0276
T02C0.0320
T03C0.0520
T04C0.0551
T05C0.0591
%
T01
X3680Y8430
X3680Y11430
X7680Y11430
X7680Y8430
T02
X2180Y1930
X3680Y1430
X4680Y1430
X5680Y1430
X6680Y1430
X7680Y1430
X8680Y1430
X9680Y1430
X9680Y4430
X8680Y4430
X7680Y4430
X6680Y4430
X5680Y4430
X4680Y4430
X3680Y4430
X2180Y3930
X2680Y6430
X4680Y6430
X6680Y6430
X8680Y6430
T03
X9180Y12930
X7180Y12930
X4180Y12930
X2180Y12930
T04
X1680Y8430
X5680Y8430
X9680Y8430
T05
X9680Y9430
X5680Y9430
X1680Y9430
M30
