G75*
G70*
%OFA0B0*%
%FSLAX24Y24*%
%IPPOS*%
%LPD*%
%AMOC8*
5,1,8,0,0,1.08239X$1,22.5*
%
%ADD10C,0.0600*%
%ADD11C,0.0966*%
%ADD12C,0.0907*%
%ADD13C,0.0556*%
%ADD14OC8,0.0600*%
%ADD15OC8,0.1330*%
D10*
X003680Y001170D02*
X003680Y001690D01*
X004680Y001690D02*
X004680Y001170D01*
X005680Y001170D02*
X005680Y001690D01*
X006680Y001690D02*
X006680Y001170D01*
X007680Y001170D02*
X007680Y001690D01*
X008680Y001690D02*
X008680Y001170D01*
X009680Y001170D02*
X009680Y001690D01*
X009680Y004170D02*
X009680Y004690D01*
X008680Y004690D02*
X008680Y004170D01*
X007680Y004170D02*
X007680Y004690D01*
X006680Y004690D02*
X006680Y004170D01*
X005680Y004170D02*
X005680Y004690D01*
X004680Y004690D02*
X004680Y004170D01*
X003680Y004170D02*
X003680Y004690D01*
D11*
X001680Y009430D03*
X005680Y009430D03*
X009680Y009430D03*
D12*
X009680Y008430D03*
X005680Y008430D03*
X001680Y008430D03*
D13*
X003680Y008430D03*
X003680Y011430D03*
X007680Y011430D03*
X007680Y008430D03*
D14*
X002180Y001930D03*
X002180Y003930D03*
X002680Y006430D03*
X004680Y006430D03*
X006680Y006430D03*
X008680Y006430D03*
D15*
X009180Y012930D03*
X007180Y012930D03*
X004180Y012930D03*
X002180Y012930D03*
M02*
