G75*
G70*
%OFA0B0*%
%FSLAX24Y24*%
%IPPOS*%
%LPD*%
%AMOC8*
5,1,8,0,0,1.08239X$1,22.5*
%
%ADD10C,0.0000*%
%ADD11C,0.0520*%
%ADD12C,0.0476*%
%ADD13R,0.0594X0.0594*%
%ADD14OC8,0.1181*%
%ADD15R,0.0476X0.0476*%
%ADD16OC8,0.1250*%
%ADD17OC8,0.0476*%
%ADD18R,0.0554X0.0554*%
%ADD19C,0.0554*%
%ADD20C,0.0476*%
%ADD21C,0.0100*%
D10*
X000101Y000101D02*
X000101Y031647D01*
X030321Y031647D01*
X030321Y000101D01*
X000101Y000101D01*
X000971Y001101D02*
X000973Y001151D01*
X000979Y001201D01*
X000989Y001250D01*
X001003Y001298D01*
X001020Y001345D01*
X001041Y001390D01*
X001066Y001434D01*
X001094Y001475D01*
X001126Y001514D01*
X001160Y001551D01*
X001197Y001585D01*
X001237Y001615D01*
X001279Y001642D01*
X001323Y001666D01*
X001369Y001687D01*
X001416Y001703D01*
X001464Y001716D01*
X001514Y001725D01*
X001563Y001730D01*
X001614Y001731D01*
X001664Y001728D01*
X001713Y001721D01*
X001762Y001710D01*
X001810Y001695D01*
X001856Y001677D01*
X001901Y001655D01*
X001944Y001629D01*
X001985Y001600D01*
X002024Y001568D01*
X002060Y001533D01*
X002092Y001495D01*
X002122Y001455D01*
X002149Y001412D01*
X002172Y001368D01*
X002191Y001322D01*
X002207Y001274D01*
X002219Y001225D01*
X002227Y001176D01*
X002231Y001126D01*
X002231Y001076D01*
X002227Y001026D01*
X002219Y000977D01*
X002207Y000928D01*
X002191Y000880D01*
X002172Y000834D01*
X002149Y000790D01*
X002122Y000747D01*
X002092Y000707D01*
X002060Y000669D01*
X002024Y000634D01*
X001985Y000602D01*
X001944Y000573D01*
X001901Y000547D01*
X001856Y000525D01*
X001810Y000507D01*
X001762Y000492D01*
X001713Y000481D01*
X001664Y000474D01*
X001614Y000471D01*
X001563Y000472D01*
X001514Y000477D01*
X001464Y000486D01*
X001416Y000499D01*
X001369Y000515D01*
X001323Y000536D01*
X001279Y000560D01*
X001237Y000587D01*
X001197Y000617D01*
X001160Y000651D01*
X001126Y000688D01*
X001094Y000727D01*
X001066Y000768D01*
X001041Y000812D01*
X001020Y000857D01*
X001003Y000904D01*
X000989Y000952D01*
X000979Y001001D01*
X000973Y001051D01*
X000971Y001101D01*
X000971Y030101D02*
X000973Y030151D01*
X000979Y030201D01*
X000989Y030250D01*
X001003Y030298D01*
X001020Y030345D01*
X001041Y030390D01*
X001066Y030434D01*
X001094Y030475D01*
X001126Y030514D01*
X001160Y030551D01*
X001197Y030585D01*
X001237Y030615D01*
X001279Y030642D01*
X001323Y030666D01*
X001369Y030687D01*
X001416Y030703D01*
X001464Y030716D01*
X001514Y030725D01*
X001563Y030730D01*
X001614Y030731D01*
X001664Y030728D01*
X001713Y030721D01*
X001762Y030710D01*
X001810Y030695D01*
X001856Y030677D01*
X001901Y030655D01*
X001944Y030629D01*
X001985Y030600D01*
X002024Y030568D01*
X002060Y030533D01*
X002092Y030495D01*
X002122Y030455D01*
X002149Y030412D01*
X002172Y030368D01*
X002191Y030322D01*
X002207Y030274D01*
X002219Y030225D01*
X002227Y030176D01*
X002231Y030126D01*
X002231Y030076D01*
X002227Y030026D01*
X002219Y029977D01*
X002207Y029928D01*
X002191Y029880D01*
X002172Y029834D01*
X002149Y029790D01*
X002122Y029747D01*
X002092Y029707D01*
X002060Y029669D01*
X002024Y029634D01*
X001985Y029602D01*
X001944Y029573D01*
X001901Y029547D01*
X001856Y029525D01*
X001810Y029507D01*
X001762Y029492D01*
X001713Y029481D01*
X001664Y029474D01*
X001614Y029471D01*
X001563Y029472D01*
X001514Y029477D01*
X001464Y029486D01*
X001416Y029499D01*
X001369Y029515D01*
X001323Y029536D01*
X001279Y029560D01*
X001237Y029587D01*
X001197Y029617D01*
X001160Y029651D01*
X001126Y029688D01*
X001094Y029727D01*
X001066Y029768D01*
X001041Y029812D01*
X001020Y029857D01*
X001003Y029904D01*
X000989Y029952D01*
X000979Y030001D01*
X000973Y030051D01*
X000971Y030101D01*
X027996Y029926D02*
X027998Y029976D01*
X028004Y030026D01*
X028014Y030075D01*
X028028Y030123D01*
X028045Y030170D01*
X028066Y030215D01*
X028091Y030259D01*
X028119Y030300D01*
X028151Y030339D01*
X028185Y030376D01*
X028222Y030410D01*
X028262Y030440D01*
X028304Y030467D01*
X028348Y030491D01*
X028394Y030512D01*
X028441Y030528D01*
X028489Y030541D01*
X028539Y030550D01*
X028588Y030555D01*
X028639Y030556D01*
X028689Y030553D01*
X028738Y030546D01*
X028787Y030535D01*
X028835Y030520D01*
X028881Y030502D01*
X028926Y030480D01*
X028969Y030454D01*
X029010Y030425D01*
X029049Y030393D01*
X029085Y030358D01*
X029117Y030320D01*
X029147Y030280D01*
X029174Y030237D01*
X029197Y030193D01*
X029216Y030147D01*
X029232Y030099D01*
X029244Y030050D01*
X029252Y030001D01*
X029256Y029951D01*
X029256Y029901D01*
X029252Y029851D01*
X029244Y029802D01*
X029232Y029753D01*
X029216Y029705D01*
X029197Y029659D01*
X029174Y029615D01*
X029147Y029572D01*
X029117Y029532D01*
X029085Y029494D01*
X029049Y029459D01*
X029010Y029427D01*
X028969Y029398D01*
X028926Y029372D01*
X028881Y029350D01*
X028835Y029332D01*
X028787Y029317D01*
X028738Y029306D01*
X028689Y029299D01*
X028639Y029296D01*
X028588Y029297D01*
X028539Y029302D01*
X028489Y029311D01*
X028441Y029324D01*
X028394Y029340D01*
X028348Y029361D01*
X028304Y029385D01*
X028262Y029412D01*
X028222Y029442D01*
X028185Y029476D01*
X028151Y029513D01*
X028119Y029552D01*
X028091Y029593D01*
X028066Y029637D01*
X028045Y029682D01*
X028028Y029729D01*
X028014Y029777D01*
X028004Y029826D01*
X027998Y029876D01*
X027996Y029926D01*
X027996Y001276D02*
X027998Y001326D01*
X028004Y001376D01*
X028014Y001425D01*
X028028Y001473D01*
X028045Y001520D01*
X028066Y001565D01*
X028091Y001609D01*
X028119Y001650D01*
X028151Y001689D01*
X028185Y001726D01*
X028222Y001760D01*
X028262Y001790D01*
X028304Y001817D01*
X028348Y001841D01*
X028394Y001862D01*
X028441Y001878D01*
X028489Y001891D01*
X028539Y001900D01*
X028588Y001905D01*
X028639Y001906D01*
X028689Y001903D01*
X028738Y001896D01*
X028787Y001885D01*
X028835Y001870D01*
X028881Y001852D01*
X028926Y001830D01*
X028969Y001804D01*
X029010Y001775D01*
X029049Y001743D01*
X029085Y001708D01*
X029117Y001670D01*
X029147Y001630D01*
X029174Y001587D01*
X029197Y001543D01*
X029216Y001497D01*
X029232Y001449D01*
X029244Y001400D01*
X029252Y001351D01*
X029256Y001301D01*
X029256Y001251D01*
X029252Y001201D01*
X029244Y001152D01*
X029232Y001103D01*
X029216Y001055D01*
X029197Y001009D01*
X029174Y000965D01*
X029147Y000922D01*
X029117Y000882D01*
X029085Y000844D01*
X029049Y000809D01*
X029010Y000777D01*
X028969Y000748D01*
X028926Y000722D01*
X028881Y000700D01*
X028835Y000682D01*
X028787Y000667D01*
X028738Y000656D01*
X028689Y000649D01*
X028639Y000646D01*
X028588Y000647D01*
X028539Y000652D01*
X028489Y000661D01*
X028441Y000674D01*
X028394Y000690D01*
X028348Y000711D01*
X028304Y000735D01*
X028262Y000762D01*
X028222Y000792D01*
X028185Y000826D01*
X028151Y000863D01*
X028119Y000902D01*
X028091Y000943D01*
X028066Y000987D01*
X028045Y001032D01*
X028028Y001079D01*
X028014Y001127D01*
X028004Y001176D01*
X027998Y001226D01*
X027996Y001276D01*
D11*
X011761Y011351D02*
X011241Y011351D01*
X011241Y012351D02*
X011761Y012351D01*
X011761Y013351D02*
X011241Y013351D01*
X011241Y014351D02*
X011761Y014351D01*
X011761Y015351D02*
X011241Y015351D01*
X011241Y016351D02*
X011761Y016351D01*
X011761Y017351D02*
X011241Y017351D01*
X011241Y018351D02*
X011761Y018351D01*
X008761Y018351D02*
X008241Y018351D01*
X008241Y017351D02*
X008761Y017351D01*
X008761Y016351D02*
X008241Y016351D01*
X008241Y015351D02*
X008761Y015351D01*
X008761Y014351D02*
X008241Y014351D01*
X008241Y013351D02*
X008761Y013351D01*
X008761Y012351D02*
X008241Y012351D01*
X008241Y011351D02*
X008761Y011351D01*
D12*
X006401Y010451D03*
X006401Y009451D03*
X008201Y008801D03*
X011201Y008801D03*
X010376Y005576D03*
X012901Y004576D03*
X012901Y003576D03*
X010376Y002576D03*
X015676Y003576D03*
X015676Y004576D03*
X018476Y003451D03*
X017876Y008076D03*
X017876Y011076D03*
X017876Y012926D03*
X017876Y015926D03*
X018626Y017351D03*
X020901Y015926D03*
X021326Y018676D03*
X021326Y019676D03*
X018626Y020351D03*
X016876Y022701D03*
X016876Y023701D03*
X015851Y027901D03*
X014426Y029701D03*
X017426Y029701D03*
X013001Y022326D03*
X010476Y021501D03*
X010476Y020501D03*
X008176Y021501D03*
X005301Y021651D03*
X006926Y024751D03*
X013001Y019326D03*
X014876Y017951D03*
X014876Y016951D03*
X014876Y015451D03*
X014876Y014451D03*
X014876Y012951D03*
X014876Y011951D03*
X014876Y010451D03*
X014876Y009451D03*
X020876Y008076D03*
X020876Y011076D03*
X020901Y012926D03*
X023851Y012926D03*
X023876Y011076D03*
X023876Y008076D03*
X027076Y009176D03*
X027076Y012176D03*
X023851Y015926D03*
X024551Y018826D03*
X006401Y013951D03*
X006401Y012951D03*
X004351Y011351D03*
X001351Y011351D03*
D13*
X002617Y007357D03*
X003601Y007357D03*
X004585Y007357D03*
X025717Y007357D03*
X026701Y007357D03*
X027685Y007357D03*
D14*
X028433Y004601D03*
X024969Y004601D03*
X005333Y004601D03*
X001869Y004601D03*
D15*
X001851Y017351D03*
X001851Y018351D03*
X005301Y020651D03*
X008176Y020501D03*
X006926Y025751D03*
X015851Y026901D03*
X024551Y019826D03*
X018476Y004451D03*
D16*
X028176Y018401D03*
X028176Y020401D03*
X028176Y022401D03*
X028176Y025901D03*
X028176Y027901D03*
X007101Y029601D03*
X005101Y029601D03*
X002101Y028351D03*
X002101Y026101D03*
X002101Y024101D03*
D17*
X010001Y024226D03*
X010001Y025226D03*
X010001Y026226D03*
D18*
X011926Y029701D03*
X001851Y019601D03*
X002351Y013351D03*
D19*
X002351Y014351D03*
X001851Y022601D03*
X010926Y029701D03*
D20*
X019963Y029276D02*
X020439Y029276D01*
X021963Y029276D02*
X022439Y029276D01*
X023963Y029276D02*
X024439Y029276D01*
X024439Y027276D02*
X023963Y027276D01*
X022439Y027276D02*
X021963Y027276D01*
X020439Y027276D02*
X019963Y027276D01*
X019963Y025276D02*
X020439Y025276D01*
X021963Y025276D02*
X022439Y025276D01*
X023963Y025276D02*
X024439Y025276D01*
D21*
X022201Y025301D02*
X022201Y025276D01*
X022201Y025301D02*
X020201Y025301D01*
X020201Y025276D01*
X018301Y023301D02*
X015901Y023301D01*
X015901Y026901D01*
X015851Y026901D01*
X016901Y025901D02*
X016901Y023701D01*
X016876Y023701D01*
X016876Y022701D02*
X016901Y022701D01*
X018601Y021001D01*
X018601Y020401D01*
X018626Y020351D01*
X018301Y023301D02*
X021701Y019901D01*
X021701Y018101D01*
X023801Y016001D01*
X023851Y015926D01*
X024601Y014601D02*
X024601Y018801D01*
X024551Y018826D01*
X027401Y019101D02*
X028101Y018401D01*
X028176Y018401D01*
X027401Y019101D02*
X027401Y027201D01*
X028101Y027901D01*
X028176Y027901D01*
X020201Y029201D02*
X020201Y029276D01*
X020201Y029201D02*
X016901Y025901D01*
X014426Y029701D02*
X011926Y029701D01*
X010926Y029701D02*
X010901Y029701D01*
X010401Y029201D01*
X010401Y024701D01*
X010001Y024301D01*
X010001Y024226D01*
X010001Y020501D01*
X010476Y020501D01*
X010001Y020501D02*
X008501Y020501D01*
X008501Y018351D01*
X008501Y017401D02*
X008501Y017351D01*
X008501Y017401D02*
X005301Y020601D01*
X005301Y020651D01*
X004901Y020401D02*
X001851Y017351D01*
X001851Y018351D02*
X001901Y018401D01*
X001901Y019601D01*
X001851Y019601D01*
X001851Y022601D02*
X001901Y022601D01*
X002101Y022801D01*
X002101Y024101D01*
X004901Y023701D02*
X004901Y020401D01*
X004901Y023701D02*
X006901Y025701D01*
X006926Y025751D01*
X008176Y020501D02*
X008501Y020501D01*
X008501Y016351D02*
X008501Y015351D01*
X008501Y013351D02*
X008501Y013301D01*
X009201Y012601D01*
X009201Y010801D01*
X011201Y008801D01*
X009101Y008401D02*
X006401Y008401D01*
X006401Y009451D01*
X004401Y011401D02*
X004401Y011901D01*
X006401Y013901D01*
X006401Y013951D01*
X004401Y011401D02*
X004351Y011351D01*
X002301Y012301D02*
X001351Y011351D01*
X002301Y012301D02*
X002301Y013301D01*
X002351Y013351D01*
X002701Y007401D02*
X002617Y007357D01*
X002701Y007401D02*
X003601Y007401D01*
X003601Y007357D01*
X009101Y008401D02*
X012901Y004601D01*
X012901Y004576D01*
X012901Y004501D01*
X015301Y004501D01*
X015301Y003901D01*
X015601Y003601D01*
X015676Y003576D01*
X018476Y003451D02*
X018501Y003501D01*
X021901Y006901D01*
X027601Y006901D01*
X027601Y007301D01*
X027685Y007357D01*
X026701Y007357D02*
X026701Y008801D01*
X027076Y009176D01*
X027076Y012176D02*
X027001Y012201D01*
X024601Y014601D01*
X023801Y013001D02*
X023851Y012926D01*
X023801Y013001D02*
X020901Y013001D01*
X020901Y012926D01*
X020901Y011101D02*
X020876Y011076D01*
X020901Y011101D02*
X023801Y011101D01*
X023876Y011076D01*
X020901Y015926D02*
X020901Y016001D01*
X021301Y016401D01*
X021301Y017401D01*
X018701Y017401D01*
X018626Y017351D01*
X018601Y017301D01*
X018601Y016701D01*
X017901Y016001D01*
X017876Y015926D01*
X015301Y015501D02*
X017876Y012926D01*
X017501Y012801D02*
X017501Y008401D01*
X017801Y008101D01*
X017876Y008076D01*
X018401Y010501D02*
X018401Y004501D01*
X018476Y004451D01*
X018401Y010501D02*
X017901Y011001D01*
X017876Y011076D01*
X017501Y012801D02*
X014901Y015401D01*
X014876Y015451D01*
X015301Y015501D02*
X015301Y017501D01*
X014901Y017901D01*
X014876Y017951D01*
X021301Y017401D02*
X021301Y018601D01*
X021326Y018676D01*
M02*
