%
M48
M72
T01C0.0276
T02C0.0320
T03C0.0354
T04C0.0394
T05C0.0440
T06C0.0787
T07C0.1260
%
T01
X6401Y9451
X6401Y10451
X8201Y8801
X11201Y8801
X10376Y5576
X12901Y4576
X12901Y3576
X10376Y2576
X15676Y3576
X15676Y4576
X18476Y4451
X18476Y3451
X17876Y8076
X17876Y11076
X17876Y12926
X17876Y15926
X18626Y17351
X20901Y15926
X21326Y18676
X21326Y19676
X18626Y20351
X16876Y22701
X16876Y23701
X15851Y26901
X15851Y27901
X14426Y29701
X17426Y29701
X20201Y29276
X22201Y29276
X22201Y27276
X22201Y25276
X20201Y25276
X20201Y27276
X24201Y27276
X24201Y25276
X24201Y29276
X24551Y19826
X24551Y18826
X23851Y15926
X23851Y12926
X23876Y11076
X23876Y8076
X20876Y8076
X20876Y11076
X20901Y12926
X14876Y12951
X14876Y11951
X14876Y10451
X14876Y9451
X14876Y14451
X14876Y15451
X14876Y16951
X14876Y17951
X13001Y19326
X10476Y20501
X10476Y21501
X8176Y21501
X8176Y20501
X5301Y20651
X5301Y21651
X6926Y24751
X6926Y25751
X10001Y26226
X10001Y25226
X10001Y24226
X13001Y22326
X6401Y13951
X6401Y12951
X4351Y11351
X1351Y11351
X1851Y17351
X1851Y18351
X27076Y12176
X27076Y9176
T02
X11501Y11351
X11501Y12351
X11501Y13351
X11501Y14351
X11501Y15351
X11501Y16351
X11501Y17351
X11501Y18351
X8501Y18351
X8501Y17351
X8501Y16351
X8501Y15351
X8501Y14351
X8501Y13351
X8501Y12351
X8501Y11351
T03
X2351Y13351
X2351Y14351
X1851Y19601
X1851Y22601
X10926Y29701
X11926Y29701
T04
X4585Y7357
X3601Y7357
X2617Y7357
X25717Y7357
X26701Y7357
X27685Y7357
T05
X28176Y18401
X28176Y20401
X28176Y22401
X28176Y25901
X28176Y27901
X7101Y29601
X5101Y29601
X2101Y28351
X2101Y26101
X2101Y24101
T06
X1869Y4601
X5333Y4601
X24969Y4601
X28433Y4601
T07
X1601Y1101
X1601Y30101
X28626Y29926
X28626Y1276
M30
