G75*
G70*
%OFA0B0*%
%FSLAX24Y24*%
%IPPOS*%
%LPD*%
%AMOC8*
5,1,8,0,0,1.08239X$1,22.5*
%
%ADD10C,0.0520*%
%ADD11C,0.0476*%
%ADD12R,0.0594X0.0594*%
%ADD13OC8,0.1181*%
%ADD14R,0.0476X0.0476*%
%ADD15OC8,0.1250*%
%ADD16OC8,0.0476*%
%ADD17R,0.0554X0.0554*%
%ADD18C,0.0554*%
%ADD19C,0.0476*%
%ADD20C,0.0100*%
D10*
X008241Y011351D02*
X008761Y011351D01*
X008761Y012351D02*
X008241Y012351D01*
X008241Y013351D02*
X008761Y013351D01*
X008761Y014351D02*
X008241Y014351D01*
X008241Y015351D02*
X008761Y015351D01*
X008761Y016351D02*
X008241Y016351D01*
X008241Y017351D02*
X008761Y017351D01*
X008761Y018351D02*
X008241Y018351D01*
X011241Y018351D02*
X011761Y018351D01*
X011761Y017351D02*
X011241Y017351D01*
X011241Y016351D02*
X011761Y016351D01*
X011761Y015351D02*
X011241Y015351D01*
X011241Y014351D02*
X011761Y014351D01*
X011761Y013351D02*
X011241Y013351D01*
X011241Y012351D02*
X011761Y012351D01*
X011761Y011351D02*
X011241Y011351D01*
D11*
X011201Y008801D03*
X008201Y008801D03*
X006401Y009451D03*
X006401Y010451D03*
X004351Y011351D03*
X006401Y012951D03*
X006401Y013951D03*
X001351Y011351D03*
X005301Y021651D03*
X008176Y021501D03*
X010476Y021501D03*
X010476Y020501D03*
X013001Y019326D03*
X014876Y017951D03*
X014876Y016951D03*
X014876Y015451D03*
X014876Y014451D03*
X014876Y012951D03*
X014876Y011951D03*
X014876Y010451D03*
X014876Y009451D03*
X017876Y008076D03*
X017876Y011076D03*
X017876Y012926D03*
X017876Y015926D03*
X018626Y017351D03*
X020901Y015926D03*
X021326Y018676D03*
X021326Y019676D03*
X018626Y020351D03*
X016876Y022701D03*
X016876Y023701D03*
X015851Y027901D03*
X014426Y029701D03*
X017426Y029701D03*
X013001Y022326D03*
X006926Y024751D03*
X020901Y012926D03*
X020876Y011076D03*
X020876Y008076D03*
X023876Y008076D03*
X023876Y011076D03*
X023851Y012926D03*
X023851Y015926D03*
X024551Y018826D03*
X027076Y012176D03*
X027076Y009176D03*
X018476Y003451D03*
X015676Y003576D03*
X015676Y004576D03*
X012901Y004576D03*
X012901Y003576D03*
X010376Y002576D03*
X010376Y005576D03*
D12*
X004585Y007357D03*
X003601Y007357D03*
X002617Y007357D03*
X025717Y007357D03*
X026701Y007357D03*
X027685Y007357D03*
D13*
X001869Y004601D03*
X005333Y004601D03*
X024969Y004601D03*
X028433Y004601D03*
D14*
X018476Y004451D03*
X024551Y019826D03*
X015851Y026901D03*
X008176Y020501D03*
X005301Y020651D03*
X001851Y018351D03*
X001851Y017351D03*
X006926Y025751D03*
D15*
X007101Y029601D03*
X005101Y029601D03*
X002101Y028351D03*
X002101Y026101D03*
X002101Y024101D03*
X028176Y022401D03*
X028176Y020401D03*
X028176Y018401D03*
X028176Y025901D03*
X028176Y027901D03*
D16*
X010001Y026226D03*
X010001Y025226D03*
X010001Y024226D03*
D17*
X011926Y029701D03*
X001851Y019601D03*
X002351Y013351D03*
D18*
X002351Y014351D03*
X001851Y022601D03*
X010926Y029701D03*
D19*
X019963Y029276D02*
X020439Y029276D01*
X021963Y029276D02*
X022439Y029276D01*
X023963Y029276D02*
X024439Y029276D01*
X024439Y027276D02*
X023963Y027276D01*
X022439Y027276D02*
X021963Y027276D01*
X020439Y027276D02*
X019963Y027276D01*
X019963Y025276D02*
X020439Y025276D01*
X021963Y025276D02*
X022439Y025276D01*
X023963Y025276D02*
X024439Y025276D01*
D20*
X023501Y025901D02*
X028176Y025901D01*
X028176Y027901D02*
X025501Y027901D01*
X024201Y029201D01*
X024201Y029276D01*
X023801Y027701D02*
X024201Y027301D01*
X024201Y027276D01*
X023801Y027701D02*
X019501Y027701D01*
X017501Y029701D01*
X017426Y029701D01*
X015901Y030101D02*
X015901Y027901D01*
X015851Y027901D01*
X015901Y030101D02*
X021401Y030101D01*
X022201Y029301D01*
X022201Y029276D01*
X022201Y027276D02*
X022201Y027201D01*
X023501Y025901D01*
X023001Y025701D02*
X026301Y022401D01*
X028176Y022401D01*
X026401Y022101D02*
X028101Y020401D01*
X028176Y020401D01*
X026301Y020201D02*
X028101Y018401D01*
X028176Y018401D01*
X026301Y020201D02*
X021901Y020201D01*
X021401Y019701D01*
X021326Y019676D01*
X021301Y019601D01*
X021101Y019401D01*
X013001Y019401D01*
X013001Y019326D01*
X013001Y019401D02*
X012301Y020101D01*
X012201Y020101D01*
X008501Y016401D01*
X008501Y016351D01*
X008501Y015351D02*
X008501Y015301D01*
X007701Y015301D01*
X006401Y014001D01*
X006401Y013951D01*
X006401Y012951D02*
X006401Y012901D01*
X006901Y012401D01*
X008501Y012401D01*
X008501Y012351D01*
X008501Y011351D02*
X008501Y011301D01*
X007201Y011301D01*
X006401Y010501D01*
X006401Y010451D01*
X006001Y009701D02*
X005901Y009701D01*
X003601Y007401D01*
X003601Y007357D01*
X004585Y007357D02*
X004601Y007401D01*
X006801Y007401D01*
X008201Y008801D01*
X006401Y009451D02*
X006401Y009501D01*
X006201Y009501D01*
X006001Y009701D01*
X004351Y011351D01*
X002351Y014351D02*
X006301Y018301D01*
X008501Y018301D01*
X008501Y018351D01*
X008176Y021501D02*
X006901Y021501D01*
X006901Y024701D01*
X006926Y024751D01*
X007001Y024801D01*
X007401Y025201D01*
X010001Y025201D01*
X010001Y025226D01*
X009601Y025801D02*
X007001Y025801D01*
X006926Y025751D01*
X009601Y025801D02*
X010001Y026201D01*
X010001Y026226D01*
X011901Y029201D02*
X006701Y029201D01*
X007101Y029601D01*
X006701Y029201D02*
X006301Y028801D01*
X004801Y028801D01*
X002101Y026101D01*
X002101Y028351D02*
X002101Y028401D01*
X003301Y029601D01*
X005101Y029601D01*
X011901Y029201D02*
X019001Y022101D01*
X026401Y022101D01*
X024551Y019826D02*
X024501Y019801D01*
X023401Y018701D01*
X021401Y018701D01*
X021326Y018676D01*
X018401Y015501D02*
X016301Y015501D01*
X014901Y016901D01*
X014876Y016951D01*
X014801Y017001D01*
X014501Y017301D01*
X011501Y017301D01*
X011501Y017351D01*
X011801Y018001D02*
X014801Y018001D01*
X014876Y017951D01*
X014001Y016301D02*
X011501Y016301D01*
X011501Y016351D01*
X011501Y015351D02*
X011501Y015301D01*
X014001Y015301D01*
X014801Y014501D01*
X014876Y014451D01*
X014901Y014401D01*
X016801Y012501D01*
X021301Y012501D01*
X021301Y010601D01*
X023801Y008101D01*
X023876Y008076D01*
X025717Y007357D02*
X025701Y007301D01*
X022301Y003901D01*
X016001Y003901D01*
X015676Y003576D01*
X015601Y004501D02*
X015676Y004576D01*
X016001Y004901D01*
X021301Y004901D01*
X021301Y008201D01*
X021001Y008501D01*
X020901Y008501D01*
X020901Y011001D01*
X020876Y011076D01*
X020901Y012926D02*
X020901Y013001D01*
X018401Y015501D01*
X014876Y015451D02*
X014801Y015501D01*
X014001Y016301D01*
X013501Y014301D02*
X011501Y014301D01*
X011501Y014351D01*
X011501Y013351D02*
X011501Y013301D01*
X013501Y013301D01*
X014801Y012001D01*
X014876Y011951D01*
X014901Y012901D02*
X014876Y012951D01*
X014801Y013001D01*
X013501Y014301D01*
X014901Y012901D02*
X017101Y010701D01*
X018201Y010701D01*
X020801Y008101D01*
X020876Y008076D01*
X017876Y008076D02*
X017801Y008001D01*
X012801Y008001D01*
X010376Y005576D01*
X012001Y004201D02*
X010376Y002576D01*
X012001Y004201D02*
X013101Y004201D01*
X013401Y004501D01*
X015601Y004501D01*
X013501Y004201D02*
X018201Y004201D01*
X018401Y004401D01*
X018476Y004451D01*
X014876Y009451D02*
X014801Y009501D01*
X013001Y011301D01*
X011501Y011301D01*
X011501Y011351D01*
X011501Y012301D02*
X011501Y012351D01*
X011501Y012301D02*
X013001Y012301D01*
X014801Y010501D01*
X014876Y010451D01*
X013501Y004201D02*
X012901Y003601D01*
X012901Y003576D01*
X011801Y018001D02*
X011501Y018301D01*
X011501Y018351D01*
X012301Y020101D02*
X010901Y021501D01*
X010476Y021501D01*
X008176Y021501D01*
X006901Y021501D02*
X005401Y021501D01*
X005301Y021601D01*
X005301Y021651D01*
X013001Y022326D02*
X013001Y022401D01*
X014301Y023701D01*
X016876Y023701D01*
X020201Y027201D02*
X020201Y027276D01*
X020201Y027201D02*
X021701Y025701D01*
X023001Y025701D01*
M02*
