G75*
G70*
%OFA0B0*%
%FSLAX24Y24*%
%IPPOS*%
%LPD*%
%AMOC8*
5,1,8,0,0,1.08239X$1,22.5*
%
%ADD10C,0.1340*%
%ADD11C,0.0600*%
%ADD12C,0.0556*%
%ADD13R,0.0674X0.0674*%
%ADD14OC8,0.1261*%
%ADD15R,0.0556X0.0556*%
%ADD16OC8,0.1330*%
%ADD17OC8,0.0556*%
%ADD18R,0.0634X0.0634*%
%ADD19C,0.0634*%
%ADD20C,0.0556*%
D10*
X001601Y001101D03*
X001601Y030101D03*
X028626Y029926D03*
X028626Y001276D03*
D11*
X011761Y011351D02*
X011241Y011351D01*
X011241Y012351D02*
X011761Y012351D01*
X011761Y013351D02*
X011241Y013351D01*
X011241Y014351D02*
X011761Y014351D01*
X011761Y015351D02*
X011241Y015351D01*
X011241Y016351D02*
X011761Y016351D01*
X011761Y017351D02*
X011241Y017351D01*
X011241Y018351D02*
X011761Y018351D01*
X008761Y018351D02*
X008241Y018351D01*
X008241Y017351D02*
X008761Y017351D01*
X008761Y016351D02*
X008241Y016351D01*
X008241Y015351D02*
X008761Y015351D01*
X008761Y014351D02*
X008241Y014351D01*
X008241Y013351D02*
X008761Y013351D01*
X008761Y012351D02*
X008241Y012351D01*
X008241Y011351D02*
X008761Y011351D01*
D12*
X006401Y010451D03*
X006401Y009451D03*
X008201Y008801D03*
X011201Y008801D03*
X010376Y005576D03*
X012901Y004576D03*
X012901Y003576D03*
X010376Y002576D03*
X015676Y003576D03*
X015676Y004576D03*
X018476Y003451D03*
X017876Y008076D03*
X017876Y011076D03*
X017876Y012926D03*
X017876Y015926D03*
X018626Y017351D03*
X020901Y015926D03*
X021326Y018676D03*
X021326Y019676D03*
X018626Y020351D03*
X016876Y022701D03*
X016876Y023701D03*
X015851Y027901D03*
X014426Y029701D03*
X017426Y029701D03*
X013001Y022326D03*
X010476Y021501D03*
X010476Y020501D03*
X008176Y021501D03*
X005301Y021651D03*
X006926Y024751D03*
X013001Y019326D03*
X014876Y017951D03*
X014876Y016951D03*
X014876Y015451D03*
X014876Y014451D03*
X014876Y012951D03*
X014876Y011951D03*
X014876Y010451D03*
X014876Y009451D03*
X020876Y008076D03*
X020876Y011076D03*
X020901Y012926D03*
X023851Y012926D03*
X023876Y011076D03*
X023876Y008076D03*
X027076Y009176D03*
X027076Y012176D03*
X023851Y015926D03*
X024551Y018826D03*
X006401Y013951D03*
X006401Y012951D03*
X004351Y011351D03*
X001351Y011351D03*
D13*
X002617Y007357D03*
X003601Y007357D03*
X004585Y007357D03*
X025717Y007357D03*
X026701Y007357D03*
X027685Y007357D03*
D14*
X028433Y004601D03*
X024969Y004601D03*
X005333Y004601D03*
X001869Y004601D03*
D15*
X001851Y017351D03*
X001851Y018351D03*
X005301Y020651D03*
X008176Y020501D03*
X006926Y025751D03*
X015851Y026901D03*
X024551Y019826D03*
X018476Y004451D03*
D16*
X028176Y018401D03*
X028176Y020401D03*
X028176Y022401D03*
X028176Y025901D03*
X028176Y027901D03*
X007101Y029601D03*
X005101Y029601D03*
X002101Y028351D03*
X002101Y026101D03*
X002101Y024101D03*
D17*
X010001Y024226D03*
X010001Y025226D03*
X010001Y026226D03*
D18*
X011926Y029701D03*
X001851Y019601D03*
X002351Y013351D03*
D19*
X002351Y014351D03*
X001851Y022601D03*
X010926Y029701D03*
D20*
X019963Y029276D02*
X020439Y029276D01*
X021963Y029276D02*
X022439Y029276D01*
X023963Y029276D02*
X024439Y029276D01*
X024439Y027276D02*
X023963Y027276D01*
X022439Y027276D02*
X021963Y027276D01*
X020439Y027276D02*
X019963Y027276D01*
X019963Y025276D02*
X020439Y025276D01*
X021963Y025276D02*
X022439Y025276D01*
X023963Y025276D02*
X024439Y025276D01*
M02*
