G75*
G70*
%OFA0B0*%
%FSLAX24Y24*%
%IPPOS*%
%LPD*%
%AMOC8*
5,1,8,0,0,1.08239X$1,22.5*
%
%ADD10C,0.0060*%
%ADD11C,0.0080*%
%ADD12C,0.0050*%
%ADD13C,0.0010*%
%ADD14C,0.0030*%
D10*
X001031Y001842D02*
X001031Y002182D01*
X001201Y002182D01*
X001258Y002125D01*
X001258Y002012D01*
X001201Y001955D01*
X001031Y001955D01*
X001101Y002642D02*
X000931Y002642D01*
X000931Y002982D01*
X001101Y002982D01*
X001158Y002925D01*
X001158Y002698D01*
X001101Y002642D01*
X001299Y002698D02*
X001356Y002642D01*
X001469Y002642D01*
X001526Y002698D01*
X001299Y002698D02*
X001299Y002925D01*
X001356Y002982D01*
X001469Y002982D01*
X001526Y002925D01*
X002036Y002698D02*
X002092Y002642D01*
X002149Y002642D01*
X002206Y002698D01*
X002206Y002982D01*
X002149Y002982D02*
X002263Y002982D01*
X002461Y002869D02*
X002574Y002869D01*
X002631Y002812D01*
X002631Y002642D01*
X002461Y002642D01*
X002404Y002698D01*
X002461Y002755D01*
X002631Y002755D01*
X002772Y002812D02*
X002772Y002698D01*
X002829Y002642D01*
X002999Y002642D01*
X003141Y002642D02*
X003141Y002982D01*
X002999Y002869D02*
X002829Y002869D01*
X002772Y002812D01*
X003141Y002755D02*
X003311Y002869D01*
X003141Y002755D02*
X003311Y002642D01*
X003201Y002182D02*
X003087Y002182D01*
X003031Y002125D01*
X003031Y001898D01*
X003087Y001842D01*
X003201Y001842D01*
X003258Y001898D01*
X003258Y002125D02*
X003201Y002182D01*
X002258Y002125D02*
X002201Y002182D01*
X002087Y002182D01*
X002031Y002125D01*
X002031Y002069D01*
X002087Y002012D01*
X002201Y002012D01*
X002258Y001955D01*
X002258Y001898D01*
X002201Y001842D01*
X002087Y001842D01*
X002031Y001898D01*
X005531Y002298D02*
X005587Y002242D01*
X005701Y002242D01*
X005758Y002298D01*
X005758Y002525D01*
X005701Y002582D01*
X005587Y002582D01*
X005531Y002525D01*
X005531Y002469D01*
X005587Y002412D01*
X005758Y002412D01*
X005899Y002355D02*
X005899Y002582D01*
X005899Y002355D02*
X006013Y002242D01*
X006126Y002355D01*
X006126Y002582D01*
X006636Y002582D02*
X006636Y002242D01*
X006806Y002242D01*
X006863Y002298D01*
X006863Y002355D01*
X006806Y002412D01*
X006636Y002412D01*
X006806Y002412D02*
X006863Y002469D01*
X006863Y002525D01*
X006806Y002582D01*
X006636Y002582D01*
X007061Y002469D02*
X007174Y002469D01*
X007231Y002412D01*
X007231Y002242D01*
X007061Y002242D01*
X007004Y002298D01*
X007061Y002355D01*
X007231Y002355D01*
X007372Y002469D02*
X007486Y002469D01*
X007429Y002525D02*
X007429Y002298D01*
X007486Y002242D01*
X007675Y002298D02*
X007731Y002242D01*
X007675Y002298D02*
X007675Y002525D01*
X007618Y002469D02*
X007731Y002469D01*
X007214Y001855D02*
X006987Y001855D01*
X007101Y001742D02*
X007101Y001969D01*
X006189Y001912D02*
X005962Y001912D01*
X007094Y003812D02*
X007294Y003812D01*
X007344Y003862D01*
X007857Y003862D01*
X007907Y003812D01*
X008107Y003812D01*
X008124Y003814D01*
X008141Y003818D01*
X008157Y003825D01*
X008171Y003835D01*
X008184Y003848D01*
X008194Y003862D01*
X008201Y003878D01*
X008205Y003895D01*
X008207Y003912D01*
X008207Y004512D01*
X008205Y004529D01*
X008201Y004546D01*
X008194Y004562D01*
X008184Y004576D01*
X008171Y004589D01*
X008157Y004599D01*
X008141Y004606D01*
X008124Y004610D01*
X008107Y004612D01*
X007907Y004612D01*
X007857Y004562D01*
X007344Y004562D01*
X007294Y004612D01*
X007094Y004612D01*
X007077Y004610D01*
X007060Y004606D01*
X007044Y004599D01*
X007030Y004589D01*
X007017Y004576D01*
X007007Y004562D01*
X007000Y004546D01*
X006996Y004529D01*
X006994Y004512D01*
X006994Y003912D01*
X006996Y003895D01*
X007000Y003878D01*
X007007Y003862D01*
X007017Y003848D01*
X007030Y003835D01*
X007044Y003825D01*
X007060Y003818D01*
X007077Y003814D01*
X007094Y003812D01*
X007231Y004942D02*
X007231Y005282D01*
X007401Y005282D01*
X007458Y005225D01*
X007458Y005112D01*
X007401Y005055D01*
X007231Y005055D01*
X007344Y005055D02*
X007458Y004942D01*
X007599Y004998D02*
X007656Y004942D01*
X007769Y004942D01*
X007826Y004998D01*
X007826Y005055D01*
X007769Y005112D01*
X007713Y005112D01*
X007769Y005112D02*
X007826Y005169D01*
X007826Y005225D01*
X007769Y005282D01*
X007656Y005282D01*
X007599Y005225D01*
X007451Y006712D02*
X009751Y006712D01*
X009751Y013712D01*
X009001Y013712D01*
X008999Y013673D01*
X008993Y013634D01*
X008984Y013596D01*
X008971Y013559D01*
X008954Y013523D01*
X008934Y013490D01*
X008910Y013458D01*
X008884Y013429D01*
X008855Y013403D01*
X008823Y013379D01*
X008790Y013359D01*
X008754Y013342D01*
X008717Y013329D01*
X008679Y013320D01*
X008640Y013314D01*
X008601Y013312D01*
X008562Y013314D01*
X008523Y013320D01*
X008485Y013329D01*
X008448Y013342D01*
X008412Y013359D01*
X008379Y013379D01*
X008347Y013403D01*
X008318Y013429D01*
X008292Y013458D01*
X008268Y013490D01*
X008248Y013523D01*
X008231Y013559D01*
X008218Y013596D01*
X008209Y013634D01*
X008203Y013673D01*
X008201Y013712D01*
X007451Y013712D01*
X007451Y006712D01*
X005171Y007398D02*
X005171Y007512D01*
X005114Y007569D01*
X005171Y007710D02*
X005171Y007937D01*
X005171Y007823D02*
X004831Y007823D01*
X004944Y007710D01*
X004887Y007569D02*
X004831Y007512D01*
X004831Y007398D01*
X004887Y007342D01*
X005114Y007342D01*
X005171Y007398D01*
X004589Y006301D02*
X003613Y006301D01*
X003613Y009122D01*
X004589Y009122D01*
X004589Y006301D01*
X004589Y010301D02*
X003613Y010301D01*
X003613Y013122D01*
X004589Y013122D01*
X004589Y010301D01*
X005087Y011305D02*
X005314Y011305D01*
X005371Y011362D01*
X005371Y011475D01*
X005314Y011532D01*
X005371Y011673D02*
X005144Y011900D01*
X005087Y011900D01*
X005031Y011843D01*
X005031Y011730D01*
X005087Y011673D01*
X005087Y011532D02*
X005031Y011475D01*
X005031Y011362D01*
X005087Y011305D01*
X005371Y011673D02*
X005371Y011900D01*
X004426Y015242D02*
X004199Y015242D01*
X004313Y015242D02*
X004313Y015582D01*
X004199Y015469D01*
X004058Y015525D02*
X004058Y015412D01*
X004001Y015355D01*
X003831Y015355D01*
X003944Y015355D02*
X004058Y015242D01*
X003831Y015242D02*
X003831Y015582D01*
X004001Y015582D01*
X004058Y015525D01*
X003794Y015812D02*
X003844Y015862D01*
X004357Y015862D01*
X004407Y015812D01*
X004607Y015812D01*
X004624Y015814D01*
X004641Y015818D01*
X004657Y015825D01*
X004671Y015835D01*
X004684Y015848D01*
X004694Y015862D01*
X004701Y015878D01*
X004705Y015895D01*
X004707Y015912D01*
X004707Y016512D01*
X004705Y016529D01*
X004701Y016546D01*
X004694Y016562D01*
X004684Y016576D01*
X004671Y016589D01*
X004657Y016599D01*
X004641Y016606D01*
X004624Y016610D01*
X004607Y016612D01*
X004407Y016612D01*
X004357Y016562D01*
X003844Y016562D01*
X003794Y016612D01*
X003594Y016612D01*
X003577Y016610D01*
X003560Y016606D01*
X003544Y016599D01*
X003530Y016589D01*
X003517Y016576D01*
X003507Y016562D01*
X003500Y016546D01*
X003496Y016529D01*
X003494Y016512D01*
X003494Y015912D01*
X003496Y015895D01*
X003500Y015878D01*
X003507Y015862D01*
X003517Y015848D01*
X003530Y015835D01*
X003544Y015825D01*
X003560Y015818D01*
X003577Y015814D01*
X003594Y015812D01*
X003794Y015812D01*
X001258Y013725D02*
X001201Y013782D01*
X001087Y013782D01*
X001031Y013725D01*
X001031Y013669D01*
X001087Y013612D01*
X001201Y013612D01*
X001258Y013555D01*
X001258Y013498D01*
X001201Y013442D01*
X001087Y013442D01*
X001031Y013498D01*
X001631Y012919D02*
X001971Y012919D01*
X001631Y012692D01*
X001971Y012692D01*
X001971Y012560D02*
X001971Y012447D01*
X001971Y012503D02*
X001631Y012503D01*
X001631Y012447D02*
X001631Y012560D01*
X001801Y012305D02*
X001801Y012078D01*
X001857Y011937D02*
X001631Y011937D01*
X001857Y011937D02*
X001971Y011823D01*
X001857Y011710D01*
X001631Y011710D01*
X001687Y011569D02*
X001631Y011512D01*
X001631Y011398D01*
X001687Y011342D01*
X001914Y011342D01*
X001971Y011398D01*
X001971Y011512D01*
X001914Y011569D01*
X001258Y011182D02*
X001031Y011182D01*
X001144Y011182D02*
X001144Y010842D01*
X007994Y015912D02*
X007994Y016512D01*
X007996Y016529D01*
X008000Y016546D01*
X008007Y016562D01*
X008017Y016576D01*
X008030Y016589D01*
X008044Y016599D01*
X008060Y016606D01*
X008077Y016610D01*
X008094Y016612D01*
X008294Y016612D01*
X008344Y016562D01*
X008857Y016562D01*
X008907Y016612D01*
X009107Y016612D01*
X009124Y016610D01*
X009141Y016606D01*
X009157Y016599D01*
X009171Y016589D01*
X009184Y016576D01*
X009194Y016562D01*
X009201Y016546D01*
X009205Y016529D01*
X009207Y016512D01*
X009207Y015912D01*
X009205Y015895D01*
X009201Y015878D01*
X009194Y015862D01*
X009184Y015848D01*
X009171Y015835D01*
X009157Y015825D01*
X009141Y015818D01*
X009124Y015814D01*
X009107Y015812D01*
X008907Y015812D01*
X008857Y015862D01*
X008344Y015862D01*
X008294Y015812D01*
X008094Y015812D01*
X008077Y015814D01*
X008060Y015818D01*
X008044Y015825D01*
X008030Y015835D01*
X008017Y015848D01*
X008007Y015862D01*
X008000Y015878D01*
X007996Y015895D01*
X007994Y015912D01*
X008331Y015582D02*
X008501Y015582D01*
X008558Y015525D01*
X008558Y015412D01*
X008501Y015355D01*
X008331Y015355D01*
X008444Y015355D02*
X008558Y015242D01*
X008699Y015242D02*
X008926Y015469D01*
X008926Y015525D01*
X008869Y015582D01*
X008756Y015582D01*
X008699Y015525D01*
X008699Y015242D02*
X008926Y015242D01*
X008331Y015242D02*
X008331Y015582D01*
X011931Y019642D02*
X011931Y019982D01*
X012101Y019982D01*
X012158Y019925D01*
X012158Y019812D01*
X012101Y019755D01*
X011931Y019755D01*
X012299Y019698D02*
X012356Y019642D01*
X012469Y019642D01*
X012526Y019698D01*
X012526Y019925D01*
X012469Y019982D01*
X012356Y019982D01*
X012299Y019925D01*
X012299Y019698D01*
X012667Y019982D02*
X012894Y019982D01*
X012781Y019982D02*
X012781Y019642D01*
X013036Y019698D02*
X013092Y019642D01*
X013206Y019642D01*
X013263Y019698D01*
X013263Y019755D01*
X013206Y019812D01*
X013149Y019812D01*
X013206Y019812D02*
X013263Y019869D01*
X013263Y019925D01*
X013206Y019982D01*
X013092Y019982D01*
X013036Y019925D01*
X014071Y015637D02*
X014071Y015410D01*
X014071Y015523D02*
X013731Y015523D01*
X013844Y015410D01*
X013787Y015269D02*
X013731Y015212D01*
X013731Y015042D01*
X014071Y015042D01*
X014071Y015212D01*
X014014Y015269D01*
X013787Y015269D01*
X014587Y013782D02*
X014531Y013725D01*
X014531Y013669D01*
X014587Y013612D01*
X014701Y013612D01*
X014758Y013555D01*
X014758Y013498D01*
X014701Y013442D01*
X014587Y013442D01*
X014531Y013498D01*
X014758Y013725D02*
X014701Y013782D01*
X014587Y013782D01*
X013631Y012705D02*
X013631Y012478D01*
X013631Y012592D02*
X013971Y012592D01*
X013914Y012337D02*
X013631Y012337D01*
X013631Y012110D02*
X013914Y012110D01*
X013971Y012167D01*
X013971Y012280D01*
X013914Y012337D01*
X013914Y011969D02*
X013687Y011969D01*
X013631Y011912D01*
X013631Y011798D01*
X013687Y011742D01*
X013914Y011742D01*
X013971Y011798D01*
X013971Y011912D01*
X013914Y011969D01*
X014531Y011182D02*
X014758Y011182D01*
X014644Y011182D02*
X014644Y010842D01*
X013869Y008882D02*
X013756Y008882D01*
X013699Y008825D01*
X013558Y008825D02*
X013501Y008882D01*
X013387Y008882D01*
X013331Y008825D01*
X013331Y008598D01*
X013387Y008542D01*
X013501Y008542D01*
X013558Y008598D01*
X013699Y008598D02*
X013756Y008542D01*
X013869Y008542D01*
X013926Y008598D01*
X013926Y008655D01*
X013869Y008712D01*
X013813Y008712D01*
X013869Y008712D02*
X013926Y008769D01*
X013926Y008825D01*
X013869Y008882D01*
X014141Y007792D02*
X014141Y007532D01*
X014261Y007662D02*
X014011Y007662D01*
X012617Y007212D02*
X012619Y007274D01*
X012625Y007337D01*
X012635Y007398D01*
X012649Y007459D01*
X012666Y007519D01*
X012687Y007578D01*
X012713Y007635D01*
X012741Y007690D01*
X012773Y007744D01*
X012809Y007795D01*
X012847Y007845D01*
X012889Y007891D01*
X012933Y007935D01*
X012981Y007976D01*
X013030Y008014D01*
X013082Y008048D01*
X013136Y008079D01*
X013192Y008107D01*
X013250Y008131D01*
X013309Y008152D01*
X013369Y008168D01*
X013430Y008181D01*
X013492Y008190D01*
X013554Y008195D01*
X013617Y008196D01*
X013679Y008193D01*
X013741Y008186D01*
X013803Y008175D01*
X013863Y008160D01*
X013923Y008142D01*
X013981Y008120D01*
X014038Y008094D01*
X014093Y008064D01*
X014146Y008031D01*
X014197Y007995D01*
X014245Y007956D01*
X014291Y007913D01*
X014334Y007868D01*
X014374Y007820D01*
X014411Y007770D01*
X014445Y007717D01*
X014476Y007663D01*
X014502Y007607D01*
X014526Y007549D01*
X014545Y007489D01*
X014561Y007429D01*
X014573Y007367D01*
X014581Y007306D01*
X014585Y007243D01*
X014585Y007181D01*
X014581Y007118D01*
X014573Y007057D01*
X014561Y006995D01*
X014545Y006935D01*
X014526Y006875D01*
X014502Y006817D01*
X014476Y006761D01*
X014445Y006707D01*
X014411Y006654D01*
X014374Y006604D01*
X014334Y006556D01*
X014291Y006511D01*
X014245Y006468D01*
X014197Y006429D01*
X014146Y006393D01*
X014093Y006360D01*
X014038Y006330D01*
X013981Y006304D01*
X013923Y006282D01*
X013863Y006264D01*
X013803Y006249D01*
X013741Y006238D01*
X013679Y006231D01*
X013617Y006228D01*
X013554Y006229D01*
X013492Y006234D01*
X013430Y006243D01*
X013369Y006256D01*
X013309Y006272D01*
X013250Y006293D01*
X013192Y006317D01*
X013136Y006345D01*
X013082Y006376D01*
X013030Y006410D01*
X012981Y006448D01*
X012933Y006489D01*
X012889Y006533D01*
X012847Y006579D01*
X012809Y006629D01*
X012773Y006680D01*
X012741Y006734D01*
X012713Y006789D01*
X012687Y006846D01*
X012666Y006905D01*
X012649Y006965D01*
X012635Y007026D01*
X012625Y007087D01*
X012619Y007150D01*
X012617Y007212D01*
X012369Y005282D02*
X012199Y005112D01*
X012426Y005112D01*
X012369Y004942D02*
X012369Y005282D01*
X012058Y005225D02*
X012058Y005112D01*
X012001Y005055D01*
X011831Y005055D01*
X011944Y005055D02*
X012058Y004942D01*
X011831Y004942D02*
X011831Y005282D01*
X012001Y005282D01*
X012058Y005225D01*
X011794Y004612D02*
X011594Y004612D01*
X011577Y004610D01*
X011560Y004606D01*
X011544Y004599D01*
X011530Y004589D01*
X011517Y004576D01*
X011507Y004562D01*
X011500Y004546D01*
X011496Y004529D01*
X011494Y004512D01*
X011494Y003912D01*
X011496Y003895D01*
X011500Y003878D01*
X011507Y003862D01*
X011517Y003848D01*
X011530Y003835D01*
X011544Y003825D01*
X011560Y003818D01*
X011577Y003814D01*
X011594Y003812D01*
X011794Y003812D01*
X011844Y003862D01*
X012357Y003862D01*
X012407Y003812D01*
X012607Y003812D01*
X012624Y003814D01*
X012641Y003818D01*
X012657Y003825D01*
X012671Y003835D01*
X012684Y003848D01*
X012694Y003862D01*
X012701Y003878D01*
X012705Y003895D01*
X012707Y003912D01*
X012707Y004512D01*
X012705Y004529D01*
X012701Y004546D01*
X012694Y004562D01*
X012684Y004576D01*
X012671Y004589D01*
X012657Y004599D01*
X012641Y004606D01*
X012624Y004610D01*
X012607Y004612D01*
X012407Y004612D01*
X012357Y004562D01*
X011844Y004562D01*
X011794Y004612D01*
X011867Y002582D02*
X012094Y002582D01*
X011981Y002582D02*
X011981Y002242D01*
X011726Y002298D02*
X011726Y002525D01*
X011669Y002582D01*
X011556Y002582D01*
X011499Y002525D01*
X011499Y002298D01*
X011556Y002242D01*
X011669Y002242D01*
X011726Y002298D01*
X011358Y002412D02*
X011301Y002355D01*
X011131Y002355D01*
X011131Y002242D02*
X011131Y002582D01*
X011301Y002582D01*
X011358Y002525D01*
X011358Y002412D01*
X012236Y002469D02*
X012349Y002582D01*
X012349Y002242D01*
X012236Y002242D02*
X012463Y002242D01*
X003763Y019642D02*
X003536Y019642D01*
X003763Y019869D01*
X003763Y019925D01*
X003706Y019982D01*
X003592Y019982D01*
X003536Y019925D01*
X003394Y019982D02*
X003167Y019982D01*
X003281Y019982D02*
X003281Y019642D01*
X003026Y019698D02*
X003026Y019925D01*
X002969Y019982D01*
X002856Y019982D01*
X002799Y019925D01*
X002799Y019698D01*
X002856Y019642D01*
X002969Y019642D01*
X003026Y019698D01*
X002658Y019812D02*
X002601Y019755D01*
X002431Y019755D01*
X002431Y019642D02*
X002431Y019982D01*
X002601Y019982D01*
X002658Y019925D01*
X002658Y019812D01*
D11*
X005797Y019722D02*
X005867Y019652D01*
X006007Y019652D01*
X006078Y019722D01*
X006078Y019792D01*
X006007Y019862D01*
X005867Y019862D01*
X005797Y019932D01*
X005797Y020002D01*
X005867Y020072D01*
X006007Y020072D01*
X006078Y020002D01*
X006258Y019932D02*
X006258Y019722D01*
X006328Y019652D01*
X006538Y019652D01*
X006538Y019582D02*
X006468Y019512D01*
X006398Y019512D01*
X006538Y019582D02*
X006538Y019932D01*
X006718Y019932D02*
X006718Y019652D01*
X006718Y019932D02*
X006928Y019932D01*
X006998Y019862D01*
X006998Y019652D01*
X007248Y019722D02*
X007318Y019652D01*
X007248Y019722D02*
X007248Y020002D01*
X007178Y019932D02*
X007318Y019932D01*
X007485Y019862D02*
X007555Y019932D01*
X007695Y019932D01*
X007765Y019862D01*
X007765Y019652D01*
X007946Y019652D02*
X007946Y019932D01*
X007946Y019792D02*
X008086Y019932D01*
X008156Y019932D01*
X008329Y019862D02*
X008329Y019722D01*
X008399Y019652D01*
X008539Y019652D01*
X008609Y019722D01*
X008609Y019862D01*
X008539Y019932D01*
X008399Y019932D01*
X008329Y019862D01*
X008790Y019932D02*
X008930Y019932D01*
X008860Y020002D02*
X008860Y019722D01*
X008930Y019652D01*
X009096Y019722D02*
X009096Y019862D01*
X009166Y019932D01*
X009307Y019932D01*
X009377Y019862D01*
X009377Y019792D01*
X009096Y019792D01*
X009096Y019722D02*
X009166Y019652D01*
X009307Y019652D01*
X009557Y019652D02*
X009557Y020072D01*
X009767Y019932D02*
X009557Y019792D01*
X009767Y019652D01*
X007485Y019652D02*
X007485Y020072D01*
X008041Y012772D02*
X008181Y012772D01*
X008111Y012772D02*
X008111Y012352D01*
X008041Y012352D02*
X008181Y012352D01*
X008348Y012422D02*
X008418Y012352D01*
X008558Y012352D01*
X008628Y012422D01*
X008808Y012352D02*
X009088Y012352D01*
X008948Y012352D02*
X008948Y012772D01*
X008808Y012632D01*
X008628Y012702D02*
X008558Y012772D01*
X008418Y012772D01*
X008348Y012702D01*
X008348Y012422D01*
D12*
X011201Y018312D02*
X011201Y018515D01*
X011201Y018312D02*
X011606Y018312D01*
X011999Y018312D02*
X012404Y018312D01*
X012798Y018312D02*
X013202Y018312D01*
X013596Y018312D02*
X014001Y018312D01*
X014001Y018515D01*
X014001Y018909D02*
X014001Y019112D01*
X013596Y019112D01*
X013202Y019112D02*
X012798Y019112D01*
X012404Y019112D02*
X011999Y019112D01*
X011606Y019112D02*
X011201Y019112D01*
X011201Y018909D01*
X010222Y019027D02*
X010042Y019027D01*
X010042Y019072D02*
X010087Y019117D01*
X010177Y019117D01*
X010222Y019072D01*
X010222Y019027D01*
X010177Y018937D02*
X010087Y018937D01*
X010042Y018982D01*
X010042Y019072D01*
X009935Y018937D02*
X009845Y018937D01*
X009890Y018937D02*
X009890Y019207D01*
X009845Y019207D01*
X009731Y019072D02*
X009686Y019117D01*
X009596Y019117D01*
X009551Y019072D01*
X009551Y018982D01*
X009596Y018937D01*
X009686Y018937D01*
X009731Y018982D01*
X009731Y019072D01*
X009436Y019117D02*
X009301Y019117D01*
X009256Y019072D01*
X009301Y019027D01*
X009391Y019027D01*
X009436Y018982D01*
X009391Y018937D01*
X009256Y018937D01*
X009142Y018937D02*
X009142Y019072D01*
X009097Y019117D01*
X008961Y019117D01*
X008961Y018937D01*
X008847Y018982D02*
X008802Y018937D01*
X008712Y018937D01*
X008667Y018982D01*
X008667Y019072D01*
X008712Y019117D01*
X008802Y019117D01*
X008847Y019072D01*
X008847Y018982D01*
X008552Y018982D02*
X008507Y018937D01*
X008417Y018937D01*
X008372Y018982D01*
X008372Y019162D01*
X008417Y019207D01*
X008507Y019207D01*
X008552Y019162D01*
X007967Y019117D02*
X007832Y019027D01*
X007967Y018937D01*
X007832Y018937D02*
X007832Y019207D01*
X007717Y019072D02*
X007717Y018937D01*
X007717Y019072D02*
X007672Y019117D01*
X007537Y019117D01*
X007537Y018937D01*
X007423Y018937D02*
X007423Y019117D01*
X007243Y019117D02*
X007243Y018982D01*
X007288Y018937D01*
X007423Y018937D01*
X007128Y019072D02*
X007128Y019162D01*
X007083Y019207D01*
X006948Y019207D01*
X006948Y018937D01*
X006948Y019027D02*
X007083Y019027D01*
X007128Y019072D01*
X006547Y018937D02*
X006457Y018937D01*
X006502Y018937D02*
X006502Y019117D01*
X006457Y019117D01*
X006502Y019207D02*
X006502Y019252D01*
X006347Y019117D02*
X006302Y019117D01*
X006211Y019027D01*
X006211Y018937D02*
X006211Y019117D01*
X006097Y019072D02*
X006097Y018937D01*
X005962Y018937D01*
X005917Y018982D01*
X005962Y019027D01*
X006097Y019027D01*
X006097Y019072D02*
X006052Y019117D01*
X005962Y019117D01*
X005810Y019117D02*
X005720Y019117D01*
X005765Y019162D02*
X005765Y018982D01*
X005810Y018937D01*
X005606Y018937D02*
X005606Y019117D01*
X005516Y019207D01*
X005426Y019117D01*
X005426Y018937D01*
X005426Y019072D02*
X005606Y019072D01*
X004501Y019112D02*
X004501Y018909D01*
X004501Y019112D02*
X004096Y019112D01*
X003702Y019112D02*
X003298Y019112D01*
X002904Y019112D02*
X002499Y019112D01*
X002106Y019112D02*
X001701Y019112D01*
X001701Y018909D01*
X001701Y018515D02*
X001701Y018312D01*
X002106Y018312D01*
X002499Y018312D02*
X002904Y018312D01*
X003298Y018312D02*
X003702Y018312D01*
X004096Y018312D02*
X004501Y018312D01*
X004501Y018515D01*
X010201Y001612D02*
X010606Y001612D01*
X010999Y001612D02*
X011404Y001612D01*
X011798Y001612D02*
X012202Y001612D01*
X012596Y001612D02*
X013001Y001612D01*
X013001Y001409D01*
X013001Y001015D02*
X013001Y000812D01*
X012596Y000812D01*
X012202Y000812D02*
X011798Y000812D01*
X011404Y000812D02*
X010999Y000812D01*
X010606Y000812D02*
X010201Y000812D01*
X010201Y001015D01*
X010201Y001409D02*
X010201Y001612D01*
D13*
X013024Y014481D02*
X012979Y014559D01*
X012980Y014559D02*
X013024Y014587D01*
X013066Y014618D01*
X013106Y014651D01*
X013144Y014687D01*
X013179Y014726D01*
X013211Y014767D01*
X013241Y014811D01*
X013267Y014856D01*
X013290Y014903D01*
X013310Y014951D01*
X013326Y015001D01*
X013339Y015051D01*
X013348Y015103D01*
X013354Y015155D01*
X013356Y015207D01*
X013445Y015208D01*
X013446Y015207D01*
X013444Y015152D01*
X013438Y015098D01*
X013429Y015043D01*
X013416Y014990D01*
X013400Y014938D01*
X013381Y014886D01*
X013358Y014836D01*
X013332Y014788D01*
X013303Y014741D01*
X013271Y014697D01*
X013236Y014654D01*
X013198Y014614D01*
X013158Y014577D01*
X013116Y014542D01*
X013071Y014510D01*
X013025Y014481D01*
X013020Y014489D01*
X013066Y014517D01*
X013110Y014549D01*
X013152Y014584D01*
X013192Y014621D01*
X013229Y014660D01*
X013264Y014702D01*
X013295Y014746D01*
X013324Y014792D01*
X013350Y014840D01*
X013372Y014890D01*
X013392Y014940D01*
X013408Y014992D01*
X013420Y015045D01*
X013429Y015099D01*
X013435Y015153D01*
X013437Y015207D01*
X013428Y015207D01*
X013426Y015153D01*
X013420Y015100D01*
X013411Y015047D01*
X013399Y014995D01*
X013383Y014943D01*
X013364Y014893D01*
X013342Y014844D01*
X013316Y014797D01*
X013288Y014751D01*
X013256Y014708D01*
X013222Y014666D01*
X013186Y014627D01*
X013146Y014590D01*
X013105Y014556D01*
X013061Y014525D01*
X013016Y014496D01*
X013011Y014504D01*
X013059Y014534D01*
X013105Y014568D01*
X013148Y014604D01*
X013189Y014644D01*
X013227Y014686D01*
X013262Y014730D01*
X013294Y014777D01*
X013322Y014826D01*
X013347Y014877D01*
X013369Y014930D01*
X013386Y014983D01*
X013400Y015038D01*
X013410Y015094D01*
X013417Y015150D01*
X013419Y015207D01*
X013410Y015207D01*
X013408Y015151D01*
X013402Y015095D01*
X013392Y015040D01*
X013378Y014986D01*
X013360Y014933D01*
X013339Y014881D01*
X013314Y014830D01*
X013286Y014782D01*
X013255Y014736D01*
X013220Y014691D01*
X013183Y014650D01*
X013142Y014611D01*
X013100Y014575D01*
X013054Y014542D01*
X013007Y014512D01*
X013002Y014520D01*
X013049Y014549D01*
X013094Y014582D01*
X013136Y014618D01*
X013176Y014656D01*
X013213Y014697D01*
X013248Y014741D01*
X013279Y014787D01*
X013306Y014835D01*
X013331Y014884D01*
X013352Y014936D01*
X013369Y014988D01*
X013383Y015042D01*
X013393Y015097D01*
X013399Y015152D01*
X013401Y015207D01*
X013392Y015207D01*
X013390Y015152D01*
X013384Y015098D01*
X013374Y015044D01*
X013360Y014991D01*
X013343Y014939D01*
X013323Y014888D01*
X013298Y014839D01*
X013271Y014792D01*
X013240Y014746D01*
X013207Y014703D01*
X013170Y014662D01*
X013130Y014624D01*
X013088Y014589D01*
X013044Y014557D01*
X012998Y014528D01*
X012993Y014536D01*
X013039Y014564D01*
X013083Y014596D01*
X013124Y014631D01*
X013163Y014669D01*
X013200Y014709D01*
X013233Y014751D01*
X013263Y014796D01*
X013291Y014843D01*
X013314Y014892D01*
X013335Y014942D01*
X013352Y014993D01*
X013365Y015046D01*
X013375Y015099D01*
X013381Y015153D01*
X013383Y015207D01*
X013374Y015207D01*
X013372Y015154D01*
X013366Y015100D01*
X013356Y015048D01*
X013343Y014996D01*
X013326Y014945D01*
X013306Y014895D01*
X013283Y014847D01*
X013256Y014801D01*
X013226Y014757D01*
X013193Y014715D01*
X013157Y014675D01*
X013118Y014638D01*
X013077Y014603D01*
X013034Y014572D01*
X012989Y014543D01*
X012984Y014551D01*
X013029Y014579D01*
X013072Y014610D01*
X013112Y014644D01*
X013150Y014681D01*
X013186Y014720D01*
X013218Y014762D01*
X013248Y014806D01*
X013275Y014852D01*
X013298Y014899D01*
X013318Y014948D01*
X013335Y014998D01*
X013348Y015050D01*
X013357Y015102D01*
X013363Y015154D01*
X013365Y015207D01*
X013445Y015216D02*
X013355Y015216D01*
X013356Y015217D02*
X013354Y015271D01*
X013348Y015324D01*
X013338Y015377D01*
X013324Y015429D01*
X013307Y015480D01*
X013286Y015530D01*
X013262Y015578D01*
X013234Y015624D01*
X013203Y015668D01*
X013169Y015709D01*
X013132Y015749D01*
X013093Y015785D01*
X013150Y015853D01*
X013151Y015854D01*
X013192Y015816D01*
X013230Y015776D01*
X013266Y015733D01*
X013299Y015688D01*
X013329Y015641D01*
X013355Y015593D01*
X013379Y015542D01*
X013399Y015490D01*
X013415Y015437D01*
X013429Y015383D01*
X013438Y015328D01*
X013444Y015273D01*
X013446Y015217D01*
X013437Y015217D01*
X013435Y015272D01*
X013429Y015327D01*
X013420Y015381D01*
X013407Y015435D01*
X013390Y015487D01*
X013371Y015539D01*
X013347Y015589D01*
X013321Y015637D01*
X013291Y015683D01*
X013259Y015728D01*
X013224Y015770D01*
X013185Y015810D01*
X013145Y015847D01*
X013139Y015840D01*
X013179Y015803D01*
X013217Y015764D01*
X013252Y015722D01*
X013284Y015678D01*
X013313Y015632D01*
X013339Y015584D01*
X013362Y015535D01*
X013382Y015484D01*
X013398Y015432D01*
X013411Y015379D01*
X013420Y015326D01*
X013426Y015271D01*
X013428Y015217D01*
X013419Y015217D01*
X013417Y015271D01*
X013411Y015324D01*
X013402Y015377D01*
X013389Y015430D01*
X013373Y015481D01*
X013354Y015532D01*
X013331Y015580D01*
X013306Y015628D01*
X013277Y015673D01*
X013245Y015717D01*
X013210Y015758D01*
X013173Y015797D01*
X013133Y015833D01*
X013127Y015826D01*
X013167Y015790D01*
X013204Y015752D01*
X013238Y015711D01*
X013269Y015668D01*
X013298Y015623D01*
X013323Y015576D01*
X013346Y015528D01*
X013365Y015478D01*
X013381Y015427D01*
X013393Y015376D01*
X013402Y015323D01*
X013408Y015270D01*
X013410Y015217D01*
X013401Y015217D01*
X013399Y015270D01*
X013393Y015322D01*
X013384Y015374D01*
X013372Y015425D01*
X013356Y015475D01*
X013337Y015525D01*
X013315Y015572D01*
X013290Y015619D01*
X013262Y015663D01*
X013231Y015705D01*
X013197Y015746D01*
X013160Y015784D01*
X013122Y015819D01*
X013116Y015813D01*
X013154Y015777D01*
X013190Y015740D01*
X013224Y015700D01*
X013254Y015658D01*
X013282Y015614D01*
X013307Y015568D01*
X013329Y015521D01*
X013348Y015472D01*
X013363Y015423D01*
X013376Y015372D01*
X013384Y015321D01*
X013390Y015269D01*
X013392Y015217D01*
X013383Y015217D01*
X013381Y015273D01*
X013374Y015328D01*
X013364Y015383D01*
X013350Y015437D01*
X013332Y015490D01*
X013310Y015541D01*
X013285Y015591D01*
X013256Y015639D01*
X013224Y015684D01*
X013189Y015727D01*
X013151Y015768D01*
X013110Y015806D01*
X013104Y015799D01*
X013145Y015762D01*
X013182Y015721D01*
X013217Y015679D01*
X013249Y015634D01*
X013277Y015586D01*
X013302Y015537D01*
X013324Y015486D01*
X013341Y015434D01*
X013355Y015381D01*
X013365Y015327D01*
X013372Y015272D01*
X013374Y015217D01*
X013365Y015217D01*
X013363Y015271D01*
X013357Y015326D01*
X013347Y015379D01*
X013333Y015432D01*
X013315Y015483D01*
X013294Y015533D01*
X013269Y015582D01*
X013241Y015629D01*
X013210Y015673D01*
X013176Y015715D01*
X013138Y015755D01*
X013098Y015792D01*
X011757Y015207D02*
X011847Y015207D01*
X011846Y015207D02*
X011848Y015153D01*
X011854Y015100D01*
X011864Y015047D01*
X011878Y014995D01*
X011895Y014944D01*
X011916Y014895D01*
X011940Y014847D01*
X011968Y014801D01*
X011999Y014757D01*
X012033Y014715D01*
X012069Y014676D01*
X012109Y014639D01*
X012151Y014606D01*
X012195Y014575D01*
X012241Y014548D01*
X012199Y014469D01*
X012150Y014497D01*
X012104Y014529D01*
X012059Y014564D01*
X012017Y014601D01*
X011978Y014642D01*
X011941Y014685D01*
X011907Y014730D01*
X011876Y014777D01*
X011849Y014827D01*
X011825Y014878D01*
X011804Y014930D01*
X011787Y014984D01*
X011774Y015039D01*
X011764Y015094D01*
X011758Y015151D01*
X011756Y015207D01*
X011765Y015207D01*
X011767Y015151D01*
X011773Y015096D01*
X011783Y015041D01*
X011796Y014986D01*
X011813Y014933D01*
X011833Y014881D01*
X011857Y014831D01*
X011884Y014782D01*
X011914Y014735D01*
X011948Y014690D01*
X011984Y014648D01*
X012023Y014608D01*
X012065Y014571D01*
X012109Y014536D01*
X012155Y014505D01*
X012203Y014477D01*
X012207Y014485D01*
X012160Y014513D01*
X012114Y014544D01*
X012071Y014578D01*
X012029Y014614D01*
X011991Y014654D01*
X011955Y014696D01*
X011922Y014740D01*
X011892Y014786D01*
X011865Y014835D01*
X011842Y014885D01*
X011821Y014936D01*
X011805Y014989D01*
X011792Y015042D01*
X011782Y015097D01*
X011776Y015152D01*
X011774Y015207D01*
X011783Y015207D01*
X011785Y015152D01*
X011791Y015098D01*
X011800Y015044D01*
X011813Y014991D01*
X011830Y014939D01*
X011850Y014888D01*
X011873Y014839D01*
X011900Y014791D01*
X011929Y014745D01*
X011962Y014701D01*
X011997Y014660D01*
X012036Y014621D01*
X012076Y014584D01*
X012119Y014551D01*
X012165Y014520D01*
X012212Y014493D01*
X012216Y014501D01*
X012169Y014528D01*
X012125Y014558D01*
X012082Y014591D01*
X012042Y014627D01*
X012004Y014666D01*
X011969Y014707D01*
X011937Y014750D01*
X011907Y014796D01*
X011881Y014843D01*
X011858Y014892D01*
X011838Y014942D01*
X011822Y014994D01*
X011809Y015046D01*
X011800Y015099D01*
X011794Y015153D01*
X011792Y015207D01*
X011801Y015207D01*
X011803Y015154D01*
X011809Y015100D01*
X011818Y015048D01*
X011831Y014996D01*
X011847Y014945D01*
X011866Y014895D01*
X011889Y014847D01*
X011915Y014800D01*
X011944Y014756D01*
X011976Y014713D01*
X012011Y014672D01*
X012048Y014634D01*
X012088Y014598D01*
X012130Y014565D01*
X012174Y014535D01*
X012220Y014508D01*
X012224Y014516D01*
X012179Y014543D01*
X012135Y014573D01*
X012094Y014605D01*
X012054Y014640D01*
X012017Y014678D01*
X011983Y014718D01*
X011951Y014761D01*
X011923Y014805D01*
X011897Y014851D01*
X011875Y014899D01*
X011855Y014948D01*
X011839Y014998D01*
X011827Y015050D01*
X011818Y015102D01*
X011812Y015154D01*
X011810Y015207D01*
X011819Y015207D01*
X011821Y015151D01*
X011828Y015096D01*
X011838Y015041D01*
X011852Y014987D01*
X011870Y014935D01*
X011891Y014883D01*
X011917Y014834D01*
X011945Y014786D01*
X011977Y014740D01*
X012012Y014697D01*
X012050Y014657D01*
X012091Y014619D01*
X012135Y014584D01*
X012181Y014553D01*
X012229Y014524D01*
X012233Y014532D01*
X012185Y014560D01*
X012140Y014591D01*
X012097Y014626D01*
X012057Y014663D01*
X012019Y014703D01*
X011984Y014746D01*
X011953Y014791D01*
X011924Y014838D01*
X011900Y014887D01*
X011878Y014938D01*
X011861Y014990D01*
X011847Y015043D01*
X011837Y015097D01*
X011830Y015152D01*
X011828Y015207D01*
X011837Y015207D01*
X011839Y015153D01*
X011845Y015099D01*
X011855Y015045D01*
X011869Y014993D01*
X011887Y014941D01*
X011908Y014891D01*
X011932Y014842D01*
X011960Y014796D01*
X011992Y014751D01*
X012026Y014709D01*
X012063Y014670D01*
X012103Y014633D01*
X012145Y014599D01*
X012190Y014568D01*
X012237Y014540D01*
X012057Y015857D02*
X012114Y015788D01*
X012114Y015789D02*
X012074Y015752D01*
X012036Y015713D01*
X012002Y015671D01*
X011970Y015627D01*
X011942Y015581D01*
X011917Y015532D01*
X011896Y015482D01*
X011878Y015431D01*
X011865Y015378D01*
X011855Y015325D01*
X011848Y015271D01*
X011846Y015217D01*
X011757Y015216D01*
X011756Y015217D01*
X011758Y015273D01*
X011764Y015329D01*
X011774Y015384D01*
X011787Y015439D01*
X011804Y015492D01*
X011824Y015545D01*
X011848Y015596D01*
X011875Y015645D01*
X011906Y015692D01*
X011939Y015737D01*
X011975Y015780D01*
X012014Y015820D01*
X012056Y015858D01*
X012062Y015851D01*
X012021Y015814D01*
X011982Y015774D01*
X011946Y015732D01*
X011913Y015687D01*
X011883Y015640D01*
X011856Y015592D01*
X011833Y015541D01*
X011812Y015489D01*
X011796Y015436D01*
X011783Y015382D01*
X011773Y015328D01*
X011767Y015273D01*
X011765Y015217D01*
X011774Y015217D01*
X011776Y015272D01*
X011782Y015327D01*
X011791Y015381D01*
X011804Y015434D01*
X011821Y015486D01*
X011841Y015538D01*
X011864Y015587D01*
X011891Y015636D01*
X011920Y015682D01*
X011953Y015726D01*
X011989Y015768D01*
X012027Y015807D01*
X012068Y015844D01*
X012073Y015837D01*
X012033Y015801D01*
X011995Y015762D01*
X011960Y015720D01*
X011928Y015677D01*
X011898Y015631D01*
X011872Y015583D01*
X011849Y015534D01*
X011829Y015484D01*
X011813Y015432D01*
X011800Y015379D01*
X011791Y015325D01*
X011785Y015271D01*
X011783Y015217D01*
X011792Y015217D01*
X011794Y015271D01*
X011800Y015324D01*
X011809Y015377D01*
X011822Y015429D01*
X011838Y015481D01*
X011857Y015531D01*
X011880Y015579D01*
X011906Y015626D01*
X011935Y015672D01*
X011967Y015715D01*
X012002Y015756D01*
X012039Y015794D01*
X012079Y015830D01*
X012085Y015823D01*
X012046Y015788D01*
X012009Y015750D01*
X011974Y015709D01*
X011943Y015666D01*
X011914Y015622D01*
X011888Y015575D01*
X011866Y015527D01*
X011846Y015478D01*
X011830Y015427D01*
X011818Y015375D01*
X011809Y015323D01*
X011803Y015270D01*
X011801Y015217D01*
X011810Y015217D01*
X011812Y015269D01*
X011818Y015322D01*
X011827Y015373D01*
X011839Y015424D01*
X011855Y015475D01*
X011874Y015524D01*
X011896Y015571D01*
X011922Y015617D01*
X011950Y015661D01*
X011981Y015703D01*
X012015Y015744D01*
X012052Y015781D01*
X012091Y015816D01*
X012097Y015810D01*
X012058Y015775D01*
X012022Y015737D01*
X011988Y015698D01*
X011957Y015656D01*
X011929Y015612D01*
X011904Y015567D01*
X011882Y015520D01*
X011863Y015472D01*
X011848Y015422D01*
X011835Y015372D01*
X011827Y015321D01*
X011821Y015269D01*
X011819Y015217D01*
X011828Y015217D01*
X011830Y015268D01*
X011835Y015319D01*
X011844Y015370D01*
X011856Y015420D01*
X011872Y015469D01*
X011890Y015516D01*
X011912Y015563D01*
X011937Y015608D01*
X011965Y015651D01*
X011995Y015692D01*
X012028Y015731D01*
X012064Y015768D01*
X012102Y015803D01*
X012108Y015796D01*
X012067Y015759D01*
X012029Y015719D01*
X011995Y015677D01*
X011963Y015632D01*
X011934Y015585D01*
X011909Y015536D01*
X011888Y015485D01*
X011870Y015434D01*
X011856Y015380D01*
X011846Y015326D01*
X011839Y015272D01*
X011837Y015217D01*
X012988Y014722D02*
X012957Y014762D01*
X012958Y014761D02*
X012993Y014792D01*
X013026Y014825D01*
X013056Y014860D01*
X013083Y014899D01*
X013107Y014939D01*
X013127Y014981D01*
X013144Y015024D01*
X013158Y015069D01*
X013168Y015114D01*
X013174Y015160D01*
X013176Y015207D01*
X013225Y015208D01*
X013226Y015207D01*
X013224Y015161D01*
X013218Y015114D01*
X013209Y015069D01*
X013197Y015024D01*
X013181Y014980D01*
X013162Y014937D01*
X013140Y014896D01*
X013115Y014857D01*
X013088Y014820D01*
X013057Y014785D01*
X013024Y014752D01*
X012989Y014722D01*
X012983Y014729D01*
X013018Y014759D01*
X013051Y014791D01*
X013081Y014825D01*
X013108Y014862D01*
X013133Y014901D01*
X013154Y014941D01*
X013173Y014983D01*
X013188Y015026D01*
X013201Y015071D01*
X013209Y015116D01*
X013215Y015161D01*
X013217Y015207D01*
X013208Y015207D01*
X013206Y015162D01*
X013201Y015117D01*
X013192Y015073D01*
X013180Y015029D01*
X013165Y014987D01*
X013146Y014945D01*
X013125Y014905D01*
X013101Y014867D01*
X013074Y014831D01*
X013044Y014797D01*
X013012Y014765D01*
X012978Y014736D01*
X012972Y014743D01*
X013009Y014775D01*
X013043Y014809D01*
X013074Y014846D01*
X013102Y014886D01*
X013127Y014928D01*
X013148Y014971D01*
X013166Y015016D01*
X013180Y015063D01*
X013190Y015110D01*
X013197Y015159D01*
X013199Y015207D01*
X013190Y015207D01*
X013188Y015159D01*
X013181Y015112D01*
X013171Y015065D01*
X013158Y015019D01*
X013140Y014975D01*
X013119Y014932D01*
X013095Y014891D01*
X013067Y014852D01*
X013036Y014815D01*
X013003Y014781D01*
X012967Y014750D01*
X012961Y014757D01*
X012997Y014788D01*
X013030Y014821D01*
X013060Y014857D01*
X013087Y014896D01*
X013111Y014936D01*
X013132Y014979D01*
X013149Y015022D01*
X013163Y015067D01*
X013173Y015113D01*
X013179Y015160D01*
X013181Y015207D01*
X013225Y015216D02*
X013175Y015216D01*
X013176Y015217D02*
X013174Y015264D01*
X013168Y015310D01*
X013158Y015355D01*
X013144Y015400D01*
X013127Y015443D01*
X013107Y015485D01*
X013083Y015525D01*
X013056Y015564D01*
X013026Y015599D01*
X012993Y015632D01*
X012958Y015663D01*
X012988Y015702D01*
X012989Y015702D01*
X013024Y015672D01*
X013057Y015639D01*
X013088Y015604D01*
X013115Y015567D01*
X013140Y015528D01*
X013162Y015487D01*
X013181Y015444D01*
X013197Y015400D01*
X013209Y015355D01*
X013218Y015310D01*
X013224Y015263D01*
X013226Y015217D01*
X013217Y015217D01*
X013215Y015263D01*
X013209Y015308D01*
X013201Y015353D01*
X013188Y015398D01*
X013173Y015441D01*
X013154Y015483D01*
X013133Y015523D01*
X013108Y015562D01*
X013081Y015599D01*
X013051Y015633D01*
X013018Y015665D01*
X012983Y015695D01*
X012978Y015688D01*
X013012Y015659D01*
X013044Y015627D01*
X013074Y015593D01*
X013101Y015557D01*
X013125Y015519D01*
X013146Y015479D01*
X013165Y015437D01*
X013180Y015395D01*
X013192Y015351D01*
X013201Y015307D01*
X013206Y015262D01*
X013208Y015217D01*
X013199Y015217D01*
X013197Y015265D01*
X013190Y015314D01*
X013180Y015361D01*
X013166Y015408D01*
X013148Y015453D01*
X013127Y015496D01*
X013102Y015538D01*
X013074Y015578D01*
X013043Y015615D01*
X013009Y015649D01*
X012972Y015681D01*
X012967Y015674D01*
X013003Y015643D01*
X013036Y015609D01*
X013067Y015572D01*
X013095Y015533D01*
X013119Y015492D01*
X013140Y015449D01*
X013158Y015405D01*
X013171Y015359D01*
X013181Y015312D01*
X013188Y015265D01*
X013190Y015217D01*
X013181Y015217D01*
X013179Y015264D01*
X013173Y015311D01*
X013163Y015357D01*
X013149Y015402D01*
X013132Y015445D01*
X013111Y015488D01*
X013087Y015528D01*
X013060Y015567D01*
X013030Y015603D01*
X012997Y015636D01*
X012961Y015667D01*
X011977Y015208D02*
X012027Y015208D01*
X012026Y015207D02*
X012028Y015163D01*
X012033Y015120D01*
X012042Y015077D01*
X012054Y015035D01*
X012069Y014995D01*
X012087Y014955D01*
X012108Y014917D01*
X012131Y014880D01*
X012158Y014845D01*
X012187Y014813D01*
X012218Y014783D01*
X012252Y014755D01*
X012223Y014716D01*
X012222Y014715D01*
X012185Y014745D01*
X012151Y014778D01*
X012120Y014813D01*
X012091Y014851D01*
X012065Y014891D01*
X012042Y014932D01*
X012022Y014976D01*
X012006Y015020D01*
X011993Y015066D01*
X011984Y015112D01*
X011978Y015160D01*
X011976Y015207D01*
X011985Y015207D01*
X011987Y015160D01*
X011993Y015114D01*
X012002Y015068D01*
X012015Y015023D01*
X012031Y014979D01*
X012050Y014937D01*
X012073Y014896D01*
X012098Y014856D01*
X012126Y014819D01*
X012158Y014784D01*
X012191Y014752D01*
X012227Y014722D01*
X012233Y014729D01*
X012197Y014759D01*
X012164Y014791D01*
X012133Y014825D01*
X012105Y014862D01*
X012080Y014900D01*
X012058Y014941D01*
X012039Y014982D01*
X012023Y015026D01*
X012011Y015070D01*
X012002Y015115D01*
X011996Y015161D01*
X011994Y015207D01*
X012003Y015207D01*
X012005Y015162D01*
X012011Y015117D01*
X012020Y015072D01*
X012032Y015029D01*
X012047Y014986D01*
X012066Y014945D01*
X012088Y014905D01*
X012113Y014867D01*
X012140Y014831D01*
X012171Y014797D01*
X012203Y014765D01*
X012238Y014737D01*
X012244Y014744D01*
X012209Y014772D01*
X012177Y014803D01*
X012147Y014837D01*
X012120Y014872D01*
X012096Y014909D01*
X012074Y014949D01*
X012056Y014989D01*
X012040Y015031D01*
X012028Y015074D01*
X012020Y015118D01*
X012014Y015162D01*
X012012Y015207D01*
X012021Y015207D01*
X012023Y015163D01*
X012028Y015119D01*
X012037Y015076D01*
X012049Y015034D01*
X012064Y014993D01*
X012082Y014953D01*
X012103Y014914D01*
X012127Y014877D01*
X012154Y014842D01*
X012183Y014809D01*
X012215Y014779D01*
X012249Y014751D01*
X012234Y015717D02*
X012263Y015676D01*
X012263Y015677D02*
X012228Y015649D01*
X012195Y015619D01*
X012164Y015586D01*
X012137Y015551D01*
X012112Y015514D01*
X012090Y015475D01*
X012071Y015435D01*
X012055Y015393D01*
X012043Y015350D01*
X012034Y015306D01*
X012028Y015262D01*
X012026Y015217D01*
X011977Y015216D01*
X011976Y015217D01*
X011978Y015266D01*
X011984Y015314D01*
X011994Y015362D01*
X012008Y015408D01*
X012025Y015454D01*
X012045Y015498D01*
X012069Y015540D01*
X012096Y015581D01*
X012127Y015619D01*
X012160Y015655D01*
X012195Y015688D01*
X012234Y015718D01*
X012239Y015710D01*
X012201Y015681D01*
X012166Y015648D01*
X012133Y015613D01*
X012104Y015575D01*
X012077Y015536D01*
X012053Y015494D01*
X012033Y015450D01*
X012016Y015406D01*
X012003Y015359D01*
X011993Y015312D01*
X011987Y015265D01*
X011985Y015217D01*
X011994Y015217D01*
X011996Y015264D01*
X012002Y015311D01*
X012012Y015357D01*
X012025Y015403D01*
X012041Y015447D01*
X012061Y015490D01*
X012085Y015531D01*
X012111Y015570D01*
X012140Y015607D01*
X012172Y015642D01*
X012207Y015674D01*
X012244Y015703D01*
X012249Y015696D01*
X012213Y015667D01*
X012179Y015635D01*
X012147Y015601D01*
X012118Y015565D01*
X012092Y015526D01*
X012069Y015486D01*
X012050Y015443D01*
X012033Y015400D01*
X012020Y015355D01*
X012011Y015310D01*
X012005Y015263D01*
X012003Y015217D01*
X012012Y015217D01*
X012014Y015263D01*
X012020Y015308D01*
X012029Y015353D01*
X012042Y015397D01*
X012058Y015440D01*
X012077Y015482D01*
X012100Y015521D01*
X012125Y015559D01*
X012154Y015595D01*
X012185Y015629D01*
X012219Y015660D01*
X012255Y015688D01*
X012260Y015681D01*
X012224Y015653D01*
X012191Y015623D01*
X012161Y015589D01*
X012133Y015554D01*
X012107Y015517D01*
X012085Y015477D01*
X012066Y015437D01*
X012050Y015394D01*
X012038Y015351D01*
X012029Y015307D01*
X012023Y015262D01*
X012021Y015217D01*
D14*
X011915Y019107D02*
X011721Y019107D01*
X011818Y019107D02*
X011818Y019397D01*
X011721Y019300D01*
X013121Y019349D02*
X013169Y019397D01*
X013266Y019397D01*
X013315Y019349D01*
X013315Y019300D01*
X013266Y019252D01*
X013315Y019203D01*
X013315Y019155D01*
X013266Y019107D01*
X013169Y019107D01*
X013121Y019155D01*
X013218Y019252D02*
X013266Y019252D01*
X003815Y019203D02*
X003815Y019155D01*
X003766Y019107D01*
X003669Y019107D01*
X003621Y019155D01*
X003718Y019252D02*
X003766Y019252D01*
X003815Y019203D01*
X003766Y019252D02*
X003815Y019300D01*
X003815Y019349D01*
X003766Y019397D01*
X003669Y019397D01*
X003621Y019349D01*
X002415Y019107D02*
X002221Y019107D01*
X002318Y019107D02*
X002318Y019397D01*
X002221Y019300D01*
X010818Y001897D02*
X010818Y001607D01*
X010721Y001607D02*
X010915Y001607D01*
X010721Y001800D02*
X010818Y001897D01*
X012121Y001849D02*
X012169Y001897D01*
X012266Y001897D01*
X012315Y001849D01*
X012315Y001800D01*
X012266Y001752D01*
X012315Y001703D01*
X012315Y001655D01*
X012266Y001607D01*
X012169Y001607D01*
X012121Y001655D01*
X012218Y001752D02*
X012266Y001752D01*
M02*
