%
M48
M72
T01C0.0276
T02C0.0320
T03C0.0520
T04C0.0591
T05C0.1260
%
T01
X9802Y7826
X7802Y9826
X5802Y9826
X5802Y11826
X7802Y11826
X7802Y14826
X6802Y14826
X4802Y14826
X3802Y14826
X5302Y16826
X5302Y17826
X5302Y18826
X7802Y18326
X7802Y17326
X10302Y18326
X12302Y18326
X15302Y18326
X16802Y18326
X16802Y16826
X15302Y16326
X15302Y15326
X16802Y15326
X16802Y13826
X15302Y13326
X15302Y12326
X16802Y12326
X16802Y10826
X15302Y10326
X15302Y9326
X16802Y9326
X16802Y7826
X15302Y7326
X13802Y7826
X20802Y7826
X20802Y9326
X20802Y10826
X20802Y12326
X20802Y13826
X20802Y15326
X20802Y16826
X20802Y18326
X22302Y18326
X24302Y18326
X25802Y18326
X26802Y18326
X27302Y16326
X25802Y16326
X23802Y15826
X22802Y15826
X22802Y13326
X23802Y13326
X25802Y12326
X25302Y11326
X23802Y10826
X22802Y10826
X25302Y9826
X27302Y9826
X27302Y11326
X27302Y12326
T02
X12802Y12826
X12802Y13826
X12802Y14826
X12802Y15826
X12802Y16826
X9802Y16826
X9802Y15826
X9802Y14826
X9802Y13826
X9802Y12826
X9802Y11826
X9802Y10826
X9802Y9826
X12802Y9826
X12802Y10826
X12802Y11826
T03
X1802Y14326
X1802Y16326
X28802Y16826
X30302Y15326
X28802Y13326
X30302Y11826
T04
X26771Y6826
X24802Y6826
X22834Y6826
X7771Y6826
X5802Y6826
X3834Y6826
T05
X1302Y6826
X1302Y18826
X29802Y18826
X29802Y6826
M30
