G75*
G70*
%OFA0B0*%
%FSLAX24Y24*%
%IPPOS*%
%LPD*%
%AMOC8*
5,1,8,0,0,1.08239X$1,22.5*
%
%ADD10C,0.0000*%
%ADD11C,0.0520*%
%ADD12C,0.0886*%
%ADD13C,0.0827*%
%ADD14C,0.0476*%
%ADD15OC8,0.0520*%
%ADD16OC8,0.1250*%
%ADD17C,0.0160*%
%ADD18C,0.0240*%
D10*
X000180Y000180D02*
X000180Y014680D01*
X011180Y014680D01*
X011180Y000180D01*
X000180Y000180D01*
D11*
X003680Y001170D02*
X003680Y001690D01*
X004680Y001690D02*
X004680Y001170D01*
X005680Y001170D02*
X005680Y001690D01*
X006680Y001690D02*
X006680Y001170D01*
X007680Y001170D02*
X007680Y001690D01*
X008680Y001690D02*
X008680Y001170D01*
X009680Y001170D02*
X009680Y001690D01*
X009680Y004170D02*
X009680Y004690D01*
X008680Y004690D02*
X008680Y004170D01*
X007680Y004170D02*
X007680Y004690D01*
X006680Y004690D02*
X006680Y004170D01*
X005680Y004170D02*
X005680Y004690D01*
X004680Y004690D02*
X004680Y004170D01*
X003680Y004170D02*
X003680Y004690D01*
D12*
X001680Y009430D03*
X005680Y009430D03*
X009680Y009430D03*
D13*
X009680Y008430D03*
X005680Y008430D03*
X001680Y008430D03*
D14*
X003680Y008430D03*
X003680Y011430D03*
X007680Y011430D03*
X007680Y008430D03*
D15*
X006680Y006430D03*
X004680Y006430D03*
X002680Y006430D03*
X002180Y003930D03*
X002180Y001930D03*
X008680Y006430D03*
D16*
X009180Y012930D03*
X007180Y012930D03*
X004180Y012930D03*
X002180Y012930D03*
D17*
X002794Y013653D02*
X003764Y013653D01*
X003847Y013735D02*
X003375Y013263D01*
X003375Y012980D01*
X004130Y012980D01*
X004130Y013735D01*
X003847Y013735D01*
X003606Y013494D02*
X002952Y013494D01*
X003111Y013336D02*
X003447Y013336D01*
X003375Y013177D02*
X003125Y013177D01*
X003125Y013321D02*
X002571Y013875D01*
X001789Y013875D01*
X001235Y013321D01*
X001235Y012539D01*
X001789Y011985D01*
X002503Y011985D01*
X003122Y011366D01*
X003122Y011319D01*
X003207Y011114D01*
X003364Y010957D01*
X003569Y010872D01*
X003791Y010872D01*
X003996Y010957D01*
X004029Y010990D01*
X007331Y010990D01*
X007364Y010957D01*
X007569Y010872D01*
X007791Y010872D01*
X007996Y010957D01*
X008153Y011114D01*
X008238Y011319D01*
X008238Y011541D01*
X008153Y011746D01*
X007996Y011903D01*
X007791Y011988D01*
X007574Y011988D01*
X008125Y012539D01*
X008125Y013321D01*
X007571Y013875D01*
X006789Y013875D01*
X006235Y013321D01*
X006235Y012539D01*
X006789Y011985D01*
X007562Y011985D01*
X007364Y011903D01*
X007331Y011870D01*
X004029Y011870D01*
X003996Y011903D01*
X003791Y011988D01*
X003744Y011988D01*
X003125Y012607D01*
X003125Y013321D01*
X003125Y013019D02*
X003375Y013019D01*
X003375Y012880D02*
X003375Y012597D01*
X003847Y012125D01*
X004130Y012125D01*
X004130Y012880D01*
X004230Y012880D01*
X004230Y012980D01*
X004985Y012980D01*
X004985Y013263D01*
X004513Y013735D01*
X004230Y013735D01*
X004230Y012980D01*
X004130Y012980D01*
X004130Y012880D01*
X003375Y012880D01*
X003375Y012860D02*
X003125Y012860D01*
X003125Y012702D02*
X003375Y012702D01*
X003429Y012543D02*
X003189Y012543D01*
X003348Y012385D02*
X003587Y012385D01*
X003506Y012226D02*
X003746Y012226D01*
X003665Y012068D02*
X006706Y012068D01*
X006548Y012226D02*
X004614Y012226D01*
X004513Y012125D02*
X004985Y012597D01*
X004985Y012880D01*
X004230Y012880D01*
X004230Y012125D01*
X004513Y012125D01*
X004230Y012226D02*
X004130Y012226D01*
X004130Y012385D02*
X004230Y012385D01*
X004230Y012543D02*
X004130Y012543D01*
X004130Y012702D02*
X004230Y012702D01*
X004230Y012860D02*
X004130Y012860D01*
X004130Y013019D02*
X004230Y013019D01*
X004230Y013177D02*
X004130Y013177D01*
X004130Y013336D02*
X004230Y013336D01*
X004230Y013494D02*
X004130Y013494D01*
X004130Y013653D02*
X004230Y013653D01*
X004596Y013653D02*
X006566Y013653D01*
X006408Y013494D02*
X004754Y013494D01*
X004913Y013336D02*
X006249Y013336D01*
X006235Y013177D02*
X004985Y013177D01*
X004985Y013019D02*
X006235Y013019D01*
X006235Y012860D02*
X004985Y012860D01*
X004985Y012702D02*
X006235Y012702D01*
X006235Y012543D02*
X004931Y012543D01*
X004773Y012385D02*
X006389Y012385D01*
X007379Y011909D02*
X003981Y011909D01*
X003997Y010958D02*
X007363Y010958D01*
X007997Y010958D02*
X010700Y010958D01*
X010700Y010800D02*
X000660Y010800D01*
X000660Y010958D02*
X003363Y010958D01*
X003206Y011117D02*
X000660Y011117D01*
X000660Y011275D02*
X003140Y011275D01*
X003054Y011434D02*
X000660Y011434D01*
X000660Y011592D02*
X002896Y011592D01*
X002737Y011751D02*
X000660Y011751D01*
X000660Y011909D02*
X002579Y011909D01*
X001706Y012068D02*
X000660Y012068D01*
X000660Y012226D02*
X001548Y012226D01*
X001389Y012385D02*
X000660Y012385D01*
X000660Y012543D02*
X001235Y012543D01*
X001235Y012702D02*
X000660Y012702D01*
X000660Y012860D02*
X001235Y012860D01*
X001235Y013019D02*
X000660Y013019D01*
X000660Y013177D02*
X001235Y013177D01*
X001249Y013336D02*
X000660Y013336D01*
X000660Y013494D02*
X001408Y013494D01*
X001566Y013653D02*
X000660Y013653D01*
X000660Y013811D02*
X001725Y013811D01*
X002635Y013811D02*
X006725Y013811D01*
X007635Y013811D02*
X008725Y013811D01*
X008789Y013875D02*
X008235Y013321D01*
X008235Y012539D01*
X008789Y011985D01*
X009571Y011985D01*
X010125Y012539D01*
X010125Y013321D01*
X009571Y013875D01*
X008789Y013875D01*
X008566Y013653D02*
X007794Y013653D01*
X007952Y013494D02*
X008408Y013494D01*
X008249Y013336D02*
X008111Y013336D01*
X008125Y013177D02*
X008235Y013177D01*
X008235Y013019D02*
X008125Y013019D01*
X008125Y012860D02*
X008235Y012860D01*
X008235Y012702D02*
X008125Y012702D01*
X008125Y012543D02*
X008235Y012543D01*
X008389Y012385D02*
X007971Y012385D01*
X007812Y012226D02*
X008548Y012226D01*
X008706Y012068D02*
X007654Y012068D01*
X007981Y011909D02*
X010700Y011909D01*
X010700Y011751D02*
X008148Y011751D01*
X008217Y011592D02*
X010700Y011592D01*
X010700Y011434D02*
X008238Y011434D01*
X008220Y011275D02*
X010700Y011275D01*
X010700Y011117D02*
X008154Y011117D01*
X009205Y009836D02*
X009147Y009756D01*
X009103Y009669D01*
X009072Y009576D01*
X009060Y009498D01*
X009612Y009498D01*
X009612Y009362D01*
X009060Y009362D01*
X009072Y009284D01*
X009103Y009191D01*
X009147Y009104D01*
X009205Y009024D01*
X009221Y009008D01*
X009058Y008845D01*
X008947Y008576D01*
X008947Y008319D01*
X008680Y008052D01*
X008238Y008494D01*
X008238Y008541D01*
X008153Y008746D01*
X007996Y008903D01*
X007791Y008988D01*
X007569Y008988D01*
X007364Y008903D01*
X007331Y008870D01*
X006277Y008870D01*
X006139Y009008D01*
X006155Y009024D01*
X006213Y009104D01*
X006257Y009191D01*
X006288Y009284D01*
X006300Y009362D01*
X005748Y009362D01*
X005748Y009498D01*
X005612Y009498D01*
X005612Y009362D01*
X005060Y009362D01*
X005072Y009284D01*
X005103Y009191D01*
X005147Y009104D01*
X005205Y009024D01*
X005221Y009008D01*
X005058Y008845D01*
X004947Y008576D01*
X004947Y008284D01*
X005058Y008015D01*
X005265Y007808D01*
X005534Y007697D01*
X005826Y007697D01*
X006095Y007808D01*
X006277Y007990D01*
X007331Y007990D01*
X007364Y007957D01*
X007569Y007872D01*
X007616Y007872D01*
X008240Y007248D01*
X008240Y006810D01*
X008100Y006670D01*
X008100Y006190D01*
X008440Y005850D01*
X008638Y005850D01*
X009240Y005248D01*
X009240Y005070D01*
X009188Y005019D01*
X009180Y004999D01*
X009172Y005019D01*
X009009Y005182D01*
X008795Y005270D01*
X008565Y005270D01*
X008351Y005182D01*
X008188Y005019D01*
X008180Y004999D01*
X008172Y005019D01*
X008009Y005182D01*
X007795Y005270D01*
X007565Y005270D01*
X007351Y005182D01*
X007188Y005019D01*
X007180Y004999D01*
X007172Y005019D01*
X007009Y005182D01*
X006795Y005270D01*
X006565Y005270D01*
X006351Y005182D01*
X006188Y005019D01*
X006180Y004999D01*
X006172Y005019D01*
X006009Y005182D01*
X005795Y005270D01*
X005565Y005270D01*
X005351Y005182D01*
X005188Y005019D01*
X005180Y004999D01*
X005172Y005019D01*
X005120Y005070D01*
X005120Y006050D01*
X005260Y006190D01*
X005260Y006670D01*
X005120Y006810D01*
X005120Y007518D01*
X005053Y007679D01*
X004238Y008494D01*
X004238Y008541D01*
X004153Y008746D01*
X003996Y008903D01*
X003791Y008988D01*
X003569Y008988D01*
X003364Y008903D01*
X003331Y008870D01*
X002277Y008870D01*
X002139Y009008D01*
X002155Y009024D01*
X002213Y009104D01*
X002257Y009191D01*
X002288Y009284D01*
X002300Y009362D01*
X001748Y009362D01*
X001748Y009498D01*
X001612Y009498D01*
X001612Y009362D01*
X001060Y009362D01*
X001072Y009284D01*
X001103Y009191D01*
X001147Y009104D01*
X001205Y009024D01*
X001221Y009008D01*
X001058Y008845D01*
X000947Y008576D01*
X000947Y008284D01*
X001058Y008015D01*
X001265Y007808D01*
X001534Y007697D01*
X001826Y007697D01*
X002095Y007808D01*
X002277Y007990D01*
X003331Y007990D01*
X003364Y007957D01*
X003569Y007872D01*
X003616Y007872D01*
X004240Y007248D01*
X004240Y006810D01*
X004100Y006670D01*
X004100Y006190D01*
X004240Y006050D01*
X004240Y005070D01*
X004188Y005019D01*
X004180Y004999D01*
X004172Y005019D01*
X004009Y005182D01*
X003795Y005270D01*
X003565Y005270D01*
X003351Y005182D01*
X003188Y005019D01*
X003100Y004805D01*
X003100Y004472D01*
X002998Y004370D01*
X002560Y004370D01*
X002420Y004510D01*
X001940Y004510D01*
X001600Y004170D01*
X001600Y003690D01*
X001940Y003350D01*
X002420Y003350D01*
X002560Y003490D01*
X003268Y003490D01*
X003429Y003557D01*
X003492Y003620D01*
X003565Y003590D01*
X003795Y003590D01*
X004009Y003678D01*
X004172Y003841D01*
X004180Y003861D01*
X004188Y003841D01*
X004351Y003678D01*
X004565Y003590D01*
X004795Y003590D01*
X005009Y003678D01*
X005172Y003841D01*
X005180Y003861D01*
X005188Y003841D01*
X005351Y003678D01*
X005565Y003590D01*
X005795Y003590D01*
X006009Y003678D01*
X006172Y003841D01*
X006180Y003861D01*
X006188Y003841D01*
X006351Y003678D01*
X006565Y003590D01*
X006795Y003590D01*
X007009Y003678D01*
X007172Y003841D01*
X007180Y003861D01*
X007188Y003841D01*
X007351Y003678D01*
X007565Y003590D01*
X007795Y003590D01*
X008009Y003678D01*
X008172Y003841D01*
X008180Y003861D01*
X008188Y003841D01*
X008204Y003826D01*
X007748Y003370D01*
X006342Y003370D01*
X006181Y003303D01*
X006057Y003179D01*
X005307Y002429D01*
X005240Y002268D01*
X005240Y002070D01*
X005188Y002019D01*
X005103Y001812D01*
X005088Y001859D01*
X005056Y001921D01*
X005016Y001977D01*
X004967Y002026D01*
X004911Y002066D01*
X004849Y002098D01*
X004783Y002119D01*
X004715Y002130D01*
X004680Y002130D01*
X004680Y001430D01*
X004680Y001430D01*
X004680Y000730D01*
X004715Y000730D01*
X004783Y000741D01*
X004849Y000762D01*
X004911Y000794D01*
X004967Y000834D01*
X005016Y000883D01*
X005056Y000939D01*
X005088Y001001D01*
X005103Y001048D01*
X005188Y000841D01*
X005351Y000678D01*
X005396Y000660D01*
X003964Y000660D01*
X004009Y000678D01*
X004172Y000841D01*
X004257Y001048D01*
X004272Y001001D01*
X004304Y000939D01*
X004344Y000883D01*
X004393Y000834D01*
X004449Y000794D01*
X004511Y000762D01*
X004577Y000741D01*
X004645Y000730D01*
X004680Y000730D01*
X004680Y001430D01*
X004680Y001430D01*
X004680Y002130D01*
X004645Y002130D01*
X004577Y002119D01*
X004511Y002098D01*
X004449Y002066D01*
X004393Y002026D01*
X004344Y001977D01*
X004304Y001921D01*
X004272Y001859D01*
X004257Y001812D01*
X004172Y002019D01*
X004009Y002182D01*
X003795Y002270D01*
X003565Y002270D01*
X003351Y002182D01*
X003188Y002019D01*
X003100Y001805D01*
X003100Y001055D01*
X003188Y000841D01*
X003351Y000678D01*
X003396Y000660D01*
X000660Y000660D01*
X000660Y014200D01*
X010700Y014200D01*
X010700Y000660D01*
X006964Y000660D01*
X007009Y000678D01*
X007172Y000841D01*
X007257Y001048D01*
X007272Y001001D01*
X007304Y000939D01*
X007344Y000883D01*
X007393Y000834D01*
X007449Y000794D01*
X007511Y000762D01*
X007577Y000741D01*
X007645Y000730D01*
X007680Y000730D01*
X007715Y000730D01*
X007783Y000741D01*
X007849Y000762D01*
X007911Y000794D01*
X007967Y000834D01*
X008016Y000883D01*
X008056Y000939D01*
X008088Y001001D01*
X008109Y001067D01*
X008120Y001135D01*
X008120Y001430D01*
X008120Y001725D01*
X008109Y001793D01*
X008088Y001859D01*
X008056Y001921D01*
X008016Y001977D01*
X007967Y002026D01*
X007911Y002066D01*
X007849Y002098D01*
X007783Y002119D01*
X007715Y002130D01*
X007680Y002130D01*
X007680Y001430D01*
X007680Y001430D01*
X008120Y001430D01*
X007680Y001430D01*
X007680Y001430D01*
X007680Y002130D01*
X007645Y002130D01*
X007577Y002119D01*
X007511Y002098D01*
X007449Y002066D01*
X007393Y002026D01*
X007344Y001977D01*
X007304Y001921D01*
X007272Y001859D01*
X007257Y001812D01*
X007172Y002019D01*
X007009Y002182D01*
X006795Y002270D01*
X006565Y002270D01*
X006351Y002182D01*
X006188Y002019D01*
X006180Y001999D01*
X006172Y002019D01*
X006156Y002034D01*
X006612Y002490D01*
X008018Y002490D01*
X008179Y002557D01*
X008929Y003307D01*
X009053Y003431D01*
X009120Y003592D01*
X009120Y003790D01*
X009172Y003841D01*
X009180Y003861D01*
X009188Y003841D01*
X009351Y003678D01*
X009565Y003590D01*
X009795Y003590D01*
X010009Y003678D01*
X010172Y003841D01*
X010260Y004055D01*
X010260Y004805D01*
X010172Y005019D01*
X010120Y005070D01*
X010120Y005518D01*
X010053Y005679D01*
X009260Y006472D01*
X009260Y006670D01*
X009120Y006810D01*
X009120Y007248D01*
X009569Y007697D01*
X009826Y007697D01*
X010095Y007808D01*
X010302Y008015D01*
X010413Y008284D01*
X010413Y008576D01*
X010302Y008845D01*
X010139Y009008D01*
X010155Y009024D01*
X010213Y009104D01*
X010257Y009191D01*
X010288Y009284D01*
X010300Y009362D01*
X009748Y009362D01*
X009748Y009498D01*
X009612Y009498D01*
X009612Y010050D01*
X009534Y010038D01*
X009441Y010007D01*
X009354Y009963D01*
X009274Y009905D01*
X009205Y009836D01*
X009218Y009849D02*
X006142Y009849D01*
X006155Y009836D02*
X006086Y009905D01*
X006006Y009963D01*
X005919Y010007D01*
X005826Y010038D01*
X005748Y010050D01*
X005748Y009498D01*
X006300Y009498D01*
X006288Y009576D01*
X006257Y009669D01*
X006213Y009756D01*
X006155Y009836D01*
X006247Y009690D02*
X009113Y009690D01*
X009065Y009532D02*
X006295Y009532D01*
X006265Y009215D02*
X009095Y009215D01*
X009182Y009056D02*
X006178Y009056D01*
X006250Y008898D02*
X007359Y008898D01*
X008001Y008898D02*
X009110Y008898D01*
X009014Y008739D02*
X008156Y008739D01*
X008221Y008581D02*
X008949Y008581D01*
X008947Y008422D02*
X008310Y008422D01*
X008469Y008264D02*
X008891Y008264D01*
X008733Y008105D02*
X008627Y008105D01*
X008017Y007471D02*
X005120Y007471D01*
X005120Y007313D02*
X008175Y007313D01*
X008240Y007154D02*
X005120Y007154D01*
X005120Y006996D02*
X008240Y006996D01*
X008240Y006837D02*
X006895Y006837D01*
X006862Y006870D02*
X006680Y006870D01*
X006680Y006430D01*
X007120Y006430D01*
X007120Y006612D01*
X006862Y006870D01*
X006680Y006870D02*
X006498Y006870D01*
X006240Y006612D01*
X006240Y006430D01*
X006680Y006430D01*
X006680Y006430D01*
X006680Y006430D01*
X007120Y006430D01*
X007120Y006248D01*
X006862Y005990D01*
X006680Y005990D01*
X006680Y006430D01*
X006680Y006430D01*
X006680Y006430D01*
X006680Y006870D01*
X006680Y006837D02*
X006680Y006837D01*
X006680Y006679D02*
X006680Y006679D01*
X006680Y006520D02*
X006680Y006520D01*
X006680Y006430D02*
X006240Y006430D01*
X006240Y006248D01*
X006498Y005990D01*
X006680Y005990D01*
X006680Y006430D01*
X006680Y006362D02*
X006680Y006362D01*
X006680Y006203D02*
X006680Y006203D01*
X006680Y006045D02*
X006680Y006045D01*
X006917Y006045D02*
X008245Y006045D01*
X008100Y006203D02*
X007075Y006203D01*
X007120Y006362D02*
X008100Y006362D01*
X008100Y006520D02*
X007120Y006520D01*
X007054Y006679D02*
X008108Y006679D01*
X008404Y005886D02*
X005120Y005886D01*
X005120Y005728D02*
X008760Y005728D01*
X008919Y005569D02*
X005120Y005569D01*
X005120Y005411D02*
X009077Y005411D01*
X009236Y005252D02*
X008839Y005252D01*
X008521Y005252D02*
X007839Y005252D01*
X008097Y005094D02*
X008263Y005094D01*
X007521Y005252D02*
X006839Y005252D01*
X007097Y005094D02*
X007263Y005094D01*
X006521Y005252D02*
X005839Y005252D01*
X006097Y005094D02*
X006263Y005094D01*
X006443Y006045D02*
X005120Y006045D01*
X005260Y006203D02*
X006285Y006203D01*
X006240Y006362D02*
X005260Y006362D01*
X005260Y006520D02*
X006240Y006520D01*
X006306Y006679D02*
X005252Y006679D01*
X005120Y006837D02*
X006465Y006837D01*
X006047Y007788D02*
X007700Y007788D01*
X007858Y007630D02*
X005074Y007630D01*
X004944Y007788D02*
X005313Y007788D01*
X005126Y007947D02*
X004786Y007947D01*
X004627Y008105D02*
X005021Y008105D01*
X004955Y008264D02*
X004469Y008264D01*
X004310Y008422D02*
X004947Y008422D01*
X004949Y008581D02*
X004221Y008581D01*
X004156Y008739D02*
X005014Y008739D01*
X005110Y008898D02*
X004001Y008898D01*
X003359Y008898D02*
X002250Y008898D01*
X002178Y009056D02*
X005182Y009056D01*
X005095Y009215D02*
X002265Y009215D01*
X002300Y009498D02*
X002288Y009576D01*
X002257Y009669D01*
X002213Y009756D01*
X002155Y009836D01*
X002086Y009905D01*
X002006Y009963D01*
X001919Y010007D01*
X001826Y010038D01*
X001748Y010050D01*
X001748Y009498D01*
X002300Y009498D01*
X002295Y009532D02*
X005065Y009532D01*
X005060Y009498D02*
X005072Y009576D01*
X005103Y009669D01*
X005147Y009756D01*
X005205Y009836D01*
X005274Y009905D01*
X005354Y009963D01*
X005441Y010007D01*
X005534Y010038D01*
X005612Y010050D01*
X005612Y009498D01*
X005060Y009498D01*
X005113Y009690D02*
X002247Y009690D01*
X002142Y009849D02*
X005218Y009849D01*
X005440Y010007D02*
X001920Y010007D01*
X001748Y010007D02*
X001612Y010007D01*
X001612Y010050D02*
X001534Y010038D01*
X001441Y010007D01*
X001354Y009963D01*
X001274Y009905D01*
X001205Y009836D01*
X001147Y009756D01*
X001103Y009669D01*
X001072Y009576D01*
X001060Y009498D01*
X001612Y009498D01*
X001612Y010050D01*
X001612Y009849D02*
X001748Y009849D01*
X001748Y009690D02*
X001612Y009690D01*
X001612Y009532D02*
X001748Y009532D01*
X001748Y009373D02*
X005612Y009373D01*
X005748Y009373D02*
X009612Y009373D01*
X009748Y009373D02*
X010700Y009373D01*
X010700Y009215D02*
X010265Y009215D01*
X010300Y009498D02*
X010288Y009576D01*
X010257Y009669D01*
X010213Y009756D01*
X010155Y009836D01*
X010086Y009905D01*
X010006Y009963D01*
X009919Y010007D01*
X009826Y010038D01*
X009748Y010050D01*
X009748Y009498D01*
X010300Y009498D01*
X010295Y009532D02*
X010700Y009532D01*
X010700Y009690D02*
X010247Y009690D01*
X010142Y009849D02*
X010700Y009849D01*
X010700Y010007D02*
X009920Y010007D01*
X009748Y010007D02*
X009612Y010007D01*
X009612Y009849D02*
X009748Y009849D01*
X009748Y009690D02*
X009612Y009690D01*
X009612Y009532D02*
X009748Y009532D01*
X009440Y010007D02*
X005920Y010007D01*
X005748Y010007D02*
X005612Y010007D01*
X005612Y009849D02*
X005748Y009849D01*
X005748Y009690D02*
X005612Y009690D01*
X005612Y009532D02*
X005748Y009532D01*
X006234Y007947D02*
X007390Y007947D01*
X009120Y007154D02*
X010700Y007154D01*
X010700Y006996D02*
X009120Y006996D01*
X009120Y006837D02*
X010700Y006837D01*
X010700Y006679D02*
X009252Y006679D01*
X009260Y006520D02*
X010700Y006520D01*
X010700Y006362D02*
X009371Y006362D01*
X009529Y006203D02*
X010700Y006203D01*
X010700Y006045D02*
X009688Y006045D01*
X009846Y005886D02*
X010700Y005886D01*
X010700Y005728D02*
X010005Y005728D01*
X010099Y005569D02*
X010700Y005569D01*
X010700Y005411D02*
X010120Y005411D01*
X010120Y005252D02*
X010700Y005252D01*
X010700Y005094D02*
X010120Y005094D01*
X010206Y004935D02*
X010700Y004935D01*
X010700Y004777D02*
X010260Y004777D01*
X010260Y004618D02*
X010700Y004618D01*
X010700Y004460D02*
X010260Y004460D01*
X010260Y004301D02*
X010700Y004301D01*
X010700Y004143D02*
X010260Y004143D01*
X010231Y003984D02*
X010700Y003984D01*
X010700Y003826D02*
X010156Y003826D01*
X009981Y003667D02*
X010700Y003667D01*
X010700Y003509D02*
X009085Y003509D01*
X009120Y003667D02*
X009379Y003667D01*
X009204Y003826D02*
X009156Y003826D01*
X008972Y003350D02*
X010700Y003350D01*
X010700Y003192D02*
X008814Y003192D01*
X008655Y003033D02*
X010700Y003033D01*
X010700Y002875D02*
X008497Y002875D01*
X008338Y002716D02*
X010700Y002716D01*
X010700Y002558D02*
X008180Y002558D01*
X008449Y002066D02*
X008511Y002098D01*
X008577Y002119D01*
X008645Y002130D01*
X008680Y002130D01*
X008680Y001430D01*
X009120Y001430D01*
X009120Y001725D01*
X009109Y001793D01*
X009088Y001859D01*
X009056Y001921D01*
X009016Y001977D01*
X008967Y002026D01*
X008911Y002066D01*
X008849Y002098D01*
X008783Y002119D01*
X008715Y002130D01*
X008680Y002130D01*
X008680Y001430D01*
X008680Y001430D01*
X008680Y001430D01*
X009120Y001430D01*
X009120Y001135D01*
X009109Y001067D01*
X009088Y001001D01*
X009056Y000939D01*
X009016Y000883D01*
X008967Y000834D01*
X008911Y000794D01*
X008849Y000762D01*
X008783Y000741D01*
X008715Y000730D01*
X008680Y000730D01*
X008680Y001430D01*
X008680Y001430D01*
X008680Y001430D01*
X008240Y001430D01*
X008240Y001725D01*
X008251Y001793D01*
X008272Y001859D01*
X008304Y001921D01*
X008344Y001977D01*
X008393Y002026D01*
X008449Y002066D01*
X008480Y002082D02*
X007880Y002082D01*
X007680Y002082D02*
X007680Y002082D01*
X007680Y001924D02*
X007680Y001924D01*
X007680Y001765D02*
X007680Y001765D01*
X007680Y001607D02*
X007680Y001607D01*
X007680Y001448D02*
X007680Y001448D01*
X007680Y001430D02*
X007680Y000730D01*
X007680Y001430D01*
X007680Y001430D01*
X007680Y001290D02*
X007680Y001290D01*
X007680Y001131D02*
X007680Y001131D01*
X007680Y000973D02*
X007680Y000973D01*
X007680Y000814D02*
X007680Y000814D01*
X007939Y000814D02*
X008421Y000814D01*
X008393Y000834D02*
X008449Y000794D01*
X008511Y000762D01*
X008577Y000741D01*
X008645Y000730D01*
X008680Y000730D01*
X008680Y001430D01*
X008240Y001430D01*
X008240Y001135D01*
X008251Y001067D01*
X008272Y001001D01*
X008304Y000939D01*
X008344Y000883D01*
X008393Y000834D01*
X008287Y000973D02*
X008073Y000973D01*
X008119Y001131D02*
X008241Y001131D01*
X008240Y001290D02*
X008120Y001290D01*
X008120Y001448D02*
X008240Y001448D01*
X008240Y001607D02*
X008120Y001607D01*
X008114Y001765D02*
X008246Y001765D01*
X008306Y001924D02*
X008054Y001924D01*
X007480Y002082D02*
X007108Y002082D01*
X007211Y001924D02*
X007306Y001924D01*
X006867Y002241D02*
X010700Y002241D01*
X010700Y002399D02*
X006521Y002399D01*
X006493Y002241D02*
X006363Y002241D01*
X006252Y002082D02*
X006204Y002082D01*
X005594Y002716D02*
X000660Y002716D01*
X000660Y002558D02*
X005435Y002558D01*
X005294Y002399D02*
X000660Y002399D01*
X000660Y002241D02*
X001868Y002241D01*
X001740Y002112D02*
X001740Y001930D01*
X002180Y001930D01*
X002180Y001930D01*
X002180Y002370D01*
X002362Y002370D01*
X002620Y002112D01*
X002620Y001930D01*
X002180Y001930D01*
X002180Y001930D01*
X002180Y001930D01*
X002180Y002370D01*
X001998Y002370D01*
X001740Y002112D01*
X001740Y002082D02*
X000660Y002082D01*
X000660Y001924D02*
X001740Y001924D01*
X001740Y001930D02*
X001740Y001748D01*
X001998Y001490D01*
X002180Y001490D01*
X002362Y001490D01*
X002620Y001748D01*
X002620Y001930D01*
X002180Y001930D01*
X002180Y001490D01*
X002180Y001930D01*
X002180Y001930D01*
X001740Y001930D01*
X001740Y001765D02*
X000660Y001765D01*
X000660Y001607D02*
X001881Y001607D01*
X002180Y001607D02*
X002180Y001607D01*
X002180Y001765D02*
X002180Y001765D01*
X002180Y001924D02*
X002180Y001924D01*
X002180Y002082D02*
X002180Y002082D01*
X002180Y002241D02*
X002180Y002241D01*
X002492Y002241D02*
X003493Y002241D01*
X003252Y002082D02*
X002620Y002082D01*
X002620Y001924D02*
X003149Y001924D01*
X003100Y001765D02*
X002620Y001765D01*
X002479Y001607D02*
X003100Y001607D01*
X003100Y001448D02*
X000660Y001448D01*
X000660Y001290D02*
X003100Y001290D01*
X003100Y001131D02*
X000660Y001131D01*
X000660Y000973D02*
X003134Y000973D01*
X003216Y000814D02*
X000660Y000814D01*
X000660Y002875D02*
X005752Y002875D01*
X005911Y003033D02*
X000660Y003033D01*
X000660Y003192D02*
X006069Y003192D01*
X006294Y003350D02*
X002420Y003350D01*
X001940Y003350D02*
X000660Y003350D01*
X000660Y003509D02*
X001781Y003509D01*
X001623Y003667D02*
X000660Y003667D01*
X000660Y003826D02*
X001600Y003826D01*
X001600Y003984D02*
X000660Y003984D01*
X000660Y004143D02*
X001600Y004143D01*
X001731Y004301D02*
X000660Y004301D01*
X000660Y004460D02*
X001889Y004460D01*
X002471Y004460D02*
X003087Y004460D01*
X003100Y004618D02*
X000660Y004618D01*
X000660Y004777D02*
X003100Y004777D01*
X003154Y004935D02*
X000660Y004935D01*
X000660Y005094D02*
X003263Y005094D01*
X003521Y005252D02*
X000660Y005252D01*
X000660Y005411D02*
X004240Y005411D01*
X004240Y005569D02*
X000660Y005569D01*
X000660Y005728D02*
X004240Y005728D01*
X004240Y005886D02*
X000660Y005886D01*
X000660Y006045D02*
X002443Y006045D01*
X002498Y005990D02*
X002680Y005990D01*
X002862Y005990D01*
X003120Y006248D01*
X003120Y006430D01*
X003120Y006612D01*
X002862Y006870D01*
X002680Y006870D01*
X002680Y006430D01*
X003120Y006430D01*
X002680Y006430D01*
X002680Y006430D01*
X002680Y006430D01*
X002680Y005990D01*
X002680Y006430D01*
X002680Y006430D01*
X002680Y006430D01*
X002240Y006430D01*
X002240Y006612D01*
X002498Y006870D01*
X002680Y006870D01*
X002680Y006430D01*
X002240Y006430D01*
X002240Y006248D01*
X002498Y005990D01*
X002285Y006203D02*
X000660Y006203D01*
X000660Y006362D02*
X002240Y006362D01*
X002240Y006520D02*
X000660Y006520D01*
X000660Y006679D02*
X002306Y006679D01*
X002465Y006837D02*
X000660Y006837D01*
X000660Y006996D02*
X004240Y006996D01*
X004240Y007154D02*
X000660Y007154D01*
X000660Y007313D02*
X004175Y007313D01*
X004017Y007471D02*
X000660Y007471D01*
X000660Y007630D02*
X003858Y007630D01*
X003700Y007788D02*
X002047Y007788D01*
X002234Y007947D02*
X003390Y007947D01*
X002895Y006837D02*
X004240Y006837D01*
X004108Y006679D02*
X003054Y006679D01*
X003120Y006520D02*
X004100Y006520D01*
X004100Y006362D02*
X003120Y006362D01*
X003075Y006203D02*
X004100Y006203D01*
X004240Y006045D02*
X002917Y006045D01*
X002680Y006045D02*
X002680Y006045D01*
X002680Y006203D02*
X002680Y006203D01*
X002680Y006362D02*
X002680Y006362D01*
X002680Y006520D02*
X002680Y006520D01*
X002680Y006679D02*
X002680Y006679D01*
X002680Y006837D02*
X002680Y006837D01*
X003839Y005252D02*
X004240Y005252D01*
X004240Y005094D02*
X004097Y005094D01*
X005120Y005094D02*
X005263Y005094D01*
X005120Y005252D02*
X005521Y005252D01*
X005204Y003826D02*
X005156Y003826D01*
X004981Y003667D02*
X005379Y003667D01*
X005981Y003667D02*
X006379Y003667D01*
X006204Y003826D02*
X006156Y003826D01*
X006981Y003667D02*
X007379Y003667D01*
X007204Y003826D02*
X007156Y003826D01*
X007886Y003509D02*
X003312Y003509D01*
X003981Y003667D02*
X004379Y003667D01*
X004204Y003826D02*
X004156Y003826D01*
X003867Y002241D02*
X005240Y002241D01*
X005240Y002082D02*
X004880Y002082D01*
X004680Y002082D02*
X004680Y002082D01*
X004680Y001924D02*
X004680Y001924D01*
X004680Y001765D02*
X004680Y001765D01*
X004680Y001607D02*
X004680Y001607D01*
X004680Y001448D02*
X004680Y001448D01*
X004680Y001290D02*
X004680Y001290D01*
X004680Y001131D02*
X004680Y001131D01*
X004680Y000973D02*
X004680Y000973D01*
X004680Y000814D02*
X004680Y000814D01*
X004939Y000814D02*
X005216Y000814D01*
X005134Y000973D02*
X005073Y000973D01*
X004421Y000814D02*
X004144Y000814D01*
X004226Y000973D02*
X004287Y000973D01*
X004306Y001924D02*
X004211Y001924D01*
X004108Y002082D02*
X004480Y002082D01*
X005054Y001924D02*
X005149Y001924D01*
X007144Y000814D02*
X007421Y000814D01*
X007287Y000973D02*
X007226Y000973D01*
X008680Y000973D02*
X008680Y000973D01*
X008680Y001131D02*
X008680Y001131D01*
X008680Y001290D02*
X008680Y001290D01*
X008680Y001448D02*
X008680Y001448D01*
X008680Y001607D02*
X008680Y001607D01*
X008680Y001765D02*
X008680Y001765D01*
X008680Y001924D02*
X008680Y001924D01*
X008680Y002082D02*
X008680Y002082D01*
X008880Y002082D02*
X009480Y002082D01*
X009511Y002098D02*
X009449Y002066D01*
X009393Y002026D01*
X009344Y001977D01*
X009304Y001921D01*
X009272Y001859D01*
X009251Y001793D01*
X009240Y001725D01*
X009240Y001430D01*
X009680Y001430D01*
X010120Y001430D01*
X010120Y001725D01*
X010109Y001793D01*
X010088Y001859D01*
X010056Y001921D01*
X010016Y001977D01*
X009967Y002026D01*
X009911Y002066D01*
X009849Y002098D01*
X009783Y002119D01*
X009715Y002130D01*
X009680Y002130D01*
X009680Y001430D01*
X009680Y001430D01*
X009680Y001430D01*
X010120Y001430D01*
X010120Y001135D01*
X010109Y001067D01*
X010088Y001001D01*
X010056Y000939D01*
X010016Y000883D01*
X009967Y000834D01*
X009911Y000794D01*
X009849Y000762D01*
X009783Y000741D01*
X009715Y000730D01*
X009680Y000730D01*
X009680Y001430D01*
X009680Y001430D01*
X009680Y001430D01*
X009680Y002130D01*
X009645Y002130D01*
X009577Y002119D01*
X009511Y002098D01*
X009680Y002082D02*
X009680Y002082D01*
X009880Y002082D02*
X010700Y002082D01*
X010700Y001924D02*
X010054Y001924D01*
X010114Y001765D02*
X010700Y001765D01*
X010700Y001607D02*
X010120Y001607D01*
X010120Y001448D02*
X010700Y001448D01*
X010700Y001290D02*
X010120Y001290D01*
X010119Y001131D02*
X010700Y001131D01*
X010700Y000973D02*
X010073Y000973D01*
X009939Y000814D02*
X010700Y000814D01*
X009680Y000814D02*
X009680Y000814D01*
X009680Y000730D02*
X009645Y000730D01*
X009577Y000741D01*
X009511Y000762D01*
X009449Y000794D01*
X009393Y000834D01*
X009344Y000883D01*
X009304Y000939D01*
X009272Y001001D01*
X009251Y001067D01*
X009240Y001135D01*
X009240Y001430D01*
X009680Y001430D01*
X009680Y000730D01*
X009680Y000973D02*
X009680Y000973D01*
X009680Y001131D02*
X009680Y001131D01*
X009680Y001290D02*
X009680Y001290D01*
X009680Y001448D02*
X009680Y001448D01*
X009680Y001607D02*
X009680Y001607D01*
X009680Y001765D02*
X009680Y001765D01*
X009680Y001924D02*
X009680Y001924D01*
X009306Y001924D02*
X009054Y001924D01*
X009114Y001765D02*
X009246Y001765D01*
X009240Y001607D02*
X009120Y001607D01*
X009120Y001448D02*
X009240Y001448D01*
X009240Y001290D02*
X009120Y001290D01*
X009119Y001131D02*
X009241Y001131D01*
X009287Y000973D02*
X009073Y000973D01*
X008939Y000814D02*
X009421Y000814D01*
X008680Y000814D02*
X008680Y000814D01*
X008045Y003667D02*
X007981Y003667D01*
X008156Y003826D02*
X008203Y003826D01*
X009097Y005094D02*
X009240Y005094D01*
X009185Y007313D02*
X010700Y007313D01*
X010700Y007471D02*
X009343Y007471D01*
X009502Y007630D02*
X010700Y007630D01*
X010700Y007788D02*
X010047Y007788D01*
X010234Y007947D02*
X010700Y007947D01*
X010700Y008105D02*
X010339Y008105D01*
X010405Y008264D02*
X010700Y008264D01*
X010700Y008422D02*
X010413Y008422D01*
X010411Y008581D02*
X010700Y008581D01*
X010700Y008739D02*
X010346Y008739D01*
X010250Y008898D02*
X010700Y008898D01*
X010700Y009056D02*
X010178Y009056D01*
X010700Y010166D02*
X000660Y010166D01*
X000660Y010324D02*
X010700Y010324D01*
X010700Y010483D02*
X000660Y010483D01*
X000660Y010641D02*
X010700Y010641D01*
X010700Y012068D02*
X009654Y012068D01*
X009812Y012226D02*
X010700Y012226D01*
X010700Y012385D02*
X009971Y012385D01*
X010125Y012543D02*
X010700Y012543D01*
X010700Y012702D02*
X010125Y012702D01*
X010125Y012860D02*
X010700Y012860D01*
X010700Y013019D02*
X010125Y013019D01*
X010125Y013177D02*
X010700Y013177D01*
X010700Y013336D02*
X010111Y013336D01*
X009952Y013494D02*
X010700Y013494D01*
X010700Y013653D02*
X009794Y013653D01*
X009635Y013811D02*
X010700Y013811D01*
X010700Y013970D02*
X000660Y013970D01*
X000660Y014128D02*
X010700Y014128D01*
X001612Y009373D02*
X000660Y009373D01*
X000660Y009215D02*
X001095Y009215D01*
X001182Y009056D02*
X000660Y009056D01*
X000660Y008898D02*
X001110Y008898D01*
X001014Y008739D02*
X000660Y008739D01*
X000660Y008581D02*
X000949Y008581D01*
X000947Y008422D02*
X000660Y008422D01*
X000660Y008264D02*
X000955Y008264D01*
X001021Y008105D02*
X000660Y008105D01*
X000660Y007947D02*
X001126Y007947D01*
X001313Y007788D02*
X000660Y007788D01*
X000660Y009532D02*
X001065Y009532D01*
X001113Y009690D02*
X000660Y009690D01*
X000660Y009849D02*
X001218Y009849D01*
X001440Y010007D02*
X000660Y010007D01*
D18*
X001680Y008430D02*
X003680Y008430D01*
X004680Y007430D01*
X004680Y006430D01*
X004680Y004430D01*
X005680Y004430D01*
X006430Y002930D02*
X007930Y002930D01*
X008680Y003680D01*
X008680Y004430D01*
X009680Y004430D02*
X009680Y005430D01*
X008680Y006430D01*
X008680Y007430D01*
X007680Y008430D01*
X005680Y008430D01*
X003680Y011430D02*
X007680Y011430D01*
X009680Y008430D02*
X008680Y007430D01*
X006430Y002930D02*
X005680Y002180D01*
X005680Y001430D01*
X003180Y003930D02*
X003680Y004430D01*
X003180Y003930D02*
X002180Y003930D01*
X003680Y011430D02*
X002180Y012930D01*
M02*
