G75*
G70*
%OFA0B0*%
%FSLAX24Y24*%
%IPPOS*%
%LPD*%
%AMOC8*
5,1,8,0,0,1.08239X$1,22.5*
%
%ADD10C,0.0520*%
%ADD11C,0.1660*%
%ADD12C,0.0476*%
%ADD13OC8,0.0520*%
%ADD14OC8,0.1250*%
%ADD15C,0.0160*%
%ADD16C,0.0100*%
%ADD17C,0.0400*%
D10*
X004680Y008920D02*
X004680Y009440D01*
X005680Y009440D02*
X005680Y008920D01*
X006680Y008920D02*
X006680Y009440D01*
X007680Y009440D02*
X007680Y008920D01*
X008680Y008920D02*
X008680Y009440D01*
X009680Y009440D02*
X009680Y008920D01*
X010680Y008920D02*
X010680Y009440D01*
X010680Y011920D02*
X010680Y012440D01*
X009680Y012440D02*
X009680Y011920D01*
X008680Y011920D02*
X008680Y012440D01*
X007680Y012440D02*
X007680Y011920D01*
X006680Y011920D02*
X006680Y012440D01*
X005680Y012440D02*
X005680Y011920D01*
X004680Y011920D02*
X004680Y012440D01*
D11*
X005155Y002205D03*
X003305Y002205D03*
X008805Y002205D03*
X010655Y002205D03*
D12*
X011180Y007180D03*
X007180Y007180D03*
X006180Y007180D03*
X002180Y007180D03*
D13*
X003180Y005680D03*
X005180Y005680D03*
X008680Y005680D03*
X010680Y005680D03*
X003180Y009680D03*
X003180Y011680D03*
D14*
X001180Y011680D03*
X001180Y009180D03*
D15*
X000660Y008364D02*
X000660Y000660D01*
X013200Y000660D01*
X013200Y013700D01*
X000660Y013700D01*
X000660Y012496D01*
X000789Y012625D01*
X000850Y012625D01*
X000850Y013214D01*
X000906Y013350D01*
X001010Y013454D01*
X001146Y013510D01*
X007054Y013510D01*
X007190Y013454D01*
X007294Y013350D01*
X007623Y013020D01*
X007795Y013020D01*
X008009Y012932D01*
X008172Y012769D01*
X008180Y012749D01*
X008188Y012769D01*
X008351Y012932D01*
X008565Y013020D01*
X008795Y013020D01*
X009009Y012932D01*
X009172Y012769D01*
X009180Y012749D01*
X009188Y012769D01*
X009351Y012932D01*
X009565Y013020D01*
X009795Y013020D01*
X010009Y012932D01*
X010172Y012769D01*
X010180Y012749D01*
X010188Y012769D01*
X010351Y012932D01*
X010565Y013020D01*
X010795Y013020D01*
X011009Y012932D01*
X011172Y012769D01*
X011260Y012555D01*
X011260Y012183D01*
X011590Y011854D01*
X011590Y011854D01*
X011694Y011750D01*
X011750Y011614D01*
X011750Y007306D01*
X011738Y007277D01*
X011738Y007069D01*
X011653Y006864D01*
X011496Y006707D01*
X011291Y006622D01*
X011145Y006622D01*
X011110Y006587D01*
X011110Y006070D01*
X011260Y005920D01*
X011260Y005440D01*
X011110Y005290D01*
X011110Y003270D01*
X011361Y003125D01*
X011576Y002911D01*
X011727Y002649D01*
X011805Y002356D01*
X011805Y002054D01*
X011727Y001761D01*
X011576Y001499D01*
X011361Y001285D01*
X011099Y001133D01*
X010807Y001055D01*
X010504Y001055D01*
X010212Y001133D01*
X009949Y001285D01*
X009735Y001499D01*
X009648Y001649D01*
X009630Y001620D01*
X009559Y001531D01*
X009479Y001451D01*
X009390Y001380D01*
X009294Y001320D01*
X009192Y001270D01*
X009085Y001233D01*
X008974Y001208D01*
X008885Y001198D01*
X008885Y002125D01*
X008725Y002125D01*
X008725Y001198D01*
X008636Y001208D01*
X008525Y001233D01*
X008418Y001270D01*
X008316Y001320D01*
X008220Y001380D01*
X008131Y001451D01*
X008051Y001531D01*
X007980Y001620D01*
X007920Y001716D01*
X007870Y001818D01*
X007833Y001925D01*
X007808Y002036D01*
X007798Y002125D01*
X008725Y002125D01*
X008725Y002285D01*
X008725Y003212D01*
X008636Y003202D01*
X008525Y003177D01*
X008418Y003140D01*
X008316Y003090D01*
X008220Y003030D01*
X008131Y002959D01*
X008051Y002879D01*
X007980Y002790D01*
X007920Y002694D01*
X007870Y002592D01*
X007833Y002485D01*
X007808Y002374D01*
X007798Y002285D01*
X008725Y002285D01*
X008885Y002285D01*
X008885Y003212D01*
X008974Y003202D01*
X009085Y003177D01*
X009192Y003140D01*
X009294Y003090D01*
X009390Y003030D01*
X009479Y002959D01*
X009559Y002879D01*
X009630Y002790D01*
X009648Y002761D01*
X009735Y002911D01*
X009949Y003125D01*
X010212Y003277D01*
X010370Y003319D01*
X010370Y005170D01*
X010100Y005440D01*
X010100Y005920D01*
X010370Y006190D01*
X010370Y006814D01*
X010426Y006950D01*
X010530Y007054D01*
X010622Y007145D01*
X010622Y007291D01*
X010707Y007496D01*
X010864Y007653D01*
X011010Y007713D01*
X011010Y008628D01*
X010967Y008584D01*
X010911Y008544D01*
X010849Y008512D01*
X010783Y008491D01*
X010715Y008480D01*
X010680Y008480D01*
X010680Y009180D01*
X010680Y009180D01*
X010680Y009880D01*
X010715Y009880D01*
X010783Y009869D01*
X010849Y009848D01*
X010911Y009816D01*
X010967Y009776D01*
X011010Y009732D01*
X011010Y011387D01*
X010980Y011417D01*
X010795Y011340D01*
X010565Y011340D01*
X010351Y011428D01*
X010188Y011591D01*
X010180Y011611D01*
X010172Y011591D01*
X010070Y011490D01*
X010070Y011146D01*
X010014Y011010D01*
X009910Y010906D01*
X009774Y010850D01*
X008573Y010850D01*
X007743Y010020D01*
X007795Y010020D01*
X008009Y009932D01*
X008172Y009769D01*
X008257Y009562D01*
X008272Y009609D01*
X008304Y009671D01*
X008344Y009727D01*
X008393Y009776D01*
X008449Y009816D01*
X008511Y009848D01*
X008577Y009869D01*
X008645Y009880D01*
X008680Y009880D01*
X008680Y009180D01*
X008680Y009180D01*
X009120Y009180D01*
X009120Y009475D01*
X009109Y009543D01*
X009088Y009609D01*
X009056Y009671D01*
X009016Y009727D01*
X008967Y009776D01*
X008911Y009816D01*
X008849Y009848D01*
X008783Y009869D01*
X008715Y009880D01*
X008680Y009880D01*
X008680Y009180D01*
X008680Y009180D01*
X009120Y009180D01*
X009120Y008885D01*
X009109Y008817D01*
X009088Y008751D01*
X009056Y008689D01*
X009016Y008633D01*
X008967Y008584D01*
X008911Y008544D01*
X008849Y008512D01*
X008783Y008491D01*
X008715Y008480D01*
X008680Y008480D01*
X008680Y009180D01*
X008680Y009180D01*
X008680Y008480D01*
X008645Y008480D01*
X008577Y008491D01*
X008511Y008512D01*
X008449Y008544D01*
X008393Y008584D01*
X008344Y008633D01*
X008304Y008689D01*
X008272Y008751D01*
X008257Y008798D01*
X008172Y008591D01*
X008009Y008428D01*
X007795Y008340D01*
X007565Y008340D01*
X007351Y008428D01*
X007188Y008591D01*
X007180Y008611D01*
X007172Y008591D01*
X007009Y008428D01*
X006795Y008340D01*
X006565Y008340D01*
X006351Y008428D01*
X006188Y008591D01*
X006103Y008798D01*
X006088Y008751D01*
X006056Y008689D01*
X006016Y008633D01*
X005967Y008584D01*
X005911Y008544D01*
X005849Y008512D01*
X005783Y008491D01*
X005715Y008480D01*
X005680Y008480D01*
X005680Y009180D01*
X005680Y009180D01*
X005680Y008480D01*
X005645Y008480D01*
X005577Y008491D01*
X005511Y008512D01*
X005449Y008544D01*
X005393Y008584D01*
X005344Y008633D01*
X005304Y008689D01*
X005272Y008751D01*
X005257Y008798D01*
X005172Y008591D01*
X005009Y008428D01*
X004795Y008340D01*
X004565Y008340D01*
X004390Y008412D01*
X004390Y006710D01*
X005214Y006710D01*
X005350Y006654D01*
X005454Y006550D01*
X005510Y006414D01*
X005510Y006170D01*
X005760Y005920D01*
X005760Y005440D01*
X005590Y005270D01*
X005590Y003279D01*
X005599Y003277D01*
X005861Y003125D01*
X006076Y002911D01*
X006227Y002649D01*
X006305Y002356D01*
X006305Y002054D01*
X006227Y001761D01*
X006076Y001499D01*
X005861Y001285D01*
X005599Y001133D01*
X005307Y001055D01*
X005004Y001055D01*
X004712Y001133D01*
X004449Y001285D01*
X004235Y001499D01*
X004148Y001649D01*
X004130Y001620D01*
X004059Y001531D01*
X003979Y001451D01*
X003890Y001380D01*
X003794Y001320D01*
X003692Y001270D01*
X003585Y001233D01*
X003474Y001208D01*
X003385Y001198D01*
X003385Y002125D01*
X003225Y002125D01*
X003225Y001198D01*
X003136Y001208D01*
X003025Y001233D01*
X002918Y001270D01*
X002816Y001320D01*
X002720Y001380D01*
X002631Y001451D01*
X002551Y001531D01*
X002480Y001620D01*
X002420Y001716D01*
X002370Y001818D01*
X002333Y001925D01*
X002308Y002036D01*
X002298Y002125D01*
X003225Y002125D01*
X003225Y002285D01*
X003225Y003212D01*
X003136Y003202D01*
X003025Y003177D01*
X002918Y003140D01*
X002816Y003090D01*
X002720Y003030D01*
X002631Y002959D01*
X002551Y002879D01*
X002480Y002790D01*
X002420Y002694D01*
X002370Y002592D01*
X002333Y002485D01*
X002308Y002374D01*
X002298Y002285D01*
X003225Y002285D01*
X003385Y002285D01*
X003385Y003212D01*
X003474Y003202D01*
X003585Y003177D01*
X003692Y003140D01*
X003794Y003090D01*
X003890Y003030D01*
X003979Y002959D01*
X004059Y002879D01*
X004130Y002790D01*
X004148Y002761D01*
X004235Y002911D01*
X004449Y003125D01*
X004712Y003277D01*
X004850Y003314D01*
X004850Y005190D01*
X004600Y005440D01*
X004600Y005920D01*
X004650Y005970D01*
X003512Y005970D01*
X003620Y005862D01*
X003620Y005680D01*
X003180Y005680D01*
X003180Y005680D01*
X003620Y005680D01*
X003620Y005498D01*
X003362Y005240D01*
X003180Y005240D01*
X003180Y005680D01*
X003180Y005680D01*
X003180Y005680D01*
X002740Y005680D01*
X002740Y005862D01*
X002865Y005987D01*
X002770Y006026D01*
X002666Y006130D01*
X002175Y006622D01*
X002069Y006622D01*
X001864Y006707D01*
X001707Y006864D01*
X001622Y007069D01*
X001622Y007291D01*
X001707Y007496D01*
X001864Y007653D01*
X002069Y007738D01*
X002291Y007738D01*
X002496Y007653D01*
X002653Y007496D01*
X002738Y007291D01*
X002738Y007105D01*
X003133Y006710D01*
X003650Y006710D01*
X003650Y007740D01*
X003517Y007740D01*
X003325Y007819D01*
X003179Y007965D01*
X003100Y008157D01*
X003100Y008257D01*
X002290Y009066D01*
X002186Y009170D01*
X002130Y009306D01*
X002130Y010894D01*
X002186Y011030D01*
X002600Y011443D01*
X002600Y011920D01*
X002940Y012260D01*
X003257Y012260D01*
X003306Y012310D01*
X003306Y012310D01*
X003410Y012414D01*
X003546Y012470D01*
X004100Y012470D01*
X004100Y012555D01*
X004188Y012769D01*
X004190Y012770D01*
X001590Y012770D01*
X001590Y012606D01*
X002125Y012071D01*
X002125Y011289D01*
X001571Y010735D01*
X000789Y010735D01*
X000660Y010864D01*
X000660Y009996D01*
X000789Y010125D01*
X001571Y010125D01*
X002125Y009571D01*
X002125Y008789D01*
X001571Y008235D01*
X000789Y008235D01*
X000660Y008364D01*
X000660Y008264D02*
X000760Y008264D01*
X000660Y008105D02*
X003121Y008105D01*
X003093Y008264D02*
X001600Y008264D01*
X001758Y008422D02*
X002935Y008422D01*
X002776Y008581D02*
X001917Y008581D01*
X002075Y008739D02*
X002618Y008739D01*
X002459Y008898D02*
X002125Y008898D01*
X002125Y009056D02*
X002301Y009056D01*
X002168Y009215D02*
X002125Y009215D01*
X002125Y009373D02*
X002130Y009373D01*
X002125Y009532D02*
X002130Y009532D01*
X002130Y009690D02*
X002006Y009690D01*
X002130Y009849D02*
X001848Y009849D01*
X001689Y010007D02*
X002130Y010007D01*
X002130Y010166D02*
X000660Y010166D01*
X000660Y010324D02*
X002130Y010324D01*
X002130Y010483D02*
X000660Y010483D01*
X000660Y010641D02*
X002130Y010641D01*
X002130Y010800D02*
X001636Y010800D01*
X001794Y010958D02*
X002157Y010958D01*
X002273Y011117D02*
X001953Y011117D01*
X002111Y011275D02*
X002432Y011275D01*
X002590Y011434D02*
X002125Y011434D01*
X002125Y011592D02*
X002600Y011592D01*
X002600Y011751D02*
X002125Y011751D01*
X002125Y011909D02*
X002600Y011909D01*
X002747Y012068D02*
X002125Y012068D01*
X001970Y012226D02*
X002906Y012226D01*
X003381Y012385D02*
X001812Y012385D01*
X001653Y012543D02*
X004100Y012543D01*
X004161Y012702D02*
X001590Y012702D01*
X000850Y012702D02*
X000660Y012702D01*
X000660Y012860D02*
X000850Y012860D01*
X000850Y013019D02*
X000660Y013019D01*
X000660Y013177D02*
X000850Y013177D01*
X000901Y013336D02*
X000660Y013336D01*
X000660Y013494D02*
X001108Y013494D01*
X000660Y013653D02*
X013200Y013653D01*
X013200Y013494D02*
X007092Y013494D01*
X007308Y013336D02*
X013200Y013336D01*
X013200Y013177D02*
X007466Y013177D01*
X007799Y013019D02*
X008561Y013019D01*
X008799Y013019D02*
X009561Y013019D01*
X009799Y013019D02*
X010561Y013019D01*
X010799Y013019D02*
X013200Y013019D01*
X013200Y012860D02*
X011080Y012860D01*
X011199Y012702D02*
X013200Y012702D01*
X013200Y012543D02*
X011260Y012543D01*
X011260Y012385D02*
X013200Y012385D01*
X013200Y012226D02*
X011260Y012226D01*
X011376Y012068D02*
X013200Y012068D01*
X013200Y011909D02*
X011534Y011909D01*
X011693Y011751D02*
X013200Y011751D01*
X013200Y011592D02*
X011750Y011592D01*
X011750Y011434D02*
X013200Y011434D01*
X013200Y011275D02*
X011750Y011275D01*
X011750Y011117D02*
X013200Y011117D01*
X013200Y010958D02*
X011750Y010958D01*
X011750Y010800D02*
X013200Y010800D01*
X013200Y010641D02*
X011750Y010641D01*
X011750Y010483D02*
X013200Y010483D01*
X013200Y010324D02*
X011750Y010324D01*
X011750Y010166D02*
X013200Y010166D01*
X013200Y010007D02*
X011750Y010007D01*
X011750Y009849D02*
X013200Y009849D01*
X013200Y009690D02*
X011750Y009690D01*
X011750Y009532D02*
X013200Y009532D01*
X013200Y009373D02*
X011750Y009373D01*
X011750Y009215D02*
X013200Y009215D01*
X013200Y009056D02*
X011750Y009056D01*
X011750Y008898D02*
X013200Y008898D01*
X013200Y008739D02*
X011750Y008739D01*
X011750Y008581D02*
X013200Y008581D01*
X013200Y008422D02*
X011750Y008422D01*
X011750Y008264D02*
X013200Y008264D01*
X013200Y008105D02*
X011750Y008105D01*
X011750Y007947D02*
X013200Y007947D01*
X013200Y007788D02*
X011750Y007788D01*
X011750Y007630D02*
X013200Y007630D01*
X013200Y007471D02*
X011750Y007471D01*
X011750Y007313D02*
X013200Y007313D01*
X013200Y007154D02*
X011738Y007154D01*
X011707Y006996D02*
X013200Y006996D01*
X013200Y006837D02*
X011626Y006837D01*
X011427Y006679D02*
X013200Y006679D01*
X013200Y006520D02*
X011110Y006520D01*
X011110Y006362D02*
X013200Y006362D01*
X013200Y006203D02*
X011110Y006203D01*
X011136Y006045D02*
X013200Y006045D01*
X013200Y005886D02*
X011260Y005886D01*
X011260Y005728D02*
X013200Y005728D01*
X013200Y005569D02*
X011260Y005569D01*
X011231Y005411D02*
X013200Y005411D01*
X013200Y005252D02*
X011110Y005252D01*
X011110Y005094D02*
X013200Y005094D01*
X013200Y004935D02*
X011110Y004935D01*
X011110Y004777D02*
X013200Y004777D01*
X013200Y004618D02*
X011110Y004618D01*
X011110Y004460D02*
X013200Y004460D01*
X013200Y004301D02*
X011110Y004301D01*
X011110Y004143D02*
X013200Y004143D01*
X013200Y003984D02*
X011110Y003984D01*
X011110Y003826D02*
X013200Y003826D01*
X013200Y003667D02*
X011110Y003667D01*
X011110Y003509D02*
X013200Y003509D01*
X013200Y003350D02*
X011110Y003350D01*
X011247Y003192D02*
X013200Y003192D01*
X013200Y003033D02*
X011454Y003033D01*
X011597Y002875D02*
X013200Y002875D01*
X013200Y002716D02*
X011688Y002716D01*
X011751Y002558D02*
X013200Y002558D01*
X013200Y002399D02*
X011794Y002399D01*
X011805Y002241D02*
X013200Y002241D01*
X013200Y002082D02*
X011805Y002082D01*
X011770Y001924D02*
X013200Y001924D01*
X013200Y001765D02*
X011728Y001765D01*
X011638Y001607D02*
X013200Y001607D01*
X013200Y001448D02*
X011525Y001448D01*
X011366Y001290D02*
X013200Y001290D01*
X013200Y001131D02*
X011090Y001131D01*
X010221Y001131D02*
X005590Y001131D01*
X005866Y001290D02*
X008378Y001290D01*
X008134Y001448D02*
X006025Y001448D01*
X006138Y001607D02*
X007991Y001607D01*
X007896Y001765D02*
X006228Y001765D01*
X006270Y001924D02*
X007834Y001924D01*
X007803Y002082D02*
X006305Y002082D01*
X006305Y002241D02*
X008725Y002241D01*
X008725Y002399D02*
X008885Y002399D01*
X008885Y002558D02*
X008725Y002558D01*
X008725Y002716D02*
X008885Y002716D01*
X008885Y002875D02*
X008725Y002875D01*
X008725Y003033D02*
X008885Y003033D01*
X008885Y003192D02*
X008725Y003192D01*
X008589Y003192D02*
X005747Y003192D01*
X005590Y003350D02*
X010370Y003350D01*
X010370Y003509D02*
X005590Y003509D01*
X005590Y003667D02*
X010370Y003667D01*
X010370Y003826D02*
X005590Y003826D01*
X005590Y003984D02*
X010370Y003984D01*
X010370Y004143D02*
X005590Y004143D01*
X005590Y004301D02*
X010370Y004301D01*
X010370Y004460D02*
X005590Y004460D01*
X005590Y004618D02*
X010370Y004618D01*
X010370Y004777D02*
X005590Y004777D01*
X005590Y004935D02*
X010370Y004935D01*
X010370Y005094D02*
X005590Y005094D01*
X005590Y005252D02*
X008486Y005252D01*
X008498Y005240D02*
X008680Y005240D01*
X008862Y005240D01*
X009120Y005498D01*
X009120Y005680D01*
X009120Y005862D01*
X008862Y006120D01*
X008680Y006120D01*
X008680Y005680D01*
X009120Y005680D01*
X008680Y005680D01*
X008680Y005680D01*
X008680Y005680D01*
X008680Y005240D01*
X008680Y005680D01*
X008680Y005680D01*
X008680Y005680D01*
X008240Y005680D01*
X008240Y005862D01*
X008498Y006120D01*
X008680Y006120D01*
X008680Y005680D01*
X008240Y005680D01*
X008240Y005498D01*
X008498Y005240D01*
X008680Y005252D02*
X008680Y005252D01*
X008680Y005411D02*
X008680Y005411D01*
X008680Y005569D02*
X008680Y005569D01*
X008680Y005728D02*
X008680Y005728D01*
X008680Y005886D02*
X008680Y005886D01*
X008680Y006045D02*
X008680Y006045D01*
X008938Y006045D02*
X010224Y006045D01*
X010370Y006203D02*
X005510Y006203D01*
X005510Y006362D02*
X010370Y006362D01*
X010370Y006520D02*
X005466Y006520D01*
X005290Y006679D02*
X005933Y006679D01*
X005864Y006707D02*
X006069Y006622D01*
X006291Y006622D01*
X006496Y006707D01*
X006639Y006850D01*
X006721Y006850D01*
X006864Y006707D01*
X007069Y006622D01*
X007291Y006622D01*
X007496Y006707D01*
X007653Y006864D01*
X007738Y007069D01*
X007738Y007291D01*
X007653Y007496D01*
X007496Y007653D01*
X007291Y007738D01*
X007069Y007738D01*
X006864Y007653D01*
X006801Y007590D01*
X006559Y007590D01*
X006496Y007653D01*
X006291Y007738D01*
X006069Y007738D01*
X005864Y007653D01*
X005707Y007496D01*
X005622Y007291D01*
X005622Y007069D01*
X005707Y006864D01*
X005864Y006707D01*
X005734Y006837D02*
X004390Y006837D01*
X004390Y006996D02*
X005653Y006996D01*
X005622Y007154D02*
X004390Y007154D01*
X004390Y007313D02*
X005631Y007313D01*
X005697Y007471D02*
X004390Y007471D01*
X004390Y007630D02*
X005841Y007630D01*
X006519Y007630D02*
X006841Y007630D01*
X007519Y007630D02*
X010841Y007630D01*
X010697Y007471D02*
X007663Y007471D01*
X007729Y007313D02*
X010631Y007313D01*
X010622Y007154D02*
X007738Y007154D01*
X007707Y006996D02*
X010472Y006996D01*
X010380Y006837D02*
X007626Y006837D01*
X007427Y006679D02*
X010370Y006679D01*
X010100Y005886D02*
X009096Y005886D01*
X009120Y005728D02*
X010100Y005728D01*
X010100Y005569D02*
X009120Y005569D01*
X009033Y005411D02*
X010129Y005411D01*
X010288Y005252D02*
X008874Y005252D01*
X008327Y005411D02*
X005731Y005411D01*
X005760Y005569D02*
X008240Y005569D01*
X008240Y005728D02*
X005760Y005728D01*
X005760Y005886D02*
X008264Y005886D01*
X008422Y006045D02*
X005636Y006045D01*
X006427Y006679D02*
X006933Y006679D01*
X006734Y006837D02*
X006626Y006837D01*
X006367Y008422D02*
X004993Y008422D01*
X005161Y008581D02*
X005399Y008581D01*
X005278Y008739D02*
X005233Y008739D01*
X005680Y008739D02*
X005680Y008739D01*
X005680Y008581D02*
X005680Y008581D01*
X005680Y008898D02*
X005680Y008898D01*
X005680Y009056D02*
X005680Y009056D01*
X006082Y008739D02*
X006127Y008739D01*
X006199Y008581D02*
X005961Y008581D01*
X006993Y008422D02*
X007367Y008422D01*
X007199Y008581D02*
X007161Y008581D01*
X007993Y008422D02*
X011010Y008422D01*
X011010Y008264D02*
X004390Y008264D01*
X004390Y008105D02*
X011010Y008105D01*
X011010Y007947D02*
X004390Y007947D01*
X004390Y007788D02*
X011010Y007788D01*
X010680Y008480D02*
X010645Y008480D01*
X010577Y008491D01*
X010511Y008512D01*
X010449Y008544D01*
X010393Y008584D01*
X010344Y008633D01*
X010304Y008689D01*
X010272Y008751D01*
X010251Y008817D01*
X010240Y008885D01*
X010240Y009180D01*
X010680Y009180D01*
X010680Y009180D01*
X010680Y009180D01*
X010680Y009880D01*
X010645Y009880D01*
X010577Y009869D01*
X010511Y009848D01*
X010449Y009816D01*
X010393Y009776D01*
X010344Y009727D01*
X010304Y009671D01*
X010272Y009609D01*
X010251Y009543D01*
X010240Y009475D01*
X010240Y009180D01*
X010680Y009180D01*
X010680Y008480D01*
X010680Y008581D02*
X010680Y008581D01*
X010680Y008739D02*
X010680Y008739D01*
X010680Y008898D02*
X010680Y008898D01*
X010680Y009056D02*
X010680Y009056D01*
X010680Y009215D02*
X010680Y009215D01*
X010680Y009373D02*
X010680Y009373D01*
X010680Y009532D02*
X010680Y009532D01*
X010680Y009690D02*
X010680Y009690D01*
X010680Y009849D02*
X010680Y009849D01*
X010847Y009849D02*
X011010Y009849D01*
X011010Y010007D02*
X007827Y010007D01*
X007889Y010166D02*
X011010Y010166D01*
X011010Y010324D02*
X008047Y010324D01*
X008206Y010483D02*
X011010Y010483D01*
X011010Y010641D02*
X008364Y010641D01*
X008523Y010800D02*
X011010Y010800D01*
X011010Y010958D02*
X009961Y010958D01*
X010058Y011117D02*
X011010Y011117D01*
X011010Y011275D02*
X010070Y011275D01*
X010070Y011434D02*
X010346Y011434D01*
X010188Y011592D02*
X010172Y011592D01*
X010080Y012860D02*
X010280Y012860D01*
X009280Y012860D02*
X009080Y012860D01*
X008280Y012860D02*
X008080Y012860D01*
X008092Y009849D02*
X008513Y009849D01*
X008680Y009849D02*
X008680Y009849D01*
X008680Y009690D02*
X008680Y009690D01*
X008680Y009532D02*
X008680Y009532D01*
X008680Y009373D02*
X008680Y009373D01*
X008680Y009215D02*
X008680Y009215D01*
X008680Y009056D02*
X008680Y009056D01*
X008680Y008898D02*
X008680Y008898D01*
X008680Y008739D02*
X008680Y008739D01*
X008680Y008581D02*
X008680Y008581D01*
X008961Y008581D02*
X009399Y008581D01*
X009393Y008584D02*
X009449Y008544D01*
X009511Y008512D01*
X009577Y008491D01*
X009645Y008480D01*
X009680Y008480D01*
X009715Y008480D01*
X009783Y008491D01*
X009849Y008512D01*
X009911Y008544D01*
X009967Y008584D01*
X010016Y008633D01*
X010056Y008689D01*
X010088Y008751D01*
X010109Y008817D01*
X010120Y008885D01*
X010120Y009180D01*
X010120Y009475D01*
X010109Y009543D01*
X010088Y009609D01*
X010056Y009671D01*
X010016Y009727D01*
X009967Y009776D01*
X009911Y009816D01*
X009849Y009848D01*
X009783Y009869D01*
X009715Y009880D01*
X009680Y009880D01*
X009680Y009180D01*
X010120Y009180D01*
X009680Y009180D01*
X009680Y009180D01*
X009680Y009180D01*
X009680Y008480D01*
X009680Y009180D01*
X009680Y009180D01*
X009680Y009180D01*
X009240Y009180D01*
X009240Y009475D01*
X009251Y009543D01*
X009272Y009609D01*
X009304Y009671D01*
X009344Y009727D01*
X009393Y009776D01*
X009449Y009816D01*
X009511Y009848D01*
X009577Y009869D01*
X009645Y009880D01*
X009680Y009880D01*
X009680Y009180D01*
X009240Y009180D01*
X009240Y008885D01*
X009251Y008817D01*
X009272Y008751D01*
X009304Y008689D01*
X009344Y008633D01*
X009393Y008584D01*
X009278Y008739D02*
X009082Y008739D01*
X009120Y008898D02*
X009240Y008898D01*
X009240Y009056D02*
X009120Y009056D01*
X009120Y009215D02*
X009240Y009215D01*
X009240Y009373D02*
X009120Y009373D01*
X009111Y009532D02*
X009249Y009532D01*
X009318Y009690D02*
X009042Y009690D01*
X008847Y009849D02*
X009513Y009849D01*
X009680Y009849D02*
X009680Y009849D01*
X009680Y009690D02*
X009680Y009690D01*
X009680Y009532D02*
X009680Y009532D01*
X009680Y009373D02*
X009680Y009373D01*
X009680Y009215D02*
X009680Y009215D01*
X009680Y009056D02*
X009680Y009056D01*
X009680Y008898D02*
X009680Y008898D01*
X009680Y008739D02*
X009680Y008739D01*
X009680Y008581D02*
X009680Y008581D01*
X009961Y008581D02*
X010399Y008581D01*
X010278Y008739D02*
X010082Y008739D01*
X010120Y008898D02*
X010240Y008898D01*
X010240Y009056D02*
X010120Y009056D01*
X010120Y009215D02*
X010240Y009215D01*
X010240Y009373D02*
X010120Y009373D01*
X010111Y009532D02*
X010249Y009532D01*
X010318Y009690D02*
X010042Y009690D01*
X009847Y009849D02*
X010513Y009849D01*
X010961Y008581D02*
X011010Y008581D01*
X008399Y008581D02*
X008161Y008581D01*
X008233Y008739D02*
X008278Y008739D01*
X008318Y009690D02*
X008204Y009690D01*
X004577Y011340D02*
X003810Y010574D01*
X003706Y010470D01*
X003650Y010334D01*
X003650Y008780D01*
X003623Y008780D01*
X003163Y009240D01*
X003180Y009240D01*
X003362Y009240D01*
X003620Y009498D01*
X003620Y009680D01*
X003620Y009862D01*
X003362Y010120D01*
X003180Y010120D01*
X003180Y009680D01*
X003180Y009680D01*
X003620Y009680D01*
X003180Y009680D01*
X003180Y009680D01*
X003180Y010120D01*
X002998Y010120D01*
X002870Y009992D01*
X002870Y010667D01*
X003303Y011100D01*
X003420Y011100D01*
X003760Y011440D01*
X003760Y011717D01*
X003773Y011730D01*
X004131Y011730D01*
X004188Y011591D01*
X004351Y011428D01*
X004565Y011340D01*
X004577Y011340D01*
X004512Y011275D02*
X003595Y011275D01*
X003437Y011117D02*
X004353Y011117D01*
X004195Y010958D02*
X003161Y010958D01*
X003003Y010800D02*
X004036Y010800D01*
X003878Y010641D02*
X002870Y010641D01*
X002870Y010483D02*
X003719Y010483D01*
X003650Y010324D02*
X002870Y010324D01*
X002870Y010166D02*
X003650Y010166D01*
X003650Y010007D02*
X003475Y010007D01*
X003620Y009849D02*
X003650Y009849D01*
X003650Y009690D02*
X003620Y009690D01*
X003620Y009532D02*
X003650Y009532D01*
X003650Y009373D02*
X003495Y009373D01*
X003650Y009215D02*
X003189Y009215D01*
X003180Y009240D02*
X003180Y009680D01*
X003180Y009680D01*
X003180Y009240D01*
X003180Y009373D02*
X003180Y009373D01*
X003180Y009532D02*
X003180Y009532D01*
X003180Y009690D02*
X003180Y009690D01*
X003180Y009849D02*
X003180Y009849D01*
X003180Y010007D02*
X003180Y010007D01*
X002885Y010007D02*
X002870Y010007D01*
X003347Y009056D02*
X003650Y009056D01*
X003650Y008898D02*
X003506Y008898D01*
X003198Y007947D02*
X000660Y007947D01*
X000660Y007788D02*
X003401Y007788D01*
X003650Y007630D02*
X002519Y007630D01*
X002663Y007471D02*
X003650Y007471D01*
X003650Y007313D02*
X002729Y007313D01*
X002738Y007154D02*
X003650Y007154D01*
X003650Y006996D02*
X002848Y006996D01*
X003006Y006837D02*
X003650Y006837D01*
X003596Y005886D02*
X004600Y005886D01*
X004600Y005728D02*
X003620Y005728D01*
X003620Y005569D02*
X004600Y005569D01*
X004629Y005411D02*
X003533Y005411D01*
X003374Y005252D02*
X004788Y005252D01*
X004850Y005094D02*
X000660Y005094D01*
X000660Y005252D02*
X002986Y005252D01*
X002998Y005240D02*
X003180Y005240D01*
X003180Y005680D01*
X002740Y005680D01*
X002740Y005498D01*
X002998Y005240D01*
X003180Y005252D02*
X003180Y005252D01*
X003180Y005411D02*
X003180Y005411D01*
X003180Y005569D02*
X003180Y005569D01*
X002827Y005411D02*
X000660Y005411D01*
X000660Y005569D02*
X002740Y005569D01*
X002740Y005728D02*
X000660Y005728D01*
X000660Y005886D02*
X002764Y005886D01*
X002752Y006045D02*
X000660Y006045D01*
X000660Y006203D02*
X002594Y006203D01*
X002435Y006362D02*
X000660Y006362D01*
X000660Y006520D02*
X002277Y006520D01*
X001933Y006679D02*
X000660Y006679D01*
X000660Y006837D02*
X001734Y006837D01*
X001653Y006996D02*
X000660Y006996D01*
X000660Y007154D02*
X001622Y007154D01*
X001631Y007313D02*
X000660Y007313D01*
X000660Y007471D02*
X001697Y007471D01*
X001841Y007630D02*
X000660Y007630D01*
X000660Y010007D02*
X000671Y010007D01*
X000660Y010800D02*
X000724Y010800D01*
X000707Y012543D02*
X000660Y012543D01*
X003760Y011592D02*
X004188Y011592D01*
X004346Y011434D02*
X003754Y011434D01*
X004850Y004935D02*
X000660Y004935D01*
X000660Y004777D02*
X004850Y004777D01*
X004850Y004618D02*
X000660Y004618D01*
X000660Y004460D02*
X004850Y004460D01*
X004850Y004301D02*
X000660Y004301D01*
X000660Y004143D02*
X004850Y004143D01*
X004850Y003984D02*
X000660Y003984D01*
X000660Y003826D02*
X004850Y003826D01*
X004850Y003667D02*
X000660Y003667D01*
X000660Y003509D02*
X004850Y003509D01*
X004850Y003350D02*
X000660Y003350D01*
X000660Y003192D02*
X003089Y003192D01*
X003225Y003192D02*
X003385Y003192D01*
X003521Y003192D02*
X004564Y003192D01*
X004357Y003033D02*
X003885Y003033D01*
X004063Y002875D02*
X004214Y002875D01*
X003385Y002875D02*
X003225Y002875D01*
X003225Y003033D02*
X003385Y003033D01*
X003385Y002716D02*
X003225Y002716D01*
X003225Y002558D02*
X003385Y002558D01*
X003385Y002399D02*
X003225Y002399D01*
X003225Y002241D02*
X000660Y002241D01*
X000660Y002399D02*
X002313Y002399D01*
X002358Y002558D02*
X000660Y002558D01*
X000660Y002716D02*
X002433Y002716D01*
X002547Y002875D02*
X000660Y002875D01*
X000660Y003033D02*
X002725Y003033D01*
X002303Y002082D02*
X000660Y002082D01*
X000660Y001924D02*
X002334Y001924D01*
X002396Y001765D02*
X000660Y001765D01*
X000660Y001607D02*
X002491Y001607D01*
X002634Y001448D02*
X000660Y001448D01*
X000660Y001290D02*
X002878Y001290D01*
X003225Y001290D02*
X003385Y001290D01*
X003385Y001448D02*
X003225Y001448D01*
X003225Y001607D02*
X003385Y001607D01*
X003385Y001765D02*
X003225Y001765D01*
X003225Y001924D02*
X003385Y001924D01*
X003385Y002082D02*
X003225Y002082D01*
X003976Y001448D02*
X004286Y001448D01*
X004173Y001607D02*
X004119Y001607D01*
X004445Y001290D02*
X003732Y001290D01*
X004721Y001131D02*
X000660Y001131D01*
X000660Y000973D02*
X013200Y000973D01*
X013200Y000814D02*
X000660Y000814D01*
X005954Y003033D02*
X008225Y003033D01*
X008047Y002875D02*
X006097Y002875D01*
X006188Y002716D02*
X007933Y002716D01*
X007858Y002558D02*
X006251Y002558D01*
X006294Y002399D02*
X007813Y002399D01*
X008725Y002082D02*
X008885Y002082D01*
X008885Y001924D02*
X008725Y001924D01*
X008725Y001765D02*
X008885Y001765D01*
X008885Y001607D02*
X008725Y001607D01*
X008725Y001448D02*
X008885Y001448D01*
X008885Y001290D02*
X008725Y001290D01*
X009232Y001290D02*
X009945Y001290D01*
X009786Y001448D02*
X009476Y001448D01*
X009619Y001607D02*
X009673Y001607D01*
X009714Y002875D02*
X009563Y002875D01*
X009385Y003033D02*
X009857Y003033D01*
X010064Y003192D02*
X009021Y003192D01*
D16*
X010660Y002260D02*
X010655Y002205D01*
X010660Y002260D02*
X010740Y002340D01*
X010740Y005620D01*
X010680Y005680D01*
X010740Y005700D01*
X010740Y006740D01*
X011180Y007180D01*
X011380Y007380D01*
X011380Y011540D01*
X010740Y012180D01*
X010680Y012180D01*
X009700Y012180D02*
X009700Y011220D01*
X008420Y011220D01*
X006820Y009620D01*
X006820Y009300D01*
X006740Y009220D01*
X006680Y009180D01*
X006580Y010100D02*
X004820Y010100D01*
X004820Y009700D01*
X004740Y009620D01*
X004740Y009220D01*
X004680Y009180D01*
X003620Y008260D02*
X002500Y009380D01*
X002500Y010820D01*
X003140Y011460D01*
X003140Y011620D01*
X003180Y011680D01*
X003220Y011700D01*
X003620Y012100D01*
X004660Y012100D01*
X004660Y012180D01*
X004680Y012180D01*
X005540Y012100D02*
X005540Y011780D01*
X004020Y010260D01*
X004020Y006340D01*
X002980Y006340D01*
X002180Y007140D01*
X002180Y007180D01*
X004020Y006340D02*
X005140Y006340D01*
X005140Y005700D01*
X005180Y005680D01*
X005220Y005620D01*
X005220Y002260D01*
X005155Y002205D01*
X006180Y007180D02*
X006180Y007220D01*
X007140Y007220D01*
X007180Y007180D01*
X006580Y010100D02*
X008660Y012180D01*
X008680Y012180D01*
X007680Y012180D02*
X007620Y012180D01*
X007540Y012260D01*
X007540Y012580D01*
X006980Y013140D01*
X001220Y013140D01*
X001220Y011700D01*
X001180Y011680D01*
X005540Y012100D02*
X005620Y012180D01*
X005680Y012180D01*
X006680Y012180D01*
X009680Y012180D02*
X009700Y012180D01*
D17*
X003620Y008260D03*
M02*
