G75*
G70*
%OFA0B0*%
%FSLAX24Y24*%
%IPPOS*%
%LPD*%
%AMOC8*
5,1,8,0,0,1.08239X$1,22.5*
%
%ADD10C,0.0476*%
%ADD11R,0.0476X0.0476*%
%ADD12C,0.0554*%
%ADD13R,0.0554X0.0554*%
%ADD14OC8,0.0476*%
%ADD15C,0.0100*%
D10*
X001801Y009501D03*
X001801Y011001D03*
X003801Y011001D03*
X003801Y009501D03*
X006801Y009501D03*
X006801Y011001D03*
X008801Y011001D03*
X008801Y009501D03*
X011801Y009501D03*
X011801Y011001D03*
X013801Y011001D03*
X013801Y009501D03*
X016801Y009501D03*
X016801Y011001D03*
X018801Y011001D03*
X018801Y009501D03*
X025301Y011251D03*
X025301Y012251D03*
X025301Y015501D03*
X025301Y016501D03*
X025301Y017501D03*
X025301Y018501D03*
X022301Y017501D03*
X022301Y016501D03*
X022301Y015501D03*
D11*
X002301Y002001D03*
X002301Y004001D03*
X003301Y004001D03*
X007301Y004001D03*
X008301Y004001D03*
X007301Y002001D03*
X012301Y002001D03*
X012301Y004001D03*
X013301Y004001D03*
X017301Y004001D03*
X018301Y004001D03*
X017301Y002001D03*
X025301Y003501D03*
X025301Y006001D03*
X025301Y009251D03*
X025301Y013251D03*
X022301Y018501D03*
X018301Y016001D03*
X017301Y016001D03*
X017301Y018001D03*
X013301Y016001D03*
X012301Y016001D03*
X012301Y018001D03*
X008301Y016001D03*
X007301Y016001D03*
X007301Y018001D03*
X003301Y016001D03*
X002301Y016001D03*
X002301Y018001D03*
D12*
X004801Y014501D03*
X007301Y013501D03*
X009801Y014501D03*
X012301Y013501D03*
X014801Y014501D03*
X017301Y013501D03*
X019801Y014501D03*
X017301Y007001D03*
X019801Y006001D03*
X014801Y006001D03*
X012301Y007001D03*
X009801Y006001D03*
X007301Y007001D03*
X004701Y005901D03*
X002301Y007001D03*
X002301Y013501D03*
D13*
X003301Y013501D03*
X004801Y012501D03*
X008301Y013501D03*
X009801Y012501D03*
X013301Y013501D03*
X014801Y012501D03*
X018301Y013501D03*
X019801Y012501D03*
X019801Y008001D03*
X018301Y007001D03*
X014801Y008001D03*
X013301Y007001D03*
X009801Y008001D03*
X008301Y007001D03*
X004701Y007901D03*
X003301Y007001D03*
D14*
X025301Y005001D03*
X025301Y010001D03*
D15*
X025701Y009701D02*
X025701Y012181D01*
X025301Y012181D01*
X025301Y012251D01*
X025701Y009701D02*
X025301Y009301D01*
X025301Y009251D01*
X025301Y008821D02*
X025061Y008821D01*
X024901Y008981D01*
X024901Y017461D01*
X025301Y017461D01*
X025301Y017501D01*
X022301Y015501D02*
X019781Y012981D01*
X018741Y012981D01*
X016821Y011061D01*
X016801Y011001D01*
X016421Y011381D01*
X011461Y011381D01*
X006421Y011381D01*
X006801Y011001D01*
X006421Y011381D02*
X002181Y011381D01*
X001801Y011001D01*
X004801Y012501D02*
X009801Y012501D01*
X011461Y011381D02*
X011781Y011061D01*
X011801Y011001D01*
X009861Y008021D02*
X009801Y008001D01*
X009861Y008021D02*
X014741Y008021D01*
X014801Y008001D01*
X014821Y008021D01*
X019781Y008021D01*
X019801Y008001D01*
X019781Y006021D02*
X018261Y006021D01*
X017301Y006981D01*
X017301Y007001D01*
X019781Y006021D02*
X019801Y006001D01*
X014801Y006001D02*
X014741Y006021D01*
X013301Y006021D01*
X012341Y006981D01*
X012301Y007001D01*
X009801Y006001D02*
X009781Y006021D01*
X008261Y006021D01*
X007301Y006981D01*
X007301Y007001D01*
X004701Y005901D02*
X004661Y005941D01*
X003381Y005941D01*
X002341Y006981D01*
X002301Y007001D01*
X025301Y006001D02*
X025301Y008821D01*
M02*
