G75*
G70*
%OFA0B0*%
%FSLAX24Y24*%
%IPPOS*%
%LPD*%
%AMOC8*
5,1,8,0,0,1.08239X$1,22.5*
%
%ADD10C,0.0110*%
%ADD11C,0.0050*%
%ADD12C,0.0100*%
%ADD13C,0.0080*%
%ADD14C,0.0060*%
%ADD15C,0.0030*%
%ADD16C,0.0010*%
%ADD17C,0.0040*%
%ADD18R,0.0800X0.0200*%
%ADD19C,0.0200*%
D10*
X002956Y001654D02*
X003054Y001556D01*
X003251Y001556D01*
X003349Y001654D01*
X003349Y001851D01*
X003251Y001949D01*
X003153Y001949D01*
X002956Y001851D01*
X002956Y002146D01*
X003349Y002146D01*
X007956Y001851D02*
X007956Y001654D01*
X008054Y001556D01*
X008251Y001556D01*
X008349Y001654D01*
X008349Y001753D01*
X008251Y001851D01*
X007956Y001851D01*
X008153Y002048D01*
X008349Y002146D01*
X012956Y002146D02*
X013349Y002146D01*
X013349Y002048D01*
X012956Y001654D01*
X012956Y001556D01*
X017956Y001654D02*
X018054Y001556D01*
X018251Y001556D01*
X018349Y001654D01*
X018349Y001753D01*
X018251Y001851D01*
X018054Y001851D01*
X017956Y001949D01*
X017956Y002048D01*
X018054Y002146D01*
X018251Y002146D01*
X018349Y002048D01*
X018349Y001949D01*
X018251Y001851D01*
X018054Y001851D02*
X017956Y001753D01*
X017956Y001654D01*
X018251Y017756D02*
X018251Y018346D01*
X017956Y018051D01*
X018349Y018051D01*
X013349Y017953D02*
X013349Y017854D01*
X013251Y017756D01*
X013054Y017756D01*
X012956Y017854D01*
X013153Y018051D02*
X013251Y018051D01*
X013349Y017953D01*
X013251Y018051D02*
X013349Y018149D01*
X013349Y018248D01*
X013251Y018346D01*
X013054Y018346D01*
X012956Y018248D01*
X008349Y018248D02*
X008349Y018149D01*
X007956Y017756D01*
X008349Y017756D01*
X008349Y018248D02*
X008251Y018346D01*
X008054Y018346D01*
X007956Y018248D01*
X003349Y017756D02*
X002956Y017756D01*
X003153Y017756D02*
X003153Y018346D01*
X002956Y018149D01*
D11*
X023526Y017996D02*
X023616Y017996D01*
X023571Y017996D02*
X023571Y017726D01*
X023526Y017726D02*
X023616Y017726D01*
X023722Y017771D02*
X023722Y017951D01*
X023767Y017996D01*
X023857Y017996D01*
X023902Y017951D01*
X024017Y017906D02*
X024107Y017996D01*
X024107Y017726D01*
X024017Y017726D02*
X024197Y017726D01*
X023902Y017771D02*
X023857Y017726D01*
X023767Y017726D01*
X023722Y017771D01*
X024901Y013651D02*
X025104Y013651D01*
X024901Y013651D02*
X024901Y013246D01*
X024901Y012852D02*
X024901Y012448D01*
X024576Y012505D02*
X024306Y012505D01*
X024306Y012415D02*
X024306Y012595D01*
X024396Y012710D02*
X024306Y012800D01*
X024576Y012800D01*
X024576Y012710D02*
X024576Y012890D01*
X024531Y012301D02*
X024351Y012301D01*
X024306Y012256D01*
X024306Y012165D01*
X024351Y012120D01*
X024531Y012120D01*
X024576Y012165D01*
X024576Y012256D01*
X024531Y012301D01*
X024441Y012006D02*
X024486Y011961D01*
X024486Y011826D01*
X024576Y011826D02*
X024306Y011826D01*
X024306Y011961D01*
X024351Y012006D01*
X024441Y012006D01*
X024901Y012054D02*
X024901Y011649D01*
X024901Y011256D02*
X024901Y010851D01*
X025104Y010851D01*
X025498Y010851D02*
X025701Y010851D01*
X025701Y011256D01*
X025701Y011649D02*
X025701Y012054D01*
X025701Y012448D02*
X025701Y012852D01*
X025701Y013246D02*
X025701Y013651D01*
X025498Y013651D01*
X024781Y010356D02*
X024826Y010311D01*
X024826Y010221D01*
X024781Y010176D01*
X024691Y010221D02*
X024691Y010311D01*
X024736Y010356D01*
X024781Y010356D01*
X024691Y010221D02*
X024646Y010176D01*
X024601Y010176D01*
X024556Y010221D01*
X024556Y010311D01*
X024601Y010356D01*
X025906Y009990D02*
X025906Y009810D01*
X026176Y009810D01*
X026176Y009990D01*
X026041Y009900D02*
X026041Y009810D01*
X025906Y009695D02*
X025906Y009515D01*
X025906Y009605D02*
X026176Y009605D01*
X026176Y009401D02*
X025996Y009401D01*
X025906Y009310D01*
X025996Y009220D01*
X026176Y009220D01*
X026131Y009106D02*
X026041Y009106D01*
X026041Y009016D01*
X026131Y009106D02*
X026176Y009061D01*
X026176Y008971D01*
X026131Y008926D01*
X025951Y008926D01*
X025906Y008971D01*
X025906Y009061D01*
X025951Y009106D01*
X026041Y009220D02*
X026041Y009401D01*
X024876Y009066D02*
X024606Y009066D01*
X024606Y008976D02*
X024606Y009156D01*
X025951Y005895D02*
X026041Y005895D01*
X026086Y005850D01*
X026086Y005715D01*
X026176Y005715D02*
X025906Y005715D01*
X025906Y005850D01*
X025951Y005895D01*
X026086Y005805D02*
X026176Y005895D01*
X026176Y005601D02*
X025906Y005601D01*
X025906Y005420D02*
X026176Y005420D01*
X026086Y005510D01*
X026176Y005601D01*
X026041Y005306D02*
X026086Y005261D01*
X026086Y005126D01*
X026176Y005126D02*
X025906Y005126D01*
X025906Y005261D01*
X025951Y005306D01*
X026041Y005306D01*
X026176Y003895D02*
X026041Y003760D01*
X026086Y003715D02*
X025906Y003895D01*
X025906Y003715D02*
X026176Y003715D01*
X026176Y003601D02*
X026176Y003420D01*
X025906Y003420D01*
X025951Y003306D02*
X025906Y003261D01*
X025906Y003171D01*
X025951Y003126D01*
X026131Y003126D01*
X026176Y003171D01*
X026176Y003261D01*
X026131Y003306D01*
D12*
X000801Y000751D02*
X000801Y010251D01*
X000801Y019251D01*
X005801Y019251D01*
X005801Y010251D01*
X005801Y000751D01*
X000801Y000751D01*
X005801Y000751D02*
X010801Y000751D01*
X010801Y010251D01*
X010801Y019251D01*
X016051Y019251D01*
X016051Y010251D01*
X016051Y000751D01*
X010801Y000751D01*
X016051Y000751D02*
X020801Y000751D01*
X020801Y010251D01*
X020801Y019251D01*
X016051Y019251D01*
X010801Y019251D02*
X005801Y019251D01*
X005801Y010251D02*
X000801Y010251D01*
X005801Y010251D02*
X010801Y010251D01*
X016051Y010251D01*
X020801Y010251D01*
D13*
X022840Y008847D02*
X022840Y008707D01*
X022911Y008637D01*
X023191Y008637D01*
X023261Y008707D01*
X023261Y008847D01*
X023191Y008917D01*
X023051Y008917D01*
X023051Y008777D01*
X022911Y008917D02*
X022840Y008847D01*
X022981Y009167D02*
X022981Y009307D01*
X023051Y009377D01*
X023261Y009377D01*
X023261Y009167D01*
X023191Y009097D01*
X023121Y009167D01*
X023121Y009377D01*
X022981Y009557D02*
X022981Y009697D01*
X022911Y009627D02*
X023191Y009627D01*
X023261Y009697D01*
X023191Y009864D02*
X023051Y009864D01*
X022981Y009934D01*
X022981Y010074D01*
X023051Y010144D01*
X023121Y010144D01*
X023121Y009864D01*
X023191Y009864D02*
X023261Y009934D01*
X023261Y010074D01*
X022981Y008003D02*
X022981Y007933D01*
X023121Y007793D01*
X023261Y007793D02*
X022981Y007793D01*
X023051Y007613D02*
X023121Y007613D01*
X023121Y007332D01*
X023191Y007332D02*
X023051Y007332D01*
X022981Y007402D01*
X022981Y007542D01*
X023051Y007613D01*
X023261Y007542D02*
X023261Y007402D01*
X023191Y007332D01*
X023261Y007152D02*
X023261Y006942D01*
X023191Y006872D01*
X023051Y006872D01*
X022981Y006942D01*
X022981Y007152D01*
X023051Y006692D02*
X023261Y006692D01*
X023051Y006692D02*
X022981Y006622D01*
X022981Y006412D01*
X023261Y006412D01*
X023121Y006231D02*
X023051Y006231D01*
X022981Y006161D01*
X022981Y006021D01*
X023051Y005951D01*
X023191Y005951D01*
X023261Y006021D01*
X023261Y006161D01*
X023121Y006231D02*
X023121Y005951D01*
X023261Y005771D02*
X022981Y005771D01*
X023261Y005771D02*
X023261Y005561D01*
X023191Y005491D01*
X022981Y005491D01*
X022981Y005311D02*
X022981Y005101D01*
X023051Y005031D01*
X023191Y005031D01*
X023261Y005101D01*
X023261Y005311D01*
X023401Y005311D02*
X022981Y005311D01*
X023051Y004850D02*
X023121Y004850D01*
X023121Y004570D01*
X023191Y004570D02*
X023051Y004570D01*
X022981Y004640D01*
X022981Y004780D01*
X023051Y004850D01*
X023261Y004780D02*
X023261Y004640D01*
X023191Y004570D01*
X023191Y004390D02*
X023261Y004320D01*
X023261Y004180D01*
X023191Y004110D01*
X023051Y004180D02*
X023051Y004320D01*
X023121Y004390D01*
X023191Y004390D01*
X023051Y004180D02*
X022981Y004110D01*
X022911Y004110D01*
X022840Y004180D01*
X022840Y004320D01*
X022911Y004390D01*
X022261Y004410D02*
X022191Y004340D01*
X022051Y004340D01*
X021981Y004410D01*
X021981Y004550D01*
X022051Y004620D01*
X022121Y004620D01*
X022121Y004340D01*
X022261Y004410D02*
X022261Y004550D01*
X022261Y004800D02*
X021840Y004800D01*
X021981Y005010D02*
X022121Y004800D01*
X022261Y005010D01*
X022261Y004173D02*
X022191Y004103D01*
X021911Y004103D01*
X021981Y004033D02*
X021981Y004173D01*
X022051Y003853D02*
X021981Y003783D01*
X021981Y003643D01*
X022051Y003573D01*
X022191Y003573D01*
X022261Y003643D01*
X022261Y003783D01*
X022191Y003853D01*
X022051Y003853D01*
X021981Y003399D02*
X021981Y003329D01*
X022121Y003189D01*
X022261Y003189D02*
X021981Y003189D01*
X022051Y003009D02*
X022261Y003009D01*
X022051Y003009D02*
X021981Y002939D01*
X021981Y002799D01*
X022051Y002729D01*
X021981Y002562D02*
X021981Y002422D01*
X021911Y002492D02*
X022191Y002492D01*
X022261Y002562D01*
X022261Y002729D02*
X021840Y002729D01*
X022051Y002242D02*
X022261Y002242D01*
X022051Y002242D02*
X021981Y002172D01*
X021981Y001961D01*
X022261Y001961D01*
X022261Y001781D02*
X022261Y001571D01*
X022191Y001501D01*
X021981Y001501D01*
X021911Y001321D02*
X021840Y001251D01*
X021840Y001111D01*
X021911Y001041D01*
X021981Y001041D01*
X022051Y001111D01*
X022051Y001251D01*
X022121Y001321D01*
X022191Y001321D01*
X022261Y001251D01*
X022261Y001111D01*
X022191Y001041D01*
X022840Y001111D02*
X022840Y001251D01*
X022911Y001321D01*
X022981Y001321D01*
X023051Y001251D01*
X023051Y001111D01*
X022981Y001041D01*
X022911Y001041D01*
X022840Y001111D01*
X023051Y001111D02*
X023121Y001041D01*
X023191Y001041D01*
X023261Y001111D01*
X023261Y001251D01*
X023191Y001321D01*
X023121Y001321D01*
X023051Y001251D01*
X023051Y001501D02*
X023051Y001781D01*
X022981Y001961D02*
X023051Y002032D01*
X023051Y002172D01*
X023121Y002242D01*
X023191Y002242D01*
X023261Y002172D01*
X023261Y002032D01*
X023191Y001961D01*
X022981Y001961D02*
X022911Y001961D01*
X022840Y002032D01*
X022840Y002172D01*
X022911Y002242D01*
X022981Y002422D02*
X022981Y002562D01*
X022911Y002492D02*
X023191Y002492D01*
X023261Y002562D01*
X023191Y002729D02*
X023051Y002729D01*
X022981Y002799D01*
X022981Y002939D01*
X023051Y003009D01*
X023121Y003009D01*
X023121Y002729D01*
X023191Y002729D02*
X023261Y002799D01*
X023261Y002939D01*
X023261Y003189D02*
X023261Y003399D01*
X023191Y003469D01*
X023051Y003469D01*
X022981Y003399D01*
X022981Y003189D01*
X023401Y003189D01*
X022331Y001781D02*
X021981Y001781D01*
X022331Y001781D02*
X022401Y001711D01*
X022401Y001641D01*
X024651Y004841D02*
X024651Y005121D01*
X024651Y005841D02*
X024651Y006121D01*
X024511Y005981D02*
X024791Y005981D01*
X018801Y006251D02*
X018801Y007751D01*
X013801Y007751D02*
X013801Y006251D01*
X008801Y006251D02*
X008801Y007751D01*
X003801Y007751D02*
X003801Y006251D01*
X003801Y012751D02*
X003801Y014251D01*
X008801Y014251D02*
X008801Y012751D01*
X013801Y012751D02*
X013801Y014251D01*
X018801Y014251D02*
X018801Y012751D01*
D14*
X019401Y012701D02*
X019401Y014301D01*
X019403Y014318D01*
X019407Y014335D01*
X019414Y014351D01*
X019424Y014365D01*
X019437Y014378D01*
X019451Y014388D01*
X019467Y014395D01*
X019484Y014399D01*
X019501Y014401D01*
X020101Y014401D01*
X020118Y014399D01*
X020135Y014395D01*
X020151Y014388D01*
X020165Y014378D01*
X020178Y014365D01*
X020188Y014351D01*
X020195Y014335D01*
X020199Y014318D01*
X020201Y014301D01*
X020201Y012701D01*
X020199Y012684D01*
X020195Y012667D01*
X020188Y012651D01*
X020178Y012637D01*
X020165Y012624D01*
X020151Y012614D01*
X020135Y012607D01*
X020118Y012603D01*
X020101Y012601D01*
X019501Y012601D01*
X019484Y012603D01*
X019467Y012607D01*
X019451Y012614D01*
X019437Y012624D01*
X019424Y012637D01*
X019414Y012651D01*
X019407Y012667D01*
X019403Y012684D01*
X019401Y012701D01*
X018307Y011401D02*
X018107Y011401D01*
X018057Y011351D01*
X017544Y011351D01*
X017494Y011401D01*
X017294Y011401D01*
X017277Y011399D01*
X017260Y011395D01*
X017244Y011388D01*
X017230Y011378D01*
X017217Y011365D01*
X017207Y011351D01*
X017200Y011335D01*
X017196Y011318D01*
X017194Y011301D01*
X017194Y010701D01*
X017196Y010684D01*
X017200Y010667D01*
X017207Y010651D01*
X017217Y010637D01*
X017230Y010624D01*
X017244Y010614D01*
X017260Y010607D01*
X017277Y010603D01*
X017294Y010601D01*
X017494Y010601D01*
X017544Y010651D01*
X018057Y010651D01*
X018107Y010601D01*
X018307Y010601D01*
X018324Y010603D01*
X018341Y010607D01*
X018357Y010614D01*
X018371Y010624D01*
X018384Y010637D01*
X018394Y010651D01*
X018401Y010667D01*
X018405Y010684D01*
X018407Y010701D01*
X018407Y011301D01*
X018405Y011318D01*
X018401Y011335D01*
X018394Y011351D01*
X018384Y011365D01*
X018371Y011378D01*
X018357Y011388D01*
X018341Y011395D01*
X018324Y011399D01*
X018307Y011401D01*
X018307Y009901D02*
X018107Y009901D01*
X018057Y009851D01*
X017544Y009851D01*
X017494Y009901D01*
X017294Y009901D01*
X017277Y009899D01*
X017260Y009895D01*
X017244Y009888D01*
X017230Y009878D01*
X017217Y009865D01*
X017207Y009851D01*
X017200Y009835D01*
X017196Y009818D01*
X017194Y009801D01*
X017194Y009201D01*
X017196Y009184D01*
X017200Y009167D01*
X017207Y009151D01*
X017217Y009137D01*
X017230Y009124D01*
X017244Y009114D01*
X017260Y009107D01*
X017277Y009103D01*
X017294Y009101D01*
X017494Y009101D01*
X017544Y009151D01*
X018057Y009151D01*
X018107Y009101D01*
X018307Y009101D01*
X018324Y009103D01*
X018341Y009107D01*
X018357Y009114D01*
X018371Y009124D01*
X018384Y009137D01*
X018394Y009151D01*
X018401Y009167D01*
X018405Y009184D01*
X018407Y009201D01*
X018407Y009801D01*
X018405Y009818D01*
X018401Y009835D01*
X018394Y009851D01*
X018384Y009865D01*
X018371Y009878D01*
X018357Y009888D01*
X018341Y009895D01*
X018324Y009899D01*
X018307Y009901D01*
X019501Y007901D02*
X020101Y007901D01*
X020118Y007899D01*
X020135Y007895D01*
X020151Y007888D01*
X020165Y007878D01*
X020178Y007865D01*
X020188Y007851D01*
X020195Y007835D01*
X020199Y007818D01*
X020201Y007801D01*
X020201Y006201D01*
X020199Y006184D01*
X020195Y006167D01*
X020188Y006151D01*
X020178Y006137D01*
X020165Y006124D01*
X020151Y006114D01*
X020135Y006107D01*
X020118Y006103D01*
X020101Y006101D01*
X019501Y006101D01*
X019484Y006103D01*
X019467Y006107D01*
X019451Y006114D01*
X019437Y006124D01*
X019424Y006137D01*
X019414Y006151D01*
X019407Y006167D01*
X019403Y006184D01*
X019401Y006201D01*
X019401Y007801D01*
X019403Y007818D01*
X019407Y007835D01*
X019414Y007851D01*
X019424Y007865D01*
X019437Y007878D01*
X019451Y007888D01*
X019467Y007895D01*
X019484Y007899D01*
X019501Y007901D01*
X016801Y007001D02*
X016803Y007064D01*
X016809Y007126D01*
X016819Y007188D01*
X016832Y007250D01*
X016850Y007310D01*
X016871Y007369D01*
X016896Y007427D01*
X016925Y007483D01*
X016957Y007537D01*
X016992Y007589D01*
X017030Y007638D01*
X017072Y007686D01*
X017116Y007730D01*
X017164Y007772D01*
X017213Y007810D01*
X017265Y007845D01*
X017319Y007877D01*
X017375Y007906D01*
X017433Y007931D01*
X017492Y007952D01*
X017552Y007970D01*
X017614Y007983D01*
X017676Y007993D01*
X017738Y007999D01*
X017801Y008001D01*
X017864Y007999D01*
X017926Y007993D01*
X017988Y007983D01*
X018050Y007970D01*
X018110Y007952D01*
X018169Y007931D01*
X018227Y007906D01*
X018283Y007877D01*
X018337Y007845D01*
X018389Y007810D01*
X018438Y007772D01*
X018486Y007730D01*
X018530Y007686D01*
X018572Y007638D01*
X018610Y007589D01*
X018645Y007537D01*
X018677Y007483D01*
X018706Y007427D01*
X018731Y007369D01*
X018752Y007310D01*
X018770Y007250D01*
X018783Y007188D01*
X018793Y007126D01*
X018799Y007064D01*
X018801Y007001D01*
X018799Y006938D01*
X018793Y006876D01*
X018783Y006814D01*
X018770Y006752D01*
X018752Y006692D01*
X018731Y006633D01*
X018706Y006575D01*
X018677Y006519D01*
X018645Y006465D01*
X018610Y006413D01*
X018572Y006364D01*
X018530Y006316D01*
X018486Y006272D01*
X018438Y006230D01*
X018389Y006192D01*
X018337Y006157D01*
X018283Y006125D01*
X018227Y006096D01*
X018169Y006071D01*
X018110Y006050D01*
X018050Y006032D01*
X017988Y006019D01*
X017926Y006009D01*
X017864Y006003D01*
X017801Y006001D01*
X017738Y006003D01*
X017676Y006009D01*
X017614Y006019D01*
X017552Y006032D01*
X017492Y006050D01*
X017433Y006071D01*
X017375Y006096D01*
X017319Y006125D01*
X017265Y006157D01*
X017213Y006192D01*
X017164Y006230D01*
X017116Y006272D01*
X017072Y006316D01*
X017030Y006364D01*
X016992Y006413D01*
X016957Y006465D01*
X016925Y006519D01*
X016896Y006575D01*
X016871Y006633D01*
X016850Y006692D01*
X016832Y006752D01*
X016819Y006814D01*
X016809Y006876D01*
X016803Y006938D01*
X016801Y007001D01*
X015201Y007801D02*
X015201Y006201D01*
X015199Y006184D01*
X015195Y006167D01*
X015188Y006151D01*
X015178Y006137D01*
X015165Y006124D01*
X015151Y006114D01*
X015135Y006107D01*
X015118Y006103D01*
X015101Y006101D01*
X014501Y006101D01*
X014484Y006103D01*
X014467Y006107D01*
X014451Y006114D01*
X014437Y006124D01*
X014424Y006137D01*
X014414Y006151D01*
X014407Y006167D01*
X014403Y006184D01*
X014401Y006201D01*
X014401Y007801D01*
X014403Y007818D01*
X014407Y007835D01*
X014414Y007851D01*
X014424Y007865D01*
X014437Y007878D01*
X014451Y007888D01*
X014467Y007895D01*
X014484Y007899D01*
X014501Y007901D01*
X015101Y007901D01*
X015118Y007899D01*
X015135Y007895D01*
X015151Y007888D01*
X015165Y007878D01*
X015178Y007865D01*
X015188Y007851D01*
X015195Y007835D01*
X015199Y007818D01*
X015201Y007801D01*
X013407Y009201D02*
X013407Y009801D01*
X013405Y009818D01*
X013401Y009835D01*
X013394Y009851D01*
X013384Y009865D01*
X013371Y009878D01*
X013357Y009888D01*
X013341Y009895D01*
X013324Y009899D01*
X013307Y009901D01*
X013107Y009901D01*
X013057Y009851D01*
X012544Y009851D01*
X012494Y009901D01*
X012294Y009901D01*
X012277Y009899D01*
X012260Y009895D01*
X012244Y009888D01*
X012230Y009878D01*
X012217Y009865D01*
X012207Y009851D01*
X012200Y009835D01*
X012196Y009818D01*
X012194Y009801D01*
X012194Y009201D01*
X012196Y009184D01*
X012200Y009167D01*
X012207Y009151D01*
X012217Y009137D01*
X012230Y009124D01*
X012244Y009114D01*
X012260Y009107D01*
X012277Y009103D01*
X012294Y009101D01*
X012494Y009101D01*
X012544Y009151D01*
X013057Y009151D01*
X013107Y009101D01*
X013307Y009101D01*
X013324Y009103D01*
X013341Y009107D01*
X013357Y009114D01*
X013371Y009124D01*
X013384Y009137D01*
X013394Y009151D01*
X013401Y009167D01*
X013405Y009184D01*
X013407Y009201D01*
X013307Y010601D02*
X013107Y010601D01*
X013057Y010651D01*
X012544Y010651D01*
X012494Y010601D01*
X012294Y010601D01*
X012277Y010603D01*
X012260Y010607D01*
X012244Y010614D01*
X012230Y010624D01*
X012217Y010637D01*
X012207Y010651D01*
X012200Y010667D01*
X012196Y010684D01*
X012194Y010701D01*
X012194Y011301D01*
X012196Y011318D01*
X012200Y011335D01*
X012207Y011351D01*
X012217Y011365D01*
X012230Y011378D01*
X012244Y011388D01*
X012260Y011395D01*
X012277Y011399D01*
X012294Y011401D01*
X012494Y011401D01*
X012544Y011351D01*
X013057Y011351D01*
X013107Y011401D01*
X013307Y011401D01*
X013324Y011399D01*
X013341Y011395D01*
X013357Y011388D01*
X013371Y011378D01*
X013384Y011365D01*
X013394Y011351D01*
X013401Y011335D01*
X013405Y011318D01*
X013407Y011301D01*
X013407Y010701D01*
X013405Y010684D01*
X013401Y010667D01*
X013394Y010651D01*
X013384Y010637D01*
X013371Y010624D01*
X013357Y010614D01*
X013341Y010607D01*
X013324Y010603D01*
X013307Y010601D01*
X014501Y012601D02*
X015101Y012601D01*
X015118Y012603D01*
X015135Y012607D01*
X015151Y012614D01*
X015165Y012624D01*
X015178Y012637D01*
X015188Y012651D01*
X015195Y012667D01*
X015199Y012684D01*
X015201Y012701D01*
X015201Y014301D01*
X015199Y014318D01*
X015195Y014335D01*
X015188Y014351D01*
X015178Y014365D01*
X015165Y014378D01*
X015151Y014388D01*
X015135Y014395D01*
X015118Y014399D01*
X015101Y014401D01*
X014501Y014401D01*
X014484Y014399D01*
X014467Y014395D01*
X014451Y014388D01*
X014437Y014378D01*
X014424Y014365D01*
X014414Y014351D01*
X014407Y014335D01*
X014403Y014318D01*
X014401Y014301D01*
X014401Y012701D01*
X014403Y012684D01*
X014407Y012667D01*
X014414Y012651D01*
X014424Y012637D01*
X014437Y012624D01*
X014451Y012614D01*
X014467Y012607D01*
X014484Y012603D01*
X014501Y012601D01*
X011801Y013501D02*
X011803Y013564D01*
X011809Y013626D01*
X011819Y013688D01*
X011832Y013750D01*
X011850Y013810D01*
X011871Y013869D01*
X011896Y013927D01*
X011925Y013983D01*
X011957Y014037D01*
X011992Y014089D01*
X012030Y014138D01*
X012072Y014186D01*
X012116Y014230D01*
X012164Y014272D01*
X012213Y014310D01*
X012265Y014345D01*
X012319Y014377D01*
X012375Y014406D01*
X012433Y014431D01*
X012492Y014452D01*
X012552Y014470D01*
X012614Y014483D01*
X012676Y014493D01*
X012738Y014499D01*
X012801Y014501D01*
X012864Y014499D01*
X012926Y014493D01*
X012988Y014483D01*
X013050Y014470D01*
X013110Y014452D01*
X013169Y014431D01*
X013227Y014406D01*
X013283Y014377D01*
X013337Y014345D01*
X013389Y014310D01*
X013438Y014272D01*
X013486Y014230D01*
X013530Y014186D01*
X013572Y014138D01*
X013610Y014089D01*
X013645Y014037D01*
X013677Y013983D01*
X013706Y013927D01*
X013731Y013869D01*
X013752Y013810D01*
X013770Y013750D01*
X013783Y013688D01*
X013793Y013626D01*
X013799Y013564D01*
X013801Y013501D01*
X013799Y013438D01*
X013793Y013376D01*
X013783Y013314D01*
X013770Y013252D01*
X013752Y013192D01*
X013731Y013133D01*
X013706Y013075D01*
X013677Y013019D01*
X013645Y012965D01*
X013610Y012913D01*
X013572Y012864D01*
X013530Y012816D01*
X013486Y012772D01*
X013438Y012730D01*
X013389Y012692D01*
X013337Y012657D01*
X013283Y012625D01*
X013227Y012596D01*
X013169Y012571D01*
X013110Y012550D01*
X013050Y012532D01*
X012988Y012519D01*
X012926Y012509D01*
X012864Y012503D01*
X012801Y012501D01*
X012738Y012503D01*
X012676Y012509D01*
X012614Y012519D01*
X012552Y012532D01*
X012492Y012550D01*
X012433Y012571D01*
X012375Y012596D01*
X012319Y012625D01*
X012265Y012657D01*
X012213Y012692D01*
X012164Y012730D01*
X012116Y012772D01*
X012072Y012816D01*
X012030Y012864D01*
X011992Y012913D01*
X011957Y012965D01*
X011925Y013019D01*
X011896Y013075D01*
X011871Y013133D01*
X011850Y013192D01*
X011832Y013252D01*
X011819Y013314D01*
X011809Y013376D01*
X011803Y013438D01*
X011801Y013501D01*
X010201Y012701D02*
X010201Y014301D01*
X010199Y014318D01*
X010195Y014335D01*
X010188Y014351D01*
X010178Y014365D01*
X010165Y014378D01*
X010151Y014388D01*
X010135Y014395D01*
X010118Y014399D01*
X010101Y014401D01*
X009501Y014401D01*
X009484Y014399D01*
X009467Y014395D01*
X009451Y014388D01*
X009437Y014378D01*
X009424Y014365D01*
X009414Y014351D01*
X009407Y014335D01*
X009403Y014318D01*
X009401Y014301D01*
X009401Y012701D01*
X009403Y012684D01*
X009407Y012667D01*
X009414Y012651D01*
X009424Y012637D01*
X009437Y012624D01*
X009451Y012614D01*
X009467Y012607D01*
X009484Y012603D01*
X009501Y012601D01*
X010101Y012601D01*
X010118Y012603D01*
X010135Y012607D01*
X010151Y012614D01*
X010165Y012624D01*
X010178Y012637D01*
X010188Y012651D01*
X010195Y012667D01*
X010199Y012684D01*
X010201Y012701D01*
X008407Y011301D02*
X008407Y010701D01*
X008405Y010684D01*
X008401Y010667D01*
X008394Y010651D01*
X008384Y010637D01*
X008371Y010624D01*
X008357Y010614D01*
X008341Y010607D01*
X008324Y010603D01*
X008307Y010601D01*
X008107Y010601D01*
X008057Y010651D01*
X007544Y010651D01*
X007494Y010601D01*
X007294Y010601D01*
X007277Y010603D01*
X007260Y010607D01*
X007244Y010614D01*
X007230Y010624D01*
X007217Y010637D01*
X007207Y010651D01*
X007200Y010667D01*
X007196Y010684D01*
X007194Y010701D01*
X007194Y011301D01*
X007196Y011318D01*
X007200Y011335D01*
X007207Y011351D01*
X007217Y011365D01*
X007230Y011378D01*
X007244Y011388D01*
X007260Y011395D01*
X007277Y011399D01*
X007294Y011401D01*
X007494Y011401D01*
X007544Y011351D01*
X008057Y011351D01*
X008107Y011401D01*
X008307Y011401D01*
X008324Y011399D01*
X008341Y011395D01*
X008357Y011388D01*
X008371Y011378D01*
X008384Y011365D01*
X008394Y011351D01*
X008401Y011335D01*
X008405Y011318D01*
X008407Y011301D01*
X008307Y009901D02*
X008107Y009901D01*
X008057Y009851D01*
X007544Y009851D01*
X007494Y009901D01*
X007294Y009901D01*
X007277Y009899D01*
X007260Y009895D01*
X007244Y009888D01*
X007230Y009878D01*
X007217Y009865D01*
X007207Y009851D01*
X007200Y009835D01*
X007196Y009818D01*
X007194Y009801D01*
X007194Y009201D01*
X007196Y009184D01*
X007200Y009167D01*
X007207Y009151D01*
X007217Y009137D01*
X007230Y009124D01*
X007244Y009114D01*
X007260Y009107D01*
X007277Y009103D01*
X007294Y009101D01*
X007494Y009101D01*
X007544Y009151D01*
X008057Y009151D01*
X008107Y009101D01*
X008307Y009101D01*
X008324Y009103D01*
X008341Y009107D01*
X008357Y009114D01*
X008371Y009124D01*
X008384Y009137D01*
X008394Y009151D01*
X008401Y009167D01*
X008405Y009184D01*
X008407Y009201D01*
X008407Y009801D01*
X008405Y009818D01*
X008401Y009835D01*
X008394Y009851D01*
X008384Y009865D01*
X008371Y009878D01*
X008357Y009888D01*
X008341Y009895D01*
X008324Y009899D01*
X008307Y009901D01*
X009501Y007901D02*
X010101Y007901D01*
X010118Y007899D01*
X010135Y007895D01*
X010151Y007888D01*
X010165Y007878D01*
X010178Y007865D01*
X010188Y007851D01*
X010195Y007835D01*
X010199Y007818D01*
X010201Y007801D01*
X010201Y006201D01*
X010199Y006184D01*
X010195Y006167D01*
X010188Y006151D01*
X010178Y006137D01*
X010165Y006124D01*
X010151Y006114D01*
X010135Y006107D01*
X010118Y006103D01*
X010101Y006101D01*
X009501Y006101D01*
X009484Y006103D01*
X009467Y006107D01*
X009451Y006114D01*
X009437Y006124D01*
X009424Y006137D01*
X009414Y006151D01*
X009407Y006167D01*
X009403Y006184D01*
X009401Y006201D01*
X009401Y007801D01*
X009403Y007818D01*
X009407Y007835D01*
X009414Y007851D01*
X009424Y007865D01*
X009437Y007878D01*
X009451Y007888D01*
X009467Y007895D01*
X009484Y007899D01*
X009501Y007901D01*
X006801Y007001D02*
X006803Y007064D01*
X006809Y007126D01*
X006819Y007188D01*
X006832Y007250D01*
X006850Y007310D01*
X006871Y007369D01*
X006896Y007427D01*
X006925Y007483D01*
X006957Y007537D01*
X006992Y007589D01*
X007030Y007638D01*
X007072Y007686D01*
X007116Y007730D01*
X007164Y007772D01*
X007213Y007810D01*
X007265Y007845D01*
X007319Y007877D01*
X007375Y007906D01*
X007433Y007931D01*
X007492Y007952D01*
X007552Y007970D01*
X007614Y007983D01*
X007676Y007993D01*
X007738Y007999D01*
X007801Y008001D01*
X007864Y007999D01*
X007926Y007993D01*
X007988Y007983D01*
X008050Y007970D01*
X008110Y007952D01*
X008169Y007931D01*
X008227Y007906D01*
X008283Y007877D01*
X008337Y007845D01*
X008389Y007810D01*
X008438Y007772D01*
X008486Y007730D01*
X008530Y007686D01*
X008572Y007638D01*
X008610Y007589D01*
X008645Y007537D01*
X008677Y007483D01*
X008706Y007427D01*
X008731Y007369D01*
X008752Y007310D01*
X008770Y007250D01*
X008783Y007188D01*
X008793Y007126D01*
X008799Y007064D01*
X008801Y007001D01*
X008799Y006938D01*
X008793Y006876D01*
X008783Y006814D01*
X008770Y006752D01*
X008752Y006692D01*
X008731Y006633D01*
X008706Y006575D01*
X008677Y006519D01*
X008645Y006465D01*
X008610Y006413D01*
X008572Y006364D01*
X008530Y006316D01*
X008486Y006272D01*
X008438Y006230D01*
X008389Y006192D01*
X008337Y006157D01*
X008283Y006125D01*
X008227Y006096D01*
X008169Y006071D01*
X008110Y006050D01*
X008050Y006032D01*
X007988Y006019D01*
X007926Y006009D01*
X007864Y006003D01*
X007801Y006001D01*
X007738Y006003D01*
X007676Y006009D01*
X007614Y006019D01*
X007552Y006032D01*
X007492Y006050D01*
X007433Y006071D01*
X007375Y006096D01*
X007319Y006125D01*
X007265Y006157D01*
X007213Y006192D01*
X007164Y006230D01*
X007116Y006272D01*
X007072Y006316D01*
X007030Y006364D01*
X006992Y006413D01*
X006957Y006465D01*
X006925Y006519D01*
X006896Y006575D01*
X006871Y006633D01*
X006850Y006692D01*
X006832Y006752D01*
X006819Y006814D01*
X006809Y006876D01*
X006803Y006938D01*
X006801Y007001D01*
X005101Y007701D02*
X005101Y006101D01*
X005099Y006084D01*
X005095Y006067D01*
X005088Y006051D01*
X005078Y006037D01*
X005065Y006024D01*
X005051Y006014D01*
X005035Y006007D01*
X005018Y006003D01*
X005001Y006001D01*
X004401Y006001D01*
X004384Y006003D01*
X004367Y006007D01*
X004351Y006014D01*
X004337Y006024D01*
X004324Y006037D01*
X004314Y006051D01*
X004307Y006067D01*
X004303Y006084D01*
X004301Y006101D01*
X004301Y007701D01*
X004303Y007718D01*
X004307Y007735D01*
X004314Y007751D01*
X004324Y007765D01*
X004337Y007778D01*
X004351Y007788D01*
X004367Y007795D01*
X004384Y007799D01*
X004401Y007801D01*
X005001Y007801D01*
X005018Y007799D01*
X005035Y007795D01*
X005051Y007788D01*
X005065Y007778D01*
X005078Y007765D01*
X005088Y007751D01*
X005095Y007735D01*
X005099Y007718D01*
X005101Y007701D01*
X003407Y009201D02*
X003407Y009801D01*
X003405Y009818D01*
X003401Y009835D01*
X003394Y009851D01*
X003384Y009865D01*
X003371Y009878D01*
X003357Y009888D01*
X003341Y009895D01*
X003324Y009899D01*
X003307Y009901D01*
X003107Y009901D01*
X003057Y009851D01*
X002544Y009851D01*
X002494Y009901D01*
X002294Y009901D01*
X002277Y009899D01*
X002260Y009895D01*
X002244Y009888D01*
X002230Y009878D01*
X002217Y009865D01*
X002207Y009851D01*
X002200Y009835D01*
X002196Y009818D01*
X002194Y009801D01*
X002194Y009201D01*
X002196Y009184D01*
X002200Y009167D01*
X002207Y009151D01*
X002217Y009137D01*
X002230Y009124D01*
X002244Y009114D01*
X002260Y009107D01*
X002277Y009103D01*
X002294Y009101D01*
X002494Y009101D01*
X002544Y009151D01*
X003057Y009151D01*
X003107Y009101D01*
X003307Y009101D01*
X003324Y009103D01*
X003341Y009107D01*
X003357Y009114D01*
X003371Y009124D01*
X003384Y009137D01*
X003394Y009151D01*
X003401Y009167D01*
X003405Y009184D01*
X003407Y009201D01*
X003307Y010601D02*
X003107Y010601D01*
X003057Y010651D01*
X002544Y010651D01*
X002494Y010601D01*
X002294Y010601D01*
X002277Y010603D01*
X002260Y010607D01*
X002244Y010614D01*
X002230Y010624D01*
X002217Y010637D01*
X002207Y010651D01*
X002200Y010667D01*
X002196Y010684D01*
X002194Y010701D01*
X002194Y011301D01*
X002196Y011318D01*
X002200Y011335D01*
X002207Y011351D01*
X002217Y011365D01*
X002230Y011378D01*
X002244Y011388D01*
X002260Y011395D01*
X002277Y011399D01*
X002294Y011401D01*
X002494Y011401D01*
X002544Y011351D01*
X003057Y011351D01*
X003107Y011401D01*
X003307Y011401D01*
X003324Y011399D01*
X003341Y011395D01*
X003357Y011388D01*
X003371Y011378D01*
X003384Y011365D01*
X003394Y011351D01*
X003401Y011335D01*
X003405Y011318D01*
X003407Y011301D01*
X003407Y010701D01*
X003405Y010684D01*
X003401Y010667D01*
X003394Y010651D01*
X003384Y010637D01*
X003371Y010624D01*
X003357Y010614D01*
X003341Y010607D01*
X003324Y010603D01*
X003307Y010601D01*
X004501Y012601D02*
X005101Y012601D01*
X005118Y012603D01*
X005135Y012607D01*
X005151Y012614D01*
X005165Y012624D01*
X005178Y012637D01*
X005188Y012651D01*
X005195Y012667D01*
X005199Y012684D01*
X005201Y012701D01*
X005201Y014301D01*
X005199Y014318D01*
X005195Y014335D01*
X005188Y014351D01*
X005178Y014365D01*
X005165Y014378D01*
X005151Y014388D01*
X005135Y014395D01*
X005118Y014399D01*
X005101Y014401D01*
X004501Y014401D01*
X004484Y014399D01*
X004467Y014395D01*
X004451Y014388D01*
X004437Y014378D01*
X004424Y014365D01*
X004414Y014351D01*
X004407Y014335D01*
X004403Y014318D01*
X004401Y014301D01*
X004401Y012701D01*
X004403Y012684D01*
X004407Y012667D01*
X004414Y012651D01*
X004424Y012637D01*
X004437Y012624D01*
X004451Y012614D01*
X004467Y012607D01*
X004484Y012603D01*
X004501Y012601D01*
X001801Y013501D02*
X001803Y013564D01*
X001809Y013626D01*
X001819Y013688D01*
X001832Y013750D01*
X001850Y013810D01*
X001871Y013869D01*
X001896Y013927D01*
X001925Y013983D01*
X001957Y014037D01*
X001992Y014089D01*
X002030Y014138D01*
X002072Y014186D01*
X002116Y014230D01*
X002164Y014272D01*
X002213Y014310D01*
X002265Y014345D01*
X002319Y014377D01*
X002375Y014406D01*
X002433Y014431D01*
X002492Y014452D01*
X002552Y014470D01*
X002614Y014483D01*
X002676Y014493D01*
X002738Y014499D01*
X002801Y014501D01*
X002864Y014499D01*
X002926Y014493D01*
X002988Y014483D01*
X003050Y014470D01*
X003110Y014452D01*
X003169Y014431D01*
X003227Y014406D01*
X003283Y014377D01*
X003337Y014345D01*
X003389Y014310D01*
X003438Y014272D01*
X003486Y014230D01*
X003530Y014186D01*
X003572Y014138D01*
X003610Y014089D01*
X003645Y014037D01*
X003677Y013983D01*
X003706Y013927D01*
X003731Y013869D01*
X003752Y013810D01*
X003770Y013750D01*
X003783Y013688D01*
X003793Y013626D01*
X003799Y013564D01*
X003801Y013501D01*
X003799Y013438D01*
X003793Y013376D01*
X003783Y013314D01*
X003770Y013252D01*
X003752Y013192D01*
X003731Y013133D01*
X003706Y013075D01*
X003677Y013019D01*
X003645Y012965D01*
X003610Y012913D01*
X003572Y012864D01*
X003530Y012816D01*
X003486Y012772D01*
X003438Y012730D01*
X003389Y012692D01*
X003337Y012657D01*
X003283Y012625D01*
X003227Y012596D01*
X003169Y012571D01*
X003110Y012550D01*
X003050Y012532D01*
X002988Y012519D01*
X002926Y012509D01*
X002864Y012503D01*
X002801Y012501D01*
X002738Y012503D01*
X002676Y012509D01*
X002614Y012519D01*
X002552Y012532D01*
X002492Y012550D01*
X002433Y012571D01*
X002375Y012596D01*
X002319Y012625D01*
X002265Y012657D01*
X002213Y012692D01*
X002164Y012730D01*
X002116Y012772D01*
X002072Y012816D01*
X002030Y012864D01*
X001992Y012913D01*
X001957Y012965D01*
X001925Y013019D01*
X001896Y013075D01*
X001871Y013133D01*
X001850Y013192D01*
X001832Y013252D01*
X001819Y013314D01*
X001809Y013376D01*
X001803Y013438D01*
X001801Y013501D01*
X006801Y013501D02*
X006803Y013564D01*
X006809Y013626D01*
X006819Y013688D01*
X006832Y013750D01*
X006850Y013810D01*
X006871Y013869D01*
X006896Y013927D01*
X006925Y013983D01*
X006957Y014037D01*
X006992Y014089D01*
X007030Y014138D01*
X007072Y014186D01*
X007116Y014230D01*
X007164Y014272D01*
X007213Y014310D01*
X007265Y014345D01*
X007319Y014377D01*
X007375Y014406D01*
X007433Y014431D01*
X007492Y014452D01*
X007552Y014470D01*
X007614Y014483D01*
X007676Y014493D01*
X007738Y014499D01*
X007801Y014501D01*
X007864Y014499D01*
X007926Y014493D01*
X007988Y014483D01*
X008050Y014470D01*
X008110Y014452D01*
X008169Y014431D01*
X008227Y014406D01*
X008283Y014377D01*
X008337Y014345D01*
X008389Y014310D01*
X008438Y014272D01*
X008486Y014230D01*
X008530Y014186D01*
X008572Y014138D01*
X008610Y014089D01*
X008645Y014037D01*
X008677Y013983D01*
X008706Y013927D01*
X008731Y013869D01*
X008752Y013810D01*
X008770Y013750D01*
X008783Y013688D01*
X008793Y013626D01*
X008799Y013564D01*
X008801Y013501D01*
X008799Y013438D01*
X008793Y013376D01*
X008783Y013314D01*
X008770Y013252D01*
X008752Y013192D01*
X008731Y013133D01*
X008706Y013075D01*
X008677Y013019D01*
X008645Y012965D01*
X008610Y012913D01*
X008572Y012864D01*
X008530Y012816D01*
X008486Y012772D01*
X008438Y012730D01*
X008389Y012692D01*
X008337Y012657D01*
X008283Y012625D01*
X008227Y012596D01*
X008169Y012571D01*
X008110Y012550D01*
X008050Y012532D01*
X007988Y012519D01*
X007926Y012509D01*
X007864Y012503D01*
X007801Y012501D01*
X007738Y012503D01*
X007676Y012509D01*
X007614Y012519D01*
X007552Y012532D01*
X007492Y012550D01*
X007433Y012571D01*
X007375Y012596D01*
X007319Y012625D01*
X007265Y012657D01*
X007213Y012692D01*
X007164Y012730D01*
X007116Y012772D01*
X007072Y012816D01*
X007030Y012864D01*
X006992Y012913D01*
X006957Y012965D01*
X006925Y013019D01*
X006896Y013075D01*
X006871Y013133D01*
X006850Y013192D01*
X006832Y013252D01*
X006819Y013314D01*
X006809Y013376D01*
X006803Y013438D01*
X006801Y013501D01*
X001801Y007001D02*
X001803Y007064D01*
X001809Y007126D01*
X001819Y007188D01*
X001832Y007250D01*
X001850Y007310D01*
X001871Y007369D01*
X001896Y007427D01*
X001925Y007483D01*
X001957Y007537D01*
X001992Y007589D01*
X002030Y007638D01*
X002072Y007686D01*
X002116Y007730D01*
X002164Y007772D01*
X002213Y007810D01*
X002265Y007845D01*
X002319Y007877D01*
X002375Y007906D01*
X002433Y007931D01*
X002492Y007952D01*
X002552Y007970D01*
X002614Y007983D01*
X002676Y007993D01*
X002738Y007999D01*
X002801Y008001D01*
X002864Y007999D01*
X002926Y007993D01*
X002988Y007983D01*
X003050Y007970D01*
X003110Y007952D01*
X003169Y007931D01*
X003227Y007906D01*
X003283Y007877D01*
X003337Y007845D01*
X003389Y007810D01*
X003438Y007772D01*
X003486Y007730D01*
X003530Y007686D01*
X003572Y007638D01*
X003610Y007589D01*
X003645Y007537D01*
X003677Y007483D01*
X003706Y007427D01*
X003731Y007369D01*
X003752Y007310D01*
X003770Y007250D01*
X003783Y007188D01*
X003793Y007126D01*
X003799Y007064D01*
X003801Y007001D01*
X003799Y006938D01*
X003793Y006876D01*
X003783Y006814D01*
X003770Y006752D01*
X003752Y006692D01*
X003731Y006633D01*
X003706Y006575D01*
X003677Y006519D01*
X003645Y006465D01*
X003610Y006413D01*
X003572Y006364D01*
X003530Y006316D01*
X003486Y006272D01*
X003438Y006230D01*
X003389Y006192D01*
X003337Y006157D01*
X003283Y006125D01*
X003227Y006096D01*
X003169Y006071D01*
X003110Y006050D01*
X003050Y006032D01*
X002988Y006019D01*
X002926Y006009D01*
X002864Y006003D01*
X002801Y006001D01*
X002738Y006003D01*
X002676Y006009D01*
X002614Y006019D01*
X002552Y006032D01*
X002492Y006050D01*
X002433Y006071D01*
X002375Y006096D01*
X002319Y006125D01*
X002265Y006157D01*
X002213Y006192D01*
X002164Y006230D01*
X002116Y006272D01*
X002072Y006316D01*
X002030Y006364D01*
X001992Y006413D01*
X001957Y006465D01*
X001925Y006519D01*
X001896Y006575D01*
X001871Y006633D01*
X001850Y006692D01*
X001832Y006752D01*
X001819Y006814D01*
X001809Y006876D01*
X001803Y006938D01*
X001801Y007001D01*
X011801Y007001D02*
X011803Y007064D01*
X011809Y007126D01*
X011819Y007188D01*
X011832Y007250D01*
X011850Y007310D01*
X011871Y007369D01*
X011896Y007427D01*
X011925Y007483D01*
X011957Y007537D01*
X011992Y007589D01*
X012030Y007638D01*
X012072Y007686D01*
X012116Y007730D01*
X012164Y007772D01*
X012213Y007810D01*
X012265Y007845D01*
X012319Y007877D01*
X012375Y007906D01*
X012433Y007931D01*
X012492Y007952D01*
X012552Y007970D01*
X012614Y007983D01*
X012676Y007993D01*
X012738Y007999D01*
X012801Y008001D01*
X012864Y007999D01*
X012926Y007993D01*
X012988Y007983D01*
X013050Y007970D01*
X013110Y007952D01*
X013169Y007931D01*
X013227Y007906D01*
X013283Y007877D01*
X013337Y007845D01*
X013389Y007810D01*
X013438Y007772D01*
X013486Y007730D01*
X013530Y007686D01*
X013572Y007638D01*
X013610Y007589D01*
X013645Y007537D01*
X013677Y007483D01*
X013706Y007427D01*
X013731Y007369D01*
X013752Y007310D01*
X013770Y007250D01*
X013783Y007188D01*
X013793Y007126D01*
X013799Y007064D01*
X013801Y007001D01*
X013799Y006938D01*
X013793Y006876D01*
X013783Y006814D01*
X013770Y006752D01*
X013752Y006692D01*
X013731Y006633D01*
X013706Y006575D01*
X013677Y006519D01*
X013645Y006465D01*
X013610Y006413D01*
X013572Y006364D01*
X013530Y006316D01*
X013486Y006272D01*
X013438Y006230D01*
X013389Y006192D01*
X013337Y006157D01*
X013283Y006125D01*
X013227Y006096D01*
X013169Y006071D01*
X013110Y006050D01*
X013050Y006032D01*
X012988Y006019D01*
X012926Y006009D01*
X012864Y006003D01*
X012801Y006001D01*
X012738Y006003D01*
X012676Y006009D01*
X012614Y006019D01*
X012552Y006032D01*
X012492Y006050D01*
X012433Y006071D01*
X012375Y006096D01*
X012319Y006125D01*
X012265Y006157D01*
X012213Y006192D01*
X012164Y006230D01*
X012116Y006272D01*
X012072Y006316D01*
X012030Y006364D01*
X011992Y006413D01*
X011957Y006465D01*
X011925Y006519D01*
X011896Y006575D01*
X011871Y006633D01*
X011850Y006692D01*
X011832Y006752D01*
X011819Y006814D01*
X011809Y006876D01*
X011803Y006938D01*
X011801Y007001D01*
X016801Y013501D02*
X016803Y013564D01*
X016809Y013626D01*
X016819Y013688D01*
X016832Y013750D01*
X016850Y013810D01*
X016871Y013869D01*
X016896Y013927D01*
X016925Y013983D01*
X016957Y014037D01*
X016992Y014089D01*
X017030Y014138D01*
X017072Y014186D01*
X017116Y014230D01*
X017164Y014272D01*
X017213Y014310D01*
X017265Y014345D01*
X017319Y014377D01*
X017375Y014406D01*
X017433Y014431D01*
X017492Y014452D01*
X017552Y014470D01*
X017614Y014483D01*
X017676Y014493D01*
X017738Y014499D01*
X017801Y014501D01*
X017864Y014499D01*
X017926Y014493D01*
X017988Y014483D01*
X018050Y014470D01*
X018110Y014452D01*
X018169Y014431D01*
X018227Y014406D01*
X018283Y014377D01*
X018337Y014345D01*
X018389Y014310D01*
X018438Y014272D01*
X018486Y014230D01*
X018530Y014186D01*
X018572Y014138D01*
X018610Y014089D01*
X018645Y014037D01*
X018677Y013983D01*
X018706Y013927D01*
X018731Y013869D01*
X018752Y013810D01*
X018770Y013750D01*
X018783Y013688D01*
X018793Y013626D01*
X018799Y013564D01*
X018801Y013501D01*
X018799Y013438D01*
X018793Y013376D01*
X018783Y013314D01*
X018770Y013252D01*
X018752Y013192D01*
X018731Y013133D01*
X018706Y013075D01*
X018677Y013019D01*
X018645Y012965D01*
X018610Y012913D01*
X018572Y012864D01*
X018530Y012816D01*
X018486Y012772D01*
X018438Y012730D01*
X018389Y012692D01*
X018337Y012657D01*
X018283Y012625D01*
X018227Y012596D01*
X018169Y012571D01*
X018110Y012550D01*
X018050Y012532D01*
X017988Y012519D01*
X017926Y012509D01*
X017864Y012503D01*
X017801Y012501D01*
X017738Y012503D01*
X017676Y012509D01*
X017614Y012519D01*
X017552Y012532D01*
X017492Y012550D01*
X017433Y012571D01*
X017375Y012596D01*
X017319Y012625D01*
X017265Y012657D01*
X017213Y012692D01*
X017164Y012730D01*
X017116Y012772D01*
X017072Y012816D01*
X017030Y012864D01*
X016992Y012913D01*
X016957Y012965D01*
X016925Y013019D01*
X016896Y013075D01*
X016871Y013133D01*
X016850Y013192D01*
X016832Y013252D01*
X016819Y013314D01*
X016809Y013376D01*
X016803Y013438D01*
X016801Y013501D01*
X022651Y015001D02*
X024951Y015001D01*
X024951Y019001D01*
X024201Y019001D01*
X024199Y018962D01*
X024193Y018923D01*
X024184Y018885D01*
X024171Y018848D01*
X024154Y018812D01*
X024134Y018779D01*
X024110Y018747D01*
X024084Y018718D01*
X024055Y018692D01*
X024023Y018668D01*
X023990Y018648D01*
X023954Y018631D01*
X023917Y018618D01*
X023879Y018609D01*
X023840Y018603D01*
X023801Y018601D01*
X023762Y018603D01*
X023723Y018609D01*
X023685Y018618D01*
X023648Y018631D01*
X023612Y018648D01*
X023579Y018668D01*
X023547Y018692D01*
X023518Y018718D01*
X023492Y018747D01*
X023468Y018779D01*
X023448Y018812D01*
X023431Y018848D01*
X023418Y018885D01*
X023409Y018923D01*
X023403Y018962D01*
X023401Y019001D01*
X022651Y019001D01*
X022651Y015001D01*
D15*
X025696Y012963D02*
X025986Y012963D01*
X025986Y013059D02*
X025986Y012866D01*
X025792Y012866D02*
X025696Y012963D01*
X025744Y011659D02*
X025792Y011659D01*
X025841Y011611D01*
X025889Y011659D01*
X025937Y011659D01*
X025986Y011611D01*
X025986Y011514D01*
X025937Y011466D01*
X025841Y011563D02*
X025841Y011611D01*
X025744Y011659D02*
X025696Y011611D01*
X025696Y011514D01*
X025744Y011466D01*
D16*
X018833Y014281D02*
X018761Y014227D01*
X018762Y014228D02*
X018719Y014281D01*
X018674Y014332D01*
X018625Y014380D01*
X018574Y014425D01*
X018520Y014468D01*
X018464Y014507D01*
X018406Y014543D01*
X018346Y014576D01*
X018285Y014605D01*
X018221Y014630D01*
X018157Y014652D01*
X018091Y014671D01*
X018024Y014685D01*
X017957Y014696D01*
X017889Y014703D01*
X017821Y014706D01*
X017752Y014705D01*
X017684Y014700D01*
X017616Y014692D01*
X017549Y014679D01*
X017483Y014663D01*
X017418Y014643D01*
X017353Y014620D01*
X017291Y014593D01*
X017230Y014562D01*
X017171Y014528D01*
X017113Y014491D01*
X017058Y014450D01*
X017006Y014406D01*
X016956Y014360D01*
X016909Y014311D01*
X016864Y014259D01*
X016823Y014205D01*
X016784Y014148D01*
X016749Y014089D01*
X016718Y014029D01*
X016690Y013967D01*
X016665Y013903D01*
X016644Y013838D01*
X016627Y013772D01*
X016613Y013705D01*
X016604Y013637D01*
X016598Y013569D01*
X016596Y013501D01*
X016598Y013433D01*
X016604Y013365D01*
X016613Y013297D01*
X016627Y013230D01*
X016644Y013164D01*
X016665Y013099D01*
X016690Y013035D01*
X016718Y012973D01*
X016749Y012913D01*
X016784Y012854D01*
X016823Y012797D01*
X016864Y012743D01*
X016909Y012691D01*
X016956Y012642D01*
X017006Y012596D01*
X017058Y012552D01*
X017113Y012511D01*
X017171Y012474D01*
X017230Y012440D01*
X017291Y012409D01*
X017353Y012382D01*
X017418Y012359D01*
X017483Y012339D01*
X017549Y012323D01*
X017616Y012310D01*
X017684Y012302D01*
X017752Y012297D01*
X017821Y012296D01*
X017889Y012299D01*
X017957Y012306D01*
X018024Y012317D01*
X018091Y012331D01*
X018157Y012350D01*
X018221Y012372D01*
X018285Y012397D01*
X018346Y012426D01*
X018406Y012459D01*
X018464Y012495D01*
X018520Y012534D01*
X018574Y012577D01*
X018625Y012622D01*
X018674Y012670D01*
X018719Y012721D01*
X018762Y012774D01*
X018833Y012721D01*
X018834Y012720D01*
X018790Y012665D01*
X018742Y012612D01*
X018692Y012561D01*
X018639Y012514D01*
X018584Y012470D01*
X018526Y012428D01*
X018466Y012390D01*
X018405Y012355D01*
X018341Y012324D01*
X018276Y012296D01*
X018209Y012272D01*
X018141Y012251D01*
X018072Y012235D01*
X018002Y012222D01*
X017932Y012213D01*
X017861Y012207D01*
X017790Y012206D01*
X017719Y012209D01*
X017648Y012215D01*
X017578Y012225D01*
X017509Y012239D01*
X017440Y012257D01*
X017372Y012279D01*
X017306Y012304D01*
X017241Y012333D01*
X017178Y012366D01*
X017117Y012402D01*
X017058Y012441D01*
X017001Y012483D01*
X016946Y012528D01*
X016894Y012577D01*
X016845Y012628D01*
X016798Y012681D01*
X016755Y012738D01*
X016715Y012796D01*
X016678Y012857D01*
X016644Y012919D01*
X016614Y012983D01*
X016587Y013049D01*
X016564Y013116D01*
X016545Y013185D01*
X016530Y013254D01*
X016518Y013324D01*
X016510Y013395D01*
X016506Y013466D01*
X016506Y013536D01*
X016510Y013607D01*
X016518Y013678D01*
X016530Y013748D01*
X016545Y013817D01*
X016564Y013886D01*
X016587Y013953D01*
X016614Y014019D01*
X016644Y014083D01*
X016678Y014145D01*
X016715Y014206D01*
X016755Y014264D01*
X016798Y014321D01*
X016845Y014374D01*
X016894Y014425D01*
X016946Y014474D01*
X017001Y014519D01*
X017058Y014561D01*
X017117Y014600D01*
X017178Y014636D01*
X017241Y014669D01*
X017306Y014698D01*
X017372Y014723D01*
X017440Y014745D01*
X017509Y014763D01*
X017578Y014777D01*
X017648Y014787D01*
X017719Y014793D01*
X017790Y014796D01*
X017861Y014795D01*
X017932Y014789D01*
X018002Y014780D01*
X018072Y014767D01*
X018141Y014751D01*
X018209Y014730D01*
X018276Y014706D01*
X018341Y014678D01*
X018405Y014647D01*
X018466Y014612D01*
X018526Y014574D01*
X018584Y014532D01*
X018639Y014488D01*
X018692Y014441D01*
X018742Y014390D01*
X018790Y014337D01*
X018834Y014282D01*
X018827Y014277D01*
X018782Y014332D01*
X018735Y014385D01*
X018684Y014436D01*
X018631Y014483D01*
X018575Y014528D01*
X018517Y014569D01*
X018457Y014607D01*
X018395Y014642D01*
X018331Y014673D01*
X018265Y014700D01*
X018198Y014724D01*
X018129Y014744D01*
X018060Y014761D01*
X017990Y014773D01*
X017919Y014782D01*
X017848Y014786D01*
X017777Y014787D01*
X017706Y014783D01*
X017635Y014776D01*
X017564Y014765D01*
X017495Y014750D01*
X017426Y014731D01*
X017358Y014708D01*
X017292Y014682D01*
X017227Y014652D01*
X017165Y014618D01*
X017104Y014582D01*
X017045Y014541D01*
X016988Y014498D01*
X016934Y014451D01*
X016883Y014402D01*
X016835Y014349D01*
X016789Y014295D01*
X016747Y014237D01*
X016708Y014178D01*
X016672Y014116D01*
X016639Y014053D01*
X016611Y013988D01*
X016585Y013921D01*
X016564Y013853D01*
X016546Y013784D01*
X016533Y013714D01*
X016523Y013643D01*
X016517Y013572D01*
X016515Y013501D01*
X016517Y013430D01*
X016523Y013359D01*
X016533Y013288D01*
X016546Y013218D01*
X016564Y013149D01*
X016585Y013081D01*
X016611Y013014D01*
X016639Y012949D01*
X016672Y012886D01*
X016708Y012824D01*
X016747Y012765D01*
X016789Y012707D01*
X016835Y012653D01*
X016883Y012600D01*
X016934Y012551D01*
X016988Y012504D01*
X017045Y012461D01*
X017104Y012420D01*
X017165Y012384D01*
X017227Y012350D01*
X017292Y012320D01*
X017358Y012294D01*
X017426Y012271D01*
X017495Y012252D01*
X017564Y012237D01*
X017635Y012226D01*
X017706Y012219D01*
X017777Y012215D01*
X017848Y012216D01*
X017919Y012220D01*
X017990Y012229D01*
X018060Y012241D01*
X018129Y012258D01*
X018198Y012278D01*
X018265Y012302D01*
X018331Y012329D01*
X018395Y012360D01*
X018457Y012395D01*
X018517Y012433D01*
X018575Y012474D01*
X018631Y012519D01*
X018684Y012566D01*
X018735Y012617D01*
X018782Y012670D01*
X018827Y012725D01*
X018820Y012731D01*
X018775Y012676D01*
X018728Y012623D01*
X018678Y012573D01*
X018625Y012526D01*
X018570Y012482D01*
X018512Y012440D01*
X018453Y012403D01*
X018391Y012368D01*
X018327Y012337D01*
X018262Y012310D01*
X018195Y012286D01*
X018127Y012266D01*
X018058Y012250D01*
X017989Y012238D01*
X017918Y012229D01*
X017848Y012225D01*
X017777Y012224D01*
X017706Y012228D01*
X017636Y012235D01*
X017566Y012246D01*
X017497Y012261D01*
X017429Y012280D01*
X017361Y012302D01*
X017296Y012328D01*
X017231Y012358D01*
X017169Y012391D01*
X017109Y012428D01*
X017050Y012468D01*
X016994Y012511D01*
X016940Y012557D01*
X016890Y012607D01*
X016841Y012658D01*
X016796Y012713D01*
X016754Y012770D01*
X016715Y012829D01*
X016680Y012890D01*
X016647Y012953D01*
X016619Y013018D01*
X016594Y013084D01*
X016573Y013152D01*
X016555Y013220D01*
X016542Y013290D01*
X016532Y013360D01*
X016526Y013430D01*
X016524Y013501D01*
X016526Y013572D01*
X016532Y013642D01*
X016542Y013712D01*
X016555Y013782D01*
X016573Y013850D01*
X016594Y013918D01*
X016619Y013984D01*
X016647Y014049D01*
X016680Y014112D01*
X016715Y014173D01*
X016754Y014232D01*
X016796Y014289D01*
X016841Y014344D01*
X016890Y014395D01*
X016940Y014445D01*
X016994Y014491D01*
X017050Y014534D01*
X017109Y014574D01*
X017169Y014611D01*
X017231Y014644D01*
X017296Y014674D01*
X017361Y014700D01*
X017429Y014722D01*
X017497Y014741D01*
X017566Y014756D01*
X017636Y014767D01*
X017706Y014774D01*
X017777Y014778D01*
X017848Y014777D01*
X017918Y014773D01*
X017989Y014764D01*
X018058Y014752D01*
X018127Y014736D01*
X018195Y014716D01*
X018262Y014692D01*
X018327Y014665D01*
X018391Y014634D01*
X018453Y014599D01*
X018512Y014562D01*
X018570Y014520D01*
X018625Y014476D01*
X018678Y014429D01*
X018728Y014379D01*
X018775Y014326D01*
X018820Y014271D01*
X018812Y014266D01*
X018768Y014321D01*
X018720Y014374D01*
X018670Y014424D01*
X018617Y014472D01*
X018561Y014516D01*
X018503Y014557D01*
X018443Y014594D01*
X018381Y014629D01*
X018317Y014659D01*
X018251Y014686D01*
X018184Y014710D01*
X018116Y014729D01*
X018046Y014745D01*
X017976Y014757D01*
X017906Y014765D01*
X017835Y014769D01*
X017764Y014768D01*
X017693Y014764D01*
X017622Y014756D01*
X017552Y014744D01*
X017483Y014728D01*
X017415Y014709D01*
X017347Y014685D01*
X017282Y014658D01*
X017218Y014627D01*
X017156Y014593D01*
X017096Y014555D01*
X017038Y014513D01*
X016982Y014469D01*
X016929Y014422D01*
X016879Y014371D01*
X016832Y014318D01*
X016787Y014263D01*
X016746Y014205D01*
X016709Y014145D01*
X016674Y014082D01*
X016643Y014018D01*
X016616Y013953D01*
X016593Y013886D01*
X016573Y013817D01*
X016557Y013748D01*
X016545Y013678D01*
X016537Y013607D01*
X016533Y013537D01*
X016533Y013465D01*
X016537Y013395D01*
X016545Y013324D01*
X016557Y013254D01*
X016573Y013185D01*
X016593Y013116D01*
X016616Y013049D01*
X016643Y012984D01*
X016674Y012920D01*
X016709Y012857D01*
X016746Y012797D01*
X016787Y012739D01*
X016832Y012684D01*
X016879Y012631D01*
X016929Y012580D01*
X016982Y012533D01*
X017038Y012489D01*
X017096Y012447D01*
X017156Y012409D01*
X017218Y012375D01*
X017282Y012344D01*
X017347Y012317D01*
X017415Y012293D01*
X017483Y012274D01*
X017552Y012258D01*
X017622Y012246D01*
X017693Y012238D01*
X017764Y012234D01*
X017835Y012233D01*
X017906Y012237D01*
X017976Y012245D01*
X018046Y012257D01*
X018116Y012273D01*
X018184Y012292D01*
X018251Y012316D01*
X018317Y012343D01*
X018381Y012373D01*
X018443Y012408D01*
X018503Y012445D01*
X018561Y012486D01*
X018617Y012530D01*
X018670Y012578D01*
X018720Y012628D01*
X018768Y012681D01*
X018812Y012736D01*
X018805Y012742D01*
X018761Y012687D01*
X018714Y012634D01*
X018664Y012584D01*
X018611Y012537D01*
X018556Y012493D01*
X018498Y012453D01*
X018439Y012415D01*
X018377Y012381D01*
X018313Y012351D01*
X018248Y012324D01*
X018181Y012301D01*
X018113Y012281D01*
X018045Y012266D01*
X017975Y012254D01*
X017905Y012246D01*
X017834Y012242D01*
X017764Y012243D01*
X017693Y012247D01*
X017623Y012255D01*
X017554Y012267D01*
X017485Y012282D01*
X017417Y012302D01*
X017351Y012325D01*
X017286Y012352D01*
X017222Y012383D01*
X017160Y012417D01*
X017101Y012455D01*
X017043Y012496D01*
X016988Y012540D01*
X016935Y012587D01*
X016886Y012637D01*
X016839Y012689D01*
X016795Y012745D01*
X016754Y012802D01*
X016716Y012862D01*
X016682Y012924D01*
X016652Y012987D01*
X016625Y013052D01*
X016601Y013119D01*
X016582Y013187D01*
X016566Y013256D01*
X016554Y013325D01*
X016546Y013395D01*
X016542Y013466D01*
X016542Y013536D01*
X016546Y013607D01*
X016554Y013677D01*
X016566Y013746D01*
X016582Y013815D01*
X016601Y013883D01*
X016625Y013950D01*
X016652Y014015D01*
X016682Y014078D01*
X016716Y014140D01*
X016754Y014200D01*
X016795Y014257D01*
X016839Y014313D01*
X016886Y014365D01*
X016935Y014415D01*
X016988Y014462D01*
X017043Y014506D01*
X017101Y014547D01*
X017160Y014585D01*
X017222Y014619D01*
X017286Y014650D01*
X017351Y014677D01*
X017417Y014700D01*
X017485Y014720D01*
X017554Y014735D01*
X017623Y014747D01*
X017693Y014755D01*
X017764Y014759D01*
X017834Y014760D01*
X017905Y014756D01*
X017975Y014748D01*
X018045Y014736D01*
X018113Y014721D01*
X018181Y014701D01*
X018248Y014678D01*
X018313Y014651D01*
X018377Y014621D01*
X018439Y014587D01*
X018498Y014549D01*
X018556Y014509D01*
X018611Y014465D01*
X018664Y014418D01*
X018714Y014368D01*
X018761Y014315D01*
X018805Y014260D01*
X018798Y014255D01*
X018754Y014310D01*
X018707Y014362D01*
X018658Y014411D01*
X018605Y014458D01*
X018551Y014501D01*
X018493Y014542D01*
X018434Y014579D01*
X018373Y014613D01*
X018309Y014643D01*
X018245Y014670D01*
X018178Y014693D01*
X018111Y014712D01*
X018043Y014727D01*
X017974Y014739D01*
X017904Y014747D01*
X017834Y014751D01*
X017764Y014750D01*
X017694Y014746D01*
X017625Y014738D01*
X017556Y014727D01*
X017487Y014711D01*
X017420Y014692D01*
X017354Y014668D01*
X017289Y014641D01*
X017226Y014611D01*
X017165Y014577D01*
X017106Y014540D01*
X017048Y014499D01*
X016994Y014455D01*
X016942Y014409D01*
X016892Y014359D01*
X016845Y014307D01*
X016802Y014252D01*
X016761Y014195D01*
X016724Y014136D01*
X016690Y014074D01*
X016660Y014011D01*
X016633Y013946D01*
X016610Y013880D01*
X016591Y013813D01*
X016575Y013745D01*
X016563Y013676D01*
X016555Y013606D01*
X016551Y013536D01*
X016551Y013466D01*
X016555Y013396D01*
X016563Y013326D01*
X016575Y013257D01*
X016591Y013189D01*
X016610Y013122D01*
X016633Y013056D01*
X016660Y012991D01*
X016690Y012928D01*
X016724Y012866D01*
X016761Y012807D01*
X016802Y012750D01*
X016845Y012695D01*
X016892Y012643D01*
X016942Y012593D01*
X016994Y012547D01*
X017048Y012503D01*
X017106Y012462D01*
X017165Y012425D01*
X017226Y012391D01*
X017289Y012361D01*
X017354Y012334D01*
X017420Y012310D01*
X017487Y012291D01*
X017556Y012275D01*
X017625Y012264D01*
X017694Y012256D01*
X017764Y012252D01*
X017834Y012251D01*
X017904Y012255D01*
X017974Y012263D01*
X018043Y012275D01*
X018111Y012290D01*
X018178Y012309D01*
X018245Y012332D01*
X018309Y012359D01*
X018373Y012389D01*
X018434Y012423D01*
X018493Y012460D01*
X018551Y012501D01*
X018605Y012544D01*
X018658Y012591D01*
X018707Y012640D01*
X018754Y012692D01*
X018798Y012747D01*
X018791Y012752D01*
X018747Y012698D01*
X018701Y012646D01*
X018652Y012597D01*
X018600Y012551D01*
X018545Y012508D01*
X018488Y012468D01*
X018429Y012431D01*
X018368Y012397D01*
X018306Y012367D01*
X018241Y012341D01*
X018176Y012318D01*
X018109Y012299D01*
X018041Y012283D01*
X017972Y012272D01*
X017903Y012264D01*
X017834Y012260D01*
X017764Y012261D01*
X017695Y012265D01*
X017626Y012272D01*
X017557Y012284D01*
X017490Y012300D01*
X017423Y012319D01*
X017357Y012342D01*
X017293Y012369D01*
X017230Y012399D01*
X017169Y012433D01*
X017111Y012470D01*
X017054Y012510D01*
X017000Y012553D01*
X016948Y012600D01*
X016899Y012649D01*
X016852Y012701D01*
X016809Y012755D01*
X016769Y012812D01*
X016732Y012871D01*
X016698Y012932D01*
X016668Y012995D01*
X016641Y013059D01*
X016618Y013124D01*
X016599Y013191D01*
X016584Y013259D01*
X016572Y013328D01*
X016564Y013397D01*
X016560Y013466D01*
X016560Y013536D01*
X016564Y013605D01*
X016572Y013674D01*
X016584Y013743D01*
X016599Y013811D01*
X016618Y013878D01*
X016641Y013943D01*
X016668Y014007D01*
X016698Y014070D01*
X016732Y014131D01*
X016769Y014190D01*
X016809Y014247D01*
X016852Y014301D01*
X016899Y014353D01*
X016948Y014402D01*
X017000Y014449D01*
X017054Y014492D01*
X017111Y014532D01*
X017169Y014569D01*
X017230Y014603D01*
X017293Y014633D01*
X017357Y014660D01*
X017423Y014683D01*
X017490Y014702D01*
X017557Y014718D01*
X017626Y014730D01*
X017695Y014737D01*
X017764Y014741D01*
X017834Y014742D01*
X017903Y014738D01*
X017972Y014730D01*
X018041Y014719D01*
X018109Y014703D01*
X018176Y014684D01*
X018241Y014661D01*
X018306Y014635D01*
X018368Y014605D01*
X018429Y014571D01*
X018488Y014534D01*
X018545Y014494D01*
X018600Y014451D01*
X018652Y014405D01*
X018701Y014356D01*
X018747Y014304D01*
X018791Y014250D01*
X018784Y014244D01*
X018740Y014298D01*
X018694Y014349D01*
X018645Y014398D01*
X018594Y014444D01*
X018540Y014487D01*
X018483Y014527D01*
X018425Y014563D01*
X018364Y014597D01*
X018302Y014627D01*
X018238Y014653D01*
X018173Y014675D01*
X018107Y014694D01*
X018039Y014710D01*
X017971Y014721D01*
X017903Y014729D01*
X017834Y014733D01*
X017765Y014732D01*
X017696Y014728D01*
X017627Y014721D01*
X017559Y014709D01*
X017492Y014694D01*
X017425Y014674D01*
X017360Y014651D01*
X017297Y014625D01*
X017234Y014595D01*
X017174Y014562D01*
X017116Y014525D01*
X017059Y014485D01*
X017005Y014442D01*
X016954Y014396D01*
X016905Y014347D01*
X016859Y014295D01*
X016816Y014241D01*
X016776Y014185D01*
X016740Y014126D01*
X016706Y014066D01*
X016676Y014004D01*
X016650Y013940D01*
X016627Y013875D01*
X016608Y013808D01*
X016593Y013741D01*
X016581Y013673D01*
X016573Y013604D01*
X016569Y013536D01*
X016569Y013466D01*
X016573Y013398D01*
X016581Y013329D01*
X016593Y013261D01*
X016608Y013194D01*
X016627Y013127D01*
X016650Y013062D01*
X016676Y012998D01*
X016706Y012936D01*
X016740Y012876D01*
X016776Y012817D01*
X016816Y012761D01*
X016859Y012707D01*
X016905Y012655D01*
X016954Y012606D01*
X017005Y012560D01*
X017059Y012517D01*
X017116Y012477D01*
X017174Y012440D01*
X017234Y012407D01*
X017297Y012377D01*
X017360Y012351D01*
X017425Y012328D01*
X017492Y012308D01*
X017559Y012293D01*
X017627Y012281D01*
X017696Y012274D01*
X017765Y012270D01*
X017834Y012269D01*
X017903Y012273D01*
X017971Y012281D01*
X018039Y012292D01*
X018107Y012308D01*
X018173Y012327D01*
X018238Y012349D01*
X018302Y012375D01*
X018364Y012405D01*
X018425Y012439D01*
X018483Y012475D01*
X018540Y012515D01*
X018594Y012558D01*
X018645Y012604D01*
X018694Y012653D01*
X018740Y012704D01*
X018784Y012758D01*
X018776Y012763D01*
X018733Y012709D01*
X018687Y012658D01*
X018637Y012609D01*
X018586Y012563D01*
X018531Y012520D01*
X018474Y012480D01*
X018416Y012444D01*
X018355Y012410D01*
X018292Y012381D01*
X018228Y012355D01*
X018162Y012333D01*
X018095Y012314D01*
X018028Y012299D01*
X017959Y012288D01*
X017890Y012281D01*
X017821Y012278D01*
X017752Y012279D01*
X017682Y012284D01*
X017614Y012292D01*
X017546Y012305D01*
X017478Y012321D01*
X017412Y012342D01*
X017347Y012365D01*
X017283Y012393D01*
X017221Y012424D01*
X017161Y012459D01*
X017103Y012497D01*
X017047Y012538D01*
X016994Y012582D01*
X016943Y012629D01*
X016895Y012679D01*
X016850Y012732D01*
X016808Y012787D01*
X016769Y012844D01*
X016734Y012904D01*
X016702Y012965D01*
X016673Y013028D01*
X016648Y013093D01*
X016627Y013159D01*
X016609Y013226D01*
X016596Y013294D01*
X016586Y013363D01*
X016580Y013432D01*
X016578Y013501D01*
X016580Y013570D01*
X016586Y013639D01*
X016596Y013708D01*
X016609Y013776D01*
X016627Y013843D01*
X016648Y013909D01*
X016673Y013974D01*
X016702Y014037D01*
X016734Y014098D01*
X016769Y014158D01*
X016808Y014215D01*
X016850Y014270D01*
X016895Y014323D01*
X016943Y014373D01*
X016994Y014420D01*
X017047Y014464D01*
X017103Y014505D01*
X017161Y014543D01*
X017221Y014578D01*
X017283Y014609D01*
X017347Y014637D01*
X017412Y014660D01*
X017478Y014681D01*
X017546Y014697D01*
X017614Y014710D01*
X017682Y014718D01*
X017752Y014723D01*
X017821Y014724D01*
X017890Y014721D01*
X017959Y014714D01*
X018028Y014703D01*
X018095Y014688D01*
X018162Y014669D01*
X018228Y014647D01*
X018292Y014621D01*
X018355Y014592D01*
X018416Y014558D01*
X018474Y014522D01*
X018531Y014482D01*
X018586Y014439D01*
X018637Y014393D01*
X018687Y014344D01*
X018733Y014293D01*
X018776Y014239D01*
X018769Y014233D01*
X018726Y014287D01*
X018680Y014338D01*
X018631Y014387D01*
X018580Y014432D01*
X018526Y014475D01*
X018469Y014514D01*
X018411Y014551D01*
X018351Y014584D01*
X018288Y014613D01*
X018225Y014639D01*
X018159Y014661D01*
X018093Y014679D01*
X018026Y014694D01*
X017958Y014705D01*
X017889Y014712D01*
X017821Y014715D01*
X017752Y014714D01*
X017683Y014709D01*
X017615Y014701D01*
X017547Y014688D01*
X017481Y014672D01*
X017415Y014652D01*
X017350Y014628D01*
X017287Y014601D01*
X017226Y014570D01*
X017166Y014536D01*
X017108Y014498D01*
X017053Y014457D01*
X017000Y014413D01*
X016950Y014366D01*
X016902Y014317D01*
X016857Y014265D01*
X016815Y014210D01*
X016777Y014153D01*
X016742Y014094D01*
X016710Y014033D01*
X016681Y013970D01*
X016657Y013906D01*
X016635Y013840D01*
X016618Y013774D01*
X016605Y013706D01*
X016595Y013638D01*
X016589Y013570D01*
X016587Y013501D01*
X016589Y013432D01*
X016595Y013364D01*
X016605Y013296D01*
X016618Y013228D01*
X016635Y013162D01*
X016657Y013096D01*
X016681Y013032D01*
X016710Y012969D01*
X016742Y012908D01*
X016777Y012849D01*
X016815Y012792D01*
X016857Y012737D01*
X016902Y012685D01*
X016950Y012636D01*
X017000Y012589D01*
X017053Y012545D01*
X017108Y012504D01*
X017166Y012466D01*
X017226Y012432D01*
X017287Y012401D01*
X017350Y012374D01*
X017415Y012350D01*
X017481Y012330D01*
X017547Y012314D01*
X017615Y012301D01*
X017683Y012293D01*
X017752Y012288D01*
X017821Y012287D01*
X017889Y012290D01*
X017958Y012297D01*
X018026Y012308D01*
X018093Y012323D01*
X018159Y012341D01*
X018225Y012363D01*
X018288Y012389D01*
X018351Y012418D01*
X018411Y012451D01*
X018469Y012488D01*
X018526Y012527D01*
X018580Y012570D01*
X018631Y012615D01*
X018680Y012664D01*
X018726Y012715D01*
X018769Y012769D01*
X013833Y014281D02*
X013761Y014227D01*
X013762Y014228D02*
X013719Y014281D01*
X013674Y014332D01*
X013625Y014380D01*
X013574Y014425D01*
X013520Y014468D01*
X013464Y014507D01*
X013406Y014543D01*
X013346Y014576D01*
X013285Y014605D01*
X013221Y014630D01*
X013157Y014652D01*
X013091Y014671D01*
X013024Y014685D01*
X012957Y014696D01*
X012889Y014703D01*
X012821Y014706D01*
X012752Y014705D01*
X012684Y014700D01*
X012616Y014692D01*
X012549Y014679D01*
X012483Y014663D01*
X012418Y014643D01*
X012353Y014620D01*
X012291Y014593D01*
X012230Y014562D01*
X012171Y014528D01*
X012113Y014491D01*
X012058Y014450D01*
X012006Y014406D01*
X011956Y014360D01*
X011909Y014311D01*
X011864Y014259D01*
X011823Y014205D01*
X011784Y014148D01*
X011749Y014089D01*
X011718Y014029D01*
X011690Y013967D01*
X011665Y013903D01*
X011644Y013838D01*
X011627Y013772D01*
X011613Y013705D01*
X011604Y013637D01*
X011598Y013569D01*
X011596Y013501D01*
X011598Y013433D01*
X011604Y013365D01*
X011613Y013297D01*
X011627Y013230D01*
X011644Y013164D01*
X011665Y013099D01*
X011690Y013035D01*
X011718Y012973D01*
X011749Y012913D01*
X011784Y012854D01*
X011823Y012797D01*
X011864Y012743D01*
X011909Y012691D01*
X011956Y012642D01*
X012006Y012596D01*
X012058Y012552D01*
X012113Y012511D01*
X012171Y012474D01*
X012230Y012440D01*
X012291Y012409D01*
X012353Y012382D01*
X012418Y012359D01*
X012483Y012339D01*
X012549Y012323D01*
X012616Y012310D01*
X012684Y012302D01*
X012752Y012297D01*
X012821Y012296D01*
X012889Y012299D01*
X012957Y012306D01*
X013024Y012317D01*
X013091Y012331D01*
X013157Y012350D01*
X013221Y012372D01*
X013285Y012397D01*
X013346Y012426D01*
X013406Y012459D01*
X013464Y012495D01*
X013520Y012534D01*
X013574Y012577D01*
X013625Y012622D01*
X013674Y012670D01*
X013719Y012721D01*
X013762Y012774D01*
X013833Y012721D01*
X013834Y012720D01*
X013790Y012665D01*
X013742Y012612D01*
X013692Y012561D01*
X013639Y012514D01*
X013584Y012470D01*
X013526Y012428D01*
X013466Y012390D01*
X013405Y012355D01*
X013341Y012324D01*
X013276Y012296D01*
X013209Y012272D01*
X013141Y012251D01*
X013072Y012235D01*
X013002Y012222D01*
X012932Y012213D01*
X012861Y012207D01*
X012790Y012206D01*
X012719Y012209D01*
X012648Y012215D01*
X012578Y012225D01*
X012509Y012239D01*
X012440Y012257D01*
X012372Y012279D01*
X012306Y012304D01*
X012241Y012333D01*
X012178Y012366D01*
X012117Y012402D01*
X012058Y012441D01*
X012001Y012483D01*
X011946Y012528D01*
X011894Y012577D01*
X011845Y012628D01*
X011798Y012681D01*
X011755Y012738D01*
X011715Y012796D01*
X011678Y012857D01*
X011644Y012919D01*
X011614Y012983D01*
X011587Y013049D01*
X011564Y013116D01*
X011545Y013185D01*
X011530Y013254D01*
X011518Y013324D01*
X011510Y013395D01*
X011506Y013466D01*
X011506Y013536D01*
X011510Y013607D01*
X011518Y013678D01*
X011530Y013748D01*
X011545Y013817D01*
X011564Y013886D01*
X011587Y013953D01*
X011614Y014019D01*
X011644Y014083D01*
X011678Y014145D01*
X011715Y014206D01*
X011755Y014264D01*
X011798Y014321D01*
X011845Y014374D01*
X011894Y014425D01*
X011946Y014474D01*
X012001Y014519D01*
X012058Y014561D01*
X012117Y014600D01*
X012178Y014636D01*
X012241Y014669D01*
X012306Y014698D01*
X012372Y014723D01*
X012440Y014745D01*
X012509Y014763D01*
X012578Y014777D01*
X012648Y014787D01*
X012719Y014793D01*
X012790Y014796D01*
X012861Y014795D01*
X012932Y014789D01*
X013002Y014780D01*
X013072Y014767D01*
X013141Y014751D01*
X013209Y014730D01*
X013276Y014706D01*
X013341Y014678D01*
X013405Y014647D01*
X013466Y014612D01*
X013526Y014574D01*
X013584Y014532D01*
X013639Y014488D01*
X013692Y014441D01*
X013742Y014390D01*
X013790Y014337D01*
X013834Y014282D01*
X013827Y014277D01*
X013782Y014332D01*
X013735Y014385D01*
X013684Y014436D01*
X013631Y014483D01*
X013575Y014528D01*
X013517Y014569D01*
X013457Y014607D01*
X013395Y014642D01*
X013331Y014673D01*
X013265Y014700D01*
X013198Y014724D01*
X013129Y014744D01*
X013060Y014761D01*
X012990Y014773D01*
X012919Y014782D01*
X012848Y014786D01*
X012777Y014787D01*
X012706Y014783D01*
X012635Y014776D01*
X012564Y014765D01*
X012495Y014750D01*
X012426Y014731D01*
X012358Y014708D01*
X012292Y014682D01*
X012227Y014652D01*
X012165Y014618D01*
X012104Y014582D01*
X012045Y014541D01*
X011988Y014498D01*
X011934Y014451D01*
X011883Y014402D01*
X011835Y014349D01*
X011789Y014295D01*
X011747Y014237D01*
X011708Y014178D01*
X011672Y014116D01*
X011639Y014053D01*
X011611Y013988D01*
X011585Y013921D01*
X011564Y013853D01*
X011546Y013784D01*
X011533Y013714D01*
X011523Y013643D01*
X011517Y013572D01*
X011515Y013501D01*
X011517Y013430D01*
X011523Y013359D01*
X011533Y013288D01*
X011546Y013218D01*
X011564Y013149D01*
X011585Y013081D01*
X011611Y013014D01*
X011639Y012949D01*
X011672Y012886D01*
X011708Y012824D01*
X011747Y012765D01*
X011789Y012707D01*
X011835Y012653D01*
X011883Y012600D01*
X011934Y012551D01*
X011988Y012504D01*
X012045Y012461D01*
X012104Y012420D01*
X012165Y012384D01*
X012227Y012350D01*
X012292Y012320D01*
X012358Y012294D01*
X012426Y012271D01*
X012495Y012252D01*
X012564Y012237D01*
X012635Y012226D01*
X012706Y012219D01*
X012777Y012215D01*
X012848Y012216D01*
X012919Y012220D01*
X012990Y012229D01*
X013060Y012241D01*
X013129Y012258D01*
X013198Y012278D01*
X013265Y012302D01*
X013331Y012329D01*
X013395Y012360D01*
X013457Y012395D01*
X013517Y012433D01*
X013575Y012474D01*
X013631Y012519D01*
X013684Y012566D01*
X013735Y012617D01*
X013782Y012670D01*
X013827Y012725D01*
X013820Y012731D01*
X013775Y012676D01*
X013728Y012623D01*
X013678Y012573D01*
X013625Y012526D01*
X013570Y012482D01*
X013512Y012440D01*
X013453Y012403D01*
X013391Y012368D01*
X013327Y012337D01*
X013262Y012310D01*
X013195Y012286D01*
X013127Y012266D01*
X013058Y012250D01*
X012989Y012238D01*
X012918Y012229D01*
X012848Y012225D01*
X012777Y012224D01*
X012706Y012228D01*
X012636Y012235D01*
X012566Y012246D01*
X012497Y012261D01*
X012429Y012280D01*
X012361Y012302D01*
X012296Y012328D01*
X012231Y012358D01*
X012169Y012391D01*
X012109Y012428D01*
X012050Y012468D01*
X011994Y012511D01*
X011940Y012557D01*
X011890Y012607D01*
X011841Y012658D01*
X011796Y012713D01*
X011754Y012770D01*
X011715Y012829D01*
X011680Y012890D01*
X011647Y012953D01*
X011619Y013018D01*
X011594Y013084D01*
X011573Y013152D01*
X011555Y013220D01*
X011542Y013290D01*
X011532Y013360D01*
X011526Y013430D01*
X011524Y013501D01*
X011526Y013572D01*
X011532Y013642D01*
X011542Y013712D01*
X011555Y013782D01*
X011573Y013850D01*
X011594Y013918D01*
X011619Y013984D01*
X011647Y014049D01*
X011680Y014112D01*
X011715Y014173D01*
X011754Y014232D01*
X011796Y014289D01*
X011841Y014344D01*
X011890Y014395D01*
X011940Y014445D01*
X011994Y014491D01*
X012050Y014534D01*
X012109Y014574D01*
X012169Y014611D01*
X012231Y014644D01*
X012296Y014674D01*
X012361Y014700D01*
X012429Y014722D01*
X012497Y014741D01*
X012566Y014756D01*
X012636Y014767D01*
X012706Y014774D01*
X012777Y014778D01*
X012848Y014777D01*
X012918Y014773D01*
X012989Y014764D01*
X013058Y014752D01*
X013127Y014736D01*
X013195Y014716D01*
X013262Y014692D01*
X013327Y014665D01*
X013391Y014634D01*
X013453Y014599D01*
X013512Y014562D01*
X013570Y014520D01*
X013625Y014476D01*
X013678Y014429D01*
X013728Y014379D01*
X013775Y014326D01*
X013820Y014271D01*
X013812Y014266D01*
X013768Y014321D01*
X013720Y014374D01*
X013670Y014424D01*
X013617Y014472D01*
X013561Y014516D01*
X013503Y014557D01*
X013443Y014594D01*
X013381Y014629D01*
X013317Y014659D01*
X013251Y014686D01*
X013184Y014710D01*
X013116Y014729D01*
X013046Y014745D01*
X012976Y014757D01*
X012906Y014765D01*
X012835Y014769D01*
X012764Y014768D01*
X012693Y014764D01*
X012622Y014756D01*
X012552Y014744D01*
X012483Y014728D01*
X012415Y014709D01*
X012347Y014685D01*
X012282Y014658D01*
X012218Y014627D01*
X012156Y014593D01*
X012096Y014555D01*
X012038Y014513D01*
X011982Y014469D01*
X011929Y014422D01*
X011879Y014371D01*
X011832Y014318D01*
X011787Y014263D01*
X011746Y014205D01*
X011709Y014145D01*
X011674Y014082D01*
X011643Y014018D01*
X011616Y013953D01*
X011593Y013886D01*
X011573Y013817D01*
X011557Y013748D01*
X011545Y013678D01*
X011537Y013607D01*
X011533Y013537D01*
X011533Y013465D01*
X011537Y013395D01*
X011545Y013324D01*
X011557Y013254D01*
X011573Y013185D01*
X011593Y013116D01*
X011616Y013049D01*
X011643Y012984D01*
X011674Y012920D01*
X011709Y012857D01*
X011746Y012797D01*
X011787Y012739D01*
X011832Y012684D01*
X011879Y012631D01*
X011929Y012580D01*
X011982Y012533D01*
X012038Y012489D01*
X012096Y012447D01*
X012156Y012409D01*
X012218Y012375D01*
X012282Y012344D01*
X012347Y012317D01*
X012415Y012293D01*
X012483Y012274D01*
X012552Y012258D01*
X012622Y012246D01*
X012693Y012238D01*
X012764Y012234D01*
X012835Y012233D01*
X012906Y012237D01*
X012976Y012245D01*
X013046Y012257D01*
X013116Y012273D01*
X013184Y012292D01*
X013251Y012316D01*
X013317Y012343D01*
X013381Y012373D01*
X013443Y012408D01*
X013503Y012445D01*
X013561Y012486D01*
X013617Y012530D01*
X013670Y012578D01*
X013720Y012628D01*
X013768Y012681D01*
X013812Y012736D01*
X013805Y012742D01*
X013761Y012687D01*
X013714Y012634D01*
X013664Y012584D01*
X013611Y012537D01*
X013556Y012493D01*
X013498Y012453D01*
X013439Y012415D01*
X013377Y012381D01*
X013313Y012351D01*
X013248Y012324D01*
X013181Y012301D01*
X013113Y012281D01*
X013045Y012266D01*
X012975Y012254D01*
X012905Y012246D01*
X012834Y012242D01*
X012764Y012243D01*
X012693Y012247D01*
X012623Y012255D01*
X012554Y012267D01*
X012485Y012282D01*
X012417Y012302D01*
X012351Y012325D01*
X012286Y012352D01*
X012222Y012383D01*
X012160Y012417D01*
X012101Y012455D01*
X012043Y012496D01*
X011988Y012540D01*
X011935Y012587D01*
X011886Y012637D01*
X011839Y012689D01*
X011795Y012745D01*
X011754Y012802D01*
X011716Y012862D01*
X011682Y012924D01*
X011652Y012987D01*
X011625Y013052D01*
X011601Y013119D01*
X011582Y013187D01*
X011566Y013256D01*
X011554Y013325D01*
X011546Y013395D01*
X011542Y013466D01*
X011542Y013536D01*
X011546Y013607D01*
X011554Y013677D01*
X011566Y013746D01*
X011582Y013815D01*
X011601Y013883D01*
X011625Y013950D01*
X011652Y014015D01*
X011682Y014078D01*
X011716Y014140D01*
X011754Y014200D01*
X011795Y014257D01*
X011839Y014313D01*
X011886Y014365D01*
X011935Y014415D01*
X011988Y014462D01*
X012043Y014506D01*
X012101Y014547D01*
X012160Y014585D01*
X012222Y014619D01*
X012286Y014650D01*
X012351Y014677D01*
X012417Y014700D01*
X012485Y014720D01*
X012554Y014735D01*
X012623Y014747D01*
X012693Y014755D01*
X012764Y014759D01*
X012834Y014760D01*
X012905Y014756D01*
X012975Y014748D01*
X013045Y014736D01*
X013113Y014721D01*
X013181Y014701D01*
X013248Y014678D01*
X013313Y014651D01*
X013377Y014621D01*
X013439Y014587D01*
X013498Y014549D01*
X013556Y014509D01*
X013611Y014465D01*
X013664Y014418D01*
X013714Y014368D01*
X013761Y014315D01*
X013805Y014260D01*
X013798Y014255D01*
X013754Y014310D01*
X013707Y014362D01*
X013658Y014411D01*
X013605Y014458D01*
X013551Y014501D01*
X013493Y014542D01*
X013434Y014579D01*
X013373Y014613D01*
X013309Y014643D01*
X013245Y014670D01*
X013178Y014693D01*
X013111Y014712D01*
X013043Y014727D01*
X012974Y014739D01*
X012904Y014747D01*
X012834Y014751D01*
X012764Y014750D01*
X012694Y014746D01*
X012625Y014738D01*
X012556Y014727D01*
X012487Y014711D01*
X012420Y014692D01*
X012354Y014668D01*
X012289Y014641D01*
X012226Y014611D01*
X012165Y014577D01*
X012106Y014540D01*
X012048Y014499D01*
X011994Y014455D01*
X011942Y014409D01*
X011892Y014359D01*
X011845Y014307D01*
X011802Y014252D01*
X011761Y014195D01*
X011724Y014136D01*
X011690Y014074D01*
X011660Y014011D01*
X011633Y013946D01*
X011610Y013880D01*
X011591Y013813D01*
X011575Y013745D01*
X011563Y013676D01*
X011555Y013606D01*
X011551Y013536D01*
X011551Y013466D01*
X011555Y013396D01*
X011563Y013326D01*
X011575Y013257D01*
X011591Y013189D01*
X011610Y013122D01*
X011633Y013056D01*
X011660Y012991D01*
X011690Y012928D01*
X011724Y012866D01*
X011761Y012807D01*
X011802Y012750D01*
X011845Y012695D01*
X011892Y012643D01*
X011942Y012593D01*
X011994Y012547D01*
X012048Y012503D01*
X012106Y012462D01*
X012165Y012425D01*
X012226Y012391D01*
X012289Y012361D01*
X012354Y012334D01*
X012420Y012310D01*
X012487Y012291D01*
X012556Y012275D01*
X012625Y012264D01*
X012694Y012256D01*
X012764Y012252D01*
X012834Y012251D01*
X012904Y012255D01*
X012974Y012263D01*
X013043Y012275D01*
X013111Y012290D01*
X013178Y012309D01*
X013245Y012332D01*
X013309Y012359D01*
X013373Y012389D01*
X013434Y012423D01*
X013493Y012460D01*
X013551Y012501D01*
X013605Y012544D01*
X013658Y012591D01*
X013707Y012640D01*
X013754Y012692D01*
X013798Y012747D01*
X013791Y012752D01*
X013747Y012698D01*
X013701Y012646D01*
X013652Y012597D01*
X013600Y012551D01*
X013545Y012508D01*
X013488Y012468D01*
X013429Y012431D01*
X013368Y012397D01*
X013306Y012367D01*
X013241Y012341D01*
X013176Y012318D01*
X013109Y012299D01*
X013041Y012283D01*
X012972Y012272D01*
X012903Y012264D01*
X012834Y012260D01*
X012764Y012261D01*
X012695Y012265D01*
X012626Y012272D01*
X012557Y012284D01*
X012490Y012300D01*
X012423Y012319D01*
X012357Y012342D01*
X012293Y012369D01*
X012230Y012399D01*
X012169Y012433D01*
X012111Y012470D01*
X012054Y012510D01*
X012000Y012553D01*
X011948Y012600D01*
X011899Y012649D01*
X011852Y012701D01*
X011809Y012755D01*
X011769Y012812D01*
X011732Y012871D01*
X011698Y012932D01*
X011668Y012995D01*
X011641Y013059D01*
X011618Y013124D01*
X011599Y013191D01*
X011584Y013259D01*
X011572Y013328D01*
X011564Y013397D01*
X011560Y013466D01*
X011560Y013536D01*
X011564Y013605D01*
X011572Y013674D01*
X011584Y013743D01*
X011599Y013811D01*
X011618Y013878D01*
X011641Y013943D01*
X011668Y014007D01*
X011698Y014070D01*
X011732Y014131D01*
X011769Y014190D01*
X011809Y014247D01*
X011852Y014301D01*
X011899Y014353D01*
X011948Y014402D01*
X012000Y014449D01*
X012054Y014492D01*
X012111Y014532D01*
X012169Y014569D01*
X012230Y014603D01*
X012293Y014633D01*
X012357Y014660D01*
X012423Y014683D01*
X012490Y014702D01*
X012557Y014718D01*
X012626Y014730D01*
X012695Y014737D01*
X012764Y014741D01*
X012834Y014742D01*
X012903Y014738D01*
X012972Y014730D01*
X013041Y014719D01*
X013109Y014703D01*
X013176Y014684D01*
X013241Y014661D01*
X013306Y014635D01*
X013368Y014605D01*
X013429Y014571D01*
X013488Y014534D01*
X013545Y014494D01*
X013600Y014451D01*
X013652Y014405D01*
X013701Y014356D01*
X013747Y014304D01*
X013791Y014250D01*
X013784Y014244D01*
X013740Y014298D01*
X013694Y014349D01*
X013645Y014398D01*
X013594Y014444D01*
X013540Y014487D01*
X013483Y014527D01*
X013425Y014563D01*
X013364Y014597D01*
X013302Y014627D01*
X013238Y014653D01*
X013173Y014675D01*
X013107Y014694D01*
X013039Y014710D01*
X012971Y014721D01*
X012903Y014729D01*
X012834Y014733D01*
X012765Y014732D01*
X012696Y014728D01*
X012627Y014721D01*
X012559Y014709D01*
X012492Y014694D01*
X012425Y014674D01*
X012360Y014651D01*
X012297Y014625D01*
X012234Y014595D01*
X012174Y014562D01*
X012116Y014525D01*
X012059Y014485D01*
X012005Y014442D01*
X011954Y014396D01*
X011905Y014347D01*
X011859Y014295D01*
X011816Y014241D01*
X011776Y014185D01*
X011740Y014126D01*
X011706Y014066D01*
X011676Y014004D01*
X011650Y013940D01*
X011627Y013875D01*
X011608Y013808D01*
X011593Y013741D01*
X011581Y013673D01*
X011573Y013604D01*
X011569Y013536D01*
X011569Y013466D01*
X011573Y013398D01*
X011581Y013329D01*
X011593Y013261D01*
X011608Y013194D01*
X011627Y013127D01*
X011650Y013062D01*
X011676Y012998D01*
X011706Y012936D01*
X011740Y012876D01*
X011776Y012817D01*
X011816Y012761D01*
X011859Y012707D01*
X011905Y012655D01*
X011954Y012606D01*
X012005Y012560D01*
X012059Y012517D01*
X012116Y012477D01*
X012174Y012440D01*
X012234Y012407D01*
X012297Y012377D01*
X012360Y012351D01*
X012425Y012328D01*
X012492Y012308D01*
X012559Y012293D01*
X012627Y012281D01*
X012696Y012274D01*
X012765Y012270D01*
X012834Y012269D01*
X012903Y012273D01*
X012971Y012281D01*
X013039Y012292D01*
X013107Y012308D01*
X013173Y012327D01*
X013238Y012349D01*
X013302Y012375D01*
X013364Y012405D01*
X013425Y012439D01*
X013483Y012475D01*
X013540Y012515D01*
X013594Y012558D01*
X013645Y012604D01*
X013694Y012653D01*
X013740Y012704D01*
X013784Y012758D01*
X013776Y012763D01*
X013733Y012709D01*
X013687Y012658D01*
X013637Y012609D01*
X013586Y012563D01*
X013531Y012520D01*
X013474Y012480D01*
X013416Y012444D01*
X013355Y012410D01*
X013292Y012381D01*
X013228Y012355D01*
X013162Y012333D01*
X013095Y012314D01*
X013028Y012299D01*
X012959Y012288D01*
X012890Y012281D01*
X012821Y012278D01*
X012752Y012279D01*
X012682Y012284D01*
X012614Y012292D01*
X012546Y012305D01*
X012478Y012321D01*
X012412Y012342D01*
X012347Y012365D01*
X012283Y012393D01*
X012221Y012424D01*
X012161Y012459D01*
X012103Y012497D01*
X012047Y012538D01*
X011994Y012582D01*
X011943Y012629D01*
X011895Y012679D01*
X011850Y012732D01*
X011808Y012787D01*
X011769Y012844D01*
X011734Y012904D01*
X011702Y012965D01*
X011673Y013028D01*
X011648Y013093D01*
X011627Y013159D01*
X011609Y013226D01*
X011596Y013294D01*
X011586Y013363D01*
X011580Y013432D01*
X011578Y013501D01*
X011580Y013570D01*
X011586Y013639D01*
X011596Y013708D01*
X011609Y013776D01*
X011627Y013843D01*
X011648Y013909D01*
X011673Y013974D01*
X011702Y014037D01*
X011734Y014098D01*
X011769Y014158D01*
X011808Y014215D01*
X011850Y014270D01*
X011895Y014323D01*
X011943Y014373D01*
X011994Y014420D01*
X012047Y014464D01*
X012103Y014505D01*
X012161Y014543D01*
X012221Y014578D01*
X012283Y014609D01*
X012347Y014637D01*
X012412Y014660D01*
X012478Y014681D01*
X012546Y014697D01*
X012614Y014710D01*
X012682Y014718D01*
X012752Y014723D01*
X012821Y014724D01*
X012890Y014721D01*
X012959Y014714D01*
X013028Y014703D01*
X013095Y014688D01*
X013162Y014669D01*
X013228Y014647D01*
X013292Y014621D01*
X013355Y014592D01*
X013416Y014558D01*
X013474Y014522D01*
X013531Y014482D01*
X013586Y014439D01*
X013637Y014393D01*
X013687Y014344D01*
X013733Y014293D01*
X013776Y014239D01*
X013769Y014233D01*
X013726Y014287D01*
X013680Y014338D01*
X013631Y014387D01*
X013580Y014432D01*
X013526Y014475D01*
X013469Y014514D01*
X013411Y014551D01*
X013351Y014584D01*
X013288Y014613D01*
X013225Y014639D01*
X013159Y014661D01*
X013093Y014679D01*
X013026Y014694D01*
X012958Y014705D01*
X012889Y014712D01*
X012821Y014715D01*
X012752Y014714D01*
X012683Y014709D01*
X012615Y014701D01*
X012547Y014688D01*
X012481Y014672D01*
X012415Y014652D01*
X012350Y014628D01*
X012287Y014601D01*
X012226Y014570D01*
X012166Y014536D01*
X012108Y014498D01*
X012053Y014457D01*
X012000Y014413D01*
X011950Y014366D01*
X011902Y014317D01*
X011857Y014265D01*
X011815Y014210D01*
X011777Y014153D01*
X011742Y014094D01*
X011710Y014033D01*
X011681Y013970D01*
X011657Y013906D01*
X011635Y013840D01*
X011618Y013774D01*
X011605Y013706D01*
X011595Y013638D01*
X011589Y013570D01*
X011587Y013501D01*
X011589Y013432D01*
X011595Y013364D01*
X011605Y013296D01*
X011618Y013228D01*
X011635Y013162D01*
X011657Y013096D01*
X011681Y013032D01*
X011710Y012969D01*
X011742Y012908D01*
X011777Y012849D01*
X011815Y012792D01*
X011857Y012737D01*
X011902Y012685D01*
X011950Y012636D01*
X012000Y012589D01*
X012053Y012545D01*
X012108Y012504D01*
X012166Y012466D01*
X012226Y012432D01*
X012287Y012401D01*
X012350Y012374D01*
X012415Y012350D01*
X012481Y012330D01*
X012547Y012314D01*
X012615Y012301D01*
X012683Y012293D01*
X012752Y012288D01*
X012821Y012287D01*
X012889Y012290D01*
X012958Y012297D01*
X013026Y012308D01*
X013093Y012323D01*
X013159Y012341D01*
X013225Y012363D01*
X013288Y012389D01*
X013351Y012418D01*
X013411Y012451D01*
X013469Y012488D01*
X013526Y012527D01*
X013580Y012570D01*
X013631Y012615D01*
X013680Y012664D01*
X013726Y012715D01*
X013769Y012769D01*
X008833Y014281D02*
X008761Y014227D01*
X008762Y014228D02*
X008719Y014281D01*
X008674Y014332D01*
X008625Y014380D01*
X008574Y014425D01*
X008520Y014468D01*
X008464Y014507D01*
X008406Y014543D01*
X008346Y014576D01*
X008285Y014605D01*
X008221Y014630D01*
X008157Y014652D01*
X008091Y014671D01*
X008024Y014685D01*
X007957Y014696D01*
X007889Y014703D01*
X007821Y014706D01*
X007752Y014705D01*
X007684Y014700D01*
X007616Y014692D01*
X007549Y014679D01*
X007483Y014663D01*
X007418Y014643D01*
X007353Y014620D01*
X007291Y014593D01*
X007230Y014562D01*
X007171Y014528D01*
X007113Y014491D01*
X007058Y014450D01*
X007006Y014406D01*
X006956Y014360D01*
X006909Y014311D01*
X006864Y014259D01*
X006823Y014205D01*
X006784Y014148D01*
X006749Y014089D01*
X006718Y014029D01*
X006690Y013967D01*
X006665Y013903D01*
X006644Y013838D01*
X006627Y013772D01*
X006613Y013705D01*
X006604Y013637D01*
X006598Y013569D01*
X006596Y013501D01*
X006598Y013433D01*
X006604Y013365D01*
X006613Y013297D01*
X006627Y013230D01*
X006644Y013164D01*
X006665Y013099D01*
X006690Y013035D01*
X006718Y012973D01*
X006749Y012913D01*
X006784Y012854D01*
X006823Y012797D01*
X006864Y012743D01*
X006909Y012691D01*
X006956Y012642D01*
X007006Y012596D01*
X007058Y012552D01*
X007113Y012511D01*
X007171Y012474D01*
X007230Y012440D01*
X007291Y012409D01*
X007353Y012382D01*
X007418Y012359D01*
X007483Y012339D01*
X007549Y012323D01*
X007616Y012310D01*
X007684Y012302D01*
X007752Y012297D01*
X007821Y012296D01*
X007889Y012299D01*
X007957Y012306D01*
X008024Y012317D01*
X008091Y012331D01*
X008157Y012350D01*
X008221Y012372D01*
X008285Y012397D01*
X008346Y012426D01*
X008406Y012459D01*
X008464Y012495D01*
X008520Y012534D01*
X008574Y012577D01*
X008625Y012622D01*
X008674Y012670D01*
X008719Y012721D01*
X008762Y012774D01*
X008833Y012721D01*
X008834Y012720D01*
X008790Y012665D01*
X008742Y012612D01*
X008692Y012561D01*
X008639Y012514D01*
X008584Y012470D01*
X008526Y012428D01*
X008466Y012390D01*
X008405Y012355D01*
X008341Y012324D01*
X008276Y012296D01*
X008209Y012272D01*
X008141Y012251D01*
X008072Y012235D01*
X008002Y012222D01*
X007932Y012213D01*
X007861Y012207D01*
X007790Y012206D01*
X007719Y012209D01*
X007648Y012215D01*
X007578Y012225D01*
X007509Y012239D01*
X007440Y012257D01*
X007372Y012279D01*
X007306Y012304D01*
X007241Y012333D01*
X007178Y012366D01*
X007117Y012402D01*
X007058Y012441D01*
X007001Y012483D01*
X006946Y012528D01*
X006894Y012577D01*
X006845Y012628D01*
X006798Y012681D01*
X006755Y012738D01*
X006715Y012796D01*
X006678Y012857D01*
X006644Y012919D01*
X006614Y012983D01*
X006587Y013049D01*
X006564Y013116D01*
X006545Y013185D01*
X006530Y013254D01*
X006518Y013324D01*
X006510Y013395D01*
X006506Y013466D01*
X006506Y013536D01*
X006510Y013607D01*
X006518Y013678D01*
X006530Y013748D01*
X006545Y013817D01*
X006564Y013886D01*
X006587Y013953D01*
X006614Y014019D01*
X006644Y014083D01*
X006678Y014145D01*
X006715Y014206D01*
X006755Y014264D01*
X006798Y014321D01*
X006845Y014374D01*
X006894Y014425D01*
X006946Y014474D01*
X007001Y014519D01*
X007058Y014561D01*
X007117Y014600D01*
X007178Y014636D01*
X007241Y014669D01*
X007306Y014698D01*
X007372Y014723D01*
X007440Y014745D01*
X007509Y014763D01*
X007578Y014777D01*
X007648Y014787D01*
X007719Y014793D01*
X007790Y014796D01*
X007861Y014795D01*
X007932Y014789D01*
X008002Y014780D01*
X008072Y014767D01*
X008141Y014751D01*
X008209Y014730D01*
X008276Y014706D01*
X008341Y014678D01*
X008405Y014647D01*
X008466Y014612D01*
X008526Y014574D01*
X008584Y014532D01*
X008639Y014488D01*
X008692Y014441D01*
X008742Y014390D01*
X008790Y014337D01*
X008834Y014282D01*
X008827Y014277D01*
X008782Y014332D01*
X008735Y014385D01*
X008684Y014436D01*
X008631Y014483D01*
X008575Y014528D01*
X008517Y014569D01*
X008457Y014607D01*
X008395Y014642D01*
X008331Y014673D01*
X008265Y014700D01*
X008198Y014724D01*
X008129Y014744D01*
X008060Y014761D01*
X007990Y014773D01*
X007919Y014782D01*
X007848Y014786D01*
X007777Y014787D01*
X007706Y014783D01*
X007635Y014776D01*
X007564Y014765D01*
X007495Y014750D01*
X007426Y014731D01*
X007358Y014708D01*
X007292Y014682D01*
X007227Y014652D01*
X007165Y014618D01*
X007104Y014582D01*
X007045Y014541D01*
X006988Y014498D01*
X006934Y014451D01*
X006883Y014402D01*
X006835Y014349D01*
X006789Y014295D01*
X006747Y014237D01*
X006708Y014178D01*
X006672Y014116D01*
X006639Y014053D01*
X006611Y013988D01*
X006585Y013921D01*
X006564Y013853D01*
X006546Y013784D01*
X006533Y013714D01*
X006523Y013643D01*
X006517Y013572D01*
X006515Y013501D01*
X006517Y013430D01*
X006523Y013359D01*
X006533Y013288D01*
X006546Y013218D01*
X006564Y013149D01*
X006585Y013081D01*
X006611Y013014D01*
X006639Y012949D01*
X006672Y012886D01*
X006708Y012824D01*
X006747Y012765D01*
X006789Y012707D01*
X006835Y012653D01*
X006883Y012600D01*
X006934Y012551D01*
X006988Y012504D01*
X007045Y012461D01*
X007104Y012420D01*
X007165Y012384D01*
X007227Y012350D01*
X007292Y012320D01*
X007358Y012294D01*
X007426Y012271D01*
X007495Y012252D01*
X007564Y012237D01*
X007635Y012226D01*
X007706Y012219D01*
X007777Y012215D01*
X007848Y012216D01*
X007919Y012220D01*
X007990Y012229D01*
X008060Y012241D01*
X008129Y012258D01*
X008198Y012278D01*
X008265Y012302D01*
X008331Y012329D01*
X008395Y012360D01*
X008457Y012395D01*
X008517Y012433D01*
X008575Y012474D01*
X008631Y012519D01*
X008684Y012566D01*
X008735Y012617D01*
X008782Y012670D01*
X008827Y012725D01*
X008820Y012731D01*
X008775Y012676D01*
X008728Y012623D01*
X008678Y012573D01*
X008625Y012526D01*
X008570Y012482D01*
X008512Y012440D01*
X008453Y012403D01*
X008391Y012368D01*
X008327Y012337D01*
X008262Y012310D01*
X008195Y012286D01*
X008127Y012266D01*
X008058Y012250D01*
X007989Y012238D01*
X007918Y012229D01*
X007848Y012225D01*
X007777Y012224D01*
X007706Y012228D01*
X007636Y012235D01*
X007566Y012246D01*
X007497Y012261D01*
X007429Y012280D01*
X007361Y012302D01*
X007296Y012328D01*
X007231Y012358D01*
X007169Y012391D01*
X007109Y012428D01*
X007050Y012468D01*
X006994Y012511D01*
X006940Y012557D01*
X006890Y012607D01*
X006841Y012658D01*
X006796Y012713D01*
X006754Y012770D01*
X006715Y012829D01*
X006680Y012890D01*
X006647Y012953D01*
X006619Y013018D01*
X006594Y013084D01*
X006573Y013152D01*
X006555Y013220D01*
X006542Y013290D01*
X006532Y013360D01*
X006526Y013430D01*
X006524Y013501D01*
X006526Y013572D01*
X006532Y013642D01*
X006542Y013712D01*
X006555Y013782D01*
X006573Y013850D01*
X006594Y013918D01*
X006619Y013984D01*
X006647Y014049D01*
X006680Y014112D01*
X006715Y014173D01*
X006754Y014232D01*
X006796Y014289D01*
X006841Y014344D01*
X006890Y014395D01*
X006940Y014445D01*
X006994Y014491D01*
X007050Y014534D01*
X007109Y014574D01*
X007169Y014611D01*
X007231Y014644D01*
X007296Y014674D01*
X007361Y014700D01*
X007429Y014722D01*
X007497Y014741D01*
X007566Y014756D01*
X007636Y014767D01*
X007706Y014774D01*
X007777Y014778D01*
X007848Y014777D01*
X007918Y014773D01*
X007989Y014764D01*
X008058Y014752D01*
X008127Y014736D01*
X008195Y014716D01*
X008262Y014692D01*
X008327Y014665D01*
X008391Y014634D01*
X008453Y014599D01*
X008512Y014562D01*
X008570Y014520D01*
X008625Y014476D01*
X008678Y014429D01*
X008728Y014379D01*
X008775Y014326D01*
X008820Y014271D01*
X008812Y014266D01*
X008768Y014321D01*
X008720Y014374D01*
X008670Y014424D01*
X008617Y014472D01*
X008561Y014516D01*
X008503Y014557D01*
X008443Y014594D01*
X008381Y014629D01*
X008317Y014659D01*
X008251Y014686D01*
X008184Y014710D01*
X008116Y014729D01*
X008046Y014745D01*
X007976Y014757D01*
X007906Y014765D01*
X007835Y014769D01*
X007764Y014768D01*
X007693Y014764D01*
X007622Y014756D01*
X007552Y014744D01*
X007483Y014728D01*
X007415Y014709D01*
X007347Y014685D01*
X007282Y014658D01*
X007218Y014627D01*
X007156Y014593D01*
X007096Y014555D01*
X007038Y014513D01*
X006982Y014469D01*
X006929Y014422D01*
X006879Y014371D01*
X006832Y014318D01*
X006787Y014263D01*
X006746Y014205D01*
X006709Y014145D01*
X006674Y014082D01*
X006643Y014018D01*
X006616Y013953D01*
X006593Y013886D01*
X006573Y013817D01*
X006557Y013748D01*
X006545Y013678D01*
X006537Y013607D01*
X006533Y013537D01*
X006533Y013465D01*
X006537Y013395D01*
X006545Y013324D01*
X006557Y013254D01*
X006573Y013185D01*
X006593Y013116D01*
X006616Y013049D01*
X006643Y012984D01*
X006674Y012920D01*
X006709Y012857D01*
X006746Y012797D01*
X006787Y012739D01*
X006832Y012684D01*
X006879Y012631D01*
X006929Y012580D01*
X006982Y012533D01*
X007038Y012489D01*
X007096Y012447D01*
X007156Y012409D01*
X007218Y012375D01*
X007282Y012344D01*
X007347Y012317D01*
X007415Y012293D01*
X007483Y012274D01*
X007552Y012258D01*
X007622Y012246D01*
X007693Y012238D01*
X007764Y012234D01*
X007835Y012233D01*
X007906Y012237D01*
X007976Y012245D01*
X008046Y012257D01*
X008116Y012273D01*
X008184Y012292D01*
X008251Y012316D01*
X008317Y012343D01*
X008381Y012373D01*
X008443Y012408D01*
X008503Y012445D01*
X008561Y012486D01*
X008617Y012530D01*
X008670Y012578D01*
X008720Y012628D01*
X008768Y012681D01*
X008812Y012736D01*
X008805Y012742D01*
X008761Y012687D01*
X008714Y012634D01*
X008664Y012584D01*
X008611Y012537D01*
X008556Y012493D01*
X008498Y012453D01*
X008439Y012415D01*
X008377Y012381D01*
X008313Y012351D01*
X008248Y012324D01*
X008181Y012301D01*
X008113Y012281D01*
X008045Y012266D01*
X007975Y012254D01*
X007905Y012246D01*
X007834Y012242D01*
X007764Y012243D01*
X007693Y012247D01*
X007623Y012255D01*
X007554Y012267D01*
X007485Y012282D01*
X007417Y012302D01*
X007351Y012325D01*
X007286Y012352D01*
X007222Y012383D01*
X007160Y012417D01*
X007101Y012455D01*
X007043Y012496D01*
X006988Y012540D01*
X006935Y012587D01*
X006886Y012637D01*
X006839Y012689D01*
X006795Y012745D01*
X006754Y012802D01*
X006716Y012862D01*
X006682Y012924D01*
X006652Y012987D01*
X006625Y013052D01*
X006601Y013119D01*
X006582Y013187D01*
X006566Y013256D01*
X006554Y013325D01*
X006546Y013395D01*
X006542Y013466D01*
X006542Y013536D01*
X006546Y013607D01*
X006554Y013677D01*
X006566Y013746D01*
X006582Y013815D01*
X006601Y013883D01*
X006625Y013950D01*
X006652Y014015D01*
X006682Y014078D01*
X006716Y014140D01*
X006754Y014200D01*
X006795Y014257D01*
X006839Y014313D01*
X006886Y014365D01*
X006935Y014415D01*
X006988Y014462D01*
X007043Y014506D01*
X007101Y014547D01*
X007160Y014585D01*
X007222Y014619D01*
X007286Y014650D01*
X007351Y014677D01*
X007417Y014700D01*
X007485Y014720D01*
X007554Y014735D01*
X007623Y014747D01*
X007693Y014755D01*
X007764Y014759D01*
X007834Y014760D01*
X007905Y014756D01*
X007975Y014748D01*
X008045Y014736D01*
X008113Y014721D01*
X008181Y014701D01*
X008248Y014678D01*
X008313Y014651D01*
X008377Y014621D01*
X008439Y014587D01*
X008498Y014549D01*
X008556Y014509D01*
X008611Y014465D01*
X008664Y014418D01*
X008714Y014368D01*
X008761Y014315D01*
X008805Y014260D01*
X008798Y014255D01*
X008754Y014310D01*
X008707Y014362D01*
X008658Y014411D01*
X008605Y014458D01*
X008551Y014501D01*
X008493Y014542D01*
X008434Y014579D01*
X008373Y014613D01*
X008309Y014643D01*
X008245Y014670D01*
X008178Y014693D01*
X008111Y014712D01*
X008043Y014727D01*
X007974Y014739D01*
X007904Y014747D01*
X007834Y014751D01*
X007764Y014750D01*
X007694Y014746D01*
X007625Y014738D01*
X007556Y014727D01*
X007487Y014711D01*
X007420Y014692D01*
X007354Y014668D01*
X007289Y014641D01*
X007226Y014611D01*
X007165Y014577D01*
X007106Y014540D01*
X007048Y014499D01*
X006994Y014455D01*
X006942Y014409D01*
X006892Y014359D01*
X006845Y014307D01*
X006802Y014252D01*
X006761Y014195D01*
X006724Y014136D01*
X006690Y014074D01*
X006660Y014011D01*
X006633Y013946D01*
X006610Y013880D01*
X006591Y013813D01*
X006575Y013745D01*
X006563Y013676D01*
X006555Y013606D01*
X006551Y013536D01*
X006551Y013466D01*
X006555Y013396D01*
X006563Y013326D01*
X006575Y013257D01*
X006591Y013189D01*
X006610Y013122D01*
X006633Y013056D01*
X006660Y012991D01*
X006690Y012928D01*
X006724Y012866D01*
X006761Y012807D01*
X006802Y012750D01*
X006845Y012695D01*
X006892Y012643D01*
X006942Y012593D01*
X006994Y012547D01*
X007048Y012503D01*
X007106Y012462D01*
X007165Y012425D01*
X007226Y012391D01*
X007289Y012361D01*
X007354Y012334D01*
X007420Y012310D01*
X007487Y012291D01*
X007556Y012275D01*
X007625Y012264D01*
X007694Y012256D01*
X007764Y012252D01*
X007834Y012251D01*
X007904Y012255D01*
X007974Y012263D01*
X008043Y012275D01*
X008111Y012290D01*
X008178Y012309D01*
X008245Y012332D01*
X008309Y012359D01*
X008373Y012389D01*
X008434Y012423D01*
X008493Y012460D01*
X008551Y012501D01*
X008605Y012544D01*
X008658Y012591D01*
X008707Y012640D01*
X008754Y012692D01*
X008798Y012747D01*
X008791Y012752D01*
X008747Y012698D01*
X008701Y012646D01*
X008652Y012597D01*
X008600Y012551D01*
X008545Y012508D01*
X008488Y012468D01*
X008429Y012431D01*
X008368Y012397D01*
X008306Y012367D01*
X008241Y012341D01*
X008176Y012318D01*
X008109Y012299D01*
X008041Y012283D01*
X007972Y012272D01*
X007903Y012264D01*
X007834Y012260D01*
X007764Y012261D01*
X007695Y012265D01*
X007626Y012272D01*
X007557Y012284D01*
X007490Y012300D01*
X007423Y012319D01*
X007357Y012342D01*
X007293Y012369D01*
X007230Y012399D01*
X007169Y012433D01*
X007111Y012470D01*
X007054Y012510D01*
X007000Y012553D01*
X006948Y012600D01*
X006899Y012649D01*
X006852Y012701D01*
X006809Y012755D01*
X006769Y012812D01*
X006732Y012871D01*
X006698Y012932D01*
X006668Y012995D01*
X006641Y013059D01*
X006618Y013124D01*
X006599Y013191D01*
X006584Y013259D01*
X006572Y013328D01*
X006564Y013397D01*
X006560Y013466D01*
X006560Y013536D01*
X006564Y013605D01*
X006572Y013674D01*
X006584Y013743D01*
X006599Y013811D01*
X006618Y013878D01*
X006641Y013943D01*
X006668Y014007D01*
X006698Y014070D01*
X006732Y014131D01*
X006769Y014190D01*
X006809Y014247D01*
X006852Y014301D01*
X006899Y014353D01*
X006948Y014402D01*
X007000Y014449D01*
X007054Y014492D01*
X007111Y014532D01*
X007169Y014569D01*
X007230Y014603D01*
X007293Y014633D01*
X007357Y014660D01*
X007423Y014683D01*
X007490Y014702D01*
X007557Y014718D01*
X007626Y014730D01*
X007695Y014737D01*
X007764Y014741D01*
X007834Y014742D01*
X007903Y014738D01*
X007972Y014730D01*
X008041Y014719D01*
X008109Y014703D01*
X008176Y014684D01*
X008241Y014661D01*
X008306Y014635D01*
X008368Y014605D01*
X008429Y014571D01*
X008488Y014534D01*
X008545Y014494D01*
X008600Y014451D01*
X008652Y014405D01*
X008701Y014356D01*
X008747Y014304D01*
X008791Y014250D01*
X008784Y014244D01*
X008740Y014298D01*
X008694Y014349D01*
X008645Y014398D01*
X008594Y014444D01*
X008540Y014487D01*
X008483Y014527D01*
X008425Y014563D01*
X008364Y014597D01*
X008302Y014627D01*
X008238Y014653D01*
X008173Y014675D01*
X008107Y014694D01*
X008039Y014710D01*
X007971Y014721D01*
X007903Y014729D01*
X007834Y014733D01*
X007765Y014732D01*
X007696Y014728D01*
X007627Y014721D01*
X007559Y014709D01*
X007492Y014694D01*
X007425Y014674D01*
X007360Y014651D01*
X007297Y014625D01*
X007234Y014595D01*
X007174Y014562D01*
X007116Y014525D01*
X007059Y014485D01*
X007005Y014442D01*
X006954Y014396D01*
X006905Y014347D01*
X006859Y014295D01*
X006816Y014241D01*
X006776Y014185D01*
X006740Y014126D01*
X006706Y014066D01*
X006676Y014004D01*
X006650Y013940D01*
X006627Y013875D01*
X006608Y013808D01*
X006593Y013741D01*
X006581Y013673D01*
X006573Y013604D01*
X006569Y013536D01*
X006569Y013466D01*
X006573Y013398D01*
X006581Y013329D01*
X006593Y013261D01*
X006608Y013194D01*
X006627Y013127D01*
X006650Y013062D01*
X006676Y012998D01*
X006706Y012936D01*
X006740Y012876D01*
X006776Y012817D01*
X006816Y012761D01*
X006859Y012707D01*
X006905Y012655D01*
X006954Y012606D01*
X007005Y012560D01*
X007059Y012517D01*
X007116Y012477D01*
X007174Y012440D01*
X007234Y012407D01*
X007297Y012377D01*
X007360Y012351D01*
X007425Y012328D01*
X007492Y012308D01*
X007559Y012293D01*
X007627Y012281D01*
X007696Y012274D01*
X007765Y012270D01*
X007834Y012269D01*
X007903Y012273D01*
X007971Y012281D01*
X008039Y012292D01*
X008107Y012308D01*
X008173Y012327D01*
X008238Y012349D01*
X008302Y012375D01*
X008364Y012405D01*
X008425Y012439D01*
X008483Y012475D01*
X008540Y012515D01*
X008594Y012558D01*
X008645Y012604D01*
X008694Y012653D01*
X008740Y012704D01*
X008784Y012758D01*
X008776Y012763D01*
X008733Y012709D01*
X008687Y012658D01*
X008637Y012609D01*
X008586Y012563D01*
X008531Y012520D01*
X008474Y012480D01*
X008416Y012444D01*
X008355Y012410D01*
X008292Y012381D01*
X008228Y012355D01*
X008162Y012333D01*
X008095Y012314D01*
X008028Y012299D01*
X007959Y012288D01*
X007890Y012281D01*
X007821Y012278D01*
X007752Y012279D01*
X007682Y012284D01*
X007614Y012292D01*
X007546Y012305D01*
X007478Y012321D01*
X007412Y012342D01*
X007347Y012365D01*
X007283Y012393D01*
X007221Y012424D01*
X007161Y012459D01*
X007103Y012497D01*
X007047Y012538D01*
X006994Y012582D01*
X006943Y012629D01*
X006895Y012679D01*
X006850Y012732D01*
X006808Y012787D01*
X006769Y012844D01*
X006734Y012904D01*
X006702Y012965D01*
X006673Y013028D01*
X006648Y013093D01*
X006627Y013159D01*
X006609Y013226D01*
X006596Y013294D01*
X006586Y013363D01*
X006580Y013432D01*
X006578Y013501D01*
X006580Y013570D01*
X006586Y013639D01*
X006596Y013708D01*
X006609Y013776D01*
X006627Y013843D01*
X006648Y013909D01*
X006673Y013974D01*
X006702Y014037D01*
X006734Y014098D01*
X006769Y014158D01*
X006808Y014215D01*
X006850Y014270D01*
X006895Y014323D01*
X006943Y014373D01*
X006994Y014420D01*
X007047Y014464D01*
X007103Y014505D01*
X007161Y014543D01*
X007221Y014578D01*
X007283Y014609D01*
X007347Y014637D01*
X007412Y014660D01*
X007478Y014681D01*
X007546Y014697D01*
X007614Y014710D01*
X007682Y014718D01*
X007752Y014723D01*
X007821Y014724D01*
X007890Y014721D01*
X007959Y014714D01*
X008028Y014703D01*
X008095Y014688D01*
X008162Y014669D01*
X008228Y014647D01*
X008292Y014621D01*
X008355Y014592D01*
X008416Y014558D01*
X008474Y014522D01*
X008531Y014482D01*
X008586Y014439D01*
X008637Y014393D01*
X008687Y014344D01*
X008733Y014293D01*
X008776Y014239D01*
X008769Y014233D01*
X008726Y014287D01*
X008680Y014338D01*
X008631Y014387D01*
X008580Y014432D01*
X008526Y014475D01*
X008469Y014514D01*
X008411Y014551D01*
X008351Y014584D01*
X008288Y014613D01*
X008225Y014639D01*
X008159Y014661D01*
X008093Y014679D01*
X008026Y014694D01*
X007958Y014705D01*
X007889Y014712D01*
X007821Y014715D01*
X007752Y014714D01*
X007683Y014709D01*
X007615Y014701D01*
X007547Y014688D01*
X007481Y014672D01*
X007415Y014652D01*
X007350Y014628D01*
X007287Y014601D01*
X007226Y014570D01*
X007166Y014536D01*
X007108Y014498D01*
X007053Y014457D01*
X007000Y014413D01*
X006950Y014366D01*
X006902Y014317D01*
X006857Y014265D01*
X006815Y014210D01*
X006777Y014153D01*
X006742Y014094D01*
X006710Y014033D01*
X006681Y013970D01*
X006657Y013906D01*
X006635Y013840D01*
X006618Y013774D01*
X006605Y013706D01*
X006595Y013638D01*
X006589Y013570D01*
X006587Y013501D01*
X006589Y013432D01*
X006595Y013364D01*
X006605Y013296D01*
X006618Y013228D01*
X006635Y013162D01*
X006657Y013096D01*
X006681Y013032D01*
X006710Y012969D01*
X006742Y012908D01*
X006777Y012849D01*
X006815Y012792D01*
X006857Y012737D01*
X006902Y012685D01*
X006950Y012636D01*
X007000Y012589D01*
X007053Y012545D01*
X007108Y012504D01*
X007166Y012466D01*
X007226Y012432D01*
X007287Y012401D01*
X007350Y012374D01*
X007415Y012350D01*
X007481Y012330D01*
X007547Y012314D01*
X007615Y012301D01*
X007683Y012293D01*
X007752Y012288D01*
X007821Y012287D01*
X007889Y012290D01*
X007958Y012297D01*
X008026Y012308D01*
X008093Y012323D01*
X008159Y012341D01*
X008225Y012363D01*
X008288Y012389D01*
X008351Y012418D01*
X008411Y012451D01*
X008469Y012488D01*
X008526Y012527D01*
X008580Y012570D01*
X008631Y012615D01*
X008680Y012664D01*
X008726Y012715D01*
X008769Y012769D01*
X003833Y014281D02*
X003761Y014227D01*
X003762Y014228D02*
X003719Y014281D01*
X003674Y014332D01*
X003625Y014380D01*
X003574Y014425D01*
X003520Y014468D01*
X003464Y014507D01*
X003406Y014543D01*
X003346Y014576D01*
X003285Y014605D01*
X003221Y014630D01*
X003157Y014652D01*
X003091Y014671D01*
X003024Y014685D01*
X002957Y014696D01*
X002889Y014703D01*
X002821Y014706D01*
X002752Y014705D01*
X002684Y014700D01*
X002616Y014692D01*
X002549Y014679D01*
X002483Y014663D01*
X002418Y014643D01*
X002353Y014620D01*
X002291Y014593D01*
X002230Y014562D01*
X002171Y014528D01*
X002113Y014491D01*
X002058Y014450D01*
X002006Y014406D01*
X001956Y014360D01*
X001909Y014311D01*
X001864Y014259D01*
X001823Y014205D01*
X001784Y014148D01*
X001749Y014089D01*
X001718Y014029D01*
X001690Y013967D01*
X001665Y013903D01*
X001644Y013838D01*
X001627Y013772D01*
X001613Y013705D01*
X001604Y013637D01*
X001598Y013569D01*
X001596Y013501D01*
X001598Y013433D01*
X001604Y013365D01*
X001613Y013297D01*
X001627Y013230D01*
X001644Y013164D01*
X001665Y013099D01*
X001690Y013035D01*
X001718Y012973D01*
X001749Y012913D01*
X001784Y012854D01*
X001823Y012797D01*
X001864Y012743D01*
X001909Y012691D01*
X001956Y012642D01*
X002006Y012596D01*
X002058Y012552D01*
X002113Y012511D01*
X002171Y012474D01*
X002230Y012440D01*
X002291Y012409D01*
X002353Y012382D01*
X002418Y012359D01*
X002483Y012339D01*
X002549Y012323D01*
X002616Y012310D01*
X002684Y012302D01*
X002752Y012297D01*
X002821Y012296D01*
X002889Y012299D01*
X002957Y012306D01*
X003024Y012317D01*
X003091Y012331D01*
X003157Y012350D01*
X003221Y012372D01*
X003285Y012397D01*
X003346Y012426D01*
X003406Y012459D01*
X003464Y012495D01*
X003520Y012534D01*
X003574Y012577D01*
X003625Y012622D01*
X003674Y012670D01*
X003719Y012721D01*
X003762Y012774D01*
X003833Y012721D01*
X003834Y012720D01*
X003790Y012665D01*
X003742Y012612D01*
X003692Y012561D01*
X003639Y012514D01*
X003584Y012470D01*
X003526Y012428D01*
X003466Y012390D01*
X003405Y012355D01*
X003341Y012324D01*
X003276Y012296D01*
X003209Y012272D01*
X003141Y012251D01*
X003072Y012235D01*
X003002Y012222D01*
X002932Y012213D01*
X002861Y012207D01*
X002790Y012206D01*
X002719Y012209D01*
X002648Y012215D01*
X002578Y012225D01*
X002509Y012239D01*
X002440Y012257D01*
X002372Y012279D01*
X002306Y012304D01*
X002241Y012333D01*
X002178Y012366D01*
X002117Y012402D01*
X002058Y012441D01*
X002001Y012483D01*
X001946Y012528D01*
X001894Y012577D01*
X001845Y012628D01*
X001798Y012681D01*
X001755Y012738D01*
X001715Y012796D01*
X001678Y012857D01*
X001644Y012919D01*
X001614Y012983D01*
X001587Y013049D01*
X001564Y013116D01*
X001545Y013185D01*
X001530Y013254D01*
X001518Y013324D01*
X001510Y013395D01*
X001506Y013466D01*
X001506Y013536D01*
X001510Y013607D01*
X001518Y013678D01*
X001530Y013748D01*
X001545Y013817D01*
X001564Y013886D01*
X001587Y013953D01*
X001614Y014019D01*
X001644Y014083D01*
X001678Y014145D01*
X001715Y014206D01*
X001755Y014264D01*
X001798Y014321D01*
X001845Y014374D01*
X001894Y014425D01*
X001946Y014474D01*
X002001Y014519D01*
X002058Y014561D01*
X002117Y014600D01*
X002178Y014636D01*
X002241Y014669D01*
X002306Y014698D01*
X002372Y014723D01*
X002440Y014745D01*
X002509Y014763D01*
X002578Y014777D01*
X002648Y014787D01*
X002719Y014793D01*
X002790Y014796D01*
X002861Y014795D01*
X002932Y014789D01*
X003002Y014780D01*
X003072Y014767D01*
X003141Y014751D01*
X003209Y014730D01*
X003276Y014706D01*
X003341Y014678D01*
X003405Y014647D01*
X003466Y014612D01*
X003526Y014574D01*
X003584Y014532D01*
X003639Y014488D01*
X003692Y014441D01*
X003742Y014390D01*
X003790Y014337D01*
X003834Y014282D01*
X003827Y014277D01*
X003782Y014332D01*
X003735Y014385D01*
X003684Y014436D01*
X003631Y014483D01*
X003575Y014528D01*
X003517Y014569D01*
X003457Y014607D01*
X003395Y014642D01*
X003331Y014673D01*
X003265Y014700D01*
X003198Y014724D01*
X003129Y014744D01*
X003060Y014761D01*
X002990Y014773D01*
X002919Y014782D01*
X002848Y014786D01*
X002777Y014787D01*
X002706Y014783D01*
X002635Y014776D01*
X002564Y014765D01*
X002495Y014750D01*
X002426Y014731D01*
X002358Y014708D01*
X002292Y014682D01*
X002227Y014652D01*
X002165Y014618D01*
X002104Y014582D01*
X002045Y014541D01*
X001988Y014498D01*
X001934Y014451D01*
X001883Y014402D01*
X001835Y014349D01*
X001789Y014295D01*
X001747Y014237D01*
X001708Y014178D01*
X001672Y014116D01*
X001639Y014053D01*
X001611Y013988D01*
X001585Y013921D01*
X001564Y013853D01*
X001546Y013784D01*
X001533Y013714D01*
X001523Y013643D01*
X001517Y013572D01*
X001515Y013501D01*
X001517Y013430D01*
X001523Y013359D01*
X001533Y013288D01*
X001546Y013218D01*
X001564Y013149D01*
X001585Y013081D01*
X001611Y013014D01*
X001639Y012949D01*
X001672Y012886D01*
X001708Y012824D01*
X001747Y012765D01*
X001789Y012707D01*
X001835Y012653D01*
X001883Y012600D01*
X001934Y012551D01*
X001988Y012504D01*
X002045Y012461D01*
X002104Y012420D01*
X002165Y012384D01*
X002227Y012350D01*
X002292Y012320D01*
X002358Y012294D01*
X002426Y012271D01*
X002495Y012252D01*
X002564Y012237D01*
X002635Y012226D01*
X002706Y012219D01*
X002777Y012215D01*
X002848Y012216D01*
X002919Y012220D01*
X002990Y012229D01*
X003060Y012241D01*
X003129Y012258D01*
X003198Y012278D01*
X003265Y012302D01*
X003331Y012329D01*
X003395Y012360D01*
X003457Y012395D01*
X003517Y012433D01*
X003575Y012474D01*
X003631Y012519D01*
X003684Y012566D01*
X003735Y012617D01*
X003782Y012670D01*
X003827Y012725D01*
X003820Y012731D01*
X003775Y012676D01*
X003728Y012623D01*
X003678Y012573D01*
X003625Y012526D01*
X003570Y012482D01*
X003512Y012440D01*
X003453Y012403D01*
X003391Y012368D01*
X003327Y012337D01*
X003262Y012310D01*
X003195Y012286D01*
X003127Y012266D01*
X003058Y012250D01*
X002989Y012238D01*
X002918Y012229D01*
X002848Y012225D01*
X002777Y012224D01*
X002706Y012228D01*
X002636Y012235D01*
X002566Y012246D01*
X002497Y012261D01*
X002429Y012280D01*
X002361Y012302D01*
X002296Y012328D01*
X002231Y012358D01*
X002169Y012391D01*
X002109Y012428D01*
X002050Y012468D01*
X001994Y012511D01*
X001940Y012557D01*
X001890Y012607D01*
X001841Y012658D01*
X001796Y012713D01*
X001754Y012770D01*
X001715Y012829D01*
X001680Y012890D01*
X001647Y012953D01*
X001619Y013018D01*
X001594Y013084D01*
X001573Y013152D01*
X001555Y013220D01*
X001542Y013290D01*
X001532Y013360D01*
X001526Y013430D01*
X001524Y013501D01*
X001526Y013572D01*
X001532Y013642D01*
X001542Y013712D01*
X001555Y013782D01*
X001573Y013850D01*
X001594Y013918D01*
X001619Y013984D01*
X001647Y014049D01*
X001680Y014112D01*
X001715Y014173D01*
X001754Y014232D01*
X001796Y014289D01*
X001841Y014344D01*
X001890Y014395D01*
X001940Y014445D01*
X001994Y014491D01*
X002050Y014534D01*
X002109Y014574D01*
X002169Y014611D01*
X002231Y014644D01*
X002296Y014674D01*
X002361Y014700D01*
X002429Y014722D01*
X002497Y014741D01*
X002566Y014756D01*
X002636Y014767D01*
X002706Y014774D01*
X002777Y014778D01*
X002848Y014777D01*
X002918Y014773D01*
X002989Y014764D01*
X003058Y014752D01*
X003127Y014736D01*
X003195Y014716D01*
X003262Y014692D01*
X003327Y014665D01*
X003391Y014634D01*
X003453Y014599D01*
X003512Y014562D01*
X003570Y014520D01*
X003625Y014476D01*
X003678Y014429D01*
X003728Y014379D01*
X003775Y014326D01*
X003820Y014271D01*
X003812Y014266D01*
X003768Y014321D01*
X003720Y014374D01*
X003670Y014424D01*
X003617Y014472D01*
X003561Y014516D01*
X003503Y014557D01*
X003443Y014594D01*
X003381Y014629D01*
X003317Y014659D01*
X003251Y014686D01*
X003184Y014710D01*
X003116Y014729D01*
X003046Y014745D01*
X002976Y014757D01*
X002906Y014765D01*
X002835Y014769D01*
X002764Y014768D01*
X002693Y014764D01*
X002622Y014756D01*
X002552Y014744D01*
X002483Y014728D01*
X002415Y014709D01*
X002347Y014685D01*
X002282Y014658D01*
X002218Y014627D01*
X002156Y014593D01*
X002096Y014555D01*
X002038Y014513D01*
X001982Y014469D01*
X001929Y014422D01*
X001879Y014371D01*
X001832Y014318D01*
X001787Y014263D01*
X001746Y014205D01*
X001709Y014145D01*
X001674Y014082D01*
X001643Y014018D01*
X001616Y013953D01*
X001593Y013886D01*
X001573Y013817D01*
X001557Y013748D01*
X001545Y013678D01*
X001537Y013607D01*
X001533Y013537D01*
X001533Y013465D01*
X001537Y013395D01*
X001545Y013324D01*
X001557Y013254D01*
X001573Y013185D01*
X001593Y013116D01*
X001616Y013049D01*
X001643Y012984D01*
X001674Y012920D01*
X001709Y012857D01*
X001746Y012797D01*
X001787Y012739D01*
X001832Y012684D01*
X001879Y012631D01*
X001929Y012580D01*
X001982Y012533D01*
X002038Y012489D01*
X002096Y012447D01*
X002156Y012409D01*
X002218Y012375D01*
X002282Y012344D01*
X002347Y012317D01*
X002415Y012293D01*
X002483Y012274D01*
X002552Y012258D01*
X002622Y012246D01*
X002693Y012238D01*
X002764Y012234D01*
X002835Y012233D01*
X002906Y012237D01*
X002976Y012245D01*
X003046Y012257D01*
X003116Y012273D01*
X003184Y012292D01*
X003251Y012316D01*
X003317Y012343D01*
X003381Y012373D01*
X003443Y012408D01*
X003503Y012445D01*
X003561Y012486D01*
X003617Y012530D01*
X003670Y012578D01*
X003720Y012628D01*
X003768Y012681D01*
X003812Y012736D01*
X003805Y012742D01*
X003761Y012687D01*
X003714Y012634D01*
X003664Y012584D01*
X003611Y012537D01*
X003556Y012493D01*
X003498Y012453D01*
X003439Y012415D01*
X003377Y012381D01*
X003313Y012351D01*
X003248Y012324D01*
X003181Y012301D01*
X003113Y012281D01*
X003045Y012266D01*
X002975Y012254D01*
X002905Y012246D01*
X002834Y012242D01*
X002764Y012243D01*
X002693Y012247D01*
X002623Y012255D01*
X002554Y012267D01*
X002485Y012282D01*
X002417Y012302D01*
X002351Y012325D01*
X002286Y012352D01*
X002222Y012383D01*
X002160Y012417D01*
X002101Y012455D01*
X002043Y012496D01*
X001988Y012540D01*
X001935Y012587D01*
X001886Y012637D01*
X001839Y012689D01*
X001795Y012745D01*
X001754Y012802D01*
X001716Y012862D01*
X001682Y012924D01*
X001652Y012987D01*
X001625Y013052D01*
X001601Y013119D01*
X001582Y013187D01*
X001566Y013256D01*
X001554Y013325D01*
X001546Y013395D01*
X001542Y013466D01*
X001542Y013536D01*
X001546Y013607D01*
X001554Y013677D01*
X001566Y013746D01*
X001582Y013815D01*
X001601Y013883D01*
X001625Y013950D01*
X001652Y014015D01*
X001682Y014078D01*
X001716Y014140D01*
X001754Y014200D01*
X001795Y014257D01*
X001839Y014313D01*
X001886Y014365D01*
X001935Y014415D01*
X001988Y014462D01*
X002043Y014506D01*
X002101Y014547D01*
X002160Y014585D01*
X002222Y014619D01*
X002286Y014650D01*
X002351Y014677D01*
X002417Y014700D01*
X002485Y014720D01*
X002554Y014735D01*
X002623Y014747D01*
X002693Y014755D01*
X002764Y014759D01*
X002834Y014760D01*
X002905Y014756D01*
X002975Y014748D01*
X003045Y014736D01*
X003113Y014721D01*
X003181Y014701D01*
X003248Y014678D01*
X003313Y014651D01*
X003377Y014621D01*
X003439Y014587D01*
X003498Y014549D01*
X003556Y014509D01*
X003611Y014465D01*
X003664Y014418D01*
X003714Y014368D01*
X003761Y014315D01*
X003805Y014260D01*
X003798Y014255D01*
X003754Y014310D01*
X003707Y014362D01*
X003658Y014411D01*
X003605Y014458D01*
X003551Y014501D01*
X003493Y014542D01*
X003434Y014579D01*
X003373Y014613D01*
X003309Y014643D01*
X003245Y014670D01*
X003178Y014693D01*
X003111Y014712D01*
X003043Y014727D01*
X002974Y014739D01*
X002904Y014747D01*
X002834Y014751D01*
X002764Y014750D01*
X002694Y014746D01*
X002625Y014738D01*
X002556Y014727D01*
X002487Y014711D01*
X002420Y014692D01*
X002354Y014668D01*
X002289Y014641D01*
X002226Y014611D01*
X002165Y014577D01*
X002106Y014540D01*
X002048Y014499D01*
X001994Y014455D01*
X001942Y014409D01*
X001892Y014359D01*
X001845Y014307D01*
X001802Y014252D01*
X001761Y014195D01*
X001724Y014136D01*
X001690Y014074D01*
X001660Y014011D01*
X001633Y013946D01*
X001610Y013880D01*
X001591Y013813D01*
X001575Y013745D01*
X001563Y013676D01*
X001555Y013606D01*
X001551Y013536D01*
X001551Y013466D01*
X001555Y013396D01*
X001563Y013326D01*
X001575Y013257D01*
X001591Y013189D01*
X001610Y013122D01*
X001633Y013056D01*
X001660Y012991D01*
X001690Y012928D01*
X001724Y012866D01*
X001761Y012807D01*
X001802Y012750D01*
X001845Y012695D01*
X001892Y012643D01*
X001942Y012593D01*
X001994Y012547D01*
X002048Y012503D01*
X002106Y012462D01*
X002165Y012425D01*
X002226Y012391D01*
X002289Y012361D01*
X002354Y012334D01*
X002420Y012310D01*
X002487Y012291D01*
X002556Y012275D01*
X002625Y012264D01*
X002694Y012256D01*
X002764Y012252D01*
X002834Y012251D01*
X002904Y012255D01*
X002974Y012263D01*
X003043Y012275D01*
X003111Y012290D01*
X003178Y012309D01*
X003245Y012332D01*
X003309Y012359D01*
X003373Y012389D01*
X003434Y012423D01*
X003493Y012460D01*
X003551Y012501D01*
X003605Y012544D01*
X003658Y012591D01*
X003707Y012640D01*
X003754Y012692D01*
X003798Y012747D01*
X003791Y012752D01*
X003747Y012698D01*
X003701Y012646D01*
X003652Y012597D01*
X003600Y012551D01*
X003545Y012508D01*
X003488Y012468D01*
X003429Y012431D01*
X003368Y012397D01*
X003306Y012367D01*
X003241Y012341D01*
X003176Y012318D01*
X003109Y012299D01*
X003041Y012283D01*
X002972Y012272D01*
X002903Y012264D01*
X002834Y012260D01*
X002764Y012261D01*
X002695Y012265D01*
X002626Y012272D01*
X002557Y012284D01*
X002490Y012300D01*
X002423Y012319D01*
X002357Y012342D01*
X002293Y012369D01*
X002230Y012399D01*
X002169Y012433D01*
X002111Y012470D01*
X002054Y012510D01*
X002000Y012553D01*
X001948Y012600D01*
X001899Y012649D01*
X001852Y012701D01*
X001809Y012755D01*
X001769Y012812D01*
X001732Y012871D01*
X001698Y012932D01*
X001668Y012995D01*
X001641Y013059D01*
X001618Y013124D01*
X001599Y013191D01*
X001584Y013259D01*
X001572Y013328D01*
X001564Y013397D01*
X001560Y013466D01*
X001560Y013536D01*
X001564Y013605D01*
X001572Y013674D01*
X001584Y013743D01*
X001599Y013811D01*
X001618Y013878D01*
X001641Y013943D01*
X001668Y014007D01*
X001698Y014070D01*
X001732Y014131D01*
X001769Y014190D01*
X001809Y014247D01*
X001852Y014301D01*
X001899Y014353D01*
X001948Y014402D01*
X002000Y014449D01*
X002054Y014492D01*
X002111Y014532D01*
X002169Y014569D01*
X002230Y014603D01*
X002293Y014633D01*
X002357Y014660D01*
X002423Y014683D01*
X002490Y014702D01*
X002557Y014718D01*
X002626Y014730D01*
X002695Y014737D01*
X002764Y014741D01*
X002834Y014742D01*
X002903Y014738D01*
X002972Y014730D01*
X003041Y014719D01*
X003109Y014703D01*
X003176Y014684D01*
X003241Y014661D01*
X003306Y014635D01*
X003368Y014605D01*
X003429Y014571D01*
X003488Y014534D01*
X003545Y014494D01*
X003600Y014451D01*
X003652Y014405D01*
X003701Y014356D01*
X003747Y014304D01*
X003791Y014250D01*
X003784Y014244D01*
X003740Y014298D01*
X003694Y014349D01*
X003645Y014398D01*
X003594Y014444D01*
X003540Y014487D01*
X003483Y014527D01*
X003425Y014563D01*
X003364Y014597D01*
X003302Y014627D01*
X003238Y014653D01*
X003173Y014675D01*
X003107Y014694D01*
X003039Y014710D01*
X002971Y014721D01*
X002903Y014729D01*
X002834Y014733D01*
X002765Y014732D01*
X002696Y014728D01*
X002627Y014721D01*
X002559Y014709D01*
X002492Y014694D01*
X002425Y014674D01*
X002360Y014651D01*
X002297Y014625D01*
X002234Y014595D01*
X002174Y014562D01*
X002116Y014525D01*
X002059Y014485D01*
X002005Y014442D01*
X001954Y014396D01*
X001905Y014347D01*
X001859Y014295D01*
X001816Y014241D01*
X001776Y014185D01*
X001740Y014126D01*
X001706Y014066D01*
X001676Y014004D01*
X001650Y013940D01*
X001627Y013875D01*
X001608Y013808D01*
X001593Y013741D01*
X001581Y013673D01*
X001573Y013604D01*
X001569Y013536D01*
X001569Y013466D01*
X001573Y013398D01*
X001581Y013329D01*
X001593Y013261D01*
X001608Y013194D01*
X001627Y013127D01*
X001650Y013062D01*
X001676Y012998D01*
X001706Y012936D01*
X001740Y012876D01*
X001776Y012817D01*
X001816Y012761D01*
X001859Y012707D01*
X001905Y012655D01*
X001954Y012606D01*
X002005Y012560D01*
X002059Y012517D01*
X002116Y012477D01*
X002174Y012440D01*
X002234Y012407D01*
X002297Y012377D01*
X002360Y012351D01*
X002425Y012328D01*
X002492Y012308D01*
X002559Y012293D01*
X002627Y012281D01*
X002696Y012274D01*
X002765Y012270D01*
X002834Y012269D01*
X002903Y012273D01*
X002971Y012281D01*
X003039Y012292D01*
X003107Y012308D01*
X003173Y012327D01*
X003238Y012349D01*
X003302Y012375D01*
X003364Y012405D01*
X003425Y012439D01*
X003483Y012475D01*
X003540Y012515D01*
X003594Y012558D01*
X003645Y012604D01*
X003694Y012653D01*
X003740Y012704D01*
X003784Y012758D01*
X003776Y012763D01*
X003733Y012709D01*
X003687Y012658D01*
X003637Y012609D01*
X003586Y012563D01*
X003531Y012520D01*
X003474Y012480D01*
X003416Y012444D01*
X003355Y012410D01*
X003292Y012381D01*
X003228Y012355D01*
X003162Y012333D01*
X003095Y012314D01*
X003028Y012299D01*
X002959Y012288D01*
X002890Y012281D01*
X002821Y012278D01*
X002752Y012279D01*
X002682Y012284D01*
X002614Y012292D01*
X002546Y012305D01*
X002478Y012321D01*
X002412Y012342D01*
X002347Y012365D01*
X002283Y012393D01*
X002221Y012424D01*
X002161Y012459D01*
X002103Y012497D01*
X002047Y012538D01*
X001994Y012582D01*
X001943Y012629D01*
X001895Y012679D01*
X001850Y012732D01*
X001808Y012787D01*
X001769Y012844D01*
X001734Y012904D01*
X001702Y012965D01*
X001673Y013028D01*
X001648Y013093D01*
X001627Y013159D01*
X001609Y013226D01*
X001596Y013294D01*
X001586Y013363D01*
X001580Y013432D01*
X001578Y013501D01*
X001580Y013570D01*
X001586Y013639D01*
X001596Y013708D01*
X001609Y013776D01*
X001627Y013843D01*
X001648Y013909D01*
X001673Y013974D01*
X001702Y014037D01*
X001734Y014098D01*
X001769Y014158D01*
X001808Y014215D01*
X001850Y014270D01*
X001895Y014323D01*
X001943Y014373D01*
X001994Y014420D01*
X002047Y014464D01*
X002103Y014505D01*
X002161Y014543D01*
X002221Y014578D01*
X002283Y014609D01*
X002347Y014637D01*
X002412Y014660D01*
X002478Y014681D01*
X002546Y014697D01*
X002614Y014710D01*
X002682Y014718D01*
X002752Y014723D01*
X002821Y014724D01*
X002890Y014721D01*
X002959Y014714D01*
X003028Y014703D01*
X003095Y014688D01*
X003162Y014669D01*
X003228Y014647D01*
X003292Y014621D01*
X003355Y014592D01*
X003416Y014558D01*
X003474Y014522D01*
X003531Y014482D01*
X003586Y014439D01*
X003637Y014393D01*
X003687Y014344D01*
X003733Y014293D01*
X003776Y014239D01*
X003769Y014233D01*
X003726Y014287D01*
X003680Y014338D01*
X003631Y014387D01*
X003580Y014432D01*
X003526Y014475D01*
X003469Y014514D01*
X003411Y014551D01*
X003351Y014584D01*
X003288Y014613D01*
X003225Y014639D01*
X003159Y014661D01*
X003093Y014679D01*
X003026Y014694D01*
X002958Y014705D01*
X002889Y014712D01*
X002821Y014715D01*
X002752Y014714D01*
X002683Y014709D01*
X002615Y014701D01*
X002547Y014688D01*
X002481Y014672D01*
X002415Y014652D01*
X002350Y014628D01*
X002287Y014601D01*
X002226Y014570D01*
X002166Y014536D01*
X002108Y014498D01*
X002053Y014457D01*
X002000Y014413D01*
X001950Y014366D01*
X001902Y014317D01*
X001857Y014265D01*
X001815Y014210D01*
X001777Y014153D01*
X001742Y014094D01*
X001710Y014033D01*
X001681Y013970D01*
X001657Y013906D01*
X001635Y013840D01*
X001618Y013774D01*
X001605Y013706D01*
X001595Y013638D01*
X001589Y013570D01*
X001587Y013501D01*
X001589Y013432D01*
X001595Y013364D01*
X001605Y013296D01*
X001618Y013228D01*
X001635Y013162D01*
X001657Y013096D01*
X001681Y013032D01*
X001710Y012969D01*
X001742Y012908D01*
X001777Y012849D01*
X001815Y012792D01*
X001857Y012737D01*
X001902Y012685D01*
X001950Y012636D01*
X002000Y012589D01*
X002053Y012545D01*
X002108Y012504D01*
X002166Y012466D01*
X002226Y012432D01*
X002287Y012401D01*
X002350Y012374D01*
X002415Y012350D01*
X002481Y012330D01*
X002547Y012314D01*
X002615Y012301D01*
X002683Y012293D01*
X002752Y012288D01*
X002821Y012287D01*
X002889Y012290D01*
X002958Y012297D01*
X003026Y012308D01*
X003093Y012323D01*
X003159Y012341D01*
X003225Y012363D01*
X003288Y012389D01*
X003351Y012418D01*
X003411Y012451D01*
X003469Y012488D01*
X003526Y012527D01*
X003580Y012570D01*
X003631Y012615D01*
X003680Y012664D01*
X003726Y012715D01*
X003769Y012769D01*
X003833Y007781D02*
X003761Y007727D01*
X003762Y007728D02*
X003719Y007781D01*
X003674Y007832D01*
X003625Y007880D01*
X003574Y007925D01*
X003520Y007968D01*
X003464Y008007D01*
X003406Y008043D01*
X003346Y008076D01*
X003285Y008105D01*
X003221Y008130D01*
X003157Y008152D01*
X003091Y008171D01*
X003024Y008185D01*
X002957Y008196D01*
X002889Y008203D01*
X002821Y008206D01*
X002752Y008205D01*
X002684Y008200D01*
X002616Y008192D01*
X002549Y008179D01*
X002483Y008163D01*
X002418Y008143D01*
X002353Y008120D01*
X002291Y008093D01*
X002230Y008062D01*
X002171Y008028D01*
X002113Y007991D01*
X002058Y007950D01*
X002006Y007906D01*
X001956Y007860D01*
X001909Y007811D01*
X001864Y007759D01*
X001823Y007705D01*
X001784Y007648D01*
X001749Y007589D01*
X001718Y007529D01*
X001690Y007467D01*
X001665Y007403D01*
X001644Y007338D01*
X001627Y007272D01*
X001613Y007205D01*
X001604Y007137D01*
X001598Y007069D01*
X001596Y007001D01*
X001598Y006933D01*
X001604Y006865D01*
X001613Y006797D01*
X001627Y006730D01*
X001644Y006664D01*
X001665Y006599D01*
X001690Y006535D01*
X001718Y006473D01*
X001749Y006413D01*
X001784Y006354D01*
X001823Y006297D01*
X001864Y006243D01*
X001909Y006191D01*
X001956Y006142D01*
X002006Y006096D01*
X002058Y006052D01*
X002113Y006011D01*
X002171Y005974D01*
X002230Y005940D01*
X002291Y005909D01*
X002353Y005882D01*
X002418Y005859D01*
X002483Y005839D01*
X002549Y005823D01*
X002616Y005810D01*
X002684Y005802D01*
X002752Y005797D01*
X002821Y005796D01*
X002889Y005799D01*
X002957Y005806D01*
X003024Y005817D01*
X003091Y005831D01*
X003157Y005850D01*
X003221Y005872D01*
X003285Y005897D01*
X003346Y005926D01*
X003406Y005959D01*
X003464Y005995D01*
X003520Y006034D01*
X003574Y006077D01*
X003625Y006122D01*
X003674Y006170D01*
X003719Y006221D01*
X003762Y006274D01*
X003833Y006221D01*
X003834Y006220D01*
X003790Y006165D01*
X003742Y006112D01*
X003692Y006061D01*
X003639Y006014D01*
X003584Y005970D01*
X003526Y005928D01*
X003466Y005890D01*
X003405Y005855D01*
X003341Y005824D01*
X003276Y005796D01*
X003209Y005772D01*
X003141Y005751D01*
X003072Y005735D01*
X003002Y005722D01*
X002932Y005713D01*
X002861Y005707D01*
X002790Y005706D01*
X002719Y005709D01*
X002648Y005715D01*
X002578Y005725D01*
X002509Y005739D01*
X002440Y005757D01*
X002372Y005779D01*
X002306Y005804D01*
X002241Y005833D01*
X002178Y005866D01*
X002117Y005902D01*
X002058Y005941D01*
X002001Y005983D01*
X001946Y006028D01*
X001894Y006077D01*
X001845Y006128D01*
X001798Y006181D01*
X001755Y006238D01*
X001715Y006296D01*
X001678Y006357D01*
X001644Y006419D01*
X001614Y006483D01*
X001587Y006549D01*
X001564Y006616D01*
X001545Y006685D01*
X001530Y006754D01*
X001518Y006824D01*
X001510Y006895D01*
X001506Y006966D01*
X001506Y007036D01*
X001510Y007107D01*
X001518Y007178D01*
X001530Y007248D01*
X001545Y007317D01*
X001564Y007386D01*
X001587Y007453D01*
X001614Y007519D01*
X001644Y007583D01*
X001678Y007645D01*
X001715Y007706D01*
X001755Y007764D01*
X001798Y007821D01*
X001845Y007874D01*
X001894Y007925D01*
X001946Y007974D01*
X002001Y008019D01*
X002058Y008061D01*
X002117Y008100D01*
X002178Y008136D01*
X002241Y008169D01*
X002306Y008198D01*
X002372Y008223D01*
X002440Y008245D01*
X002509Y008263D01*
X002578Y008277D01*
X002648Y008287D01*
X002719Y008293D01*
X002790Y008296D01*
X002861Y008295D01*
X002932Y008289D01*
X003002Y008280D01*
X003072Y008267D01*
X003141Y008251D01*
X003209Y008230D01*
X003276Y008206D01*
X003341Y008178D01*
X003405Y008147D01*
X003466Y008112D01*
X003526Y008074D01*
X003584Y008032D01*
X003639Y007988D01*
X003692Y007941D01*
X003742Y007890D01*
X003790Y007837D01*
X003834Y007782D01*
X003827Y007777D01*
X003782Y007832D01*
X003735Y007885D01*
X003684Y007936D01*
X003631Y007983D01*
X003575Y008028D01*
X003517Y008069D01*
X003457Y008107D01*
X003395Y008142D01*
X003331Y008173D01*
X003265Y008200D01*
X003198Y008224D01*
X003129Y008244D01*
X003060Y008261D01*
X002990Y008273D01*
X002919Y008282D01*
X002848Y008286D01*
X002777Y008287D01*
X002706Y008283D01*
X002635Y008276D01*
X002564Y008265D01*
X002495Y008250D01*
X002426Y008231D01*
X002358Y008208D01*
X002292Y008182D01*
X002227Y008152D01*
X002165Y008118D01*
X002104Y008082D01*
X002045Y008041D01*
X001988Y007998D01*
X001934Y007951D01*
X001883Y007902D01*
X001835Y007849D01*
X001789Y007795D01*
X001747Y007737D01*
X001708Y007678D01*
X001672Y007616D01*
X001639Y007553D01*
X001611Y007488D01*
X001585Y007421D01*
X001564Y007353D01*
X001546Y007284D01*
X001533Y007214D01*
X001523Y007143D01*
X001517Y007072D01*
X001515Y007001D01*
X001517Y006930D01*
X001523Y006859D01*
X001533Y006788D01*
X001546Y006718D01*
X001564Y006649D01*
X001585Y006581D01*
X001611Y006514D01*
X001639Y006449D01*
X001672Y006386D01*
X001708Y006324D01*
X001747Y006265D01*
X001789Y006207D01*
X001835Y006153D01*
X001883Y006100D01*
X001934Y006051D01*
X001988Y006004D01*
X002045Y005961D01*
X002104Y005920D01*
X002165Y005884D01*
X002227Y005850D01*
X002292Y005820D01*
X002358Y005794D01*
X002426Y005771D01*
X002495Y005752D01*
X002564Y005737D01*
X002635Y005726D01*
X002706Y005719D01*
X002777Y005715D01*
X002848Y005716D01*
X002919Y005720D01*
X002990Y005729D01*
X003060Y005741D01*
X003129Y005758D01*
X003198Y005778D01*
X003265Y005802D01*
X003331Y005829D01*
X003395Y005860D01*
X003457Y005895D01*
X003517Y005933D01*
X003575Y005974D01*
X003631Y006019D01*
X003684Y006066D01*
X003735Y006117D01*
X003782Y006170D01*
X003827Y006225D01*
X003820Y006231D01*
X003775Y006176D01*
X003728Y006123D01*
X003678Y006073D01*
X003625Y006026D01*
X003570Y005982D01*
X003512Y005940D01*
X003453Y005903D01*
X003391Y005868D01*
X003327Y005837D01*
X003262Y005810D01*
X003195Y005786D01*
X003127Y005766D01*
X003058Y005750D01*
X002989Y005738D01*
X002918Y005729D01*
X002848Y005725D01*
X002777Y005724D01*
X002706Y005728D01*
X002636Y005735D01*
X002566Y005746D01*
X002497Y005761D01*
X002429Y005780D01*
X002361Y005802D01*
X002296Y005828D01*
X002231Y005858D01*
X002169Y005891D01*
X002109Y005928D01*
X002050Y005968D01*
X001994Y006011D01*
X001940Y006057D01*
X001890Y006107D01*
X001841Y006158D01*
X001796Y006213D01*
X001754Y006270D01*
X001715Y006329D01*
X001680Y006390D01*
X001647Y006453D01*
X001619Y006518D01*
X001594Y006584D01*
X001573Y006652D01*
X001555Y006720D01*
X001542Y006790D01*
X001532Y006860D01*
X001526Y006930D01*
X001524Y007001D01*
X001526Y007072D01*
X001532Y007142D01*
X001542Y007212D01*
X001555Y007282D01*
X001573Y007350D01*
X001594Y007418D01*
X001619Y007484D01*
X001647Y007549D01*
X001680Y007612D01*
X001715Y007673D01*
X001754Y007732D01*
X001796Y007789D01*
X001841Y007844D01*
X001890Y007895D01*
X001940Y007945D01*
X001994Y007991D01*
X002050Y008034D01*
X002109Y008074D01*
X002169Y008111D01*
X002231Y008144D01*
X002296Y008174D01*
X002361Y008200D01*
X002429Y008222D01*
X002497Y008241D01*
X002566Y008256D01*
X002636Y008267D01*
X002706Y008274D01*
X002777Y008278D01*
X002848Y008277D01*
X002918Y008273D01*
X002989Y008264D01*
X003058Y008252D01*
X003127Y008236D01*
X003195Y008216D01*
X003262Y008192D01*
X003327Y008165D01*
X003391Y008134D01*
X003453Y008099D01*
X003512Y008062D01*
X003570Y008020D01*
X003625Y007976D01*
X003678Y007929D01*
X003728Y007879D01*
X003775Y007826D01*
X003820Y007771D01*
X003812Y007766D01*
X003768Y007821D01*
X003720Y007874D01*
X003670Y007924D01*
X003617Y007972D01*
X003561Y008016D01*
X003503Y008057D01*
X003443Y008094D01*
X003381Y008129D01*
X003317Y008159D01*
X003251Y008186D01*
X003184Y008210D01*
X003116Y008229D01*
X003046Y008245D01*
X002976Y008257D01*
X002906Y008265D01*
X002835Y008269D01*
X002764Y008268D01*
X002693Y008264D01*
X002622Y008256D01*
X002552Y008244D01*
X002483Y008228D01*
X002415Y008209D01*
X002347Y008185D01*
X002282Y008158D01*
X002218Y008127D01*
X002156Y008093D01*
X002096Y008055D01*
X002038Y008013D01*
X001982Y007969D01*
X001929Y007922D01*
X001879Y007871D01*
X001832Y007818D01*
X001787Y007763D01*
X001746Y007705D01*
X001709Y007645D01*
X001674Y007582D01*
X001643Y007518D01*
X001616Y007453D01*
X001593Y007386D01*
X001573Y007317D01*
X001557Y007248D01*
X001545Y007178D01*
X001537Y007107D01*
X001533Y007037D01*
X001533Y006965D01*
X001537Y006895D01*
X001545Y006824D01*
X001557Y006754D01*
X001573Y006685D01*
X001593Y006616D01*
X001616Y006549D01*
X001643Y006484D01*
X001674Y006420D01*
X001709Y006357D01*
X001746Y006297D01*
X001787Y006239D01*
X001832Y006184D01*
X001879Y006131D01*
X001929Y006080D01*
X001982Y006033D01*
X002038Y005989D01*
X002096Y005947D01*
X002156Y005909D01*
X002218Y005875D01*
X002282Y005844D01*
X002347Y005817D01*
X002415Y005793D01*
X002483Y005774D01*
X002552Y005758D01*
X002622Y005746D01*
X002693Y005738D01*
X002764Y005734D01*
X002835Y005733D01*
X002906Y005737D01*
X002976Y005745D01*
X003046Y005757D01*
X003116Y005773D01*
X003184Y005792D01*
X003251Y005816D01*
X003317Y005843D01*
X003381Y005873D01*
X003443Y005908D01*
X003503Y005945D01*
X003561Y005986D01*
X003617Y006030D01*
X003670Y006078D01*
X003720Y006128D01*
X003768Y006181D01*
X003812Y006236D01*
X003805Y006242D01*
X003761Y006187D01*
X003714Y006134D01*
X003664Y006084D01*
X003611Y006037D01*
X003556Y005993D01*
X003498Y005953D01*
X003439Y005915D01*
X003377Y005881D01*
X003313Y005851D01*
X003248Y005824D01*
X003181Y005801D01*
X003113Y005781D01*
X003045Y005766D01*
X002975Y005754D01*
X002905Y005746D01*
X002834Y005742D01*
X002764Y005743D01*
X002693Y005747D01*
X002623Y005755D01*
X002554Y005767D01*
X002485Y005782D01*
X002417Y005802D01*
X002351Y005825D01*
X002286Y005852D01*
X002222Y005883D01*
X002160Y005917D01*
X002101Y005955D01*
X002043Y005996D01*
X001988Y006040D01*
X001935Y006087D01*
X001886Y006137D01*
X001839Y006189D01*
X001795Y006245D01*
X001754Y006302D01*
X001716Y006362D01*
X001682Y006424D01*
X001652Y006487D01*
X001625Y006552D01*
X001601Y006619D01*
X001582Y006687D01*
X001566Y006756D01*
X001554Y006825D01*
X001546Y006895D01*
X001542Y006966D01*
X001542Y007036D01*
X001546Y007107D01*
X001554Y007177D01*
X001566Y007246D01*
X001582Y007315D01*
X001601Y007383D01*
X001625Y007450D01*
X001652Y007515D01*
X001682Y007578D01*
X001716Y007640D01*
X001754Y007700D01*
X001795Y007757D01*
X001839Y007813D01*
X001886Y007865D01*
X001935Y007915D01*
X001988Y007962D01*
X002043Y008006D01*
X002101Y008047D01*
X002160Y008085D01*
X002222Y008119D01*
X002286Y008150D01*
X002351Y008177D01*
X002417Y008200D01*
X002485Y008220D01*
X002554Y008235D01*
X002623Y008247D01*
X002693Y008255D01*
X002764Y008259D01*
X002834Y008260D01*
X002905Y008256D01*
X002975Y008248D01*
X003045Y008236D01*
X003113Y008221D01*
X003181Y008201D01*
X003248Y008178D01*
X003313Y008151D01*
X003377Y008121D01*
X003439Y008087D01*
X003498Y008049D01*
X003556Y008009D01*
X003611Y007965D01*
X003664Y007918D01*
X003714Y007868D01*
X003761Y007815D01*
X003805Y007760D01*
X003798Y007755D01*
X003754Y007810D01*
X003707Y007862D01*
X003658Y007911D01*
X003605Y007958D01*
X003551Y008001D01*
X003493Y008042D01*
X003434Y008079D01*
X003373Y008113D01*
X003309Y008143D01*
X003245Y008170D01*
X003178Y008193D01*
X003111Y008212D01*
X003043Y008227D01*
X002974Y008239D01*
X002904Y008247D01*
X002834Y008251D01*
X002764Y008250D01*
X002694Y008246D01*
X002625Y008238D01*
X002556Y008227D01*
X002487Y008211D01*
X002420Y008192D01*
X002354Y008168D01*
X002289Y008141D01*
X002226Y008111D01*
X002165Y008077D01*
X002106Y008040D01*
X002048Y007999D01*
X001994Y007955D01*
X001942Y007909D01*
X001892Y007859D01*
X001845Y007807D01*
X001802Y007752D01*
X001761Y007695D01*
X001724Y007636D01*
X001690Y007574D01*
X001660Y007511D01*
X001633Y007446D01*
X001610Y007380D01*
X001591Y007313D01*
X001575Y007245D01*
X001563Y007176D01*
X001555Y007106D01*
X001551Y007036D01*
X001551Y006966D01*
X001555Y006896D01*
X001563Y006826D01*
X001575Y006757D01*
X001591Y006689D01*
X001610Y006622D01*
X001633Y006556D01*
X001660Y006491D01*
X001690Y006428D01*
X001724Y006366D01*
X001761Y006307D01*
X001802Y006250D01*
X001845Y006195D01*
X001892Y006143D01*
X001942Y006093D01*
X001994Y006047D01*
X002048Y006003D01*
X002106Y005962D01*
X002165Y005925D01*
X002226Y005891D01*
X002289Y005861D01*
X002354Y005834D01*
X002420Y005810D01*
X002487Y005791D01*
X002556Y005775D01*
X002625Y005764D01*
X002694Y005756D01*
X002764Y005752D01*
X002834Y005751D01*
X002904Y005755D01*
X002974Y005763D01*
X003043Y005775D01*
X003111Y005790D01*
X003178Y005809D01*
X003245Y005832D01*
X003309Y005859D01*
X003373Y005889D01*
X003434Y005923D01*
X003493Y005960D01*
X003551Y006001D01*
X003605Y006044D01*
X003658Y006091D01*
X003707Y006140D01*
X003754Y006192D01*
X003798Y006247D01*
X003791Y006252D01*
X003747Y006198D01*
X003701Y006146D01*
X003652Y006097D01*
X003600Y006051D01*
X003545Y006008D01*
X003488Y005968D01*
X003429Y005931D01*
X003368Y005897D01*
X003306Y005867D01*
X003241Y005841D01*
X003176Y005818D01*
X003109Y005799D01*
X003041Y005783D01*
X002972Y005772D01*
X002903Y005764D01*
X002834Y005760D01*
X002764Y005761D01*
X002695Y005765D01*
X002626Y005772D01*
X002557Y005784D01*
X002490Y005800D01*
X002423Y005819D01*
X002357Y005842D01*
X002293Y005869D01*
X002230Y005899D01*
X002169Y005933D01*
X002111Y005970D01*
X002054Y006010D01*
X002000Y006053D01*
X001948Y006100D01*
X001899Y006149D01*
X001852Y006201D01*
X001809Y006255D01*
X001769Y006312D01*
X001732Y006371D01*
X001698Y006432D01*
X001668Y006495D01*
X001641Y006559D01*
X001618Y006624D01*
X001599Y006691D01*
X001584Y006759D01*
X001572Y006828D01*
X001564Y006897D01*
X001560Y006966D01*
X001560Y007036D01*
X001564Y007105D01*
X001572Y007174D01*
X001584Y007243D01*
X001599Y007311D01*
X001618Y007378D01*
X001641Y007443D01*
X001668Y007507D01*
X001698Y007570D01*
X001732Y007631D01*
X001769Y007690D01*
X001809Y007747D01*
X001852Y007801D01*
X001899Y007853D01*
X001948Y007902D01*
X002000Y007949D01*
X002054Y007992D01*
X002111Y008032D01*
X002169Y008069D01*
X002230Y008103D01*
X002293Y008133D01*
X002357Y008160D01*
X002423Y008183D01*
X002490Y008202D01*
X002557Y008218D01*
X002626Y008230D01*
X002695Y008237D01*
X002764Y008241D01*
X002834Y008242D01*
X002903Y008238D01*
X002972Y008230D01*
X003041Y008219D01*
X003109Y008203D01*
X003176Y008184D01*
X003241Y008161D01*
X003306Y008135D01*
X003368Y008105D01*
X003429Y008071D01*
X003488Y008034D01*
X003545Y007994D01*
X003600Y007951D01*
X003652Y007905D01*
X003701Y007856D01*
X003747Y007804D01*
X003791Y007750D01*
X003784Y007744D01*
X003740Y007798D01*
X003694Y007849D01*
X003645Y007898D01*
X003594Y007944D01*
X003540Y007987D01*
X003483Y008027D01*
X003425Y008063D01*
X003364Y008097D01*
X003302Y008127D01*
X003238Y008153D01*
X003173Y008175D01*
X003107Y008194D01*
X003039Y008210D01*
X002971Y008221D01*
X002903Y008229D01*
X002834Y008233D01*
X002765Y008232D01*
X002696Y008228D01*
X002627Y008221D01*
X002559Y008209D01*
X002492Y008194D01*
X002425Y008174D01*
X002360Y008151D01*
X002297Y008125D01*
X002234Y008095D01*
X002174Y008062D01*
X002116Y008025D01*
X002059Y007985D01*
X002005Y007942D01*
X001954Y007896D01*
X001905Y007847D01*
X001859Y007795D01*
X001816Y007741D01*
X001776Y007685D01*
X001740Y007626D01*
X001706Y007566D01*
X001676Y007504D01*
X001650Y007440D01*
X001627Y007375D01*
X001608Y007308D01*
X001593Y007241D01*
X001581Y007173D01*
X001573Y007104D01*
X001569Y007036D01*
X001569Y006966D01*
X001573Y006898D01*
X001581Y006829D01*
X001593Y006761D01*
X001608Y006694D01*
X001627Y006627D01*
X001650Y006562D01*
X001676Y006498D01*
X001706Y006436D01*
X001740Y006376D01*
X001776Y006317D01*
X001816Y006261D01*
X001859Y006207D01*
X001905Y006155D01*
X001954Y006106D01*
X002005Y006060D01*
X002059Y006017D01*
X002116Y005977D01*
X002174Y005940D01*
X002234Y005907D01*
X002297Y005877D01*
X002360Y005851D01*
X002425Y005828D01*
X002492Y005808D01*
X002559Y005793D01*
X002627Y005781D01*
X002696Y005774D01*
X002765Y005770D01*
X002834Y005769D01*
X002903Y005773D01*
X002971Y005781D01*
X003039Y005792D01*
X003107Y005808D01*
X003173Y005827D01*
X003238Y005849D01*
X003302Y005875D01*
X003364Y005905D01*
X003425Y005939D01*
X003483Y005975D01*
X003540Y006015D01*
X003594Y006058D01*
X003645Y006104D01*
X003694Y006153D01*
X003740Y006204D01*
X003784Y006258D01*
X003776Y006263D01*
X003733Y006209D01*
X003687Y006158D01*
X003637Y006109D01*
X003586Y006063D01*
X003531Y006020D01*
X003474Y005980D01*
X003416Y005944D01*
X003355Y005910D01*
X003292Y005881D01*
X003228Y005855D01*
X003162Y005833D01*
X003095Y005814D01*
X003028Y005799D01*
X002959Y005788D01*
X002890Y005781D01*
X002821Y005778D01*
X002752Y005779D01*
X002682Y005784D01*
X002614Y005792D01*
X002546Y005805D01*
X002478Y005821D01*
X002412Y005842D01*
X002347Y005865D01*
X002283Y005893D01*
X002221Y005924D01*
X002161Y005959D01*
X002103Y005997D01*
X002047Y006038D01*
X001994Y006082D01*
X001943Y006129D01*
X001895Y006179D01*
X001850Y006232D01*
X001808Y006287D01*
X001769Y006344D01*
X001734Y006404D01*
X001702Y006465D01*
X001673Y006528D01*
X001648Y006593D01*
X001627Y006659D01*
X001609Y006726D01*
X001596Y006794D01*
X001586Y006863D01*
X001580Y006932D01*
X001578Y007001D01*
X001580Y007070D01*
X001586Y007139D01*
X001596Y007208D01*
X001609Y007276D01*
X001627Y007343D01*
X001648Y007409D01*
X001673Y007474D01*
X001702Y007537D01*
X001734Y007598D01*
X001769Y007658D01*
X001808Y007715D01*
X001850Y007770D01*
X001895Y007823D01*
X001943Y007873D01*
X001994Y007920D01*
X002047Y007964D01*
X002103Y008005D01*
X002161Y008043D01*
X002221Y008078D01*
X002283Y008109D01*
X002347Y008137D01*
X002412Y008160D01*
X002478Y008181D01*
X002546Y008197D01*
X002614Y008210D01*
X002682Y008218D01*
X002752Y008223D01*
X002821Y008224D01*
X002890Y008221D01*
X002959Y008214D01*
X003028Y008203D01*
X003095Y008188D01*
X003162Y008169D01*
X003228Y008147D01*
X003292Y008121D01*
X003355Y008092D01*
X003416Y008058D01*
X003474Y008022D01*
X003531Y007982D01*
X003586Y007939D01*
X003637Y007893D01*
X003687Y007844D01*
X003733Y007793D01*
X003776Y007739D01*
X003769Y007733D01*
X003726Y007787D01*
X003680Y007838D01*
X003631Y007887D01*
X003580Y007932D01*
X003526Y007975D01*
X003469Y008014D01*
X003411Y008051D01*
X003351Y008084D01*
X003288Y008113D01*
X003225Y008139D01*
X003159Y008161D01*
X003093Y008179D01*
X003026Y008194D01*
X002958Y008205D01*
X002889Y008212D01*
X002821Y008215D01*
X002752Y008214D01*
X002683Y008209D01*
X002615Y008201D01*
X002547Y008188D01*
X002481Y008172D01*
X002415Y008152D01*
X002350Y008128D01*
X002287Y008101D01*
X002226Y008070D01*
X002166Y008036D01*
X002108Y007998D01*
X002053Y007957D01*
X002000Y007913D01*
X001950Y007866D01*
X001902Y007817D01*
X001857Y007765D01*
X001815Y007710D01*
X001777Y007653D01*
X001742Y007594D01*
X001710Y007533D01*
X001681Y007470D01*
X001657Y007406D01*
X001635Y007340D01*
X001618Y007274D01*
X001605Y007206D01*
X001595Y007138D01*
X001589Y007070D01*
X001587Y007001D01*
X001589Y006932D01*
X001595Y006864D01*
X001605Y006796D01*
X001618Y006728D01*
X001635Y006662D01*
X001657Y006596D01*
X001681Y006532D01*
X001710Y006469D01*
X001742Y006408D01*
X001777Y006349D01*
X001815Y006292D01*
X001857Y006237D01*
X001902Y006185D01*
X001950Y006136D01*
X002000Y006089D01*
X002053Y006045D01*
X002108Y006004D01*
X002166Y005966D01*
X002226Y005932D01*
X002287Y005901D01*
X002350Y005874D01*
X002415Y005850D01*
X002481Y005830D01*
X002547Y005814D01*
X002615Y005801D01*
X002683Y005793D01*
X002752Y005788D01*
X002821Y005787D01*
X002889Y005790D01*
X002958Y005797D01*
X003026Y005808D01*
X003093Y005823D01*
X003159Y005841D01*
X003225Y005863D01*
X003288Y005889D01*
X003351Y005918D01*
X003411Y005951D01*
X003469Y005988D01*
X003526Y006027D01*
X003580Y006070D01*
X003631Y006115D01*
X003680Y006164D01*
X003726Y006215D01*
X003769Y006269D01*
X008833Y007781D02*
X008761Y007727D01*
X008762Y007728D02*
X008719Y007781D01*
X008674Y007832D01*
X008625Y007880D01*
X008574Y007925D01*
X008520Y007968D01*
X008464Y008007D01*
X008406Y008043D01*
X008346Y008076D01*
X008285Y008105D01*
X008221Y008130D01*
X008157Y008152D01*
X008091Y008171D01*
X008024Y008185D01*
X007957Y008196D01*
X007889Y008203D01*
X007821Y008206D01*
X007752Y008205D01*
X007684Y008200D01*
X007616Y008192D01*
X007549Y008179D01*
X007483Y008163D01*
X007418Y008143D01*
X007353Y008120D01*
X007291Y008093D01*
X007230Y008062D01*
X007171Y008028D01*
X007113Y007991D01*
X007058Y007950D01*
X007006Y007906D01*
X006956Y007860D01*
X006909Y007811D01*
X006864Y007759D01*
X006823Y007705D01*
X006784Y007648D01*
X006749Y007589D01*
X006718Y007529D01*
X006690Y007467D01*
X006665Y007403D01*
X006644Y007338D01*
X006627Y007272D01*
X006613Y007205D01*
X006604Y007137D01*
X006598Y007069D01*
X006596Y007001D01*
X006598Y006933D01*
X006604Y006865D01*
X006613Y006797D01*
X006627Y006730D01*
X006644Y006664D01*
X006665Y006599D01*
X006690Y006535D01*
X006718Y006473D01*
X006749Y006413D01*
X006784Y006354D01*
X006823Y006297D01*
X006864Y006243D01*
X006909Y006191D01*
X006956Y006142D01*
X007006Y006096D01*
X007058Y006052D01*
X007113Y006011D01*
X007171Y005974D01*
X007230Y005940D01*
X007291Y005909D01*
X007353Y005882D01*
X007418Y005859D01*
X007483Y005839D01*
X007549Y005823D01*
X007616Y005810D01*
X007684Y005802D01*
X007752Y005797D01*
X007821Y005796D01*
X007889Y005799D01*
X007957Y005806D01*
X008024Y005817D01*
X008091Y005831D01*
X008157Y005850D01*
X008221Y005872D01*
X008285Y005897D01*
X008346Y005926D01*
X008406Y005959D01*
X008464Y005995D01*
X008520Y006034D01*
X008574Y006077D01*
X008625Y006122D01*
X008674Y006170D01*
X008719Y006221D01*
X008762Y006274D01*
X008833Y006221D01*
X008834Y006220D01*
X008790Y006165D01*
X008742Y006112D01*
X008692Y006061D01*
X008639Y006014D01*
X008584Y005970D01*
X008526Y005928D01*
X008466Y005890D01*
X008405Y005855D01*
X008341Y005824D01*
X008276Y005796D01*
X008209Y005772D01*
X008141Y005751D01*
X008072Y005735D01*
X008002Y005722D01*
X007932Y005713D01*
X007861Y005707D01*
X007790Y005706D01*
X007719Y005709D01*
X007648Y005715D01*
X007578Y005725D01*
X007509Y005739D01*
X007440Y005757D01*
X007372Y005779D01*
X007306Y005804D01*
X007241Y005833D01*
X007178Y005866D01*
X007117Y005902D01*
X007058Y005941D01*
X007001Y005983D01*
X006946Y006028D01*
X006894Y006077D01*
X006845Y006128D01*
X006798Y006181D01*
X006755Y006238D01*
X006715Y006296D01*
X006678Y006357D01*
X006644Y006419D01*
X006614Y006483D01*
X006587Y006549D01*
X006564Y006616D01*
X006545Y006685D01*
X006530Y006754D01*
X006518Y006824D01*
X006510Y006895D01*
X006506Y006966D01*
X006506Y007036D01*
X006510Y007107D01*
X006518Y007178D01*
X006530Y007248D01*
X006545Y007317D01*
X006564Y007386D01*
X006587Y007453D01*
X006614Y007519D01*
X006644Y007583D01*
X006678Y007645D01*
X006715Y007706D01*
X006755Y007764D01*
X006798Y007821D01*
X006845Y007874D01*
X006894Y007925D01*
X006946Y007974D01*
X007001Y008019D01*
X007058Y008061D01*
X007117Y008100D01*
X007178Y008136D01*
X007241Y008169D01*
X007306Y008198D01*
X007372Y008223D01*
X007440Y008245D01*
X007509Y008263D01*
X007578Y008277D01*
X007648Y008287D01*
X007719Y008293D01*
X007790Y008296D01*
X007861Y008295D01*
X007932Y008289D01*
X008002Y008280D01*
X008072Y008267D01*
X008141Y008251D01*
X008209Y008230D01*
X008276Y008206D01*
X008341Y008178D01*
X008405Y008147D01*
X008466Y008112D01*
X008526Y008074D01*
X008584Y008032D01*
X008639Y007988D01*
X008692Y007941D01*
X008742Y007890D01*
X008790Y007837D01*
X008834Y007782D01*
X008827Y007777D01*
X008782Y007832D01*
X008735Y007885D01*
X008684Y007936D01*
X008631Y007983D01*
X008575Y008028D01*
X008517Y008069D01*
X008457Y008107D01*
X008395Y008142D01*
X008331Y008173D01*
X008265Y008200D01*
X008198Y008224D01*
X008129Y008244D01*
X008060Y008261D01*
X007990Y008273D01*
X007919Y008282D01*
X007848Y008286D01*
X007777Y008287D01*
X007706Y008283D01*
X007635Y008276D01*
X007564Y008265D01*
X007495Y008250D01*
X007426Y008231D01*
X007358Y008208D01*
X007292Y008182D01*
X007227Y008152D01*
X007165Y008118D01*
X007104Y008082D01*
X007045Y008041D01*
X006988Y007998D01*
X006934Y007951D01*
X006883Y007902D01*
X006835Y007849D01*
X006789Y007795D01*
X006747Y007737D01*
X006708Y007678D01*
X006672Y007616D01*
X006639Y007553D01*
X006611Y007488D01*
X006585Y007421D01*
X006564Y007353D01*
X006546Y007284D01*
X006533Y007214D01*
X006523Y007143D01*
X006517Y007072D01*
X006515Y007001D01*
X006517Y006930D01*
X006523Y006859D01*
X006533Y006788D01*
X006546Y006718D01*
X006564Y006649D01*
X006585Y006581D01*
X006611Y006514D01*
X006639Y006449D01*
X006672Y006386D01*
X006708Y006324D01*
X006747Y006265D01*
X006789Y006207D01*
X006835Y006153D01*
X006883Y006100D01*
X006934Y006051D01*
X006988Y006004D01*
X007045Y005961D01*
X007104Y005920D01*
X007165Y005884D01*
X007227Y005850D01*
X007292Y005820D01*
X007358Y005794D01*
X007426Y005771D01*
X007495Y005752D01*
X007564Y005737D01*
X007635Y005726D01*
X007706Y005719D01*
X007777Y005715D01*
X007848Y005716D01*
X007919Y005720D01*
X007990Y005729D01*
X008060Y005741D01*
X008129Y005758D01*
X008198Y005778D01*
X008265Y005802D01*
X008331Y005829D01*
X008395Y005860D01*
X008457Y005895D01*
X008517Y005933D01*
X008575Y005974D01*
X008631Y006019D01*
X008684Y006066D01*
X008735Y006117D01*
X008782Y006170D01*
X008827Y006225D01*
X008820Y006231D01*
X008775Y006176D01*
X008728Y006123D01*
X008678Y006073D01*
X008625Y006026D01*
X008570Y005982D01*
X008512Y005940D01*
X008453Y005903D01*
X008391Y005868D01*
X008327Y005837D01*
X008262Y005810D01*
X008195Y005786D01*
X008127Y005766D01*
X008058Y005750D01*
X007989Y005738D01*
X007918Y005729D01*
X007848Y005725D01*
X007777Y005724D01*
X007706Y005728D01*
X007636Y005735D01*
X007566Y005746D01*
X007497Y005761D01*
X007429Y005780D01*
X007361Y005802D01*
X007296Y005828D01*
X007231Y005858D01*
X007169Y005891D01*
X007109Y005928D01*
X007050Y005968D01*
X006994Y006011D01*
X006940Y006057D01*
X006890Y006107D01*
X006841Y006158D01*
X006796Y006213D01*
X006754Y006270D01*
X006715Y006329D01*
X006680Y006390D01*
X006647Y006453D01*
X006619Y006518D01*
X006594Y006584D01*
X006573Y006652D01*
X006555Y006720D01*
X006542Y006790D01*
X006532Y006860D01*
X006526Y006930D01*
X006524Y007001D01*
X006526Y007072D01*
X006532Y007142D01*
X006542Y007212D01*
X006555Y007282D01*
X006573Y007350D01*
X006594Y007418D01*
X006619Y007484D01*
X006647Y007549D01*
X006680Y007612D01*
X006715Y007673D01*
X006754Y007732D01*
X006796Y007789D01*
X006841Y007844D01*
X006890Y007895D01*
X006940Y007945D01*
X006994Y007991D01*
X007050Y008034D01*
X007109Y008074D01*
X007169Y008111D01*
X007231Y008144D01*
X007296Y008174D01*
X007361Y008200D01*
X007429Y008222D01*
X007497Y008241D01*
X007566Y008256D01*
X007636Y008267D01*
X007706Y008274D01*
X007777Y008278D01*
X007848Y008277D01*
X007918Y008273D01*
X007989Y008264D01*
X008058Y008252D01*
X008127Y008236D01*
X008195Y008216D01*
X008262Y008192D01*
X008327Y008165D01*
X008391Y008134D01*
X008453Y008099D01*
X008512Y008062D01*
X008570Y008020D01*
X008625Y007976D01*
X008678Y007929D01*
X008728Y007879D01*
X008775Y007826D01*
X008820Y007771D01*
X008812Y007766D01*
X008768Y007821D01*
X008720Y007874D01*
X008670Y007924D01*
X008617Y007972D01*
X008561Y008016D01*
X008503Y008057D01*
X008443Y008094D01*
X008381Y008129D01*
X008317Y008159D01*
X008251Y008186D01*
X008184Y008210D01*
X008116Y008229D01*
X008046Y008245D01*
X007976Y008257D01*
X007906Y008265D01*
X007835Y008269D01*
X007764Y008268D01*
X007693Y008264D01*
X007622Y008256D01*
X007552Y008244D01*
X007483Y008228D01*
X007415Y008209D01*
X007347Y008185D01*
X007282Y008158D01*
X007218Y008127D01*
X007156Y008093D01*
X007096Y008055D01*
X007038Y008013D01*
X006982Y007969D01*
X006929Y007922D01*
X006879Y007871D01*
X006832Y007818D01*
X006787Y007763D01*
X006746Y007705D01*
X006709Y007645D01*
X006674Y007582D01*
X006643Y007518D01*
X006616Y007453D01*
X006593Y007386D01*
X006573Y007317D01*
X006557Y007248D01*
X006545Y007178D01*
X006537Y007107D01*
X006533Y007037D01*
X006533Y006965D01*
X006537Y006895D01*
X006545Y006824D01*
X006557Y006754D01*
X006573Y006685D01*
X006593Y006616D01*
X006616Y006549D01*
X006643Y006484D01*
X006674Y006420D01*
X006709Y006357D01*
X006746Y006297D01*
X006787Y006239D01*
X006832Y006184D01*
X006879Y006131D01*
X006929Y006080D01*
X006982Y006033D01*
X007038Y005989D01*
X007096Y005947D01*
X007156Y005909D01*
X007218Y005875D01*
X007282Y005844D01*
X007347Y005817D01*
X007415Y005793D01*
X007483Y005774D01*
X007552Y005758D01*
X007622Y005746D01*
X007693Y005738D01*
X007764Y005734D01*
X007835Y005733D01*
X007906Y005737D01*
X007976Y005745D01*
X008046Y005757D01*
X008116Y005773D01*
X008184Y005792D01*
X008251Y005816D01*
X008317Y005843D01*
X008381Y005873D01*
X008443Y005908D01*
X008503Y005945D01*
X008561Y005986D01*
X008617Y006030D01*
X008670Y006078D01*
X008720Y006128D01*
X008768Y006181D01*
X008812Y006236D01*
X008805Y006242D01*
X008761Y006187D01*
X008714Y006134D01*
X008664Y006084D01*
X008611Y006037D01*
X008556Y005993D01*
X008498Y005953D01*
X008439Y005915D01*
X008377Y005881D01*
X008313Y005851D01*
X008248Y005824D01*
X008181Y005801D01*
X008113Y005781D01*
X008045Y005766D01*
X007975Y005754D01*
X007905Y005746D01*
X007834Y005742D01*
X007764Y005743D01*
X007693Y005747D01*
X007623Y005755D01*
X007554Y005767D01*
X007485Y005782D01*
X007417Y005802D01*
X007351Y005825D01*
X007286Y005852D01*
X007222Y005883D01*
X007160Y005917D01*
X007101Y005955D01*
X007043Y005996D01*
X006988Y006040D01*
X006935Y006087D01*
X006886Y006137D01*
X006839Y006189D01*
X006795Y006245D01*
X006754Y006302D01*
X006716Y006362D01*
X006682Y006424D01*
X006652Y006487D01*
X006625Y006552D01*
X006601Y006619D01*
X006582Y006687D01*
X006566Y006756D01*
X006554Y006825D01*
X006546Y006895D01*
X006542Y006966D01*
X006542Y007036D01*
X006546Y007107D01*
X006554Y007177D01*
X006566Y007246D01*
X006582Y007315D01*
X006601Y007383D01*
X006625Y007450D01*
X006652Y007515D01*
X006682Y007578D01*
X006716Y007640D01*
X006754Y007700D01*
X006795Y007757D01*
X006839Y007813D01*
X006886Y007865D01*
X006935Y007915D01*
X006988Y007962D01*
X007043Y008006D01*
X007101Y008047D01*
X007160Y008085D01*
X007222Y008119D01*
X007286Y008150D01*
X007351Y008177D01*
X007417Y008200D01*
X007485Y008220D01*
X007554Y008235D01*
X007623Y008247D01*
X007693Y008255D01*
X007764Y008259D01*
X007834Y008260D01*
X007905Y008256D01*
X007975Y008248D01*
X008045Y008236D01*
X008113Y008221D01*
X008181Y008201D01*
X008248Y008178D01*
X008313Y008151D01*
X008377Y008121D01*
X008439Y008087D01*
X008498Y008049D01*
X008556Y008009D01*
X008611Y007965D01*
X008664Y007918D01*
X008714Y007868D01*
X008761Y007815D01*
X008805Y007760D01*
X008798Y007755D01*
X008754Y007810D01*
X008707Y007862D01*
X008658Y007911D01*
X008605Y007958D01*
X008551Y008001D01*
X008493Y008042D01*
X008434Y008079D01*
X008373Y008113D01*
X008309Y008143D01*
X008245Y008170D01*
X008178Y008193D01*
X008111Y008212D01*
X008043Y008227D01*
X007974Y008239D01*
X007904Y008247D01*
X007834Y008251D01*
X007764Y008250D01*
X007694Y008246D01*
X007625Y008238D01*
X007556Y008227D01*
X007487Y008211D01*
X007420Y008192D01*
X007354Y008168D01*
X007289Y008141D01*
X007226Y008111D01*
X007165Y008077D01*
X007106Y008040D01*
X007048Y007999D01*
X006994Y007955D01*
X006942Y007909D01*
X006892Y007859D01*
X006845Y007807D01*
X006802Y007752D01*
X006761Y007695D01*
X006724Y007636D01*
X006690Y007574D01*
X006660Y007511D01*
X006633Y007446D01*
X006610Y007380D01*
X006591Y007313D01*
X006575Y007245D01*
X006563Y007176D01*
X006555Y007106D01*
X006551Y007036D01*
X006551Y006966D01*
X006555Y006896D01*
X006563Y006826D01*
X006575Y006757D01*
X006591Y006689D01*
X006610Y006622D01*
X006633Y006556D01*
X006660Y006491D01*
X006690Y006428D01*
X006724Y006366D01*
X006761Y006307D01*
X006802Y006250D01*
X006845Y006195D01*
X006892Y006143D01*
X006942Y006093D01*
X006994Y006047D01*
X007048Y006003D01*
X007106Y005962D01*
X007165Y005925D01*
X007226Y005891D01*
X007289Y005861D01*
X007354Y005834D01*
X007420Y005810D01*
X007487Y005791D01*
X007556Y005775D01*
X007625Y005764D01*
X007694Y005756D01*
X007764Y005752D01*
X007834Y005751D01*
X007904Y005755D01*
X007974Y005763D01*
X008043Y005775D01*
X008111Y005790D01*
X008178Y005809D01*
X008245Y005832D01*
X008309Y005859D01*
X008373Y005889D01*
X008434Y005923D01*
X008493Y005960D01*
X008551Y006001D01*
X008605Y006044D01*
X008658Y006091D01*
X008707Y006140D01*
X008754Y006192D01*
X008798Y006247D01*
X008791Y006252D01*
X008747Y006198D01*
X008701Y006146D01*
X008652Y006097D01*
X008600Y006051D01*
X008545Y006008D01*
X008488Y005968D01*
X008429Y005931D01*
X008368Y005897D01*
X008306Y005867D01*
X008241Y005841D01*
X008176Y005818D01*
X008109Y005799D01*
X008041Y005783D01*
X007972Y005772D01*
X007903Y005764D01*
X007834Y005760D01*
X007764Y005761D01*
X007695Y005765D01*
X007626Y005772D01*
X007557Y005784D01*
X007490Y005800D01*
X007423Y005819D01*
X007357Y005842D01*
X007293Y005869D01*
X007230Y005899D01*
X007169Y005933D01*
X007111Y005970D01*
X007054Y006010D01*
X007000Y006053D01*
X006948Y006100D01*
X006899Y006149D01*
X006852Y006201D01*
X006809Y006255D01*
X006769Y006312D01*
X006732Y006371D01*
X006698Y006432D01*
X006668Y006495D01*
X006641Y006559D01*
X006618Y006624D01*
X006599Y006691D01*
X006584Y006759D01*
X006572Y006828D01*
X006564Y006897D01*
X006560Y006966D01*
X006560Y007036D01*
X006564Y007105D01*
X006572Y007174D01*
X006584Y007243D01*
X006599Y007311D01*
X006618Y007378D01*
X006641Y007443D01*
X006668Y007507D01*
X006698Y007570D01*
X006732Y007631D01*
X006769Y007690D01*
X006809Y007747D01*
X006852Y007801D01*
X006899Y007853D01*
X006948Y007902D01*
X007000Y007949D01*
X007054Y007992D01*
X007111Y008032D01*
X007169Y008069D01*
X007230Y008103D01*
X007293Y008133D01*
X007357Y008160D01*
X007423Y008183D01*
X007490Y008202D01*
X007557Y008218D01*
X007626Y008230D01*
X007695Y008237D01*
X007764Y008241D01*
X007834Y008242D01*
X007903Y008238D01*
X007972Y008230D01*
X008041Y008219D01*
X008109Y008203D01*
X008176Y008184D01*
X008241Y008161D01*
X008306Y008135D01*
X008368Y008105D01*
X008429Y008071D01*
X008488Y008034D01*
X008545Y007994D01*
X008600Y007951D01*
X008652Y007905D01*
X008701Y007856D01*
X008747Y007804D01*
X008791Y007750D01*
X008784Y007744D01*
X008740Y007798D01*
X008694Y007849D01*
X008645Y007898D01*
X008594Y007944D01*
X008540Y007987D01*
X008483Y008027D01*
X008425Y008063D01*
X008364Y008097D01*
X008302Y008127D01*
X008238Y008153D01*
X008173Y008175D01*
X008107Y008194D01*
X008039Y008210D01*
X007971Y008221D01*
X007903Y008229D01*
X007834Y008233D01*
X007765Y008232D01*
X007696Y008228D01*
X007627Y008221D01*
X007559Y008209D01*
X007492Y008194D01*
X007425Y008174D01*
X007360Y008151D01*
X007297Y008125D01*
X007234Y008095D01*
X007174Y008062D01*
X007116Y008025D01*
X007059Y007985D01*
X007005Y007942D01*
X006954Y007896D01*
X006905Y007847D01*
X006859Y007795D01*
X006816Y007741D01*
X006776Y007685D01*
X006740Y007626D01*
X006706Y007566D01*
X006676Y007504D01*
X006650Y007440D01*
X006627Y007375D01*
X006608Y007308D01*
X006593Y007241D01*
X006581Y007173D01*
X006573Y007104D01*
X006569Y007036D01*
X006569Y006966D01*
X006573Y006898D01*
X006581Y006829D01*
X006593Y006761D01*
X006608Y006694D01*
X006627Y006627D01*
X006650Y006562D01*
X006676Y006498D01*
X006706Y006436D01*
X006740Y006376D01*
X006776Y006317D01*
X006816Y006261D01*
X006859Y006207D01*
X006905Y006155D01*
X006954Y006106D01*
X007005Y006060D01*
X007059Y006017D01*
X007116Y005977D01*
X007174Y005940D01*
X007234Y005907D01*
X007297Y005877D01*
X007360Y005851D01*
X007425Y005828D01*
X007492Y005808D01*
X007559Y005793D01*
X007627Y005781D01*
X007696Y005774D01*
X007765Y005770D01*
X007834Y005769D01*
X007903Y005773D01*
X007971Y005781D01*
X008039Y005792D01*
X008107Y005808D01*
X008173Y005827D01*
X008238Y005849D01*
X008302Y005875D01*
X008364Y005905D01*
X008425Y005939D01*
X008483Y005975D01*
X008540Y006015D01*
X008594Y006058D01*
X008645Y006104D01*
X008694Y006153D01*
X008740Y006204D01*
X008784Y006258D01*
X008776Y006263D01*
X008733Y006209D01*
X008687Y006158D01*
X008637Y006109D01*
X008586Y006063D01*
X008531Y006020D01*
X008474Y005980D01*
X008416Y005944D01*
X008355Y005910D01*
X008292Y005881D01*
X008228Y005855D01*
X008162Y005833D01*
X008095Y005814D01*
X008028Y005799D01*
X007959Y005788D01*
X007890Y005781D01*
X007821Y005778D01*
X007752Y005779D01*
X007682Y005784D01*
X007614Y005792D01*
X007546Y005805D01*
X007478Y005821D01*
X007412Y005842D01*
X007347Y005865D01*
X007283Y005893D01*
X007221Y005924D01*
X007161Y005959D01*
X007103Y005997D01*
X007047Y006038D01*
X006994Y006082D01*
X006943Y006129D01*
X006895Y006179D01*
X006850Y006232D01*
X006808Y006287D01*
X006769Y006344D01*
X006734Y006404D01*
X006702Y006465D01*
X006673Y006528D01*
X006648Y006593D01*
X006627Y006659D01*
X006609Y006726D01*
X006596Y006794D01*
X006586Y006863D01*
X006580Y006932D01*
X006578Y007001D01*
X006580Y007070D01*
X006586Y007139D01*
X006596Y007208D01*
X006609Y007276D01*
X006627Y007343D01*
X006648Y007409D01*
X006673Y007474D01*
X006702Y007537D01*
X006734Y007598D01*
X006769Y007658D01*
X006808Y007715D01*
X006850Y007770D01*
X006895Y007823D01*
X006943Y007873D01*
X006994Y007920D01*
X007047Y007964D01*
X007103Y008005D01*
X007161Y008043D01*
X007221Y008078D01*
X007283Y008109D01*
X007347Y008137D01*
X007412Y008160D01*
X007478Y008181D01*
X007546Y008197D01*
X007614Y008210D01*
X007682Y008218D01*
X007752Y008223D01*
X007821Y008224D01*
X007890Y008221D01*
X007959Y008214D01*
X008028Y008203D01*
X008095Y008188D01*
X008162Y008169D01*
X008228Y008147D01*
X008292Y008121D01*
X008355Y008092D01*
X008416Y008058D01*
X008474Y008022D01*
X008531Y007982D01*
X008586Y007939D01*
X008637Y007893D01*
X008687Y007844D01*
X008733Y007793D01*
X008776Y007739D01*
X008769Y007733D01*
X008726Y007787D01*
X008680Y007838D01*
X008631Y007887D01*
X008580Y007932D01*
X008526Y007975D01*
X008469Y008014D01*
X008411Y008051D01*
X008351Y008084D01*
X008288Y008113D01*
X008225Y008139D01*
X008159Y008161D01*
X008093Y008179D01*
X008026Y008194D01*
X007958Y008205D01*
X007889Y008212D01*
X007821Y008215D01*
X007752Y008214D01*
X007683Y008209D01*
X007615Y008201D01*
X007547Y008188D01*
X007481Y008172D01*
X007415Y008152D01*
X007350Y008128D01*
X007287Y008101D01*
X007226Y008070D01*
X007166Y008036D01*
X007108Y007998D01*
X007053Y007957D01*
X007000Y007913D01*
X006950Y007866D01*
X006902Y007817D01*
X006857Y007765D01*
X006815Y007710D01*
X006777Y007653D01*
X006742Y007594D01*
X006710Y007533D01*
X006681Y007470D01*
X006657Y007406D01*
X006635Y007340D01*
X006618Y007274D01*
X006605Y007206D01*
X006595Y007138D01*
X006589Y007070D01*
X006587Y007001D01*
X006589Y006932D01*
X006595Y006864D01*
X006605Y006796D01*
X006618Y006728D01*
X006635Y006662D01*
X006657Y006596D01*
X006681Y006532D01*
X006710Y006469D01*
X006742Y006408D01*
X006777Y006349D01*
X006815Y006292D01*
X006857Y006237D01*
X006902Y006185D01*
X006950Y006136D01*
X007000Y006089D01*
X007053Y006045D01*
X007108Y006004D01*
X007166Y005966D01*
X007226Y005932D01*
X007287Y005901D01*
X007350Y005874D01*
X007415Y005850D01*
X007481Y005830D01*
X007547Y005814D01*
X007615Y005801D01*
X007683Y005793D01*
X007752Y005788D01*
X007821Y005787D01*
X007889Y005790D01*
X007958Y005797D01*
X008026Y005808D01*
X008093Y005823D01*
X008159Y005841D01*
X008225Y005863D01*
X008288Y005889D01*
X008351Y005918D01*
X008411Y005951D01*
X008469Y005988D01*
X008526Y006027D01*
X008580Y006070D01*
X008631Y006115D01*
X008680Y006164D01*
X008726Y006215D01*
X008769Y006269D01*
X013833Y007781D02*
X013761Y007727D01*
X013762Y007728D02*
X013719Y007781D01*
X013674Y007832D01*
X013625Y007880D01*
X013574Y007925D01*
X013520Y007968D01*
X013464Y008007D01*
X013406Y008043D01*
X013346Y008076D01*
X013285Y008105D01*
X013221Y008130D01*
X013157Y008152D01*
X013091Y008171D01*
X013024Y008185D01*
X012957Y008196D01*
X012889Y008203D01*
X012821Y008206D01*
X012752Y008205D01*
X012684Y008200D01*
X012616Y008192D01*
X012549Y008179D01*
X012483Y008163D01*
X012418Y008143D01*
X012353Y008120D01*
X012291Y008093D01*
X012230Y008062D01*
X012171Y008028D01*
X012113Y007991D01*
X012058Y007950D01*
X012006Y007906D01*
X011956Y007860D01*
X011909Y007811D01*
X011864Y007759D01*
X011823Y007705D01*
X011784Y007648D01*
X011749Y007589D01*
X011718Y007529D01*
X011690Y007467D01*
X011665Y007403D01*
X011644Y007338D01*
X011627Y007272D01*
X011613Y007205D01*
X011604Y007137D01*
X011598Y007069D01*
X011596Y007001D01*
X011598Y006933D01*
X011604Y006865D01*
X011613Y006797D01*
X011627Y006730D01*
X011644Y006664D01*
X011665Y006599D01*
X011690Y006535D01*
X011718Y006473D01*
X011749Y006413D01*
X011784Y006354D01*
X011823Y006297D01*
X011864Y006243D01*
X011909Y006191D01*
X011956Y006142D01*
X012006Y006096D01*
X012058Y006052D01*
X012113Y006011D01*
X012171Y005974D01*
X012230Y005940D01*
X012291Y005909D01*
X012353Y005882D01*
X012418Y005859D01*
X012483Y005839D01*
X012549Y005823D01*
X012616Y005810D01*
X012684Y005802D01*
X012752Y005797D01*
X012821Y005796D01*
X012889Y005799D01*
X012957Y005806D01*
X013024Y005817D01*
X013091Y005831D01*
X013157Y005850D01*
X013221Y005872D01*
X013285Y005897D01*
X013346Y005926D01*
X013406Y005959D01*
X013464Y005995D01*
X013520Y006034D01*
X013574Y006077D01*
X013625Y006122D01*
X013674Y006170D01*
X013719Y006221D01*
X013762Y006274D01*
X013833Y006221D01*
X013834Y006220D01*
X013790Y006165D01*
X013742Y006112D01*
X013692Y006061D01*
X013639Y006014D01*
X013584Y005970D01*
X013526Y005928D01*
X013466Y005890D01*
X013405Y005855D01*
X013341Y005824D01*
X013276Y005796D01*
X013209Y005772D01*
X013141Y005751D01*
X013072Y005735D01*
X013002Y005722D01*
X012932Y005713D01*
X012861Y005707D01*
X012790Y005706D01*
X012719Y005709D01*
X012648Y005715D01*
X012578Y005725D01*
X012509Y005739D01*
X012440Y005757D01*
X012372Y005779D01*
X012306Y005804D01*
X012241Y005833D01*
X012178Y005866D01*
X012117Y005902D01*
X012058Y005941D01*
X012001Y005983D01*
X011946Y006028D01*
X011894Y006077D01*
X011845Y006128D01*
X011798Y006181D01*
X011755Y006238D01*
X011715Y006296D01*
X011678Y006357D01*
X011644Y006419D01*
X011614Y006483D01*
X011587Y006549D01*
X011564Y006616D01*
X011545Y006685D01*
X011530Y006754D01*
X011518Y006824D01*
X011510Y006895D01*
X011506Y006966D01*
X011506Y007036D01*
X011510Y007107D01*
X011518Y007178D01*
X011530Y007248D01*
X011545Y007317D01*
X011564Y007386D01*
X011587Y007453D01*
X011614Y007519D01*
X011644Y007583D01*
X011678Y007645D01*
X011715Y007706D01*
X011755Y007764D01*
X011798Y007821D01*
X011845Y007874D01*
X011894Y007925D01*
X011946Y007974D01*
X012001Y008019D01*
X012058Y008061D01*
X012117Y008100D01*
X012178Y008136D01*
X012241Y008169D01*
X012306Y008198D01*
X012372Y008223D01*
X012440Y008245D01*
X012509Y008263D01*
X012578Y008277D01*
X012648Y008287D01*
X012719Y008293D01*
X012790Y008296D01*
X012861Y008295D01*
X012932Y008289D01*
X013002Y008280D01*
X013072Y008267D01*
X013141Y008251D01*
X013209Y008230D01*
X013276Y008206D01*
X013341Y008178D01*
X013405Y008147D01*
X013466Y008112D01*
X013526Y008074D01*
X013584Y008032D01*
X013639Y007988D01*
X013692Y007941D01*
X013742Y007890D01*
X013790Y007837D01*
X013834Y007782D01*
X013827Y007777D01*
X013782Y007832D01*
X013735Y007885D01*
X013684Y007936D01*
X013631Y007983D01*
X013575Y008028D01*
X013517Y008069D01*
X013457Y008107D01*
X013395Y008142D01*
X013331Y008173D01*
X013265Y008200D01*
X013198Y008224D01*
X013129Y008244D01*
X013060Y008261D01*
X012990Y008273D01*
X012919Y008282D01*
X012848Y008286D01*
X012777Y008287D01*
X012706Y008283D01*
X012635Y008276D01*
X012564Y008265D01*
X012495Y008250D01*
X012426Y008231D01*
X012358Y008208D01*
X012292Y008182D01*
X012227Y008152D01*
X012165Y008118D01*
X012104Y008082D01*
X012045Y008041D01*
X011988Y007998D01*
X011934Y007951D01*
X011883Y007902D01*
X011835Y007849D01*
X011789Y007795D01*
X011747Y007737D01*
X011708Y007678D01*
X011672Y007616D01*
X011639Y007553D01*
X011611Y007488D01*
X011585Y007421D01*
X011564Y007353D01*
X011546Y007284D01*
X011533Y007214D01*
X011523Y007143D01*
X011517Y007072D01*
X011515Y007001D01*
X011517Y006930D01*
X011523Y006859D01*
X011533Y006788D01*
X011546Y006718D01*
X011564Y006649D01*
X011585Y006581D01*
X011611Y006514D01*
X011639Y006449D01*
X011672Y006386D01*
X011708Y006324D01*
X011747Y006265D01*
X011789Y006207D01*
X011835Y006153D01*
X011883Y006100D01*
X011934Y006051D01*
X011988Y006004D01*
X012045Y005961D01*
X012104Y005920D01*
X012165Y005884D01*
X012227Y005850D01*
X012292Y005820D01*
X012358Y005794D01*
X012426Y005771D01*
X012495Y005752D01*
X012564Y005737D01*
X012635Y005726D01*
X012706Y005719D01*
X012777Y005715D01*
X012848Y005716D01*
X012919Y005720D01*
X012990Y005729D01*
X013060Y005741D01*
X013129Y005758D01*
X013198Y005778D01*
X013265Y005802D01*
X013331Y005829D01*
X013395Y005860D01*
X013457Y005895D01*
X013517Y005933D01*
X013575Y005974D01*
X013631Y006019D01*
X013684Y006066D01*
X013735Y006117D01*
X013782Y006170D01*
X013827Y006225D01*
X013820Y006231D01*
X013775Y006176D01*
X013728Y006123D01*
X013678Y006073D01*
X013625Y006026D01*
X013570Y005982D01*
X013512Y005940D01*
X013453Y005903D01*
X013391Y005868D01*
X013327Y005837D01*
X013262Y005810D01*
X013195Y005786D01*
X013127Y005766D01*
X013058Y005750D01*
X012989Y005738D01*
X012918Y005729D01*
X012848Y005725D01*
X012777Y005724D01*
X012706Y005728D01*
X012636Y005735D01*
X012566Y005746D01*
X012497Y005761D01*
X012429Y005780D01*
X012361Y005802D01*
X012296Y005828D01*
X012231Y005858D01*
X012169Y005891D01*
X012109Y005928D01*
X012050Y005968D01*
X011994Y006011D01*
X011940Y006057D01*
X011890Y006107D01*
X011841Y006158D01*
X011796Y006213D01*
X011754Y006270D01*
X011715Y006329D01*
X011680Y006390D01*
X011647Y006453D01*
X011619Y006518D01*
X011594Y006584D01*
X011573Y006652D01*
X011555Y006720D01*
X011542Y006790D01*
X011532Y006860D01*
X011526Y006930D01*
X011524Y007001D01*
X011526Y007072D01*
X011532Y007142D01*
X011542Y007212D01*
X011555Y007282D01*
X011573Y007350D01*
X011594Y007418D01*
X011619Y007484D01*
X011647Y007549D01*
X011680Y007612D01*
X011715Y007673D01*
X011754Y007732D01*
X011796Y007789D01*
X011841Y007844D01*
X011890Y007895D01*
X011940Y007945D01*
X011994Y007991D01*
X012050Y008034D01*
X012109Y008074D01*
X012169Y008111D01*
X012231Y008144D01*
X012296Y008174D01*
X012361Y008200D01*
X012429Y008222D01*
X012497Y008241D01*
X012566Y008256D01*
X012636Y008267D01*
X012706Y008274D01*
X012777Y008278D01*
X012848Y008277D01*
X012918Y008273D01*
X012989Y008264D01*
X013058Y008252D01*
X013127Y008236D01*
X013195Y008216D01*
X013262Y008192D01*
X013327Y008165D01*
X013391Y008134D01*
X013453Y008099D01*
X013512Y008062D01*
X013570Y008020D01*
X013625Y007976D01*
X013678Y007929D01*
X013728Y007879D01*
X013775Y007826D01*
X013820Y007771D01*
X013812Y007766D01*
X013768Y007821D01*
X013720Y007874D01*
X013670Y007924D01*
X013617Y007972D01*
X013561Y008016D01*
X013503Y008057D01*
X013443Y008094D01*
X013381Y008129D01*
X013317Y008159D01*
X013251Y008186D01*
X013184Y008210D01*
X013116Y008229D01*
X013046Y008245D01*
X012976Y008257D01*
X012906Y008265D01*
X012835Y008269D01*
X012764Y008268D01*
X012693Y008264D01*
X012622Y008256D01*
X012552Y008244D01*
X012483Y008228D01*
X012415Y008209D01*
X012347Y008185D01*
X012282Y008158D01*
X012218Y008127D01*
X012156Y008093D01*
X012096Y008055D01*
X012038Y008013D01*
X011982Y007969D01*
X011929Y007922D01*
X011879Y007871D01*
X011832Y007818D01*
X011787Y007763D01*
X011746Y007705D01*
X011709Y007645D01*
X011674Y007582D01*
X011643Y007518D01*
X011616Y007453D01*
X011593Y007386D01*
X011573Y007317D01*
X011557Y007248D01*
X011545Y007178D01*
X011537Y007107D01*
X011533Y007037D01*
X011533Y006965D01*
X011537Y006895D01*
X011545Y006824D01*
X011557Y006754D01*
X011573Y006685D01*
X011593Y006616D01*
X011616Y006549D01*
X011643Y006484D01*
X011674Y006420D01*
X011709Y006357D01*
X011746Y006297D01*
X011787Y006239D01*
X011832Y006184D01*
X011879Y006131D01*
X011929Y006080D01*
X011982Y006033D01*
X012038Y005989D01*
X012096Y005947D01*
X012156Y005909D01*
X012218Y005875D01*
X012282Y005844D01*
X012347Y005817D01*
X012415Y005793D01*
X012483Y005774D01*
X012552Y005758D01*
X012622Y005746D01*
X012693Y005738D01*
X012764Y005734D01*
X012835Y005733D01*
X012906Y005737D01*
X012976Y005745D01*
X013046Y005757D01*
X013116Y005773D01*
X013184Y005792D01*
X013251Y005816D01*
X013317Y005843D01*
X013381Y005873D01*
X013443Y005908D01*
X013503Y005945D01*
X013561Y005986D01*
X013617Y006030D01*
X013670Y006078D01*
X013720Y006128D01*
X013768Y006181D01*
X013812Y006236D01*
X013805Y006242D01*
X013761Y006187D01*
X013714Y006134D01*
X013664Y006084D01*
X013611Y006037D01*
X013556Y005993D01*
X013498Y005953D01*
X013439Y005915D01*
X013377Y005881D01*
X013313Y005851D01*
X013248Y005824D01*
X013181Y005801D01*
X013113Y005781D01*
X013045Y005766D01*
X012975Y005754D01*
X012905Y005746D01*
X012834Y005742D01*
X012764Y005743D01*
X012693Y005747D01*
X012623Y005755D01*
X012554Y005767D01*
X012485Y005782D01*
X012417Y005802D01*
X012351Y005825D01*
X012286Y005852D01*
X012222Y005883D01*
X012160Y005917D01*
X012101Y005955D01*
X012043Y005996D01*
X011988Y006040D01*
X011935Y006087D01*
X011886Y006137D01*
X011839Y006189D01*
X011795Y006245D01*
X011754Y006302D01*
X011716Y006362D01*
X011682Y006424D01*
X011652Y006487D01*
X011625Y006552D01*
X011601Y006619D01*
X011582Y006687D01*
X011566Y006756D01*
X011554Y006825D01*
X011546Y006895D01*
X011542Y006966D01*
X011542Y007036D01*
X011546Y007107D01*
X011554Y007177D01*
X011566Y007246D01*
X011582Y007315D01*
X011601Y007383D01*
X011625Y007450D01*
X011652Y007515D01*
X011682Y007578D01*
X011716Y007640D01*
X011754Y007700D01*
X011795Y007757D01*
X011839Y007813D01*
X011886Y007865D01*
X011935Y007915D01*
X011988Y007962D01*
X012043Y008006D01*
X012101Y008047D01*
X012160Y008085D01*
X012222Y008119D01*
X012286Y008150D01*
X012351Y008177D01*
X012417Y008200D01*
X012485Y008220D01*
X012554Y008235D01*
X012623Y008247D01*
X012693Y008255D01*
X012764Y008259D01*
X012834Y008260D01*
X012905Y008256D01*
X012975Y008248D01*
X013045Y008236D01*
X013113Y008221D01*
X013181Y008201D01*
X013248Y008178D01*
X013313Y008151D01*
X013377Y008121D01*
X013439Y008087D01*
X013498Y008049D01*
X013556Y008009D01*
X013611Y007965D01*
X013664Y007918D01*
X013714Y007868D01*
X013761Y007815D01*
X013805Y007760D01*
X013798Y007755D01*
X013754Y007810D01*
X013707Y007862D01*
X013658Y007911D01*
X013605Y007958D01*
X013551Y008001D01*
X013493Y008042D01*
X013434Y008079D01*
X013373Y008113D01*
X013309Y008143D01*
X013245Y008170D01*
X013178Y008193D01*
X013111Y008212D01*
X013043Y008227D01*
X012974Y008239D01*
X012904Y008247D01*
X012834Y008251D01*
X012764Y008250D01*
X012694Y008246D01*
X012625Y008238D01*
X012556Y008227D01*
X012487Y008211D01*
X012420Y008192D01*
X012354Y008168D01*
X012289Y008141D01*
X012226Y008111D01*
X012165Y008077D01*
X012106Y008040D01*
X012048Y007999D01*
X011994Y007955D01*
X011942Y007909D01*
X011892Y007859D01*
X011845Y007807D01*
X011802Y007752D01*
X011761Y007695D01*
X011724Y007636D01*
X011690Y007574D01*
X011660Y007511D01*
X011633Y007446D01*
X011610Y007380D01*
X011591Y007313D01*
X011575Y007245D01*
X011563Y007176D01*
X011555Y007106D01*
X011551Y007036D01*
X011551Y006966D01*
X011555Y006896D01*
X011563Y006826D01*
X011575Y006757D01*
X011591Y006689D01*
X011610Y006622D01*
X011633Y006556D01*
X011660Y006491D01*
X011690Y006428D01*
X011724Y006366D01*
X011761Y006307D01*
X011802Y006250D01*
X011845Y006195D01*
X011892Y006143D01*
X011942Y006093D01*
X011994Y006047D01*
X012048Y006003D01*
X012106Y005962D01*
X012165Y005925D01*
X012226Y005891D01*
X012289Y005861D01*
X012354Y005834D01*
X012420Y005810D01*
X012487Y005791D01*
X012556Y005775D01*
X012625Y005764D01*
X012694Y005756D01*
X012764Y005752D01*
X012834Y005751D01*
X012904Y005755D01*
X012974Y005763D01*
X013043Y005775D01*
X013111Y005790D01*
X013178Y005809D01*
X013245Y005832D01*
X013309Y005859D01*
X013373Y005889D01*
X013434Y005923D01*
X013493Y005960D01*
X013551Y006001D01*
X013605Y006044D01*
X013658Y006091D01*
X013707Y006140D01*
X013754Y006192D01*
X013798Y006247D01*
X013791Y006252D01*
X013747Y006198D01*
X013701Y006146D01*
X013652Y006097D01*
X013600Y006051D01*
X013545Y006008D01*
X013488Y005968D01*
X013429Y005931D01*
X013368Y005897D01*
X013306Y005867D01*
X013241Y005841D01*
X013176Y005818D01*
X013109Y005799D01*
X013041Y005783D01*
X012972Y005772D01*
X012903Y005764D01*
X012834Y005760D01*
X012764Y005761D01*
X012695Y005765D01*
X012626Y005772D01*
X012557Y005784D01*
X012490Y005800D01*
X012423Y005819D01*
X012357Y005842D01*
X012293Y005869D01*
X012230Y005899D01*
X012169Y005933D01*
X012111Y005970D01*
X012054Y006010D01*
X012000Y006053D01*
X011948Y006100D01*
X011899Y006149D01*
X011852Y006201D01*
X011809Y006255D01*
X011769Y006312D01*
X011732Y006371D01*
X011698Y006432D01*
X011668Y006495D01*
X011641Y006559D01*
X011618Y006624D01*
X011599Y006691D01*
X011584Y006759D01*
X011572Y006828D01*
X011564Y006897D01*
X011560Y006966D01*
X011560Y007036D01*
X011564Y007105D01*
X011572Y007174D01*
X011584Y007243D01*
X011599Y007311D01*
X011618Y007378D01*
X011641Y007443D01*
X011668Y007507D01*
X011698Y007570D01*
X011732Y007631D01*
X011769Y007690D01*
X011809Y007747D01*
X011852Y007801D01*
X011899Y007853D01*
X011948Y007902D01*
X012000Y007949D01*
X012054Y007992D01*
X012111Y008032D01*
X012169Y008069D01*
X012230Y008103D01*
X012293Y008133D01*
X012357Y008160D01*
X012423Y008183D01*
X012490Y008202D01*
X012557Y008218D01*
X012626Y008230D01*
X012695Y008237D01*
X012764Y008241D01*
X012834Y008242D01*
X012903Y008238D01*
X012972Y008230D01*
X013041Y008219D01*
X013109Y008203D01*
X013176Y008184D01*
X013241Y008161D01*
X013306Y008135D01*
X013368Y008105D01*
X013429Y008071D01*
X013488Y008034D01*
X013545Y007994D01*
X013600Y007951D01*
X013652Y007905D01*
X013701Y007856D01*
X013747Y007804D01*
X013791Y007750D01*
X013784Y007744D01*
X013740Y007798D01*
X013694Y007849D01*
X013645Y007898D01*
X013594Y007944D01*
X013540Y007987D01*
X013483Y008027D01*
X013425Y008063D01*
X013364Y008097D01*
X013302Y008127D01*
X013238Y008153D01*
X013173Y008175D01*
X013107Y008194D01*
X013039Y008210D01*
X012971Y008221D01*
X012903Y008229D01*
X012834Y008233D01*
X012765Y008232D01*
X012696Y008228D01*
X012627Y008221D01*
X012559Y008209D01*
X012492Y008194D01*
X012425Y008174D01*
X012360Y008151D01*
X012297Y008125D01*
X012234Y008095D01*
X012174Y008062D01*
X012116Y008025D01*
X012059Y007985D01*
X012005Y007942D01*
X011954Y007896D01*
X011905Y007847D01*
X011859Y007795D01*
X011816Y007741D01*
X011776Y007685D01*
X011740Y007626D01*
X011706Y007566D01*
X011676Y007504D01*
X011650Y007440D01*
X011627Y007375D01*
X011608Y007308D01*
X011593Y007241D01*
X011581Y007173D01*
X011573Y007104D01*
X011569Y007036D01*
X011569Y006966D01*
X011573Y006898D01*
X011581Y006829D01*
X011593Y006761D01*
X011608Y006694D01*
X011627Y006627D01*
X011650Y006562D01*
X011676Y006498D01*
X011706Y006436D01*
X011740Y006376D01*
X011776Y006317D01*
X011816Y006261D01*
X011859Y006207D01*
X011905Y006155D01*
X011954Y006106D01*
X012005Y006060D01*
X012059Y006017D01*
X012116Y005977D01*
X012174Y005940D01*
X012234Y005907D01*
X012297Y005877D01*
X012360Y005851D01*
X012425Y005828D01*
X012492Y005808D01*
X012559Y005793D01*
X012627Y005781D01*
X012696Y005774D01*
X012765Y005770D01*
X012834Y005769D01*
X012903Y005773D01*
X012971Y005781D01*
X013039Y005792D01*
X013107Y005808D01*
X013173Y005827D01*
X013238Y005849D01*
X013302Y005875D01*
X013364Y005905D01*
X013425Y005939D01*
X013483Y005975D01*
X013540Y006015D01*
X013594Y006058D01*
X013645Y006104D01*
X013694Y006153D01*
X013740Y006204D01*
X013784Y006258D01*
X013776Y006263D01*
X013733Y006209D01*
X013687Y006158D01*
X013637Y006109D01*
X013586Y006063D01*
X013531Y006020D01*
X013474Y005980D01*
X013416Y005944D01*
X013355Y005910D01*
X013292Y005881D01*
X013228Y005855D01*
X013162Y005833D01*
X013095Y005814D01*
X013028Y005799D01*
X012959Y005788D01*
X012890Y005781D01*
X012821Y005778D01*
X012752Y005779D01*
X012682Y005784D01*
X012614Y005792D01*
X012546Y005805D01*
X012478Y005821D01*
X012412Y005842D01*
X012347Y005865D01*
X012283Y005893D01*
X012221Y005924D01*
X012161Y005959D01*
X012103Y005997D01*
X012047Y006038D01*
X011994Y006082D01*
X011943Y006129D01*
X011895Y006179D01*
X011850Y006232D01*
X011808Y006287D01*
X011769Y006344D01*
X011734Y006404D01*
X011702Y006465D01*
X011673Y006528D01*
X011648Y006593D01*
X011627Y006659D01*
X011609Y006726D01*
X011596Y006794D01*
X011586Y006863D01*
X011580Y006932D01*
X011578Y007001D01*
X011580Y007070D01*
X011586Y007139D01*
X011596Y007208D01*
X011609Y007276D01*
X011627Y007343D01*
X011648Y007409D01*
X011673Y007474D01*
X011702Y007537D01*
X011734Y007598D01*
X011769Y007658D01*
X011808Y007715D01*
X011850Y007770D01*
X011895Y007823D01*
X011943Y007873D01*
X011994Y007920D01*
X012047Y007964D01*
X012103Y008005D01*
X012161Y008043D01*
X012221Y008078D01*
X012283Y008109D01*
X012347Y008137D01*
X012412Y008160D01*
X012478Y008181D01*
X012546Y008197D01*
X012614Y008210D01*
X012682Y008218D01*
X012752Y008223D01*
X012821Y008224D01*
X012890Y008221D01*
X012959Y008214D01*
X013028Y008203D01*
X013095Y008188D01*
X013162Y008169D01*
X013228Y008147D01*
X013292Y008121D01*
X013355Y008092D01*
X013416Y008058D01*
X013474Y008022D01*
X013531Y007982D01*
X013586Y007939D01*
X013637Y007893D01*
X013687Y007844D01*
X013733Y007793D01*
X013776Y007739D01*
X013769Y007733D01*
X013726Y007787D01*
X013680Y007838D01*
X013631Y007887D01*
X013580Y007932D01*
X013526Y007975D01*
X013469Y008014D01*
X013411Y008051D01*
X013351Y008084D01*
X013288Y008113D01*
X013225Y008139D01*
X013159Y008161D01*
X013093Y008179D01*
X013026Y008194D01*
X012958Y008205D01*
X012889Y008212D01*
X012821Y008215D01*
X012752Y008214D01*
X012683Y008209D01*
X012615Y008201D01*
X012547Y008188D01*
X012481Y008172D01*
X012415Y008152D01*
X012350Y008128D01*
X012287Y008101D01*
X012226Y008070D01*
X012166Y008036D01*
X012108Y007998D01*
X012053Y007957D01*
X012000Y007913D01*
X011950Y007866D01*
X011902Y007817D01*
X011857Y007765D01*
X011815Y007710D01*
X011777Y007653D01*
X011742Y007594D01*
X011710Y007533D01*
X011681Y007470D01*
X011657Y007406D01*
X011635Y007340D01*
X011618Y007274D01*
X011605Y007206D01*
X011595Y007138D01*
X011589Y007070D01*
X011587Y007001D01*
X011589Y006932D01*
X011595Y006864D01*
X011605Y006796D01*
X011618Y006728D01*
X011635Y006662D01*
X011657Y006596D01*
X011681Y006532D01*
X011710Y006469D01*
X011742Y006408D01*
X011777Y006349D01*
X011815Y006292D01*
X011857Y006237D01*
X011902Y006185D01*
X011950Y006136D01*
X012000Y006089D01*
X012053Y006045D01*
X012108Y006004D01*
X012166Y005966D01*
X012226Y005932D01*
X012287Y005901D01*
X012350Y005874D01*
X012415Y005850D01*
X012481Y005830D01*
X012547Y005814D01*
X012615Y005801D01*
X012683Y005793D01*
X012752Y005788D01*
X012821Y005787D01*
X012889Y005790D01*
X012958Y005797D01*
X013026Y005808D01*
X013093Y005823D01*
X013159Y005841D01*
X013225Y005863D01*
X013288Y005889D01*
X013351Y005918D01*
X013411Y005951D01*
X013469Y005988D01*
X013526Y006027D01*
X013580Y006070D01*
X013631Y006115D01*
X013680Y006164D01*
X013726Y006215D01*
X013769Y006269D01*
X018833Y007781D02*
X018761Y007727D01*
X018762Y007728D02*
X018719Y007781D01*
X018674Y007832D01*
X018625Y007880D01*
X018574Y007925D01*
X018520Y007968D01*
X018464Y008007D01*
X018406Y008043D01*
X018346Y008076D01*
X018285Y008105D01*
X018221Y008130D01*
X018157Y008152D01*
X018091Y008171D01*
X018024Y008185D01*
X017957Y008196D01*
X017889Y008203D01*
X017821Y008206D01*
X017752Y008205D01*
X017684Y008200D01*
X017616Y008192D01*
X017549Y008179D01*
X017483Y008163D01*
X017418Y008143D01*
X017353Y008120D01*
X017291Y008093D01*
X017230Y008062D01*
X017171Y008028D01*
X017113Y007991D01*
X017058Y007950D01*
X017006Y007906D01*
X016956Y007860D01*
X016909Y007811D01*
X016864Y007759D01*
X016823Y007705D01*
X016784Y007648D01*
X016749Y007589D01*
X016718Y007529D01*
X016690Y007467D01*
X016665Y007403D01*
X016644Y007338D01*
X016627Y007272D01*
X016613Y007205D01*
X016604Y007137D01*
X016598Y007069D01*
X016596Y007001D01*
X016598Y006933D01*
X016604Y006865D01*
X016613Y006797D01*
X016627Y006730D01*
X016644Y006664D01*
X016665Y006599D01*
X016690Y006535D01*
X016718Y006473D01*
X016749Y006413D01*
X016784Y006354D01*
X016823Y006297D01*
X016864Y006243D01*
X016909Y006191D01*
X016956Y006142D01*
X017006Y006096D01*
X017058Y006052D01*
X017113Y006011D01*
X017171Y005974D01*
X017230Y005940D01*
X017291Y005909D01*
X017353Y005882D01*
X017418Y005859D01*
X017483Y005839D01*
X017549Y005823D01*
X017616Y005810D01*
X017684Y005802D01*
X017752Y005797D01*
X017821Y005796D01*
X017889Y005799D01*
X017957Y005806D01*
X018024Y005817D01*
X018091Y005831D01*
X018157Y005850D01*
X018221Y005872D01*
X018285Y005897D01*
X018346Y005926D01*
X018406Y005959D01*
X018464Y005995D01*
X018520Y006034D01*
X018574Y006077D01*
X018625Y006122D01*
X018674Y006170D01*
X018719Y006221D01*
X018762Y006274D01*
X018833Y006221D01*
X018834Y006220D01*
X018790Y006165D01*
X018742Y006112D01*
X018692Y006061D01*
X018639Y006014D01*
X018584Y005970D01*
X018526Y005928D01*
X018466Y005890D01*
X018405Y005855D01*
X018341Y005824D01*
X018276Y005796D01*
X018209Y005772D01*
X018141Y005751D01*
X018072Y005735D01*
X018002Y005722D01*
X017932Y005713D01*
X017861Y005707D01*
X017790Y005706D01*
X017719Y005709D01*
X017648Y005715D01*
X017578Y005725D01*
X017509Y005739D01*
X017440Y005757D01*
X017372Y005779D01*
X017306Y005804D01*
X017241Y005833D01*
X017178Y005866D01*
X017117Y005902D01*
X017058Y005941D01*
X017001Y005983D01*
X016946Y006028D01*
X016894Y006077D01*
X016845Y006128D01*
X016798Y006181D01*
X016755Y006238D01*
X016715Y006296D01*
X016678Y006357D01*
X016644Y006419D01*
X016614Y006483D01*
X016587Y006549D01*
X016564Y006616D01*
X016545Y006685D01*
X016530Y006754D01*
X016518Y006824D01*
X016510Y006895D01*
X016506Y006966D01*
X016506Y007036D01*
X016510Y007107D01*
X016518Y007178D01*
X016530Y007248D01*
X016545Y007317D01*
X016564Y007386D01*
X016587Y007453D01*
X016614Y007519D01*
X016644Y007583D01*
X016678Y007645D01*
X016715Y007706D01*
X016755Y007764D01*
X016798Y007821D01*
X016845Y007874D01*
X016894Y007925D01*
X016946Y007974D01*
X017001Y008019D01*
X017058Y008061D01*
X017117Y008100D01*
X017178Y008136D01*
X017241Y008169D01*
X017306Y008198D01*
X017372Y008223D01*
X017440Y008245D01*
X017509Y008263D01*
X017578Y008277D01*
X017648Y008287D01*
X017719Y008293D01*
X017790Y008296D01*
X017861Y008295D01*
X017932Y008289D01*
X018002Y008280D01*
X018072Y008267D01*
X018141Y008251D01*
X018209Y008230D01*
X018276Y008206D01*
X018341Y008178D01*
X018405Y008147D01*
X018466Y008112D01*
X018526Y008074D01*
X018584Y008032D01*
X018639Y007988D01*
X018692Y007941D01*
X018742Y007890D01*
X018790Y007837D01*
X018834Y007782D01*
X018827Y007777D01*
X018782Y007832D01*
X018735Y007885D01*
X018684Y007936D01*
X018631Y007983D01*
X018575Y008028D01*
X018517Y008069D01*
X018457Y008107D01*
X018395Y008142D01*
X018331Y008173D01*
X018265Y008200D01*
X018198Y008224D01*
X018129Y008244D01*
X018060Y008261D01*
X017990Y008273D01*
X017919Y008282D01*
X017848Y008286D01*
X017777Y008287D01*
X017706Y008283D01*
X017635Y008276D01*
X017564Y008265D01*
X017495Y008250D01*
X017426Y008231D01*
X017358Y008208D01*
X017292Y008182D01*
X017227Y008152D01*
X017165Y008118D01*
X017104Y008082D01*
X017045Y008041D01*
X016988Y007998D01*
X016934Y007951D01*
X016883Y007902D01*
X016835Y007849D01*
X016789Y007795D01*
X016747Y007737D01*
X016708Y007678D01*
X016672Y007616D01*
X016639Y007553D01*
X016611Y007488D01*
X016585Y007421D01*
X016564Y007353D01*
X016546Y007284D01*
X016533Y007214D01*
X016523Y007143D01*
X016517Y007072D01*
X016515Y007001D01*
X016517Y006930D01*
X016523Y006859D01*
X016533Y006788D01*
X016546Y006718D01*
X016564Y006649D01*
X016585Y006581D01*
X016611Y006514D01*
X016639Y006449D01*
X016672Y006386D01*
X016708Y006324D01*
X016747Y006265D01*
X016789Y006207D01*
X016835Y006153D01*
X016883Y006100D01*
X016934Y006051D01*
X016988Y006004D01*
X017045Y005961D01*
X017104Y005920D01*
X017165Y005884D01*
X017227Y005850D01*
X017292Y005820D01*
X017358Y005794D01*
X017426Y005771D01*
X017495Y005752D01*
X017564Y005737D01*
X017635Y005726D01*
X017706Y005719D01*
X017777Y005715D01*
X017848Y005716D01*
X017919Y005720D01*
X017990Y005729D01*
X018060Y005741D01*
X018129Y005758D01*
X018198Y005778D01*
X018265Y005802D01*
X018331Y005829D01*
X018395Y005860D01*
X018457Y005895D01*
X018517Y005933D01*
X018575Y005974D01*
X018631Y006019D01*
X018684Y006066D01*
X018735Y006117D01*
X018782Y006170D01*
X018827Y006225D01*
X018820Y006231D01*
X018775Y006176D01*
X018728Y006123D01*
X018678Y006073D01*
X018625Y006026D01*
X018570Y005982D01*
X018512Y005940D01*
X018453Y005903D01*
X018391Y005868D01*
X018327Y005837D01*
X018262Y005810D01*
X018195Y005786D01*
X018127Y005766D01*
X018058Y005750D01*
X017989Y005738D01*
X017918Y005729D01*
X017848Y005725D01*
X017777Y005724D01*
X017706Y005728D01*
X017636Y005735D01*
X017566Y005746D01*
X017497Y005761D01*
X017429Y005780D01*
X017361Y005802D01*
X017296Y005828D01*
X017231Y005858D01*
X017169Y005891D01*
X017109Y005928D01*
X017050Y005968D01*
X016994Y006011D01*
X016940Y006057D01*
X016890Y006107D01*
X016841Y006158D01*
X016796Y006213D01*
X016754Y006270D01*
X016715Y006329D01*
X016680Y006390D01*
X016647Y006453D01*
X016619Y006518D01*
X016594Y006584D01*
X016573Y006652D01*
X016555Y006720D01*
X016542Y006790D01*
X016532Y006860D01*
X016526Y006930D01*
X016524Y007001D01*
X016526Y007072D01*
X016532Y007142D01*
X016542Y007212D01*
X016555Y007282D01*
X016573Y007350D01*
X016594Y007418D01*
X016619Y007484D01*
X016647Y007549D01*
X016680Y007612D01*
X016715Y007673D01*
X016754Y007732D01*
X016796Y007789D01*
X016841Y007844D01*
X016890Y007895D01*
X016940Y007945D01*
X016994Y007991D01*
X017050Y008034D01*
X017109Y008074D01*
X017169Y008111D01*
X017231Y008144D01*
X017296Y008174D01*
X017361Y008200D01*
X017429Y008222D01*
X017497Y008241D01*
X017566Y008256D01*
X017636Y008267D01*
X017706Y008274D01*
X017777Y008278D01*
X017848Y008277D01*
X017918Y008273D01*
X017989Y008264D01*
X018058Y008252D01*
X018127Y008236D01*
X018195Y008216D01*
X018262Y008192D01*
X018327Y008165D01*
X018391Y008134D01*
X018453Y008099D01*
X018512Y008062D01*
X018570Y008020D01*
X018625Y007976D01*
X018678Y007929D01*
X018728Y007879D01*
X018775Y007826D01*
X018820Y007771D01*
X018812Y007766D01*
X018768Y007821D01*
X018720Y007874D01*
X018670Y007924D01*
X018617Y007972D01*
X018561Y008016D01*
X018503Y008057D01*
X018443Y008094D01*
X018381Y008129D01*
X018317Y008159D01*
X018251Y008186D01*
X018184Y008210D01*
X018116Y008229D01*
X018046Y008245D01*
X017976Y008257D01*
X017906Y008265D01*
X017835Y008269D01*
X017764Y008268D01*
X017693Y008264D01*
X017622Y008256D01*
X017552Y008244D01*
X017483Y008228D01*
X017415Y008209D01*
X017347Y008185D01*
X017282Y008158D01*
X017218Y008127D01*
X017156Y008093D01*
X017096Y008055D01*
X017038Y008013D01*
X016982Y007969D01*
X016929Y007922D01*
X016879Y007871D01*
X016832Y007818D01*
X016787Y007763D01*
X016746Y007705D01*
X016709Y007645D01*
X016674Y007582D01*
X016643Y007518D01*
X016616Y007453D01*
X016593Y007386D01*
X016573Y007317D01*
X016557Y007248D01*
X016545Y007178D01*
X016537Y007107D01*
X016533Y007037D01*
X016533Y006965D01*
X016537Y006895D01*
X016545Y006824D01*
X016557Y006754D01*
X016573Y006685D01*
X016593Y006616D01*
X016616Y006549D01*
X016643Y006484D01*
X016674Y006420D01*
X016709Y006357D01*
X016746Y006297D01*
X016787Y006239D01*
X016832Y006184D01*
X016879Y006131D01*
X016929Y006080D01*
X016982Y006033D01*
X017038Y005989D01*
X017096Y005947D01*
X017156Y005909D01*
X017218Y005875D01*
X017282Y005844D01*
X017347Y005817D01*
X017415Y005793D01*
X017483Y005774D01*
X017552Y005758D01*
X017622Y005746D01*
X017693Y005738D01*
X017764Y005734D01*
X017835Y005733D01*
X017906Y005737D01*
X017976Y005745D01*
X018046Y005757D01*
X018116Y005773D01*
X018184Y005792D01*
X018251Y005816D01*
X018317Y005843D01*
X018381Y005873D01*
X018443Y005908D01*
X018503Y005945D01*
X018561Y005986D01*
X018617Y006030D01*
X018670Y006078D01*
X018720Y006128D01*
X018768Y006181D01*
X018812Y006236D01*
X018805Y006242D01*
X018761Y006187D01*
X018714Y006134D01*
X018664Y006084D01*
X018611Y006037D01*
X018556Y005993D01*
X018498Y005953D01*
X018439Y005915D01*
X018377Y005881D01*
X018313Y005851D01*
X018248Y005824D01*
X018181Y005801D01*
X018113Y005781D01*
X018045Y005766D01*
X017975Y005754D01*
X017905Y005746D01*
X017834Y005742D01*
X017764Y005743D01*
X017693Y005747D01*
X017623Y005755D01*
X017554Y005767D01*
X017485Y005782D01*
X017417Y005802D01*
X017351Y005825D01*
X017286Y005852D01*
X017222Y005883D01*
X017160Y005917D01*
X017101Y005955D01*
X017043Y005996D01*
X016988Y006040D01*
X016935Y006087D01*
X016886Y006137D01*
X016839Y006189D01*
X016795Y006245D01*
X016754Y006302D01*
X016716Y006362D01*
X016682Y006424D01*
X016652Y006487D01*
X016625Y006552D01*
X016601Y006619D01*
X016582Y006687D01*
X016566Y006756D01*
X016554Y006825D01*
X016546Y006895D01*
X016542Y006966D01*
X016542Y007036D01*
X016546Y007107D01*
X016554Y007177D01*
X016566Y007246D01*
X016582Y007315D01*
X016601Y007383D01*
X016625Y007450D01*
X016652Y007515D01*
X016682Y007578D01*
X016716Y007640D01*
X016754Y007700D01*
X016795Y007757D01*
X016839Y007813D01*
X016886Y007865D01*
X016935Y007915D01*
X016988Y007962D01*
X017043Y008006D01*
X017101Y008047D01*
X017160Y008085D01*
X017222Y008119D01*
X017286Y008150D01*
X017351Y008177D01*
X017417Y008200D01*
X017485Y008220D01*
X017554Y008235D01*
X017623Y008247D01*
X017693Y008255D01*
X017764Y008259D01*
X017834Y008260D01*
X017905Y008256D01*
X017975Y008248D01*
X018045Y008236D01*
X018113Y008221D01*
X018181Y008201D01*
X018248Y008178D01*
X018313Y008151D01*
X018377Y008121D01*
X018439Y008087D01*
X018498Y008049D01*
X018556Y008009D01*
X018611Y007965D01*
X018664Y007918D01*
X018714Y007868D01*
X018761Y007815D01*
X018805Y007760D01*
X018798Y007755D01*
X018754Y007810D01*
X018707Y007862D01*
X018658Y007911D01*
X018605Y007958D01*
X018551Y008001D01*
X018493Y008042D01*
X018434Y008079D01*
X018373Y008113D01*
X018309Y008143D01*
X018245Y008170D01*
X018178Y008193D01*
X018111Y008212D01*
X018043Y008227D01*
X017974Y008239D01*
X017904Y008247D01*
X017834Y008251D01*
X017764Y008250D01*
X017694Y008246D01*
X017625Y008238D01*
X017556Y008227D01*
X017487Y008211D01*
X017420Y008192D01*
X017354Y008168D01*
X017289Y008141D01*
X017226Y008111D01*
X017165Y008077D01*
X017106Y008040D01*
X017048Y007999D01*
X016994Y007955D01*
X016942Y007909D01*
X016892Y007859D01*
X016845Y007807D01*
X016802Y007752D01*
X016761Y007695D01*
X016724Y007636D01*
X016690Y007574D01*
X016660Y007511D01*
X016633Y007446D01*
X016610Y007380D01*
X016591Y007313D01*
X016575Y007245D01*
X016563Y007176D01*
X016555Y007106D01*
X016551Y007036D01*
X016551Y006966D01*
X016555Y006896D01*
X016563Y006826D01*
X016575Y006757D01*
X016591Y006689D01*
X016610Y006622D01*
X016633Y006556D01*
X016660Y006491D01*
X016690Y006428D01*
X016724Y006366D01*
X016761Y006307D01*
X016802Y006250D01*
X016845Y006195D01*
X016892Y006143D01*
X016942Y006093D01*
X016994Y006047D01*
X017048Y006003D01*
X017106Y005962D01*
X017165Y005925D01*
X017226Y005891D01*
X017289Y005861D01*
X017354Y005834D01*
X017420Y005810D01*
X017487Y005791D01*
X017556Y005775D01*
X017625Y005764D01*
X017694Y005756D01*
X017764Y005752D01*
X017834Y005751D01*
X017904Y005755D01*
X017974Y005763D01*
X018043Y005775D01*
X018111Y005790D01*
X018178Y005809D01*
X018245Y005832D01*
X018309Y005859D01*
X018373Y005889D01*
X018434Y005923D01*
X018493Y005960D01*
X018551Y006001D01*
X018605Y006044D01*
X018658Y006091D01*
X018707Y006140D01*
X018754Y006192D01*
X018798Y006247D01*
X018791Y006252D01*
X018747Y006198D01*
X018701Y006146D01*
X018652Y006097D01*
X018600Y006051D01*
X018545Y006008D01*
X018488Y005968D01*
X018429Y005931D01*
X018368Y005897D01*
X018306Y005867D01*
X018241Y005841D01*
X018176Y005818D01*
X018109Y005799D01*
X018041Y005783D01*
X017972Y005772D01*
X017903Y005764D01*
X017834Y005760D01*
X017764Y005761D01*
X017695Y005765D01*
X017626Y005772D01*
X017557Y005784D01*
X017490Y005800D01*
X017423Y005819D01*
X017357Y005842D01*
X017293Y005869D01*
X017230Y005899D01*
X017169Y005933D01*
X017111Y005970D01*
X017054Y006010D01*
X017000Y006053D01*
X016948Y006100D01*
X016899Y006149D01*
X016852Y006201D01*
X016809Y006255D01*
X016769Y006312D01*
X016732Y006371D01*
X016698Y006432D01*
X016668Y006495D01*
X016641Y006559D01*
X016618Y006624D01*
X016599Y006691D01*
X016584Y006759D01*
X016572Y006828D01*
X016564Y006897D01*
X016560Y006966D01*
X016560Y007036D01*
X016564Y007105D01*
X016572Y007174D01*
X016584Y007243D01*
X016599Y007311D01*
X016618Y007378D01*
X016641Y007443D01*
X016668Y007507D01*
X016698Y007570D01*
X016732Y007631D01*
X016769Y007690D01*
X016809Y007747D01*
X016852Y007801D01*
X016899Y007853D01*
X016948Y007902D01*
X017000Y007949D01*
X017054Y007992D01*
X017111Y008032D01*
X017169Y008069D01*
X017230Y008103D01*
X017293Y008133D01*
X017357Y008160D01*
X017423Y008183D01*
X017490Y008202D01*
X017557Y008218D01*
X017626Y008230D01*
X017695Y008237D01*
X017764Y008241D01*
X017834Y008242D01*
X017903Y008238D01*
X017972Y008230D01*
X018041Y008219D01*
X018109Y008203D01*
X018176Y008184D01*
X018241Y008161D01*
X018306Y008135D01*
X018368Y008105D01*
X018429Y008071D01*
X018488Y008034D01*
X018545Y007994D01*
X018600Y007951D01*
X018652Y007905D01*
X018701Y007856D01*
X018747Y007804D01*
X018791Y007750D01*
X018784Y007744D01*
X018740Y007798D01*
X018694Y007849D01*
X018645Y007898D01*
X018594Y007944D01*
X018540Y007987D01*
X018483Y008027D01*
X018425Y008063D01*
X018364Y008097D01*
X018302Y008127D01*
X018238Y008153D01*
X018173Y008175D01*
X018107Y008194D01*
X018039Y008210D01*
X017971Y008221D01*
X017903Y008229D01*
X017834Y008233D01*
X017765Y008232D01*
X017696Y008228D01*
X017627Y008221D01*
X017559Y008209D01*
X017492Y008194D01*
X017425Y008174D01*
X017360Y008151D01*
X017297Y008125D01*
X017234Y008095D01*
X017174Y008062D01*
X017116Y008025D01*
X017059Y007985D01*
X017005Y007942D01*
X016954Y007896D01*
X016905Y007847D01*
X016859Y007795D01*
X016816Y007741D01*
X016776Y007685D01*
X016740Y007626D01*
X016706Y007566D01*
X016676Y007504D01*
X016650Y007440D01*
X016627Y007375D01*
X016608Y007308D01*
X016593Y007241D01*
X016581Y007173D01*
X016573Y007104D01*
X016569Y007036D01*
X016569Y006966D01*
X016573Y006898D01*
X016581Y006829D01*
X016593Y006761D01*
X016608Y006694D01*
X016627Y006627D01*
X016650Y006562D01*
X016676Y006498D01*
X016706Y006436D01*
X016740Y006376D01*
X016776Y006317D01*
X016816Y006261D01*
X016859Y006207D01*
X016905Y006155D01*
X016954Y006106D01*
X017005Y006060D01*
X017059Y006017D01*
X017116Y005977D01*
X017174Y005940D01*
X017234Y005907D01*
X017297Y005877D01*
X017360Y005851D01*
X017425Y005828D01*
X017492Y005808D01*
X017559Y005793D01*
X017627Y005781D01*
X017696Y005774D01*
X017765Y005770D01*
X017834Y005769D01*
X017903Y005773D01*
X017971Y005781D01*
X018039Y005792D01*
X018107Y005808D01*
X018173Y005827D01*
X018238Y005849D01*
X018302Y005875D01*
X018364Y005905D01*
X018425Y005939D01*
X018483Y005975D01*
X018540Y006015D01*
X018594Y006058D01*
X018645Y006104D01*
X018694Y006153D01*
X018740Y006204D01*
X018784Y006258D01*
X018776Y006263D01*
X018733Y006209D01*
X018687Y006158D01*
X018637Y006109D01*
X018586Y006063D01*
X018531Y006020D01*
X018474Y005980D01*
X018416Y005944D01*
X018355Y005910D01*
X018292Y005881D01*
X018228Y005855D01*
X018162Y005833D01*
X018095Y005814D01*
X018028Y005799D01*
X017959Y005788D01*
X017890Y005781D01*
X017821Y005778D01*
X017752Y005779D01*
X017682Y005784D01*
X017614Y005792D01*
X017546Y005805D01*
X017478Y005821D01*
X017412Y005842D01*
X017347Y005865D01*
X017283Y005893D01*
X017221Y005924D01*
X017161Y005959D01*
X017103Y005997D01*
X017047Y006038D01*
X016994Y006082D01*
X016943Y006129D01*
X016895Y006179D01*
X016850Y006232D01*
X016808Y006287D01*
X016769Y006344D01*
X016734Y006404D01*
X016702Y006465D01*
X016673Y006528D01*
X016648Y006593D01*
X016627Y006659D01*
X016609Y006726D01*
X016596Y006794D01*
X016586Y006863D01*
X016580Y006932D01*
X016578Y007001D01*
X016580Y007070D01*
X016586Y007139D01*
X016596Y007208D01*
X016609Y007276D01*
X016627Y007343D01*
X016648Y007409D01*
X016673Y007474D01*
X016702Y007537D01*
X016734Y007598D01*
X016769Y007658D01*
X016808Y007715D01*
X016850Y007770D01*
X016895Y007823D01*
X016943Y007873D01*
X016994Y007920D01*
X017047Y007964D01*
X017103Y008005D01*
X017161Y008043D01*
X017221Y008078D01*
X017283Y008109D01*
X017347Y008137D01*
X017412Y008160D01*
X017478Y008181D01*
X017546Y008197D01*
X017614Y008210D01*
X017682Y008218D01*
X017752Y008223D01*
X017821Y008224D01*
X017890Y008221D01*
X017959Y008214D01*
X018028Y008203D01*
X018095Y008188D01*
X018162Y008169D01*
X018228Y008147D01*
X018292Y008121D01*
X018355Y008092D01*
X018416Y008058D01*
X018474Y008022D01*
X018531Y007982D01*
X018586Y007939D01*
X018637Y007893D01*
X018687Y007844D01*
X018733Y007793D01*
X018776Y007739D01*
X018769Y007733D01*
X018726Y007787D01*
X018680Y007838D01*
X018631Y007887D01*
X018580Y007932D01*
X018526Y007975D01*
X018469Y008014D01*
X018411Y008051D01*
X018351Y008084D01*
X018288Y008113D01*
X018225Y008139D01*
X018159Y008161D01*
X018093Y008179D01*
X018026Y008194D01*
X017958Y008205D01*
X017889Y008212D01*
X017821Y008215D01*
X017752Y008214D01*
X017683Y008209D01*
X017615Y008201D01*
X017547Y008188D01*
X017481Y008172D01*
X017415Y008152D01*
X017350Y008128D01*
X017287Y008101D01*
X017226Y008070D01*
X017166Y008036D01*
X017108Y007998D01*
X017053Y007957D01*
X017000Y007913D01*
X016950Y007866D01*
X016902Y007817D01*
X016857Y007765D01*
X016815Y007710D01*
X016777Y007653D01*
X016742Y007594D01*
X016710Y007533D01*
X016681Y007470D01*
X016657Y007406D01*
X016635Y007340D01*
X016618Y007274D01*
X016605Y007206D01*
X016595Y007138D01*
X016589Y007070D01*
X016587Y007001D01*
X016589Y006932D01*
X016595Y006864D01*
X016605Y006796D01*
X016618Y006728D01*
X016635Y006662D01*
X016657Y006596D01*
X016681Y006532D01*
X016710Y006469D01*
X016742Y006408D01*
X016777Y006349D01*
X016815Y006292D01*
X016857Y006237D01*
X016902Y006185D01*
X016950Y006136D01*
X017000Y006089D01*
X017053Y006045D01*
X017108Y006004D01*
X017166Y005966D01*
X017226Y005932D01*
X017287Y005901D01*
X017350Y005874D01*
X017415Y005850D01*
X017481Y005830D01*
X017547Y005814D01*
X017615Y005801D01*
X017683Y005793D01*
X017752Y005788D01*
X017821Y005787D01*
X017889Y005790D01*
X017958Y005797D01*
X018026Y005808D01*
X018093Y005823D01*
X018159Y005841D01*
X018225Y005863D01*
X018288Y005889D01*
X018351Y005918D01*
X018411Y005951D01*
X018469Y005988D01*
X018526Y006027D01*
X018580Y006070D01*
X018631Y006115D01*
X018680Y006164D01*
X018726Y006215D01*
X018769Y006269D01*
D17*
X018620Y004481D02*
X018620Y004201D01*
X018713Y004201D02*
X018526Y004201D01*
X018526Y004388D02*
X018620Y004481D01*
X016963Y004434D02*
X016963Y004388D01*
X016776Y004201D01*
X016963Y004201D01*
X016963Y004434D02*
X016916Y004481D01*
X016823Y004481D01*
X016776Y004434D01*
X013713Y004201D02*
X013526Y004201D01*
X013620Y004201D02*
X013620Y004481D01*
X013526Y004388D01*
X011963Y004388D02*
X011963Y004434D01*
X011916Y004481D01*
X011823Y004481D01*
X011776Y004434D01*
X011963Y004388D02*
X011776Y004201D01*
X011963Y004201D01*
X008713Y004201D02*
X008526Y004201D01*
X008620Y004201D02*
X008620Y004481D01*
X008526Y004388D01*
X006963Y004388D02*
X006963Y004434D01*
X006916Y004481D01*
X006823Y004481D01*
X006776Y004434D01*
X006963Y004388D02*
X006776Y004201D01*
X006963Y004201D01*
X003713Y004201D02*
X003526Y004201D01*
X003620Y004201D02*
X003620Y004481D01*
X003526Y004388D01*
X001963Y004388D02*
X001963Y004434D01*
X001916Y004481D01*
X001823Y004481D01*
X001776Y004434D01*
X001963Y004388D02*
X001776Y004201D01*
X001963Y004201D01*
X001963Y016201D02*
X001776Y016201D01*
X001963Y016388D01*
X001963Y016434D01*
X001916Y016481D01*
X001823Y016481D01*
X001776Y016434D01*
X003526Y016388D02*
X003620Y016481D01*
X003620Y016201D01*
X003713Y016201D02*
X003526Y016201D01*
X006776Y016201D02*
X006963Y016388D01*
X006963Y016434D01*
X006916Y016481D01*
X006823Y016481D01*
X006776Y016434D01*
X006776Y016201D02*
X006963Y016201D01*
X008526Y016201D02*
X008713Y016201D01*
X008620Y016201D02*
X008620Y016481D01*
X008526Y016388D01*
X011776Y016434D02*
X011823Y016481D01*
X011916Y016481D01*
X011963Y016434D01*
X011963Y016388D01*
X011776Y016201D01*
X011963Y016201D01*
X013526Y016201D02*
X013713Y016201D01*
X013620Y016201D02*
X013620Y016481D01*
X013526Y016388D01*
X016776Y016434D02*
X016823Y016481D01*
X016916Y016481D01*
X016963Y016434D01*
X016963Y016388D01*
X016776Y016201D01*
X016963Y016201D01*
X018526Y016201D02*
X018713Y016201D01*
X018620Y016201D02*
X018620Y016481D01*
X018526Y016388D01*
D18*
X019801Y012851D03*
X014801Y012851D03*
X009801Y012851D03*
X004801Y012851D03*
X009801Y007651D03*
X014801Y007651D03*
X019801Y007651D03*
X004701Y007551D03*
D19*
X004701Y007871D02*
X004701Y007901D01*
X004701Y005931D02*
X004701Y005901D01*
X009801Y006001D02*
X009801Y006031D01*
X009801Y007971D02*
X009801Y008001D01*
X014801Y008001D02*
X014801Y007971D01*
X014801Y006031D02*
X014801Y006001D01*
X019801Y006001D02*
X019801Y006031D01*
X019801Y007971D02*
X019801Y008001D01*
X019801Y012501D02*
X019801Y012531D01*
X019801Y014471D02*
X019801Y014501D01*
X014801Y014501D02*
X014801Y014471D01*
X014801Y012531D02*
X014801Y012501D01*
X009801Y012501D02*
X009801Y012531D01*
X009801Y014471D02*
X009801Y014501D01*
X004801Y014501D02*
X004801Y014471D01*
X004801Y012531D02*
X004801Y012501D01*
M02*
