G75*
G70*
%OFA0B0*%
%FSLAX24Y24*%
%IPPOS*%
%LPD*%
%AMOC8*
5,1,8,0,0,1.08239X$1,22.5*
%
%ADD10R,0.0476X0.0476*%
%ADD11C,0.0476*%
%ADD12OC8,0.0476*%
%ADD13C,0.0100*%
D10*
X001181Y001101D03*
X000681Y004601D03*
X000681Y005601D03*
X005681Y005101D03*
X007681Y008101D03*
X007181Y010601D03*
X004681Y013601D03*
X006681Y014101D03*
X009181Y014101D03*
X013681Y013101D03*
X002681Y017101D03*
X001181Y013601D03*
D11*
X003681Y017101D03*
X004681Y017101D03*
X006681Y017101D03*
X004681Y014601D03*
X007681Y014101D03*
X010181Y014101D03*
X009681Y017101D03*
X006181Y010601D03*
X006681Y008101D03*
X008681Y005101D03*
X008681Y004101D03*
X008681Y003101D03*
X008681Y002101D03*
X005681Y002101D03*
X005681Y003101D03*
X005681Y004101D03*
D12*
X002181Y001101D03*
X000681Y003601D03*
X001181Y012601D03*
X001181Y014601D03*
X013681Y014101D03*
D13*
X013681Y013101D02*
X011641Y013061D01*
X010661Y013061D01*
X010241Y014141D01*
X010181Y014101D01*
X009181Y014101D02*
X009121Y014061D01*
X009121Y010621D01*
X007201Y010621D01*
X007181Y010601D01*
X006241Y010621D02*
X006181Y010601D01*
X006241Y010621D02*
X006241Y017101D01*
X006681Y017101D01*
X007121Y017501D02*
X007121Y013821D01*
X006961Y013661D01*
X006721Y013661D01*
X006721Y008141D01*
X006681Y008101D01*
X006641Y008061D01*
X006641Y004141D01*
X005681Y004141D01*
X005681Y004101D01*
X008261Y003541D02*
X008661Y003141D01*
X008681Y003101D01*
X008261Y003541D02*
X001781Y003541D01*
X000741Y004581D01*
X000681Y004601D01*
X000681Y005601D02*
X000741Y005621D01*
X001181Y013601D02*
X002721Y013581D01*
X004641Y013581D01*
X004681Y013601D01*
X002721Y017101D02*
X002681Y017101D01*
X002721Y017101D02*
X003121Y017501D01*
X007121Y017501D01*
X009281Y017501D01*
X009681Y017101D01*
M02*
