G75*
G70*
%OFA0B0*%
%FSLAX24Y24*%
%IPPOS*%
%LPD*%
%AMOC8*
5,1,8,0,0,1.08239X$1,22.5*
%
%ADD10C,0.0080*%
%ADD11C,0.0110*%
%ADD12C,0.0060*%
%ADD13C,0.0050*%
%ADD14C,0.0030*%
D10*
X001021Y000551D02*
X001302Y000551D01*
X001162Y000691D02*
X001162Y000411D01*
X002021Y000551D02*
X002302Y000551D01*
X001332Y003341D02*
X001191Y003341D01*
X001121Y003411D01*
X001191Y003551D02*
X001332Y003551D01*
X001402Y003481D01*
X001402Y003411D01*
X001332Y003341D01*
X001191Y003551D02*
X001121Y003621D01*
X001121Y003691D01*
X001191Y003761D01*
X001332Y003761D01*
X001402Y003691D01*
X001332Y004341D02*
X001191Y004341D01*
X001121Y004411D01*
X001121Y004691D01*
X001191Y004761D01*
X001332Y004761D01*
X001402Y004691D01*
X001402Y004411D02*
X001332Y004341D01*
X001121Y005401D02*
X001121Y005821D01*
X001332Y005821D01*
X001402Y005751D01*
X001402Y005611D01*
X001332Y005541D01*
X001121Y005541D01*
X005091Y010220D02*
X005021Y010290D01*
X005021Y010430D01*
X005091Y010500D01*
X005231Y010680D02*
X005231Y010961D01*
X005441Y010891D02*
X005021Y010891D01*
X005231Y010680D01*
X005371Y010500D02*
X005441Y010430D01*
X005441Y010290D01*
X005371Y010220D01*
X005091Y010220D01*
X005062Y012441D02*
X004782Y012441D01*
X004922Y012441D02*
X004922Y012861D01*
X004782Y012721D01*
X004602Y012791D02*
X004532Y012861D01*
X004391Y012861D01*
X004321Y012791D01*
X004321Y012511D01*
X004391Y012441D01*
X004532Y012441D01*
X004602Y012511D01*
X006821Y012511D02*
X006891Y012441D01*
X007032Y012441D01*
X007102Y012511D01*
X007282Y012441D02*
X007562Y012721D01*
X007562Y012791D01*
X007492Y012861D01*
X007352Y012861D01*
X007282Y012791D01*
X007102Y012791D02*
X007032Y012861D01*
X006891Y012861D01*
X006821Y012791D01*
X006821Y012511D01*
X007282Y012441D02*
X007562Y012441D01*
X009321Y012511D02*
X009391Y012441D01*
X009532Y012441D01*
X009602Y012511D01*
X009782Y012511D02*
X009852Y012441D01*
X009992Y012441D01*
X010062Y012511D01*
X010062Y012651D01*
X009992Y012721D01*
X009922Y012721D01*
X009782Y012651D01*
X009782Y012861D01*
X010062Y012861D01*
X009602Y012791D02*
X009532Y012861D01*
X009391Y012861D01*
X009321Y012791D01*
X009321Y012511D01*
X008562Y016141D02*
X008282Y016141D01*
X008422Y016141D02*
X008422Y016561D01*
X008282Y016421D01*
X008102Y016491D02*
X008102Y016351D01*
X008032Y016281D01*
X007821Y016281D01*
X007821Y016141D02*
X007821Y016561D01*
X008032Y016561D01*
X008102Y016491D01*
X007962Y016281D02*
X008102Y016141D01*
X004541Y016141D02*
X004261Y016141D01*
X004401Y016141D02*
X004401Y016561D01*
X004261Y016421D01*
X004081Y016561D02*
X003801Y016561D01*
X003941Y016561D02*
X003941Y016141D01*
X003620Y016211D02*
X003620Y016491D01*
X003550Y016561D01*
X003410Y016561D01*
X003340Y016491D01*
X003340Y016211D01*
X003410Y016141D01*
X003550Y016141D01*
X003620Y016211D01*
X003160Y016351D02*
X003090Y016281D01*
X002880Y016281D01*
X002880Y016141D02*
X002880Y016561D01*
X003090Y016561D01*
X003160Y016491D01*
X003160Y016351D01*
X001932Y014761D02*
X001791Y014761D01*
X001721Y014691D01*
X001721Y014621D01*
X001791Y014551D01*
X001932Y014551D01*
X002002Y014481D01*
X002002Y014411D01*
X001932Y014341D01*
X001791Y014341D01*
X001721Y014411D01*
X002002Y014691D02*
X001932Y014761D01*
X002002Y013761D02*
X001721Y013761D01*
X001862Y013761D02*
X001862Y013341D01*
X001932Y012861D02*
X001721Y012861D01*
X001721Y012441D01*
X001721Y012581D02*
X001932Y012581D01*
X002002Y012651D01*
X002002Y012791D01*
X001932Y012861D01*
X001862Y012581D02*
X002002Y012441D01*
X000741Y013341D02*
X000741Y013481D01*
X000741Y013411D02*
X000321Y013411D01*
X000321Y013341D02*
X000321Y013481D01*
X000321Y013648D02*
X000741Y013928D01*
X000321Y013928D01*
X000321Y013648D02*
X000741Y013648D01*
X006891Y006661D02*
X006821Y006591D01*
X006821Y006311D01*
X006891Y006241D01*
X007032Y006241D01*
X007102Y006311D01*
X007282Y006311D02*
X007352Y006241D01*
X007492Y006241D01*
X007562Y006311D01*
X007562Y006381D01*
X007492Y006451D01*
X007422Y006451D01*
X007492Y006451D02*
X007562Y006521D01*
X007562Y006591D01*
X007492Y006661D01*
X007352Y006661D01*
X007282Y006591D01*
X007102Y006591D02*
X007032Y006661D01*
X006891Y006661D01*
X007441Y004088D02*
X007441Y003808D01*
X007441Y003948D02*
X007021Y003948D01*
X007161Y003808D01*
X007091Y003628D02*
X007021Y003558D01*
X007021Y003418D01*
X007091Y003348D01*
X007371Y003348D01*
X007441Y003418D01*
X007441Y003558D01*
X007371Y003628D01*
X007441Y003181D02*
X007441Y003041D01*
X007441Y003111D02*
X007021Y003111D01*
X007021Y003041D02*
X007021Y003181D01*
X014291Y013041D02*
X014221Y013111D01*
X014221Y013251D01*
X014291Y013321D01*
X014571Y013321D01*
X014641Y013251D01*
X014641Y013111D01*
X014571Y013041D01*
X014291Y013041D01*
X014221Y013501D02*
X014571Y013501D01*
X014641Y013571D01*
X014641Y013711D01*
X014571Y013781D01*
X014221Y013781D01*
X014221Y013961D02*
X014221Y014242D01*
X014221Y014102D02*
X014641Y014102D01*
D11*
X013593Y010211D02*
X013593Y010103D01*
X013810Y009886D01*
X014026Y009886D02*
X013593Y009886D01*
X013701Y009620D02*
X013810Y009620D01*
X013810Y009186D01*
X013918Y009186D02*
X013701Y009186D01*
X013593Y009295D01*
X013593Y009512D01*
X013701Y009620D01*
X014026Y009512D02*
X014026Y009295D01*
X013918Y009186D01*
X014026Y008937D02*
X014026Y008720D01*
X014026Y008828D02*
X013593Y008828D01*
X013593Y008720D01*
X013376Y008828D02*
X013267Y008828D01*
X013376Y008470D02*
X013484Y008362D01*
X014026Y008362D01*
X013701Y008253D02*
X013701Y008470D01*
X014026Y008004D02*
X014026Y007787D01*
X014026Y007895D02*
X013593Y007895D01*
X013593Y007787D01*
X013376Y007895D02*
X013267Y007895D01*
X013376Y007429D02*
X014026Y007429D01*
X014026Y007537D02*
X014026Y007320D01*
X013918Y007054D02*
X013701Y007054D01*
X013593Y006946D01*
X013593Y006621D01*
X014243Y006621D01*
X014026Y006621D02*
X014026Y006946D01*
X013918Y007054D01*
X013376Y007320D02*
X013376Y007429D01*
X012626Y007296D02*
X012410Y006971D01*
X012193Y007296D01*
X011976Y006971D02*
X012626Y006971D01*
X012410Y006704D02*
X012410Y006271D01*
X012518Y006271D02*
X012626Y006379D01*
X012626Y006596D01*
X012410Y006704D02*
X012301Y006704D01*
X012193Y006596D01*
X012193Y006379D01*
X012301Y006271D01*
X012518Y006271D01*
X012626Y006021D02*
X012518Y005913D01*
X012084Y005913D01*
X012193Y006021D02*
X012193Y005804D01*
X012301Y005538D02*
X012193Y005430D01*
X012193Y005213D01*
X012301Y005104D01*
X012518Y005104D01*
X012626Y005213D01*
X012626Y005430D01*
X012518Y005538D01*
X012301Y005538D01*
X012193Y004847D02*
X012193Y004738D01*
X012410Y004521D01*
X012626Y004521D02*
X012193Y004521D01*
X012301Y004255D02*
X012626Y004255D01*
X012301Y004255D02*
X012193Y004147D01*
X012193Y003930D01*
X012301Y003822D01*
X012193Y003572D02*
X012193Y003355D01*
X012084Y003464D02*
X012518Y003464D01*
X012626Y003572D01*
X012626Y003822D02*
X011976Y003822D01*
X012301Y003089D02*
X012626Y003089D01*
X012301Y003089D02*
X012193Y002981D01*
X012193Y002655D01*
X012626Y002655D01*
X012626Y002389D02*
X012626Y002064D01*
X012518Y001956D01*
X012193Y001956D01*
X012084Y001689D02*
X011976Y001581D01*
X011976Y001364D01*
X012084Y001256D01*
X012193Y001256D01*
X012301Y001364D01*
X012301Y001581D01*
X012410Y001689D01*
X012518Y001689D01*
X012626Y001581D01*
X012626Y001364D01*
X012518Y001256D01*
X013376Y001473D02*
X013593Y001689D01*
X014026Y001689D01*
X013918Y001956D02*
X014026Y002064D01*
X014026Y002389D01*
X013593Y002389D01*
X013701Y002655D02*
X013593Y002764D01*
X013593Y003089D01*
X013376Y003089D02*
X014026Y003089D01*
X014026Y002764D01*
X013918Y002655D01*
X013701Y002655D01*
X013593Y001956D02*
X013918Y001956D01*
X013701Y001689D02*
X013701Y001256D01*
X013593Y001256D02*
X013376Y001473D01*
X013593Y001256D02*
X014026Y001256D01*
X012843Y002172D02*
X012843Y002281D01*
X012735Y002389D01*
X012193Y002389D01*
X013267Y003464D02*
X013376Y003464D01*
X013593Y003464D02*
X013593Y003355D01*
X013593Y003464D02*
X014026Y003464D01*
X014026Y003572D02*
X014026Y003355D01*
X013918Y003822D02*
X013701Y003822D01*
X013593Y003930D01*
X013593Y004147D01*
X013701Y004255D01*
X013918Y004255D01*
X014026Y004147D01*
X014026Y003930D01*
X013918Y003822D01*
X014026Y005221D02*
X013593Y005221D01*
X013376Y005438D01*
X013593Y005655D01*
X014026Y005655D01*
X014026Y005921D02*
X013593Y005921D01*
X013593Y006029D01*
X013701Y006138D01*
X013593Y006246D01*
X013701Y006355D01*
X014026Y006355D01*
X014026Y006138D02*
X013701Y006138D01*
X013701Y005655D02*
X013701Y005221D01*
D12*
X008331Y005601D02*
X008331Y001601D01*
X006031Y001601D01*
X006031Y005601D01*
X006781Y005601D01*
X006783Y005562D01*
X006789Y005523D01*
X006798Y005485D01*
X006811Y005448D01*
X006828Y005412D01*
X006848Y005379D01*
X006872Y005347D01*
X006898Y005318D01*
X006927Y005292D01*
X006959Y005268D01*
X006992Y005248D01*
X007028Y005231D01*
X007065Y005218D01*
X007103Y005209D01*
X007142Y005203D01*
X007181Y005201D01*
X007220Y005203D01*
X007259Y005209D01*
X007297Y005218D01*
X007334Y005231D01*
X007370Y005248D01*
X007403Y005268D01*
X007435Y005292D01*
X007464Y005318D01*
X007490Y005347D01*
X007514Y005379D01*
X007534Y005412D01*
X007551Y005448D01*
X007564Y005485D01*
X007573Y005523D01*
X007579Y005562D01*
X007581Y005601D01*
X008331Y005601D01*
X007631Y007441D02*
X007631Y007691D01*
X007501Y007561D02*
X007761Y007561D01*
X005941Y008101D02*
X005943Y008171D01*
X005949Y008241D01*
X005959Y008311D01*
X005973Y008379D01*
X005990Y008447D01*
X006012Y008514D01*
X006037Y008580D01*
X006066Y008644D01*
X006098Y008706D01*
X006134Y008766D01*
X006174Y008824D01*
X006216Y008880D01*
X006262Y008933D01*
X006310Y008984D01*
X006362Y009032D01*
X006416Y009077D01*
X006472Y009118D01*
X006531Y009157D01*
X006592Y009192D01*
X006654Y009224D01*
X006719Y009252D01*
X006784Y009276D01*
X006852Y009296D01*
X006920Y009313D01*
X006989Y009326D01*
X007058Y009335D01*
X007128Y009340D01*
X007199Y009341D01*
X007269Y009338D01*
X007339Y009331D01*
X007408Y009320D01*
X007476Y009305D01*
X007544Y009287D01*
X007611Y009264D01*
X007676Y009238D01*
X007739Y009208D01*
X007801Y009175D01*
X007861Y009138D01*
X007918Y009098D01*
X007974Y009055D01*
X008026Y009008D01*
X008076Y008959D01*
X008123Y008907D01*
X008167Y008852D01*
X008208Y008795D01*
X008246Y008736D01*
X008280Y008675D01*
X008311Y008612D01*
X008338Y008547D01*
X008361Y008481D01*
X008381Y008413D01*
X008397Y008345D01*
X008409Y008276D01*
X008417Y008206D01*
X008421Y008136D01*
X008421Y008066D01*
X008417Y007996D01*
X008409Y007926D01*
X008397Y007857D01*
X008381Y007789D01*
X008361Y007721D01*
X008338Y007655D01*
X008311Y007590D01*
X008280Y007527D01*
X008246Y007466D01*
X008208Y007407D01*
X008167Y007350D01*
X008123Y007295D01*
X008076Y007243D01*
X008026Y007194D01*
X007974Y007147D01*
X007918Y007104D01*
X007861Y007064D01*
X007801Y007027D01*
X007739Y006994D01*
X007676Y006964D01*
X007611Y006938D01*
X007544Y006915D01*
X007476Y006897D01*
X007408Y006882D01*
X007339Y006871D01*
X007269Y006864D01*
X007199Y006861D01*
X007128Y006862D01*
X007058Y006867D01*
X006989Y006876D01*
X006920Y006889D01*
X006852Y006906D01*
X006784Y006926D01*
X006719Y006950D01*
X006654Y006978D01*
X006592Y007010D01*
X006531Y007045D01*
X006472Y007084D01*
X006416Y007125D01*
X006362Y007170D01*
X006310Y007218D01*
X006262Y007269D01*
X006216Y007322D01*
X006174Y007378D01*
X006134Y007436D01*
X006098Y007496D01*
X006066Y007558D01*
X006037Y007622D01*
X006012Y007688D01*
X005990Y007755D01*
X005973Y007823D01*
X005959Y007891D01*
X005949Y007961D01*
X005943Y008031D01*
X005941Y008101D01*
X007131Y009941D02*
X007131Y010191D01*
X007001Y010061D02*
X007261Y010061D01*
X005697Y010601D02*
X005699Y010663D01*
X005705Y010726D01*
X005715Y010787D01*
X005729Y010848D01*
X005746Y010908D01*
X005767Y010967D01*
X005793Y011024D01*
X005821Y011079D01*
X005853Y011133D01*
X005889Y011184D01*
X005927Y011234D01*
X005969Y011280D01*
X006013Y011324D01*
X006061Y011365D01*
X006110Y011403D01*
X006162Y011437D01*
X006216Y011468D01*
X006272Y011496D01*
X006330Y011520D01*
X006389Y011541D01*
X006449Y011557D01*
X006510Y011570D01*
X006572Y011579D01*
X006634Y011584D01*
X006697Y011585D01*
X006759Y011582D01*
X006821Y011575D01*
X006883Y011564D01*
X006943Y011549D01*
X007003Y011531D01*
X007061Y011509D01*
X007118Y011483D01*
X007173Y011453D01*
X007226Y011420D01*
X007277Y011384D01*
X007325Y011345D01*
X007371Y011302D01*
X007414Y011257D01*
X007454Y011209D01*
X007491Y011159D01*
X007525Y011106D01*
X007556Y011052D01*
X007582Y010996D01*
X007606Y010938D01*
X007625Y010878D01*
X007641Y010818D01*
X007653Y010756D01*
X007661Y010695D01*
X007665Y010632D01*
X007665Y010570D01*
X007661Y010507D01*
X007653Y010446D01*
X007641Y010384D01*
X007625Y010324D01*
X007606Y010264D01*
X007582Y010206D01*
X007556Y010150D01*
X007525Y010096D01*
X007491Y010043D01*
X007454Y009993D01*
X007414Y009945D01*
X007371Y009900D01*
X007325Y009857D01*
X007277Y009818D01*
X007226Y009782D01*
X007173Y009749D01*
X007118Y009719D01*
X007061Y009693D01*
X007003Y009671D01*
X006943Y009653D01*
X006883Y009638D01*
X006821Y009627D01*
X006759Y009620D01*
X006697Y009617D01*
X006634Y009618D01*
X006572Y009623D01*
X006510Y009632D01*
X006449Y009645D01*
X006389Y009661D01*
X006330Y009682D01*
X006272Y009706D01*
X006216Y009734D01*
X006162Y009765D01*
X006110Y009799D01*
X006061Y009837D01*
X006013Y009878D01*
X005969Y009922D01*
X005927Y009968D01*
X005889Y010018D01*
X005853Y010069D01*
X005821Y010123D01*
X005793Y010178D01*
X005767Y010235D01*
X005746Y010294D01*
X005729Y010354D01*
X005715Y010415D01*
X005705Y010476D01*
X005699Y010539D01*
X005697Y010601D01*
X004141Y013521D02*
X004141Y013781D01*
X004021Y013651D02*
X004271Y013651D01*
X003697Y014101D02*
X003699Y014163D01*
X003705Y014226D01*
X003715Y014287D01*
X003729Y014348D01*
X003746Y014408D01*
X003767Y014467D01*
X003793Y014524D01*
X003821Y014579D01*
X003853Y014633D01*
X003889Y014684D01*
X003927Y014734D01*
X003969Y014780D01*
X004013Y014824D01*
X004061Y014865D01*
X004110Y014903D01*
X004162Y014937D01*
X004216Y014968D01*
X004272Y014996D01*
X004330Y015020D01*
X004389Y015041D01*
X004449Y015057D01*
X004510Y015070D01*
X004572Y015079D01*
X004634Y015084D01*
X004697Y015085D01*
X004759Y015082D01*
X004821Y015075D01*
X004883Y015064D01*
X004943Y015049D01*
X005003Y015031D01*
X005061Y015009D01*
X005118Y014983D01*
X005173Y014953D01*
X005226Y014920D01*
X005277Y014884D01*
X005325Y014845D01*
X005371Y014802D01*
X005414Y014757D01*
X005454Y014709D01*
X005491Y014659D01*
X005525Y014606D01*
X005556Y014552D01*
X005582Y014496D01*
X005606Y014438D01*
X005625Y014378D01*
X005641Y014318D01*
X005653Y014256D01*
X005661Y014195D01*
X005665Y014132D01*
X005665Y014070D01*
X005661Y014007D01*
X005653Y013946D01*
X005641Y013884D01*
X005625Y013824D01*
X005606Y013764D01*
X005582Y013706D01*
X005556Y013650D01*
X005525Y013596D01*
X005491Y013543D01*
X005454Y013493D01*
X005414Y013445D01*
X005371Y013400D01*
X005325Y013357D01*
X005277Y013318D01*
X005226Y013282D01*
X005173Y013249D01*
X005118Y013219D01*
X005061Y013193D01*
X005003Y013171D01*
X004943Y013153D01*
X004883Y013138D01*
X004821Y013127D01*
X004759Y013120D01*
X004697Y013117D01*
X004634Y013118D01*
X004572Y013123D01*
X004510Y013132D01*
X004449Y013145D01*
X004389Y013161D01*
X004330Y013182D01*
X004272Y013206D01*
X004216Y013234D01*
X004162Y013265D01*
X004110Y013299D01*
X004061Y013337D01*
X004013Y013378D01*
X003969Y013422D01*
X003927Y013468D01*
X003889Y013518D01*
X003853Y013569D01*
X003821Y013623D01*
X003793Y013678D01*
X003767Y013735D01*
X003746Y013794D01*
X003729Y013854D01*
X003715Y013915D01*
X003705Y013976D01*
X003699Y014039D01*
X003697Y014101D01*
X006601Y014641D02*
X006861Y014641D01*
X006731Y014761D02*
X006731Y014511D01*
X006197Y014101D02*
X006199Y014163D01*
X006205Y014226D01*
X006215Y014287D01*
X006229Y014348D01*
X006246Y014408D01*
X006267Y014467D01*
X006293Y014524D01*
X006321Y014579D01*
X006353Y014633D01*
X006389Y014684D01*
X006427Y014734D01*
X006469Y014780D01*
X006513Y014824D01*
X006561Y014865D01*
X006610Y014903D01*
X006662Y014937D01*
X006716Y014968D01*
X006772Y014996D01*
X006830Y015020D01*
X006889Y015041D01*
X006949Y015057D01*
X007010Y015070D01*
X007072Y015079D01*
X007134Y015084D01*
X007197Y015085D01*
X007259Y015082D01*
X007321Y015075D01*
X007383Y015064D01*
X007443Y015049D01*
X007503Y015031D01*
X007561Y015009D01*
X007618Y014983D01*
X007673Y014953D01*
X007726Y014920D01*
X007777Y014884D01*
X007825Y014845D01*
X007871Y014802D01*
X007914Y014757D01*
X007954Y014709D01*
X007991Y014659D01*
X008025Y014606D01*
X008056Y014552D01*
X008082Y014496D01*
X008106Y014438D01*
X008125Y014378D01*
X008141Y014318D01*
X008153Y014256D01*
X008161Y014195D01*
X008165Y014132D01*
X008165Y014070D01*
X008161Y014007D01*
X008153Y013946D01*
X008141Y013884D01*
X008125Y013824D01*
X008106Y013764D01*
X008082Y013706D01*
X008056Y013650D01*
X008025Y013596D01*
X007991Y013543D01*
X007954Y013493D01*
X007914Y013445D01*
X007871Y013400D01*
X007825Y013357D01*
X007777Y013318D01*
X007726Y013282D01*
X007673Y013249D01*
X007618Y013219D01*
X007561Y013193D01*
X007503Y013171D01*
X007443Y013153D01*
X007383Y013138D01*
X007321Y013127D01*
X007259Y013120D01*
X007197Y013117D01*
X007134Y013118D01*
X007072Y013123D01*
X007010Y013132D01*
X006949Y013145D01*
X006889Y013161D01*
X006830Y013182D01*
X006772Y013206D01*
X006716Y013234D01*
X006662Y013265D01*
X006610Y013299D01*
X006561Y013337D01*
X006513Y013378D01*
X006469Y013422D01*
X006427Y013468D01*
X006389Y013518D01*
X006353Y013569D01*
X006321Y013623D01*
X006293Y013678D01*
X006267Y013735D01*
X006246Y013794D01*
X006229Y013854D01*
X006215Y013915D01*
X006205Y013976D01*
X006199Y014039D01*
X006197Y014101D01*
X007175Y016701D02*
X007575Y016701D01*
X007625Y016751D01*
X008738Y016751D01*
X008788Y016701D01*
X009188Y016701D01*
X009205Y016703D01*
X009222Y016707D01*
X009238Y016714D01*
X009252Y016724D01*
X009265Y016737D01*
X009275Y016751D01*
X009282Y016767D01*
X009286Y016784D01*
X009288Y016801D01*
X009288Y017401D01*
X009286Y017418D01*
X009282Y017435D01*
X009275Y017451D01*
X009265Y017465D01*
X009252Y017478D01*
X009238Y017488D01*
X009222Y017495D01*
X009205Y017499D01*
X009188Y017501D01*
X008788Y017501D01*
X008738Y017451D01*
X007625Y017451D01*
X007575Y017501D01*
X007175Y017501D01*
X007158Y017499D01*
X007141Y017495D01*
X007125Y017488D01*
X007111Y017478D01*
X007098Y017465D01*
X007088Y017451D01*
X007081Y017435D01*
X007077Y017418D01*
X007075Y017401D01*
X007075Y016801D01*
X007077Y016784D01*
X007081Y016767D01*
X007088Y016751D01*
X007098Y016737D01*
X007111Y016724D01*
X007125Y016714D01*
X007141Y016707D01*
X007158Y016703D01*
X007175Y016701D01*
X009101Y014641D02*
X009361Y014641D01*
X009231Y014761D02*
X009231Y014511D01*
X008697Y014101D02*
X008699Y014163D01*
X008705Y014226D01*
X008715Y014287D01*
X008729Y014348D01*
X008746Y014408D01*
X008767Y014467D01*
X008793Y014524D01*
X008821Y014579D01*
X008853Y014633D01*
X008889Y014684D01*
X008927Y014734D01*
X008969Y014780D01*
X009013Y014824D01*
X009061Y014865D01*
X009110Y014903D01*
X009162Y014937D01*
X009216Y014968D01*
X009272Y014996D01*
X009330Y015020D01*
X009389Y015041D01*
X009449Y015057D01*
X009510Y015070D01*
X009572Y015079D01*
X009634Y015084D01*
X009697Y015085D01*
X009759Y015082D01*
X009821Y015075D01*
X009883Y015064D01*
X009943Y015049D01*
X010003Y015031D01*
X010061Y015009D01*
X010118Y014983D01*
X010173Y014953D01*
X010226Y014920D01*
X010277Y014884D01*
X010325Y014845D01*
X010371Y014802D01*
X010414Y014757D01*
X010454Y014709D01*
X010491Y014659D01*
X010525Y014606D01*
X010556Y014552D01*
X010582Y014496D01*
X010606Y014438D01*
X010625Y014378D01*
X010641Y014318D01*
X010653Y014256D01*
X010661Y014195D01*
X010665Y014132D01*
X010665Y014070D01*
X010661Y014007D01*
X010653Y013946D01*
X010641Y013884D01*
X010625Y013824D01*
X010606Y013764D01*
X010582Y013706D01*
X010556Y013650D01*
X010525Y013596D01*
X010491Y013543D01*
X010454Y013493D01*
X010414Y013445D01*
X010371Y013400D01*
X010325Y013357D01*
X010277Y013318D01*
X010226Y013282D01*
X010173Y013249D01*
X010118Y013219D01*
X010061Y013193D01*
X010003Y013171D01*
X009943Y013153D01*
X009883Y013138D01*
X009821Y013127D01*
X009759Y013120D01*
X009697Y013117D01*
X009634Y013118D01*
X009572Y013123D01*
X009510Y013132D01*
X009449Y013145D01*
X009389Y013161D01*
X009330Y013182D01*
X009272Y013206D01*
X009216Y013234D01*
X009162Y013265D01*
X009110Y013299D01*
X009061Y013337D01*
X009013Y013378D01*
X008969Y013422D01*
X008927Y013468D01*
X008889Y013518D01*
X008853Y013569D01*
X008821Y013623D01*
X008793Y013678D01*
X008767Y013735D01*
X008746Y013794D01*
X008729Y013854D01*
X008715Y013915D01*
X008705Y013976D01*
X008699Y014039D01*
X008697Y014101D01*
X002151Y005494D02*
X002038Y005324D01*
X001925Y005494D01*
X001811Y005324D02*
X002151Y005324D01*
X002151Y005182D02*
X002151Y005012D01*
X002095Y004956D01*
X001981Y004956D01*
X001925Y005012D01*
X001925Y005182D01*
X001981Y004814D02*
X002151Y004814D01*
X002151Y004644D01*
X002095Y004587D01*
X002038Y004644D01*
X002038Y004814D01*
X001981Y004814D02*
X001925Y004757D01*
X001925Y004644D01*
X001811Y004446D02*
X001811Y004332D01*
X001811Y004389D02*
X002095Y004389D01*
X002151Y004332D01*
X002151Y004276D01*
X002095Y004219D01*
X002095Y003709D02*
X002151Y003652D01*
X002151Y003539D01*
X002095Y003482D01*
X001868Y003482D01*
X001811Y003539D01*
X001811Y003652D01*
X001868Y003709D01*
X001868Y003341D02*
X001811Y003284D01*
X001811Y003114D01*
X002151Y003114D01*
X002151Y003284D01*
X002095Y003341D01*
X001868Y003341D01*
D13*
X001925Y001751D02*
X001925Y001571D01*
X001970Y001526D01*
X002121Y001571D02*
X002121Y001751D01*
X002076Y001706D02*
X002166Y001706D01*
X002272Y001661D02*
X002272Y001571D01*
X002317Y001526D01*
X002408Y001526D01*
X002453Y001616D02*
X002272Y001616D01*
X002272Y001661D02*
X002317Y001706D01*
X002408Y001706D01*
X002453Y001661D01*
X002453Y001616D01*
X002567Y001616D02*
X002657Y001706D01*
X002702Y001706D01*
X002813Y001706D02*
X002813Y001571D01*
X002858Y001526D01*
X002993Y001526D01*
X002993Y001481D02*
X002948Y001436D01*
X002903Y001436D01*
X002993Y001481D02*
X002993Y001706D01*
X002567Y001706D02*
X002567Y001526D01*
X002166Y001526D02*
X002121Y001571D01*
X001970Y001706D02*
X001880Y001706D01*
X001765Y001661D02*
X001765Y001526D01*
X001630Y001526D01*
X001585Y001571D01*
X001630Y001616D01*
X001765Y001616D01*
X001765Y001661D02*
X001720Y001706D01*
X001630Y001706D01*
X001470Y001706D02*
X001425Y001661D01*
X001290Y001661D01*
X001290Y001796D02*
X001425Y001796D01*
X001470Y001751D01*
X001470Y001706D01*
X001425Y001661D02*
X001470Y001616D01*
X001470Y001571D01*
X001425Y001526D01*
X001290Y001526D01*
X001290Y001796D01*
X000881Y001796D02*
X000881Y001616D01*
X000791Y001526D01*
X000701Y001616D01*
X000701Y001796D01*
X000587Y001751D02*
X000587Y001571D01*
X000541Y001526D01*
X000451Y001526D01*
X000406Y001571D01*
X000451Y001661D02*
X000587Y001661D01*
X000587Y001751D02*
X000541Y001796D01*
X000451Y001796D01*
X000406Y001751D01*
X000406Y001706D01*
X000451Y001661D01*
X013096Y012926D02*
X013096Y013196D01*
X013006Y013196D02*
X013187Y013196D01*
X013187Y014026D02*
X013096Y014116D01*
X013141Y014116D02*
X013006Y014116D01*
X013006Y014026D02*
X013006Y014296D01*
X013141Y014296D01*
X013187Y014251D01*
X013187Y014161D01*
X013141Y014116D01*
X005081Y016701D02*
X005081Y016904D01*
X005081Y016701D02*
X004677Y016701D01*
X004283Y016701D02*
X003878Y016701D01*
X003485Y016701D02*
X003080Y016701D01*
X002686Y016701D02*
X002281Y016701D01*
X002281Y016904D01*
X002281Y017298D02*
X002281Y017501D01*
X002686Y017501D01*
X003080Y017501D02*
X003485Y017501D01*
X003878Y017501D02*
X004283Y017501D01*
X004677Y017501D02*
X005081Y017501D01*
X005081Y017298D01*
D14*
X004395Y017544D02*
X004347Y017496D01*
X004250Y017496D01*
X004202Y017544D01*
X004299Y017641D02*
X004347Y017641D01*
X004395Y017593D01*
X004395Y017544D01*
X004347Y017641D02*
X004395Y017689D01*
X004395Y017738D01*
X004347Y017786D01*
X004250Y017786D01*
X004202Y017738D01*
X002995Y017496D02*
X002802Y017496D01*
X002899Y017496D02*
X002899Y017786D01*
X002802Y017689D01*
M02*
