%
M48
M72
T01C0.0276
%
T01
X1181Y1101
X2181Y1101
X681Y3601
X681Y4601
X681Y5601
X5681Y5101
X5681Y4101
X5681Y3101
X5681Y2101
X8681Y2101
X8681Y3101
X8681Y4101
X8681Y5101
X7681Y8101
X6681Y8101
X6181Y10601
X7181Y10601
X4681Y13601
X4681Y14601
X6681Y14101
X7681Y14101
X9181Y14101
X10181Y14101
X9681Y17101
X6681Y17101
X4681Y17101
X3681Y17101
X2681Y17101
X1181Y14601
X1181Y13601
X1181Y12601
X13681Y13101
X13681Y14101
M30
