G75*
G70*
%OFA0B0*%
%FSLAX24Y24*%
%IPPOS*%
%LPD*%
%AMOC8*
5,1,8,0,0,1.08239X$1,22.5*
%
%ADD10C,0.0080*%
%ADD11C,0.0100*%
%ADD12C,0.0000*%
%ADD13C,0.0300*%
%ADD14C,0.0141*%
%ADD15C,0.0060*%
%ADD16C,0.0030*%
%ADD17C,0.0050*%
%ADD18C,0.0020*%
%ADD19R,0.0200X0.0150*%
%ADD20R,0.1000X0.0200*%
%ADD21R,0.0300X0.0750*%
%ADD22C,0.0010*%
%ADD23R,0.0150X0.0200*%
%ADD24R,0.0400X0.0150*%
%ADD25R,0.0800X0.0200*%
%ADD26R,0.0200X0.0250*%
%ADD27C,0.0040*%
D10*
X003342Y002142D02*
X003342Y002353D01*
X003412Y002423D01*
X003692Y002423D01*
X003762Y002353D01*
X003762Y002142D01*
X003342Y002142D01*
X003412Y002603D02*
X003342Y002673D01*
X003342Y002813D01*
X003412Y002883D01*
X003482Y002883D01*
X003762Y002603D01*
X003762Y002883D01*
X003552Y003063D02*
X003552Y003343D01*
X003552Y003523D02*
X003482Y003664D01*
X003482Y003734D01*
X003552Y003804D01*
X003692Y003804D01*
X003762Y003734D01*
X003762Y003593D01*
X003692Y003523D01*
X003552Y003523D02*
X003342Y003523D01*
X003342Y003804D01*
X008242Y007112D02*
X008312Y007042D01*
X008382Y007042D01*
X008452Y007112D01*
X008452Y007253D01*
X008522Y007323D01*
X008592Y007323D01*
X008662Y007253D01*
X008662Y007112D01*
X008592Y007042D01*
X008242Y007112D02*
X008242Y007253D01*
X008312Y007323D01*
X008242Y007503D02*
X008662Y007503D01*
X008522Y007643D01*
X008662Y007783D01*
X008242Y007783D01*
X008312Y007963D02*
X008242Y008033D01*
X008242Y008173D01*
X008312Y008243D01*
X008382Y008243D01*
X008662Y007963D01*
X008662Y008243D01*
X009862Y008551D02*
X009932Y008481D01*
X010212Y008481D01*
X010282Y008551D01*
X010282Y008691D01*
X010212Y008761D01*
X010282Y008942D02*
X010282Y009222D01*
X010282Y009082D02*
X009862Y009082D01*
X010002Y008942D01*
X009932Y008761D02*
X009862Y008691D01*
X009862Y008551D01*
X009932Y009402D02*
X009862Y009472D01*
X009862Y009612D01*
X009932Y009682D01*
X010002Y009682D01*
X010282Y009402D01*
X010282Y009682D01*
X012052Y010302D02*
X013552Y010302D01*
X013393Y010502D02*
X013183Y010502D01*
X013183Y010923D01*
X013393Y010923D01*
X013463Y010853D01*
X013463Y010572D01*
X013393Y010502D01*
X013003Y010502D02*
X012723Y010502D01*
X012723Y010923D01*
X013003Y010923D01*
X012863Y010713D02*
X012723Y010713D01*
X012543Y010502D02*
X012262Y010502D01*
X012262Y010923D01*
X012572Y012102D02*
X012502Y012172D01*
X012502Y012453D01*
X012572Y012523D01*
X012713Y012523D01*
X012783Y012453D01*
X012963Y012453D02*
X013033Y012523D01*
X013173Y012523D01*
X013243Y012453D01*
X013243Y012383D01*
X013173Y012313D01*
X013243Y012242D01*
X013243Y012172D01*
X013173Y012102D01*
X013033Y012102D01*
X012963Y012172D01*
X012783Y012172D02*
X012713Y012102D01*
X012572Y012102D01*
X013103Y012313D02*
X013173Y012313D01*
X013173Y013622D02*
X013173Y014043D01*
X012963Y013833D01*
X013243Y013833D01*
X012783Y013973D02*
X012713Y014043D01*
X012572Y014043D01*
X012502Y013973D01*
X012502Y013692D01*
X012572Y013622D01*
X012713Y013622D01*
X012783Y013692D01*
X012713Y015062D02*
X012783Y015132D01*
X012713Y015062D02*
X012572Y015062D01*
X012502Y015132D01*
X012502Y015413D01*
X012572Y015483D01*
X012713Y015483D01*
X012783Y015413D01*
X012963Y015413D02*
X012963Y015343D01*
X013033Y015273D01*
X013243Y015273D01*
X013243Y015413D02*
X013173Y015483D01*
X013033Y015483D01*
X012963Y015413D01*
X013243Y015413D02*
X013243Y015132D01*
X013173Y015062D01*
X013033Y015062D01*
X012963Y015132D01*
X013033Y016582D02*
X013173Y016582D01*
X013243Y016652D01*
X013243Y016722D01*
X013173Y016793D01*
X012963Y016793D01*
X012963Y016652D01*
X013033Y016582D01*
X012963Y016793D02*
X013103Y016933D01*
X013243Y017003D01*
X012783Y016933D02*
X012713Y017003D01*
X012572Y017003D01*
X012502Y016933D01*
X012502Y016652D01*
X012572Y016582D01*
X012713Y016582D01*
X012783Y016652D01*
X012853Y018662D02*
X012713Y018662D01*
X012643Y018732D01*
X012923Y019013D01*
X012923Y018732D01*
X012853Y018662D01*
X012643Y018732D02*
X012643Y019013D01*
X012713Y019083D01*
X012853Y019083D01*
X012923Y019013D01*
X013103Y019013D02*
X013103Y018943D01*
X013173Y018873D01*
X013313Y018873D01*
X013383Y018802D01*
X013383Y018732D01*
X013313Y018662D01*
X013173Y018662D01*
X013103Y018732D01*
X013103Y018802D01*
X013173Y018873D01*
X013313Y018873D02*
X013383Y018943D01*
X013383Y019013D01*
X013313Y019083D01*
X013173Y019083D01*
X013103Y019013D01*
X012463Y019013D02*
X012463Y018943D01*
X012393Y018873D01*
X012463Y018802D01*
X012463Y018732D01*
X012393Y018662D01*
X012252Y018662D01*
X012182Y018732D01*
X012322Y018873D02*
X012393Y018873D01*
X012463Y019013D02*
X012393Y019083D01*
X012252Y019083D01*
X012182Y019013D01*
X010537Y018967D02*
X010117Y018967D01*
X010117Y019178D01*
X010187Y019248D01*
X010327Y019248D01*
X010397Y019178D01*
X010397Y018967D01*
X010397Y019107D02*
X010537Y019248D01*
X010537Y019428D02*
X010537Y019708D01*
X010537Y019568D02*
X010117Y019568D01*
X010257Y019428D01*
X010187Y019888D02*
X010117Y019958D01*
X010117Y020098D01*
X010187Y020168D01*
X010467Y019888D01*
X010537Y019958D01*
X010537Y020098D01*
X010467Y020168D01*
X010187Y020168D01*
X010187Y019888D02*
X010467Y019888D01*
X008703Y019053D02*
X008703Y018772D01*
X008633Y018702D01*
X008493Y018702D01*
X008423Y018772D01*
X008703Y019053D01*
X008633Y019123D01*
X008493Y019123D01*
X008423Y019053D01*
X008423Y018772D01*
X008243Y018702D02*
X007963Y018702D01*
X008103Y018702D02*
X008103Y019123D01*
X007963Y018983D01*
X007783Y019053D02*
X007713Y019123D01*
X007572Y019123D01*
X007502Y019053D01*
X007502Y018772D01*
X007572Y018702D01*
X007713Y018702D01*
X007783Y018772D01*
X005383Y018022D02*
X005103Y018022D01*
X005243Y018022D02*
X005243Y018443D01*
X005103Y018303D01*
X004783Y018443D02*
X004783Y018022D01*
X004643Y018022D02*
X004923Y018022D01*
X004643Y018303D02*
X004783Y018443D01*
X004463Y018373D02*
X004393Y018443D01*
X004252Y018443D01*
X004182Y018373D01*
X004182Y018092D01*
X004252Y018022D01*
X004393Y018022D01*
X004463Y018092D01*
X002542Y018093D02*
X002122Y018093D01*
X002262Y017953D01*
X002192Y017773D02*
X002332Y017773D01*
X002402Y017703D01*
X002402Y017492D01*
X002542Y017492D02*
X002122Y017492D01*
X002122Y017703D01*
X002192Y017773D01*
X002402Y017632D02*
X002542Y017773D01*
X002542Y017953D02*
X002542Y018233D01*
X002542Y018413D02*
X002542Y018693D01*
X002542Y018553D02*
X002122Y018553D01*
X002262Y018413D01*
X004982Y012982D02*
X005402Y012982D01*
X005402Y012842D02*
X005402Y013122D01*
X005122Y012842D02*
X004982Y012982D01*
X005052Y012662D02*
X005332Y012662D01*
X005402Y012592D01*
X005402Y012452D01*
X005332Y012382D01*
X005052Y012382D01*
X004982Y012452D01*
X004982Y012592D01*
X005052Y012662D01*
X005262Y012522D02*
X005402Y012662D01*
X006982Y012373D02*
X006982Y012092D01*
X007052Y012022D01*
X007193Y012022D01*
X007263Y012092D01*
X007443Y012022D02*
X007723Y012022D01*
X007583Y012022D02*
X007583Y012443D01*
X007443Y012303D01*
X007263Y012373D02*
X007193Y012443D01*
X007052Y012443D01*
X006982Y012373D01*
X007903Y012373D02*
X007973Y012443D01*
X008113Y012443D01*
X008183Y012373D01*
X008183Y012303D01*
X008113Y012233D01*
X008183Y012162D01*
X008183Y012092D01*
X008113Y012022D01*
X007973Y012022D01*
X007903Y012092D01*
X008043Y012233D02*
X008113Y012233D01*
X009817Y012502D02*
X009817Y012713D01*
X009887Y012783D01*
X010027Y012783D01*
X010097Y012713D01*
X010097Y012502D01*
X010237Y012502D02*
X009817Y012502D01*
X010097Y012642D02*
X010237Y012783D01*
X010237Y012963D02*
X010237Y013243D01*
X010237Y013103D02*
X009817Y013103D01*
X009957Y012963D01*
X009887Y013423D02*
X009817Y013493D01*
X009817Y013633D01*
X009887Y013703D01*
X009957Y013703D01*
X010237Y013423D01*
X010237Y013703D01*
X014802Y010573D02*
X014802Y010293D01*
X015012Y010293D01*
X014942Y010433D01*
X014942Y010503D01*
X015012Y010573D01*
X015152Y010573D01*
X015222Y010503D01*
X015222Y010363D01*
X015152Y010293D01*
X015222Y010113D02*
X015082Y009972D01*
X015082Y010043D02*
X015082Y009832D01*
X015222Y009832D02*
X014802Y009832D01*
X014802Y010043D01*
X014872Y010113D01*
X015012Y010113D01*
X015082Y010043D01*
X016087Y010043D02*
X016087Y009832D01*
X016507Y009832D01*
X016367Y009832D02*
X016367Y010043D01*
X016297Y010113D01*
X016157Y010113D01*
X016087Y010043D01*
X016367Y009972D02*
X016507Y010113D01*
X016297Y010293D02*
X016297Y010573D01*
X016087Y010503D02*
X016297Y010293D01*
X016507Y010503D02*
X016087Y010503D01*
X017692Y012422D02*
X017833Y012422D01*
X017903Y012492D01*
X018083Y012422D02*
X018363Y012703D01*
X018363Y012773D01*
X018293Y012843D01*
X018153Y012843D01*
X018083Y012773D01*
X017903Y012773D02*
X017833Y012843D01*
X017692Y012843D01*
X017622Y012773D01*
X017622Y012492D01*
X017692Y012422D01*
X018083Y012422D02*
X018363Y012422D01*
X019287Y010743D02*
X019498Y010743D01*
X019568Y010673D01*
X019568Y010533D01*
X019498Y010462D01*
X019287Y010462D01*
X019287Y010322D02*
X019287Y010743D01*
X019427Y010462D02*
X019568Y010322D01*
X019748Y010322D02*
X019748Y010392D01*
X020028Y010673D01*
X020028Y010743D01*
X019748Y010743D01*
X020572Y012422D02*
X020713Y012422D01*
X020783Y012492D01*
X020963Y012422D02*
X021243Y012422D01*
X021103Y012422D02*
X021103Y012843D01*
X020963Y012703D01*
X020783Y012773D02*
X020713Y012843D01*
X020572Y012843D01*
X020502Y012773D01*
X020502Y012492D01*
X020572Y012422D01*
X020122Y007933D02*
X020192Y007863D01*
X020192Y007723D01*
X020122Y007653D01*
X020192Y007473D02*
X020052Y007332D01*
X020052Y007403D02*
X020052Y007192D01*
X020192Y007192D02*
X019772Y007192D01*
X019772Y007403D01*
X019842Y007473D01*
X019982Y007473D01*
X020052Y007403D01*
X019842Y007653D02*
X019772Y007723D01*
X019772Y007863D01*
X019842Y007933D01*
X019912Y007933D01*
X019982Y007863D01*
X020052Y007933D01*
X020122Y007933D01*
X019982Y007863D02*
X019982Y007793D01*
X018997Y007683D02*
X018717Y007963D01*
X018647Y007963D01*
X018577Y007893D01*
X018577Y007753D01*
X018647Y007683D01*
X018647Y007503D02*
X018787Y007503D01*
X018857Y007433D01*
X018857Y007222D01*
X018997Y007222D02*
X018577Y007222D01*
X018577Y007433D01*
X018647Y007503D01*
X018857Y007362D02*
X018997Y007503D01*
X018997Y007683D02*
X018997Y007963D01*
X017782Y007903D02*
X017362Y007903D01*
X017502Y007763D01*
X017432Y007583D02*
X017362Y007513D01*
X017362Y007302D01*
X017782Y007302D01*
X017782Y007513D01*
X017712Y007583D01*
X017432Y007583D01*
X017782Y007763D02*
X017782Y008043D01*
X021062Y007757D02*
X021202Y007617D01*
X021132Y007437D02*
X021272Y007437D01*
X021342Y007367D01*
X021342Y007157D01*
X021342Y007297D02*
X021482Y007437D01*
X021482Y007617D02*
X021482Y007897D01*
X021482Y007757D02*
X021062Y007757D01*
X021132Y007437D02*
X021062Y007367D01*
X021062Y007157D01*
X021482Y007157D01*
X016737Y003943D02*
X016737Y003803D01*
X016667Y003733D01*
X016527Y003733D01*
X016527Y003943D01*
X016597Y004013D01*
X016667Y004013D01*
X016737Y003943D01*
X016527Y003733D02*
X016387Y003873D01*
X016317Y004013D01*
X016387Y003553D02*
X016527Y003553D01*
X016597Y003483D01*
X016597Y003272D01*
X016737Y003272D02*
X016317Y003272D01*
X016317Y003483D01*
X016387Y003553D01*
X016597Y003412D02*
X016737Y003553D01*
X009252Y003673D02*
X009182Y003603D01*
X009112Y003603D01*
X009042Y003673D01*
X009042Y003813D01*
X009112Y003883D01*
X009182Y003883D01*
X009252Y003813D01*
X009252Y003673D01*
X009042Y003673D02*
X008972Y003603D01*
X008902Y003603D01*
X008832Y003673D01*
X008832Y003813D01*
X008902Y003883D01*
X008972Y003883D01*
X009042Y003813D01*
X009042Y003423D02*
X008902Y003423D01*
X008832Y003353D01*
X008832Y003142D01*
X009252Y003142D01*
X009112Y003142D02*
X009112Y003353D01*
X009042Y003423D01*
X009112Y003282D02*
X009252Y003423D01*
X002537Y011207D02*
X002117Y011207D01*
X002117Y011418D01*
X002187Y011488D01*
X002327Y011488D01*
X002397Y011418D01*
X002397Y011207D01*
X002397Y011347D02*
X002537Y011488D01*
X002537Y011668D02*
X002537Y011948D01*
X002537Y011808D02*
X002117Y011808D01*
X002257Y011668D01*
X002187Y012128D02*
X002117Y012198D01*
X002117Y012338D01*
X002187Y012408D01*
X002257Y012408D01*
X002327Y012338D01*
X002397Y012408D01*
X002467Y012408D01*
X002537Y012338D01*
X002537Y012198D01*
X002467Y012128D01*
X002327Y012268D02*
X002327Y012338D01*
X012315Y020882D02*
X012455Y020882D01*
X012385Y020882D02*
X012385Y021303D01*
X012315Y021303D02*
X012455Y021303D01*
X012622Y021233D02*
X012622Y020952D01*
X012692Y020882D01*
X012832Y020882D01*
X012902Y020952D01*
X013082Y020882D02*
X013362Y020882D01*
X013222Y020882D02*
X013222Y021303D01*
X013082Y021163D01*
X012902Y021233D02*
X012832Y021303D01*
X012692Y021303D01*
X012622Y021233D01*
X015322Y020053D02*
X015322Y019913D01*
X015392Y019843D01*
X015462Y019843D01*
X015532Y019913D01*
X015532Y020123D01*
X015392Y020123D02*
X015322Y020053D01*
X015392Y020123D02*
X015672Y020123D01*
X015742Y020053D01*
X015742Y019913D01*
X015672Y019843D01*
X015742Y019663D02*
X015602Y019522D01*
X015602Y019593D02*
X015602Y019382D01*
X015742Y019382D02*
X015322Y019382D01*
X015322Y019593D01*
X015392Y019663D01*
X015532Y019663D01*
X015602Y019593D01*
X017202Y018763D02*
X017202Y018483D01*
X017272Y018303D02*
X017202Y018233D01*
X017202Y018092D01*
X017272Y018022D01*
X017552Y018022D01*
X017622Y018092D01*
X017622Y018233D01*
X017552Y018303D01*
X017552Y018483D02*
X017622Y018483D01*
X017552Y018483D02*
X017272Y018763D01*
X017202Y018763D01*
X020722Y018613D02*
X020722Y018473D01*
X020792Y018403D01*
X020862Y018403D01*
X020932Y018473D01*
X020932Y018613D01*
X021002Y018683D01*
X021072Y018683D01*
X021142Y018613D01*
X021142Y018473D01*
X021072Y018403D01*
X021002Y018403D01*
X020932Y018473D01*
X020932Y018613D02*
X020862Y018683D01*
X020792Y018683D01*
X020722Y018613D01*
X020792Y018223D02*
X020722Y018153D01*
X020722Y018012D01*
X020792Y017942D01*
X021072Y017942D01*
X021142Y018012D01*
X021142Y018153D01*
X021072Y018223D01*
X015542Y014853D02*
X015542Y014713D01*
X015472Y014643D01*
X015332Y014643D02*
X015262Y014783D01*
X015262Y014853D01*
X015332Y014923D01*
X015472Y014923D01*
X015542Y014853D01*
X015332Y014643D02*
X015122Y014643D01*
X015122Y014923D01*
X015192Y014463D02*
X015122Y014393D01*
X015122Y014252D01*
X015192Y014182D01*
X015472Y014182D01*
X015542Y014252D01*
X015542Y014393D01*
X015472Y014463D01*
D11*
X023402Y014869D02*
X023469Y014802D01*
X023535Y014802D01*
X023602Y014869D01*
X023602Y015003D01*
X023669Y015069D01*
X023736Y015069D01*
X023802Y015003D01*
X023802Y014869D01*
X023736Y014802D01*
X023402Y014869D02*
X023402Y015003D01*
X023469Y015069D01*
X023535Y015263D02*
X023736Y015263D01*
X023802Y015329D01*
X023802Y015530D01*
X023869Y015530D02*
X023936Y015463D01*
X023936Y015396D01*
X023869Y015530D02*
X023535Y015530D01*
X023535Y015723D02*
X023535Y015923D01*
X023602Y015990D01*
X023802Y015990D01*
X023802Y015723D02*
X023535Y015723D01*
X023535Y016183D02*
X023535Y016317D01*
X023469Y016250D02*
X023736Y016250D01*
X023802Y016317D01*
X023802Y016490D02*
X023402Y016490D01*
X023535Y016557D02*
X023535Y016690D01*
X023602Y016757D01*
X023802Y016757D01*
X023802Y016951D02*
X023535Y016951D01*
X023535Y017084D02*
X023535Y017151D01*
X023535Y017084D02*
X023669Y016951D01*
X023602Y017334D02*
X023535Y017401D01*
X023535Y017534D01*
X023602Y017601D01*
X023736Y017601D01*
X023802Y017534D01*
X023802Y017401D01*
X023736Y017334D01*
X023602Y017334D01*
X023535Y017795D02*
X023535Y017928D01*
X023469Y017861D02*
X023736Y017861D01*
X023802Y017928D01*
X023736Y018102D02*
X023602Y018102D01*
X023535Y018168D01*
X023535Y018302D01*
X023602Y018368D01*
X023669Y018368D01*
X023669Y018102D01*
X023736Y018102D02*
X023802Y018168D01*
X023802Y018302D01*
X023802Y018562D02*
X023402Y018562D01*
X023535Y018762D02*
X023669Y018562D01*
X023802Y018762D01*
X023852Y019302D02*
X024152Y019302D01*
X024552Y019702D01*
X024152Y020102D01*
X023852Y020102D01*
X023328Y020102D02*
X023330Y020131D01*
X023336Y020160D01*
X023345Y020188D01*
X023358Y020214D01*
X023374Y020238D01*
X023394Y020260D01*
X023416Y020280D01*
X023440Y020296D01*
X023466Y020309D01*
X023494Y020318D01*
X023523Y020324D01*
X023552Y020326D01*
X023581Y020324D01*
X023610Y020318D01*
X023638Y020309D01*
X023664Y020296D01*
X023688Y020280D01*
X023710Y020260D01*
X023730Y020238D01*
X023746Y020214D01*
X023759Y020188D01*
X023768Y020160D01*
X023774Y020131D01*
X023776Y020102D01*
X023774Y020073D01*
X023768Y020044D01*
X023759Y020016D01*
X023746Y019990D01*
X023730Y019966D01*
X023710Y019944D01*
X023688Y019924D01*
X023664Y019908D01*
X023638Y019895D01*
X023610Y019886D01*
X023581Y019880D01*
X023552Y019878D01*
X023523Y019880D01*
X023494Y019886D01*
X023466Y019895D01*
X023440Y019908D01*
X023416Y019924D01*
X023394Y019944D01*
X023374Y019966D01*
X023358Y019990D01*
X023345Y020016D01*
X023336Y020044D01*
X023330Y020073D01*
X023328Y020102D01*
X023552Y019902D02*
X023552Y019502D01*
X023328Y019302D02*
X023330Y019331D01*
X023336Y019360D01*
X023345Y019388D01*
X023358Y019414D01*
X023374Y019438D01*
X023394Y019460D01*
X023416Y019480D01*
X023440Y019496D01*
X023466Y019509D01*
X023494Y019518D01*
X023523Y019524D01*
X023552Y019526D01*
X023581Y019524D01*
X023610Y019518D01*
X023638Y019509D01*
X023664Y019496D01*
X023688Y019480D01*
X023710Y019460D01*
X023730Y019438D01*
X023746Y019414D01*
X023759Y019388D01*
X023768Y019360D01*
X023774Y019331D01*
X023776Y019302D01*
X023774Y019273D01*
X023768Y019244D01*
X023759Y019216D01*
X023746Y019190D01*
X023730Y019166D01*
X023710Y019144D01*
X023688Y019124D01*
X023664Y019108D01*
X023638Y019095D01*
X023610Y019086D01*
X023581Y019080D01*
X023552Y019078D01*
X023523Y019080D01*
X023494Y019086D01*
X023466Y019095D01*
X023440Y019108D01*
X023416Y019124D01*
X023394Y019144D01*
X023374Y019166D01*
X023358Y019190D01*
X023345Y019216D01*
X023336Y019244D01*
X023330Y019273D01*
X023328Y019302D01*
X024402Y019202D02*
X024402Y019402D01*
X024502Y019452D02*
X024652Y019302D01*
X024502Y019952D02*
X024652Y020102D01*
X024402Y020002D02*
X024402Y020202D01*
X024402Y018599D02*
X024469Y018599D01*
X024469Y018332D01*
X024536Y018332D02*
X024402Y018332D01*
X024335Y018398D01*
X024335Y018532D01*
X024402Y018599D01*
X024602Y018532D02*
X024602Y018398D01*
X024536Y018332D01*
X024602Y018138D02*
X024402Y018138D01*
X024335Y018072D01*
X024335Y017871D01*
X024602Y017871D01*
X024536Y017678D02*
X024402Y017678D01*
X024335Y017611D01*
X024335Y017478D01*
X024402Y017411D01*
X024536Y017411D01*
X024602Y017478D01*
X024602Y017611D01*
X024536Y017678D01*
X024602Y017238D02*
X024602Y017104D01*
X024602Y017171D02*
X024202Y017171D01*
X024202Y017104D01*
X024269Y016911D02*
X024202Y016844D01*
X024202Y016710D01*
X024269Y016644D01*
X024536Y016644D01*
X024602Y016710D01*
X024602Y016844D01*
X024536Y016911D01*
X023602Y016490D02*
X023535Y016557D01*
X024202Y015990D02*
X024202Y015723D01*
X024202Y015856D02*
X024602Y015856D01*
X024602Y015530D02*
X024335Y015530D01*
X024202Y015396D01*
X024335Y015263D01*
X024602Y015263D01*
X024602Y015069D02*
X024469Y014936D01*
X024469Y015003D02*
X024469Y014802D01*
X024602Y014802D02*
X024202Y014802D01*
X024202Y015003D01*
X024269Y015069D01*
X024402Y015069D01*
X024469Y015003D01*
X024402Y015263D02*
X024402Y015530D01*
X024402Y014352D02*
X024402Y014152D01*
X024502Y014102D02*
X024652Y014252D01*
X024552Y013852D02*
X024152Y013452D01*
X023852Y013452D01*
X023328Y013452D02*
X023330Y013481D01*
X023336Y013510D01*
X023345Y013538D01*
X023358Y013564D01*
X023374Y013588D01*
X023394Y013610D01*
X023416Y013630D01*
X023440Y013646D01*
X023466Y013659D01*
X023494Y013668D01*
X023523Y013674D01*
X023552Y013676D01*
X023581Y013674D01*
X023610Y013668D01*
X023638Y013659D01*
X023664Y013646D01*
X023688Y013630D01*
X023710Y013610D01*
X023730Y013588D01*
X023746Y013564D01*
X023759Y013538D01*
X023768Y013510D01*
X023774Y013481D01*
X023776Y013452D01*
X023774Y013423D01*
X023768Y013394D01*
X023759Y013366D01*
X023746Y013340D01*
X023730Y013316D01*
X023710Y013294D01*
X023688Y013274D01*
X023664Y013258D01*
X023638Y013245D01*
X023610Y013236D01*
X023581Y013230D01*
X023552Y013228D01*
X023523Y013230D01*
X023494Y013236D01*
X023466Y013245D01*
X023440Y013258D01*
X023416Y013274D01*
X023394Y013294D01*
X023374Y013316D01*
X023358Y013340D01*
X023345Y013366D01*
X023336Y013394D01*
X023330Y013423D01*
X023328Y013452D01*
X023552Y013652D02*
X023552Y014052D01*
X023328Y014252D02*
X023330Y014281D01*
X023336Y014310D01*
X023345Y014338D01*
X023358Y014364D01*
X023374Y014388D01*
X023394Y014410D01*
X023416Y014430D01*
X023440Y014446D01*
X023466Y014459D01*
X023494Y014468D01*
X023523Y014474D01*
X023552Y014476D01*
X023581Y014474D01*
X023610Y014468D01*
X023638Y014459D01*
X023664Y014446D01*
X023688Y014430D01*
X023710Y014410D01*
X023730Y014388D01*
X023746Y014364D01*
X023759Y014338D01*
X023768Y014310D01*
X023774Y014281D01*
X023776Y014252D01*
X023774Y014223D01*
X023768Y014194D01*
X023759Y014166D01*
X023746Y014140D01*
X023730Y014116D01*
X023710Y014094D01*
X023688Y014074D01*
X023664Y014058D01*
X023638Y014045D01*
X023610Y014036D01*
X023581Y014030D01*
X023552Y014028D01*
X023523Y014030D01*
X023494Y014036D01*
X023466Y014045D01*
X023440Y014058D01*
X023416Y014074D01*
X023394Y014094D01*
X023374Y014116D01*
X023358Y014140D01*
X023345Y014166D01*
X023336Y014194D01*
X023330Y014223D01*
X023328Y014252D01*
X023852Y014252D02*
X024152Y014252D01*
X024552Y013852D01*
X024502Y013602D02*
X024652Y013452D01*
X024402Y013352D02*
X024402Y013552D01*
X015802Y007052D02*
X015802Y001052D01*
X013802Y001052D01*
X013802Y002109D01*
X013802Y002380D02*
X013802Y002429D01*
X013802Y002700D02*
X013802Y003757D01*
X013802Y004028D02*
X013802Y004077D01*
X013802Y004348D02*
X013802Y005405D01*
X013802Y005675D02*
X013802Y005725D01*
X013802Y005995D02*
X013802Y007052D01*
X015802Y007052D01*
X013802Y007052D02*
X011802Y007052D01*
X011802Y005995D01*
X011802Y005725D02*
X011802Y005675D01*
X011802Y005405D02*
X011802Y004348D01*
X011802Y004077D02*
X011802Y004028D01*
X011802Y003757D02*
X011802Y002700D01*
X011802Y002429D02*
X011802Y002380D01*
X011802Y002109D02*
X011802Y001052D01*
X009802Y001052D01*
X009802Y007052D01*
X011802Y007052D01*
X011302Y005052D02*
X010302Y005052D01*
X010302Y003052D02*
X011302Y003052D01*
X011802Y001052D02*
X013802Y001052D01*
X014302Y003052D02*
X015302Y003052D01*
X015302Y005052D02*
X014302Y005052D01*
X017337Y003847D02*
X018072Y003847D01*
X017337Y003847D02*
X017337Y000872D01*
X021187Y000872D01*
X021187Y003847D01*
X020380Y003847D01*
X021452Y003852D02*
X021452Y000877D01*
X024252Y000877D01*
X024252Y003852D01*
X023944Y003852D01*
X023738Y002342D02*
X023388Y002342D01*
X022327Y002342D02*
X021973Y002342D01*
X022148Y002167D02*
X022148Y002517D01*
X021847Y003852D02*
X021452Y003852D01*
D12*
X023552Y013652D02*
X023552Y014052D01*
X023552Y019502D02*
X023552Y019902D01*
D13*
X024552Y019702D03*
X024552Y013852D03*
D14*
X023952Y013602D03*
X023952Y014102D03*
X023952Y019452D03*
X023952Y019952D03*
D15*
X022212Y018752D02*
X021962Y018752D01*
X022092Y018622D02*
X022092Y018882D01*
X020312Y018302D02*
X020314Y018372D01*
X020320Y018442D01*
X020330Y018512D01*
X020344Y018580D01*
X020361Y018648D01*
X020383Y018715D01*
X020408Y018781D01*
X020437Y018845D01*
X020469Y018907D01*
X020505Y018967D01*
X020545Y019025D01*
X020587Y019081D01*
X020633Y019134D01*
X020681Y019185D01*
X020733Y019233D01*
X020787Y019278D01*
X020843Y019319D01*
X020902Y019358D01*
X020963Y019393D01*
X021025Y019425D01*
X021090Y019453D01*
X021155Y019477D01*
X021223Y019497D01*
X021291Y019514D01*
X021360Y019527D01*
X021429Y019536D01*
X021499Y019541D01*
X021570Y019542D01*
X021640Y019539D01*
X021710Y019532D01*
X021779Y019521D01*
X021847Y019506D01*
X021915Y019488D01*
X021982Y019465D01*
X022047Y019439D01*
X022110Y019409D01*
X022172Y019376D01*
X022232Y019339D01*
X022289Y019299D01*
X022345Y019256D01*
X022397Y019209D01*
X022447Y019160D01*
X022494Y019108D01*
X022538Y019053D01*
X022579Y018996D01*
X022617Y018937D01*
X022651Y018876D01*
X022682Y018813D01*
X022709Y018748D01*
X022732Y018682D01*
X022752Y018614D01*
X022768Y018546D01*
X022780Y018477D01*
X022788Y018407D01*
X022792Y018337D01*
X022792Y018267D01*
X022788Y018197D01*
X022780Y018127D01*
X022768Y018058D01*
X022752Y017990D01*
X022732Y017922D01*
X022709Y017856D01*
X022682Y017791D01*
X022651Y017728D01*
X022617Y017667D01*
X022579Y017608D01*
X022538Y017551D01*
X022494Y017496D01*
X022447Y017444D01*
X022397Y017395D01*
X022345Y017348D01*
X022289Y017305D01*
X022232Y017265D01*
X022172Y017228D01*
X022110Y017195D01*
X022047Y017165D01*
X021982Y017139D01*
X021915Y017116D01*
X021847Y017098D01*
X021779Y017083D01*
X021710Y017072D01*
X021640Y017065D01*
X021570Y017062D01*
X021499Y017063D01*
X021429Y017068D01*
X021360Y017077D01*
X021291Y017090D01*
X021223Y017107D01*
X021155Y017127D01*
X021090Y017151D01*
X021025Y017179D01*
X020963Y017211D01*
X020902Y017246D01*
X020843Y017285D01*
X020787Y017326D01*
X020733Y017371D01*
X020681Y017419D01*
X020633Y017470D01*
X020587Y017523D01*
X020545Y017579D01*
X020505Y017637D01*
X020469Y017697D01*
X020437Y017759D01*
X020408Y017823D01*
X020383Y017889D01*
X020361Y017956D01*
X020344Y018024D01*
X020330Y018092D01*
X020320Y018162D01*
X020314Y018232D01*
X020312Y018302D01*
X018712Y018752D02*
X018462Y018752D01*
X018592Y018622D02*
X018592Y018882D01*
X016812Y018302D02*
X016814Y018372D01*
X016820Y018442D01*
X016830Y018512D01*
X016844Y018580D01*
X016861Y018648D01*
X016883Y018715D01*
X016908Y018781D01*
X016937Y018845D01*
X016969Y018907D01*
X017005Y018967D01*
X017045Y019025D01*
X017087Y019081D01*
X017133Y019134D01*
X017181Y019185D01*
X017233Y019233D01*
X017287Y019278D01*
X017343Y019319D01*
X017402Y019358D01*
X017463Y019393D01*
X017525Y019425D01*
X017590Y019453D01*
X017655Y019477D01*
X017723Y019497D01*
X017791Y019514D01*
X017860Y019527D01*
X017929Y019536D01*
X017999Y019541D01*
X018070Y019542D01*
X018140Y019539D01*
X018210Y019532D01*
X018279Y019521D01*
X018347Y019506D01*
X018415Y019488D01*
X018482Y019465D01*
X018547Y019439D01*
X018610Y019409D01*
X018672Y019376D01*
X018732Y019339D01*
X018789Y019299D01*
X018845Y019256D01*
X018897Y019209D01*
X018947Y019160D01*
X018994Y019108D01*
X019038Y019053D01*
X019079Y018996D01*
X019117Y018937D01*
X019151Y018876D01*
X019182Y018813D01*
X019209Y018748D01*
X019232Y018682D01*
X019252Y018614D01*
X019268Y018546D01*
X019280Y018477D01*
X019288Y018407D01*
X019292Y018337D01*
X019292Y018267D01*
X019288Y018197D01*
X019280Y018127D01*
X019268Y018058D01*
X019252Y017990D01*
X019232Y017922D01*
X019209Y017856D01*
X019182Y017791D01*
X019151Y017728D01*
X019117Y017667D01*
X019079Y017608D01*
X019038Y017551D01*
X018994Y017496D01*
X018947Y017444D01*
X018897Y017395D01*
X018845Y017348D01*
X018789Y017305D01*
X018732Y017265D01*
X018672Y017228D01*
X018610Y017195D01*
X018547Y017165D01*
X018482Y017139D01*
X018415Y017116D01*
X018347Y017098D01*
X018279Y017083D01*
X018210Y017072D01*
X018140Y017065D01*
X018070Y017062D01*
X017999Y017063D01*
X017929Y017068D01*
X017860Y017077D01*
X017791Y017090D01*
X017723Y017107D01*
X017655Y017127D01*
X017590Y017151D01*
X017525Y017179D01*
X017463Y017211D01*
X017402Y017246D01*
X017343Y017285D01*
X017287Y017326D01*
X017233Y017371D01*
X017181Y017419D01*
X017133Y017470D01*
X017087Y017523D01*
X017045Y017579D01*
X017005Y017637D01*
X016969Y017697D01*
X016937Y017759D01*
X016908Y017823D01*
X016883Y017889D01*
X016861Y017956D01*
X016844Y018024D01*
X016830Y018092D01*
X016820Y018162D01*
X016814Y018232D01*
X016812Y018302D01*
X015952Y018796D02*
X015952Y019196D01*
X015902Y019246D01*
X015902Y020359D01*
X015952Y020409D01*
X015952Y020809D01*
X015950Y020826D01*
X015946Y020843D01*
X015939Y020859D01*
X015929Y020873D01*
X015916Y020886D01*
X015902Y020896D01*
X015886Y020903D01*
X015869Y020907D01*
X015852Y020909D01*
X015252Y020909D01*
X015235Y020907D01*
X015218Y020903D01*
X015202Y020896D01*
X015188Y020886D01*
X015175Y020873D01*
X015165Y020859D01*
X015158Y020843D01*
X015154Y020826D01*
X015152Y020809D01*
X015152Y020409D01*
X015202Y020359D01*
X015202Y019246D01*
X015152Y019196D01*
X015152Y018796D01*
X015154Y018779D01*
X015158Y018762D01*
X015165Y018746D01*
X015175Y018732D01*
X015188Y018719D01*
X015202Y018709D01*
X015218Y018702D01*
X015235Y018698D01*
X015252Y018696D01*
X015852Y018696D01*
X015869Y018698D01*
X015886Y018702D01*
X015902Y018709D01*
X015916Y018719D01*
X015929Y018732D01*
X015939Y018746D01*
X015946Y018762D01*
X015950Y018779D01*
X015952Y018796D01*
X014220Y017491D02*
X014220Y016113D01*
X011385Y016113D01*
X011385Y017491D01*
X014220Y017491D01*
X013952Y017802D02*
X013202Y017802D01*
X013200Y017841D01*
X013194Y017880D01*
X013185Y017918D01*
X013172Y017955D01*
X013155Y017991D01*
X013135Y018024D01*
X013111Y018056D01*
X013085Y018085D01*
X013056Y018111D01*
X013024Y018135D01*
X012991Y018155D01*
X012955Y018172D01*
X012918Y018185D01*
X012880Y018194D01*
X012841Y018200D01*
X012802Y018202D01*
X012763Y018200D01*
X012724Y018194D01*
X012686Y018185D01*
X012649Y018172D01*
X012613Y018155D01*
X012580Y018135D01*
X012548Y018111D01*
X012519Y018085D01*
X012493Y018056D01*
X012469Y018024D01*
X012449Y017991D01*
X012432Y017955D01*
X012419Y017918D01*
X012410Y017880D01*
X012404Y017841D01*
X012402Y017802D01*
X011652Y017802D01*
X011652Y021802D01*
X013952Y021802D01*
X013952Y017802D01*
X014220Y015991D02*
X014220Y014613D01*
X011385Y014613D01*
X011385Y015991D01*
X014220Y015991D01*
X014613Y015970D02*
X015991Y015970D01*
X015991Y013135D01*
X014613Y013135D01*
X014613Y015970D01*
X014220Y014491D02*
X014220Y013113D01*
X011385Y013113D01*
X011385Y014491D01*
X014220Y014491D01*
X014220Y012991D02*
X014220Y011613D01*
X011385Y011613D01*
X011385Y012991D01*
X014220Y012991D01*
X014752Y011409D02*
X015352Y011409D01*
X015369Y011407D01*
X015386Y011403D01*
X015402Y011396D01*
X015416Y011386D01*
X015429Y011373D01*
X015439Y011359D01*
X015446Y011343D01*
X015450Y011326D01*
X015452Y011309D01*
X015452Y010909D01*
X015402Y010859D01*
X015402Y009746D01*
X015452Y009696D01*
X015452Y009296D01*
X015450Y009279D01*
X015446Y009262D01*
X015439Y009246D01*
X015429Y009232D01*
X015416Y009219D01*
X015402Y009209D01*
X015386Y009202D01*
X015369Y009198D01*
X015352Y009196D01*
X014752Y009196D01*
X014735Y009198D01*
X014718Y009202D01*
X014702Y009209D01*
X014688Y009219D01*
X014675Y009232D01*
X014665Y009246D01*
X014658Y009262D01*
X014654Y009279D01*
X014652Y009296D01*
X014652Y009696D01*
X014702Y009746D01*
X014702Y010859D01*
X014652Y010909D01*
X014652Y011309D01*
X014654Y011326D01*
X014658Y011343D01*
X014665Y011359D01*
X014675Y011373D01*
X014688Y011386D01*
X014702Y011396D01*
X014718Y011403D01*
X014735Y011407D01*
X014752Y011409D01*
X015902Y011309D02*
X015902Y010909D01*
X015952Y010859D01*
X015952Y009746D01*
X015902Y009696D01*
X015902Y009296D01*
X015904Y009279D01*
X015908Y009262D01*
X015915Y009246D01*
X015925Y009232D01*
X015938Y009219D01*
X015952Y009209D01*
X015968Y009202D01*
X015985Y009198D01*
X016002Y009196D01*
X016602Y009196D01*
X016619Y009198D01*
X016636Y009202D01*
X016652Y009209D01*
X016666Y009219D01*
X016679Y009232D01*
X016689Y009246D01*
X016696Y009262D01*
X016700Y009279D01*
X016702Y009296D01*
X016702Y009696D01*
X016652Y009746D01*
X016652Y010859D01*
X016702Y010909D01*
X016702Y011309D01*
X016700Y011326D01*
X016696Y011343D01*
X016689Y011359D01*
X016679Y011373D01*
X016666Y011386D01*
X016652Y011396D01*
X016636Y011403D01*
X016619Y011407D01*
X016602Y011409D01*
X016002Y011409D01*
X015985Y011407D01*
X015968Y011403D01*
X015952Y011396D01*
X015938Y011386D01*
X015925Y011373D01*
X015915Y011359D01*
X015908Y011343D01*
X015904Y011326D01*
X015902Y011309D01*
X018372Y012762D02*
X018632Y012762D01*
X018502Y012642D02*
X018502Y012892D01*
X016812Y013302D02*
X016814Y013372D01*
X016820Y013442D01*
X016830Y013512D01*
X016844Y013580D01*
X016861Y013648D01*
X016883Y013715D01*
X016908Y013781D01*
X016937Y013845D01*
X016969Y013907D01*
X017005Y013967D01*
X017045Y014025D01*
X017087Y014081D01*
X017133Y014134D01*
X017181Y014185D01*
X017233Y014233D01*
X017287Y014278D01*
X017343Y014319D01*
X017402Y014358D01*
X017463Y014393D01*
X017525Y014425D01*
X017590Y014453D01*
X017655Y014477D01*
X017723Y014497D01*
X017791Y014514D01*
X017860Y014527D01*
X017929Y014536D01*
X017999Y014541D01*
X018070Y014542D01*
X018140Y014539D01*
X018210Y014532D01*
X018279Y014521D01*
X018347Y014506D01*
X018415Y014488D01*
X018482Y014465D01*
X018547Y014439D01*
X018610Y014409D01*
X018672Y014376D01*
X018732Y014339D01*
X018789Y014299D01*
X018845Y014256D01*
X018897Y014209D01*
X018947Y014160D01*
X018994Y014108D01*
X019038Y014053D01*
X019079Y013996D01*
X019117Y013937D01*
X019151Y013876D01*
X019182Y013813D01*
X019209Y013748D01*
X019232Y013682D01*
X019252Y013614D01*
X019268Y013546D01*
X019280Y013477D01*
X019288Y013407D01*
X019292Y013337D01*
X019292Y013267D01*
X019288Y013197D01*
X019280Y013127D01*
X019268Y013058D01*
X019252Y012990D01*
X019232Y012922D01*
X019209Y012856D01*
X019182Y012791D01*
X019151Y012728D01*
X019117Y012667D01*
X019079Y012608D01*
X019038Y012551D01*
X018994Y012496D01*
X018947Y012444D01*
X018897Y012395D01*
X018845Y012348D01*
X018789Y012305D01*
X018732Y012265D01*
X018672Y012228D01*
X018610Y012195D01*
X018547Y012165D01*
X018482Y012139D01*
X018415Y012116D01*
X018347Y012098D01*
X018279Y012083D01*
X018210Y012072D01*
X018140Y012065D01*
X018070Y012062D01*
X017999Y012063D01*
X017929Y012068D01*
X017860Y012077D01*
X017791Y012090D01*
X017723Y012107D01*
X017655Y012127D01*
X017590Y012151D01*
X017525Y012179D01*
X017463Y012211D01*
X017402Y012246D01*
X017343Y012285D01*
X017287Y012326D01*
X017233Y012371D01*
X017181Y012419D01*
X017133Y012470D01*
X017087Y012523D01*
X017045Y012579D01*
X017005Y012637D01*
X016969Y012697D01*
X016937Y012759D01*
X016908Y012823D01*
X016883Y012889D01*
X016861Y012956D01*
X016844Y013024D01*
X016830Y013092D01*
X016820Y013162D01*
X016814Y013232D01*
X016812Y013302D01*
X018546Y010952D02*
X018946Y010952D01*
X018996Y010902D01*
X020109Y010902D01*
X020159Y010952D01*
X020559Y010952D01*
X020576Y010950D01*
X020593Y010946D01*
X020609Y010939D01*
X020623Y010929D01*
X020636Y010916D01*
X020646Y010902D01*
X020653Y010886D01*
X020657Y010869D01*
X020659Y010852D01*
X020659Y010252D01*
X020657Y010235D01*
X020653Y010218D01*
X020646Y010202D01*
X020636Y010188D01*
X020623Y010175D01*
X020609Y010165D01*
X020593Y010158D01*
X020576Y010154D01*
X020559Y010152D01*
X020159Y010152D01*
X020109Y010202D01*
X018996Y010202D01*
X018946Y010152D01*
X018546Y010152D01*
X018529Y010154D01*
X018512Y010158D01*
X018496Y010165D01*
X018482Y010175D01*
X018469Y010188D01*
X018459Y010202D01*
X018452Y010218D01*
X018448Y010235D01*
X018446Y010252D01*
X018446Y010852D01*
X018448Y010869D01*
X018452Y010886D01*
X018459Y010902D01*
X018469Y010916D01*
X018482Y010929D01*
X018496Y010939D01*
X018512Y010946D01*
X018529Y010950D01*
X018546Y010952D01*
X018502Y008659D02*
X019102Y008659D01*
X019119Y008657D01*
X019136Y008653D01*
X019152Y008646D01*
X019166Y008636D01*
X019179Y008623D01*
X019189Y008609D01*
X019196Y008593D01*
X019200Y008576D01*
X019202Y008559D01*
X019202Y008159D01*
X019152Y008109D01*
X019152Y006996D01*
X019202Y006946D01*
X019202Y006546D01*
X019200Y006529D01*
X019196Y006512D01*
X019189Y006496D01*
X019179Y006482D01*
X019166Y006469D01*
X019152Y006459D01*
X019136Y006452D01*
X019119Y006448D01*
X019102Y006446D01*
X018502Y006446D01*
X018485Y006448D01*
X018468Y006452D01*
X018452Y006459D01*
X018438Y006469D01*
X018425Y006482D01*
X018415Y006496D01*
X018408Y006512D01*
X018404Y006529D01*
X018402Y006546D01*
X018402Y006946D01*
X018452Y006996D01*
X018452Y008109D01*
X018402Y008159D01*
X018402Y008559D01*
X018404Y008576D01*
X018408Y008593D01*
X018415Y008609D01*
X018425Y008623D01*
X018438Y008636D01*
X018452Y008646D01*
X018468Y008653D01*
X018485Y008657D01*
X018502Y008659D01*
X018052Y008352D02*
X017052Y008352D01*
X017052Y006752D01*
X018052Y006752D01*
X018052Y008352D01*
X019652Y008159D02*
X019652Y008559D01*
X019654Y008576D01*
X019658Y008593D01*
X019665Y008609D01*
X019675Y008623D01*
X019688Y008636D01*
X019702Y008646D01*
X019718Y008653D01*
X019735Y008657D01*
X019752Y008659D01*
X020352Y008659D01*
X020369Y008657D01*
X020386Y008653D01*
X020402Y008646D01*
X020416Y008636D01*
X020429Y008623D01*
X020439Y008609D01*
X020446Y008593D01*
X020450Y008576D01*
X020452Y008559D01*
X020452Y008159D01*
X020402Y008109D01*
X020402Y006996D01*
X020452Y006946D01*
X020452Y006546D01*
X020450Y006529D01*
X020446Y006512D01*
X020439Y006496D01*
X020429Y006482D01*
X020416Y006469D01*
X020402Y006459D01*
X020386Y006452D01*
X020369Y006448D01*
X020352Y006446D01*
X019752Y006446D01*
X019735Y006448D01*
X019718Y006452D01*
X019702Y006459D01*
X019688Y006469D01*
X019675Y006482D01*
X019665Y006496D01*
X019658Y006512D01*
X019654Y006529D01*
X019652Y006546D01*
X019652Y006946D01*
X019702Y006996D01*
X019702Y008109D01*
X019652Y008159D01*
X020902Y008159D02*
X020902Y008559D01*
X020904Y008576D01*
X020908Y008593D01*
X020915Y008609D01*
X020925Y008623D01*
X020938Y008636D01*
X020952Y008646D01*
X020968Y008653D01*
X020985Y008657D01*
X021002Y008659D01*
X021602Y008659D01*
X021619Y008657D01*
X021636Y008653D01*
X021652Y008646D01*
X021666Y008636D01*
X021679Y008623D01*
X021689Y008609D01*
X021696Y008593D01*
X021700Y008576D01*
X021702Y008559D01*
X021702Y008159D01*
X021652Y008109D01*
X021652Y006996D01*
X021702Y006946D01*
X021702Y006546D01*
X021700Y006529D01*
X021696Y006512D01*
X021689Y006496D01*
X021679Y006482D01*
X021666Y006469D01*
X021652Y006459D01*
X021636Y006452D01*
X021619Y006448D01*
X021602Y006446D01*
X021002Y006446D01*
X020985Y006448D01*
X020968Y006452D01*
X020952Y006459D01*
X020938Y006469D01*
X020925Y006482D01*
X020915Y006496D01*
X020908Y006512D01*
X020904Y006529D01*
X020902Y006546D01*
X020902Y006946D01*
X020952Y006996D01*
X020952Y008109D01*
X020902Y008159D01*
X016952Y004559D02*
X016952Y004159D01*
X016902Y004109D01*
X016902Y002996D01*
X016952Y002946D01*
X016952Y002546D01*
X016950Y002529D01*
X016946Y002512D01*
X016939Y002496D01*
X016929Y002482D01*
X016916Y002469D01*
X016902Y002459D01*
X016886Y002452D01*
X016869Y002448D01*
X016852Y002446D01*
X016252Y002446D01*
X016235Y002448D01*
X016218Y002452D01*
X016202Y002459D01*
X016188Y002469D01*
X016175Y002482D01*
X016165Y002496D01*
X016158Y002512D01*
X016154Y002529D01*
X016152Y002546D01*
X016152Y002946D01*
X016202Y002996D01*
X016202Y004109D01*
X016152Y004159D01*
X016152Y004559D01*
X016154Y004576D01*
X016158Y004593D01*
X016165Y004609D01*
X016175Y004623D01*
X016188Y004636D01*
X016202Y004646D01*
X016218Y004653D01*
X016235Y004657D01*
X016252Y004659D01*
X016852Y004659D01*
X016869Y004657D01*
X016886Y004653D01*
X016902Y004646D01*
X016916Y004636D01*
X016929Y004623D01*
X016939Y004609D01*
X016946Y004593D01*
X016950Y004576D01*
X016952Y004559D01*
X011802Y009302D02*
X011804Y009365D01*
X011810Y009427D01*
X011820Y009489D01*
X011833Y009551D01*
X011851Y009611D01*
X011872Y009670D01*
X011897Y009728D01*
X011926Y009784D01*
X011958Y009838D01*
X011993Y009890D01*
X012031Y009939D01*
X012073Y009987D01*
X012117Y010031D01*
X012165Y010073D01*
X012214Y010111D01*
X012266Y010146D01*
X012320Y010178D01*
X012376Y010207D01*
X012434Y010232D01*
X012493Y010253D01*
X012553Y010271D01*
X012615Y010284D01*
X012677Y010294D01*
X012739Y010300D01*
X012802Y010302D01*
X012865Y010300D01*
X012927Y010294D01*
X012989Y010284D01*
X013051Y010271D01*
X013111Y010253D01*
X013170Y010232D01*
X013228Y010207D01*
X013284Y010178D01*
X013338Y010146D01*
X013390Y010111D01*
X013439Y010073D01*
X013487Y010031D01*
X013531Y009987D01*
X013573Y009939D01*
X013611Y009890D01*
X013646Y009838D01*
X013678Y009784D01*
X013707Y009728D01*
X013732Y009670D01*
X013753Y009611D01*
X013771Y009551D01*
X013784Y009489D01*
X013794Y009427D01*
X013800Y009365D01*
X013802Y009302D01*
X013800Y009239D01*
X013794Y009177D01*
X013784Y009115D01*
X013771Y009053D01*
X013753Y008993D01*
X013732Y008934D01*
X013707Y008876D01*
X013678Y008820D01*
X013646Y008766D01*
X013611Y008714D01*
X013573Y008665D01*
X013531Y008617D01*
X013487Y008573D01*
X013439Y008531D01*
X013390Y008493D01*
X013338Y008458D01*
X013284Y008426D01*
X013228Y008397D01*
X013170Y008372D01*
X013111Y008351D01*
X013051Y008333D01*
X012989Y008320D01*
X012927Y008310D01*
X012865Y008304D01*
X012802Y008302D01*
X012739Y008304D01*
X012677Y008310D01*
X012615Y008320D01*
X012553Y008333D01*
X012493Y008351D01*
X012434Y008372D01*
X012376Y008397D01*
X012320Y008426D01*
X012266Y008458D01*
X012214Y008493D01*
X012165Y008531D01*
X012117Y008573D01*
X012073Y008617D01*
X012031Y008665D01*
X011993Y008714D01*
X011958Y008766D01*
X011926Y008820D01*
X011897Y008876D01*
X011872Y008934D01*
X011851Y008993D01*
X011833Y009053D01*
X011820Y009115D01*
X011810Y009177D01*
X011804Y009239D01*
X011802Y009302D01*
X010741Y010470D02*
X010741Y007635D01*
X009363Y007635D01*
X009363Y010470D01*
X010741Y010470D01*
X010352Y011946D02*
X009752Y011946D01*
X009735Y011948D01*
X009718Y011952D01*
X009702Y011959D01*
X009688Y011969D01*
X009675Y011982D01*
X009665Y011996D01*
X009658Y012012D01*
X009654Y012029D01*
X009652Y012046D01*
X009652Y012446D01*
X009702Y012496D01*
X009702Y013609D01*
X009652Y013659D01*
X009652Y014059D01*
X009654Y014076D01*
X009658Y014093D01*
X009665Y014109D01*
X009675Y014123D01*
X009688Y014136D01*
X009702Y014146D01*
X009718Y014153D01*
X009735Y014157D01*
X009752Y014159D01*
X010352Y014159D01*
X010369Y014157D01*
X010386Y014153D01*
X010402Y014146D01*
X010416Y014136D01*
X010429Y014123D01*
X010439Y014109D01*
X010446Y014093D01*
X010450Y014076D01*
X010452Y014059D01*
X010452Y013659D01*
X010402Y013609D01*
X010402Y012496D01*
X010452Y012446D01*
X010452Y012046D01*
X010450Y012029D01*
X010446Y012012D01*
X010439Y011996D01*
X010429Y011982D01*
X010416Y011969D01*
X010402Y011959D01*
X010386Y011952D01*
X010369Y011948D01*
X010352Y011946D01*
X008132Y011012D02*
X007872Y011012D01*
X008002Y010892D02*
X008002Y011142D01*
X006312Y011552D02*
X006314Y011622D01*
X006320Y011692D01*
X006330Y011762D01*
X006344Y011830D01*
X006361Y011898D01*
X006383Y011965D01*
X006408Y012031D01*
X006437Y012095D01*
X006469Y012157D01*
X006505Y012217D01*
X006545Y012275D01*
X006587Y012331D01*
X006633Y012384D01*
X006681Y012435D01*
X006733Y012483D01*
X006787Y012528D01*
X006843Y012569D01*
X006902Y012608D01*
X006963Y012643D01*
X007025Y012675D01*
X007090Y012703D01*
X007155Y012727D01*
X007223Y012747D01*
X007291Y012764D01*
X007360Y012777D01*
X007429Y012786D01*
X007499Y012791D01*
X007570Y012792D01*
X007640Y012789D01*
X007710Y012782D01*
X007779Y012771D01*
X007847Y012756D01*
X007915Y012738D01*
X007982Y012715D01*
X008047Y012689D01*
X008110Y012659D01*
X008172Y012626D01*
X008232Y012589D01*
X008289Y012549D01*
X008345Y012506D01*
X008397Y012459D01*
X008447Y012410D01*
X008494Y012358D01*
X008538Y012303D01*
X008579Y012246D01*
X008617Y012187D01*
X008651Y012126D01*
X008682Y012063D01*
X008709Y011998D01*
X008732Y011932D01*
X008752Y011864D01*
X008768Y011796D01*
X008780Y011727D01*
X008788Y011657D01*
X008792Y011587D01*
X008792Y011517D01*
X008788Y011447D01*
X008780Y011377D01*
X008768Y011308D01*
X008752Y011240D01*
X008732Y011172D01*
X008709Y011106D01*
X008682Y011041D01*
X008651Y010978D01*
X008617Y010917D01*
X008579Y010858D01*
X008538Y010801D01*
X008494Y010746D01*
X008447Y010694D01*
X008397Y010645D01*
X008345Y010598D01*
X008289Y010555D01*
X008232Y010515D01*
X008172Y010478D01*
X008110Y010445D01*
X008047Y010415D01*
X007982Y010389D01*
X007915Y010366D01*
X007847Y010348D01*
X007779Y010333D01*
X007710Y010322D01*
X007640Y010315D01*
X007570Y010312D01*
X007499Y010313D01*
X007429Y010318D01*
X007360Y010327D01*
X007291Y010340D01*
X007223Y010357D01*
X007155Y010377D01*
X007090Y010401D01*
X007025Y010429D01*
X006963Y010461D01*
X006902Y010496D01*
X006843Y010535D01*
X006787Y010576D01*
X006733Y010621D01*
X006681Y010669D01*
X006633Y010720D01*
X006587Y010773D01*
X006545Y010829D01*
X006505Y010887D01*
X006469Y010947D01*
X006437Y011009D01*
X006408Y011073D01*
X006383Y011139D01*
X006361Y011206D01*
X006344Y011274D01*
X006330Y011342D01*
X006320Y011412D01*
X006314Y011482D01*
X006312Y011552D01*
X004452Y011757D02*
X004452Y011915D01*
X003902Y011978D02*
X003902Y013627D01*
X004452Y013690D02*
X004452Y013848D01*
X004452Y012915D02*
X004452Y012690D01*
X002702Y012809D02*
X002702Y012409D01*
X002652Y012359D01*
X002652Y011246D01*
X002702Y011196D01*
X002702Y010796D01*
X002700Y010779D01*
X002696Y010762D01*
X002689Y010746D01*
X002679Y010732D01*
X002666Y010719D01*
X002652Y010709D01*
X002636Y010702D01*
X002619Y010698D01*
X002602Y010696D01*
X002002Y010696D01*
X001985Y010698D01*
X001968Y010702D01*
X001952Y010709D01*
X001938Y010719D01*
X001925Y010732D01*
X001915Y010746D01*
X001908Y010762D01*
X001904Y010779D01*
X001902Y010796D01*
X001902Y011196D01*
X001952Y011246D01*
X001952Y012359D01*
X001902Y012409D01*
X001902Y012809D01*
X001904Y012826D01*
X001908Y012843D01*
X001915Y012859D01*
X001925Y012873D01*
X001938Y012886D01*
X001952Y012896D01*
X001968Y012903D01*
X001985Y012907D01*
X002002Y012909D01*
X002602Y012909D01*
X002619Y012907D01*
X002636Y012903D01*
X002652Y012896D01*
X002666Y012886D01*
X002679Y012873D01*
X002689Y012859D01*
X002696Y012843D01*
X002700Y012826D01*
X002702Y012809D01*
X003502Y009502D02*
X003502Y008202D01*
X003502Y006902D01*
X003502Y005602D01*
X008102Y005602D01*
X008102Y006902D01*
X008102Y008202D01*
X008102Y009502D01*
X003502Y009502D01*
X003502Y008202D02*
X003702Y008202D01*
X003702Y006902D01*
X003502Y006902D01*
X004002Y006802D02*
X004602Y006802D01*
X004602Y008302D01*
X004002Y008302D01*
X004002Y006802D01*
X005002Y006802D02*
X005602Y006802D01*
X005602Y008302D01*
X005002Y008302D01*
X005002Y006802D01*
X006002Y006802D02*
X006602Y006802D01*
X006602Y008302D01*
X006002Y008302D01*
X006002Y006802D01*
X007002Y006802D02*
X007602Y006802D01*
X007602Y008302D01*
X007002Y008302D01*
X007002Y006802D01*
X007902Y006902D02*
X008102Y006902D01*
X007902Y006902D02*
X007902Y008202D01*
X008102Y008202D01*
X008752Y004659D02*
X009352Y004659D01*
X009369Y004657D01*
X009386Y004653D01*
X009402Y004646D01*
X009416Y004636D01*
X009429Y004623D01*
X009439Y004609D01*
X009446Y004593D01*
X009450Y004576D01*
X009452Y004559D01*
X009452Y004159D01*
X009402Y004109D01*
X009402Y002996D01*
X009452Y002946D01*
X009452Y002546D01*
X009450Y002529D01*
X009446Y002512D01*
X009439Y002496D01*
X009429Y002482D01*
X009416Y002469D01*
X009402Y002459D01*
X009386Y002452D01*
X009369Y002448D01*
X009352Y002446D01*
X008752Y002446D01*
X008735Y002448D01*
X008718Y002452D01*
X008702Y002459D01*
X008688Y002469D01*
X008675Y002482D01*
X008665Y002496D01*
X008658Y002512D01*
X008654Y002529D01*
X008652Y002546D01*
X008652Y002946D01*
X008702Y002996D01*
X008702Y004109D01*
X008652Y004159D01*
X008652Y004559D01*
X008654Y004576D01*
X008658Y004593D01*
X008665Y004609D01*
X008675Y004623D01*
X008688Y004636D01*
X008702Y004646D01*
X008718Y004653D01*
X008735Y004657D01*
X008752Y004659D01*
X007702Y003852D02*
X007702Y002252D01*
X007700Y002235D01*
X007696Y002218D01*
X007689Y002202D01*
X007679Y002188D01*
X007666Y002175D01*
X007652Y002165D01*
X007636Y002158D01*
X007619Y002154D01*
X007602Y002152D01*
X007002Y002152D01*
X006985Y002154D01*
X006968Y002158D01*
X006952Y002165D01*
X006938Y002175D01*
X006925Y002188D01*
X006915Y002202D01*
X006908Y002218D01*
X006904Y002235D01*
X006902Y002252D01*
X006902Y003852D01*
X006904Y003869D01*
X006908Y003886D01*
X006915Y003902D01*
X006925Y003916D01*
X006938Y003929D01*
X006952Y003939D01*
X006968Y003946D01*
X006985Y003950D01*
X007002Y003952D01*
X007602Y003952D01*
X007619Y003950D01*
X007636Y003946D01*
X007652Y003939D01*
X007666Y003929D01*
X007679Y003916D01*
X007689Y003902D01*
X007696Y003886D01*
X007700Y003869D01*
X007702Y003852D01*
X007552Y003452D02*
X007302Y003052D01*
X007552Y003052D01*
X007302Y003052D02*
X007302Y002802D01*
X007302Y003052D02*
X007052Y003052D01*
X007302Y003052D02*
X007052Y003452D01*
X007552Y003452D01*
X007302Y003652D02*
X007302Y003052D01*
X006552Y003052D02*
X006302Y003052D01*
X006052Y003052D01*
X006302Y003052D02*
X006302Y003302D01*
X006302Y003052D02*
X006552Y002652D01*
X006052Y002652D01*
X006302Y003052D01*
X006302Y002452D01*
X006002Y002152D02*
X005985Y002154D01*
X005968Y002158D01*
X005952Y002165D01*
X005938Y002175D01*
X005925Y002188D01*
X005915Y002202D01*
X005908Y002218D01*
X005904Y002235D01*
X005902Y002252D01*
X005902Y003852D01*
X005904Y003869D01*
X005908Y003886D01*
X005915Y003902D01*
X005925Y003916D01*
X005938Y003929D01*
X005952Y003939D01*
X005968Y003946D01*
X005985Y003950D01*
X006002Y003952D01*
X006602Y003952D01*
X006619Y003950D01*
X006636Y003946D01*
X006652Y003939D01*
X006666Y003929D01*
X006679Y003916D01*
X006689Y003902D01*
X006696Y003886D01*
X006700Y003869D01*
X006702Y003852D01*
X006702Y002252D01*
X006700Y002235D01*
X006696Y002218D01*
X006689Y002202D01*
X006679Y002188D01*
X006666Y002175D01*
X006652Y002165D01*
X006636Y002158D01*
X006619Y002154D01*
X006602Y002152D01*
X006002Y002152D01*
X005702Y002252D02*
X005702Y003852D01*
X005700Y003869D01*
X005696Y003886D01*
X005689Y003902D01*
X005679Y003916D01*
X005666Y003929D01*
X005652Y003939D01*
X005636Y003946D01*
X005619Y003950D01*
X005602Y003952D01*
X005002Y003952D01*
X004985Y003950D01*
X004968Y003946D01*
X004952Y003939D01*
X004938Y003929D01*
X004925Y003916D01*
X004915Y003902D01*
X004908Y003886D01*
X004904Y003869D01*
X004902Y003852D01*
X004902Y002252D01*
X004904Y002235D01*
X004908Y002218D01*
X004915Y002202D01*
X004925Y002188D01*
X004938Y002175D01*
X004952Y002165D01*
X004968Y002158D01*
X004985Y002154D01*
X005002Y002152D01*
X005602Y002152D01*
X005619Y002154D01*
X005636Y002158D01*
X005652Y002165D01*
X005666Y002175D01*
X005679Y002188D01*
X005689Y002202D01*
X005696Y002218D01*
X005700Y002235D01*
X005702Y002252D01*
X005302Y002802D02*
X005302Y003052D01*
X005552Y003052D01*
X005302Y003052D02*
X005552Y003452D01*
X005052Y003452D01*
X005302Y003052D01*
X005052Y003052D01*
X005302Y003052D02*
X005302Y003652D01*
X004702Y003852D02*
X004702Y002252D01*
X004700Y002235D01*
X004696Y002218D01*
X004689Y002202D01*
X004679Y002188D01*
X004666Y002175D01*
X004652Y002165D01*
X004636Y002158D01*
X004619Y002154D01*
X004602Y002152D01*
X004002Y002152D01*
X003985Y002154D01*
X003968Y002158D01*
X003952Y002165D01*
X003938Y002175D01*
X003925Y002188D01*
X003915Y002202D01*
X003908Y002218D01*
X003904Y002235D01*
X003902Y002252D01*
X003902Y003852D01*
X003904Y003869D01*
X003908Y003886D01*
X003915Y003902D01*
X003925Y003916D01*
X003938Y003929D01*
X003952Y003939D01*
X003968Y003946D01*
X003985Y003950D01*
X004002Y003952D01*
X004602Y003952D01*
X004619Y003950D01*
X004636Y003946D01*
X004652Y003939D01*
X004666Y003929D01*
X004679Y003916D01*
X004689Y003902D01*
X004696Y003886D01*
X004700Y003869D01*
X004702Y003852D01*
X004302Y003302D02*
X004302Y003052D01*
X004052Y003052D01*
X004302Y003052D02*
X004552Y003052D01*
X004302Y003052D02*
X004552Y002652D01*
X004052Y002652D01*
X004302Y003052D01*
X004302Y002452D01*
X020222Y013842D02*
X020482Y013842D01*
X020352Y013962D02*
X020352Y013712D01*
X019562Y013302D02*
X019564Y013372D01*
X019570Y013442D01*
X019580Y013512D01*
X019594Y013580D01*
X019611Y013648D01*
X019633Y013715D01*
X019658Y013781D01*
X019687Y013845D01*
X019719Y013907D01*
X019755Y013967D01*
X019795Y014025D01*
X019837Y014081D01*
X019883Y014134D01*
X019931Y014185D01*
X019983Y014233D01*
X020037Y014278D01*
X020093Y014319D01*
X020152Y014358D01*
X020213Y014393D01*
X020275Y014425D01*
X020340Y014453D01*
X020405Y014477D01*
X020473Y014497D01*
X020541Y014514D01*
X020610Y014527D01*
X020679Y014536D01*
X020749Y014541D01*
X020820Y014542D01*
X020890Y014539D01*
X020960Y014532D01*
X021029Y014521D01*
X021097Y014506D01*
X021165Y014488D01*
X021232Y014465D01*
X021297Y014439D01*
X021360Y014409D01*
X021422Y014376D01*
X021482Y014339D01*
X021539Y014299D01*
X021595Y014256D01*
X021647Y014209D01*
X021697Y014160D01*
X021744Y014108D01*
X021788Y014053D01*
X021829Y013996D01*
X021867Y013937D01*
X021901Y013876D01*
X021932Y013813D01*
X021959Y013748D01*
X021982Y013682D01*
X022002Y013614D01*
X022018Y013546D01*
X022030Y013477D01*
X022038Y013407D01*
X022042Y013337D01*
X022042Y013267D01*
X022038Y013197D01*
X022030Y013127D01*
X022018Y013058D01*
X022002Y012990D01*
X021982Y012922D01*
X021959Y012856D01*
X021932Y012791D01*
X021901Y012728D01*
X021867Y012667D01*
X021829Y012608D01*
X021788Y012551D01*
X021744Y012496D01*
X021697Y012444D01*
X021647Y012395D01*
X021595Y012348D01*
X021539Y012305D01*
X021482Y012265D01*
X021422Y012228D01*
X021360Y012195D01*
X021297Y012165D01*
X021232Y012139D01*
X021165Y012116D01*
X021097Y012098D01*
X021029Y012083D01*
X020960Y012072D01*
X020890Y012065D01*
X020820Y012062D01*
X020749Y012063D01*
X020679Y012068D01*
X020610Y012077D01*
X020541Y012090D01*
X020473Y012107D01*
X020405Y012127D01*
X020340Y012151D01*
X020275Y012179D01*
X020213Y012211D01*
X020152Y012246D01*
X020093Y012285D01*
X020037Y012326D01*
X019983Y012371D01*
X019931Y012419D01*
X019883Y012470D01*
X019837Y012523D01*
X019795Y012579D01*
X019755Y012637D01*
X019719Y012697D01*
X019687Y012759D01*
X019658Y012823D01*
X019633Y012889D01*
X019611Y012956D01*
X019594Y013024D01*
X019580Y013092D01*
X019570Y013162D01*
X019564Y013232D01*
X019562Y013302D01*
X010702Y018546D02*
X010702Y018946D01*
X010652Y018996D01*
X010652Y020109D01*
X010702Y020159D01*
X010702Y020559D01*
X010700Y020576D01*
X010696Y020593D01*
X010689Y020609D01*
X010679Y020623D01*
X010666Y020636D01*
X010652Y020646D01*
X010636Y020653D01*
X010619Y020657D01*
X010602Y020659D01*
X010002Y020659D01*
X009985Y020657D01*
X009968Y020653D01*
X009952Y020646D01*
X009938Y020636D01*
X009925Y020623D01*
X009915Y020609D01*
X009908Y020593D01*
X009904Y020576D01*
X009902Y020559D01*
X009902Y020159D01*
X009952Y020109D01*
X009952Y018996D01*
X009902Y018946D01*
X009902Y018546D01*
X009904Y018529D01*
X009908Y018512D01*
X009915Y018496D01*
X009925Y018482D01*
X009938Y018469D01*
X009952Y018459D01*
X009968Y018452D01*
X009985Y018448D01*
X010002Y018446D01*
X010602Y018446D01*
X010619Y018448D01*
X010636Y018452D01*
X010652Y018459D01*
X010666Y018469D01*
X010679Y018482D01*
X010689Y018496D01*
X010696Y018512D01*
X010700Y018529D01*
X010702Y018546D01*
X008632Y017762D02*
X008372Y017762D01*
X008502Y017642D02*
X008502Y017892D01*
X006812Y018302D02*
X006814Y018372D01*
X006820Y018442D01*
X006830Y018512D01*
X006844Y018580D01*
X006861Y018648D01*
X006883Y018715D01*
X006908Y018781D01*
X006937Y018845D01*
X006969Y018907D01*
X007005Y018967D01*
X007045Y019025D01*
X007087Y019081D01*
X007133Y019134D01*
X007181Y019185D01*
X007233Y019233D01*
X007287Y019278D01*
X007343Y019319D01*
X007402Y019358D01*
X007463Y019393D01*
X007525Y019425D01*
X007590Y019453D01*
X007655Y019477D01*
X007723Y019497D01*
X007791Y019514D01*
X007860Y019527D01*
X007929Y019536D01*
X007999Y019541D01*
X008070Y019542D01*
X008140Y019539D01*
X008210Y019532D01*
X008279Y019521D01*
X008347Y019506D01*
X008415Y019488D01*
X008482Y019465D01*
X008547Y019439D01*
X008610Y019409D01*
X008672Y019376D01*
X008732Y019339D01*
X008789Y019299D01*
X008845Y019256D01*
X008897Y019209D01*
X008947Y019160D01*
X008994Y019108D01*
X009038Y019053D01*
X009079Y018996D01*
X009117Y018937D01*
X009151Y018876D01*
X009182Y018813D01*
X009209Y018748D01*
X009232Y018682D01*
X009252Y018614D01*
X009268Y018546D01*
X009280Y018477D01*
X009288Y018407D01*
X009292Y018337D01*
X009292Y018267D01*
X009288Y018197D01*
X009280Y018127D01*
X009268Y018058D01*
X009252Y017990D01*
X009232Y017922D01*
X009209Y017856D01*
X009182Y017791D01*
X009151Y017728D01*
X009117Y017667D01*
X009079Y017608D01*
X009038Y017551D01*
X008994Y017496D01*
X008947Y017444D01*
X008897Y017395D01*
X008845Y017348D01*
X008789Y017305D01*
X008732Y017265D01*
X008672Y017228D01*
X008610Y017195D01*
X008547Y017165D01*
X008482Y017139D01*
X008415Y017116D01*
X008347Y017098D01*
X008279Y017083D01*
X008210Y017072D01*
X008140Y017065D01*
X008070Y017062D01*
X007999Y017063D01*
X007929Y017068D01*
X007860Y017077D01*
X007791Y017090D01*
X007723Y017107D01*
X007655Y017127D01*
X007590Y017151D01*
X007525Y017179D01*
X007463Y017211D01*
X007402Y017246D01*
X007343Y017285D01*
X007287Y017326D01*
X007233Y017371D01*
X007181Y017419D01*
X007133Y017470D01*
X007087Y017523D01*
X007045Y017579D01*
X007005Y017637D01*
X006969Y017697D01*
X006937Y017759D01*
X006908Y017823D01*
X006883Y017889D01*
X006861Y017956D01*
X006844Y018024D01*
X006830Y018092D01*
X006820Y018162D01*
X006814Y018232D01*
X006812Y018302D01*
X006220Y018991D02*
X006220Y017613D01*
X003385Y017613D01*
X003385Y018991D01*
X006220Y018991D01*
X002702Y019059D02*
X002702Y018659D01*
X002652Y018609D01*
X002652Y017496D01*
X002702Y017446D01*
X002702Y017046D01*
X002700Y017029D01*
X002696Y017012D01*
X002689Y016996D01*
X002679Y016982D01*
X002666Y016969D01*
X002652Y016959D01*
X002636Y016952D01*
X002619Y016948D01*
X002602Y016946D01*
X002002Y016946D01*
X001985Y016948D01*
X001968Y016952D01*
X001952Y016959D01*
X001938Y016969D01*
X001925Y016982D01*
X001915Y016996D01*
X001908Y017012D01*
X001904Y017029D01*
X001902Y017046D01*
X001902Y017446D01*
X001952Y017496D01*
X001952Y018609D01*
X001902Y018659D01*
X001902Y019059D01*
X001904Y019076D01*
X001908Y019093D01*
X001915Y019109D01*
X001925Y019123D01*
X001938Y019136D01*
X001952Y019146D01*
X001968Y019153D01*
X001985Y019157D01*
X002002Y019159D01*
X002602Y019159D01*
X002619Y019157D01*
X002636Y019153D01*
X002652Y019146D01*
X002666Y019136D01*
X002679Y019123D01*
X002689Y019109D01*
X002696Y019093D01*
X002700Y019076D01*
X002702Y019059D01*
D16*
X002747Y020067D02*
X002747Y020261D01*
X002747Y020362D02*
X002747Y020459D01*
X002747Y020410D02*
X003037Y020410D01*
X003037Y020362D02*
X003037Y020459D01*
X003037Y020558D02*
X003037Y020752D01*
X003037Y020558D02*
X002747Y020558D01*
X002892Y020164D02*
X002892Y020067D01*
X003037Y020067D02*
X002747Y020067D01*
X002747Y020853D02*
X002747Y021047D01*
X002747Y020950D02*
X003037Y020950D01*
X003037Y021148D02*
X002747Y021148D01*
X002747Y021341D01*
X002747Y021442D02*
X002747Y021587D01*
X002796Y021636D01*
X002892Y021636D01*
X002941Y021587D01*
X002941Y021442D01*
X003037Y021442D02*
X002747Y021442D01*
X002941Y021539D02*
X003037Y021636D01*
X003037Y021341D02*
X003037Y021148D01*
X002892Y021148D02*
X002892Y021244D01*
X002747Y016734D02*
X002747Y016541D01*
X003037Y016541D01*
X003037Y016734D01*
X002892Y016637D02*
X002892Y016541D01*
X002747Y016439D02*
X003037Y016439D01*
X003037Y016246D02*
X002747Y016246D01*
X002844Y016343D01*
X002747Y016439D01*
X002747Y016145D02*
X002989Y016145D01*
X003037Y016096D01*
X003037Y016000D01*
X002989Y015951D01*
X002747Y015951D01*
X003037Y015850D02*
X003037Y015657D01*
X002747Y015657D01*
X002796Y015555D02*
X002747Y015507D01*
X002747Y015410D01*
X002796Y015362D01*
X002989Y015362D01*
X003037Y015410D01*
X003037Y015507D01*
X002989Y015555D01*
X002796Y015555D01*
X002747Y015261D02*
X002941Y015261D01*
X003037Y015164D01*
X002941Y015067D01*
X002747Y015067D01*
X016247Y015212D02*
X016247Y015067D01*
X016537Y015067D01*
X016537Y015212D01*
X016489Y015261D01*
X016296Y015261D01*
X016247Y015212D01*
X016247Y015362D02*
X016247Y015507D01*
X016296Y015555D01*
X016392Y015555D01*
X016441Y015507D01*
X016441Y015362D01*
X016537Y015362D02*
X016247Y015362D01*
X016441Y015459D02*
X016537Y015555D01*
X016537Y015657D02*
X016537Y015753D01*
X016537Y015705D02*
X016247Y015705D01*
X016247Y015657D02*
X016247Y015753D01*
X016247Y015853D02*
X016441Y015853D01*
X016537Y015950D01*
X016441Y016047D01*
X016247Y016047D01*
X016247Y016148D02*
X016537Y016148D01*
X016537Y016341D01*
X016392Y016244D02*
X016392Y016148D01*
X016247Y016148D02*
X016247Y016341D01*
X016247Y020067D02*
X016247Y020212D01*
X016296Y020261D01*
X016392Y020261D01*
X016441Y020212D01*
X016441Y020067D01*
X016537Y020067D02*
X016247Y020067D01*
X016441Y020164D02*
X016537Y020261D01*
X016392Y020362D02*
X016392Y020555D01*
X016247Y020657D02*
X016247Y020850D01*
X016247Y020753D02*
X016537Y020753D01*
X016489Y020951D02*
X016296Y020951D01*
X016247Y021000D01*
X016247Y021096D01*
X016296Y021145D01*
X016489Y021145D01*
X016537Y021096D01*
X016537Y021000D01*
X016489Y020951D01*
X016537Y021246D02*
X016247Y021246D01*
X016537Y021439D01*
X016247Y021439D01*
X016247Y021541D02*
X016537Y021541D01*
X016537Y021734D01*
X016392Y021637D02*
X016392Y021541D01*
X016247Y021541D02*
X016247Y021734D01*
X023217Y012308D02*
X023314Y012308D01*
X023266Y012308D02*
X023266Y012017D01*
X023314Y012017D02*
X023217Y012017D01*
X023414Y012017D02*
X023414Y012308D01*
X023607Y012017D01*
X023607Y012308D01*
X024267Y011041D02*
X024267Y010848D01*
X024267Y010944D02*
X024557Y010944D01*
X024557Y009466D02*
X024461Y009369D01*
X024461Y009418D02*
X024461Y009273D01*
X024557Y009273D02*
X024267Y009273D01*
X024267Y009418D01*
X024316Y009466D01*
X024412Y009466D01*
X024461Y009418D01*
X024461Y008066D02*
X024509Y008066D01*
X024557Y008018D01*
X024557Y007921D01*
X024509Y007873D01*
X024412Y007921D02*
X024412Y008018D01*
X024461Y008066D01*
X024316Y008066D02*
X024267Y008018D01*
X024267Y007921D01*
X024316Y007873D01*
X024364Y007873D01*
X024412Y007921D01*
X019943Y003920D02*
X019838Y003850D01*
X019943Y003780D01*
X019838Y003780D02*
X019838Y003990D01*
X019757Y003920D02*
X019652Y003920D01*
X019617Y003885D01*
X019617Y003815D01*
X019652Y003780D01*
X019757Y003780D01*
X019536Y003780D02*
X019431Y003780D01*
X019396Y003815D01*
X019431Y003850D01*
X019536Y003850D01*
X019536Y003885D02*
X019536Y003780D01*
X019536Y003885D02*
X019501Y003920D01*
X019431Y003920D01*
X019315Y003990D02*
X019245Y003990D01*
X019280Y003990D02*
X019280Y003815D01*
X019245Y003780D01*
X019210Y003780D01*
X019175Y003815D01*
X018873Y003815D02*
X018838Y003780D01*
X018768Y003780D01*
X018733Y003815D01*
X018733Y003955D01*
X018768Y003990D01*
X018838Y003990D01*
X018873Y003955D01*
X018652Y003955D02*
X018652Y003815D01*
X018617Y003780D01*
X018512Y003780D01*
X018512Y003990D01*
X018617Y003990D01*
X018652Y003955D01*
X019230Y002498D02*
X019195Y002462D01*
X019195Y002322D01*
X019230Y002287D01*
X019300Y002287D01*
X019335Y002322D01*
X019335Y002462D02*
X019300Y002498D01*
X019230Y002498D01*
X020420Y002498D02*
X020420Y002287D01*
X020420Y002357D02*
X020525Y002357D01*
X020560Y002392D01*
X020560Y002462D01*
X020525Y002498D01*
X020420Y002498D01*
X018100Y002462D02*
X018065Y002498D01*
X017995Y002498D01*
X017960Y002462D01*
X017960Y002427D01*
X017995Y002392D01*
X018065Y002392D01*
X018100Y002357D01*
X018100Y002322D01*
X018065Y002287D01*
X017995Y002287D01*
X017960Y002322D01*
D17*
X022852Y007277D02*
X022852Y011827D01*
X024777Y011827D01*
X024777Y007277D01*
X022852Y007277D01*
X022802Y014802D02*
X016802Y014802D01*
X016802Y016802D01*
X022802Y016802D01*
X022802Y014802D01*
X022802Y019802D02*
X022802Y021802D01*
X016802Y021802D01*
X016802Y019802D01*
X022802Y019802D01*
X009302Y019802D02*
X009302Y021802D01*
X003302Y021802D01*
X003302Y019802D01*
X009302Y019802D01*
X009302Y016802D02*
X003302Y016802D01*
X003302Y014802D01*
X009302Y014802D01*
X009302Y016802D01*
X002552Y008302D02*
X000802Y008302D01*
X000802Y004802D01*
X002552Y004802D01*
X002552Y008302D01*
D18*
X001801Y008708D02*
X001654Y008708D01*
X001728Y008708D02*
X001728Y008487D01*
X001580Y008524D02*
X001580Y008708D01*
X001433Y008708D02*
X001433Y008524D01*
X001470Y008487D01*
X001543Y008487D01*
X001580Y008524D01*
X001359Y008524D02*
X001359Y008671D01*
X001322Y008708D01*
X001249Y008708D01*
X001212Y008671D01*
X001212Y008524D01*
X001249Y008487D01*
X001322Y008487D01*
X001359Y008524D01*
X002150Y007576D02*
X002150Y007429D01*
X002150Y007502D02*
X002370Y007502D01*
X002358Y005526D02*
X002395Y005489D01*
X002395Y005416D01*
X002358Y005379D01*
X002285Y005416D02*
X002285Y005489D01*
X002321Y005526D01*
X002358Y005526D01*
X002285Y005416D02*
X002248Y005379D01*
X002211Y005379D01*
X002175Y005416D01*
X002175Y005489D01*
X002211Y005526D01*
X003562Y015062D02*
X003709Y015062D01*
X003636Y015062D02*
X003636Y015283D01*
X003562Y015209D01*
X003562Y020062D02*
X003709Y020062D01*
X003636Y020062D02*
X003636Y020283D01*
X003562Y020209D01*
X008812Y020246D02*
X008849Y020283D01*
X008922Y020283D01*
X008959Y020246D01*
X008959Y020209D01*
X008922Y020172D01*
X008959Y020136D01*
X008959Y020099D01*
X008922Y020062D01*
X008849Y020062D01*
X008812Y020099D01*
X008886Y020172D02*
X008922Y020172D01*
X008922Y015283D02*
X008959Y015246D01*
X008959Y015209D01*
X008922Y015172D01*
X008959Y015136D01*
X008959Y015099D01*
X008922Y015062D01*
X008849Y015062D01*
X008812Y015099D01*
X008886Y015172D02*
X008922Y015172D01*
X008922Y015283D02*
X008849Y015283D01*
X008812Y015246D01*
X017062Y015209D02*
X017136Y015283D01*
X017136Y015062D01*
X017209Y015062D02*
X017062Y015062D01*
X017062Y020062D02*
X017209Y020062D01*
X017136Y020062D02*
X017136Y020283D01*
X017062Y020209D01*
X022312Y020246D02*
X022349Y020283D01*
X022422Y020283D01*
X022459Y020246D01*
X022459Y020209D01*
X022422Y020172D01*
X022459Y020136D01*
X022459Y020099D01*
X022422Y020062D01*
X022349Y020062D01*
X022312Y020099D01*
X022386Y020172D02*
X022422Y020172D01*
X022422Y015283D02*
X022459Y015246D01*
X022459Y015209D01*
X022422Y015172D01*
X022459Y015136D01*
X022459Y015099D01*
X022422Y015062D01*
X022349Y015062D01*
X022312Y015099D01*
X022386Y015172D02*
X022422Y015172D01*
X022422Y015283D02*
X022349Y015283D01*
X022312Y015246D01*
X022285Y004011D02*
X022285Y003891D01*
X022345Y003831D01*
X022405Y003891D01*
X022405Y004011D01*
X022221Y003981D02*
X022221Y003861D01*
X022191Y003831D01*
X022131Y003831D01*
X022101Y003861D01*
X022131Y003921D02*
X022221Y003921D01*
X022221Y003981D02*
X022191Y004011D01*
X022131Y004011D01*
X022101Y003981D01*
X022101Y003951D01*
X022131Y003921D01*
X022653Y003921D02*
X022743Y003921D01*
X022773Y003891D01*
X022773Y003861D01*
X022743Y003831D01*
X022653Y003831D01*
X022653Y004011D01*
X022743Y004011D01*
X022773Y003981D01*
X022773Y003951D01*
X022743Y003921D01*
X022837Y003861D02*
X022867Y003891D01*
X022957Y003891D01*
X022957Y003921D02*
X022957Y003831D01*
X022867Y003831D01*
X022837Y003861D01*
X022867Y003951D02*
X022927Y003951D01*
X022957Y003921D01*
X023021Y003951D02*
X023082Y003951D01*
X023051Y003981D02*
X023051Y003861D01*
X023082Y003831D01*
X023174Y003861D02*
X023204Y003831D01*
X023174Y003861D02*
X023174Y003981D01*
X023144Y003951D02*
X023204Y003951D01*
X023267Y003921D02*
X023297Y003951D01*
X023357Y003951D01*
X023387Y003921D01*
X023387Y003891D01*
X023267Y003891D01*
X023267Y003861D02*
X023267Y003921D01*
X023267Y003861D02*
X023297Y003831D01*
X023357Y003831D01*
X023451Y003831D02*
X023451Y003951D01*
X023451Y003891D02*
X023511Y003951D01*
X023541Y003951D01*
X023605Y003951D02*
X023605Y003861D01*
X023635Y003831D01*
X023725Y003831D01*
X023725Y003801D02*
X023695Y003771D01*
X023665Y003771D01*
X023725Y003801D02*
X023725Y003951D01*
D19*
X021302Y006371D03*
X020052Y006371D03*
X018802Y006371D03*
X016552Y004734D03*
X016552Y002371D03*
X018802Y008734D03*
X020052Y008734D03*
X021302Y008734D03*
X016302Y009121D03*
X015052Y009121D03*
X015052Y011484D03*
X016302Y011484D03*
X010052Y011871D03*
X010052Y014234D03*
X010302Y018371D03*
X010302Y020734D03*
X015552Y020984D03*
X015552Y018621D03*
X002302Y019234D03*
X002302Y016871D03*
X002302Y012984D03*
X002302Y010621D03*
X009052Y004734D03*
X009052Y002371D03*
D20*
X017552Y007002D03*
D21*
X017552Y006377D03*
X017552Y008727D03*
D22*
X012022Y010334D02*
X012076Y010262D01*
X012075Y010263D02*
X012022Y010220D01*
X011971Y010175D01*
X011923Y010126D01*
X011878Y010075D01*
X011835Y010021D01*
X011796Y009965D01*
X011760Y009907D01*
X011727Y009847D01*
X011698Y009786D01*
X011673Y009722D01*
X011651Y009658D01*
X011632Y009592D01*
X011618Y009525D01*
X011607Y009458D01*
X011600Y009390D01*
X011597Y009322D01*
X011598Y009253D01*
X011603Y009185D01*
X011611Y009117D01*
X011624Y009050D01*
X011640Y008984D01*
X011660Y008919D01*
X011683Y008854D01*
X011710Y008792D01*
X011741Y008731D01*
X011775Y008672D01*
X011812Y008614D01*
X011853Y008559D01*
X011897Y008507D01*
X011943Y008457D01*
X011992Y008410D01*
X012044Y008365D01*
X012098Y008324D01*
X012155Y008285D01*
X012214Y008250D01*
X012274Y008219D01*
X012336Y008191D01*
X012400Y008166D01*
X012465Y008145D01*
X012531Y008128D01*
X012598Y008114D01*
X012666Y008105D01*
X012734Y008099D01*
X012802Y008097D01*
X012870Y008099D01*
X012938Y008105D01*
X013006Y008114D01*
X013073Y008128D01*
X013139Y008145D01*
X013204Y008166D01*
X013268Y008191D01*
X013330Y008219D01*
X013390Y008250D01*
X013449Y008285D01*
X013506Y008324D01*
X013560Y008365D01*
X013612Y008410D01*
X013661Y008457D01*
X013707Y008507D01*
X013751Y008559D01*
X013792Y008614D01*
X013829Y008672D01*
X013863Y008731D01*
X013894Y008792D01*
X013921Y008854D01*
X013944Y008919D01*
X013964Y008984D01*
X013980Y009050D01*
X013993Y009117D01*
X014001Y009185D01*
X014006Y009253D01*
X014007Y009322D01*
X014004Y009390D01*
X013997Y009458D01*
X013986Y009525D01*
X013972Y009592D01*
X013953Y009658D01*
X013931Y009722D01*
X013906Y009786D01*
X013877Y009847D01*
X013844Y009907D01*
X013808Y009965D01*
X013769Y010021D01*
X013726Y010075D01*
X013681Y010126D01*
X013633Y010175D01*
X013582Y010220D01*
X013529Y010263D01*
X013582Y010334D01*
X013583Y010335D01*
X013638Y010291D01*
X013691Y010243D01*
X013742Y010193D01*
X013789Y010140D01*
X013833Y010085D01*
X013875Y010027D01*
X013913Y009967D01*
X013948Y009906D01*
X013979Y009842D01*
X014007Y009777D01*
X014031Y009710D01*
X014052Y009642D01*
X014068Y009573D01*
X014081Y009503D01*
X014090Y009433D01*
X014096Y009362D01*
X014097Y009291D01*
X014094Y009220D01*
X014088Y009149D01*
X014078Y009079D01*
X014064Y009010D01*
X014046Y008941D01*
X014024Y008873D01*
X013999Y008807D01*
X013970Y008742D01*
X013937Y008679D01*
X013901Y008618D01*
X013862Y008559D01*
X013820Y008502D01*
X013775Y008447D01*
X013726Y008395D01*
X013675Y008346D01*
X013622Y008299D01*
X013565Y008256D01*
X013507Y008216D01*
X013446Y008179D01*
X013384Y008145D01*
X013320Y008115D01*
X013254Y008088D01*
X013187Y008065D01*
X013118Y008046D01*
X013049Y008031D01*
X012979Y008019D01*
X012908Y008011D01*
X012837Y008007D01*
X012767Y008007D01*
X012696Y008011D01*
X012625Y008019D01*
X012555Y008031D01*
X012486Y008046D01*
X012417Y008065D01*
X012350Y008088D01*
X012284Y008115D01*
X012220Y008145D01*
X012158Y008179D01*
X012097Y008216D01*
X012039Y008256D01*
X011982Y008299D01*
X011929Y008346D01*
X011878Y008395D01*
X011829Y008447D01*
X011784Y008502D01*
X011742Y008559D01*
X011703Y008618D01*
X011667Y008679D01*
X011634Y008742D01*
X011605Y008807D01*
X011580Y008873D01*
X011558Y008941D01*
X011540Y009010D01*
X011526Y009079D01*
X011516Y009149D01*
X011510Y009220D01*
X011507Y009291D01*
X011508Y009362D01*
X011514Y009433D01*
X011523Y009503D01*
X011536Y009573D01*
X011552Y009642D01*
X011573Y009710D01*
X011597Y009777D01*
X011625Y009842D01*
X011656Y009906D01*
X011691Y009967D01*
X011729Y010027D01*
X011771Y010085D01*
X011815Y010140D01*
X011862Y010193D01*
X011913Y010243D01*
X011966Y010291D01*
X012021Y010335D01*
X012026Y010328D01*
X011971Y010283D01*
X011918Y010236D01*
X011867Y010185D01*
X011820Y010132D01*
X011775Y010076D01*
X011734Y010018D01*
X011696Y009958D01*
X011661Y009896D01*
X011630Y009832D01*
X011603Y009766D01*
X011579Y009699D01*
X011559Y009630D01*
X011542Y009561D01*
X011530Y009491D01*
X011521Y009420D01*
X011517Y009349D01*
X011516Y009278D01*
X011520Y009207D01*
X011527Y009136D01*
X011538Y009065D01*
X011553Y008996D01*
X011572Y008927D01*
X011595Y008859D01*
X011621Y008793D01*
X011651Y008728D01*
X011685Y008666D01*
X011721Y008605D01*
X011762Y008546D01*
X011805Y008489D01*
X011852Y008435D01*
X011901Y008384D01*
X011954Y008336D01*
X012008Y008290D01*
X012066Y008248D01*
X012125Y008209D01*
X012187Y008173D01*
X012250Y008140D01*
X012315Y008112D01*
X012382Y008086D01*
X012450Y008065D01*
X012519Y008047D01*
X012589Y008034D01*
X012660Y008024D01*
X012731Y008018D01*
X012802Y008016D01*
X012873Y008018D01*
X012944Y008024D01*
X013015Y008034D01*
X013085Y008047D01*
X013154Y008065D01*
X013222Y008086D01*
X013289Y008112D01*
X013354Y008140D01*
X013417Y008173D01*
X013479Y008209D01*
X013538Y008248D01*
X013596Y008290D01*
X013650Y008336D01*
X013703Y008384D01*
X013752Y008435D01*
X013799Y008489D01*
X013842Y008546D01*
X013883Y008605D01*
X013919Y008666D01*
X013953Y008728D01*
X013983Y008793D01*
X014009Y008859D01*
X014032Y008927D01*
X014051Y008996D01*
X014066Y009065D01*
X014077Y009136D01*
X014084Y009207D01*
X014088Y009278D01*
X014087Y009349D01*
X014083Y009420D01*
X014074Y009491D01*
X014062Y009561D01*
X014045Y009630D01*
X014025Y009699D01*
X014001Y009766D01*
X013974Y009832D01*
X013943Y009896D01*
X013908Y009958D01*
X013870Y010018D01*
X013829Y010076D01*
X013784Y010132D01*
X013737Y010185D01*
X013686Y010236D01*
X013633Y010283D01*
X013578Y010328D01*
X013572Y010321D01*
X013627Y010276D01*
X013680Y010229D01*
X013730Y010179D01*
X013777Y010126D01*
X013821Y010071D01*
X013863Y010013D01*
X013900Y009954D01*
X013935Y009892D01*
X013966Y009828D01*
X013993Y009763D01*
X014017Y009696D01*
X014037Y009628D01*
X014053Y009559D01*
X014065Y009490D01*
X014074Y009419D01*
X014078Y009349D01*
X014079Y009278D01*
X014075Y009207D01*
X014068Y009137D01*
X014057Y009067D01*
X014042Y008998D01*
X014023Y008930D01*
X014001Y008862D01*
X013975Y008797D01*
X013945Y008732D01*
X013912Y008670D01*
X013875Y008610D01*
X013835Y008551D01*
X013792Y008495D01*
X013746Y008441D01*
X013696Y008391D01*
X013645Y008342D01*
X013590Y008297D01*
X013533Y008255D01*
X013474Y008216D01*
X013413Y008181D01*
X013350Y008148D01*
X013285Y008120D01*
X013219Y008095D01*
X013151Y008074D01*
X013083Y008056D01*
X013013Y008043D01*
X012943Y008033D01*
X012873Y008027D01*
X012802Y008025D01*
X012731Y008027D01*
X012661Y008033D01*
X012591Y008043D01*
X012521Y008056D01*
X012453Y008074D01*
X012385Y008095D01*
X012319Y008120D01*
X012254Y008148D01*
X012191Y008181D01*
X012130Y008216D01*
X012071Y008255D01*
X012014Y008297D01*
X011959Y008342D01*
X011908Y008391D01*
X011858Y008441D01*
X011812Y008495D01*
X011769Y008551D01*
X011729Y008610D01*
X011692Y008670D01*
X011659Y008732D01*
X011629Y008797D01*
X011603Y008862D01*
X011581Y008930D01*
X011562Y008998D01*
X011547Y009067D01*
X011536Y009137D01*
X011529Y009207D01*
X011525Y009278D01*
X011526Y009349D01*
X011530Y009419D01*
X011539Y009490D01*
X011551Y009559D01*
X011567Y009628D01*
X011587Y009696D01*
X011611Y009763D01*
X011638Y009828D01*
X011669Y009892D01*
X011704Y009954D01*
X011741Y010013D01*
X011783Y010071D01*
X011827Y010126D01*
X011874Y010179D01*
X011924Y010229D01*
X011977Y010276D01*
X012032Y010321D01*
X012037Y010313D01*
X011982Y010269D01*
X011929Y010221D01*
X011879Y010171D01*
X011831Y010118D01*
X011787Y010062D01*
X011746Y010004D01*
X011709Y009944D01*
X011674Y009882D01*
X011644Y009818D01*
X011617Y009752D01*
X011593Y009685D01*
X011574Y009617D01*
X011558Y009547D01*
X011546Y009477D01*
X011538Y009407D01*
X011534Y009336D01*
X011535Y009265D01*
X011539Y009194D01*
X011547Y009123D01*
X011559Y009053D01*
X011575Y008984D01*
X011594Y008916D01*
X011618Y008848D01*
X011645Y008783D01*
X011676Y008719D01*
X011710Y008657D01*
X011748Y008597D01*
X011790Y008539D01*
X011834Y008483D01*
X011881Y008430D01*
X011932Y008380D01*
X011985Y008333D01*
X012040Y008288D01*
X012098Y008247D01*
X012158Y008210D01*
X012221Y008175D01*
X012285Y008144D01*
X012350Y008117D01*
X012417Y008094D01*
X012486Y008074D01*
X012555Y008058D01*
X012625Y008046D01*
X012696Y008038D01*
X012766Y008034D01*
X012838Y008034D01*
X012908Y008038D01*
X012979Y008046D01*
X013049Y008058D01*
X013118Y008074D01*
X013187Y008094D01*
X013254Y008117D01*
X013319Y008144D01*
X013383Y008175D01*
X013446Y008210D01*
X013506Y008247D01*
X013564Y008288D01*
X013619Y008333D01*
X013672Y008380D01*
X013723Y008430D01*
X013770Y008483D01*
X013814Y008539D01*
X013856Y008597D01*
X013894Y008657D01*
X013928Y008719D01*
X013959Y008783D01*
X013986Y008848D01*
X014010Y008916D01*
X014029Y008984D01*
X014045Y009053D01*
X014057Y009123D01*
X014065Y009194D01*
X014069Y009265D01*
X014070Y009336D01*
X014066Y009407D01*
X014058Y009477D01*
X014046Y009547D01*
X014030Y009617D01*
X014011Y009685D01*
X013987Y009752D01*
X013960Y009818D01*
X013930Y009882D01*
X013895Y009944D01*
X013858Y010004D01*
X013817Y010062D01*
X013773Y010118D01*
X013725Y010171D01*
X013675Y010221D01*
X013622Y010269D01*
X013567Y010313D01*
X013561Y010306D01*
X013616Y010262D01*
X013669Y010215D01*
X013719Y010165D01*
X013766Y010112D01*
X013810Y010057D01*
X013850Y009999D01*
X013888Y009940D01*
X013922Y009878D01*
X013952Y009814D01*
X013979Y009749D01*
X014002Y009682D01*
X014022Y009614D01*
X014037Y009546D01*
X014049Y009476D01*
X014057Y009406D01*
X014061Y009335D01*
X014060Y009265D01*
X014056Y009194D01*
X014048Y009124D01*
X014036Y009055D01*
X014021Y008986D01*
X014001Y008918D01*
X013978Y008852D01*
X013951Y008787D01*
X013920Y008723D01*
X013886Y008661D01*
X013848Y008602D01*
X013807Y008544D01*
X013763Y008489D01*
X013716Y008436D01*
X013666Y008387D01*
X013614Y008340D01*
X013558Y008296D01*
X013501Y008255D01*
X013441Y008217D01*
X013379Y008183D01*
X013316Y008153D01*
X013251Y008126D01*
X013184Y008102D01*
X013116Y008083D01*
X013047Y008067D01*
X012978Y008055D01*
X012908Y008047D01*
X012837Y008043D01*
X012767Y008043D01*
X012696Y008047D01*
X012626Y008055D01*
X012557Y008067D01*
X012488Y008083D01*
X012420Y008102D01*
X012353Y008126D01*
X012288Y008153D01*
X012225Y008183D01*
X012163Y008217D01*
X012103Y008255D01*
X012046Y008296D01*
X011990Y008340D01*
X011938Y008387D01*
X011888Y008436D01*
X011841Y008489D01*
X011797Y008544D01*
X011756Y008602D01*
X011718Y008661D01*
X011684Y008723D01*
X011653Y008787D01*
X011626Y008852D01*
X011603Y008918D01*
X011583Y008986D01*
X011568Y009055D01*
X011556Y009124D01*
X011548Y009194D01*
X011544Y009265D01*
X011543Y009335D01*
X011547Y009406D01*
X011555Y009476D01*
X011567Y009546D01*
X011582Y009614D01*
X011602Y009682D01*
X011625Y009749D01*
X011652Y009814D01*
X011682Y009878D01*
X011716Y009940D01*
X011754Y009999D01*
X011794Y010057D01*
X011838Y010112D01*
X011885Y010165D01*
X011935Y010215D01*
X011988Y010262D01*
X012043Y010306D01*
X012048Y010299D01*
X011993Y010255D01*
X011941Y010208D01*
X011892Y010159D01*
X011845Y010106D01*
X011802Y010052D01*
X011761Y009994D01*
X011724Y009935D01*
X011690Y009874D01*
X011660Y009810D01*
X011633Y009746D01*
X011610Y009679D01*
X011591Y009612D01*
X011576Y009544D01*
X011564Y009475D01*
X011556Y009405D01*
X011552Y009335D01*
X011553Y009265D01*
X011557Y009195D01*
X011565Y009126D01*
X011576Y009057D01*
X011592Y008988D01*
X011611Y008921D01*
X011635Y008855D01*
X011662Y008790D01*
X011692Y008727D01*
X011726Y008666D01*
X011763Y008607D01*
X011804Y008549D01*
X011848Y008495D01*
X011894Y008443D01*
X011944Y008393D01*
X011996Y008346D01*
X012051Y008303D01*
X012108Y008262D01*
X012167Y008225D01*
X012229Y008191D01*
X012292Y008161D01*
X012357Y008134D01*
X012423Y008111D01*
X012490Y008092D01*
X012558Y008076D01*
X012627Y008064D01*
X012697Y008056D01*
X012767Y008052D01*
X012837Y008052D01*
X012907Y008056D01*
X012977Y008064D01*
X013046Y008076D01*
X013114Y008092D01*
X013181Y008111D01*
X013247Y008134D01*
X013312Y008161D01*
X013375Y008191D01*
X013437Y008225D01*
X013496Y008262D01*
X013553Y008303D01*
X013608Y008346D01*
X013660Y008393D01*
X013710Y008443D01*
X013756Y008495D01*
X013800Y008549D01*
X013841Y008607D01*
X013878Y008666D01*
X013912Y008727D01*
X013942Y008790D01*
X013969Y008855D01*
X013993Y008921D01*
X014012Y008988D01*
X014028Y009057D01*
X014039Y009126D01*
X014047Y009195D01*
X014051Y009265D01*
X014052Y009335D01*
X014048Y009405D01*
X014040Y009475D01*
X014028Y009544D01*
X014013Y009612D01*
X013994Y009679D01*
X013971Y009746D01*
X013944Y009810D01*
X013914Y009874D01*
X013880Y009935D01*
X013843Y009994D01*
X013802Y010052D01*
X013759Y010106D01*
X013712Y010159D01*
X013663Y010208D01*
X013611Y010255D01*
X013556Y010299D01*
X013551Y010292D01*
X013605Y010248D01*
X013657Y010202D01*
X013706Y010153D01*
X013752Y010101D01*
X013795Y010046D01*
X013835Y009989D01*
X013872Y009930D01*
X013906Y009869D01*
X013936Y009807D01*
X013962Y009742D01*
X013985Y009677D01*
X014004Y009610D01*
X014020Y009542D01*
X014031Y009473D01*
X014039Y009404D01*
X014043Y009335D01*
X014042Y009265D01*
X014038Y009196D01*
X014031Y009127D01*
X014019Y009058D01*
X014003Y008991D01*
X013984Y008924D01*
X013961Y008858D01*
X013934Y008794D01*
X013904Y008731D01*
X013870Y008670D01*
X013833Y008612D01*
X013793Y008555D01*
X013750Y008501D01*
X013703Y008449D01*
X013654Y008400D01*
X013602Y008353D01*
X013548Y008310D01*
X013491Y008270D01*
X013432Y008233D01*
X013371Y008199D01*
X013308Y008169D01*
X013244Y008142D01*
X013179Y008119D01*
X013112Y008100D01*
X013044Y008085D01*
X012975Y008073D01*
X012906Y008065D01*
X012837Y008061D01*
X012767Y008061D01*
X012698Y008065D01*
X012629Y008073D01*
X012560Y008085D01*
X012492Y008100D01*
X012425Y008119D01*
X012360Y008142D01*
X012296Y008169D01*
X012233Y008199D01*
X012172Y008233D01*
X012113Y008270D01*
X012056Y008310D01*
X012002Y008353D01*
X011950Y008400D01*
X011901Y008449D01*
X011854Y008501D01*
X011811Y008555D01*
X011771Y008612D01*
X011734Y008670D01*
X011700Y008731D01*
X011670Y008794D01*
X011643Y008858D01*
X011620Y008924D01*
X011601Y008991D01*
X011585Y009058D01*
X011573Y009127D01*
X011566Y009196D01*
X011562Y009265D01*
X011561Y009335D01*
X011565Y009404D01*
X011573Y009473D01*
X011584Y009542D01*
X011600Y009610D01*
X011619Y009677D01*
X011642Y009742D01*
X011668Y009807D01*
X011698Y009869D01*
X011732Y009930D01*
X011769Y009989D01*
X011809Y010046D01*
X011852Y010101D01*
X011898Y010153D01*
X011947Y010202D01*
X011999Y010248D01*
X012053Y010292D01*
X012059Y010285D01*
X012005Y010241D01*
X011954Y010195D01*
X011905Y010146D01*
X011859Y010095D01*
X011816Y010041D01*
X011776Y009984D01*
X011740Y009926D01*
X011706Y009865D01*
X011676Y009803D01*
X011650Y009739D01*
X011628Y009674D01*
X011609Y009608D01*
X011593Y009540D01*
X011582Y009472D01*
X011574Y009404D01*
X011570Y009335D01*
X011571Y009266D01*
X011575Y009197D01*
X011582Y009128D01*
X011594Y009060D01*
X011609Y008993D01*
X011629Y008926D01*
X011652Y008861D01*
X011678Y008798D01*
X011708Y008735D01*
X011741Y008675D01*
X011778Y008617D01*
X011818Y008560D01*
X011861Y008506D01*
X011907Y008455D01*
X011956Y008406D01*
X012008Y008360D01*
X012062Y008317D01*
X012118Y008277D01*
X012177Y008241D01*
X012237Y008207D01*
X012299Y008177D01*
X012363Y008151D01*
X012428Y008128D01*
X012495Y008109D01*
X012562Y008094D01*
X012630Y008082D01*
X012699Y008074D01*
X012767Y008070D01*
X012837Y008070D01*
X012905Y008074D01*
X012974Y008082D01*
X013042Y008094D01*
X013109Y008109D01*
X013176Y008128D01*
X013241Y008151D01*
X013305Y008177D01*
X013367Y008207D01*
X013427Y008241D01*
X013486Y008277D01*
X013542Y008317D01*
X013596Y008360D01*
X013648Y008406D01*
X013697Y008455D01*
X013743Y008506D01*
X013786Y008560D01*
X013826Y008617D01*
X013863Y008675D01*
X013896Y008735D01*
X013926Y008798D01*
X013952Y008861D01*
X013975Y008926D01*
X013995Y008993D01*
X014010Y009060D01*
X014022Y009128D01*
X014029Y009197D01*
X014033Y009266D01*
X014034Y009335D01*
X014030Y009404D01*
X014022Y009472D01*
X014011Y009540D01*
X013995Y009608D01*
X013976Y009674D01*
X013954Y009739D01*
X013928Y009803D01*
X013898Y009865D01*
X013864Y009926D01*
X013828Y009984D01*
X013788Y010041D01*
X013745Y010095D01*
X013699Y010146D01*
X013650Y010195D01*
X013599Y010241D01*
X013545Y010285D01*
X013540Y010277D01*
X013594Y010234D01*
X013645Y010188D01*
X013694Y010138D01*
X013740Y010087D01*
X013783Y010032D01*
X013823Y009975D01*
X013859Y009917D01*
X013893Y009856D01*
X013922Y009793D01*
X013948Y009729D01*
X013970Y009663D01*
X013989Y009596D01*
X014004Y009529D01*
X014015Y009460D01*
X014022Y009391D01*
X014025Y009322D01*
X014024Y009253D01*
X014019Y009183D01*
X014011Y009115D01*
X013998Y009047D01*
X013982Y008979D01*
X013961Y008913D01*
X013938Y008848D01*
X013910Y008784D01*
X013879Y008722D01*
X013844Y008662D01*
X013806Y008604D01*
X013765Y008548D01*
X013721Y008495D01*
X013674Y008444D01*
X013624Y008396D01*
X013571Y008351D01*
X013516Y008309D01*
X013459Y008270D01*
X013399Y008235D01*
X013338Y008203D01*
X013275Y008174D01*
X013210Y008149D01*
X013144Y008128D01*
X013077Y008110D01*
X013009Y008097D01*
X012940Y008087D01*
X012871Y008081D01*
X012802Y008079D01*
X012733Y008081D01*
X012664Y008087D01*
X012595Y008097D01*
X012527Y008110D01*
X012460Y008128D01*
X012394Y008149D01*
X012329Y008174D01*
X012266Y008203D01*
X012205Y008235D01*
X012145Y008270D01*
X012088Y008309D01*
X012033Y008351D01*
X011980Y008396D01*
X011930Y008444D01*
X011883Y008495D01*
X011839Y008548D01*
X011798Y008604D01*
X011760Y008662D01*
X011725Y008722D01*
X011694Y008784D01*
X011666Y008848D01*
X011643Y008913D01*
X011622Y008979D01*
X011606Y009047D01*
X011593Y009115D01*
X011585Y009183D01*
X011580Y009253D01*
X011579Y009322D01*
X011582Y009391D01*
X011589Y009460D01*
X011600Y009529D01*
X011615Y009596D01*
X011634Y009663D01*
X011656Y009729D01*
X011682Y009793D01*
X011711Y009856D01*
X011745Y009917D01*
X011781Y009975D01*
X011821Y010032D01*
X011864Y010087D01*
X011910Y010138D01*
X011959Y010188D01*
X012010Y010234D01*
X012064Y010277D01*
X012070Y010270D01*
X012016Y010227D01*
X011965Y010181D01*
X011916Y010132D01*
X011871Y010081D01*
X011828Y010027D01*
X011789Y009970D01*
X011752Y009912D01*
X011719Y009852D01*
X011690Y009789D01*
X011664Y009726D01*
X011642Y009660D01*
X011624Y009594D01*
X011609Y009527D01*
X011598Y009459D01*
X011591Y009390D01*
X011588Y009322D01*
X011589Y009253D01*
X011594Y009184D01*
X011602Y009116D01*
X011615Y009048D01*
X011631Y008982D01*
X011651Y008916D01*
X011675Y008851D01*
X011702Y008788D01*
X011733Y008727D01*
X011767Y008667D01*
X011805Y008609D01*
X011846Y008554D01*
X011890Y008501D01*
X011937Y008451D01*
X011986Y008403D01*
X012038Y008358D01*
X012093Y008316D01*
X012150Y008278D01*
X012209Y008243D01*
X012270Y008211D01*
X012333Y008182D01*
X012397Y008158D01*
X012463Y008136D01*
X012529Y008119D01*
X012597Y008106D01*
X012665Y008096D01*
X012733Y008090D01*
X012802Y008088D01*
X012871Y008090D01*
X012939Y008096D01*
X013007Y008106D01*
X013075Y008119D01*
X013141Y008136D01*
X013207Y008158D01*
X013271Y008182D01*
X013334Y008211D01*
X013395Y008243D01*
X013454Y008278D01*
X013511Y008316D01*
X013566Y008358D01*
X013618Y008403D01*
X013667Y008451D01*
X013714Y008501D01*
X013758Y008554D01*
X013799Y008609D01*
X013837Y008667D01*
X013871Y008727D01*
X013902Y008788D01*
X013929Y008851D01*
X013953Y008916D01*
X013973Y008982D01*
X013989Y009048D01*
X014002Y009116D01*
X014010Y009184D01*
X014015Y009253D01*
X014016Y009322D01*
X014013Y009390D01*
X014006Y009459D01*
X013995Y009527D01*
X013980Y009594D01*
X013962Y009660D01*
X013940Y009726D01*
X013914Y009789D01*
X013885Y009852D01*
X013852Y009912D01*
X013815Y009970D01*
X013776Y010027D01*
X013733Y010081D01*
X013688Y010132D01*
X013639Y010181D01*
X013588Y010227D01*
X013534Y010270D01*
X003891Y011955D02*
X003922Y011994D01*
X003921Y011994D02*
X003971Y011957D01*
X004023Y011924D01*
X004077Y011894D01*
X004133Y011867D01*
X004190Y011843D01*
X004248Y011823D01*
X004308Y011807D01*
X004368Y011794D01*
X004429Y011784D01*
X004491Y011779D01*
X004553Y011777D01*
X004614Y011779D01*
X004676Y011785D01*
X004737Y011794D01*
X004797Y011807D01*
X004857Y011823D01*
X004915Y011844D01*
X004972Y011867D01*
X005028Y011894D01*
X005082Y011925D01*
X005134Y011958D01*
X005183Y011995D01*
X005231Y012034D01*
X005276Y012076D01*
X005318Y012121D01*
X005358Y012169D01*
X005395Y012218D01*
X005428Y012270D01*
X005459Y012324D01*
X005486Y012380D01*
X005510Y012437D01*
X005530Y012495D01*
X005577Y012481D01*
X005578Y012480D01*
X005556Y012419D01*
X005532Y012359D01*
X005503Y012301D01*
X005471Y012245D01*
X005436Y012190D01*
X005397Y012138D01*
X005356Y012088D01*
X005311Y012041D01*
X005264Y011997D01*
X005214Y011955D01*
X005162Y011917D01*
X005108Y011882D01*
X005051Y011850D01*
X004993Y011822D01*
X004933Y011797D01*
X004872Y011776D01*
X004809Y011758D01*
X004746Y011745D01*
X004682Y011735D01*
X004617Y011729D01*
X004552Y011727D01*
X004488Y011729D01*
X004423Y011735D01*
X004359Y011744D01*
X004296Y011758D01*
X004233Y011775D01*
X004172Y011796D01*
X004112Y011821D01*
X004054Y011849D01*
X003997Y011881D01*
X003943Y011916D01*
X003890Y011955D01*
X003896Y011962D01*
X003948Y011924D01*
X004002Y011889D01*
X004058Y011857D01*
X004116Y011829D01*
X004175Y011805D01*
X004236Y011784D01*
X004298Y011767D01*
X004361Y011753D01*
X004424Y011744D01*
X004488Y011738D01*
X004552Y011736D01*
X004617Y011738D01*
X004681Y011744D01*
X004744Y011753D01*
X004807Y011767D01*
X004869Y011784D01*
X004930Y011805D01*
X004989Y011830D01*
X005047Y011858D01*
X005103Y011889D01*
X005157Y011924D01*
X005209Y011962D01*
X005258Y012003D01*
X005305Y012047D01*
X005349Y012094D01*
X005390Y012144D01*
X005428Y012195D01*
X005463Y012249D01*
X005495Y012305D01*
X005523Y012363D01*
X005548Y012422D01*
X005569Y012483D01*
X005561Y012486D01*
X005540Y012425D01*
X005515Y012367D01*
X005487Y012309D01*
X005456Y012254D01*
X005421Y012200D01*
X005383Y012149D01*
X005342Y012100D01*
X005299Y012054D01*
X005252Y012010D01*
X005203Y011969D01*
X005152Y011932D01*
X005098Y011897D01*
X005043Y011866D01*
X004985Y011838D01*
X004927Y011814D01*
X004866Y011793D01*
X004805Y011776D01*
X004743Y011762D01*
X004680Y011753D01*
X004616Y011747D01*
X004553Y011745D01*
X004489Y011747D01*
X004425Y011753D01*
X004362Y011762D01*
X004300Y011775D01*
X004239Y011793D01*
X004178Y011813D01*
X004119Y011838D01*
X004062Y011865D01*
X004007Y011897D01*
X003953Y011931D01*
X003902Y011969D01*
X003907Y011976D01*
X003958Y011939D01*
X004011Y011904D01*
X004066Y011873D01*
X004123Y011846D01*
X004182Y011822D01*
X004241Y011801D01*
X004302Y011784D01*
X004364Y011771D01*
X004426Y011762D01*
X004489Y011756D01*
X004553Y011754D01*
X004616Y011756D01*
X004679Y011762D01*
X004741Y011771D01*
X004803Y011784D01*
X004864Y011801D01*
X004923Y011822D01*
X004982Y011846D01*
X005039Y011874D01*
X005094Y011905D01*
X005147Y011939D01*
X005198Y011977D01*
X005246Y012017D01*
X005292Y012060D01*
X005336Y012106D01*
X005376Y012155D01*
X005414Y012205D01*
X005448Y012258D01*
X005479Y012313D01*
X005507Y012370D01*
X005531Y012429D01*
X005552Y012488D01*
X005543Y012491D01*
X005523Y012432D01*
X005499Y012374D01*
X005471Y012318D01*
X005440Y012263D01*
X005406Y012211D01*
X005369Y012160D01*
X005329Y012112D01*
X005286Y012067D01*
X005240Y012024D01*
X005192Y011984D01*
X005142Y011946D01*
X005089Y011913D01*
X005034Y011882D01*
X004978Y011854D01*
X004920Y011830D01*
X004861Y011810D01*
X004801Y011793D01*
X004739Y011780D01*
X004678Y011771D01*
X004615Y011765D01*
X004553Y011763D01*
X004490Y011765D01*
X004428Y011770D01*
X004366Y011780D01*
X004304Y011793D01*
X004244Y011810D01*
X004185Y011830D01*
X004127Y011854D01*
X004071Y011881D01*
X004016Y011912D01*
X003963Y011946D01*
X003913Y011983D01*
X003918Y011990D01*
X003968Y011953D01*
X004021Y011920D01*
X004075Y011889D01*
X004131Y011862D01*
X004188Y011838D01*
X004247Y011818D01*
X004307Y011802D01*
X004367Y011789D01*
X004429Y011779D01*
X004490Y011774D01*
X004553Y011772D01*
X004615Y011774D01*
X004676Y011780D01*
X004738Y011789D01*
X004799Y011802D01*
X004858Y011819D01*
X004917Y011839D01*
X004974Y011863D01*
X005030Y011890D01*
X005084Y011920D01*
X005136Y011954D01*
X005187Y011991D01*
X005234Y012030D01*
X005280Y012073D01*
X005322Y012118D01*
X005362Y012166D01*
X005399Y012216D01*
X005433Y012268D01*
X005463Y012322D01*
X005490Y012378D01*
X005514Y012435D01*
X005535Y012494D01*
X005577Y013124D02*
X005529Y013110D01*
X005530Y013110D02*
X005510Y013168D01*
X005486Y013225D01*
X005459Y013281D01*
X005428Y013335D01*
X005395Y013387D01*
X005358Y013436D01*
X005318Y013484D01*
X005276Y013529D01*
X005231Y013571D01*
X005183Y013610D01*
X005134Y013647D01*
X005082Y013680D01*
X005028Y013711D01*
X004972Y013738D01*
X004915Y013761D01*
X004857Y013782D01*
X004797Y013798D01*
X004737Y013811D01*
X004676Y013820D01*
X004614Y013826D01*
X004553Y013828D01*
X004491Y013826D01*
X004429Y013821D01*
X004368Y013811D01*
X004308Y013798D01*
X004248Y013782D01*
X004190Y013762D01*
X004133Y013738D01*
X004077Y013711D01*
X004023Y013681D01*
X003971Y013648D01*
X003921Y013611D01*
X003891Y013650D01*
X003890Y013650D01*
X003943Y013689D01*
X003997Y013724D01*
X004054Y013756D01*
X004112Y013784D01*
X004172Y013809D01*
X004233Y013830D01*
X004296Y013847D01*
X004359Y013861D01*
X004423Y013870D01*
X004488Y013876D01*
X004552Y013878D01*
X004617Y013876D01*
X004682Y013870D01*
X004746Y013860D01*
X004809Y013847D01*
X004872Y013829D01*
X004933Y013808D01*
X004993Y013783D01*
X005051Y013755D01*
X005108Y013723D01*
X005162Y013688D01*
X005214Y013650D01*
X005264Y013608D01*
X005311Y013564D01*
X005356Y013517D01*
X005397Y013467D01*
X005436Y013415D01*
X005471Y013360D01*
X005503Y013304D01*
X005532Y013246D01*
X005556Y013186D01*
X005578Y013125D01*
X005569Y013122D01*
X005548Y013183D01*
X005523Y013242D01*
X005495Y013300D01*
X005463Y013356D01*
X005428Y013410D01*
X005390Y013461D01*
X005349Y013511D01*
X005305Y013558D01*
X005258Y013602D01*
X005209Y013643D01*
X005157Y013681D01*
X005103Y013716D01*
X005047Y013747D01*
X004989Y013775D01*
X004930Y013800D01*
X004869Y013821D01*
X004807Y013838D01*
X004744Y013852D01*
X004681Y013861D01*
X004617Y013867D01*
X004552Y013869D01*
X004488Y013867D01*
X004424Y013861D01*
X004361Y013852D01*
X004298Y013838D01*
X004236Y013821D01*
X004175Y013800D01*
X004116Y013776D01*
X004058Y013748D01*
X004002Y013716D01*
X003948Y013681D01*
X003896Y013643D01*
X003902Y013636D01*
X003953Y013674D01*
X004007Y013708D01*
X004062Y013740D01*
X004119Y013767D01*
X004178Y013792D01*
X004239Y013812D01*
X004300Y013830D01*
X004362Y013843D01*
X004425Y013852D01*
X004489Y013858D01*
X004553Y013860D01*
X004616Y013858D01*
X004680Y013852D01*
X004743Y013843D01*
X004805Y013829D01*
X004866Y013812D01*
X004927Y013791D01*
X004985Y013767D01*
X005043Y013739D01*
X005098Y013708D01*
X005152Y013673D01*
X005203Y013636D01*
X005252Y013595D01*
X005299Y013551D01*
X005342Y013505D01*
X005383Y013456D01*
X005421Y013405D01*
X005456Y013351D01*
X005487Y013296D01*
X005515Y013238D01*
X005540Y013180D01*
X005561Y013119D01*
X005552Y013117D01*
X005531Y013176D01*
X005507Y013235D01*
X005479Y013292D01*
X005448Y013347D01*
X005414Y013400D01*
X005376Y013450D01*
X005336Y013499D01*
X005292Y013545D01*
X005246Y013588D01*
X005198Y013628D01*
X005147Y013666D01*
X005094Y013700D01*
X005039Y013731D01*
X004982Y013759D01*
X004923Y013783D01*
X004864Y013804D01*
X004803Y013821D01*
X004741Y013834D01*
X004679Y013843D01*
X004616Y013849D01*
X004553Y013851D01*
X004489Y013849D01*
X004426Y013843D01*
X004364Y013834D01*
X004302Y013821D01*
X004241Y013804D01*
X004182Y013783D01*
X004123Y013759D01*
X004066Y013732D01*
X004011Y013701D01*
X003958Y013666D01*
X003907Y013629D01*
X003913Y013622D01*
X003963Y013659D01*
X004016Y013693D01*
X004071Y013724D01*
X004127Y013751D01*
X004185Y013775D01*
X004244Y013795D01*
X004304Y013812D01*
X004366Y013825D01*
X004428Y013835D01*
X004490Y013840D01*
X004553Y013842D01*
X004615Y013840D01*
X004678Y013834D01*
X004739Y013825D01*
X004801Y013812D01*
X004861Y013795D01*
X004920Y013775D01*
X004978Y013751D01*
X005034Y013723D01*
X005089Y013692D01*
X005142Y013659D01*
X005192Y013621D01*
X005240Y013581D01*
X005286Y013538D01*
X005329Y013493D01*
X005369Y013445D01*
X005406Y013394D01*
X005440Y013342D01*
X005471Y013287D01*
X005499Y013231D01*
X005523Y013173D01*
X005543Y013114D01*
X005535Y013111D01*
X005514Y013170D01*
X005490Y013227D01*
X005463Y013283D01*
X005433Y013337D01*
X005399Y013389D01*
X005362Y013439D01*
X005322Y013487D01*
X005280Y013532D01*
X005234Y013575D01*
X005187Y013614D01*
X005136Y013651D01*
X005084Y013685D01*
X005030Y013715D01*
X004974Y013742D01*
X004917Y013766D01*
X004858Y013786D01*
X004799Y013803D01*
X004738Y013816D01*
X004676Y013825D01*
X004615Y013831D01*
X004553Y013833D01*
X004490Y013831D01*
X004429Y013826D01*
X004367Y013816D01*
X004307Y013803D01*
X004247Y013787D01*
X004188Y013767D01*
X004131Y013743D01*
X004075Y013716D01*
X004021Y013685D01*
X003968Y013652D01*
X003918Y013615D01*
D23*
X018371Y010552D03*
X020734Y010552D03*
D24*
X007302Y007477D03*
X007302Y007227D03*
X007302Y006977D03*
X006302Y006977D03*
X006302Y007227D03*
X006302Y007477D03*
X005302Y007477D03*
X005302Y007227D03*
X005302Y006977D03*
X004302Y006977D03*
X004302Y007227D03*
X004302Y007477D03*
D25*
X004302Y003702D03*
X005302Y002402D03*
X006302Y003702D03*
X007302Y002402D03*
D26*
X007302Y002027D03*
X006302Y002027D03*
X005302Y002027D03*
X004302Y002027D03*
X004302Y004077D03*
X005302Y004077D03*
X006302Y004077D03*
X007302Y004077D03*
D27*
X010072Y003556D02*
X010119Y003603D01*
X010212Y003603D01*
X010259Y003556D01*
X010259Y003509D01*
X010072Y003322D01*
X010259Y003322D01*
X010212Y001603D02*
X010259Y001556D01*
X010259Y001509D01*
X010212Y001462D01*
X010259Y001416D01*
X010259Y001369D01*
X010212Y001322D01*
X010119Y001322D01*
X010072Y001369D01*
X010166Y001462D02*
X010212Y001462D01*
X010212Y001603D02*
X010119Y001603D01*
X010072Y001556D01*
X012322Y002869D02*
X012369Y002822D01*
X012462Y002822D01*
X012509Y002869D01*
X012509Y002916D01*
X012462Y002962D01*
X012416Y002962D01*
X012462Y002962D02*
X012509Y003009D01*
X012509Y003056D01*
X012462Y003103D01*
X012369Y003103D01*
X012322Y003056D01*
X012617Y003103D02*
X012617Y002822D01*
X012617Y002916D02*
X012757Y002916D01*
X012804Y002962D01*
X012804Y003056D01*
X012757Y003103D01*
X012617Y003103D01*
X012912Y003103D02*
X012912Y002822D01*
X013052Y002822D01*
X013098Y002869D01*
X013098Y003056D01*
X013052Y003103D01*
X012912Y003103D01*
X013206Y003103D02*
X013393Y003103D01*
X013300Y003103D02*
X013300Y002822D01*
X013198Y004822D02*
X013012Y004822D01*
X013105Y004822D02*
X013105Y005103D01*
X013012Y005009D01*
X012904Y005103D02*
X012904Y004822D01*
X012810Y004916D01*
X012717Y004822D01*
X012717Y005103D01*
X012609Y005056D02*
X012562Y005103D01*
X012469Y005103D01*
X012422Y005056D01*
X012422Y005009D01*
X012469Y004962D01*
X012562Y004962D01*
X012609Y004916D01*
X012609Y004869D01*
X012562Y004822D01*
X012469Y004822D01*
X012422Y004869D01*
X013322Y006572D02*
X013462Y006572D01*
X013509Y006619D01*
X013509Y006666D01*
X013462Y006712D01*
X013322Y006712D01*
X013322Y006572D02*
X013322Y006853D01*
X013462Y006853D01*
X013509Y006806D01*
X013509Y006759D01*
X013462Y006712D01*
X015322Y006619D02*
X015369Y006572D01*
X015462Y006572D01*
X015509Y006619D01*
X015322Y006619D02*
X015322Y006806D01*
X015369Y006853D01*
X015462Y006853D01*
X015509Y006806D01*
X011509Y006759D02*
X011509Y006572D01*
X011509Y006712D02*
X011322Y006712D01*
X011322Y006759D02*
X011416Y006853D01*
X011509Y006759D01*
X011322Y006759D02*
X011322Y006572D01*
X010166Y005603D02*
X010166Y005322D01*
X010259Y005322D02*
X010072Y005322D01*
X010072Y005509D02*
X010166Y005603D01*
M02*
