%
M48
M72
T01C0.0276
T02C0.0320
T03C0.0354
T04C0.0591
T05C0.0630
T06C0.0787
T07C0.0866
T08C0.1102
%
T01
X9052Y1552
X9052Y5552
X10052Y8052
X10052Y10052
X10052Y11052
X11802Y12302
X11802Y13802
X11802Y15302
X11802Y16802
X10302Y17552
X11302Y18302
X11302Y19302
X11302Y20302
X11302Y21302
X10302Y21552
X8552Y18302
X7552Y18302
X5802Y18302
X3802Y18302
X2302Y20052
X2302Y16052
X2302Y13802
X4552Y13802
X4552Y12802
X4552Y11802
X2302Y9802
X7052Y11552
X8052Y11552
X10052Y15052
X13802Y15302
X13802Y16802
X15302Y15552
X13802Y13802
X13802Y12302
X15052Y12302
X16302Y12302
X15302Y13552
X17552Y13302
X18552Y13302
X20302Y13302
X21302Y13302
X21552Y10552
X21302Y9552
X20052Y9552
X18802Y9552
X17552Y10552
X16302Y8302
X15052Y8302
X16552Y5552
X18802Y5552
X20052Y5552
X21302Y5552
X16552Y1552
X15552Y17802
X14302Y18302
X14302Y19302
X14302Y20302
X14302Y21302
X15552Y21802
X18052Y18802
X18052Y17802
X21552Y17802
X21552Y18802
T02
X7302Y9052
X6302Y9052
X5302Y9052
X4302Y9052
X4302Y6052
X5302Y6052
X6302Y6052
X7302Y6052
X7302Y4552
X6302Y4552
X5302Y4552
X4302Y4552
X4302Y1552
X5302Y1552
X6302Y1552
X7302Y1552
T03
X12802Y8802
X12802Y9802
X17552Y9552
X17552Y5552
T04
X23552Y8052
X23552Y9552
X23552Y11052
X1552Y7552
X1552Y5552
T05
X18012Y3122
X19262Y3122
X20512Y3122
X22152Y3127
X23552Y3127
T06
X14802Y4052
X12802Y4052
X10802Y4052
X10802Y2052
X12802Y2052
X14802Y2052
X14802Y6052
X12802Y6052
X10802Y6052
X8271Y15802
X6302Y15802
X4334Y15802
X4334Y20802
X6302Y20802
X8271Y20802
X17834Y20802
X19802Y20802
X21771Y20802
X21771Y15802
X19802Y15802
X17834Y15802
T07
X18037Y1572
X19262Y1572
X20487Y1572
X22152Y1577
X23552Y1577
T08
X1802Y1802
X1802Y21302
X23802Y21302
X23802Y5302
M30
