G75*
G70*
%OFA0B0*%
%FSLAX24Y24*%
%IPPOS*%
%LPD*%
%AMOC8*
5,1,8,0,0,1.08239X$1,22.5*
%
%ADD10C,0.1181*%
%ADD11C,0.0886*%
%ADD12C,0.0945*%
%ADD13C,0.0740*%
%ADD14C,0.0476*%
%ADD15C,0.0400*%
D10*
X006802Y003302D03*
X006802Y005302D03*
X006802Y007302D03*
X008802Y007302D03*
X008802Y005302D03*
X008802Y003302D03*
X010802Y003302D03*
X010802Y005302D03*
X010802Y007302D03*
D11*
X010302Y015302D03*
X012302Y015302D03*
X006802Y015302D03*
X004802Y015302D03*
X002302Y006552D03*
X002302Y005052D03*
X002302Y003552D03*
D12*
X002802Y008602D03*
X002802Y010002D03*
X002802Y011552D03*
X002802Y012802D03*
X002802Y014052D03*
D13*
X005302Y012302D03*
X006302Y012302D03*
X010802Y012302D03*
X011802Y012302D03*
D14*
X011302Y010302D03*
X011302Y009302D03*
X006302Y009302D03*
X006302Y010302D03*
X004802Y007302D03*
X004802Y002302D03*
X006302Y001302D03*
X011302Y001302D03*
D15*
X000902Y002212D02*
X000902Y007627D01*
X001116Y007569D01*
X001388Y007569D01*
X001651Y007640D01*
X001887Y007776D01*
X002079Y007968D01*
X002145Y008082D01*
X002331Y007897D01*
X002637Y007770D01*
X002968Y007770D01*
X003274Y007897D01*
X003508Y008131D01*
X003635Y008437D01*
X003635Y008768D01*
X003508Y009074D01*
X003280Y009302D01*
X003508Y009531D01*
X003635Y009837D01*
X003635Y009842D01*
X004035Y010042D01*
X004120Y010078D01*
X004134Y010092D01*
X004152Y010101D01*
X004212Y010170D01*
X004277Y010235D01*
X004285Y010254D01*
X004298Y010270D01*
X004327Y010356D01*
X004362Y010441D01*
X004362Y010461D01*
X004369Y010481D01*
X004362Y010572D01*
X004362Y010700D01*
X005078Y009985D01*
X005235Y009828D01*
X005441Y009742D01*
X005897Y009742D01*
X005796Y009641D01*
X005705Y009421D01*
X005705Y009183D01*
X005796Y008964D01*
X005964Y008796D01*
X006183Y008705D01*
X006421Y008705D01*
X006641Y008796D01*
X006809Y008964D01*
X006900Y009183D01*
X006900Y009421D01*
X006809Y009641D01*
X006648Y009802D01*
X006809Y009964D01*
X006821Y009992D01*
X006985Y009828D01*
X007191Y009742D01*
X007414Y009742D01*
X010993Y009742D01*
X010952Y009713D01*
X010892Y009653D01*
X010842Y009584D01*
X010804Y009509D01*
X010778Y009428D01*
X010765Y009345D01*
X010765Y009303D01*
X011302Y009303D01*
X011302Y009302D01*
X011303Y009302D01*
X011303Y008765D01*
X011345Y008765D01*
X011428Y008778D01*
X011509Y008804D01*
X011584Y008842D01*
X011653Y008892D01*
X011713Y008952D01*
X011742Y008993D01*
X011742Y008034D01*
X011578Y007870D01*
X011341Y008108D01*
X010991Y008253D01*
X010613Y008253D01*
X010264Y008108D01*
X009997Y007841D01*
X009852Y007491D01*
X009852Y007113D01*
X009997Y006764D01*
X010264Y006497D01*
X010613Y006352D01*
X010991Y006352D01*
X011341Y006497D01*
X011587Y006742D01*
X011914Y006742D01*
X012120Y006828D01*
X012277Y006985D01*
X012777Y007485D01*
X012862Y007691D01*
X012862Y007914D01*
X012862Y010914D01*
X012777Y011120D01*
X012620Y011277D01*
X012214Y011683D01*
X012216Y011684D01*
X012421Y011889D01*
X012532Y012157D01*
X012532Y012448D01*
X012421Y012716D01*
X012216Y012921D01*
X011948Y013032D01*
X011657Y013032D01*
X011389Y012921D01*
X011302Y012835D01*
X011216Y012921D01*
X010948Y013032D01*
X010657Y013032D01*
X010389Y012921D01*
X010184Y012716D01*
X010072Y012448D01*
X010072Y012157D01*
X010184Y011889D01*
X010210Y011862D01*
X009034Y011862D01*
X008120Y012777D01*
X007914Y012862D01*
X007691Y012862D01*
X006775Y012862D01*
X006716Y012921D01*
X006448Y013032D01*
X006157Y013032D01*
X005889Y012921D01*
X005802Y012835D01*
X005716Y012921D01*
X005448Y013032D01*
X005157Y013032D01*
X004889Y012921D01*
X004862Y012895D01*
X004862Y012914D01*
X004777Y013120D01*
X004620Y013277D01*
X003604Y014293D01*
X003508Y014524D01*
X003274Y014758D01*
X002968Y014885D01*
X002637Y014885D01*
X002331Y014758D01*
X002136Y014563D01*
X002079Y014662D01*
X001887Y014854D01*
X001771Y014921D01*
X001865Y014960D01*
X002145Y015239D01*
X002296Y015605D01*
X002296Y016000D01*
X002212Y016202D01*
X013393Y016202D01*
X013309Y016000D01*
X013309Y015605D01*
X013460Y015239D01*
X013739Y014960D01*
X014105Y014809D01*
X014500Y014809D01*
X014701Y014892D01*
X014695Y002215D01*
X014500Y002296D01*
X014105Y002296D01*
X013739Y002145D01*
X013460Y001865D01*
X013309Y001500D01*
X013309Y001105D01*
X013393Y000902D01*
X011663Y000902D01*
X011713Y000952D01*
X011762Y001020D01*
X011801Y001096D01*
X011827Y001176D01*
X011840Y001260D01*
X011840Y001302D01*
X011303Y001302D01*
X011303Y001303D01*
X011302Y001303D01*
X011302Y001840D01*
X011260Y001840D01*
X011176Y001827D01*
X011096Y001801D01*
X011020Y001762D01*
X010952Y001713D01*
X010892Y001653D01*
X010842Y001584D01*
X010804Y001509D01*
X010778Y001428D01*
X010765Y001345D01*
X010765Y001303D01*
X011302Y001303D01*
X011302Y001302D01*
X010765Y001302D01*
X010765Y001260D01*
X010778Y001176D01*
X010804Y001096D01*
X010842Y001020D01*
X010892Y000952D01*
X010942Y000902D01*
X006748Y000902D01*
X006809Y000964D01*
X006900Y001183D01*
X006900Y001421D01*
X006862Y001512D01*
X006862Y002352D01*
X006991Y002352D01*
X007341Y002497D01*
X007608Y002764D01*
X007753Y003113D01*
X007753Y003461D01*
X007900Y003608D01*
X007852Y003491D01*
X007783Y003491D01*
X007852Y003491D02*
X007852Y003113D01*
X007997Y002764D01*
X008264Y002497D01*
X008613Y002352D01*
X008991Y002352D01*
X009341Y002497D01*
X009608Y002764D01*
X009753Y003113D01*
X009753Y003491D01*
X009852Y003491D01*
X009852Y003113D01*
X009997Y002764D01*
X010264Y002497D01*
X010613Y002352D01*
X010991Y002352D01*
X011341Y002497D01*
X011608Y002764D01*
X011753Y003113D01*
X011753Y003491D01*
X014696Y003491D01*
X014696Y003889D02*
X011560Y003889D01*
X011608Y003841D02*
X011341Y004108D01*
X010991Y004253D01*
X010613Y004253D01*
X010264Y004108D01*
X009997Y003841D01*
X009852Y003491D01*
X009753Y003491D02*
X009608Y003841D01*
X009341Y004108D01*
X008991Y004253D01*
X008613Y004253D01*
X008341Y004140D01*
X008362Y004191D01*
X008362Y004528D01*
X008408Y004502D01*
X008515Y004457D01*
X008628Y004427D01*
X008744Y004412D01*
X008802Y004412D01*
X008802Y005302D01*
X008803Y005302D01*
X008803Y005303D01*
X008802Y005303D01*
X008802Y006193D01*
X008744Y006193D01*
X008628Y006178D01*
X008515Y006147D01*
X008408Y006103D01*
X008377Y006085D01*
X008644Y006352D01*
X008991Y006352D01*
X009341Y006497D01*
X009608Y006764D01*
X009753Y007113D01*
X009753Y007491D01*
X009608Y007841D01*
X009341Y008108D01*
X008991Y008253D01*
X008613Y008253D01*
X008264Y008108D01*
X007997Y007841D01*
X007852Y007491D01*
X007852Y007144D01*
X007704Y006996D01*
X007753Y007113D01*
X007753Y007491D01*
X007608Y007841D01*
X007341Y008108D01*
X006991Y008253D01*
X006613Y008253D01*
X006264Y008108D01*
X005997Y007841D01*
X005852Y007491D01*
X005852Y007113D01*
X005997Y006764D01*
X006264Y006497D01*
X006613Y006352D01*
X006991Y006352D01*
X007263Y006464D01*
X007242Y006414D01*
X007242Y006191D01*
X007242Y006149D01*
X006991Y006253D01*
X006613Y006253D01*
X006264Y006108D01*
X006018Y005862D01*
X005191Y005862D01*
X004985Y005777D01*
X004828Y005620D01*
X004328Y005120D01*
X004242Y004914D01*
X004242Y004691D01*
X004242Y002862D01*
X003571Y002862D01*
X003105Y003445D01*
X003105Y003712D01*
X002983Y004007D01*
X002757Y004233D01*
X002590Y004302D01*
X002757Y004372D01*
X002983Y004598D01*
X003105Y004893D01*
X003105Y005212D01*
X002983Y005507D01*
X002757Y005733D01*
X002505Y005838D01*
X002542Y005847D01*
X002632Y005885D01*
X002716Y005933D01*
X002793Y005993D01*
X002862Y006061D01*
X002921Y006139D01*
X002970Y006223D01*
X003007Y006313D01*
X003033Y006407D01*
X003045Y006504D01*
X003045Y006552D01*
X002303Y006552D01*
X002303Y006553D01*
X002302Y006553D01*
X002302Y007295D01*
X002254Y007295D01*
X002157Y007283D01*
X002063Y007257D01*
X001973Y007220D01*
X001889Y007171D01*
X001811Y007112D01*
X001743Y007043D01*
X001683Y006966D01*
X001635Y006882D01*
X001597Y006792D01*
X001572Y006698D01*
X001559Y006601D01*
X001559Y006553D01*
X002302Y006553D01*
X002302Y006552D01*
X001559Y006552D01*
X001559Y006504D01*
X001572Y006407D01*
X001597Y006313D01*
X001635Y006223D01*
X001683Y006139D01*
X001743Y006061D01*
X001811Y005993D01*
X001889Y005933D01*
X001973Y005885D01*
X002063Y005847D01*
X002100Y005838D01*
X001848Y005733D01*
X001622Y005507D01*
X001499Y005212D01*
X001499Y004893D01*
X001622Y004598D01*
X001848Y004372D01*
X002015Y004302D01*
X001848Y004233D01*
X001622Y004007D01*
X001499Y003712D01*
X001499Y003393D01*
X001622Y003098D01*
X001848Y002872D01*
X002143Y002749D01*
X002228Y002749D01*
X002815Y002015D01*
X002828Y001985D01*
X002885Y001928D01*
X002935Y001866D01*
X002963Y001850D01*
X002985Y001828D01*
X003059Y001797D01*
X003130Y001758D01*
X003162Y001755D01*
X003191Y001742D01*
X003271Y001742D01*
X003351Y001734D01*
X003382Y001742D01*
X004592Y001742D01*
X004683Y001705D01*
X004921Y001705D01*
X005141Y001796D01*
X005309Y001964D01*
X005400Y002183D01*
X005400Y002421D01*
X005362Y002512D01*
X005362Y004570D01*
X005534Y004742D01*
X006018Y004742D01*
X006264Y004497D01*
X006613Y004352D01*
X006991Y004352D01*
X007108Y004400D01*
X006961Y004253D01*
X006613Y004253D01*
X006264Y004108D01*
X005997Y003841D01*
X005852Y003491D01*
X005362Y003491D01*
X005362Y003889D02*
X006045Y003889D01*
X005852Y003491D02*
X005852Y003144D01*
X005828Y003120D01*
X005742Y002914D01*
X005742Y002691D01*
X005742Y001512D01*
X005705Y001421D01*
X005705Y001183D01*
X005796Y000964D01*
X005857Y000902D01*
X002212Y000902D01*
X002296Y001105D01*
X002296Y001500D01*
X002145Y001865D01*
X001865Y002145D01*
X001500Y002296D01*
X001105Y002296D01*
X000902Y002212D01*
X000902Y002295D02*
X001102Y002295D01*
X001502Y002295D02*
X002591Y002295D01*
X002910Y001897D02*
X002113Y001897D01*
X002296Y001498D02*
X005736Y001498D01*
X005739Y001099D02*
X002294Y001099D01*
X003302Y002302D02*
X004802Y002302D01*
X004802Y004802D01*
X005302Y005302D01*
X006802Y005302D01*
X006074Y004686D02*
X005478Y004686D01*
X005362Y004288D02*
X006996Y004288D01*
X007802Y004302D02*
X007802Y006302D01*
X008802Y007302D01*
X009523Y006679D02*
X010081Y006679D01*
X009867Y007078D02*
X009738Y007078D01*
X009753Y007476D02*
X009852Y007476D01*
X010030Y007875D02*
X009574Y007875D01*
X010802Y007302D02*
X011802Y007302D01*
X012302Y007802D01*
X012302Y010802D01*
X011802Y011302D01*
X008802Y011302D01*
X007802Y012302D01*
X006302Y012302D01*
X005552Y011802D02*
X006052Y011302D01*
X006302Y011302D01*
X007302Y010302D01*
X011302Y010302D01*
X010791Y009469D02*
X006880Y009469D01*
X006853Y009070D02*
X010817Y009070D01*
X010804Y009096D02*
X010842Y009020D01*
X010892Y008952D01*
X010952Y008892D01*
X011020Y008842D01*
X011096Y008804D01*
X011176Y008778D01*
X011260Y008765D01*
X011302Y008765D01*
X011302Y009302D01*
X010765Y009302D01*
X010765Y009260D01*
X010778Y009176D01*
X010804Y009096D01*
X011302Y009070D02*
X011303Y009070D01*
X011742Y008672D02*
X003635Y008672D01*
X003567Y008273D02*
X011742Y008273D01*
X011583Y007875D02*
X011574Y007875D01*
X012370Y007078D02*
X014698Y007078D01*
X014698Y007476D02*
X012768Y007476D01*
X012862Y007875D02*
X014698Y007875D01*
X014698Y008273D02*
X012862Y008273D01*
X012862Y008672D02*
X014699Y008672D01*
X014699Y009070D02*
X012862Y009070D01*
X012862Y009469D02*
X014699Y009469D01*
X014699Y009867D02*
X012862Y009867D01*
X012862Y010266D02*
X014699Y010266D01*
X014699Y010664D02*
X012862Y010664D01*
X012801Y011063D02*
X014700Y011063D01*
X014700Y011462D02*
X012435Y011462D01*
X012392Y011860D02*
X014700Y011860D01*
X014700Y012259D02*
X012532Y012259D01*
X012446Y012657D02*
X014700Y012657D01*
X014701Y013056D02*
X004804Y013056D01*
X004442Y013454D02*
X014701Y013454D01*
X014701Y013853D02*
X004044Y013853D01*
X003645Y014251D02*
X014701Y014251D01*
X014701Y014650D02*
X012658Y014650D01*
X012632Y014635D02*
X012716Y014683D01*
X012793Y014743D01*
X012862Y014811D01*
X012921Y014889D01*
X012970Y014973D01*
X013007Y015063D01*
X013033Y015157D01*
X013045Y015254D01*
X013045Y015302D01*
X012303Y015302D01*
X012303Y015303D01*
X013045Y015303D01*
X013045Y015351D01*
X013033Y015448D01*
X013007Y015542D01*
X012970Y015632D01*
X012921Y015716D01*
X012862Y015793D01*
X012793Y015862D01*
X012716Y015921D01*
X012632Y015970D01*
X012542Y016007D01*
X012448Y016033D01*
X012351Y016045D01*
X012303Y016045D01*
X012303Y015303D01*
X012302Y015303D01*
X012302Y016045D01*
X012254Y016045D01*
X012157Y016033D01*
X012063Y016007D01*
X011973Y015970D01*
X011889Y015921D01*
X011811Y015862D01*
X011743Y015793D01*
X011683Y015716D01*
X011635Y015632D01*
X011597Y015542D01*
X011572Y015448D01*
X011559Y015351D01*
X011559Y015303D01*
X012302Y015303D01*
X012302Y015302D01*
X012303Y015302D01*
X012303Y014559D01*
X012351Y014559D01*
X012448Y014572D01*
X012542Y014597D01*
X012632Y014635D01*
X012303Y014650D02*
X012302Y014650D01*
X012302Y014559D02*
X012302Y015302D01*
X011559Y015302D01*
X011559Y015254D01*
X011572Y015157D01*
X011597Y015063D01*
X011635Y014973D01*
X011683Y014889D01*
X011743Y014811D01*
X011811Y014743D01*
X011889Y014683D01*
X011973Y014635D01*
X012063Y014597D01*
X012157Y014572D01*
X012254Y014559D01*
X012302Y014559D01*
X011947Y014650D02*
X010785Y014650D01*
X010757Y014622D02*
X010983Y014848D01*
X011105Y015143D01*
X011105Y015462D01*
X010983Y015757D01*
X010757Y015983D01*
X010462Y016105D01*
X010143Y016105D01*
X009848Y015983D01*
X009622Y015757D01*
X009499Y015462D01*
X009499Y015143D01*
X009622Y014848D01*
X009848Y014622D01*
X010143Y014499D01*
X010462Y014499D01*
X010757Y014622D01*
X011066Y015048D02*
X011603Y015048D01*
X011572Y015447D02*
X011105Y015447D01*
X010895Y015846D02*
X011795Y015846D01*
X012302Y015846D02*
X012303Y015846D01*
X012302Y015447D02*
X012303Y015447D01*
X012302Y015048D02*
X012303Y015048D01*
X013001Y015048D02*
X013651Y015048D01*
X013374Y015447D02*
X013033Y015447D01*
X012810Y015846D02*
X013309Y015846D01*
X010159Y012657D02*
X008239Y012657D01*
X008638Y012259D02*
X010072Y012259D01*
X009819Y014650D02*
X007158Y014650D01*
X007132Y014635D02*
X007216Y014683D01*
X007293Y014743D01*
X007362Y014811D01*
X007421Y014889D01*
X007470Y014973D01*
X007507Y015063D01*
X007533Y015157D01*
X007545Y015254D01*
X007545Y015302D01*
X006803Y015302D01*
X006803Y015303D01*
X007545Y015303D01*
X007545Y015351D01*
X007533Y015448D01*
X007507Y015542D01*
X007470Y015632D01*
X007421Y015716D01*
X007362Y015793D01*
X007293Y015862D01*
X007216Y015921D01*
X007132Y015970D01*
X007042Y016007D01*
X006948Y016033D01*
X006851Y016045D01*
X006803Y016045D01*
X006803Y015303D01*
X006802Y015303D01*
X006802Y016045D01*
X006754Y016045D01*
X006657Y016033D01*
X006563Y016007D01*
X006473Y015970D01*
X006389Y015921D01*
X006311Y015862D01*
X006243Y015793D01*
X006183Y015716D01*
X006135Y015632D01*
X006097Y015542D01*
X006072Y015448D01*
X006059Y015351D01*
X006059Y015303D01*
X006802Y015303D01*
X006802Y015302D01*
X006803Y015302D01*
X006803Y014559D01*
X006851Y014559D01*
X006948Y014572D01*
X007042Y014597D01*
X007132Y014635D01*
X006803Y014650D02*
X006802Y014650D01*
X006802Y014559D02*
X006802Y015302D01*
X006059Y015302D01*
X006059Y015254D01*
X006072Y015157D01*
X006097Y015063D01*
X006135Y014973D01*
X006183Y014889D01*
X006243Y014811D01*
X006311Y014743D01*
X006389Y014683D01*
X006473Y014635D01*
X006563Y014597D01*
X006657Y014572D01*
X006754Y014559D01*
X006802Y014559D01*
X006447Y014650D02*
X005285Y014650D01*
X005257Y014622D02*
X005483Y014848D01*
X005605Y015143D01*
X005605Y015462D01*
X005483Y015757D01*
X005257Y015983D01*
X004962Y016105D01*
X004643Y016105D01*
X004348Y015983D01*
X004122Y015757D01*
X003999Y015462D01*
X003999Y015143D01*
X004122Y014848D01*
X004348Y014622D01*
X004643Y014499D01*
X004962Y014499D01*
X005257Y014622D01*
X005566Y015048D02*
X006103Y015048D01*
X006072Y015447D02*
X005605Y015447D01*
X005395Y015846D02*
X006295Y015846D01*
X006802Y015846D02*
X006803Y015846D01*
X006802Y015447D02*
X006803Y015447D01*
X006802Y015048D02*
X006803Y015048D01*
X007501Y015048D02*
X009538Y015048D01*
X009499Y015447D02*
X007533Y015447D01*
X007310Y015846D02*
X009710Y015846D01*
X005552Y011802D02*
X005302Y012052D01*
X005302Y012302D01*
X004302Y012802D02*
X004302Y011552D01*
X005552Y010302D01*
X006302Y010302D01*
X006713Y009867D02*
X006945Y009867D01*
X005724Y009469D02*
X003446Y009469D01*
X003510Y009070D02*
X005751Y009070D01*
X005195Y009867D02*
X003685Y009867D01*
X003802Y010552D02*
X002802Y010052D01*
X002852Y010052D01*
X002802Y010002D01*
X003802Y010552D02*
X003802Y012052D01*
X003052Y012802D01*
X002802Y012802D01*
X002802Y014052D02*
X003052Y014052D01*
X004302Y012802D01*
X004319Y014650D02*
X003382Y014650D01*
X004038Y015048D02*
X001954Y015048D01*
X002086Y014650D02*
X002223Y014650D01*
X002231Y015447D02*
X003999Y015447D01*
X004210Y015846D02*
X002296Y015846D01*
X004362Y010664D02*
X004398Y010664D01*
X004295Y010266D02*
X004797Y010266D01*
X006030Y007875D02*
X003221Y007875D01*
X002716Y007171D02*
X002632Y007220D01*
X002542Y007257D01*
X002448Y007283D01*
X002351Y007295D01*
X002303Y007295D01*
X002303Y006553D01*
X003045Y006553D01*
X003045Y006601D01*
X003033Y006698D01*
X003007Y006792D01*
X002970Y006882D01*
X002921Y006966D01*
X002862Y007043D01*
X002793Y007112D01*
X002716Y007171D01*
X002828Y007078D02*
X004313Y007078D01*
X004304Y007096D02*
X004342Y007020D01*
X004392Y006952D01*
X004452Y006892D01*
X004520Y006842D01*
X004596Y006804D01*
X004676Y006778D01*
X004760Y006765D01*
X004802Y006765D01*
X004802Y007302D01*
X004265Y007302D01*
X004265Y007260D01*
X004278Y007176D01*
X004304Y007096D01*
X004265Y007303D02*
X004802Y007303D01*
X004802Y007840D01*
X004760Y007840D01*
X004676Y007827D01*
X004596Y007801D01*
X004520Y007762D01*
X004452Y007713D01*
X004392Y007653D01*
X004342Y007584D01*
X004304Y007509D01*
X004278Y007428D01*
X004265Y007345D01*
X004265Y007303D01*
X004293Y007476D02*
X000902Y007476D01*
X000902Y007078D02*
X001777Y007078D01*
X001570Y006679D02*
X000902Y006679D01*
X000902Y006281D02*
X001611Y006281D01*
X001980Y005882D02*
X000902Y005882D01*
X000902Y005483D02*
X001612Y005483D01*
X001499Y005085D02*
X000902Y005085D01*
X000902Y004686D02*
X001585Y004686D01*
X001980Y004288D02*
X000902Y004288D01*
X000902Y003889D02*
X001573Y003889D01*
X001499Y003491D02*
X000902Y003491D01*
X000902Y003092D02*
X001627Y003092D01*
X002272Y002694D02*
X000902Y002694D01*
X002302Y003552D02*
X003302Y002302D01*
X003388Y003092D02*
X004242Y003092D01*
X004242Y003491D02*
X003105Y003491D01*
X003032Y003889D02*
X004242Y003889D01*
X004242Y004288D02*
X002625Y004288D01*
X003020Y004686D02*
X004242Y004686D01*
X004313Y005085D02*
X003105Y005085D01*
X002993Y005483D02*
X004691Y005483D01*
X004803Y006765D02*
X004845Y006765D01*
X004928Y006778D01*
X005009Y006804D01*
X005084Y006842D01*
X005153Y006892D01*
X005213Y006952D01*
X005262Y007020D01*
X005301Y007096D01*
X005327Y007176D01*
X005340Y007260D01*
X005340Y007302D01*
X004803Y007302D01*
X004803Y007303D01*
X004802Y007303D01*
X004802Y007302D01*
X004803Y007302D01*
X004803Y006765D01*
X004802Y007078D02*
X004803Y007078D01*
X004803Y007303D02*
X005340Y007303D01*
X005340Y007345D01*
X005327Y007428D01*
X005301Y007509D01*
X005262Y007584D01*
X005213Y007653D01*
X005153Y007713D01*
X005084Y007762D01*
X005009Y007801D01*
X004928Y007827D01*
X004845Y007840D01*
X004803Y007840D01*
X004803Y007303D01*
X004802Y007476D02*
X004803Y007476D01*
X005291Y007078D02*
X005867Y007078D01*
X005852Y007476D02*
X005311Y007476D01*
X006081Y006679D02*
X003035Y006679D01*
X002994Y006281D02*
X007242Y006281D01*
X007738Y007078D02*
X007786Y007078D01*
X007753Y007476D02*
X007852Y007476D01*
X008030Y007875D02*
X007574Y007875D01*
X008572Y006281D02*
X014697Y006281D01*
X014697Y005882D02*
X011480Y005882D01*
X011473Y005891D02*
X011391Y005973D01*
X011298Y006044D01*
X011197Y006103D01*
X011089Y006147D01*
X010976Y006178D01*
X010861Y006193D01*
X010803Y006193D01*
X010803Y005303D01*
X011693Y005303D01*
X011693Y005361D01*
X011678Y005476D01*
X011647Y005589D01*
X011603Y005697D01*
X011544Y005798D01*
X011473Y005891D01*
X011676Y005483D02*
X014697Y005483D01*
X014697Y005085D02*
X011666Y005085D01*
X011678Y005128D02*
X011693Y005244D01*
X011693Y005302D01*
X010803Y005302D01*
X010803Y005303D01*
X010802Y005303D01*
X010802Y006193D01*
X010744Y006193D01*
X010628Y006178D01*
X010515Y006147D01*
X010408Y006103D01*
X010307Y006044D01*
X010214Y005973D01*
X010131Y005891D01*
X010060Y005798D01*
X010002Y005697D01*
X009957Y005589D01*
X009927Y005476D01*
X009912Y005361D01*
X009912Y005303D01*
X010802Y005303D01*
X010802Y005302D01*
X010803Y005302D01*
X010803Y004412D01*
X010861Y004412D01*
X010976Y004427D01*
X011089Y004457D01*
X011197Y004502D01*
X011298Y004560D01*
X011391Y004631D01*
X011473Y004714D01*
X011544Y004807D01*
X011603Y004908D01*
X011647Y005015D01*
X011678Y005128D01*
X011446Y004686D02*
X014697Y004686D01*
X014696Y004288D02*
X008362Y004288D01*
X008803Y004412D02*
X008861Y004412D01*
X008976Y004427D01*
X009089Y004457D01*
X009197Y004502D01*
X009298Y004560D01*
X009391Y004631D01*
X009473Y004714D01*
X009544Y004807D01*
X009603Y004908D01*
X009647Y005015D01*
X009678Y005128D01*
X009693Y005244D01*
X009693Y005302D01*
X008803Y005302D01*
X008803Y004412D01*
X008802Y004686D02*
X008803Y004686D01*
X008802Y005085D02*
X008803Y005085D01*
X008803Y005303D02*
X009693Y005303D01*
X009693Y005361D01*
X009678Y005476D01*
X009647Y005589D01*
X009603Y005697D01*
X009544Y005798D01*
X009473Y005891D01*
X009391Y005973D01*
X009298Y006044D01*
X009197Y006103D01*
X009089Y006147D01*
X008976Y006178D01*
X008861Y006193D01*
X008803Y006193D01*
X008803Y005303D01*
X008802Y005483D02*
X008803Y005483D01*
X008802Y005882D02*
X008803Y005882D01*
X009480Y005882D02*
X010125Y005882D01*
X009929Y005483D02*
X009676Y005483D01*
X009912Y005302D02*
X009912Y005244D01*
X009927Y005128D01*
X009957Y005015D01*
X010002Y004908D01*
X010060Y004807D01*
X010131Y004714D01*
X010214Y004631D01*
X010307Y004560D01*
X010408Y004502D01*
X010515Y004457D01*
X010628Y004427D01*
X010744Y004412D01*
X010802Y004412D01*
X010802Y005302D01*
X009912Y005302D01*
X009939Y005085D02*
X009666Y005085D01*
X009446Y004686D02*
X010159Y004686D01*
X010802Y004686D02*
X010803Y004686D01*
X010802Y005085D02*
X010803Y005085D01*
X010802Y005483D02*
X010803Y005483D01*
X010802Y005882D02*
X010803Y005882D01*
X011523Y006679D02*
X014698Y006679D01*
X011608Y003841D02*
X011753Y003491D01*
X011744Y003092D02*
X014696Y003092D01*
X014696Y002694D02*
X011538Y002694D01*
X011428Y001827D02*
X011345Y001840D01*
X011303Y001840D01*
X011303Y001303D01*
X011840Y001303D01*
X011840Y001345D01*
X011827Y001428D01*
X011801Y001509D01*
X011762Y001584D01*
X011713Y001653D01*
X011653Y001713D01*
X011584Y001762D01*
X011509Y001801D01*
X011428Y001827D01*
X011303Y001498D02*
X011302Y001498D01*
X010800Y001498D02*
X006868Y001498D01*
X006865Y001099D02*
X010803Y001099D01*
X011802Y001099D02*
X013311Y001099D01*
X013309Y001498D02*
X011804Y001498D01*
X013491Y001897D02*
X006862Y001897D01*
X006862Y002295D02*
X014102Y002295D01*
X014502Y002295D02*
X014695Y002295D01*
X010067Y002694D02*
X009538Y002694D01*
X009744Y003092D02*
X009861Y003092D01*
X010045Y003889D02*
X009560Y003889D01*
X008067Y002694D02*
X007538Y002694D01*
X007744Y003092D02*
X007861Y003092D01*
X006802Y003302D02*
X007802Y004302D01*
X006802Y003302D02*
X006302Y002802D01*
X006302Y001302D01*
X005742Y001897D02*
X005242Y001897D01*
X005400Y002295D02*
X005742Y002295D01*
X005742Y002694D02*
X005362Y002694D01*
X005362Y003092D02*
X005816Y003092D01*
X006038Y005882D02*
X002625Y005882D01*
X002302Y006679D02*
X002303Y006679D01*
X002302Y007078D02*
X002303Y007078D01*
X002384Y007875D02*
X001986Y007875D01*
M02*
