G75*
G70*
%OFA0B0*%
%FSLAX24Y24*%
%IPPOS*%
%LPD*%
%AMOC8*
5,1,8,0,0,1.08239X$1,22.5*
%
%ADD10C,0.0000*%
%ADD11C,0.1181*%
%ADD12C,0.0886*%
%ADD13C,0.0945*%
%ADD14C,0.0740*%
%ADD15C,0.0476*%
%ADD16C,0.0400*%
D10*
X000302Y000302D02*
X000302Y016802D01*
X015302Y016802D01*
X015294Y000302D01*
X000302Y000302D01*
X000908Y001302D02*
X000910Y001341D01*
X000916Y001380D01*
X000926Y001418D01*
X000939Y001455D01*
X000956Y001490D01*
X000976Y001524D01*
X001000Y001555D01*
X001027Y001584D01*
X001056Y001610D01*
X001088Y001633D01*
X001122Y001653D01*
X001158Y001669D01*
X001195Y001681D01*
X001234Y001690D01*
X001273Y001695D01*
X001312Y001696D01*
X001351Y001693D01*
X001390Y001686D01*
X001427Y001675D01*
X001464Y001661D01*
X001499Y001643D01*
X001532Y001622D01*
X001563Y001597D01*
X001591Y001570D01*
X001616Y001540D01*
X001638Y001507D01*
X001657Y001473D01*
X001672Y001437D01*
X001684Y001399D01*
X001692Y001361D01*
X001696Y001322D01*
X001696Y001282D01*
X001692Y001243D01*
X001684Y001205D01*
X001672Y001167D01*
X001657Y001131D01*
X001638Y001097D01*
X001616Y001064D01*
X001591Y001034D01*
X001563Y001007D01*
X001532Y000982D01*
X001499Y000961D01*
X001464Y000943D01*
X001427Y000929D01*
X001390Y000918D01*
X001351Y000911D01*
X001312Y000908D01*
X001273Y000909D01*
X001234Y000914D01*
X001195Y000923D01*
X001158Y000935D01*
X001122Y000951D01*
X001088Y000971D01*
X001056Y000994D01*
X001027Y001020D01*
X001000Y001049D01*
X000976Y001080D01*
X000956Y001114D01*
X000939Y001149D01*
X000926Y001186D01*
X000916Y001224D01*
X000910Y001263D01*
X000908Y001302D01*
X000819Y008602D02*
X000821Y008643D01*
X000827Y008684D01*
X000837Y008724D01*
X000850Y008763D01*
X000867Y008800D01*
X000888Y008836D01*
X000912Y008870D01*
X000939Y008901D01*
X000968Y008929D01*
X001001Y008955D01*
X001035Y008977D01*
X001072Y008996D01*
X001110Y009011D01*
X001150Y009023D01*
X001190Y009031D01*
X001231Y009035D01*
X001273Y009035D01*
X001314Y009031D01*
X001354Y009023D01*
X001394Y009011D01*
X001432Y008996D01*
X001468Y008977D01*
X001503Y008955D01*
X001536Y008929D01*
X001565Y008901D01*
X001592Y008870D01*
X001616Y008836D01*
X001637Y008800D01*
X001654Y008763D01*
X001667Y008724D01*
X001677Y008684D01*
X001683Y008643D01*
X001685Y008602D01*
X001683Y008561D01*
X001677Y008520D01*
X001667Y008480D01*
X001654Y008441D01*
X001637Y008404D01*
X001616Y008368D01*
X001592Y008334D01*
X001565Y008303D01*
X001536Y008275D01*
X001503Y008249D01*
X001469Y008227D01*
X001432Y008208D01*
X001394Y008193D01*
X001354Y008181D01*
X001314Y008173D01*
X001273Y008169D01*
X001231Y008169D01*
X001190Y008173D01*
X001150Y008181D01*
X001110Y008193D01*
X001072Y008208D01*
X001036Y008227D01*
X001001Y008249D01*
X000968Y008275D01*
X000939Y008303D01*
X000912Y008334D01*
X000888Y008368D01*
X000867Y008404D01*
X000850Y008441D01*
X000837Y008480D01*
X000827Y008520D01*
X000821Y008561D01*
X000819Y008602D01*
X000819Y010002D02*
X000821Y010043D01*
X000827Y010084D01*
X000837Y010124D01*
X000850Y010163D01*
X000867Y010200D01*
X000888Y010236D01*
X000912Y010270D01*
X000939Y010301D01*
X000968Y010329D01*
X001001Y010355D01*
X001035Y010377D01*
X001072Y010396D01*
X001110Y010411D01*
X001150Y010423D01*
X001190Y010431D01*
X001231Y010435D01*
X001273Y010435D01*
X001314Y010431D01*
X001354Y010423D01*
X001394Y010411D01*
X001432Y010396D01*
X001468Y010377D01*
X001503Y010355D01*
X001536Y010329D01*
X001565Y010301D01*
X001592Y010270D01*
X001616Y010236D01*
X001637Y010200D01*
X001654Y010163D01*
X001667Y010124D01*
X001677Y010084D01*
X001683Y010043D01*
X001685Y010002D01*
X001683Y009961D01*
X001677Y009920D01*
X001667Y009880D01*
X001654Y009841D01*
X001637Y009804D01*
X001616Y009768D01*
X001592Y009734D01*
X001565Y009703D01*
X001536Y009675D01*
X001503Y009649D01*
X001469Y009627D01*
X001432Y009608D01*
X001394Y009593D01*
X001354Y009581D01*
X001314Y009573D01*
X001273Y009569D01*
X001231Y009569D01*
X001190Y009573D01*
X001150Y009581D01*
X001110Y009593D01*
X001072Y009608D01*
X001036Y009627D01*
X001001Y009649D01*
X000968Y009675D01*
X000939Y009703D01*
X000912Y009734D01*
X000888Y009768D01*
X000867Y009804D01*
X000850Y009841D01*
X000837Y009880D01*
X000827Y009920D01*
X000821Y009961D01*
X000819Y010002D01*
X000819Y011577D02*
X000821Y011618D01*
X000827Y011659D01*
X000837Y011699D01*
X000850Y011738D01*
X000867Y011775D01*
X000888Y011811D01*
X000912Y011845D01*
X000939Y011876D01*
X000968Y011904D01*
X001001Y011930D01*
X001035Y011952D01*
X001072Y011971D01*
X001110Y011986D01*
X001150Y011998D01*
X001190Y012006D01*
X001231Y012010D01*
X001273Y012010D01*
X001314Y012006D01*
X001354Y011998D01*
X001394Y011986D01*
X001432Y011971D01*
X001468Y011952D01*
X001503Y011930D01*
X001536Y011904D01*
X001565Y011876D01*
X001592Y011845D01*
X001616Y011811D01*
X001637Y011775D01*
X001654Y011738D01*
X001667Y011699D01*
X001677Y011659D01*
X001683Y011618D01*
X001685Y011577D01*
X001683Y011536D01*
X001677Y011495D01*
X001667Y011455D01*
X001654Y011416D01*
X001637Y011379D01*
X001616Y011343D01*
X001592Y011309D01*
X001565Y011278D01*
X001536Y011250D01*
X001503Y011224D01*
X001469Y011202D01*
X001432Y011183D01*
X001394Y011168D01*
X001354Y011156D01*
X001314Y011148D01*
X001273Y011144D01*
X001231Y011144D01*
X001190Y011148D01*
X001150Y011156D01*
X001110Y011168D01*
X001072Y011183D01*
X001036Y011202D01*
X001001Y011224D01*
X000968Y011250D01*
X000939Y011278D01*
X000912Y011309D01*
X000888Y011343D01*
X000867Y011379D01*
X000850Y011416D01*
X000837Y011455D01*
X000827Y011495D01*
X000821Y011536D01*
X000819Y011577D01*
X000819Y012802D02*
X000821Y012843D01*
X000827Y012884D01*
X000837Y012924D01*
X000850Y012963D01*
X000867Y013000D01*
X000888Y013036D01*
X000912Y013070D01*
X000939Y013101D01*
X000968Y013129D01*
X001001Y013155D01*
X001035Y013177D01*
X001072Y013196D01*
X001110Y013211D01*
X001150Y013223D01*
X001190Y013231D01*
X001231Y013235D01*
X001273Y013235D01*
X001314Y013231D01*
X001354Y013223D01*
X001394Y013211D01*
X001432Y013196D01*
X001468Y013177D01*
X001503Y013155D01*
X001536Y013129D01*
X001565Y013101D01*
X001592Y013070D01*
X001616Y013036D01*
X001637Y013000D01*
X001654Y012963D01*
X001667Y012924D01*
X001677Y012884D01*
X001683Y012843D01*
X001685Y012802D01*
X001683Y012761D01*
X001677Y012720D01*
X001667Y012680D01*
X001654Y012641D01*
X001637Y012604D01*
X001616Y012568D01*
X001592Y012534D01*
X001565Y012503D01*
X001536Y012475D01*
X001503Y012449D01*
X001469Y012427D01*
X001432Y012408D01*
X001394Y012393D01*
X001354Y012381D01*
X001314Y012373D01*
X001273Y012369D01*
X001231Y012369D01*
X001190Y012373D01*
X001150Y012381D01*
X001110Y012393D01*
X001072Y012408D01*
X001036Y012427D01*
X001001Y012449D01*
X000968Y012475D01*
X000939Y012503D01*
X000912Y012534D01*
X000888Y012568D01*
X000867Y012604D01*
X000850Y012641D01*
X000837Y012680D01*
X000827Y012720D01*
X000821Y012761D01*
X000819Y012802D01*
X000819Y014027D02*
X000821Y014068D01*
X000827Y014109D01*
X000837Y014149D01*
X000850Y014188D01*
X000867Y014225D01*
X000888Y014261D01*
X000912Y014295D01*
X000939Y014326D01*
X000968Y014354D01*
X001001Y014380D01*
X001035Y014402D01*
X001072Y014421D01*
X001110Y014436D01*
X001150Y014448D01*
X001190Y014456D01*
X001231Y014460D01*
X001273Y014460D01*
X001314Y014456D01*
X001354Y014448D01*
X001394Y014436D01*
X001432Y014421D01*
X001468Y014402D01*
X001503Y014380D01*
X001536Y014354D01*
X001565Y014326D01*
X001592Y014295D01*
X001616Y014261D01*
X001637Y014225D01*
X001654Y014188D01*
X001667Y014149D01*
X001677Y014109D01*
X001683Y014068D01*
X001685Y014027D01*
X001683Y013986D01*
X001677Y013945D01*
X001667Y013905D01*
X001654Y013866D01*
X001637Y013829D01*
X001616Y013793D01*
X001592Y013759D01*
X001565Y013728D01*
X001536Y013700D01*
X001503Y013674D01*
X001469Y013652D01*
X001432Y013633D01*
X001394Y013618D01*
X001354Y013606D01*
X001314Y013598D01*
X001273Y013594D01*
X001231Y013594D01*
X001190Y013598D01*
X001150Y013606D01*
X001110Y013618D01*
X001072Y013633D01*
X001036Y013652D01*
X001001Y013674D01*
X000968Y013700D01*
X000939Y013728D01*
X000912Y013759D01*
X000888Y013793D01*
X000867Y013829D01*
X000850Y013866D01*
X000837Y013905D01*
X000827Y013945D01*
X000821Y013986D01*
X000819Y014027D01*
X000908Y015802D02*
X000910Y015841D01*
X000916Y015880D01*
X000926Y015918D01*
X000939Y015955D01*
X000956Y015990D01*
X000976Y016024D01*
X001000Y016055D01*
X001027Y016084D01*
X001056Y016110D01*
X001088Y016133D01*
X001122Y016153D01*
X001158Y016169D01*
X001195Y016181D01*
X001234Y016190D01*
X001273Y016195D01*
X001312Y016196D01*
X001351Y016193D01*
X001390Y016186D01*
X001427Y016175D01*
X001464Y016161D01*
X001499Y016143D01*
X001532Y016122D01*
X001563Y016097D01*
X001591Y016070D01*
X001616Y016040D01*
X001638Y016007D01*
X001657Y015973D01*
X001672Y015937D01*
X001684Y015899D01*
X001692Y015861D01*
X001696Y015822D01*
X001696Y015782D01*
X001692Y015743D01*
X001684Y015705D01*
X001672Y015667D01*
X001657Y015631D01*
X001638Y015597D01*
X001616Y015564D01*
X001591Y015534D01*
X001563Y015507D01*
X001532Y015482D01*
X001499Y015461D01*
X001464Y015443D01*
X001427Y015429D01*
X001390Y015418D01*
X001351Y015411D01*
X001312Y015408D01*
X001273Y015409D01*
X001234Y015414D01*
X001195Y015423D01*
X001158Y015435D01*
X001122Y015451D01*
X001088Y015471D01*
X001056Y015494D01*
X001027Y015520D01*
X001000Y015549D01*
X000976Y015580D01*
X000956Y015614D01*
X000939Y015649D01*
X000926Y015686D01*
X000916Y015724D01*
X000910Y015763D01*
X000908Y015802D01*
X013908Y015802D02*
X013910Y015841D01*
X013916Y015880D01*
X013926Y015918D01*
X013939Y015955D01*
X013956Y015990D01*
X013976Y016024D01*
X014000Y016055D01*
X014027Y016084D01*
X014056Y016110D01*
X014088Y016133D01*
X014122Y016153D01*
X014158Y016169D01*
X014195Y016181D01*
X014234Y016190D01*
X014273Y016195D01*
X014312Y016196D01*
X014351Y016193D01*
X014390Y016186D01*
X014427Y016175D01*
X014464Y016161D01*
X014499Y016143D01*
X014532Y016122D01*
X014563Y016097D01*
X014591Y016070D01*
X014616Y016040D01*
X014638Y016007D01*
X014657Y015973D01*
X014672Y015937D01*
X014684Y015899D01*
X014692Y015861D01*
X014696Y015822D01*
X014696Y015782D01*
X014692Y015743D01*
X014684Y015705D01*
X014672Y015667D01*
X014657Y015631D01*
X014638Y015597D01*
X014616Y015564D01*
X014591Y015534D01*
X014563Y015507D01*
X014532Y015482D01*
X014499Y015461D01*
X014464Y015443D01*
X014427Y015429D01*
X014390Y015418D01*
X014351Y015411D01*
X014312Y015408D01*
X014273Y015409D01*
X014234Y015414D01*
X014195Y015423D01*
X014158Y015435D01*
X014122Y015451D01*
X014088Y015471D01*
X014056Y015494D01*
X014027Y015520D01*
X014000Y015549D01*
X013976Y015580D01*
X013956Y015614D01*
X013939Y015649D01*
X013926Y015686D01*
X013916Y015724D01*
X013910Y015763D01*
X013908Y015802D01*
X013908Y001302D02*
X013910Y001341D01*
X013916Y001380D01*
X013926Y001418D01*
X013939Y001455D01*
X013956Y001490D01*
X013976Y001524D01*
X014000Y001555D01*
X014027Y001584D01*
X014056Y001610D01*
X014088Y001633D01*
X014122Y001653D01*
X014158Y001669D01*
X014195Y001681D01*
X014234Y001690D01*
X014273Y001695D01*
X014312Y001696D01*
X014351Y001693D01*
X014390Y001686D01*
X014427Y001675D01*
X014464Y001661D01*
X014499Y001643D01*
X014532Y001622D01*
X014563Y001597D01*
X014591Y001570D01*
X014616Y001540D01*
X014638Y001507D01*
X014657Y001473D01*
X014672Y001437D01*
X014684Y001399D01*
X014692Y001361D01*
X014696Y001322D01*
X014696Y001282D01*
X014692Y001243D01*
X014684Y001205D01*
X014672Y001167D01*
X014657Y001131D01*
X014638Y001097D01*
X014616Y001064D01*
X014591Y001034D01*
X014563Y001007D01*
X014532Y000982D01*
X014499Y000961D01*
X014464Y000943D01*
X014427Y000929D01*
X014390Y000918D01*
X014351Y000911D01*
X014312Y000908D01*
X014273Y000909D01*
X014234Y000914D01*
X014195Y000923D01*
X014158Y000935D01*
X014122Y000951D01*
X014088Y000971D01*
X014056Y000994D01*
X014027Y001020D01*
X014000Y001049D01*
X013976Y001080D01*
X013956Y001114D01*
X013939Y001149D01*
X013926Y001186D01*
X013916Y001224D01*
X013910Y001263D01*
X013908Y001302D01*
D11*
X010802Y003302D03*
X010802Y005302D03*
X010802Y007302D03*
X008802Y007302D03*
X008802Y005302D03*
X008802Y003302D03*
X006802Y003302D03*
X006802Y005302D03*
X006802Y007302D03*
D12*
X002302Y006552D03*
X002302Y005052D03*
X002302Y003552D03*
X004802Y015302D03*
X006802Y015302D03*
X010302Y015302D03*
X012302Y015302D03*
D13*
X002802Y014052D03*
X002802Y012802D03*
X002802Y011552D03*
X002802Y010002D03*
X002802Y008602D03*
D14*
X005302Y012302D03*
X006302Y012302D03*
X010802Y012302D03*
X011802Y012302D03*
D15*
X011302Y010302D03*
X011302Y009302D03*
X006302Y009302D03*
X006302Y010302D03*
X004802Y007302D03*
X004802Y002302D03*
X006302Y001302D03*
X011302Y001302D03*
D16*
X010857Y000902D02*
X006748Y000902D01*
X006809Y000964D01*
X006900Y001183D01*
X006900Y001421D01*
X006809Y001641D01*
X006641Y001809D01*
X006421Y001900D01*
X006183Y001900D01*
X005964Y001809D01*
X005796Y001641D01*
X005705Y001421D01*
X005705Y001183D01*
X005796Y000964D01*
X005857Y000902D01*
X002212Y000902D01*
X002296Y001105D01*
X002296Y001500D01*
X002145Y001865D01*
X001865Y002145D01*
X001500Y002296D01*
X001105Y002296D01*
X000902Y002212D01*
X000902Y007627D01*
X001116Y007569D01*
X001388Y007569D01*
X001651Y007640D01*
X001887Y007776D01*
X002079Y007968D01*
X002145Y008082D01*
X002331Y007897D01*
X002476Y007836D01*
X003242Y007070D01*
X003242Y006034D01*
X003235Y006027D01*
X002849Y005641D01*
X002757Y005733D01*
X002590Y005802D01*
X002757Y005872D01*
X002983Y006098D01*
X003105Y006393D01*
X003105Y006712D01*
X002983Y007007D01*
X002757Y007233D01*
X002462Y007355D01*
X002143Y007355D01*
X001848Y007233D01*
X001622Y007007D01*
X001499Y006712D01*
X001499Y006393D01*
X001622Y006098D01*
X001848Y005872D01*
X002015Y005802D01*
X001848Y005733D01*
X001622Y005507D01*
X001499Y005212D01*
X001499Y004893D01*
X001622Y004598D01*
X001848Y004372D01*
X002015Y004302D01*
X001848Y004233D01*
X001622Y004007D01*
X001499Y003712D01*
X001499Y003393D01*
X001622Y003098D01*
X001848Y002872D01*
X002143Y002749D01*
X002462Y002749D01*
X002757Y002872D01*
X002983Y003098D01*
X003105Y003393D01*
X003105Y003712D01*
X002983Y004007D01*
X002757Y004233D01*
X002590Y004302D01*
X002757Y004372D01*
X002878Y004492D01*
X003164Y004492D01*
X003370Y004578D01*
X003527Y004735D01*
X004027Y005235D01*
X004277Y005485D01*
X004362Y005691D01*
X004362Y005914D01*
X004362Y006897D01*
X004464Y006796D01*
X004683Y006705D01*
X004464Y006796D01*
X004362Y006897D01*
X004362Y005914D01*
X004362Y005691D01*
X004277Y005485D01*
X004027Y005235D01*
X003527Y004735D01*
X003370Y004578D01*
X003164Y004492D01*
X002878Y004492D01*
X002757Y004372D01*
X002590Y004302D01*
X002757Y004233D01*
X002983Y004007D01*
X003105Y003712D01*
X003105Y003393D01*
X002983Y003098D01*
X002757Y002872D01*
X002462Y002749D01*
X002143Y002749D01*
X001848Y002872D01*
X001622Y003098D01*
X001499Y003393D01*
X001499Y003712D01*
X001622Y004007D01*
X001848Y004233D01*
X002015Y004302D01*
X001848Y004372D01*
X001622Y004598D01*
X001499Y004893D01*
X001499Y005212D01*
X001622Y005507D01*
X001848Y005733D01*
X002015Y005802D01*
X001848Y005872D01*
X001622Y006098D01*
X001499Y006393D01*
X001499Y006712D01*
X001622Y007007D01*
X001848Y007233D01*
X002143Y007355D01*
X002462Y007355D01*
X002757Y007233D01*
X002983Y007007D01*
X003105Y006712D01*
X003105Y006393D01*
X002983Y006098D01*
X002757Y005872D01*
X002590Y005802D01*
X002757Y005733D01*
X002849Y005641D01*
X003235Y006027D01*
X003242Y006034D01*
X003242Y007070D01*
X002476Y007836D01*
X002331Y007897D01*
X002145Y008082D01*
X002079Y007968D01*
X001887Y007776D01*
X001651Y007640D01*
X001388Y007569D01*
X001116Y007569D01*
X000902Y007627D01*
X000902Y002212D01*
X001105Y002296D01*
X001500Y002296D01*
X001865Y002145D01*
X002145Y001865D01*
X002296Y001500D01*
X002296Y001105D01*
X002212Y000902D01*
X005857Y000902D01*
X005796Y000964D01*
X005705Y001183D01*
X005705Y001421D01*
X005796Y001641D01*
X005964Y001809D01*
X006183Y001900D01*
X006421Y001900D01*
X006641Y001809D01*
X006809Y001641D01*
X006900Y001421D01*
X006900Y001183D01*
X006809Y000964D01*
X006748Y000902D01*
X010857Y000902D01*
X010796Y000964D01*
X010705Y001183D01*
X010705Y001421D01*
X010796Y001641D01*
X010964Y001809D01*
X011183Y001900D01*
X011421Y001900D01*
X011641Y001809D01*
X011809Y001641D01*
X011900Y001421D01*
X011900Y001183D01*
X011809Y000964D01*
X011748Y000902D01*
X013393Y000902D01*
X013309Y001105D01*
X013309Y001500D01*
X013460Y001865D01*
X013739Y002145D01*
X014105Y002296D01*
X014500Y002296D01*
X014695Y002215D01*
X014701Y014892D01*
X014500Y014809D01*
X014105Y014809D01*
X013739Y014960D01*
X013460Y015239D01*
X013309Y015605D01*
X013309Y016000D01*
X013393Y016202D01*
X002212Y016202D01*
X002296Y016000D01*
X002296Y015605D01*
X002145Y015239D01*
X001865Y014960D01*
X001771Y014921D01*
X001887Y014854D01*
X002079Y014662D01*
X002136Y014563D01*
X002331Y014758D01*
X002637Y014885D01*
X002968Y014885D01*
X003274Y014758D01*
X003508Y014524D01*
X003635Y014218D01*
X003635Y013887D01*
X003508Y013581D01*
X003355Y013427D01*
X003508Y013274D01*
X003635Y012968D01*
X003635Y012637D01*
X003508Y012331D01*
X003355Y012177D01*
X003508Y012024D01*
X003635Y011718D01*
X003635Y011512D01*
X003742Y011404D01*
X003742Y014691D01*
X003742Y014914D01*
X003828Y015120D01*
X003999Y015291D01*
X003999Y015462D01*
X004122Y015757D01*
X004348Y015983D01*
X004643Y016105D01*
X004962Y016105D01*
X005257Y015983D01*
X005483Y015757D01*
X005605Y015462D01*
X005605Y015143D01*
X005483Y014848D01*
X005257Y014622D01*
X004962Y014499D01*
X004862Y014499D01*
X004862Y012895D01*
X004889Y012921D01*
X005157Y013032D01*
X005448Y013032D01*
X005716Y012921D01*
X005802Y012835D01*
X005889Y012921D01*
X006157Y013032D01*
X006448Y013032D01*
X006716Y012921D01*
X006921Y012716D01*
X007032Y012448D01*
X007032Y012157D01*
X006921Y011889D01*
X006716Y011684D01*
X006448Y011572D01*
X006157Y011572D01*
X005889Y011684D01*
X005802Y011770D01*
X005716Y011684D01*
X005448Y011572D01*
X005157Y011572D01*
X004889Y011684D01*
X004862Y011710D01*
X004862Y011534D01*
X005784Y010613D01*
X005796Y010641D01*
X005964Y010809D01*
X006183Y010900D01*
X006421Y010900D01*
X006641Y010809D01*
X006809Y010641D01*
X006900Y010421D01*
X006900Y010183D01*
X006809Y009964D01*
X006648Y009802D01*
X006809Y009641D01*
X006847Y009550D01*
X007277Y009120D01*
X007362Y008914D01*
X007362Y008691D01*
X007362Y008087D01*
X007608Y007841D01*
X007753Y007491D01*
X007753Y007144D01*
X007900Y006996D01*
X007852Y007113D01*
X007852Y007491D01*
X007997Y007841D01*
X008242Y008087D01*
X008242Y013914D01*
X008328Y014120D01*
X008485Y014277D01*
X008485Y014277D01*
X008328Y014120D01*
X008242Y013914D01*
X008242Y008087D01*
X007997Y007841D01*
X007852Y007491D01*
X007852Y007113D01*
X007900Y006996D01*
X007753Y007144D01*
X007753Y007491D01*
X007608Y007841D01*
X007362Y008087D01*
X007362Y008691D01*
X007362Y008914D01*
X007277Y009120D01*
X006847Y009550D01*
X006809Y009641D01*
X006648Y009802D01*
X006809Y009964D01*
X006900Y010183D01*
X006900Y010421D01*
X006809Y010641D01*
X006641Y010809D01*
X006421Y010900D01*
X006183Y010900D01*
X005964Y010809D01*
X005796Y010641D01*
X005784Y010613D01*
X004862Y011534D01*
X004862Y011710D01*
X004889Y011684D01*
X005157Y011572D01*
X005448Y011572D01*
X005716Y011684D01*
X005802Y011770D01*
X005889Y011684D01*
X006157Y011572D01*
X006448Y011572D01*
X006716Y011684D01*
X006921Y011889D01*
X007032Y012157D01*
X007032Y012448D01*
X006921Y012716D01*
X006716Y012921D01*
X006448Y013032D01*
X006157Y013032D01*
X005889Y012921D01*
X005802Y012835D01*
X005716Y012921D01*
X005448Y013032D01*
X005157Y013032D01*
X004889Y012921D01*
X004862Y012895D01*
X004862Y014499D01*
X004962Y014499D01*
X005257Y014622D01*
X005483Y014848D01*
X005605Y015143D01*
X005605Y015462D01*
X005483Y015757D01*
X005257Y015983D01*
X004962Y016105D01*
X004643Y016105D01*
X004348Y015983D01*
X004122Y015757D01*
X003999Y015462D01*
X003999Y015291D01*
X003828Y015120D01*
X003742Y014914D01*
X003742Y014691D01*
X003742Y011404D01*
X003635Y011512D01*
X003635Y011718D01*
X003508Y012024D01*
X003355Y012177D01*
X003508Y012331D01*
X003635Y012637D01*
X003635Y012968D01*
X003508Y013274D01*
X003355Y013427D01*
X003508Y013581D01*
X003635Y013887D01*
X003635Y014218D01*
X003508Y014524D01*
X003274Y014758D01*
X002968Y014885D01*
X002637Y014885D01*
X002331Y014758D01*
X002136Y014563D01*
X002079Y014662D01*
X001887Y014854D01*
X001771Y014921D01*
X001865Y014960D01*
X002145Y015239D01*
X002296Y015605D01*
X002296Y016000D01*
X002212Y016202D01*
X013393Y016202D01*
X013309Y016000D01*
X013309Y015605D01*
X013460Y015239D01*
X013739Y014960D01*
X014105Y014809D01*
X014500Y014809D01*
X014701Y014892D01*
X014695Y002215D01*
X014500Y002296D01*
X014105Y002296D01*
X013739Y002145D01*
X013460Y001865D01*
X013309Y001500D01*
X013309Y001105D01*
X013393Y000902D01*
X011748Y000902D01*
X011809Y000964D01*
X011900Y001183D01*
X011900Y001421D01*
X011809Y001641D01*
X011641Y001809D01*
X011421Y001900D01*
X011183Y001900D01*
X010964Y001809D01*
X010796Y001641D01*
X010705Y001421D01*
X010705Y001183D01*
X010796Y000964D01*
X010857Y000902D01*
X010739Y001099D02*
X006865Y001099D01*
X010739Y001099D01*
X010736Y001498D02*
X006868Y001498D01*
X010736Y001498D01*
X011175Y001897D02*
X006430Y001897D01*
X011175Y001897D01*
X011430Y001897D02*
X013491Y001897D01*
X011430Y001897D01*
X011868Y001498D02*
X013309Y001498D01*
X011868Y001498D01*
X011865Y001099D02*
X013311Y001099D01*
X011865Y001099D01*
X011341Y002497D02*
X010991Y002352D01*
X010613Y002352D01*
X010264Y002497D01*
X009997Y002764D01*
X009852Y003113D01*
X009852Y003491D01*
X009753Y003491D01*
X009852Y003491D01*
X009997Y003841D01*
X010264Y004108D01*
X010613Y004253D01*
X010991Y004253D01*
X011341Y004108D01*
X011579Y003870D01*
X011742Y004034D01*
X011742Y005088D01*
X011608Y004764D01*
X011341Y004497D01*
X010991Y004352D01*
X010613Y004352D01*
X010264Y004497D01*
X009997Y004764D01*
X009852Y005113D01*
X009852Y005491D01*
X009997Y005841D01*
X010264Y006108D01*
X010613Y006253D01*
X010991Y006253D01*
X011341Y006108D01*
X011608Y005841D01*
X011742Y005517D01*
X011742Y007088D01*
X011608Y006764D01*
X011341Y006497D01*
X010991Y006352D01*
X010613Y006352D01*
X010264Y006497D01*
X009997Y006764D01*
X009852Y007113D01*
X009852Y007491D01*
X009997Y007841D01*
X010264Y008108D01*
X010613Y008253D01*
X010991Y008253D01*
X011341Y008108D01*
X011608Y007841D01*
X011742Y007517D01*
X011742Y008897D01*
X011641Y008796D01*
X011421Y008705D01*
X011183Y008705D01*
X010964Y008796D01*
X010796Y008964D01*
X010705Y009183D01*
X010705Y009421D01*
X010796Y009641D01*
X010957Y009802D01*
X010796Y009964D01*
X010705Y010183D01*
X010705Y010421D01*
X010742Y010512D01*
X010742Y011570D01*
X010740Y011572D01*
X010657Y011572D01*
X010389Y011684D01*
X010184Y011889D01*
X010072Y012157D01*
X010072Y012448D01*
X010184Y012716D01*
X010389Y012921D01*
X010657Y013032D01*
X010948Y013032D01*
X011216Y012921D01*
X011302Y012835D01*
X011389Y012921D01*
X011657Y013032D01*
X011948Y013032D01*
X012216Y012921D01*
X012421Y012716D01*
X012532Y012448D01*
X012532Y012364D01*
X012777Y012120D01*
X012862Y011914D01*
X012862Y011691D01*
X012862Y003691D01*
X012777Y003485D01*
X012620Y003328D01*
X012120Y002828D01*
X011914Y002742D01*
X011691Y002742D01*
X011587Y002742D01*
X011341Y002497D01*
X011587Y002742D01*
X011691Y002742D01*
X011914Y002742D01*
X012120Y002828D01*
X012620Y003328D01*
X012777Y003485D01*
X012862Y003691D01*
X012862Y011691D01*
X012862Y011914D01*
X012777Y012120D01*
X012532Y012364D01*
X012532Y012448D01*
X012421Y012716D01*
X012216Y012921D01*
X011948Y013032D01*
X011657Y013032D01*
X011389Y012921D01*
X011302Y012835D01*
X011216Y012921D01*
X010948Y013032D01*
X010657Y013032D01*
X010389Y012921D01*
X010184Y012716D01*
X010072Y012448D01*
X010072Y012157D01*
X010184Y011889D01*
X010389Y011684D01*
X010657Y011572D01*
X010740Y011572D01*
X010742Y011570D01*
X010742Y010512D01*
X010705Y010421D01*
X010705Y010183D01*
X010796Y009964D01*
X010957Y009802D01*
X010796Y009641D01*
X010705Y009421D01*
X010705Y009183D01*
X010796Y008964D01*
X010964Y008796D01*
X011183Y008705D01*
X011421Y008705D01*
X011641Y008796D01*
X011742Y008897D01*
X011742Y007517D01*
X011608Y007841D01*
X011341Y008108D01*
X010991Y008253D01*
X010613Y008253D01*
X010264Y008108D01*
X009997Y007841D01*
X009852Y007491D01*
X009852Y007113D01*
X009997Y006764D01*
X010264Y006497D01*
X010613Y006352D01*
X010991Y006352D01*
X011341Y006497D01*
X011608Y006764D01*
X011742Y007088D01*
X011742Y005517D01*
X011608Y005841D01*
X011341Y006108D01*
X010991Y006253D01*
X010613Y006253D01*
X010264Y006108D01*
X009997Y005841D01*
X009852Y005491D01*
X009852Y005113D01*
X009997Y004764D01*
X010264Y004497D01*
X010613Y004352D01*
X010991Y004352D01*
X011341Y004497D01*
X011608Y004764D01*
X011742Y005088D01*
X011742Y004034D01*
X011579Y003870D01*
X011341Y004108D01*
X010991Y004253D01*
X010613Y004253D01*
X010264Y004108D01*
X009997Y003841D01*
X009852Y003491D01*
X009852Y003113D01*
X009997Y002764D01*
X010264Y002497D01*
X010613Y002352D01*
X010991Y002352D01*
X011341Y002497D01*
X011538Y002694D02*
X014696Y002694D01*
X011538Y002694D01*
X011802Y003302D02*
X010802Y003302D01*
X010067Y002694D02*
X009538Y002694D01*
X010067Y002694D01*
X009861Y003092D02*
X009744Y003092D01*
X009861Y003092D01*
X009753Y003113D02*
X009753Y003491D01*
X009608Y003841D01*
X009341Y004108D01*
X008991Y004253D01*
X008644Y004253D01*
X008496Y004400D01*
X008613Y004352D01*
X008991Y004352D01*
X009341Y004497D01*
X009608Y004764D01*
X009753Y005113D01*
X009753Y005491D01*
X009608Y005841D01*
X009341Y006108D01*
X008991Y006253D01*
X008613Y006253D01*
X008362Y006149D01*
X008362Y006191D01*
X008362Y006414D01*
X008341Y006464D01*
X008613Y006352D01*
X008991Y006352D01*
X009341Y006497D01*
X009608Y006764D01*
X009753Y007113D01*
X009753Y007491D01*
X009608Y007841D01*
X009362Y008087D01*
X009362Y013570D01*
X010291Y014499D01*
X010462Y014499D01*
X010757Y014622D01*
X010983Y014848D01*
X011105Y015143D01*
X011105Y015462D01*
X010983Y015757D01*
X010757Y015983D01*
X010462Y016105D01*
X010143Y016105D01*
X009848Y015983D01*
X009622Y015757D01*
X009499Y015462D01*
X009499Y015291D01*
X008485Y014277D01*
X008485Y014277D01*
X009499Y015291D01*
X009499Y015462D01*
X009622Y015757D01*
X009848Y015983D01*
X010143Y016105D01*
X010462Y016105D01*
X010757Y015983D01*
X010983Y015757D01*
X011105Y015462D01*
X011105Y015143D01*
X010983Y014848D01*
X010757Y014622D01*
X010462Y014499D01*
X010291Y014499D01*
X009362Y013570D01*
X009362Y008087D01*
X009608Y007841D01*
X009753Y007491D01*
X009753Y007113D01*
X009608Y006764D01*
X009341Y006497D01*
X008991Y006352D01*
X008613Y006352D01*
X008341Y006464D01*
X008362Y006414D01*
X008362Y006191D01*
X008362Y006149D01*
X008613Y006253D01*
X008991Y006253D01*
X009341Y006108D01*
X009608Y005841D01*
X009753Y005491D01*
X009753Y005113D01*
X009608Y004764D01*
X009341Y004497D01*
X008991Y004352D01*
X008613Y004352D01*
X008496Y004400D01*
X008644Y004253D01*
X008991Y004253D01*
X009341Y004108D01*
X009608Y003841D01*
X009753Y003491D01*
X009753Y003113D01*
X009608Y002764D01*
X009341Y002497D01*
X008991Y002352D01*
X008613Y002352D01*
X008264Y002497D01*
X007997Y002764D01*
X007852Y003113D01*
X007852Y003461D01*
X007704Y003608D01*
X007753Y003491D01*
X007822Y003491D01*
X007753Y003491D01*
X007753Y003113D01*
X007608Y002764D01*
X007341Y002497D01*
X006991Y002352D01*
X006613Y002352D01*
X006264Y002497D01*
X005997Y002764D01*
X005852Y003113D01*
X005852Y003491D01*
X003105Y003491D01*
X005852Y003491D01*
X005997Y003841D01*
X006264Y004108D01*
X006613Y004253D01*
X006991Y004253D01*
X007263Y004140D01*
X007242Y004191D01*
X007242Y004456D01*
X006991Y004352D01*
X006613Y004352D01*
X006264Y004497D01*
X005997Y004764D01*
X005852Y005113D01*
X005852Y005491D01*
X005997Y005841D01*
X006264Y006108D01*
X006613Y006253D01*
X006991Y006253D01*
X007108Y006204D01*
X006961Y006352D01*
X006613Y006352D01*
X006264Y006497D01*
X005997Y006764D01*
X005852Y007113D01*
X005852Y007491D01*
X005997Y007841D01*
X006242Y008087D01*
X006242Y008570D01*
X006055Y008758D01*
X005964Y008796D01*
X005796Y008964D01*
X005758Y009055D01*
X004362Y010450D01*
X004362Y008914D01*
X004362Y008691D01*
X004277Y008485D01*
X004027Y008235D01*
X003870Y008078D01*
X003834Y008063D01*
X004120Y007777D01*
X004277Y007620D01*
X004282Y007608D01*
X004296Y007641D01*
X004464Y007809D01*
X004683Y007900D01*
X004464Y007809D01*
X004296Y007641D01*
X004282Y007608D01*
X004277Y007620D01*
X004120Y007777D01*
X003834Y008063D01*
X003870Y008078D01*
X004027Y008235D01*
X004277Y008485D01*
X004362Y008691D01*
X004362Y008914D01*
X004362Y010450D01*
X005758Y009055D01*
X005796Y008964D01*
X005964Y008796D01*
X006055Y008758D01*
X006242Y008570D01*
X006242Y008087D01*
X005997Y007841D01*
X005852Y007491D01*
X005852Y007113D01*
X005997Y006764D01*
X006264Y006497D01*
X006613Y006352D01*
X006961Y006352D01*
X007108Y006204D01*
X006991Y006253D01*
X006613Y006253D01*
X006264Y006108D01*
X005997Y005841D01*
X005852Y005491D01*
X005852Y005113D01*
X005997Y004764D01*
X006264Y004497D01*
X006613Y004352D01*
X006991Y004352D01*
X007242Y004456D01*
X007242Y004191D01*
X007263Y004140D01*
X006991Y004253D01*
X006613Y004253D01*
X006264Y004108D01*
X005997Y003841D01*
X005852Y003491D01*
X005852Y003113D01*
X005997Y002764D01*
X006264Y002497D01*
X006613Y002352D01*
X006991Y002352D01*
X007341Y002497D01*
X007608Y002764D01*
X007753Y003113D01*
X007753Y003491D01*
X007704Y003608D01*
X007852Y003461D01*
X007852Y003113D01*
X007997Y002764D01*
X008264Y002497D01*
X008613Y002352D01*
X008991Y002352D01*
X009341Y002497D01*
X009608Y002764D01*
X009753Y003113D01*
X009560Y003889D02*
X010045Y003889D01*
X009560Y003889D01*
X009531Y004686D02*
X010074Y004686D01*
X009531Y004686D01*
X009741Y005085D02*
X009864Y005085D01*
X009741Y005085D01*
X009753Y005483D02*
X009852Y005483D01*
X009753Y005483D01*
X009567Y005882D02*
X010038Y005882D01*
X009567Y005882D01*
X009523Y006679D02*
X010081Y006679D01*
X009523Y006679D01*
X009738Y007078D02*
X009867Y007078D01*
X009738Y007078D01*
X009753Y007476D02*
X009852Y007476D01*
X009753Y007476D01*
X009574Y007875D02*
X010030Y007875D01*
X009574Y007875D01*
X009362Y008273D02*
X011742Y008273D01*
X009362Y008273D01*
X009362Y008672D02*
X011742Y008672D01*
X009362Y008672D01*
X009362Y009070D02*
X010751Y009070D01*
X009362Y009070D01*
X009362Y009469D02*
X010724Y009469D01*
X009362Y009469D01*
X009362Y009867D02*
X010892Y009867D01*
X009362Y009867D01*
X009362Y010266D02*
X010705Y010266D01*
X009362Y010266D01*
X009362Y010664D02*
X010742Y010664D01*
X009362Y010664D01*
X009362Y011063D02*
X010742Y011063D01*
X009362Y011063D01*
X009362Y011462D02*
X010742Y011462D01*
X009362Y011462D01*
X009362Y011860D02*
X010212Y011860D01*
X009362Y011860D01*
X009362Y012259D02*
X010072Y012259D01*
X009362Y012259D01*
X009362Y012657D02*
X010159Y012657D01*
X009362Y012657D01*
X009362Y013056D02*
X014701Y013056D01*
X009362Y013056D01*
X009362Y013454D02*
X014701Y013454D01*
X009362Y013454D01*
X009645Y013853D02*
X014701Y013853D01*
X009645Y013853D01*
X010043Y014251D02*
X014701Y014251D01*
X010043Y014251D01*
X010785Y014650D02*
X011819Y014650D01*
X010785Y014650D01*
X011066Y015048D02*
X011538Y015048D01*
X011066Y015048D01*
X011105Y015447D02*
X011499Y015447D01*
X011105Y015447D01*
X011499Y015462D02*
X011499Y015143D01*
X011622Y014848D01*
X011848Y014622D01*
X012143Y014499D01*
X012462Y014499D01*
X012757Y014622D01*
X012983Y014848D01*
X013105Y015143D01*
X013105Y015462D01*
X012983Y015757D01*
X012757Y015983D01*
X012462Y016105D01*
X012143Y016105D01*
X011848Y015983D01*
X011622Y015757D01*
X011499Y015462D01*
X011499Y015143D01*
X011622Y014848D01*
X011848Y014622D01*
X012143Y014499D01*
X012462Y014499D01*
X012757Y014622D01*
X012983Y014848D01*
X013105Y015143D01*
X013105Y015462D01*
X012983Y015757D01*
X012757Y015983D01*
X012462Y016105D01*
X012143Y016105D01*
X011848Y015983D01*
X011622Y015757D01*
X011499Y015462D01*
X011710Y015846D02*
X010895Y015846D01*
X011710Y015846D01*
X012895Y015846D02*
X013309Y015846D01*
X012895Y015846D01*
X013105Y015447D02*
X013374Y015447D01*
X013105Y015447D01*
X013066Y015048D02*
X013651Y015048D01*
X013066Y015048D01*
X012785Y014650D02*
X014701Y014650D01*
X012785Y014650D01*
X012446Y012657D02*
X014700Y012657D01*
X012446Y012657D01*
X012638Y012259D02*
X014700Y012259D01*
X012638Y012259D01*
X012862Y011860D02*
X014700Y011860D01*
X012862Y011860D01*
X012862Y011462D02*
X014700Y011462D01*
X012862Y011462D01*
X012862Y011063D02*
X014700Y011063D01*
X012862Y011063D01*
X012862Y010664D02*
X014699Y010664D01*
X012862Y010664D01*
X012862Y010266D02*
X014699Y010266D01*
X012862Y010266D01*
X012862Y009867D02*
X014699Y009867D01*
X012862Y009867D01*
X012862Y009469D02*
X014699Y009469D01*
X012862Y009469D01*
X012862Y009070D02*
X014699Y009070D01*
X012862Y009070D01*
X012862Y008672D02*
X014699Y008672D01*
X012862Y008672D01*
X012862Y008273D02*
X014698Y008273D01*
X012862Y008273D01*
X012862Y007875D02*
X014698Y007875D01*
X012862Y007875D01*
X012862Y007476D02*
X014698Y007476D01*
X012862Y007476D01*
X012862Y007078D02*
X014698Y007078D01*
X012862Y007078D01*
X012862Y006679D02*
X014698Y006679D01*
X012862Y006679D01*
X012862Y006281D02*
X014697Y006281D01*
X012862Y006281D01*
X012862Y005882D02*
X014697Y005882D01*
X012862Y005882D01*
X012862Y005483D02*
X014697Y005483D01*
X012862Y005483D01*
X012862Y005085D02*
X014697Y005085D01*
X012862Y005085D01*
X012862Y004686D02*
X014697Y004686D01*
X012862Y004686D01*
X012862Y004288D02*
X014696Y004288D01*
X012862Y004288D01*
X012862Y003889D02*
X014696Y003889D01*
X012862Y003889D01*
X012779Y003491D02*
X014696Y003491D01*
X012779Y003491D01*
X012384Y003092D02*
X014696Y003092D01*
X012384Y003092D01*
X011802Y003302D02*
X012302Y003802D01*
X012302Y011802D01*
X011802Y012302D01*
X011302Y011802D02*
X010802Y012302D01*
X011302Y011802D02*
X011302Y010302D01*
X011713Y009867D02*
X011742Y009867D01*
X011713Y009867D01*
X011742Y009897D02*
X011742Y009708D01*
X011648Y009802D01*
X011742Y009897D01*
X011742Y009708D01*
X011648Y009802D01*
X011742Y009897D01*
X011742Y007875D02*
X011574Y007875D01*
X011742Y007875D01*
X011738Y007078D02*
X011742Y007078D01*
X011738Y007078D01*
X011742Y006679D02*
X011523Y006679D01*
X011742Y006679D01*
X011742Y006281D02*
X008362Y006281D01*
X011742Y006281D01*
X011742Y005882D02*
X011567Y005882D01*
X011742Y005882D01*
X011741Y005085D02*
X011742Y005085D01*
X011741Y005085D01*
X011742Y004686D02*
X011531Y004686D01*
X011742Y004686D01*
X011742Y004288D02*
X008609Y004288D01*
X011742Y004288D01*
X011597Y003889D02*
X011560Y003889D01*
X011597Y003889D01*
X014102Y002295D02*
X005400Y002295D01*
X014102Y002295D01*
X014502Y002295D02*
X014695Y002295D01*
X014502Y002295D01*
X008802Y003302D02*
X007802Y004302D01*
X007802Y006302D01*
X007552Y006552D01*
X006802Y007302D01*
X006802Y008802D01*
X006302Y009302D01*
X004302Y011302D01*
X004302Y014802D01*
X004802Y015302D01*
X004210Y015846D02*
X002296Y015846D01*
X004210Y015846D01*
X003999Y015447D02*
X002231Y015447D01*
X003999Y015447D01*
X003798Y015048D02*
X001954Y015048D01*
X003798Y015048D01*
X003742Y014650D02*
X003382Y014650D01*
X003742Y014650D01*
X003742Y014251D02*
X003621Y014251D01*
X003742Y014251D01*
X003742Y013853D02*
X003621Y013853D01*
X003742Y013853D01*
X003742Y013454D02*
X003382Y013454D01*
X003742Y013454D01*
X003742Y013056D02*
X003598Y013056D01*
X003742Y013056D01*
X003742Y012657D02*
X003635Y012657D01*
X003742Y012657D01*
X003742Y012259D02*
X003436Y012259D01*
X003742Y012259D01*
X003742Y011860D02*
X003576Y011860D01*
X003742Y011860D01*
X003742Y011462D02*
X003685Y011462D01*
X003742Y011462D01*
X003802Y010552D02*
X003802Y008802D01*
X003552Y008552D01*
X002852Y008552D01*
X002802Y008602D01*
X002802Y008302D01*
X003802Y007302D01*
X003802Y005802D01*
X003552Y005552D01*
X003052Y005052D01*
X002302Y005052D01*
X001585Y004686D02*
X000902Y004686D01*
X001585Y004686D01*
X001499Y005085D02*
X000902Y005085D01*
X001499Y005085D01*
X001612Y005483D02*
X000902Y005483D01*
X001612Y005483D01*
X001837Y005882D02*
X000902Y005882D01*
X001837Y005882D01*
X001546Y006281D02*
X000902Y006281D01*
X001546Y006281D01*
X001499Y006679D02*
X000902Y006679D01*
X001499Y006679D01*
X001692Y007078D02*
X000902Y007078D01*
X001692Y007078D01*
X001986Y007875D02*
X002384Y007875D01*
X001986Y007875D01*
X002837Y007476D02*
X000902Y007476D01*
X002837Y007476D01*
X002913Y007078D02*
X003235Y007078D01*
X002913Y007078D01*
X003105Y006679D02*
X003242Y006679D01*
X003105Y006679D01*
X003059Y006281D02*
X003242Y006281D01*
X003059Y006281D01*
X003090Y005882D02*
X002767Y005882D01*
X003090Y005882D01*
X003877Y005085D02*
X005864Y005085D01*
X003877Y005085D01*
X003478Y004686D02*
X006074Y004686D01*
X003478Y004686D01*
X003032Y003889D02*
X006045Y003889D01*
X003032Y003889D01*
X002625Y004288D02*
X007242Y004288D01*
X002625Y004288D01*
X001980Y004288D02*
X000902Y004288D01*
X001980Y004288D01*
X001573Y003889D02*
X000902Y003889D01*
X001573Y003889D01*
X001499Y003491D02*
X000902Y003491D01*
X001499Y003491D01*
X001627Y003092D02*
X000902Y003092D01*
X001627Y003092D01*
X001502Y002295D02*
X004205Y002295D01*
X001502Y002295D01*
X001102Y002295D02*
X000902Y002295D01*
X001102Y002295D01*
X000902Y002694D02*
X004348Y002694D01*
X000902Y002694D01*
X002113Y001897D02*
X004363Y001897D01*
X002113Y001897D01*
X002296Y001498D02*
X005736Y001498D01*
X002296Y001498D01*
X002294Y001099D02*
X005739Y001099D01*
X002294Y001099D01*
X002978Y003092D02*
X005861Y003092D01*
X002978Y003092D01*
X004296Y002641D02*
X004205Y002421D01*
X004205Y002183D01*
X004296Y001964D01*
X004464Y001796D01*
X004683Y001705D01*
X004464Y001796D01*
X004296Y001964D01*
X004205Y002183D01*
X004205Y002421D01*
X004296Y002641D01*
X004464Y002809D01*
X004683Y002900D01*
X004464Y002809D01*
X004296Y002641D01*
X004683Y002900D02*
X004921Y002900D01*
X005141Y002809D01*
X005309Y002641D01*
X005400Y002421D01*
X005400Y002183D01*
X005309Y001964D01*
X005141Y001796D01*
X004921Y001705D01*
X004683Y001705D01*
X004921Y001705D01*
X005141Y001796D01*
X005309Y001964D01*
X005400Y002183D01*
X005400Y002421D01*
X005309Y002641D01*
X005141Y002809D01*
X004921Y002900D01*
X004683Y002900D01*
X005256Y002694D02*
X006067Y002694D01*
X005256Y002694D01*
X005242Y001897D02*
X006175Y001897D01*
X005242Y001897D01*
X007538Y002694D02*
X008067Y002694D01*
X007538Y002694D01*
X007744Y003092D02*
X007861Y003092D01*
X007744Y003092D01*
X005852Y005483D02*
X004275Y005483D01*
X005852Y005483D01*
X006038Y005882D02*
X004362Y005882D01*
X006038Y005882D01*
X006081Y006679D02*
X004362Y006679D01*
X006081Y006679D01*
X005867Y007078D02*
X005356Y007078D01*
X005867Y007078D01*
X005852Y007476D02*
X005377Y007476D01*
X005852Y007476D01*
X006030Y007875D02*
X004983Y007875D01*
X006030Y007875D01*
X006242Y008273D02*
X004065Y008273D01*
X006242Y008273D01*
X006141Y008672D02*
X004354Y008672D01*
X006141Y008672D01*
X005742Y009070D02*
X004362Y009070D01*
X005742Y009070D01*
X005344Y009469D02*
X004362Y009469D01*
X005344Y009469D01*
X004945Y009867D02*
X004362Y009867D01*
X004945Y009867D01*
X004547Y010266D02*
X004362Y010266D01*
X004547Y010266D01*
X003802Y010552D02*
X002802Y011552D01*
X002498Y010777D02*
X002331Y010847D01*
X002136Y011042D01*
X002079Y010943D01*
X001926Y010790D01*
X002079Y010637D01*
X002145Y010522D01*
X002331Y010708D01*
X002498Y010777D01*
X002331Y010708D01*
X002145Y010522D01*
X002079Y010637D01*
X001926Y010790D01*
X002079Y010943D01*
X002136Y011042D01*
X002331Y010847D01*
X002498Y010777D01*
X002287Y010664D02*
X002051Y010664D01*
X002287Y010664D01*
X002145Y009482D02*
X002325Y009302D01*
X002145Y009122D01*
X002079Y009237D01*
X002013Y009302D01*
X002079Y009368D01*
X002145Y009482D01*
X002325Y009302D01*
X002145Y009122D01*
X002079Y009237D01*
X002013Y009302D01*
X002079Y009368D01*
X002145Y009482D01*
X002137Y009469D02*
X002159Y009469D01*
X002137Y009469D01*
X004022Y007875D02*
X004622Y007875D01*
X004022Y007875D01*
X004683Y007900D02*
X004921Y007900D01*
X005141Y007809D01*
X005309Y007641D01*
X005400Y007421D01*
X005400Y007183D01*
X005309Y006964D01*
X005141Y006796D01*
X004921Y006705D01*
X004683Y006705D01*
X004921Y006705D01*
X005141Y006796D01*
X005309Y006964D01*
X005400Y007183D01*
X005400Y007421D01*
X005309Y007641D01*
X005141Y007809D01*
X004921Y007900D01*
X004683Y007900D01*
X004362Y006281D02*
X007032Y006281D01*
X004362Y006281D01*
X007298Y009070D02*
X008242Y009070D01*
X007298Y009070D01*
X006928Y009469D02*
X008242Y009469D01*
X006928Y009469D01*
X006713Y009867D02*
X008242Y009867D01*
X006713Y009867D01*
X006900Y010266D02*
X008242Y010266D01*
X006900Y010266D01*
X006786Y010664D02*
X008242Y010664D01*
X006786Y010664D01*
X005819Y010664D02*
X005732Y010664D01*
X005819Y010664D01*
X005334Y011063D02*
X008242Y011063D01*
X005334Y011063D01*
X004935Y011462D02*
X008242Y011462D01*
X004935Y011462D01*
X004862Y013056D02*
X008242Y013056D01*
X004862Y013056D01*
X004862Y013454D02*
X008242Y013454D01*
X004862Y013454D01*
X004862Y013853D02*
X008242Y013853D01*
X004862Y013853D01*
X004862Y014251D02*
X008459Y014251D01*
X004862Y014251D01*
X005285Y014650D02*
X006319Y014650D01*
X005285Y014650D01*
X005566Y015048D02*
X006038Y015048D01*
X005566Y015048D01*
X005605Y015447D02*
X005999Y015447D01*
X005605Y015447D01*
X005395Y015846D02*
X006210Y015846D01*
X005395Y015846D01*
X005999Y015462D02*
X005999Y015143D01*
X006122Y014848D01*
X006348Y014622D01*
X006643Y014499D01*
X006962Y014499D01*
X007257Y014622D01*
X007483Y014848D01*
X007605Y015143D01*
X007605Y015462D01*
X007483Y015757D01*
X007257Y015983D01*
X006962Y016105D01*
X006643Y016105D01*
X006348Y015983D01*
X006122Y015757D01*
X005999Y015462D01*
X005999Y015143D01*
X006122Y014848D01*
X006348Y014622D01*
X006643Y014499D01*
X006962Y014499D01*
X007257Y014622D01*
X007483Y014848D01*
X007605Y015143D01*
X007605Y015462D01*
X007483Y015757D01*
X007257Y015983D01*
X006962Y016105D01*
X006643Y016105D01*
X006348Y015983D01*
X006122Y015757D01*
X005999Y015462D01*
X007285Y014650D02*
X008858Y014650D01*
X007285Y014650D01*
X007566Y015048D02*
X009257Y015048D01*
X007566Y015048D01*
X007605Y015447D02*
X009499Y015447D01*
X007605Y015447D01*
X007395Y015846D02*
X009710Y015846D01*
X007395Y015846D01*
X008802Y013802D02*
X010302Y015302D01*
X008802Y013802D02*
X008802Y007302D01*
X008030Y007875D02*
X007574Y007875D01*
X008030Y007875D01*
X008242Y008273D02*
X007362Y008273D01*
X008242Y008273D01*
X008242Y008672D02*
X007362Y008672D01*
X008242Y008672D01*
X007852Y007476D02*
X007753Y007476D01*
X007852Y007476D01*
X007867Y007078D02*
X007819Y007078D01*
X007867Y007078D01*
X008242Y011860D02*
X006892Y011860D01*
X008242Y011860D01*
X008242Y012259D02*
X007032Y012259D01*
X008242Y012259D01*
X008242Y012657D02*
X006946Y012657D01*
X008242Y012657D01*
X002250Y012177D02*
X002145Y012282D01*
X002092Y012190D01*
X002154Y012081D01*
X002250Y012177D01*
X002145Y012282D01*
X002092Y012190D01*
X002154Y012081D01*
X002250Y012177D01*
X002169Y012259D02*
X002131Y012259D01*
X002169Y012259D01*
X002145Y013322D02*
X002092Y013415D01*
X002154Y013523D01*
X002250Y013427D01*
X002145Y013322D01*
X002092Y013415D01*
X002154Y013523D01*
X002250Y013427D01*
X002145Y013322D01*
X002114Y013454D02*
X002223Y013454D01*
X002114Y013454D01*
X002086Y014650D02*
X002223Y014650D01*
X002086Y014650D01*
M02*
