G75*
G70*
%OFA0B0*%
%FSLAX24Y24*%
%IPPOS*%
%LPD*%
%AMOC8*
5,1,8,0,0,1.08239X$1,22.5*
%
%ADD10C,0.0060*%
%ADD11C,0.0030*%
%ADD12C,0.0100*%
%ADD13C,0.0040*%
%ADD14C,0.0050*%
%ADD15C,0.0020*%
%ADD16C,0.0080*%
%ADD17C,0.0010*%
%ADD18R,0.0150X0.0200*%
%ADD19R,0.0200X0.0150*%
D10*
X004402Y003796D02*
X004402Y004196D01*
X004452Y004246D01*
X004452Y005359D01*
X004402Y005409D01*
X004402Y005809D01*
X004404Y005826D01*
X004408Y005843D01*
X004415Y005859D01*
X004425Y005873D01*
X004438Y005886D01*
X004452Y005896D01*
X004468Y005903D01*
X004485Y005907D01*
X004502Y005909D01*
X005102Y005909D01*
X005119Y005907D01*
X005136Y005903D01*
X005152Y005896D01*
X005166Y005886D01*
X005179Y005873D01*
X005189Y005859D01*
X005196Y005843D01*
X005200Y005826D01*
X005202Y005809D01*
X005202Y005409D01*
X005152Y005359D01*
X005152Y004246D01*
X005202Y004196D01*
X005202Y003796D01*
X005200Y003779D01*
X005196Y003762D01*
X005189Y003746D01*
X005179Y003732D01*
X005166Y003719D01*
X005152Y003709D01*
X005136Y003702D01*
X005119Y003698D01*
X005102Y003696D01*
X004502Y003696D01*
X004485Y003698D01*
X004468Y003702D01*
X004452Y003709D01*
X004438Y003719D01*
X004425Y003732D01*
X004415Y003746D01*
X004408Y003762D01*
X004404Y003779D01*
X004402Y003796D01*
X007696Y001602D02*
X007696Y001002D01*
X007698Y000985D01*
X007702Y000968D01*
X007709Y000952D01*
X007719Y000938D01*
X007732Y000925D01*
X007746Y000915D01*
X007762Y000908D01*
X007779Y000904D01*
X007796Y000902D01*
X008196Y000902D01*
X008246Y000952D01*
X009359Y000952D01*
X009409Y000902D01*
X009809Y000902D01*
X009826Y000904D01*
X009843Y000908D01*
X009859Y000915D01*
X009873Y000925D01*
X009886Y000938D01*
X009896Y000952D01*
X009903Y000968D01*
X009907Y000985D01*
X009909Y001002D01*
X009909Y001602D01*
X009907Y001619D01*
X009903Y001636D01*
X009896Y001652D01*
X009886Y001666D01*
X009873Y001679D01*
X009859Y001689D01*
X009843Y001696D01*
X009826Y001700D01*
X009809Y001702D01*
X009409Y001702D01*
X009359Y001652D01*
X008246Y001652D01*
X008196Y001702D01*
X007796Y001702D01*
X007779Y001700D01*
X007762Y001696D01*
X007746Y001689D01*
X007732Y001679D01*
X007719Y001666D01*
X007709Y001652D01*
X007702Y001636D01*
X007698Y001619D01*
X007696Y001602D01*
X013132Y002939D02*
X013239Y002832D01*
X013345Y002832D01*
X013452Y002939D01*
X013452Y003153D01*
X013559Y003259D01*
X013666Y003259D01*
X013772Y003153D01*
X013772Y002939D01*
X013666Y002832D01*
X013132Y002939D02*
X013132Y003153D01*
X013239Y003259D01*
X013345Y003477D02*
X013666Y003477D01*
X013772Y003584D01*
X013772Y003904D01*
X013879Y003904D02*
X013986Y003797D01*
X013986Y003690D01*
X013879Y003904D02*
X013345Y003904D01*
X013345Y004121D02*
X013345Y004442D01*
X013452Y004548D01*
X013772Y004548D01*
X013666Y004873D02*
X013772Y004979D01*
X013666Y004873D02*
X013239Y004873D01*
X013345Y004979D02*
X013345Y004766D01*
X013452Y005196D02*
X013345Y005302D01*
X013345Y005516D01*
X013452Y005623D01*
X013772Y005623D01*
X013772Y005840D02*
X013345Y005840D01*
X013345Y006054D02*
X013345Y006160D01*
X013345Y006054D02*
X013559Y005840D01*
X013452Y006377D02*
X013666Y006377D01*
X013772Y006484D01*
X013772Y006697D01*
X013666Y006804D01*
X013452Y006804D01*
X013345Y006697D01*
X013345Y006484D01*
X013452Y006377D01*
X013345Y007022D02*
X013345Y007235D01*
X013239Y007129D02*
X013666Y007129D01*
X013772Y007235D01*
X013666Y007451D02*
X013452Y007451D01*
X013345Y007558D01*
X013345Y007772D01*
X013452Y007878D01*
X013559Y007878D01*
X013559Y007451D01*
X013666Y007451D02*
X013772Y007558D01*
X013772Y007772D01*
X013772Y008096D02*
X013132Y008096D01*
X013345Y008416D02*
X013559Y008096D01*
X013772Y008416D01*
X013772Y005196D02*
X013132Y005196D01*
X013345Y004121D02*
X013772Y004121D01*
X009809Y008902D02*
X009409Y008902D01*
X009359Y008952D01*
X008246Y008952D01*
X008196Y008902D01*
X007796Y008902D01*
X007779Y008904D01*
X007762Y008908D01*
X007746Y008915D01*
X007732Y008925D01*
X007719Y008938D01*
X007709Y008952D01*
X007702Y008968D01*
X007698Y008985D01*
X007696Y009002D01*
X007696Y009602D01*
X007698Y009619D01*
X007702Y009636D01*
X007709Y009652D01*
X007719Y009666D01*
X007732Y009679D01*
X007746Y009689D01*
X007762Y009696D01*
X007779Y009700D01*
X007796Y009702D01*
X008196Y009702D01*
X008246Y009652D01*
X009359Y009652D01*
X009409Y009702D01*
X009809Y009702D01*
X009826Y009700D01*
X009843Y009696D01*
X009859Y009689D01*
X009873Y009679D01*
X009886Y009666D01*
X009896Y009652D01*
X009903Y009636D01*
X009907Y009619D01*
X009909Y009602D01*
X009909Y009002D01*
X009907Y008985D01*
X009903Y008968D01*
X009896Y008952D01*
X009886Y008938D01*
X009873Y008925D01*
X009859Y008915D01*
X009843Y008908D01*
X009826Y008904D01*
X009809Y008902D01*
X009809Y009902D02*
X009409Y009902D01*
X009359Y009952D01*
X008246Y009952D01*
X008196Y009902D01*
X007796Y009902D01*
X007779Y009904D01*
X007762Y009908D01*
X007746Y009915D01*
X007732Y009925D01*
X007719Y009938D01*
X007709Y009952D01*
X007702Y009968D01*
X007698Y009985D01*
X007696Y010002D01*
X007696Y010602D01*
X007698Y010619D01*
X007702Y010636D01*
X007709Y010652D01*
X007719Y010666D01*
X007732Y010679D01*
X007746Y010689D01*
X007762Y010696D01*
X007779Y010700D01*
X007796Y010702D01*
X008196Y010702D01*
X008246Y010652D01*
X009359Y010652D01*
X009409Y010702D01*
X009809Y010702D01*
X009826Y010700D01*
X009843Y010696D01*
X009859Y010689D01*
X009873Y010679D01*
X009886Y010666D01*
X009896Y010652D01*
X009903Y010636D01*
X009907Y010619D01*
X009909Y010602D01*
X009909Y010002D01*
X009907Y009985D01*
X009903Y009968D01*
X009896Y009952D01*
X009886Y009938D01*
X009873Y009925D01*
X009859Y009915D01*
X009843Y009908D01*
X009826Y009904D01*
X009809Y009902D01*
X010302Y012302D02*
X010304Y012365D01*
X010310Y012427D01*
X010320Y012489D01*
X010333Y012551D01*
X010351Y012611D01*
X010372Y012670D01*
X010397Y012728D01*
X010426Y012784D01*
X010458Y012838D01*
X010493Y012890D01*
X010531Y012939D01*
X010573Y012987D01*
X010617Y013031D01*
X010665Y013073D01*
X010714Y013111D01*
X010766Y013146D01*
X010820Y013178D01*
X010876Y013207D01*
X010934Y013232D01*
X010993Y013253D01*
X011053Y013271D01*
X011115Y013284D01*
X011177Y013294D01*
X011239Y013300D01*
X011302Y013302D01*
X011365Y013300D01*
X011427Y013294D01*
X011489Y013284D01*
X011551Y013271D01*
X011611Y013253D01*
X011670Y013232D01*
X011728Y013207D01*
X011784Y013178D01*
X011838Y013146D01*
X011890Y013111D01*
X011939Y013073D01*
X011987Y013031D01*
X012031Y012987D01*
X012073Y012939D01*
X012111Y012890D01*
X012146Y012838D01*
X012178Y012784D01*
X012207Y012728D01*
X012232Y012670D01*
X012253Y012611D01*
X012271Y012551D01*
X012284Y012489D01*
X012294Y012427D01*
X012300Y012365D01*
X012302Y012302D01*
X012300Y012239D01*
X012294Y012177D01*
X012284Y012115D01*
X012271Y012053D01*
X012253Y011993D01*
X012232Y011934D01*
X012207Y011876D01*
X012178Y011820D01*
X012146Y011766D01*
X012111Y011714D01*
X012073Y011665D01*
X012031Y011617D01*
X011987Y011573D01*
X011939Y011531D01*
X011890Y011493D01*
X011838Y011458D01*
X011784Y011426D01*
X011728Y011397D01*
X011670Y011372D01*
X011611Y011351D01*
X011551Y011333D01*
X011489Y011320D01*
X011427Y011310D01*
X011365Y011304D01*
X011302Y011302D01*
X011239Y011304D01*
X011177Y011310D01*
X011115Y011320D01*
X011053Y011333D01*
X010993Y011351D01*
X010934Y011372D01*
X010876Y011397D01*
X010820Y011426D01*
X010766Y011458D01*
X010714Y011493D01*
X010665Y011531D01*
X010617Y011573D01*
X010573Y011617D01*
X010531Y011665D01*
X010493Y011714D01*
X010458Y011766D01*
X010426Y011820D01*
X010397Y011876D01*
X010372Y011934D01*
X010351Y011993D01*
X010333Y012053D01*
X010320Y012115D01*
X010310Y012177D01*
X010304Y012239D01*
X010302Y012302D01*
X004802Y012302D02*
X004804Y012365D01*
X004810Y012427D01*
X004820Y012489D01*
X004833Y012551D01*
X004851Y012611D01*
X004872Y012670D01*
X004897Y012728D01*
X004926Y012784D01*
X004958Y012838D01*
X004993Y012890D01*
X005031Y012939D01*
X005073Y012987D01*
X005117Y013031D01*
X005165Y013073D01*
X005214Y013111D01*
X005266Y013146D01*
X005320Y013178D01*
X005376Y013207D01*
X005434Y013232D01*
X005493Y013253D01*
X005553Y013271D01*
X005615Y013284D01*
X005677Y013294D01*
X005739Y013300D01*
X005802Y013302D01*
X005865Y013300D01*
X005927Y013294D01*
X005989Y013284D01*
X006051Y013271D01*
X006111Y013253D01*
X006170Y013232D01*
X006228Y013207D01*
X006284Y013178D01*
X006338Y013146D01*
X006390Y013111D01*
X006439Y013073D01*
X006487Y013031D01*
X006531Y012987D01*
X006573Y012939D01*
X006611Y012890D01*
X006646Y012838D01*
X006678Y012784D01*
X006707Y012728D01*
X006732Y012670D01*
X006753Y012611D01*
X006771Y012551D01*
X006784Y012489D01*
X006794Y012427D01*
X006800Y012365D01*
X006802Y012302D01*
X006800Y012239D01*
X006794Y012177D01*
X006784Y012115D01*
X006771Y012053D01*
X006753Y011993D01*
X006732Y011934D01*
X006707Y011876D01*
X006678Y011820D01*
X006646Y011766D01*
X006611Y011714D01*
X006573Y011665D01*
X006531Y011617D01*
X006487Y011573D01*
X006439Y011531D01*
X006390Y011493D01*
X006338Y011458D01*
X006284Y011426D01*
X006228Y011397D01*
X006170Y011372D01*
X006111Y011351D01*
X006051Y011333D01*
X005989Y011320D01*
X005927Y011310D01*
X005865Y011304D01*
X005802Y011302D01*
X005739Y011304D01*
X005677Y011310D01*
X005615Y011320D01*
X005553Y011333D01*
X005493Y011351D01*
X005434Y011372D01*
X005376Y011397D01*
X005320Y011426D01*
X005266Y011458D01*
X005214Y011493D01*
X005165Y011531D01*
X005117Y011573D01*
X005073Y011617D01*
X005031Y011665D01*
X004993Y011714D01*
X004958Y011766D01*
X004926Y011820D01*
X004897Y011876D01*
X004872Y011934D01*
X004851Y011993D01*
X004833Y012053D01*
X004820Y012115D01*
X004810Y012177D01*
X004804Y012239D01*
X004802Y012302D01*
D11*
X002273Y002297D02*
X002176Y002297D01*
X002225Y002297D02*
X002225Y002588D01*
X002273Y002588D02*
X002176Y002588D01*
X002373Y002588D02*
X002373Y002297D01*
X002566Y002297D02*
X002566Y002588D01*
X002373Y002588D02*
X002566Y002297D01*
X001587Y003589D02*
X001297Y003589D01*
X001297Y003492D02*
X001297Y003686D01*
X001297Y005067D02*
X001297Y005212D01*
X001346Y005261D01*
X001442Y005261D01*
X001491Y005212D01*
X001491Y005067D01*
X001587Y005067D02*
X001297Y005067D01*
X001491Y005164D02*
X001587Y005261D01*
X001539Y006467D02*
X001587Y006516D01*
X001587Y006612D01*
X001539Y006661D01*
X001491Y006661D01*
X001442Y006612D01*
X001442Y006516D01*
X001394Y006467D01*
X001346Y006467D01*
X001297Y006516D01*
X001297Y006612D01*
X001346Y006661D01*
X001967Y011454D02*
X001967Y011559D01*
X002002Y011594D01*
X002072Y011594D01*
X002107Y011559D01*
X002107Y011454D01*
X002177Y011454D02*
X001967Y011454D01*
X002002Y012679D02*
X002142Y012679D01*
X002177Y012714D01*
X002177Y012784D01*
X002142Y012819D01*
X002002Y012819D02*
X001967Y012784D01*
X001967Y012714D01*
X002002Y012679D01*
X002002Y013914D02*
X002037Y013914D01*
X002072Y013949D01*
X002072Y014019D01*
X002107Y014054D01*
X002142Y014054D01*
X002177Y014019D01*
X002177Y013949D01*
X002142Y013914D01*
X002002Y013914D02*
X001967Y013949D01*
X001967Y014019D01*
X002002Y014054D01*
X003460Y013398D02*
X003670Y013398D01*
X003600Y013398D02*
X003530Y013503D01*
X003600Y013398D02*
X003670Y013503D01*
X003670Y013317D02*
X003670Y013212D01*
X003635Y013177D01*
X003565Y013177D01*
X003530Y013212D01*
X003530Y013317D01*
X003565Y013096D02*
X003670Y013096D01*
X003670Y012991D01*
X003635Y012956D01*
X003600Y012991D01*
X003600Y013096D01*
X003565Y013096D02*
X003530Y013061D01*
X003530Y012991D01*
X003460Y012875D02*
X003460Y012805D01*
X003460Y012840D02*
X003635Y012840D01*
X003670Y012805D01*
X003670Y012770D01*
X003635Y012735D01*
X003635Y012433D02*
X003670Y012398D01*
X003670Y012328D01*
X003635Y012293D01*
X003495Y012293D01*
X003460Y012328D01*
X003460Y012398D01*
X003495Y012433D01*
X003495Y012212D02*
X003460Y012177D01*
X003460Y012072D01*
X003670Y012072D01*
X003670Y012177D01*
X003635Y012212D01*
X003495Y012212D01*
X007167Y012183D02*
X007167Y011936D01*
X007537Y011936D01*
X007537Y012183D01*
X007537Y012304D02*
X007537Y012489D01*
X007476Y012551D01*
X007229Y012551D01*
X007167Y012489D01*
X007167Y012304D01*
X007537Y012304D01*
X007352Y012059D02*
X007352Y011936D01*
X007537Y011814D02*
X007537Y011567D01*
X007167Y011567D01*
X007291Y012672D02*
X007167Y012796D01*
X007537Y012796D01*
X007537Y012919D02*
X007537Y012672D01*
X012917Y012734D02*
X012979Y012672D01*
X012917Y012734D02*
X012917Y012857D01*
X012979Y012919D01*
X013041Y012919D01*
X013287Y012672D01*
X013287Y012919D01*
X013226Y012551D02*
X012979Y012551D01*
X012917Y012489D01*
X012917Y012304D01*
X013287Y012304D01*
X013287Y012489D01*
X013226Y012551D01*
X013287Y012183D02*
X013287Y011936D01*
X012917Y011936D01*
X012917Y012183D01*
X013102Y012059D02*
X013102Y011936D01*
X013287Y011814D02*
X013287Y011567D01*
X012917Y011567D01*
X014602Y008957D02*
X014787Y008957D01*
X014602Y008957D02*
X014541Y008895D01*
X014541Y008772D01*
X014602Y008710D01*
X014541Y008589D02*
X014541Y008404D01*
X014602Y008342D01*
X014726Y008342D01*
X014787Y008404D01*
X014787Y008589D01*
X014787Y008710D02*
X014417Y008710D01*
X014541Y008220D02*
X014541Y008096D01*
X014479Y008158D02*
X014726Y008158D01*
X014787Y008220D01*
X014787Y007974D02*
X014787Y007851D01*
X014787Y007913D02*
X014541Y007913D01*
X014541Y007851D01*
X014541Y007729D02*
X014726Y007729D01*
X014787Y007668D01*
X014726Y007606D01*
X014787Y007544D01*
X014726Y007483D01*
X014541Y007483D01*
X014479Y007361D02*
X014417Y007299D01*
X014417Y007176D01*
X014479Y007114D01*
X014541Y007114D01*
X014602Y007176D01*
X014602Y007299D01*
X014664Y007361D01*
X014726Y007361D01*
X014787Y007299D01*
X014787Y007176D01*
X014726Y007114D01*
X014726Y006624D02*
X014664Y006624D01*
X014602Y006563D01*
X014602Y006378D01*
X014602Y006563D02*
X014541Y006624D01*
X014479Y006624D01*
X014417Y006563D01*
X014417Y006378D01*
X014787Y006378D01*
X014787Y006563D01*
X014726Y006624D01*
X014417Y006256D02*
X014787Y006009D01*
X014787Y005888D02*
X014541Y005888D01*
X014417Y005764D01*
X014541Y005641D01*
X014787Y005641D01*
X014602Y005641D02*
X014602Y005888D01*
X014602Y005151D02*
X014664Y005151D01*
X014664Y004904D01*
X014726Y004904D02*
X014602Y004904D01*
X014541Y004966D01*
X014541Y005090D01*
X014602Y005151D01*
X014787Y005090D02*
X014787Y004966D01*
X014726Y004904D01*
X014541Y004783D02*
X014787Y004660D01*
X014541Y004536D01*
X014541Y004352D02*
X014787Y004352D01*
X014787Y004291D02*
X014787Y004414D01*
X014726Y004169D02*
X014664Y004107D01*
X014664Y003984D01*
X014602Y003922D01*
X014541Y003984D01*
X014541Y004169D01*
X014541Y004291D02*
X014541Y004352D01*
X014417Y004352D02*
X014355Y004352D01*
X014726Y004169D02*
X014787Y004107D01*
X014787Y003922D01*
X014726Y003801D02*
X014664Y003739D01*
X014664Y003616D01*
X014602Y003554D01*
X014541Y003616D01*
X014541Y003801D01*
X014726Y003801D02*
X014787Y003739D01*
X014787Y003554D01*
X014787Y003433D02*
X014787Y003247D01*
X014726Y003186D01*
X014664Y003247D01*
X014664Y003433D01*
X014602Y003433D02*
X014787Y003433D01*
X014602Y003433D02*
X014541Y003371D01*
X014541Y003247D01*
X014602Y003064D02*
X014479Y003064D01*
X014417Y003003D01*
X014417Y002817D01*
X014787Y002817D01*
X014664Y002817D02*
X014664Y003003D01*
X014602Y003064D01*
X014417Y007913D02*
X014355Y007913D01*
D12*
X011802Y008302D02*
X011802Y002302D01*
X009802Y002302D01*
X009802Y003359D01*
X009802Y003630D02*
X009802Y003679D01*
X009802Y003950D02*
X009802Y005007D01*
X009802Y005278D02*
X009802Y005327D01*
X009802Y005598D02*
X009802Y006655D01*
X009802Y006925D02*
X009802Y006975D01*
X009802Y007245D02*
X009802Y008302D01*
X011802Y008302D01*
X011302Y006302D02*
X010302Y006302D01*
X010302Y004302D02*
X011302Y004302D01*
X009802Y002302D02*
X007802Y002302D01*
X007802Y003359D01*
X007802Y003630D02*
X007802Y003679D01*
X007802Y003950D02*
X007802Y005007D01*
X007802Y005278D02*
X007802Y005327D01*
X007802Y005598D02*
X007802Y006655D01*
X007802Y006925D02*
X007802Y006975D01*
X007802Y007245D02*
X007802Y008302D01*
X009802Y008302D01*
X007802Y008302D02*
X005802Y008302D01*
X005802Y002302D01*
X007802Y002302D01*
X007302Y004302D02*
X006302Y004302D01*
X006302Y006302D02*
X007302Y006302D01*
X003527Y007902D02*
X003527Y008210D01*
X003527Y007902D02*
X000552Y007902D01*
X000552Y010702D01*
X003527Y010702D01*
X003527Y010307D01*
X003527Y010877D02*
X003527Y011685D01*
X003527Y010877D02*
X000552Y010877D01*
X000552Y014727D01*
X003527Y014727D01*
X003527Y013992D01*
X002017Y010182D02*
X002017Y009827D01*
X001842Y010007D02*
X002192Y010007D01*
X002017Y008767D02*
X002017Y008417D01*
D13*
X006072Y006759D02*
X006166Y006853D01*
X006166Y006572D01*
X006259Y006572D02*
X006072Y006572D01*
X007322Y007822D02*
X007322Y008009D01*
X007416Y008103D01*
X007509Y008009D01*
X007509Y007822D01*
X007509Y007962D02*
X007322Y007962D01*
X008119Y006353D02*
X008072Y006306D01*
X008072Y006259D01*
X008119Y006212D01*
X008212Y006212D01*
X008259Y006166D01*
X008259Y006119D01*
X008212Y006072D01*
X008119Y006072D01*
X008072Y006119D01*
X008259Y006306D02*
X008212Y006353D01*
X008119Y006353D01*
X008367Y006353D02*
X008367Y006072D01*
X008460Y006166D01*
X008554Y006072D01*
X008554Y006353D01*
X008662Y006259D02*
X008755Y006353D01*
X008755Y006072D01*
X008662Y006072D02*
X008848Y006072D01*
X008912Y004353D02*
X009052Y004353D01*
X009098Y004306D01*
X009098Y004119D01*
X009052Y004072D01*
X008912Y004072D01*
X008912Y004353D01*
X008804Y004306D02*
X008804Y004212D01*
X008757Y004166D01*
X008617Y004166D01*
X008617Y004072D02*
X008617Y004353D01*
X008757Y004353D01*
X008804Y004306D01*
X008509Y004306D02*
X008509Y004259D01*
X008462Y004212D01*
X008509Y004166D01*
X008509Y004119D01*
X008462Y004072D01*
X008369Y004072D01*
X008322Y004119D01*
X008416Y004212D02*
X008462Y004212D01*
X008509Y004306D02*
X008462Y004353D01*
X008369Y004353D01*
X008322Y004306D01*
X009206Y004353D02*
X009393Y004353D01*
X009300Y004353D02*
X009300Y004072D01*
X006259Y004572D02*
X006072Y004572D01*
X006259Y004759D01*
X006259Y004806D01*
X006212Y004853D01*
X006119Y004853D01*
X006072Y004806D01*
X006119Y002853D02*
X006072Y002806D01*
X006119Y002853D02*
X006212Y002853D01*
X006259Y002806D01*
X006259Y002759D01*
X006212Y002712D01*
X006259Y002666D01*
X006259Y002619D01*
X006212Y002572D01*
X006119Y002572D01*
X006072Y002619D01*
X006166Y002712D02*
X006212Y002712D01*
X009322Y007822D02*
X009462Y007822D01*
X009509Y007869D01*
X009509Y007916D01*
X009462Y007962D01*
X009322Y007962D01*
X009322Y007822D02*
X009322Y008103D01*
X009462Y008103D01*
X009509Y008056D01*
X009509Y008009D01*
X009462Y007962D01*
X011322Y007869D02*
X011369Y007822D01*
X011462Y007822D01*
X011509Y007869D01*
X011322Y007869D02*
X011322Y008056D01*
X011369Y008103D01*
X011462Y008103D01*
X011509Y008056D01*
D14*
X009179Y009146D02*
X009121Y009087D01*
X009004Y009087D01*
X008946Y009146D01*
X008811Y009087D02*
X008694Y009204D01*
X008752Y009204D02*
X008811Y009262D01*
X008811Y009379D01*
X008752Y009438D01*
X008577Y009438D01*
X008577Y009087D01*
X008577Y009204D02*
X008752Y009204D01*
X008946Y009379D02*
X009004Y009438D01*
X009121Y009438D01*
X009179Y009379D01*
X009179Y009321D01*
X009121Y009262D01*
X009179Y009204D01*
X009179Y009146D01*
X009121Y009262D02*
X009062Y009262D01*
X008943Y010167D02*
X008709Y010167D01*
X008826Y010167D02*
X008826Y010518D01*
X008709Y010401D01*
X008574Y010459D02*
X008574Y010342D01*
X008516Y010284D01*
X008341Y010284D01*
X008457Y010284D02*
X008574Y010167D01*
X008341Y010167D02*
X008341Y010518D01*
X008516Y010518D01*
X008574Y010459D01*
X009552Y014552D02*
X009552Y016302D01*
X013052Y016302D01*
X013052Y014552D01*
X009552Y014552D01*
X007552Y014552D02*
X004052Y014552D01*
X004052Y016302D01*
X007552Y016302D01*
X007552Y014552D01*
X003002Y007327D02*
X001077Y007327D01*
X001077Y002777D01*
X003002Y002777D01*
X003002Y007327D01*
X004587Y004884D02*
X004762Y004709D01*
X004762Y004943D01*
X004937Y004884D02*
X004587Y004884D01*
X004645Y004574D02*
X004762Y004574D01*
X004821Y004516D01*
X004821Y004341D01*
X004937Y004341D02*
X004587Y004341D01*
X004587Y004516D01*
X004645Y004574D01*
X004821Y004457D02*
X004937Y004574D01*
X008577Y001438D02*
X008577Y001087D01*
X008577Y001204D02*
X008752Y001204D01*
X008811Y001262D01*
X008811Y001379D01*
X008752Y001438D01*
X008577Y001438D01*
X008694Y001204D02*
X008811Y001087D01*
X008946Y001087D02*
X009179Y001321D01*
X009179Y001379D01*
X009121Y001438D01*
X009004Y001438D01*
X008946Y001379D01*
X008946Y001087D02*
X009179Y001087D01*
D15*
X003656Y008386D02*
X003686Y008416D01*
X003686Y008476D01*
X003656Y008506D01*
X003536Y008506D01*
X003506Y008476D01*
X003506Y008416D01*
X003536Y008386D01*
X003566Y008386D01*
X003596Y008416D01*
X003596Y008506D01*
X003626Y008570D02*
X003506Y008570D01*
X003626Y008570D02*
X003686Y008630D01*
X003626Y008690D01*
X003506Y008690D01*
X003506Y008938D02*
X003506Y009028D01*
X003536Y009058D01*
X003566Y009058D01*
X003596Y009028D01*
X003596Y008938D01*
X003686Y008938D02*
X003686Y009028D01*
X003656Y009058D01*
X003626Y009058D01*
X003596Y009028D01*
X003656Y009122D02*
X003626Y009152D01*
X003626Y009242D01*
X003596Y009242D02*
X003686Y009242D01*
X003686Y009152D01*
X003656Y009122D01*
X003566Y009152D02*
X003566Y009212D01*
X003596Y009242D01*
X003566Y009306D02*
X003566Y009367D01*
X003536Y009336D02*
X003656Y009336D01*
X003686Y009367D01*
X003656Y009459D02*
X003536Y009459D01*
X003566Y009429D02*
X003566Y009489D01*
X003596Y009552D02*
X003566Y009582D01*
X003566Y009642D01*
X003596Y009672D01*
X003626Y009672D01*
X003626Y009552D01*
X003656Y009552D02*
X003596Y009552D01*
X003656Y009552D02*
X003686Y009582D01*
X003686Y009642D01*
X003686Y009736D02*
X003566Y009736D01*
X003626Y009736D02*
X003566Y009796D01*
X003566Y009826D01*
X003566Y009890D02*
X003656Y009890D01*
X003686Y009920D01*
X003686Y010010D01*
X003716Y010010D02*
X003746Y009980D01*
X003746Y009950D01*
X003716Y010010D02*
X003566Y010010D01*
X003686Y009489D02*
X003656Y009459D01*
X003686Y008938D02*
X003506Y008938D01*
X003684Y014962D02*
X003831Y014962D01*
X003867Y014999D01*
X003867Y015072D01*
X003831Y015109D01*
X003684Y015109D01*
X003647Y015072D01*
X003647Y014999D01*
X003684Y014962D01*
X003647Y015183D02*
X003831Y015183D01*
X003867Y015220D01*
X003867Y015293D01*
X003831Y015330D01*
X003647Y015330D01*
X003647Y015404D02*
X003647Y015551D01*
X003647Y015478D02*
X003867Y015478D01*
X003904Y015625D02*
X003904Y015772D01*
X003867Y015846D02*
X003721Y015846D01*
X003647Y015920D01*
X003721Y015993D01*
X003867Y015993D01*
X003757Y015993D02*
X003757Y015846D01*
X004725Y016120D02*
X004872Y016120D01*
X004798Y016120D02*
X004798Y015900D01*
X006775Y015962D02*
X006812Y015925D01*
X006885Y015925D01*
X006922Y015962D01*
X006922Y015998D01*
X006885Y016035D01*
X006812Y016035D01*
X006775Y016072D01*
X006775Y016108D01*
X006812Y016145D01*
X006885Y016145D01*
X006922Y016108D01*
X009147Y015956D02*
X009147Y015846D01*
X009367Y015846D01*
X009367Y015956D01*
X009331Y015993D01*
X009294Y015993D01*
X009257Y015956D01*
X009257Y015846D01*
X009257Y015956D02*
X009221Y015993D01*
X009184Y015993D01*
X009147Y015956D01*
X009404Y015772D02*
X009404Y015625D01*
X009367Y015478D02*
X009147Y015478D01*
X009147Y015551D02*
X009147Y015404D01*
X009147Y015330D02*
X009331Y015330D01*
X009367Y015293D01*
X009367Y015220D01*
X009331Y015183D01*
X009147Y015183D01*
X009184Y015109D02*
X009147Y015072D01*
X009147Y014999D01*
X009184Y014962D01*
X009331Y014962D01*
X009367Y014999D01*
X009367Y015072D01*
X009331Y015109D01*
X009184Y015109D01*
X010298Y015900D02*
X010298Y016120D01*
X010225Y016120D02*
X010372Y016120D01*
X012275Y016108D02*
X012275Y016072D01*
X012312Y016035D01*
X012385Y016035D01*
X012422Y015998D01*
X012422Y015962D01*
X012385Y015925D01*
X012312Y015925D01*
X012275Y015962D01*
X012275Y016108D02*
X012312Y016145D01*
X012385Y016145D01*
X012422Y016108D01*
D16*
X012302Y013052D02*
X012302Y011552D01*
X006802Y011552D02*
X006802Y013052D01*
D17*
X006834Y013082D02*
X006762Y013028D01*
X006763Y013029D02*
X006720Y013082D01*
X006675Y013133D01*
X006626Y013181D01*
X006575Y013226D01*
X006521Y013269D01*
X006465Y013308D01*
X006407Y013344D01*
X006347Y013377D01*
X006286Y013406D01*
X006222Y013431D01*
X006158Y013453D01*
X006092Y013472D01*
X006025Y013486D01*
X005958Y013497D01*
X005890Y013504D01*
X005822Y013507D01*
X005753Y013506D01*
X005685Y013501D01*
X005617Y013493D01*
X005550Y013480D01*
X005484Y013464D01*
X005419Y013444D01*
X005354Y013421D01*
X005292Y013394D01*
X005231Y013363D01*
X005172Y013329D01*
X005114Y013292D01*
X005059Y013251D01*
X005007Y013207D01*
X004957Y013161D01*
X004910Y013112D01*
X004865Y013060D01*
X004824Y013006D01*
X004785Y012949D01*
X004750Y012890D01*
X004719Y012830D01*
X004691Y012768D01*
X004666Y012704D01*
X004645Y012639D01*
X004628Y012573D01*
X004614Y012506D01*
X004605Y012438D01*
X004599Y012370D01*
X004597Y012302D01*
X004599Y012234D01*
X004605Y012166D01*
X004614Y012098D01*
X004628Y012031D01*
X004645Y011965D01*
X004666Y011900D01*
X004691Y011836D01*
X004719Y011774D01*
X004750Y011714D01*
X004785Y011655D01*
X004824Y011598D01*
X004865Y011544D01*
X004910Y011492D01*
X004957Y011443D01*
X005007Y011397D01*
X005059Y011353D01*
X005114Y011312D01*
X005172Y011275D01*
X005231Y011241D01*
X005292Y011210D01*
X005354Y011183D01*
X005419Y011160D01*
X005484Y011140D01*
X005550Y011124D01*
X005617Y011111D01*
X005685Y011103D01*
X005753Y011098D01*
X005822Y011097D01*
X005890Y011100D01*
X005958Y011107D01*
X006025Y011118D01*
X006092Y011132D01*
X006158Y011151D01*
X006222Y011173D01*
X006286Y011198D01*
X006347Y011227D01*
X006407Y011260D01*
X006465Y011296D01*
X006521Y011335D01*
X006575Y011378D01*
X006626Y011423D01*
X006675Y011471D01*
X006720Y011522D01*
X006763Y011575D01*
X006834Y011522D01*
X006835Y011521D01*
X006791Y011466D01*
X006743Y011413D01*
X006693Y011362D01*
X006640Y011315D01*
X006585Y011271D01*
X006527Y011229D01*
X006467Y011191D01*
X006406Y011156D01*
X006342Y011125D01*
X006277Y011097D01*
X006210Y011073D01*
X006142Y011052D01*
X006073Y011036D01*
X006003Y011023D01*
X005933Y011014D01*
X005862Y011008D01*
X005791Y011007D01*
X005720Y011010D01*
X005649Y011016D01*
X005579Y011026D01*
X005510Y011040D01*
X005441Y011058D01*
X005373Y011080D01*
X005307Y011105D01*
X005242Y011134D01*
X005179Y011167D01*
X005118Y011203D01*
X005059Y011242D01*
X005002Y011284D01*
X004947Y011329D01*
X004895Y011378D01*
X004846Y011429D01*
X004799Y011482D01*
X004756Y011539D01*
X004716Y011597D01*
X004679Y011658D01*
X004645Y011720D01*
X004615Y011784D01*
X004588Y011850D01*
X004565Y011917D01*
X004546Y011986D01*
X004531Y012055D01*
X004519Y012125D01*
X004511Y012196D01*
X004507Y012267D01*
X004507Y012337D01*
X004511Y012408D01*
X004519Y012479D01*
X004531Y012549D01*
X004546Y012618D01*
X004565Y012687D01*
X004588Y012754D01*
X004615Y012820D01*
X004645Y012884D01*
X004679Y012946D01*
X004716Y013007D01*
X004756Y013065D01*
X004799Y013122D01*
X004846Y013175D01*
X004895Y013226D01*
X004947Y013275D01*
X005002Y013320D01*
X005059Y013362D01*
X005118Y013401D01*
X005179Y013437D01*
X005242Y013470D01*
X005307Y013499D01*
X005373Y013524D01*
X005441Y013546D01*
X005510Y013564D01*
X005579Y013578D01*
X005649Y013588D01*
X005720Y013594D01*
X005791Y013597D01*
X005862Y013596D01*
X005933Y013590D01*
X006003Y013581D01*
X006073Y013568D01*
X006142Y013552D01*
X006210Y013531D01*
X006277Y013507D01*
X006342Y013479D01*
X006406Y013448D01*
X006467Y013413D01*
X006527Y013375D01*
X006585Y013333D01*
X006640Y013289D01*
X006693Y013242D01*
X006743Y013191D01*
X006791Y013138D01*
X006835Y013083D01*
X006828Y013078D01*
X006783Y013133D01*
X006736Y013186D01*
X006685Y013237D01*
X006632Y013284D01*
X006576Y013329D01*
X006518Y013370D01*
X006458Y013408D01*
X006396Y013443D01*
X006332Y013474D01*
X006266Y013501D01*
X006199Y013525D01*
X006130Y013545D01*
X006061Y013562D01*
X005991Y013574D01*
X005920Y013583D01*
X005849Y013587D01*
X005778Y013588D01*
X005707Y013584D01*
X005636Y013577D01*
X005565Y013566D01*
X005496Y013551D01*
X005427Y013532D01*
X005359Y013509D01*
X005293Y013483D01*
X005228Y013453D01*
X005166Y013419D01*
X005105Y013383D01*
X005046Y013342D01*
X004989Y013299D01*
X004935Y013252D01*
X004884Y013203D01*
X004836Y013150D01*
X004790Y013096D01*
X004748Y013038D01*
X004709Y012979D01*
X004673Y012917D01*
X004640Y012854D01*
X004612Y012789D01*
X004586Y012722D01*
X004565Y012654D01*
X004547Y012585D01*
X004534Y012515D01*
X004524Y012444D01*
X004518Y012373D01*
X004516Y012302D01*
X004518Y012231D01*
X004524Y012160D01*
X004534Y012089D01*
X004547Y012019D01*
X004565Y011950D01*
X004586Y011882D01*
X004612Y011815D01*
X004640Y011750D01*
X004673Y011687D01*
X004709Y011625D01*
X004748Y011566D01*
X004790Y011508D01*
X004836Y011454D01*
X004884Y011401D01*
X004935Y011352D01*
X004989Y011305D01*
X005046Y011262D01*
X005105Y011221D01*
X005166Y011185D01*
X005228Y011151D01*
X005293Y011121D01*
X005359Y011095D01*
X005427Y011072D01*
X005496Y011053D01*
X005565Y011038D01*
X005636Y011027D01*
X005707Y011020D01*
X005778Y011016D01*
X005849Y011017D01*
X005920Y011021D01*
X005991Y011030D01*
X006061Y011042D01*
X006130Y011059D01*
X006199Y011079D01*
X006266Y011103D01*
X006332Y011130D01*
X006396Y011161D01*
X006458Y011196D01*
X006518Y011234D01*
X006576Y011275D01*
X006632Y011320D01*
X006685Y011367D01*
X006736Y011418D01*
X006783Y011471D01*
X006828Y011526D01*
X006821Y011532D01*
X006776Y011477D01*
X006729Y011424D01*
X006679Y011374D01*
X006626Y011327D01*
X006571Y011283D01*
X006513Y011241D01*
X006454Y011204D01*
X006392Y011169D01*
X006328Y011138D01*
X006263Y011111D01*
X006196Y011087D01*
X006128Y011067D01*
X006059Y011051D01*
X005990Y011039D01*
X005919Y011030D01*
X005849Y011026D01*
X005778Y011025D01*
X005707Y011029D01*
X005637Y011036D01*
X005567Y011047D01*
X005498Y011062D01*
X005430Y011081D01*
X005362Y011103D01*
X005297Y011129D01*
X005232Y011159D01*
X005170Y011192D01*
X005110Y011229D01*
X005051Y011269D01*
X004995Y011312D01*
X004941Y011358D01*
X004891Y011408D01*
X004842Y011459D01*
X004797Y011514D01*
X004755Y011571D01*
X004716Y011630D01*
X004681Y011691D01*
X004648Y011754D01*
X004620Y011819D01*
X004595Y011885D01*
X004574Y011953D01*
X004556Y012021D01*
X004543Y012091D01*
X004533Y012161D01*
X004527Y012231D01*
X004525Y012302D01*
X004527Y012373D01*
X004533Y012443D01*
X004543Y012513D01*
X004556Y012583D01*
X004574Y012651D01*
X004595Y012719D01*
X004620Y012785D01*
X004648Y012850D01*
X004681Y012913D01*
X004716Y012974D01*
X004755Y013033D01*
X004797Y013090D01*
X004842Y013145D01*
X004891Y013196D01*
X004941Y013246D01*
X004995Y013292D01*
X005051Y013335D01*
X005110Y013375D01*
X005170Y013412D01*
X005232Y013445D01*
X005297Y013475D01*
X005362Y013501D01*
X005430Y013523D01*
X005498Y013542D01*
X005567Y013557D01*
X005637Y013568D01*
X005707Y013575D01*
X005778Y013579D01*
X005849Y013578D01*
X005919Y013574D01*
X005990Y013565D01*
X006059Y013553D01*
X006128Y013537D01*
X006196Y013517D01*
X006263Y013493D01*
X006328Y013466D01*
X006392Y013435D01*
X006454Y013400D01*
X006513Y013363D01*
X006571Y013321D01*
X006626Y013277D01*
X006679Y013230D01*
X006729Y013180D01*
X006776Y013127D01*
X006821Y013072D01*
X006813Y013067D01*
X006769Y013122D01*
X006721Y013175D01*
X006671Y013225D01*
X006618Y013273D01*
X006562Y013317D01*
X006504Y013358D01*
X006444Y013395D01*
X006382Y013430D01*
X006318Y013460D01*
X006252Y013487D01*
X006185Y013511D01*
X006117Y013530D01*
X006047Y013546D01*
X005977Y013558D01*
X005907Y013566D01*
X005836Y013570D01*
X005765Y013569D01*
X005694Y013565D01*
X005623Y013557D01*
X005553Y013545D01*
X005484Y013529D01*
X005416Y013510D01*
X005348Y013486D01*
X005283Y013459D01*
X005219Y013428D01*
X005157Y013394D01*
X005097Y013356D01*
X005039Y013314D01*
X004983Y013270D01*
X004930Y013223D01*
X004880Y013172D01*
X004833Y013119D01*
X004788Y013064D01*
X004747Y013006D01*
X004710Y012946D01*
X004675Y012883D01*
X004644Y012819D01*
X004617Y012754D01*
X004594Y012687D01*
X004574Y012618D01*
X004558Y012549D01*
X004546Y012479D01*
X004538Y012408D01*
X004534Y012338D01*
X004534Y012266D01*
X004538Y012196D01*
X004546Y012125D01*
X004558Y012055D01*
X004574Y011986D01*
X004594Y011917D01*
X004617Y011850D01*
X004644Y011785D01*
X004675Y011721D01*
X004710Y011658D01*
X004747Y011598D01*
X004788Y011540D01*
X004833Y011485D01*
X004880Y011432D01*
X004930Y011381D01*
X004983Y011334D01*
X005039Y011290D01*
X005097Y011248D01*
X005157Y011210D01*
X005219Y011176D01*
X005283Y011145D01*
X005348Y011118D01*
X005416Y011094D01*
X005484Y011075D01*
X005553Y011059D01*
X005623Y011047D01*
X005694Y011039D01*
X005765Y011035D01*
X005836Y011034D01*
X005907Y011038D01*
X005977Y011046D01*
X006047Y011058D01*
X006117Y011074D01*
X006185Y011093D01*
X006252Y011117D01*
X006318Y011144D01*
X006382Y011174D01*
X006444Y011209D01*
X006504Y011246D01*
X006562Y011287D01*
X006618Y011331D01*
X006671Y011379D01*
X006721Y011429D01*
X006769Y011482D01*
X006813Y011537D01*
X006806Y011543D01*
X006762Y011488D01*
X006715Y011435D01*
X006665Y011385D01*
X006612Y011338D01*
X006557Y011294D01*
X006499Y011254D01*
X006440Y011216D01*
X006378Y011182D01*
X006314Y011152D01*
X006249Y011125D01*
X006182Y011102D01*
X006114Y011082D01*
X006046Y011067D01*
X005976Y011055D01*
X005906Y011047D01*
X005835Y011043D01*
X005765Y011044D01*
X005694Y011048D01*
X005624Y011056D01*
X005555Y011068D01*
X005486Y011083D01*
X005418Y011103D01*
X005352Y011126D01*
X005287Y011153D01*
X005223Y011184D01*
X005161Y011218D01*
X005102Y011256D01*
X005044Y011297D01*
X004989Y011341D01*
X004936Y011388D01*
X004887Y011438D01*
X004840Y011490D01*
X004796Y011546D01*
X004755Y011603D01*
X004717Y011663D01*
X004683Y011725D01*
X004653Y011788D01*
X004626Y011853D01*
X004602Y011920D01*
X004583Y011988D01*
X004567Y012057D01*
X004555Y012126D01*
X004547Y012196D01*
X004543Y012267D01*
X004543Y012337D01*
X004547Y012408D01*
X004555Y012478D01*
X004567Y012547D01*
X004583Y012616D01*
X004602Y012684D01*
X004626Y012751D01*
X004653Y012816D01*
X004683Y012879D01*
X004717Y012941D01*
X004755Y013001D01*
X004796Y013058D01*
X004840Y013114D01*
X004887Y013166D01*
X004936Y013216D01*
X004989Y013263D01*
X005044Y013307D01*
X005102Y013348D01*
X005161Y013386D01*
X005223Y013420D01*
X005287Y013451D01*
X005352Y013478D01*
X005418Y013501D01*
X005486Y013521D01*
X005555Y013536D01*
X005624Y013548D01*
X005694Y013556D01*
X005765Y013560D01*
X005835Y013561D01*
X005906Y013557D01*
X005976Y013549D01*
X006046Y013537D01*
X006114Y013522D01*
X006182Y013502D01*
X006249Y013479D01*
X006314Y013452D01*
X006378Y013422D01*
X006440Y013388D01*
X006499Y013350D01*
X006557Y013310D01*
X006612Y013266D01*
X006665Y013219D01*
X006715Y013169D01*
X006762Y013116D01*
X006806Y013061D01*
X006799Y013056D01*
X006755Y013111D01*
X006708Y013163D01*
X006659Y013212D01*
X006606Y013259D01*
X006552Y013302D01*
X006494Y013343D01*
X006435Y013380D01*
X006374Y013414D01*
X006310Y013444D01*
X006246Y013471D01*
X006179Y013494D01*
X006112Y013513D01*
X006044Y013528D01*
X005975Y013540D01*
X005905Y013548D01*
X005835Y013552D01*
X005765Y013551D01*
X005695Y013547D01*
X005626Y013539D01*
X005557Y013528D01*
X005488Y013512D01*
X005421Y013493D01*
X005355Y013469D01*
X005290Y013442D01*
X005227Y013412D01*
X005166Y013378D01*
X005107Y013341D01*
X005049Y013300D01*
X004995Y013256D01*
X004943Y013210D01*
X004893Y013160D01*
X004846Y013108D01*
X004803Y013053D01*
X004762Y012996D01*
X004725Y012937D01*
X004691Y012875D01*
X004661Y012812D01*
X004634Y012747D01*
X004611Y012681D01*
X004592Y012614D01*
X004576Y012546D01*
X004564Y012477D01*
X004556Y012407D01*
X004552Y012337D01*
X004552Y012267D01*
X004556Y012197D01*
X004564Y012127D01*
X004576Y012058D01*
X004592Y011990D01*
X004611Y011923D01*
X004634Y011857D01*
X004661Y011792D01*
X004691Y011729D01*
X004725Y011667D01*
X004762Y011608D01*
X004803Y011551D01*
X004846Y011496D01*
X004893Y011444D01*
X004943Y011394D01*
X004995Y011348D01*
X005049Y011304D01*
X005107Y011263D01*
X005166Y011226D01*
X005227Y011192D01*
X005290Y011162D01*
X005355Y011135D01*
X005421Y011111D01*
X005488Y011092D01*
X005557Y011076D01*
X005626Y011065D01*
X005695Y011057D01*
X005765Y011053D01*
X005835Y011052D01*
X005905Y011056D01*
X005975Y011064D01*
X006044Y011076D01*
X006112Y011091D01*
X006179Y011110D01*
X006246Y011133D01*
X006310Y011160D01*
X006374Y011190D01*
X006435Y011224D01*
X006494Y011261D01*
X006552Y011302D01*
X006606Y011345D01*
X006659Y011392D01*
X006708Y011441D01*
X006755Y011493D01*
X006799Y011548D01*
X006792Y011553D01*
X006748Y011499D01*
X006702Y011447D01*
X006653Y011398D01*
X006601Y011352D01*
X006546Y011309D01*
X006489Y011269D01*
X006430Y011232D01*
X006369Y011198D01*
X006307Y011168D01*
X006242Y011142D01*
X006177Y011119D01*
X006110Y011100D01*
X006042Y011084D01*
X005973Y011073D01*
X005904Y011065D01*
X005835Y011061D01*
X005765Y011062D01*
X005696Y011066D01*
X005627Y011073D01*
X005558Y011085D01*
X005491Y011101D01*
X005424Y011120D01*
X005358Y011143D01*
X005294Y011170D01*
X005231Y011200D01*
X005170Y011234D01*
X005112Y011271D01*
X005055Y011311D01*
X005001Y011354D01*
X004949Y011401D01*
X004900Y011450D01*
X004853Y011502D01*
X004810Y011556D01*
X004770Y011613D01*
X004733Y011672D01*
X004699Y011733D01*
X004669Y011796D01*
X004642Y011860D01*
X004619Y011925D01*
X004600Y011992D01*
X004585Y012060D01*
X004573Y012129D01*
X004565Y012198D01*
X004561Y012267D01*
X004561Y012337D01*
X004565Y012406D01*
X004573Y012475D01*
X004585Y012544D01*
X004600Y012612D01*
X004619Y012679D01*
X004642Y012744D01*
X004669Y012808D01*
X004699Y012871D01*
X004733Y012932D01*
X004770Y012991D01*
X004810Y013048D01*
X004853Y013102D01*
X004900Y013154D01*
X004949Y013203D01*
X005001Y013250D01*
X005055Y013293D01*
X005112Y013333D01*
X005170Y013370D01*
X005231Y013404D01*
X005294Y013434D01*
X005358Y013461D01*
X005424Y013484D01*
X005491Y013503D01*
X005558Y013519D01*
X005627Y013531D01*
X005696Y013538D01*
X005765Y013542D01*
X005835Y013543D01*
X005904Y013539D01*
X005973Y013531D01*
X006042Y013520D01*
X006110Y013504D01*
X006177Y013485D01*
X006242Y013462D01*
X006307Y013436D01*
X006369Y013406D01*
X006430Y013372D01*
X006489Y013335D01*
X006546Y013295D01*
X006601Y013252D01*
X006653Y013206D01*
X006702Y013157D01*
X006748Y013105D01*
X006792Y013051D01*
X006785Y013045D01*
X006741Y013099D01*
X006695Y013150D01*
X006646Y013199D01*
X006595Y013245D01*
X006541Y013288D01*
X006484Y013328D01*
X006426Y013364D01*
X006365Y013398D01*
X006303Y013428D01*
X006239Y013454D01*
X006174Y013476D01*
X006108Y013495D01*
X006040Y013511D01*
X005972Y013522D01*
X005904Y013530D01*
X005835Y013534D01*
X005766Y013533D01*
X005697Y013529D01*
X005628Y013522D01*
X005560Y013510D01*
X005493Y013495D01*
X005426Y013475D01*
X005361Y013452D01*
X005298Y013426D01*
X005235Y013396D01*
X005175Y013363D01*
X005117Y013326D01*
X005060Y013286D01*
X005006Y013243D01*
X004955Y013197D01*
X004906Y013148D01*
X004860Y013096D01*
X004817Y013042D01*
X004777Y012986D01*
X004741Y012927D01*
X004707Y012867D01*
X004677Y012805D01*
X004651Y012741D01*
X004628Y012676D01*
X004609Y012609D01*
X004594Y012542D01*
X004582Y012474D01*
X004574Y012405D01*
X004570Y012337D01*
X004570Y012267D01*
X004574Y012199D01*
X004582Y012130D01*
X004594Y012062D01*
X004609Y011995D01*
X004628Y011928D01*
X004651Y011863D01*
X004677Y011799D01*
X004707Y011737D01*
X004741Y011677D01*
X004777Y011618D01*
X004817Y011562D01*
X004860Y011508D01*
X004906Y011456D01*
X004955Y011407D01*
X005006Y011361D01*
X005060Y011318D01*
X005117Y011278D01*
X005175Y011241D01*
X005235Y011208D01*
X005298Y011178D01*
X005361Y011152D01*
X005426Y011129D01*
X005493Y011109D01*
X005560Y011094D01*
X005628Y011082D01*
X005697Y011075D01*
X005766Y011071D01*
X005835Y011070D01*
X005904Y011074D01*
X005972Y011082D01*
X006040Y011093D01*
X006108Y011109D01*
X006174Y011128D01*
X006239Y011150D01*
X006303Y011176D01*
X006365Y011206D01*
X006426Y011240D01*
X006484Y011276D01*
X006541Y011316D01*
X006595Y011359D01*
X006646Y011405D01*
X006695Y011454D01*
X006741Y011505D01*
X006785Y011559D01*
X006777Y011564D01*
X006734Y011510D01*
X006688Y011459D01*
X006638Y011410D01*
X006587Y011364D01*
X006532Y011321D01*
X006475Y011281D01*
X006417Y011245D01*
X006356Y011211D01*
X006293Y011182D01*
X006229Y011156D01*
X006163Y011134D01*
X006096Y011115D01*
X006029Y011100D01*
X005960Y011089D01*
X005891Y011082D01*
X005822Y011079D01*
X005753Y011080D01*
X005683Y011085D01*
X005615Y011093D01*
X005547Y011106D01*
X005479Y011122D01*
X005413Y011143D01*
X005348Y011166D01*
X005284Y011194D01*
X005222Y011225D01*
X005162Y011260D01*
X005104Y011298D01*
X005048Y011339D01*
X004995Y011383D01*
X004944Y011430D01*
X004896Y011480D01*
X004851Y011533D01*
X004809Y011588D01*
X004770Y011645D01*
X004735Y011705D01*
X004703Y011766D01*
X004674Y011829D01*
X004649Y011894D01*
X004628Y011960D01*
X004610Y012027D01*
X004597Y012095D01*
X004587Y012164D01*
X004581Y012233D01*
X004579Y012302D01*
X004581Y012371D01*
X004587Y012440D01*
X004597Y012509D01*
X004610Y012577D01*
X004628Y012644D01*
X004649Y012710D01*
X004674Y012775D01*
X004703Y012838D01*
X004735Y012899D01*
X004770Y012959D01*
X004809Y013016D01*
X004851Y013071D01*
X004896Y013124D01*
X004944Y013174D01*
X004995Y013221D01*
X005048Y013265D01*
X005104Y013306D01*
X005162Y013344D01*
X005222Y013379D01*
X005284Y013410D01*
X005348Y013438D01*
X005413Y013461D01*
X005479Y013482D01*
X005547Y013498D01*
X005615Y013511D01*
X005683Y013519D01*
X005753Y013524D01*
X005822Y013525D01*
X005891Y013522D01*
X005960Y013515D01*
X006029Y013504D01*
X006096Y013489D01*
X006163Y013470D01*
X006229Y013448D01*
X006293Y013422D01*
X006356Y013393D01*
X006417Y013359D01*
X006475Y013323D01*
X006532Y013283D01*
X006587Y013240D01*
X006638Y013194D01*
X006688Y013145D01*
X006734Y013094D01*
X006777Y013040D01*
X006770Y013034D01*
X006727Y013088D01*
X006681Y013139D01*
X006632Y013188D01*
X006581Y013233D01*
X006527Y013276D01*
X006470Y013315D01*
X006412Y013352D01*
X006352Y013385D01*
X006289Y013414D01*
X006226Y013440D01*
X006160Y013462D01*
X006094Y013480D01*
X006027Y013495D01*
X005959Y013506D01*
X005890Y013513D01*
X005822Y013516D01*
X005753Y013515D01*
X005684Y013510D01*
X005616Y013502D01*
X005548Y013489D01*
X005482Y013473D01*
X005416Y013453D01*
X005351Y013429D01*
X005288Y013402D01*
X005227Y013371D01*
X005167Y013337D01*
X005109Y013299D01*
X005054Y013258D01*
X005001Y013214D01*
X004951Y013167D01*
X004903Y013118D01*
X004858Y013066D01*
X004816Y013011D01*
X004778Y012954D01*
X004743Y012895D01*
X004711Y012834D01*
X004682Y012771D01*
X004658Y012707D01*
X004636Y012641D01*
X004619Y012575D01*
X004606Y012507D01*
X004596Y012439D01*
X004590Y012371D01*
X004588Y012302D01*
X004590Y012233D01*
X004596Y012165D01*
X004606Y012097D01*
X004619Y012029D01*
X004636Y011963D01*
X004658Y011897D01*
X004682Y011833D01*
X004711Y011770D01*
X004743Y011709D01*
X004778Y011650D01*
X004816Y011593D01*
X004858Y011538D01*
X004903Y011486D01*
X004951Y011437D01*
X005001Y011390D01*
X005054Y011346D01*
X005109Y011305D01*
X005167Y011267D01*
X005227Y011233D01*
X005288Y011202D01*
X005351Y011175D01*
X005416Y011151D01*
X005482Y011131D01*
X005548Y011115D01*
X005616Y011102D01*
X005684Y011094D01*
X005753Y011089D01*
X005822Y011088D01*
X005890Y011091D01*
X005959Y011098D01*
X006027Y011109D01*
X006094Y011124D01*
X006160Y011142D01*
X006226Y011164D01*
X006289Y011190D01*
X006352Y011219D01*
X006412Y011252D01*
X006470Y011289D01*
X006527Y011328D01*
X006581Y011371D01*
X006632Y011416D01*
X006681Y011465D01*
X006727Y011516D01*
X006770Y011570D01*
X012334Y013082D02*
X012262Y013028D01*
X012263Y013029D02*
X012220Y013082D01*
X012175Y013133D01*
X012126Y013181D01*
X012075Y013226D01*
X012021Y013269D01*
X011965Y013308D01*
X011907Y013344D01*
X011847Y013377D01*
X011786Y013406D01*
X011722Y013431D01*
X011658Y013453D01*
X011592Y013472D01*
X011525Y013486D01*
X011458Y013497D01*
X011390Y013504D01*
X011322Y013507D01*
X011253Y013506D01*
X011185Y013501D01*
X011117Y013493D01*
X011050Y013480D01*
X010984Y013464D01*
X010919Y013444D01*
X010854Y013421D01*
X010792Y013394D01*
X010731Y013363D01*
X010672Y013329D01*
X010614Y013292D01*
X010559Y013251D01*
X010507Y013207D01*
X010457Y013161D01*
X010410Y013112D01*
X010365Y013060D01*
X010324Y013006D01*
X010285Y012949D01*
X010250Y012890D01*
X010219Y012830D01*
X010191Y012768D01*
X010166Y012704D01*
X010145Y012639D01*
X010128Y012573D01*
X010114Y012506D01*
X010105Y012438D01*
X010099Y012370D01*
X010097Y012302D01*
X010099Y012234D01*
X010105Y012166D01*
X010114Y012098D01*
X010128Y012031D01*
X010145Y011965D01*
X010166Y011900D01*
X010191Y011836D01*
X010219Y011774D01*
X010250Y011714D01*
X010285Y011655D01*
X010324Y011598D01*
X010365Y011544D01*
X010410Y011492D01*
X010457Y011443D01*
X010507Y011397D01*
X010559Y011353D01*
X010614Y011312D01*
X010672Y011275D01*
X010731Y011241D01*
X010792Y011210D01*
X010854Y011183D01*
X010919Y011160D01*
X010984Y011140D01*
X011050Y011124D01*
X011117Y011111D01*
X011185Y011103D01*
X011253Y011098D01*
X011322Y011097D01*
X011390Y011100D01*
X011458Y011107D01*
X011525Y011118D01*
X011592Y011132D01*
X011658Y011151D01*
X011722Y011173D01*
X011786Y011198D01*
X011847Y011227D01*
X011907Y011260D01*
X011965Y011296D01*
X012021Y011335D01*
X012075Y011378D01*
X012126Y011423D01*
X012175Y011471D01*
X012220Y011522D01*
X012263Y011575D01*
X012334Y011522D01*
X012335Y011521D01*
X012291Y011466D01*
X012243Y011413D01*
X012193Y011362D01*
X012140Y011315D01*
X012085Y011271D01*
X012027Y011229D01*
X011967Y011191D01*
X011906Y011156D01*
X011842Y011125D01*
X011777Y011097D01*
X011710Y011073D01*
X011642Y011052D01*
X011573Y011036D01*
X011503Y011023D01*
X011433Y011014D01*
X011362Y011008D01*
X011291Y011007D01*
X011220Y011010D01*
X011149Y011016D01*
X011079Y011026D01*
X011010Y011040D01*
X010941Y011058D01*
X010873Y011080D01*
X010807Y011105D01*
X010742Y011134D01*
X010679Y011167D01*
X010618Y011203D01*
X010559Y011242D01*
X010502Y011284D01*
X010447Y011329D01*
X010395Y011378D01*
X010346Y011429D01*
X010299Y011482D01*
X010256Y011539D01*
X010216Y011597D01*
X010179Y011658D01*
X010145Y011720D01*
X010115Y011784D01*
X010088Y011850D01*
X010065Y011917D01*
X010046Y011986D01*
X010031Y012055D01*
X010019Y012125D01*
X010011Y012196D01*
X010007Y012267D01*
X010007Y012337D01*
X010011Y012408D01*
X010019Y012479D01*
X010031Y012549D01*
X010046Y012618D01*
X010065Y012687D01*
X010088Y012754D01*
X010115Y012820D01*
X010145Y012884D01*
X010179Y012946D01*
X010216Y013007D01*
X010256Y013065D01*
X010299Y013122D01*
X010346Y013175D01*
X010395Y013226D01*
X010447Y013275D01*
X010502Y013320D01*
X010559Y013362D01*
X010618Y013401D01*
X010679Y013437D01*
X010742Y013470D01*
X010807Y013499D01*
X010873Y013524D01*
X010941Y013546D01*
X011010Y013564D01*
X011079Y013578D01*
X011149Y013588D01*
X011220Y013594D01*
X011291Y013597D01*
X011362Y013596D01*
X011433Y013590D01*
X011503Y013581D01*
X011573Y013568D01*
X011642Y013552D01*
X011710Y013531D01*
X011777Y013507D01*
X011842Y013479D01*
X011906Y013448D01*
X011967Y013413D01*
X012027Y013375D01*
X012085Y013333D01*
X012140Y013289D01*
X012193Y013242D01*
X012243Y013191D01*
X012291Y013138D01*
X012335Y013083D01*
X012328Y013078D01*
X012283Y013133D01*
X012236Y013186D01*
X012185Y013237D01*
X012132Y013284D01*
X012076Y013329D01*
X012018Y013370D01*
X011958Y013408D01*
X011896Y013443D01*
X011832Y013474D01*
X011766Y013501D01*
X011699Y013525D01*
X011630Y013545D01*
X011561Y013562D01*
X011491Y013574D01*
X011420Y013583D01*
X011349Y013587D01*
X011278Y013588D01*
X011207Y013584D01*
X011136Y013577D01*
X011065Y013566D01*
X010996Y013551D01*
X010927Y013532D01*
X010859Y013509D01*
X010793Y013483D01*
X010728Y013453D01*
X010666Y013419D01*
X010605Y013383D01*
X010546Y013342D01*
X010489Y013299D01*
X010435Y013252D01*
X010384Y013203D01*
X010336Y013150D01*
X010290Y013096D01*
X010248Y013038D01*
X010209Y012979D01*
X010173Y012917D01*
X010140Y012854D01*
X010112Y012789D01*
X010086Y012722D01*
X010065Y012654D01*
X010047Y012585D01*
X010034Y012515D01*
X010024Y012444D01*
X010018Y012373D01*
X010016Y012302D01*
X010018Y012231D01*
X010024Y012160D01*
X010034Y012089D01*
X010047Y012019D01*
X010065Y011950D01*
X010086Y011882D01*
X010112Y011815D01*
X010140Y011750D01*
X010173Y011687D01*
X010209Y011625D01*
X010248Y011566D01*
X010290Y011508D01*
X010336Y011454D01*
X010384Y011401D01*
X010435Y011352D01*
X010489Y011305D01*
X010546Y011262D01*
X010605Y011221D01*
X010666Y011185D01*
X010728Y011151D01*
X010793Y011121D01*
X010859Y011095D01*
X010927Y011072D01*
X010996Y011053D01*
X011065Y011038D01*
X011136Y011027D01*
X011207Y011020D01*
X011278Y011016D01*
X011349Y011017D01*
X011420Y011021D01*
X011491Y011030D01*
X011561Y011042D01*
X011630Y011059D01*
X011699Y011079D01*
X011766Y011103D01*
X011832Y011130D01*
X011896Y011161D01*
X011958Y011196D01*
X012018Y011234D01*
X012076Y011275D01*
X012132Y011320D01*
X012185Y011367D01*
X012236Y011418D01*
X012283Y011471D01*
X012328Y011526D01*
X012321Y011532D01*
X012276Y011477D01*
X012229Y011424D01*
X012179Y011374D01*
X012126Y011327D01*
X012071Y011283D01*
X012013Y011241D01*
X011954Y011204D01*
X011892Y011169D01*
X011828Y011138D01*
X011763Y011111D01*
X011696Y011087D01*
X011628Y011067D01*
X011559Y011051D01*
X011490Y011039D01*
X011419Y011030D01*
X011349Y011026D01*
X011278Y011025D01*
X011207Y011029D01*
X011137Y011036D01*
X011067Y011047D01*
X010998Y011062D01*
X010930Y011081D01*
X010862Y011103D01*
X010797Y011129D01*
X010732Y011159D01*
X010670Y011192D01*
X010610Y011229D01*
X010551Y011269D01*
X010495Y011312D01*
X010441Y011358D01*
X010391Y011408D01*
X010342Y011459D01*
X010297Y011514D01*
X010255Y011571D01*
X010216Y011630D01*
X010181Y011691D01*
X010148Y011754D01*
X010120Y011819D01*
X010095Y011885D01*
X010074Y011953D01*
X010056Y012021D01*
X010043Y012091D01*
X010033Y012161D01*
X010027Y012231D01*
X010025Y012302D01*
X010027Y012373D01*
X010033Y012443D01*
X010043Y012513D01*
X010056Y012583D01*
X010074Y012651D01*
X010095Y012719D01*
X010120Y012785D01*
X010148Y012850D01*
X010181Y012913D01*
X010216Y012974D01*
X010255Y013033D01*
X010297Y013090D01*
X010342Y013145D01*
X010391Y013196D01*
X010441Y013246D01*
X010495Y013292D01*
X010551Y013335D01*
X010610Y013375D01*
X010670Y013412D01*
X010732Y013445D01*
X010797Y013475D01*
X010862Y013501D01*
X010930Y013523D01*
X010998Y013542D01*
X011067Y013557D01*
X011137Y013568D01*
X011207Y013575D01*
X011278Y013579D01*
X011349Y013578D01*
X011419Y013574D01*
X011490Y013565D01*
X011559Y013553D01*
X011628Y013537D01*
X011696Y013517D01*
X011763Y013493D01*
X011828Y013466D01*
X011892Y013435D01*
X011954Y013400D01*
X012013Y013363D01*
X012071Y013321D01*
X012126Y013277D01*
X012179Y013230D01*
X012229Y013180D01*
X012276Y013127D01*
X012321Y013072D01*
X012313Y013067D01*
X012269Y013122D01*
X012221Y013175D01*
X012171Y013225D01*
X012118Y013273D01*
X012062Y013317D01*
X012004Y013358D01*
X011944Y013395D01*
X011882Y013430D01*
X011818Y013460D01*
X011752Y013487D01*
X011685Y013511D01*
X011617Y013530D01*
X011547Y013546D01*
X011477Y013558D01*
X011407Y013566D01*
X011336Y013570D01*
X011265Y013569D01*
X011194Y013565D01*
X011123Y013557D01*
X011053Y013545D01*
X010984Y013529D01*
X010916Y013510D01*
X010848Y013486D01*
X010783Y013459D01*
X010719Y013428D01*
X010657Y013394D01*
X010597Y013356D01*
X010539Y013314D01*
X010483Y013270D01*
X010430Y013223D01*
X010380Y013172D01*
X010333Y013119D01*
X010288Y013064D01*
X010247Y013006D01*
X010210Y012946D01*
X010175Y012883D01*
X010144Y012819D01*
X010117Y012754D01*
X010094Y012687D01*
X010074Y012618D01*
X010058Y012549D01*
X010046Y012479D01*
X010038Y012408D01*
X010034Y012338D01*
X010034Y012266D01*
X010038Y012196D01*
X010046Y012125D01*
X010058Y012055D01*
X010074Y011986D01*
X010094Y011917D01*
X010117Y011850D01*
X010144Y011785D01*
X010175Y011721D01*
X010210Y011658D01*
X010247Y011598D01*
X010288Y011540D01*
X010333Y011485D01*
X010380Y011432D01*
X010430Y011381D01*
X010483Y011334D01*
X010539Y011290D01*
X010597Y011248D01*
X010657Y011210D01*
X010719Y011176D01*
X010783Y011145D01*
X010848Y011118D01*
X010916Y011094D01*
X010984Y011075D01*
X011053Y011059D01*
X011123Y011047D01*
X011194Y011039D01*
X011265Y011035D01*
X011336Y011034D01*
X011407Y011038D01*
X011477Y011046D01*
X011547Y011058D01*
X011617Y011074D01*
X011685Y011093D01*
X011752Y011117D01*
X011818Y011144D01*
X011882Y011174D01*
X011944Y011209D01*
X012004Y011246D01*
X012062Y011287D01*
X012118Y011331D01*
X012171Y011379D01*
X012221Y011429D01*
X012269Y011482D01*
X012313Y011537D01*
X012306Y011543D01*
X012262Y011488D01*
X012215Y011435D01*
X012165Y011385D01*
X012112Y011338D01*
X012057Y011294D01*
X011999Y011254D01*
X011940Y011216D01*
X011878Y011182D01*
X011814Y011152D01*
X011749Y011125D01*
X011682Y011102D01*
X011614Y011082D01*
X011546Y011067D01*
X011476Y011055D01*
X011406Y011047D01*
X011335Y011043D01*
X011265Y011044D01*
X011194Y011048D01*
X011124Y011056D01*
X011055Y011068D01*
X010986Y011083D01*
X010918Y011103D01*
X010852Y011126D01*
X010787Y011153D01*
X010723Y011184D01*
X010661Y011218D01*
X010602Y011256D01*
X010544Y011297D01*
X010489Y011341D01*
X010436Y011388D01*
X010387Y011438D01*
X010340Y011490D01*
X010296Y011546D01*
X010255Y011603D01*
X010217Y011663D01*
X010183Y011725D01*
X010153Y011788D01*
X010126Y011853D01*
X010102Y011920D01*
X010083Y011988D01*
X010067Y012057D01*
X010055Y012126D01*
X010047Y012196D01*
X010043Y012267D01*
X010043Y012337D01*
X010047Y012408D01*
X010055Y012478D01*
X010067Y012547D01*
X010083Y012616D01*
X010102Y012684D01*
X010126Y012751D01*
X010153Y012816D01*
X010183Y012879D01*
X010217Y012941D01*
X010255Y013001D01*
X010296Y013058D01*
X010340Y013114D01*
X010387Y013166D01*
X010436Y013216D01*
X010489Y013263D01*
X010544Y013307D01*
X010602Y013348D01*
X010661Y013386D01*
X010723Y013420D01*
X010787Y013451D01*
X010852Y013478D01*
X010918Y013501D01*
X010986Y013521D01*
X011055Y013536D01*
X011124Y013548D01*
X011194Y013556D01*
X011265Y013560D01*
X011335Y013561D01*
X011406Y013557D01*
X011476Y013549D01*
X011546Y013537D01*
X011614Y013522D01*
X011682Y013502D01*
X011749Y013479D01*
X011814Y013452D01*
X011878Y013422D01*
X011940Y013388D01*
X011999Y013350D01*
X012057Y013310D01*
X012112Y013266D01*
X012165Y013219D01*
X012215Y013169D01*
X012262Y013116D01*
X012306Y013061D01*
X012299Y013056D01*
X012255Y013111D01*
X012208Y013163D01*
X012159Y013212D01*
X012106Y013259D01*
X012052Y013302D01*
X011994Y013343D01*
X011935Y013380D01*
X011874Y013414D01*
X011810Y013444D01*
X011746Y013471D01*
X011679Y013494D01*
X011612Y013513D01*
X011544Y013528D01*
X011475Y013540D01*
X011405Y013548D01*
X011335Y013552D01*
X011265Y013551D01*
X011195Y013547D01*
X011126Y013539D01*
X011057Y013528D01*
X010988Y013512D01*
X010921Y013493D01*
X010855Y013469D01*
X010790Y013442D01*
X010727Y013412D01*
X010666Y013378D01*
X010607Y013341D01*
X010549Y013300D01*
X010495Y013256D01*
X010443Y013210D01*
X010393Y013160D01*
X010346Y013108D01*
X010303Y013053D01*
X010262Y012996D01*
X010225Y012937D01*
X010191Y012875D01*
X010161Y012812D01*
X010134Y012747D01*
X010111Y012681D01*
X010092Y012614D01*
X010076Y012546D01*
X010064Y012477D01*
X010056Y012407D01*
X010052Y012337D01*
X010052Y012267D01*
X010056Y012197D01*
X010064Y012127D01*
X010076Y012058D01*
X010092Y011990D01*
X010111Y011923D01*
X010134Y011857D01*
X010161Y011792D01*
X010191Y011729D01*
X010225Y011667D01*
X010262Y011608D01*
X010303Y011551D01*
X010346Y011496D01*
X010393Y011444D01*
X010443Y011394D01*
X010495Y011348D01*
X010549Y011304D01*
X010607Y011263D01*
X010666Y011226D01*
X010727Y011192D01*
X010790Y011162D01*
X010855Y011135D01*
X010921Y011111D01*
X010988Y011092D01*
X011057Y011076D01*
X011126Y011065D01*
X011195Y011057D01*
X011265Y011053D01*
X011335Y011052D01*
X011405Y011056D01*
X011475Y011064D01*
X011544Y011076D01*
X011612Y011091D01*
X011679Y011110D01*
X011746Y011133D01*
X011810Y011160D01*
X011874Y011190D01*
X011935Y011224D01*
X011994Y011261D01*
X012052Y011302D01*
X012106Y011345D01*
X012159Y011392D01*
X012208Y011441D01*
X012255Y011493D01*
X012299Y011548D01*
X012292Y011553D01*
X012248Y011499D01*
X012202Y011447D01*
X012153Y011398D01*
X012101Y011352D01*
X012046Y011309D01*
X011989Y011269D01*
X011930Y011232D01*
X011869Y011198D01*
X011807Y011168D01*
X011742Y011142D01*
X011677Y011119D01*
X011610Y011100D01*
X011542Y011084D01*
X011473Y011073D01*
X011404Y011065D01*
X011335Y011061D01*
X011265Y011062D01*
X011196Y011066D01*
X011127Y011073D01*
X011058Y011085D01*
X010991Y011101D01*
X010924Y011120D01*
X010858Y011143D01*
X010794Y011170D01*
X010731Y011200D01*
X010670Y011234D01*
X010612Y011271D01*
X010555Y011311D01*
X010501Y011354D01*
X010449Y011401D01*
X010400Y011450D01*
X010353Y011502D01*
X010310Y011556D01*
X010270Y011613D01*
X010233Y011672D01*
X010199Y011733D01*
X010169Y011796D01*
X010142Y011860D01*
X010119Y011925D01*
X010100Y011992D01*
X010085Y012060D01*
X010073Y012129D01*
X010065Y012198D01*
X010061Y012267D01*
X010061Y012337D01*
X010065Y012406D01*
X010073Y012475D01*
X010085Y012544D01*
X010100Y012612D01*
X010119Y012679D01*
X010142Y012744D01*
X010169Y012808D01*
X010199Y012871D01*
X010233Y012932D01*
X010270Y012991D01*
X010310Y013048D01*
X010353Y013102D01*
X010400Y013154D01*
X010449Y013203D01*
X010501Y013250D01*
X010555Y013293D01*
X010612Y013333D01*
X010670Y013370D01*
X010731Y013404D01*
X010794Y013434D01*
X010858Y013461D01*
X010924Y013484D01*
X010991Y013503D01*
X011058Y013519D01*
X011127Y013531D01*
X011196Y013538D01*
X011265Y013542D01*
X011335Y013543D01*
X011404Y013539D01*
X011473Y013531D01*
X011542Y013520D01*
X011610Y013504D01*
X011677Y013485D01*
X011742Y013462D01*
X011807Y013436D01*
X011869Y013406D01*
X011930Y013372D01*
X011989Y013335D01*
X012046Y013295D01*
X012101Y013252D01*
X012153Y013206D01*
X012202Y013157D01*
X012248Y013105D01*
X012292Y013051D01*
X012285Y013045D01*
X012241Y013099D01*
X012195Y013150D01*
X012146Y013199D01*
X012095Y013245D01*
X012041Y013288D01*
X011984Y013328D01*
X011926Y013364D01*
X011865Y013398D01*
X011803Y013428D01*
X011739Y013454D01*
X011674Y013476D01*
X011608Y013495D01*
X011540Y013511D01*
X011472Y013522D01*
X011404Y013530D01*
X011335Y013534D01*
X011266Y013533D01*
X011197Y013529D01*
X011128Y013522D01*
X011060Y013510D01*
X010993Y013495D01*
X010926Y013475D01*
X010861Y013452D01*
X010798Y013426D01*
X010735Y013396D01*
X010675Y013363D01*
X010617Y013326D01*
X010560Y013286D01*
X010506Y013243D01*
X010455Y013197D01*
X010406Y013148D01*
X010360Y013096D01*
X010317Y013042D01*
X010277Y012986D01*
X010241Y012927D01*
X010207Y012867D01*
X010177Y012805D01*
X010151Y012741D01*
X010128Y012676D01*
X010109Y012609D01*
X010094Y012542D01*
X010082Y012474D01*
X010074Y012405D01*
X010070Y012337D01*
X010070Y012267D01*
X010074Y012199D01*
X010082Y012130D01*
X010094Y012062D01*
X010109Y011995D01*
X010128Y011928D01*
X010151Y011863D01*
X010177Y011799D01*
X010207Y011737D01*
X010241Y011677D01*
X010277Y011618D01*
X010317Y011562D01*
X010360Y011508D01*
X010406Y011456D01*
X010455Y011407D01*
X010506Y011361D01*
X010560Y011318D01*
X010617Y011278D01*
X010675Y011241D01*
X010735Y011208D01*
X010798Y011178D01*
X010861Y011152D01*
X010926Y011129D01*
X010993Y011109D01*
X011060Y011094D01*
X011128Y011082D01*
X011197Y011075D01*
X011266Y011071D01*
X011335Y011070D01*
X011404Y011074D01*
X011472Y011082D01*
X011540Y011093D01*
X011608Y011109D01*
X011674Y011128D01*
X011739Y011150D01*
X011803Y011176D01*
X011865Y011206D01*
X011926Y011240D01*
X011984Y011276D01*
X012041Y011316D01*
X012095Y011359D01*
X012146Y011405D01*
X012195Y011454D01*
X012241Y011505D01*
X012285Y011559D01*
X012277Y011564D01*
X012234Y011510D01*
X012188Y011459D01*
X012138Y011410D01*
X012087Y011364D01*
X012032Y011321D01*
X011975Y011281D01*
X011917Y011245D01*
X011856Y011211D01*
X011793Y011182D01*
X011729Y011156D01*
X011663Y011134D01*
X011596Y011115D01*
X011529Y011100D01*
X011460Y011089D01*
X011391Y011082D01*
X011322Y011079D01*
X011253Y011080D01*
X011183Y011085D01*
X011115Y011093D01*
X011047Y011106D01*
X010979Y011122D01*
X010913Y011143D01*
X010848Y011166D01*
X010784Y011194D01*
X010722Y011225D01*
X010662Y011260D01*
X010604Y011298D01*
X010548Y011339D01*
X010495Y011383D01*
X010444Y011430D01*
X010396Y011480D01*
X010351Y011533D01*
X010309Y011588D01*
X010270Y011645D01*
X010235Y011705D01*
X010203Y011766D01*
X010174Y011829D01*
X010149Y011894D01*
X010128Y011960D01*
X010110Y012027D01*
X010097Y012095D01*
X010087Y012164D01*
X010081Y012233D01*
X010079Y012302D01*
X010081Y012371D01*
X010087Y012440D01*
X010097Y012509D01*
X010110Y012577D01*
X010128Y012644D01*
X010149Y012710D01*
X010174Y012775D01*
X010203Y012838D01*
X010235Y012899D01*
X010270Y012959D01*
X010309Y013016D01*
X010351Y013071D01*
X010396Y013124D01*
X010444Y013174D01*
X010495Y013221D01*
X010548Y013265D01*
X010604Y013306D01*
X010662Y013344D01*
X010722Y013379D01*
X010784Y013410D01*
X010848Y013438D01*
X010913Y013461D01*
X010979Y013482D01*
X011047Y013498D01*
X011115Y013511D01*
X011183Y013519D01*
X011253Y013524D01*
X011322Y013525D01*
X011391Y013522D01*
X011460Y013515D01*
X011529Y013504D01*
X011596Y013489D01*
X011663Y013470D01*
X011729Y013448D01*
X011793Y013422D01*
X011856Y013393D01*
X011917Y013359D01*
X011975Y013323D01*
X012032Y013283D01*
X012087Y013240D01*
X012138Y013194D01*
X012188Y013145D01*
X012234Y013094D01*
X012277Y013040D01*
X012270Y013034D01*
X012227Y013088D01*
X012181Y013139D01*
X012132Y013188D01*
X012081Y013233D01*
X012027Y013276D01*
X011970Y013315D01*
X011912Y013352D01*
X011852Y013385D01*
X011789Y013414D01*
X011726Y013440D01*
X011660Y013462D01*
X011594Y013480D01*
X011527Y013495D01*
X011459Y013506D01*
X011390Y013513D01*
X011322Y013516D01*
X011253Y013515D01*
X011184Y013510D01*
X011116Y013502D01*
X011048Y013489D01*
X010982Y013473D01*
X010916Y013453D01*
X010851Y013429D01*
X010788Y013402D01*
X010727Y013371D01*
X010667Y013337D01*
X010609Y013299D01*
X010554Y013258D01*
X010501Y013214D01*
X010451Y013167D01*
X010403Y013118D01*
X010358Y013066D01*
X010316Y013011D01*
X010278Y012954D01*
X010243Y012895D01*
X010211Y012834D01*
X010182Y012771D01*
X010158Y012707D01*
X010136Y012641D01*
X010119Y012575D01*
X010106Y012507D01*
X010096Y012439D01*
X010090Y012371D01*
X010088Y012302D01*
X010090Y012233D01*
X010096Y012165D01*
X010106Y012097D01*
X010119Y012029D01*
X010136Y011963D01*
X010158Y011897D01*
X010182Y011833D01*
X010211Y011770D01*
X010243Y011709D01*
X010278Y011650D01*
X010316Y011593D01*
X010358Y011538D01*
X010403Y011486D01*
X010451Y011437D01*
X010501Y011390D01*
X010554Y011346D01*
X010609Y011305D01*
X010667Y011267D01*
X010727Y011233D01*
X010788Y011202D01*
X010851Y011175D01*
X010916Y011151D01*
X010982Y011131D01*
X011048Y011115D01*
X011116Y011102D01*
X011184Y011094D01*
X011253Y011089D01*
X011322Y011088D01*
X011390Y011091D01*
X011459Y011098D01*
X011527Y011109D01*
X011594Y011124D01*
X011660Y011142D01*
X011726Y011164D01*
X011789Y011190D01*
X011852Y011219D01*
X011912Y011252D01*
X011970Y011289D01*
X012027Y011328D01*
X012081Y011371D01*
X012132Y011416D01*
X012181Y011465D01*
X012227Y011516D01*
X012270Y011570D01*
D18*
X009984Y010302D03*
X009984Y009302D03*
X007621Y009302D03*
X007621Y010302D03*
X007621Y001302D03*
X009984Y001302D03*
D19*
X004802Y003621D03*
X004802Y005984D03*
M02*
