%
M48
M72
T01C0.0276
T02C0.0320
T03C0.0354
T04C0.0440
T05C0.0591
T06C0.0630
T07C0.0787
T08C0.0866
%
T01
X5431Y4931
X5431Y6931
X9431Y6931
X10931Y7181
X10931Y8181
X11931Y5681
X11931Y4681
X13681Y5431
X13681Y1431
X9431Y4931
X8431Y15431
X9681Y16681
X10681Y16681
X12681Y16681
X6431Y15431
X5681Y16681
X4431Y16681
X2431Y16681
T02
X5931Y14181
X5931Y13181
X5931Y12181
X5931Y11181
X5931Y10181
X5931Y9181
X5931Y8181
X8931Y8181
X8931Y9181
X8931Y10181
X8931Y11181
X8931Y12181
X8931Y13181
X8931Y14181
X10181Y1431
X12181Y1431
T03
X11681Y2931
X12681Y2931
T04
X8431Y1431
X6681Y1431
T05
X1131Y2706
X1131Y3931
X1131Y5156
X1181Y11431
X1181Y13431
X13431Y13931
X13431Y11931
X13431Y9431
X13431Y7431
T06
X2681Y6731
X2681Y8131
X2681Y5181
X2681Y3931
X2681Y2681
T07
X5463Y3181
X7431Y3181
X9400Y3181
X8463Y18681
X6400Y18681
X4431Y18681
X2463Y18681
X10431Y18681
X12400Y18681
T08
X1131Y8131
X1131Y6731
M30
