G75*
G70*
%OFA0B0*%
%FSLAX24Y24*%
%IPPOS*%
%LPD*%
%AMOC8*
5,1,8,0,0,1.08239X$1,22.5*
%
%ADD10C,0.0634*%
%ADD11R,0.0634X0.0634*%
%ADD12C,0.0556*%
%ADD13C,0.1261*%
%ADD14R,0.0556X0.0556*%
%ADD15C,0.0600*%
%ADD16C,0.1025*%
%ADD17C,0.0671*%
%ADD18C,0.0946*%
%ADD19C,0.0966*%
%ADD20OC8,0.1080*%
%ADD21OC8,0.0600*%
D10*
X011681Y002931D03*
D11*
X012681Y002931D03*
D12*
X013681Y001431D03*
X013681Y005431D03*
X011931Y005681D03*
X010931Y007181D03*
X009431Y006931D03*
X009431Y004931D03*
X005431Y004931D03*
X005431Y006931D03*
X006431Y015431D03*
X005681Y016681D03*
X004431Y016681D03*
X002431Y016681D03*
X008431Y015431D03*
X009681Y016681D03*
X010681Y016681D03*
X012681Y016681D03*
D13*
X012400Y018681D03*
X010431Y018681D03*
X008463Y018681D03*
X006400Y018681D03*
X004431Y018681D03*
X002463Y018681D03*
X005463Y003181D03*
X007431Y003181D03*
X009400Y003181D03*
D14*
X011931Y004681D03*
X010931Y008181D03*
D15*
X009191Y008181D02*
X008671Y008181D01*
X008671Y009181D02*
X009191Y009181D01*
X009191Y010181D02*
X008671Y010181D01*
X008671Y011181D02*
X009191Y011181D01*
X009191Y012181D02*
X008671Y012181D01*
X008671Y013181D02*
X009191Y013181D01*
X009191Y014181D02*
X008671Y014181D01*
X006191Y014181D02*
X005671Y014181D01*
X005671Y013181D02*
X006191Y013181D01*
X006191Y012181D02*
X005671Y012181D01*
X005671Y011181D02*
X006191Y011181D01*
X006191Y010181D02*
X005671Y010181D01*
X005671Y009181D02*
X006191Y009181D01*
X006191Y008181D02*
X005671Y008181D01*
D16*
X002681Y008131D03*
X002681Y006731D03*
X002681Y005181D03*
X002681Y003931D03*
X002681Y002681D03*
D17*
X001131Y002706D03*
X001131Y003931D03*
X001131Y005156D03*
D18*
X001131Y006731D03*
X001131Y008131D03*
D19*
X001181Y011431D03*
X001181Y013431D03*
X013431Y013931D03*
X013431Y011931D03*
X013431Y009431D03*
X013431Y007431D03*
D20*
X008431Y001431D03*
X006681Y001431D03*
D21*
X010181Y001431D03*
X012181Y001431D03*
M02*
