G75*
G70*
%OFA0B0*%
%FSLAX24Y24*%
%IPPOS*%
%LPD*%
%AMOC8*
5,1,8,0,0,1.08239X$1,22.5*
%
%ADD10C,0.0050*%
%ADD11C,0.0060*%
%ADD12C,0.0040*%
%ADD13C,0.0080*%
%ADD14C,0.0010*%
%ADD15R,0.1000X0.0200*%
%ADD16R,0.0300X0.0150*%
D10*
X001160Y002396D02*
X001160Y007750D01*
X006042Y007750D01*
X006042Y002396D01*
X001160Y002396D01*
X003201Y006026D02*
X003201Y006476D01*
X003426Y006476D01*
X003501Y006401D01*
X003501Y006251D01*
X003426Y006176D01*
X003201Y006176D01*
X003351Y006176D02*
X003501Y006026D01*
X003661Y006026D02*
X003961Y006326D01*
X003961Y006401D01*
X003886Y006476D01*
X003736Y006476D01*
X003661Y006401D01*
X003661Y006026D02*
X003961Y006026D01*
X005100Y009651D02*
X005401Y009651D01*
X005476Y009726D01*
X005476Y009876D01*
X005401Y009951D01*
X005401Y010111D02*
X005476Y010186D01*
X005476Y010336D01*
X005401Y010411D01*
X005251Y010411D01*
X005176Y010336D01*
X005176Y010261D01*
X005251Y010111D01*
X005025Y010111D01*
X005025Y010411D01*
X005100Y009951D02*
X005025Y009876D01*
X005025Y009726D01*
X005100Y009651D01*
X003372Y010276D02*
X003372Y010726D01*
X003146Y010501D01*
X003447Y010501D01*
X002986Y010276D02*
X002686Y010276D01*
X002836Y010276D02*
X002836Y010726D01*
X002686Y010576D01*
X002526Y010651D02*
X002526Y010501D01*
X002451Y010426D01*
X002226Y010426D01*
X002376Y010426D02*
X002526Y010276D01*
X002226Y010276D02*
X002226Y010726D01*
X002451Y010726D01*
X002526Y010651D01*
X005025Y013126D02*
X005100Y013051D01*
X005401Y013051D01*
X005476Y013126D01*
X005476Y013276D01*
X005401Y013351D01*
X005251Y013511D02*
X005251Y013811D01*
X005476Y013736D02*
X005025Y013736D01*
X005251Y013511D01*
X005100Y013351D02*
X005025Y013276D01*
X005025Y013126D01*
X002811Y015351D02*
X002511Y015351D01*
X002811Y015651D01*
X002811Y015726D01*
X002736Y015801D01*
X002586Y015801D01*
X002511Y015726D01*
X002351Y015726D02*
X002276Y015801D01*
X002051Y015801D01*
X002051Y015351D01*
X002276Y015351D01*
X002351Y015426D01*
X002351Y015726D01*
X002950Y017376D02*
X003026Y017376D01*
X003101Y017451D01*
X003101Y017601D01*
X003176Y017676D01*
X003251Y017676D01*
X003326Y017601D01*
X003326Y017451D01*
X003251Y017376D01*
X002950Y017376D02*
X002875Y017451D01*
X002875Y017601D01*
X002950Y017676D01*
X002875Y017836D02*
X003326Y017836D01*
X003176Y017986D01*
X003326Y018136D01*
X002875Y018136D01*
X002950Y018296D02*
X002875Y018372D01*
X002875Y018522D01*
X002950Y018597D01*
X003026Y018597D01*
X003326Y018296D01*
X003326Y018597D01*
X003051Y020776D02*
X002600Y020776D01*
X002600Y021001D01*
X002675Y021076D01*
X002976Y021076D01*
X003051Y021001D01*
X003051Y020776D01*
X003051Y021236D02*
X003051Y021536D01*
X003051Y021386D02*
X002600Y021386D01*
X002751Y021236D01*
X004905Y022751D02*
X004980Y022676D01*
X005130Y022676D01*
X005205Y022751D01*
X005365Y022751D02*
X005440Y022676D01*
X005591Y022676D01*
X005666Y022751D01*
X005666Y022826D01*
X005591Y022901D01*
X005516Y022901D01*
X005591Y022901D02*
X005666Y022976D01*
X005666Y023051D01*
X005591Y023126D01*
X005440Y023126D01*
X005365Y023051D01*
X005205Y023051D02*
X005130Y023126D01*
X004980Y023126D01*
X004905Y023051D01*
X004905Y022751D01*
X003576Y023951D02*
X003501Y023876D01*
X003576Y023951D02*
X003576Y024101D01*
X003501Y024176D01*
X003426Y024176D01*
X003351Y024101D01*
X003351Y023951D01*
X003276Y023876D01*
X003200Y023876D01*
X003125Y023951D01*
X003125Y024101D01*
X003200Y024176D01*
X003050Y026126D02*
X003050Y026351D01*
X003125Y026426D01*
X003276Y026426D01*
X003351Y026351D01*
X003351Y026126D01*
X003501Y026126D02*
X003050Y026126D01*
X003200Y028376D02*
X003501Y028376D01*
X003576Y028451D01*
X003576Y028601D01*
X003501Y028676D01*
X003200Y028676D02*
X003125Y028601D01*
X003125Y028451D01*
X003200Y028376D01*
X001176Y027688D02*
X001026Y027463D01*
X000876Y027688D01*
X000725Y027463D02*
X001176Y027463D01*
X001176Y027303D02*
X001176Y027078D01*
X001101Y027003D01*
X000951Y027003D01*
X000876Y027078D01*
X000876Y027303D01*
X000951Y026842D02*
X000876Y026767D01*
X000876Y026617D01*
X001026Y026617D02*
X001026Y026842D01*
X000951Y026842D02*
X001176Y026842D01*
X001176Y026617D01*
X001101Y026542D01*
X001026Y026617D01*
X001101Y026307D02*
X000725Y026307D01*
X000725Y026232D02*
X000725Y026382D01*
X001101Y026307D02*
X001176Y026232D01*
X001176Y026157D01*
X001101Y026082D01*
X001101Y025461D02*
X001176Y025386D01*
X001176Y025236D01*
X001101Y025161D01*
X000800Y025161D01*
X000725Y025236D01*
X000725Y025386D01*
X000800Y025461D01*
X000800Y025001D02*
X000725Y024926D01*
X000725Y024701D01*
X001176Y024701D01*
X001176Y024926D01*
X001101Y025001D01*
X000800Y025001D01*
X004451Y030526D02*
X004601Y030526D01*
X004676Y030601D01*
X004676Y030901D01*
X004601Y030976D01*
X004451Y030976D01*
X004376Y030901D01*
X004376Y030826D01*
X004451Y030751D01*
X004676Y030751D01*
X004836Y030676D02*
X004986Y030526D01*
X005136Y030676D01*
X005136Y030976D01*
X004836Y030976D02*
X004836Y030676D01*
X004451Y030526D02*
X004376Y030601D01*
X005757Y030526D02*
X005982Y030526D01*
X006057Y030601D01*
X006057Y030676D01*
X005982Y030751D01*
X005757Y030751D01*
X005982Y030751D02*
X006057Y030826D01*
X006057Y030901D01*
X005982Y030976D01*
X005757Y030976D01*
X005757Y030526D01*
X006217Y030601D02*
X006292Y030676D01*
X006517Y030676D01*
X006517Y030751D02*
X006517Y030526D01*
X006292Y030526D01*
X006217Y030601D01*
X006292Y030826D02*
X006442Y030826D01*
X006517Y030751D01*
X006678Y030826D02*
X006828Y030826D01*
X006753Y030901D02*
X006753Y030601D01*
X006828Y030526D01*
X007059Y030601D02*
X007059Y030901D01*
X006984Y030826D02*
X007135Y030826D01*
X007291Y030751D02*
X007366Y030826D01*
X007516Y030826D01*
X007592Y030751D01*
X007592Y030676D01*
X007291Y030676D01*
X007291Y030601D02*
X007291Y030751D01*
X007291Y030601D02*
X007366Y030526D01*
X007516Y030526D01*
X007752Y030526D02*
X007752Y030826D01*
X007902Y030826D02*
X007977Y030826D01*
X007902Y030826D02*
X007752Y030676D01*
X008135Y030601D02*
X008210Y030526D01*
X008436Y030526D01*
X008436Y030451D02*
X008436Y030826D01*
X008135Y030826D02*
X008135Y030601D01*
X008285Y030376D02*
X008360Y030376D01*
X008436Y030451D01*
X007135Y030526D02*
X007059Y030601D01*
X007136Y027176D02*
X007061Y027101D01*
X007061Y027026D01*
X007136Y026951D01*
X007361Y026951D01*
X007361Y026801D02*
X007361Y027101D01*
X007286Y027176D01*
X007136Y027176D01*
X006901Y027101D02*
X006826Y027176D01*
X006676Y027176D01*
X006601Y027101D01*
X006601Y026801D01*
X006676Y026726D01*
X006826Y026726D01*
X006901Y026801D01*
X007061Y026801D02*
X007136Y026726D01*
X007286Y026726D01*
X007361Y026801D01*
X009680Y026701D02*
X009755Y026626D01*
X009905Y026626D01*
X009980Y026701D01*
X009980Y027076D01*
X010140Y027001D02*
X010215Y027076D01*
X010366Y027076D01*
X010441Y027001D01*
X010441Y026926D01*
X010140Y026626D01*
X010441Y026626D01*
X009680Y026701D02*
X009680Y027076D01*
X010976Y027601D02*
X011201Y027601D01*
X011276Y027676D01*
X011276Y027976D01*
X011201Y028051D01*
X010976Y028051D01*
X010976Y027601D01*
X011436Y027676D02*
X011511Y027601D01*
X011661Y027601D01*
X011736Y027676D01*
X011736Y027751D01*
X011661Y027826D01*
X011586Y027826D01*
X011661Y027826D02*
X011736Y027901D01*
X011736Y027976D01*
X011661Y028051D01*
X011511Y028051D01*
X011436Y027976D01*
X013925Y027972D02*
X014151Y027746D01*
X014151Y028047D01*
X014376Y027972D02*
X013925Y027972D01*
X013925Y027436D02*
X014376Y027436D01*
X014376Y027286D02*
X014376Y027586D01*
X014076Y027286D02*
X013925Y027436D01*
X014000Y027126D02*
X013925Y027051D01*
X013925Y026901D01*
X014000Y026826D01*
X014301Y026826D01*
X014376Y026901D01*
X014376Y027051D01*
X014301Y027126D01*
X015475Y023947D02*
X015550Y023947D01*
X015851Y023646D01*
X015926Y023646D01*
X015926Y023486D02*
X015926Y023186D01*
X015926Y023336D02*
X015475Y023336D01*
X015626Y023186D01*
X015550Y023026D02*
X015475Y022951D01*
X015475Y022801D01*
X015550Y022726D01*
X015851Y022726D01*
X015926Y022801D01*
X015926Y022951D01*
X015851Y023026D01*
X015475Y023646D02*
X015475Y023947D01*
X012151Y021516D02*
X012151Y021365D01*
X012076Y021290D01*
X012151Y021130D02*
X012151Y020830D01*
X012151Y020980D02*
X011700Y020980D01*
X011851Y020830D01*
X011926Y020670D02*
X011775Y020670D01*
X011700Y020595D01*
X011700Y020370D01*
X012151Y020370D01*
X012001Y020370D02*
X012001Y020595D01*
X011926Y020670D01*
X012001Y020520D02*
X012151Y020670D01*
X011775Y021290D02*
X011700Y021365D01*
X011700Y021516D01*
X011775Y021591D01*
X011851Y021591D01*
X011926Y021516D01*
X012001Y021591D01*
X012076Y021591D01*
X012151Y021516D01*
X011926Y021516D02*
X011926Y021440D01*
X010641Y022551D02*
X010340Y022551D01*
X010491Y022551D02*
X010491Y023001D01*
X010340Y022851D01*
X010180Y022926D02*
X010105Y023001D01*
X009955Y023001D01*
X009880Y022926D01*
X009880Y022626D01*
X009955Y022551D01*
X010105Y022551D01*
X010180Y022626D01*
X008541Y022551D02*
X008240Y022551D01*
X008541Y022851D01*
X008541Y022926D01*
X008466Y023001D01*
X008315Y023001D01*
X008240Y022926D01*
X008080Y022926D02*
X008005Y023001D01*
X007855Y023001D01*
X007780Y022926D01*
X007780Y022626D01*
X007855Y022551D01*
X008005Y022551D01*
X008080Y022626D01*
X009751Y016676D02*
X009751Y016301D01*
X009826Y016226D01*
X009976Y016226D01*
X010051Y016301D01*
X010051Y016676D01*
X010211Y016526D02*
X010361Y016676D01*
X010361Y016226D01*
X010211Y016226D02*
X010511Y016226D01*
X013650Y016801D02*
X013725Y016726D01*
X014026Y016726D01*
X014101Y016801D01*
X014101Y016951D01*
X014026Y017026D01*
X014101Y017186D02*
X014101Y017486D01*
X014101Y017336D02*
X013650Y017336D01*
X013801Y017186D01*
X013725Y017026D02*
X013650Y016951D01*
X013650Y016801D01*
X013801Y017646D02*
X013650Y017797D01*
X014101Y017797D01*
X014101Y017947D02*
X014101Y017646D01*
X014026Y015236D02*
X013951Y015236D01*
X013876Y015161D01*
X013876Y015011D01*
X013801Y014936D01*
X013725Y014936D01*
X013650Y015011D01*
X013650Y015161D01*
X013725Y015236D01*
X013801Y015236D01*
X013876Y015161D01*
X013876Y015011D02*
X013951Y014936D01*
X014026Y014936D01*
X014101Y015011D01*
X014101Y015161D01*
X014026Y015236D01*
X014026Y014776D02*
X014101Y014701D01*
X014101Y014551D01*
X014026Y014476D01*
X013725Y014476D01*
X013650Y014551D01*
X013650Y014701D01*
X013725Y014776D01*
X013650Y012736D02*
X013725Y012586D01*
X013876Y012436D01*
X013876Y012661D01*
X013951Y012736D01*
X014026Y012736D01*
X014101Y012661D01*
X014101Y012511D01*
X014026Y012436D01*
X013876Y012436D01*
X014026Y012276D02*
X014101Y012201D01*
X014101Y012051D01*
X014026Y011976D01*
X013725Y011976D01*
X013650Y012051D01*
X013650Y012201D01*
X013725Y012276D01*
X013725Y010411D02*
X013650Y010411D01*
X013650Y010111D01*
X013725Y009951D02*
X013650Y009876D01*
X013650Y009726D01*
X013725Y009651D01*
X014026Y009651D01*
X014101Y009726D01*
X014101Y009876D01*
X014026Y009951D01*
X014026Y010111D02*
X014101Y010111D01*
X014026Y010111D02*
X013725Y010411D01*
X016725Y009961D02*
X016725Y009811D01*
X016800Y009736D01*
X016876Y009736D01*
X016951Y009811D01*
X016951Y010036D01*
X017101Y010036D02*
X016800Y010036D01*
X016725Y009961D01*
X016800Y009576D02*
X016725Y009501D01*
X016725Y009276D01*
X017176Y009276D01*
X017026Y009276D02*
X017026Y009501D01*
X016951Y009576D01*
X016800Y009576D01*
X017026Y009426D02*
X017176Y009576D01*
X017101Y009736D02*
X017176Y009811D01*
X017176Y009961D01*
X017101Y010036D01*
X019725Y009961D02*
X019725Y009811D01*
X019800Y009736D01*
X019800Y009576D02*
X019951Y009576D01*
X020026Y009501D01*
X020026Y009276D01*
X020176Y009276D02*
X019725Y009276D01*
X019725Y009501D01*
X019800Y009576D01*
X020026Y009426D02*
X020176Y009576D01*
X020101Y009736D02*
X020176Y009811D01*
X020176Y009961D01*
X020101Y010036D01*
X020026Y010036D01*
X019951Y009961D01*
X019951Y009886D01*
X019951Y009961D02*
X019876Y010036D01*
X019800Y010036D01*
X019725Y009961D01*
X022725Y009961D02*
X022951Y009736D01*
X022951Y010036D01*
X023176Y009961D02*
X022725Y009961D01*
X022800Y009576D02*
X022951Y009576D01*
X023026Y009501D01*
X023026Y009276D01*
X023176Y009276D02*
X022725Y009276D01*
X022725Y009501D01*
X022800Y009576D01*
X023026Y009426D02*
X023176Y009576D01*
X024260Y007750D02*
X024260Y002396D01*
X029142Y002396D01*
X029142Y007750D01*
X024260Y007750D01*
X026101Y006476D02*
X026101Y006026D01*
X026101Y006176D02*
X026326Y006176D01*
X026401Y006251D01*
X026401Y006401D01*
X026326Y006476D01*
X026101Y006476D01*
X026251Y006176D02*
X026401Y006026D01*
X026561Y006026D02*
X026861Y006026D01*
X026711Y006026D02*
X026711Y006476D01*
X026561Y006326D01*
X027021Y006401D02*
X027021Y006101D01*
X027322Y006401D01*
X027322Y006101D01*
X027247Y006026D01*
X027097Y006026D01*
X027021Y006101D01*
X027021Y006401D02*
X027097Y006476D01*
X027247Y006476D01*
X027322Y006401D01*
X028775Y008551D02*
X028851Y008551D01*
X028926Y008626D01*
X028926Y008776D01*
X029001Y008851D01*
X029076Y008851D01*
X029151Y008776D01*
X029151Y008626D01*
X029076Y008551D01*
X028775Y008551D02*
X028700Y008626D01*
X028700Y008776D01*
X028775Y008851D01*
X028926Y009011D02*
X028926Y009311D01*
X028851Y009471D02*
X028851Y009622D01*
X028775Y009547D02*
X029076Y009547D01*
X029151Y009622D01*
X029076Y009778D02*
X028926Y009778D01*
X028851Y009853D01*
X028851Y010004D01*
X028926Y010079D01*
X029001Y010079D01*
X029001Y009778D01*
X029076Y009778D02*
X029151Y009853D01*
X029151Y010004D01*
X029151Y010239D02*
X028700Y010239D01*
X028851Y010464D02*
X029001Y010239D01*
X029151Y010464D01*
X029151Y011051D02*
X028700Y011051D01*
X028700Y011276D01*
X028775Y011351D01*
X029076Y011351D01*
X029151Y011276D01*
X029151Y011051D01*
X029076Y011511D02*
X028926Y011511D01*
X028851Y011586D01*
X028851Y011736D01*
X028926Y011811D01*
X029001Y011811D01*
X029001Y011511D01*
X029076Y011511D02*
X029151Y011586D01*
X029151Y011736D01*
X029151Y011971D02*
X029151Y012122D01*
X029151Y012047D02*
X028700Y012047D01*
X028700Y011971D01*
X028851Y012353D02*
X028851Y012504D01*
X028926Y012579D01*
X029151Y012579D01*
X029151Y012353D01*
X029076Y012278D01*
X029001Y012353D01*
X029001Y012579D01*
X029076Y012739D02*
X028851Y012739D01*
X029076Y012739D02*
X029151Y012814D01*
X029151Y013039D01*
X029226Y013039D02*
X029301Y012964D01*
X029301Y012889D01*
X029226Y013039D02*
X028851Y013039D01*
X026476Y011222D02*
X026476Y010921D01*
X026476Y011072D02*
X026025Y011072D01*
X026176Y010921D01*
X026476Y010761D02*
X026476Y010461D01*
X026476Y010611D02*
X026025Y010611D01*
X026176Y010461D01*
X026251Y010301D02*
X026326Y010226D01*
X026326Y010001D01*
X026476Y010001D02*
X026025Y010001D01*
X026025Y010226D01*
X026100Y010301D01*
X026251Y010301D01*
X026326Y010151D02*
X026476Y010301D01*
X023151Y014126D02*
X022700Y014126D01*
X022700Y014351D01*
X022775Y014426D01*
X022926Y014426D01*
X023001Y014351D01*
X023001Y014126D01*
X023001Y014276D02*
X023151Y014426D01*
X023076Y014586D02*
X023151Y014661D01*
X023151Y014811D01*
X023076Y014886D01*
X023001Y014886D01*
X022926Y014811D01*
X022926Y014661D01*
X022851Y014586D01*
X022775Y014586D01*
X022700Y014661D01*
X022700Y014811D01*
X022775Y014886D01*
X022851Y014886D01*
X022926Y014811D01*
X022926Y014661D02*
X023001Y014586D01*
X023076Y014586D01*
X020201Y014661D02*
X020201Y014811D01*
X020126Y014886D01*
X020051Y014886D01*
X019976Y014811D01*
X019976Y014586D01*
X020126Y014586D01*
X020201Y014661D01*
X020201Y014426D02*
X020051Y014276D01*
X020051Y014351D02*
X020051Y014126D01*
X020201Y014126D02*
X019750Y014126D01*
X019750Y014351D01*
X019825Y014426D01*
X019976Y014426D01*
X020051Y014351D01*
X019976Y014586D02*
X019825Y014736D01*
X019750Y014886D01*
X017176Y014586D02*
X017101Y014586D01*
X016800Y014886D01*
X016725Y014886D01*
X016725Y014586D01*
X016800Y014426D02*
X016725Y014351D01*
X016725Y014126D01*
X017176Y014126D01*
X017026Y014126D02*
X017026Y014351D01*
X016951Y014426D01*
X016800Y014426D01*
X017026Y014276D02*
X017176Y014426D01*
X017275Y018226D02*
X017275Y018451D01*
X017350Y018526D01*
X017501Y018526D01*
X017576Y018451D01*
X017576Y018226D01*
X017726Y018226D02*
X017275Y018226D01*
X017576Y018376D02*
X017726Y018526D01*
X017726Y018686D02*
X017726Y018986D01*
X017726Y018836D02*
X017275Y018836D01*
X017426Y018686D01*
X017350Y019146D02*
X017275Y019222D01*
X017275Y019372D01*
X017350Y019447D01*
X017426Y019447D01*
X017726Y019146D01*
X017726Y019447D01*
X019925Y019747D02*
X020000Y019597D01*
X020151Y019446D01*
X020151Y019672D01*
X020226Y019747D01*
X020301Y019747D01*
X020376Y019672D01*
X020376Y019522D01*
X020301Y019446D01*
X020151Y019446D01*
X020376Y019286D02*
X020376Y018986D01*
X020376Y019136D02*
X019925Y019136D01*
X020076Y018986D01*
X020000Y018826D02*
X019925Y018751D01*
X019925Y018601D01*
X020000Y018526D01*
X020301Y018526D01*
X020376Y018601D01*
X020376Y018751D01*
X020301Y018826D01*
X022425Y018801D02*
X022500Y018726D01*
X022801Y018726D01*
X022876Y018801D01*
X022876Y018951D01*
X022801Y019026D01*
X022876Y019186D02*
X022876Y019486D01*
X022876Y019336D02*
X022425Y019336D01*
X022576Y019186D01*
X022500Y019026D02*
X022425Y018951D01*
X022425Y018801D01*
X022425Y019646D02*
X022651Y019646D01*
X022576Y019797D01*
X022576Y019872D01*
X022651Y019947D01*
X022801Y019947D01*
X022876Y019872D01*
X022876Y019722D01*
X022801Y019646D01*
X022425Y019646D02*
X022425Y019947D01*
X026625Y020001D02*
X026625Y020151D01*
X026625Y020076D02*
X027076Y020076D01*
X027076Y020001D02*
X027076Y020151D01*
X027076Y020308D02*
X026625Y020308D01*
X027076Y020608D01*
X026625Y020608D01*
X029200Y020401D02*
X029200Y020176D01*
X029651Y020176D01*
X029501Y020176D02*
X029501Y020401D01*
X029426Y020476D01*
X029275Y020476D01*
X029200Y020401D01*
X029501Y020326D02*
X029651Y020476D01*
X029200Y022176D02*
X029200Y022476D01*
X029200Y022326D02*
X029651Y022326D01*
X029200Y025676D02*
X029200Y025976D01*
X029200Y025826D02*
X029651Y025826D01*
X029576Y027676D02*
X029651Y027751D01*
X029651Y027901D01*
X029576Y027976D01*
X029501Y027976D01*
X029426Y027901D01*
X029426Y027751D01*
X029351Y027676D01*
X029275Y027676D01*
X029200Y027751D01*
X029200Y027901D01*
X029275Y027976D01*
X027251Y027422D02*
X026800Y027422D01*
X026800Y027572D02*
X026800Y027271D01*
X026800Y027111D02*
X027176Y027111D01*
X027251Y027036D01*
X027251Y026886D01*
X027176Y026811D01*
X026800Y026811D01*
X026875Y026651D02*
X026800Y026576D01*
X026800Y026426D01*
X026875Y026351D01*
X027176Y026351D01*
X027251Y026426D01*
X027251Y026576D01*
X027176Y026651D01*
X026875Y026651D01*
X029275Y018476D02*
X029200Y018401D01*
X029200Y018251D01*
X029275Y018176D01*
X029351Y018176D01*
X029426Y018251D01*
X029426Y018401D01*
X029501Y018476D01*
X029576Y018476D01*
X029651Y018401D01*
X029651Y018251D01*
X029576Y018176D01*
X019222Y005976D02*
X019072Y005976D01*
X018996Y005901D01*
X019222Y005976D02*
X019297Y005901D01*
X019297Y005826D01*
X018996Y005526D01*
X019297Y005526D01*
X018836Y005526D02*
X018536Y005526D01*
X018686Y005526D02*
X018686Y005976D01*
X018536Y005826D01*
X018376Y005901D02*
X018301Y005976D01*
X018151Y005976D01*
X018076Y005901D01*
X018076Y005601D01*
X018151Y005526D01*
X018301Y005526D01*
X018376Y005601D01*
X014726Y004672D02*
X014726Y004522D01*
X014651Y004446D01*
X014350Y004747D01*
X014651Y004747D01*
X014726Y004672D01*
X014651Y004446D02*
X014350Y004446D01*
X014275Y004522D01*
X014275Y004672D01*
X014350Y004747D01*
X014726Y004286D02*
X014726Y003986D01*
X014726Y004136D02*
X014275Y004136D01*
X014426Y003986D01*
X014350Y003826D02*
X014275Y003751D01*
X014275Y003601D01*
X014350Y003526D01*
X014651Y003526D01*
X014726Y003601D01*
X014726Y003751D01*
X014651Y003826D01*
X012126Y003751D02*
X012051Y003826D01*
X012126Y003751D02*
X012126Y003601D01*
X012051Y003526D01*
X011750Y003526D01*
X011675Y003601D01*
X011675Y003751D01*
X011750Y003826D01*
X011826Y003986D02*
X011675Y004136D01*
X012126Y004136D01*
X012126Y003986D02*
X012126Y004286D01*
X012051Y004446D02*
X012126Y004522D01*
X012126Y004672D01*
X012051Y004747D01*
X011976Y004747D01*
X011901Y004672D01*
X011901Y004597D01*
X011901Y004672D02*
X011826Y004747D01*
X011750Y004747D01*
X011675Y004672D01*
X011675Y004522D01*
X011750Y004446D01*
X009676Y004461D02*
X009676Y004311D01*
X009601Y004236D01*
X009451Y004236D02*
X009376Y004386D01*
X009376Y004461D01*
X009451Y004536D01*
X009601Y004536D01*
X009676Y004461D01*
X009451Y004236D02*
X009225Y004236D01*
X009225Y004536D01*
X009300Y004076D02*
X009451Y004076D01*
X009526Y004001D01*
X009526Y003776D01*
X009676Y003776D02*
X009225Y003776D01*
X009225Y004001D01*
X009300Y004076D01*
X009526Y003926D02*
X009676Y004076D01*
X009640Y009426D02*
X009941Y009426D01*
X009791Y009426D02*
X009791Y009876D01*
X009640Y009726D01*
X009480Y009651D02*
X009405Y009576D01*
X009180Y009576D01*
X009330Y009576D02*
X009480Y009426D01*
X009480Y009651D02*
X009480Y009801D01*
X009405Y009876D01*
X009180Y009876D01*
X009180Y009426D01*
X015351Y030401D02*
X015351Y030851D01*
X015576Y030851D01*
X015651Y030776D01*
X015651Y030626D01*
X015576Y030551D01*
X015351Y030551D01*
X015501Y030551D02*
X015651Y030401D01*
X015811Y030401D02*
X016111Y030401D01*
X015961Y030401D02*
X015961Y030851D01*
X015811Y030701D01*
X016271Y030626D02*
X016422Y030701D01*
X016497Y030701D01*
X016572Y030626D01*
X016572Y030476D01*
X016497Y030401D01*
X016347Y030401D01*
X016271Y030476D01*
X016271Y030626D02*
X016271Y030851D01*
X016572Y030851D01*
D11*
X016432Y030101D02*
X016232Y030101D01*
X016182Y030051D01*
X015669Y030051D01*
X015619Y030101D01*
X015419Y030101D01*
X015402Y030099D01*
X015385Y030095D01*
X015369Y030088D01*
X015355Y030078D01*
X015342Y030065D01*
X015332Y030051D01*
X015325Y030035D01*
X015321Y030018D01*
X015319Y030001D01*
X015319Y029401D01*
X015321Y029384D01*
X015325Y029367D01*
X015332Y029351D01*
X015342Y029337D01*
X015355Y029324D01*
X015369Y029314D01*
X015385Y029307D01*
X015402Y029303D01*
X015419Y029301D01*
X015619Y029301D01*
X015669Y029351D01*
X016182Y029351D01*
X016232Y029301D01*
X016432Y029301D01*
X016449Y029303D01*
X016466Y029307D01*
X016482Y029314D01*
X016496Y029324D01*
X016509Y029337D01*
X016519Y029351D01*
X016526Y029367D01*
X016530Y029384D01*
X016532Y029401D01*
X016532Y030001D01*
X016530Y030018D01*
X016526Y030035D01*
X016519Y030051D01*
X016509Y030065D01*
X016496Y030078D01*
X016482Y030088D01*
X016466Y030095D01*
X016449Y030099D01*
X016432Y030101D01*
X014611Y027401D02*
X014613Y027471D01*
X014619Y027541D01*
X014629Y027611D01*
X014643Y027679D01*
X014660Y027747D01*
X014682Y027814D01*
X014707Y027880D01*
X014736Y027944D01*
X014768Y028006D01*
X014804Y028066D01*
X014844Y028124D01*
X014886Y028180D01*
X014932Y028233D01*
X014980Y028284D01*
X015032Y028332D01*
X015086Y028377D01*
X015142Y028418D01*
X015201Y028457D01*
X015262Y028492D01*
X015324Y028524D01*
X015389Y028552D01*
X015454Y028576D01*
X015522Y028596D01*
X015590Y028613D01*
X015659Y028626D01*
X015728Y028635D01*
X015798Y028640D01*
X015869Y028641D01*
X015939Y028638D01*
X016009Y028631D01*
X016078Y028620D01*
X016146Y028605D01*
X016214Y028587D01*
X016281Y028564D01*
X016346Y028538D01*
X016409Y028508D01*
X016471Y028475D01*
X016531Y028438D01*
X016588Y028398D01*
X016644Y028355D01*
X016696Y028308D01*
X016746Y028259D01*
X016793Y028207D01*
X016837Y028152D01*
X016878Y028095D01*
X016916Y028036D01*
X016950Y027975D01*
X016981Y027912D01*
X017008Y027847D01*
X017031Y027781D01*
X017051Y027713D01*
X017067Y027645D01*
X017079Y027576D01*
X017087Y027506D01*
X017091Y027436D01*
X017091Y027366D01*
X017087Y027296D01*
X017079Y027226D01*
X017067Y027157D01*
X017051Y027089D01*
X017031Y027021D01*
X017008Y026955D01*
X016981Y026890D01*
X016950Y026827D01*
X016916Y026766D01*
X016878Y026707D01*
X016837Y026650D01*
X016793Y026595D01*
X016746Y026543D01*
X016696Y026494D01*
X016644Y026447D01*
X016588Y026404D01*
X016531Y026364D01*
X016471Y026327D01*
X016409Y026294D01*
X016346Y026264D01*
X016281Y026238D01*
X016214Y026215D01*
X016146Y026197D01*
X016078Y026182D01*
X016009Y026171D01*
X015939Y026164D01*
X015869Y026161D01*
X015798Y026162D01*
X015728Y026167D01*
X015659Y026176D01*
X015590Y026189D01*
X015522Y026206D01*
X015454Y026226D01*
X015389Y026250D01*
X015324Y026278D01*
X015262Y026310D01*
X015201Y026345D01*
X015142Y026384D01*
X015086Y026425D01*
X015032Y026470D01*
X014980Y026518D01*
X014932Y026569D01*
X014886Y026622D01*
X014844Y026678D01*
X014804Y026736D01*
X014768Y026796D01*
X014736Y026858D01*
X014707Y026922D01*
X014682Y026988D01*
X014660Y027055D01*
X014643Y027123D01*
X014629Y027191D01*
X014619Y027261D01*
X014613Y027331D01*
X014611Y027401D01*
X015191Y026951D02*
X015441Y026951D01*
X015311Y027081D02*
X015311Y026821D01*
X016876Y024185D02*
X016922Y024183D01*
X016968Y024178D01*
X017014Y024169D01*
X017059Y024156D01*
X017102Y024140D01*
X017144Y024121D01*
X017185Y024098D01*
X017223Y024072D01*
X017260Y024043D01*
X017294Y024012D01*
X017325Y023978D01*
X017354Y023941D01*
X017380Y023903D01*
X017403Y023862D01*
X017422Y023820D01*
X017438Y023777D01*
X017451Y023732D01*
X017460Y023686D01*
X017465Y023640D01*
X017467Y023594D01*
X016876Y024185D02*
X016830Y024183D01*
X016784Y024178D01*
X016738Y024169D01*
X016693Y024156D01*
X016650Y024140D01*
X016608Y024121D01*
X016567Y024098D01*
X016529Y024072D01*
X016492Y024043D01*
X016458Y024012D01*
X016427Y023978D01*
X016398Y023941D01*
X016372Y023903D01*
X016349Y023862D01*
X016330Y023820D01*
X016314Y023777D01*
X016301Y023732D01*
X016292Y023686D01*
X016287Y023640D01*
X016285Y023594D01*
X017467Y022807D02*
X017465Y022761D01*
X017460Y022715D01*
X017451Y022669D01*
X017438Y022624D01*
X017422Y022581D01*
X017403Y022539D01*
X017380Y022498D01*
X017354Y022460D01*
X017325Y022423D01*
X017294Y022389D01*
X017260Y022358D01*
X017223Y022329D01*
X017185Y022303D01*
X017144Y022280D01*
X017102Y022261D01*
X017059Y022245D01*
X017014Y022232D01*
X016968Y022223D01*
X016922Y022218D01*
X016876Y022216D01*
X016830Y022218D01*
X016784Y022223D01*
X016738Y022232D01*
X016693Y022245D01*
X016650Y022261D01*
X016608Y022280D01*
X016567Y022303D01*
X016529Y022329D01*
X016492Y022358D01*
X016458Y022389D01*
X016427Y022423D01*
X016398Y022460D01*
X016372Y022498D01*
X016349Y022539D01*
X016330Y022581D01*
X016314Y022624D01*
X016301Y022669D01*
X016292Y022715D01*
X016287Y022761D01*
X016285Y022807D01*
X013401Y021332D02*
X013401Y021132D01*
X013351Y021082D01*
X013351Y020569D01*
X013401Y020519D01*
X013401Y020319D01*
X013399Y020302D01*
X013395Y020285D01*
X013388Y020269D01*
X013378Y020255D01*
X013365Y020242D01*
X013351Y020232D01*
X013335Y020225D01*
X013318Y020221D01*
X013301Y020219D01*
X012701Y020219D01*
X012684Y020221D01*
X012667Y020225D01*
X012651Y020232D01*
X012637Y020242D01*
X012624Y020255D01*
X012614Y020269D01*
X012607Y020285D01*
X012603Y020302D01*
X012601Y020319D01*
X012601Y020519D01*
X012651Y020569D01*
X012651Y021082D01*
X012601Y021132D01*
X012601Y021332D01*
X012603Y021349D01*
X012607Y021366D01*
X012614Y021382D01*
X012624Y021396D01*
X012637Y021409D01*
X012651Y021419D01*
X012667Y021426D01*
X012684Y021430D01*
X012701Y021432D01*
X013301Y021432D01*
X013318Y021430D01*
X013335Y021426D01*
X013351Y021419D01*
X013365Y021409D01*
X013378Y021396D01*
X013388Y021382D01*
X013395Y021366D01*
X013399Y021349D01*
X013401Y021332D01*
X012001Y018851D02*
X011001Y018851D01*
X010401Y018851D01*
X010399Y018812D01*
X010393Y018773D01*
X010384Y018735D01*
X010371Y018698D01*
X010354Y018662D01*
X010334Y018629D01*
X010310Y018597D01*
X010284Y018568D01*
X010255Y018542D01*
X010223Y018518D01*
X010190Y018498D01*
X010154Y018481D01*
X010117Y018468D01*
X010079Y018459D01*
X010040Y018453D01*
X010001Y018451D01*
X009962Y018453D01*
X009923Y018459D01*
X009885Y018468D01*
X009848Y018481D01*
X009812Y018498D01*
X009779Y018518D01*
X009747Y018542D01*
X009718Y018568D01*
X009692Y018597D01*
X009668Y018629D01*
X009648Y018662D01*
X009631Y018698D01*
X009618Y018735D01*
X009609Y018773D01*
X009603Y018812D01*
X009601Y018851D01*
X009001Y018851D01*
X009001Y010851D01*
X008001Y010851D01*
X008001Y018851D01*
X009001Y018851D01*
X007636Y020421D02*
X007636Y020681D01*
X007516Y020551D02*
X007766Y020551D01*
X006936Y021001D02*
X006938Y021071D01*
X006944Y021141D01*
X006954Y021211D01*
X006968Y021279D01*
X006985Y021347D01*
X007007Y021414D01*
X007032Y021480D01*
X007061Y021544D01*
X007093Y021606D01*
X007129Y021666D01*
X007169Y021724D01*
X007211Y021780D01*
X007257Y021833D01*
X007305Y021884D01*
X007357Y021932D01*
X007411Y021977D01*
X007467Y022018D01*
X007526Y022057D01*
X007587Y022092D01*
X007649Y022124D01*
X007714Y022152D01*
X007779Y022176D01*
X007847Y022196D01*
X007915Y022213D01*
X007984Y022226D01*
X008053Y022235D01*
X008123Y022240D01*
X008194Y022241D01*
X008264Y022238D01*
X008334Y022231D01*
X008403Y022220D01*
X008471Y022205D01*
X008539Y022187D01*
X008606Y022164D01*
X008671Y022138D01*
X008734Y022108D01*
X008796Y022075D01*
X008856Y022038D01*
X008913Y021998D01*
X008969Y021955D01*
X009021Y021908D01*
X009071Y021859D01*
X009118Y021807D01*
X009162Y021752D01*
X009203Y021695D01*
X009241Y021636D01*
X009275Y021575D01*
X009306Y021512D01*
X009333Y021447D01*
X009356Y021381D01*
X009376Y021313D01*
X009392Y021245D01*
X009404Y021176D01*
X009412Y021106D01*
X009416Y021036D01*
X009416Y020966D01*
X009412Y020896D01*
X009404Y020826D01*
X009392Y020757D01*
X009376Y020689D01*
X009356Y020621D01*
X009333Y020555D01*
X009306Y020490D01*
X009275Y020427D01*
X009241Y020366D01*
X009203Y020307D01*
X009162Y020250D01*
X009118Y020195D01*
X009071Y020143D01*
X009021Y020094D01*
X008969Y020047D01*
X008913Y020004D01*
X008856Y019964D01*
X008796Y019927D01*
X008734Y019894D01*
X008671Y019864D01*
X008606Y019838D01*
X008539Y019815D01*
X008471Y019797D01*
X008403Y019782D01*
X008334Y019771D01*
X008264Y019764D01*
X008194Y019761D01*
X008123Y019762D01*
X008053Y019767D01*
X007984Y019776D01*
X007915Y019789D01*
X007847Y019806D01*
X007779Y019826D01*
X007714Y019850D01*
X007649Y019878D01*
X007587Y019910D01*
X007526Y019945D01*
X007467Y019984D01*
X007411Y020025D01*
X007357Y020070D01*
X007305Y020118D01*
X007257Y020169D01*
X007211Y020222D01*
X007169Y020278D01*
X007129Y020336D01*
X007093Y020396D01*
X007061Y020458D01*
X007032Y020522D01*
X007007Y020588D01*
X006985Y020655D01*
X006968Y020723D01*
X006954Y020791D01*
X006944Y020861D01*
X006938Y020931D01*
X006936Y021001D01*
X004061Y021151D02*
X004063Y021221D01*
X004069Y021291D01*
X004079Y021361D01*
X004093Y021429D01*
X004110Y021497D01*
X004132Y021564D01*
X004157Y021630D01*
X004186Y021694D01*
X004218Y021756D01*
X004254Y021816D01*
X004294Y021874D01*
X004336Y021930D01*
X004382Y021983D01*
X004430Y022034D01*
X004482Y022082D01*
X004536Y022127D01*
X004592Y022168D01*
X004651Y022207D01*
X004712Y022242D01*
X004774Y022274D01*
X004839Y022302D01*
X004904Y022326D01*
X004972Y022346D01*
X005040Y022363D01*
X005109Y022376D01*
X005178Y022385D01*
X005248Y022390D01*
X005319Y022391D01*
X005389Y022388D01*
X005459Y022381D01*
X005528Y022370D01*
X005596Y022355D01*
X005664Y022337D01*
X005731Y022314D01*
X005796Y022288D01*
X005859Y022258D01*
X005921Y022225D01*
X005981Y022188D01*
X006038Y022148D01*
X006094Y022105D01*
X006146Y022058D01*
X006196Y022009D01*
X006243Y021957D01*
X006287Y021902D01*
X006328Y021845D01*
X006366Y021786D01*
X006400Y021725D01*
X006431Y021662D01*
X006458Y021597D01*
X006481Y021531D01*
X006501Y021463D01*
X006517Y021395D01*
X006529Y021326D01*
X006537Y021256D01*
X006541Y021186D01*
X006541Y021116D01*
X006537Y021046D01*
X006529Y020976D01*
X006517Y020907D01*
X006501Y020839D01*
X006481Y020771D01*
X006458Y020705D01*
X006431Y020640D01*
X006400Y020577D01*
X006366Y020516D01*
X006328Y020457D01*
X006287Y020400D01*
X006243Y020345D01*
X006196Y020293D01*
X006146Y020244D01*
X006094Y020197D01*
X006038Y020154D01*
X005981Y020114D01*
X005921Y020077D01*
X005859Y020044D01*
X005796Y020014D01*
X005731Y019988D01*
X005664Y019965D01*
X005596Y019947D01*
X005528Y019932D01*
X005459Y019921D01*
X005389Y019914D01*
X005319Y019911D01*
X005248Y019912D01*
X005178Y019917D01*
X005109Y019926D01*
X005040Y019939D01*
X004972Y019956D01*
X004904Y019976D01*
X004839Y020000D01*
X004774Y020028D01*
X004712Y020060D01*
X004651Y020095D01*
X004592Y020134D01*
X004536Y020175D01*
X004482Y020220D01*
X004430Y020268D01*
X004382Y020319D01*
X004336Y020372D01*
X004294Y020428D01*
X004254Y020486D01*
X004218Y020546D01*
X004186Y020608D01*
X004157Y020672D01*
X004132Y020738D01*
X004110Y020805D01*
X004093Y020873D01*
X004079Y020941D01*
X004069Y021011D01*
X004063Y021081D01*
X004061Y021151D01*
X004641Y020701D02*
X004891Y020701D01*
X004761Y020831D02*
X004761Y020571D01*
X002351Y020301D02*
X001351Y020301D01*
X001351Y021901D01*
X002351Y021901D01*
X002351Y020301D01*
X002501Y023501D02*
X002701Y023501D01*
X002701Y023701D01*
X002701Y024501D02*
X002701Y024701D01*
X002501Y024701D01*
X002501Y025501D02*
X002701Y025501D01*
X002701Y025701D01*
X002701Y026501D02*
X002701Y026701D01*
X002501Y026701D01*
X001701Y026701D02*
X001501Y026701D01*
X001501Y026501D01*
X001501Y025701D02*
X001501Y025501D01*
X001701Y025501D01*
X001701Y024701D02*
X001501Y024701D01*
X001501Y024501D01*
X001501Y023701D02*
X001501Y023501D01*
X001701Y023501D01*
X001701Y027751D02*
X001501Y027751D01*
X001501Y027951D01*
X001501Y028751D02*
X001501Y028951D01*
X001701Y028951D01*
X002501Y028951D02*
X002701Y028951D01*
X002701Y028751D01*
X002701Y027951D02*
X002701Y027751D01*
X002501Y027751D01*
X004501Y029001D02*
X004501Y029201D01*
X004501Y029001D02*
X004701Y029001D01*
X005119Y028640D02*
X005119Y028213D01*
X004906Y028426D02*
X005333Y028426D01*
X005501Y029001D02*
X005701Y029001D01*
X005701Y029201D01*
X005701Y030001D02*
X005701Y030201D01*
X005501Y030201D01*
X004701Y030201D02*
X004501Y030201D01*
X004501Y030001D01*
X006501Y030001D02*
X006501Y030201D01*
X006701Y030201D01*
X007501Y030201D02*
X007701Y030201D01*
X007701Y030001D01*
X007701Y029201D02*
X007701Y029001D01*
X007501Y029001D01*
X007433Y028426D02*
X007006Y028426D01*
X006701Y029001D02*
X006501Y029001D01*
X006501Y029201D01*
X009351Y026051D02*
X009351Y024401D01*
X009901Y024338D02*
X009901Y024181D01*
X009901Y025113D02*
X009901Y025338D01*
X009901Y026113D02*
X009901Y026271D01*
X007586Y025701D02*
X007336Y025701D01*
X007466Y025571D02*
X007466Y025831D01*
X005686Y025251D02*
X005688Y025321D01*
X005694Y025391D01*
X005704Y025461D01*
X005718Y025529D01*
X005735Y025597D01*
X005757Y025664D01*
X005782Y025730D01*
X005811Y025794D01*
X005843Y025856D01*
X005879Y025916D01*
X005919Y025974D01*
X005961Y026030D01*
X006007Y026083D01*
X006055Y026134D01*
X006107Y026182D01*
X006161Y026227D01*
X006217Y026268D01*
X006276Y026307D01*
X006337Y026342D01*
X006399Y026374D01*
X006464Y026402D01*
X006529Y026426D01*
X006597Y026446D01*
X006665Y026463D01*
X006734Y026476D01*
X006803Y026485D01*
X006873Y026490D01*
X006944Y026491D01*
X007014Y026488D01*
X007084Y026481D01*
X007153Y026470D01*
X007221Y026455D01*
X007289Y026437D01*
X007356Y026414D01*
X007421Y026388D01*
X007484Y026358D01*
X007546Y026325D01*
X007606Y026288D01*
X007663Y026248D01*
X007719Y026205D01*
X007771Y026158D01*
X007821Y026109D01*
X007868Y026057D01*
X007912Y026002D01*
X007953Y025945D01*
X007991Y025886D01*
X008025Y025825D01*
X008056Y025762D01*
X008083Y025697D01*
X008106Y025631D01*
X008126Y025563D01*
X008142Y025495D01*
X008154Y025426D01*
X008162Y025356D01*
X008166Y025286D01*
X008166Y025216D01*
X008162Y025146D01*
X008154Y025076D01*
X008142Y025007D01*
X008126Y024939D01*
X008106Y024871D01*
X008083Y024805D01*
X008056Y024740D01*
X008025Y024677D01*
X007991Y024616D01*
X007953Y024557D01*
X007912Y024500D01*
X007868Y024445D01*
X007821Y024393D01*
X007771Y024344D01*
X007719Y024297D01*
X007663Y024254D01*
X007606Y024214D01*
X007546Y024177D01*
X007484Y024144D01*
X007421Y024114D01*
X007356Y024088D01*
X007289Y024065D01*
X007221Y024047D01*
X007153Y024032D01*
X007084Y024021D01*
X007014Y024014D01*
X006944Y024011D01*
X006873Y024012D01*
X006803Y024017D01*
X006734Y024026D01*
X006665Y024039D01*
X006597Y024056D01*
X006529Y024076D01*
X006464Y024100D01*
X006399Y024128D01*
X006337Y024160D01*
X006276Y024195D01*
X006217Y024234D01*
X006161Y024275D01*
X006107Y024320D01*
X006055Y024368D01*
X006007Y024419D01*
X005961Y024472D01*
X005919Y024528D01*
X005879Y024586D01*
X005843Y024646D01*
X005811Y024708D01*
X005782Y024772D01*
X005757Y024838D01*
X005735Y024905D01*
X005718Y024973D01*
X005704Y025041D01*
X005694Y025111D01*
X005688Y025181D01*
X005686Y025251D01*
X010476Y021985D02*
X010522Y021983D01*
X010568Y021978D01*
X010614Y021969D01*
X010659Y021956D01*
X010702Y021940D01*
X010744Y021921D01*
X010785Y021898D01*
X010823Y021872D01*
X010860Y021843D01*
X010894Y021812D01*
X010925Y021778D01*
X010954Y021741D01*
X010980Y021703D01*
X011003Y021662D01*
X011022Y021620D01*
X011038Y021577D01*
X011051Y021532D01*
X011060Y021486D01*
X011065Y021440D01*
X011067Y021394D01*
X010476Y021985D02*
X010430Y021983D01*
X010384Y021978D01*
X010338Y021969D01*
X010293Y021956D01*
X010250Y021940D01*
X010208Y021921D01*
X010167Y021898D01*
X010129Y021872D01*
X010092Y021843D01*
X010058Y021812D01*
X010027Y021778D01*
X009998Y021741D01*
X009972Y021703D01*
X009949Y021662D01*
X009930Y021620D01*
X009914Y021577D01*
X009901Y021532D01*
X009892Y021486D01*
X009887Y021440D01*
X009885Y021394D01*
X011067Y020607D02*
X011065Y020561D01*
X011060Y020515D01*
X011051Y020469D01*
X011038Y020424D01*
X011022Y020381D01*
X011003Y020339D01*
X010980Y020298D01*
X010954Y020260D01*
X010925Y020223D01*
X010894Y020189D01*
X010860Y020158D01*
X010823Y020129D01*
X010785Y020103D01*
X010744Y020080D01*
X010702Y020061D01*
X010659Y020045D01*
X010614Y020032D01*
X010568Y020023D01*
X010522Y020018D01*
X010476Y020016D01*
X010430Y020018D01*
X010384Y020023D01*
X010338Y020032D01*
X010293Y020045D01*
X010250Y020061D01*
X010208Y020080D01*
X010167Y020103D01*
X010129Y020129D01*
X010092Y020158D01*
X010058Y020189D01*
X010027Y020223D01*
X009998Y020260D01*
X009972Y020298D01*
X009949Y020339D01*
X009930Y020381D01*
X009914Y020424D01*
X009901Y020469D01*
X009892Y020515D01*
X009887Y020561D01*
X009885Y020607D01*
X011001Y018851D02*
X011001Y010851D01*
X009001Y010851D01*
X009194Y009201D02*
X009394Y009201D01*
X009444Y009151D01*
X009957Y009151D01*
X010007Y009201D01*
X010207Y009201D01*
X010224Y009199D01*
X010241Y009195D01*
X010257Y009188D01*
X010271Y009178D01*
X010284Y009165D01*
X010294Y009151D01*
X010301Y009135D01*
X010305Y009118D01*
X010307Y009101D01*
X010307Y008501D01*
X010305Y008484D01*
X010301Y008467D01*
X010294Y008451D01*
X010284Y008437D01*
X010271Y008424D01*
X010257Y008414D01*
X010241Y008407D01*
X010224Y008403D01*
X010207Y008401D01*
X010007Y008401D01*
X009957Y008451D01*
X009444Y008451D01*
X009394Y008401D01*
X009194Y008401D01*
X009177Y008403D01*
X009160Y008407D01*
X009144Y008414D01*
X009130Y008424D01*
X009117Y008437D01*
X009107Y008451D01*
X009100Y008467D01*
X009096Y008484D01*
X009094Y008501D01*
X009094Y009101D01*
X009096Y009118D01*
X009100Y009135D01*
X009107Y009151D01*
X009117Y009165D01*
X009130Y009178D01*
X009144Y009188D01*
X009160Y009195D01*
X009177Y009199D01*
X009194Y009201D01*
X011001Y010851D02*
X012001Y010851D01*
X012001Y018851D01*
X014285Y017844D02*
X014287Y017890D01*
X014292Y017936D01*
X014301Y017982D01*
X014314Y018027D01*
X014330Y018070D01*
X014349Y018112D01*
X014372Y018153D01*
X014398Y018191D01*
X014427Y018228D01*
X014458Y018262D01*
X014492Y018293D01*
X014529Y018322D01*
X014567Y018348D01*
X014608Y018371D01*
X014650Y018390D01*
X014693Y018406D01*
X014738Y018419D01*
X014784Y018428D01*
X014830Y018433D01*
X014876Y018435D01*
X014922Y018433D01*
X014968Y018428D01*
X015014Y018419D01*
X015059Y018406D01*
X015102Y018390D01*
X015144Y018371D01*
X015185Y018348D01*
X015223Y018322D01*
X015260Y018293D01*
X015294Y018262D01*
X015325Y018228D01*
X015354Y018191D01*
X015380Y018153D01*
X015403Y018112D01*
X015422Y018070D01*
X015438Y018027D01*
X015451Y017982D01*
X015460Y017936D01*
X015465Y017890D01*
X015467Y017844D01*
X014285Y017057D02*
X014287Y017011D01*
X014292Y016965D01*
X014301Y016919D01*
X014314Y016874D01*
X014330Y016831D01*
X014349Y016789D01*
X014372Y016748D01*
X014398Y016710D01*
X014427Y016673D01*
X014458Y016639D01*
X014492Y016608D01*
X014529Y016579D01*
X014567Y016553D01*
X014608Y016530D01*
X014650Y016511D01*
X014693Y016495D01*
X014738Y016482D01*
X014784Y016473D01*
X014830Y016468D01*
X014876Y016466D01*
X014922Y016468D01*
X014968Y016473D01*
X015014Y016482D01*
X015059Y016495D01*
X015102Y016511D01*
X015144Y016530D01*
X015185Y016553D01*
X015223Y016579D01*
X015260Y016608D01*
X015294Y016639D01*
X015325Y016673D01*
X015354Y016710D01*
X015380Y016748D01*
X015403Y016789D01*
X015422Y016831D01*
X015438Y016874D01*
X015451Y016919D01*
X015460Y016965D01*
X015465Y017011D01*
X015467Y017057D01*
X014876Y015935D02*
X014830Y015933D01*
X014784Y015928D01*
X014738Y015919D01*
X014693Y015906D01*
X014650Y015890D01*
X014608Y015871D01*
X014567Y015848D01*
X014529Y015822D01*
X014492Y015793D01*
X014458Y015762D01*
X014427Y015728D01*
X014398Y015691D01*
X014372Y015653D01*
X014349Y015612D01*
X014330Y015570D01*
X014314Y015527D01*
X014301Y015482D01*
X014292Y015436D01*
X014287Y015390D01*
X014285Y015344D01*
X014876Y015935D02*
X014922Y015933D01*
X014968Y015928D01*
X015014Y015919D01*
X015059Y015906D01*
X015102Y015890D01*
X015144Y015871D01*
X015185Y015848D01*
X015223Y015822D01*
X015260Y015793D01*
X015294Y015762D01*
X015325Y015728D01*
X015354Y015691D01*
X015380Y015653D01*
X015403Y015612D01*
X015422Y015570D01*
X015438Y015527D01*
X015451Y015482D01*
X015460Y015436D01*
X015465Y015390D01*
X015467Y015344D01*
X014285Y014557D02*
X014287Y014511D01*
X014292Y014465D01*
X014301Y014419D01*
X014314Y014374D01*
X014330Y014331D01*
X014349Y014289D01*
X014372Y014248D01*
X014398Y014210D01*
X014427Y014173D01*
X014458Y014139D01*
X014492Y014108D01*
X014529Y014079D01*
X014567Y014053D01*
X014608Y014030D01*
X014650Y014011D01*
X014693Y013995D01*
X014738Y013982D01*
X014784Y013973D01*
X014830Y013968D01*
X014876Y013966D01*
X014922Y013968D01*
X014968Y013973D01*
X015014Y013982D01*
X015059Y013995D01*
X015102Y014011D01*
X015144Y014030D01*
X015185Y014053D01*
X015223Y014079D01*
X015260Y014108D01*
X015294Y014139D01*
X015325Y014173D01*
X015354Y014210D01*
X015380Y014248D01*
X015403Y014289D01*
X015422Y014331D01*
X015438Y014374D01*
X015451Y014419D01*
X015460Y014465D01*
X015465Y014511D01*
X015467Y014557D01*
X014876Y013435D02*
X014830Y013433D01*
X014784Y013428D01*
X014738Y013419D01*
X014693Y013406D01*
X014650Y013390D01*
X014608Y013371D01*
X014567Y013348D01*
X014529Y013322D01*
X014492Y013293D01*
X014458Y013262D01*
X014427Y013228D01*
X014398Y013191D01*
X014372Y013153D01*
X014349Y013112D01*
X014330Y013070D01*
X014314Y013027D01*
X014301Y012982D01*
X014292Y012936D01*
X014287Y012890D01*
X014285Y012844D01*
X014876Y013435D02*
X014922Y013433D01*
X014968Y013428D01*
X015014Y013419D01*
X015059Y013406D01*
X015102Y013390D01*
X015144Y013371D01*
X015185Y013348D01*
X015223Y013322D01*
X015260Y013293D01*
X015294Y013262D01*
X015325Y013228D01*
X015354Y013191D01*
X015380Y013153D01*
X015403Y013112D01*
X015422Y013070D01*
X015438Y013027D01*
X015451Y012982D01*
X015460Y012936D01*
X015465Y012890D01*
X015467Y012844D01*
X014285Y012057D02*
X014287Y012011D01*
X014292Y011965D01*
X014301Y011919D01*
X014314Y011874D01*
X014330Y011831D01*
X014349Y011789D01*
X014372Y011748D01*
X014398Y011710D01*
X014427Y011673D01*
X014458Y011639D01*
X014492Y011608D01*
X014529Y011579D01*
X014567Y011553D01*
X014608Y011530D01*
X014650Y011511D01*
X014693Y011495D01*
X014738Y011482D01*
X014784Y011473D01*
X014830Y011468D01*
X014876Y011466D01*
X014922Y011468D01*
X014968Y011473D01*
X015014Y011482D01*
X015059Y011495D01*
X015102Y011511D01*
X015144Y011530D01*
X015185Y011553D01*
X015223Y011579D01*
X015260Y011608D01*
X015294Y011639D01*
X015325Y011673D01*
X015354Y011710D01*
X015380Y011748D01*
X015403Y011789D01*
X015422Y011831D01*
X015438Y011874D01*
X015451Y011919D01*
X015460Y011965D01*
X015465Y012011D01*
X015467Y012057D01*
X014876Y010935D02*
X014830Y010933D01*
X014784Y010928D01*
X014738Y010919D01*
X014693Y010906D01*
X014650Y010890D01*
X014608Y010871D01*
X014567Y010848D01*
X014529Y010822D01*
X014492Y010793D01*
X014458Y010762D01*
X014427Y010728D01*
X014398Y010691D01*
X014372Y010653D01*
X014349Y010612D01*
X014330Y010570D01*
X014314Y010527D01*
X014301Y010482D01*
X014292Y010436D01*
X014287Y010390D01*
X014285Y010344D01*
X014876Y010935D02*
X014922Y010933D01*
X014968Y010928D01*
X015014Y010919D01*
X015059Y010906D01*
X015102Y010890D01*
X015144Y010871D01*
X015185Y010848D01*
X015223Y010822D01*
X015260Y010793D01*
X015294Y010762D01*
X015325Y010728D01*
X015354Y010691D01*
X015380Y010653D01*
X015403Y010612D01*
X015422Y010570D01*
X015438Y010527D01*
X015451Y010482D01*
X015460Y010436D01*
X015465Y010390D01*
X015467Y010344D01*
X014285Y009557D02*
X014287Y009511D01*
X014292Y009465D01*
X014301Y009419D01*
X014314Y009374D01*
X014330Y009331D01*
X014349Y009289D01*
X014372Y009248D01*
X014398Y009210D01*
X014427Y009173D01*
X014458Y009139D01*
X014492Y009108D01*
X014529Y009079D01*
X014567Y009053D01*
X014608Y009030D01*
X014650Y009011D01*
X014693Y008995D01*
X014738Y008982D01*
X014784Y008973D01*
X014830Y008968D01*
X014876Y008966D01*
X014922Y008968D01*
X014968Y008973D01*
X015014Y008982D01*
X015059Y008995D01*
X015102Y009011D01*
X015144Y009030D01*
X015185Y009053D01*
X015223Y009079D01*
X015260Y009108D01*
X015294Y009139D01*
X015325Y009173D01*
X015354Y009210D01*
X015380Y009248D01*
X015403Y009289D01*
X015422Y009331D01*
X015438Y009374D01*
X015451Y009419D01*
X015460Y009465D01*
X015465Y009511D01*
X015467Y009557D01*
X017476Y009269D02*
X017476Y009069D01*
X017478Y009052D01*
X017482Y009035D01*
X017489Y009019D01*
X017499Y009005D01*
X017512Y008992D01*
X017526Y008982D01*
X017542Y008975D01*
X017559Y008971D01*
X017576Y008969D01*
X018176Y008969D01*
X018193Y008971D01*
X018210Y008975D01*
X018226Y008982D01*
X018240Y008992D01*
X018253Y009005D01*
X018263Y009019D01*
X018270Y009035D01*
X018274Y009052D01*
X018276Y009069D01*
X018276Y009269D01*
X018226Y009319D01*
X018226Y009832D01*
X018276Y009882D01*
X018276Y010082D01*
X018274Y010099D01*
X018270Y010116D01*
X018263Y010132D01*
X018253Y010146D01*
X018240Y010159D01*
X018226Y010169D01*
X018210Y010176D01*
X018193Y010180D01*
X018176Y010182D01*
X017576Y010182D01*
X017559Y010180D01*
X017542Y010176D01*
X017526Y010169D01*
X017512Y010159D01*
X017499Y010146D01*
X017489Y010132D01*
X017482Y010116D01*
X017478Y010099D01*
X017476Y010082D01*
X017476Y009882D01*
X017526Y009832D01*
X017526Y009319D01*
X017476Y009269D01*
X020476Y009269D02*
X020476Y009069D01*
X020478Y009052D01*
X020482Y009035D01*
X020489Y009019D01*
X020499Y009005D01*
X020512Y008992D01*
X020526Y008982D01*
X020542Y008975D01*
X020559Y008971D01*
X020576Y008969D01*
X021176Y008969D01*
X021193Y008971D01*
X021210Y008975D01*
X021226Y008982D01*
X021240Y008992D01*
X021253Y009005D01*
X021263Y009019D01*
X021270Y009035D01*
X021274Y009052D01*
X021276Y009069D01*
X021276Y009269D01*
X021226Y009319D01*
X021226Y009832D01*
X021276Y009882D01*
X021276Y010082D01*
X021274Y010099D01*
X021270Y010116D01*
X021263Y010132D01*
X021253Y010146D01*
X021240Y010159D01*
X021226Y010169D01*
X021210Y010176D01*
X021193Y010180D01*
X021176Y010182D01*
X020576Y010182D01*
X020559Y010180D01*
X020542Y010176D01*
X020526Y010169D01*
X020512Y010159D01*
X020499Y010146D01*
X020489Y010132D01*
X020482Y010116D01*
X020478Y010099D01*
X020476Y010082D01*
X020476Y009882D01*
X020526Y009832D01*
X020526Y009319D01*
X020476Y009269D01*
X023476Y009269D02*
X023476Y009069D01*
X023478Y009052D01*
X023482Y009035D01*
X023489Y009019D01*
X023499Y009005D01*
X023512Y008992D01*
X023526Y008982D01*
X023542Y008975D01*
X023559Y008971D01*
X023576Y008969D01*
X024176Y008969D01*
X024193Y008971D01*
X024210Y008975D01*
X024226Y008982D01*
X024240Y008992D01*
X024253Y009005D01*
X024263Y009019D01*
X024270Y009035D01*
X024274Y009052D01*
X024276Y009069D01*
X024276Y009269D01*
X024226Y009319D01*
X024226Y009832D01*
X024276Y009882D01*
X024276Y010082D01*
X024274Y010099D01*
X024270Y010116D01*
X024263Y010132D01*
X024253Y010146D01*
X024240Y010159D01*
X024226Y010169D01*
X024210Y010176D01*
X024193Y010180D01*
X024176Y010182D01*
X023576Y010182D01*
X023559Y010180D01*
X023542Y010176D01*
X023526Y010169D01*
X023512Y010159D01*
X023499Y010146D01*
X023489Y010132D01*
X023482Y010116D01*
X023478Y010099D01*
X023476Y010082D01*
X023476Y009882D01*
X023526Y009832D01*
X023526Y009319D01*
X023476Y009269D01*
X026676Y010169D02*
X026676Y010369D01*
X026726Y010419D01*
X026726Y010932D01*
X026676Y010982D01*
X026676Y011182D01*
X026678Y011199D01*
X026682Y011216D01*
X026689Y011232D01*
X026699Y011246D01*
X026712Y011259D01*
X026726Y011269D01*
X026742Y011276D01*
X026759Y011280D01*
X026776Y011282D01*
X027376Y011282D01*
X027393Y011280D01*
X027410Y011276D01*
X027426Y011269D01*
X027440Y011259D01*
X027453Y011246D01*
X027463Y011232D01*
X027470Y011216D01*
X027474Y011199D01*
X027476Y011182D01*
X027476Y010982D01*
X027426Y010932D01*
X027426Y010419D01*
X027476Y010369D01*
X027476Y010169D01*
X027474Y010152D01*
X027470Y010135D01*
X027463Y010119D01*
X027453Y010105D01*
X027440Y010092D01*
X027426Y010082D01*
X027410Y010075D01*
X027393Y010071D01*
X027376Y010069D01*
X026776Y010069D01*
X026759Y010071D01*
X026742Y010075D01*
X026726Y010082D01*
X026712Y010092D01*
X026699Y010105D01*
X026689Y010119D01*
X026682Y010135D01*
X026678Y010152D01*
X026676Y010169D01*
X024151Y013819D02*
X023551Y013819D01*
X023534Y013821D01*
X023517Y013825D01*
X023501Y013832D01*
X023487Y013842D01*
X023474Y013855D01*
X023464Y013869D01*
X023457Y013885D01*
X023453Y013902D01*
X023451Y013919D01*
X023451Y014119D01*
X023501Y014169D01*
X023501Y014682D01*
X023451Y014732D01*
X023451Y014932D01*
X023453Y014949D01*
X023457Y014966D01*
X023464Y014982D01*
X023474Y014996D01*
X023487Y015009D01*
X023501Y015019D01*
X023517Y015026D01*
X023534Y015030D01*
X023551Y015032D01*
X024151Y015032D01*
X024168Y015030D01*
X024185Y015026D01*
X024201Y015019D01*
X024215Y015009D01*
X024228Y014996D01*
X024238Y014982D01*
X024245Y014966D01*
X024249Y014949D01*
X024251Y014932D01*
X024251Y014732D01*
X024201Y014682D01*
X024201Y014169D01*
X024251Y014119D01*
X024251Y013919D01*
X024249Y013902D01*
X024245Y013885D01*
X024238Y013869D01*
X024228Y013855D01*
X024215Y013842D01*
X024201Y013832D01*
X024185Y013825D01*
X024168Y013821D01*
X024151Y013819D01*
X021301Y013919D02*
X021301Y014119D01*
X021251Y014169D01*
X021251Y014682D01*
X021301Y014732D01*
X021301Y014932D01*
X021299Y014949D01*
X021295Y014966D01*
X021288Y014982D01*
X021278Y014996D01*
X021265Y015009D01*
X021251Y015019D01*
X021235Y015026D01*
X021218Y015030D01*
X021201Y015032D01*
X020601Y015032D01*
X020584Y015030D01*
X020567Y015026D01*
X020551Y015019D01*
X020537Y015009D01*
X020524Y014996D01*
X020514Y014982D01*
X020507Y014966D01*
X020503Y014949D01*
X020501Y014932D01*
X020501Y014732D01*
X020551Y014682D01*
X020551Y014169D01*
X020501Y014119D01*
X020501Y013919D01*
X020503Y013902D01*
X020507Y013885D01*
X020514Y013869D01*
X020524Y013855D01*
X020537Y013842D01*
X020551Y013832D01*
X020567Y013825D01*
X020584Y013821D01*
X020601Y013819D01*
X021201Y013819D01*
X021218Y013821D01*
X021235Y013825D01*
X021251Y013832D01*
X021265Y013842D01*
X021278Y013855D01*
X021288Y013869D01*
X021295Y013885D01*
X021299Y013902D01*
X021301Y013919D01*
X018276Y013919D02*
X018276Y014119D01*
X018226Y014169D01*
X018226Y014682D01*
X018276Y014732D01*
X018276Y014932D01*
X018274Y014949D01*
X018270Y014966D01*
X018263Y014982D01*
X018253Y014996D01*
X018240Y015009D01*
X018226Y015019D01*
X018210Y015026D01*
X018193Y015030D01*
X018176Y015032D01*
X017576Y015032D01*
X017559Y015030D01*
X017542Y015026D01*
X017526Y015019D01*
X017512Y015009D01*
X017499Y014996D01*
X017489Y014982D01*
X017482Y014966D01*
X017478Y014949D01*
X017476Y014932D01*
X017476Y014732D01*
X017526Y014682D01*
X017526Y014169D01*
X017476Y014119D01*
X017476Y013919D01*
X017478Y013902D01*
X017482Y013885D01*
X017489Y013869D01*
X017499Y013855D01*
X017512Y013842D01*
X017526Y013832D01*
X017542Y013825D01*
X017559Y013821D01*
X017576Y013819D01*
X018176Y013819D01*
X018193Y013821D01*
X018210Y013825D01*
X018226Y013832D01*
X018240Y013842D01*
X018253Y013855D01*
X018263Y013869D01*
X018270Y013885D01*
X018274Y013902D01*
X018276Y013919D01*
X018326Y018244D02*
X018926Y018244D01*
X018943Y018246D01*
X018960Y018250D01*
X018976Y018257D01*
X018990Y018267D01*
X019003Y018280D01*
X019013Y018294D01*
X019020Y018310D01*
X019024Y018327D01*
X019026Y018344D01*
X019026Y018544D01*
X018976Y018594D01*
X018976Y019107D01*
X019026Y019157D01*
X019026Y019357D01*
X019024Y019374D01*
X019020Y019391D01*
X019013Y019407D01*
X019003Y019421D01*
X018990Y019434D01*
X018976Y019444D01*
X018960Y019451D01*
X018943Y019455D01*
X018926Y019457D01*
X018326Y019457D01*
X018309Y019455D01*
X018292Y019451D01*
X018276Y019444D01*
X018262Y019434D01*
X018249Y019421D01*
X018239Y019407D01*
X018232Y019391D01*
X018228Y019374D01*
X018226Y019357D01*
X018226Y019157D01*
X018276Y019107D01*
X018276Y018594D01*
X018226Y018544D01*
X018226Y018344D01*
X018228Y018327D01*
X018232Y018310D01*
X018239Y018294D01*
X018249Y018280D01*
X018262Y018267D01*
X018276Y018257D01*
X018292Y018250D01*
X018309Y018246D01*
X018326Y018244D01*
X021326Y018191D02*
X021372Y018193D01*
X021418Y018198D01*
X021464Y018207D01*
X021509Y018220D01*
X021552Y018236D01*
X021594Y018255D01*
X021635Y018278D01*
X021673Y018304D01*
X021710Y018333D01*
X021744Y018364D01*
X021775Y018398D01*
X021804Y018435D01*
X021830Y018473D01*
X021853Y018514D01*
X021872Y018556D01*
X021888Y018599D01*
X021901Y018644D01*
X021910Y018690D01*
X021915Y018736D01*
X021917Y018782D01*
X021326Y018191D02*
X021280Y018193D01*
X021234Y018198D01*
X021188Y018207D01*
X021143Y018220D01*
X021100Y018236D01*
X021058Y018255D01*
X021017Y018278D01*
X020979Y018304D01*
X020942Y018333D01*
X020908Y018364D01*
X020877Y018398D01*
X020848Y018435D01*
X020822Y018473D01*
X020799Y018514D01*
X020780Y018556D01*
X020764Y018599D01*
X020751Y018644D01*
X020742Y018690D01*
X020737Y018736D01*
X020735Y018782D01*
X021917Y019569D02*
X021915Y019615D01*
X021910Y019661D01*
X021901Y019707D01*
X021888Y019752D01*
X021872Y019795D01*
X021853Y019837D01*
X021830Y019878D01*
X021804Y019916D01*
X021775Y019953D01*
X021744Y019987D01*
X021710Y020018D01*
X021673Y020047D01*
X021635Y020073D01*
X021594Y020096D01*
X021552Y020115D01*
X021509Y020131D01*
X021464Y020144D01*
X021418Y020153D01*
X021372Y020158D01*
X021326Y020160D01*
X021280Y020158D01*
X021234Y020153D01*
X021188Y020144D01*
X021143Y020131D01*
X021100Y020115D01*
X021058Y020096D01*
X021017Y020073D01*
X020979Y020047D01*
X020942Y020018D01*
X020908Y019987D01*
X020877Y019953D01*
X020848Y019916D01*
X020822Y019878D01*
X020799Y019837D01*
X020780Y019795D01*
X020764Y019752D01*
X020751Y019707D01*
X020742Y019661D01*
X020737Y019615D01*
X020735Y019569D01*
X023311Y019326D02*
X023313Y019396D01*
X023319Y019466D01*
X023329Y019536D01*
X023343Y019604D01*
X023360Y019672D01*
X023382Y019739D01*
X023407Y019805D01*
X023436Y019869D01*
X023468Y019931D01*
X023504Y019991D01*
X023544Y020049D01*
X023586Y020105D01*
X023632Y020158D01*
X023680Y020209D01*
X023732Y020257D01*
X023786Y020302D01*
X023842Y020343D01*
X023901Y020382D01*
X023962Y020417D01*
X024024Y020449D01*
X024089Y020477D01*
X024154Y020501D01*
X024222Y020521D01*
X024290Y020538D01*
X024359Y020551D01*
X024428Y020560D01*
X024498Y020565D01*
X024569Y020566D01*
X024639Y020563D01*
X024709Y020556D01*
X024778Y020545D01*
X024846Y020530D01*
X024914Y020512D01*
X024981Y020489D01*
X025046Y020463D01*
X025109Y020433D01*
X025171Y020400D01*
X025231Y020363D01*
X025288Y020323D01*
X025344Y020280D01*
X025396Y020233D01*
X025446Y020184D01*
X025493Y020132D01*
X025537Y020077D01*
X025578Y020020D01*
X025616Y019961D01*
X025650Y019900D01*
X025681Y019837D01*
X025708Y019772D01*
X025731Y019706D01*
X025751Y019638D01*
X025767Y019570D01*
X025779Y019501D01*
X025787Y019431D01*
X025791Y019361D01*
X025791Y019291D01*
X025787Y019221D01*
X025779Y019151D01*
X025767Y019082D01*
X025751Y019014D01*
X025731Y018946D01*
X025708Y018880D01*
X025681Y018815D01*
X025650Y018752D01*
X025616Y018691D01*
X025578Y018632D01*
X025537Y018575D01*
X025493Y018520D01*
X025446Y018468D01*
X025396Y018419D01*
X025344Y018372D01*
X025288Y018329D01*
X025231Y018289D01*
X025171Y018252D01*
X025109Y018219D01*
X025046Y018189D01*
X024981Y018163D01*
X024914Y018140D01*
X024846Y018122D01*
X024778Y018107D01*
X024709Y018096D01*
X024639Y018089D01*
X024569Y018086D01*
X024498Y018087D01*
X024428Y018092D01*
X024359Y018101D01*
X024290Y018114D01*
X024222Y018131D01*
X024154Y018151D01*
X024089Y018175D01*
X024024Y018203D01*
X023962Y018235D01*
X023901Y018270D01*
X023842Y018309D01*
X023786Y018350D01*
X023732Y018395D01*
X023680Y018443D01*
X023632Y018494D01*
X023586Y018547D01*
X023544Y018603D01*
X023504Y018661D01*
X023468Y018721D01*
X023436Y018783D01*
X023407Y018847D01*
X023382Y018913D01*
X023360Y018980D01*
X023343Y019048D01*
X023329Y019116D01*
X023319Y019186D01*
X023313Y019256D01*
X023311Y019326D01*
X024961Y019776D02*
X025211Y019776D01*
X025091Y019646D02*
X025091Y019906D01*
X027576Y020001D02*
X027576Y019801D01*
X027776Y019801D01*
X028576Y019801D02*
X028776Y019801D01*
X028776Y020001D01*
X028776Y020801D02*
X028776Y021001D01*
X028576Y021001D01*
X027776Y021001D02*
X027576Y021001D01*
X027576Y020801D01*
X027576Y021801D02*
X027576Y022001D01*
X027576Y021801D02*
X027776Y021801D01*
X028576Y021801D02*
X028776Y021801D01*
X028776Y022001D01*
X028776Y022801D02*
X028776Y023001D01*
X028576Y023001D01*
X027776Y023001D02*
X027576Y023001D01*
X027576Y022801D01*
X027576Y025301D02*
X027576Y025501D01*
X027576Y025301D02*
X027776Y025301D01*
X028576Y025301D02*
X028776Y025301D01*
X028776Y025501D01*
X028776Y026301D02*
X028776Y026501D01*
X028576Y026501D01*
X028576Y027301D02*
X028776Y027301D01*
X028776Y027501D01*
X028776Y028301D02*
X028776Y028501D01*
X028576Y028501D01*
X027776Y028501D02*
X027576Y028501D01*
X027576Y028301D01*
X027576Y027501D02*
X027576Y027301D01*
X027776Y027301D01*
X027776Y026501D02*
X027576Y026501D01*
X027576Y026301D01*
X025201Y024276D02*
X019201Y024276D01*
X019201Y030276D01*
X025201Y030276D01*
X025201Y024276D01*
X022445Y023923D02*
X022445Y023849D01*
X022372Y023776D01*
X022445Y023703D01*
X022445Y023629D01*
X022372Y023556D01*
X022225Y023556D01*
X022151Y023629D01*
X021985Y023556D02*
X021985Y023996D01*
X022151Y023923D02*
X022225Y023996D01*
X022372Y023996D01*
X022445Y023923D01*
X022372Y023776D02*
X022298Y023776D01*
X021985Y023556D02*
X021838Y023703D01*
X021691Y023556D01*
X021691Y023996D01*
X021524Y023923D02*
X021451Y023996D01*
X021304Y023996D01*
X021231Y023923D01*
X021231Y023849D01*
X021304Y023776D01*
X021451Y023776D01*
X021524Y023703D01*
X021524Y023629D01*
X021451Y023556D01*
X021304Y023556D01*
X021231Y023629D01*
X027576Y019001D02*
X027576Y018801D01*
X027576Y019001D02*
X027776Y019001D01*
X028576Y019001D02*
X028776Y019001D01*
X028776Y018801D01*
X028776Y018001D02*
X028776Y017801D01*
X028576Y017801D01*
X027776Y017801D02*
X027576Y017801D01*
X027576Y018001D01*
X019016Y004531D02*
X019016Y004271D01*
X019136Y004401D02*
X018886Y004401D01*
X017236Y003951D02*
X017238Y004021D01*
X017244Y004091D01*
X017254Y004161D01*
X017268Y004229D01*
X017285Y004297D01*
X017307Y004364D01*
X017332Y004430D01*
X017361Y004494D01*
X017393Y004556D01*
X017429Y004616D01*
X017469Y004674D01*
X017511Y004730D01*
X017557Y004783D01*
X017605Y004834D01*
X017657Y004882D01*
X017711Y004927D01*
X017767Y004968D01*
X017826Y005007D01*
X017887Y005042D01*
X017949Y005074D01*
X018014Y005102D01*
X018079Y005126D01*
X018147Y005146D01*
X018215Y005163D01*
X018284Y005176D01*
X018353Y005185D01*
X018423Y005190D01*
X018494Y005191D01*
X018564Y005188D01*
X018634Y005181D01*
X018703Y005170D01*
X018771Y005155D01*
X018839Y005137D01*
X018906Y005114D01*
X018971Y005088D01*
X019034Y005058D01*
X019096Y005025D01*
X019156Y004988D01*
X019213Y004948D01*
X019269Y004905D01*
X019321Y004858D01*
X019371Y004809D01*
X019418Y004757D01*
X019462Y004702D01*
X019503Y004645D01*
X019541Y004586D01*
X019575Y004525D01*
X019606Y004462D01*
X019633Y004397D01*
X019656Y004331D01*
X019676Y004263D01*
X019692Y004195D01*
X019704Y004126D01*
X019712Y004056D01*
X019716Y003986D01*
X019716Y003916D01*
X019712Y003846D01*
X019704Y003776D01*
X019692Y003707D01*
X019676Y003639D01*
X019656Y003571D01*
X019633Y003505D01*
X019606Y003440D01*
X019575Y003377D01*
X019541Y003316D01*
X019503Y003257D01*
X019462Y003200D01*
X019418Y003145D01*
X019371Y003093D01*
X019321Y003044D01*
X019269Y002997D01*
X019213Y002954D01*
X019156Y002914D01*
X019096Y002877D01*
X019034Y002844D01*
X018971Y002814D01*
X018906Y002788D01*
X018839Y002765D01*
X018771Y002747D01*
X018703Y002732D01*
X018634Y002721D01*
X018564Y002714D01*
X018494Y002711D01*
X018423Y002712D01*
X018353Y002717D01*
X018284Y002726D01*
X018215Y002739D01*
X018147Y002756D01*
X018079Y002776D01*
X018014Y002800D01*
X017949Y002828D01*
X017887Y002860D01*
X017826Y002895D01*
X017767Y002934D01*
X017711Y002975D01*
X017657Y003020D01*
X017605Y003068D01*
X017557Y003119D01*
X017511Y003172D01*
X017469Y003228D01*
X017429Y003286D01*
X017393Y003346D01*
X017361Y003408D01*
X017332Y003472D01*
X017307Y003538D01*
X017285Y003605D01*
X017268Y003673D01*
X017254Y003741D01*
X017244Y003811D01*
X017238Y003881D01*
X017236Y003951D01*
X015676Y003091D02*
X015630Y003093D01*
X015584Y003098D01*
X015538Y003107D01*
X015493Y003120D01*
X015450Y003136D01*
X015408Y003155D01*
X015367Y003178D01*
X015329Y003204D01*
X015292Y003233D01*
X015258Y003264D01*
X015227Y003298D01*
X015198Y003335D01*
X015172Y003373D01*
X015149Y003414D01*
X015130Y003456D01*
X015114Y003499D01*
X015101Y003544D01*
X015092Y003590D01*
X015087Y003636D01*
X015085Y003682D01*
X015676Y003091D02*
X015722Y003093D01*
X015768Y003098D01*
X015814Y003107D01*
X015859Y003120D01*
X015902Y003136D01*
X015944Y003155D01*
X015985Y003178D01*
X016023Y003204D01*
X016060Y003233D01*
X016094Y003264D01*
X016125Y003298D01*
X016154Y003335D01*
X016180Y003373D01*
X016203Y003414D01*
X016222Y003456D01*
X016238Y003499D01*
X016251Y003544D01*
X016260Y003590D01*
X016265Y003636D01*
X016267Y003682D01*
X015085Y004469D02*
X015087Y004515D01*
X015092Y004561D01*
X015101Y004607D01*
X015114Y004652D01*
X015130Y004695D01*
X015149Y004737D01*
X015172Y004778D01*
X015198Y004816D01*
X015227Y004853D01*
X015258Y004887D01*
X015292Y004918D01*
X015329Y004947D01*
X015367Y004973D01*
X015408Y004996D01*
X015450Y005015D01*
X015493Y005031D01*
X015538Y005044D01*
X015584Y005053D01*
X015630Y005058D01*
X015676Y005060D01*
X015722Y005058D01*
X015768Y005053D01*
X015814Y005044D01*
X015859Y005031D01*
X015902Y005015D01*
X015944Y004996D01*
X015985Y004973D01*
X016023Y004947D01*
X016060Y004918D01*
X016094Y004887D01*
X016125Y004853D01*
X016154Y004816D01*
X016180Y004778D01*
X016203Y004737D01*
X016222Y004695D01*
X016238Y004652D01*
X016251Y004607D01*
X016260Y004561D01*
X016265Y004515D01*
X016267Y004469D01*
X013492Y004469D02*
X013490Y004515D01*
X013485Y004561D01*
X013476Y004607D01*
X013463Y004652D01*
X013447Y004695D01*
X013428Y004737D01*
X013405Y004778D01*
X013379Y004816D01*
X013350Y004853D01*
X013319Y004887D01*
X013285Y004918D01*
X013248Y004947D01*
X013210Y004973D01*
X013169Y004996D01*
X013127Y005015D01*
X013084Y005031D01*
X013039Y005044D01*
X012993Y005053D01*
X012947Y005058D01*
X012901Y005060D01*
X012855Y005058D01*
X012809Y005053D01*
X012763Y005044D01*
X012718Y005031D01*
X012675Y005015D01*
X012633Y004996D01*
X012592Y004973D01*
X012554Y004947D01*
X012517Y004918D01*
X012483Y004887D01*
X012452Y004853D01*
X012423Y004816D01*
X012397Y004778D01*
X012374Y004737D01*
X012355Y004695D01*
X012339Y004652D01*
X012326Y004607D01*
X012317Y004561D01*
X012312Y004515D01*
X012310Y004469D01*
X013492Y003682D02*
X013490Y003636D01*
X013485Y003590D01*
X013476Y003544D01*
X013463Y003499D01*
X013447Y003456D01*
X013428Y003414D01*
X013405Y003373D01*
X013379Y003335D01*
X013350Y003298D01*
X013319Y003264D01*
X013285Y003233D01*
X013248Y003204D01*
X013210Y003178D01*
X013169Y003155D01*
X013127Y003136D01*
X013084Y003120D01*
X013039Y003107D01*
X012993Y003098D01*
X012947Y003093D01*
X012901Y003091D01*
X012855Y003093D01*
X012809Y003098D01*
X012763Y003107D01*
X012718Y003120D01*
X012675Y003136D01*
X012633Y003155D01*
X012592Y003178D01*
X012554Y003204D01*
X012517Y003233D01*
X012483Y003264D01*
X012452Y003298D01*
X012423Y003335D01*
X012397Y003373D01*
X012374Y003414D01*
X012355Y003456D01*
X012339Y003499D01*
X012326Y003544D01*
X012317Y003590D01*
X012312Y003636D01*
X012310Y003682D01*
X010776Y003769D02*
X010776Y003569D01*
X010774Y003552D01*
X010770Y003535D01*
X010763Y003519D01*
X010753Y003505D01*
X010740Y003492D01*
X010726Y003482D01*
X010710Y003475D01*
X010693Y003471D01*
X010676Y003469D01*
X010076Y003469D01*
X010059Y003471D01*
X010042Y003475D01*
X010026Y003482D01*
X010012Y003492D01*
X009999Y003505D01*
X009989Y003519D01*
X009982Y003535D01*
X009978Y003552D01*
X009976Y003569D01*
X009976Y003769D01*
X010026Y003819D01*
X010026Y004332D01*
X009976Y004382D01*
X009976Y004582D01*
X009978Y004599D01*
X009982Y004616D01*
X009989Y004632D01*
X009999Y004646D01*
X010012Y004659D01*
X010026Y004669D01*
X010042Y004676D01*
X010059Y004680D01*
X010076Y004682D01*
X010676Y004682D01*
X010693Y004680D01*
X010710Y004676D01*
X010726Y004669D01*
X010740Y004659D01*
X010753Y004646D01*
X010763Y004632D01*
X010770Y004616D01*
X010774Y004599D01*
X010776Y004582D01*
X010776Y004382D01*
X010726Y004332D01*
X010726Y003819D01*
X010776Y003769D01*
X006401Y008966D02*
X006355Y008968D01*
X006309Y008973D01*
X006263Y008982D01*
X006218Y008995D01*
X006175Y009011D01*
X006133Y009030D01*
X006092Y009053D01*
X006054Y009079D01*
X006017Y009108D01*
X005983Y009139D01*
X005952Y009173D01*
X005923Y009210D01*
X005897Y009248D01*
X005874Y009289D01*
X005855Y009331D01*
X005839Y009374D01*
X005826Y009419D01*
X005817Y009465D01*
X005812Y009511D01*
X005810Y009557D01*
X006401Y008966D02*
X006447Y008968D01*
X006493Y008973D01*
X006539Y008982D01*
X006584Y008995D01*
X006627Y009011D01*
X006669Y009030D01*
X006710Y009053D01*
X006748Y009079D01*
X006785Y009108D01*
X006819Y009139D01*
X006850Y009173D01*
X006879Y009210D01*
X006905Y009248D01*
X006928Y009289D01*
X006947Y009331D01*
X006963Y009374D01*
X006976Y009419D01*
X006985Y009465D01*
X006990Y009511D01*
X006992Y009557D01*
X005810Y010344D02*
X005812Y010390D01*
X005817Y010436D01*
X005826Y010482D01*
X005839Y010527D01*
X005855Y010570D01*
X005874Y010612D01*
X005897Y010653D01*
X005923Y010691D01*
X005952Y010728D01*
X005983Y010762D01*
X006017Y010793D01*
X006054Y010822D01*
X006092Y010848D01*
X006133Y010871D01*
X006175Y010890D01*
X006218Y010906D01*
X006263Y010919D01*
X006309Y010928D01*
X006355Y010933D01*
X006401Y010935D01*
X006447Y010933D01*
X006493Y010928D01*
X006539Y010919D01*
X006584Y010906D01*
X006627Y010890D01*
X006669Y010871D01*
X006710Y010848D01*
X006748Y010822D01*
X006785Y010793D01*
X006819Y010762D01*
X006850Y010728D01*
X006879Y010691D01*
X006905Y010653D01*
X006928Y010612D01*
X006947Y010570D01*
X006963Y010527D01*
X006976Y010482D01*
X006985Y010436D01*
X006990Y010390D01*
X006992Y010344D01*
X006401Y012466D02*
X006447Y012468D01*
X006493Y012473D01*
X006539Y012482D01*
X006584Y012495D01*
X006627Y012511D01*
X006669Y012530D01*
X006710Y012553D01*
X006748Y012579D01*
X006785Y012608D01*
X006819Y012639D01*
X006850Y012673D01*
X006879Y012710D01*
X006905Y012748D01*
X006928Y012789D01*
X006947Y012831D01*
X006963Y012874D01*
X006976Y012919D01*
X006985Y012965D01*
X006990Y013011D01*
X006992Y013057D01*
X006401Y012466D02*
X006355Y012468D01*
X006309Y012473D01*
X006263Y012482D01*
X006218Y012495D01*
X006175Y012511D01*
X006133Y012530D01*
X006092Y012553D01*
X006054Y012579D01*
X006017Y012608D01*
X005983Y012639D01*
X005952Y012673D01*
X005923Y012710D01*
X005897Y012748D01*
X005874Y012789D01*
X005855Y012831D01*
X005839Y012874D01*
X005826Y012919D01*
X005817Y012965D01*
X005812Y013011D01*
X005810Y013057D01*
X006992Y013844D02*
X006990Y013890D01*
X006985Y013936D01*
X006976Y013982D01*
X006963Y014027D01*
X006947Y014070D01*
X006928Y014112D01*
X006905Y014153D01*
X006879Y014191D01*
X006850Y014228D01*
X006819Y014262D01*
X006785Y014293D01*
X006748Y014322D01*
X006710Y014348D01*
X006669Y014371D01*
X006627Y014390D01*
X006584Y014406D01*
X006539Y014419D01*
X006493Y014428D01*
X006447Y014433D01*
X006401Y014435D01*
X006355Y014433D01*
X006309Y014428D01*
X006263Y014419D01*
X006218Y014406D01*
X006175Y014390D01*
X006133Y014371D01*
X006092Y014348D01*
X006054Y014322D01*
X006017Y014293D01*
X005983Y014262D01*
X005952Y014228D01*
X005923Y014191D01*
X005897Y014153D01*
X005874Y014112D01*
X005855Y014070D01*
X005839Y014027D01*
X005826Y013982D01*
X005817Y013936D01*
X005812Y013890D01*
X005810Y013844D01*
X003457Y011651D02*
X003457Y011051D01*
X003455Y011034D01*
X003451Y011017D01*
X003444Y011001D01*
X003434Y010987D01*
X003421Y010974D01*
X003407Y010964D01*
X003391Y010957D01*
X003374Y010953D01*
X003357Y010951D01*
X003157Y010951D01*
X003107Y011001D01*
X002594Y011001D01*
X002544Y010951D01*
X002344Y010951D01*
X002327Y010953D01*
X002310Y010957D01*
X002294Y010964D01*
X002280Y010974D01*
X002267Y010987D01*
X002257Y011001D01*
X002250Y011017D01*
X002246Y011034D01*
X002244Y011051D01*
X002244Y011651D01*
X002246Y011668D01*
X002250Y011685D01*
X002257Y011701D01*
X002267Y011715D01*
X002280Y011728D01*
X002294Y011738D01*
X002310Y011745D01*
X002327Y011749D01*
X002344Y011751D01*
X002544Y011751D01*
X002594Y011701D01*
X003107Y011701D01*
X003157Y011751D01*
X003357Y011751D01*
X003374Y011749D01*
X003391Y011745D01*
X003407Y011738D01*
X003421Y011728D01*
X003434Y011715D01*
X003444Y011701D01*
X003451Y011685D01*
X003455Y011668D01*
X003457Y011651D01*
X001351Y013851D02*
X001353Y013914D01*
X001359Y013976D01*
X001369Y014038D01*
X001382Y014100D01*
X001400Y014160D01*
X001421Y014219D01*
X001446Y014277D01*
X001475Y014333D01*
X001507Y014387D01*
X001542Y014439D01*
X001580Y014488D01*
X001622Y014536D01*
X001666Y014580D01*
X001714Y014622D01*
X001763Y014660D01*
X001815Y014695D01*
X001869Y014727D01*
X001925Y014756D01*
X001983Y014781D01*
X002042Y014802D01*
X002102Y014820D01*
X002164Y014833D01*
X002226Y014843D01*
X002288Y014849D01*
X002351Y014851D01*
X002414Y014849D01*
X002476Y014843D01*
X002538Y014833D01*
X002600Y014820D01*
X002660Y014802D01*
X002719Y014781D01*
X002777Y014756D01*
X002833Y014727D01*
X002887Y014695D01*
X002939Y014660D01*
X002988Y014622D01*
X003036Y014580D01*
X003080Y014536D01*
X003122Y014488D01*
X003160Y014439D01*
X003195Y014387D01*
X003227Y014333D01*
X003256Y014277D01*
X003281Y014219D01*
X003302Y014160D01*
X003320Y014100D01*
X003333Y014038D01*
X003343Y013976D01*
X003349Y013914D01*
X003351Y013851D01*
X003349Y013788D01*
X003343Y013726D01*
X003333Y013664D01*
X003320Y013602D01*
X003302Y013542D01*
X003281Y013483D01*
X003256Y013425D01*
X003227Y013369D01*
X003195Y013315D01*
X003160Y013263D01*
X003122Y013214D01*
X003080Y013166D01*
X003036Y013122D01*
X002988Y013080D01*
X002939Y013042D01*
X002887Y013007D01*
X002833Y012975D01*
X002777Y012946D01*
X002719Y012921D01*
X002660Y012900D01*
X002600Y012882D01*
X002538Y012869D01*
X002476Y012859D01*
X002414Y012853D01*
X002351Y012851D01*
X002288Y012853D01*
X002226Y012859D01*
X002164Y012869D01*
X002102Y012882D01*
X002042Y012900D01*
X001983Y012921D01*
X001925Y012946D01*
X001869Y012975D01*
X001815Y013007D01*
X001763Y013042D01*
X001714Y013080D01*
X001666Y013122D01*
X001622Y013166D01*
X001580Y013214D01*
X001542Y013263D01*
X001507Y013315D01*
X001475Y013369D01*
X001446Y013425D01*
X001421Y013483D01*
X001400Y013542D01*
X001382Y013602D01*
X001369Y013664D01*
X001359Y013726D01*
X001353Y013788D01*
X001351Y013851D01*
X010426Y029701D02*
X010428Y029764D01*
X010434Y029826D01*
X010444Y029888D01*
X010457Y029950D01*
X010475Y030010D01*
X010496Y030069D01*
X010521Y030127D01*
X010550Y030183D01*
X010582Y030237D01*
X010617Y030289D01*
X010655Y030338D01*
X010697Y030386D01*
X010741Y030430D01*
X010789Y030472D01*
X010838Y030510D01*
X010890Y030545D01*
X010944Y030577D01*
X011000Y030606D01*
X011058Y030631D01*
X011117Y030652D01*
X011177Y030670D01*
X011239Y030683D01*
X011301Y030693D01*
X011363Y030699D01*
X011426Y030701D01*
X011489Y030699D01*
X011551Y030693D01*
X011613Y030683D01*
X011675Y030670D01*
X011735Y030652D01*
X011794Y030631D01*
X011852Y030606D01*
X011908Y030577D01*
X011962Y030545D01*
X012014Y030510D01*
X012063Y030472D01*
X012111Y030430D01*
X012155Y030386D01*
X012197Y030338D01*
X012235Y030289D01*
X012270Y030237D01*
X012302Y030183D01*
X012331Y030127D01*
X012356Y030069D01*
X012377Y030010D01*
X012395Y029950D01*
X012408Y029888D01*
X012418Y029826D01*
X012424Y029764D01*
X012426Y029701D01*
X012424Y029638D01*
X012418Y029576D01*
X012408Y029514D01*
X012395Y029452D01*
X012377Y029392D01*
X012356Y029333D01*
X012331Y029275D01*
X012302Y029219D01*
X012270Y029165D01*
X012235Y029113D01*
X012197Y029064D01*
X012155Y029016D01*
X012111Y028972D01*
X012063Y028930D01*
X012014Y028892D01*
X011962Y028857D01*
X011908Y028825D01*
X011852Y028796D01*
X011794Y028771D01*
X011735Y028750D01*
X011675Y028732D01*
X011613Y028719D01*
X011551Y028709D01*
X011489Y028703D01*
X011426Y028701D01*
X011363Y028703D01*
X011301Y028709D01*
X011239Y028719D01*
X011177Y028732D01*
X011117Y028750D01*
X011058Y028771D01*
X011000Y028796D01*
X010944Y028825D01*
X010890Y028857D01*
X010838Y028892D01*
X010789Y028930D01*
X010741Y028972D01*
X010697Y029016D01*
X010655Y029064D01*
X010617Y029113D01*
X010582Y029165D01*
X010550Y029219D01*
X010521Y029275D01*
X010496Y029333D01*
X010475Y029392D01*
X010457Y029452D01*
X010444Y029514D01*
X010434Y029576D01*
X010428Y029638D01*
X010426Y029701D01*
D12*
X001651Y018763D02*
X001651Y018576D01*
X001651Y018670D02*
X001371Y018670D01*
X001464Y018576D01*
X001464Y017013D02*
X001417Y017013D01*
X001371Y016966D01*
X001371Y016873D01*
X001417Y016826D01*
X001464Y017013D02*
X001651Y016826D01*
X001651Y017013D01*
X028796Y016244D02*
X029156Y016244D01*
X029156Y016124D02*
X029156Y016364D01*
X028916Y016124D02*
X028796Y016244D01*
X028796Y015876D02*
X029156Y015876D01*
X029156Y015756D02*
X029156Y015996D01*
X028916Y015756D02*
X028796Y015876D01*
X028856Y015628D02*
X029096Y015387D01*
X029156Y015447D01*
X029156Y015567D01*
X029096Y015628D01*
X028856Y015628D01*
X028796Y015567D01*
X028796Y015447D01*
X028856Y015387D01*
X029096Y015387D01*
X029156Y015259D02*
X029156Y015019D01*
X028916Y015259D01*
X028856Y015259D01*
X028796Y015199D01*
X028796Y015079D01*
X028856Y015019D01*
X028976Y014891D02*
X028976Y014651D01*
X028916Y014523D02*
X028856Y014523D01*
X028796Y014463D01*
X028796Y014342D01*
X028856Y014282D01*
X028856Y014154D02*
X029096Y013914D01*
X029156Y013974D01*
X029156Y014094D01*
X029096Y014154D01*
X028856Y014154D01*
X028796Y014094D01*
X028796Y013974D01*
X028856Y013914D01*
X029096Y013914D01*
X028916Y013786D02*
X029156Y013666D01*
X028916Y013546D01*
X029156Y014282D02*
X028916Y014523D01*
X029156Y014523D02*
X029156Y014282D01*
D13*
X021916Y018782D02*
X021916Y019569D01*
X020735Y019569D02*
X020735Y018782D01*
X017466Y022807D02*
X017466Y023594D01*
X016285Y023594D02*
X016285Y022807D01*
X015466Y017844D02*
X015466Y017057D01*
X014285Y017057D02*
X014285Y017844D01*
X014285Y015344D02*
X014285Y014557D01*
X015466Y014557D02*
X015466Y015344D01*
X015466Y012844D02*
X015466Y012057D01*
X014285Y012057D02*
X014285Y012844D01*
X014285Y010344D02*
X014285Y009557D01*
X015466Y009557D02*
X015466Y010344D01*
X015085Y004469D02*
X015085Y003682D01*
X016266Y003682D02*
X016266Y004469D01*
X013491Y004469D02*
X013491Y003682D01*
X012310Y003682D02*
X012310Y004469D01*
X006991Y009557D02*
X006991Y010344D01*
X005810Y010344D02*
X005810Y009557D01*
X003101Y012851D02*
X001601Y012851D01*
X005810Y013057D02*
X005810Y013844D01*
X006991Y013844D02*
X006991Y013057D01*
X009885Y020607D02*
X009885Y021394D01*
X011066Y021394D02*
X011066Y020607D01*
X012426Y028951D02*
X012426Y030451D01*
D14*
X012458Y030481D02*
X012386Y030427D01*
X012387Y030428D02*
X012344Y030481D01*
X012299Y030532D01*
X012250Y030580D01*
X012199Y030625D01*
X012145Y030668D01*
X012089Y030707D01*
X012031Y030743D01*
X011971Y030776D01*
X011910Y030805D01*
X011846Y030830D01*
X011782Y030852D01*
X011716Y030871D01*
X011649Y030885D01*
X011582Y030896D01*
X011514Y030903D01*
X011446Y030906D01*
X011377Y030905D01*
X011309Y030900D01*
X011241Y030892D01*
X011174Y030879D01*
X011108Y030863D01*
X011043Y030843D01*
X010978Y030820D01*
X010916Y030793D01*
X010855Y030762D01*
X010796Y030728D01*
X010738Y030691D01*
X010683Y030650D01*
X010631Y030606D01*
X010581Y030560D01*
X010534Y030511D01*
X010489Y030459D01*
X010448Y030405D01*
X010409Y030348D01*
X010374Y030289D01*
X010343Y030229D01*
X010315Y030167D01*
X010290Y030103D01*
X010269Y030038D01*
X010252Y029972D01*
X010238Y029905D01*
X010229Y029837D01*
X010223Y029769D01*
X010221Y029701D01*
X010223Y029633D01*
X010229Y029565D01*
X010238Y029497D01*
X010252Y029430D01*
X010269Y029364D01*
X010290Y029299D01*
X010315Y029235D01*
X010343Y029173D01*
X010374Y029113D01*
X010409Y029054D01*
X010448Y028997D01*
X010489Y028943D01*
X010534Y028891D01*
X010581Y028842D01*
X010631Y028796D01*
X010683Y028752D01*
X010738Y028711D01*
X010796Y028674D01*
X010855Y028640D01*
X010916Y028609D01*
X010978Y028582D01*
X011043Y028559D01*
X011108Y028539D01*
X011174Y028523D01*
X011241Y028510D01*
X011309Y028502D01*
X011377Y028497D01*
X011446Y028496D01*
X011514Y028499D01*
X011582Y028506D01*
X011649Y028517D01*
X011716Y028531D01*
X011782Y028550D01*
X011846Y028572D01*
X011910Y028597D01*
X011971Y028626D01*
X012031Y028659D01*
X012089Y028695D01*
X012145Y028734D01*
X012199Y028777D01*
X012250Y028822D01*
X012299Y028870D01*
X012344Y028921D01*
X012387Y028974D01*
X012458Y028921D01*
X012459Y028920D01*
X012415Y028865D01*
X012367Y028812D01*
X012317Y028761D01*
X012264Y028714D01*
X012209Y028670D01*
X012151Y028628D01*
X012091Y028590D01*
X012030Y028555D01*
X011966Y028524D01*
X011901Y028496D01*
X011834Y028472D01*
X011766Y028451D01*
X011697Y028435D01*
X011627Y028422D01*
X011557Y028413D01*
X011486Y028407D01*
X011415Y028406D01*
X011344Y028409D01*
X011273Y028415D01*
X011203Y028425D01*
X011134Y028439D01*
X011065Y028457D01*
X010997Y028479D01*
X010931Y028504D01*
X010866Y028533D01*
X010803Y028566D01*
X010742Y028602D01*
X010683Y028641D01*
X010626Y028683D01*
X010571Y028728D01*
X010519Y028777D01*
X010470Y028828D01*
X010423Y028881D01*
X010380Y028938D01*
X010340Y028996D01*
X010303Y029057D01*
X010269Y029119D01*
X010239Y029183D01*
X010212Y029249D01*
X010189Y029316D01*
X010170Y029385D01*
X010155Y029454D01*
X010143Y029524D01*
X010135Y029595D01*
X010131Y029666D01*
X010131Y029736D01*
X010135Y029807D01*
X010143Y029878D01*
X010155Y029948D01*
X010170Y030017D01*
X010189Y030086D01*
X010212Y030153D01*
X010239Y030219D01*
X010269Y030283D01*
X010303Y030345D01*
X010340Y030406D01*
X010380Y030464D01*
X010423Y030521D01*
X010470Y030574D01*
X010519Y030625D01*
X010571Y030674D01*
X010626Y030719D01*
X010683Y030761D01*
X010742Y030800D01*
X010803Y030836D01*
X010866Y030869D01*
X010931Y030898D01*
X010997Y030923D01*
X011065Y030945D01*
X011134Y030963D01*
X011203Y030977D01*
X011273Y030987D01*
X011344Y030993D01*
X011415Y030996D01*
X011486Y030995D01*
X011557Y030989D01*
X011627Y030980D01*
X011697Y030967D01*
X011766Y030951D01*
X011834Y030930D01*
X011901Y030906D01*
X011966Y030878D01*
X012030Y030847D01*
X012091Y030812D01*
X012151Y030774D01*
X012209Y030732D01*
X012264Y030688D01*
X012317Y030641D01*
X012367Y030590D01*
X012415Y030537D01*
X012459Y030482D01*
X012452Y030477D01*
X012407Y030532D01*
X012360Y030585D01*
X012309Y030636D01*
X012256Y030683D01*
X012200Y030728D01*
X012142Y030769D01*
X012082Y030807D01*
X012020Y030842D01*
X011956Y030873D01*
X011890Y030900D01*
X011823Y030924D01*
X011754Y030944D01*
X011685Y030961D01*
X011615Y030973D01*
X011544Y030982D01*
X011473Y030986D01*
X011402Y030987D01*
X011331Y030983D01*
X011260Y030976D01*
X011189Y030965D01*
X011120Y030950D01*
X011051Y030931D01*
X010983Y030908D01*
X010917Y030882D01*
X010852Y030852D01*
X010790Y030818D01*
X010729Y030782D01*
X010670Y030741D01*
X010613Y030698D01*
X010559Y030651D01*
X010508Y030602D01*
X010460Y030549D01*
X010414Y030495D01*
X010372Y030437D01*
X010333Y030378D01*
X010297Y030316D01*
X010264Y030253D01*
X010236Y030188D01*
X010210Y030121D01*
X010189Y030053D01*
X010171Y029984D01*
X010158Y029914D01*
X010148Y029843D01*
X010142Y029772D01*
X010140Y029701D01*
X010142Y029630D01*
X010148Y029559D01*
X010158Y029488D01*
X010171Y029418D01*
X010189Y029349D01*
X010210Y029281D01*
X010236Y029214D01*
X010264Y029149D01*
X010297Y029086D01*
X010333Y029024D01*
X010372Y028965D01*
X010414Y028907D01*
X010460Y028853D01*
X010508Y028800D01*
X010559Y028751D01*
X010613Y028704D01*
X010670Y028661D01*
X010729Y028620D01*
X010790Y028584D01*
X010852Y028550D01*
X010917Y028520D01*
X010983Y028494D01*
X011051Y028471D01*
X011120Y028452D01*
X011189Y028437D01*
X011260Y028426D01*
X011331Y028419D01*
X011402Y028415D01*
X011473Y028416D01*
X011544Y028420D01*
X011615Y028429D01*
X011685Y028441D01*
X011754Y028458D01*
X011823Y028478D01*
X011890Y028502D01*
X011956Y028529D01*
X012020Y028560D01*
X012082Y028595D01*
X012142Y028633D01*
X012200Y028674D01*
X012256Y028719D01*
X012309Y028766D01*
X012360Y028817D01*
X012407Y028870D01*
X012452Y028925D01*
X012445Y028931D01*
X012400Y028876D01*
X012353Y028823D01*
X012303Y028773D01*
X012250Y028726D01*
X012195Y028682D01*
X012137Y028640D01*
X012078Y028603D01*
X012016Y028568D01*
X011952Y028537D01*
X011887Y028510D01*
X011820Y028486D01*
X011752Y028466D01*
X011683Y028450D01*
X011614Y028438D01*
X011543Y028429D01*
X011473Y028425D01*
X011402Y028424D01*
X011331Y028428D01*
X011261Y028435D01*
X011191Y028446D01*
X011122Y028461D01*
X011054Y028480D01*
X010986Y028502D01*
X010921Y028528D01*
X010856Y028558D01*
X010794Y028591D01*
X010734Y028628D01*
X010675Y028668D01*
X010619Y028711D01*
X010565Y028757D01*
X010515Y028807D01*
X010466Y028858D01*
X010421Y028913D01*
X010379Y028970D01*
X010340Y029029D01*
X010305Y029090D01*
X010272Y029153D01*
X010244Y029218D01*
X010219Y029284D01*
X010198Y029352D01*
X010180Y029420D01*
X010167Y029490D01*
X010157Y029560D01*
X010151Y029630D01*
X010149Y029701D01*
X010151Y029772D01*
X010157Y029842D01*
X010167Y029912D01*
X010180Y029982D01*
X010198Y030050D01*
X010219Y030118D01*
X010244Y030184D01*
X010272Y030249D01*
X010305Y030312D01*
X010340Y030373D01*
X010379Y030432D01*
X010421Y030489D01*
X010466Y030544D01*
X010515Y030595D01*
X010565Y030645D01*
X010619Y030691D01*
X010675Y030734D01*
X010734Y030774D01*
X010794Y030811D01*
X010856Y030844D01*
X010921Y030874D01*
X010986Y030900D01*
X011054Y030922D01*
X011122Y030941D01*
X011191Y030956D01*
X011261Y030967D01*
X011331Y030974D01*
X011402Y030978D01*
X011473Y030977D01*
X011543Y030973D01*
X011614Y030964D01*
X011683Y030952D01*
X011752Y030936D01*
X011820Y030916D01*
X011887Y030892D01*
X011952Y030865D01*
X012016Y030834D01*
X012078Y030799D01*
X012137Y030762D01*
X012195Y030720D01*
X012250Y030676D01*
X012303Y030629D01*
X012353Y030579D01*
X012400Y030526D01*
X012445Y030471D01*
X012437Y030466D01*
X012393Y030521D01*
X012345Y030574D01*
X012295Y030624D01*
X012242Y030672D01*
X012186Y030716D01*
X012128Y030757D01*
X012068Y030794D01*
X012006Y030829D01*
X011942Y030859D01*
X011876Y030886D01*
X011809Y030910D01*
X011741Y030929D01*
X011671Y030945D01*
X011601Y030957D01*
X011531Y030965D01*
X011460Y030969D01*
X011389Y030968D01*
X011318Y030964D01*
X011247Y030956D01*
X011177Y030944D01*
X011108Y030928D01*
X011040Y030909D01*
X010972Y030885D01*
X010907Y030858D01*
X010843Y030827D01*
X010781Y030793D01*
X010721Y030755D01*
X010663Y030713D01*
X010607Y030669D01*
X010554Y030622D01*
X010504Y030571D01*
X010457Y030518D01*
X010412Y030463D01*
X010371Y030405D01*
X010334Y030345D01*
X010299Y030282D01*
X010268Y030218D01*
X010241Y030153D01*
X010218Y030086D01*
X010198Y030017D01*
X010182Y029948D01*
X010170Y029878D01*
X010162Y029807D01*
X010158Y029737D01*
X010158Y029665D01*
X010162Y029595D01*
X010170Y029524D01*
X010182Y029454D01*
X010198Y029385D01*
X010218Y029316D01*
X010241Y029249D01*
X010268Y029184D01*
X010299Y029120D01*
X010334Y029057D01*
X010371Y028997D01*
X010412Y028939D01*
X010457Y028884D01*
X010504Y028831D01*
X010554Y028780D01*
X010607Y028733D01*
X010663Y028689D01*
X010721Y028647D01*
X010781Y028609D01*
X010843Y028575D01*
X010907Y028544D01*
X010972Y028517D01*
X011040Y028493D01*
X011108Y028474D01*
X011177Y028458D01*
X011247Y028446D01*
X011318Y028438D01*
X011389Y028434D01*
X011460Y028433D01*
X011531Y028437D01*
X011601Y028445D01*
X011671Y028457D01*
X011741Y028473D01*
X011809Y028492D01*
X011876Y028516D01*
X011942Y028543D01*
X012006Y028573D01*
X012068Y028608D01*
X012128Y028645D01*
X012186Y028686D01*
X012242Y028730D01*
X012295Y028778D01*
X012345Y028828D01*
X012393Y028881D01*
X012437Y028936D01*
X012430Y028942D01*
X012386Y028887D01*
X012339Y028834D01*
X012289Y028784D01*
X012236Y028737D01*
X012181Y028693D01*
X012123Y028653D01*
X012064Y028615D01*
X012002Y028581D01*
X011938Y028551D01*
X011873Y028524D01*
X011806Y028501D01*
X011738Y028481D01*
X011670Y028466D01*
X011600Y028454D01*
X011530Y028446D01*
X011459Y028442D01*
X011389Y028443D01*
X011318Y028447D01*
X011248Y028455D01*
X011179Y028467D01*
X011110Y028482D01*
X011042Y028502D01*
X010976Y028525D01*
X010911Y028552D01*
X010847Y028583D01*
X010785Y028617D01*
X010726Y028655D01*
X010668Y028696D01*
X010613Y028740D01*
X010560Y028787D01*
X010511Y028837D01*
X010464Y028889D01*
X010420Y028945D01*
X010379Y029002D01*
X010341Y029062D01*
X010307Y029124D01*
X010277Y029187D01*
X010250Y029252D01*
X010226Y029319D01*
X010207Y029387D01*
X010191Y029456D01*
X010179Y029525D01*
X010171Y029595D01*
X010167Y029666D01*
X010167Y029736D01*
X010171Y029807D01*
X010179Y029877D01*
X010191Y029946D01*
X010207Y030015D01*
X010226Y030083D01*
X010250Y030150D01*
X010277Y030215D01*
X010307Y030278D01*
X010341Y030340D01*
X010379Y030400D01*
X010420Y030457D01*
X010464Y030513D01*
X010511Y030565D01*
X010560Y030615D01*
X010613Y030662D01*
X010668Y030706D01*
X010726Y030747D01*
X010785Y030785D01*
X010847Y030819D01*
X010911Y030850D01*
X010976Y030877D01*
X011042Y030900D01*
X011110Y030920D01*
X011179Y030935D01*
X011248Y030947D01*
X011318Y030955D01*
X011389Y030959D01*
X011459Y030960D01*
X011530Y030956D01*
X011600Y030948D01*
X011670Y030936D01*
X011738Y030921D01*
X011806Y030901D01*
X011873Y030878D01*
X011938Y030851D01*
X012002Y030821D01*
X012064Y030787D01*
X012123Y030749D01*
X012181Y030709D01*
X012236Y030665D01*
X012289Y030618D01*
X012339Y030568D01*
X012386Y030515D01*
X012430Y030460D01*
X012423Y030455D01*
X012379Y030510D01*
X012332Y030562D01*
X012283Y030611D01*
X012230Y030658D01*
X012176Y030701D01*
X012118Y030742D01*
X012059Y030779D01*
X011998Y030813D01*
X011934Y030843D01*
X011870Y030870D01*
X011803Y030893D01*
X011736Y030912D01*
X011668Y030927D01*
X011599Y030939D01*
X011529Y030947D01*
X011459Y030951D01*
X011389Y030950D01*
X011319Y030946D01*
X011250Y030938D01*
X011181Y030927D01*
X011112Y030911D01*
X011045Y030892D01*
X010979Y030868D01*
X010914Y030841D01*
X010851Y030811D01*
X010790Y030777D01*
X010731Y030740D01*
X010673Y030699D01*
X010619Y030655D01*
X010567Y030609D01*
X010517Y030559D01*
X010470Y030507D01*
X010427Y030452D01*
X010386Y030395D01*
X010349Y030336D01*
X010315Y030274D01*
X010285Y030211D01*
X010258Y030146D01*
X010235Y030080D01*
X010216Y030013D01*
X010200Y029945D01*
X010188Y029876D01*
X010180Y029806D01*
X010176Y029736D01*
X010176Y029666D01*
X010180Y029596D01*
X010188Y029526D01*
X010200Y029457D01*
X010216Y029389D01*
X010235Y029322D01*
X010258Y029256D01*
X010285Y029191D01*
X010315Y029128D01*
X010349Y029066D01*
X010386Y029007D01*
X010427Y028950D01*
X010470Y028895D01*
X010517Y028843D01*
X010567Y028793D01*
X010619Y028747D01*
X010673Y028703D01*
X010731Y028662D01*
X010790Y028625D01*
X010851Y028591D01*
X010914Y028561D01*
X010979Y028534D01*
X011045Y028510D01*
X011112Y028491D01*
X011181Y028475D01*
X011250Y028464D01*
X011319Y028456D01*
X011389Y028452D01*
X011459Y028451D01*
X011529Y028455D01*
X011599Y028463D01*
X011668Y028475D01*
X011736Y028490D01*
X011803Y028509D01*
X011870Y028532D01*
X011934Y028559D01*
X011998Y028589D01*
X012059Y028623D01*
X012118Y028660D01*
X012176Y028701D01*
X012230Y028744D01*
X012283Y028791D01*
X012332Y028840D01*
X012379Y028892D01*
X012423Y028947D01*
X012416Y028952D01*
X012372Y028898D01*
X012326Y028846D01*
X012277Y028797D01*
X012225Y028751D01*
X012170Y028708D01*
X012113Y028668D01*
X012054Y028631D01*
X011993Y028597D01*
X011931Y028567D01*
X011866Y028541D01*
X011801Y028518D01*
X011734Y028499D01*
X011666Y028483D01*
X011597Y028472D01*
X011528Y028464D01*
X011459Y028460D01*
X011389Y028461D01*
X011320Y028465D01*
X011251Y028472D01*
X011182Y028484D01*
X011115Y028500D01*
X011048Y028519D01*
X010982Y028542D01*
X010918Y028569D01*
X010855Y028599D01*
X010794Y028633D01*
X010736Y028670D01*
X010679Y028710D01*
X010625Y028753D01*
X010573Y028800D01*
X010524Y028849D01*
X010477Y028901D01*
X010434Y028955D01*
X010394Y029012D01*
X010357Y029071D01*
X010323Y029132D01*
X010293Y029195D01*
X010266Y029259D01*
X010243Y029324D01*
X010224Y029391D01*
X010209Y029459D01*
X010197Y029528D01*
X010189Y029597D01*
X010185Y029666D01*
X010185Y029736D01*
X010189Y029805D01*
X010197Y029874D01*
X010209Y029943D01*
X010224Y030011D01*
X010243Y030078D01*
X010266Y030143D01*
X010293Y030207D01*
X010323Y030270D01*
X010357Y030331D01*
X010394Y030390D01*
X010434Y030447D01*
X010477Y030501D01*
X010524Y030553D01*
X010573Y030602D01*
X010625Y030649D01*
X010679Y030692D01*
X010736Y030732D01*
X010794Y030769D01*
X010855Y030803D01*
X010918Y030833D01*
X010982Y030860D01*
X011048Y030883D01*
X011115Y030902D01*
X011182Y030918D01*
X011251Y030930D01*
X011320Y030937D01*
X011389Y030941D01*
X011459Y030942D01*
X011528Y030938D01*
X011597Y030930D01*
X011666Y030919D01*
X011734Y030903D01*
X011801Y030884D01*
X011866Y030861D01*
X011931Y030835D01*
X011993Y030805D01*
X012054Y030771D01*
X012113Y030734D01*
X012170Y030694D01*
X012225Y030651D01*
X012277Y030605D01*
X012326Y030556D01*
X012372Y030504D01*
X012416Y030450D01*
X012409Y030444D01*
X012365Y030498D01*
X012319Y030549D01*
X012270Y030598D01*
X012219Y030644D01*
X012165Y030687D01*
X012108Y030727D01*
X012050Y030763D01*
X011989Y030797D01*
X011927Y030827D01*
X011863Y030853D01*
X011798Y030875D01*
X011732Y030894D01*
X011664Y030910D01*
X011596Y030921D01*
X011528Y030929D01*
X011459Y030933D01*
X011390Y030932D01*
X011321Y030928D01*
X011252Y030921D01*
X011184Y030909D01*
X011117Y030894D01*
X011050Y030874D01*
X010985Y030851D01*
X010922Y030825D01*
X010859Y030795D01*
X010799Y030762D01*
X010741Y030725D01*
X010684Y030685D01*
X010630Y030642D01*
X010579Y030596D01*
X010530Y030547D01*
X010484Y030495D01*
X010441Y030441D01*
X010401Y030385D01*
X010365Y030326D01*
X010331Y030266D01*
X010301Y030204D01*
X010275Y030140D01*
X010252Y030075D01*
X010233Y030008D01*
X010218Y029941D01*
X010206Y029873D01*
X010198Y029804D01*
X010194Y029736D01*
X010194Y029666D01*
X010198Y029598D01*
X010206Y029529D01*
X010218Y029461D01*
X010233Y029394D01*
X010252Y029327D01*
X010275Y029262D01*
X010301Y029198D01*
X010331Y029136D01*
X010365Y029076D01*
X010401Y029017D01*
X010441Y028961D01*
X010484Y028907D01*
X010530Y028855D01*
X010579Y028806D01*
X010630Y028760D01*
X010684Y028717D01*
X010741Y028677D01*
X010799Y028640D01*
X010859Y028607D01*
X010922Y028577D01*
X010985Y028551D01*
X011050Y028528D01*
X011117Y028508D01*
X011184Y028493D01*
X011252Y028481D01*
X011321Y028474D01*
X011390Y028470D01*
X011459Y028469D01*
X011528Y028473D01*
X011596Y028481D01*
X011664Y028492D01*
X011732Y028508D01*
X011798Y028527D01*
X011863Y028549D01*
X011927Y028575D01*
X011989Y028605D01*
X012050Y028639D01*
X012108Y028675D01*
X012165Y028715D01*
X012219Y028758D01*
X012270Y028804D01*
X012319Y028853D01*
X012365Y028904D01*
X012409Y028958D01*
X012401Y028963D01*
X012358Y028909D01*
X012312Y028858D01*
X012262Y028809D01*
X012211Y028763D01*
X012156Y028720D01*
X012099Y028680D01*
X012041Y028644D01*
X011980Y028610D01*
X011917Y028581D01*
X011853Y028555D01*
X011787Y028533D01*
X011720Y028514D01*
X011653Y028499D01*
X011584Y028488D01*
X011515Y028481D01*
X011446Y028478D01*
X011377Y028479D01*
X011307Y028484D01*
X011239Y028492D01*
X011171Y028505D01*
X011103Y028521D01*
X011037Y028542D01*
X010972Y028565D01*
X010908Y028593D01*
X010846Y028624D01*
X010786Y028659D01*
X010728Y028697D01*
X010672Y028738D01*
X010619Y028782D01*
X010568Y028829D01*
X010520Y028879D01*
X010475Y028932D01*
X010433Y028987D01*
X010394Y029044D01*
X010359Y029104D01*
X010327Y029165D01*
X010298Y029228D01*
X010273Y029293D01*
X010252Y029359D01*
X010234Y029426D01*
X010221Y029494D01*
X010211Y029563D01*
X010205Y029632D01*
X010203Y029701D01*
X010205Y029770D01*
X010211Y029839D01*
X010221Y029908D01*
X010234Y029976D01*
X010252Y030043D01*
X010273Y030109D01*
X010298Y030174D01*
X010327Y030237D01*
X010359Y030298D01*
X010394Y030358D01*
X010433Y030415D01*
X010475Y030470D01*
X010520Y030523D01*
X010568Y030573D01*
X010619Y030620D01*
X010672Y030664D01*
X010728Y030705D01*
X010786Y030743D01*
X010846Y030778D01*
X010908Y030809D01*
X010972Y030837D01*
X011037Y030860D01*
X011103Y030881D01*
X011171Y030897D01*
X011239Y030910D01*
X011307Y030918D01*
X011377Y030923D01*
X011446Y030924D01*
X011515Y030921D01*
X011584Y030914D01*
X011653Y030903D01*
X011720Y030888D01*
X011787Y030869D01*
X011853Y030847D01*
X011917Y030821D01*
X011980Y030792D01*
X012041Y030758D01*
X012099Y030722D01*
X012156Y030682D01*
X012211Y030639D01*
X012262Y030593D01*
X012312Y030544D01*
X012358Y030493D01*
X012401Y030439D01*
X012394Y030433D01*
X012351Y030487D01*
X012305Y030538D01*
X012256Y030587D01*
X012205Y030632D01*
X012151Y030675D01*
X012094Y030714D01*
X012036Y030751D01*
X011976Y030784D01*
X011913Y030813D01*
X011850Y030839D01*
X011784Y030861D01*
X011718Y030879D01*
X011651Y030894D01*
X011583Y030905D01*
X011514Y030912D01*
X011446Y030915D01*
X011377Y030914D01*
X011308Y030909D01*
X011240Y030901D01*
X011172Y030888D01*
X011106Y030872D01*
X011040Y030852D01*
X010975Y030828D01*
X010912Y030801D01*
X010851Y030770D01*
X010791Y030736D01*
X010733Y030698D01*
X010678Y030657D01*
X010625Y030613D01*
X010575Y030566D01*
X010527Y030517D01*
X010482Y030465D01*
X010440Y030410D01*
X010402Y030353D01*
X010367Y030294D01*
X010335Y030233D01*
X010306Y030170D01*
X010282Y030106D01*
X010260Y030040D01*
X010243Y029974D01*
X010230Y029906D01*
X010220Y029838D01*
X010214Y029770D01*
X010212Y029701D01*
X010214Y029632D01*
X010220Y029564D01*
X010230Y029496D01*
X010243Y029428D01*
X010260Y029362D01*
X010282Y029296D01*
X010306Y029232D01*
X010335Y029169D01*
X010367Y029108D01*
X010402Y029049D01*
X010440Y028992D01*
X010482Y028937D01*
X010527Y028885D01*
X010575Y028836D01*
X010625Y028789D01*
X010678Y028745D01*
X010733Y028704D01*
X010791Y028666D01*
X010851Y028632D01*
X010912Y028601D01*
X010975Y028574D01*
X011040Y028550D01*
X011106Y028530D01*
X011172Y028514D01*
X011240Y028501D01*
X011308Y028493D01*
X011377Y028488D01*
X011446Y028487D01*
X011514Y028490D01*
X011583Y028497D01*
X011651Y028508D01*
X011718Y028523D01*
X011784Y028541D01*
X011850Y028563D01*
X011913Y028589D01*
X011976Y028618D01*
X012036Y028651D01*
X012094Y028688D01*
X012151Y028727D01*
X012205Y028770D01*
X012256Y028815D01*
X012305Y028864D01*
X012351Y028915D01*
X012394Y028969D01*
X011026Y025547D02*
X010978Y025533D01*
X010979Y025533D02*
X010959Y025591D01*
X010935Y025648D01*
X010908Y025704D01*
X010877Y025758D01*
X010844Y025810D01*
X010807Y025859D01*
X010767Y025907D01*
X010725Y025952D01*
X010680Y025994D01*
X010632Y026033D01*
X010583Y026070D01*
X010531Y026103D01*
X010477Y026134D01*
X010421Y026161D01*
X010364Y026184D01*
X010306Y026205D01*
X010246Y026221D01*
X010186Y026234D01*
X010125Y026243D01*
X010063Y026249D01*
X010002Y026251D01*
X009940Y026249D01*
X009878Y026244D01*
X009817Y026234D01*
X009757Y026221D01*
X009697Y026205D01*
X009639Y026185D01*
X009582Y026161D01*
X009526Y026134D01*
X009472Y026104D01*
X009420Y026071D01*
X009370Y026034D01*
X009340Y026073D01*
X009339Y026073D01*
X009392Y026112D01*
X009446Y026147D01*
X009503Y026179D01*
X009561Y026207D01*
X009621Y026232D01*
X009682Y026253D01*
X009745Y026270D01*
X009808Y026284D01*
X009872Y026293D01*
X009937Y026299D01*
X010001Y026301D01*
X010066Y026299D01*
X010131Y026293D01*
X010195Y026283D01*
X010258Y026270D01*
X010321Y026252D01*
X010382Y026231D01*
X010442Y026206D01*
X010500Y026178D01*
X010557Y026146D01*
X010611Y026111D01*
X010663Y026073D01*
X010713Y026031D01*
X010760Y025987D01*
X010805Y025940D01*
X010846Y025890D01*
X010885Y025838D01*
X010920Y025783D01*
X010952Y025727D01*
X010981Y025669D01*
X011005Y025609D01*
X011027Y025548D01*
X011018Y025545D01*
X010997Y025606D01*
X010972Y025665D01*
X010944Y025723D01*
X010912Y025779D01*
X010877Y025833D01*
X010839Y025884D01*
X010798Y025934D01*
X010754Y025981D01*
X010707Y026025D01*
X010658Y026066D01*
X010606Y026104D01*
X010552Y026139D01*
X010496Y026170D01*
X010438Y026198D01*
X010379Y026223D01*
X010318Y026244D01*
X010256Y026261D01*
X010193Y026275D01*
X010130Y026284D01*
X010066Y026290D01*
X010001Y026292D01*
X009937Y026290D01*
X009873Y026284D01*
X009810Y026275D01*
X009747Y026261D01*
X009685Y026244D01*
X009624Y026223D01*
X009565Y026199D01*
X009507Y026171D01*
X009451Y026139D01*
X009397Y026104D01*
X009345Y026066D01*
X009351Y026059D01*
X009402Y026097D01*
X009456Y026131D01*
X009511Y026163D01*
X009568Y026190D01*
X009627Y026215D01*
X009688Y026235D01*
X009749Y026253D01*
X009811Y026266D01*
X009874Y026275D01*
X009938Y026281D01*
X010002Y026283D01*
X010065Y026281D01*
X010129Y026275D01*
X010192Y026266D01*
X010254Y026252D01*
X010315Y026235D01*
X010376Y026214D01*
X010434Y026190D01*
X010492Y026162D01*
X010547Y026131D01*
X010601Y026096D01*
X010652Y026059D01*
X010701Y026018D01*
X010748Y025974D01*
X010791Y025928D01*
X010832Y025879D01*
X010870Y025828D01*
X010905Y025774D01*
X010936Y025719D01*
X010964Y025661D01*
X010989Y025603D01*
X011010Y025542D01*
X011001Y025540D01*
X010980Y025599D01*
X010956Y025658D01*
X010928Y025715D01*
X010897Y025770D01*
X010863Y025823D01*
X010825Y025873D01*
X010785Y025922D01*
X010741Y025968D01*
X010695Y026011D01*
X010647Y026051D01*
X010596Y026089D01*
X010543Y026123D01*
X010488Y026154D01*
X010431Y026182D01*
X010372Y026206D01*
X010313Y026227D01*
X010252Y026244D01*
X010190Y026257D01*
X010128Y026266D01*
X010065Y026272D01*
X010002Y026274D01*
X009938Y026272D01*
X009875Y026266D01*
X009813Y026257D01*
X009751Y026244D01*
X009690Y026227D01*
X009631Y026206D01*
X009572Y026182D01*
X009515Y026155D01*
X009460Y026124D01*
X009407Y026089D01*
X009356Y026052D01*
X009362Y026045D01*
X009412Y026082D01*
X009465Y026116D01*
X009520Y026147D01*
X009576Y026174D01*
X009634Y026198D01*
X009693Y026218D01*
X009753Y026235D01*
X009815Y026248D01*
X009877Y026258D01*
X009939Y026263D01*
X010002Y026265D01*
X010064Y026263D01*
X010127Y026257D01*
X010188Y026248D01*
X010250Y026235D01*
X010310Y026218D01*
X010369Y026198D01*
X010427Y026174D01*
X010483Y026146D01*
X010538Y026115D01*
X010591Y026082D01*
X010641Y026044D01*
X010689Y026004D01*
X010735Y025961D01*
X010778Y025916D01*
X010818Y025868D01*
X010855Y025817D01*
X010889Y025765D01*
X010920Y025710D01*
X010948Y025654D01*
X010972Y025596D01*
X010992Y025537D01*
X010984Y025534D01*
X010963Y025593D01*
X010939Y025650D01*
X010912Y025706D01*
X010882Y025760D01*
X010848Y025812D01*
X010811Y025862D01*
X010771Y025910D01*
X010729Y025955D01*
X010683Y025998D01*
X010636Y026037D01*
X010585Y026074D01*
X010533Y026108D01*
X010479Y026138D01*
X010423Y026165D01*
X010366Y026189D01*
X010307Y026209D01*
X010248Y026226D01*
X010187Y026239D01*
X010125Y026248D01*
X010064Y026254D01*
X010002Y026256D01*
X009939Y026254D01*
X009878Y026249D01*
X009816Y026239D01*
X009756Y026226D01*
X009696Y026210D01*
X009637Y026190D01*
X009580Y026166D01*
X009524Y026139D01*
X009470Y026108D01*
X009417Y026075D01*
X009367Y026038D01*
X009340Y024379D02*
X009371Y024418D01*
X009370Y024418D02*
X009420Y024381D01*
X009472Y024348D01*
X009526Y024318D01*
X009582Y024291D01*
X009639Y024267D01*
X009697Y024247D01*
X009757Y024231D01*
X009817Y024218D01*
X009878Y024208D01*
X009940Y024203D01*
X010002Y024201D01*
X010063Y024203D01*
X010125Y024209D01*
X010186Y024218D01*
X010246Y024231D01*
X010306Y024247D01*
X010364Y024268D01*
X010421Y024291D01*
X010477Y024318D01*
X010531Y024349D01*
X010583Y024382D01*
X010632Y024419D01*
X010680Y024458D01*
X010725Y024500D01*
X010767Y024545D01*
X010807Y024593D01*
X010844Y024642D01*
X010877Y024694D01*
X010908Y024748D01*
X010935Y024804D01*
X010959Y024861D01*
X010979Y024919D01*
X011026Y024905D01*
X011027Y024904D01*
X011005Y024843D01*
X010981Y024783D01*
X010952Y024725D01*
X010920Y024669D01*
X010885Y024614D01*
X010846Y024562D01*
X010805Y024512D01*
X010760Y024465D01*
X010713Y024421D01*
X010663Y024379D01*
X010611Y024341D01*
X010557Y024306D01*
X010500Y024274D01*
X010442Y024246D01*
X010382Y024221D01*
X010321Y024200D01*
X010258Y024182D01*
X010195Y024169D01*
X010131Y024159D01*
X010066Y024153D01*
X010001Y024151D01*
X009937Y024153D01*
X009872Y024159D01*
X009808Y024168D01*
X009745Y024182D01*
X009682Y024199D01*
X009621Y024220D01*
X009561Y024245D01*
X009503Y024273D01*
X009446Y024305D01*
X009392Y024340D01*
X009339Y024379D01*
X009345Y024386D01*
X009397Y024348D01*
X009451Y024313D01*
X009507Y024281D01*
X009565Y024253D01*
X009624Y024229D01*
X009685Y024208D01*
X009747Y024191D01*
X009810Y024177D01*
X009873Y024168D01*
X009937Y024162D01*
X010001Y024160D01*
X010066Y024162D01*
X010130Y024168D01*
X010193Y024177D01*
X010256Y024191D01*
X010318Y024208D01*
X010379Y024229D01*
X010438Y024254D01*
X010496Y024282D01*
X010552Y024313D01*
X010606Y024348D01*
X010658Y024386D01*
X010707Y024427D01*
X010754Y024471D01*
X010798Y024518D01*
X010839Y024568D01*
X010877Y024619D01*
X010912Y024673D01*
X010944Y024729D01*
X010972Y024787D01*
X010997Y024846D01*
X011018Y024907D01*
X011010Y024910D01*
X010989Y024849D01*
X010964Y024791D01*
X010936Y024733D01*
X010905Y024678D01*
X010870Y024624D01*
X010832Y024573D01*
X010791Y024524D01*
X010748Y024478D01*
X010701Y024434D01*
X010652Y024393D01*
X010601Y024356D01*
X010547Y024321D01*
X010492Y024290D01*
X010434Y024262D01*
X010376Y024238D01*
X010315Y024217D01*
X010254Y024200D01*
X010192Y024186D01*
X010129Y024177D01*
X010065Y024171D01*
X010002Y024169D01*
X009938Y024171D01*
X009874Y024177D01*
X009811Y024186D01*
X009749Y024199D01*
X009688Y024217D01*
X009627Y024237D01*
X009568Y024262D01*
X009511Y024289D01*
X009456Y024321D01*
X009402Y024355D01*
X009351Y024393D01*
X009356Y024400D01*
X009407Y024363D01*
X009460Y024328D01*
X009515Y024297D01*
X009572Y024270D01*
X009631Y024246D01*
X009690Y024225D01*
X009751Y024208D01*
X009813Y024195D01*
X009875Y024186D01*
X009938Y024180D01*
X010002Y024178D01*
X010065Y024180D01*
X010128Y024186D01*
X010190Y024195D01*
X010252Y024208D01*
X010313Y024225D01*
X010372Y024246D01*
X010431Y024270D01*
X010488Y024298D01*
X010543Y024329D01*
X010596Y024363D01*
X010647Y024401D01*
X010695Y024441D01*
X010741Y024484D01*
X010785Y024530D01*
X010825Y024579D01*
X010863Y024629D01*
X010897Y024682D01*
X010928Y024737D01*
X010956Y024794D01*
X010980Y024853D01*
X011001Y024912D01*
X010992Y024915D01*
X010972Y024856D01*
X010948Y024798D01*
X010920Y024742D01*
X010889Y024687D01*
X010855Y024635D01*
X010818Y024584D01*
X010778Y024536D01*
X010735Y024491D01*
X010689Y024448D01*
X010641Y024408D01*
X010591Y024370D01*
X010538Y024337D01*
X010483Y024306D01*
X010427Y024278D01*
X010369Y024254D01*
X010310Y024234D01*
X010250Y024217D01*
X010188Y024204D01*
X010127Y024195D01*
X010064Y024189D01*
X010002Y024187D01*
X009939Y024189D01*
X009877Y024194D01*
X009815Y024204D01*
X009753Y024217D01*
X009693Y024234D01*
X009634Y024254D01*
X009576Y024278D01*
X009520Y024305D01*
X009465Y024336D01*
X009412Y024370D01*
X009362Y024407D01*
X009367Y024414D01*
X009417Y024377D01*
X009470Y024344D01*
X009524Y024313D01*
X009580Y024286D01*
X009637Y024262D01*
X009696Y024242D01*
X009756Y024226D01*
X009816Y024213D01*
X009878Y024203D01*
X009939Y024198D01*
X010002Y024196D01*
X010064Y024198D01*
X010125Y024204D01*
X010187Y024213D01*
X010248Y024226D01*
X010307Y024243D01*
X010366Y024263D01*
X010423Y024287D01*
X010479Y024314D01*
X010533Y024344D01*
X010585Y024378D01*
X010636Y024415D01*
X010683Y024454D01*
X010729Y024497D01*
X010771Y024542D01*
X010811Y024590D01*
X010848Y024640D01*
X010882Y024692D01*
X010912Y024746D01*
X010939Y024802D01*
X010963Y024859D01*
X010984Y024918D01*
X003131Y012819D02*
X003077Y012891D01*
X003078Y012890D02*
X003131Y012933D01*
X003182Y012978D01*
X003230Y013027D01*
X003275Y013078D01*
X003318Y013132D01*
X003357Y013188D01*
X003393Y013246D01*
X003426Y013306D01*
X003455Y013367D01*
X003480Y013431D01*
X003502Y013495D01*
X003521Y013561D01*
X003535Y013628D01*
X003546Y013695D01*
X003553Y013763D01*
X003556Y013831D01*
X003555Y013900D01*
X003550Y013968D01*
X003542Y014036D01*
X003529Y014103D01*
X003513Y014169D01*
X003493Y014234D01*
X003470Y014299D01*
X003443Y014361D01*
X003412Y014422D01*
X003378Y014481D01*
X003341Y014539D01*
X003300Y014594D01*
X003256Y014646D01*
X003210Y014696D01*
X003161Y014743D01*
X003109Y014788D01*
X003055Y014829D01*
X002998Y014868D01*
X002939Y014903D01*
X002879Y014934D01*
X002817Y014962D01*
X002753Y014987D01*
X002688Y015008D01*
X002622Y015025D01*
X002555Y015039D01*
X002487Y015048D01*
X002419Y015054D01*
X002351Y015056D01*
X002283Y015054D01*
X002215Y015048D01*
X002147Y015039D01*
X002080Y015025D01*
X002014Y015008D01*
X001949Y014987D01*
X001885Y014962D01*
X001823Y014934D01*
X001763Y014903D01*
X001704Y014868D01*
X001647Y014829D01*
X001593Y014788D01*
X001541Y014743D01*
X001492Y014696D01*
X001446Y014646D01*
X001402Y014594D01*
X001361Y014539D01*
X001324Y014481D01*
X001290Y014422D01*
X001259Y014361D01*
X001232Y014299D01*
X001209Y014234D01*
X001189Y014169D01*
X001173Y014103D01*
X001160Y014036D01*
X001152Y013968D01*
X001147Y013900D01*
X001146Y013831D01*
X001149Y013763D01*
X001156Y013695D01*
X001167Y013628D01*
X001181Y013561D01*
X001200Y013495D01*
X001222Y013431D01*
X001247Y013367D01*
X001276Y013306D01*
X001309Y013246D01*
X001345Y013188D01*
X001384Y013132D01*
X001427Y013078D01*
X001472Y013027D01*
X001520Y012978D01*
X001571Y012933D01*
X001624Y012890D01*
X001571Y012819D01*
X001570Y012818D01*
X001515Y012862D01*
X001462Y012910D01*
X001411Y012960D01*
X001364Y013013D01*
X001320Y013068D01*
X001278Y013126D01*
X001240Y013186D01*
X001205Y013247D01*
X001174Y013311D01*
X001146Y013376D01*
X001122Y013443D01*
X001101Y013511D01*
X001085Y013580D01*
X001072Y013650D01*
X001063Y013720D01*
X001057Y013791D01*
X001056Y013862D01*
X001059Y013933D01*
X001065Y014004D01*
X001075Y014074D01*
X001089Y014143D01*
X001107Y014212D01*
X001129Y014280D01*
X001154Y014346D01*
X001183Y014411D01*
X001216Y014474D01*
X001252Y014535D01*
X001291Y014594D01*
X001333Y014651D01*
X001378Y014706D01*
X001427Y014758D01*
X001478Y014807D01*
X001531Y014854D01*
X001588Y014897D01*
X001646Y014937D01*
X001707Y014974D01*
X001769Y015008D01*
X001833Y015038D01*
X001899Y015065D01*
X001966Y015088D01*
X002035Y015107D01*
X002104Y015122D01*
X002174Y015134D01*
X002245Y015142D01*
X002316Y015146D01*
X002386Y015146D01*
X002457Y015142D01*
X002528Y015134D01*
X002598Y015122D01*
X002667Y015107D01*
X002736Y015088D01*
X002803Y015065D01*
X002869Y015038D01*
X002933Y015008D01*
X002995Y014974D01*
X003056Y014937D01*
X003114Y014897D01*
X003171Y014854D01*
X003224Y014807D01*
X003275Y014758D01*
X003324Y014706D01*
X003369Y014651D01*
X003411Y014594D01*
X003450Y014535D01*
X003486Y014474D01*
X003519Y014411D01*
X003548Y014346D01*
X003573Y014280D01*
X003595Y014212D01*
X003613Y014143D01*
X003627Y014074D01*
X003637Y014004D01*
X003643Y013933D01*
X003646Y013862D01*
X003645Y013791D01*
X003639Y013720D01*
X003630Y013650D01*
X003617Y013580D01*
X003601Y013511D01*
X003580Y013443D01*
X003556Y013376D01*
X003528Y013311D01*
X003497Y013247D01*
X003462Y013186D01*
X003424Y013126D01*
X003382Y013068D01*
X003338Y013013D01*
X003291Y012960D01*
X003240Y012910D01*
X003187Y012862D01*
X003132Y012818D01*
X003127Y012825D01*
X003182Y012870D01*
X003235Y012917D01*
X003286Y012968D01*
X003333Y013021D01*
X003378Y013077D01*
X003419Y013135D01*
X003457Y013195D01*
X003492Y013257D01*
X003523Y013321D01*
X003550Y013387D01*
X003574Y013454D01*
X003594Y013523D01*
X003611Y013592D01*
X003623Y013662D01*
X003632Y013733D01*
X003636Y013804D01*
X003637Y013875D01*
X003633Y013946D01*
X003626Y014017D01*
X003615Y014088D01*
X003600Y014157D01*
X003581Y014226D01*
X003558Y014294D01*
X003532Y014360D01*
X003502Y014425D01*
X003468Y014487D01*
X003432Y014548D01*
X003391Y014607D01*
X003348Y014664D01*
X003301Y014718D01*
X003252Y014769D01*
X003199Y014817D01*
X003145Y014863D01*
X003087Y014905D01*
X003028Y014944D01*
X002966Y014980D01*
X002903Y015013D01*
X002838Y015041D01*
X002771Y015067D01*
X002703Y015088D01*
X002634Y015106D01*
X002564Y015119D01*
X002493Y015129D01*
X002422Y015135D01*
X002351Y015137D01*
X002280Y015135D01*
X002209Y015129D01*
X002138Y015119D01*
X002068Y015106D01*
X001999Y015088D01*
X001931Y015067D01*
X001864Y015041D01*
X001799Y015013D01*
X001736Y014980D01*
X001674Y014944D01*
X001615Y014905D01*
X001557Y014863D01*
X001503Y014817D01*
X001450Y014769D01*
X001401Y014718D01*
X001354Y014664D01*
X001311Y014607D01*
X001270Y014548D01*
X001234Y014487D01*
X001200Y014425D01*
X001170Y014360D01*
X001144Y014294D01*
X001121Y014226D01*
X001102Y014157D01*
X001087Y014088D01*
X001076Y014017D01*
X001069Y013946D01*
X001065Y013875D01*
X001066Y013804D01*
X001070Y013733D01*
X001079Y013662D01*
X001091Y013592D01*
X001108Y013523D01*
X001128Y013454D01*
X001152Y013387D01*
X001179Y013321D01*
X001210Y013257D01*
X001245Y013195D01*
X001283Y013135D01*
X001324Y013077D01*
X001369Y013021D01*
X001416Y012968D01*
X001467Y012917D01*
X001520Y012870D01*
X001575Y012825D01*
X001581Y012832D01*
X001526Y012877D01*
X001473Y012924D01*
X001423Y012974D01*
X001376Y013027D01*
X001332Y013082D01*
X001290Y013140D01*
X001253Y013199D01*
X001218Y013261D01*
X001187Y013325D01*
X001160Y013390D01*
X001136Y013457D01*
X001116Y013525D01*
X001100Y013594D01*
X001088Y013663D01*
X001079Y013734D01*
X001075Y013804D01*
X001074Y013875D01*
X001078Y013946D01*
X001085Y014016D01*
X001096Y014086D01*
X001111Y014155D01*
X001130Y014223D01*
X001152Y014291D01*
X001178Y014356D01*
X001208Y014421D01*
X001241Y014483D01*
X001278Y014543D01*
X001318Y014602D01*
X001361Y014658D01*
X001407Y014712D01*
X001457Y014762D01*
X001508Y014811D01*
X001563Y014856D01*
X001620Y014898D01*
X001679Y014937D01*
X001740Y014972D01*
X001803Y015005D01*
X001868Y015033D01*
X001934Y015058D01*
X002002Y015079D01*
X002070Y015097D01*
X002140Y015110D01*
X002210Y015120D01*
X002280Y015126D01*
X002351Y015128D01*
X002422Y015126D01*
X002492Y015120D01*
X002562Y015110D01*
X002632Y015097D01*
X002700Y015079D01*
X002768Y015058D01*
X002834Y015033D01*
X002899Y015005D01*
X002962Y014972D01*
X003023Y014937D01*
X003082Y014898D01*
X003139Y014856D01*
X003194Y014811D01*
X003245Y014762D01*
X003295Y014712D01*
X003341Y014658D01*
X003384Y014602D01*
X003424Y014543D01*
X003461Y014483D01*
X003494Y014421D01*
X003524Y014356D01*
X003550Y014291D01*
X003572Y014223D01*
X003591Y014155D01*
X003606Y014086D01*
X003617Y014016D01*
X003624Y013946D01*
X003628Y013875D01*
X003627Y013804D01*
X003623Y013734D01*
X003614Y013663D01*
X003602Y013594D01*
X003586Y013525D01*
X003566Y013457D01*
X003542Y013390D01*
X003515Y013325D01*
X003484Y013261D01*
X003449Y013199D01*
X003412Y013140D01*
X003370Y013082D01*
X003326Y013027D01*
X003279Y012974D01*
X003229Y012924D01*
X003176Y012877D01*
X003121Y012832D01*
X003116Y012840D01*
X003171Y012884D01*
X003224Y012932D01*
X003274Y012982D01*
X003322Y013035D01*
X003366Y013091D01*
X003407Y013149D01*
X003444Y013209D01*
X003479Y013271D01*
X003509Y013335D01*
X003536Y013401D01*
X003560Y013468D01*
X003579Y013536D01*
X003595Y013606D01*
X003607Y013676D01*
X003615Y013746D01*
X003619Y013817D01*
X003618Y013888D01*
X003614Y013959D01*
X003606Y014030D01*
X003594Y014100D01*
X003578Y014169D01*
X003559Y014237D01*
X003535Y014305D01*
X003508Y014370D01*
X003477Y014434D01*
X003443Y014496D01*
X003405Y014556D01*
X003363Y014614D01*
X003319Y014670D01*
X003272Y014723D01*
X003221Y014773D01*
X003168Y014820D01*
X003113Y014865D01*
X003055Y014906D01*
X002995Y014943D01*
X002932Y014978D01*
X002868Y015009D01*
X002803Y015036D01*
X002736Y015059D01*
X002667Y015079D01*
X002598Y015095D01*
X002528Y015107D01*
X002457Y015115D01*
X002387Y015119D01*
X002315Y015119D01*
X002245Y015115D01*
X002174Y015107D01*
X002104Y015095D01*
X002035Y015079D01*
X001966Y015059D01*
X001899Y015036D01*
X001834Y015009D01*
X001770Y014978D01*
X001707Y014943D01*
X001647Y014906D01*
X001589Y014865D01*
X001534Y014820D01*
X001481Y014773D01*
X001430Y014723D01*
X001383Y014670D01*
X001339Y014614D01*
X001297Y014556D01*
X001259Y014496D01*
X001225Y014434D01*
X001194Y014370D01*
X001167Y014305D01*
X001143Y014237D01*
X001124Y014169D01*
X001108Y014100D01*
X001096Y014030D01*
X001088Y013959D01*
X001084Y013888D01*
X001083Y013817D01*
X001087Y013746D01*
X001095Y013676D01*
X001107Y013606D01*
X001123Y013536D01*
X001142Y013468D01*
X001166Y013401D01*
X001193Y013335D01*
X001223Y013271D01*
X001258Y013209D01*
X001295Y013149D01*
X001336Y013091D01*
X001380Y013035D01*
X001428Y012982D01*
X001478Y012932D01*
X001531Y012884D01*
X001586Y012840D01*
X001592Y012847D01*
X001537Y012891D01*
X001484Y012938D01*
X001434Y012988D01*
X001387Y013041D01*
X001343Y013096D01*
X001303Y013154D01*
X001265Y013213D01*
X001231Y013275D01*
X001201Y013339D01*
X001174Y013404D01*
X001151Y013471D01*
X001131Y013539D01*
X001116Y013607D01*
X001104Y013677D01*
X001096Y013747D01*
X001092Y013818D01*
X001093Y013888D01*
X001097Y013959D01*
X001105Y014029D01*
X001117Y014098D01*
X001132Y014167D01*
X001152Y014235D01*
X001175Y014301D01*
X001202Y014366D01*
X001233Y014430D01*
X001267Y014492D01*
X001305Y014551D01*
X001346Y014609D01*
X001390Y014664D01*
X001437Y014717D01*
X001487Y014766D01*
X001539Y014813D01*
X001595Y014857D01*
X001652Y014898D01*
X001712Y014936D01*
X001774Y014970D01*
X001837Y015000D01*
X001902Y015027D01*
X001969Y015051D01*
X002037Y015070D01*
X002106Y015086D01*
X002175Y015098D01*
X002245Y015106D01*
X002316Y015110D01*
X002386Y015110D01*
X002457Y015106D01*
X002527Y015098D01*
X002596Y015086D01*
X002665Y015070D01*
X002733Y015051D01*
X002800Y015027D01*
X002865Y015000D01*
X002928Y014970D01*
X002990Y014936D01*
X003050Y014898D01*
X003107Y014857D01*
X003163Y014813D01*
X003215Y014766D01*
X003265Y014717D01*
X003312Y014664D01*
X003356Y014609D01*
X003397Y014551D01*
X003435Y014492D01*
X003469Y014430D01*
X003500Y014366D01*
X003527Y014301D01*
X003550Y014235D01*
X003570Y014167D01*
X003585Y014098D01*
X003597Y014029D01*
X003605Y013959D01*
X003609Y013888D01*
X003610Y013818D01*
X003606Y013747D01*
X003598Y013677D01*
X003586Y013607D01*
X003571Y013539D01*
X003551Y013471D01*
X003528Y013404D01*
X003501Y013339D01*
X003471Y013275D01*
X003437Y013213D01*
X003399Y013154D01*
X003359Y013096D01*
X003315Y013041D01*
X003268Y012988D01*
X003218Y012938D01*
X003165Y012891D01*
X003110Y012847D01*
X003105Y012854D01*
X003160Y012898D01*
X003212Y012945D01*
X003261Y012994D01*
X003308Y013047D01*
X003351Y013101D01*
X003392Y013159D01*
X003429Y013218D01*
X003463Y013279D01*
X003493Y013343D01*
X003520Y013407D01*
X003543Y013474D01*
X003562Y013541D01*
X003577Y013609D01*
X003589Y013678D01*
X003597Y013748D01*
X003601Y013818D01*
X003600Y013888D01*
X003596Y013958D01*
X003588Y014027D01*
X003577Y014096D01*
X003561Y014165D01*
X003542Y014232D01*
X003518Y014298D01*
X003491Y014363D01*
X003461Y014426D01*
X003427Y014487D01*
X003390Y014546D01*
X003349Y014604D01*
X003305Y014658D01*
X003259Y014710D01*
X003209Y014760D01*
X003157Y014807D01*
X003102Y014850D01*
X003045Y014891D01*
X002986Y014928D01*
X002924Y014962D01*
X002861Y014992D01*
X002796Y015019D01*
X002730Y015042D01*
X002663Y015061D01*
X002595Y015077D01*
X002526Y015089D01*
X002456Y015097D01*
X002386Y015101D01*
X002316Y015101D01*
X002246Y015097D01*
X002176Y015089D01*
X002107Y015077D01*
X002039Y015061D01*
X001972Y015042D01*
X001906Y015019D01*
X001841Y014992D01*
X001778Y014962D01*
X001716Y014928D01*
X001657Y014891D01*
X001600Y014850D01*
X001545Y014807D01*
X001493Y014760D01*
X001443Y014710D01*
X001397Y014658D01*
X001353Y014604D01*
X001312Y014546D01*
X001275Y014487D01*
X001241Y014426D01*
X001211Y014363D01*
X001184Y014298D01*
X001160Y014232D01*
X001141Y014165D01*
X001125Y014096D01*
X001114Y014027D01*
X001106Y013958D01*
X001102Y013888D01*
X001101Y013818D01*
X001105Y013748D01*
X001113Y013678D01*
X001125Y013609D01*
X001140Y013541D01*
X001159Y013474D01*
X001182Y013407D01*
X001209Y013343D01*
X001239Y013279D01*
X001273Y013218D01*
X001310Y013159D01*
X001351Y013101D01*
X001394Y013047D01*
X001441Y012994D01*
X001490Y012945D01*
X001542Y012898D01*
X001597Y012854D01*
X001602Y012861D01*
X001548Y012905D01*
X001496Y012951D01*
X001447Y013000D01*
X001401Y013052D01*
X001358Y013107D01*
X001318Y013164D01*
X001281Y013223D01*
X001247Y013284D01*
X001217Y013346D01*
X001191Y013411D01*
X001168Y013476D01*
X001149Y013543D01*
X001133Y013611D01*
X001122Y013680D01*
X001114Y013749D01*
X001110Y013818D01*
X001111Y013888D01*
X001115Y013957D01*
X001122Y014026D01*
X001134Y014095D01*
X001150Y014162D01*
X001169Y014229D01*
X001192Y014295D01*
X001219Y014359D01*
X001249Y014422D01*
X001283Y014483D01*
X001320Y014541D01*
X001360Y014598D01*
X001403Y014652D01*
X001450Y014704D01*
X001499Y014753D01*
X001551Y014800D01*
X001605Y014843D01*
X001662Y014883D01*
X001721Y014920D01*
X001782Y014954D01*
X001845Y014984D01*
X001909Y015011D01*
X001974Y015034D01*
X002041Y015053D01*
X002109Y015068D01*
X002178Y015080D01*
X002247Y015088D01*
X002316Y015092D01*
X002386Y015092D01*
X002455Y015088D01*
X002524Y015080D01*
X002593Y015068D01*
X002661Y015053D01*
X002728Y015034D01*
X002793Y015011D01*
X002857Y014984D01*
X002920Y014954D01*
X002981Y014920D01*
X003040Y014883D01*
X003097Y014843D01*
X003151Y014800D01*
X003203Y014753D01*
X003252Y014704D01*
X003299Y014652D01*
X003342Y014598D01*
X003382Y014541D01*
X003419Y014483D01*
X003453Y014422D01*
X003483Y014359D01*
X003510Y014295D01*
X003533Y014229D01*
X003552Y014162D01*
X003568Y014095D01*
X003580Y014026D01*
X003587Y013957D01*
X003591Y013888D01*
X003592Y013818D01*
X003588Y013749D01*
X003580Y013680D01*
X003569Y013611D01*
X003553Y013543D01*
X003534Y013476D01*
X003511Y013411D01*
X003485Y013346D01*
X003455Y013284D01*
X003421Y013223D01*
X003384Y013164D01*
X003344Y013107D01*
X003301Y013052D01*
X003255Y013000D01*
X003206Y012951D01*
X003154Y012905D01*
X003100Y012861D01*
X003094Y012868D01*
X003148Y012912D01*
X003199Y012958D01*
X003248Y013007D01*
X003294Y013058D01*
X003337Y013112D01*
X003377Y013169D01*
X003413Y013227D01*
X003447Y013288D01*
X003477Y013350D01*
X003503Y013414D01*
X003525Y013479D01*
X003544Y013545D01*
X003560Y013613D01*
X003571Y013681D01*
X003579Y013749D01*
X003583Y013818D01*
X003582Y013887D01*
X003578Y013956D01*
X003571Y014025D01*
X003559Y014093D01*
X003544Y014160D01*
X003524Y014227D01*
X003501Y014292D01*
X003475Y014355D01*
X003445Y014418D01*
X003412Y014478D01*
X003375Y014536D01*
X003335Y014593D01*
X003292Y014647D01*
X003246Y014698D01*
X003197Y014747D01*
X003145Y014793D01*
X003091Y014836D01*
X003035Y014876D01*
X002976Y014912D01*
X002916Y014946D01*
X002854Y014976D01*
X002790Y015002D01*
X002725Y015025D01*
X002658Y015044D01*
X002591Y015059D01*
X002523Y015071D01*
X002454Y015079D01*
X002386Y015083D01*
X002316Y015083D01*
X002248Y015079D01*
X002179Y015071D01*
X002111Y015059D01*
X002044Y015044D01*
X001977Y015025D01*
X001912Y015002D01*
X001848Y014976D01*
X001786Y014946D01*
X001726Y014912D01*
X001667Y014876D01*
X001611Y014836D01*
X001557Y014793D01*
X001505Y014747D01*
X001456Y014698D01*
X001410Y014647D01*
X001367Y014593D01*
X001327Y014536D01*
X001290Y014478D01*
X001257Y014418D01*
X001227Y014355D01*
X001201Y014292D01*
X001178Y014227D01*
X001158Y014160D01*
X001143Y014093D01*
X001131Y014025D01*
X001124Y013956D01*
X001120Y013887D01*
X001119Y013818D01*
X001123Y013749D01*
X001131Y013681D01*
X001142Y013613D01*
X001158Y013545D01*
X001177Y013479D01*
X001199Y013414D01*
X001225Y013350D01*
X001255Y013288D01*
X001289Y013227D01*
X001325Y013169D01*
X001365Y013112D01*
X001408Y013058D01*
X001454Y013007D01*
X001503Y012958D01*
X001554Y012912D01*
X001608Y012868D01*
X001613Y012876D01*
X001559Y012919D01*
X001508Y012965D01*
X001459Y013015D01*
X001413Y013066D01*
X001370Y013121D01*
X001330Y013178D01*
X001294Y013236D01*
X001260Y013297D01*
X001231Y013360D01*
X001205Y013424D01*
X001183Y013490D01*
X001164Y013557D01*
X001149Y013624D01*
X001138Y013693D01*
X001131Y013762D01*
X001128Y013831D01*
X001129Y013900D01*
X001134Y013970D01*
X001142Y014038D01*
X001155Y014106D01*
X001171Y014174D01*
X001192Y014240D01*
X001215Y014305D01*
X001243Y014369D01*
X001274Y014431D01*
X001309Y014491D01*
X001347Y014549D01*
X001388Y014605D01*
X001432Y014658D01*
X001479Y014709D01*
X001529Y014757D01*
X001582Y014802D01*
X001637Y014844D01*
X001694Y014883D01*
X001754Y014918D01*
X001815Y014950D01*
X001878Y014979D01*
X001943Y015004D01*
X002009Y015025D01*
X002076Y015043D01*
X002144Y015056D01*
X002213Y015066D01*
X002282Y015072D01*
X002351Y015074D01*
X002420Y015072D01*
X002489Y015066D01*
X002558Y015056D01*
X002626Y015043D01*
X002693Y015025D01*
X002759Y015004D01*
X002824Y014979D01*
X002887Y014950D01*
X002948Y014918D01*
X003008Y014883D01*
X003065Y014844D01*
X003120Y014802D01*
X003173Y014757D01*
X003223Y014709D01*
X003270Y014658D01*
X003314Y014605D01*
X003355Y014549D01*
X003393Y014491D01*
X003428Y014431D01*
X003459Y014369D01*
X003487Y014305D01*
X003510Y014240D01*
X003531Y014174D01*
X003547Y014106D01*
X003560Y014038D01*
X003568Y013970D01*
X003573Y013900D01*
X003574Y013831D01*
X003571Y013762D01*
X003564Y013693D01*
X003553Y013624D01*
X003538Y013557D01*
X003519Y013490D01*
X003497Y013424D01*
X003471Y013360D01*
X003442Y013297D01*
X003408Y013236D01*
X003372Y013178D01*
X003332Y013121D01*
X003289Y013066D01*
X003243Y013015D01*
X003194Y012965D01*
X003143Y012919D01*
X003089Y012876D01*
X003083Y012883D01*
X003137Y012926D01*
X003188Y012972D01*
X003237Y013021D01*
X003282Y013072D01*
X003325Y013126D01*
X003364Y013183D01*
X003401Y013241D01*
X003434Y013301D01*
X003463Y013364D01*
X003489Y013427D01*
X003511Y013493D01*
X003529Y013559D01*
X003544Y013626D01*
X003555Y013694D01*
X003562Y013763D01*
X003565Y013831D01*
X003564Y013900D01*
X003559Y013969D01*
X003551Y014037D01*
X003538Y014105D01*
X003522Y014171D01*
X003502Y014237D01*
X003478Y014302D01*
X003451Y014365D01*
X003420Y014426D01*
X003386Y014486D01*
X003348Y014544D01*
X003307Y014599D01*
X003263Y014652D01*
X003216Y014702D01*
X003167Y014750D01*
X003115Y014795D01*
X003060Y014837D01*
X003003Y014875D01*
X002944Y014910D01*
X002883Y014942D01*
X002820Y014971D01*
X002756Y014995D01*
X002690Y015017D01*
X002624Y015034D01*
X002556Y015047D01*
X002488Y015057D01*
X002420Y015063D01*
X002351Y015065D01*
X002282Y015063D01*
X002214Y015057D01*
X002146Y015047D01*
X002078Y015034D01*
X002012Y015017D01*
X001946Y014995D01*
X001882Y014971D01*
X001819Y014942D01*
X001758Y014910D01*
X001699Y014875D01*
X001642Y014837D01*
X001587Y014795D01*
X001535Y014750D01*
X001486Y014702D01*
X001439Y014652D01*
X001395Y014599D01*
X001354Y014544D01*
X001316Y014486D01*
X001282Y014426D01*
X001251Y014365D01*
X001224Y014302D01*
X001200Y014237D01*
X001180Y014171D01*
X001164Y014105D01*
X001151Y014037D01*
X001143Y013969D01*
X001138Y013900D01*
X001137Y013831D01*
X001140Y013763D01*
X001147Y013694D01*
X001158Y013626D01*
X001173Y013559D01*
X001191Y013493D01*
X001213Y013427D01*
X001239Y013364D01*
X001268Y013301D01*
X001301Y013241D01*
X001338Y013183D01*
X001377Y013126D01*
X001420Y013072D01*
X001465Y013021D01*
X001514Y012972D01*
X001565Y012926D01*
X001619Y012883D01*
D15*
X001851Y020551D03*
D16*
X001851Y020226D03*
X001851Y021976D03*
M02*
