G75*
G70*
%OFA0B0*%
%FSLAX24Y24*%
%IPPOS*%
%LPD*%
%AMOC8*
5,1,8,0,0,1.08239X$1,22.5*
%
%ADD10C,0.0867*%
%ADD11C,0.0600*%
%ADD12C,0.0556*%
%ADD13OC8,0.0600*%
%ADD14R,0.0556X0.0556*%
%ADD15R,0.0634X0.0634*%
%ADD16C,0.0634*%
%ADD17OC8,0.0556*%
%ADD18C,0.1025*%
%ADD19C,0.0946*%
%ADD20C,0.0966*%
%ADD21C,0.1261*%
%ADD22C,0.0555*%
D10*
X001367Y000930D03*
X019867Y000930D03*
X019867Y030430D03*
X001367Y030430D03*
D11*
X004867Y026190D02*
X004867Y025670D01*
X005867Y025670D02*
X005867Y026190D01*
X006867Y026190D02*
X006867Y025670D01*
X007867Y025670D02*
X007867Y026190D01*
X008867Y026190D02*
X008867Y025670D01*
X009867Y025670D02*
X009867Y026190D01*
X010867Y026190D02*
X010867Y025670D01*
X011867Y025670D02*
X011867Y026190D01*
X011867Y023190D02*
X011867Y022670D01*
X010867Y022670D02*
X010867Y023190D01*
X009867Y023190D02*
X009867Y022670D01*
X008867Y022670D02*
X008867Y023190D01*
X007867Y023190D02*
X007867Y022670D01*
X006867Y022670D02*
X006867Y023190D01*
X005867Y023190D02*
X005867Y022670D01*
X004867Y022670D02*
X004867Y023190D01*
D12*
X002367Y022430D03*
X001367Y019430D03*
X001367Y018430D03*
X004367Y014430D03*
X004367Y013430D03*
X004367Y012430D03*
X005617Y010930D03*
X005617Y009930D03*
X005617Y008930D03*
X005617Y007930D03*
X006867Y006180D03*
X004867Y005180D03*
X006867Y002180D03*
X008617Y008930D03*
X008617Y009930D03*
X008617Y010930D03*
X008367Y012430D03*
X008367Y013430D03*
X008367Y014430D03*
X007617Y016680D03*
X006117Y018430D03*
X006117Y019430D03*
X005367Y019430D03*
X005367Y018430D03*
X002867Y013430D03*
X001867Y013430D03*
X001867Y009430D03*
X002867Y009430D03*
X010117Y018430D03*
X010117Y019430D03*
X011867Y016180D03*
X012367Y014680D03*
X013367Y014680D03*
X014367Y014680D03*
X014367Y015680D03*
X015367Y015680D03*
X015367Y014680D03*
X016367Y015680D03*
X018617Y019180D03*
X019617Y017930D03*
X019617Y013930D03*
X019367Y012430D03*
X015367Y010680D03*
X014367Y010680D03*
X013367Y010680D03*
X012367Y010680D03*
X011367Y010680D03*
X011367Y014680D03*
X014367Y019680D03*
X015367Y019680D03*
X016367Y019680D03*
X014867Y022430D03*
X016367Y023430D03*
X017367Y026180D03*
X014867Y026430D03*
X014867Y027180D03*
X010867Y027180D03*
X014367Y006180D03*
X014367Y002180D03*
D13*
X015367Y007930D03*
X013367Y007930D03*
X009867Y011680D03*
X009867Y013680D03*
X011117Y018180D03*
X011117Y019680D03*
X011117Y021180D03*
X009867Y021180D03*
X007867Y021180D03*
X006617Y021180D03*
X004617Y021180D03*
X003367Y024180D03*
X003367Y026180D03*
X001617Y026180D03*
X001617Y024180D03*
X004117Y016680D03*
X006117Y016680D03*
X004367Y010680D03*
X004367Y008680D03*
X013117Y018180D03*
X013117Y019680D03*
X013117Y021180D03*
X014367Y021180D03*
X013367Y023430D03*
X013367Y025430D03*
X016367Y021180D03*
X017867Y016930D03*
X017867Y014930D03*
X016867Y013180D03*
X016867Y011180D03*
X009867Y027430D03*
X007867Y027430D03*
D14*
X002367Y021430D03*
X008617Y016680D03*
X012867Y016180D03*
X017617Y019180D03*
X017367Y023430D03*
X016367Y026180D03*
X018367Y012430D03*
X008617Y007930D03*
X004867Y006180D03*
D15*
X010617Y008930D03*
X017117Y008430D03*
X002367Y014680D03*
D16*
X002367Y015680D03*
X010617Y007930D03*
X017117Y005430D03*
D17*
X019117Y024430D03*
X019117Y025430D03*
X019117Y026430D03*
D18*
X018367Y002930D03*
X017117Y002930D03*
X015867Y002930D03*
X005067Y002930D03*
X003667Y002930D03*
D19*
X003667Y001380D03*
X005067Y001380D03*
X015892Y001380D03*
X017117Y001380D03*
X018342Y001380D03*
D20*
X019367Y005430D03*
X019367Y006930D03*
X019367Y008430D03*
X002117Y007680D03*
X002117Y005680D03*
D21*
X008617Y005680D03*
X008617Y003680D03*
X008617Y001680D03*
X010617Y001680D03*
X010617Y003680D03*
X010617Y005680D03*
X012617Y005680D03*
X012617Y003680D03*
X012617Y001680D03*
X015148Y028680D03*
X017117Y028680D03*
X019085Y028680D03*
X012585Y029430D03*
X010617Y029430D03*
X008648Y029430D03*
X006085Y028680D03*
X004117Y028680D03*
X002148Y028680D03*
D22*
X013867Y018430D03*
M02*
