%
M48
M72
T01C0.0276
T02C0.0315
T03C0.0320
T04C0.0354
T05C0.0591
T06C0.0630
T07C0.0787
T08C0.0866
%
T01
X4867Y5180
X4867Y6180
X5617Y7930
X5617Y8930
X5617Y9930
X5617Y10930
X4367Y12430
X4367Y13430
X4367Y14430
X2867Y13430
X1867Y13430
X1867Y9430
X2867Y9430
X6867Y6180
X8617Y7930
X8617Y8930
X8617Y9930
X8617Y10930
X8367Y12430
X8367Y13430
X8367Y14430
X8617Y16680
X7617Y16680
X6117Y18430
X6117Y19430
X5367Y19430
X5367Y18430
X2367Y21430
X2367Y22430
X1367Y19430
X1367Y18430
X10117Y18430
X10117Y19430
X11867Y16180
X12867Y16180
X13367Y14680
X12367Y14680
X11367Y14680
X11367Y10680
X12367Y10680
X13367Y10680
X14367Y10680
X15367Y10680
X15367Y14680
X15367Y15680
X16367Y15680
X14367Y15680
X14367Y14680
X14367Y19680
X15367Y19680
X16367Y19680
X17617Y19180
X18617Y19180
X19617Y17930
X19617Y13930
X19367Y12430
X18367Y12430
X14367Y6180
X14367Y2180
X6867Y2180
X14867Y22430
X16367Y23430
X17367Y23430
X19117Y24430
X19117Y25430
X19117Y26430
X17367Y26180
X16367Y26180
X14867Y26430
X14867Y27180
X10867Y27180
T02
X13867Y18430
T03
X13117Y18180
X13117Y19680
X13117Y21180
X14367Y21180
X13367Y23430
X11867Y22930
X10867Y22930
X9867Y22930
X8867Y22930
X7867Y22930
X6867Y22930
X5867Y22930
X4867Y22930
X4617Y21180
X6617Y21180
X7867Y21180
X9867Y21180
X11117Y21180
X11117Y19680
X11117Y18180
X9867Y13680
X9867Y11680
X13367Y7930
X15367Y7930
X16867Y11180
X16867Y13180
X17867Y14930
X17867Y16930
X16367Y21180
X13367Y25430
X11867Y25930
X10867Y25930
X9867Y25930
X8867Y25930
X7867Y25930
X6867Y25930
X5867Y25930
X4867Y25930
X3367Y26180
X3367Y24180
X1617Y24180
X1617Y26180
X7867Y27430
X9867Y27430
X6117Y16680
X4117Y16680
X4367Y10680
X4367Y8680
T04
X2367Y14680
X2367Y15680
X10617Y8930
X10617Y7930
X17117Y8430
X17117Y5430
T05
X19367Y5430
X19367Y6930
X19367Y8430
X2117Y7680
X2117Y5680
T06
X3667Y2930
X5067Y2930
X15867Y2930
X17117Y2930
X18367Y2930
T07
X1367Y930
X8617Y1680
X8617Y3680
X8617Y5680
X10617Y5680
X10617Y3680
X10617Y1680
X12617Y1680
X12617Y3680
X12617Y5680
X19867Y930
X19085Y28680
X19867Y30430
X17117Y28680
X15148Y28680
X12585Y29430
X10617Y29430
X8648Y29430
X6085Y28680
X4117Y28680
X2148Y28680
X1367Y30430
T08
X3667Y1380
X5067Y1380
X15892Y1380
X17117Y1380
X18342Y1380
M30
