G75*
G70*
%OFA0B0*%
%FSLAX24Y24*%
%IPPOS*%
%LPD*%
%AMOC8*
5,1,8,0,0,1.08239X$1,22.5*
%
%ADD10C,0.0520*%
%ADD11C,0.0476*%
%ADD12OC8,0.0520*%
%ADD13R,0.0476X0.0476*%
%ADD14R,0.0554X0.0554*%
%ADD15C,0.0554*%
%ADD16OC8,0.0476*%
%ADD17C,0.0945*%
%ADD18C,0.0886*%
%ADD19C,0.1181*%
%ADD20C,0.0240*%
%ADD21C,0.0160*%
%ADD22C,0.0475*%
%ADD23C,0.0100*%
D10*
X004867Y022670D02*
X004867Y023190D01*
X005867Y023190D02*
X005867Y022670D01*
X006867Y022670D02*
X006867Y023190D01*
X007867Y023190D02*
X007867Y022670D01*
X008867Y022670D02*
X008867Y023190D01*
X009867Y023190D02*
X009867Y022670D01*
X010867Y022670D02*
X010867Y023190D01*
X011867Y023190D02*
X011867Y022670D01*
X011867Y025670D02*
X011867Y026190D01*
X010867Y026190D02*
X010867Y025670D01*
X009867Y025670D02*
X009867Y026190D01*
X008867Y026190D02*
X008867Y025670D01*
X007867Y025670D02*
X007867Y026190D01*
X006867Y026190D02*
X006867Y025670D01*
X005867Y025670D02*
X005867Y026190D01*
X004867Y026190D02*
X004867Y025670D01*
D11*
X002367Y022430D03*
X001367Y019430D03*
X001367Y018430D03*
X004367Y014430D03*
X004367Y013430D03*
X004367Y012430D03*
X005617Y010930D03*
X005617Y009930D03*
X005617Y008930D03*
X005617Y007930D03*
X006867Y006180D03*
X004867Y005180D03*
X006867Y002180D03*
X008617Y008930D03*
X008617Y009930D03*
X008617Y010930D03*
X008367Y012430D03*
X008367Y013430D03*
X008367Y014430D03*
X007617Y016680D03*
X006117Y018430D03*
X006117Y019430D03*
X005367Y019430D03*
X005367Y018430D03*
X002867Y013430D03*
X001867Y013430D03*
X001867Y009430D03*
X002867Y009430D03*
X010117Y018430D03*
X010117Y019430D03*
X011867Y016180D03*
X012367Y014680D03*
X013367Y014680D03*
X014367Y014680D03*
X014367Y015680D03*
X015367Y015680D03*
X015367Y014680D03*
X016367Y015680D03*
X018617Y019180D03*
X019617Y017930D03*
X019617Y013930D03*
X019367Y012430D03*
X015367Y010680D03*
X014367Y010680D03*
X013367Y010680D03*
X012367Y010680D03*
X011367Y010680D03*
X011367Y014680D03*
X014367Y019680D03*
X015367Y019680D03*
X016367Y019680D03*
X014867Y022430D03*
X016367Y023430D03*
X017367Y026180D03*
X014867Y026430D03*
X014867Y027180D03*
X010867Y027180D03*
X014367Y006180D03*
X014367Y002180D03*
D12*
X015367Y007930D03*
X013367Y007930D03*
X009867Y011680D03*
X009867Y013680D03*
X011117Y018180D03*
X011117Y019680D03*
X011117Y021180D03*
X009867Y021180D03*
X007867Y021180D03*
X006617Y021180D03*
X004617Y021180D03*
X003367Y024180D03*
X003367Y026180D03*
X001617Y026180D03*
X001617Y024180D03*
X004117Y016680D03*
X006117Y016680D03*
X004367Y010680D03*
X004367Y008680D03*
X013117Y018180D03*
X013117Y019680D03*
X013117Y021180D03*
X014367Y021180D03*
X013367Y023430D03*
X013367Y025430D03*
X016367Y021180D03*
X017867Y016930D03*
X017867Y014930D03*
X016867Y013180D03*
X016867Y011180D03*
X009867Y027430D03*
X007867Y027430D03*
D13*
X002367Y021430D03*
X008617Y016680D03*
X012867Y016180D03*
X017617Y019180D03*
X017367Y023430D03*
X016367Y026180D03*
X018367Y012430D03*
X008617Y007930D03*
X004867Y006180D03*
D14*
X010617Y008930D03*
X017117Y008430D03*
X002367Y014680D03*
D15*
X002367Y015680D03*
X010617Y007930D03*
X017117Y005430D03*
D16*
X019117Y024430D03*
X019117Y025430D03*
X019117Y026430D03*
D17*
X018367Y002930D03*
X017117Y002930D03*
X015867Y002930D03*
X005067Y002930D03*
X003667Y002930D03*
D18*
X002117Y005680D03*
X002117Y007680D03*
X019367Y006930D03*
X019367Y008430D03*
X019367Y005430D03*
D19*
X012617Y005680D03*
X012617Y003680D03*
X012617Y001680D03*
X010617Y001680D03*
X010617Y003680D03*
X010617Y005680D03*
X008617Y005680D03*
X008617Y003680D03*
X008617Y001680D03*
X006085Y028680D03*
X004117Y028680D03*
X002148Y028680D03*
X008648Y029430D03*
X010617Y029430D03*
X012585Y029430D03*
X015148Y028680D03*
X017117Y028680D03*
X019085Y028680D03*
D20*
X019117Y028711D01*
X019117Y028930D01*
X017617Y030430D01*
X005367Y030430D01*
X004117Y029180D01*
X004117Y028680D01*
X004867Y025930D02*
X004117Y025180D01*
X002617Y025180D01*
X001617Y024180D01*
X003367Y024180D02*
X018867Y024180D01*
X018867Y020930D01*
X017867Y019930D01*
X017867Y019430D01*
X017617Y019180D01*
X017617Y017930D01*
X018617Y016930D01*
X018617Y013930D01*
X017617Y012930D01*
X017617Y008930D01*
X017117Y008430D01*
X018867Y006930D02*
X018367Y006430D01*
X018367Y002930D01*
X017617Y002180D01*
X015117Y002180D01*
X014617Y002680D01*
X007867Y002680D01*
X007617Y002930D01*
X005067Y002930D01*
X004117Y003680D02*
X002117Y005680D01*
X004117Y003680D02*
X008617Y003680D01*
X009617Y004680D02*
X010617Y003680D01*
X009617Y004680D02*
X009617Y006680D01*
X009367Y006930D01*
X008367Y006930D01*
X007367Y007930D01*
X005617Y007930D01*
X005367Y008680D02*
X005617Y008930D01*
X005367Y008680D02*
X004367Y008680D01*
X003117Y008680D01*
X002867Y008930D01*
X002867Y009430D01*
X003367Y010680D02*
X002867Y011180D01*
X002867Y013430D01*
X004367Y013430D01*
X004367Y012430D02*
X005367Y012430D01*
X005617Y012180D01*
X005617Y010930D01*
X005617Y009930D02*
X004617Y009930D01*
X004367Y010180D01*
X004367Y010680D01*
X003367Y010680D01*
X004367Y008680D02*
X004367Y006680D01*
X004867Y006180D01*
X004867Y005180D02*
X005867Y005180D01*
X006867Y006180D01*
X008117Y006180D01*
X008617Y005680D01*
X008617Y007930D02*
X009117Y007930D01*
X009867Y008680D01*
X009867Y010180D01*
X010367Y010680D01*
X009867Y011180D01*
X009867Y011680D01*
X009867Y011930D01*
X008367Y013430D01*
X007867Y012930D02*
X007867Y014180D01*
X008117Y014430D01*
X008367Y014430D01*
X010117Y014430D01*
X011117Y015430D01*
X012617Y015430D01*
X013367Y014680D01*
X014117Y013930D01*
X014867Y013930D01*
X015367Y014430D01*
X015367Y014680D01*
X015367Y015680D02*
X016367Y015680D01*
X016367Y018930D01*
X017117Y019680D01*
X017117Y023180D01*
X017367Y023430D01*
X016367Y023430D02*
X015367Y022430D01*
X014867Y022430D01*
X014617Y021930D02*
X015367Y021180D01*
X016117Y021180D01*
X016367Y020930D01*
X016367Y021180D01*
X016367Y020930D02*
X016367Y019680D01*
X015367Y019680D02*
X014367Y019680D01*
X014367Y021180D01*
X014117Y021180D01*
X013367Y021930D01*
X011367Y021930D01*
X010867Y022430D01*
X010867Y022930D01*
X010367Y021930D02*
X011117Y021180D01*
X010367Y021930D02*
X009617Y021930D01*
X008867Y022680D01*
X008867Y022930D01*
X007867Y022930D02*
X009617Y021180D01*
X009867Y021180D01*
X010117Y020180D02*
X012117Y020180D01*
X013117Y021180D01*
X014117Y021930D02*
X014617Y021930D01*
X014117Y021930D02*
X013117Y022930D01*
X011867Y022930D01*
X012367Y025430D02*
X011867Y025930D01*
X012367Y025430D02*
X013367Y025430D01*
X013617Y025180D01*
X017867Y025180D01*
X019117Y026430D01*
X019117Y024430D02*
X018867Y024180D01*
X016367Y026180D02*
X015867Y026180D01*
X015617Y025930D01*
X014367Y025930D01*
X013367Y026930D01*
X011867Y026930D01*
X010867Y025930D01*
X010867Y027180D02*
X010617Y027430D01*
X010617Y027680D01*
X008867Y029430D01*
X008648Y029430D01*
X007867Y027430D02*
X007117Y027430D01*
X005867Y026180D01*
X005867Y025930D01*
X005867Y022930D02*
X005867Y021930D01*
X006617Y021180D01*
X006867Y022180D02*
X007867Y021180D01*
X006867Y022180D02*
X006867Y022930D01*
X004867Y022930D02*
X004867Y021930D01*
X004617Y021680D01*
X004617Y021180D01*
X005367Y019430D02*
X005367Y018430D01*
X005367Y018180D01*
X006117Y017430D01*
X008367Y017430D01*
X009367Y018430D01*
X009367Y019430D01*
X010117Y020180D01*
X010117Y019430D02*
X010117Y018430D01*
X010367Y018430D01*
X010867Y018930D01*
X012367Y018930D01*
X013117Y019680D01*
X013867Y018430D02*
X013867Y017680D01*
X013617Y017430D01*
X009617Y017430D01*
X008867Y016680D01*
X008617Y016680D01*
X007617Y015680D01*
X002367Y015680D01*
X002367Y014680D02*
X002367Y014180D01*
X001867Y013680D01*
X001867Y013430D01*
X007867Y012930D02*
X008367Y012430D01*
X009867Y013680D02*
X010367Y013680D01*
X011367Y014680D01*
X012367Y014680D01*
X013367Y015680D02*
X012867Y016180D01*
X013367Y015680D02*
X014367Y015680D01*
X016367Y015680D02*
X017117Y014930D01*
X017867Y014930D01*
X016867Y011180D02*
X015867Y011180D01*
X015862Y011175D01*
X015367Y010680D01*
X014617Y010430D02*
X014367Y010680D01*
X014617Y010430D02*
X014617Y007930D01*
X013617Y006930D01*
X012867Y006930D01*
X010867Y008930D01*
X010617Y008930D01*
X010617Y007930D02*
X010617Y005680D01*
X012617Y005680D02*
X013867Y005680D01*
X014367Y006180D01*
X015367Y007180D01*
X015367Y007930D01*
X017117Y005430D02*
X017117Y004180D01*
X015867Y002930D01*
X012617Y001680D02*
X011617Y000680D01*
X009367Y000680D01*
X008617Y001430D01*
X008617Y001680D01*
X013367Y007930D02*
X013367Y008680D01*
X012367Y009680D01*
X012367Y010680D01*
X011367Y010680D02*
X010367Y010680D01*
X018867Y006930D02*
X019367Y006930D01*
X014867Y026430D02*
X015617Y027180D01*
X015617Y028211D01*
X015617Y028430D01*
X015367Y028680D01*
X017117Y028680D01*
X015617Y028211D02*
X015148Y028680D01*
X012585Y029430D02*
X012335Y029180D01*
X010867Y029180D01*
X010617Y029430D01*
D21*
X001097Y018025D02*
X001097Y001764D01*
X001193Y001804D01*
X001540Y001804D01*
X001862Y001671D01*
X002107Y001425D01*
X002240Y001104D01*
X002240Y000756D01*
X002201Y000660D01*
X003095Y000660D01*
X002893Y000863D01*
X002754Y001198D01*
X002754Y001562D01*
X002893Y001897D01*
X003149Y002154D01*
X003414Y002264D01*
X003263Y002326D01*
X003063Y002526D01*
X002954Y002788D01*
X002954Y003072D01*
X003063Y003334D01*
X003263Y003534D01*
X003525Y003642D01*
X003645Y003642D01*
X002279Y005008D01*
X002253Y004997D01*
X001981Y004997D01*
X001730Y005101D01*
X001538Y005293D01*
X001434Y005544D01*
X001434Y005816D01*
X001538Y006067D01*
X001730Y006259D01*
X001981Y006363D01*
X002253Y006363D01*
X002504Y006259D01*
X002696Y006067D01*
X002800Y005816D01*
X002800Y005544D01*
X002788Y005517D01*
X004266Y004040D01*
X007867Y004040D01*
X007913Y004150D01*
X008146Y004384D01*
X008451Y004511D01*
X008782Y004511D01*
X009087Y004384D01*
X009321Y004150D01*
X009447Y003845D01*
X009447Y003515D01*
X009321Y003210D01*
X009151Y003040D01*
X010082Y003040D01*
X009913Y003210D01*
X009786Y003515D01*
X009786Y003845D01*
X009832Y003956D01*
X009311Y004476D01*
X009257Y004608D01*
X009257Y005145D01*
X009087Y004976D01*
X008782Y004849D01*
X008451Y004849D01*
X008146Y004976D01*
X007913Y005210D01*
X007786Y005515D01*
X007786Y005820D01*
X007182Y005820D01*
X007137Y005775D01*
X006962Y005702D01*
X006898Y005702D01*
X006071Y004875D01*
X005938Y004820D01*
X005182Y004820D01*
X005137Y004775D01*
X004962Y004702D01*
X004772Y004702D01*
X004596Y004775D01*
X004462Y004909D01*
X004389Y005085D01*
X004389Y005275D01*
X004462Y005451D01*
X004596Y005585D01*
X004772Y005658D01*
X004962Y005658D01*
X005137Y005585D01*
X005182Y005540D01*
X005718Y005540D01*
X006389Y006211D01*
X006389Y006275D01*
X006462Y006451D01*
X006596Y006585D01*
X006772Y006658D01*
X006962Y006658D01*
X007137Y006585D01*
X007182Y006540D01*
X008188Y006540D01*
X008321Y006485D01*
X008341Y006465D01*
X008451Y006511D01*
X008782Y006511D01*
X009087Y006384D01*
X009257Y006215D01*
X009257Y006531D01*
X009218Y006570D01*
X008295Y006570D01*
X008163Y006625D01*
X008061Y006726D01*
X008061Y006726D01*
X007218Y007570D01*
X005932Y007570D01*
X005887Y007525D01*
X005712Y007452D01*
X005522Y007452D01*
X005346Y007525D01*
X005212Y007659D01*
X005139Y007835D01*
X005139Y008025D01*
X005212Y008201D01*
X005331Y008320D01*
X004727Y008320D01*
X004727Y006829D01*
X004898Y006658D01*
X005152Y006658D01*
X005240Y006621D01*
X005308Y006554D01*
X005344Y006466D01*
X005344Y005894D01*
X005308Y005806D01*
X005240Y005739D01*
X005152Y005702D01*
X004581Y005702D01*
X004493Y005739D01*
X004425Y005806D01*
X004389Y005894D01*
X004389Y006149D01*
X004163Y006375D01*
X004061Y006476D01*
X004007Y006608D01*
X004007Y008320D01*
X003045Y008320D01*
X002913Y008375D01*
X002811Y008476D01*
X002811Y008476D01*
X002663Y008625D01*
X002663Y008625D01*
X002561Y008726D01*
X002507Y008858D01*
X002507Y009114D01*
X002462Y009159D01*
X002389Y009335D01*
X002389Y009525D01*
X002462Y009701D01*
X002596Y009835D01*
X002772Y009908D01*
X002962Y009908D01*
X003137Y009835D01*
X003272Y009701D01*
X003344Y009525D01*
X003344Y009335D01*
X003272Y009159D01*
X003227Y009114D01*
X003227Y009079D01*
X003266Y009040D01*
X004020Y009040D01*
X004160Y009180D01*
X004574Y009180D01*
X004714Y009040D01*
X005145Y009040D01*
X005212Y009201D01*
X005346Y009335D01*
X005522Y009408D01*
X005712Y009408D01*
X005887Y009335D01*
X006022Y009201D01*
X006094Y009025D01*
X006094Y008835D01*
X006022Y008659D01*
X005887Y008525D01*
X005712Y008452D01*
X005648Y008452D01*
X005604Y008408D01*
X005712Y008408D01*
X005887Y008335D01*
X005932Y008290D01*
X007438Y008290D01*
X007571Y008235D01*
X008139Y007667D01*
X008139Y008216D01*
X008175Y008304D01*
X008243Y008371D01*
X008331Y008408D01*
X008902Y008408D01*
X008990Y008371D01*
X009020Y008342D01*
X009507Y008829D01*
X009507Y010252D01*
X009561Y010384D01*
X009858Y010680D01*
X009663Y010875D01*
X009561Y010976D01*
X009507Y011108D01*
X009507Y011333D01*
X009367Y011473D01*
X009367Y011887D01*
X009384Y011904D01*
X008844Y012443D01*
X008844Y012335D01*
X008772Y012159D01*
X008637Y012025D01*
X008462Y011952D01*
X008272Y011952D01*
X008096Y012025D01*
X007962Y012159D01*
X007889Y012335D01*
X007889Y012399D01*
X007561Y012726D01*
X007507Y012858D01*
X007507Y014252D01*
X007561Y014384D01*
X007663Y014485D01*
X007913Y014735D01*
X008045Y014790D01*
X008051Y014790D01*
X008096Y014835D01*
X008272Y014908D01*
X008462Y014908D01*
X008637Y014835D01*
X008682Y014790D01*
X009968Y014790D01*
X010811Y015634D01*
X010913Y015735D01*
X011045Y015790D01*
X011581Y015790D01*
X011462Y015909D01*
X011389Y016085D01*
X011389Y016275D01*
X011462Y016451D01*
X011596Y016585D01*
X011772Y016658D01*
X011962Y016658D01*
X012137Y016585D01*
X012272Y016451D01*
X012344Y016275D01*
X012344Y016085D01*
X012272Y015909D01*
X012152Y015790D01*
X012442Y015790D01*
X012425Y015806D01*
X012389Y015894D01*
X012389Y016466D01*
X012425Y016554D01*
X012493Y016621D01*
X012581Y016658D01*
X013152Y016658D01*
X013240Y016621D01*
X013308Y016554D01*
X013344Y016466D01*
X013344Y016211D01*
X013516Y016040D01*
X014051Y016040D01*
X014096Y016085D01*
X014272Y016158D01*
X014462Y016158D01*
X014487Y016147D01*
X014487Y017090D01*
X013737Y017090D01*
X013688Y017070D01*
X009766Y017070D01*
X009094Y016399D01*
X009094Y016394D01*
X009058Y016306D01*
X008990Y016239D01*
X008902Y016202D01*
X008648Y016202D01*
X007922Y015476D01*
X007821Y015375D01*
X007688Y015320D01*
X002738Y015320D01*
X002660Y015242D01*
X002552Y015197D01*
X002692Y015197D01*
X002780Y015161D01*
X002847Y015093D01*
X002884Y015005D01*
X002884Y014355D01*
X002847Y014267D01*
X002780Y014199D01*
X002727Y014177D01*
X002727Y014108D01*
X002672Y013976D01*
X002571Y013875D01*
X002308Y013612D01*
X002344Y013525D01*
X002344Y013335D01*
X002272Y013159D01*
X002137Y013025D01*
X001962Y012952D01*
X001772Y012952D01*
X001596Y013025D01*
X001462Y013159D01*
X001389Y013335D01*
X001389Y013525D01*
X001462Y013701D01*
X001507Y013746D01*
X001507Y013752D01*
X001561Y013884D01*
X001915Y014238D01*
X001886Y014267D01*
X001850Y014355D01*
X001850Y015005D01*
X001886Y015093D01*
X001954Y015161D01*
X002042Y015197D01*
X002181Y015197D01*
X002074Y015242D01*
X001928Y015387D01*
X001850Y015577D01*
X001850Y015783D01*
X001928Y015973D01*
X002074Y016118D01*
X002264Y016197D01*
X002470Y016197D01*
X002660Y016118D01*
X002738Y016040D01*
X007468Y016040D01*
X007697Y016270D01*
X007650Y016262D01*
X007617Y016262D01*
X007617Y016680D01*
X008034Y016680D01*
X007617Y016680D01*
X007617Y016680D01*
X007617Y016680D01*
X007617Y016262D01*
X007584Y016262D01*
X007519Y016272D01*
X007456Y016293D01*
X007398Y016323D01*
X007344Y016361D01*
X007298Y016408D01*
X007259Y016461D01*
X007229Y016520D01*
X007209Y016582D01*
X007199Y016647D01*
X007199Y016680D01*
X007617Y016680D01*
X007617Y016680D01*
X007199Y016680D01*
X007199Y016713D01*
X007209Y016778D01*
X007229Y016840D01*
X007259Y016899D01*
X007298Y016952D01*
X007344Y016999D01*
X007398Y017037D01*
X007456Y017067D01*
X007465Y017070D01*
X006349Y017070D01*
X006557Y016862D01*
X006557Y016680D01*
X006117Y016680D01*
X006117Y016680D01*
X006557Y016680D01*
X006557Y016498D01*
X006299Y016240D01*
X006117Y016240D01*
X006117Y016680D01*
X006117Y016680D01*
X006117Y016240D01*
X005934Y016240D01*
X005677Y016498D01*
X005677Y016680D01*
X006117Y016680D01*
X006117Y016680D01*
X005677Y016680D01*
X005677Y016862D01*
X005931Y017117D01*
X005913Y017125D01*
X005811Y017226D01*
X005061Y017976D01*
X005007Y018108D01*
X005007Y018114D01*
X004962Y018159D01*
X004889Y018335D01*
X004889Y018525D01*
X004962Y018701D01*
X005007Y018746D01*
X005007Y019114D01*
X004962Y019159D01*
X004889Y019335D01*
X004889Y019525D01*
X004962Y019701D01*
X005096Y019835D01*
X005272Y019908D01*
X005462Y019908D01*
X005637Y019835D01*
X005742Y019731D01*
X005846Y019835D01*
X006022Y019908D01*
X006212Y019908D01*
X006387Y019835D01*
X006522Y019701D01*
X006594Y019525D01*
X006594Y019335D01*
X006522Y019159D01*
X006387Y019025D01*
X006212Y018952D01*
X006022Y018952D01*
X005846Y019025D01*
X005742Y019129D01*
X005727Y019114D01*
X005727Y018746D01*
X005742Y018731D01*
X005846Y018835D01*
X006022Y018908D01*
X006212Y018908D01*
X006387Y018835D01*
X006522Y018701D01*
X006594Y018525D01*
X006594Y018335D01*
X006522Y018159D01*
X006387Y018025D01*
X006212Y017952D01*
X006104Y017952D01*
X006266Y017790D01*
X008218Y017790D01*
X009007Y018579D01*
X009007Y019502D01*
X009061Y019634D01*
X009811Y020384D01*
X009913Y020485D01*
X010045Y020540D01*
X011968Y020540D01*
X012617Y021189D01*
X012617Y021387D01*
X012800Y021570D01*
X011434Y021570D01*
X011617Y021387D01*
X011617Y020973D01*
X011324Y020680D01*
X010910Y020680D01*
X010617Y020973D01*
X010617Y021171D01*
X010218Y021570D01*
X010184Y021570D01*
X010367Y021387D01*
X010367Y020973D01*
X010074Y020680D01*
X009660Y020680D01*
X009502Y020838D01*
X009413Y020875D01*
X009311Y020976D01*
X008073Y022214D01*
X007966Y022170D01*
X007767Y022170D01*
X007583Y022246D01*
X007443Y022387D01*
X007367Y022571D01*
X007367Y023289D01*
X007291Y023473D01*
X007150Y023614D01*
X006966Y023690D01*
X006767Y023690D01*
X006583Y023614D01*
X006443Y023473D01*
X006367Y023289D01*
X006291Y023473D01*
X006150Y023614D01*
X005966Y023690D01*
X005767Y023690D01*
X005583Y023614D01*
X005443Y023473D01*
X005367Y023289D01*
X005367Y022571D01*
X005443Y022387D01*
X005507Y022323D01*
X005507Y021858D01*
X005561Y021726D01*
X006117Y021171D01*
X006117Y020973D01*
X006410Y020680D01*
X006824Y020680D01*
X007117Y020973D01*
X007117Y021387D01*
X006824Y021680D01*
X006626Y021680D01*
X006227Y022079D01*
X006227Y022323D01*
X006291Y022387D01*
X006367Y022571D01*
X006443Y022387D01*
X006507Y022323D01*
X006507Y022108D01*
X006561Y021976D01*
X006663Y021875D01*
X007367Y021171D01*
X007367Y020973D01*
X007660Y020680D01*
X008074Y020680D01*
X008367Y020973D01*
X008367Y021387D01*
X008074Y021680D01*
X007876Y021680D01*
X007230Y022326D01*
X007291Y022387D01*
X007367Y022571D01*
X007367Y023289D01*
X007443Y023473D01*
X007583Y023614D01*
X007767Y023690D01*
X007966Y023690D01*
X008150Y023614D01*
X008291Y023473D01*
X008367Y023289D01*
X008367Y022939D01*
X008367Y022939D01*
X008367Y023289D01*
X008443Y023473D01*
X008583Y023614D01*
X008767Y023690D01*
X008966Y023690D01*
X009150Y023614D01*
X009291Y023473D01*
X009367Y023289D01*
X009367Y022689D01*
X009367Y022689D01*
X009367Y023289D01*
X009443Y023473D01*
X009583Y023614D01*
X009767Y023690D01*
X009966Y023690D01*
X010150Y023614D01*
X010291Y023473D01*
X010367Y023289D01*
X010367Y022571D01*
X010443Y022387D01*
X010532Y022298D01*
X010555Y022242D01*
X010438Y022290D01*
X010194Y022290D01*
X010291Y022387D01*
X010367Y022571D01*
X010367Y023289D01*
X010443Y023473D01*
X010583Y023614D01*
X010767Y023690D01*
X010966Y023690D01*
X011150Y023614D01*
X011291Y023473D01*
X011367Y023289D01*
X011367Y022571D01*
X011443Y022387D01*
X011540Y022290D01*
X011516Y022290D01*
X011328Y022478D01*
X011367Y022571D01*
X011367Y023289D01*
X011443Y023473D01*
X011583Y023614D01*
X011767Y023690D01*
X011966Y023690D01*
X012150Y023614D01*
X012291Y023473D01*
X012366Y023290D01*
X012927Y023290D01*
X012927Y023430D01*
X013367Y023430D01*
X013807Y023430D01*
X013807Y023612D01*
X013599Y023820D01*
X016081Y023820D01*
X015962Y023701D01*
X015889Y023525D01*
X015889Y023461D01*
X015218Y022790D01*
X015182Y022790D01*
X015137Y022835D01*
X014962Y022908D01*
X014772Y022908D01*
X014596Y022835D01*
X014462Y022701D01*
X014389Y022525D01*
X014389Y022335D01*
X014407Y022290D01*
X014266Y022290D01*
X013557Y022998D01*
X013807Y023248D01*
X013807Y023430D01*
X013367Y023430D01*
X013367Y023430D01*
X013367Y023430D01*
X012927Y023430D01*
X012927Y023612D01*
X013134Y023820D01*
X003714Y023820D01*
X003574Y023680D01*
X003160Y023680D01*
X002867Y023973D01*
X002867Y024387D01*
X003160Y024680D01*
X003574Y024680D01*
X003714Y024540D01*
X018639Y024540D01*
X018639Y024628D01*
X018919Y024908D01*
X019315Y024908D01*
X019594Y024628D01*
X019594Y024232D01*
X019315Y023952D01*
X019227Y023952D01*
X019227Y020858D01*
X019172Y020726D01*
X018227Y019781D01*
X018227Y019358D01*
X018172Y019226D01*
X018094Y019149D01*
X018094Y018894D01*
X018058Y018806D01*
X017990Y018739D01*
X017977Y018733D01*
X017977Y018079D01*
X018821Y017235D01*
X018922Y017134D01*
X018977Y017002D01*
X018977Y013858D01*
X018922Y013726D01*
X018104Y012908D01*
X018652Y012908D01*
X018740Y012871D01*
X018808Y012804D01*
X018844Y012716D01*
X018844Y012144D01*
X018808Y012056D01*
X018740Y011989D01*
X018652Y011952D01*
X018081Y011952D01*
X017993Y011989D01*
X017977Y012005D01*
X017977Y008858D01*
X017922Y008726D01*
X017634Y008438D01*
X017634Y008105D01*
X017597Y008017D01*
X017530Y007949D01*
X017442Y007913D01*
X016792Y007913D01*
X016704Y007949D01*
X016636Y008017D01*
X016600Y008105D01*
X015867Y008105D01*
X015867Y008137D02*
X015574Y008430D01*
X015160Y008430D01*
X014977Y008247D01*
X014977Y010394D01*
X015096Y010275D01*
X015272Y010202D01*
X015462Y010202D01*
X015637Y010275D01*
X015772Y010409D01*
X015844Y010585D01*
X015844Y010649D01*
X016016Y010820D01*
X016520Y010820D01*
X016660Y010680D01*
X017074Y010680D01*
X017257Y010863D01*
X017257Y009079D01*
X017125Y008947D01*
X016792Y008947D01*
X016704Y008911D01*
X016636Y008843D01*
X016600Y008755D01*
X016600Y008105D01*
X016600Y008264D02*
X015740Y008264D01*
X015867Y008137D02*
X015867Y007723D01*
X015727Y007583D01*
X015727Y007108D01*
X015672Y006976D01*
X015571Y006875D01*
X014844Y006149D01*
X014844Y006085D01*
X014772Y005909D01*
X014637Y005775D01*
X014462Y005702D01*
X014398Y005702D01*
X014071Y005375D01*
X013938Y005320D01*
X013367Y005320D01*
X013321Y005210D01*
X013087Y004976D01*
X012782Y004849D01*
X012451Y004849D01*
X012146Y004976D01*
X011913Y005210D01*
X011786Y005515D01*
X011786Y005845D01*
X011913Y006150D01*
X012146Y006384D01*
X012451Y006511D01*
X012782Y006511D01*
X013087Y006384D01*
X013321Y006150D01*
X013367Y006040D01*
X013718Y006040D01*
X013889Y006211D01*
X013889Y006275D01*
X013962Y006451D01*
X014096Y006585D01*
X014272Y006658D01*
X014335Y006658D01*
X015007Y007329D01*
X015007Y007583D01*
X014893Y007697D01*
X014821Y007625D01*
X013821Y006625D01*
X013688Y006570D01*
X012795Y006570D01*
X012663Y006625D01*
X012561Y006726D01*
X010875Y008413D01*
X010802Y008413D01*
X010910Y008368D01*
X011055Y008223D01*
X011134Y008033D01*
X011134Y007827D01*
X011055Y007637D01*
X010977Y007559D01*
X010977Y006430D01*
X011087Y006384D01*
X011321Y006150D01*
X011447Y005845D01*
X011447Y005515D01*
X011321Y005210D01*
X011087Y004976D01*
X010782Y004849D01*
X010451Y004849D01*
X010146Y004976D01*
X009977Y005145D01*
X009977Y004829D01*
X010341Y004465D01*
X010451Y004511D01*
X010782Y004511D01*
X011087Y004384D01*
X011321Y004150D01*
X011447Y003845D01*
X011447Y003515D01*
X011321Y003210D01*
X011151Y003040D01*
X012082Y003040D01*
X011913Y003210D01*
X011786Y003515D01*
X011786Y003845D01*
X011913Y004150D01*
X012146Y004384D01*
X012451Y004511D01*
X012782Y004511D01*
X013087Y004384D01*
X013321Y004150D01*
X013447Y003845D01*
X013447Y003515D01*
X013321Y003210D01*
X013151Y003040D01*
X014688Y003040D01*
X014821Y002985D01*
X015251Y002555D01*
X015154Y002788D01*
X015154Y003072D01*
X015263Y003334D01*
X015463Y003534D01*
X015725Y003642D01*
X016008Y003642D01*
X016052Y003624D01*
X016757Y004329D01*
X016757Y005059D01*
X016678Y005137D01*
X016600Y005327D01*
X016600Y005533D01*
X016678Y005723D01*
X016824Y005868D01*
X017014Y005947D01*
X017220Y005947D01*
X017410Y005868D01*
X017555Y005723D01*
X017634Y005533D01*
X017634Y005327D01*
X017555Y005137D01*
X017477Y005059D01*
X017477Y004108D01*
X017422Y003976D01*
X017321Y003875D01*
X017088Y003642D01*
X017258Y003642D01*
X017520Y003534D01*
X017721Y003334D01*
X017742Y003283D01*
X017763Y003334D01*
X017963Y003534D01*
X018007Y003552D01*
X018007Y006502D01*
X018061Y006634D01*
X018163Y006735D01*
X018663Y007235D01*
X018773Y007281D01*
X018788Y007317D01*
X018980Y007509D01*
X019231Y007613D01*
X019503Y007613D01*
X019754Y007509D01*
X019946Y007317D01*
X020050Y007066D01*
X020050Y006794D01*
X019946Y006543D01*
X019754Y006351D01*
X019503Y006247D01*
X019231Y006247D01*
X018980Y006351D01*
X018888Y006443D01*
X018727Y006281D01*
X018727Y005669D01*
X018788Y005817D01*
X018980Y006009D01*
X019231Y006113D01*
X019503Y006113D01*
X019754Y006009D01*
X019946Y005817D01*
X020050Y005566D01*
X020050Y005294D01*
X019946Y005043D01*
X019754Y004851D01*
X019503Y004747D01*
X019231Y004747D01*
X018980Y004851D01*
X018788Y005043D01*
X018727Y005191D01*
X018727Y003552D01*
X018770Y003534D01*
X018971Y003334D01*
X019079Y003072D01*
X019079Y002788D01*
X018971Y002526D01*
X018770Y002326D01*
X018607Y002258D01*
X018859Y002154D01*
X019116Y001897D01*
X019255Y001562D01*
X019255Y001554D01*
X019372Y001671D01*
X019693Y001804D01*
X020040Y001804D01*
X020137Y001764D01*
X020137Y029596D01*
X020040Y029556D01*
X019693Y029556D01*
X019372Y029689D01*
X019126Y029935D01*
X018993Y030256D01*
X018993Y030604D01*
X019033Y030700D01*
X017856Y030700D01*
X019045Y029511D01*
X019250Y029511D01*
X019556Y029384D01*
X019789Y029150D01*
X019916Y028845D01*
X019916Y028515D01*
X019789Y028210D01*
X019556Y027976D01*
X019250Y027849D01*
X018920Y027849D01*
X018615Y027976D01*
X018381Y028210D01*
X018255Y028515D01*
X018255Y028845D01*
X018381Y029150D01*
X018384Y029153D01*
X017468Y030070D01*
X013120Y030070D01*
X013289Y029900D01*
X013416Y029595D01*
X013416Y029265D01*
X013289Y028960D01*
X013056Y028726D01*
X012750Y028599D01*
X012420Y028599D01*
X012115Y028726D01*
X012021Y028820D01*
X011181Y028820D01*
X011087Y028726D01*
X010782Y028599D01*
X010451Y028599D01*
X010146Y028726D01*
X009913Y028960D01*
X009786Y029265D01*
X009786Y029595D01*
X009913Y029900D01*
X010082Y030070D01*
X009183Y030070D01*
X009352Y029900D01*
X009479Y029595D01*
X009479Y029327D01*
X010821Y027985D01*
X010922Y027884D01*
X010977Y027752D01*
X010977Y027652D01*
X011137Y027585D01*
X011272Y027451D01*
X011344Y027275D01*
X011344Y027085D01*
X011272Y026909D01*
X011137Y026775D01*
X010962Y026702D01*
X010772Y026702D01*
X010596Y026775D01*
X010462Y026909D01*
X010389Y027085D01*
X010389Y027149D01*
X010311Y027226D01*
X010304Y027245D01*
X010049Y026990D01*
X009867Y026990D01*
X009867Y027430D01*
X009867Y027430D01*
X009867Y027430D01*
X009867Y027870D01*
X009918Y027870D01*
X009078Y028709D01*
X008813Y028599D01*
X008483Y028599D01*
X008178Y028726D01*
X007944Y028960D01*
X007818Y029265D01*
X007818Y029595D01*
X007944Y029900D01*
X008114Y030070D01*
X005516Y030070D01*
X004709Y029263D01*
X004821Y029150D01*
X004947Y028845D01*
X004947Y028515D01*
X004821Y028210D01*
X004587Y027976D01*
X004282Y027849D01*
X003951Y027849D01*
X003646Y027976D01*
X003413Y028210D01*
X003286Y028515D01*
X003286Y028845D01*
X003413Y029150D01*
X003646Y029384D01*
X003929Y029501D01*
X005061Y030634D01*
X005128Y030700D01*
X002201Y030700D01*
X002240Y030604D01*
X002240Y030256D01*
X002107Y029935D01*
X001862Y029689D01*
X001540Y029556D01*
X001193Y029556D01*
X001097Y029596D01*
X001097Y019835D01*
X001272Y019908D01*
X001462Y019908D01*
X001637Y019835D01*
X001772Y019701D01*
X001844Y019525D01*
X001844Y019335D01*
X001772Y019159D01*
X001637Y019025D01*
X001462Y018952D01*
X001272Y018952D01*
X001097Y019025D01*
X001097Y018835D01*
X001272Y018908D01*
X001462Y018908D01*
X001637Y018835D01*
X001772Y018701D01*
X001844Y018525D01*
X001844Y018335D01*
X001772Y018159D01*
X001637Y018025D01*
X001462Y017952D01*
X001272Y017952D01*
X001097Y018025D01*
X001097Y017932D02*
X005106Y017932D01*
X005014Y018091D02*
X001703Y018091D01*
X001809Y018249D02*
X004924Y018249D01*
X004889Y018408D02*
X001844Y018408D01*
X001827Y018566D02*
X004906Y018566D01*
X004985Y018725D02*
X001748Y018725D01*
X001521Y018883D02*
X005007Y018883D01*
X005007Y019042D02*
X001654Y019042D01*
X001789Y019200D02*
X004945Y019200D01*
X004889Y019359D02*
X001844Y019359D01*
X001844Y019517D02*
X004889Y019517D01*
X004951Y019676D02*
X001782Y019676D01*
X001638Y019834D02*
X005095Y019834D01*
X005638Y019834D02*
X005845Y019834D01*
X006388Y019834D02*
X009262Y019834D01*
X009420Y019993D02*
X001097Y019993D01*
X001097Y020151D02*
X009579Y020151D01*
X009737Y020310D02*
X001097Y020310D01*
X001097Y020468D02*
X009896Y020468D01*
X010179Y020785D02*
X010805Y020785D01*
X010646Y020944D02*
X010337Y020944D01*
X010367Y021102D02*
X010617Y021102D01*
X010527Y021261D02*
X010367Y021261D01*
X010369Y021419D02*
X010335Y021419D01*
X010274Y022370D02*
X010460Y022370D01*
X010384Y022529D02*
X010349Y022529D01*
X010367Y022687D02*
X010367Y022687D01*
X010367Y022846D02*
X010367Y022846D01*
X010367Y023004D02*
X010367Y023004D01*
X010367Y023163D02*
X010367Y023163D01*
X010354Y023321D02*
X010380Y023321D01*
X010449Y023480D02*
X010284Y023480D01*
X010092Y023638D02*
X010642Y023638D01*
X011092Y023638D02*
X011642Y023638D01*
X011449Y023480D02*
X011284Y023480D01*
X011354Y023321D02*
X011380Y023321D01*
X011367Y023163D02*
X011367Y023163D01*
X011367Y023004D02*
X011367Y023004D01*
X011367Y022846D02*
X011367Y022846D01*
X011367Y022687D02*
X011367Y022687D01*
X011384Y022529D02*
X011349Y022529D01*
X011436Y022370D02*
X011460Y022370D01*
X011585Y021419D02*
X012649Y021419D01*
X012617Y021261D02*
X011617Y021261D01*
X011617Y021102D02*
X012530Y021102D01*
X012371Y020944D02*
X011587Y020944D01*
X011429Y020785D02*
X012213Y020785D01*
X012054Y020627D02*
X001097Y020627D01*
X001097Y020785D02*
X004305Y020785D01*
X004410Y020680D02*
X004824Y020680D01*
X005117Y020973D01*
X005117Y021387D01*
X004977Y021527D01*
X004977Y021531D01*
X005172Y021726D01*
X005227Y021858D01*
X005227Y022323D01*
X005291Y022387D01*
X005367Y022571D01*
X005367Y023289D01*
X005291Y023473D01*
X005150Y023614D01*
X004966Y023690D01*
X004767Y023690D01*
X004583Y023614D01*
X004443Y023473D01*
X004367Y023289D01*
X004367Y022571D01*
X004443Y022387D01*
X004507Y022323D01*
X004507Y022079D01*
X004413Y021985D01*
X004311Y021884D01*
X004257Y021752D01*
X004257Y021527D01*
X004117Y021387D01*
X004117Y020973D01*
X004410Y020680D01*
X004146Y020944D02*
X001097Y020944D01*
X001097Y021102D02*
X001906Y021102D01*
X001889Y021144D02*
X001925Y021056D01*
X001993Y020989D01*
X002081Y020952D01*
X002652Y020952D01*
X002740Y020989D01*
X002808Y021056D01*
X002844Y021144D01*
X002844Y021716D01*
X002808Y021804D01*
X002740Y021871D01*
X002652Y021908D01*
X002081Y021908D01*
X001993Y021871D01*
X001925Y021804D01*
X001889Y021716D01*
X001889Y021144D01*
X001889Y021261D02*
X001097Y021261D01*
X001097Y021419D02*
X001889Y021419D01*
X001889Y021578D02*
X001097Y021578D01*
X001097Y021736D02*
X001897Y021736D01*
X002049Y021895D02*
X001097Y021895D01*
X001097Y022053D02*
X002068Y022053D01*
X002096Y022025D02*
X001962Y022159D01*
X001889Y022335D01*
X001889Y022525D01*
X001962Y022701D01*
X002096Y022835D01*
X002272Y022908D01*
X002462Y022908D01*
X002637Y022835D01*
X002772Y022701D01*
X002844Y022525D01*
X002844Y022335D01*
X002772Y022159D01*
X002637Y022025D01*
X002462Y021952D01*
X002272Y021952D01*
X002096Y022025D01*
X001940Y022212D02*
X001097Y022212D01*
X001097Y022370D02*
X001889Y022370D01*
X001890Y022529D02*
X001097Y022529D01*
X001097Y022687D02*
X001956Y022687D01*
X002121Y022846D02*
X001097Y022846D01*
X001097Y023004D02*
X004367Y023004D01*
X004367Y022846D02*
X002612Y022846D01*
X002777Y022687D02*
X004367Y022687D01*
X004384Y022529D02*
X002843Y022529D01*
X002844Y022370D02*
X004460Y022370D01*
X004507Y022212D02*
X002793Y022212D01*
X002665Y022053D02*
X004481Y022053D01*
X004322Y021895D02*
X002684Y021895D01*
X002836Y021736D02*
X004257Y021736D01*
X004257Y021578D02*
X002844Y021578D01*
X002844Y021419D02*
X004149Y021419D01*
X004117Y021261D02*
X002844Y021261D01*
X002827Y021102D02*
X004117Y021102D01*
X004929Y020785D02*
X006305Y020785D01*
X006146Y020944D02*
X005087Y020944D01*
X005117Y021102D02*
X006117Y021102D01*
X006027Y021261D02*
X005117Y021261D01*
X005085Y021419D02*
X005869Y021419D01*
X005710Y021578D02*
X005023Y021578D01*
X005176Y021736D02*
X005557Y021736D01*
X005507Y021895D02*
X005227Y021895D01*
X005227Y022053D02*
X005507Y022053D01*
X005507Y022212D02*
X005227Y022212D01*
X005274Y022370D02*
X005460Y022370D01*
X005384Y022529D02*
X005349Y022529D01*
X005367Y022687D02*
X005367Y022687D01*
X005367Y022846D02*
X005367Y022846D01*
X005367Y023004D02*
X005367Y023004D01*
X005367Y023163D02*
X005367Y023163D01*
X005354Y023321D02*
X005380Y023321D01*
X005449Y023480D02*
X005284Y023480D01*
X005092Y023638D02*
X005642Y023638D01*
X006092Y023638D02*
X006642Y023638D01*
X006449Y023480D02*
X006284Y023480D01*
X006354Y023321D02*
X006380Y023321D01*
X006367Y023289D02*
X006367Y022571D01*
X006367Y023289D01*
X006367Y023163D02*
X006367Y023163D01*
X006367Y023004D02*
X006367Y023004D01*
X006367Y022846D02*
X006367Y022846D01*
X006367Y022687D02*
X006367Y022687D01*
X006384Y022529D02*
X006349Y022529D01*
X006274Y022370D02*
X006460Y022370D01*
X006507Y022212D02*
X006227Y022212D01*
X006253Y022053D02*
X006530Y022053D01*
X006643Y021895D02*
X006411Y021895D01*
X006570Y021736D02*
X006802Y021736D01*
X006663Y021875D02*
X006663Y021875D01*
X006926Y021578D02*
X006960Y021578D01*
X007085Y021419D02*
X007119Y021419D01*
X007117Y021261D02*
X007277Y021261D01*
X007367Y021102D02*
X007117Y021102D01*
X007087Y020944D02*
X007396Y020944D01*
X007555Y020785D02*
X006929Y020785D01*
X007661Y021895D02*
X008393Y021895D01*
X008235Y022053D02*
X007503Y022053D01*
X007344Y022212D02*
X007667Y022212D01*
X007460Y022370D02*
X007274Y022370D01*
X007349Y022529D02*
X007384Y022529D01*
X007367Y022687D02*
X007367Y022687D01*
X007367Y022846D02*
X007367Y022846D01*
X007367Y023004D02*
X007367Y023004D01*
X007367Y023163D02*
X007367Y023163D01*
X007354Y023321D02*
X007380Y023321D01*
X007449Y023480D02*
X007284Y023480D01*
X007092Y023638D02*
X007642Y023638D01*
X008092Y023638D02*
X008642Y023638D01*
X008449Y023480D02*
X008284Y023480D01*
X008354Y023321D02*
X008380Y023321D01*
X008367Y023163D02*
X008367Y023163D01*
X008367Y023004D02*
X008367Y023004D01*
X008076Y022212D02*
X008066Y022212D01*
X007820Y021736D02*
X008552Y021736D01*
X008710Y021578D02*
X008176Y021578D01*
X008335Y021419D02*
X008869Y021419D01*
X009027Y021261D02*
X008367Y021261D01*
X008367Y021102D02*
X009186Y021102D01*
X009344Y020944D02*
X008337Y020944D01*
X008179Y020785D02*
X009555Y020785D01*
X009103Y019676D02*
X006532Y019676D01*
X006594Y019517D02*
X009013Y019517D01*
X009007Y019359D02*
X006594Y019359D01*
X006539Y019200D02*
X009007Y019200D01*
X009007Y019042D02*
X006404Y019042D01*
X006271Y018883D02*
X009007Y018883D01*
X009007Y018725D02*
X006498Y018725D01*
X006577Y018566D02*
X008994Y018566D01*
X008835Y018408D02*
X006594Y018408D01*
X006559Y018249D02*
X008677Y018249D01*
X008518Y018091D02*
X006453Y018091D01*
X006124Y017932D02*
X008360Y017932D01*
X008192Y017070D02*
X007768Y017070D01*
X007777Y017067D01*
X007836Y017037D01*
X007889Y016999D01*
X007935Y016952D01*
X007974Y016899D01*
X008004Y016840D01*
X008024Y016778D01*
X008034Y016713D01*
X008034Y016680D01*
X008034Y016647D01*
X008027Y016599D01*
X008139Y016711D01*
X008139Y016966D01*
X008175Y017054D01*
X008192Y017070D01*
X008145Y016981D02*
X007906Y016981D01*
X008010Y016823D02*
X008139Y016823D01*
X008092Y016664D02*
X008034Y016664D01*
X007617Y016664D02*
X007617Y016664D01*
X007617Y016506D02*
X007617Y016506D01*
X007617Y016347D02*
X007617Y016347D01*
X007616Y016189D02*
X004332Y016189D01*
X004324Y016180D02*
X004617Y016473D01*
X004617Y016887D01*
X004324Y017180D01*
X003910Y017180D01*
X003617Y016887D01*
X003617Y016473D01*
X003910Y016180D01*
X004324Y016180D01*
X004491Y016347D02*
X005827Y016347D01*
X005677Y016506D02*
X004617Y016506D01*
X004617Y016664D02*
X005677Y016664D01*
X005677Y016823D02*
X004617Y016823D01*
X004523Y016981D02*
X005795Y016981D01*
X005898Y017140D02*
X004364Y017140D01*
X003869Y017140D02*
X001097Y017140D01*
X001097Y017298D02*
X005740Y017298D01*
X005581Y017457D02*
X001097Y017457D01*
X001097Y017615D02*
X005423Y017615D01*
X005264Y017774D02*
X001097Y017774D01*
X001097Y016981D02*
X003711Y016981D01*
X003617Y016823D02*
X001097Y016823D01*
X001097Y016664D02*
X003617Y016664D01*
X003617Y016506D02*
X001097Y016506D01*
X001097Y016347D02*
X003743Y016347D01*
X003901Y016189D02*
X002490Y016189D01*
X002243Y016189D02*
X001097Y016189D01*
X001097Y016030D02*
X001985Y016030D01*
X001886Y015872D02*
X001097Y015872D01*
X001097Y015713D02*
X001850Y015713D01*
X001859Y015555D02*
X001097Y015555D01*
X001097Y015396D02*
X001925Y015396D01*
X002083Y015238D02*
X001097Y015238D01*
X001097Y015079D02*
X001880Y015079D01*
X001850Y014921D02*
X001097Y014921D01*
X001097Y014762D02*
X001850Y014762D01*
X001850Y014604D02*
X001097Y014604D01*
X001097Y014445D02*
X001850Y014445D01*
X001878Y014287D02*
X001097Y014287D01*
X001097Y014128D02*
X001806Y014128D01*
X001647Y013970D02*
X001097Y013970D01*
X001097Y013811D02*
X001531Y013811D01*
X001442Y013653D02*
X001097Y013653D01*
X001097Y013494D02*
X001389Y013494D01*
X001389Y013336D02*
X001097Y013336D01*
X001097Y013177D02*
X001454Y013177D01*
X001612Y013019D02*
X001097Y013019D01*
X001097Y012860D02*
X002507Y012860D01*
X002507Y012702D02*
X001097Y012702D01*
X001097Y012543D02*
X002507Y012543D01*
X002507Y012385D02*
X001097Y012385D01*
X001097Y012226D02*
X002507Y012226D01*
X002507Y012068D02*
X001097Y012068D01*
X001097Y011909D02*
X002507Y011909D01*
X002507Y011751D02*
X001097Y011751D01*
X001097Y011592D02*
X002507Y011592D01*
X002507Y011434D02*
X001097Y011434D01*
X001097Y011275D02*
X002507Y011275D01*
X002507Y011117D02*
X001097Y011117D01*
X001097Y010958D02*
X002580Y010958D01*
X002561Y010976D02*
X002663Y010875D01*
X003163Y010375D01*
X003295Y010320D01*
X004007Y010320D01*
X004007Y010108D01*
X004061Y009976D01*
X004311Y009726D01*
X004413Y009625D01*
X004545Y009570D01*
X005301Y009570D01*
X005346Y009525D01*
X005522Y009452D01*
X005712Y009452D01*
X005887Y009525D01*
X006022Y009659D01*
X006094Y009835D01*
X006094Y010025D01*
X006022Y010201D01*
X005887Y010335D01*
X005712Y010408D01*
X005522Y010408D01*
X005346Y010335D01*
X005301Y010290D01*
X004766Y010290D01*
X004727Y010329D01*
X004727Y010333D01*
X004867Y010473D01*
X004867Y010887D01*
X004574Y011180D01*
X004160Y011180D01*
X004020Y011040D01*
X003516Y011040D01*
X003227Y011329D01*
X003227Y013070D01*
X004051Y013070D01*
X004096Y013025D01*
X004272Y012952D01*
X004462Y012952D01*
X004637Y013025D01*
X004772Y013159D01*
X004844Y013335D01*
X004844Y013525D01*
X004772Y013701D01*
X004637Y013835D01*
X004462Y013908D01*
X004272Y013908D01*
X004096Y013835D01*
X004051Y013790D01*
X003182Y013790D01*
X003137Y013835D01*
X002962Y013908D01*
X002772Y013908D01*
X002596Y013835D01*
X002462Y013701D01*
X002389Y013525D01*
X002389Y013335D01*
X002462Y013159D01*
X002507Y013114D01*
X002507Y011108D01*
X002561Y010976D01*
X002738Y010800D02*
X001097Y010800D01*
X001097Y010641D02*
X002897Y010641D01*
X003055Y010483D02*
X001097Y010483D01*
X001097Y010324D02*
X003285Y010324D01*
X003105Y009849D02*
X004189Y009849D01*
X004049Y010007D02*
X001097Y010007D01*
X001097Y009849D02*
X002629Y009849D01*
X002457Y009690D02*
X002194Y009690D01*
X002185Y009702D02*
X002139Y009749D01*
X002086Y009787D01*
X002027Y009817D01*
X001964Y009838D01*
X001900Y009848D01*
X001867Y009848D01*
X001867Y009430D01*
X002284Y009430D01*
X002284Y009463D01*
X002274Y009528D01*
X002254Y009590D01*
X002224Y009649D01*
X002185Y009702D01*
X002273Y009532D02*
X002392Y009532D01*
X002284Y009430D02*
X002284Y009397D01*
X002274Y009332D01*
X002254Y009270D01*
X002224Y009211D01*
X002185Y009158D01*
X002139Y009111D01*
X002086Y009073D01*
X002027Y009043D01*
X001964Y009022D01*
X001900Y009012D01*
X001867Y009012D01*
X001867Y009430D01*
X001867Y009430D01*
X002284Y009430D01*
X002281Y009373D02*
X002389Y009373D01*
X002439Y009215D02*
X002226Y009215D01*
X002053Y009056D02*
X002507Y009056D01*
X002507Y008898D02*
X001097Y008898D01*
X001097Y009056D02*
X001680Y009056D01*
X001706Y009043D02*
X001769Y009022D01*
X001834Y009012D01*
X001867Y009012D01*
X001867Y009430D01*
X001867Y009430D01*
X001867Y009430D01*
X001867Y009848D01*
X001834Y009848D01*
X001769Y009838D01*
X001706Y009817D01*
X001648Y009787D01*
X001594Y009749D01*
X001548Y009702D01*
X001509Y009649D01*
X001479Y009590D01*
X001459Y009528D01*
X001449Y009463D01*
X001449Y009430D01*
X001449Y009397D01*
X001459Y009332D01*
X001479Y009270D01*
X001509Y009211D01*
X001548Y009158D01*
X001594Y009111D01*
X001648Y009073D01*
X001706Y009043D01*
X001867Y009056D02*
X001867Y009056D01*
X001867Y009215D02*
X001867Y009215D01*
X001867Y009373D02*
X001867Y009373D01*
X001867Y009430D02*
X001449Y009430D01*
X001867Y009430D01*
X001867Y009430D01*
X001867Y009532D02*
X001867Y009532D01*
X001867Y009690D02*
X001867Y009690D01*
X001539Y009690D02*
X001097Y009690D01*
X001097Y009532D02*
X001460Y009532D01*
X001453Y009373D02*
X001097Y009373D01*
X001097Y009215D02*
X001508Y009215D01*
X001097Y008739D02*
X002556Y008739D01*
X002707Y008581D02*
X001097Y008581D01*
X001097Y008422D02*
X002866Y008422D01*
X002573Y008105D02*
X004007Y008105D01*
X004007Y007947D02*
X002680Y007947D01*
X002694Y007919D02*
X002649Y008006D01*
X002592Y008086D01*
X002522Y008155D01*
X002443Y008213D01*
X002356Y008257D01*
X002263Y008288D01*
X002184Y008300D01*
X002184Y007748D01*
X002049Y007748D01*
X002049Y008300D01*
X001971Y008288D01*
X001878Y008257D01*
X001790Y008213D01*
X001711Y008155D01*
X001642Y008086D01*
X001584Y008006D01*
X001539Y007919D01*
X001509Y007826D01*
X001497Y007748D01*
X002049Y007748D01*
X002049Y007612D01*
X002184Y007612D01*
X002184Y007060D01*
X002263Y007072D01*
X002356Y007103D01*
X002443Y007147D01*
X002522Y007205D01*
X002592Y007274D01*
X002649Y007354D01*
X002694Y007441D01*
X002724Y007534D01*
X002737Y007612D01*
X002184Y007612D01*
X002184Y007748D01*
X002737Y007748D01*
X002724Y007826D01*
X002694Y007919D01*
X002730Y007788D02*
X004007Y007788D01*
X004007Y007630D02*
X002184Y007630D01*
X002049Y007630D02*
X001097Y007630D01*
X001097Y007788D02*
X001503Y007788D01*
X001553Y007947D02*
X001097Y007947D01*
X001097Y008105D02*
X001661Y008105D01*
X001497Y007612D02*
X001509Y007534D01*
X001539Y007441D01*
X001584Y007354D01*
X001642Y007274D01*
X001711Y007205D01*
X001790Y007147D01*
X001878Y007103D01*
X001971Y007072D01*
X002049Y007060D01*
X002049Y007612D01*
X001497Y007612D01*
X001530Y007471D02*
X001097Y007471D01*
X001097Y007313D02*
X001614Y007313D01*
X001781Y007154D02*
X001097Y007154D01*
X001097Y006996D02*
X004007Y006996D01*
X004007Y007154D02*
X002452Y007154D01*
X002620Y007313D02*
X004007Y007313D01*
X004007Y007471D02*
X002704Y007471D01*
X002184Y007471D02*
X002049Y007471D01*
X002049Y007313D02*
X002184Y007313D01*
X002184Y007154D02*
X002049Y007154D01*
X002049Y007788D02*
X002184Y007788D01*
X002184Y007947D02*
X002049Y007947D01*
X002049Y008105D02*
X002184Y008105D01*
X002184Y008264D02*
X002049Y008264D01*
X001897Y008264D02*
X001097Y008264D01*
X001097Y006837D02*
X004007Y006837D01*
X004007Y006679D02*
X001097Y006679D01*
X001097Y006520D02*
X004043Y006520D01*
X004176Y006362D02*
X002256Y006362D01*
X001977Y006362D02*
X001097Y006362D01*
X001097Y006203D02*
X001674Y006203D01*
X001528Y006045D02*
X001097Y006045D01*
X001097Y005886D02*
X001463Y005886D01*
X001434Y005728D02*
X001097Y005728D01*
X001097Y005569D02*
X001434Y005569D01*
X001489Y005411D02*
X001097Y005411D01*
X001097Y005252D02*
X001579Y005252D01*
X001748Y005094D02*
X001097Y005094D01*
X001097Y004935D02*
X002353Y004935D01*
X002511Y004777D02*
X001097Y004777D01*
X001097Y004618D02*
X002670Y004618D01*
X002828Y004460D02*
X001097Y004460D01*
X001097Y004301D02*
X002987Y004301D01*
X003145Y004143D02*
X001097Y004143D01*
X001097Y003984D02*
X003304Y003984D01*
X003462Y003826D02*
X001097Y003826D01*
X001097Y003667D02*
X003621Y003667D01*
X003238Y003509D02*
X001097Y003509D01*
X001097Y003350D02*
X003079Y003350D01*
X003004Y003192D02*
X001097Y003192D01*
X001097Y003033D02*
X002954Y003033D01*
X002954Y002875D02*
X001097Y002875D01*
X001097Y002716D02*
X002984Y002716D01*
X003050Y002558D02*
X001097Y002558D01*
X001097Y002399D02*
X003190Y002399D01*
X003358Y002241D02*
X001097Y002241D01*
X001097Y002082D02*
X003077Y002082D01*
X002919Y001924D02*
X001097Y001924D01*
X001097Y001765D02*
X001099Y001765D01*
X001634Y001765D02*
X002838Y001765D01*
X002772Y001607D02*
X001926Y001607D01*
X002084Y001448D02*
X002754Y001448D01*
X002754Y001290D02*
X002163Y001290D01*
X002229Y001131D02*
X002782Y001131D01*
X002847Y000973D02*
X002240Y000973D01*
X002240Y000814D02*
X002941Y000814D01*
X005319Y002264D02*
X005470Y002326D01*
X005671Y002526D01*
X005689Y002570D01*
X006715Y002570D01*
X006706Y002567D01*
X006648Y002537D01*
X006594Y002499D01*
X006548Y002452D01*
X006509Y002399D01*
X006479Y002340D01*
X006459Y002278D01*
X006449Y002213D01*
X006449Y002180D01*
X006449Y002147D01*
X006459Y002082D01*
X005656Y002082D01*
X005584Y002154D02*
X005841Y001897D01*
X005980Y001562D01*
X005980Y001198D01*
X005841Y000863D01*
X005638Y000660D01*
X008878Y000660D01*
X008688Y000849D01*
X008451Y000849D01*
X008146Y000976D01*
X007913Y001210D01*
X007786Y001515D01*
X007786Y001845D01*
X007913Y002150D01*
X008082Y002320D01*
X007795Y002320D01*
X007663Y002375D01*
X007561Y002476D01*
X007468Y002570D01*
X007018Y002570D01*
X007027Y002567D01*
X007086Y002537D01*
X007139Y002499D01*
X007185Y002452D01*
X007224Y002399D01*
X007639Y002399D01*
X007480Y002558D02*
X007046Y002558D01*
X007224Y002399D02*
X007254Y002340D01*
X007274Y002278D01*
X007284Y002213D01*
X007284Y002180D01*
X006867Y002180D01*
X006867Y002180D01*
X007284Y002180D01*
X007284Y002147D01*
X007274Y002082D01*
X007884Y002082D01*
X007819Y001924D02*
X007197Y001924D01*
X007185Y001908D02*
X007224Y001961D01*
X007254Y002020D01*
X007274Y002082D01*
X007280Y002241D02*
X008003Y002241D01*
X007786Y001765D02*
X006917Y001765D01*
X006900Y001762D02*
X006964Y001772D01*
X007027Y001793D01*
X007086Y001823D01*
X007139Y001861D01*
X007185Y001908D01*
X006900Y001762D02*
X006867Y001762D01*
X006867Y002180D01*
X006867Y002180D01*
X006867Y001762D01*
X006834Y001762D01*
X006769Y001772D01*
X006706Y001793D01*
X006648Y001823D01*
X006594Y001861D01*
X006548Y001908D01*
X006509Y001961D01*
X006479Y002020D01*
X006459Y002082D01*
X006449Y002180D02*
X006867Y002180D01*
X006867Y002180D01*
X006449Y002180D01*
X006453Y002241D02*
X005375Y002241D01*
X005319Y002264D02*
X005584Y002154D01*
X005543Y002399D02*
X006509Y002399D01*
X006687Y002558D02*
X005684Y002558D01*
X005814Y001924D02*
X006537Y001924D01*
X006816Y001765D02*
X005895Y001765D01*
X005961Y001607D02*
X007786Y001607D01*
X007814Y001448D02*
X005980Y001448D01*
X005980Y001290D02*
X007879Y001290D01*
X007991Y001131D02*
X005952Y001131D01*
X005886Y000973D02*
X008154Y000973D01*
X008724Y000814D02*
X005792Y000814D01*
X006867Y001765D02*
X006867Y001765D01*
X006867Y001924D02*
X006867Y001924D01*
X006867Y002082D02*
X006867Y002082D01*
X007909Y004143D02*
X004163Y004143D01*
X004005Y004301D02*
X008063Y004301D01*
X008328Y004460D02*
X003846Y004460D01*
X003688Y004618D02*
X009257Y004618D01*
X009257Y004777D02*
X005139Y004777D01*
X005153Y005569D02*
X005747Y005569D01*
X005905Y005728D02*
X005213Y005728D01*
X005341Y005886D02*
X006064Y005886D01*
X006222Y006045D02*
X005344Y006045D01*
X005344Y006203D02*
X006381Y006203D01*
X006425Y006362D02*
X005344Y006362D01*
X005322Y006520D02*
X006531Y006520D01*
X007023Y005728D02*
X007786Y005728D01*
X007786Y005569D02*
X006765Y005569D01*
X006606Y005411D02*
X007829Y005411D01*
X007895Y005252D02*
X006448Y005252D01*
X006289Y005094D02*
X008029Y005094D01*
X008245Y004935D02*
X006131Y004935D01*
X004877Y006679D02*
X008109Y006679D01*
X008237Y006520D02*
X009257Y006520D01*
X009257Y006362D02*
X009110Y006362D01*
X009205Y005094D02*
X009257Y005094D01*
X009257Y004935D02*
X008988Y004935D01*
X008905Y004460D02*
X009328Y004460D01*
X009170Y004301D02*
X009487Y004301D01*
X009645Y004143D02*
X009324Y004143D01*
X009390Y003984D02*
X009804Y003984D01*
X009786Y003826D02*
X009447Y003826D01*
X009447Y003667D02*
X009786Y003667D01*
X009789Y003509D02*
X009445Y003509D01*
X009379Y003350D02*
X009854Y003350D01*
X009931Y003192D02*
X009303Y003192D01*
X010188Y004618D02*
X016757Y004618D01*
X016757Y004460D02*
X012905Y004460D01*
X013170Y004301D02*
X016729Y004301D01*
X016570Y004143D02*
X013324Y004143D01*
X013390Y003984D02*
X016412Y003984D01*
X016253Y003826D02*
X013447Y003826D01*
X013447Y003667D02*
X016095Y003667D01*
X015438Y003509D02*
X013445Y003509D01*
X013379Y003350D02*
X015279Y003350D01*
X015204Y003192D02*
X013303Y003192D01*
X013151Y002320D02*
X013973Y002320D01*
X013959Y002278D01*
X013949Y002213D01*
X013949Y002180D01*
X013949Y002147D01*
X013959Y002082D01*
X013349Y002082D01*
X013321Y002150D02*
X013151Y002320D01*
X013231Y002241D02*
X013953Y002241D01*
X013949Y002180D02*
X014367Y002180D01*
X014367Y001762D01*
X014400Y001762D01*
X014464Y001772D01*
X014527Y001793D01*
X014586Y001823D01*
X014639Y001861D01*
X014685Y001908D01*
X014724Y001961D01*
X014754Y002020D01*
X014757Y002030D01*
X014811Y001976D01*
X014913Y001875D01*
X015045Y001820D01*
X015086Y001820D01*
X014979Y001562D01*
X014979Y001198D01*
X015118Y000863D01*
X015320Y000660D01*
X012106Y000660D01*
X012341Y000895D01*
X012451Y000849D01*
X012782Y000849D01*
X013087Y000976D01*
X013321Y001210D01*
X013447Y001515D01*
X013447Y001845D01*
X013321Y002150D01*
X013415Y001924D02*
X014037Y001924D01*
X014048Y001908D02*
X014094Y001861D01*
X014148Y001823D01*
X014206Y001793D01*
X014269Y001772D01*
X014334Y001762D01*
X014367Y001762D01*
X014367Y002180D01*
X014367Y002180D01*
X013949Y002180D01*
X013959Y002082D02*
X013979Y002020D01*
X014009Y001961D01*
X014048Y001908D01*
X014316Y001765D02*
X013447Y001765D01*
X013447Y001607D02*
X014997Y001607D01*
X014979Y001448D02*
X013420Y001448D01*
X013354Y001290D02*
X014979Y001290D01*
X015007Y001131D02*
X013242Y001131D01*
X013079Y000973D02*
X015072Y000973D01*
X015166Y000814D02*
X012260Y000814D01*
X011931Y003192D02*
X011303Y003192D01*
X011379Y003350D02*
X011854Y003350D01*
X011789Y003509D02*
X011445Y003509D01*
X011447Y003667D02*
X011786Y003667D01*
X011786Y003826D02*
X011447Y003826D01*
X011390Y003984D02*
X011844Y003984D01*
X011909Y004143D02*
X011324Y004143D01*
X011170Y004301D02*
X012063Y004301D01*
X012328Y004460D02*
X010905Y004460D01*
X010988Y004935D02*
X012245Y004935D01*
X012029Y005094D02*
X011205Y005094D01*
X011338Y005252D02*
X011895Y005252D01*
X011829Y005411D02*
X011404Y005411D01*
X011447Y005569D02*
X011786Y005569D01*
X011786Y005728D02*
X011447Y005728D01*
X011430Y005886D02*
X011803Y005886D01*
X011869Y006045D02*
X011365Y006045D01*
X011268Y006203D02*
X011965Y006203D01*
X012124Y006362D02*
X011110Y006362D01*
X010977Y006520D02*
X014031Y006520D01*
X013925Y006362D02*
X013110Y006362D01*
X013268Y006203D02*
X013881Y006203D01*
X013722Y006045D02*
X013365Y006045D01*
X013338Y005252D02*
X016631Y005252D01*
X016600Y005411D02*
X014106Y005411D01*
X014265Y005569D02*
X016614Y005569D01*
X016683Y005728D02*
X014523Y005728D01*
X014748Y005886D02*
X016866Y005886D01*
X016722Y005094D02*
X013205Y005094D01*
X012988Y004935D02*
X016757Y004935D01*
X016757Y004777D02*
X010029Y004777D01*
X009977Y004935D02*
X010245Y004935D01*
X010029Y005094D02*
X009977Y005094D01*
X010977Y006679D02*
X012609Y006679D01*
X012451Y006837D02*
X010977Y006837D01*
X010977Y006996D02*
X012292Y006996D01*
X012134Y007154D02*
X010977Y007154D01*
X010977Y007313D02*
X011975Y007313D01*
X011817Y007471D02*
X010977Y007471D01*
X011048Y007630D02*
X011658Y007630D01*
X011500Y007788D02*
X011118Y007788D01*
X011134Y007947D02*
X011341Y007947D01*
X011183Y008105D02*
X011104Y008105D01*
X011024Y008264D02*
X011015Y008264D01*
X009507Y008898D02*
X009094Y008898D01*
X009094Y008835D02*
X009022Y008659D01*
X008887Y008525D01*
X008712Y008452D01*
X008522Y008452D01*
X008346Y008525D01*
X008212Y008659D01*
X008139Y008835D01*
X008139Y009025D01*
X008212Y009201D01*
X008346Y009335D01*
X008522Y009408D01*
X008712Y009408D01*
X008887Y009335D01*
X009022Y009201D01*
X009094Y009025D01*
X009094Y008835D01*
X009055Y008739D02*
X009417Y008739D01*
X009258Y008581D02*
X008943Y008581D01*
X009100Y008422D02*
X005618Y008422D01*
X005274Y008264D02*
X004727Y008264D01*
X004727Y008105D02*
X005172Y008105D01*
X005139Y007947D02*
X004727Y007947D01*
X004727Y007788D02*
X005158Y007788D01*
X005241Y007630D02*
X004727Y007630D01*
X004727Y007471D02*
X005476Y007471D01*
X005757Y007471D02*
X007317Y007471D01*
X007475Y007313D02*
X004727Y007313D01*
X004727Y007154D02*
X007634Y007154D01*
X007792Y006996D02*
X004727Y006996D01*
X004727Y006837D02*
X007951Y006837D01*
X008018Y007788D02*
X008139Y007788D01*
X008139Y007947D02*
X007859Y007947D01*
X007701Y008105D02*
X008139Y008105D01*
X008159Y008264D02*
X007502Y008264D01*
X008139Y008898D02*
X006094Y008898D01*
X006082Y009056D02*
X008152Y009056D01*
X008225Y009215D02*
X006008Y009215D01*
X005796Y009373D02*
X008438Y009373D01*
X008522Y009452D02*
X008346Y009525D01*
X008212Y009659D01*
X008139Y009835D01*
X008139Y010025D01*
X008212Y010201D01*
X008346Y010335D01*
X008522Y010408D01*
X008712Y010408D01*
X008887Y010335D01*
X009022Y010201D01*
X009094Y010025D01*
X009094Y009835D01*
X009022Y009659D01*
X008887Y009525D01*
X008712Y009452D01*
X008522Y009452D01*
X008339Y009532D02*
X005894Y009532D01*
X006034Y009690D02*
X008199Y009690D01*
X008139Y009849D02*
X006094Y009849D01*
X006094Y010007D02*
X008139Y010007D01*
X008197Y010166D02*
X006036Y010166D01*
X005898Y010324D02*
X008335Y010324D01*
X008456Y010543D02*
X008519Y010522D01*
X008584Y010512D01*
X008617Y010512D01*
X008650Y010512D01*
X008714Y010522D01*
X008777Y010543D01*
X008836Y010573D01*
X008889Y010611D01*
X008935Y010658D01*
X008974Y010711D01*
X009004Y010770D01*
X009024Y010832D01*
X009034Y010897D01*
X009034Y010930D01*
X008617Y010930D01*
X009034Y010930D01*
X009034Y010963D01*
X009024Y011028D01*
X009004Y011090D01*
X008974Y011149D01*
X008935Y011202D01*
X008889Y011249D01*
X008836Y011287D01*
X008777Y011317D01*
X008714Y011338D01*
X008650Y011348D01*
X008617Y011348D01*
X008617Y010930D01*
X008617Y010930D01*
X008617Y010512D01*
X008617Y010930D01*
X008617Y010930D01*
X008617Y010930D01*
X008617Y011348D01*
X008584Y011348D01*
X008519Y011338D01*
X008456Y011317D01*
X008398Y011287D01*
X008344Y011249D01*
X008298Y011202D01*
X008259Y011149D01*
X008229Y011090D01*
X008209Y011028D01*
X008199Y010963D01*
X008199Y010930D01*
X008199Y010897D01*
X008209Y010832D01*
X008229Y010770D01*
X008259Y010711D01*
X008298Y010658D01*
X008344Y010611D01*
X008398Y010573D01*
X008456Y010543D01*
X008315Y010641D02*
X006003Y010641D01*
X006022Y010659D02*
X006094Y010835D01*
X006094Y011025D01*
X006022Y011201D01*
X005977Y011246D01*
X005977Y012252D01*
X005922Y012384D01*
X005821Y012485D01*
X005571Y012735D01*
X005438Y012790D01*
X004682Y012790D01*
X004637Y012835D01*
X004462Y012908D01*
X004272Y012908D01*
X004096Y012835D01*
X003962Y012701D01*
X003889Y012525D01*
X003889Y012335D01*
X003962Y012159D01*
X004096Y012025D01*
X004272Y011952D01*
X004462Y011952D01*
X004637Y012025D01*
X004682Y012070D01*
X005218Y012070D01*
X005257Y012031D01*
X005257Y011246D01*
X005212Y011201D01*
X005139Y011025D01*
X005139Y010835D01*
X005212Y010659D01*
X005346Y010525D01*
X005522Y010452D01*
X005712Y010452D01*
X005887Y010525D01*
X006022Y010659D01*
X006080Y010800D02*
X008220Y010800D01*
X008199Y010930D02*
X008617Y010930D01*
X008617Y010930D01*
X008199Y010930D01*
X008199Y010958D02*
X006094Y010958D01*
X006057Y011117D02*
X008243Y011117D01*
X008381Y011275D02*
X005977Y011275D01*
X005977Y011434D02*
X009406Y011434D01*
X009367Y011592D02*
X005977Y011592D01*
X005977Y011751D02*
X009367Y011751D01*
X009379Y011909D02*
X005977Y011909D01*
X005977Y012068D02*
X008053Y012068D01*
X007934Y012226D02*
X005977Y012226D01*
X005921Y012385D02*
X007889Y012385D01*
X007745Y012543D02*
X005763Y012543D01*
X005604Y012702D02*
X007586Y012702D01*
X007507Y012860D02*
X004577Y012860D01*
X004622Y013019D02*
X007507Y013019D01*
X007507Y013177D02*
X004779Y013177D01*
X004844Y013336D02*
X007507Y013336D01*
X007507Y013494D02*
X004844Y013494D01*
X004792Y013653D02*
X007507Y013653D01*
X007507Y013811D02*
X004661Y013811D01*
X004527Y014043D02*
X004586Y014073D01*
X004639Y014111D01*
X004685Y014158D01*
X004724Y014211D01*
X004754Y014270D01*
X004774Y014332D01*
X004784Y014397D01*
X004784Y014430D01*
X004367Y014430D01*
X004784Y014430D01*
X004784Y014463D01*
X004774Y014528D01*
X004754Y014590D01*
X004724Y014649D01*
X004685Y014702D01*
X004639Y014749D01*
X004586Y014787D01*
X004527Y014817D01*
X004464Y014838D01*
X004400Y014848D01*
X004367Y014848D01*
X004367Y014430D01*
X004367Y014430D01*
X004367Y014012D01*
X004400Y014012D01*
X004464Y014022D01*
X004527Y014043D01*
X004656Y014128D02*
X007507Y014128D01*
X007507Y013970D02*
X002665Y013970D01*
X002727Y014128D02*
X004078Y014128D01*
X004094Y014111D02*
X004048Y014158D01*
X004009Y014211D01*
X003979Y014270D01*
X003959Y014332D01*
X003949Y014397D01*
X003949Y014430D01*
X004367Y014430D01*
X004367Y014430D01*
X004367Y014430D01*
X004367Y014012D01*
X004334Y014012D01*
X004269Y014022D01*
X004206Y014043D01*
X004148Y014073D01*
X004094Y014111D01*
X003974Y014287D02*
X002855Y014287D01*
X002884Y014445D02*
X003949Y014445D01*
X003949Y014430D02*
X004367Y014430D01*
X004367Y014848D01*
X004334Y014848D01*
X004269Y014838D01*
X004206Y014817D01*
X004148Y014787D01*
X004094Y014749D01*
X004048Y014702D01*
X004009Y014649D01*
X003979Y014590D01*
X003959Y014528D01*
X003949Y014463D01*
X003949Y014430D01*
X003986Y014604D02*
X002884Y014604D01*
X002884Y014762D02*
X004113Y014762D01*
X004367Y014762D02*
X004367Y014762D01*
X004367Y014604D02*
X004367Y014604D01*
X004367Y014445D02*
X004367Y014445D01*
X004367Y014430D02*
X004367Y014430D01*
X004367Y014287D02*
X004367Y014287D01*
X004367Y014128D02*
X004367Y014128D01*
X004072Y013811D02*
X003161Y013811D01*
X002572Y013811D02*
X002507Y013811D01*
X002442Y013653D02*
X002348Y013653D01*
X002344Y013494D02*
X002389Y013494D01*
X002389Y013336D02*
X002344Y013336D01*
X002279Y013177D02*
X002454Y013177D01*
X002507Y013019D02*
X002122Y013019D01*
X003227Y013019D02*
X004112Y013019D01*
X004156Y012860D02*
X003227Y012860D01*
X003227Y012702D02*
X003962Y012702D01*
X003896Y012543D02*
X003227Y012543D01*
X003227Y012385D02*
X003889Y012385D01*
X003934Y012226D02*
X003227Y012226D01*
X003227Y012068D02*
X004053Y012068D01*
X004680Y012068D02*
X005220Y012068D01*
X005257Y011909D02*
X003227Y011909D01*
X003227Y011751D02*
X005257Y011751D01*
X005257Y011592D02*
X003227Y011592D01*
X003227Y011434D02*
X005257Y011434D01*
X005257Y011275D02*
X003281Y011275D01*
X003439Y011117D02*
X004096Y011117D01*
X004637Y011117D02*
X005177Y011117D01*
X005139Y010958D02*
X004796Y010958D01*
X004867Y010800D02*
X005154Y010800D01*
X005230Y010641D02*
X004867Y010641D01*
X004867Y010483D02*
X005448Y010483D01*
X005335Y010324D02*
X004732Y010324D01*
X004348Y009690D02*
X003276Y009690D01*
X003342Y009532D02*
X005339Y009532D01*
X005438Y009373D02*
X003344Y009373D01*
X003295Y009215D02*
X005225Y009215D01*
X005152Y009056D02*
X004698Y009056D01*
X004036Y009056D02*
X003250Y009056D01*
X004007Y008264D02*
X002337Y008264D01*
X001097Y010166D02*
X004007Y010166D01*
X005785Y010483D02*
X009660Y010483D01*
X009537Y010324D02*
X008898Y010324D01*
X009036Y010166D02*
X009507Y010166D01*
X009507Y010007D02*
X009094Y010007D01*
X009094Y009849D02*
X009507Y009849D01*
X009507Y009690D02*
X009034Y009690D01*
X008894Y009532D02*
X009507Y009532D01*
X009507Y009373D02*
X008796Y009373D01*
X009008Y009215D02*
X009507Y009215D01*
X009507Y009056D02*
X009082Y009056D01*
X008290Y008581D02*
X005943Y008581D01*
X006055Y008739D02*
X008179Y008739D01*
X008617Y010641D02*
X008617Y010641D01*
X008617Y010800D02*
X008617Y010800D01*
X008617Y010958D02*
X008617Y010958D01*
X008617Y011117D02*
X008617Y011117D01*
X008617Y011275D02*
X008617Y011275D01*
X008853Y011275D02*
X009507Y011275D01*
X009507Y011117D02*
X008991Y011117D01*
X009034Y010958D02*
X009580Y010958D01*
X009738Y010800D02*
X009014Y010800D01*
X008919Y010641D02*
X009819Y010641D01*
X009220Y012068D02*
X008680Y012068D01*
X008799Y012226D02*
X009062Y012226D01*
X008903Y012385D02*
X008844Y012385D01*
X007521Y014287D02*
X004759Y014287D01*
X004784Y014445D02*
X007623Y014445D01*
X007781Y014604D02*
X004747Y014604D01*
X004620Y014762D02*
X007978Y014762D01*
X007842Y015396D02*
X010574Y015396D01*
X010732Y015555D02*
X008000Y015555D01*
X008159Y015713D02*
X010891Y015713D01*
X011412Y016030D02*
X008476Y016030D01*
X008634Y016189D02*
X011389Y016189D01*
X011419Y016347D02*
X009075Y016347D01*
X009201Y016506D02*
X011516Y016506D01*
X011499Y015872D02*
X008317Y015872D01*
X007364Y016347D02*
X006406Y016347D01*
X006557Y016506D02*
X007237Y016506D01*
X007199Y016664D02*
X006557Y016664D01*
X006557Y016823D02*
X007224Y016823D01*
X007327Y016981D02*
X006438Y016981D01*
X006117Y016664D02*
X006117Y016664D01*
X006117Y016506D02*
X006117Y016506D01*
X006117Y016347D02*
X006117Y016347D01*
X005962Y018883D02*
X005727Y018883D01*
X005727Y019042D02*
X005829Y019042D01*
X004367Y023163D02*
X001097Y023163D01*
X001097Y023321D02*
X004380Y023321D01*
X004449Y023480D02*
X001097Y023480D01*
X001097Y023638D02*
X004642Y023638D01*
X004188Y024820D02*
X004321Y024875D01*
X004660Y025214D01*
X004767Y025170D01*
X004966Y025170D01*
X005150Y025246D01*
X005291Y025387D01*
X005367Y025571D01*
X005443Y025387D01*
X005583Y025246D01*
X005767Y025170D01*
X005966Y025170D01*
X006150Y025246D01*
X006291Y025387D01*
X006367Y025571D01*
X006443Y025387D01*
X006583Y025246D01*
X006767Y025170D01*
X006966Y025170D01*
X007150Y025246D01*
X007291Y025387D01*
X007367Y025571D01*
X007443Y025387D01*
X007583Y025246D01*
X007767Y025170D01*
X007966Y025170D01*
X008150Y025246D01*
X008291Y025387D01*
X008367Y025571D01*
X008367Y026289D01*
X008291Y026473D01*
X008150Y026614D01*
X007966Y026690D01*
X007767Y026690D01*
X007583Y026614D01*
X007443Y026473D01*
X007367Y026289D01*
X007367Y025571D01*
X007367Y026289D01*
X007291Y026473D01*
X007150Y026614D01*
X006966Y026690D01*
X006886Y026690D01*
X007266Y027070D01*
X007520Y027070D01*
X007660Y026930D01*
X008074Y026930D01*
X008367Y027223D01*
X008367Y027637D01*
X008074Y027930D01*
X007660Y027930D01*
X007520Y027790D01*
X007045Y027790D01*
X006913Y027735D01*
X006811Y027634D01*
X005868Y026690D01*
X005767Y026690D01*
X005583Y026614D01*
X005443Y026473D01*
X005367Y026289D01*
X005291Y026473D01*
X005150Y026614D01*
X004966Y026690D01*
X004767Y026690D01*
X004583Y026614D01*
X004443Y026473D01*
X004367Y026289D01*
X004367Y025939D01*
X003968Y025540D01*
X001097Y025540D01*
X001097Y025382D02*
X002309Y025382D01*
X002311Y025384D02*
X001608Y024680D01*
X001410Y024680D01*
X001117Y024387D01*
X001117Y023973D01*
X001410Y023680D01*
X001824Y023680D01*
X002117Y023973D01*
X002117Y024171D01*
X002766Y024820D01*
X004188Y024820D01*
X004352Y024906D02*
X013382Y024906D01*
X013358Y024930D02*
X013413Y024875D01*
X013545Y024820D01*
X017938Y024820D01*
X018071Y024875D01*
X018172Y024976D01*
X018699Y025503D01*
X018699Y025430D01*
X018699Y025257D01*
X018944Y025012D01*
X019117Y025012D01*
X019290Y025012D01*
X019534Y025257D01*
X019534Y025430D01*
X019534Y025603D01*
X019290Y025848D01*
X019117Y025848D01*
X019117Y025430D01*
X019534Y025430D01*
X019117Y025430D01*
X019117Y025430D01*
X019117Y025430D01*
X019117Y025012D01*
X019117Y025430D01*
X019117Y025430D01*
X019117Y025848D01*
X019044Y025848D01*
X019148Y025952D01*
X019315Y025952D01*
X019594Y026232D01*
X019594Y026628D01*
X019315Y026908D01*
X018919Y026908D01*
X018639Y026628D01*
X018639Y026461D01*
X017718Y025540D01*
X013867Y025540D01*
X013867Y025637D01*
X013574Y025930D01*
X013160Y025930D01*
X013020Y025790D01*
X012516Y025790D01*
X012367Y025939D01*
X012367Y026289D01*
X012291Y026473D01*
X012194Y026570D01*
X013218Y026570D01*
X014163Y025625D01*
X014295Y025570D01*
X015688Y025570D01*
X015821Y025625D01*
X015922Y025726D01*
X015964Y025768D01*
X015993Y025739D01*
X016081Y025702D01*
X016652Y025702D01*
X016740Y025739D01*
X016808Y025806D01*
X016844Y025894D01*
X016844Y026466D01*
X016808Y026554D01*
X016740Y026621D01*
X016652Y026658D01*
X016081Y026658D01*
X015993Y026621D01*
X015925Y026554D01*
X015920Y026540D01*
X015795Y026540D01*
X015663Y026485D01*
X015468Y026290D01*
X015326Y026290D01*
X015344Y026335D01*
X015344Y026399D01*
X015821Y026875D01*
X015922Y026976D01*
X015977Y027108D01*
X015977Y028320D01*
X016367Y028320D01*
X016413Y028210D01*
X016646Y027976D01*
X016951Y027849D01*
X017282Y027849D01*
X017587Y027976D01*
X017821Y028210D01*
X017947Y028515D01*
X017947Y028845D01*
X017821Y029150D01*
X017587Y029384D01*
X017282Y029511D01*
X016951Y029511D01*
X016646Y029384D01*
X016413Y029150D01*
X016367Y029040D01*
X015898Y029040D01*
X015852Y029150D01*
X015619Y029384D01*
X015313Y029511D01*
X014983Y029511D01*
X014678Y029384D01*
X014444Y029150D01*
X014318Y028845D01*
X014318Y028515D01*
X014444Y028210D01*
X014678Y027976D01*
X014983Y027849D01*
X015257Y027849D01*
X015257Y027332D01*
X015254Y027340D01*
X015224Y027399D01*
X015185Y027452D01*
X015139Y027499D01*
X015086Y027537D01*
X015027Y027567D01*
X014964Y027588D01*
X014900Y027598D01*
X014867Y027598D01*
X014867Y027180D01*
X014867Y027180D01*
X014867Y027598D01*
X014834Y027598D01*
X014769Y027588D01*
X014706Y027567D01*
X014648Y027537D01*
X014594Y027499D01*
X014548Y027452D01*
X014509Y027399D01*
X014479Y027340D01*
X014459Y027278D01*
X014449Y027213D01*
X014449Y027180D01*
X014449Y027147D01*
X014459Y027082D01*
X014479Y027020D01*
X014509Y026961D01*
X014548Y026908D01*
X014594Y026861D01*
X014618Y026844D01*
X014596Y026835D01*
X014462Y026701D01*
X014389Y026525D01*
X014389Y026417D01*
X013672Y027134D01*
X013571Y027235D01*
X013438Y027290D01*
X011795Y027290D01*
X011663Y027235D01*
X011073Y026646D01*
X010966Y026690D01*
X010767Y026690D01*
X010583Y026614D01*
X010443Y026473D01*
X010367Y026289D01*
X010367Y025571D01*
X010443Y025387D01*
X010583Y025246D01*
X010767Y025170D01*
X010966Y025170D01*
X011150Y025246D01*
X011291Y025387D01*
X011367Y025571D01*
X011443Y025387D01*
X011583Y025246D01*
X011767Y025170D01*
X011966Y025170D01*
X012073Y025214D01*
X012163Y025125D01*
X012295Y025070D01*
X013020Y025070D01*
X013160Y024930D01*
X013358Y024930D01*
X013025Y025065D02*
X004510Y025065D01*
X004126Y025699D02*
X001097Y025699D01*
X001097Y025857D02*
X001317Y025857D01*
X001434Y025740D02*
X001177Y025998D01*
X001177Y026180D01*
X001617Y026180D01*
X002057Y026180D01*
X002057Y026362D01*
X001799Y026620D01*
X001617Y026620D01*
X001617Y026180D01*
X001617Y026180D01*
X002057Y026180D01*
X002057Y025998D01*
X001799Y025740D01*
X001617Y025740D01*
X001617Y026180D01*
X001617Y026180D01*
X001617Y026180D01*
X001617Y026620D01*
X001434Y026620D01*
X001177Y026362D01*
X001177Y026180D01*
X001617Y026180D01*
X001617Y025740D01*
X001434Y025740D01*
X001617Y025857D02*
X001617Y025857D01*
X001617Y026016D02*
X001617Y026016D01*
X001617Y026174D02*
X001617Y026174D01*
X001617Y026180D02*
X001617Y026180D01*
X001617Y026333D02*
X001617Y026333D01*
X001617Y026491D02*
X001617Y026491D01*
X001305Y026491D02*
X001097Y026491D01*
X001097Y026333D02*
X001177Y026333D01*
X001177Y026174D02*
X001097Y026174D01*
X001097Y026016D02*
X001177Y026016D01*
X001097Y026650D02*
X004670Y026650D01*
X004461Y026491D02*
X003678Y026491D01*
X003807Y026362D02*
X003807Y026180D01*
X003367Y026180D01*
X003367Y026180D01*
X003807Y026180D01*
X003807Y025998D01*
X003549Y025740D01*
X003367Y025740D01*
X003367Y026180D01*
X003367Y026180D01*
X003367Y026620D01*
X003549Y026620D01*
X003807Y026362D01*
X003807Y026333D02*
X004385Y026333D01*
X004367Y026174D02*
X003807Y026174D01*
X003807Y026016D02*
X004367Y026016D01*
X004285Y025857D02*
X003666Y025857D01*
X003367Y025857D02*
X003367Y025857D01*
X003367Y025740D02*
X003367Y026180D01*
X003367Y026180D01*
X003367Y026620D01*
X003184Y026620D01*
X002927Y026362D01*
X002927Y026180D01*
X002927Y025998D01*
X003184Y025740D01*
X003367Y025740D01*
X003367Y026016D02*
X003367Y026016D01*
X003367Y026174D02*
X003367Y026174D01*
X003367Y026180D02*
X002927Y026180D01*
X003367Y026180D01*
X003367Y026180D01*
X003367Y026333D02*
X003367Y026333D01*
X003367Y026491D02*
X003367Y026491D01*
X003055Y026491D02*
X001928Y026491D01*
X002057Y026333D02*
X002927Y026333D01*
X002927Y026174D02*
X002057Y026174D01*
X002057Y026016D02*
X002927Y026016D01*
X003067Y025857D02*
X001916Y025857D01*
X002311Y025384D02*
X002413Y025485D01*
X002545Y025540D01*
X003968Y025540D01*
X003665Y024589D02*
X018639Y024589D01*
X018759Y024748D02*
X002693Y024748D01*
X002535Y024589D02*
X003069Y024589D01*
X002910Y024431D02*
X002376Y024431D01*
X002218Y024272D02*
X002867Y024272D01*
X002867Y024114D02*
X002117Y024114D01*
X002099Y023955D02*
X002885Y023955D01*
X003043Y023797D02*
X001940Y023797D01*
X001293Y023797D02*
X001097Y023797D01*
X001097Y023955D02*
X001135Y023955D01*
X001117Y024114D02*
X001097Y024114D01*
X001097Y024272D02*
X001117Y024272D01*
X001097Y024431D02*
X001160Y024431D01*
X001097Y024589D02*
X001319Y024589D01*
X001097Y024748D02*
X001675Y024748D01*
X001834Y024906D02*
X001097Y024906D01*
X001097Y025065D02*
X001992Y025065D01*
X002151Y025223D02*
X001097Y025223D01*
X001097Y026808D02*
X005986Y026808D01*
X006144Y026967D02*
X001097Y026967D01*
X001097Y027125D02*
X006303Y027125D01*
X006461Y027284D02*
X001097Y027284D01*
X001097Y027442D02*
X006620Y027442D01*
X006778Y027601D02*
X001097Y027601D01*
X001097Y027759D02*
X006970Y027759D01*
X006556Y027976D02*
X006789Y028210D01*
X006916Y028515D01*
X006916Y028845D01*
X006789Y029150D01*
X006556Y029384D01*
X006250Y029511D01*
X005920Y029511D01*
X005615Y029384D01*
X005381Y029150D01*
X005255Y028845D01*
X005255Y028515D01*
X005381Y028210D01*
X005615Y027976D01*
X005920Y027849D01*
X006250Y027849D01*
X006556Y027976D01*
X006656Y028076D02*
X009712Y028076D01*
X009684Y027870D02*
X009427Y027612D01*
X009427Y027430D01*
X009427Y027248D01*
X009684Y026990D01*
X009867Y026990D01*
X009867Y027430D01*
X009867Y027870D01*
X009684Y027870D01*
X009573Y027759D02*
X008245Y027759D01*
X008367Y027601D02*
X009427Y027601D01*
X009427Y027442D02*
X008367Y027442D01*
X008367Y027284D02*
X009427Y027284D01*
X009427Y027430D02*
X009867Y027430D01*
X009867Y027430D01*
X009427Y027430D01*
X009549Y027125D02*
X008269Y027125D01*
X008110Y026967D02*
X010438Y026967D01*
X010389Y027125D02*
X010184Y027125D01*
X009867Y027125D02*
X009867Y027125D01*
X009867Y027284D02*
X009867Y027284D01*
X009867Y027442D02*
X009867Y027442D01*
X009867Y027601D02*
X009867Y027601D01*
X009867Y027759D02*
X009867Y027759D01*
X009870Y027918D02*
X008086Y027918D01*
X007647Y027918D02*
X006415Y027918D01*
X006800Y028235D02*
X009553Y028235D01*
X009395Y028393D02*
X006865Y028393D01*
X006916Y028552D02*
X009236Y028552D01*
X009779Y029027D02*
X009885Y029027D01*
X009937Y028869D02*
X010004Y028869D01*
X010096Y028710D02*
X010184Y028710D01*
X010254Y028552D02*
X014318Y028552D01*
X014318Y028710D02*
X013017Y028710D01*
X013198Y028869D02*
X014327Y028869D01*
X014393Y029027D02*
X013317Y029027D01*
X013383Y029186D02*
X014479Y029186D01*
X014638Y029344D02*
X013416Y029344D01*
X013416Y029503D02*
X014964Y029503D01*
X015333Y029503D02*
X016932Y029503D01*
X016606Y029344D02*
X015659Y029344D01*
X015817Y029186D02*
X016448Y029186D01*
X016402Y028235D02*
X015977Y028235D01*
X015977Y028076D02*
X016546Y028076D01*
X016787Y027918D02*
X015977Y027918D01*
X015977Y027759D02*
X020137Y027759D01*
X020137Y027601D02*
X015977Y027601D01*
X015977Y027442D02*
X020137Y027442D01*
X020137Y027284D02*
X015977Y027284D01*
X015977Y027125D02*
X020137Y027125D01*
X020137Y026967D02*
X015912Y026967D01*
X015821Y026875D02*
X015821Y026875D01*
X015754Y026808D02*
X018819Y026808D01*
X018661Y026650D02*
X016672Y026650D01*
X016834Y026491D02*
X017087Y026491D01*
X017094Y026499D02*
X017048Y026452D01*
X017009Y026399D01*
X016979Y026340D01*
X016959Y026278D01*
X016949Y026213D01*
X016949Y026180D01*
X016949Y026147D01*
X016959Y026082D01*
X016979Y026020D01*
X017009Y025961D01*
X017048Y025908D01*
X017094Y025861D01*
X017148Y025823D01*
X017206Y025793D01*
X017269Y025772D01*
X017334Y025762D01*
X017367Y025762D01*
X017400Y025762D01*
X017464Y025772D01*
X017527Y025793D01*
X017586Y025823D01*
X017639Y025861D01*
X017685Y025908D01*
X017724Y025961D01*
X017754Y026020D01*
X017774Y026082D01*
X017784Y026147D01*
X017784Y026180D01*
X017367Y026180D01*
X017784Y026180D01*
X017784Y026213D01*
X017774Y026278D01*
X017754Y026340D01*
X017724Y026399D01*
X017685Y026452D01*
X017639Y026499D01*
X017586Y026537D01*
X017527Y026567D01*
X017464Y026588D01*
X017400Y026598D01*
X017367Y026598D01*
X017367Y026180D01*
X017367Y026180D01*
X017367Y025762D01*
X017367Y026180D01*
X017367Y026180D01*
X017367Y026180D01*
X017367Y026598D01*
X017334Y026598D01*
X017269Y026588D01*
X017206Y026567D01*
X017148Y026537D01*
X017094Y026499D01*
X016977Y026333D02*
X016844Y026333D01*
X016844Y026174D02*
X016949Y026174D01*
X016949Y026180D02*
X017367Y026180D01*
X017367Y026180D01*
X016949Y026180D01*
X016982Y026016D02*
X016844Y026016D01*
X016829Y025857D02*
X017100Y025857D01*
X017367Y025857D02*
X017367Y025857D01*
X017367Y026016D02*
X017367Y026016D01*
X017367Y026174D02*
X017367Y026174D01*
X017367Y026333D02*
X017367Y026333D01*
X017367Y026491D02*
X017367Y026491D01*
X017646Y026491D02*
X018639Y026491D01*
X018510Y026333D02*
X017756Y026333D01*
X017784Y026174D02*
X018352Y026174D01*
X018193Y026016D02*
X017752Y026016D01*
X017633Y025857D02*
X018035Y025857D01*
X017876Y025699D02*
X015894Y025699D01*
X015922Y025726D02*
X015922Y025726D01*
X015510Y026333D02*
X015343Y026333D01*
X015437Y026491D02*
X015677Y026491D01*
X015595Y026650D02*
X016061Y026650D01*
X015257Y027442D02*
X015193Y027442D01*
X015257Y027601D02*
X011100Y027601D01*
X010974Y027759D02*
X015257Y027759D01*
X014867Y027442D02*
X014867Y027442D01*
X014867Y027284D02*
X014867Y027284D01*
X014867Y027180D02*
X014867Y027180D01*
X014449Y027180D01*
X014867Y027180D01*
X014452Y027125D02*
X013681Y027125D01*
X013839Y026967D02*
X014507Y026967D01*
X014569Y026808D02*
X013998Y026808D01*
X014156Y026650D02*
X014440Y026650D01*
X014389Y026491D02*
X014315Y026491D01*
X013931Y025857D02*
X013647Y025857D01*
X013772Y026016D02*
X012367Y026016D01*
X012367Y026174D02*
X013614Y026174D01*
X013455Y026333D02*
X012349Y026333D01*
X012273Y026491D02*
X013297Y026491D01*
X013087Y025857D02*
X012449Y025857D01*
X011639Y025223D02*
X011094Y025223D01*
X011285Y025382D02*
X011448Y025382D01*
X011379Y025540D02*
X011354Y025540D01*
X011367Y025571D02*
X011367Y025921D01*
X011367Y025571D01*
X011367Y025699D02*
X011367Y025699D01*
X011367Y025857D02*
X011367Y025857D01*
X011367Y025921D02*
X011367Y025921D01*
X011077Y026650D02*
X011064Y026650D01*
X011170Y026808D02*
X011236Y026808D01*
X011295Y026967D02*
X011394Y026967D01*
X011344Y027125D02*
X011553Y027125D01*
X011341Y027284D02*
X011779Y027284D01*
X011275Y027442D02*
X014541Y027442D01*
X014461Y027284D02*
X013454Y027284D01*
X014368Y028393D02*
X010413Y028393D01*
X010571Y028235D02*
X014434Y028235D01*
X014578Y028076D02*
X010730Y028076D01*
X010888Y027918D02*
X014819Y027918D01*
X013388Y029661D02*
X017877Y029661D01*
X018035Y029503D02*
X017301Y029503D01*
X017560Y029978D02*
X013212Y029978D01*
X013323Y029820D02*
X017718Y029820D01*
X017627Y029344D02*
X018194Y029344D01*
X018352Y029186D02*
X017786Y029186D01*
X017872Y029027D02*
X018330Y029027D01*
X018264Y028869D02*
X017938Y028869D01*
X017947Y028710D02*
X018255Y028710D01*
X018255Y028552D02*
X017947Y028552D01*
X017897Y028393D02*
X018305Y028393D01*
X018371Y028235D02*
X017831Y028235D01*
X017687Y028076D02*
X018515Y028076D01*
X018756Y027918D02*
X017446Y027918D01*
X018736Y029820D02*
X019242Y029820D01*
X019108Y029978D02*
X018578Y029978D01*
X018419Y030137D02*
X019043Y030137D01*
X018993Y030295D02*
X018261Y030295D01*
X018102Y030454D02*
X018993Y030454D01*
X018996Y030612D02*
X017944Y030612D01*
X018895Y029661D02*
X019440Y029661D01*
X019270Y029503D02*
X020137Y029503D01*
X020137Y029344D02*
X019596Y029344D01*
X019754Y029186D02*
X020137Y029186D01*
X020137Y029027D02*
X019840Y029027D01*
X019906Y028869D02*
X020137Y028869D01*
X020137Y028710D02*
X019916Y028710D01*
X019916Y028552D02*
X020137Y028552D01*
X020137Y028393D02*
X019865Y028393D01*
X019800Y028235D02*
X020137Y028235D01*
X020137Y028076D02*
X019656Y028076D01*
X019415Y027918D02*
X020137Y027918D01*
X020137Y026808D02*
X019414Y026808D01*
X019573Y026650D02*
X020137Y026650D01*
X020137Y026491D02*
X019594Y026491D01*
X019594Y026333D02*
X020137Y026333D01*
X020137Y026174D02*
X019536Y026174D01*
X019378Y026016D02*
X020137Y026016D01*
X020137Y025857D02*
X019053Y025857D01*
X019117Y025699D02*
X019117Y025699D01*
X019117Y025540D02*
X019117Y025540D01*
X019117Y025430D02*
X019117Y025430D01*
X018699Y025430D01*
X019117Y025430D01*
X019117Y025382D02*
X019117Y025382D01*
X019117Y025223D02*
X019117Y025223D01*
X019117Y025065D02*
X019117Y025065D01*
X019342Y025065D02*
X020137Y025065D01*
X020137Y025223D02*
X019501Y025223D01*
X019534Y025382D02*
X020137Y025382D01*
X020137Y025540D02*
X019534Y025540D01*
X019439Y025699D02*
X020137Y025699D01*
X020137Y024906D02*
X019316Y024906D01*
X019475Y024748D02*
X020137Y024748D01*
X020137Y024589D02*
X019594Y024589D01*
X019594Y024431D02*
X020137Y024431D01*
X020137Y024272D02*
X019594Y024272D01*
X019476Y024114D02*
X020137Y024114D01*
X020137Y023955D02*
X019317Y023955D01*
X019227Y023797D02*
X020137Y023797D01*
X020137Y023638D02*
X019227Y023638D01*
X019227Y023480D02*
X020137Y023480D01*
X020137Y023321D02*
X019227Y023321D01*
X019227Y023163D02*
X020137Y023163D01*
X020137Y023004D02*
X019227Y023004D01*
X019227Y022846D02*
X020137Y022846D01*
X020137Y022687D02*
X019227Y022687D01*
X019227Y022529D02*
X020137Y022529D01*
X020137Y022370D02*
X019227Y022370D01*
X019227Y022212D02*
X020137Y022212D01*
X020137Y022053D02*
X019227Y022053D01*
X019227Y021895D02*
X020137Y021895D01*
X020137Y021736D02*
X019227Y021736D01*
X019227Y021578D02*
X020137Y021578D01*
X020137Y021419D02*
X019227Y021419D01*
X019227Y021261D02*
X020137Y021261D01*
X020137Y021102D02*
X019227Y021102D01*
X019227Y020944D02*
X020137Y020944D01*
X020137Y020785D02*
X019196Y020785D01*
X019072Y020627D02*
X020137Y020627D01*
X020137Y020468D02*
X018914Y020468D01*
X018755Y020310D02*
X020137Y020310D01*
X020137Y020151D02*
X018597Y020151D01*
X018438Y019993D02*
X020137Y019993D01*
X020137Y019834D02*
X018280Y019834D01*
X018227Y019676D02*
X020137Y019676D01*
X020137Y019517D02*
X018864Y019517D01*
X018889Y019499D02*
X018836Y019537D01*
X018777Y019567D01*
X018714Y019588D01*
X018650Y019598D01*
X018617Y019598D01*
X018617Y019180D01*
X019034Y019180D01*
X018617Y019180D01*
X018617Y019180D01*
X018617Y018762D01*
X018650Y018762D01*
X018714Y018772D01*
X018777Y018793D01*
X018836Y018823D01*
X018889Y018861D01*
X018935Y018908D01*
X018974Y018961D01*
X019004Y019020D01*
X019024Y019082D01*
X019034Y019147D01*
X019034Y019180D01*
X019034Y019213D01*
X019024Y019278D01*
X019004Y019340D01*
X018974Y019399D01*
X018935Y019452D01*
X018889Y019499D01*
X018995Y019359D02*
X020137Y019359D01*
X020137Y019200D02*
X019034Y019200D01*
X019011Y019042D02*
X020137Y019042D01*
X020137Y018883D02*
X018911Y018883D01*
X018617Y018883D02*
X018617Y018883D01*
X018617Y018762D02*
X018584Y018762D01*
X018519Y018772D01*
X018456Y018793D01*
X018398Y018823D01*
X018344Y018861D01*
X018298Y018908D01*
X018259Y018961D01*
X018229Y019020D01*
X018209Y019082D01*
X018199Y019147D01*
X018199Y019180D01*
X018617Y019180D01*
X018617Y019180D01*
X018617Y019180D01*
X018617Y018762D01*
X018617Y019042D02*
X018617Y019042D01*
X018617Y019180D02*
X018617Y019180D01*
X018617Y019598D01*
X018584Y019598D01*
X018519Y019588D01*
X018456Y019567D01*
X018398Y019537D01*
X018344Y019499D01*
X018298Y019452D01*
X018259Y019399D01*
X018229Y019340D01*
X018209Y019278D01*
X018199Y019213D01*
X018199Y019180D01*
X018617Y019180D01*
X018617Y019200D02*
X018617Y019200D01*
X018617Y019359D02*
X018617Y019359D01*
X018617Y019517D02*
X018617Y019517D01*
X018370Y019517D02*
X018227Y019517D01*
X018227Y019359D02*
X018239Y019359D01*
X018199Y019200D02*
X018146Y019200D01*
X018094Y019042D02*
X018222Y019042D01*
X018323Y018883D02*
X018090Y018883D01*
X017977Y018725D02*
X020137Y018725D01*
X020137Y018566D02*
X017977Y018566D01*
X017977Y018408D02*
X019521Y018408D01*
X019522Y018408D02*
X019346Y018335D01*
X019212Y018201D01*
X019139Y018025D01*
X019139Y017835D01*
X019212Y017659D01*
X019346Y017525D01*
X019522Y017452D01*
X019712Y017452D01*
X019887Y017525D01*
X020022Y017659D01*
X020094Y017835D01*
X020094Y018025D01*
X020022Y018201D01*
X019887Y018335D01*
X019712Y018408D01*
X019522Y018408D01*
X019712Y018408D02*
X020137Y018408D01*
X020137Y018249D02*
X019973Y018249D01*
X020067Y018091D02*
X020137Y018091D01*
X020137Y017932D02*
X020094Y017932D01*
X020069Y017774D02*
X020137Y017774D01*
X020137Y017615D02*
X019977Y017615D01*
X020137Y017457D02*
X019722Y017457D01*
X019511Y017457D02*
X018599Y017457D01*
X018441Y017615D02*
X019256Y017615D01*
X019164Y017774D02*
X018282Y017774D01*
X018124Y017932D02*
X019139Y017932D01*
X019166Y018091D02*
X017977Y018091D01*
X017977Y018249D02*
X019260Y018249D01*
X018758Y017298D02*
X020137Y017298D01*
X020137Y017140D02*
X018916Y017140D01*
X018977Y016981D02*
X020137Y016981D01*
X020137Y016823D02*
X018977Y016823D01*
X018977Y016664D02*
X020137Y016664D01*
X020137Y016506D02*
X018977Y016506D01*
X018977Y016347D02*
X020137Y016347D01*
X020137Y016189D02*
X018977Y016189D01*
X018977Y016030D02*
X020137Y016030D01*
X020137Y015872D02*
X018977Y015872D01*
X018977Y015713D02*
X020137Y015713D01*
X020137Y015555D02*
X018977Y015555D01*
X018977Y015396D02*
X020137Y015396D01*
X020137Y015238D02*
X018977Y015238D01*
X018977Y015079D02*
X020137Y015079D01*
X020137Y014921D02*
X018977Y014921D01*
X018977Y014762D02*
X020137Y014762D01*
X020137Y014604D02*
X018977Y014604D01*
X018977Y014445D02*
X020137Y014445D01*
X020137Y014287D02*
X019936Y014287D01*
X019887Y014335D02*
X019712Y014408D01*
X019522Y014408D01*
X019346Y014335D01*
X019212Y014201D01*
X019139Y014025D01*
X019139Y013835D01*
X019212Y013659D01*
X019346Y013525D01*
X019522Y013452D01*
X019712Y013452D01*
X019887Y013525D01*
X020022Y013659D01*
X020094Y013835D01*
X020094Y014025D01*
X020022Y014201D01*
X019887Y014335D01*
X020052Y014128D02*
X020137Y014128D01*
X020137Y013970D02*
X020094Y013970D01*
X020085Y013811D02*
X020137Y013811D01*
X020137Y013653D02*
X020015Y013653D01*
X020137Y013494D02*
X019813Y013494D01*
X020137Y013336D02*
X018531Y013336D01*
X018690Y013494D02*
X019421Y013494D01*
X019218Y013653D02*
X018848Y013653D01*
X018957Y013811D02*
X019149Y013811D01*
X019139Y013970D02*
X018977Y013970D01*
X018977Y014128D02*
X019182Y014128D01*
X019297Y014287D02*
X018977Y014287D01*
X018257Y014287D02*
X016107Y014287D01*
X016107Y014445D02*
X017645Y014445D01*
X017660Y014430D02*
X018074Y014430D01*
X018257Y014613D01*
X018257Y014079D01*
X017413Y013235D01*
X017311Y013134D01*
X017307Y013122D01*
X017307Y013180D01*
X017307Y013362D01*
X017049Y013620D01*
X016867Y013620D01*
X016867Y013180D01*
X017307Y013180D01*
X016867Y013180D01*
X016867Y013180D01*
X016867Y012740D01*
X017049Y012740D01*
X017257Y012948D01*
X017257Y011497D01*
X017074Y011680D01*
X016660Y011680D01*
X016520Y011540D01*
X016107Y011540D01*
X016107Y015271D01*
X016272Y015202D01*
X016335Y015202D01*
X016913Y014625D01*
X017045Y014570D01*
X017520Y014570D01*
X017660Y014430D01*
X018089Y014445D02*
X018257Y014445D01*
X018247Y014604D02*
X018257Y014604D01*
X018257Y014128D02*
X016107Y014128D01*
X016107Y013970D02*
X018147Y013970D01*
X017989Y013811D02*
X016107Y013811D01*
X016107Y013653D02*
X017830Y013653D01*
X017672Y013494D02*
X017175Y013494D01*
X017307Y013336D02*
X017513Y013336D01*
X017355Y013177D02*
X017307Y013177D01*
X017257Y012860D02*
X017169Y012860D01*
X017257Y012702D02*
X016107Y012702D01*
X016107Y012860D02*
X016564Y012860D01*
X016684Y012740D02*
X016867Y012740D01*
X016867Y013180D01*
X016867Y013180D01*
X016867Y013180D01*
X016867Y013620D01*
X016684Y013620D01*
X016427Y013362D01*
X016427Y013180D01*
X016427Y012998D01*
X016684Y012740D01*
X016867Y012860D02*
X016867Y012860D01*
X016867Y013019D02*
X016867Y013019D01*
X016867Y013177D02*
X016867Y013177D01*
X016867Y013180D02*
X016427Y013180D01*
X016867Y013180D01*
X016867Y013180D01*
X016867Y013336D02*
X016867Y013336D01*
X016867Y013494D02*
X016867Y013494D01*
X016558Y013494D02*
X016107Y013494D01*
X016107Y013336D02*
X016427Y013336D01*
X016427Y013177D02*
X016107Y013177D01*
X016107Y013019D02*
X016427Y013019D01*
X016107Y012543D02*
X017257Y012543D01*
X017257Y012385D02*
X016107Y012385D01*
X016107Y012226D02*
X017257Y012226D01*
X017257Y012068D02*
X016107Y012068D01*
X016107Y011909D02*
X017257Y011909D01*
X017257Y011751D02*
X016107Y011751D01*
X016107Y011592D02*
X016572Y011592D01*
X016540Y010800D02*
X015995Y010800D01*
X015844Y010641D02*
X017257Y010641D01*
X017257Y010483D02*
X015802Y010483D01*
X015686Y010324D02*
X017257Y010324D01*
X017257Y010166D02*
X014977Y010166D01*
X014977Y010324D02*
X015047Y010324D01*
X014977Y010007D02*
X017257Y010007D01*
X017257Y009849D02*
X014977Y009849D01*
X014977Y009690D02*
X017257Y009690D01*
X017257Y009532D02*
X014977Y009532D01*
X014977Y009373D02*
X017257Y009373D01*
X017257Y009215D02*
X014977Y009215D01*
X014977Y009056D02*
X017234Y009056D01*
X017634Y008422D02*
X019299Y008422D01*
X019299Y008362D02*
X018747Y008362D01*
X018759Y008284D01*
X018789Y008191D01*
X018834Y008104D01*
X018892Y008024D01*
X018961Y007955D01*
X019040Y007897D01*
X019128Y007853D01*
X019221Y007822D01*
X019299Y007810D01*
X019299Y008362D01*
X019434Y008362D01*
X019434Y007810D01*
X019513Y007822D01*
X019606Y007853D01*
X019693Y007897D01*
X019772Y007955D01*
X019842Y008024D01*
X019899Y008104D01*
X019944Y008191D01*
X019974Y008284D01*
X019987Y008362D01*
X019434Y008362D01*
X019434Y008498D01*
X019299Y008498D01*
X019299Y009050D01*
X019221Y009038D01*
X019128Y009007D01*
X019040Y008963D01*
X018961Y008905D01*
X018892Y008836D01*
X018834Y008756D01*
X018789Y008669D01*
X018759Y008576D01*
X018747Y008498D01*
X019299Y008498D01*
X019299Y008362D01*
X019299Y008264D02*
X019434Y008264D01*
X019434Y008422D02*
X020137Y008422D01*
X020137Y008264D02*
X019968Y008264D01*
X019900Y008105D02*
X020137Y008105D01*
X020137Y007947D02*
X019761Y007947D01*
X019434Y007947D02*
X019299Y007947D01*
X019299Y008105D02*
X019434Y008105D01*
X019434Y008498D02*
X019987Y008498D01*
X019974Y008576D01*
X019944Y008669D01*
X019899Y008756D01*
X019842Y008836D01*
X019772Y008905D01*
X019693Y008963D01*
X019606Y009007D01*
X019513Y009038D01*
X019434Y009050D01*
X019434Y008498D01*
X019434Y008581D02*
X019299Y008581D01*
X019299Y008739D02*
X019434Y008739D01*
X019434Y008898D02*
X019299Y008898D01*
X018953Y008898D02*
X017977Y008898D01*
X017977Y009056D02*
X020137Y009056D01*
X020137Y008898D02*
X019780Y008898D01*
X019908Y008739D02*
X020137Y008739D01*
X020137Y008581D02*
X019973Y008581D01*
X020137Y009215D02*
X017977Y009215D01*
X017977Y009373D02*
X020137Y009373D01*
X020137Y009532D02*
X017977Y009532D01*
X017977Y009690D02*
X020137Y009690D01*
X020137Y009849D02*
X017977Y009849D01*
X017977Y010007D02*
X020137Y010007D01*
X020137Y010166D02*
X017977Y010166D01*
X017977Y010324D02*
X020137Y010324D01*
X020137Y010483D02*
X017977Y010483D01*
X017977Y010641D02*
X020137Y010641D01*
X020137Y010800D02*
X017977Y010800D01*
X017977Y010958D02*
X020137Y010958D01*
X020137Y011117D02*
X017977Y011117D01*
X017977Y011275D02*
X020137Y011275D01*
X020137Y011434D02*
X017977Y011434D01*
X017977Y011592D02*
X020137Y011592D01*
X020137Y011751D02*
X017977Y011751D01*
X017977Y011909D02*
X020137Y011909D01*
X020137Y012068D02*
X019576Y012068D01*
X019586Y012073D02*
X019639Y012111D01*
X019685Y012158D01*
X019724Y012211D01*
X019754Y012270D01*
X019774Y012332D01*
X019784Y012397D01*
X019784Y012430D01*
X019784Y012463D01*
X019774Y012528D01*
X019754Y012590D01*
X019724Y012649D01*
X019685Y012702D01*
X019639Y012749D01*
X019586Y012787D01*
X019527Y012817D01*
X019464Y012838D01*
X019400Y012848D01*
X019367Y012848D01*
X019367Y012430D01*
X019784Y012430D01*
X019367Y012430D01*
X019367Y012430D01*
X019367Y012012D01*
X019400Y012012D01*
X019464Y012022D01*
X019527Y012043D01*
X019586Y012073D01*
X019732Y012226D02*
X020137Y012226D01*
X020137Y012385D02*
X019782Y012385D01*
X019769Y012543D02*
X020137Y012543D01*
X020137Y012702D02*
X019686Y012702D01*
X019367Y012702D02*
X019367Y012702D01*
X019367Y012848D02*
X019334Y012848D01*
X019269Y012838D01*
X019206Y012817D01*
X019148Y012787D01*
X019094Y012749D01*
X019048Y012702D01*
X019009Y012649D01*
X018979Y012590D01*
X018959Y012528D01*
X018949Y012463D01*
X018949Y012430D01*
X018949Y012397D01*
X018959Y012332D01*
X018979Y012270D01*
X019009Y012211D01*
X019048Y012158D01*
X019094Y012111D01*
X019148Y012073D01*
X019206Y012043D01*
X019269Y012022D01*
X019334Y012012D01*
X019367Y012012D01*
X019367Y012430D01*
X019367Y012430D01*
X019367Y012430D01*
X019367Y012848D01*
X019367Y012543D02*
X019367Y012543D01*
X019367Y012430D02*
X019367Y012430D01*
X018949Y012430D01*
X019367Y012430D01*
X019367Y012385D02*
X019367Y012385D01*
X019367Y012226D02*
X019367Y012226D01*
X019367Y012068D02*
X019367Y012068D01*
X019158Y012068D02*
X018813Y012068D01*
X018844Y012226D02*
X019002Y012226D01*
X018951Y012385D02*
X018844Y012385D01*
X018844Y012543D02*
X018964Y012543D01*
X019048Y012702D02*
X018844Y012702D01*
X018752Y012860D02*
X020137Y012860D01*
X020137Y013019D02*
X018214Y013019D01*
X018373Y013177D02*
X020137Y013177D01*
X018257Y015247D02*
X018074Y015430D01*
X017660Y015430D01*
X017520Y015290D01*
X017266Y015290D01*
X016844Y015711D01*
X016844Y015775D01*
X016772Y015951D01*
X016727Y015996D01*
X016727Y018781D01*
X017139Y019193D01*
X017139Y018894D01*
X017175Y018806D01*
X017243Y018739D01*
X017257Y018733D01*
X017257Y017858D01*
X017311Y017726D01*
X017676Y017362D01*
X017427Y017112D01*
X017427Y016930D01*
X017427Y016748D01*
X017684Y016490D01*
X017867Y016490D01*
X018049Y016490D01*
X018257Y016698D01*
X018257Y015247D01*
X018257Y015396D02*
X018108Y015396D01*
X018257Y015555D02*
X017001Y015555D01*
X016844Y015713D02*
X018257Y015713D01*
X018257Y015872D02*
X016804Y015872D01*
X016727Y016030D02*
X018257Y016030D01*
X018257Y016189D02*
X016727Y016189D01*
X016727Y016347D02*
X018257Y016347D01*
X018257Y016506D02*
X018064Y016506D01*
X017867Y016506D02*
X017867Y016506D01*
X017867Y016490D02*
X017867Y016930D01*
X017867Y016930D01*
X017867Y016490D01*
X017867Y016664D02*
X017867Y016664D01*
X017867Y016823D02*
X017867Y016823D01*
X017867Y016930D02*
X017427Y016930D01*
X017867Y016930D01*
X017867Y016930D01*
X017669Y016506D02*
X016727Y016506D01*
X016727Y016664D02*
X017510Y016664D01*
X017427Y016823D02*
X016727Y016823D01*
X016727Y016981D02*
X017427Y016981D01*
X017454Y017140D02*
X016727Y017140D01*
X016727Y017298D02*
X017612Y017298D01*
X017581Y017457D02*
X016727Y017457D01*
X016727Y017615D02*
X017423Y017615D01*
X017292Y017774D02*
X016727Y017774D01*
X016727Y017932D02*
X017257Y017932D01*
X017257Y018091D02*
X016727Y018091D01*
X016727Y018249D02*
X017257Y018249D01*
X017257Y018408D02*
X016727Y018408D01*
X016727Y018566D02*
X017257Y018566D01*
X017257Y018725D02*
X016727Y018725D01*
X016829Y018883D02*
X017144Y018883D01*
X017139Y019042D02*
X016987Y019042D01*
X016171Y019244D02*
X016061Y019134D01*
X016007Y019002D01*
X016007Y016040D01*
X015682Y016040D01*
X015637Y016085D01*
X015462Y016158D01*
X015272Y016158D01*
X015096Y016085D01*
X015067Y016056D01*
X015067Y017438D01*
X015023Y017544D01*
X014941Y017626D01*
X014834Y017670D01*
X014227Y017670D01*
X014227Y018115D01*
X014271Y018160D01*
X014344Y018335D01*
X014344Y018525D01*
X014271Y018700D01*
X014137Y018835D01*
X013962Y018907D01*
X013772Y018907D01*
X013596Y018835D01*
X013462Y018700D01*
X013415Y018588D01*
X013324Y018680D01*
X012910Y018680D01*
X012617Y018387D01*
X012617Y017973D01*
X012800Y017790D01*
X011434Y017790D01*
X011617Y017973D01*
X011617Y018387D01*
X011434Y018570D01*
X012438Y018570D01*
X012571Y018625D01*
X013126Y019180D01*
X013324Y019180D01*
X013617Y019473D01*
X013617Y019887D01*
X013324Y020180D01*
X012910Y020180D01*
X012617Y019887D01*
X012617Y019689D01*
X012218Y019290D01*
X011349Y019290D01*
X011557Y019498D01*
X011557Y019680D01*
X011557Y019820D01*
X012188Y019820D01*
X012321Y019875D01*
X013126Y020680D01*
X013324Y020680D01*
X013617Y020973D01*
X013617Y021171D01*
X013811Y020976D01*
X013913Y020875D01*
X014002Y020838D01*
X014007Y020833D01*
X014007Y019996D01*
X013962Y019951D01*
X013889Y019775D01*
X013889Y019585D01*
X013962Y019409D01*
X014096Y019275D01*
X014272Y019202D01*
X014462Y019202D01*
X014637Y019275D01*
X014682Y019320D01*
X015051Y019320D01*
X015096Y019275D01*
X015272Y019202D01*
X015462Y019202D01*
X015637Y019275D01*
X015772Y019409D01*
X015844Y019585D01*
X015844Y019775D01*
X015772Y019951D01*
X015637Y020085D01*
X015462Y020158D01*
X015272Y020158D01*
X015096Y020085D01*
X015051Y020040D01*
X014727Y020040D01*
X014727Y020833D01*
X014867Y020973D01*
X014867Y021171D01*
X015061Y020976D01*
X015163Y020875D01*
X015295Y020820D01*
X015968Y020820D01*
X016007Y020781D01*
X016007Y019996D01*
X015962Y019951D01*
X015889Y019775D01*
X015889Y019585D01*
X015962Y019409D01*
X016096Y019275D01*
X016171Y019244D01*
X016128Y019200D02*
X013344Y019200D01*
X013502Y019359D02*
X014012Y019359D01*
X013917Y019517D02*
X013617Y019517D01*
X013617Y019676D02*
X013889Y019676D01*
X013913Y019834D02*
X013617Y019834D01*
X013511Y019993D02*
X014003Y019993D01*
X014007Y020151D02*
X013353Y020151D01*
X013072Y020627D02*
X014007Y020627D01*
X014007Y020785D02*
X013429Y020785D01*
X013587Y020944D02*
X013844Y020944D01*
X013686Y021102D02*
X013617Y021102D01*
X014007Y020468D02*
X012914Y020468D01*
X012755Y020310D02*
X014007Y020310D01*
X014727Y020310D02*
X016007Y020310D01*
X016007Y020468D02*
X014727Y020468D01*
X014727Y020627D02*
X016007Y020627D01*
X016003Y020785D02*
X014727Y020785D01*
X014837Y020944D02*
X015094Y020944D01*
X014936Y021102D02*
X014867Y021102D01*
X014727Y020151D02*
X015255Y020151D01*
X015478Y020151D02*
X016007Y020151D01*
X016003Y019993D02*
X015730Y019993D01*
X015820Y019834D02*
X015913Y019834D01*
X015889Y019676D02*
X015844Y019676D01*
X015816Y019517D02*
X015917Y019517D01*
X016012Y019359D02*
X015721Y019359D01*
X016023Y019042D02*
X012987Y019042D01*
X012829Y018883D02*
X013713Y018883D01*
X013486Y018725D02*
X012670Y018725D01*
X012796Y018566D02*
X011438Y018566D01*
X011596Y018408D02*
X012637Y018408D01*
X012617Y018249D02*
X011617Y018249D01*
X011617Y018091D02*
X012617Y018091D01*
X012658Y017932D02*
X011576Y017932D01*
X011417Y019359D02*
X012286Y019359D01*
X012445Y019517D02*
X011557Y019517D01*
X011557Y019676D02*
X012603Y019676D01*
X012617Y019834D02*
X012222Y019834D01*
X012438Y019993D02*
X012722Y019993D01*
X012597Y020151D02*
X012881Y020151D01*
X011557Y019680D02*
X011117Y019680D01*
X011117Y019680D01*
X011557Y019680D01*
X011117Y019680D02*
X010677Y019680D01*
X010677Y019498D01*
X010884Y019290D01*
X010795Y019290D01*
X010663Y019235D01*
X010561Y019134D01*
X010477Y019049D01*
X010477Y019114D01*
X010522Y019159D01*
X010594Y019335D01*
X010594Y019525D01*
X010522Y019701D01*
X010402Y019820D01*
X010677Y019820D01*
X010677Y019680D01*
X011117Y019680D01*
X011117Y019680D01*
X010677Y019676D02*
X010532Y019676D01*
X010594Y019517D02*
X010677Y019517D01*
X010594Y019359D02*
X010816Y019359D01*
X010628Y019200D02*
X010539Y019200D01*
X009677Y016981D02*
X014487Y016981D01*
X014487Y016823D02*
X009518Y016823D01*
X009360Y016664D02*
X014487Y016664D01*
X014487Y016506D02*
X013328Y016506D01*
X013344Y016347D02*
X014487Y016347D01*
X014487Y016189D02*
X013367Y016189D01*
X013194Y015362D02*
X013295Y015320D01*
X014051Y015320D01*
X014096Y015275D01*
X014272Y015202D01*
X014462Y015202D01*
X014637Y015275D01*
X014714Y015352D01*
X015012Y015054D01*
X015050Y015039D01*
X014962Y014951D01*
X014889Y014775D01*
X014889Y014585D01*
X014925Y014498D01*
X014718Y014290D01*
X014518Y014290D01*
X014527Y014293D01*
X014586Y014323D01*
X014639Y014361D01*
X014685Y014408D01*
X014724Y014461D01*
X014754Y014520D01*
X014774Y014582D01*
X014784Y014647D01*
X014784Y014680D01*
X014784Y014713D01*
X014774Y014778D01*
X014754Y014840D01*
X014724Y014899D01*
X014685Y014952D01*
X014639Y014999D01*
X014586Y015037D01*
X014527Y015067D01*
X014464Y015088D01*
X014400Y015098D01*
X014367Y015098D01*
X014367Y014680D01*
X014784Y014680D01*
X014367Y014680D01*
X014367Y014680D01*
X014367Y014680D01*
X014367Y015098D01*
X014334Y015098D01*
X014269Y015088D01*
X014206Y015067D01*
X014148Y015037D01*
X014094Y014999D01*
X014048Y014952D01*
X014009Y014899D01*
X013979Y014840D01*
X013959Y014778D01*
X013949Y014713D01*
X013949Y014680D01*
X013949Y014647D01*
X013956Y014599D01*
X013844Y014711D01*
X013844Y014775D01*
X013772Y014951D01*
X013637Y015085D01*
X013462Y015158D01*
X013398Y015158D01*
X013194Y015362D01*
X013318Y015238D02*
X014186Y015238D01*
X014243Y015079D02*
X013643Y015079D01*
X013784Y014921D02*
X014025Y014921D01*
X013957Y014762D02*
X013844Y014762D01*
X013949Y014680D02*
X014367Y014680D01*
X013949Y014680D01*
X013952Y014604D02*
X013956Y014604D01*
X014367Y014680D02*
X014367Y014680D01*
X014367Y014762D02*
X014367Y014762D01*
X014367Y014921D02*
X014367Y014921D01*
X014367Y015079D02*
X014367Y015079D01*
X014491Y015079D02*
X014988Y015079D01*
X014949Y014921D02*
X014708Y014921D01*
X014777Y014762D02*
X014889Y014762D01*
X014889Y014604D02*
X014778Y014604D01*
X014712Y014445D02*
X014873Y014445D01*
X014829Y015238D02*
X014547Y015238D01*
X015067Y016189D02*
X016007Y016189D01*
X016007Y016347D02*
X015067Y016347D01*
X015067Y016506D02*
X016007Y016506D01*
X016007Y016664D02*
X015067Y016664D01*
X015067Y016823D02*
X016007Y016823D01*
X016007Y016981D02*
X015067Y016981D01*
X015067Y017140D02*
X016007Y017140D01*
X016007Y017298D02*
X015067Y017298D01*
X015059Y017457D02*
X016007Y017457D01*
X016007Y017615D02*
X014952Y017615D01*
X014227Y017774D02*
X016007Y017774D01*
X016007Y017932D02*
X014227Y017932D01*
X014227Y018091D02*
X016007Y018091D01*
X016007Y018249D02*
X014309Y018249D01*
X014344Y018408D02*
X016007Y018408D01*
X016007Y018566D02*
X014327Y018566D01*
X014247Y018725D02*
X016007Y018725D01*
X016007Y018883D02*
X014021Y018883D01*
X012405Y016506D02*
X012217Y016506D01*
X012315Y016347D02*
X012389Y016347D01*
X012389Y016189D02*
X012344Y016189D01*
X012322Y016030D02*
X012389Y016030D01*
X012398Y015872D02*
X012234Y015872D01*
X010415Y015238D02*
X002650Y015238D01*
X002853Y015079D02*
X010257Y015079D01*
X010098Y014921D02*
X002884Y014921D01*
X001212Y018883D02*
X001097Y018883D01*
X003690Y023797D02*
X013111Y023797D01*
X012952Y023638D02*
X012092Y023638D01*
X012284Y023480D02*
X012927Y023480D01*
X012927Y023321D02*
X012354Y023321D01*
X013563Y023004D02*
X015432Y023004D01*
X015590Y023163D02*
X013721Y023163D01*
X013807Y023321D02*
X015749Y023321D01*
X015889Y023480D02*
X013807Y023480D01*
X013781Y023638D02*
X015936Y023638D01*
X016058Y023797D02*
X013622Y023797D01*
X013710Y022846D02*
X014621Y022846D01*
X014456Y022687D02*
X013869Y022687D01*
X014027Y022529D02*
X014390Y022529D01*
X014389Y022370D02*
X014186Y022370D01*
X015112Y022846D02*
X015273Y022846D01*
X013867Y025540D02*
X017718Y025540D01*
X018102Y024906D02*
X018917Y024906D01*
X018891Y025065D02*
X018260Y025065D01*
X018419Y025223D02*
X018733Y025223D01*
X018699Y025382D02*
X018577Y025382D01*
X014089Y025699D02*
X013805Y025699D01*
X012153Y028710D02*
X011049Y028710D01*
X009879Y029820D02*
X009386Y029820D01*
X009451Y029661D02*
X009813Y029661D01*
X009786Y029503D02*
X009479Y029503D01*
X009479Y029344D02*
X009786Y029344D01*
X009819Y029186D02*
X009620Y029186D01*
X009275Y029978D02*
X009990Y029978D01*
X008216Y028710D02*
X006916Y028710D01*
X006906Y028869D02*
X008035Y028869D01*
X007916Y029027D02*
X006840Y029027D01*
X006754Y029186D02*
X007850Y029186D01*
X007818Y029344D02*
X006596Y029344D01*
X006270Y029503D02*
X007818Y029503D01*
X007845Y029661D02*
X005107Y029661D01*
X005265Y029820D02*
X007911Y029820D01*
X008022Y029978D02*
X005424Y029978D01*
X005575Y029344D02*
X004790Y029344D01*
X004786Y029186D02*
X005416Y029186D01*
X005330Y029027D02*
X004872Y029027D01*
X004938Y028869D02*
X005264Y028869D01*
X005255Y028710D02*
X004947Y028710D01*
X004947Y028552D02*
X005255Y028552D01*
X005305Y028393D02*
X004897Y028393D01*
X004831Y028235D02*
X005371Y028235D01*
X005515Y028076D02*
X004687Y028076D01*
X004446Y027918D02*
X005756Y027918D01*
X005670Y026650D02*
X005064Y026650D01*
X005273Y026491D02*
X005461Y026491D01*
X005385Y026333D02*
X005349Y026333D01*
X005367Y026289D02*
X005367Y025571D01*
X005367Y026289D01*
X005367Y026174D02*
X005367Y026174D01*
X005367Y026016D02*
X005367Y026016D01*
X005367Y025857D02*
X005367Y025857D01*
X005367Y025699D02*
X005367Y025699D01*
X005354Y025540D02*
X005379Y025540D01*
X005448Y025382D02*
X005285Y025382D01*
X005094Y025223D02*
X005639Y025223D01*
X006094Y025223D02*
X006639Y025223D01*
X006448Y025382D02*
X006285Y025382D01*
X006354Y025540D02*
X006379Y025540D01*
X006367Y025571D02*
X006367Y026171D01*
X006367Y026171D01*
X006367Y025571D01*
X006367Y025699D02*
X006367Y025699D01*
X006367Y025857D02*
X006367Y025857D01*
X006367Y026016D02*
X006367Y026016D01*
X007064Y026650D02*
X007670Y026650D01*
X007461Y026491D02*
X007273Y026491D01*
X007349Y026333D02*
X007385Y026333D01*
X007367Y026174D02*
X007367Y026174D01*
X007367Y026016D02*
X007367Y026016D01*
X007367Y025857D02*
X007367Y025857D01*
X007367Y025699D02*
X007367Y025699D01*
X007354Y025540D02*
X007379Y025540D01*
X007448Y025382D02*
X007285Y025382D01*
X007094Y025223D02*
X007639Y025223D01*
X008094Y025223D02*
X010639Y025223D01*
X010448Y025382D02*
X010200Y025382D01*
X010202Y025383D02*
X010243Y025439D01*
X010274Y025501D01*
X010296Y025567D01*
X010307Y025635D01*
X010307Y025930D01*
X010307Y026225D01*
X010296Y026293D01*
X010274Y026359D01*
X010243Y026421D01*
X010202Y026477D01*
X010153Y026526D01*
X010097Y026566D01*
X010036Y026598D01*
X009970Y026619D01*
X009901Y026630D01*
X009867Y026630D01*
X009867Y025930D01*
X010307Y025930D01*
X009867Y025930D01*
X009867Y025930D01*
X009867Y025930D01*
X009867Y025230D01*
X009901Y025230D01*
X009970Y025241D01*
X010036Y025262D01*
X010097Y025294D01*
X010153Y025334D01*
X010202Y025383D01*
X010287Y025540D02*
X010379Y025540D01*
X010367Y025699D02*
X010307Y025699D01*
X010307Y025857D02*
X010367Y025857D01*
X010367Y026016D02*
X010307Y026016D01*
X010307Y026174D02*
X010367Y026174D01*
X010385Y026333D02*
X010283Y026333D01*
X010188Y026491D02*
X010461Y026491D01*
X010670Y026650D02*
X008064Y026650D01*
X008273Y026491D02*
X008545Y026491D01*
X008531Y026477D02*
X008490Y026421D01*
X008459Y026359D01*
X008438Y026293D01*
X008427Y026225D01*
X008427Y025930D01*
X008427Y025635D01*
X008438Y025567D01*
X008459Y025501D01*
X008490Y025439D01*
X008531Y025383D01*
X008580Y025334D01*
X008636Y025294D01*
X008698Y025262D01*
X008764Y025241D01*
X008832Y025230D01*
X008867Y025230D01*
X008901Y025230D01*
X008970Y025241D01*
X009036Y025262D01*
X009097Y025294D01*
X009153Y025334D01*
X009202Y025383D01*
X009243Y025439D01*
X009274Y025501D01*
X009296Y025567D01*
X009307Y025635D01*
X009307Y025930D01*
X009307Y026225D01*
X009296Y026293D01*
X009274Y026359D01*
X009243Y026421D01*
X009202Y026477D01*
X009153Y026526D01*
X009097Y026566D01*
X009036Y026598D01*
X008970Y026619D01*
X008901Y026630D01*
X008867Y026630D01*
X008867Y025930D01*
X009307Y025930D01*
X008867Y025930D01*
X008867Y025930D01*
X008867Y025930D01*
X008867Y025230D01*
X008867Y025930D01*
X008867Y025930D01*
X008867Y026630D01*
X008832Y026630D01*
X008764Y026619D01*
X008698Y026598D01*
X008636Y026566D01*
X008580Y026526D01*
X008531Y026477D01*
X008450Y026333D02*
X008349Y026333D01*
X008367Y026174D02*
X008427Y026174D01*
X008427Y026016D02*
X008367Y026016D01*
X008427Y025930D02*
X008867Y025930D01*
X008427Y025930D01*
X008427Y025857D02*
X008367Y025857D01*
X008367Y025699D02*
X008427Y025699D01*
X008446Y025540D02*
X008354Y025540D01*
X008285Y025382D02*
X008533Y025382D01*
X008867Y025382D02*
X008867Y025382D01*
X008867Y025540D02*
X008867Y025540D01*
X008867Y025699D02*
X008867Y025699D01*
X008867Y025857D02*
X008867Y025857D01*
X008867Y025930D02*
X008867Y025930D01*
X008867Y026016D02*
X008867Y026016D01*
X008867Y026174D02*
X008867Y026174D01*
X008867Y026333D02*
X008867Y026333D01*
X008867Y026491D02*
X008867Y026491D01*
X009188Y026491D02*
X009545Y026491D01*
X009531Y026477D02*
X009490Y026421D01*
X009459Y026359D01*
X009438Y026293D01*
X009427Y026225D01*
X009427Y025930D01*
X009427Y025635D01*
X009438Y025567D01*
X009459Y025501D01*
X009490Y025439D01*
X009531Y025383D01*
X009580Y025334D01*
X009636Y025294D01*
X009698Y025262D01*
X009764Y025241D01*
X009832Y025230D01*
X009867Y025230D01*
X009867Y025930D01*
X009867Y025930D01*
X009867Y026630D01*
X009832Y026630D01*
X009764Y026619D01*
X009698Y026598D01*
X009636Y026566D01*
X009580Y026526D01*
X009531Y026477D01*
X009450Y026333D02*
X009283Y026333D01*
X009307Y026174D02*
X009427Y026174D01*
X009427Y026016D02*
X009307Y026016D01*
X009427Y025930D02*
X009867Y025930D01*
X009427Y025930D01*
X009427Y025857D02*
X009307Y025857D01*
X009307Y025699D02*
X009427Y025699D01*
X009446Y025540D02*
X009287Y025540D01*
X009200Y025382D02*
X009533Y025382D01*
X009867Y025382D02*
X009867Y025382D01*
X009867Y025540D02*
X009867Y025540D01*
X009867Y025699D02*
X009867Y025699D01*
X009867Y025857D02*
X009867Y025857D01*
X009867Y025930D02*
X009867Y025930D01*
X009867Y026016D02*
X009867Y026016D01*
X009867Y026174D02*
X009867Y026174D01*
X009867Y026333D02*
X009867Y026333D01*
X009867Y026491D02*
X009867Y026491D01*
X010563Y026808D02*
X007004Y026808D01*
X007162Y026967D02*
X007623Y026967D01*
X005901Y029503D02*
X004948Y029503D01*
X004406Y029978D02*
X002125Y029978D01*
X002191Y030137D02*
X004564Y030137D01*
X004723Y030295D02*
X002240Y030295D01*
X002240Y030454D02*
X004881Y030454D01*
X005040Y030612D02*
X002237Y030612D01*
X001992Y029820D02*
X004247Y029820D01*
X004089Y029661D02*
X001793Y029661D01*
X001900Y029411D02*
X001807Y029373D01*
X001719Y029322D01*
X001639Y029261D01*
X001568Y029189D01*
X001506Y029109D01*
X001456Y029022D01*
X001417Y028928D01*
X001391Y028831D01*
X001381Y028760D01*
X002068Y028760D01*
X002068Y028600D01*
X001381Y028600D01*
X001391Y028529D01*
X001417Y028432D01*
X001456Y028338D01*
X001506Y028251D01*
X001568Y028171D01*
X001639Y028099D01*
X001719Y028038D01*
X001807Y027987D01*
X001900Y027949D01*
X001998Y027923D01*
X002068Y027913D01*
X002068Y028600D01*
X002228Y028600D01*
X002228Y027913D01*
X002299Y027923D01*
X002396Y027949D01*
X002490Y027987D01*
X002577Y028038D01*
X002657Y028099D01*
X002729Y028171D01*
X002790Y028251D01*
X002841Y028338D01*
X002879Y028432D01*
X002906Y028529D01*
X002915Y028600D01*
X002228Y028600D01*
X002228Y028760D01*
X002068Y028760D01*
X002068Y029447D01*
X001998Y029437D01*
X001900Y029411D01*
X001757Y029344D02*
X001097Y029344D01*
X001097Y029186D02*
X001565Y029186D01*
X001459Y029027D02*
X001097Y029027D01*
X001097Y028869D02*
X001401Y028869D01*
X001388Y028552D02*
X001097Y028552D01*
X001097Y028710D02*
X002068Y028710D01*
X002068Y028552D02*
X002228Y028552D01*
X002228Y028710D02*
X003286Y028710D01*
X003286Y028552D02*
X002908Y028552D01*
X002863Y028393D02*
X003337Y028393D01*
X003402Y028235D02*
X002778Y028235D01*
X002627Y028076D02*
X003546Y028076D01*
X003787Y027918D02*
X002260Y027918D01*
X002228Y027918D02*
X002068Y027918D01*
X002036Y027918D02*
X001097Y027918D01*
X001097Y028076D02*
X001669Y028076D01*
X001519Y028235D02*
X001097Y028235D01*
X001097Y028393D02*
X001433Y028393D01*
X002068Y028393D02*
X002228Y028393D01*
X002228Y028235D02*
X002068Y028235D01*
X002068Y028076D02*
X002228Y028076D01*
X002228Y028760D02*
X002915Y028760D01*
X002906Y028831D01*
X002879Y028928D01*
X002841Y029022D01*
X002790Y029109D01*
X002729Y029189D01*
X002657Y029261D01*
X002577Y029322D01*
X002490Y029373D01*
X002396Y029411D01*
X002299Y029437D01*
X002228Y029447D01*
X002228Y028760D01*
X002228Y028869D02*
X002068Y028869D01*
X002068Y029027D02*
X002228Y029027D01*
X002228Y029186D02*
X002068Y029186D01*
X002068Y029344D02*
X002228Y029344D01*
X002539Y029344D02*
X003606Y029344D01*
X003448Y029186D02*
X002732Y029186D01*
X002838Y029027D02*
X003361Y029027D01*
X003296Y028869D02*
X002895Y028869D01*
X003930Y029503D02*
X001097Y029503D01*
X009092Y023638D02*
X009642Y023638D01*
X009449Y023480D02*
X009284Y023480D01*
X009354Y023321D02*
X009380Y023321D01*
X009367Y023163D02*
X009367Y023163D01*
X009367Y023004D02*
X009367Y023004D01*
X009367Y022846D02*
X009367Y022846D01*
X016107Y015238D02*
X016186Y015238D01*
X016107Y015079D02*
X016459Y015079D01*
X016617Y014921D02*
X016107Y014921D01*
X016107Y014762D02*
X016776Y014762D01*
X016964Y014604D02*
X016107Y014604D01*
X017160Y015396D02*
X017626Y015396D01*
X018223Y016664D02*
X018257Y016664D01*
X017257Y011592D02*
X017162Y011592D01*
X017193Y010800D02*
X017257Y010800D01*
X016690Y008898D02*
X014977Y008898D01*
X014977Y008739D02*
X016600Y008739D01*
X016600Y008581D02*
X014977Y008581D01*
X014977Y008422D02*
X015152Y008422D01*
X014993Y008264D02*
X014977Y008264D01*
X014960Y007630D02*
X014825Y007630D01*
X014667Y007471D02*
X015007Y007471D01*
X014990Y007313D02*
X014508Y007313D01*
X014350Y007154D02*
X014832Y007154D01*
X014673Y006996D02*
X014191Y006996D01*
X014033Y006837D02*
X014515Y006837D01*
X014356Y006679D02*
X013874Y006679D01*
X014828Y006045D02*
X018007Y006045D01*
X018007Y006203D02*
X014899Y006203D01*
X015057Y006362D02*
X018007Y006362D01*
X018014Y006520D02*
X015216Y006520D01*
X015374Y006679D02*
X018106Y006679D01*
X018265Y006837D02*
X015533Y006837D01*
X015680Y006996D02*
X018423Y006996D01*
X018582Y007154D02*
X015727Y007154D01*
X015727Y007313D02*
X018786Y007313D01*
X018942Y007471D02*
X015727Y007471D01*
X015773Y007630D02*
X020137Y007630D01*
X020137Y007788D02*
X015867Y007788D01*
X015867Y007947D02*
X016710Y007947D01*
X016600Y008422D02*
X015582Y008422D01*
X017523Y007947D02*
X018972Y007947D01*
X018833Y008105D02*
X017634Y008105D01*
X017634Y008264D02*
X018766Y008264D01*
X018761Y008581D02*
X017776Y008581D01*
X017927Y008739D02*
X018825Y008739D01*
X019791Y007471D02*
X020137Y007471D01*
X020137Y007313D02*
X019947Y007313D01*
X020013Y007154D02*
X020137Y007154D01*
X020137Y006996D02*
X020050Y006996D01*
X020050Y006837D02*
X020137Y006837D01*
X020137Y006679D02*
X020002Y006679D01*
X019922Y006520D02*
X020137Y006520D01*
X020137Y006362D02*
X019764Y006362D01*
X019668Y006045D02*
X020137Y006045D01*
X020137Y006203D02*
X018727Y006203D01*
X018727Y006045D02*
X019066Y006045D01*
X018857Y005886D02*
X018727Y005886D01*
X018727Y005728D02*
X018751Y005728D01*
X018727Y005094D02*
X018767Y005094D01*
X018727Y004935D02*
X018896Y004935D01*
X018727Y004777D02*
X019160Y004777D01*
X019574Y004777D02*
X020137Y004777D01*
X020137Y004935D02*
X019837Y004935D01*
X019966Y005094D02*
X020137Y005094D01*
X020137Y005252D02*
X020032Y005252D01*
X020050Y005411D02*
X020137Y005411D01*
X020137Y005569D02*
X020048Y005569D01*
X019983Y005728D02*
X020137Y005728D01*
X020137Y005886D02*
X019876Y005886D01*
X020137Y004618D02*
X018727Y004618D01*
X018727Y004460D02*
X020137Y004460D01*
X020137Y004301D02*
X018727Y004301D01*
X018727Y004143D02*
X020137Y004143D01*
X020137Y003984D02*
X018727Y003984D01*
X018727Y003826D02*
X020137Y003826D01*
X020137Y003667D02*
X018727Y003667D01*
X018796Y003509D02*
X020137Y003509D01*
X020137Y003350D02*
X018954Y003350D01*
X019029Y003192D02*
X020137Y003192D01*
X020137Y003033D02*
X019079Y003033D01*
X019079Y002875D02*
X020137Y002875D01*
X020137Y002716D02*
X019049Y002716D01*
X018984Y002558D02*
X020137Y002558D01*
X020137Y002399D02*
X018843Y002399D01*
X018650Y002241D02*
X020137Y002241D01*
X020137Y002082D02*
X018931Y002082D01*
X019089Y001924D02*
X020137Y001924D01*
X020134Y001765D02*
X020137Y001765D01*
X019599Y001765D02*
X019170Y001765D01*
X019236Y001607D02*
X019308Y001607D01*
X018007Y003667D02*
X017113Y003667D01*
X017271Y003826D02*
X018007Y003826D01*
X018007Y003984D02*
X017425Y003984D01*
X017477Y004143D02*
X018007Y004143D01*
X018007Y004301D02*
X017477Y004301D01*
X017477Y004460D02*
X018007Y004460D01*
X018007Y004618D02*
X017477Y004618D01*
X017477Y004777D02*
X018007Y004777D01*
X018007Y004935D02*
X017477Y004935D01*
X017512Y005094D02*
X018007Y005094D01*
X018007Y005252D02*
X017603Y005252D01*
X017634Y005411D02*
X018007Y005411D01*
X018007Y005569D02*
X017619Y005569D01*
X017551Y005728D02*
X018007Y005728D01*
X018007Y005886D02*
X017367Y005886D01*
X018807Y006362D02*
X018969Y006362D01*
X017938Y003509D02*
X017546Y003509D01*
X017704Y003350D02*
X017779Y003350D01*
X015154Y003033D02*
X014705Y003033D01*
X014931Y002875D02*
X015154Y002875D01*
X015184Y002716D02*
X015090Y002716D01*
X015248Y002558D02*
X015250Y002558D01*
X014864Y001924D02*
X014697Y001924D01*
X014417Y001765D02*
X015063Y001765D01*
X014367Y001765D02*
X014367Y001765D01*
X014367Y001924D02*
X014367Y001924D01*
X014367Y002082D02*
X014367Y002082D01*
X014367Y002180D02*
X014367Y002180D01*
X004594Y004777D02*
X003529Y004777D01*
X003371Y004935D02*
X004451Y004935D01*
X004389Y005094D02*
X003212Y005094D01*
X003054Y005252D02*
X004389Y005252D01*
X004445Y005411D02*
X002895Y005411D01*
X002800Y005569D02*
X004580Y005569D01*
X004520Y005728D02*
X002800Y005728D01*
X002771Y005886D02*
X004392Y005886D01*
X004389Y006045D02*
X002705Y006045D01*
X002559Y006203D02*
X004335Y006203D01*
D22*
X013867Y018430D03*
D23*
X013617Y017430D02*
X013657Y017380D01*
X014777Y017380D01*
X014777Y015700D01*
X015177Y015300D01*
X015817Y015300D01*
X015817Y011220D01*
X015862Y011175D01*
M02*
