%
M48
M72
T01C0.0240
T02C0.0276
T03C0.0320
T04C0.0354
T05C0.0400
T06C0.0591
%
T01
X18581Y13381
X30021Y9141
T02
X1181Y1056
X1181Y1931
X1181Y3181
X1181Y4181
X1181Y5181
X3681Y6181
X6306Y7181
X7806Y6181
X8806Y6181
X8306Y4181
X8306Y3181
X6306Y4181
X6681Y1056
X5681Y1056
X12181Y1181
X13681Y1181
X15556Y3056
X15556Y4681
X15556Y6306
X18556Y6306
X19556Y5306
X18556Y4681
X19556Y4306
X19556Y3306
X18556Y3056
X19556Y2306
X22556Y2306
X22556Y3306
X22556Y4306
X22556Y5306
X23681Y5181
X26681Y5181
X26806Y7056
X24681Y8681
X22681Y8681
X20681Y8681
X18681Y8681
X16681Y8681
X14681Y8681
X12681Y8681
X10681Y8681
X10681Y11681
X12681Y11681
X14681Y11681
X16681Y11681
X18681Y11681
X20681Y11681
X22681Y11681
X24681Y11681
X21681Y13181
X19681Y13181
X17681Y13181
X15681Y13181
X13681Y13181
X11681Y13181
X11681Y16181
X13681Y16181
X15681Y16181
X17681Y16181
X17058Y17542
X19681Y16181
X21681Y16181
X23284Y17321
X25284Y18821
X25284Y19821
X23284Y20321
X17058Y20542
X10181Y19181
X10181Y18181
X3681Y17181
X1681Y16681
X1681Y15181
X3681Y14181
X3681Y13181
X3681Y10181
X3681Y9181
X3181Y18681
X3181Y19681
X24181Y15181
X24181Y14181
X31078Y17830
X31078Y20830
X36660Y21046
X38160Y21046
X39660Y21046
X42932Y19686
X42932Y18686
X45932Y18686
X45932Y19686
X46493Y17465
X47493Y17465
X48493Y17465
X50974Y17970
X54976Y18561
X54897Y19939
X50974Y20970
X44993Y16465
X41681Y16181
X40681Y16181
X39660Y18046
X38160Y18046
X36660Y18046
X37181Y16681
X35181Y14681
X35181Y13681
X37181Y13681
X37181Y11681
X35181Y11681
X39181Y11681
X41181Y11681
X40681Y13681
X41681Y13681
X44993Y13465
X46493Y14465
X47493Y14465
X48493Y14465
X46993Y11465
X44993Y11465
X49493Y10465
X49493Y9465
X46993Y8465
X44993Y8465
X41181Y8681
X39181Y8681
X37181Y8681
X35181Y8681
X30681Y6181
X30681Y5181
X30681Y4181
X28181Y2931
X28181Y1931
X23806Y7056
X39181Y5681
X39181Y2681
X45493Y2465
X45493Y3465
X47493Y3465
X47493Y4465
X47493Y5465
X45493Y4965
X45493Y5965
X49993Y5965
X49993Y4965
X49993Y2965
X49993Y1965
T03
X36681Y2681
X36681Y3681
X36681Y4681
X36681Y5681
X33681Y5681
X33681Y4681
X33681Y3681
X33681Y2681
X32181Y9181
X32181Y10181
X32181Y11181
X32181Y12181
X32181Y13181
X32181Y14181
X32181Y15181
X29181Y15181
X29181Y14181
X29181Y13181
X29181Y12181
X29181Y11181
X29181Y10181
X29181Y9181
X8681Y9181
X8681Y10181
X8681Y11181
X8681Y12181
X8681Y13181
X8681Y14181
X8681Y15181
X5681Y15181
X5681Y14181
X5681Y13181
X5681Y12181
X5681Y11181
X5681Y10181
X5681Y9181
T04
X1681Y10681
X1681Y12681
X7681Y17681
X7681Y19681
X6681Y2556
X5681Y2556
T05
X11931Y4056
X11931Y5056
X11931Y6056
T06
X12480Y23557
X10512Y23557
X8543Y23557
X5630Y23586
X3662Y23586
X1693Y23586
X15412Y23579
X17380Y23579
X19349Y23579
X22347Y23600
X24316Y23600
X26284Y23600
X29266Y23623
X31235Y23623
X33203Y23623
X36168Y23586
X38137Y23586
X40105Y23586
X42997Y23587
X44965Y23587
X46934Y23587
X49846Y23591
X51815Y23591
X53783Y23591
M30
