%
M48
M72
T01C0.0240
T02C0.0276
T03C0.0320
T04C0.0354
T05C0.0400
T06C0.0591
T07C0.0630
T08C0.0866
T09C0.1260
%
T01
X23031Y10376
X26231Y8976
X26831Y9576
X23431Y12976
X28631Y5376
T02
X28681Y4526
X29931Y3776
X31181Y3776
X32431Y3776
X35931Y3776
X41931Y2776
X43681Y6276
X43681Y7276
X41931Y6776
X46931Y8276
X47931Y8276
X49181Y8276
X50306Y7901
X50306Y8901
X50306Y9901
X50306Y10901
X49181Y12276
X47931Y12276
X46931Y12276
X44681Y11776
X43681Y11776
X42181Y13526
X42181Y14776
X42181Y16026
X42066Y17255
X45181Y17276
X45181Y16276
X45181Y15276
X49181Y15276
X49181Y16276
X49181Y17276
X50893Y17069
X51681Y15276
X51681Y14276
X54893Y17069
X53306Y10901
X53306Y9901
X53306Y8901
X53306Y7901
X53431Y6526
X49431Y6526
X37681Y9776
X37681Y10776
X35931Y10776
X35931Y9776
X32431Y8776
X31181Y8776
X29931Y8776
X29931Y7776
X31181Y7776
X32431Y7776
X35931Y7776
X35931Y11776
X37681Y11776
X38181Y13526
X38181Y14776
X38181Y16026
X38066Y17255
X35431Y17276
X31431Y17276
X28681Y15026
X24681Y15026
X22306Y15101
X22306Y16101
X17656Y16101
X16656Y16101
X15181Y16451
X15131Y17501
X11131Y17501
X9656Y17476
X8256Y17476
X11181Y16451
X9656Y13476
X8256Y13476
X6831Y11451
X6831Y10451
X9556Y6526
X9556Y5526
X10931Y4401
X14931Y4401
X15931Y4026
X17181Y4026
X18431Y4026
X19681Y4026
X20931Y4026
X22181Y4026
X23431Y4026
X24681Y4526
X24181Y2526
X25681Y2526
X26681Y2526
X27681Y2526
X20181Y2526
X19681Y8026
X18431Y8026
X17181Y8026
X15931Y8026
X15931Y9026
X17181Y9026
X18431Y9026
X19681Y9026
X20931Y9026
X22181Y9026
X22181Y8026
X20931Y8026
X23431Y8026
X29931Y12776
X31181Y12776
X32431Y12776
X33931Y13776
X33931Y14776
X22181Y13026
X20931Y13026
X19681Y13026
X18431Y13026
X17181Y13026
X15931Y13026
T03
X13931Y13526
X11931Y13526
X11431Y12026
X11431Y11026
X9931Y10526
X11431Y10026
X11431Y9026
X9931Y8526
X11431Y8026
X11431Y7026
X11431Y6026
X14431Y6026
X14431Y7026
X14431Y8026
X14431Y9026
X14431Y10026
X14431Y11026
X14431Y12026
X25181Y12026
X25181Y11026
X25181Y10026
X25181Y9026
X25181Y8026
X25181Y7026
X25181Y6026
X28181Y6026
X28181Y7026
X28181Y8026
X28181Y9026
X28181Y10026
X28181Y11026
X28181Y12026
X27681Y13526
X25681Y13526
X25792Y16628
X27792Y16628
X33931Y11776
X33931Y9776
X37931Y7526
X39931Y7526
X40431Y6026
X40431Y5026
X40431Y4026
X40431Y3026
X37431Y3026
X37431Y4026
X37431Y5026
X37431Y6026
X34181Y6776
X34181Y4776
X43681Y3776
X43681Y1776
X52181Y1776
X52181Y3776
X41931Y9276
X39931Y9276
X39931Y11026
X41931Y11026
X50681Y12526
X52681Y12526
T04
X20031Y14501
X20031Y16501
X14131Y15276
X12131Y15276
X13056Y2776
X13056Y1776
T05
X7181Y6651
X7181Y7651
X7181Y8651
T06
X16431Y2526
X18431Y2526
X2931Y14776
X2931Y16776
X3463Y20276
X5431Y20276
X7400Y20276
X10463Y20276
X12431Y20276
X14400Y20276
X17463Y20276
X19431Y20276
X21400Y20276
X24463Y20276
X26431Y20276
X28400Y20276
X31463Y20276
X33431Y20276
X35400Y20276
X38463Y20276
X40431Y20276
X42400Y20276
X45463Y20276
X47431Y20276
X49400Y20276
X52463Y20276
X54431Y20276
X56400Y20276
X58681Y15776
X58681Y13776
T07
X8681Y3276
X7431Y3276
X6181Y3276
X2931Y4326
X2931Y5726
T08
X1181Y1776
X1381Y4326
X1381Y5726
X6206Y1726
X7431Y1726
X8656Y1726
X1181Y20526
X58931Y20526
X58931Y1776
T09
X49782Y2776
X47931Y2776
X46081Y2776
X5781Y14776
X5781Y16626
X3931Y10276
X3931Y8426
M30
