G75*
G70*
%OFA0B0*%
%FSLAX24Y24*%
%IPPOS*%
%LPD*%
%AMOC8*
5,1,8,0,0,1.08239X$1,22.5*
%
%ADD10C,0.0110*%
%ADD11C,0.0080*%
%ADD12C,0.0060*%
%ADD13C,0.0010*%
%ADD14C,0.0050*%
%ADD15C,0.0030*%
%ADD16C,0.0120*%
D10*
X007154Y007957D02*
X007056Y008055D01*
X007154Y007957D02*
X007351Y007957D01*
X007449Y008055D01*
X007449Y008153D01*
X007351Y008252D01*
X007154Y008252D01*
X007056Y008350D01*
X007056Y008449D01*
X007154Y008547D01*
X007351Y008547D01*
X007449Y008449D01*
X007700Y008547D02*
X007700Y007957D01*
X007897Y008153D01*
X008094Y007957D01*
X008094Y008547D01*
X008345Y008350D02*
X008542Y008547D01*
X008542Y007957D01*
X008345Y007957D02*
X008739Y007957D01*
X006194Y008757D02*
X005800Y008757D01*
X005997Y008757D02*
X005997Y009347D01*
X005800Y009150D01*
X005549Y009249D02*
X005549Y008855D01*
X005451Y008757D01*
X005254Y008757D01*
X005156Y008855D01*
X005156Y009249D01*
X005254Y009347D01*
X005451Y009347D01*
X005549Y009249D01*
X005353Y008953D02*
X005549Y008757D01*
X005694Y011257D02*
X005300Y011257D01*
X005694Y011650D01*
X005694Y011749D01*
X005596Y011847D01*
X005399Y011847D01*
X005300Y011749D01*
X005049Y011749D02*
X005049Y011355D01*
X004951Y011257D01*
X004754Y011257D01*
X004656Y011355D01*
X004656Y011749D01*
X004754Y011847D01*
X004951Y011847D01*
X005049Y011749D01*
X004853Y011453D02*
X005049Y011257D01*
X002946Y011257D02*
X002355Y011257D01*
X002355Y011552D01*
X002454Y011650D01*
X002651Y011650D01*
X002749Y011552D01*
X002749Y011257D01*
X002749Y011453D02*
X002946Y011650D01*
X002946Y011901D02*
X002946Y012295D01*
X002946Y012098D02*
X002355Y012098D01*
X002552Y011901D01*
X004367Y013557D02*
X004367Y014147D01*
X004662Y014147D01*
X004760Y014049D01*
X004760Y013852D01*
X004662Y013753D01*
X004367Y013753D01*
X004564Y013753D02*
X004760Y013557D01*
X005011Y013655D02*
X005110Y013557D01*
X005306Y013557D01*
X005405Y013655D01*
X005405Y013753D01*
X005306Y013852D01*
X005208Y013852D01*
X005306Y013852D02*
X005405Y013950D01*
X005405Y014049D01*
X005306Y014147D01*
X005110Y014147D01*
X005011Y014049D01*
X002946Y015167D02*
X002355Y015167D01*
X002355Y015463D01*
X002454Y015561D01*
X002651Y015561D01*
X002749Y015463D01*
X002749Y015167D01*
X002749Y015364D02*
X002946Y015561D01*
X002946Y015812D02*
X002552Y016206D01*
X002454Y016206D01*
X002355Y016107D01*
X002355Y015910D01*
X002454Y015812D01*
X002946Y015812D02*
X002946Y016206D01*
X008156Y013249D02*
X008156Y012855D01*
X008254Y012757D01*
X008451Y012757D01*
X008549Y012855D01*
X008800Y012855D02*
X008899Y012757D01*
X009096Y012757D01*
X009194Y012855D01*
X009194Y012953D01*
X009096Y013052D01*
X008997Y013052D01*
X009096Y013052D02*
X009194Y013150D01*
X009194Y013249D01*
X009096Y013347D01*
X008899Y013347D01*
X008800Y013249D01*
X008549Y013249D02*
X008451Y013347D01*
X008254Y013347D01*
X008156Y013249D01*
X010656Y011249D02*
X010656Y010855D01*
X010754Y010757D01*
X010951Y010757D01*
X011049Y010855D01*
X011300Y010757D02*
X011694Y010757D01*
X011497Y010757D02*
X011497Y011347D01*
X011300Y011150D01*
X011049Y011249D02*
X010951Y011347D01*
X010754Y011347D01*
X010656Y011249D01*
X014156Y013855D02*
X014254Y013757D01*
X014451Y013757D01*
X014549Y013855D01*
X014800Y013757D02*
X015194Y014150D01*
X015194Y014249D01*
X015096Y014347D01*
X014899Y014347D01*
X014800Y014249D01*
X014549Y014249D02*
X014451Y014347D01*
X014254Y014347D01*
X014156Y014249D01*
X014156Y013855D01*
X014800Y013757D02*
X015194Y013757D01*
X011446Y014757D02*
X010855Y014757D01*
X010855Y015052D01*
X010954Y015150D01*
X011151Y015150D01*
X011249Y015052D01*
X011249Y014757D01*
X011249Y014953D02*
X011446Y015150D01*
X011151Y015401D02*
X011151Y015795D01*
X011446Y015696D02*
X010855Y015696D01*
X011151Y015401D01*
D11*
X001521Y000552D02*
X001241Y000552D01*
X001381Y000692D02*
X001381Y000412D01*
X002141Y000552D02*
X002421Y000552D01*
X001351Y007942D02*
X001211Y007942D01*
X001141Y008012D01*
X001211Y008152D02*
X001351Y008152D01*
X001421Y008082D01*
X001421Y008012D01*
X001351Y007942D01*
X001211Y008152D02*
X001141Y008222D01*
X001141Y008292D01*
X001211Y008362D01*
X001351Y008362D01*
X001421Y008292D01*
X001421Y009042D02*
X001281Y009182D01*
X001351Y009182D02*
X001141Y009182D01*
X001141Y009042D02*
X001141Y009462D01*
X001351Y009462D01*
X001421Y009392D01*
X001421Y009252D01*
X001351Y009182D01*
X001281Y009942D02*
X001281Y010362D01*
X001141Y010362D02*
X001421Y010362D01*
X005341Y017842D02*
X005341Y018262D01*
X005551Y018262D01*
X005621Y018192D01*
X005621Y018052D01*
X005551Y017982D01*
X005341Y017982D01*
X005801Y017912D02*
X005871Y017842D01*
X006011Y017842D01*
X006081Y017912D01*
X006081Y018192D01*
X006011Y018262D01*
X005871Y018262D01*
X005801Y018192D01*
X005801Y017912D01*
X006261Y018262D02*
X006542Y018262D01*
X006402Y018262D02*
X006402Y017842D01*
X006722Y017842D02*
X007002Y018122D01*
X007002Y018192D01*
X006932Y018262D01*
X006792Y018262D01*
X006722Y018192D01*
X006722Y017842D02*
X007002Y017842D01*
X010441Y017882D02*
X010651Y017882D01*
X010721Y017952D01*
X010721Y018092D01*
X010651Y018162D01*
X010441Y018162D01*
X010441Y017742D01*
X010901Y017812D02*
X010971Y017742D01*
X011111Y017742D01*
X011181Y017812D01*
X011181Y018092D01*
X011111Y018162D01*
X010971Y018162D01*
X010901Y018092D01*
X010901Y017812D01*
X011361Y018162D02*
X011642Y018162D01*
X011502Y018162D02*
X011502Y017742D01*
X011822Y017742D02*
X012102Y017742D01*
X011962Y017742D02*
X011962Y018162D01*
X011822Y018022D01*
X014141Y010462D02*
X014421Y010462D01*
X014281Y010462D02*
X014281Y010042D01*
X014351Y009662D02*
X014211Y009662D01*
X014141Y009592D01*
X014141Y009522D01*
X014211Y009452D01*
X014351Y009452D01*
X014421Y009382D01*
X014421Y009312D01*
X014351Y009242D01*
X014211Y009242D01*
X014141Y009312D01*
X014421Y009592D02*
X014351Y009662D01*
X002421Y018552D02*
X002351Y018482D01*
X002141Y018482D01*
X002141Y018342D02*
X002141Y018762D01*
X002351Y018762D01*
X002421Y018692D01*
X002421Y018552D01*
X001721Y018692D02*
X001651Y018762D01*
X001511Y018762D01*
X001441Y018692D01*
X001441Y018412D01*
X001511Y018342D01*
X001651Y018342D01*
X001721Y018412D01*
X001021Y018412D02*
X000951Y018342D01*
X000811Y018342D01*
X000741Y018412D01*
X000811Y018552D02*
X000951Y018552D01*
X001021Y018482D01*
X001021Y018412D01*
X000811Y018552D02*
X000741Y018622D01*
X000741Y018692D01*
X000811Y018762D01*
X000951Y018762D01*
X001021Y018692D01*
D12*
X001056Y017972D02*
X000999Y017915D01*
X000999Y017688D01*
X001056Y017632D01*
X001169Y017632D01*
X001226Y017688D01*
X001226Y017915D02*
X001169Y017972D01*
X001056Y017972D01*
X000858Y017915D02*
X000801Y017972D01*
X000631Y017972D01*
X000631Y017632D01*
X000801Y017632D01*
X000858Y017688D01*
X000858Y017915D01*
X001736Y017688D02*
X001792Y017632D01*
X001849Y017632D01*
X001906Y017688D01*
X001906Y017972D01*
X001849Y017972D02*
X001963Y017972D01*
X002161Y017858D02*
X002274Y017858D01*
X002331Y017802D01*
X002331Y017632D01*
X002161Y017632D01*
X002104Y017688D01*
X002161Y017745D01*
X002331Y017745D01*
X002472Y017688D02*
X002529Y017632D01*
X002699Y017632D01*
X002841Y017632D02*
X002841Y017972D01*
X002699Y017858D02*
X002529Y017858D01*
X002472Y017802D01*
X002472Y017688D01*
X002841Y017745D02*
X003011Y017632D01*
X002841Y017745D02*
X003011Y017858D01*
X004251Y016952D02*
X004251Y015602D01*
X004001Y015395D02*
X003951Y015445D01*
X003951Y015958D01*
X004001Y016008D01*
X004001Y016208D01*
X003999Y016225D01*
X003995Y016242D01*
X003988Y016258D01*
X003978Y016272D01*
X003965Y016285D01*
X003951Y016295D01*
X003935Y016302D01*
X003918Y016306D01*
X003901Y016308D01*
X003301Y016308D01*
X003284Y016306D01*
X003267Y016302D01*
X003251Y016295D01*
X003237Y016285D01*
X003224Y016272D01*
X003214Y016258D01*
X003207Y016242D01*
X003203Y016225D01*
X003201Y016208D01*
X003201Y016008D01*
X003251Y015958D01*
X003251Y015445D01*
X003201Y015395D01*
X003201Y015195D01*
X003203Y015178D01*
X003207Y015161D01*
X003214Y015145D01*
X003224Y015131D01*
X003237Y015118D01*
X003251Y015108D01*
X003267Y015101D01*
X003284Y015097D01*
X003301Y015095D01*
X003901Y015095D01*
X003918Y015097D01*
X003935Y015101D01*
X003951Y015108D01*
X003965Y015118D01*
X003978Y015131D01*
X003988Y015145D01*
X003995Y015161D01*
X003999Y015178D01*
X004001Y015195D01*
X004001Y015395D01*
X004251Y015102D02*
X004251Y014452D01*
X004351Y014352D01*
X004601Y014352D01*
X005351Y014352D01*
X005201Y014502D02*
X004601Y014502D01*
X004601Y014352D01*
X005451Y015102D02*
X005451Y015402D01*
X005751Y015402D01*
X005751Y015552D01*
X005901Y015702D01*
X006201Y015702D01*
X006201Y016002D01*
X005901Y016002D01*
X005751Y016152D01*
X005751Y016302D01*
X005751Y016602D01*
X005451Y016602D01*
X005451Y016302D01*
X005451Y016152D01*
X005301Y016002D01*
X005001Y016002D01*
X005001Y015702D01*
X005301Y015702D01*
X005451Y015552D01*
X005451Y015402D01*
X005751Y015402D02*
X005751Y015102D01*
X005451Y015102D01*
X006001Y014502D02*
X006601Y014502D01*
X006601Y014352D01*
X006851Y014352D01*
X006951Y014452D01*
X006951Y015102D01*
X006951Y015602D02*
X006951Y016952D01*
X006851Y017052D01*
X004351Y017052D01*
X004251Y016952D01*
X005451Y016302D02*
X005751Y016302D01*
X007198Y016563D02*
X007198Y014240D01*
X006601Y014352D02*
X005851Y014352D01*
X005776Y013352D02*
X007426Y013352D01*
X007986Y013453D02*
X008616Y013453D01*
X008670Y013455D01*
X008723Y013460D01*
X008776Y013469D01*
X008828Y013482D01*
X008880Y013498D01*
X008930Y013518D01*
X008978Y013541D01*
X009025Y013568D01*
X009070Y013597D01*
X009113Y013630D01*
X009153Y013665D01*
X009191Y013703D01*
X009226Y013743D01*
X009259Y013786D01*
X009288Y013831D01*
X009315Y013878D01*
X009338Y013926D01*
X009358Y013976D01*
X009374Y014028D01*
X009387Y014080D01*
X009396Y014133D01*
X009401Y014186D01*
X009403Y014240D01*
X009403Y016563D01*
X009401Y016617D01*
X009396Y016670D01*
X009387Y016723D01*
X009374Y016775D01*
X009358Y016827D01*
X009338Y016877D01*
X009315Y016925D01*
X009288Y016972D01*
X009259Y017017D01*
X009226Y017060D01*
X009191Y017100D01*
X009153Y017138D01*
X009113Y017173D01*
X009070Y017206D01*
X009025Y017235D01*
X008978Y017262D01*
X008930Y017285D01*
X008880Y017305D01*
X008828Y017321D01*
X008776Y017334D01*
X008723Y017343D01*
X008670Y017348D01*
X008616Y017350D01*
X007986Y017350D01*
X007932Y017348D01*
X007879Y017343D01*
X007826Y017334D01*
X007774Y017321D01*
X007722Y017305D01*
X007672Y017285D01*
X007624Y017262D01*
X007577Y017235D01*
X007532Y017206D01*
X007489Y017173D01*
X007449Y017138D01*
X007411Y017100D01*
X007376Y017060D01*
X007343Y017017D01*
X007314Y016972D01*
X007287Y016925D01*
X007264Y016877D01*
X007244Y016827D01*
X007228Y016775D01*
X007215Y016723D01*
X007206Y016670D01*
X007201Y016617D01*
X007199Y016563D01*
X007199Y014240D02*
X007201Y014186D01*
X007206Y014133D01*
X007215Y014080D01*
X007228Y014028D01*
X007244Y013976D01*
X007264Y013926D01*
X007287Y013878D01*
X007314Y013831D01*
X007343Y013786D01*
X007376Y013743D01*
X007411Y013703D01*
X007449Y013665D01*
X007489Y013630D01*
X007532Y013597D01*
X007577Y013568D01*
X007624Y013541D01*
X007672Y013518D01*
X007722Y013498D01*
X007774Y013482D01*
X007826Y013469D01*
X007879Y013460D01*
X007932Y013455D01*
X007986Y013453D01*
X007926Y010852D02*
X006276Y010852D01*
X004001Y011195D02*
X004001Y011395D01*
X003951Y011445D01*
X003951Y011958D01*
X004001Y012008D01*
X004001Y012208D01*
X003999Y012225D01*
X003995Y012242D01*
X003988Y012258D01*
X003978Y012272D01*
X003965Y012285D01*
X003951Y012295D01*
X003935Y012302D01*
X003918Y012306D01*
X003901Y012308D01*
X003301Y012308D01*
X003284Y012306D01*
X003267Y012302D01*
X003251Y012295D01*
X003237Y012285D01*
X003224Y012272D01*
X003214Y012258D01*
X003207Y012242D01*
X003203Y012225D01*
X003201Y012208D01*
X003201Y012008D01*
X003251Y011958D01*
X003251Y011445D01*
X003201Y011395D01*
X003201Y011195D01*
X003203Y011178D01*
X003207Y011161D01*
X003214Y011145D01*
X003224Y011131D01*
X003237Y011118D01*
X003251Y011108D01*
X003267Y011101D01*
X003284Y011097D01*
X003301Y011095D01*
X003901Y011095D01*
X003918Y011097D01*
X003935Y011101D01*
X003951Y011108D01*
X003965Y011118D01*
X003978Y011131D01*
X003988Y011145D01*
X003995Y011161D01*
X003999Y011178D01*
X004001Y011195D01*
X001203Y011172D02*
X001203Y010832D01*
X000976Y011172D01*
X000976Y010832D01*
X000844Y010832D02*
X000731Y010832D01*
X000787Y010832D02*
X000787Y011172D01*
X000731Y011172D02*
X000844Y011172D01*
X005501Y007402D02*
X005501Y001402D01*
X010501Y001402D01*
X010501Y007402D01*
X005501Y007402D01*
X003665Y001858D02*
X003665Y001575D01*
X003609Y001518D01*
X003552Y001518D01*
X003495Y001632D02*
X003439Y001688D01*
X003439Y001858D01*
X003302Y001858D02*
X003245Y001858D01*
X003132Y001745D01*
X003132Y001632D02*
X003132Y001858D01*
X002990Y001802D02*
X002990Y001745D01*
X002763Y001745D01*
X002763Y001802D02*
X002820Y001858D01*
X002933Y001858D01*
X002990Y001802D01*
X002933Y001632D02*
X002820Y001632D01*
X002763Y001688D01*
X002763Y001802D01*
X002631Y001858D02*
X002518Y001858D01*
X002575Y001915D02*
X002575Y001688D01*
X002631Y001632D01*
X002386Y001632D02*
X002329Y001688D01*
X002329Y001915D01*
X002272Y001858D02*
X002386Y001858D01*
X002131Y001802D02*
X002131Y001632D01*
X001961Y001632D01*
X001904Y001688D01*
X001961Y001745D01*
X002131Y001745D01*
X002131Y001802D02*
X002074Y001858D01*
X001961Y001858D01*
X001763Y001858D02*
X001706Y001802D01*
X001536Y001802D01*
X001706Y001802D02*
X001763Y001745D01*
X001763Y001688D01*
X001706Y001632D01*
X001536Y001632D01*
X001536Y001972D01*
X001706Y001972D01*
X001763Y001915D01*
X001763Y001858D01*
X001026Y001745D02*
X001026Y001972D01*
X000799Y001972D02*
X000799Y001745D01*
X000913Y001632D01*
X001026Y001745D01*
X000658Y001688D02*
X000658Y001915D01*
X000601Y001972D01*
X000487Y001972D01*
X000431Y001915D01*
X000431Y001858D01*
X000487Y001802D01*
X000658Y001802D01*
X000658Y001688D02*
X000601Y001632D01*
X000487Y001632D01*
X000431Y001688D01*
X003495Y001632D02*
X003665Y001632D01*
X007031Y000799D02*
X007031Y000725D01*
X007104Y000652D01*
X007251Y000652D01*
X007324Y000578D01*
X007324Y000505D01*
X007251Y000432D01*
X007104Y000432D01*
X007031Y000505D01*
X007031Y000799D02*
X007104Y000872D01*
X007251Y000872D01*
X007324Y000799D01*
X007491Y000872D02*
X007491Y000432D01*
X007638Y000578D01*
X007785Y000432D01*
X007785Y000872D01*
X007951Y000725D02*
X008098Y000872D01*
X008098Y000432D01*
X007951Y000432D02*
X008245Y000432D01*
X012061Y008872D02*
X012061Y009132D01*
X011941Y009002D02*
X012191Y009002D01*
X011617Y010202D02*
X011619Y010264D01*
X011625Y010327D01*
X011635Y010388D01*
X011649Y010449D01*
X011666Y010509D01*
X011687Y010568D01*
X011713Y010625D01*
X011741Y010680D01*
X011773Y010734D01*
X011809Y010785D01*
X011847Y010835D01*
X011889Y010881D01*
X011933Y010925D01*
X011981Y010966D01*
X012030Y011004D01*
X012082Y011038D01*
X012136Y011069D01*
X012192Y011097D01*
X012250Y011121D01*
X012309Y011142D01*
X012369Y011158D01*
X012430Y011171D01*
X012492Y011180D01*
X012554Y011185D01*
X012617Y011186D01*
X012679Y011183D01*
X012741Y011176D01*
X012803Y011165D01*
X012863Y011150D01*
X012923Y011132D01*
X012981Y011110D01*
X013038Y011084D01*
X013093Y011054D01*
X013146Y011021D01*
X013197Y010985D01*
X013245Y010946D01*
X013291Y010903D01*
X013334Y010858D01*
X013374Y010810D01*
X013411Y010760D01*
X013445Y010707D01*
X013476Y010653D01*
X013502Y010597D01*
X013526Y010539D01*
X013545Y010479D01*
X013561Y010419D01*
X013573Y010357D01*
X013581Y010296D01*
X013585Y010233D01*
X013585Y010171D01*
X013581Y010108D01*
X013573Y010047D01*
X013561Y009985D01*
X013545Y009925D01*
X013526Y009865D01*
X013502Y009807D01*
X013476Y009751D01*
X013445Y009697D01*
X013411Y009644D01*
X013374Y009594D01*
X013334Y009546D01*
X013291Y009501D01*
X013245Y009458D01*
X013197Y009419D01*
X013146Y009383D01*
X013093Y009350D01*
X013038Y009320D01*
X012981Y009294D01*
X012923Y009272D01*
X012863Y009254D01*
X012803Y009239D01*
X012741Y009228D01*
X012679Y009221D01*
X012617Y009218D01*
X012554Y009219D01*
X012492Y009224D01*
X012430Y009233D01*
X012369Y009246D01*
X012309Y009262D01*
X012250Y009283D01*
X012192Y009307D01*
X012136Y009335D01*
X012082Y009366D01*
X012030Y009400D01*
X011981Y009438D01*
X011933Y009479D01*
X011889Y009523D01*
X011847Y009569D01*
X011809Y009619D01*
X011773Y009670D01*
X011741Y009724D01*
X011713Y009779D01*
X011687Y009836D01*
X011666Y009895D01*
X011649Y009955D01*
X011635Y010016D01*
X011625Y010077D01*
X011619Y010140D01*
X011617Y010202D01*
X014431Y010988D02*
X014487Y010932D01*
X014601Y010932D01*
X014658Y010988D01*
X014658Y011215D01*
X014601Y011272D01*
X014487Y011272D01*
X014431Y011215D01*
X014431Y010988D01*
X014799Y010988D02*
X014799Y011272D01*
X015026Y011272D02*
X015026Y010988D01*
X014969Y010932D01*
X014856Y010932D01*
X014799Y010988D01*
X015167Y011272D02*
X015394Y011272D01*
X015281Y011272D02*
X015281Y010932D01*
X012401Y014595D02*
X011801Y014595D01*
X011784Y014597D01*
X011767Y014601D01*
X011751Y014608D01*
X011737Y014618D01*
X011724Y014631D01*
X011714Y014645D01*
X011707Y014661D01*
X011703Y014678D01*
X011701Y014695D01*
X011701Y014895D01*
X011751Y014945D01*
X011751Y015458D01*
X011701Y015508D01*
X011701Y015708D01*
X011703Y015725D01*
X011707Y015742D01*
X011714Y015758D01*
X011724Y015772D01*
X011737Y015785D01*
X011751Y015795D01*
X011767Y015802D01*
X011784Y015806D01*
X011801Y015808D01*
X012401Y015808D01*
X012418Y015806D01*
X012435Y015802D01*
X012451Y015795D01*
X012465Y015785D01*
X012478Y015772D01*
X012488Y015758D01*
X012495Y015742D01*
X012499Y015725D01*
X012501Y015708D01*
X012501Y015508D01*
X012451Y015458D01*
X012451Y014945D01*
X012501Y014895D01*
X012501Y014695D01*
X012499Y014678D01*
X012495Y014661D01*
X012488Y014645D01*
X012478Y014631D01*
X012465Y014618D01*
X012451Y014608D01*
X012435Y014601D01*
X012418Y014597D01*
X012401Y014595D01*
X013151Y015612D02*
X013151Y015862D01*
X013281Y015742D02*
X013021Y015742D01*
X012617Y015202D02*
X012619Y015264D01*
X012625Y015327D01*
X012635Y015388D01*
X012649Y015449D01*
X012666Y015509D01*
X012687Y015568D01*
X012713Y015625D01*
X012741Y015680D01*
X012773Y015734D01*
X012809Y015785D01*
X012847Y015835D01*
X012889Y015881D01*
X012933Y015925D01*
X012981Y015966D01*
X013030Y016004D01*
X013082Y016038D01*
X013136Y016069D01*
X013192Y016097D01*
X013250Y016121D01*
X013309Y016142D01*
X013369Y016158D01*
X013430Y016171D01*
X013492Y016180D01*
X013554Y016185D01*
X013617Y016186D01*
X013679Y016183D01*
X013741Y016176D01*
X013803Y016165D01*
X013863Y016150D01*
X013923Y016132D01*
X013981Y016110D01*
X014038Y016084D01*
X014093Y016054D01*
X014146Y016021D01*
X014197Y015985D01*
X014245Y015946D01*
X014291Y015903D01*
X014334Y015858D01*
X014374Y015810D01*
X014411Y015760D01*
X014445Y015707D01*
X014476Y015653D01*
X014502Y015597D01*
X014526Y015539D01*
X014545Y015479D01*
X014561Y015419D01*
X014573Y015357D01*
X014581Y015296D01*
X014585Y015233D01*
X014585Y015171D01*
X014581Y015108D01*
X014573Y015047D01*
X014561Y014985D01*
X014545Y014925D01*
X014526Y014865D01*
X014502Y014807D01*
X014476Y014751D01*
X014445Y014697D01*
X014411Y014644D01*
X014374Y014594D01*
X014334Y014546D01*
X014291Y014501D01*
X014245Y014458D01*
X014197Y014419D01*
X014146Y014383D01*
X014093Y014350D01*
X014038Y014320D01*
X013981Y014294D01*
X013923Y014272D01*
X013863Y014254D01*
X013803Y014239D01*
X013741Y014228D01*
X013679Y014221D01*
X013617Y014218D01*
X013554Y014219D01*
X013492Y014224D01*
X013430Y014233D01*
X013369Y014246D01*
X013309Y014262D01*
X013250Y014283D01*
X013192Y014307D01*
X013136Y014335D01*
X013082Y014366D01*
X013030Y014400D01*
X012981Y014438D01*
X012933Y014479D01*
X012889Y014523D01*
X012847Y014569D01*
X012809Y014619D01*
X012773Y014670D01*
X012741Y014724D01*
X012713Y014779D01*
X012687Y014836D01*
X012666Y014895D01*
X012649Y014955D01*
X012635Y015016D01*
X012625Y015077D01*
X012619Y015140D01*
X012617Y015202D01*
X012931Y019332D02*
X012931Y019672D01*
X013158Y019672D01*
X013299Y019558D02*
X013299Y019388D01*
X013356Y019332D01*
X013526Y019332D01*
X013526Y019558D01*
X013667Y019558D02*
X013894Y019558D01*
X013667Y019332D01*
X013894Y019332D01*
X014036Y019332D02*
X014263Y019332D01*
X014263Y019558D02*
X014036Y019558D01*
X014036Y019332D02*
X014263Y019558D01*
X013044Y019502D02*
X012931Y019502D01*
X009576Y019502D02*
X009576Y019445D01*
X009350Y019445D01*
X009350Y019502D02*
X009406Y019558D01*
X009520Y019558D01*
X009576Y019502D01*
X009520Y019332D02*
X009406Y019332D01*
X009350Y019388D01*
X009350Y019502D01*
X009208Y019502D02*
X009151Y019558D01*
X009095Y019502D01*
X009095Y019332D01*
X009208Y019332D02*
X009208Y019502D01*
X009095Y019502D02*
X009038Y019558D01*
X008981Y019558D01*
X008981Y019332D01*
X008840Y019332D02*
X008840Y019558D01*
X008840Y019332D02*
X008670Y019332D01*
X008613Y019388D01*
X008613Y019558D01*
X008424Y019672D02*
X008424Y019332D01*
X008367Y019332D02*
X008481Y019332D01*
X008424Y019672D02*
X008367Y019672D01*
X008226Y019502D02*
X008169Y019558D01*
X008056Y019558D01*
X007999Y019502D01*
X007999Y019388D01*
X008056Y019332D01*
X008169Y019332D01*
X008226Y019388D01*
X008226Y019502D01*
X007858Y019445D02*
X007858Y019672D01*
X007858Y019445D02*
X007744Y019332D01*
X007631Y019445D01*
X007631Y019672D01*
D13*
X005754Y013363D02*
X005793Y013332D01*
X005793Y013333D02*
X005756Y013283D01*
X005723Y013231D01*
X005693Y013177D01*
X005666Y013121D01*
X005642Y013064D01*
X005622Y013006D01*
X005606Y012946D01*
X005593Y012886D01*
X005583Y012825D01*
X005578Y012763D01*
X005576Y012701D01*
X005578Y012640D01*
X005584Y012578D01*
X005593Y012517D01*
X005606Y012457D01*
X005622Y012397D01*
X005643Y012339D01*
X005666Y012282D01*
X005693Y012226D01*
X005724Y012172D01*
X005757Y012120D01*
X005794Y012071D01*
X005833Y012023D01*
X005875Y011978D01*
X005920Y011936D01*
X005968Y011896D01*
X006018Y011859D01*
X006069Y011826D01*
X006123Y011795D01*
X006179Y011768D01*
X006236Y011744D01*
X006294Y011724D01*
X006280Y011677D01*
X006279Y011676D01*
X006218Y011698D01*
X006158Y011722D01*
X006100Y011751D01*
X006044Y011783D01*
X005989Y011818D01*
X005937Y011857D01*
X005887Y011898D01*
X005840Y011943D01*
X005796Y011990D01*
X005754Y012040D01*
X005716Y012092D01*
X005681Y012146D01*
X005649Y012203D01*
X005621Y012261D01*
X005596Y012321D01*
X005575Y012382D01*
X005557Y012445D01*
X005544Y012508D01*
X005534Y012572D01*
X005528Y012637D01*
X005526Y012701D01*
X005528Y012766D01*
X005534Y012831D01*
X005543Y012895D01*
X005557Y012958D01*
X005574Y013021D01*
X005595Y013082D01*
X005620Y013142D01*
X005648Y013200D01*
X005680Y013257D01*
X005715Y013311D01*
X005754Y013364D01*
X005761Y013358D01*
X005723Y013306D01*
X005688Y013252D01*
X005656Y013196D01*
X005628Y013138D01*
X005604Y013079D01*
X005583Y013018D01*
X005566Y012956D01*
X005552Y012893D01*
X005543Y012830D01*
X005537Y012766D01*
X005535Y012701D01*
X005537Y012637D01*
X005543Y012573D01*
X005552Y012510D01*
X005566Y012447D01*
X005583Y012385D01*
X005604Y012324D01*
X005629Y012265D01*
X005657Y012207D01*
X005688Y012151D01*
X005723Y012097D01*
X005761Y012045D01*
X005802Y011996D01*
X005846Y011949D01*
X005893Y011905D01*
X005943Y011864D01*
X005994Y011826D01*
X006048Y011791D01*
X006104Y011759D01*
X006162Y011731D01*
X006221Y011706D01*
X006282Y011685D01*
X006285Y011693D01*
X006224Y011714D01*
X006166Y011739D01*
X006108Y011767D01*
X006053Y011798D01*
X005999Y011833D01*
X005948Y011871D01*
X005899Y011912D01*
X005853Y011955D01*
X005809Y012002D01*
X005768Y012051D01*
X005731Y012102D01*
X005696Y012156D01*
X005665Y012211D01*
X005637Y012268D01*
X005613Y012327D01*
X005592Y012388D01*
X005575Y012449D01*
X005561Y012511D01*
X005552Y012574D01*
X005546Y012638D01*
X005544Y012701D01*
X005546Y012765D01*
X005552Y012829D01*
X005561Y012892D01*
X005574Y012954D01*
X005592Y013015D01*
X005612Y013076D01*
X005637Y013135D01*
X005664Y013192D01*
X005696Y013247D01*
X005730Y013301D01*
X005768Y013352D01*
X005775Y013347D01*
X005738Y013296D01*
X005703Y013243D01*
X005672Y013188D01*
X005645Y013131D01*
X005621Y013072D01*
X005600Y013013D01*
X005583Y012952D01*
X005570Y012890D01*
X005561Y012828D01*
X005555Y012765D01*
X005553Y012701D01*
X005555Y012638D01*
X005561Y012575D01*
X005570Y012513D01*
X005583Y012451D01*
X005600Y012390D01*
X005621Y012331D01*
X005645Y012272D01*
X005673Y012215D01*
X005704Y012160D01*
X005738Y012107D01*
X005776Y012056D01*
X005816Y012008D01*
X005859Y011962D01*
X005905Y011918D01*
X005954Y011878D01*
X006004Y011840D01*
X006057Y011806D01*
X006112Y011775D01*
X006169Y011747D01*
X006228Y011723D01*
X006287Y011702D01*
X006290Y011711D01*
X006231Y011731D01*
X006173Y011755D01*
X006117Y011783D01*
X006062Y011814D01*
X006010Y011848D01*
X005959Y011885D01*
X005911Y011925D01*
X005866Y011968D01*
X005823Y012014D01*
X005783Y012062D01*
X005746Y012112D01*
X005712Y012165D01*
X005681Y012220D01*
X005653Y012276D01*
X005629Y012334D01*
X005609Y012393D01*
X005592Y012453D01*
X005579Y012515D01*
X005570Y012576D01*
X005564Y012639D01*
X005562Y012701D01*
X005564Y012764D01*
X005569Y012826D01*
X005579Y012888D01*
X005592Y012950D01*
X005609Y013010D01*
X005629Y013069D01*
X005653Y013127D01*
X005680Y013183D01*
X005711Y013238D01*
X005745Y013291D01*
X005782Y013341D01*
X005789Y013336D01*
X005752Y013286D01*
X005719Y013233D01*
X005688Y013179D01*
X005661Y013123D01*
X005637Y013066D01*
X005617Y013007D01*
X005601Y012947D01*
X005588Y012887D01*
X005578Y012825D01*
X005573Y012764D01*
X005571Y012701D01*
X005573Y012639D01*
X005579Y012578D01*
X005588Y012516D01*
X005601Y012455D01*
X005618Y012396D01*
X005638Y012337D01*
X005662Y012280D01*
X005689Y012224D01*
X005719Y012170D01*
X005753Y012117D01*
X005790Y012067D01*
X005829Y012020D01*
X005872Y011974D01*
X005917Y011932D01*
X005965Y011892D01*
X006015Y011855D01*
X006067Y011821D01*
X006121Y011791D01*
X006177Y011764D01*
X006234Y011740D01*
X006293Y011719D01*
X006922Y011677D02*
X006907Y011725D01*
X006908Y011724D02*
X006966Y011744D01*
X007023Y011768D01*
X007079Y011795D01*
X007133Y011826D01*
X007184Y011859D01*
X007234Y011896D01*
X007282Y011936D01*
X007327Y011978D01*
X007369Y012023D01*
X007408Y012071D01*
X007445Y012120D01*
X007478Y012172D01*
X007509Y012226D01*
X007536Y012282D01*
X007559Y012339D01*
X007580Y012397D01*
X007596Y012457D01*
X007609Y012517D01*
X007618Y012578D01*
X007624Y012640D01*
X007626Y012701D01*
X007624Y012763D01*
X007619Y012825D01*
X007609Y012886D01*
X007596Y012946D01*
X007580Y013006D01*
X007560Y013064D01*
X007536Y013121D01*
X007509Y013177D01*
X007479Y013231D01*
X007446Y013283D01*
X007409Y013333D01*
X007448Y013363D01*
X007448Y013364D01*
X007487Y013311D01*
X007522Y013257D01*
X007554Y013200D01*
X007582Y013142D01*
X007607Y013082D01*
X007628Y013021D01*
X007645Y012958D01*
X007659Y012895D01*
X007668Y012831D01*
X007674Y012766D01*
X007676Y012701D01*
X007674Y012637D01*
X007668Y012572D01*
X007658Y012508D01*
X007645Y012445D01*
X007627Y012382D01*
X007606Y012321D01*
X007581Y012261D01*
X007553Y012203D01*
X007521Y012146D01*
X007486Y012092D01*
X007448Y012040D01*
X007406Y011990D01*
X007362Y011943D01*
X007315Y011898D01*
X007265Y011857D01*
X007213Y011818D01*
X007158Y011783D01*
X007102Y011751D01*
X007044Y011722D01*
X006984Y011698D01*
X006923Y011676D01*
X006920Y011685D01*
X006981Y011706D01*
X007040Y011731D01*
X007098Y011759D01*
X007154Y011791D01*
X007208Y011825D01*
X007259Y011864D01*
X007309Y011905D01*
X007356Y011949D01*
X007400Y011996D01*
X007441Y012045D01*
X007479Y012097D01*
X007514Y012151D01*
X007545Y012207D01*
X007573Y012265D01*
X007598Y012324D01*
X007619Y012385D01*
X007636Y012447D01*
X007650Y012510D01*
X007659Y012573D01*
X007665Y012637D01*
X007667Y012701D01*
X007665Y012766D01*
X007659Y012830D01*
X007650Y012893D01*
X007636Y012956D01*
X007619Y013018D01*
X007598Y013079D01*
X007574Y013138D01*
X007546Y013196D01*
X007514Y013252D01*
X007479Y013306D01*
X007441Y013358D01*
X007434Y013352D01*
X007472Y013301D01*
X007506Y013247D01*
X007538Y013192D01*
X007565Y013135D01*
X007590Y013076D01*
X007610Y013015D01*
X007628Y012954D01*
X007641Y012892D01*
X007650Y012829D01*
X007656Y012765D01*
X007658Y012701D01*
X007656Y012638D01*
X007650Y012574D01*
X007641Y012511D01*
X007627Y012449D01*
X007610Y012388D01*
X007589Y012327D01*
X007565Y012268D01*
X007537Y012211D01*
X007506Y012156D01*
X007471Y012102D01*
X007434Y012051D01*
X007393Y012002D01*
X007349Y011955D01*
X007303Y011912D01*
X007254Y011871D01*
X007203Y011833D01*
X007149Y011798D01*
X007094Y011767D01*
X007036Y011739D01*
X006978Y011714D01*
X006917Y011693D01*
X006915Y011702D01*
X006974Y011723D01*
X007033Y011747D01*
X007090Y011775D01*
X007145Y011806D01*
X007198Y011840D01*
X007248Y011878D01*
X007297Y011918D01*
X007343Y011962D01*
X007386Y012008D01*
X007426Y012056D01*
X007464Y012107D01*
X007498Y012160D01*
X007529Y012215D01*
X007557Y012272D01*
X007581Y012331D01*
X007602Y012390D01*
X007619Y012451D01*
X007632Y012513D01*
X007641Y012575D01*
X007647Y012638D01*
X007649Y012701D01*
X007647Y012765D01*
X007641Y012828D01*
X007632Y012890D01*
X007619Y012952D01*
X007602Y013013D01*
X007581Y013072D01*
X007557Y013131D01*
X007530Y013188D01*
X007499Y013243D01*
X007465Y013296D01*
X007427Y013347D01*
X007420Y013341D01*
X007457Y013291D01*
X007491Y013238D01*
X007522Y013183D01*
X007549Y013127D01*
X007573Y013069D01*
X007593Y013010D01*
X007610Y012950D01*
X007623Y012888D01*
X007633Y012826D01*
X007638Y012764D01*
X007640Y012701D01*
X007638Y012639D01*
X007632Y012576D01*
X007623Y012515D01*
X007610Y012453D01*
X007593Y012393D01*
X007573Y012334D01*
X007549Y012276D01*
X007521Y012220D01*
X007490Y012165D01*
X007456Y012112D01*
X007419Y012062D01*
X007379Y012014D01*
X007336Y011968D01*
X007291Y011925D01*
X007243Y011885D01*
X007192Y011848D01*
X007140Y011814D01*
X007085Y011783D01*
X007029Y011755D01*
X006971Y011731D01*
X006912Y011711D01*
X006909Y011719D01*
X006968Y011740D01*
X007025Y011764D01*
X007081Y011791D01*
X007135Y011821D01*
X007187Y011855D01*
X007237Y011892D01*
X007285Y011932D01*
X007330Y011974D01*
X007373Y012020D01*
X007412Y012067D01*
X007449Y012117D01*
X007483Y012170D01*
X007513Y012224D01*
X007540Y012280D01*
X007564Y012337D01*
X007584Y012396D01*
X007601Y012455D01*
X007614Y012516D01*
X007623Y012578D01*
X007629Y012639D01*
X007631Y012701D01*
X007629Y012763D01*
X007624Y012825D01*
X007614Y012887D01*
X007601Y012947D01*
X007585Y013007D01*
X007565Y013066D01*
X007541Y013123D01*
X007514Y013179D01*
X007483Y013233D01*
X007450Y013286D01*
X007413Y013336D01*
X007422Y009177D02*
X007407Y009225D01*
X007408Y009224D02*
X007466Y009244D01*
X007523Y009268D01*
X007579Y009295D01*
X007633Y009326D01*
X007684Y009359D01*
X007734Y009396D01*
X007782Y009436D01*
X007827Y009478D01*
X007869Y009523D01*
X007908Y009571D01*
X007945Y009620D01*
X007978Y009672D01*
X008009Y009726D01*
X008036Y009782D01*
X008059Y009839D01*
X008080Y009897D01*
X008096Y009957D01*
X008109Y010017D01*
X008118Y010078D01*
X008124Y010140D01*
X008126Y010201D01*
X008124Y010263D01*
X008119Y010325D01*
X008109Y010386D01*
X008096Y010446D01*
X008080Y010506D01*
X008060Y010564D01*
X008036Y010621D01*
X008009Y010677D01*
X007979Y010731D01*
X007946Y010783D01*
X007909Y010833D01*
X007948Y010863D01*
X007948Y010864D01*
X007987Y010811D01*
X008022Y010757D01*
X008054Y010700D01*
X008082Y010642D01*
X008107Y010582D01*
X008128Y010521D01*
X008145Y010458D01*
X008159Y010395D01*
X008168Y010331D01*
X008174Y010266D01*
X008176Y010201D01*
X008174Y010137D01*
X008168Y010072D01*
X008158Y010008D01*
X008145Y009945D01*
X008127Y009882D01*
X008106Y009821D01*
X008081Y009761D01*
X008053Y009703D01*
X008021Y009646D01*
X007986Y009592D01*
X007948Y009540D01*
X007906Y009490D01*
X007862Y009443D01*
X007815Y009398D01*
X007765Y009357D01*
X007713Y009318D01*
X007658Y009283D01*
X007602Y009251D01*
X007544Y009222D01*
X007484Y009198D01*
X007423Y009176D01*
X007420Y009185D01*
X007481Y009206D01*
X007540Y009231D01*
X007598Y009259D01*
X007654Y009291D01*
X007708Y009325D01*
X007759Y009364D01*
X007809Y009405D01*
X007856Y009449D01*
X007900Y009496D01*
X007941Y009545D01*
X007979Y009597D01*
X008014Y009651D01*
X008045Y009707D01*
X008073Y009765D01*
X008098Y009824D01*
X008119Y009885D01*
X008136Y009947D01*
X008150Y010010D01*
X008159Y010073D01*
X008165Y010137D01*
X008167Y010201D01*
X008165Y010266D01*
X008159Y010330D01*
X008150Y010393D01*
X008136Y010456D01*
X008119Y010518D01*
X008098Y010579D01*
X008074Y010638D01*
X008046Y010696D01*
X008014Y010752D01*
X007979Y010806D01*
X007941Y010858D01*
X007934Y010852D01*
X007972Y010801D01*
X008006Y010747D01*
X008038Y010692D01*
X008065Y010635D01*
X008090Y010576D01*
X008110Y010515D01*
X008128Y010454D01*
X008141Y010392D01*
X008150Y010329D01*
X008156Y010265D01*
X008158Y010201D01*
X008156Y010138D01*
X008150Y010074D01*
X008141Y010011D01*
X008127Y009949D01*
X008110Y009888D01*
X008089Y009827D01*
X008065Y009768D01*
X008037Y009711D01*
X008006Y009656D01*
X007971Y009602D01*
X007934Y009551D01*
X007893Y009502D01*
X007849Y009455D01*
X007803Y009412D01*
X007754Y009371D01*
X007703Y009333D01*
X007649Y009298D01*
X007594Y009267D01*
X007536Y009239D01*
X007478Y009214D01*
X007417Y009193D01*
X007415Y009202D01*
X007474Y009223D01*
X007533Y009247D01*
X007590Y009275D01*
X007645Y009306D01*
X007698Y009340D01*
X007748Y009378D01*
X007797Y009418D01*
X007843Y009462D01*
X007886Y009508D01*
X007926Y009556D01*
X007964Y009607D01*
X007998Y009660D01*
X008029Y009715D01*
X008057Y009772D01*
X008081Y009831D01*
X008102Y009890D01*
X008119Y009951D01*
X008132Y010013D01*
X008141Y010075D01*
X008147Y010138D01*
X008149Y010201D01*
X008147Y010265D01*
X008141Y010328D01*
X008132Y010390D01*
X008119Y010452D01*
X008102Y010513D01*
X008081Y010572D01*
X008057Y010631D01*
X008030Y010688D01*
X007999Y010743D01*
X007965Y010796D01*
X007927Y010847D01*
X007920Y010841D01*
X007957Y010791D01*
X007991Y010738D01*
X008022Y010683D01*
X008049Y010627D01*
X008073Y010569D01*
X008093Y010510D01*
X008110Y010450D01*
X008123Y010388D01*
X008133Y010326D01*
X008138Y010264D01*
X008140Y010201D01*
X008138Y010139D01*
X008132Y010076D01*
X008123Y010015D01*
X008110Y009953D01*
X008093Y009893D01*
X008073Y009834D01*
X008049Y009776D01*
X008021Y009720D01*
X007990Y009665D01*
X007956Y009612D01*
X007919Y009562D01*
X007879Y009514D01*
X007836Y009468D01*
X007791Y009425D01*
X007743Y009385D01*
X007692Y009348D01*
X007640Y009314D01*
X007585Y009283D01*
X007529Y009255D01*
X007471Y009231D01*
X007412Y009211D01*
X007409Y009219D01*
X007468Y009240D01*
X007525Y009264D01*
X007581Y009291D01*
X007635Y009321D01*
X007687Y009355D01*
X007737Y009392D01*
X007785Y009432D01*
X007830Y009474D01*
X007873Y009520D01*
X007912Y009567D01*
X007949Y009617D01*
X007983Y009670D01*
X008013Y009724D01*
X008040Y009780D01*
X008064Y009837D01*
X008084Y009896D01*
X008101Y009955D01*
X008114Y010016D01*
X008123Y010078D01*
X008129Y010139D01*
X008131Y010201D01*
X008129Y010263D01*
X008124Y010325D01*
X008114Y010387D01*
X008101Y010447D01*
X008085Y010507D01*
X008065Y010566D01*
X008041Y010623D01*
X008014Y010679D01*
X007983Y010733D01*
X007950Y010786D01*
X007913Y010836D01*
X006254Y010863D02*
X006293Y010832D01*
X006293Y010833D02*
X006256Y010783D01*
X006223Y010731D01*
X006193Y010677D01*
X006166Y010621D01*
X006142Y010564D01*
X006122Y010506D01*
X006106Y010446D01*
X006093Y010386D01*
X006083Y010325D01*
X006078Y010263D01*
X006076Y010201D01*
X006078Y010140D01*
X006084Y010078D01*
X006093Y010017D01*
X006106Y009957D01*
X006122Y009897D01*
X006143Y009839D01*
X006166Y009782D01*
X006193Y009726D01*
X006224Y009672D01*
X006257Y009620D01*
X006294Y009571D01*
X006333Y009523D01*
X006375Y009478D01*
X006420Y009436D01*
X006468Y009396D01*
X006518Y009359D01*
X006569Y009326D01*
X006623Y009295D01*
X006679Y009268D01*
X006736Y009244D01*
X006794Y009224D01*
X006780Y009177D01*
X006779Y009176D01*
X006718Y009198D01*
X006658Y009222D01*
X006600Y009251D01*
X006544Y009283D01*
X006489Y009318D01*
X006437Y009357D01*
X006387Y009398D01*
X006340Y009443D01*
X006296Y009490D01*
X006254Y009540D01*
X006216Y009592D01*
X006181Y009646D01*
X006149Y009703D01*
X006121Y009761D01*
X006096Y009821D01*
X006075Y009882D01*
X006057Y009945D01*
X006044Y010008D01*
X006034Y010072D01*
X006028Y010137D01*
X006026Y010201D01*
X006028Y010266D01*
X006034Y010331D01*
X006043Y010395D01*
X006057Y010458D01*
X006074Y010521D01*
X006095Y010582D01*
X006120Y010642D01*
X006148Y010700D01*
X006180Y010757D01*
X006215Y010811D01*
X006254Y010864D01*
X006261Y010858D01*
X006223Y010806D01*
X006188Y010752D01*
X006156Y010696D01*
X006128Y010638D01*
X006104Y010579D01*
X006083Y010518D01*
X006066Y010456D01*
X006052Y010393D01*
X006043Y010330D01*
X006037Y010266D01*
X006035Y010201D01*
X006037Y010137D01*
X006043Y010073D01*
X006052Y010010D01*
X006066Y009947D01*
X006083Y009885D01*
X006104Y009824D01*
X006129Y009765D01*
X006157Y009707D01*
X006188Y009651D01*
X006223Y009597D01*
X006261Y009545D01*
X006302Y009496D01*
X006346Y009449D01*
X006393Y009405D01*
X006443Y009364D01*
X006494Y009326D01*
X006548Y009291D01*
X006604Y009259D01*
X006662Y009231D01*
X006721Y009206D01*
X006782Y009185D01*
X006785Y009193D01*
X006724Y009214D01*
X006666Y009239D01*
X006608Y009267D01*
X006553Y009298D01*
X006499Y009333D01*
X006448Y009371D01*
X006399Y009412D01*
X006353Y009455D01*
X006309Y009502D01*
X006268Y009551D01*
X006231Y009602D01*
X006196Y009656D01*
X006165Y009711D01*
X006137Y009768D01*
X006113Y009827D01*
X006092Y009888D01*
X006075Y009949D01*
X006061Y010011D01*
X006052Y010074D01*
X006046Y010138D01*
X006044Y010201D01*
X006046Y010265D01*
X006052Y010329D01*
X006061Y010392D01*
X006074Y010454D01*
X006092Y010515D01*
X006112Y010576D01*
X006137Y010635D01*
X006164Y010692D01*
X006196Y010747D01*
X006230Y010801D01*
X006268Y010852D01*
X006275Y010847D01*
X006238Y010796D01*
X006203Y010743D01*
X006172Y010688D01*
X006145Y010631D01*
X006121Y010572D01*
X006100Y010513D01*
X006083Y010452D01*
X006070Y010390D01*
X006061Y010328D01*
X006055Y010265D01*
X006053Y010201D01*
X006055Y010138D01*
X006061Y010075D01*
X006070Y010013D01*
X006083Y009951D01*
X006100Y009890D01*
X006121Y009831D01*
X006145Y009772D01*
X006173Y009715D01*
X006204Y009660D01*
X006238Y009607D01*
X006276Y009556D01*
X006316Y009508D01*
X006359Y009462D01*
X006405Y009418D01*
X006454Y009378D01*
X006504Y009340D01*
X006557Y009306D01*
X006612Y009275D01*
X006669Y009247D01*
X006728Y009223D01*
X006787Y009202D01*
X006790Y009211D01*
X006731Y009231D01*
X006673Y009255D01*
X006617Y009283D01*
X006562Y009314D01*
X006510Y009348D01*
X006459Y009385D01*
X006411Y009425D01*
X006366Y009468D01*
X006323Y009514D01*
X006283Y009562D01*
X006246Y009612D01*
X006212Y009665D01*
X006181Y009720D01*
X006153Y009776D01*
X006129Y009834D01*
X006109Y009893D01*
X006092Y009953D01*
X006079Y010015D01*
X006070Y010076D01*
X006064Y010139D01*
X006062Y010201D01*
X006064Y010264D01*
X006069Y010326D01*
X006079Y010388D01*
X006092Y010450D01*
X006109Y010510D01*
X006129Y010569D01*
X006153Y010627D01*
X006180Y010683D01*
X006211Y010738D01*
X006245Y010791D01*
X006282Y010841D01*
X006289Y010836D01*
X006252Y010786D01*
X006219Y010733D01*
X006188Y010679D01*
X006161Y010623D01*
X006137Y010566D01*
X006117Y010507D01*
X006101Y010447D01*
X006088Y010387D01*
X006078Y010325D01*
X006073Y010264D01*
X006071Y010201D01*
X006073Y010139D01*
X006079Y010078D01*
X006088Y010016D01*
X006101Y009955D01*
X006118Y009896D01*
X006138Y009837D01*
X006162Y009780D01*
X006189Y009724D01*
X006219Y009670D01*
X006253Y009617D01*
X006290Y009567D01*
X006329Y009520D01*
X006372Y009474D01*
X006417Y009432D01*
X006465Y009392D01*
X006515Y009355D01*
X006567Y009321D01*
X006621Y009291D01*
X006677Y009264D01*
X006734Y009240D01*
X006793Y009219D01*
D14*
X006751Y014627D02*
X006634Y014627D01*
X006576Y014685D01*
X006693Y014802D02*
X006751Y014802D01*
X006809Y014743D01*
X006809Y014685D01*
X006751Y014627D01*
X006751Y014802D02*
X006809Y014860D01*
X006809Y014918D01*
X006751Y014977D01*
X006634Y014977D01*
X006576Y014918D01*
X004709Y014627D02*
X004476Y014627D01*
X004593Y014627D02*
X004593Y014977D01*
X004476Y014860D01*
X007201Y018302D02*
X007201Y018505D01*
X007201Y018302D02*
X007606Y018302D01*
X007999Y018302D02*
X008404Y018302D01*
X008798Y018302D02*
X009202Y018302D01*
X009596Y018302D02*
X010001Y018302D01*
X010001Y018505D01*
X010001Y018898D02*
X010001Y019102D01*
X009596Y019102D01*
X009202Y019102D02*
X008798Y019102D01*
X008404Y019102D02*
X007999Y019102D01*
X007606Y019102D02*
X007201Y019102D01*
X007201Y018898D01*
X012201Y018898D02*
X012201Y019102D01*
X012606Y019102D01*
X012999Y019102D02*
X013404Y019102D01*
X013798Y019102D02*
X014202Y019102D01*
X014596Y019102D02*
X015001Y019102D01*
X015001Y018898D01*
X015001Y018505D02*
X015001Y018302D01*
X014596Y018302D01*
X014202Y018302D02*
X013798Y018302D01*
X013404Y018302D02*
X012999Y018302D01*
X012606Y018302D02*
X012201Y018302D01*
X012201Y018505D01*
D15*
X012816Y018258D02*
X012864Y018307D01*
X012961Y018307D01*
X013009Y018258D01*
X013009Y018210D01*
X012961Y018162D01*
X013009Y018113D01*
X013009Y018065D01*
X012961Y018017D01*
X012864Y018017D01*
X012816Y018065D01*
X012913Y018162D02*
X012961Y018162D01*
X014216Y018210D02*
X014313Y018307D01*
X014313Y018017D01*
X014409Y018017D02*
X014216Y018017D01*
X009409Y018017D02*
X009216Y018017D01*
X009313Y018017D02*
X009313Y018307D01*
X009216Y018210D01*
X008009Y018210D02*
X007961Y018162D01*
X008009Y018113D01*
X008009Y018065D01*
X007961Y018017D01*
X007864Y018017D01*
X007816Y018065D01*
X007913Y018162D02*
X007961Y018162D01*
X008009Y018210D02*
X008009Y018258D01*
X007961Y018307D01*
X007864Y018307D01*
X007816Y018258D01*
D16*
X006401Y016602D02*
X006301Y016502D01*
X006541Y015852D02*
X006691Y015852D01*
X005601Y016772D02*
X005601Y016922D01*
X004851Y016502D02*
X004751Y016602D01*
X004661Y015852D02*
X004511Y015852D01*
M02*
