%
M48
M72
T01C0.0240
T02C0.0276
%
T01
X1381Y9242
X1781Y9642
T02
X1401Y1102
X2301Y1102
X7001Y2402
X9001Y2402
X9001Y4402
X7001Y4402
X7001Y6402
X9001Y6402
X7101Y9452
X7601Y10202
X6601Y10202
X6601Y11952
X7101Y12702
X6101Y12702
X8301Y13902
X6601Y15702
X5601Y16702
X4601Y15702
X3601Y17202
X2301Y19202
X1601Y19202
X901Y19202
X3601Y14202
X3601Y13202
X3601Y10202
X601Y10202
X601Y9202
X601Y8202
X8301Y16902
X8601Y18702
X7601Y18702
X9601Y18702
X12101Y16702
X13207Y15202
X13994Y15202
X12101Y13702
X12601Y11202
X12601Y9202
X14901Y9402
X14901Y10302
X14601Y18702
X13601Y18702
X12601Y18702
M30
