G75*
G70*
%OFA0B0*%
%FSLAX24Y24*%
%IPPOS*%
%LPD*%
%AMOC8*
5,1,8,0,0,1.08239X$1,22.5*
%
%ADD10C,0.0110*%
%ADD11C,0.0080*%
%ADD12C,0.0060*%
%ADD13C,0.0010*%
%ADD14C,0.0050*%
%ADD15C,0.0030*%
%ADD16C,0.0120*%
D10*
X007454Y008057D02*
X007356Y008155D01*
X007454Y008057D02*
X007651Y008057D01*
X007749Y008155D01*
X007749Y008253D01*
X007651Y008352D01*
X007454Y008352D01*
X007356Y008450D01*
X007356Y008549D01*
X007454Y008647D01*
X007651Y008647D01*
X007749Y008549D01*
X008000Y008647D02*
X008000Y008057D01*
X008197Y008253D01*
X008394Y008057D01*
X008394Y008647D01*
X008645Y008450D02*
X008842Y008647D01*
X008842Y008057D01*
X008645Y008057D02*
X009039Y008057D01*
X006494Y008857D02*
X006100Y008857D01*
X006297Y008857D02*
X006297Y009447D01*
X006100Y009250D01*
X005849Y009349D02*
X005849Y008955D01*
X005751Y008857D01*
X005554Y008857D01*
X005456Y008955D01*
X005456Y009349D01*
X005554Y009447D01*
X005751Y009447D01*
X005849Y009349D01*
X005653Y009053D02*
X005849Y008857D01*
X005994Y011357D02*
X005600Y011357D01*
X005994Y011750D01*
X005994Y011849D01*
X005896Y011947D01*
X005699Y011947D01*
X005600Y011849D01*
X005349Y011849D02*
X005349Y011455D01*
X005251Y011357D01*
X005054Y011357D01*
X004956Y011455D01*
X004956Y011849D01*
X005054Y011947D01*
X005251Y011947D01*
X005349Y011849D01*
X005153Y011553D02*
X005349Y011357D01*
X003246Y011357D02*
X002655Y011357D01*
X002655Y011652D01*
X002754Y011750D01*
X002951Y011750D01*
X003049Y011652D01*
X003049Y011357D01*
X003049Y011553D02*
X003246Y011750D01*
X003246Y012001D02*
X003246Y012395D01*
X003246Y012198D02*
X002655Y012198D01*
X002852Y012001D01*
X004667Y013657D02*
X004667Y014247D01*
X004962Y014247D01*
X005060Y014149D01*
X005060Y013952D01*
X004962Y013853D01*
X004667Y013853D01*
X004864Y013853D02*
X005060Y013657D01*
X005311Y013755D02*
X005410Y013657D01*
X005606Y013657D01*
X005705Y013755D01*
X005705Y013853D01*
X005606Y013952D01*
X005508Y013952D01*
X005606Y013952D02*
X005705Y014050D01*
X005705Y014149D01*
X005606Y014247D01*
X005410Y014247D01*
X005311Y014149D01*
X003246Y015267D02*
X002655Y015267D01*
X002655Y015563D01*
X002754Y015661D01*
X002951Y015661D01*
X003049Y015563D01*
X003049Y015267D01*
X003049Y015464D02*
X003246Y015661D01*
X003246Y015912D02*
X002852Y016306D01*
X002754Y016306D01*
X002655Y016207D01*
X002655Y016010D01*
X002754Y015912D01*
X003246Y015912D02*
X003246Y016306D01*
X008456Y013349D02*
X008456Y012955D01*
X008554Y012857D01*
X008751Y012857D01*
X008849Y012955D01*
X009100Y012955D02*
X009199Y012857D01*
X009396Y012857D01*
X009494Y012955D01*
X009494Y013053D01*
X009396Y013152D01*
X009297Y013152D01*
X009396Y013152D02*
X009494Y013250D01*
X009494Y013349D01*
X009396Y013447D01*
X009199Y013447D01*
X009100Y013349D01*
X008849Y013349D02*
X008751Y013447D01*
X008554Y013447D01*
X008456Y013349D01*
X010956Y011349D02*
X010956Y010955D01*
X011054Y010857D01*
X011251Y010857D01*
X011349Y010955D01*
X011600Y010857D02*
X011994Y010857D01*
X011797Y010857D02*
X011797Y011447D01*
X011600Y011250D01*
X011349Y011349D02*
X011251Y011447D01*
X011054Y011447D01*
X010956Y011349D01*
X014456Y013955D02*
X014554Y013857D01*
X014751Y013857D01*
X014849Y013955D01*
X015100Y013857D02*
X015494Y014250D01*
X015494Y014349D01*
X015396Y014447D01*
X015199Y014447D01*
X015100Y014349D01*
X014849Y014349D02*
X014751Y014447D01*
X014554Y014447D01*
X014456Y014349D01*
X014456Y013955D01*
X015100Y013857D02*
X015494Y013857D01*
X011746Y014857D02*
X011155Y014857D01*
X011155Y015152D01*
X011254Y015250D01*
X011451Y015250D01*
X011549Y015152D01*
X011549Y014857D01*
X011549Y015053D02*
X011746Y015250D01*
X011451Y015501D02*
X011451Y015895D01*
X011746Y015796D02*
X011155Y015796D01*
X011451Y015501D01*
D11*
X001521Y000552D02*
X001241Y000552D01*
X001381Y000692D02*
X001381Y000412D01*
X002141Y000552D02*
X002421Y000552D01*
X001651Y008042D02*
X001511Y008042D01*
X001441Y008112D01*
X001511Y008252D02*
X001651Y008252D01*
X001721Y008182D01*
X001721Y008112D01*
X001651Y008042D01*
X001511Y008252D02*
X001441Y008322D01*
X001441Y008392D01*
X001511Y008462D01*
X001651Y008462D01*
X001721Y008392D01*
X001721Y009142D02*
X001581Y009282D01*
X001651Y009282D02*
X001441Y009282D01*
X001441Y009142D02*
X001441Y009562D01*
X001651Y009562D01*
X001721Y009492D01*
X001721Y009352D01*
X001651Y009282D01*
X001581Y010042D02*
X001581Y010462D01*
X001441Y010462D02*
X001721Y010462D01*
X005641Y017942D02*
X005641Y018362D01*
X005851Y018362D01*
X005921Y018292D01*
X005921Y018152D01*
X005851Y018082D01*
X005641Y018082D01*
X006101Y018012D02*
X006171Y017942D01*
X006311Y017942D01*
X006381Y018012D01*
X006381Y018292D01*
X006311Y018362D01*
X006171Y018362D01*
X006101Y018292D01*
X006101Y018012D01*
X006561Y018362D02*
X006842Y018362D01*
X006702Y018362D02*
X006702Y017942D01*
X007022Y017942D02*
X007302Y018222D01*
X007302Y018292D01*
X007232Y018362D01*
X007092Y018362D01*
X007022Y018292D01*
X007022Y017942D02*
X007302Y017942D01*
X010741Y017982D02*
X010951Y017982D01*
X011021Y018052D01*
X011021Y018192D01*
X010951Y018262D01*
X010741Y018262D01*
X010741Y017842D01*
X011201Y017912D02*
X011271Y017842D01*
X011411Y017842D01*
X011481Y017912D01*
X011481Y018192D01*
X011411Y018262D01*
X011271Y018262D01*
X011201Y018192D01*
X011201Y017912D01*
X011661Y018262D02*
X011942Y018262D01*
X011802Y018262D02*
X011802Y017842D01*
X012122Y017842D02*
X012402Y017842D01*
X012262Y017842D02*
X012262Y018262D01*
X012122Y018122D01*
X014441Y010562D02*
X014721Y010562D01*
X014581Y010562D02*
X014581Y010142D01*
X014651Y009762D02*
X014511Y009762D01*
X014441Y009692D01*
X014441Y009622D01*
X014511Y009552D01*
X014651Y009552D01*
X014721Y009482D01*
X014721Y009412D01*
X014651Y009342D01*
X014511Y009342D01*
X014441Y009412D01*
X014721Y009692D02*
X014651Y009762D01*
X002721Y018652D02*
X002651Y018582D01*
X002441Y018582D01*
X002441Y018442D02*
X002441Y018862D01*
X002651Y018862D01*
X002721Y018792D01*
X002721Y018652D01*
X002021Y018792D02*
X001951Y018862D01*
X001811Y018862D01*
X001741Y018792D01*
X001741Y018512D01*
X001811Y018442D01*
X001951Y018442D01*
X002021Y018512D01*
X001321Y018512D02*
X001251Y018442D01*
X001111Y018442D01*
X001041Y018512D01*
X001111Y018652D02*
X001041Y018722D01*
X001041Y018792D01*
X001111Y018862D01*
X001251Y018862D01*
X001321Y018792D01*
X001251Y018652D02*
X001321Y018582D01*
X001321Y018512D01*
X001251Y018652D02*
X001111Y018652D01*
D12*
X001101Y018072D02*
X000931Y018072D01*
X000931Y017732D01*
X001101Y017732D01*
X001158Y017788D01*
X001158Y018015D01*
X001101Y018072D01*
X001299Y018015D02*
X001299Y017788D01*
X001356Y017732D01*
X001469Y017732D01*
X001526Y017788D01*
X001526Y018015D02*
X001469Y018072D01*
X001356Y018072D01*
X001299Y018015D01*
X002036Y017788D02*
X002092Y017732D01*
X002149Y017732D01*
X002206Y017788D01*
X002206Y018072D01*
X002149Y018072D02*
X002263Y018072D01*
X002461Y017958D02*
X002574Y017958D01*
X002631Y017902D01*
X002631Y017732D01*
X002461Y017732D01*
X002404Y017788D01*
X002461Y017845D01*
X002631Y017845D01*
X002772Y017902D02*
X002772Y017788D01*
X002829Y017732D01*
X002999Y017732D01*
X003141Y017732D02*
X003141Y018072D01*
X002999Y017958D02*
X002829Y017958D01*
X002772Y017902D01*
X003141Y017845D02*
X003311Y017958D01*
X003141Y017845D02*
X003311Y017732D01*
X004551Y017052D02*
X004551Y015702D01*
X004301Y015495D02*
X004251Y015545D01*
X004251Y016058D01*
X004301Y016108D01*
X004301Y016308D01*
X004299Y016325D01*
X004295Y016342D01*
X004288Y016358D01*
X004278Y016372D01*
X004265Y016385D01*
X004251Y016395D01*
X004235Y016402D01*
X004218Y016406D01*
X004201Y016408D01*
X003601Y016408D01*
X003584Y016406D01*
X003567Y016402D01*
X003551Y016395D01*
X003537Y016385D01*
X003524Y016372D01*
X003514Y016358D01*
X003507Y016342D01*
X003503Y016325D01*
X003501Y016308D01*
X003501Y016108D01*
X003551Y016058D01*
X003551Y015545D01*
X003501Y015495D01*
X003501Y015295D01*
X003503Y015278D01*
X003507Y015261D01*
X003514Y015245D01*
X003524Y015231D01*
X003537Y015218D01*
X003551Y015208D01*
X003567Y015201D01*
X003584Y015197D01*
X003601Y015195D01*
X004201Y015195D01*
X004218Y015197D01*
X004235Y015201D01*
X004251Y015208D01*
X004265Y015218D01*
X004278Y015231D01*
X004288Y015245D01*
X004295Y015261D01*
X004299Y015278D01*
X004301Y015295D01*
X004301Y015495D01*
X004551Y015202D02*
X004551Y014552D01*
X004651Y014452D01*
X004901Y014452D01*
X005651Y014452D01*
X005501Y014602D02*
X004901Y014602D01*
X004901Y014452D01*
X005751Y015202D02*
X005751Y015502D01*
X006051Y015502D01*
X006051Y015652D01*
X006201Y015802D01*
X006501Y015802D01*
X006501Y016102D01*
X006201Y016102D01*
X006051Y016252D01*
X006051Y016402D01*
X006051Y016702D01*
X005751Y016702D01*
X005751Y016402D01*
X005751Y016252D01*
X005601Y016102D01*
X005301Y016102D01*
X005301Y015802D01*
X005601Y015802D01*
X005751Y015652D01*
X005751Y015502D01*
X006051Y015502D02*
X006051Y015202D01*
X005751Y015202D01*
X006301Y014602D02*
X006901Y014602D01*
X006901Y014452D01*
X007151Y014452D01*
X007251Y014552D01*
X007251Y015202D01*
X007251Y015702D02*
X007251Y017052D01*
X007151Y017152D01*
X004651Y017152D01*
X004551Y017052D01*
X005751Y016402D02*
X006051Y016402D01*
X007998Y017163D02*
X007998Y014840D01*
X007999Y014840D02*
X008001Y014786D01*
X008006Y014733D01*
X008015Y014680D01*
X008028Y014628D01*
X008044Y014576D01*
X008064Y014526D01*
X008087Y014478D01*
X008114Y014431D01*
X008143Y014386D01*
X008176Y014343D01*
X008211Y014303D01*
X008249Y014265D01*
X008289Y014230D01*
X008332Y014197D01*
X008377Y014168D01*
X008424Y014141D01*
X008472Y014118D01*
X008522Y014098D01*
X008574Y014082D01*
X008626Y014069D01*
X008679Y014060D01*
X008732Y014055D01*
X008786Y014053D01*
X009416Y014053D01*
X009470Y014055D01*
X009523Y014060D01*
X009576Y014069D01*
X009628Y014082D01*
X009680Y014098D01*
X009730Y014118D01*
X009778Y014141D01*
X009825Y014168D01*
X009870Y014197D01*
X009913Y014230D01*
X009953Y014265D01*
X009991Y014303D01*
X010026Y014343D01*
X010059Y014386D01*
X010088Y014431D01*
X010115Y014478D01*
X010138Y014526D01*
X010158Y014576D01*
X010174Y014628D01*
X010187Y014680D01*
X010196Y014733D01*
X010201Y014786D01*
X010203Y014840D01*
X010203Y017163D01*
X010201Y017217D01*
X010196Y017270D01*
X010187Y017323D01*
X010174Y017375D01*
X010158Y017427D01*
X010138Y017477D01*
X010115Y017525D01*
X010088Y017572D01*
X010059Y017617D01*
X010026Y017660D01*
X009991Y017700D01*
X009953Y017738D01*
X009913Y017773D01*
X009870Y017806D01*
X009825Y017835D01*
X009778Y017862D01*
X009730Y017885D01*
X009680Y017905D01*
X009628Y017921D01*
X009576Y017934D01*
X009523Y017943D01*
X009470Y017948D01*
X009416Y017950D01*
X008786Y017950D01*
X008732Y017948D01*
X008679Y017943D01*
X008626Y017934D01*
X008574Y017921D01*
X008522Y017905D01*
X008472Y017885D01*
X008424Y017862D01*
X008377Y017835D01*
X008332Y017806D01*
X008289Y017773D01*
X008249Y017738D01*
X008211Y017700D01*
X008176Y017660D01*
X008143Y017617D01*
X008114Y017572D01*
X008087Y017525D01*
X008064Y017477D01*
X008044Y017427D01*
X008028Y017375D01*
X008015Y017323D01*
X008006Y017270D01*
X008001Y017217D01*
X007999Y017163D01*
X008044Y019432D02*
X008158Y019545D01*
X008158Y019772D01*
X008299Y019602D02*
X008299Y019488D01*
X008356Y019432D01*
X008469Y019432D01*
X008526Y019488D01*
X008526Y019602D01*
X008469Y019658D01*
X008356Y019658D01*
X008299Y019602D01*
X008044Y019432D02*
X007931Y019545D01*
X007931Y019772D01*
X008667Y019772D02*
X008724Y019772D01*
X008724Y019432D01*
X008667Y019432D02*
X008781Y019432D01*
X008913Y019488D02*
X008913Y019658D01*
X008913Y019488D02*
X008970Y019432D01*
X009140Y019432D01*
X009140Y019658D01*
X009281Y019658D02*
X009281Y019432D01*
X009395Y019432D02*
X009395Y019602D01*
X009451Y019658D01*
X009508Y019602D01*
X009508Y019432D01*
X009650Y019488D02*
X009650Y019602D01*
X009706Y019658D01*
X009820Y019658D01*
X009876Y019602D01*
X009876Y019545D01*
X009650Y019545D01*
X009650Y019488D02*
X009706Y019432D01*
X009820Y019432D01*
X009395Y019602D02*
X009338Y019658D01*
X009281Y019658D01*
X013231Y019602D02*
X013344Y019602D01*
X013231Y019432D02*
X013231Y019772D01*
X013458Y019772D01*
X013599Y019658D02*
X013599Y019488D01*
X013656Y019432D01*
X013826Y019432D01*
X013826Y019658D01*
X013967Y019658D02*
X014194Y019658D01*
X013967Y019432D01*
X014194Y019432D01*
X014336Y019432D02*
X014563Y019432D01*
X014563Y019658D02*
X014336Y019658D01*
X014336Y019432D02*
X014563Y019658D01*
X013451Y015962D02*
X013451Y015712D01*
X013581Y015842D02*
X013321Y015842D01*
X012801Y015808D02*
X012801Y015608D01*
X012751Y015558D01*
X012751Y015045D01*
X012801Y014995D01*
X012801Y014795D01*
X012799Y014778D01*
X012795Y014761D01*
X012788Y014745D01*
X012778Y014731D01*
X012765Y014718D01*
X012751Y014708D01*
X012735Y014701D01*
X012718Y014697D01*
X012701Y014695D01*
X012101Y014695D01*
X012084Y014697D01*
X012067Y014701D01*
X012051Y014708D01*
X012037Y014718D01*
X012024Y014731D01*
X012014Y014745D01*
X012007Y014761D01*
X012003Y014778D01*
X012001Y014795D01*
X012001Y014995D01*
X012051Y015045D01*
X012051Y015558D01*
X012001Y015608D01*
X012001Y015808D01*
X012003Y015825D01*
X012007Y015842D01*
X012014Y015858D01*
X012024Y015872D01*
X012037Y015885D01*
X012051Y015895D01*
X012067Y015902D01*
X012084Y015906D01*
X012101Y015908D01*
X012701Y015908D01*
X012718Y015906D01*
X012735Y015902D01*
X012751Y015895D01*
X012765Y015885D01*
X012778Y015872D01*
X012788Y015858D01*
X012795Y015842D01*
X012799Y015825D01*
X012801Y015808D01*
X012917Y015302D02*
X012919Y015364D01*
X012925Y015427D01*
X012935Y015488D01*
X012949Y015549D01*
X012966Y015609D01*
X012987Y015668D01*
X013013Y015725D01*
X013041Y015780D01*
X013073Y015834D01*
X013109Y015885D01*
X013147Y015935D01*
X013189Y015981D01*
X013233Y016025D01*
X013281Y016066D01*
X013330Y016104D01*
X013382Y016138D01*
X013436Y016169D01*
X013492Y016197D01*
X013550Y016221D01*
X013609Y016242D01*
X013669Y016258D01*
X013730Y016271D01*
X013792Y016280D01*
X013854Y016285D01*
X013917Y016286D01*
X013979Y016283D01*
X014041Y016276D01*
X014103Y016265D01*
X014163Y016250D01*
X014223Y016232D01*
X014281Y016210D01*
X014338Y016184D01*
X014393Y016154D01*
X014446Y016121D01*
X014497Y016085D01*
X014545Y016046D01*
X014591Y016003D01*
X014634Y015958D01*
X014674Y015910D01*
X014711Y015860D01*
X014745Y015807D01*
X014776Y015753D01*
X014802Y015697D01*
X014826Y015639D01*
X014845Y015579D01*
X014861Y015519D01*
X014873Y015457D01*
X014881Y015396D01*
X014885Y015333D01*
X014885Y015271D01*
X014881Y015208D01*
X014873Y015147D01*
X014861Y015085D01*
X014845Y015025D01*
X014826Y014965D01*
X014802Y014907D01*
X014776Y014851D01*
X014745Y014797D01*
X014711Y014744D01*
X014674Y014694D01*
X014634Y014646D01*
X014591Y014601D01*
X014545Y014558D01*
X014497Y014519D01*
X014446Y014483D01*
X014393Y014450D01*
X014338Y014420D01*
X014281Y014394D01*
X014223Y014372D01*
X014163Y014354D01*
X014103Y014339D01*
X014041Y014328D01*
X013979Y014321D01*
X013917Y014318D01*
X013854Y014319D01*
X013792Y014324D01*
X013730Y014333D01*
X013669Y014346D01*
X013609Y014362D01*
X013550Y014383D01*
X013492Y014407D01*
X013436Y014435D01*
X013382Y014466D01*
X013330Y014500D01*
X013281Y014538D01*
X013233Y014579D01*
X013189Y014623D01*
X013147Y014669D01*
X013109Y014719D01*
X013073Y014770D01*
X013041Y014824D01*
X013013Y014879D01*
X012987Y014936D01*
X012966Y014995D01*
X012949Y015055D01*
X012935Y015116D01*
X012925Y015177D01*
X012919Y015240D01*
X012917Y015302D01*
X014787Y011372D02*
X014731Y011315D01*
X014731Y011088D01*
X014787Y011032D01*
X014901Y011032D01*
X014958Y011088D01*
X014958Y011315D01*
X014901Y011372D01*
X014787Y011372D01*
X015099Y011372D02*
X015099Y011088D01*
X015156Y011032D01*
X015269Y011032D01*
X015326Y011088D01*
X015326Y011372D01*
X015467Y011372D02*
X015694Y011372D01*
X015581Y011372D02*
X015581Y011032D01*
X011917Y010302D02*
X011919Y010364D01*
X011925Y010427D01*
X011935Y010488D01*
X011949Y010549D01*
X011966Y010609D01*
X011987Y010668D01*
X012013Y010725D01*
X012041Y010780D01*
X012073Y010834D01*
X012109Y010885D01*
X012147Y010935D01*
X012189Y010981D01*
X012233Y011025D01*
X012281Y011066D01*
X012330Y011104D01*
X012382Y011138D01*
X012436Y011169D01*
X012492Y011197D01*
X012550Y011221D01*
X012609Y011242D01*
X012669Y011258D01*
X012730Y011271D01*
X012792Y011280D01*
X012854Y011285D01*
X012917Y011286D01*
X012979Y011283D01*
X013041Y011276D01*
X013103Y011265D01*
X013163Y011250D01*
X013223Y011232D01*
X013281Y011210D01*
X013338Y011184D01*
X013393Y011154D01*
X013446Y011121D01*
X013497Y011085D01*
X013545Y011046D01*
X013591Y011003D01*
X013634Y010958D01*
X013674Y010910D01*
X013711Y010860D01*
X013745Y010807D01*
X013776Y010753D01*
X013802Y010697D01*
X013826Y010639D01*
X013845Y010579D01*
X013861Y010519D01*
X013873Y010457D01*
X013881Y010396D01*
X013885Y010333D01*
X013885Y010271D01*
X013881Y010208D01*
X013873Y010147D01*
X013861Y010085D01*
X013845Y010025D01*
X013826Y009965D01*
X013802Y009907D01*
X013776Y009851D01*
X013745Y009797D01*
X013711Y009744D01*
X013674Y009694D01*
X013634Y009646D01*
X013591Y009601D01*
X013545Y009558D01*
X013497Y009519D01*
X013446Y009483D01*
X013393Y009450D01*
X013338Y009420D01*
X013281Y009394D01*
X013223Y009372D01*
X013163Y009354D01*
X013103Y009339D01*
X013041Y009328D01*
X012979Y009321D01*
X012917Y009318D01*
X012854Y009319D01*
X012792Y009324D01*
X012730Y009333D01*
X012669Y009346D01*
X012609Y009362D01*
X012550Y009383D01*
X012492Y009407D01*
X012436Y009435D01*
X012382Y009466D01*
X012330Y009500D01*
X012281Y009538D01*
X012233Y009579D01*
X012189Y009623D01*
X012147Y009669D01*
X012109Y009719D01*
X012073Y009770D01*
X012041Y009824D01*
X012013Y009879D01*
X011987Y009936D01*
X011966Y009995D01*
X011949Y010055D01*
X011935Y010116D01*
X011925Y010177D01*
X011919Y010240D01*
X011917Y010302D01*
X012361Y009232D02*
X012361Y008972D01*
X012241Y009102D02*
X012491Y009102D01*
X010801Y007502D02*
X010801Y001502D01*
X005801Y001502D01*
X005801Y007502D01*
X010801Y007502D01*
X008226Y010952D02*
X006576Y010952D01*
X004301Y011295D02*
X004301Y011495D01*
X004251Y011545D01*
X004251Y012058D01*
X004301Y012108D01*
X004301Y012308D01*
X004299Y012325D01*
X004295Y012342D01*
X004288Y012358D01*
X004278Y012372D01*
X004265Y012385D01*
X004251Y012395D01*
X004235Y012402D01*
X004218Y012406D01*
X004201Y012408D01*
X003601Y012408D01*
X003584Y012406D01*
X003567Y012402D01*
X003551Y012395D01*
X003537Y012385D01*
X003524Y012372D01*
X003514Y012358D01*
X003507Y012342D01*
X003503Y012325D01*
X003501Y012308D01*
X003501Y012108D01*
X003551Y012058D01*
X003551Y011545D01*
X003501Y011495D01*
X003501Y011295D01*
X003503Y011278D01*
X003507Y011261D01*
X003514Y011245D01*
X003524Y011231D01*
X003537Y011218D01*
X003551Y011208D01*
X003567Y011201D01*
X003584Y011197D01*
X003601Y011195D01*
X004201Y011195D01*
X004218Y011197D01*
X004235Y011201D01*
X004251Y011208D01*
X004265Y011218D01*
X004278Y011231D01*
X004288Y011245D01*
X004295Y011261D01*
X004299Y011278D01*
X004301Y011295D01*
X006076Y013452D02*
X007726Y013452D01*
X006901Y014452D02*
X006151Y014452D01*
X001503Y011272D02*
X001503Y010932D01*
X001276Y011272D01*
X001276Y010932D01*
X001144Y010932D02*
X001031Y010932D01*
X001087Y010932D02*
X001087Y011272D01*
X001031Y011272D02*
X001144Y011272D01*
X001099Y002072D02*
X001099Y001845D01*
X001213Y001732D01*
X001326Y001845D01*
X001326Y002072D01*
X000958Y002015D02*
X000958Y001788D01*
X000901Y001732D01*
X000787Y001732D01*
X000731Y001788D01*
X000787Y001902D02*
X000958Y001902D01*
X000958Y002015D02*
X000901Y002072D01*
X000787Y002072D01*
X000731Y002015D01*
X000731Y001958D01*
X000787Y001902D01*
X001836Y001902D02*
X002006Y001902D01*
X002063Y001845D01*
X002063Y001788D01*
X002006Y001732D01*
X001836Y001732D01*
X001836Y002072D01*
X002006Y002072D01*
X002063Y002015D01*
X002063Y001958D01*
X002006Y001902D01*
X002204Y001788D02*
X002261Y001845D01*
X002431Y001845D01*
X002431Y001902D02*
X002431Y001732D01*
X002261Y001732D01*
X002204Y001788D01*
X002261Y001958D02*
X002374Y001958D01*
X002431Y001902D01*
X002572Y001958D02*
X002686Y001958D01*
X002629Y002015D02*
X002629Y001788D01*
X002686Y001732D01*
X002875Y001788D02*
X002931Y001732D01*
X002875Y001788D02*
X002875Y002015D01*
X002931Y001958D02*
X002818Y001958D01*
X003063Y001902D02*
X003063Y001788D01*
X003120Y001732D01*
X003233Y001732D01*
X003290Y001845D02*
X003063Y001845D01*
X003063Y001902D02*
X003120Y001958D01*
X003233Y001958D01*
X003290Y001902D01*
X003290Y001845D01*
X003432Y001845D02*
X003545Y001958D01*
X003602Y001958D01*
X003739Y001958D02*
X003739Y001788D01*
X003795Y001732D01*
X003965Y001732D01*
X003965Y001675D02*
X003909Y001618D01*
X003852Y001618D01*
X003965Y001675D02*
X003965Y001958D01*
X003432Y001958D02*
X003432Y001732D01*
X007331Y000899D02*
X007331Y000825D01*
X007404Y000752D01*
X007551Y000752D01*
X007624Y000678D01*
X007624Y000605D01*
X007551Y000532D01*
X007404Y000532D01*
X007331Y000605D01*
X007331Y000899D02*
X007404Y000972D01*
X007551Y000972D01*
X007624Y000899D01*
X007791Y000972D02*
X007791Y000532D01*
X007938Y000678D01*
X008085Y000532D01*
X008085Y000972D01*
X008251Y000825D02*
X008398Y000972D01*
X008398Y000532D01*
X008251Y000532D02*
X008545Y000532D01*
D13*
X006554Y010963D02*
X006593Y010932D01*
X006593Y010933D02*
X006556Y010883D01*
X006523Y010831D01*
X006493Y010777D01*
X006466Y010721D01*
X006442Y010664D01*
X006422Y010606D01*
X006406Y010546D01*
X006393Y010486D01*
X006383Y010425D01*
X006378Y010363D01*
X006376Y010301D01*
X006378Y010240D01*
X006384Y010178D01*
X006393Y010117D01*
X006406Y010057D01*
X006422Y009997D01*
X006443Y009939D01*
X006466Y009882D01*
X006493Y009826D01*
X006524Y009772D01*
X006557Y009720D01*
X006594Y009671D01*
X006633Y009623D01*
X006675Y009578D01*
X006720Y009536D01*
X006768Y009496D01*
X006818Y009459D01*
X006869Y009426D01*
X006923Y009395D01*
X006979Y009368D01*
X007036Y009344D01*
X007094Y009324D01*
X007080Y009277D01*
X007079Y009276D01*
X007018Y009298D01*
X006958Y009322D01*
X006900Y009351D01*
X006844Y009383D01*
X006789Y009418D01*
X006737Y009457D01*
X006687Y009498D01*
X006640Y009543D01*
X006596Y009590D01*
X006554Y009640D01*
X006516Y009692D01*
X006481Y009746D01*
X006449Y009803D01*
X006421Y009861D01*
X006396Y009921D01*
X006375Y009982D01*
X006357Y010045D01*
X006344Y010108D01*
X006334Y010172D01*
X006328Y010237D01*
X006326Y010301D01*
X006328Y010366D01*
X006334Y010431D01*
X006343Y010495D01*
X006357Y010558D01*
X006374Y010621D01*
X006395Y010682D01*
X006420Y010742D01*
X006448Y010800D01*
X006480Y010857D01*
X006515Y010911D01*
X006554Y010964D01*
X006561Y010958D01*
X006523Y010906D01*
X006488Y010852D01*
X006456Y010796D01*
X006428Y010738D01*
X006404Y010679D01*
X006383Y010618D01*
X006366Y010556D01*
X006352Y010493D01*
X006343Y010430D01*
X006337Y010366D01*
X006335Y010301D01*
X006337Y010237D01*
X006343Y010173D01*
X006352Y010110D01*
X006366Y010047D01*
X006383Y009985D01*
X006404Y009924D01*
X006429Y009865D01*
X006457Y009807D01*
X006488Y009751D01*
X006523Y009697D01*
X006561Y009645D01*
X006602Y009596D01*
X006646Y009549D01*
X006693Y009505D01*
X006743Y009464D01*
X006794Y009426D01*
X006848Y009391D01*
X006904Y009359D01*
X006962Y009331D01*
X007021Y009306D01*
X007082Y009285D01*
X007085Y009293D01*
X007024Y009314D01*
X006966Y009339D01*
X006908Y009367D01*
X006853Y009398D01*
X006799Y009433D01*
X006748Y009471D01*
X006699Y009512D01*
X006653Y009555D01*
X006609Y009602D01*
X006568Y009651D01*
X006531Y009702D01*
X006496Y009756D01*
X006465Y009811D01*
X006437Y009868D01*
X006413Y009927D01*
X006392Y009988D01*
X006375Y010049D01*
X006361Y010111D01*
X006352Y010174D01*
X006346Y010238D01*
X006344Y010301D01*
X006346Y010365D01*
X006352Y010429D01*
X006361Y010492D01*
X006374Y010554D01*
X006392Y010615D01*
X006412Y010676D01*
X006437Y010735D01*
X006464Y010792D01*
X006496Y010847D01*
X006530Y010901D01*
X006568Y010952D01*
X006575Y010947D01*
X006538Y010896D01*
X006503Y010843D01*
X006472Y010788D01*
X006445Y010731D01*
X006421Y010672D01*
X006400Y010613D01*
X006383Y010552D01*
X006370Y010490D01*
X006361Y010428D01*
X006355Y010365D01*
X006353Y010301D01*
X006355Y010238D01*
X006361Y010175D01*
X006370Y010113D01*
X006383Y010051D01*
X006400Y009990D01*
X006421Y009931D01*
X006445Y009872D01*
X006473Y009815D01*
X006504Y009760D01*
X006538Y009707D01*
X006576Y009656D01*
X006616Y009608D01*
X006659Y009562D01*
X006705Y009518D01*
X006754Y009478D01*
X006804Y009440D01*
X006857Y009406D01*
X006912Y009375D01*
X006969Y009347D01*
X007028Y009323D01*
X007087Y009302D01*
X007090Y009311D01*
X007031Y009331D01*
X006973Y009355D01*
X006917Y009383D01*
X006862Y009414D01*
X006810Y009448D01*
X006759Y009485D01*
X006711Y009525D01*
X006666Y009568D01*
X006623Y009614D01*
X006583Y009662D01*
X006546Y009712D01*
X006512Y009765D01*
X006481Y009820D01*
X006453Y009876D01*
X006429Y009934D01*
X006409Y009993D01*
X006392Y010053D01*
X006379Y010115D01*
X006370Y010176D01*
X006364Y010239D01*
X006362Y010301D01*
X006364Y010364D01*
X006369Y010426D01*
X006379Y010488D01*
X006392Y010550D01*
X006409Y010610D01*
X006429Y010669D01*
X006453Y010727D01*
X006480Y010783D01*
X006511Y010838D01*
X006545Y010891D01*
X006582Y010941D01*
X006589Y010936D01*
X006552Y010886D01*
X006519Y010833D01*
X006488Y010779D01*
X006461Y010723D01*
X006437Y010666D01*
X006417Y010607D01*
X006401Y010547D01*
X006388Y010487D01*
X006378Y010425D01*
X006373Y010364D01*
X006371Y010301D01*
X006373Y010239D01*
X006379Y010178D01*
X006388Y010116D01*
X006401Y010055D01*
X006418Y009996D01*
X006438Y009937D01*
X006462Y009880D01*
X006489Y009824D01*
X006519Y009770D01*
X006553Y009717D01*
X006590Y009667D01*
X006629Y009620D01*
X006672Y009574D01*
X006717Y009532D01*
X006765Y009492D01*
X006815Y009455D01*
X006867Y009421D01*
X006921Y009391D01*
X006977Y009364D01*
X007034Y009340D01*
X007093Y009319D01*
X007722Y009277D02*
X007707Y009325D01*
X007708Y009324D02*
X007766Y009344D01*
X007823Y009368D01*
X007879Y009395D01*
X007933Y009426D01*
X007984Y009459D01*
X008034Y009496D01*
X008082Y009536D01*
X008127Y009578D01*
X008169Y009623D01*
X008208Y009671D01*
X008245Y009720D01*
X008278Y009772D01*
X008309Y009826D01*
X008336Y009882D01*
X008359Y009939D01*
X008380Y009997D01*
X008396Y010057D01*
X008409Y010117D01*
X008418Y010178D01*
X008424Y010240D01*
X008426Y010301D01*
X008424Y010363D01*
X008419Y010425D01*
X008409Y010486D01*
X008396Y010546D01*
X008380Y010606D01*
X008360Y010664D01*
X008336Y010721D01*
X008309Y010777D01*
X008279Y010831D01*
X008246Y010883D01*
X008209Y010933D01*
X008248Y010963D01*
X008248Y010964D01*
X008287Y010911D01*
X008322Y010857D01*
X008354Y010800D01*
X008382Y010742D01*
X008407Y010682D01*
X008428Y010621D01*
X008445Y010558D01*
X008459Y010495D01*
X008468Y010431D01*
X008474Y010366D01*
X008476Y010301D01*
X008474Y010237D01*
X008468Y010172D01*
X008458Y010108D01*
X008445Y010045D01*
X008427Y009982D01*
X008406Y009921D01*
X008381Y009861D01*
X008353Y009803D01*
X008321Y009746D01*
X008286Y009692D01*
X008248Y009640D01*
X008206Y009590D01*
X008162Y009543D01*
X008115Y009498D01*
X008065Y009457D01*
X008013Y009418D01*
X007958Y009383D01*
X007902Y009351D01*
X007844Y009322D01*
X007784Y009298D01*
X007723Y009276D01*
X007720Y009285D01*
X007781Y009306D01*
X007840Y009331D01*
X007898Y009359D01*
X007954Y009391D01*
X008008Y009425D01*
X008059Y009464D01*
X008109Y009505D01*
X008156Y009549D01*
X008200Y009596D01*
X008241Y009645D01*
X008279Y009697D01*
X008314Y009751D01*
X008345Y009807D01*
X008373Y009865D01*
X008398Y009924D01*
X008419Y009985D01*
X008436Y010047D01*
X008450Y010110D01*
X008459Y010173D01*
X008465Y010237D01*
X008467Y010301D01*
X008465Y010366D01*
X008459Y010430D01*
X008450Y010493D01*
X008436Y010556D01*
X008419Y010618D01*
X008398Y010679D01*
X008374Y010738D01*
X008346Y010796D01*
X008314Y010852D01*
X008279Y010906D01*
X008241Y010958D01*
X008234Y010952D01*
X008272Y010901D01*
X008306Y010847D01*
X008338Y010792D01*
X008365Y010735D01*
X008390Y010676D01*
X008410Y010615D01*
X008428Y010554D01*
X008441Y010492D01*
X008450Y010429D01*
X008456Y010365D01*
X008458Y010301D01*
X008456Y010238D01*
X008450Y010174D01*
X008441Y010111D01*
X008427Y010049D01*
X008410Y009988D01*
X008389Y009927D01*
X008365Y009868D01*
X008337Y009811D01*
X008306Y009756D01*
X008271Y009702D01*
X008234Y009651D01*
X008193Y009602D01*
X008149Y009555D01*
X008103Y009512D01*
X008054Y009471D01*
X008003Y009433D01*
X007949Y009398D01*
X007894Y009367D01*
X007836Y009339D01*
X007778Y009314D01*
X007717Y009293D01*
X007715Y009302D01*
X007774Y009323D01*
X007833Y009347D01*
X007890Y009375D01*
X007945Y009406D01*
X007998Y009440D01*
X008048Y009478D01*
X008097Y009518D01*
X008143Y009562D01*
X008186Y009608D01*
X008226Y009656D01*
X008264Y009707D01*
X008298Y009760D01*
X008329Y009815D01*
X008357Y009872D01*
X008381Y009931D01*
X008402Y009990D01*
X008419Y010051D01*
X008432Y010113D01*
X008441Y010175D01*
X008447Y010238D01*
X008449Y010301D01*
X008447Y010365D01*
X008441Y010428D01*
X008432Y010490D01*
X008419Y010552D01*
X008402Y010613D01*
X008381Y010672D01*
X008357Y010731D01*
X008330Y010788D01*
X008299Y010843D01*
X008265Y010896D01*
X008227Y010947D01*
X008220Y010941D01*
X008257Y010891D01*
X008291Y010838D01*
X008322Y010783D01*
X008349Y010727D01*
X008373Y010669D01*
X008393Y010610D01*
X008410Y010550D01*
X008423Y010488D01*
X008433Y010426D01*
X008438Y010364D01*
X008440Y010301D01*
X008438Y010239D01*
X008432Y010176D01*
X008423Y010115D01*
X008410Y010053D01*
X008393Y009993D01*
X008373Y009934D01*
X008349Y009876D01*
X008321Y009820D01*
X008290Y009765D01*
X008256Y009712D01*
X008219Y009662D01*
X008179Y009614D01*
X008136Y009568D01*
X008091Y009525D01*
X008043Y009485D01*
X007992Y009448D01*
X007940Y009414D01*
X007885Y009383D01*
X007829Y009355D01*
X007771Y009331D01*
X007712Y009311D01*
X007709Y009319D01*
X007768Y009340D01*
X007825Y009364D01*
X007881Y009391D01*
X007935Y009421D01*
X007987Y009455D01*
X008037Y009492D01*
X008085Y009532D01*
X008130Y009574D01*
X008173Y009620D01*
X008212Y009667D01*
X008249Y009717D01*
X008283Y009770D01*
X008313Y009824D01*
X008340Y009880D01*
X008364Y009937D01*
X008384Y009996D01*
X008401Y010055D01*
X008414Y010116D01*
X008423Y010178D01*
X008429Y010239D01*
X008431Y010301D01*
X008429Y010363D01*
X008424Y010425D01*
X008414Y010487D01*
X008401Y010547D01*
X008385Y010607D01*
X008365Y010666D01*
X008341Y010723D01*
X008314Y010779D01*
X008283Y010833D01*
X008250Y010886D01*
X008213Y010936D01*
X007222Y011777D02*
X007207Y011825D01*
X007208Y011824D02*
X007266Y011844D01*
X007323Y011868D01*
X007379Y011895D01*
X007433Y011926D01*
X007484Y011959D01*
X007534Y011996D01*
X007582Y012036D01*
X007627Y012078D01*
X007669Y012123D01*
X007708Y012171D01*
X007745Y012220D01*
X007778Y012272D01*
X007809Y012326D01*
X007836Y012382D01*
X007859Y012439D01*
X007880Y012497D01*
X007896Y012557D01*
X007909Y012617D01*
X007918Y012678D01*
X007924Y012740D01*
X007926Y012801D01*
X007924Y012863D01*
X007919Y012925D01*
X007909Y012986D01*
X007896Y013046D01*
X007880Y013106D01*
X007860Y013164D01*
X007836Y013221D01*
X007809Y013277D01*
X007779Y013331D01*
X007746Y013383D01*
X007709Y013433D01*
X007748Y013463D01*
X007748Y013464D01*
X007787Y013411D01*
X007822Y013357D01*
X007854Y013300D01*
X007882Y013242D01*
X007907Y013182D01*
X007928Y013121D01*
X007945Y013058D01*
X007959Y012995D01*
X007968Y012931D01*
X007974Y012866D01*
X007976Y012801D01*
X007974Y012737D01*
X007968Y012672D01*
X007958Y012608D01*
X007945Y012545D01*
X007927Y012482D01*
X007906Y012421D01*
X007881Y012361D01*
X007853Y012303D01*
X007821Y012246D01*
X007786Y012192D01*
X007748Y012140D01*
X007706Y012090D01*
X007662Y012043D01*
X007615Y011998D01*
X007565Y011957D01*
X007513Y011918D01*
X007458Y011883D01*
X007402Y011851D01*
X007344Y011822D01*
X007284Y011798D01*
X007223Y011776D01*
X007220Y011785D01*
X007281Y011806D01*
X007340Y011831D01*
X007398Y011859D01*
X007454Y011891D01*
X007508Y011925D01*
X007559Y011964D01*
X007609Y012005D01*
X007656Y012049D01*
X007700Y012096D01*
X007741Y012145D01*
X007779Y012197D01*
X007814Y012251D01*
X007845Y012307D01*
X007873Y012365D01*
X007898Y012424D01*
X007919Y012485D01*
X007936Y012547D01*
X007950Y012610D01*
X007959Y012673D01*
X007965Y012737D01*
X007967Y012801D01*
X007965Y012866D01*
X007959Y012930D01*
X007950Y012993D01*
X007936Y013056D01*
X007919Y013118D01*
X007898Y013179D01*
X007874Y013238D01*
X007846Y013296D01*
X007814Y013352D01*
X007779Y013406D01*
X007741Y013458D01*
X007734Y013452D01*
X007772Y013401D01*
X007806Y013347D01*
X007838Y013292D01*
X007865Y013235D01*
X007890Y013176D01*
X007910Y013115D01*
X007928Y013054D01*
X007941Y012992D01*
X007950Y012929D01*
X007956Y012865D01*
X007958Y012801D01*
X007956Y012738D01*
X007950Y012674D01*
X007941Y012611D01*
X007927Y012549D01*
X007910Y012488D01*
X007889Y012427D01*
X007865Y012368D01*
X007837Y012311D01*
X007806Y012256D01*
X007771Y012202D01*
X007734Y012151D01*
X007693Y012102D01*
X007649Y012055D01*
X007603Y012012D01*
X007554Y011971D01*
X007503Y011933D01*
X007449Y011898D01*
X007394Y011867D01*
X007336Y011839D01*
X007278Y011814D01*
X007217Y011793D01*
X007215Y011802D01*
X007274Y011823D01*
X007333Y011847D01*
X007390Y011875D01*
X007445Y011906D01*
X007498Y011940D01*
X007548Y011978D01*
X007597Y012018D01*
X007643Y012062D01*
X007686Y012108D01*
X007726Y012156D01*
X007764Y012207D01*
X007798Y012260D01*
X007829Y012315D01*
X007857Y012372D01*
X007881Y012431D01*
X007902Y012490D01*
X007919Y012551D01*
X007932Y012613D01*
X007941Y012675D01*
X007947Y012738D01*
X007949Y012801D01*
X007947Y012865D01*
X007941Y012928D01*
X007932Y012990D01*
X007919Y013052D01*
X007902Y013113D01*
X007881Y013172D01*
X007857Y013231D01*
X007830Y013288D01*
X007799Y013343D01*
X007765Y013396D01*
X007727Y013447D01*
X007720Y013441D01*
X007757Y013391D01*
X007791Y013338D01*
X007822Y013283D01*
X007849Y013227D01*
X007873Y013169D01*
X007893Y013110D01*
X007910Y013050D01*
X007923Y012988D01*
X007933Y012926D01*
X007938Y012864D01*
X007940Y012801D01*
X007938Y012739D01*
X007932Y012676D01*
X007923Y012615D01*
X007910Y012553D01*
X007893Y012493D01*
X007873Y012434D01*
X007849Y012376D01*
X007821Y012320D01*
X007790Y012265D01*
X007756Y012212D01*
X007719Y012162D01*
X007679Y012114D01*
X007636Y012068D01*
X007591Y012025D01*
X007543Y011985D01*
X007492Y011948D01*
X007440Y011914D01*
X007385Y011883D01*
X007329Y011855D01*
X007271Y011831D01*
X007212Y011811D01*
X007209Y011819D01*
X007268Y011840D01*
X007325Y011864D01*
X007381Y011891D01*
X007435Y011921D01*
X007487Y011955D01*
X007537Y011992D01*
X007585Y012032D01*
X007630Y012074D01*
X007673Y012120D01*
X007712Y012167D01*
X007749Y012217D01*
X007783Y012270D01*
X007813Y012324D01*
X007840Y012380D01*
X007864Y012437D01*
X007884Y012496D01*
X007901Y012555D01*
X007914Y012616D01*
X007923Y012678D01*
X007929Y012739D01*
X007931Y012801D01*
X007929Y012863D01*
X007924Y012925D01*
X007914Y012987D01*
X007901Y013047D01*
X007885Y013107D01*
X007865Y013166D01*
X007841Y013223D01*
X007814Y013279D01*
X007783Y013333D01*
X007750Y013386D01*
X007713Y013436D01*
X006054Y013463D02*
X006093Y013432D01*
X006093Y013433D02*
X006056Y013383D01*
X006023Y013331D01*
X005993Y013277D01*
X005966Y013221D01*
X005942Y013164D01*
X005922Y013106D01*
X005906Y013046D01*
X005893Y012986D01*
X005883Y012925D01*
X005878Y012863D01*
X005876Y012801D01*
X005878Y012740D01*
X005884Y012678D01*
X005893Y012617D01*
X005906Y012557D01*
X005922Y012497D01*
X005943Y012439D01*
X005966Y012382D01*
X005993Y012326D01*
X006024Y012272D01*
X006057Y012220D01*
X006094Y012171D01*
X006133Y012123D01*
X006175Y012078D01*
X006220Y012036D01*
X006268Y011996D01*
X006318Y011959D01*
X006369Y011926D01*
X006423Y011895D01*
X006479Y011868D01*
X006536Y011844D01*
X006594Y011824D01*
X006580Y011777D01*
X006579Y011776D01*
X006518Y011798D01*
X006458Y011822D01*
X006400Y011851D01*
X006344Y011883D01*
X006289Y011918D01*
X006237Y011957D01*
X006187Y011998D01*
X006140Y012043D01*
X006096Y012090D01*
X006054Y012140D01*
X006016Y012192D01*
X005981Y012246D01*
X005949Y012303D01*
X005921Y012361D01*
X005896Y012421D01*
X005875Y012482D01*
X005857Y012545D01*
X005844Y012608D01*
X005834Y012672D01*
X005828Y012737D01*
X005826Y012801D01*
X005828Y012866D01*
X005834Y012931D01*
X005843Y012995D01*
X005857Y013058D01*
X005874Y013121D01*
X005895Y013182D01*
X005920Y013242D01*
X005948Y013300D01*
X005980Y013357D01*
X006015Y013411D01*
X006054Y013464D01*
X006061Y013458D01*
X006023Y013406D01*
X005988Y013352D01*
X005956Y013296D01*
X005928Y013238D01*
X005904Y013179D01*
X005883Y013118D01*
X005866Y013056D01*
X005852Y012993D01*
X005843Y012930D01*
X005837Y012866D01*
X005835Y012801D01*
X005837Y012737D01*
X005843Y012673D01*
X005852Y012610D01*
X005866Y012547D01*
X005883Y012485D01*
X005904Y012424D01*
X005929Y012365D01*
X005957Y012307D01*
X005988Y012251D01*
X006023Y012197D01*
X006061Y012145D01*
X006102Y012096D01*
X006146Y012049D01*
X006193Y012005D01*
X006243Y011964D01*
X006294Y011926D01*
X006348Y011891D01*
X006404Y011859D01*
X006462Y011831D01*
X006521Y011806D01*
X006582Y011785D01*
X006585Y011793D01*
X006524Y011814D01*
X006466Y011839D01*
X006408Y011867D01*
X006353Y011898D01*
X006299Y011933D01*
X006248Y011971D01*
X006199Y012012D01*
X006153Y012055D01*
X006109Y012102D01*
X006068Y012151D01*
X006031Y012202D01*
X005996Y012256D01*
X005965Y012311D01*
X005937Y012368D01*
X005913Y012427D01*
X005892Y012488D01*
X005875Y012549D01*
X005861Y012611D01*
X005852Y012674D01*
X005846Y012738D01*
X005844Y012801D01*
X005846Y012865D01*
X005852Y012929D01*
X005861Y012992D01*
X005874Y013054D01*
X005892Y013115D01*
X005912Y013176D01*
X005937Y013235D01*
X005964Y013292D01*
X005996Y013347D01*
X006030Y013401D01*
X006068Y013452D01*
X006075Y013447D01*
X006038Y013396D01*
X006003Y013343D01*
X005972Y013288D01*
X005945Y013231D01*
X005921Y013172D01*
X005900Y013113D01*
X005883Y013052D01*
X005870Y012990D01*
X005861Y012928D01*
X005855Y012865D01*
X005853Y012801D01*
X005855Y012738D01*
X005861Y012675D01*
X005870Y012613D01*
X005883Y012551D01*
X005900Y012490D01*
X005921Y012431D01*
X005945Y012372D01*
X005973Y012315D01*
X006004Y012260D01*
X006038Y012207D01*
X006076Y012156D01*
X006116Y012108D01*
X006159Y012062D01*
X006205Y012018D01*
X006254Y011978D01*
X006304Y011940D01*
X006357Y011906D01*
X006412Y011875D01*
X006469Y011847D01*
X006528Y011823D01*
X006587Y011802D01*
X006590Y011811D01*
X006531Y011831D01*
X006473Y011855D01*
X006417Y011883D01*
X006362Y011914D01*
X006310Y011948D01*
X006259Y011985D01*
X006211Y012025D01*
X006166Y012068D01*
X006123Y012114D01*
X006083Y012162D01*
X006046Y012212D01*
X006012Y012265D01*
X005981Y012320D01*
X005953Y012376D01*
X005929Y012434D01*
X005909Y012493D01*
X005892Y012553D01*
X005879Y012615D01*
X005870Y012676D01*
X005864Y012739D01*
X005862Y012801D01*
X005864Y012864D01*
X005869Y012926D01*
X005879Y012988D01*
X005892Y013050D01*
X005909Y013110D01*
X005929Y013169D01*
X005953Y013227D01*
X005980Y013283D01*
X006011Y013338D01*
X006045Y013391D01*
X006082Y013441D01*
X006089Y013436D01*
X006052Y013386D01*
X006019Y013333D01*
X005988Y013279D01*
X005961Y013223D01*
X005937Y013166D01*
X005917Y013107D01*
X005901Y013047D01*
X005888Y012987D01*
X005878Y012925D01*
X005873Y012864D01*
X005871Y012801D01*
X005873Y012739D01*
X005879Y012678D01*
X005888Y012616D01*
X005901Y012555D01*
X005918Y012496D01*
X005938Y012437D01*
X005962Y012380D01*
X005989Y012324D01*
X006019Y012270D01*
X006053Y012217D01*
X006090Y012167D01*
X006129Y012120D01*
X006172Y012074D01*
X006217Y012032D01*
X006265Y011992D01*
X006315Y011955D01*
X006367Y011921D01*
X006421Y011891D01*
X006477Y011864D01*
X006534Y011840D01*
X006593Y011819D01*
D14*
X006934Y014727D02*
X006876Y014785D01*
X006934Y014727D02*
X007051Y014727D01*
X007109Y014785D01*
X007109Y014843D01*
X007051Y014902D01*
X006993Y014902D01*
X007051Y014902D02*
X007109Y014960D01*
X007109Y015018D01*
X007051Y015077D01*
X006934Y015077D01*
X006876Y015018D01*
X005009Y014727D02*
X004776Y014727D01*
X004893Y014727D02*
X004893Y015077D01*
X004776Y014960D01*
X007501Y018402D02*
X007501Y018605D01*
X007501Y018402D02*
X007906Y018402D01*
X008299Y018402D02*
X008704Y018402D01*
X009098Y018402D02*
X009502Y018402D01*
X009896Y018402D02*
X010301Y018402D01*
X010301Y018605D01*
X010301Y018998D02*
X010301Y019202D01*
X009896Y019202D01*
X009502Y019202D02*
X009098Y019202D01*
X008704Y019202D02*
X008299Y019202D01*
X007906Y019202D02*
X007501Y019202D01*
X007501Y018998D01*
X012501Y018998D02*
X012501Y019202D01*
X012906Y019202D01*
X013299Y019202D02*
X013704Y019202D01*
X014098Y019202D02*
X014502Y019202D01*
X014896Y019202D02*
X015301Y019202D01*
X015301Y018998D01*
X015301Y018605D02*
X015301Y018402D01*
X014896Y018402D01*
X014502Y018402D02*
X014098Y018402D01*
X013704Y018402D02*
X013299Y018402D01*
X012906Y018402D02*
X012501Y018402D01*
X012501Y018605D01*
D15*
X013116Y018358D02*
X013164Y018407D01*
X013261Y018407D01*
X013309Y018358D01*
X013309Y018310D01*
X013261Y018262D01*
X013309Y018213D01*
X013309Y018165D01*
X013261Y018117D01*
X013164Y018117D01*
X013116Y018165D01*
X013213Y018262D02*
X013261Y018262D01*
X014516Y018310D02*
X014613Y018407D01*
X014613Y018117D01*
X014709Y018117D02*
X014516Y018117D01*
X009709Y018117D02*
X009516Y018117D01*
X009613Y018117D02*
X009613Y018407D01*
X009516Y018310D01*
X008309Y018310D02*
X008261Y018262D01*
X008309Y018213D01*
X008309Y018165D01*
X008261Y018117D01*
X008164Y018117D01*
X008116Y018165D01*
X008213Y018262D02*
X008261Y018262D01*
X008309Y018310D02*
X008309Y018358D01*
X008261Y018407D01*
X008164Y018407D01*
X008116Y018358D01*
D16*
X006701Y016702D02*
X006601Y016602D01*
X006841Y015952D02*
X006991Y015952D01*
X005901Y016872D02*
X005901Y017022D01*
X005151Y016602D02*
X005051Y016702D01*
X004961Y015952D02*
X004811Y015952D01*
M02*
