G75*
G70*
%OFA0B0*%
%FSLAX24Y24*%
%IPPOS*%
%LPD*%
%AMOC8*
5,1,8,0,0,1.08239X$1,22.5*
%
%ADD10R,0.0476X0.0476*%
%ADD11C,0.0476*%
%ADD12OC8,0.0476*%
%ADD13C,0.0476*%
%ADD14C,0.0100*%
%ADD15C,0.0400*%
D10*
X001401Y001102D03*
X012601Y009202D03*
X014901Y010302D03*
X013207Y015202D03*
X014601Y018702D03*
X009601Y018702D03*
X002301Y019202D03*
D11*
X003601Y017202D03*
X003601Y014202D03*
X003601Y013202D03*
X003601Y010202D03*
X008301Y013902D03*
X008301Y016902D03*
X008601Y018702D03*
X007601Y018702D03*
X012101Y016702D03*
X013994Y015202D03*
X012101Y013702D03*
X012601Y011202D03*
X012601Y018702D03*
X013601Y018702D03*
D12*
X007101Y012702D03*
X006601Y011952D03*
X006101Y012702D03*
X006601Y010202D03*
X007101Y009452D03*
X007601Y010202D03*
X006601Y015702D03*
X005601Y016702D03*
X004601Y015702D03*
X001601Y019202D03*
X000901Y019202D03*
X000601Y010202D03*
X000601Y009202D03*
X000601Y008202D03*
X002301Y001102D03*
X014901Y009402D03*
D13*
X009239Y006402D02*
X008763Y006402D01*
X007239Y006402D02*
X006763Y006402D01*
X006763Y004402D02*
X007239Y004402D01*
X008763Y004402D02*
X009239Y004402D01*
X009239Y002402D02*
X008763Y002402D01*
X007239Y002402D02*
X006763Y002402D01*
D14*
X007001Y006402D02*
X007041Y006402D01*
X010101Y009162D01*
X012581Y009162D01*
X012601Y009202D01*
X013541Y010762D02*
X008181Y010762D01*
X007621Y010202D01*
X007601Y010202D01*
X007301Y010202D01*
X005941Y008842D01*
X001301Y008842D01*
X000661Y008202D01*
X000601Y008202D01*
X000601Y009202D02*
X000661Y009242D01*
X001381Y009242D01*
X001221Y009642D02*
X001781Y009642D01*
X001221Y009642D02*
X000661Y010202D01*
X000601Y010202D01*
X003601Y010202D02*
X006601Y010202D01*
X007101Y012702D02*
X007141Y012762D01*
X007141Y016682D01*
X012101Y016682D01*
X012101Y016702D01*
X013221Y015242D02*
X013221Y018282D01*
X010021Y018282D01*
X009601Y018702D01*
X006581Y017242D02*
X005621Y017242D01*
X005621Y016762D01*
X005601Y016702D01*
X005621Y017242D02*
X003621Y017242D01*
X003601Y017202D01*
X001621Y019162D02*
X001601Y019202D01*
X001621Y019162D02*
X001621Y014202D01*
X003601Y014202D01*
X013207Y015202D02*
X013221Y015162D01*
X013221Y011082D01*
X013541Y010762D01*
X014901Y009402D01*
X013207Y015202D02*
X013221Y015242D01*
X013221Y018282D02*
X014181Y018282D01*
X014601Y018702D01*
D15*
X001781Y009642D03*
X001381Y009242D03*
M02*
