G75*
G70*
%OFA0B0*%
%FSLAX24Y24*%
%IPPOS*%
%LPD*%
%AMOC8*
5,1,8,0,0,1.08239X$1,22.5*
%
%ADD10C,0.1182*%
%ADD11OC8,0.0556*%
%ADD12C,0.0556*%
%ADD13C,0.1261*%
%ADD14R,0.0556X0.0556*%
%ADD15C,0.0634*%
%ADD16R,0.0634X0.0634*%
%ADD17C,0.0966*%
%ADD18C,0.1025*%
%ADD19C,0.0946*%
D10*
X001302Y001302D03*
X016802Y001302D03*
X016802Y019302D03*
X001302Y019302D03*
D11*
X004052Y015302D03*
X005052Y014302D03*
X005052Y016302D03*
X004302Y012302D03*
X003302Y011302D03*
X004302Y010302D03*
X011052Y015302D03*
X012052Y014302D03*
X012052Y016302D03*
D12*
X009302Y016802D03*
X007802Y016802D03*
X007802Y012802D03*
X009302Y012802D03*
X012302Y011802D03*
X012552Y008802D03*
X012552Y004802D03*
X005552Y004802D03*
X004052Y004802D03*
X004052Y008802D03*
X005552Y008802D03*
X001552Y010052D03*
X001552Y014052D03*
X001802Y015802D03*
X001802Y017802D03*
X015302Y013802D03*
D13*
X014771Y018552D03*
X012802Y018552D03*
X010834Y018552D03*
X008521Y018552D03*
X006552Y018552D03*
X004584Y018552D03*
D14*
X012302Y010802D03*
X015302Y012802D03*
D15*
X009052Y011052D03*
D16*
X009052Y010052D03*
D17*
X016052Y008552D03*
X016052Y007052D03*
X016052Y005552D03*
X001552Y006052D03*
X001552Y008052D03*
D18*
X005802Y003052D03*
X007052Y003052D03*
X008302Y003052D03*
X007552Y005052D03*
X007552Y006552D03*
X007552Y008052D03*
X009052Y008052D03*
X009052Y006552D03*
X009052Y005052D03*
X010552Y005052D03*
X010552Y006552D03*
X010552Y008052D03*
X011352Y003052D03*
X012752Y003052D03*
D19*
X012752Y001502D03*
X011352Y001502D03*
X008277Y001502D03*
X007052Y001502D03*
X005827Y001502D03*
M02*
