G75*
G70*
%OFA0B0*%
%FSLAX24Y24*%
%IPPOS*%
%LPD*%
%AMOC8*
5,1,8,0,0,1.08239X$1,22.5*
%
%ADD10C,0.0000*%
%ADD11C,0.0520*%
%ADD12C,0.0600*%
%ADD13R,0.0476X0.0476*%
%ADD14OC8,0.0476*%
%ADD15C,0.0476*%
%ADD16R,0.0554X0.0554*%
%ADD17C,0.0554*%
%ADD18C,0.1000*%
%ADD19C,0.0100*%
%ADD20C,0.0400*%
D10*
X000181Y000181D02*
X000110Y025808D01*
X056018Y025736D01*
X056016Y000109D01*
X000181Y000181D01*
D11*
X005421Y009181D02*
X005941Y009181D01*
X005941Y010181D02*
X005421Y010181D01*
X005421Y011181D02*
X005941Y011181D01*
X005941Y012181D02*
X005421Y012181D01*
X005421Y013181D02*
X005941Y013181D01*
X005941Y014181D02*
X005421Y014181D01*
X005421Y015181D02*
X005941Y015181D01*
X008421Y015181D02*
X008941Y015181D01*
X008941Y014181D02*
X008421Y014181D01*
X008421Y013181D02*
X008941Y013181D01*
X008941Y012181D02*
X008421Y012181D01*
X008421Y011181D02*
X008941Y011181D01*
X008941Y010181D02*
X008421Y010181D01*
X008421Y009181D02*
X008941Y009181D01*
X028921Y009181D02*
X029441Y009181D01*
X029441Y010181D02*
X028921Y010181D01*
X028921Y011181D02*
X029441Y011181D01*
X029441Y012181D02*
X028921Y012181D01*
X028921Y013181D02*
X029441Y013181D01*
X029441Y014181D02*
X028921Y014181D01*
X028921Y015181D02*
X029441Y015181D01*
X031921Y015181D02*
X032441Y015181D01*
X032441Y014181D02*
X031921Y014181D01*
X031921Y013181D02*
X032441Y013181D01*
X032441Y012181D02*
X031921Y012181D01*
X031921Y011181D02*
X032441Y011181D01*
X032441Y010181D02*
X031921Y010181D01*
X031921Y009181D02*
X032441Y009181D01*
X033421Y005681D02*
X033941Y005681D01*
X033941Y004681D02*
X033421Y004681D01*
X033421Y003681D02*
X033941Y003681D01*
X033941Y002681D02*
X033421Y002681D01*
X036421Y002681D02*
X036941Y002681D01*
X036941Y003681D02*
X036421Y003681D01*
X036421Y004681D02*
X036941Y004681D01*
X036941Y005681D02*
X036421Y005681D01*
D12*
X012231Y006056D02*
X011631Y006056D01*
X011631Y005056D02*
X012231Y005056D01*
X012231Y004056D02*
X011631Y004056D01*
D13*
X008306Y003181D03*
X006681Y001056D03*
X005681Y001056D03*
X001181Y001931D03*
X001181Y003181D03*
X001181Y004181D03*
X008806Y006181D03*
X013681Y001181D03*
X019556Y005306D03*
X028181Y002931D03*
X047493Y003465D03*
X047493Y004465D03*
X047493Y005465D03*
X040681Y013681D03*
X040681Y016181D03*
X054897Y019939D03*
X024181Y015181D03*
X010181Y019181D03*
X003181Y019681D03*
X001681Y016681D03*
D14*
X001681Y015181D03*
X001181Y005181D03*
X001181Y001056D03*
X012181Y001181D03*
X030681Y004181D03*
X030681Y005181D03*
X030681Y006181D03*
X046493Y014465D03*
X047493Y014465D03*
X048493Y014465D03*
X048493Y017465D03*
X047493Y017465D03*
X046493Y017465D03*
X054976Y018561D03*
D15*
X050974Y017970D03*
X050974Y020970D03*
X045932Y019686D03*
X045932Y018686D03*
X042932Y018686D03*
X042932Y019686D03*
X039660Y021046D03*
X038160Y021046D03*
X036660Y021046D03*
X036660Y018046D03*
X038160Y018046D03*
X039660Y018046D03*
X037181Y016681D03*
X035181Y014681D03*
X035181Y013681D03*
X037181Y013681D03*
X037181Y011681D03*
X035181Y011681D03*
X039181Y011681D03*
X041181Y011681D03*
X041681Y013681D03*
X044993Y013465D03*
X044993Y011465D03*
X046993Y011465D03*
X049493Y010465D03*
X049493Y009465D03*
X046993Y008465D03*
X044993Y008465D03*
X041181Y008681D03*
X039181Y008681D03*
X037181Y008681D03*
X035181Y008681D03*
X039181Y005681D03*
X039181Y002681D03*
X045493Y002465D03*
X045493Y003465D03*
X045493Y004965D03*
X045493Y005965D03*
X049993Y005965D03*
X049993Y004965D03*
X049993Y002965D03*
X049993Y001965D03*
X028181Y001931D03*
X022556Y002306D03*
X022556Y003306D03*
X022556Y004306D03*
X022556Y005306D03*
X023681Y005181D03*
X026681Y005181D03*
X026806Y007056D03*
X024681Y008681D03*
X022681Y008681D03*
X020681Y008681D03*
X018681Y008681D03*
X016681Y008681D03*
X014681Y008681D03*
X012681Y008681D03*
X010681Y008681D03*
X007806Y006181D03*
X006306Y007181D03*
X003681Y006181D03*
X006306Y004181D03*
X008306Y004181D03*
X015556Y004681D03*
X015556Y003056D03*
X018556Y003056D03*
X019556Y003306D03*
X019556Y002306D03*
X019556Y004306D03*
X018556Y004681D03*
X018556Y006306D03*
X015556Y006306D03*
X023806Y007056D03*
X024681Y011681D03*
X022681Y011681D03*
X020681Y011681D03*
X018681Y011681D03*
X016681Y011681D03*
X014681Y011681D03*
X012681Y011681D03*
X010681Y011681D03*
X011681Y013181D03*
X013681Y013181D03*
X015681Y013181D03*
X017681Y013181D03*
X019681Y013181D03*
X021681Y013181D03*
X024181Y014181D03*
X021681Y016181D03*
X023284Y017321D03*
X025284Y018821D03*
X025284Y019821D03*
X023284Y020321D03*
X017058Y020542D03*
X017058Y017542D03*
X017681Y016181D03*
X015681Y016181D03*
X013681Y016181D03*
X011681Y016181D03*
X010181Y018181D03*
X003681Y017181D03*
X003181Y018681D03*
X003681Y014181D03*
X003681Y013181D03*
X003681Y010181D03*
X003681Y009181D03*
X019681Y016181D03*
X031078Y017830D03*
X031078Y020830D03*
X041681Y016181D03*
X044993Y016465D03*
D16*
X007681Y019681D03*
X001681Y012681D03*
X005681Y002556D03*
D17*
X006681Y002556D03*
X001681Y010681D03*
X007681Y017681D03*
D18*
X008543Y023557D03*
X010512Y023557D03*
X012480Y023557D03*
X015412Y023579D03*
X017380Y023579D03*
X019349Y023579D03*
X022347Y023600D03*
X024316Y023600D03*
X026284Y023600D03*
X029266Y023623D03*
X031235Y023623D03*
X033203Y023623D03*
X036168Y023586D03*
X038137Y023586D03*
X040105Y023586D03*
X042997Y023587D03*
X044965Y023587D03*
X046934Y023587D03*
X049846Y023591D03*
X051815Y023591D03*
X053783Y023591D03*
X005630Y023586D03*
X003662Y023586D03*
X001693Y023586D03*
D19*
X001701Y023141D01*
X001701Y016901D01*
X001681Y016681D01*
X002101Y017541D02*
X002101Y014581D01*
X003461Y013221D01*
X003681Y013181D01*
X004101Y012581D02*
X004101Y023381D01*
X003662Y023586D01*
X009781Y023781D02*
X010261Y024261D01*
X029061Y024261D01*
X029061Y024101D01*
X029266Y023623D01*
X031061Y023141D02*
X031235Y023623D01*
X031061Y023141D02*
X031061Y021061D01*
X031078Y020830D01*
X032981Y018741D02*
X025461Y018741D01*
X025284Y018821D01*
X025061Y018901D01*
X019541Y018901D01*
X019541Y023141D01*
X019349Y023579D01*
X017380Y023579D02*
X017141Y023141D01*
X017141Y020741D01*
X017058Y020542D01*
X015621Y021381D02*
X015621Y023141D01*
X015412Y023579D01*
X012480Y023557D02*
X012021Y023541D01*
X010981Y023541D01*
X010512Y023557D01*
X010581Y023061D01*
X010581Y018581D01*
X010181Y018181D01*
X007681Y017681D02*
X007541Y017461D01*
X006101Y016021D01*
X006101Y015381D01*
X005681Y015181D01*
X005701Y014981D01*
X005701Y014421D01*
X005681Y014181D01*
X003681Y014181D02*
X003541Y014341D01*
X003301Y014581D01*
X003301Y017381D01*
X003621Y017701D01*
X003621Y019221D01*
X003381Y019461D01*
X003181Y019681D01*
X003181Y018681D02*
X003061Y018501D01*
X002101Y017541D01*
X001681Y015181D02*
X001781Y014981D01*
X001781Y014901D01*
X002101Y014581D01*
X004101Y012581D02*
X005301Y011381D01*
X005681Y011181D01*
X006021Y011941D02*
X005681Y012181D01*
X006021Y011941D02*
X008021Y009941D01*
X008021Y006901D01*
X008581Y006341D01*
X008806Y006181D01*
X011381Y006181D01*
X011931Y006056D01*
X011931Y005056D02*
X012341Y004821D01*
X012661Y004501D01*
X012661Y001781D01*
X012261Y001381D01*
X012181Y001181D01*
X013681Y001181D02*
X013861Y001381D01*
X014581Y002101D01*
X014581Y008501D01*
X014681Y008681D01*
X016581Y008901D02*
X016681Y008681D01*
X016581Y008901D02*
X013781Y011701D01*
X013781Y012981D01*
X013681Y013181D01*
X012581Y011861D02*
X011781Y012661D01*
X010901Y011781D01*
X010681Y011681D01*
X010581Y010421D02*
X009061Y011941D01*
X008681Y012181D01*
X008021Y012741D02*
X008261Y012981D01*
X008681Y013181D01*
X008021Y012741D02*
X008021Y010741D01*
X008341Y010421D01*
X008681Y010181D01*
X010581Y010421D02*
X010581Y008901D01*
X010681Y008681D01*
X007806Y006181D02*
X007941Y006021D01*
X008181Y005781D01*
X008181Y004341D01*
X008306Y004181D01*
X006306Y004181D01*
X005861Y002821D02*
X005681Y002556D01*
X005861Y002821D02*
X005861Y006661D01*
X006181Y006981D01*
X006306Y007181D01*
X005301Y007861D02*
X005301Y008981D01*
X005681Y009181D01*
X005681Y010181D02*
X003681Y010181D01*
X003701Y010021D01*
X003701Y009381D01*
X003681Y009181D01*
X004821Y007381D02*
X001781Y010421D01*
X001681Y010681D01*
X004821Y007381D02*
X005301Y007861D01*
X004821Y007381D02*
X003781Y006341D01*
X003681Y006181D01*
X001621Y004661D02*
X001301Y004981D01*
X001181Y005181D01*
X001621Y004661D02*
X001621Y001541D01*
X001301Y001221D01*
X001181Y001056D01*
X001181Y001931D02*
X001221Y002101D01*
X001221Y002981D01*
X001181Y003181D01*
X006681Y002556D02*
X006741Y002341D01*
X006741Y001221D01*
X006681Y001056D01*
X015556Y004681D02*
X015541Y004901D01*
X015541Y006101D01*
X015556Y006306D01*
X015556Y004681D02*
X015621Y004501D01*
X015621Y003861D01*
X026261Y003861D01*
X026261Y011381D01*
X028821Y013941D01*
X029181Y014181D01*
X029221Y014421D01*
X029221Y014981D01*
X029181Y015181D01*
X031461Y015701D02*
X031461Y018021D01*
X031221Y018261D01*
X023701Y018261D01*
X023701Y015781D01*
X020821Y012901D01*
X020821Y011861D01*
X020681Y011681D01*
X020501Y011301D02*
X024021Y011301D01*
X024021Y014021D01*
X024181Y014181D01*
X024181Y015181D02*
X024021Y015221D01*
X023781Y015221D01*
X021861Y013301D01*
X021681Y013181D01*
X020261Y012501D02*
X020261Y011541D01*
X020501Y011301D01*
X021061Y010421D02*
X018101Y013381D01*
X018101Y018901D01*
X015621Y021381D01*
X009781Y023781D02*
X009781Y016101D01*
X009061Y015381D01*
X008681Y015181D01*
X008741Y014981D01*
X008741Y014421D01*
X008681Y014181D01*
X011681Y013181D02*
X011781Y012981D01*
X011781Y012661D01*
X012581Y011861D02*
X012681Y011681D01*
X014681Y011681D02*
X014901Y011701D01*
X016501Y011701D01*
X016681Y011681D01*
X016821Y011861D01*
X016821Y017301D01*
X016901Y017381D01*
X017058Y017542D01*
X018581Y017221D02*
X018581Y013381D01*
X019681Y013181D02*
X019781Y012981D01*
X020261Y012501D01*
X021061Y010421D02*
X021061Y007941D01*
X023621Y005381D01*
X023681Y005181D01*
X024101Y005061D02*
X023781Y004741D01*
X019621Y004741D01*
X019621Y004501D01*
X019556Y004306D01*
X018556Y003056D02*
X018581Y002821D01*
X018581Y001541D01*
X038581Y001541D01*
X039861Y002821D01*
X039861Y012821D01*
X040501Y013461D01*
X040681Y013681D01*
X041681Y013681D02*
X041781Y013861D01*
X041781Y014501D01*
X045781Y018501D01*
X045932Y018686D01*
X046493Y017465D02*
X046661Y017301D01*
X046901Y017061D01*
X046901Y011701D01*
X046993Y011465D01*
X046821Y011461D01*
X045221Y011461D01*
X044993Y011465D01*
X046581Y011061D02*
X046821Y011301D01*
X046993Y011465D01*
X046581Y011061D02*
X046581Y006101D01*
X045621Y005141D01*
X045493Y004965D01*
X047621Y007381D02*
X047621Y014261D01*
X047493Y014465D01*
X048493Y014465D02*
X048581Y014261D01*
X048581Y010581D01*
X049461Y009701D01*
X049493Y009465D01*
X049493Y010465D02*
X049381Y010661D01*
X049381Y015541D01*
X047621Y017301D01*
X047493Y017465D01*
X042932Y018686D02*
X042901Y018901D01*
X042901Y019461D01*
X042932Y019686D01*
X043141Y019781D01*
X046581Y023221D01*
X046581Y023301D01*
X046934Y023587D01*
X044965Y023587D02*
X044741Y023141D01*
X039781Y018181D01*
X039660Y018046D01*
X039541Y018261D01*
X039541Y018421D01*
X032981Y018421D01*
X032981Y012901D01*
X032501Y012421D01*
X032181Y012181D01*
X031781Y012981D02*
X032181Y013181D01*
X031781Y012981D02*
X030021Y011221D01*
X030021Y009141D01*
X029221Y008261D02*
X036021Y008261D01*
X036021Y017301D01*
X036581Y017861D01*
X036660Y018046D01*
X032981Y018421D02*
X032981Y018741D01*
X032981Y023141D01*
X033203Y023623D01*
X036168Y023586D02*
X036421Y023141D01*
X036421Y021301D01*
X036501Y021221D01*
X036660Y021046D01*
X038160Y021046D02*
X038181Y021221D01*
X038181Y023141D01*
X038137Y023586D01*
X039861Y023141D02*
X040105Y023586D01*
X039861Y023141D02*
X039861Y021301D01*
X039781Y021221D01*
X039660Y021046D01*
X031078Y017830D02*
X030981Y017621D01*
X030981Y012821D01*
X029541Y011381D01*
X029181Y011181D01*
X028501Y011621D02*
X028501Y008981D01*
X029221Y008261D01*
X026806Y007056D02*
X026901Y006821D01*
X028021Y005701D01*
X028021Y003141D01*
X028181Y002931D01*
X026501Y002421D02*
X026501Y005061D01*
X026681Y005181D01*
X024101Y005061D02*
X024101Y006581D01*
X023861Y006821D01*
X023806Y007056D01*
X020581Y008421D02*
X020581Y008501D01*
X020681Y008681D01*
X020581Y008421D02*
X018661Y006501D01*
X018556Y006306D01*
X015621Y003861D02*
X015621Y003221D01*
X015556Y003056D01*
X022556Y002306D02*
X022741Y002421D01*
X026501Y002421D01*
X033681Y003681D02*
X034101Y003861D01*
X034101Y004101D01*
X036981Y004101D01*
X037621Y004741D01*
X037621Y013061D01*
X037221Y013461D01*
X037181Y013681D01*
X035621Y014181D02*
X035301Y014501D01*
X035181Y014681D01*
X035621Y014181D02*
X035621Y012181D01*
X035301Y011861D01*
X035181Y011681D01*
X035141Y013461D02*
X032901Y011221D01*
X032901Y009701D01*
X032581Y009381D01*
X032181Y009181D01*
X036021Y008261D02*
X036021Y005221D01*
X036341Y004901D01*
X036681Y004681D01*
X039221Y002901D02*
X039621Y003301D01*
X039621Y015141D01*
X040501Y016021D01*
X040681Y016181D01*
X044821Y013301D02*
X044993Y013465D01*
X044821Y013301D02*
X044581Y013061D01*
X044581Y008981D01*
X044901Y008661D01*
X044993Y008465D01*
X047621Y007381D02*
X049861Y005141D01*
X049993Y004965D01*
X050021Y004741D01*
X050021Y003141D01*
X049993Y002965D01*
X039221Y002901D02*
X039181Y002681D01*
X028821Y011941D02*
X028501Y011621D01*
X028821Y011941D02*
X029181Y012181D01*
X031781Y015381D02*
X032181Y015181D01*
X031781Y015381D02*
X031461Y015701D01*
X035181Y013681D02*
X035141Y013461D01*
X026101Y020741D02*
X025381Y020021D01*
X025284Y019821D01*
X026101Y020741D02*
X026101Y023141D01*
X026284Y023600D01*
X024316Y023600D02*
X023861Y023621D01*
X022821Y023621D01*
X022347Y023600D01*
X022581Y023141D01*
X022581Y021061D01*
X023141Y020501D01*
X023284Y020321D01*
X023284Y017321D02*
X023061Y017221D01*
X018581Y017221D01*
X015681Y016181D02*
X013681Y016181D01*
X012581Y016101D02*
X011861Y016101D01*
X011681Y016181D01*
X012581Y016101D02*
X015461Y013221D01*
X015681Y013181D01*
X049846Y023591D02*
X050101Y023141D01*
X050101Y021861D01*
X050821Y021141D01*
X050974Y020970D01*
X054021Y023141D02*
X054501Y022661D01*
X054501Y019061D01*
X054821Y018741D01*
X054976Y018561D01*
X054021Y023141D02*
X053783Y023591D01*
D20*
X030021Y009141D03*
X018581Y013381D03*
M02*
