G75*
G70*
%OFA0B0*%
%FSLAX24Y24*%
%IPPOS*%
%LPD*%
%AMOC8*
5,1,8,0,0,1.08239X$1,22.5*
%
%ADD10C,0.0600*%
%ADD11C,0.0680*%
%ADD12R,0.0556X0.0556*%
%ADD13OC8,0.0556*%
%ADD14C,0.0556*%
%ADD15R,0.0634X0.0634*%
%ADD16C,0.0634*%
%ADD17C,0.1080*%
%ADD18C,0.0480*%
D10*
X005421Y009181D02*
X005941Y009181D01*
X005941Y010181D02*
X005421Y010181D01*
X005421Y011181D02*
X005941Y011181D01*
X005941Y012181D02*
X005421Y012181D01*
X005421Y013181D02*
X005941Y013181D01*
X005941Y014181D02*
X005421Y014181D01*
X005421Y015181D02*
X005941Y015181D01*
X008421Y015181D02*
X008941Y015181D01*
X008941Y014181D02*
X008421Y014181D01*
X008421Y013181D02*
X008941Y013181D01*
X008941Y012181D02*
X008421Y012181D01*
X008421Y011181D02*
X008941Y011181D01*
X008941Y010181D02*
X008421Y010181D01*
X008421Y009181D02*
X008941Y009181D01*
X028921Y009181D02*
X029441Y009181D01*
X029441Y010181D02*
X028921Y010181D01*
X028921Y011181D02*
X029441Y011181D01*
X029441Y012181D02*
X028921Y012181D01*
X028921Y013181D02*
X029441Y013181D01*
X029441Y014181D02*
X028921Y014181D01*
X028921Y015181D02*
X029441Y015181D01*
X031921Y015181D02*
X032441Y015181D01*
X032441Y014181D02*
X031921Y014181D01*
X031921Y013181D02*
X032441Y013181D01*
X032441Y012181D02*
X031921Y012181D01*
X031921Y011181D02*
X032441Y011181D01*
X032441Y010181D02*
X031921Y010181D01*
X031921Y009181D02*
X032441Y009181D01*
X033421Y005681D02*
X033941Y005681D01*
X033941Y004681D02*
X033421Y004681D01*
X033421Y003681D02*
X033941Y003681D01*
X033941Y002681D02*
X033421Y002681D01*
X036421Y002681D02*
X036941Y002681D01*
X036941Y003681D02*
X036421Y003681D01*
X036421Y004681D02*
X036941Y004681D01*
X036941Y005681D02*
X036421Y005681D01*
D11*
X012231Y006056D02*
X011631Y006056D01*
X011631Y005056D02*
X012231Y005056D01*
X012231Y004056D02*
X011631Y004056D01*
D12*
X008306Y003181D03*
X006681Y001056D03*
X005681Y001056D03*
X001181Y001931D03*
X001181Y003181D03*
X001181Y004181D03*
X008806Y006181D03*
X013681Y001181D03*
X019556Y005306D03*
X028181Y002931D03*
X047493Y003465D03*
X047493Y004465D03*
X047493Y005465D03*
X040681Y013681D03*
X040681Y016181D03*
X054897Y019939D03*
X024181Y015181D03*
X010181Y019181D03*
X003181Y019681D03*
X001681Y016681D03*
D13*
X001181Y001056D03*
X001181Y005181D03*
X012181Y001181D03*
X030681Y004181D03*
X030681Y005181D03*
X030681Y006181D03*
X046493Y014465D03*
X047493Y014465D03*
X048493Y014465D03*
X048493Y017465D03*
X047493Y017465D03*
X046493Y017465D03*
X054976Y018561D03*
X001681Y015181D03*
D14*
X003681Y014181D03*
X003681Y013181D03*
X003681Y010181D03*
X003681Y009181D03*
X006306Y007181D03*
X007806Y006181D03*
X008306Y004181D03*
X006306Y004181D03*
X003681Y006181D03*
X010681Y008681D03*
X012681Y008681D03*
X014681Y008681D03*
X016681Y008681D03*
X018681Y008681D03*
X020681Y008681D03*
X022681Y008681D03*
X024681Y008681D03*
X023806Y007056D03*
X026806Y007056D03*
X026681Y005181D03*
X023681Y005181D03*
X022556Y005306D03*
X022556Y004306D03*
X022556Y003306D03*
X022556Y002306D03*
X019556Y002306D03*
X019556Y003306D03*
X018556Y003056D03*
X019556Y004306D03*
X018556Y004681D03*
X018556Y006306D03*
X015556Y006306D03*
X015556Y004681D03*
X015556Y003056D03*
X028181Y001931D03*
X039181Y002681D03*
X039181Y005681D03*
X039181Y008681D03*
X041181Y008681D03*
X044993Y008465D03*
X046993Y008465D03*
X049493Y009465D03*
X049493Y010465D03*
X046993Y011465D03*
X044993Y011465D03*
X044993Y013465D03*
X041681Y013681D03*
X041181Y011681D03*
X039181Y011681D03*
X037181Y011681D03*
X035181Y011681D03*
X035181Y013681D03*
X037181Y013681D03*
X035181Y014681D03*
X037181Y016681D03*
X036660Y018046D03*
X038160Y018046D03*
X039660Y018046D03*
X041681Y016181D03*
X044993Y016465D03*
X045932Y018686D03*
X045932Y019686D03*
X042932Y019686D03*
X042932Y018686D03*
X039660Y021046D03*
X038160Y021046D03*
X036660Y021046D03*
X031078Y020830D03*
X031078Y017830D03*
X025284Y018821D03*
X025284Y019821D03*
X023284Y020321D03*
X023284Y017321D03*
X021681Y016181D03*
X019681Y016181D03*
X017681Y016181D03*
X015681Y016181D03*
X017058Y017542D03*
X013681Y016181D03*
X011681Y016181D03*
X010181Y018181D03*
X003681Y017181D03*
X003181Y018681D03*
X011681Y013181D03*
X013681Y013181D03*
X015681Y013181D03*
X017681Y013181D03*
X019681Y013181D03*
X021681Y013181D03*
X024181Y014181D03*
X024681Y011681D03*
X022681Y011681D03*
X020681Y011681D03*
X018681Y011681D03*
X016681Y011681D03*
X014681Y011681D03*
X012681Y011681D03*
X010681Y011681D03*
X017058Y020542D03*
X035181Y008681D03*
X037181Y008681D03*
X045493Y005965D03*
X045493Y004965D03*
X045493Y003465D03*
X045493Y002465D03*
X049993Y001965D03*
X049993Y002965D03*
X049993Y004965D03*
X049993Y005965D03*
X050974Y017970D03*
X050974Y020970D03*
D15*
X007681Y019681D03*
X001681Y012681D03*
X005681Y002556D03*
D16*
X006681Y002556D03*
X001681Y010681D03*
X007681Y017681D03*
D17*
X008543Y023557D03*
X010512Y023557D03*
X012480Y023557D03*
X015412Y023579D03*
X017380Y023579D03*
X019349Y023579D03*
X022347Y023600D03*
X024316Y023600D03*
X026284Y023600D03*
X029266Y023623D03*
X031235Y023623D03*
X033203Y023623D03*
X036168Y023586D03*
X038137Y023586D03*
X040105Y023586D03*
X042997Y023587D03*
X044965Y023587D03*
X046934Y023587D03*
X049846Y023591D03*
X051815Y023591D03*
X053783Y023591D03*
X005630Y023586D03*
X003662Y023586D03*
X001693Y023586D03*
D18*
X018581Y013381D03*
X030021Y009141D03*
M02*
