G75*
G70*
%OFA0B0*%
%FSLAX24Y24*%
%IPPOS*%
%LPD*%
%AMOC8*
5,1,8,0,0,1.08239X$1,22.5*
%
%ADD10C,0.0110*%
%ADD11C,0.0080*%
%ADD12C,0.0060*%
%ADD13C,0.0130*%
%ADD14C,0.0150*%
%ADD15C,0.0100*%
%ADD16C,0.0160*%
%ADD17C,0.0030*%
%ADD18C,0.0050*%
%ADD19R,0.0300X0.4200*%
%ADD20R,0.0200X0.0750*%
%ADD21R,0.0200X0.0300*%
%ADD22R,0.0200X0.0150*%
%ADD23R,0.0200X0.0800*%
%ADD24C,0.0200*%
%ADD25R,0.0150X0.0200*%
%ADD26R,0.0800X0.0200*%
%ADD27C,0.0120*%
%ADD28C,0.0010*%
%ADD29C,0.0020*%
D10*
X008054Y018634D02*
X008152Y018634D01*
X008251Y018733D01*
X008251Y019225D01*
X007857Y019225D02*
X007857Y018929D01*
X007956Y018831D01*
X008251Y018831D01*
X007624Y018831D02*
X007526Y018929D01*
X007526Y019323D01*
X007428Y019225D02*
X007624Y019225D01*
X007096Y019225D02*
X007096Y018831D01*
X006998Y018831D02*
X007195Y018831D01*
X007096Y019225D02*
X006998Y019225D01*
X007096Y019422D02*
X007096Y019520D01*
X006022Y019520D02*
X006022Y019422D01*
X006022Y019225D02*
X005924Y019225D01*
X006022Y019225D02*
X006022Y018831D01*
X005924Y018831D02*
X006120Y018831D01*
X005691Y018831D02*
X005592Y018929D01*
X005592Y019323D01*
X005494Y019225D02*
X005691Y019225D01*
X005163Y019225D02*
X005163Y018831D01*
X005261Y018831D02*
X005064Y018831D01*
X004813Y018929D02*
X004715Y019028D01*
X004518Y019028D01*
X004420Y019126D01*
X004518Y019225D01*
X004813Y019225D01*
X005064Y019225D02*
X005163Y019225D01*
X005163Y019422D02*
X005163Y019520D01*
X004169Y019126D02*
X004169Y018831D01*
X004420Y018831D02*
X004715Y018831D01*
X004813Y018929D01*
X004169Y019126D02*
X004070Y019225D01*
X003775Y019225D01*
X003775Y018831D01*
X003524Y019028D02*
X003131Y019028D01*
X003131Y019126D02*
X003229Y019225D01*
X003426Y019225D01*
X003524Y019126D01*
X003524Y019028D01*
X003426Y018831D02*
X003229Y018831D01*
X003131Y018929D01*
X003131Y019126D01*
X002880Y019028D02*
X002880Y018929D01*
X002781Y018831D01*
X002585Y018831D01*
X002486Y018929D01*
X002585Y019126D02*
X002781Y019126D01*
X002880Y019028D01*
X002880Y019323D02*
X002781Y019422D01*
X002585Y019422D01*
X002486Y019323D01*
X002486Y019225D01*
X002585Y019126D01*
X006353Y019225D02*
X006550Y018831D01*
X006747Y019225D01*
X010986Y019422D02*
X010986Y018831D01*
X011281Y018831D01*
X011380Y018929D01*
X011380Y019323D01*
X011281Y019422D01*
X010986Y019422D01*
X011631Y019126D02*
X011729Y019225D01*
X011926Y019225D01*
X012024Y019126D01*
X012024Y019028D01*
X011631Y019028D01*
X011631Y019126D02*
X011631Y018929D01*
X011729Y018831D01*
X011926Y018831D01*
X012275Y018929D02*
X012275Y019126D01*
X012374Y019225D01*
X012669Y019225D01*
X013018Y019225D02*
X013215Y019225D01*
X013313Y019126D01*
X013313Y018831D01*
X013018Y018831D01*
X012920Y018929D01*
X013018Y019028D01*
X013313Y019028D01*
X013564Y018929D02*
X013564Y019225D01*
X013564Y018929D02*
X013663Y018831D01*
X013958Y018831D01*
X013958Y018733D02*
X013860Y018634D01*
X013761Y018634D01*
X013958Y018733D02*
X013958Y019225D01*
X012669Y018831D02*
X012374Y018831D01*
X012275Y018929D01*
X017986Y018929D02*
X018085Y018831D01*
X018281Y018831D01*
X018380Y018929D01*
X018380Y019028D01*
X018281Y019126D01*
X018085Y019126D01*
X017986Y019225D01*
X017986Y019323D01*
X018085Y019422D01*
X018281Y019422D01*
X018380Y019323D01*
X018631Y019225D02*
X018631Y018929D01*
X018729Y018831D01*
X018828Y018929D01*
X018926Y018831D01*
X019024Y018929D01*
X019024Y019225D01*
X019275Y019126D02*
X019275Y018929D01*
X019374Y018831D01*
X019570Y018831D01*
X019669Y019028D02*
X019275Y019028D01*
X019275Y019126D02*
X019374Y019225D01*
X019570Y019225D01*
X019669Y019126D01*
X019669Y019028D01*
X019920Y019028D02*
X020313Y019028D01*
X020313Y019126D01*
X020215Y019225D01*
X020018Y019225D01*
X019920Y019126D01*
X019920Y018929D01*
X020018Y018831D01*
X020215Y018831D01*
X020564Y018831D02*
X020860Y018831D01*
X020958Y018929D01*
X020958Y019126D01*
X020860Y019225D01*
X020564Y019225D01*
X020564Y018634D01*
X025486Y018831D02*
X025486Y019422D01*
X025781Y019422D01*
X025880Y019323D01*
X025880Y019126D01*
X025781Y019028D01*
X025486Y019028D01*
X025683Y019028D02*
X025880Y018831D01*
X026131Y018929D02*
X026229Y019028D01*
X026524Y019028D01*
X026524Y019126D02*
X026524Y018831D01*
X026229Y018831D01*
X026131Y018929D01*
X026229Y019225D02*
X026426Y019225D01*
X026524Y019126D01*
X026775Y019225D02*
X026972Y019225D01*
X026874Y019323D02*
X026874Y018929D01*
X026972Y018831D01*
X027205Y018929D02*
X027205Y019126D01*
X027303Y019225D01*
X027500Y019225D01*
X027599Y019126D01*
X027599Y019028D01*
X027205Y019028D01*
X027205Y018929D02*
X027303Y018831D01*
X027500Y018831D01*
X032236Y018831D02*
X032236Y019422D01*
X032433Y019225D01*
X032630Y019422D01*
X032630Y018831D01*
X032881Y018929D02*
X032979Y018831D01*
X033176Y018831D01*
X033274Y018929D01*
X033274Y019126D01*
X033176Y019225D01*
X032979Y019225D01*
X032881Y019126D01*
X032881Y018929D01*
X033525Y018929D02*
X033525Y019126D01*
X033624Y019225D01*
X033919Y019225D01*
X033919Y019422D02*
X033919Y018831D01*
X033624Y018831D01*
X033525Y018929D01*
X034170Y018929D02*
X034170Y019126D01*
X034268Y019225D01*
X034465Y019225D01*
X034563Y019126D01*
X034563Y019028D01*
X034170Y019028D01*
X034170Y018929D02*
X034268Y018831D01*
X034465Y018831D01*
X039736Y019028D02*
X039933Y018831D01*
X040130Y019028D01*
X040130Y019422D01*
X040381Y019323D02*
X040381Y018929D01*
X040479Y018831D01*
X040676Y018831D01*
X040774Y018929D01*
X041025Y018929D02*
X041124Y018831D01*
X041320Y018831D01*
X041419Y018929D01*
X041419Y019323D01*
X041320Y019422D01*
X041124Y019422D01*
X041025Y019323D01*
X041025Y018929D01*
X040774Y019323D02*
X040676Y019422D01*
X040479Y019422D01*
X040381Y019323D01*
X039736Y019422D02*
X039736Y019028D01*
X046736Y019028D02*
X047031Y019028D01*
X047130Y019126D01*
X047130Y019323D01*
X047031Y019422D01*
X046736Y019422D01*
X046736Y018831D01*
X047381Y018929D02*
X047479Y019028D01*
X047774Y019028D01*
X047774Y019126D02*
X047774Y018831D01*
X047479Y018831D01*
X047381Y018929D01*
X047479Y019225D02*
X047676Y019225D01*
X047774Y019126D01*
X048025Y019225D02*
X048320Y019225D01*
X048419Y019126D01*
X048419Y018831D01*
X048025Y018831D02*
X048025Y019225D01*
X052986Y019422D02*
X052986Y018831D01*
X053380Y018831D01*
X053631Y018929D02*
X053631Y019126D01*
X053729Y019225D01*
X053926Y019225D01*
X054024Y019126D01*
X054024Y019028D01*
X053631Y019028D01*
X053631Y018929D02*
X053729Y018831D01*
X053926Y018831D01*
X054275Y019225D02*
X054472Y018831D01*
X054669Y019225D01*
X054920Y019126D02*
X054920Y018929D01*
X055018Y018831D01*
X055215Y018831D01*
X055313Y019028D02*
X054920Y019028D01*
X054920Y019126D02*
X055018Y019225D01*
X055215Y019225D01*
X055313Y019126D01*
X055313Y019028D01*
X055564Y018831D02*
X055761Y018831D01*
X055663Y018831D02*
X055663Y019422D01*
X055564Y019422D01*
D11*
X055809Y020276D02*
X055022Y020276D01*
X053841Y020276D02*
X053053Y020276D01*
X051872Y020276D02*
X051085Y020276D01*
X051085Y018189D01*
X057778Y018189D01*
X057778Y020276D01*
X056990Y020276D01*
X050778Y020276D02*
X050778Y018189D01*
X044085Y018189D01*
X044085Y020276D01*
X044872Y020276D01*
X043778Y020276D02*
X042990Y020276D01*
X043778Y020276D02*
X043778Y018189D01*
X037085Y018189D01*
X037085Y020276D01*
X037872Y020276D01*
X036778Y020276D02*
X035990Y020276D01*
X036778Y020276D02*
X036778Y018189D01*
X030085Y018189D01*
X030085Y020276D01*
X030872Y020276D01*
X029778Y020276D02*
X028990Y020276D01*
X029778Y020276D02*
X029778Y018189D01*
X023085Y018189D01*
X023085Y020276D01*
X023872Y020276D01*
X022778Y020276D02*
X021990Y020276D01*
X022778Y020276D02*
X022778Y018189D01*
X016085Y018189D01*
X016085Y020276D01*
X016872Y020276D01*
X015778Y020276D02*
X014990Y020276D01*
X015778Y020276D02*
X015778Y018189D01*
X009085Y018189D01*
X009085Y020276D01*
X009872Y020276D01*
X008778Y020276D02*
X007990Y020276D01*
X008778Y020276D02*
X008778Y018189D01*
X002085Y018189D01*
X002085Y020276D01*
X002872Y020276D01*
X004053Y020276D02*
X004841Y020276D01*
X006022Y020276D02*
X006809Y020276D01*
X011053Y020276D02*
X011841Y020276D01*
X013022Y020276D02*
X013809Y020276D01*
X018053Y020276D02*
X018841Y020276D01*
X020022Y020276D02*
X020809Y020276D01*
X025053Y020276D02*
X025841Y020276D01*
X027022Y020276D02*
X027809Y020276D01*
X032053Y020276D02*
X032841Y020276D01*
X034022Y020276D02*
X034809Y020276D01*
X039053Y020276D02*
X039841Y020276D01*
X041022Y020276D02*
X041809Y020276D01*
X046053Y020276D02*
X046841Y020276D01*
X048022Y020276D02*
X048809Y020276D01*
X049990Y020276D02*
X050778Y020276D01*
X051471Y009736D02*
X051471Y009386D01*
X051541Y009316D01*
X051681Y009316D01*
X051751Y009386D01*
X051751Y009736D01*
X051932Y009596D02*
X052072Y009736D01*
X052072Y009316D01*
X051932Y009316D02*
X052212Y009316D01*
X048860Y004986D02*
X048580Y004986D01*
X048720Y004986D02*
X048720Y004566D01*
X049040Y004636D02*
X049110Y004566D01*
X049250Y004566D01*
X049320Y004636D01*
X049320Y004776D01*
X049250Y004846D01*
X049110Y004846D01*
X049040Y004776D01*
X049040Y004636D01*
X049501Y004566D02*
X049501Y004846D01*
X049711Y004846D01*
X049781Y004776D01*
X049781Y004566D01*
X049961Y004636D02*
X049961Y004776D01*
X050031Y004846D01*
X050171Y004846D01*
X050241Y004776D01*
X050241Y004706D01*
X049961Y004706D01*
X049961Y004636D02*
X050031Y004566D01*
X050171Y004566D01*
X047939Y004706D02*
X047659Y004706D01*
X047659Y004636D02*
X047659Y004776D01*
X047729Y004846D01*
X047869Y004846D01*
X047939Y004776D01*
X047939Y004706D01*
X047869Y004566D02*
X047729Y004566D01*
X047659Y004636D01*
X047479Y004636D02*
X047409Y004566D01*
X047199Y004566D01*
X047269Y004706D02*
X047199Y004776D01*
X047269Y004846D01*
X047479Y004846D01*
X047409Y004706D02*
X047269Y004706D01*
X047409Y004706D02*
X047479Y004636D01*
X047032Y004566D02*
X046892Y004566D01*
X046962Y004566D02*
X046962Y004846D01*
X046892Y004846D01*
X046962Y004986D02*
X046962Y005056D01*
X046712Y004776D02*
X046642Y004846D01*
X046502Y004846D01*
X046432Y004776D01*
X046432Y004636D01*
X046502Y004566D01*
X046642Y004566D01*
X046712Y004636D01*
X046712Y004776D01*
X046251Y004566D02*
X046251Y004986D01*
X045971Y004986D02*
X046251Y004566D01*
X045971Y004566D02*
X045971Y004986D01*
X039212Y004526D02*
X038932Y004526D01*
X039142Y004736D01*
X039142Y004316D01*
X038751Y004386D02*
X038751Y004736D01*
X038471Y004736D02*
X038471Y004386D01*
X038541Y004316D01*
X038681Y004316D01*
X038751Y004386D01*
X026962Y008886D02*
X026892Y008816D01*
X026752Y008816D01*
X026682Y008886D01*
X026501Y008886D02*
X026501Y009236D01*
X026682Y009166D02*
X026752Y009236D01*
X026892Y009236D01*
X026962Y009166D01*
X026962Y009096D01*
X026892Y009026D01*
X026962Y008956D01*
X026962Y008886D01*
X026892Y009026D02*
X026822Y009026D01*
X026501Y008886D02*
X026431Y008816D01*
X026291Y008816D01*
X026221Y008886D01*
X026221Y009236D01*
X020241Y015041D02*
X019821Y015041D01*
X019821Y015251D01*
X019891Y015321D01*
X020171Y015321D01*
X020241Y015251D01*
X020241Y015041D01*
X020241Y015501D02*
X019961Y015782D01*
X019891Y015782D01*
X019821Y015712D01*
X019821Y015571D01*
X019891Y015501D01*
X020241Y015501D02*
X020241Y015782D01*
X013366Y015116D02*
X013086Y015116D01*
X013226Y015116D02*
X013226Y015536D01*
X013086Y015396D01*
X012906Y015466D02*
X012906Y015186D01*
X012836Y015116D01*
X012625Y015116D01*
X012625Y015536D01*
X012836Y015536D01*
X012906Y015466D01*
X002141Y011284D02*
X001791Y011284D01*
X001721Y011354D01*
X001931Y011354D02*
X001931Y011214D01*
X001931Y011048D02*
X001931Y010907D01*
X001791Y010978D02*
X002141Y010978D01*
X002071Y010727D02*
X001791Y010727D01*
X001721Y010657D01*
X001721Y010517D01*
X001791Y010447D01*
X002071Y010447D01*
X002141Y010517D01*
X002141Y010657D01*
X002071Y010727D01*
X001791Y010978D02*
X001721Y011048D01*
X001721Y010267D02*
X002141Y009987D01*
X002141Y009807D02*
X001931Y009807D01*
X001861Y009737D01*
X001861Y009526D01*
X002141Y009526D01*
X002071Y009346D02*
X001791Y009346D01*
X001721Y009276D01*
X001721Y009136D01*
X001791Y009066D01*
X002071Y009066D01*
X002141Y009136D01*
X002141Y009276D01*
X002071Y009346D01*
X006546Y005261D02*
X006546Y004911D01*
X006616Y004841D01*
X006756Y004841D01*
X006826Y004911D01*
X006826Y005261D01*
X007007Y005261D02*
X007007Y005051D01*
X007147Y005121D01*
X007217Y005121D01*
X007287Y005051D01*
X007287Y004911D01*
X007217Y004841D01*
X007077Y004841D01*
X007007Y004911D01*
X007007Y005261D02*
X007287Y005261D01*
X010971Y002947D02*
X011041Y003017D01*
X011321Y003017D01*
X011391Y002947D01*
X011391Y002737D01*
X010971Y002737D01*
X010971Y002947D01*
X010971Y002557D02*
X010971Y002276D01*
X011391Y002276D01*
X011391Y002557D01*
X011181Y002417D02*
X011181Y002276D01*
X011391Y002096D02*
X011391Y001816D01*
X010971Y001816D01*
X012306Y003276D02*
X013806Y003276D01*
X013462Y008816D02*
X013182Y008816D01*
X013462Y009096D01*
X013462Y009166D01*
X013392Y009236D01*
X013252Y009236D01*
X013182Y009166D01*
X013001Y009236D02*
X013001Y008886D01*
X012931Y008816D01*
X012791Y008816D01*
X012721Y008886D01*
X012721Y009236D01*
D12*
X010631Y008176D02*
X010631Y010876D01*
X010629Y010893D01*
X010625Y010910D01*
X010618Y010926D01*
X010608Y010940D01*
X010595Y010953D01*
X010581Y010963D01*
X010565Y010970D01*
X010548Y010974D01*
X010531Y010976D01*
X009331Y010976D01*
X009314Y010974D01*
X009297Y010970D01*
X009281Y010963D01*
X009267Y010953D01*
X009254Y010940D01*
X009244Y010926D01*
X009237Y010910D01*
X009233Y010893D01*
X009231Y010876D01*
X009231Y008176D01*
X009233Y008159D01*
X009237Y008142D01*
X009244Y008126D01*
X009254Y008112D01*
X009267Y008099D01*
X009281Y008089D01*
X009297Y008082D01*
X009314Y008078D01*
X009331Y008076D01*
X010531Y008076D01*
X010548Y008078D01*
X010565Y008082D01*
X010581Y008089D01*
X010595Y008099D01*
X010608Y008112D01*
X010618Y008126D01*
X010625Y008142D01*
X010629Y008159D01*
X010631Y008176D01*
X010127Y007721D02*
X009980Y007721D01*
X009907Y007648D01*
X009907Y007575D01*
X009980Y007501D01*
X010200Y007501D01*
X010200Y007354D02*
X010200Y007648D01*
X010127Y007721D01*
X010200Y007354D02*
X010127Y007281D01*
X009980Y007281D01*
X009907Y007354D01*
X009740Y007281D02*
X009447Y007281D01*
X009593Y007281D02*
X009593Y007721D01*
X009447Y007575D01*
X009280Y007648D02*
X009206Y007721D01*
X009060Y007721D01*
X008986Y007648D01*
X008986Y007354D01*
X009060Y007281D01*
X009206Y007281D01*
X009280Y007354D01*
X010096Y006606D02*
X010096Y006346D01*
X010216Y006476D02*
X009966Y006476D01*
X008572Y006026D02*
X008574Y006088D01*
X008580Y006151D01*
X008590Y006212D01*
X008604Y006273D01*
X008621Y006333D01*
X008642Y006392D01*
X008668Y006449D01*
X008696Y006504D01*
X008728Y006558D01*
X008764Y006609D01*
X008802Y006659D01*
X008844Y006705D01*
X008888Y006749D01*
X008936Y006790D01*
X008985Y006828D01*
X009037Y006862D01*
X009091Y006893D01*
X009147Y006921D01*
X009205Y006945D01*
X009264Y006966D01*
X009324Y006982D01*
X009385Y006995D01*
X009447Y007004D01*
X009509Y007009D01*
X009572Y007010D01*
X009634Y007007D01*
X009696Y007000D01*
X009758Y006989D01*
X009818Y006974D01*
X009878Y006956D01*
X009936Y006934D01*
X009993Y006908D01*
X010048Y006878D01*
X010101Y006845D01*
X010152Y006809D01*
X010200Y006770D01*
X010246Y006727D01*
X010289Y006682D01*
X010329Y006634D01*
X010366Y006584D01*
X010400Y006531D01*
X010431Y006477D01*
X010457Y006421D01*
X010481Y006363D01*
X010500Y006303D01*
X010516Y006243D01*
X010528Y006181D01*
X010536Y006120D01*
X010540Y006057D01*
X010540Y005995D01*
X010536Y005932D01*
X010528Y005871D01*
X010516Y005809D01*
X010500Y005749D01*
X010481Y005689D01*
X010457Y005631D01*
X010431Y005575D01*
X010400Y005521D01*
X010366Y005468D01*
X010329Y005418D01*
X010289Y005370D01*
X010246Y005325D01*
X010200Y005282D01*
X010152Y005243D01*
X010101Y005207D01*
X010048Y005174D01*
X009993Y005144D01*
X009936Y005118D01*
X009878Y005096D01*
X009818Y005078D01*
X009758Y005063D01*
X009696Y005052D01*
X009634Y005045D01*
X009572Y005042D01*
X009509Y005043D01*
X009447Y005048D01*
X009385Y005057D01*
X009324Y005070D01*
X009264Y005086D01*
X009205Y005107D01*
X009147Y005131D01*
X009091Y005159D01*
X009037Y005190D01*
X008985Y005224D01*
X008936Y005262D01*
X008888Y005303D01*
X008844Y005347D01*
X008802Y005393D01*
X008764Y005443D01*
X008728Y005494D01*
X008696Y005548D01*
X008668Y005603D01*
X008642Y005660D01*
X008621Y005719D01*
X008604Y005779D01*
X008590Y005840D01*
X008580Y005901D01*
X008574Y005964D01*
X008572Y006026D01*
X011781Y005526D02*
X014081Y005526D01*
X014081Y012526D01*
X013331Y012526D01*
X013329Y012487D01*
X013323Y012448D01*
X013314Y012410D01*
X013301Y012373D01*
X013284Y012337D01*
X013264Y012304D01*
X013240Y012272D01*
X013214Y012243D01*
X013185Y012217D01*
X013153Y012193D01*
X013120Y012173D01*
X013084Y012156D01*
X013047Y012143D01*
X013009Y012134D01*
X012970Y012128D01*
X012931Y012126D01*
X012892Y012128D01*
X012853Y012134D01*
X012815Y012143D01*
X012778Y012156D01*
X012742Y012173D01*
X012709Y012193D01*
X012677Y012217D01*
X012648Y012243D01*
X012622Y012272D01*
X012598Y012304D01*
X012578Y012337D01*
X012561Y012373D01*
X012548Y012410D01*
X012539Y012448D01*
X012533Y012487D01*
X012531Y012526D01*
X011781Y012526D01*
X011781Y005526D01*
X011925Y004801D02*
X012325Y004801D01*
X012375Y004751D01*
X013487Y004751D01*
X013537Y004801D01*
X013937Y004801D01*
X013954Y004799D01*
X013971Y004795D01*
X013987Y004788D01*
X014001Y004778D01*
X014014Y004765D01*
X014024Y004751D01*
X014031Y004735D01*
X014035Y004718D01*
X014037Y004701D01*
X014037Y004101D01*
X014035Y004084D01*
X014031Y004067D01*
X014024Y004051D01*
X014014Y004037D01*
X014001Y004024D01*
X013987Y004014D01*
X013971Y004007D01*
X013954Y004003D01*
X013937Y004001D01*
X013537Y004001D01*
X013487Y004051D01*
X012375Y004051D01*
X012325Y004001D01*
X011925Y004001D01*
X011908Y004003D01*
X011891Y004007D01*
X011875Y004014D01*
X011861Y004024D01*
X011848Y004037D01*
X011838Y004051D01*
X011831Y004067D01*
X011827Y004084D01*
X011825Y004101D01*
X011825Y004701D01*
X011827Y004718D01*
X011831Y004735D01*
X011838Y004751D01*
X011848Y004765D01*
X011861Y004778D01*
X011875Y004788D01*
X011891Y004795D01*
X011908Y004799D01*
X011925Y004801D01*
X012540Y004621D02*
X012761Y004621D01*
X012834Y004548D01*
X012834Y004401D01*
X012761Y004328D01*
X012540Y004328D01*
X012540Y004181D02*
X012540Y004621D01*
X013001Y004548D02*
X013074Y004621D01*
X013221Y004621D01*
X013294Y004548D01*
X013001Y004254D01*
X013074Y004181D01*
X013221Y004181D01*
X013294Y004254D01*
X013294Y004548D01*
X013001Y004548D02*
X013001Y004254D01*
X012834Y004181D02*
X012687Y004328D01*
X015531Y005020D02*
X015531Y005420D01*
X015581Y005470D01*
X015581Y006582D01*
X015531Y006632D01*
X015531Y007032D01*
X015533Y007049D01*
X015537Y007066D01*
X015544Y007082D01*
X015554Y007096D01*
X015567Y007109D01*
X015581Y007119D01*
X015597Y007126D01*
X015614Y007130D01*
X015631Y007132D01*
X016231Y007132D01*
X016248Y007130D01*
X016265Y007126D01*
X016281Y007119D01*
X016295Y007109D01*
X016308Y007096D01*
X016318Y007082D01*
X016325Y007066D01*
X016329Y007049D01*
X016331Y007032D01*
X016331Y006632D01*
X016281Y006582D01*
X016281Y005470D01*
X016331Y005420D01*
X016331Y005020D01*
X016329Y005003D01*
X016325Y004986D01*
X016318Y004970D01*
X016308Y004956D01*
X016295Y004943D01*
X016281Y004933D01*
X016265Y004926D01*
X016248Y004922D01*
X016231Y004920D01*
X015631Y004920D01*
X015614Y004922D01*
X015597Y004926D01*
X015581Y004933D01*
X015567Y004943D01*
X015554Y004956D01*
X015544Y004970D01*
X015537Y004986D01*
X015533Y005003D01*
X015531Y005020D01*
X015711Y005556D02*
X015711Y005776D01*
X015784Y005850D01*
X015931Y005850D01*
X016004Y005776D01*
X016004Y005556D01*
X016004Y005703D02*
X016151Y005850D01*
X016078Y006016D02*
X016151Y006090D01*
X016151Y006237D01*
X016078Y006310D01*
X016004Y006310D01*
X015931Y006237D01*
X015931Y006016D01*
X016078Y006016D01*
X015931Y006016D02*
X015784Y006163D01*
X015711Y006310D01*
X016781Y006632D02*
X016831Y006582D01*
X016831Y005470D01*
X016781Y005420D01*
X016781Y005020D01*
X016783Y005003D01*
X016787Y004986D01*
X016794Y004970D01*
X016804Y004956D01*
X016817Y004943D01*
X016831Y004933D01*
X016847Y004926D01*
X016864Y004922D01*
X016881Y004920D01*
X017481Y004920D01*
X017498Y004922D01*
X017515Y004926D01*
X017531Y004933D01*
X017545Y004943D01*
X017558Y004956D01*
X017568Y004970D01*
X017575Y004986D01*
X017579Y005003D01*
X017581Y005020D01*
X017581Y005420D01*
X017531Y005470D01*
X017531Y006582D01*
X017581Y006632D01*
X017581Y007032D01*
X017579Y007049D01*
X017575Y007066D01*
X017568Y007082D01*
X017558Y007096D01*
X017545Y007109D01*
X017531Y007119D01*
X017515Y007126D01*
X017498Y007130D01*
X017481Y007132D01*
X016881Y007132D01*
X016864Y007130D01*
X016847Y007126D01*
X016831Y007119D01*
X016817Y007109D01*
X016804Y007096D01*
X016794Y007082D01*
X016787Y007066D01*
X016783Y007049D01*
X016781Y007032D01*
X016781Y006632D01*
X016961Y006389D02*
X017034Y006389D01*
X017328Y006096D01*
X017401Y006096D01*
X017401Y005929D02*
X017254Y005782D01*
X017254Y005855D02*
X017254Y005635D01*
X017401Y005635D02*
X016961Y005635D01*
X016961Y005855D01*
X017034Y005929D01*
X017181Y005929D01*
X017254Y005855D01*
X016961Y006096D02*
X016961Y006389D01*
X018031Y006632D02*
X018031Y007032D01*
X018033Y007049D01*
X018037Y007066D01*
X018044Y007082D01*
X018054Y007096D01*
X018067Y007109D01*
X018081Y007119D01*
X018097Y007126D01*
X018114Y007130D01*
X018131Y007132D01*
X018731Y007132D01*
X018748Y007130D01*
X018765Y007126D01*
X018781Y007119D01*
X018795Y007109D01*
X018808Y007096D01*
X018818Y007082D01*
X018825Y007066D01*
X018829Y007049D01*
X018831Y007032D01*
X018831Y006632D01*
X018781Y006582D01*
X018781Y005470D01*
X018831Y005420D01*
X018831Y005020D01*
X018829Y005003D01*
X018825Y004986D01*
X018818Y004970D01*
X018808Y004956D01*
X018795Y004943D01*
X018781Y004933D01*
X018765Y004926D01*
X018748Y004922D01*
X018731Y004920D01*
X018131Y004920D01*
X018114Y004922D01*
X018097Y004926D01*
X018081Y004933D01*
X018067Y004943D01*
X018054Y004956D01*
X018044Y004970D01*
X018037Y004986D01*
X018033Y005003D01*
X018031Y005020D01*
X018031Y005420D01*
X018081Y005470D01*
X018081Y006582D01*
X018031Y006632D01*
X018211Y006522D02*
X018211Y006375D01*
X018284Y006302D01*
X018578Y006302D01*
X018284Y006595D01*
X018578Y006595D01*
X018651Y006522D01*
X018651Y006375D01*
X018578Y006302D01*
X018431Y006135D02*
X018431Y005841D01*
X018211Y006062D01*
X018651Y006062D01*
X019461Y006163D02*
X019901Y006163D01*
X019901Y006016D02*
X019901Y006310D01*
X019828Y006477D02*
X019901Y006550D01*
X019901Y006697D01*
X019828Y006770D01*
X019754Y006770D01*
X019681Y006697D01*
X019681Y006624D01*
X019681Y006697D02*
X019608Y006770D01*
X019534Y006770D01*
X019461Y006697D01*
X019461Y006550D01*
X019534Y006477D01*
X019331Y006582D02*
X019331Y005470D01*
X019281Y005420D01*
X019281Y005020D01*
X019283Y005003D01*
X019287Y004986D01*
X019294Y004970D01*
X019304Y004956D01*
X019317Y004943D01*
X019331Y004933D01*
X019347Y004926D01*
X019364Y004922D01*
X019381Y004920D01*
X019981Y004920D01*
X019998Y004922D01*
X020015Y004926D01*
X020031Y004933D01*
X020045Y004943D01*
X020058Y004956D01*
X020068Y004970D01*
X020075Y004986D01*
X020079Y005003D01*
X020081Y005020D01*
X020081Y005420D01*
X020031Y005470D01*
X020031Y006582D01*
X020081Y006632D01*
X020081Y007032D01*
X020079Y007049D01*
X020075Y007066D01*
X020068Y007082D01*
X020058Y007096D01*
X020045Y007109D01*
X020031Y007119D01*
X020015Y007126D01*
X019998Y007130D01*
X019981Y007132D01*
X019381Y007132D01*
X019364Y007130D01*
X019347Y007126D01*
X019331Y007119D01*
X019317Y007109D01*
X019304Y007096D01*
X019294Y007082D01*
X019287Y007066D01*
X019283Y007049D01*
X019281Y007032D01*
X019281Y006632D01*
X019331Y006582D01*
X019461Y006163D02*
X019608Y006016D01*
X019681Y005850D02*
X019754Y005776D01*
X019754Y005556D01*
X019754Y005703D02*
X019901Y005850D01*
X019681Y005850D02*
X019534Y005850D01*
X019461Y005776D01*
X019461Y005556D01*
X019901Y005556D01*
X020531Y005420D02*
X020581Y005470D01*
X020581Y006582D01*
X020531Y006632D01*
X020531Y007032D01*
X020533Y007049D01*
X020537Y007066D01*
X020544Y007082D01*
X020554Y007096D01*
X020567Y007109D01*
X020581Y007119D01*
X020597Y007126D01*
X020614Y007130D01*
X020631Y007132D01*
X021231Y007132D01*
X021248Y007130D01*
X021265Y007126D01*
X021281Y007119D01*
X021295Y007109D01*
X021308Y007096D01*
X021318Y007082D01*
X021325Y007066D01*
X021329Y007049D01*
X021331Y007032D01*
X021331Y006632D01*
X021281Y006582D01*
X021281Y005470D01*
X021331Y005420D01*
X021331Y005020D01*
X021329Y005003D01*
X021325Y004986D01*
X021318Y004970D01*
X021308Y004956D01*
X021295Y004943D01*
X021281Y004933D01*
X021265Y004926D01*
X021248Y004922D01*
X021231Y004920D01*
X020631Y004920D01*
X020614Y004922D01*
X020597Y004926D01*
X020581Y004933D01*
X020567Y004943D01*
X020554Y004956D01*
X020544Y004970D01*
X020537Y004986D01*
X020533Y005003D01*
X020531Y005020D01*
X020531Y005420D01*
X020711Y005556D02*
X020711Y005776D01*
X020784Y005850D01*
X020931Y005850D01*
X021004Y005776D01*
X021004Y005556D01*
X021004Y005703D02*
X021151Y005850D01*
X021151Y006016D02*
X020858Y006310D01*
X020784Y006310D01*
X020711Y006237D01*
X020711Y006090D01*
X020784Y006016D01*
X021151Y006016D02*
X021151Y006310D01*
X021078Y006477D02*
X021151Y006550D01*
X021151Y006697D01*
X021078Y006770D01*
X021004Y006770D01*
X020931Y006697D01*
X020931Y006624D01*
X020931Y006697D02*
X020858Y006770D01*
X020784Y006770D01*
X020711Y006697D01*
X020711Y006550D01*
X020784Y006477D01*
X021781Y006632D02*
X021781Y007032D01*
X021783Y007049D01*
X021787Y007066D01*
X021794Y007082D01*
X021804Y007096D01*
X021817Y007109D01*
X021831Y007119D01*
X021847Y007126D01*
X021864Y007130D01*
X021881Y007132D01*
X022481Y007132D01*
X022498Y007130D01*
X022515Y007126D01*
X022531Y007119D01*
X022545Y007109D01*
X022558Y007096D01*
X022568Y007082D01*
X022575Y007066D01*
X022579Y007049D01*
X022581Y007032D01*
X022581Y006632D01*
X022531Y006582D01*
X022531Y005470D01*
X022581Y005420D01*
X022581Y005020D01*
X022579Y005003D01*
X022575Y004986D01*
X022568Y004970D01*
X022558Y004956D01*
X022545Y004943D01*
X022531Y004933D01*
X022515Y004926D01*
X022498Y004922D01*
X022481Y004920D01*
X021881Y004920D01*
X021864Y004922D01*
X021847Y004926D01*
X021831Y004933D01*
X021817Y004943D01*
X021804Y004956D01*
X021794Y004970D01*
X021787Y004986D01*
X021783Y005003D01*
X021781Y005020D01*
X021781Y005420D01*
X021831Y005470D01*
X021831Y006582D01*
X021781Y006632D01*
X021961Y006389D02*
X021961Y006096D01*
X022181Y006096D01*
X022108Y006242D01*
X022108Y006316D01*
X022181Y006389D01*
X022328Y006389D01*
X022401Y006316D01*
X022401Y006169D01*
X022328Y006096D01*
X022401Y005929D02*
X022401Y005635D01*
X022401Y005782D02*
X021961Y005782D01*
X022108Y005635D01*
X022181Y005469D02*
X022254Y005395D01*
X022254Y005175D01*
X022254Y005322D02*
X022401Y005469D01*
X022181Y005469D02*
X022034Y005469D01*
X021961Y005395D01*
X021961Y005175D01*
X022401Y005175D01*
X023031Y005020D02*
X023031Y005420D01*
X023081Y005470D01*
X023081Y006582D01*
X023031Y006632D01*
X023031Y007032D01*
X023033Y007049D01*
X023037Y007066D01*
X023044Y007082D01*
X023054Y007096D01*
X023067Y007109D01*
X023081Y007119D01*
X023097Y007126D01*
X023114Y007130D01*
X023131Y007132D01*
X023731Y007132D01*
X023748Y007130D01*
X023765Y007126D01*
X023781Y007119D01*
X023795Y007109D01*
X023808Y007096D01*
X023818Y007082D01*
X023825Y007066D01*
X023829Y007049D01*
X023831Y007032D01*
X023831Y006632D01*
X023781Y006582D01*
X023781Y005470D01*
X023831Y005420D01*
X023831Y005020D01*
X023829Y005003D01*
X023825Y004986D01*
X023818Y004970D01*
X023808Y004956D01*
X023795Y004943D01*
X023781Y004933D01*
X023765Y004926D01*
X023748Y004922D01*
X023731Y004920D01*
X023131Y004920D01*
X023114Y004922D01*
X023097Y004926D01*
X023081Y004933D01*
X023067Y004943D01*
X023054Y004956D01*
X023044Y004970D01*
X023037Y004986D01*
X023033Y005003D01*
X023031Y005020D01*
X023211Y005556D02*
X023211Y005776D01*
X023284Y005850D01*
X023431Y005850D01*
X023504Y005776D01*
X023504Y005556D01*
X023504Y005703D02*
X023651Y005850D01*
X023651Y006016D02*
X023651Y006310D01*
X023651Y006163D02*
X023211Y006163D01*
X023358Y006016D01*
X023431Y006477D02*
X023431Y006697D01*
X023504Y006770D01*
X023578Y006770D01*
X023651Y006697D01*
X023651Y006550D01*
X023578Y006477D01*
X023431Y006477D01*
X023284Y006624D01*
X023211Y006770D01*
X023211Y005556D02*
X023651Y005556D01*
X025531Y005526D02*
X027831Y005526D01*
X027831Y012526D01*
X027081Y012526D01*
X027079Y012487D01*
X027073Y012448D01*
X027064Y012410D01*
X027051Y012373D01*
X027034Y012337D01*
X027014Y012304D01*
X026990Y012272D01*
X026964Y012243D01*
X026935Y012217D01*
X026903Y012193D01*
X026870Y012173D01*
X026834Y012156D01*
X026797Y012143D01*
X026759Y012134D01*
X026720Y012128D01*
X026681Y012126D01*
X026642Y012128D01*
X026603Y012134D01*
X026565Y012143D01*
X026528Y012156D01*
X026492Y012173D01*
X026459Y012193D01*
X026427Y012217D01*
X026398Y012243D01*
X026372Y012272D01*
X026348Y012304D01*
X026328Y012337D01*
X026311Y012373D01*
X026298Y012410D01*
X026289Y012448D01*
X026283Y012487D01*
X026281Y012526D01*
X025531Y012526D01*
X025531Y005526D01*
X025675Y004926D02*
X026075Y004926D01*
X026125Y004876D01*
X027237Y004876D01*
X027287Y004926D01*
X027687Y004926D01*
X027704Y004924D01*
X027721Y004920D01*
X027737Y004913D01*
X027751Y004903D01*
X027764Y004890D01*
X027774Y004876D01*
X027781Y004860D01*
X027785Y004843D01*
X027787Y004826D01*
X027787Y004226D01*
X027785Y004209D01*
X027781Y004192D01*
X027774Y004176D01*
X027764Y004162D01*
X027751Y004149D01*
X027737Y004139D01*
X027721Y004132D01*
X027704Y004128D01*
X027687Y004126D01*
X027287Y004126D01*
X027237Y004176D01*
X026125Y004176D01*
X026075Y004126D01*
X025675Y004126D01*
X025658Y004128D01*
X025641Y004132D01*
X025625Y004139D01*
X025611Y004149D01*
X025598Y004162D01*
X025588Y004176D01*
X025581Y004192D01*
X025577Y004209D01*
X025575Y004226D01*
X025575Y004826D01*
X025577Y004843D01*
X025581Y004860D01*
X025588Y004876D01*
X025598Y004890D01*
X025611Y004903D01*
X025625Y004913D01*
X025641Y004920D01*
X025658Y004924D01*
X025675Y004926D01*
X025830Y004746D02*
X026050Y004746D01*
X026124Y004673D01*
X026124Y004526D01*
X026050Y004453D01*
X025830Y004453D01*
X025977Y004453D02*
X026124Y004306D01*
X026290Y004306D02*
X026584Y004600D01*
X026584Y004673D01*
X026511Y004746D01*
X026364Y004746D01*
X026290Y004673D01*
X025830Y004746D02*
X025830Y004306D01*
X026290Y004306D02*
X026584Y004306D01*
X026751Y004306D02*
X027044Y004306D01*
X026898Y004306D02*
X026898Y004746D01*
X026751Y004600D01*
X026706Y003871D02*
X026780Y003798D01*
X026780Y003504D01*
X026706Y003431D01*
X026560Y003431D01*
X026486Y003504D01*
X026486Y003798D01*
X026560Y003871D01*
X026706Y003871D01*
X026947Y003798D02*
X027020Y003871D01*
X027167Y003871D01*
X027240Y003798D01*
X027240Y003725D01*
X027167Y003651D01*
X027240Y003578D01*
X027240Y003504D01*
X027167Y003431D01*
X027020Y003431D01*
X026947Y003504D01*
X026780Y003431D02*
X026633Y003578D01*
X027093Y003651D02*
X027167Y003651D01*
X027323Y003226D02*
X026039Y003226D01*
X023287Y002826D02*
X023287Y002226D01*
X023285Y002209D01*
X023281Y002192D01*
X023274Y002176D01*
X023264Y002162D01*
X023251Y002149D01*
X023237Y002139D01*
X023221Y002132D01*
X023204Y002128D01*
X023187Y002126D01*
X022787Y002126D01*
X022737Y002176D01*
X021625Y002176D01*
X021575Y002126D01*
X021175Y002126D01*
X021158Y002128D01*
X021141Y002132D01*
X021125Y002139D01*
X021111Y002149D01*
X021098Y002162D01*
X021088Y002176D01*
X021081Y002192D01*
X021077Y002209D01*
X021075Y002226D01*
X021075Y002826D01*
X021077Y002843D01*
X021081Y002860D01*
X021088Y002876D01*
X021098Y002890D01*
X021111Y002903D01*
X021125Y002913D01*
X021141Y002920D01*
X021158Y002924D01*
X021175Y002926D01*
X021575Y002926D01*
X021625Y002876D01*
X022737Y002876D01*
X022787Y002926D01*
X023187Y002926D01*
X023204Y002924D01*
X023221Y002920D01*
X023237Y002913D01*
X023251Y002903D01*
X023264Y002890D01*
X023274Y002876D01*
X023281Y002860D01*
X023285Y002843D01*
X023287Y002826D01*
X022852Y002746D02*
X022632Y002526D01*
X022925Y002526D01*
X022852Y002306D02*
X022852Y002746D01*
X022318Y002746D02*
X022318Y002306D01*
X022172Y002306D02*
X022465Y002306D01*
X022172Y002600D02*
X022318Y002746D01*
X022005Y002673D02*
X022005Y002526D01*
X021931Y002453D01*
X021711Y002453D01*
X021711Y002306D02*
X021711Y002746D01*
X021931Y002746D01*
X022005Y002673D01*
X021858Y002453D02*
X022005Y002306D01*
X018651Y005381D02*
X018211Y005381D01*
X018211Y005601D01*
X018284Y005675D01*
X018431Y005675D01*
X018504Y005601D01*
X018504Y005381D01*
X018504Y005528D02*
X018651Y005675D01*
X020711Y005556D02*
X021151Y005556D01*
X018284Y006595D02*
X018211Y006522D01*
X016151Y005556D02*
X015711Y005556D01*
X012056Y002276D02*
X012058Y002339D01*
X012064Y002401D01*
X012074Y002463D01*
X012087Y002525D01*
X012105Y002585D01*
X012126Y002644D01*
X012151Y002702D01*
X012180Y002758D01*
X012212Y002812D01*
X012247Y002864D01*
X012285Y002913D01*
X012327Y002961D01*
X012371Y003005D01*
X012419Y003047D01*
X012468Y003085D01*
X012520Y003120D01*
X012574Y003152D01*
X012630Y003181D01*
X012688Y003206D01*
X012747Y003227D01*
X012807Y003245D01*
X012869Y003258D01*
X012931Y003268D01*
X012993Y003274D01*
X013056Y003276D01*
X013119Y003274D01*
X013181Y003268D01*
X013243Y003258D01*
X013305Y003245D01*
X013365Y003227D01*
X013424Y003206D01*
X013482Y003181D01*
X013538Y003152D01*
X013592Y003120D01*
X013644Y003085D01*
X013693Y003047D01*
X013741Y003005D01*
X013785Y002961D01*
X013827Y002913D01*
X013865Y002864D01*
X013900Y002812D01*
X013932Y002758D01*
X013961Y002702D01*
X013986Y002644D01*
X014007Y002585D01*
X014025Y002525D01*
X014038Y002463D01*
X014048Y002401D01*
X014054Y002339D01*
X014056Y002276D01*
X014054Y002213D01*
X014048Y002151D01*
X014038Y002089D01*
X014025Y002027D01*
X014007Y001967D01*
X013986Y001908D01*
X013961Y001850D01*
X013932Y001794D01*
X013900Y001740D01*
X013865Y001688D01*
X013827Y001639D01*
X013785Y001591D01*
X013741Y001547D01*
X013693Y001505D01*
X013644Y001467D01*
X013592Y001432D01*
X013538Y001400D01*
X013482Y001371D01*
X013424Y001346D01*
X013365Y001325D01*
X013305Y001307D01*
X013243Y001294D01*
X013181Y001284D01*
X013119Y001278D01*
X013056Y001276D01*
X012993Y001278D01*
X012931Y001284D01*
X012869Y001294D01*
X012807Y001307D01*
X012747Y001325D01*
X012688Y001346D01*
X012630Y001371D01*
X012574Y001400D01*
X012520Y001432D01*
X012468Y001467D01*
X012419Y001505D01*
X012371Y001547D01*
X012327Y001591D01*
X012285Y001639D01*
X012247Y001688D01*
X012212Y001740D01*
X012180Y001794D01*
X012151Y001850D01*
X012126Y001908D01*
X012105Y001967D01*
X012087Y002027D01*
X012074Y002089D01*
X012064Y002151D01*
X012058Y002213D01*
X012056Y002276D01*
X009931Y008926D02*
X009931Y009396D01*
X009931Y009646D02*
X009931Y010126D01*
X008926Y010172D02*
X008486Y010172D01*
X008706Y009952D01*
X008706Y010245D01*
X008401Y010329D02*
X008401Y010476D01*
X008328Y010550D01*
X008401Y010716D02*
X008108Y011010D01*
X008034Y011010D01*
X007961Y010937D01*
X007961Y010790D01*
X008034Y010716D01*
X008034Y010550D02*
X007961Y010476D01*
X007961Y010329D01*
X008034Y010256D01*
X008328Y010256D01*
X008401Y010329D01*
X008401Y010716D02*
X008401Y011010D01*
X008328Y011177D02*
X008034Y011470D01*
X008328Y011470D01*
X008401Y011397D01*
X008401Y011250D01*
X008328Y011177D01*
X008034Y011177D01*
X007961Y011250D01*
X007961Y011397D01*
X008034Y011470D01*
X007491Y011401D02*
X007241Y011401D01*
X007371Y011271D02*
X007371Y011531D01*
X005847Y010951D02*
X005849Y011013D01*
X005855Y011076D01*
X005865Y011137D01*
X005879Y011198D01*
X005896Y011258D01*
X005917Y011317D01*
X005943Y011374D01*
X005971Y011429D01*
X006003Y011483D01*
X006039Y011534D01*
X006077Y011584D01*
X006119Y011630D01*
X006163Y011674D01*
X006211Y011715D01*
X006260Y011753D01*
X006312Y011787D01*
X006366Y011818D01*
X006422Y011846D01*
X006480Y011870D01*
X006539Y011891D01*
X006599Y011907D01*
X006660Y011920D01*
X006722Y011929D01*
X006784Y011934D01*
X006847Y011935D01*
X006909Y011932D01*
X006971Y011925D01*
X007033Y011914D01*
X007093Y011899D01*
X007153Y011881D01*
X007211Y011859D01*
X007268Y011833D01*
X007323Y011803D01*
X007376Y011770D01*
X007427Y011734D01*
X007475Y011695D01*
X007521Y011652D01*
X007564Y011607D01*
X007604Y011559D01*
X007641Y011509D01*
X007675Y011456D01*
X007706Y011402D01*
X007732Y011346D01*
X007756Y011288D01*
X007775Y011228D01*
X007791Y011168D01*
X007803Y011106D01*
X007811Y011045D01*
X007815Y010982D01*
X007815Y010920D01*
X007811Y010857D01*
X007803Y010796D01*
X007791Y010734D01*
X007775Y010674D01*
X007756Y010614D01*
X007732Y010556D01*
X007706Y010500D01*
X007675Y010446D01*
X007641Y010393D01*
X007604Y010343D01*
X007564Y010295D01*
X007521Y010250D01*
X007475Y010207D01*
X007427Y010168D01*
X007376Y010132D01*
X007323Y010099D01*
X007268Y010069D01*
X007211Y010043D01*
X007153Y010021D01*
X007093Y010003D01*
X007033Y009988D01*
X006971Y009977D01*
X006909Y009970D01*
X006847Y009967D01*
X006784Y009968D01*
X006722Y009973D01*
X006660Y009982D01*
X006599Y009995D01*
X006539Y010011D01*
X006480Y010032D01*
X006422Y010056D01*
X006366Y010084D01*
X006312Y010115D01*
X006260Y010149D01*
X006211Y010187D01*
X006163Y010228D01*
X006119Y010272D01*
X006077Y010318D01*
X006039Y010368D01*
X006003Y010419D01*
X005971Y010473D01*
X005943Y010528D01*
X005917Y010585D01*
X005896Y010644D01*
X005879Y010704D01*
X005865Y010765D01*
X005855Y010826D01*
X005849Y010889D01*
X005847Y010951D01*
X008486Y009638D02*
X008926Y009638D01*
X008926Y009491D02*
X008926Y009785D01*
X008633Y009491D02*
X008486Y009638D01*
X008559Y009325D02*
X008486Y009251D01*
X008486Y009104D01*
X008559Y009031D01*
X008853Y009031D01*
X008926Y009104D01*
X008926Y009251D01*
X008853Y009325D01*
X015531Y010020D02*
X015531Y010420D01*
X015581Y010470D01*
X015581Y011582D01*
X015531Y011632D01*
X015531Y012032D01*
X015533Y012049D01*
X015537Y012066D01*
X015544Y012082D01*
X015554Y012096D01*
X015567Y012109D01*
X015581Y012119D01*
X015597Y012126D01*
X015614Y012130D01*
X015631Y012132D01*
X016231Y012132D01*
X016248Y012130D01*
X016265Y012126D01*
X016281Y012119D01*
X016295Y012109D01*
X016308Y012096D01*
X016318Y012082D01*
X016325Y012066D01*
X016329Y012049D01*
X016331Y012032D01*
X016331Y011632D01*
X016281Y011582D01*
X016281Y010470D01*
X016331Y010420D01*
X016331Y010020D01*
X016329Y010003D01*
X016325Y009986D01*
X016318Y009970D01*
X016308Y009956D01*
X016295Y009943D01*
X016281Y009933D01*
X016265Y009926D01*
X016248Y009922D01*
X016231Y009920D01*
X015631Y009920D01*
X015614Y009922D01*
X015597Y009926D01*
X015581Y009933D01*
X015567Y009943D01*
X015554Y009956D01*
X015544Y009970D01*
X015537Y009986D01*
X015533Y010003D01*
X015531Y010020D01*
X015711Y010556D02*
X015711Y010776D01*
X015784Y010850D01*
X015931Y010850D01*
X016004Y010776D01*
X016004Y010556D01*
X016004Y010703D02*
X016151Y010850D01*
X016078Y011016D02*
X016151Y011090D01*
X016151Y011237D01*
X016078Y011310D01*
X015931Y011310D01*
X015858Y011237D01*
X015858Y011163D01*
X015931Y011016D01*
X015711Y011016D01*
X015711Y011310D01*
X016781Y011632D02*
X016831Y011582D01*
X016831Y010470D01*
X016781Y010420D01*
X016781Y010020D01*
X016783Y010003D01*
X016787Y009986D01*
X016794Y009970D01*
X016804Y009956D01*
X016817Y009943D01*
X016831Y009933D01*
X016847Y009926D01*
X016864Y009922D01*
X016881Y009920D01*
X017481Y009920D01*
X017498Y009922D01*
X017515Y009926D01*
X017531Y009933D01*
X017545Y009943D01*
X017558Y009956D01*
X017568Y009970D01*
X017575Y009986D01*
X017579Y010003D01*
X017581Y010020D01*
X017581Y010420D01*
X017531Y010470D01*
X017531Y011582D01*
X017581Y011632D01*
X017581Y012032D01*
X017579Y012049D01*
X017575Y012066D01*
X017568Y012082D01*
X017558Y012096D01*
X017545Y012109D01*
X017531Y012119D01*
X017515Y012126D01*
X017498Y012130D01*
X017481Y012132D01*
X016881Y012132D01*
X016864Y012130D01*
X016847Y012126D01*
X016831Y012119D01*
X016817Y012109D01*
X016804Y012096D01*
X016794Y012082D01*
X016787Y012066D01*
X016783Y012049D01*
X016781Y012032D01*
X016781Y011632D01*
X016961Y011389D02*
X017034Y011242D01*
X017181Y011096D01*
X017181Y011316D01*
X017254Y011389D01*
X017328Y011389D01*
X017401Y011316D01*
X017401Y011169D01*
X017328Y011096D01*
X017181Y011096D01*
X017108Y010929D02*
X017034Y010929D01*
X016961Y010855D01*
X016961Y010709D01*
X017034Y010635D01*
X017034Y010469D02*
X017181Y010469D01*
X017254Y010395D01*
X017254Y010175D01*
X017254Y010322D02*
X017401Y010469D01*
X017401Y010635D02*
X017108Y010929D01*
X017401Y010929D02*
X017401Y010635D01*
X017034Y010469D02*
X016961Y010395D01*
X016961Y010175D01*
X017401Y010175D01*
X018031Y010020D02*
X018031Y010420D01*
X018081Y010470D01*
X018081Y011582D01*
X018031Y011632D01*
X018031Y012032D01*
X018033Y012049D01*
X018037Y012066D01*
X018044Y012082D01*
X018054Y012096D01*
X018067Y012109D01*
X018081Y012119D01*
X018097Y012126D01*
X018114Y012130D01*
X018131Y012132D01*
X018731Y012132D01*
X018748Y012130D01*
X018765Y012126D01*
X018781Y012119D01*
X018795Y012109D01*
X018808Y012096D01*
X018818Y012082D01*
X018825Y012066D01*
X018829Y012049D01*
X018831Y012032D01*
X018831Y011632D01*
X018781Y011582D01*
X018781Y010470D01*
X018831Y010420D01*
X018831Y010020D01*
X018829Y010003D01*
X018825Y009986D01*
X018818Y009970D01*
X018808Y009956D01*
X018795Y009943D01*
X018781Y009933D01*
X018765Y009926D01*
X018748Y009922D01*
X018731Y009920D01*
X018131Y009920D01*
X018114Y009922D01*
X018097Y009926D01*
X018081Y009933D01*
X018067Y009943D01*
X018054Y009956D01*
X018044Y009970D01*
X018037Y009986D01*
X018033Y010003D01*
X018031Y010020D01*
X018211Y010556D02*
X018211Y010776D01*
X018284Y010850D01*
X018431Y010850D01*
X018504Y010776D01*
X018504Y010556D01*
X018504Y010703D02*
X018651Y010850D01*
X018651Y011016D02*
X018358Y011310D01*
X018284Y011310D01*
X018211Y011237D01*
X018211Y011090D01*
X018284Y011016D01*
X018651Y011016D02*
X018651Y011310D01*
X018578Y011477D02*
X018651Y011550D01*
X018651Y011697D01*
X018578Y011770D01*
X018431Y011770D01*
X018358Y011697D01*
X018358Y011624D01*
X018431Y011477D01*
X018211Y011477D01*
X018211Y011770D01*
X019281Y011632D02*
X019331Y011582D01*
X019331Y010470D01*
X019281Y010420D01*
X019281Y010020D01*
X019283Y010003D01*
X019287Y009986D01*
X019294Y009970D01*
X019304Y009956D01*
X019317Y009943D01*
X019331Y009933D01*
X019347Y009926D01*
X019364Y009922D01*
X019381Y009920D01*
X019981Y009920D01*
X019998Y009922D01*
X020015Y009926D01*
X020031Y009933D01*
X020045Y009943D01*
X020058Y009956D01*
X020068Y009970D01*
X020075Y009986D01*
X020079Y010003D01*
X020081Y010020D01*
X020081Y010420D01*
X020031Y010470D01*
X020031Y011582D01*
X020081Y011632D01*
X020081Y012032D01*
X020079Y012049D01*
X020075Y012066D01*
X020068Y012082D01*
X020058Y012096D01*
X020045Y012109D01*
X020031Y012119D01*
X020015Y012126D01*
X019998Y012130D01*
X019981Y012132D01*
X019381Y012132D01*
X019364Y012130D01*
X019347Y012126D01*
X019331Y012119D01*
X019317Y012109D01*
X019304Y012096D01*
X019294Y012082D01*
X019287Y012066D01*
X019283Y012049D01*
X019281Y012032D01*
X019281Y011632D01*
X019461Y011316D02*
X019681Y011096D01*
X019681Y011389D01*
X019901Y011316D02*
X019461Y011316D01*
X019534Y010929D02*
X019681Y010929D01*
X019754Y010855D01*
X019754Y010635D01*
X019754Y010782D02*
X019901Y010929D01*
X019901Y010635D02*
X019461Y010635D01*
X019461Y010855D01*
X019534Y010929D01*
X018651Y010556D02*
X018211Y010556D01*
X016151Y010556D02*
X015711Y010556D01*
X020531Y010420D02*
X020531Y010020D01*
X020533Y010003D01*
X020537Y009986D01*
X020544Y009970D01*
X020554Y009956D01*
X020567Y009943D01*
X020581Y009933D01*
X020597Y009926D01*
X020614Y009922D01*
X020631Y009920D01*
X021231Y009920D01*
X021248Y009922D01*
X021265Y009926D01*
X021281Y009933D01*
X021295Y009943D01*
X021308Y009956D01*
X021318Y009970D01*
X021325Y009986D01*
X021329Y010003D01*
X021331Y010020D01*
X021331Y010420D01*
X021281Y010470D01*
X021281Y011582D01*
X021331Y011632D01*
X021331Y012032D01*
X021329Y012049D01*
X021325Y012066D01*
X021318Y012082D01*
X021308Y012096D01*
X021295Y012109D01*
X021281Y012119D01*
X021265Y012126D01*
X021248Y012130D01*
X021231Y012132D01*
X020631Y012132D01*
X020614Y012130D01*
X020597Y012126D01*
X020581Y012119D01*
X020567Y012109D01*
X020554Y012096D01*
X020544Y012082D01*
X020537Y012066D01*
X020533Y012049D01*
X020531Y012032D01*
X020531Y011632D01*
X020581Y011582D01*
X020581Y010470D01*
X020531Y010420D01*
X020711Y010556D02*
X020711Y010776D01*
X020784Y010850D01*
X020931Y010850D01*
X021004Y010776D01*
X021004Y010556D01*
X021004Y010703D02*
X021151Y010850D01*
X021151Y011016D02*
X020858Y011310D01*
X020784Y011310D01*
X020711Y011237D01*
X020711Y011090D01*
X020784Y011016D01*
X021151Y011016D02*
X021151Y011310D01*
X020931Y011477D02*
X020931Y011770D01*
X020711Y011697D02*
X020931Y011477D01*
X021151Y011697D02*
X020711Y011697D01*
X021781Y011632D02*
X021831Y011582D01*
X021831Y010470D01*
X021781Y010420D01*
X021781Y010020D01*
X021783Y010003D01*
X021787Y009986D01*
X021794Y009970D01*
X021804Y009956D01*
X021817Y009943D01*
X021831Y009933D01*
X021847Y009926D01*
X021864Y009922D01*
X021881Y009920D01*
X022481Y009920D01*
X022498Y009922D01*
X022515Y009926D01*
X022531Y009933D01*
X022545Y009943D01*
X022558Y009956D01*
X022568Y009970D01*
X022575Y009986D01*
X022579Y010003D01*
X022581Y010020D01*
X022581Y010420D01*
X022531Y010470D01*
X022531Y011582D01*
X022581Y011632D01*
X022581Y012032D01*
X022579Y012049D01*
X022575Y012066D01*
X022568Y012082D01*
X022558Y012096D01*
X022545Y012109D01*
X022531Y012119D01*
X022515Y012126D01*
X022498Y012130D01*
X022481Y012132D01*
X021881Y012132D01*
X021864Y012130D01*
X021847Y012126D01*
X021831Y012119D01*
X021817Y012109D01*
X021804Y012096D01*
X021794Y012082D01*
X021787Y012066D01*
X021783Y012049D01*
X021781Y012032D01*
X021781Y011632D01*
X022034Y011389D02*
X022108Y011389D01*
X022181Y011316D01*
X022181Y011169D01*
X022108Y011096D01*
X022034Y011096D01*
X021961Y011169D01*
X021961Y011316D01*
X022034Y011389D01*
X022181Y011316D02*
X022254Y011389D01*
X022328Y011389D01*
X022401Y011316D01*
X022401Y011169D01*
X022328Y011096D01*
X022254Y011096D01*
X022181Y011169D01*
X022181Y010929D02*
X022254Y010855D01*
X022254Y010635D01*
X022254Y010782D02*
X022401Y010929D01*
X022181Y010929D02*
X022034Y010929D01*
X021961Y010855D01*
X021961Y010635D01*
X022401Y010635D01*
X021151Y010556D02*
X020711Y010556D01*
X024586Y012954D02*
X024659Y012881D01*
X024953Y012881D01*
X025026Y012954D01*
X025026Y013101D01*
X024953Y013175D01*
X025026Y013341D02*
X025026Y013635D01*
X025026Y013488D02*
X024586Y013488D01*
X024733Y013341D01*
X024659Y013175D02*
X024586Y013101D01*
X024586Y012954D01*
X025231Y012926D02*
X025231Y014126D01*
X025233Y014143D01*
X025237Y014160D01*
X025244Y014176D01*
X025254Y014190D01*
X025267Y014203D01*
X025281Y014213D01*
X025297Y014220D01*
X025314Y014224D01*
X025331Y014226D01*
X028031Y014226D01*
X028048Y014224D01*
X028065Y014220D01*
X028081Y014213D01*
X028095Y014203D01*
X028108Y014190D01*
X028118Y014176D01*
X028125Y014160D01*
X028129Y014143D01*
X028131Y014126D01*
X028131Y012926D01*
X028129Y012909D01*
X028125Y012892D01*
X028118Y012876D01*
X028108Y012862D01*
X028095Y012849D01*
X028081Y012839D01*
X028065Y012832D01*
X028048Y012828D01*
X028031Y012826D01*
X025331Y012826D01*
X025314Y012828D01*
X025297Y012832D01*
X025281Y012839D01*
X025267Y012849D01*
X025254Y012862D01*
X025244Y012876D01*
X025237Y012892D01*
X025233Y012909D01*
X025231Y012926D01*
X026081Y013526D02*
X026561Y013526D01*
X026811Y013526D02*
X027281Y013526D01*
X027287Y014626D02*
X027687Y014626D01*
X027704Y014628D01*
X027721Y014632D01*
X027737Y014639D01*
X027751Y014649D01*
X027764Y014662D01*
X027774Y014676D01*
X027781Y014692D01*
X027785Y014709D01*
X027787Y014726D01*
X027787Y015326D01*
X027785Y015343D01*
X027781Y015360D01*
X027774Y015376D01*
X027764Y015390D01*
X027751Y015403D01*
X027737Y015413D01*
X027721Y015420D01*
X027704Y015424D01*
X027687Y015426D01*
X027287Y015426D01*
X027237Y015376D01*
X026125Y015376D01*
X026075Y015426D01*
X025675Y015426D01*
X025658Y015424D01*
X025641Y015420D01*
X025625Y015413D01*
X025611Y015403D01*
X025598Y015390D01*
X025588Y015376D01*
X025581Y015360D01*
X025577Y015343D01*
X025575Y015326D01*
X025575Y014726D01*
X025577Y014709D01*
X025581Y014692D01*
X025588Y014676D01*
X025598Y014662D01*
X025611Y014649D01*
X025625Y014639D01*
X025641Y014632D01*
X025658Y014628D01*
X025675Y014626D01*
X026075Y014626D01*
X026125Y014676D01*
X027237Y014676D01*
X027287Y014626D01*
X027132Y014806D02*
X027132Y014879D01*
X027425Y015173D01*
X027425Y015246D01*
X027132Y015246D01*
X026965Y015173D02*
X026892Y015246D01*
X026745Y015246D01*
X026672Y015173D01*
X026505Y015173D02*
X026505Y015026D01*
X026431Y014953D01*
X026211Y014953D01*
X026211Y014806D02*
X026211Y015246D01*
X026431Y015246D01*
X026505Y015173D01*
X026358Y014953D02*
X026505Y014806D01*
X026672Y014806D02*
X026965Y015100D01*
X026965Y015173D01*
X026965Y014806D02*
X026672Y014806D01*
X024953Y013802D02*
X024659Y014095D01*
X024586Y014095D01*
X024586Y013802D01*
X024953Y013802D02*
X025026Y013802D01*
X021322Y015601D02*
X021324Y015663D01*
X021330Y015726D01*
X021340Y015787D01*
X021354Y015848D01*
X021371Y015908D01*
X021392Y015967D01*
X021418Y016024D01*
X021446Y016079D01*
X021478Y016133D01*
X021514Y016184D01*
X021552Y016234D01*
X021594Y016280D01*
X021638Y016324D01*
X021686Y016365D01*
X021735Y016403D01*
X021787Y016437D01*
X021841Y016468D01*
X021897Y016496D01*
X021955Y016520D01*
X022014Y016541D01*
X022074Y016557D01*
X022135Y016570D01*
X022197Y016579D01*
X022259Y016584D01*
X022322Y016585D01*
X022384Y016582D01*
X022446Y016575D01*
X022508Y016564D01*
X022568Y016549D01*
X022628Y016531D01*
X022686Y016509D01*
X022743Y016483D01*
X022798Y016453D01*
X022851Y016420D01*
X022902Y016384D01*
X022950Y016345D01*
X022996Y016302D01*
X023039Y016257D01*
X023079Y016209D01*
X023116Y016159D01*
X023150Y016106D01*
X023181Y016052D01*
X023207Y015996D01*
X023231Y015938D01*
X023250Y015878D01*
X023266Y015818D01*
X023278Y015756D01*
X023286Y015695D01*
X023290Y015632D01*
X023290Y015570D01*
X023286Y015507D01*
X023278Y015446D01*
X023266Y015384D01*
X023250Y015324D01*
X023231Y015264D01*
X023207Y015206D01*
X023181Y015150D01*
X023150Y015096D01*
X023116Y015043D01*
X023079Y014993D01*
X023039Y014945D01*
X022996Y014900D01*
X022950Y014857D01*
X022902Y014818D01*
X022851Y014782D01*
X022798Y014749D01*
X022743Y014719D01*
X022686Y014693D01*
X022628Y014671D01*
X022568Y014653D01*
X022508Y014638D01*
X022446Y014627D01*
X022384Y014620D01*
X022322Y014617D01*
X022259Y014618D01*
X022197Y014623D01*
X022135Y014632D01*
X022074Y014645D01*
X022014Y014661D01*
X021955Y014682D01*
X021897Y014706D01*
X021841Y014734D01*
X021787Y014765D01*
X021735Y014799D01*
X021686Y014837D01*
X021638Y014878D01*
X021594Y014922D01*
X021552Y014968D01*
X021514Y015018D01*
X021478Y015069D01*
X021446Y015123D01*
X021418Y015178D01*
X021392Y015235D01*
X021371Y015294D01*
X021354Y015354D01*
X021340Y015415D01*
X021330Y015476D01*
X021324Y015539D01*
X021322Y015601D01*
X022716Y016051D02*
X022966Y016051D01*
X022846Y015921D02*
X022846Y016181D01*
X022690Y016731D02*
X022397Y016731D01*
X022690Y017025D01*
X022690Y017098D01*
X022617Y017171D01*
X022470Y017171D01*
X022397Y017098D01*
X022230Y017098D02*
X022156Y017171D01*
X022010Y017171D01*
X021936Y017098D01*
X021936Y016804D01*
X022010Y016731D01*
X022156Y016731D01*
X022230Y016804D01*
X020431Y016301D02*
X020431Y014701D01*
X020429Y014684D01*
X020425Y014667D01*
X020418Y014651D01*
X020408Y014637D01*
X020395Y014624D01*
X020381Y014614D01*
X020365Y014607D01*
X020348Y014603D01*
X020331Y014601D01*
X019731Y014601D01*
X019714Y014603D01*
X019697Y014607D01*
X019681Y014614D01*
X019667Y014624D01*
X019654Y014637D01*
X019644Y014651D01*
X019637Y014667D01*
X019633Y014684D01*
X019631Y014701D01*
X019631Y016301D01*
X019633Y016318D01*
X019637Y016335D01*
X019644Y016351D01*
X019654Y016365D01*
X019667Y016378D01*
X019681Y016388D01*
X019697Y016395D01*
X019714Y016399D01*
X019731Y016401D01*
X020331Y016401D01*
X020348Y016399D01*
X020365Y016395D01*
X020381Y016388D01*
X020395Y016378D01*
X020408Y016365D01*
X020418Y016351D01*
X020425Y016335D01*
X020429Y016318D01*
X020431Y016301D01*
X017615Y017256D02*
X017322Y017256D01*
X017468Y017256D02*
X017468Y017696D01*
X017322Y017550D01*
X017155Y017623D02*
X017081Y017696D01*
X016935Y017696D01*
X016861Y017623D01*
X016861Y017329D01*
X016935Y017256D01*
X017081Y017256D01*
X017155Y017329D01*
X016706Y016761D02*
X016706Y016511D01*
X016836Y016641D02*
X016576Y016641D01*
X016172Y016101D02*
X016174Y016163D01*
X016180Y016226D01*
X016190Y016287D01*
X016204Y016348D01*
X016221Y016408D01*
X016242Y016467D01*
X016268Y016524D01*
X016296Y016579D01*
X016328Y016633D01*
X016364Y016684D01*
X016402Y016734D01*
X016444Y016780D01*
X016488Y016824D01*
X016536Y016865D01*
X016585Y016903D01*
X016637Y016937D01*
X016691Y016968D01*
X016747Y016996D01*
X016805Y017020D01*
X016864Y017041D01*
X016924Y017057D01*
X016985Y017070D01*
X017047Y017079D01*
X017109Y017084D01*
X017172Y017085D01*
X017234Y017082D01*
X017296Y017075D01*
X017358Y017064D01*
X017418Y017049D01*
X017478Y017031D01*
X017536Y017009D01*
X017593Y016983D01*
X017648Y016953D01*
X017701Y016920D01*
X017752Y016884D01*
X017800Y016845D01*
X017846Y016802D01*
X017889Y016757D01*
X017929Y016709D01*
X017966Y016659D01*
X018000Y016606D01*
X018031Y016552D01*
X018057Y016496D01*
X018081Y016438D01*
X018100Y016378D01*
X018116Y016318D01*
X018128Y016256D01*
X018136Y016195D01*
X018140Y016132D01*
X018140Y016070D01*
X018136Y016007D01*
X018128Y015946D01*
X018116Y015884D01*
X018100Y015824D01*
X018081Y015764D01*
X018057Y015706D01*
X018031Y015650D01*
X018000Y015596D01*
X017966Y015543D01*
X017929Y015493D01*
X017889Y015445D01*
X017846Y015400D01*
X017800Y015357D01*
X017752Y015318D01*
X017701Y015282D01*
X017648Y015249D01*
X017593Y015219D01*
X017536Y015193D01*
X017478Y015171D01*
X017418Y015153D01*
X017358Y015138D01*
X017296Y015127D01*
X017234Y015120D01*
X017172Y015117D01*
X017109Y015118D01*
X017047Y015123D01*
X016985Y015132D01*
X016924Y015145D01*
X016864Y015161D01*
X016805Y015182D01*
X016747Y015206D01*
X016691Y015234D01*
X016637Y015265D01*
X016585Y015299D01*
X016536Y015337D01*
X016488Y015378D01*
X016444Y015422D01*
X016402Y015468D01*
X016364Y015518D01*
X016328Y015569D01*
X016296Y015623D01*
X016268Y015678D01*
X016242Y015735D01*
X016221Y015794D01*
X016204Y015854D01*
X016190Y015915D01*
X016180Y015976D01*
X016174Y016039D01*
X016172Y016101D01*
X014287Y016151D02*
X014287Y016751D01*
X014285Y016768D01*
X014281Y016785D01*
X014274Y016801D01*
X014264Y016815D01*
X014251Y016828D01*
X014237Y016838D01*
X014221Y016845D01*
X014204Y016849D01*
X014187Y016851D01*
X013787Y016851D01*
X013737Y016801D01*
X012625Y016801D01*
X012575Y016851D01*
X012175Y016851D01*
X012158Y016849D01*
X012141Y016845D01*
X012125Y016838D01*
X012111Y016828D01*
X012098Y016815D01*
X012088Y016801D01*
X012081Y016785D01*
X012077Y016768D01*
X012075Y016751D01*
X012075Y016151D01*
X012077Y016134D01*
X012081Y016117D01*
X012088Y016101D01*
X012098Y016087D01*
X012111Y016074D01*
X012125Y016064D01*
X012141Y016057D01*
X012158Y016053D01*
X012175Y016051D01*
X012575Y016051D01*
X012625Y016101D01*
X013737Y016101D01*
X013787Y016051D01*
X014187Y016051D01*
X014204Y016053D01*
X014221Y016057D01*
X014237Y016064D01*
X014251Y016074D01*
X014264Y016087D01*
X014274Y016101D01*
X014281Y016117D01*
X014285Y016134D01*
X014287Y016151D01*
X013465Y016304D02*
X013392Y016231D01*
X013245Y016231D01*
X013172Y016304D01*
X013005Y016231D02*
X012858Y016378D01*
X012931Y016378D02*
X012711Y016378D01*
X012711Y016231D02*
X012711Y016671D01*
X012931Y016671D01*
X013005Y016598D01*
X013005Y016451D01*
X012931Y016378D01*
X013172Y016598D02*
X013245Y016671D01*
X013392Y016671D01*
X013465Y016598D01*
X013465Y016525D01*
X013392Y016451D01*
X013465Y016378D01*
X013465Y016304D01*
X013392Y016451D02*
X013318Y016451D01*
X013737Y017101D02*
X013687Y017151D01*
X012575Y017151D01*
X012525Y017101D01*
X012125Y017101D01*
X012108Y017103D01*
X012091Y017107D01*
X012075Y017114D01*
X012061Y017124D01*
X012048Y017137D01*
X012038Y017151D01*
X012031Y017167D01*
X012027Y017184D01*
X012025Y017201D01*
X012025Y017801D01*
X012027Y017818D01*
X012031Y017835D01*
X012038Y017851D01*
X012048Y017865D01*
X012061Y017878D01*
X012075Y017888D01*
X012091Y017895D01*
X012108Y017899D01*
X012125Y017901D01*
X012525Y017901D01*
X012575Y017851D01*
X013687Y017851D01*
X013737Y017901D01*
X014137Y017901D01*
X014154Y017899D01*
X014171Y017895D01*
X014187Y017888D01*
X014201Y017878D01*
X014214Y017865D01*
X014224Y017851D01*
X014231Y017835D01*
X014235Y017818D01*
X014237Y017801D01*
X014237Y017201D01*
X014235Y017184D01*
X014231Y017167D01*
X014224Y017151D01*
X014214Y017137D01*
X014201Y017124D01*
X014187Y017114D01*
X014171Y017107D01*
X014154Y017103D01*
X014137Y017101D01*
X013737Y017101D01*
X013494Y017281D02*
X013201Y017281D01*
X013348Y017281D02*
X013348Y017721D01*
X013201Y017575D01*
X013034Y017648D02*
X013034Y017501D01*
X012961Y017428D01*
X012740Y017428D01*
X012740Y017281D02*
X012740Y017721D01*
X012961Y017721D01*
X013034Y017648D01*
X012887Y017428D02*
X013034Y017281D01*
X010056Y016482D02*
X010056Y016082D01*
X010006Y016032D01*
X010006Y014920D01*
X010056Y014870D01*
X010056Y014470D01*
X010054Y014453D01*
X010050Y014436D01*
X010043Y014420D01*
X010033Y014406D01*
X010020Y014393D01*
X010006Y014383D01*
X009990Y014376D01*
X009973Y014372D01*
X009956Y014370D01*
X009356Y014370D01*
X009339Y014372D01*
X009322Y014376D01*
X009306Y014383D01*
X009292Y014393D01*
X009279Y014406D01*
X009269Y014420D01*
X009262Y014436D01*
X009258Y014453D01*
X009256Y014470D01*
X009256Y014870D01*
X009306Y014920D01*
X009306Y016032D01*
X009256Y016082D01*
X009256Y016482D01*
X009258Y016499D01*
X009262Y016516D01*
X009269Y016532D01*
X009279Y016546D01*
X009292Y016559D01*
X009306Y016569D01*
X009322Y016576D01*
X009339Y016580D01*
X009356Y016582D01*
X009956Y016582D01*
X009973Y016580D01*
X009990Y016576D01*
X010006Y016569D01*
X010020Y016559D01*
X010033Y016546D01*
X010043Y016532D01*
X010050Y016516D01*
X010054Y016499D01*
X010056Y016482D01*
X009876Y015839D02*
X009876Y015546D01*
X009583Y015839D01*
X009509Y015839D01*
X009436Y015766D01*
X009436Y015619D01*
X009509Y015546D01*
X009509Y015379D02*
X009656Y015379D01*
X009729Y015305D01*
X009729Y015085D01*
X009729Y015232D02*
X009876Y015379D01*
X009876Y015085D02*
X009436Y015085D01*
X009436Y015305D01*
X009509Y015379D01*
X008656Y014870D02*
X008606Y014920D01*
X008606Y016032D01*
X008656Y016082D01*
X008656Y016482D01*
X008654Y016499D01*
X008650Y016516D01*
X008643Y016532D01*
X008633Y016546D01*
X008620Y016559D01*
X008606Y016569D01*
X008590Y016576D01*
X008573Y016580D01*
X008556Y016582D01*
X007956Y016582D01*
X007939Y016580D01*
X007922Y016576D01*
X007906Y016569D01*
X007892Y016559D01*
X007879Y016546D01*
X007869Y016532D01*
X007862Y016516D01*
X007858Y016499D01*
X007856Y016482D01*
X007856Y016082D01*
X007906Y016032D01*
X007906Y014920D01*
X007856Y014870D01*
X007856Y014470D01*
X007858Y014453D01*
X007862Y014436D01*
X007869Y014420D01*
X007879Y014406D01*
X007892Y014393D01*
X007906Y014383D01*
X007922Y014376D01*
X007939Y014372D01*
X007956Y014370D01*
X008556Y014370D01*
X008573Y014372D01*
X008590Y014376D01*
X008606Y014383D01*
X008620Y014393D01*
X008633Y014406D01*
X008643Y014420D01*
X008650Y014436D01*
X008654Y014453D01*
X008656Y014470D01*
X008656Y014870D01*
X008476Y015006D02*
X008036Y015006D01*
X008036Y015226D01*
X008109Y015300D01*
X008256Y015300D01*
X008329Y015226D01*
X008329Y015006D01*
X008329Y015153D02*
X008476Y015300D01*
X008403Y015466D02*
X008476Y015540D01*
X008476Y015687D01*
X008403Y015760D01*
X008329Y015760D01*
X008256Y015687D01*
X008256Y015613D01*
X008256Y015687D02*
X008183Y015760D01*
X008109Y015760D01*
X008036Y015687D01*
X008036Y015540D01*
X008109Y015466D01*
X008183Y015927D02*
X008036Y016074D01*
X008476Y016074D01*
X008476Y016220D02*
X008476Y015927D01*
X010936Y014095D02*
X011009Y013949D01*
X011156Y013802D01*
X011156Y014022D01*
X011229Y014095D01*
X011303Y014095D01*
X011376Y014022D01*
X011376Y013875D01*
X011303Y013802D01*
X011156Y013802D01*
X011376Y013635D02*
X011376Y013341D01*
X011376Y013488D02*
X010936Y013488D01*
X011083Y013341D01*
X011009Y013175D02*
X010936Y013101D01*
X010936Y012954D01*
X011009Y012881D01*
X011303Y012881D01*
X011376Y012954D01*
X011376Y013101D01*
X011303Y013175D01*
X011481Y012926D02*
X011481Y014126D01*
X011483Y014143D01*
X011487Y014160D01*
X011494Y014176D01*
X011504Y014190D01*
X011517Y014203D01*
X011531Y014213D01*
X011547Y014220D01*
X011564Y014224D01*
X011581Y014226D01*
X014281Y014226D01*
X014298Y014224D01*
X014315Y014220D01*
X014331Y014213D01*
X014345Y014203D01*
X014358Y014190D01*
X014368Y014176D01*
X014375Y014160D01*
X014379Y014143D01*
X014381Y014126D01*
X014381Y012926D01*
X014379Y012909D01*
X014375Y012892D01*
X014368Y012876D01*
X014358Y012862D01*
X014345Y012849D01*
X014331Y012839D01*
X014315Y012832D01*
X014298Y012828D01*
X014281Y012826D01*
X011581Y012826D01*
X011564Y012828D01*
X011547Y012832D01*
X011531Y012839D01*
X011517Y012849D01*
X011504Y012862D01*
X011494Y012876D01*
X011487Y012892D01*
X011483Y012909D01*
X011481Y012926D01*
X012331Y013526D02*
X012811Y013526D01*
X013061Y013526D02*
X013531Y013526D01*
X013931Y014876D02*
X012331Y014876D01*
X012314Y014878D01*
X012297Y014882D01*
X012281Y014889D01*
X012267Y014899D01*
X012254Y014912D01*
X012244Y014926D01*
X012237Y014942D01*
X012233Y014959D01*
X012231Y014976D01*
X012231Y015576D01*
X012233Y015593D01*
X012237Y015610D01*
X012244Y015626D01*
X012254Y015640D01*
X012267Y015653D01*
X012281Y015663D01*
X012297Y015670D01*
X012314Y015674D01*
X012331Y015676D01*
X013931Y015676D01*
X013948Y015674D01*
X013965Y015670D01*
X013981Y015663D01*
X013995Y015653D01*
X014008Y015640D01*
X014018Y015626D01*
X014025Y015610D01*
X014029Y015593D01*
X014031Y015576D01*
X014031Y014976D01*
X014029Y014959D01*
X014025Y014942D01*
X014018Y014926D01*
X014008Y014912D01*
X013995Y014899D01*
X013981Y014889D01*
X013965Y014882D01*
X013948Y014878D01*
X013931Y014876D01*
X024761Y016279D02*
X024834Y016206D01*
X025128Y016206D01*
X025201Y016279D01*
X025201Y016426D01*
X025128Y016500D01*
X025128Y016666D02*
X025201Y016740D01*
X025201Y016887D01*
X025128Y016960D01*
X025054Y016960D01*
X024981Y016887D01*
X024981Y016813D01*
X024981Y016887D02*
X024908Y016960D01*
X024834Y016960D01*
X024761Y016887D01*
X024761Y016740D01*
X024834Y016666D01*
X024834Y016500D02*
X024761Y016426D01*
X024761Y016279D01*
X025342Y016028D02*
X025342Y017228D01*
X025344Y017245D01*
X025348Y017262D01*
X025355Y017278D01*
X025365Y017292D01*
X025378Y017305D01*
X025392Y017315D01*
X025408Y017322D01*
X025425Y017326D01*
X025442Y017328D01*
X028142Y017328D01*
X028159Y017326D01*
X028176Y017322D01*
X028192Y017315D01*
X028206Y017305D01*
X028219Y017292D01*
X028229Y017278D01*
X028236Y017262D01*
X028240Y017245D01*
X028242Y017228D01*
X028242Y016028D01*
X028240Y016011D01*
X028236Y015994D01*
X028229Y015978D01*
X028219Y015964D01*
X028206Y015951D01*
X028192Y015941D01*
X028176Y015934D01*
X028159Y015930D01*
X028142Y015928D01*
X025442Y015928D01*
X025425Y015930D01*
X025408Y015934D01*
X025392Y015941D01*
X025378Y015951D01*
X025365Y015964D01*
X025355Y015978D01*
X025348Y015994D01*
X025344Y016011D01*
X025342Y016028D01*
X026192Y016628D02*
X026672Y016628D01*
X026922Y016628D02*
X027392Y016628D01*
X032325Y016976D02*
X032325Y017576D01*
X032327Y017593D01*
X032331Y017610D01*
X032338Y017626D01*
X032348Y017640D01*
X032361Y017653D01*
X032375Y017663D01*
X032391Y017670D01*
X032408Y017674D01*
X032425Y017676D01*
X032825Y017676D01*
X032875Y017626D01*
X033987Y017626D01*
X034037Y017676D01*
X034437Y017676D01*
X034454Y017674D01*
X034471Y017670D01*
X034487Y017663D01*
X034501Y017653D01*
X034514Y017640D01*
X034524Y017626D01*
X034531Y017610D01*
X034535Y017593D01*
X034537Y017576D01*
X034537Y016976D01*
X034535Y016959D01*
X034531Y016942D01*
X034524Y016926D01*
X034514Y016912D01*
X034501Y016899D01*
X034487Y016889D01*
X034471Y016882D01*
X034454Y016878D01*
X034437Y016876D01*
X034037Y016876D01*
X033987Y016926D01*
X032875Y016926D01*
X032825Y016876D01*
X032425Y016876D01*
X032408Y016878D01*
X032391Y016882D01*
X032375Y016889D01*
X032361Y016899D01*
X032348Y016912D01*
X032338Y016926D01*
X032331Y016942D01*
X032327Y016959D01*
X032325Y016976D01*
X032961Y017056D02*
X032961Y017496D01*
X033181Y017496D01*
X033255Y017423D01*
X033255Y017276D01*
X033181Y017203D01*
X032961Y017203D01*
X033108Y017203D02*
X033255Y017056D01*
X033422Y017129D02*
X033495Y017056D01*
X033642Y017056D01*
X033715Y017129D01*
X033715Y017423D01*
X033642Y017496D01*
X033495Y017496D01*
X033422Y017423D01*
X033422Y017350D01*
X033495Y017276D01*
X033715Y017276D01*
X033735Y015771D02*
X033661Y015698D01*
X033661Y015404D01*
X033735Y015331D01*
X033881Y015331D01*
X033955Y015404D01*
X034122Y015404D02*
X034122Y015331D01*
X034122Y015404D02*
X034415Y015698D01*
X034415Y015771D01*
X034122Y015771D01*
X033955Y015698D02*
X033881Y015771D01*
X033735Y015771D01*
X032947Y014276D02*
X032949Y014338D01*
X032955Y014401D01*
X032965Y014462D01*
X032979Y014523D01*
X032996Y014583D01*
X033017Y014642D01*
X033043Y014699D01*
X033071Y014754D01*
X033103Y014808D01*
X033139Y014859D01*
X033177Y014909D01*
X033219Y014955D01*
X033263Y014999D01*
X033311Y015040D01*
X033360Y015078D01*
X033412Y015112D01*
X033466Y015143D01*
X033522Y015171D01*
X033580Y015195D01*
X033639Y015216D01*
X033699Y015232D01*
X033760Y015245D01*
X033822Y015254D01*
X033884Y015259D01*
X033947Y015260D01*
X034009Y015257D01*
X034071Y015250D01*
X034133Y015239D01*
X034193Y015224D01*
X034253Y015206D01*
X034311Y015184D01*
X034368Y015158D01*
X034423Y015128D01*
X034476Y015095D01*
X034527Y015059D01*
X034575Y015020D01*
X034621Y014977D01*
X034664Y014932D01*
X034704Y014884D01*
X034741Y014834D01*
X034775Y014781D01*
X034806Y014727D01*
X034832Y014671D01*
X034856Y014613D01*
X034875Y014553D01*
X034891Y014493D01*
X034903Y014431D01*
X034911Y014370D01*
X034915Y014307D01*
X034915Y014245D01*
X034911Y014182D01*
X034903Y014121D01*
X034891Y014059D01*
X034875Y013999D01*
X034856Y013939D01*
X034832Y013881D01*
X034806Y013825D01*
X034775Y013771D01*
X034741Y013718D01*
X034704Y013668D01*
X034664Y013620D01*
X034621Y013575D01*
X034575Y013532D01*
X034527Y013493D01*
X034476Y013457D01*
X034423Y013424D01*
X034368Y013394D01*
X034311Y013368D01*
X034253Y013346D01*
X034193Y013328D01*
X034133Y013313D01*
X034071Y013302D01*
X034009Y013295D01*
X033947Y013292D01*
X033884Y013293D01*
X033822Y013298D01*
X033760Y013307D01*
X033699Y013320D01*
X033639Y013336D01*
X033580Y013357D01*
X033522Y013381D01*
X033466Y013409D01*
X033412Y013440D01*
X033360Y013474D01*
X033311Y013512D01*
X033263Y013553D01*
X033219Y013597D01*
X033177Y013643D01*
X033139Y013693D01*
X033103Y013744D01*
X033071Y013798D01*
X033043Y013853D01*
X033017Y013910D01*
X032996Y013969D01*
X032979Y014029D01*
X032965Y014090D01*
X032955Y014151D01*
X032949Y014214D01*
X032947Y014276D01*
X033391Y013956D02*
X033391Y013696D01*
X033271Y013826D02*
X033521Y013826D01*
X035586Y012723D02*
X035660Y012796D01*
X035806Y012796D01*
X035880Y012723D01*
X035880Y012429D01*
X035806Y012356D01*
X035660Y012356D01*
X035586Y012429D01*
X035586Y012723D01*
X035733Y012503D02*
X035880Y012356D01*
X036047Y012356D02*
X036340Y012650D01*
X036340Y012723D01*
X036267Y012796D01*
X036120Y012796D01*
X036047Y012723D01*
X036047Y012356D02*
X036340Y012356D01*
X037336Y012429D02*
X037410Y012356D01*
X037556Y012356D01*
X037630Y012429D01*
X037630Y012723D01*
X037556Y012796D01*
X037410Y012796D01*
X037336Y012723D01*
X037336Y012429D01*
X037483Y012503D02*
X037630Y012356D01*
X037797Y012356D02*
X038090Y012356D01*
X037943Y012356D02*
X037943Y012796D01*
X037797Y012650D01*
X039075Y013226D02*
X039075Y013826D01*
X039077Y013843D01*
X039081Y013860D01*
X039088Y013876D01*
X039098Y013890D01*
X039111Y013903D01*
X039125Y013913D01*
X039141Y013920D01*
X039158Y013924D01*
X039175Y013926D01*
X039575Y013926D01*
X039625Y013876D01*
X040737Y013876D01*
X040787Y013926D01*
X041187Y013926D01*
X041204Y013924D01*
X041221Y013920D01*
X041237Y013913D01*
X041251Y013903D01*
X041264Y013890D01*
X041274Y013876D01*
X041281Y013860D01*
X041285Y013843D01*
X041287Y013826D01*
X041287Y013226D01*
X041285Y013209D01*
X041281Y013192D01*
X041274Y013176D01*
X041264Y013162D01*
X041251Y013149D01*
X041237Y013139D01*
X041221Y013132D01*
X041204Y013128D01*
X041187Y013126D01*
X040787Y013126D01*
X040737Y013176D01*
X039625Y013176D01*
X039575Y013126D01*
X039175Y013126D01*
X039158Y013128D01*
X039141Y013132D01*
X039125Y013139D01*
X039111Y013149D01*
X039098Y013162D01*
X039088Y013176D01*
X039081Y013192D01*
X039077Y013209D01*
X039075Y013226D01*
X039711Y013306D02*
X039711Y013746D01*
X039931Y013746D01*
X040005Y013673D01*
X040005Y013526D01*
X039931Y013453D01*
X039711Y013453D01*
X039858Y013453D02*
X040005Y013306D01*
X040172Y013379D02*
X040245Y013306D01*
X040392Y013306D01*
X040465Y013379D01*
X040465Y013453D01*
X040392Y013526D01*
X040318Y013526D01*
X040392Y013526D02*
X040465Y013600D01*
X040465Y013673D01*
X040392Y013746D01*
X040245Y013746D01*
X040172Y013673D01*
X040632Y013526D02*
X040852Y013526D01*
X040925Y013453D01*
X040925Y013379D01*
X040852Y013306D01*
X040705Y013306D01*
X040632Y013379D01*
X040632Y013526D01*
X040779Y013673D01*
X040925Y013746D01*
X040787Y014376D02*
X041187Y014376D01*
X041204Y014378D01*
X041221Y014382D01*
X041237Y014389D01*
X041251Y014399D01*
X041264Y014412D01*
X041274Y014426D01*
X041281Y014442D01*
X041285Y014459D01*
X041287Y014476D01*
X041287Y015076D01*
X041285Y015093D01*
X041281Y015110D01*
X041274Y015126D01*
X041264Y015140D01*
X041251Y015153D01*
X041237Y015163D01*
X041221Y015170D01*
X041204Y015174D01*
X041187Y015176D01*
X040787Y015176D01*
X040737Y015126D01*
X039625Y015126D01*
X039575Y015176D01*
X039175Y015176D01*
X039158Y015174D01*
X039141Y015170D01*
X039125Y015163D01*
X039111Y015153D01*
X039098Y015140D01*
X039088Y015126D01*
X039081Y015110D01*
X039077Y015093D01*
X039075Y015076D01*
X039075Y014476D01*
X039077Y014459D01*
X039081Y014442D01*
X039088Y014426D01*
X039098Y014412D01*
X039111Y014399D01*
X039125Y014389D01*
X039141Y014382D01*
X039158Y014378D01*
X039175Y014376D01*
X039575Y014376D01*
X039625Y014426D01*
X040737Y014426D01*
X040787Y014376D01*
X040779Y014556D02*
X040779Y014996D01*
X040632Y014850D01*
X040632Y014556D02*
X040925Y014556D01*
X040465Y014556D02*
X040172Y014556D01*
X040318Y014556D02*
X040318Y014996D01*
X040172Y014850D01*
X040005Y014923D02*
X040005Y014776D01*
X039931Y014703D01*
X039711Y014703D01*
X039711Y014556D02*
X039711Y014996D01*
X039931Y014996D01*
X040005Y014923D01*
X039858Y014703D02*
X040005Y014556D01*
X039575Y015626D02*
X039175Y015626D01*
X039158Y015628D01*
X039141Y015632D01*
X039125Y015639D01*
X039111Y015649D01*
X039098Y015662D01*
X039088Y015676D01*
X039081Y015692D01*
X039077Y015709D01*
X039075Y015726D01*
X039075Y016326D01*
X039077Y016343D01*
X039081Y016360D01*
X039088Y016376D01*
X039098Y016390D01*
X039111Y016403D01*
X039125Y016413D01*
X039141Y016420D01*
X039158Y016424D01*
X039175Y016426D01*
X039575Y016426D01*
X039625Y016376D01*
X040737Y016376D01*
X040787Y016426D01*
X041187Y016426D01*
X041204Y016424D01*
X041221Y016420D01*
X041237Y016413D01*
X041251Y016403D01*
X041264Y016390D01*
X041274Y016376D01*
X041281Y016360D01*
X041285Y016343D01*
X041287Y016326D01*
X041287Y015726D01*
X041285Y015709D01*
X041281Y015692D01*
X041274Y015676D01*
X041264Y015662D01*
X041251Y015649D01*
X041237Y015639D01*
X041221Y015632D01*
X041204Y015628D01*
X041187Y015626D01*
X040787Y015626D01*
X040737Y015676D01*
X039625Y015676D01*
X039575Y015626D01*
X039624Y015806D02*
X039477Y015953D01*
X039550Y015953D02*
X039330Y015953D01*
X039330Y015806D02*
X039330Y016246D01*
X039550Y016246D01*
X039624Y016173D01*
X039624Y016026D01*
X039550Y015953D01*
X039790Y016100D02*
X039937Y016246D01*
X039937Y015806D01*
X039790Y015806D02*
X040084Y015806D01*
X040251Y015806D02*
X040544Y016100D01*
X040544Y016173D01*
X040471Y016246D01*
X040324Y016246D01*
X040251Y016173D01*
X040251Y015806D02*
X040544Y015806D01*
X040673Y016855D02*
X041073Y016855D01*
X041090Y016857D01*
X041107Y016861D01*
X041123Y016868D01*
X041137Y016878D01*
X041150Y016891D01*
X041160Y016905D01*
X041167Y016921D01*
X041171Y016938D01*
X041173Y016955D01*
X041173Y017555D01*
X041171Y017572D01*
X041167Y017589D01*
X041160Y017605D01*
X041150Y017619D01*
X041137Y017632D01*
X041123Y017642D01*
X041107Y017649D01*
X041090Y017653D01*
X041073Y017655D01*
X040673Y017655D01*
X040623Y017605D01*
X039510Y017605D01*
X039460Y017655D01*
X039060Y017655D01*
X039043Y017653D01*
X039026Y017649D01*
X039010Y017642D01*
X038996Y017632D01*
X038983Y017619D01*
X038973Y017605D01*
X038966Y017589D01*
X038962Y017572D01*
X038960Y017555D01*
X038960Y016955D01*
X038962Y016938D01*
X038966Y016921D01*
X038973Y016905D01*
X038983Y016891D01*
X038996Y016878D01*
X039010Y016868D01*
X039026Y016861D01*
X039043Y016857D01*
X039060Y016855D01*
X039460Y016855D01*
X039510Y016905D01*
X040623Y016905D01*
X040673Y016855D01*
X040737Y017035D02*
X040590Y017035D01*
X040517Y017108D01*
X040811Y017402D01*
X040811Y017108D01*
X040737Y017035D01*
X040517Y017108D02*
X040517Y017402D01*
X040590Y017475D01*
X040737Y017475D01*
X040811Y017402D01*
X040203Y017475D02*
X040057Y017328D01*
X039890Y017255D02*
X039816Y017181D01*
X039596Y017181D01*
X039596Y017035D02*
X039596Y017475D01*
X039816Y017475D01*
X039890Y017402D01*
X039890Y017255D01*
X039743Y017181D02*
X039890Y017035D01*
X040057Y017035D02*
X040350Y017035D01*
X040203Y017035D02*
X040203Y017475D01*
X046075Y017576D02*
X046075Y016976D01*
X046077Y016959D01*
X046081Y016942D01*
X046088Y016926D01*
X046098Y016912D01*
X046111Y016899D01*
X046125Y016889D01*
X046141Y016882D01*
X046158Y016878D01*
X046175Y016876D01*
X046575Y016876D01*
X046625Y016926D01*
X047737Y016926D01*
X047787Y016876D01*
X048187Y016876D01*
X048204Y016878D01*
X048221Y016882D01*
X048237Y016889D01*
X048251Y016899D01*
X048264Y016912D01*
X048274Y016926D01*
X048281Y016942D01*
X048285Y016959D01*
X048287Y016976D01*
X048287Y017576D01*
X048285Y017593D01*
X048281Y017610D01*
X048274Y017626D01*
X048264Y017640D01*
X048251Y017653D01*
X048237Y017663D01*
X048221Y017670D01*
X048204Y017674D01*
X048187Y017676D01*
X047787Y017676D01*
X047737Y017626D01*
X046625Y017626D01*
X046575Y017676D01*
X046175Y017676D01*
X046158Y017674D01*
X046141Y017670D01*
X046125Y017663D01*
X046111Y017653D01*
X046098Y017640D01*
X046088Y017626D01*
X046081Y017610D01*
X046077Y017593D01*
X046075Y017576D01*
X046711Y017496D02*
X046931Y017496D01*
X047005Y017423D01*
X047005Y017276D01*
X046931Y017203D01*
X046711Y017203D01*
X046711Y017056D02*
X046711Y017496D01*
X046858Y017203D02*
X047005Y017056D01*
X047172Y017129D02*
X047245Y017056D01*
X047392Y017056D01*
X047465Y017129D01*
X047465Y017203D01*
X047392Y017276D01*
X047318Y017276D01*
X047392Y017276D02*
X047465Y017350D01*
X047465Y017423D01*
X047392Y017496D01*
X047245Y017496D01*
X047172Y017423D01*
X047632Y017276D02*
X047925Y017276D01*
X047852Y017056D02*
X047852Y017496D01*
X047632Y017276D01*
X047787Y016676D02*
X047737Y016626D01*
X046625Y016626D01*
X046575Y016676D01*
X046175Y016676D01*
X046158Y016674D01*
X046141Y016670D01*
X046125Y016663D01*
X046111Y016653D01*
X046098Y016640D01*
X046088Y016626D01*
X046081Y016610D01*
X046077Y016593D01*
X046075Y016576D01*
X046075Y015976D01*
X046077Y015959D01*
X046081Y015942D01*
X046088Y015926D01*
X046098Y015912D01*
X046111Y015899D01*
X046125Y015889D01*
X046141Y015882D01*
X046158Y015878D01*
X046175Y015876D01*
X046575Y015876D01*
X046625Y015926D01*
X047737Y015926D01*
X047787Y015876D01*
X048187Y015876D01*
X048204Y015878D01*
X048221Y015882D01*
X048237Y015889D01*
X048251Y015899D01*
X048264Y015912D01*
X048274Y015926D01*
X048281Y015942D01*
X048285Y015959D01*
X048287Y015976D01*
X048287Y016576D01*
X048285Y016593D01*
X048281Y016610D01*
X048274Y016626D01*
X048264Y016640D01*
X048251Y016653D01*
X048237Y016663D01*
X048221Y016670D01*
X048204Y016674D01*
X048187Y016676D01*
X047787Y016676D01*
X047544Y016423D02*
X047471Y016496D01*
X047324Y016496D01*
X047251Y016423D01*
X047084Y016423D02*
X047084Y016350D01*
X047011Y016276D01*
X047084Y016203D01*
X047084Y016129D01*
X047011Y016056D01*
X046864Y016056D01*
X046790Y016129D01*
X046624Y016056D02*
X046477Y016203D01*
X046550Y016203D02*
X046330Y016203D01*
X046330Y016056D02*
X046330Y016496D01*
X046550Y016496D01*
X046624Y016423D01*
X046624Y016276D01*
X046550Y016203D01*
X046790Y016423D02*
X046864Y016496D01*
X047011Y016496D01*
X047084Y016423D01*
X047011Y016276D02*
X046937Y016276D01*
X047251Y016129D02*
X047324Y016056D01*
X047471Y016056D01*
X047544Y016129D01*
X047544Y016203D01*
X047471Y016276D01*
X047398Y016276D01*
X047471Y016276D02*
X047544Y016350D01*
X047544Y016423D01*
X047787Y015676D02*
X047737Y015626D01*
X046625Y015626D01*
X046575Y015676D01*
X046175Y015676D01*
X046158Y015674D01*
X046141Y015670D01*
X046125Y015663D01*
X046111Y015653D01*
X046098Y015640D01*
X046088Y015626D01*
X046081Y015610D01*
X046077Y015593D01*
X046075Y015576D01*
X046075Y014976D01*
X046077Y014959D01*
X046081Y014942D01*
X046088Y014926D01*
X046098Y014912D01*
X046111Y014899D01*
X046125Y014889D01*
X046141Y014882D01*
X046158Y014878D01*
X046175Y014876D01*
X046575Y014876D01*
X046625Y014926D01*
X047737Y014926D01*
X047787Y014876D01*
X048187Y014876D01*
X048204Y014878D01*
X048221Y014882D01*
X048237Y014889D01*
X048251Y014899D01*
X048264Y014912D01*
X048274Y014926D01*
X048281Y014942D01*
X048285Y014959D01*
X048287Y014976D01*
X048287Y015576D01*
X048285Y015593D01*
X048281Y015610D01*
X048274Y015626D01*
X048264Y015640D01*
X048251Y015653D01*
X048237Y015663D01*
X048221Y015670D01*
X048204Y015674D01*
X048187Y015676D01*
X047787Y015676D01*
X047544Y015423D02*
X047251Y015129D01*
X047324Y015056D01*
X047471Y015056D01*
X047544Y015129D01*
X047544Y015423D01*
X047471Y015496D01*
X047324Y015496D01*
X047251Y015423D01*
X047251Y015129D01*
X047084Y015056D02*
X046790Y015056D01*
X047084Y015350D01*
X047084Y015423D01*
X047011Y015496D01*
X046864Y015496D01*
X046790Y015423D01*
X046624Y015423D02*
X046624Y015276D01*
X046550Y015203D01*
X046330Y015203D01*
X046477Y015203D02*
X046624Y015056D01*
X046330Y015056D02*
X046330Y015496D01*
X046550Y015496D01*
X046624Y015423D01*
X044492Y013321D02*
X044345Y013321D01*
X044272Y013248D01*
X044272Y013175D01*
X044345Y013101D01*
X044492Y013101D01*
X044565Y013028D01*
X044565Y012954D01*
X044492Y012881D01*
X044345Y012881D01*
X044272Y012954D01*
X044272Y013028D01*
X044345Y013101D01*
X044492Y013101D02*
X044565Y013175D01*
X044565Y013248D01*
X044492Y013321D01*
X044105Y013248D02*
X044031Y013321D01*
X043885Y013321D01*
X043811Y013248D01*
X043811Y012954D01*
X043885Y012881D01*
X044031Y012881D01*
X044105Y012954D01*
X043731Y012436D02*
X043731Y012186D01*
X043861Y012316D02*
X043601Y012316D01*
X043197Y011776D02*
X043199Y011838D01*
X043205Y011901D01*
X043215Y011962D01*
X043229Y012023D01*
X043246Y012083D01*
X043267Y012142D01*
X043293Y012199D01*
X043321Y012254D01*
X043353Y012308D01*
X043389Y012359D01*
X043427Y012409D01*
X043469Y012455D01*
X043513Y012499D01*
X043561Y012540D01*
X043610Y012578D01*
X043662Y012612D01*
X043716Y012643D01*
X043772Y012671D01*
X043830Y012695D01*
X043889Y012716D01*
X043949Y012732D01*
X044010Y012745D01*
X044072Y012754D01*
X044134Y012759D01*
X044197Y012760D01*
X044259Y012757D01*
X044321Y012750D01*
X044383Y012739D01*
X044443Y012724D01*
X044503Y012706D01*
X044561Y012684D01*
X044618Y012658D01*
X044673Y012628D01*
X044726Y012595D01*
X044777Y012559D01*
X044825Y012520D01*
X044871Y012477D01*
X044914Y012432D01*
X044954Y012384D01*
X044991Y012334D01*
X045025Y012281D01*
X045056Y012227D01*
X045082Y012171D01*
X045106Y012113D01*
X045125Y012053D01*
X045141Y011993D01*
X045153Y011931D01*
X045161Y011870D01*
X045165Y011807D01*
X045165Y011745D01*
X045161Y011682D01*
X045153Y011621D01*
X045141Y011559D01*
X045125Y011499D01*
X045106Y011439D01*
X045082Y011381D01*
X045056Y011325D01*
X045025Y011271D01*
X044991Y011218D01*
X044954Y011168D01*
X044914Y011120D01*
X044871Y011075D01*
X044825Y011032D01*
X044777Y010993D01*
X044726Y010957D01*
X044673Y010924D01*
X044618Y010894D01*
X044561Y010868D01*
X044503Y010846D01*
X044443Y010828D01*
X044383Y010813D01*
X044321Y010802D01*
X044259Y010795D01*
X044197Y010792D01*
X044134Y010793D01*
X044072Y010798D01*
X044010Y010807D01*
X043949Y010820D01*
X043889Y010836D01*
X043830Y010857D01*
X043772Y010881D01*
X043716Y010909D01*
X043662Y010940D01*
X043610Y010974D01*
X043561Y011012D01*
X043513Y011053D01*
X043469Y011097D01*
X043427Y011143D01*
X043389Y011193D01*
X043353Y011244D01*
X043321Y011298D01*
X043293Y011353D01*
X043267Y011410D01*
X043246Y011469D01*
X043229Y011529D01*
X043215Y011590D01*
X043205Y011651D01*
X043199Y011714D01*
X043197Y011776D01*
X042381Y011626D02*
X042381Y010426D01*
X042379Y010409D01*
X042375Y010392D01*
X042368Y010376D01*
X042358Y010362D01*
X042345Y010349D01*
X042331Y010339D01*
X042315Y010332D01*
X042298Y010328D01*
X042281Y010326D01*
X039581Y010326D01*
X039564Y010328D01*
X039547Y010332D01*
X039531Y010339D01*
X039517Y010349D01*
X039504Y010362D01*
X039494Y010376D01*
X039487Y010392D01*
X039483Y010409D01*
X039481Y010426D01*
X039481Y011626D01*
X039483Y011643D01*
X039487Y011660D01*
X039494Y011676D01*
X039504Y011690D01*
X039517Y011703D01*
X039531Y011713D01*
X039547Y011720D01*
X039564Y011724D01*
X039581Y011726D01*
X042281Y011726D01*
X042298Y011724D01*
X042315Y011720D01*
X042331Y011713D01*
X042345Y011703D01*
X042358Y011690D01*
X042368Y011676D01*
X042375Y011660D01*
X042379Y011643D01*
X042381Y011626D01*
X041531Y011026D02*
X041051Y011026D01*
X040801Y011026D02*
X040331Y011026D01*
X039201Y011038D02*
X038761Y011038D01*
X038908Y010891D01*
X038834Y010725D02*
X038761Y010651D01*
X038761Y010504D01*
X038834Y010431D01*
X039128Y010431D01*
X039201Y010504D01*
X039201Y010651D01*
X039128Y010725D01*
X039201Y010891D02*
X039201Y011185D01*
X039201Y011352D02*
X038908Y011645D01*
X038834Y011645D01*
X038761Y011572D01*
X038761Y011425D01*
X038834Y011352D01*
X039201Y011352D02*
X039201Y011645D01*
X036981Y011418D02*
X036981Y010134D01*
X036631Y010134D02*
X036631Y011418D01*
X034631Y012126D02*
X034631Y009426D01*
X034629Y009409D01*
X034625Y009392D01*
X034618Y009376D01*
X034608Y009362D01*
X034595Y009349D01*
X034581Y009339D01*
X034565Y009332D01*
X034548Y009328D01*
X034531Y009326D01*
X033331Y009326D01*
X033314Y009328D01*
X033297Y009332D01*
X033281Y009339D01*
X033267Y009349D01*
X033254Y009362D01*
X033244Y009376D01*
X033237Y009392D01*
X033233Y009409D01*
X033231Y009426D01*
X033231Y012126D01*
X033233Y012143D01*
X033237Y012160D01*
X033244Y012176D01*
X033254Y012190D01*
X033267Y012203D01*
X033281Y012213D01*
X033297Y012220D01*
X033314Y012224D01*
X033331Y012226D01*
X034531Y012226D01*
X034548Y012224D01*
X034565Y012220D01*
X034581Y012213D01*
X034595Y012203D01*
X034608Y012190D01*
X034618Y012176D01*
X034625Y012160D01*
X034629Y012143D01*
X034631Y012126D01*
X033931Y011376D02*
X033931Y010896D01*
X033931Y010646D02*
X033931Y010176D01*
X032831Y010170D02*
X032831Y009770D01*
X032829Y009753D01*
X032825Y009736D01*
X032818Y009720D01*
X032808Y009706D01*
X032795Y009693D01*
X032781Y009683D01*
X032765Y009676D01*
X032748Y009672D01*
X032731Y009670D01*
X032131Y009670D01*
X032114Y009672D01*
X032097Y009676D01*
X032081Y009683D01*
X032067Y009693D01*
X032054Y009706D01*
X032044Y009720D01*
X032037Y009736D01*
X032033Y009753D01*
X032031Y009770D01*
X032031Y010170D01*
X032081Y010220D01*
X032081Y011332D01*
X032031Y011382D01*
X032031Y011782D01*
X032033Y011799D01*
X032037Y011816D01*
X032044Y011832D01*
X032054Y011846D01*
X032067Y011859D01*
X032081Y011869D01*
X032097Y011876D01*
X032114Y011880D01*
X032131Y011882D01*
X032731Y011882D01*
X032748Y011880D01*
X032765Y011876D01*
X032781Y011869D01*
X032795Y011859D01*
X032808Y011846D01*
X032818Y011832D01*
X032825Y011816D01*
X032829Y011799D01*
X032831Y011782D01*
X032831Y011382D01*
X032781Y011332D01*
X032781Y010220D01*
X032831Y010170D01*
X032651Y010219D02*
X032504Y010072D01*
X032504Y010145D02*
X032504Y009925D01*
X032651Y009925D02*
X032211Y009925D01*
X032211Y010145D01*
X032284Y010219D01*
X032431Y010219D01*
X032504Y010145D01*
X032578Y010385D02*
X032651Y010459D01*
X032651Y010605D01*
X032578Y010679D01*
X032504Y010679D01*
X032431Y010605D01*
X032431Y010532D01*
X032431Y010605D02*
X032358Y010679D01*
X032284Y010679D01*
X032211Y010605D01*
X032211Y010459D01*
X032284Y010385D01*
X031581Y010170D02*
X031531Y010220D01*
X031531Y011332D01*
X031581Y011382D01*
X031581Y011782D01*
X031579Y011799D01*
X031575Y011816D01*
X031568Y011832D01*
X031558Y011846D01*
X031545Y011859D01*
X031531Y011869D01*
X031515Y011876D01*
X031498Y011880D01*
X031481Y011882D01*
X030881Y011882D01*
X030864Y011880D01*
X030847Y011876D01*
X030831Y011869D01*
X030817Y011859D01*
X030804Y011846D01*
X030794Y011832D01*
X030787Y011816D01*
X030783Y011799D01*
X030781Y011782D01*
X030781Y011382D01*
X030831Y011332D01*
X030831Y010220D01*
X030781Y010170D01*
X030781Y009770D01*
X030783Y009753D01*
X030787Y009736D01*
X030794Y009720D01*
X030804Y009706D01*
X030817Y009693D01*
X030831Y009683D01*
X030847Y009676D01*
X030864Y009672D01*
X030881Y009670D01*
X031481Y009670D01*
X031498Y009672D01*
X031515Y009676D01*
X031531Y009683D01*
X031545Y009693D01*
X031558Y009706D01*
X031568Y009720D01*
X031575Y009736D01*
X031579Y009753D01*
X031581Y009770D01*
X031581Y010170D01*
X031401Y010306D02*
X030961Y010306D01*
X030961Y010526D01*
X031034Y010600D01*
X031181Y010600D01*
X031254Y010526D01*
X031254Y010306D01*
X031254Y010453D02*
X031401Y010600D01*
X031401Y010766D02*
X031108Y011060D01*
X031034Y011060D01*
X030961Y010987D01*
X030961Y010840D01*
X031034Y010766D01*
X031401Y010766D02*
X031401Y011060D01*
X031401Y011227D02*
X031108Y011520D01*
X031034Y011520D01*
X030961Y011447D01*
X030961Y011300D01*
X031034Y011227D01*
X031401Y011227D02*
X031401Y011520D01*
X032211Y011066D02*
X032284Y011139D01*
X032358Y011139D01*
X032431Y011066D01*
X032431Y010919D01*
X032358Y010846D01*
X032284Y010846D01*
X032211Y010919D01*
X032211Y011066D01*
X032431Y011066D02*
X032504Y011139D01*
X032578Y011139D01*
X032651Y011066D01*
X032651Y010919D01*
X032578Y010846D01*
X032504Y010846D01*
X032431Y010919D01*
X030331Y011382D02*
X030331Y011782D01*
X030329Y011799D01*
X030325Y011816D01*
X030318Y011832D01*
X030308Y011846D01*
X030295Y011859D01*
X030281Y011869D01*
X030265Y011876D01*
X030248Y011880D01*
X030231Y011882D01*
X029631Y011882D01*
X029614Y011880D01*
X029597Y011876D01*
X029581Y011869D01*
X029567Y011859D01*
X029554Y011846D01*
X029544Y011832D01*
X029537Y011816D01*
X029533Y011799D01*
X029531Y011782D01*
X029531Y011382D01*
X029581Y011332D01*
X029581Y010220D01*
X029531Y010170D01*
X029531Y009770D01*
X029533Y009753D01*
X029537Y009736D01*
X029544Y009720D01*
X029554Y009706D01*
X029567Y009693D01*
X029581Y009683D01*
X029597Y009676D01*
X029614Y009672D01*
X029631Y009670D01*
X030231Y009670D01*
X030248Y009672D01*
X030265Y009676D01*
X030281Y009683D01*
X030295Y009693D01*
X030308Y009706D01*
X030318Y009720D01*
X030325Y009736D01*
X030329Y009753D01*
X030331Y009770D01*
X030331Y010170D01*
X030281Y010220D01*
X030281Y011332D01*
X030331Y011382D01*
X030078Y011139D02*
X030004Y011139D01*
X029931Y011066D01*
X029931Y010919D01*
X029858Y010846D01*
X029784Y010846D01*
X029711Y010919D01*
X029711Y011066D01*
X029784Y011139D01*
X029858Y011139D01*
X029931Y011066D01*
X029931Y010919D02*
X030004Y010846D01*
X030078Y010846D01*
X030151Y010919D01*
X030151Y011066D01*
X030078Y011139D01*
X030151Y010679D02*
X030151Y010385D01*
X030151Y010532D02*
X029711Y010532D01*
X029858Y010385D01*
X029931Y010219D02*
X030004Y010145D01*
X030004Y009925D01*
X030004Y010072D02*
X030151Y010219D01*
X029931Y010219D02*
X029784Y010219D01*
X029711Y010145D01*
X029711Y009925D01*
X030151Y009925D01*
X033486Y009048D02*
X033486Y008754D01*
X033560Y008681D01*
X033706Y008681D01*
X033780Y008754D01*
X033947Y008901D02*
X034240Y008901D01*
X034167Y008681D02*
X034167Y009121D01*
X033947Y008901D01*
X033780Y009048D02*
X033706Y009121D01*
X033560Y009121D01*
X033486Y009048D01*
X036836Y008145D02*
X036836Y007852D01*
X037056Y007852D01*
X036983Y007999D01*
X036983Y008072D01*
X037056Y008145D01*
X037203Y008145D01*
X037276Y008072D01*
X037276Y007925D01*
X037203Y007852D01*
X037276Y007685D02*
X037276Y007391D01*
X037276Y007538D02*
X036836Y007538D01*
X036983Y007391D01*
X036909Y007225D02*
X036836Y007151D01*
X036836Y007004D01*
X036909Y006931D01*
X037203Y006931D01*
X037276Y007004D01*
X037276Y007151D01*
X037203Y007225D01*
X037481Y006926D02*
X037481Y008126D01*
X037483Y008143D01*
X037487Y008160D01*
X037494Y008176D01*
X037504Y008190D01*
X037517Y008203D01*
X037531Y008213D01*
X037547Y008220D01*
X037564Y008224D01*
X037581Y008226D01*
X040281Y008226D01*
X040298Y008224D01*
X040315Y008220D01*
X040331Y008213D01*
X040345Y008203D01*
X040358Y008190D01*
X040368Y008176D01*
X040375Y008160D01*
X040379Y008143D01*
X040381Y008126D01*
X040381Y006926D01*
X040379Y006909D01*
X040375Y006892D01*
X040368Y006876D01*
X040358Y006862D01*
X040345Y006849D01*
X040331Y006839D01*
X040315Y006832D01*
X040298Y006828D01*
X040281Y006826D01*
X037581Y006826D01*
X037564Y006828D01*
X037547Y006832D01*
X037531Y006839D01*
X037517Y006849D01*
X037504Y006862D01*
X037494Y006876D01*
X037487Y006892D01*
X037483Y006909D01*
X037481Y006926D01*
X037781Y006526D02*
X038531Y006526D01*
X038533Y006487D01*
X038539Y006448D01*
X038548Y006410D01*
X038561Y006373D01*
X038578Y006337D01*
X038598Y006304D01*
X038622Y006272D01*
X038648Y006243D01*
X038677Y006217D01*
X038709Y006193D01*
X038742Y006173D01*
X038778Y006156D01*
X038815Y006143D01*
X038853Y006134D01*
X038892Y006128D01*
X038931Y006126D01*
X038970Y006128D01*
X039009Y006134D01*
X039047Y006143D01*
X039084Y006156D01*
X039120Y006173D01*
X039153Y006193D01*
X039185Y006217D01*
X039214Y006243D01*
X039240Y006272D01*
X039264Y006304D01*
X039284Y006337D01*
X039301Y006373D01*
X039314Y006410D01*
X039323Y006448D01*
X039329Y006487D01*
X039331Y006526D01*
X040081Y006526D01*
X040081Y002526D01*
X037781Y002526D01*
X037781Y006526D01*
X036331Y006382D02*
X036331Y006782D01*
X036329Y006799D01*
X036325Y006816D01*
X036318Y006832D01*
X036308Y006846D01*
X036295Y006859D01*
X036281Y006869D01*
X036265Y006876D01*
X036248Y006880D01*
X036231Y006882D01*
X035631Y006882D01*
X035614Y006880D01*
X035597Y006876D01*
X035581Y006869D01*
X035567Y006859D01*
X035554Y006846D01*
X035544Y006832D01*
X035537Y006816D01*
X035533Y006799D01*
X035531Y006782D01*
X035531Y006382D01*
X035581Y006332D01*
X035581Y005220D01*
X035531Y005170D01*
X035531Y004770D01*
X035533Y004753D01*
X035537Y004736D01*
X035544Y004720D01*
X035554Y004706D01*
X035567Y004693D01*
X035581Y004683D01*
X035597Y004676D01*
X035614Y004672D01*
X035631Y004670D01*
X036231Y004670D01*
X036248Y004672D01*
X036265Y004676D01*
X036281Y004683D01*
X036295Y004693D01*
X036308Y004706D01*
X036318Y004720D01*
X036325Y004736D01*
X036329Y004753D01*
X036331Y004770D01*
X036331Y005170D01*
X036281Y005220D01*
X036281Y006332D01*
X036331Y006382D01*
X036151Y006447D02*
X036078Y006520D01*
X035784Y006520D01*
X035711Y006447D01*
X035711Y006300D01*
X035784Y006227D01*
X035858Y006227D01*
X035931Y006300D01*
X035931Y006520D01*
X036151Y006447D02*
X036151Y006300D01*
X036078Y006227D01*
X036078Y006060D02*
X036151Y005987D01*
X036151Y005840D01*
X036078Y005766D01*
X036151Y005600D02*
X036004Y005453D01*
X036004Y005526D02*
X036004Y005306D01*
X036151Y005306D02*
X035711Y005306D01*
X035711Y005526D01*
X035784Y005600D01*
X035931Y005600D01*
X036004Y005526D01*
X035784Y005766D02*
X035711Y005840D01*
X035711Y005987D01*
X035784Y006060D01*
X035858Y006060D01*
X035931Y005987D01*
X036004Y006060D01*
X036078Y006060D01*
X035931Y005987D02*
X035931Y005913D01*
X034181Y005896D02*
X034181Y006376D01*
X032831Y006382D02*
X032831Y006782D01*
X032829Y006799D01*
X032825Y006816D01*
X032818Y006832D01*
X032808Y006846D01*
X032795Y006859D01*
X032781Y006869D01*
X032765Y006876D01*
X032748Y006880D01*
X032731Y006882D01*
X032131Y006882D01*
X032114Y006880D01*
X032097Y006876D01*
X032081Y006869D01*
X032067Y006859D01*
X032054Y006846D01*
X032044Y006832D01*
X032037Y006816D01*
X032033Y006799D01*
X032031Y006782D01*
X032031Y006382D01*
X032081Y006332D01*
X032081Y005220D01*
X032031Y005170D01*
X032031Y004770D01*
X032033Y004753D01*
X032037Y004736D01*
X032044Y004720D01*
X032054Y004706D01*
X032067Y004693D01*
X032081Y004683D01*
X032097Y004676D01*
X032114Y004672D01*
X032131Y004670D01*
X032731Y004670D01*
X032748Y004672D01*
X032765Y004676D01*
X032781Y004683D01*
X032795Y004693D01*
X032808Y004706D01*
X032818Y004720D01*
X032825Y004736D01*
X032829Y004753D01*
X032831Y004770D01*
X032831Y005170D01*
X032781Y005220D01*
X032781Y006332D01*
X032831Y006382D01*
X032578Y005846D02*
X032284Y006139D01*
X032211Y006139D01*
X032211Y005846D01*
X032284Y005679D02*
X032358Y005679D01*
X032431Y005605D01*
X032504Y005679D01*
X032578Y005679D01*
X032651Y005605D01*
X032651Y005459D01*
X032578Y005385D01*
X032651Y005219D02*
X032504Y005072D01*
X032504Y005145D02*
X032504Y004925D01*
X032651Y004925D02*
X032211Y004925D01*
X032211Y005145D01*
X032284Y005219D01*
X032431Y005219D01*
X032504Y005145D01*
X032284Y005385D02*
X032211Y005459D01*
X032211Y005605D01*
X032284Y005679D01*
X032431Y005605D02*
X032431Y005532D01*
X032578Y005846D02*
X032651Y005846D01*
X031581Y006382D02*
X031581Y006782D01*
X031579Y006799D01*
X031575Y006816D01*
X031568Y006832D01*
X031558Y006846D01*
X031545Y006859D01*
X031531Y006869D01*
X031515Y006876D01*
X031498Y006880D01*
X031481Y006882D01*
X030881Y006882D01*
X030864Y006880D01*
X030847Y006876D01*
X030831Y006869D01*
X030817Y006859D01*
X030804Y006846D01*
X030794Y006832D01*
X030787Y006816D01*
X030783Y006799D01*
X030781Y006782D01*
X030781Y006382D01*
X030831Y006332D01*
X030831Y005220D01*
X030781Y005170D01*
X030781Y004770D01*
X030783Y004753D01*
X030787Y004736D01*
X030794Y004720D01*
X030804Y004706D01*
X030817Y004693D01*
X030831Y004683D01*
X030847Y004676D01*
X030864Y004672D01*
X030881Y004670D01*
X031481Y004670D01*
X031498Y004672D01*
X031515Y004676D01*
X031531Y004683D01*
X031545Y004693D01*
X031558Y004706D01*
X031568Y004720D01*
X031575Y004736D01*
X031579Y004753D01*
X031581Y004770D01*
X031581Y005170D01*
X031531Y005220D01*
X031531Y006332D01*
X031581Y006382D01*
X031401Y006227D02*
X031328Y006227D01*
X031034Y006520D01*
X030961Y006520D01*
X030961Y006227D01*
X030961Y005913D02*
X031401Y005913D01*
X031401Y005766D02*
X031401Y006060D01*
X031108Y005766D02*
X030961Y005913D01*
X031034Y005600D02*
X031181Y005600D01*
X031254Y005526D01*
X031254Y005306D01*
X031254Y005453D02*
X031401Y005600D01*
X031401Y005306D02*
X030961Y005306D01*
X030961Y005526D01*
X031034Y005600D01*
X030331Y005170D02*
X030281Y005220D01*
X030281Y006332D01*
X030331Y006382D01*
X030331Y006782D01*
X030329Y006799D01*
X030325Y006816D01*
X030318Y006832D01*
X030308Y006846D01*
X030295Y006859D01*
X030281Y006869D01*
X030265Y006876D01*
X030248Y006880D01*
X030231Y006882D01*
X029631Y006882D01*
X029614Y006880D01*
X029597Y006876D01*
X029581Y006869D01*
X029567Y006859D01*
X029554Y006846D01*
X029544Y006832D01*
X029537Y006816D01*
X029533Y006799D01*
X029531Y006782D01*
X029531Y006382D01*
X029581Y006332D01*
X029581Y005220D01*
X029531Y005170D01*
X029531Y004770D01*
X029533Y004753D01*
X029537Y004736D01*
X029544Y004720D01*
X029554Y004706D01*
X029567Y004693D01*
X029581Y004683D01*
X029597Y004676D01*
X029614Y004672D01*
X029631Y004670D01*
X030231Y004670D01*
X030248Y004672D01*
X030265Y004676D01*
X030281Y004683D01*
X030295Y004693D01*
X030308Y004706D01*
X030318Y004720D01*
X030325Y004736D01*
X030329Y004753D01*
X030331Y004770D01*
X030331Y005170D01*
X030151Y005306D02*
X029711Y005306D01*
X029711Y005526D01*
X029784Y005600D01*
X029931Y005600D01*
X030004Y005526D01*
X030004Y005306D01*
X030004Y005453D02*
X030151Y005600D01*
X030151Y005766D02*
X030151Y006060D01*
X030151Y005913D02*
X029711Y005913D01*
X029858Y005766D01*
X029858Y006227D02*
X029931Y006300D01*
X029931Y006520D01*
X029784Y006520D02*
X029711Y006447D01*
X029711Y006300D01*
X029784Y006227D01*
X029858Y006227D01*
X030078Y006227D02*
X030151Y006300D01*
X030151Y006447D01*
X030078Y006520D01*
X029784Y006520D01*
X033481Y007126D02*
X033481Y004426D01*
X033483Y004409D01*
X033487Y004392D01*
X033494Y004376D01*
X033504Y004362D01*
X033517Y004349D01*
X033531Y004339D01*
X033547Y004332D01*
X033564Y004328D01*
X033581Y004326D01*
X034781Y004326D01*
X034798Y004328D01*
X034815Y004332D01*
X034831Y004339D01*
X034845Y004349D01*
X034858Y004362D01*
X034868Y004376D01*
X034875Y004392D01*
X034879Y004409D01*
X034881Y004426D01*
X034881Y007126D01*
X034879Y007143D01*
X034875Y007160D01*
X034868Y007176D01*
X034858Y007190D01*
X034845Y007203D01*
X034831Y007213D01*
X034815Y007220D01*
X034798Y007224D01*
X034781Y007226D01*
X033581Y007226D01*
X033564Y007224D01*
X033547Y007220D01*
X033531Y007213D01*
X033517Y007203D01*
X033504Y007190D01*
X033494Y007176D01*
X033487Y007160D01*
X033483Y007143D01*
X033481Y007126D01*
X034181Y005646D02*
X034181Y005176D01*
X034268Y004046D02*
X034122Y003900D01*
X033955Y003973D02*
X033881Y004046D01*
X033735Y004046D01*
X033661Y003973D01*
X033661Y003679D01*
X033735Y003606D01*
X033881Y003606D01*
X033955Y003679D01*
X034122Y003606D02*
X034415Y003606D01*
X034268Y003606D02*
X034268Y004046D01*
X034582Y003973D02*
X034655Y004046D01*
X034802Y004046D01*
X034875Y003973D01*
X034875Y003900D01*
X034802Y003826D01*
X034875Y003753D01*
X034875Y003679D01*
X034802Y003606D01*
X034655Y003606D01*
X034582Y003679D01*
X034729Y003826D02*
X034802Y003826D01*
X041531Y003770D02*
X041531Y004170D01*
X041581Y004220D01*
X041581Y005332D01*
X041531Y005382D01*
X041531Y005782D01*
X041533Y005799D01*
X041537Y005816D01*
X041544Y005832D01*
X041554Y005846D01*
X041567Y005859D01*
X041581Y005869D01*
X041597Y005876D01*
X041614Y005880D01*
X041631Y005882D01*
X042231Y005882D01*
X042248Y005880D01*
X042265Y005876D01*
X042281Y005869D01*
X042295Y005859D01*
X042308Y005846D01*
X042318Y005832D01*
X042325Y005816D01*
X042329Y005799D01*
X042331Y005782D01*
X042331Y005382D01*
X042281Y005332D01*
X042281Y004220D01*
X042331Y004170D01*
X042331Y003770D01*
X042329Y003753D01*
X042325Y003736D01*
X042318Y003720D01*
X042308Y003706D01*
X042295Y003693D01*
X042281Y003683D01*
X042265Y003676D01*
X042248Y003672D01*
X042231Y003670D01*
X041631Y003670D01*
X041614Y003672D01*
X041597Y003676D01*
X041581Y003683D01*
X041567Y003693D01*
X041554Y003706D01*
X041544Y003720D01*
X041537Y003736D01*
X041533Y003753D01*
X041531Y003770D01*
X041711Y003925D02*
X041711Y004145D01*
X041784Y004219D01*
X041931Y004219D01*
X042004Y004145D01*
X042004Y003925D01*
X042004Y004072D02*
X042151Y004219D01*
X042078Y004385D02*
X042151Y004459D01*
X042151Y004605D01*
X042078Y004679D01*
X042004Y004679D01*
X041931Y004605D01*
X041931Y004532D01*
X041931Y004605D02*
X041858Y004679D01*
X041784Y004679D01*
X041711Y004605D01*
X041711Y004459D01*
X041784Y004385D01*
X041711Y004846D02*
X041931Y004846D01*
X041858Y004992D01*
X041858Y005066D01*
X041931Y005139D01*
X042078Y005139D01*
X042151Y005066D01*
X042151Y004919D01*
X042078Y004846D01*
X041711Y004846D02*
X041711Y005139D01*
X043111Y004848D02*
X043111Y004554D01*
X043185Y004481D01*
X043331Y004481D01*
X043405Y004554D01*
X043572Y004481D02*
X043865Y004481D01*
X043718Y004481D02*
X043718Y004921D01*
X043572Y004775D01*
X043405Y004848D02*
X043331Y004921D01*
X043185Y004921D01*
X043111Y004848D01*
X043081Y004226D02*
X044281Y004226D01*
X044298Y004224D01*
X044315Y004220D01*
X044331Y004213D01*
X044345Y004203D01*
X044358Y004190D01*
X044368Y004176D01*
X044375Y004160D01*
X044379Y004143D01*
X044381Y004126D01*
X044381Y001426D01*
X044379Y001409D01*
X044375Y001392D01*
X044368Y001376D01*
X044358Y001362D01*
X044345Y001349D01*
X044331Y001339D01*
X044315Y001332D01*
X044298Y001328D01*
X044281Y001326D01*
X043081Y001326D01*
X043064Y001328D01*
X043047Y001332D01*
X043031Y001339D01*
X043017Y001349D01*
X043004Y001362D01*
X042994Y001376D01*
X042987Y001392D01*
X042983Y001409D01*
X042981Y001426D01*
X042981Y004126D01*
X042983Y004143D01*
X042987Y004160D01*
X042994Y004176D01*
X043004Y004190D01*
X043017Y004203D01*
X043031Y004213D01*
X043047Y004220D01*
X043064Y004224D01*
X043081Y004226D01*
X042151Y003925D02*
X041711Y003925D01*
X043681Y003376D02*
X043681Y002896D01*
X043681Y002646D02*
X043681Y002176D01*
X044105Y004481D02*
X044032Y004554D01*
X044325Y004848D01*
X044325Y004554D01*
X044252Y004481D01*
X044105Y004481D01*
X044032Y004554D02*
X044032Y004848D01*
X044105Y004921D01*
X044252Y004921D01*
X044325Y004848D01*
X043141Y006196D02*
X043141Y006456D01*
X043021Y006326D02*
X043271Y006326D01*
X042697Y006776D02*
X042699Y006838D01*
X042705Y006901D01*
X042715Y006962D01*
X042729Y007023D01*
X042746Y007083D01*
X042767Y007142D01*
X042793Y007199D01*
X042821Y007254D01*
X042853Y007308D01*
X042889Y007359D01*
X042927Y007409D01*
X042969Y007455D01*
X043013Y007499D01*
X043061Y007540D01*
X043110Y007578D01*
X043162Y007612D01*
X043216Y007643D01*
X043272Y007671D01*
X043330Y007695D01*
X043389Y007716D01*
X043449Y007732D01*
X043510Y007745D01*
X043572Y007754D01*
X043634Y007759D01*
X043697Y007760D01*
X043759Y007757D01*
X043821Y007750D01*
X043883Y007739D01*
X043943Y007724D01*
X044003Y007706D01*
X044061Y007684D01*
X044118Y007658D01*
X044173Y007628D01*
X044226Y007595D01*
X044277Y007559D01*
X044325Y007520D01*
X044371Y007477D01*
X044414Y007432D01*
X044454Y007384D01*
X044491Y007334D01*
X044525Y007281D01*
X044556Y007227D01*
X044582Y007171D01*
X044606Y007113D01*
X044625Y007053D01*
X044641Y006993D01*
X044653Y006931D01*
X044661Y006870D01*
X044665Y006807D01*
X044665Y006745D01*
X044661Y006682D01*
X044653Y006621D01*
X044641Y006559D01*
X044625Y006499D01*
X044606Y006439D01*
X044582Y006381D01*
X044556Y006325D01*
X044525Y006271D01*
X044491Y006218D01*
X044454Y006168D01*
X044414Y006120D01*
X044371Y006075D01*
X044325Y006032D01*
X044277Y005993D01*
X044226Y005957D01*
X044173Y005924D01*
X044118Y005894D01*
X044061Y005868D01*
X044003Y005846D01*
X043943Y005828D01*
X043883Y005813D01*
X043821Y005802D01*
X043759Y005795D01*
X043697Y005792D01*
X043634Y005793D01*
X043572Y005798D01*
X043510Y005807D01*
X043449Y005820D01*
X043389Y005836D01*
X043330Y005857D01*
X043272Y005881D01*
X043216Y005909D01*
X043162Y005940D01*
X043110Y005974D01*
X043061Y006012D01*
X043013Y006053D01*
X042969Y006097D01*
X042927Y006143D01*
X042889Y006193D01*
X042853Y006244D01*
X042821Y006298D01*
X042793Y006353D01*
X042767Y006410D01*
X042746Y006469D01*
X042729Y006529D01*
X042715Y006590D01*
X042705Y006651D01*
X042699Y006714D01*
X042697Y006776D01*
X043314Y007831D02*
X043461Y007831D01*
X043534Y007904D01*
X043701Y007904D02*
X043774Y007831D01*
X043921Y007831D01*
X043994Y007904D01*
X043994Y008198D01*
X043921Y008271D01*
X043774Y008271D01*
X043701Y008198D01*
X043701Y008125D01*
X043774Y008051D01*
X043994Y008051D01*
X043534Y008198D02*
X043461Y008271D01*
X043314Y008271D01*
X043240Y008198D01*
X043240Y007904D01*
X043314Y007831D01*
X042281Y008576D02*
X039581Y008576D01*
X039564Y008578D01*
X039547Y008582D01*
X039531Y008589D01*
X039517Y008599D01*
X039504Y008612D01*
X039494Y008626D01*
X039487Y008642D01*
X039483Y008659D01*
X039481Y008676D01*
X039481Y009876D01*
X039483Y009893D01*
X039487Y009910D01*
X039494Y009926D01*
X039504Y009940D01*
X039517Y009953D01*
X039531Y009963D01*
X039547Y009970D01*
X039564Y009974D01*
X039581Y009976D01*
X042281Y009976D01*
X042298Y009974D01*
X042315Y009970D01*
X042331Y009963D01*
X042345Y009953D01*
X042358Y009940D01*
X042368Y009926D01*
X042375Y009910D01*
X042379Y009893D01*
X042381Y009876D01*
X042381Y008676D01*
X042379Y008659D01*
X042375Y008642D01*
X042368Y008626D01*
X042358Y008612D01*
X042345Y008599D01*
X042331Y008589D01*
X042315Y008582D01*
X042298Y008578D01*
X042281Y008576D01*
X042611Y008929D02*
X042684Y008856D01*
X042978Y008856D01*
X043051Y008929D01*
X043051Y009076D01*
X042978Y009150D01*
X042978Y009316D02*
X043051Y009390D01*
X043051Y009537D01*
X042978Y009610D01*
X042831Y009610D01*
X042758Y009537D01*
X042758Y009463D01*
X042831Y009316D01*
X042611Y009316D01*
X042611Y009610D01*
X041531Y009276D02*
X041061Y009276D01*
X040811Y009276D02*
X040331Y009276D01*
X042611Y009076D02*
X042611Y008929D01*
X042611Y009076D02*
X042684Y009150D01*
X039531Y007526D02*
X039051Y007526D01*
X038801Y007526D02*
X038331Y007526D01*
X046531Y009270D02*
X046531Y009670D01*
X046581Y009720D01*
X046581Y010832D01*
X046531Y010882D01*
X046531Y011282D01*
X046533Y011299D01*
X046537Y011316D01*
X046544Y011332D01*
X046554Y011346D01*
X046567Y011359D01*
X046581Y011369D01*
X046597Y011376D01*
X046614Y011380D01*
X046631Y011382D01*
X047231Y011382D01*
X047248Y011380D01*
X047265Y011376D01*
X047281Y011369D01*
X047295Y011359D01*
X047308Y011346D01*
X047318Y011332D01*
X047325Y011316D01*
X047329Y011299D01*
X047331Y011282D01*
X047331Y010882D01*
X047281Y010832D01*
X047281Y009720D01*
X047331Y009670D01*
X047331Y009270D01*
X047329Y009253D01*
X047325Y009236D01*
X047318Y009220D01*
X047308Y009206D01*
X047295Y009193D01*
X047281Y009183D01*
X047265Y009176D01*
X047248Y009172D01*
X047231Y009170D01*
X046631Y009170D01*
X046614Y009172D01*
X046597Y009176D01*
X046581Y009183D01*
X046567Y009193D01*
X046554Y009206D01*
X046544Y009220D01*
X046537Y009236D01*
X046533Y009253D01*
X046531Y009270D01*
X046711Y009925D02*
X046711Y010145D01*
X046784Y010219D01*
X046931Y010219D01*
X047004Y010145D01*
X047004Y009925D01*
X047004Y010072D02*
X047151Y010219D01*
X046931Y010385D02*
X046931Y010679D01*
X046858Y010846D02*
X046711Y010992D01*
X047151Y010992D01*
X047151Y010846D02*
X047151Y011139D01*
X047531Y011282D02*
X047531Y010882D01*
X047581Y010832D01*
X047581Y009720D01*
X047531Y009670D01*
X047531Y009270D01*
X047533Y009253D01*
X047537Y009236D01*
X047544Y009220D01*
X047554Y009206D01*
X047567Y009193D01*
X047581Y009183D01*
X047597Y009176D01*
X047614Y009172D01*
X047631Y009170D01*
X048231Y009170D01*
X048248Y009172D01*
X048265Y009176D01*
X048281Y009183D01*
X048295Y009193D01*
X048308Y009206D01*
X048318Y009220D01*
X048325Y009236D01*
X048329Y009253D01*
X048331Y009270D01*
X048331Y009670D01*
X048281Y009720D01*
X048281Y010832D01*
X048331Y010882D01*
X048331Y011282D01*
X048329Y011299D01*
X048325Y011316D01*
X048318Y011332D01*
X048308Y011346D01*
X048295Y011359D01*
X048281Y011369D01*
X048265Y011376D01*
X048248Y011380D01*
X048231Y011382D01*
X047631Y011382D01*
X047614Y011380D01*
X047597Y011376D01*
X047581Y011369D01*
X047567Y011359D01*
X047554Y011346D01*
X047544Y011332D01*
X047537Y011316D01*
X047533Y011299D01*
X047531Y011282D01*
X047784Y011020D02*
X047858Y011020D01*
X047931Y010947D01*
X047931Y010800D01*
X047858Y010727D01*
X047784Y010727D01*
X047711Y010800D01*
X047711Y010947D01*
X047784Y011020D01*
X047931Y010947D02*
X048004Y011020D01*
X048078Y011020D01*
X048151Y010947D01*
X048151Y010800D01*
X048078Y010727D01*
X048004Y010727D01*
X047931Y010800D01*
X047858Y010560D02*
X047784Y010560D01*
X047711Y010487D01*
X047711Y010340D01*
X047784Y010266D01*
X047784Y010100D02*
X047931Y010100D01*
X048004Y010026D01*
X048004Y009806D01*
X048004Y009953D02*
X048151Y010100D01*
X048151Y010266D02*
X047858Y010560D01*
X048151Y010560D02*
X048151Y010266D01*
X047784Y010100D02*
X047711Y010026D01*
X047711Y009806D01*
X048151Y009806D01*
X048781Y009670D02*
X048831Y009720D01*
X048831Y010832D01*
X048781Y010882D01*
X048781Y011282D01*
X048783Y011299D01*
X048787Y011316D01*
X048794Y011332D01*
X048804Y011346D01*
X048817Y011359D01*
X048831Y011369D01*
X048847Y011376D01*
X048864Y011380D01*
X048881Y011382D01*
X049481Y011382D01*
X049498Y011380D01*
X049515Y011376D01*
X049531Y011369D01*
X049545Y011359D01*
X049558Y011346D01*
X049568Y011332D01*
X049575Y011316D01*
X049579Y011299D01*
X049581Y011282D01*
X049581Y010882D01*
X049531Y010832D01*
X049531Y009720D01*
X049581Y009670D01*
X049581Y009270D01*
X049579Y009253D01*
X049575Y009236D01*
X049568Y009220D01*
X049558Y009206D01*
X049545Y009193D01*
X049531Y009183D01*
X049515Y009176D01*
X049498Y009172D01*
X049481Y009170D01*
X048881Y009170D01*
X048864Y009172D01*
X048847Y009176D01*
X048831Y009183D01*
X048817Y009193D01*
X048804Y009206D01*
X048794Y009220D01*
X048787Y009236D01*
X048783Y009253D01*
X048781Y009270D01*
X048781Y009670D01*
X048961Y009806D02*
X048961Y010026D01*
X049034Y010100D01*
X049181Y010100D01*
X049254Y010026D01*
X049254Y009806D01*
X049254Y009953D02*
X049401Y010100D01*
X049401Y010266D02*
X049108Y010560D01*
X049034Y010560D01*
X048961Y010487D01*
X048961Y010340D01*
X049034Y010266D01*
X049401Y010266D02*
X049401Y010560D01*
X049328Y010727D02*
X049401Y010800D01*
X049401Y010947D01*
X049328Y011020D01*
X049034Y011020D01*
X048961Y010947D01*
X048961Y010800D01*
X049034Y010727D01*
X049108Y010727D01*
X049181Y010800D01*
X049181Y011020D01*
X050331Y011826D02*
X053031Y011826D01*
X053048Y011828D01*
X053065Y011832D01*
X053081Y011839D01*
X053095Y011849D01*
X053108Y011862D01*
X053118Y011876D01*
X053125Y011892D01*
X053129Y011909D01*
X053131Y011926D01*
X053131Y013126D01*
X053129Y013143D01*
X053125Y013160D01*
X053118Y013176D01*
X053108Y013190D01*
X053095Y013203D01*
X053081Y013213D01*
X053065Y013220D01*
X053048Y013224D01*
X053031Y013226D01*
X050331Y013226D01*
X050314Y013224D01*
X050297Y013220D01*
X050281Y013213D01*
X050267Y013203D01*
X050254Y013190D01*
X050244Y013176D01*
X050237Y013160D01*
X050233Y013143D01*
X050231Y013126D01*
X050231Y011926D01*
X050233Y011909D01*
X050237Y011892D01*
X050244Y011876D01*
X050254Y011862D01*
X050267Y011849D01*
X050281Y011839D01*
X050297Y011832D01*
X050314Y011828D01*
X050331Y011826D01*
X050656Y011401D02*
X051406Y011401D01*
X051408Y011362D01*
X051414Y011323D01*
X051423Y011285D01*
X051436Y011248D01*
X051453Y011212D01*
X051473Y011179D01*
X051497Y011147D01*
X051523Y011118D01*
X051552Y011092D01*
X051584Y011068D01*
X051617Y011048D01*
X051653Y011031D01*
X051690Y011018D01*
X051728Y011009D01*
X051767Y011003D01*
X051806Y011001D01*
X051845Y011003D01*
X051884Y011009D01*
X051922Y011018D01*
X051959Y011031D01*
X051995Y011048D01*
X052028Y011068D01*
X052060Y011092D01*
X052089Y011118D01*
X052115Y011147D01*
X052139Y011179D01*
X052159Y011212D01*
X052176Y011248D01*
X052189Y011285D01*
X052198Y011323D01*
X052204Y011362D01*
X052206Y011401D01*
X052956Y011401D01*
X052956Y007401D01*
X050656Y007401D01*
X050656Y011401D01*
X051081Y012526D02*
X051561Y012526D01*
X051811Y012526D02*
X052281Y012526D01*
X053286Y012613D02*
X053726Y012613D01*
X053726Y012466D02*
X053726Y012760D01*
X053653Y012927D02*
X053579Y012927D01*
X053506Y013000D01*
X053506Y013147D01*
X053579Y013220D01*
X053653Y013220D01*
X053726Y013147D01*
X053726Y013000D01*
X053653Y012927D01*
X053506Y013000D02*
X053433Y012927D01*
X053359Y012927D01*
X053286Y013000D01*
X053286Y013147D01*
X053359Y013220D01*
X053433Y013220D01*
X053506Y013147D01*
X053286Y012613D02*
X053433Y012466D01*
X053359Y012300D02*
X053286Y012226D01*
X053286Y012079D01*
X053359Y012006D01*
X053653Y012006D01*
X053726Y012079D01*
X053726Y012226D01*
X053653Y012300D01*
X051271Y014326D02*
X051021Y014326D01*
X051141Y014456D02*
X051141Y014196D01*
X050697Y014776D02*
X050699Y014838D01*
X050705Y014901D01*
X050715Y014962D01*
X050729Y015023D01*
X050746Y015083D01*
X050767Y015142D01*
X050793Y015199D01*
X050821Y015254D01*
X050853Y015308D01*
X050889Y015359D01*
X050927Y015409D01*
X050969Y015455D01*
X051013Y015499D01*
X051061Y015540D01*
X051110Y015578D01*
X051162Y015612D01*
X051216Y015643D01*
X051272Y015671D01*
X051330Y015695D01*
X051389Y015716D01*
X051449Y015732D01*
X051510Y015745D01*
X051572Y015754D01*
X051634Y015759D01*
X051697Y015760D01*
X051759Y015757D01*
X051821Y015750D01*
X051883Y015739D01*
X051943Y015724D01*
X052003Y015706D01*
X052061Y015684D01*
X052118Y015658D01*
X052173Y015628D01*
X052226Y015595D01*
X052277Y015559D01*
X052325Y015520D01*
X052371Y015477D01*
X052414Y015432D01*
X052454Y015384D01*
X052491Y015334D01*
X052525Y015281D01*
X052556Y015227D01*
X052582Y015171D01*
X052606Y015113D01*
X052625Y015053D01*
X052641Y014993D01*
X052653Y014931D01*
X052661Y014870D01*
X052665Y014807D01*
X052665Y014745D01*
X052661Y014682D01*
X052653Y014621D01*
X052641Y014559D01*
X052625Y014499D01*
X052606Y014439D01*
X052582Y014381D01*
X052556Y014325D01*
X052525Y014271D01*
X052491Y014218D01*
X052454Y014168D01*
X052414Y014120D01*
X052371Y014075D01*
X052325Y014032D01*
X052277Y013993D01*
X052226Y013957D01*
X052173Y013924D01*
X052118Y013894D01*
X052061Y013868D01*
X052003Y013846D01*
X051943Y013828D01*
X051883Y013813D01*
X051821Y013802D01*
X051759Y013795D01*
X051697Y013792D01*
X051634Y013793D01*
X051572Y013798D01*
X051510Y013807D01*
X051449Y013820D01*
X051389Y013836D01*
X051330Y013857D01*
X051272Y013881D01*
X051216Y013909D01*
X051162Y013940D01*
X051110Y013974D01*
X051061Y014012D01*
X051013Y014053D01*
X050969Y014097D01*
X050927Y014143D01*
X050889Y014193D01*
X050853Y014244D01*
X050821Y014298D01*
X050793Y014353D01*
X050767Y014410D01*
X050746Y014469D01*
X050729Y014529D01*
X050715Y014590D01*
X050705Y014651D01*
X050699Y014714D01*
X050697Y014776D01*
X052761Y014676D02*
X052761Y014529D01*
X052834Y014456D01*
X053128Y014456D01*
X053201Y014529D01*
X053201Y014676D01*
X053128Y014750D01*
X053128Y014916D02*
X053201Y014990D01*
X053201Y015137D01*
X053128Y015210D01*
X053054Y015210D01*
X052981Y015137D01*
X052981Y014916D01*
X053128Y014916D01*
X052981Y014916D02*
X052834Y015063D01*
X052761Y015210D01*
X052834Y014750D02*
X052761Y014676D01*
X052287Y016669D02*
X052337Y016719D01*
X053449Y016719D01*
X053499Y016669D01*
X053899Y016669D01*
X053916Y016671D01*
X053933Y016675D01*
X053949Y016682D01*
X053963Y016692D01*
X053976Y016705D01*
X053986Y016719D01*
X053993Y016735D01*
X053997Y016752D01*
X053999Y016769D01*
X053999Y017369D01*
X053997Y017386D01*
X053993Y017403D01*
X053986Y017419D01*
X053976Y017433D01*
X053963Y017446D01*
X053949Y017456D01*
X053933Y017463D01*
X053916Y017467D01*
X053899Y017469D01*
X053499Y017469D01*
X053449Y017419D01*
X052337Y017419D01*
X052287Y017469D01*
X051887Y017469D01*
X051870Y017467D01*
X051853Y017463D01*
X051837Y017456D01*
X051823Y017446D01*
X051810Y017433D01*
X051800Y017419D01*
X051793Y017403D01*
X051789Y017386D01*
X051787Y017369D01*
X051787Y016769D01*
X051789Y016752D01*
X051793Y016735D01*
X051800Y016719D01*
X051810Y016705D01*
X051823Y016692D01*
X051837Y016682D01*
X051853Y016675D01*
X051870Y016671D01*
X051887Y016669D01*
X052287Y016669D01*
X052423Y016849D02*
X052423Y017289D01*
X052643Y017289D01*
X052716Y017216D01*
X052716Y017069D01*
X052643Y016996D01*
X052423Y016996D01*
X052570Y016996D02*
X052716Y016849D01*
X052883Y016923D02*
X052957Y016849D01*
X053103Y016849D01*
X053177Y016923D01*
X053177Y016996D01*
X053103Y017069D01*
X053030Y017069D01*
X053103Y017069D02*
X053177Y017143D01*
X053177Y017216D01*
X053103Y017289D01*
X052957Y017289D01*
X052883Y017216D01*
X053344Y017216D02*
X053417Y017289D01*
X053564Y017289D01*
X053637Y017216D01*
X053637Y017143D01*
X053344Y016849D01*
X053637Y016849D01*
X047151Y010605D02*
X046711Y010605D01*
X046931Y010385D01*
X047151Y009925D02*
X046711Y009925D01*
X048961Y009806D02*
X049401Y009806D01*
X050425Y006926D02*
X050825Y006926D01*
X050875Y006876D01*
X051987Y006876D01*
X052037Y006926D01*
X052437Y006926D01*
X052454Y006924D01*
X052471Y006920D01*
X052487Y006913D01*
X052501Y006903D01*
X052514Y006890D01*
X052524Y006876D01*
X052531Y006860D01*
X052535Y006843D01*
X052537Y006826D01*
X052537Y006226D01*
X052535Y006209D01*
X052531Y006192D01*
X052524Y006176D01*
X052514Y006162D01*
X052501Y006149D01*
X052487Y006139D01*
X052471Y006132D01*
X052454Y006128D01*
X052437Y006126D01*
X052037Y006126D01*
X051987Y006176D01*
X050875Y006176D01*
X050825Y006126D01*
X050425Y006126D01*
X050408Y006128D01*
X050391Y006132D01*
X050375Y006139D01*
X050361Y006149D01*
X050348Y006162D01*
X050338Y006176D01*
X050331Y006192D01*
X050327Y006209D01*
X050325Y006226D01*
X050325Y006826D01*
X050327Y006843D01*
X050331Y006860D01*
X050338Y006876D01*
X050348Y006890D01*
X050361Y006903D01*
X050375Y006913D01*
X050391Y006920D01*
X050408Y006924D01*
X050425Y006926D01*
X050580Y006746D02*
X050800Y006746D01*
X050874Y006673D01*
X050874Y006526D01*
X050800Y006453D01*
X050580Y006453D01*
X050727Y006453D02*
X050874Y006306D01*
X051040Y006379D02*
X051114Y006306D01*
X051261Y006306D01*
X051334Y006379D01*
X051334Y006453D01*
X051261Y006526D01*
X051187Y006526D01*
X051261Y006526D02*
X051334Y006600D01*
X051334Y006673D01*
X051261Y006746D01*
X051114Y006746D01*
X051040Y006673D01*
X051501Y006673D02*
X051501Y006379D01*
X051794Y006673D01*
X051794Y006379D01*
X051721Y006306D01*
X051574Y006306D01*
X051501Y006379D01*
X051501Y006673D02*
X051574Y006746D01*
X051721Y006746D01*
X051794Y006673D01*
X050580Y006746D02*
X050580Y006306D01*
X051585Y004921D02*
X051511Y004848D01*
X051511Y004554D01*
X051585Y004481D01*
X051731Y004481D01*
X051805Y004554D01*
X051972Y004481D02*
X052265Y004481D01*
X052118Y004481D02*
X052118Y004921D01*
X051972Y004775D01*
X051805Y004848D02*
X051731Y004921D01*
X051585Y004921D01*
X052432Y004775D02*
X052579Y004921D01*
X052579Y004481D01*
X052725Y004481D02*
X052432Y004481D01*
X052781Y004226D02*
X051581Y004226D01*
X051564Y004224D01*
X051547Y004220D01*
X051531Y004213D01*
X051517Y004203D01*
X051504Y004190D01*
X051494Y004176D01*
X051487Y004160D01*
X051483Y004143D01*
X051481Y004126D01*
X051481Y001426D01*
X051483Y001409D01*
X051487Y001392D01*
X051494Y001376D01*
X051504Y001362D01*
X051517Y001349D01*
X051531Y001339D01*
X051547Y001332D01*
X051564Y001328D01*
X051581Y001326D01*
X052781Y001326D01*
X052798Y001328D01*
X052815Y001332D01*
X052831Y001339D01*
X052845Y001349D01*
X052858Y001362D01*
X052868Y001376D01*
X052875Y001392D01*
X052879Y001409D01*
X052881Y001426D01*
X052881Y004126D01*
X052879Y004143D01*
X052875Y004160D01*
X052868Y004176D01*
X052858Y004190D01*
X052845Y004203D01*
X052831Y004213D01*
X052815Y004220D01*
X052798Y004224D01*
X052781Y004226D01*
X052181Y003376D02*
X052181Y002896D01*
X052181Y002646D02*
X052181Y002176D01*
D13*
X056211Y003563D02*
X056332Y003441D01*
X056454Y003441D01*
X056576Y003563D01*
X056576Y003806D01*
X056698Y003928D01*
X056819Y003928D01*
X056941Y003806D01*
X056941Y003563D01*
X056819Y003441D01*
X056211Y003563D02*
X056211Y003806D01*
X056332Y003928D01*
X056454Y004233D02*
X056819Y004233D01*
X056941Y004355D01*
X056941Y004720D01*
X057063Y004720D02*
X057185Y004598D01*
X057185Y004476D01*
X057063Y004720D02*
X056454Y004720D01*
X056454Y005025D02*
X056454Y005390D01*
X056576Y005512D01*
X056941Y005512D01*
X056819Y005938D02*
X056332Y005938D01*
X056454Y005817D02*
X056454Y006060D01*
X056576Y006345D02*
X056454Y006466D01*
X056454Y006710D01*
X056576Y006832D01*
X056941Y006832D01*
X056941Y007136D02*
X056454Y007136D01*
X056698Y007136D02*
X056454Y007380D01*
X056454Y007502D01*
X056576Y007796D02*
X056819Y007796D01*
X056941Y007918D01*
X056941Y008162D01*
X056819Y008283D01*
X056576Y008283D01*
X056454Y008162D01*
X056454Y007918D01*
X056576Y007796D01*
X056454Y008588D02*
X056454Y008832D01*
X056332Y008710D02*
X056819Y008710D01*
X056941Y008832D01*
X056819Y009116D02*
X056576Y009116D01*
X056454Y009238D01*
X056454Y009481D01*
X056576Y009603D01*
X056698Y009603D01*
X056698Y009116D01*
X056819Y009116D02*
X056941Y009238D01*
X056941Y009481D01*
X056941Y009908D02*
X056211Y009908D01*
X056454Y010273D02*
X056698Y009908D01*
X056941Y010273D01*
X056941Y006345D02*
X056211Y006345D01*
X056819Y005938D02*
X056941Y006060D01*
X056941Y005025D02*
X056454Y005025D01*
D14*
X057931Y005501D02*
X058022Y005410D01*
X058114Y005410D01*
X058206Y005501D01*
X058206Y005685D01*
X058298Y005777D01*
X058389Y005777D01*
X058481Y005685D01*
X058481Y005501D01*
X058389Y005410D01*
X058298Y005410D01*
X058206Y005501D01*
X058206Y005685D02*
X058114Y005777D01*
X058022Y005777D01*
X057931Y005685D01*
X057931Y005501D01*
X058206Y005132D02*
X058206Y004765D01*
X058298Y004488D02*
X058389Y004488D01*
X058481Y004396D01*
X058481Y004212D01*
X058389Y004121D01*
X058206Y004212D02*
X058206Y004396D01*
X058298Y004488D01*
X058022Y004488D02*
X057931Y004396D01*
X057931Y004212D01*
X058022Y004121D01*
X058114Y004121D01*
X058206Y004212D01*
X058389Y003843D02*
X058022Y003843D01*
X057931Y003751D01*
X057931Y003476D01*
X058481Y003476D01*
X058481Y003751D01*
X058389Y003843D01*
X058389Y006699D02*
X058022Y006699D01*
X057931Y006790D01*
X057931Y006974D01*
X058022Y007066D01*
X057931Y007343D02*
X057931Y007435D01*
X058481Y007435D01*
X058481Y007343D02*
X058481Y007527D01*
X058389Y007773D02*
X058206Y007773D01*
X058114Y007865D01*
X058114Y008048D01*
X058206Y008140D01*
X058389Y008140D01*
X058481Y008048D01*
X058481Y007865D01*
X058389Y007773D01*
X058389Y007066D02*
X058481Y006974D01*
X058481Y006790D01*
X058389Y006699D01*
X058481Y008417D02*
X058114Y008417D01*
X058114Y008693D01*
X058206Y008784D01*
X058481Y008784D01*
X058389Y009062D02*
X058206Y009062D01*
X058114Y009154D01*
X058114Y009337D01*
X058206Y009429D01*
X058298Y009429D01*
X058298Y009062D01*
X058389Y009062D02*
X058481Y009154D01*
X058481Y009337D01*
D15*
X009356Y001026D02*
X005506Y001026D01*
X005506Y004001D01*
X006241Y004001D01*
X008549Y004001D02*
X009356Y004001D01*
X009356Y001026D01*
X003656Y003626D02*
X003656Y003934D01*
X003656Y003626D02*
X000681Y003626D01*
X000681Y006426D01*
X003656Y006426D01*
X003656Y006031D01*
X002321Y005731D02*
X001971Y005731D01*
X002146Y005906D02*
X002146Y005551D01*
X002146Y004491D02*
X002146Y004141D01*
X058906Y004732D02*
X058906Y004799D01*
X059306Y004799D01*
X059306Y004732D02*
X059306Y004866D01*
X059239Y005039D02*
X059306Y005106D01*
X059306Y005239D01*
X059239Y005306D01*
X059106Y005306D01*
X059039Y005239D01*
X059039Y005106D01*
X059106Y005039D01*
X059239Y005039D01*
X059239Y005499D02*
X059306Y005566D01*
X059306Y005766D01*
X059373Y005766D02*
X059039Y005766D01*
X059039Y005566D01*
X059106Y005499D01*
X059239Y005499D01*
X059440Y005633D02*
X059440Y005700D01*
X059373Y005766D01*
X059306Y006420D02*
X058906Y006420D01*
X058906Y006620D01*
X058973Y006687D01*
X059239Y006687D01*
X059306Y006620D01*
X059306Y006420D01*
X059306Y006880D02*
X059039Y006880D01*
X059173Y006880D02*
X059039Y007014D01*
X059039Y007081D01*
X059039Y007264D02*
X059239Y007264D01*
X059306Y007331D01*
X059306Y007531D01*
X059039Y007531D01*
X059039Y007724D02*
X059039Y007791D01*
X059106Y007858D01*
X059039Y007925D01*
X059106Y007991D01*
X059306Y007991D01*
X059306Y007858D02*
X059106Y007858D01*
X059039Y007724D02*
X059306Y007724D01*
X059239Y008645D02*
X059306Y008712D01*
X059306Y008845D01*
X059239Y008912D01*
X059173Y008912D01*
X059106Y008845D01*
X059106Y008712D01*
X059039Y008645D01*
X058973Y008645D01*
X058906Y008712D01*
X058906Y008845D01*
X058973Y008912D01*
X059039Y009105D02*
X059239Y009105D01*
X059306Y009172D01*
X059306Y009372D01*
X059373Y009372D02*
X059440Y009306D01*
X059440Y009239D01*
X059373Y009372D02*
X059039Y009372D01*
X059039Y009566D02*
X059039Y009766D01*
X059106Y009833D01*
X059306Y009833D01*
X059306Y009566D02*
X059039Y009566D01*
X059039Y010026D02*
X059039Y010160D01*
X058973Y010093D02*
X059239Y010093D01*
X059306Y010160D01*
X059306Y010333D02*
X058906Y010333D01*
X059039Y010400D02*
X059039Y010533D01*
X059106Y010600D01*
X059306Y010600D01*
X059106Y010333D02*
X059039Y010400D01*
X059106Y004539D02*
X059306Y004539D01*
X059306Y004338D01*
X059239Y004272D01*
X059173Y004338D01*
X059173Y004539D01*
X059106Y004539D02*
X059039Y004472D01*
X059039Y004338D01*
X059106Y004078D02*
X059306Y004078D01*
X059106Y004078D02*
X059039Y004012D01*
X059039Y003811D01*
X059306Y003811D01*
X059306Y003618D02*
X059039Y003618D01*
X058906Y003484D01*
X059039Y003351D01*
X059306Y003351D01*
X059106Y003351D02*
X059106Y003618D01*
D16*
X059681Y002776D02*
X057431Y002776D01*
X055931Y002776D01*
X055931Y011026D01*
X059681Y011026D01*
X057431Y011026D02*
X057431Y002776D01*
D17*
X008729Y002616D02*
X008729Y002546D01*
X008694Y002511D01*
X008589Y002511D01*
X008589Y002441D02*
X008589Y002651D01*
X008694Y002651D01*
X008729Y002616D01*
X007504Y002616D02*
X007469Y002651D01*
X007399Y002651D01*
X007364Y002616D01*
X007364Y002476D01*
X007399Y002441D01*
X007469Y002441D01*
X007504Y002476D01*
X006269Y002476D02*
X006234Y002441D01*
X006164Y002441D01*
X006129Y002476D01*
X006164Y002546D02*
X006234Y002546D01*
X006269Y002511D01*
X006269Y002476D01*
X006164Y002546D02*
X006129Y002581D01*
X006129Y002616D01*
X006164Y002651D01*
X006234Y002651D01*
X006269Y002616D01*
X006681Y003934D02*
X006786Y003934D01*
X006821Y003969D01*
X006821Y004109D01*
X006786Y004144D01*
X006681Y004144D01*
X006681Y003934D01*
X006902Y003969D02*
X006937Y003934D01*
X007007Y003934D01*
X007042Y003969D01*
X007042Y004109D02*
X007007Y004144D01*
X006937Y004144D01*
X006902Y004109D01*
X006902Y003969D01*
X007344Y003969D02*
X007379Y003934D01*
X007414Y003934D01*
X007449Y003969D01*
X007449Y004144D01*
X007414Y004144D02*
X007484Y004144D01*
X007600Y004074D02*
X007670Y004074D01*
X007705Y004039D01*
X007705Y003934D01*
X007600Y003934D01*
X007565Y003969D01*
X007600Y004004D01*
X007705Y004004D01*
X007786Y004039D02*
X007786Y003969D01*
X007821Y003934D01*
X007926Y003934D01*
X008007Y003934D02*
X008007Y004144D01*
X007926Y004074D02*
X007821Y004074D01*
X007786Y004039D01*
X008007Y004004D02*
X008112Y004074D01*
X008007Y004004D02*
X008112Y003934D01*
X006796Y014541D02*
X006796Y014788D01*
X006796Y014909D02*
X006796Y015095D01*
X006858Y015156D01*
X006981Y015156D01*
X007043Y015095D01*
X007043Y014909D01*
X007166Y014909D02*
X006796Y014909D01*
X006796Y014664D02*
X007166Y014664D01*
X007043Y015033D02*
X007166Y015156D01*
X007166Y015278D02*
X007166Y015401D01*
X007166Y015339D02*
X006796Y015339D01*
X006796Y015278D02*
X006796Y015401D01*
X006858Y015523D02*
X007104Y015523D01*
X007166Y015585D01*
X007166Y015708D01*
X007104Y015770D01*
X006981Y015770D01*
X006981Y015647D01*
X006858Y015770D02*
X006796Y015708D01*
X006796Y015585D01*
X006858Y015523D01*
X006858Y015891D02*
X007104Y015891D01*
X007166Y015953D01*
X007166Y016077D01*
X007104Y016138D01*
X006981Y016138D01*
X006981Y016015D01*
X006858Y016138D02*
X006796Y016077D01*
X006796Y015953D01*
X006858Y015891D01*
X006796Y016260D02*
X007166Y016260D01*
X007166Y016507D01*
X007166Y016628D02*
X006796Y016628D01*
X006796Y016813D01*
X006858Y016875D01*
X006981Y016875D01*
X007043Y016813D01*
X007043Y016628D01*
X007043Y016752D02*
X007166Y016875D01*
X006796Y016507D02*
X006796Y016260D01*
X006981Y016260D02*
X006981Y016383D01*
X004666Y016264D02*
X004419Y016264D01*
X004296Y016388D01*
X004419Y016511D01*
X004666Y016511D01*
X004666Y016633D02*
X004666Y016879D01*
X004666Y016633D02*
X004296Y016633D01*
X004481Y016511D02*
X004481Y016264D01*
X004604Y016143D02*
X004296Y016143D01*
X004296Y015896D02*
X004604Y015896D01*
X004666Y015958D01*
X004666Y016081D01*
X004604Y016143D01*
X004666Y015775D02*
X004296Y015775D01*
X004296Y015528D02*
X004666Y015775D01*
X004666Y015528D02*
X004296Y015528D01*
X004419Y015406D02*
X004666Y015406D01*
X004481Y015406D02*
X004481Y015159D01*
X004419Y015159D02*
X004296Y015283D01*
X004419Y015406D01*
X004419Y015159D02*
X004666Y015159D01*
X004666Y015038D02*
X004296Y015038D01*
X004419Y014914D01*
X004296Y014791D01*
X004666Y014791D01*
D18*
X003931Y014026D02*
X002181Y014026D01*
X002181Y017526D01*
X003931Y017526D01*
X003931Y014026D01*
X006631Y009651D02*
X007781Y009601D01*
X007881Y009501D01*
X007881Y005801D01*
X007781Y005701D01*
X006631Y005651D01*
X007541Y005881D02*
X007543Y005901D01*
X007549Y005919D01*
X007558Y005937D01*
X007570Y005952D01*
X007585Y005964D01*
X007603Y005973D01*
X007621Y005979D01*
X007641Y005981D01*
X007661Y005979D01*
X007679Y005973D01*
X007697Y005964D01*
X007712Y005952D01*
X007724Y005937D01*
X007733Y005919D01*
X007739Y005901D01*
X007741Y005881D01*
X007739Y005861D01*
X007733Y005843D01*
X007724Y005825D01*
X007712Y005810D01*
X007697Y005798D01*
X007679Y005789D01*
X007661Y005783D01*
X007641Y005781D01*
X007621Y005783D01*
X007603Y005789D01*
X007585Y005798D01*
X007570Y005810D01*
X007558Y005825D01*
X007549Y005843D01*
X007543Y005861D01*
X007541Y005881D01*
X015681Y003276D02*
X019181Y003276D01*
X019181Y001526D01*
X015681Y001526D01*
X015681Y003276D01*
X057931Y013026D02*
X057931Y016526D01*
X059681Y016526D01*
X059681Y013026D01*
X057931Y013026D01*
D19*
X006331Y007651D03*
D20*
X006581Y009376D03*
X006581Y005926D03*
D21*
X006581Y007151D03*
X006581Y008151D03*
D22*
X015931Y007207D03*
X017181Y007207D03*
X018431Y007207D03*
X019681Y007207D03*
X020931Y007207D03*
X022181Y007207D03*
X023431Y007207D03*
X023431Y004845D03*
X022181Y004845D03*
X020931Y004845D03*
X019681Y004845D03*
X018431Y004845D03*
X017181Y004845D03*
X015931Y004845D03*
X015931Y009845D03*
X017181Y009845D03*
X018431Y009845D03*
X019681Y009845D03*
X020931Y009845D03*
X022181Y009845D03*
X022181Y012207D03*
X020931Y012207D03*
X019681Y012207D03*
X018431Y012207D03*
X017181Y012207D03*
X015931Y012207D03*
X009656Y014295D03*
X008256Y014295D03*
X008256Y016657D03*
X009656Y016657D03*
X029931Y011957D03*
X031181Y011957D03*
X032431Y011957D03*
X032431Y009595D03*
X031181Y009595D03*
X029931Y009595D03*
X029931Y006957D03*
X031181Y006957D03*
X032431Y006957D03*
X035931Y006957D03*
X035931Y004595D03*
X032431Y004595D03*
X031181Y004595D03*
X029931Y004595D03*
X041931Y003595D03*
X041931Y005957D03*
X046931Y009095D03*
X047931Y009095D03*
X049181Y009095D03*
X049181Y011457D03*
X047931Y011457D03*
X046931Y011457D03*
D23*
X013781Y015276D03*
D24*
X014101Y015276D02*
X014131Y015276D01*
X012161Y015276D02*
X012131Y015276D01*
X020031Y014531D02*
X020031Y014501D01*
X020031Y016471D02*
X020031Y016501D01*
X035931Y011776D02*
X035931Y011476D01*
X035931Y010776D02*
X035831Y010776D01*
X035931Y010076D02*
X035931Y009776D01*
X037681Y009776D02*
X037681Y010076D01*
X037681Y010776D02*
X037781Y010776D01*
X037681Y011476D02*
X037681Y011776D01*
X027681Y002526D02*
X027381Y002526D01*
X026681Y002526D02*
X026681Y002426D01*
X025981Y002526D02*
X025681Y002526D01*
D25*
X023362Y002526D03*
X021000Y002526D03*
X025500Y004526D03*
X027862Y004526D03*
X014112Y004401D03*
X011750Y004401D03*
X025500Y015026D03*
X027862Y015026D03*
X032250Y017276D03*
X034612Y017276D03*
X038885Y017255D03*
X039000Y016026D03*
X041362Y016026D03*
X041248Y017255D03*
X046000Y017276D03*
X046000Y016276D03*
X046000Y015276D03*
X048362Y015276D03*
X048362Y016276D03*
X048362Y017276D03*
X051712Y017069D03*
X054074Y017069D03*
X041362Y014776D03*
X039000Y014776D03*
X039000Y013526D03*
X041362Y013526D03*
X050250Y006526D03*
X052612Y006526D03*
X014362Y016451D03*
X014312Y017501D03*
X011950Y017501D03*
X012000Y016451D03*
D26*
X020031Y016151D03*
D27*
X026672Y016378D02*
X026672Y016628D01*
X026672Y016878D01*
X026922Y016878D02*
X026922Y016628D01*
X026922Y016378D01*
X026811Y013776D02*
X026811Y013526D01*
X026811Y013276D01*
X026561Y013276D02*
X026561Y013526D01*
X026561Y013776D01*
X033681Y010896D02*
X033931Y010896D01*
X034181Y010896D01*
X034181Y010646D02*
X033931Y010646D01*
X033681Y010646D01*
X038801Y007776D02*
X038801Y007526D01*
X038801Y007276D01*
X039051Y007276D02*
X039051Y007526D01*
X039051Y007776D01*
X040811Y009026D02*
X040811Y009276D01*
X040811Y009526D01*
X041061Y009526D02*
X041061Y009276D01*
X041061Y009026D01*
X041051Y010776D02*
X041051Y011026D01*
X041051Y011276D01*
X040801Y011276D02*
X040801Y011026D01*
X040801Y010776D01*
X034431Y005896D02*
X034181Y005896D01*
X033931Y005896D01*
X033931Y005646D02*
X034181Y005646D01*
X034431Y005646D01*
X043431Y002896D02*
X043681Y002896D01*
X043931Y002896D01*
X043931Y002646D02*
X043681Y002646D01*
X043431Y002646D01*
X044833Y001201D02*
X051030Y001201D01*
X051030Y004351D01*
X044833Y004351D01*
X044833Y001201D01*
X051931Y002646D02*
X052181Y002646D01*
X052431Y002646D01*
X052431Y002896D02*
X052181Y002896D01*
X051931Y002896D01*
X051811Y012276D02*
X051811Y012526D01*
X051811Y012776D01*
X051561Y012776D02*
X051561Y012526D01*
X051561Y012276D01*
X013061Y013276D02*
X013061Y013526D01*
X013061Y013776D01*
X012811Y013776D02*
X012811Y013526D01*
X012811Y013276D01*
X007356Y013603D02*
X004206Y013603D01*
X004206Y017874D01*
X007356Y017874D01*
X007356Y013603D01*
X005506Y013374D02*
X005506Y007178D01*
X002356Y007178D01*
X002356Y013374D01*
X005506Y013374D01*
X009681Y009646D02*
X009931Y009646D01*
X010181Y009646D01*
X010181Y009396D02*
X009931Y009396D01*
X009681Y009396D01*
D28*
X012276Y003308D02*
X012330Y003236D01*
X012329Y003237D02*
X012276Y003194D01*
X012225Y003149D01*
X012177Y003100D01*
X012132Y003049D01*
X012089Y002995D01*
X012050Y002939D01*
X012014Y002881D01*
X011981Y002821D01*
X011952Y002760D01*
X011927Y002696D01*
X011905Y002632D01*
X011886Y002566D01*
X011872Y002499D01*
X011861Y002432D01*
X011854Y002364D01*
X011851Y002296D01*
X011852Y002227D01*
X011857Y002159D01*
X011865Y002091D01*
X011878Y002024D01*
X011894Y001958D01*
X011914Y001893D01*
X011937Y001828D01*
X011964Y001766D01*
X011995Y001705D01*
X012029Y001646D01*
X012066Y001588D01*
X012107Y001533D01*
X012151Y001481D01*
X012197Y001431D01*
X012246Y001384D01*
X012298Y001339D01*
X012352Y001298D01*
X012409Y001259D01*
X012468Y001224D01*
X012528Y001193D01*
X012590Y001165D01*
X012654Y001140D01*
X012719Y001119D01*
X012785Y001102D01*
X012852Y001088D01*
X012920Y001079D01*
X012988Y001073D01*
X013056Y001071D01*
X013124Y001073D01*
X013192Y001079D01*
X013260Y001088D01*
X013327Y001102D01*
X013393Y001119D01*
X013458Y001140D01*
X013522Y001165D01*
X013584Y001193D01*
X013644Y001224D01*
X013703Y001259D01*
X013760Y001298D01*
X013814Y001339D01*
X013866Y001384D01*
X013915Y001431D01*
X013961Y001481D01*
X014005Y001533D01*
X014046Y001588D01*
X014083Y001646D01*
X014117Y001705D01*
X014148Y001766D01*
X014175Y001828D01*
X014198Y001893D01*
X014218Y001958D01*
X014234Y002024D01*
X014247Y002091D01*
X014255Y002159D01*
X014260Y002227D01*
X014261Y002296D01*
X014258Y002364D01*
X014251Y002432D01*
X014240Y002499D01*
X014226Y002566D01*
X014207Y002632D01*
X014185Y002696D01*
X014160Y002760D01*
X014131Y002821D01*
X014098Y002881D01*
X014062Y002939D01*
X014023Y002995D01*
X013980Y003049D01*
X013935Y003100D01*
X013887Y003149D01*
X013836Y003194D01*
X013783Y003237D01*
X013836Y003308D01*
X013837Y003309D01*
X013892Y003265D01*
X013945Y003217D01*
X013996Y003167D01*
X014043Y003114D01*
X014087Y003059D01*
X014129Y003001D01*
X014167Y002941D01*
X014202Y002880D01*
X014233Y002816D01*
X014261Y002751D01*
X014285Y002684D01*
X014306Y002616D01*
X014322Y002547D01*
X014335Y002477D01*
X014344Y002407D01*
X014350Y002336D01*
X014351Y002265D01*
X014348Y002194D01*
X014342Y002123D01*
X014332Y002053D01*
X014318Y001984D01*
X014300Y001915D01*
X014278Y001847D01*
X014253Y001781D01*
X014224Y001716D01*
X014191Y001653D01*
X014155Y001592D01*
X014116Y001533D01*
X014074Y001476D01*
X014029Y001421D01*
X013980Y001369D01*
X013929Y001320D01*
X013876Y001273D01*
X013819Y001230D01*
X013761Y001190D01*
X013700Y001153D01*
X013638Y001119D01*
X013574Y001089D01*
X013508Y001062D01*
X013441Y001039D01*
X013372Y001020D01*
X013303Y001005D01*
X013233Y000993D01*
X013162Y000985D01*
X013091Y000981D01*
X013021Y000981D01*
X012950Y000985D01*
X012879Y000993D01*
X012809Y001005D01*
X012740Y001020D01*
X012671Y001039D01*
X012604Y001062D01*
X012538Y001089D01*
X012474Y001119D01*
X012412Y001153D01*
X012351Y001190D01*
X012293Y001230D01*
X012236Y001273D01*
X012183Y001320D01*
X012132Y001369D01*
X012083Y001421D01*
X012038Y001476D01*
X011996Y001533D01*
X011957Y001592D01*
X011921Y001653D01*
X011888Y001716D01*
X011859Y001781D01*
X011834Y001847D01*
X011812Y001915D01*
X011794Y001984D01*
X011780Y002053D01*
X011770Y002123D01*
X011764Y002194D01*
X011761Y002265D01*
X011762Y002336D01*
X011768Y002407D01*
X011777Y002477D01*
X011790Y002547D01*
X011806Y002616D01*
X011827Y002684D01*
X011851Y002751D01*
X011879Y002816D01*
X011910Y002880D01*
X011945Y002941D01*
X011983Y003001D01*
X012025Y003059D01*
X012069Y003114D01*
X012116Y003167D01*
X012167Y003217D01*
X012220Y003265D01*
X012275Y003309D01*
X012280Y003302D01*
X012225Y003257D01*
X012172Y003210D01*
X012121Y003159D01*
X012074Y003106D01*
X012029Y003050D01*
X011988Y002992D01*
X011950Y002932D01*
X011915Y002870D01*
X011884Y002806D01*
X011857Y002740D01*
X011833Y002673D01*
X011813Y002604D01*
X011796Y002535D01*
X011784Y002465D01*
X011775Y002394D01*
X011771Y002323D01*
X011770Y002252D01*
X011774Y002181D01*
X011781Y002110D01*
X011792Y002039D01*
X011807Y001970D01*
X011826Y001901D01*
X011849Y001833D01*
X011875Y001767D01*
X011905Y001702D01*
X011939Y001640D01*
X011975Y001579D01*
X012016Y001520D01*
X012059Y001463D01*
X012106Y001409D01*
X012155Y001358D01*
X012208Y001310D01*
X012262Y001264D01*
X012320Y001222D01*
X012379Y001183D01*
X012441Y001147D01*
X012504Y001114D01*
X012569Y001086D01*
X012636Y001060D01*
X012704Y001039D01*
X012773Y001021D01*
X012843Y001008D01*
X012914Y000998D01*
X012985Y000992D01*
X013056Y000990D01*
X013127Y000992D01*
X013198Y000998D01*
X013269Y001008D01*
X013339Y001021D01*
X013408Y001039D01*
X013476Y001060D01*
X013543Y001086D01*
X013608Y001114D01*
X013671Y001147D01*
X013733Y001183D01*
X013792Y001222D01*
X013850Y001264D01*
X013904Y001310D01*
X013957Y001358D01*
X014006Y001409D01*
X014053Y001463D01*
X014096Y001520D01*
X014137Y001579D01*
X014173Y001640D01*
X014207Y001702D01*
X014237Y001767D01*
X014263Y001833D01*
X014286Y001901D01*
X014305Y001970D01*
X014320Y002039D01*
X014331Y002110D01*
X014338Y002181D01*
X014342Y002252D01*
X014341Y002323D01*
X014337Y002394D01*
X014328Y002465D01*
X014316Y002535D01*
X014299Y002604D01*
X014279Y002673D01*
X014255Y002740D01*
X014228Y002806D01*
X014197Y002870D01*
X014162Y002932D01*
X014124Y002992D01*
X014083Y003050D01*
X014038Y003106D01*
X013991Y003159D01*
X013940Y003210D01*
X013887Y003257D01*
X013832Y003302D01*
X013826Y003295D01*
X013881Y003250D01*
X013934Y003203D01*
X013984Y003153D01*
X014031Y003100D01*
X014075Y003045D01*
X014117Y002987D01*
X014154Y002928D01*
X014189Y002866D01*
X014220Y002802D01*
X014247Y002737D01*
X014271Y002670D01*
X014291Y002602D01*
X014307Y002533D01*
X014319Y002464D01*
X014328Y002393D01*
X014332Y002323D01*
X014333Y002252D01*
X014329Y002181D01*
X014322Y002111D01*
X014311Y002041D01*
X014296Y001972D01*
X014277Y001904D01*
X014255Y001836D01*
X014229Y001771D01*
X014199Y001706D01*
X014166Y001644D01*
X014129Y001584D01*
X014089Y001525D01*
X014046Y001469D01*
X014000Y001415D01*
X013950Y001365D01*
X013899Y001316D01*
X013844Y001271D01*
X013787Y001229D01*
X013728Y001190D01*
X013667Y001155D01*
X013604Y001122D01*
X013539Y001094D01*
X013473Y001069D01*
X013405Y001048D01*
X013337Y001030D01*
X013267Y001017D01*
X013197Y001007D01*
X013127Y001001D01*
X013056Y000999D01*
X012985Y001001D01*
X012915Y001007D01*
X012845Y001017D01*
X012775Y001030D01*
X012707Y001048D01*
X012639Y001069D01*
X012573Y001094D01*
X012508Y001122D01*
X012445Y001155D01*
X012384Y001190D01*
X012325Y001229D01*
X012268Y001271D01*
X012213Y001316D01*
X012162Y001365D01*
X012112Y001415D01*
X012066Y001469D01*
X012023Y001525D01*
X011983Y001584D01*
X011946Y001644D01*
X011913Y001706D01*
X011883Y001771D01*
X011857Y001836D01*
X011835Y001904D01*
X011816Y001972D01*
X011801Y002041D01*
X011790Y002111D01*
X011783Y002181D01*
X011779Y002252D01*
X011780Y002323D01*
X011784Y002393D01*
X011793Y002464D01*
X011805Y002533D01*
X011821Y002602D01*
X011841Y002670D01*
X011865Y002737D01*
X011892Y002802D01*
X011923Y002866D01*
X011958Y002928D01*
X011995Y002987D01*
X012037Y003045D01*
X012081Y003100D01*
X012128Y003153D01*
X012178Y003203D01*
X012231Y003250D01*
X012286Y003295D01*
X012291Y003287D01*
X012236Y003243D01*
X012183Y003195D01*
X012133Y003145D01*
X012085Y003092D01*
X012041Y003036D01*
X012000Y002978D01*
X011963Y002918D01*
X011928Y002856D01*
X011898Y002792D01*
X011871Y002726D01*
X011847Y002659D01*
X011828Y002591D01*
X011812Y002521D01*
X011800Y002451D01*
X011792Y002381D01*
X011788Y002310D01*
X011789Y002239D01*
X011793Y002168D01*
X011801Y002097D01*
X011813Y002027D01*
X011829Y001958D01*
X011848Y001890D01*
X011872Y001822D01*
X011899Y001757D01*
X011930Y001693D01*
X011964Y001631D01*
X012002Y001571D01*
X012044Y001513D01*
X012088Y001457D01*
X012135Y001404D01*
X012186Y001354D01*
X012239Y001307D01*
X012294Y001262D01*
X012352Y001221D01*
X012412Y001184D01*
X012475Y001149D01*
X012539Y001118D01*
X012604Y001091D01*
X012671Y001068D01*
X012740Y001048D01*
X012809Y001032D01*
X012879Y001020D01*
X012950Y001012D01*
X013020Y001008D01*
X013092Y001008D01*
X013162Y001012D01*
X013233Y001020D01*
X013303Y001032D01*
X013372Y001048D01*
X013441Y001068D01*
X013508Y001091D01*
X013573Y001118D01*
X013637Y001149D01*
X013700Y001184D01*
X013760Y001221D01*
X013818Y001262D01*
X013873Y001307D01*
X013926Y001354D01*
X013977Y001404D01*
X014024Y001457D01*
X014068Y001513D01*
X014110Y001571D01*
X014148Y001631D01*
X014182Y001693D01*
X014213Y001757D01*
X014240Y001822D01*
X014264Y001890D01*
X014283Y001958D01*
X014299Y002027D01*
X014311Y002097D01*
X014319Y002168D01*
X014323Y002239D01*
X014324Y002310D01*
X014320Y002381D01*
X014312Y002451D01*
X014300Y002521D01*
X014284Y002591D01*
X014265Y002659D01*
X014241Y002726D01*
X014214Y002792D01*
X014184Y002856D01*
X014149Y002918D01*
X014112Y002978D01*
X014071Y003036D01*
X014027Y003092D01*
X013979Y003145D01*
X013929Y003195D01*
X013876Y003243D01*
X013821Y003287D01*
X013815Y003280D01*
X013870Y003236D01*
X013923Y003189D01*
X013973Y003139D01*
X014020Y003086D01*
X014064Y003031D01*
X014104Y002973D01*
X014142Y002914D01*
X014176Y002852D01*
X014206Y002788D01*
X014233Y002723D01*
X014256Y002656D01*
X014276Y002588D01*
X014291Y002520D01*
X014303Y002450D01*
X014311Y002380D01*
X014315Y002309D01*
X014314Y002239D01*
X014310Y002168D01*
X014302Y002098D01*
X014290Y002029D01*
X014275Y001960D01*
X014255Y001892D01*
X014232Y001826D01*
X014205Y001761D01*
X014174Y001697D01*
X014140Y001635D01*
X014102Y001576D01*
X014061Y001518D01*
X014017Y001463D01*
X013970Y001410D01*
X013920Y001361D01*
X013868Y001314D01*
X013812Y001270D01*
X013755Y001229D01*
X013695Y001191D01*
X013633Y001157D01*
X013570Y001127D01*
X013505Y001100D01*
X013438Y001076D01*
X013370Y001057D01*
X013301Y001041D01*
X013232Y001029D01*
X013162Y001021D01*
X013091Y001017D01*
X013021Y001017D01*
X012950Y001021D01*
X012880Y001029D01*
X012811Y001041D01*
X012742Y001057D01*
X012674Y001076D01*
X012607Y001100D01*
X012542Y001127D01*
X012479Y001157D01*
X012417Y001191D01*
X012357Y001229D01*
X012300Y001270D01*
X012244Y001314D01*
X012192Y001361D01*
X012142Y001410D01*
X012095Y001463D01*
X012051Y001518D01*
X012010Y001576D01*
X011972Y001635D01*
X011938Y001697D01*
X011907Y001761D01*
X011880Y001826D01*
X011857Y001892D01*
X011837Y001960D01*
X011822Y002029D01*
X011810Y002098D01*
X011802Y002168D01*
X011798Y002239D01*
X011797Y002309D01*
X011801Y002380D01*
X011809Y002450D01*
X011821Y002520D01*
X011836Y002588D01*
X011856Y002656D01*
X011879Y002723D01*
X011906Y002788D01*
X011936Y002852D01*
X011970Y002914D01*
X012008Y002973D01*
X012048Y003031D01*
X012092Y003086D01*
X012139Y003139D01*
X012189Y003189D01*
X012242Y003236D01*
X012297Y003280D01*
X012302Y003273D01*
X012247Y003229D01*
X012195Y003182D01*
X012146Y003133D01*
X012099Y003080D01*
X012056Y003026D01*
X012015Y002968D01*
X011978Y002909D01*
X011944Y002848D01*
X011914Y002784D01*
X011887Y002720D01*
X011864Y002653D01*
X011845Y002586D01*
X011830Y002518D01*
X011818Y002449D01*
X011810Y002379D01*
X011806Y002309D01*
X011807Y002239D01*
X011811Y002169D01*
X011819Y002100D01*
X011830Y002031D01*
X011846Y001962D01*
X011865Y001895D01*
X011889Y001829D01*
X011916Y001764D01*
X011946Y001701D01*
X011980Y001640D01*
X012017Y001581D01*
X012058Y001523D01*
X012102Y001469D01*
X012148Y001417D01*
X012198Y001367D01*
X012250Y001320D01*
X012305Y001277D01*
X012362Y001236D01*
X012421Y001199D01*
X012483Y001165D01*
X012546Y001135D01*
X012611Y001108D01*
X012677Y001085D01*
X012744Y001066D01*
X012812Y001050D01*
X012881Y001038D01*
X012951Y001030D01*
X013021Y001026D01*
X013091Y001026D01*
X013161Y001030D01*
X013231Y001038D01*
X013300Y001050D01*
X013368Y001066D01*
X013435Y001085D01*
X013501Y001108D01*
X013566Y001135D01*
X013629Y001165D01*
X013691Y001199D01*
X013750Y001236D01*
X013807Y001277D01*
X013862Y001320D01*
X013914Y001367D01*
X013964Y001417D01*
X014010Y001469D01*
X014054Y001523D01*
X014095Y001581D01*
X014132Y001640D01*
X014166Y001701D01*
X014196Y001764D01*
X014223Y001829D01*
X014247Y001895D01*
X014266Y001962D01*
X014282Y002031D01*
X014293Y002100D01*
X014301Y002169D01*
X014305Y002239D01*
X014306Y002309D01*
X014302Y002379D01*
X014294Y002449D01*
X014282Y002518D01*
X014267Y002586D01*
X014248Y002653D01*
X014225Y002720D01*
X014198Y002784D01*
X014168Y002848D01*
X014134Y002909D01*
X014097Y002968D01*
X014056Y003026D01*
X014013Y003080D01*
X013966Y003133D01*
X013917Y003182D01*
X013865Y003229D01*
X013810Y003273D01*
X013805Y003266D01*
X013859Y003222D01*
X013911Y003176D01*
X013960Y003127D01*
X014006Y003075D01*
X014049Y003020D01*
X014089Y002963D01*
X014126Y002904D01*
X014160Y002843D01*
X014190Y002781D01*
X014216Y002716D01*
X014239Y002651D01*
X014258Y002584D01*
X014274Y002516D01*
X014285Y002447D01*
X014293Y002378D01*
X014297Y002309D01*
X014296Y002239D01*
X014292Y002170D01*
X014285Y002101D01*
X014273Y002032D01*
X014257Y001965D01*
X014238Y001898D01*
X014215Y001832D01*
X014188Y001768D01*
X014158Y001705D01*
X014124Y001644D01*
X014087Y001586D01*
X014047Y001529D01*
X014004Y001475D01*
X013957Y001423D01*
X013908Y001374D01*
X013856Y001327D01*
X013802Y001284D01*
X013745Y001244D01*
X013686Y001207D01*
X013625Y001173D01*
X013562Y001143D01*
X013498Y001116D01*
X013433Y001093D01*
X013366Y001074D01*
X013298Y001059D01*
X013229Y001047D01*
X013160Y001039D01*
X013091Y001035D01*
X013021Y001035D01*
X012952Y001039D01*
X012883Y001047D01*
X012814Y001059D01*
X012746Y001074D01*
X012679Y001093D01*
X012614Y001116D01*
X012550Y001143D01*
X012487Y001173D01*
X012426Y001207D01*
X012367Y001244D01*
X012310Y001284D01*
X012256Y001327D01*
X012204Y001374D01*
X012155Y001423D01*
X012108Y001475D01*
X012065Y001529D01*
X012025Y001586D01*
X011988Y001644D01*
X011954Y001705D01*
X011924Y001768D01*
X011897Y001832D01*
X011874Y001898D01*
X011855Y001965D01*
X011839Y002032D01*
X011827Y002101D01*
X011820Y002170D01*
X011816Y002239D01*
X011815Y002309D01*
X011819Y002378D01*
X011827Y002447D01*
X011838Y002516D01*
X011854Y002584D01*
X011873Y002651D01*
X011896Y002716D01*
X011922Y002781D01*
X011952Y002843D01*
X011986Y002904D01*
X012023Y002963D01*
X012063Y003020D01*
X012106Y003075D01*
X012152Y003127D01*
X012201Y003176D01*
X012253Y003222D01*
X012307Y003266D01*
X012313Y003259D01*
X012259Y003215D01*
X012208Y003169D01*
X012159Y003120D01*
X012113Y003069D01*
X012070Y003015D01*
X012030Y002958D01*
X011994Y002900D01*
X011960Y002839D01*
X011930Y002777D01*
X011904Y002713D01*
X011882Y002648D01*
X011863Y002582D01*
X011847Y002514D01*
X011836Y002446D01*
X011828Y002378D01*
X011824Y002309D01*
X011825Y002240D01*
X011829Y002171D01*
X011836Y002102D01*
X011848Y002034D01*
X011863Y001967D01*
X011883Y001900D01*
X011906Y001835D01*
X011932Y001772D01*
X011962Y001709D01*
X011995Y001649D01*
X012032Y001591D01*
X012072Y001534D01*
X012115Y001480D01*
X012161Y001429D01*
X012210Y001380D01*
X012262Y001334D01*
X012316Y001291D01*
X012372Y001251D01*
X012431Y001215D01*
X012491Y001181D01*
X012553Y001151D01*
X012617Y001125D01*
X012682Y001102D01*
X012749Y001083D01*
X012816Y001068D01*
X012884Y001056D01*
X012953Y001048D01*
X013021Y001044D01*
X013091Y001044D01*
X013159Y001048D01*
X013228Y001056D01*
X013296Y001068D01*
X013363Y001083D01*
X013430Y001102D01*
X013495Y001125D01*
X013559Y001151D01*
X013621Y001181D01*
X013681Y001215D01*
X013740Y001251D01*
X013796Y001291D01*
X013850Y001334D01*
X013902Y001380D01*
X013951Y001429D01*
X013997Y001480D01*
X014040Y001534D01*
X014080Y001591D01*
X014117Y001649D01*
X014150Y001709D01*
X014180Y001772D01*
X014206Y001835D01*
X014229Y001900D01*
X014249Y001967D01*
X014264Y002034D01*
X014276Y002102D01*
X014283Y002171D01*
X014287Y002240D01*
X014288Y002309D01*
X014284Y002378D01*
X014276Y002446D01*
X014265Y002514D01*
X014249Y002582D01*
X014230Y002648D01*
X014208Y002713D01*
X014182Y002777D01*
X014152Y002839D01*
X014118Y002900D01*
X014082Y002958D01*
X014042Y003015D01*
X013999Y003069D01*
X013953Y003120D01*
X013904Y003169D01*
X013853Y003215D01*
X013799Y003259D01*
X013794Y003251D01*
X013848Y003208D01*
X013899Y003162D01*
X013948Y003112D01*
X013994Y003061D01*
X014037Y003006D01*
X014077Y002949D01*
X014113Y002891D01*
X014147Y002830D01*
X014176Y002767D01*
X014202Y002703D01*
X014224Y002637D01*
X014243Y002570D01*
X014258Y002503D01*
X014269Y002434D01*
X014276Y002365D01*
X014279Y002296D01*
X014278Y002227D01*
X014273Y002157D01*
X014265Y002089D01*
X014252Y002021D01*
X014236Y001953D01*
X014215Y001887D01*
X014192Y001822D01*
X014164Y001758D01*
X014133Y001696D01*
X014098Y001636D01*
X014060Y001578D01*
X014019Y001522D01*
X013975Y001469D01*
X013928Y001418D01*
X013878Y001370D01*
X013825Y001325D01*
X013770Y001283D01*
X013713Y001244D01*
X013653Y001209D01*
X013592Y001177D01*
X013529Y001148D01*
X013464Y001123D01*
X013398Y001102D01*
X013331Y001084D01*
X013263Y001071D01*
X013194Y001061D01*
X013125Y001055D01*
X013056Y001053D01*
X012987Y001055D01*
X012918Y001061D01*
X012849Y001071D01*
X012781Y001084D01*
X012714Y001102D01*
X012648Y001123D01*
X012583Y001148D01*
X012520Y001177D01*
X012459Y001209D01*
X012399Y001244D01*
X012342Y001283D01*
X012287Y001325D01*
X012234Y001370D01*
X012184Y001418D01*
X012137Y001469D01*
X012093Y001522D01*
X012052Y001578D01*
X012014Y001636D01*
X011979Y001696D01*
X011948Y001758D01*
X011920Y001822D01*
X011897Y001887D01*
X011876Y001953D01*
X011860Y002021D01*
X011847Y002089D01*
X011839Y002157D01*
X011834Y002227D01*
X011833Y002296D01*
X011836Y002365D01*
X011843Y002434D01*
X011854Y002503D01*
X011869Y002570D01*
X011888Y002637D01*
X011910Y002703D01*
X011936Y002767D01*
X011965Y002830D01*
X011999Y002891D01*
X012035Y002949D01*
X012075Y003006D01*
X012118Y003061D01*
X012164Y003112D01*
X012213Y003162D01*
X012264Y003208D01*
X012318Y003251D01*
X012324Y003244D01*
X012270Y003201D01*
X012219Y003155D01*
X012170Y003106D01*
X012125Y003055D01*
X012082Y003001D01*
X012043Y002944D01*
X012006Y002886D01*
X011973Y002826D01*
X011944Y002763D01*
X011918Y002700D01*
X011896Y002634D01*
X011878Y002568D01*
X011863Y002501D01*
X011852Y002433D01*
X011845Y002364D01*
X011842Y002296D01*
X011843Y002227D01*
X011848Y002158D01*
X011856Y002090D01*
X011869Y002022D01*
X011885Y001956D01*
X011905Y001890D01*
X011929Y001825D01*
X011956Y001762D01*
X011987Y001701D01*
X012021Y001641D01*
X012059Y001583D01*
X012100Y001528D01*
X012144Y001475D01*
X012191Y001425D01*
X012240Y001377D01*
X012292Y001332D01*
X012347Y001290D01*
X012404Y001252D01*
X012463Y001217D01*
X012524Y001185D01*
X012587Y001156D01*
X012651Y001132D01*
X012717Y001110D01*
X012783Y001093D01*
X012851Y001080D01*
X012919Y001070D01*
X012987Y001064D01*
X013056Y001062D01*
X013125Y001064D01*
X013193Y001070D01*
X013261Y001080D01*
X013329Y001093D01*
X013395Y001110D01*
X013461Y001132D01*
X013525Y001156D01*
X013588Y001185D01*
X013649Y001217D01*
X013708Y001252D01*
X013765Y001290D01*
X013820Y001332D01*
X013872Y001377D01*
X013921Y001425D01*
X013968Y001475D01*
X014012Y001528D01*
X014053Y001583D01*
X014091Y001641D01*
X014125Y001701D01*
X014156Y001762D01*
X014183Y001825D01*
X014207Y001890D01*
X014227Y001956D01*
X014243Y002022D01*
X014256Y002090D01*
X014264Y002158D01*
X014269Y002227D01*
X014270Y002296D01*
X014267Y002364D01*
X014260Y002433D01*
X014249Y002501D01*
X014234Y002568D01*
X014216Y002634D01*
X014194Y002700D01*
X014168Y002763D01*
X014139Y002826D01*
X014106Y002886D01*
X014069Y002944D01*
X014030Y003001D01*
X013987Y003055D01*
X013942Y003106D01*
X013893Y003155D01*
X013842Y003201D01*
X013788Y003244D01*
X027077Y001636D02*
X027057Y001681D01*
X027110Y001707D01*
X027161Y001736D01*
X027211Y001768D01*
X027258Y001803D01*
X027303Y001841D01*
X027345Y001882D01*
X027385Y001926D01*
X027422Y001972D01*
X027455Y002020D01*
X027486Y002070D01*
X027513Y002123D01*
X027537Y002176D01*
X027558Y002232D01*
X027575Y002288D01*
X027588Y002346D01*
X027598Y002404D01*
X027604Y002462D01*
X027606Y002521D01*
X027604Y002580D01*
X027599Y002639D01*
X027590Y002697D01*
X027577Y002754D01*
X027561Y002811D01*
X027541Y002867D01*
X027518Y002921D01*
X027491Y002973D01*
X027461Y003024D01*
X027427Y003072D01*
X027391Y003119D01*
X027352Y003163D01*
X027310Y003204D01*
X027343Y003241D01*
X027344Y003241D01*
X027387Y003199D01*
X027427Y003154D01*
X027464Y003107D01*
X027499Y003057D01*
X027530Y003006D01*
X027558Y002953D01*
X027582Y002898D01*
X027604Y002841D01*
X027621Y002784D01*
X027635Y002725D01*
X027646Y002666D01*
X027653Y002606D01*
X027656Y002546D01*
X027655Y002486D01*
X027651Y002426D01*
X027643Y002366D01*
X027631Y002307D01*
X027616Y002249D01*
X027597Y002192D01*
X027575Y002136D01*
X027549Y002082D01*
X027520Y002029D01*
X027488Y001978D01*
X027452Y001929D01*
X027414Y001883D01*
X027373Y001839D01*
X027329Y001798D01*
X027283Y001759D01*
X027234Y001723D01*
X027184Y001691D01*
X027131Y001661D01*
X027077Y001635D01*
X027074Y001643D01*
X027129Y001670D01*
X027183Y001700D01*
X027234Y001734D01*
X027283Y001771D01*
X027330Y001811D01*
X027375Y001854D01*
X027416Y001899D01*
X027454Y001947D01*
X027490Y001998D01*
X027522Y002050D01*
X027550Y002105D01*
X027575Y002161D01*
X027597Y002219D01*
X027615Y002278D01*
X027628Y002337D01*
X027639Y002398D01*
X027645Y002459D01*
X027647Y002521D01*
X027645Y002582D01*
X027640Y002644D01*
X027630Y002705D01*
X027617Y002765D01*
X027600Y002824D01*
X027579Y002882D01*
X027555Y002938D01*
X027527Y002993D01*
X027495Y003046D01*
X027460Y003097D01*
X027422Y003145D01*
X027382Y003191D01*
X027338Y003234D01*
X027332Y003228D01*
X027375Y003185D01*
X027416Y003139D01*
X027453Y003091D01*
X027488Y003041D01*
X027519Y002989D01*
X027547Y002934D01*
X027571Y002878D01*
X027591Y002821D01*
X027608Y002762D01*
X027622Y002703D01*
X027631Y002643D01*
X027636Y002582D01*
X027638Y002521D01*
X027636Y002460D01*
X027630Y002399D01*
X027620Y002339D01*
X027606Y002280D01*
X027588Y002221D01*
X027567Y002164D01*
X027542Y002109D01*
X027514Y002055D01*
X027482Y002003D01*
X027447Y001953D01*
X027409Y001905D01*
X027368Y001860D01*
X027324Y001817D01*
X027278Y001778D01*
X027229Y001741D01*
X027178Y001708D01*
X027125Y001678D01*
X027070Y001652D01*
X027066Y001660D01*
X027121Y001686D01*
X027173Y001716D01*
X027224Y001749D01*
X027272Y001785D01*
X027318Y001824D01*
X027362Y001866D01*
X027402Y001911D01*
X027440Y001958D01*
X027475Y002007D01*
X027506Y002059D01*
X027534Y002113D01*
X027559Y002168D01*
X027580Y002224D01*
X027597Y002282D01*
X027611Y002341D01*
X027621Y002401D01*
X027627Y002461D01*
X027629Y002521D01*
X027627Y002581D01*
X027622Y002642D01*
X027613Y002701D01*
X027600Y002760D01*
X027583Y002818D01*
X027562Y002875D01*
X027538Y002930D01*
X027511Y002984D01*
X027480Y003036D01*
X027446Y003086D01*
X027409Y003134D01*
X027369Y003179D01*
X027326Y003221D01*
X027319Y003215D01*
X027362Y003172D01*
X027402Y003128D01*
X027439Y003081D01*
X027472Y003031D01*
X027503Y002980D01*
X027530Y002927D01*
X027554Y002872D01*
X027574Y002815D01*
X027591Y002758D01*
X027604Y002700D01*
X027613Y002640D01*
X027618Y002581D01*
X027620Y002521D01*
X027618Y002461D01*
X027612Y002402D01*
X027602Y002343D01*
X027588Y002285D01*
X027571Y002227D01*
X027550Y002171D01*
X027526Y002117D01*
X027498Y002064D01*
X027467Y002012D01*
X027433Y001963D01*
X027395Y001917D01*
X027355Y001872D01*
X027312Y001831D01*
X027267Y001792D01*
X027219Y001756D01*
X027169Y001724D01*
X027117Y001694D01*
X027063Y001668D01*
X027059Y001676D01*
X027112Y001702D01*
X027164Y001731D01*
X027214Y001764D01*
X027261Y001799D01*
X027306Y001838D01*
X027349Y001879D01*
X027389Y001923D01*
X027426Y001969D01*
X027460Y002017D01*
X027490Y002068D01*
X027518Y002120D01*
X027542Y002175D01*
X027563Y002230D01*
X027580Y002287D01*
X027593Y002345D01*
X027603Y002403D01*
X027609Y002462D01*
X027611Y002521D01*
X027609Y002580D01*
X027604Y002639D01*
X027595Y002698D01*
X027582Y002756D01*
X027566Y002813D01*
X027546Y002868D01*
X027522Y002923D01*
X027495Y002975D01*
X027465Y003026D01*
X027431Y003075D01*
X027395Y003122D01*
X027356Y003166D01*
X027313Y003208D01*
X026019Y003241D02*
X026052Y003204D01*
X026010Y003163D01*
X025971Y003119D01*
X025935Y003072D01*
X025901Y003024D01*
X025871Y002973D01*
X025844Y002921D01*
X025821Y002867D01*
X025801Y002811D01*
X025785Y002754D01*
X025772Y002697D01*
X025763Y002639D01*
X025758Y002580D01*
X025756Y002521D01*
X025758Y002462D01*
X025764Y002404D01*
X025774Y002346D01*
X025787Y002288D01*
X025804Y002232D01*
X025825Y002176D01*
X025849Y002123D01*
X025876Y002070D01*
X025907Y002020D01*
X025940Y001972D01*
X025977Y001926D01*
X026017Y001882D01*
X026059Y001841D01*
X026104Y001803D01*
X026151Y001768D01*
X026201Y001736D01*
X026252Y001707D01*
X026305Y001681D01*
X026285Y001636D01*
X026285Y001635D01*
X026231Y001661D01*
X026178Y001691D01*
X026128Y001723D01*
X026079Y001759D01*
X026033Y001798D01*
X025989Y001839D01*
X025948Y001883D01*
X025910Y001929D01*
X025874Y001978D01*
X025842Y002029D01*
X025813Y002082D01*
X025787Y002136D01*
X025765Y002192D01*
X025746Y002249D01*
X025731Y002307D01*
X025719Y002366D01*
X025711Y002426D01*
X025707Y002486D01*
X025706Y002546D01*
X025709Y002606D01*
X025716Y002666D01*
X025727Y002725D01*
X025741Y002784D01*
X025758Y002841D01*
X025780Y002898D01*
X025804Y002953D01*
X025832Y003006D01*
X025863Y003057D01*
X025898Y003107D01*
X025935Y003154D01*
X025975Y003199D01*
X026018Y003241D01*
X026024Y003234D01*
X025980Y003191D01*
X025940Y003145D01*
X025902Y003097D01*
X025867Y003046D01*
X025835Y002993D01*
X025807Y002938D01*
X025783Y002882D01*
X025762Y002824D01*
X025745Y002765D01*
X025732Y002705D01*
X025722Y002644D01*
X025717Y002582D01*
X025715Y002521D01*
X025717Y002459D01*
X025723Y002398D01*
X025734Y002337D01*
X025747Y002278D01*
X025765Y002219D01*
X025787Y002161D01*
X025812Y002105D01*
X025840Y002050D01*
X025872Y001998D01*
X025908Y001947D01*
X025946Y001899D01*
X025987Y001854D01*
X026032Y001811D01*
X026079Y001771D01*
X026128Y001734D01*
X026179Y001700D01*
X026233Y001670D01*
X026288Y001643D01*
X026292Y001652D01*
X026237Y001678D01*
X026184Y001708D01*
X026133Y001741D01*
X026084Y001778D01*
X026038Y001817D01*
X025994Y001860D01*
X025953Y001905D01*
X025915Y001953D01*
X025880Y002003D01*
X025848Y002055D01*
X025820Y002109D01*
X025795Y002164D01*
X025774Y002221D01*
X025756Y002280D01*
X025742Y002339D01*
X025732Y002399D01*
X025726Y002460D01*
X025724Y002521D01*
X025726Y002582D01*
X025731Y002643D01*
X025740Y002703D01*
X025754Y002762D01*
X025771Y002821D01*
X025791Y002878D01*
X025815Y002934D01*
X025843Y002989D01*
X025874Y003041D01*
X025909Y003091D01*
X025946Y003139D01*
X025987Y003185D01*
X026030Y003228D01*
X026036Y003221D01*
X025993Y003179D01*
X025953Y003134D01*
X025916Y003086D01*
X025882Y003036D01*
X025851Y002984D01*
X025824Y002930D01*
X025800Y002875D01*
X025779Y002818D01*
X025762Y002760D01*
X025749Y002701D01*
X025740Y002642D01*
X025735Y002581D01*
X025733Y002521D01*
X025735Y002461D01*
X025741Y002401D01*
X025751Y002341D01*
X025765Y002282D01*
X025782Y002224D01*
X025803Y002168D01*
X025828Y002113D01*
X025856Y002059D01*
X025887Y002007D01*
X025922Y001958D01*
X025960Y001911D01*
X026000Y001866D01*
X026044Y001824D01*
X026090Y001785D01*
X026138Y001749D01*
X026189Y001716D01*
X026241Y001686D01*
X026296Y001660D01*
X026299Y001668D01*
X026245Y001694D01*
X026193Y001724D01*
X026143Y001756D01*
X026095Y001792D01*
X026050Y001831D01*
X026007Y001872D01*
X025967Y001917D01*
X025929Y001963D01*
X025895Y002012D01*
X025864Y002064D01*
X025836Y002117D01*
X025812Y002171D01*
X025791Y002227D01*
X025774Y002285D01*
X025760Y002343D01*
X025750Y002402D01*
X025744Y002461D01*
X025742Y002521D01*
X025744Y002581D01*
X025749Y002640D01*
X025758Y002700D01*
X025771Y002758D01*
X025788Y002815D01*
X025808Y002872D01*
X025832Y002927D01*
X025859Y002980D01*
X025890Y003031D01*
X025923Y003081D01*
X025960Y003128D01*
X026000Y003172D01*
X026043Y003215D01*
X026049Y003208D01*
X026006Y003166D01*
X025967Y003122D01*
X025931Y003075D01*
X025897Y003026D01*
X025867Y002975D01*
X025840Y002923D01*
X025816Y002868D01*
X025796Y002813D01*
X025780Y002756D01*
X025767Y002698D01*
X025758Y002639D01*
X025753Y002580D01*
X025751Y002521D01*
X025753Y002462D01*
X025759Y002403D01*
X025769Y002345D01*
X025782Y002287D01*
X025799Y002230D01*
X025820Y002175D01*
X025844Y002120D01*
X025872Y002068D01*
X025902Y002017D01*
X025936Y001969D01*
X025973Y001923D01*
X026013Y001879D01*
X026056Y001838D01*
X026101Y001799D01*
X026148Y001764D01*
X026198Y001731D01*
X026250Y001702D01*
X026303Y001676D01*
X036646Y011438D02*
X036609Y011405D01*
X036568Y011447D01*
X036524Y011486D01*
X036477Y011522D01*
X036429Y011556D01*
X036378Y011586D01*
X036326Y011613D01*
X036272Y011636D01*
X036216Y011656D01*
X036159Y011672D01*
X036102Y011685D01*
X036044Y011694D01*
X035985Y011699D01*
X035926Y011701D01*
X035867Y011699D01*
X035809Y011693D01*
X035751Y011683D01*
X035693Y011670D01*
X035637Y011653D01*
X035581Y011632D01*
X035528Y011608D01*
X035475Y011581D01*
X035425Y011550D01*
X035377Y011517D01*
X035331Y011480D01*
X035287Y011440D01*
X035246Y011398D01*
X035208Y011353D01*
X035173Y011306D01*
X035141Y011256D01*
X035112Y011205D01*
X035086Y011152D01*
X035041Y011172D01*
X035040Y011172D01*
X035066Y011226D01*
X035096Y011279D01*
X035128Y011329D01*
X035164Y011378D01*
X035203Y011424D01*
X035244Y011468D01*
X035288Y011509D01*
X035334Y011547D01*
X035383Y011583D01*
X035434Y011615D01*
X035487Y011644D01*
X035541Y011670D01*
X035597Y011692D01*
X035654Y011711D01*
X035712Y011726D01*
X035771Y011738D01*
X035831Y011746D01*
X035891Y011750D01*
X035951Y011751D01*
X036011Y011748D01*
X036071Y011741D01*
X036130Y011730D01*
X036189Y011716D01*
X036246Y011699D01*
X036303Y011677D01*
X036358Y011653D01*
X036411Y011625D01*
X036462Y011594D01*
X036512Y011559D01*
X036559Y011522D01*
X036604Y011482D01*
X036646Y011439D01*
X036639Y011433D01*
X036596Y011477D01*
X036550Y011517D01*
X036502Y011555D01*
X036451Y011590D01*
X036398Y011622D01*
X036343Y011650D01*
X036287Y011674D01*
X036229Y011695D01*
X036170Y011712D01*
X036110Y011725D01*
X036049Y011735D01*
X035987Y011740D01*
X035926Y011742D01*
X035864Y011740D01*
X035803Y011734D01*
X035742Y011723D01*
X035683Y011710D01*
X035624Y011692D01*
X035566Y011670D01*
X035510Y011645D01*
X035455Y011617D01*
X035403Y011585D01*
X035352Y011549D01*
X035304Y011511D01*
X035259Y011470D01*
X035216Y011425D01*
X035176Y011378D01*
X035139Y011329D01*
X035105Y011278D01*
X035075Y011224D01*
X035048Y011169D01*
X035057Y011165D01*
X035083Y011220D01*
X035113Y011273D01*
X035146Y011324D01*
X035183Y011373D01*
X035222Y011419D01*
X035265Y011463D01*
X035310Y011504D01*
X035358Y011542D01*
X035408Y011577D01*
X035460Y011609D01*
X035514Y011637D01*
X035569Y011662D01*
X035626Y011683D01*
X035685Y011701D01*
X035744Y011715D01*
X035804Y011725D01*
X035865Y011731D01*
X035926Y011733D01*
X035987Y011731D01*
X036048Y011726D01*
X036108Y011717D01*
X036167Y011703D01*
X036226Y011686D01*
X036283Y011666D01*
X036339Y011642D01*
X036394Y011614D01*
X036446Y011583D01*
X036496Y011548D01*
X036544Y011511D01*
X036590Y011470D01*
X036633Y011427D01*
X036626Y011421D01*
X036584Y011464D01*
X036539Y011504D01*
X036491Y011541D01*
X036441Y011575D01*
X036389Y011606D01*
X036335Y011633D01*
X036280Y011657D01*
X036223Y011678D01*
X036165Y011695D01*
X036106Y011708D01*
X036047Y011717D01*
X035986Y011722D01*
X035926Y011724D01*
X035866Y011722D01*
X035806Y011716D01*
X035746Y011706D01*
X035687Y011692D01*
X035629Y011675D01*
X035573Y011654D01*
X035518Y011629D01*
X035464Y011601D01*
X035412Y011570D01*
X035363Y011535D01*
X035316Y011497D01*
X035271Y011457D01*
X035229Y011413D01*
X035190Y011367D01*
X035154Y011319D01*
X035121Y011268D01*
X035091Y011216D01*
X035065Y011161D01*
X035073Y011158D01*
X035099Y011212D01*
X035129Y011264D01*
X035161Y011314D01*
X035197Y011362D01*
X035236Y011407D01*
X035277Y011450D01*
X035322Y011490D01*
X035368Y011528D01*
X035417Y011562D01*
X035469Y011593D01*
X035522Y011621D01*
X035576Y011645D01*
X035632Y011666D01*
X035690Y011683D01*
X035748Y011697D01*
X035807Y011707D01*
X035866Y011713D01*
X035926Y011715D01*
X035986Y011713D01*
X036045Y011708D01*
X036105Y011699D01*
X036163Y011686D01*
X036220Y011669D01*
X036277Y011649D01*
X036332Y011625D01*
X036385Y011598D01*
X036436Y011567D01*
X036486Y011534D01*
X036533Y011497D01*
X036577Y011457D01*
X036620Y011414D01*
X036613Y011408D01*
X036571Y011451D01*
X036527Y011490D01*
X036480Y011526D01*
X036431Y011560D01*
X036380Y011590D01*
X036328Y011617D01*
X036273Y011641D01*
X036218Y011661D01*
X036161Y011677D01*
X036103Y011690D01*
X036044Y011699D01*
X035985Y011704D01*
X035926Y011706D01*
X035867Y011704D01*
X035808Y011698D01*
X035750Y011688D01*
X035692Y011675D01*
X035635Y011658D01*
X035580Y011637D01*
X035525Y011613D01*
X035473Y011585D01*
X035422Y011555D01*
X035374Y011521D01*
X035328Y011484D01*
X035284Y011444D01*
X035243Y011401D01*
X035204Y011356D01*
X035169Y011309D01*
X035136Y011259D01*
X035107Y011207D01*
X035081Y011154D01*
X035041Y010380D02*
X035086Y010400D01*
X035112Y010347D01*
X035141Y010296D01*
X035173Y010246D01*
X035208Y010199D01*
X035246Y010154D01*
X035287Y010112D01*
X035331Y010072D01*
X035377Y010035D01*
X035425Y010002D01*
X035475Y009971D01*
X035528Y009944D01*
X035581Y009920D01*
X035637Y009899D01*
X035693Y009882D01*
X035751Y009869D01*
X035809Y009859D01*
X035867Y009853D01*
X035926Y009851D01*
X035985Y009853D01*
X036044Y009858D01*
X036102Y009867D01*
X036159Y009880D01*
X036216Y009896D01*
X036272Y009916D01*
X036326Y009939D01*
X036378Y009966D01*
X036429Y009996D01*
X036477Y010030D01*
X036524Y010066D01*
X036568Y010105D01*
X036609Y010147D01*
X036646Y010114D01*
X036646Y010113D01*
X036604Y010070D01*
X036559Y010030D01*
X036512Y009993D01*
X036462Y009958D01*
X036411Y009927D01*
X036358Y009899D01*
X036303Y009875D01*
X036246Y009853D01*
X036189Y009836D01*
X036130Y009822D01*
X036071Y009811D01*
X036011Y009804D01*
X035951Y009801D01*
X035891Y009802D01*
X035831Y009806D01*
X035771Y009814D01*
X035712Y009826D01*
X035654Y009841D01*
X035597Y009860D01*
X035541Y009882D01*
X035487Y009908D01*
X035434Y009937D01*
X035383Y009969D01*
X035334Y010005D01*
X035288Y010043D01*
X035244Y010084D01*
X035203Y010128D01*
X035164Y010174D01*
X035128Y010223D01*
X035096Y010273D01*
X035066Y010326D01*
X035040Y010380D01*
X035048Y010383D01*
X035075Y010328D01*
X035105Y010274D01*
X035139Y010223D01*
X035176Y010174D01*
X035216Y010127D01*
X035259Y010082D01*
X035304Y010041D01*
X035352Y010003D01*
X035403Y009967D01*
X035455Y009935D01*
X035510Y009907D01*
X035566Y009882D01*
X035624Y009860D01*
X035683Y009842D01*
X035742Y009829D01*
X035803Y009818D01*
X035864Y009812D01*
X035926Y009810D01*
X035987Y009812D01*
X036049Y009817D01*
X036110Y009827D01*
X036170Y009840D01*
X036229Y009857D01*
X036287Y009878D01*
X036343Y009902D01*
X036398Y009930D01*
X036451Y009962D01*
X036502Y009997D01*
X036550Y010035D01*
X036596Y010075D01*
X036639Y010119D01*
X036633Y010125D01*
X036590Y010082D01*
X036544Y010041D01*
X036496Y010004D01*
X036446Y009969D01*
X036394Y009938D01*
X036339Y009910D01*
X036283Y009886D01*
X036226Y009866D01*
X036167Y009849D01*
X036108Y009835D01*
X036048Y009826D01*
X035987Y009821D01*
X035926Y009819D01*
X035865Y009821D01*
X035804Y009827D01*
X035744Y009837D01*
X035685Y009851D01*
X035626Y009869D01*
X035569Y009890D01*
X035514Y009915D01*
X035460Y009943D01*
X035408Y009975D01*
X035358Y010010D01*
X035310Y010048D01*
X035265Y010089D01*
X035222Y010133D01*
X035183Y010179D01*
X035146Y010228D01*
X035113Y010279D01*
X035083Y010332D01*
X035057Y010387D01*
X035065Y010391D01*
X035091Y010336D01*
X035121Y010284D01*
X035154Y010233D01*
X035190Y010185D01*
X035229Y010139D01*
X035271Y010095D01*
X035316Y010055D01*
X035363Y010017D01*
X035412Y009982D01*
X035464Y009951D01*
X035518Y009923D01*
X035573Y009898D01*
X035629Y009877D01*
X035687Y009860D01*
X035746Y009846D01*
X035806Y009836D01*
X035866Y009830D01*
X035926Y009828D01*
X035986Y009830D01*
X036047Y009835D01*
X036106Y009844D01*
X036165Y009857D01*
X036223Y009874D01*
X036280Y009895D01*
X036335Y009919D01*
X036389Y009946D01*
X036441Y009977D01*
X036491Y010011D01*
X036539Y010048D01*
X036584Y010088D01*
X036626Y010131D01*
X036620Y010138D01*
X036577Y010095D01*
X036533Y010055D01*
X036486Y010018D01*
X036436Y009985D01*
X036385Y009954D01*
X036332Y009927D01*
X036277Y009903D01*
X036220Y009883D01*
X036163Y009866D01*
X036105Y009853D01*
X036045Y009844D01*
X035986Y009839D01*
X035926Y009837D01*
X035866Y009839D01*
X035807Y009845D01*
X035748Y009855D01*
X035690Y009869D01*
X035632Y009886D01*
X035576Y009907D01*
X035522Y009931D01*
X035469Y009959D01*
X035417Y009990D01*
X035368Y010024D01*
X035322Y010062D01*
X035277Y010102D01*
X035236Y010145D01*
X035197Y010190D01*
X035161Y010238D01*
X035129Y010288D01*
X035099Y010340D01*
X035073Y010394D01*
X035081Y010398D01*
X035107Y010345D01*
X035136Y010293D01*
X035169Y010243D01*
X035204Y010196D01*
X035243Y010151D01*
X035284Y010108D01*
X035328Y010068D01*
X035374Y010031D01*
X035422Y009997D01*
X035473Y009967D01*
X035525Y009939D01*
X035580Y009915D01*
X035635Y009894D01*
X035692Y009877D01*
X035750Y009864D01*
X035808Y009854D01*
X035867Y009848D01*
X035926Y009846D01*
X035985Y009848D01*
X036044Y009853D01*
X036103Y009862D01*
X036161Y009875D01*
X036218Y009891D01*
X036273Y009911D01*
X036328Y009935D01*
X036380Y009962D01*
X036431Y009992D01*
X036480Y010026D01*
X036527Y010062D01*
X036571Y010101D01*
X036613Y010144D01*
X038571Y011172D02*
X038526Y011152D01*
X038500Y011205D01*
X038471Y011256D01*
X038439Y011306D01*
X038404Y011353D01*
X038366Y011398D01*
X038325Y011440D01*
X038281Y011480D01*
X038235Y011517D01*
X038187Y011550D01*
X038137Y011581D01*
X038084Y011608D01*
X038031Y011632D01*
X037975Y011653D01*
X037919Y011670D01*
X037861Y011683D01*
X037803Y011693D01*
X037745Y011699D01*
X037686Y011701D01*
X037627Y011699D01*
X037568Y011694D01*
X037510Y011685D01*
X037453Y011672D01*
X037396Y011656D01*
X037340Y011636D01*
X037286Y011613D01*
X037234Y011586D01*
X037183Y011556D01*
X037135Y011522D01*
X037088Y011486D01*
X037044Y011447D01*
X037003Y011405D01*
X036966Y011438D01*
X036966Y011439D01*
X037008Y011482D01*
X037053Y011522D01*
X037100Y011559D01*
X037150Y011594D01*
X037201Y011625D01*
X037254Y011653D01*
X037309Y011677D01*
X037366Y011699D01*
X037423Y011716D01*
X037482Y011730D01*
X037541Y011741D01*
X037601Y011748D01*
X037661Y011751D01*
X037721Y011750D01*
X037781Y011746D01*
X037841Y011738D01*
X037900Y011726D01*
X037958Y011711D01*
X038015Y011692D01*
X038071Y011670D01*
X038125Y011644D01*
X038178Y011615D01*
X038229Y011583D01*
X038278Y011547D01*
X038324Y011509D01*
X038368Y011468D01*
X038409Y011424D01*
X038448Y011378D01*
X038484Y011329D01*
X038516Y011279D01*
X038546Y011226D01*
X038572Y011172D01*
X038564Y011169D01*
X038537Y011224D01*
X038507Y011278D01*
X038473Y011329D01*
X038436Y011378D01*
X038396Y011425D01*
X038353Y011470D01*
X038308Y011511D01*
X038260Y011549D01*
X038209Y011585D01*
X038157Y011617D01*
X038102Y011645D01*
X038046Y011670D01*
X037988Y011692D01*
X037929Y011710D01*
X037870Y011723D01*
X037809Y011734D01*
X037748Y011740D01*
X037686Y011742D01*
X037625Y011740D01*
X037563Y011735D01*
X037502Y011725D01*
X037442Y011712D01*
X037383Y011695D01*
X037325Y011674D01*
X037269Y011650D01*
X037214Y011622D01*
X037161Y011590D01*
X037110Y011555D01*
X037062Y011517D01*
X037016Y011477D01*
X036973Y011433D01*
X036979Y011427D01*
X037022Y011470D01*
X037068Y011511D01*
X037116Y011548D01*
X037166Y011583D01*
X037218Y011614D01*
X037273Y011642D01*
X037329Y011666D01*
X037386Y011686D01*
X037445Y011703D01*
X037504Y011717D01*
X037564Y011726D01*
X037625Y011731D01*
X037686Y011733D01*
X037747Y011731D01*
X037808Y011725D01*
X037868Y011715D01*
X037927Y011701D01*
X037986Y011683D01*
X038043Y011662D01*
X038098Y011637D01*
X038152Y011609D01*
X038204Y011577D01*
X038254Y011542D01*
X038302Y011504D01*
X038347Y011463D01*
X038390Y011419D01*
X038429Y011373D01*
X038466Y011324D01*
X038499Y011273D01*
X038529Y011220D01*
X038555Y011165D01*
X038547Y011161D01*
X038521Y011216D01*
X038491Y011268D01*
X038458Y011319D01*
X038422Y011367D01*
X038383Y011413D01*
X038341Y011457D01*
X038296Y011497D01*
X038249Y011535D01*
X038200Y011570D01*
X038148Y011601D01*
X038094Y011629D01*
X038039Y011654D01*
X037983Y011675D01*
X037925Y011692D01*
X037866Y011706D01*
X037806Y011716D01*
X037746Y011722D01*
X037686Y011724D01*
X037626Y011722D01*
X037565Y011717D01*
X037506Y011708D01*
X037447Y011695D01*
X037389Y011678D01*
X037332Y011657D01*
X037277Y011633D01*
X037223Y011606D01*
X037171Y011575D01*
X037121Y011541D01*
X037073Y011504D01*
X037028Y011464D01*
X036986Y011421D01*
X036992Y011414D01*
X037035Y011457D01*
X037079Y011497D01*
X037126Y011534D01*
X037176Y011567D01*
X037227Y011598D01*
X037280Y011625D01*
X037335Y011649D01*
X037392Y011669D01*
X037449Y011686D01*
X037507Y011699D01*
X037567Y011708D01*
X037626Y011713D01*
X037686Y011715D01*
X037746Y011713D01*
X037805Y011707D01*
X037864Y011697D01*
X037922Y011683D01*
X037980Y011666D01*
X038036Y011645D01*
X038090Y011621D01*
X038143Y011593D01*
X038195Y011562D01*
X038244Y011528D01*
X038290Y011490D01*
X038335Y011450D01*
X038376Y011407D01*
X038415Y011362D01*
X038451Y011314D01*
X038483Y011264D01*
X038513Y011212D01*
X038539Y011158D01*
X038531Y011154D01*
X038505Y011207D01*
X038476Y011259D01*
X038443Y011309D01*
X038408Y011356D01*
X038369Y011401D01*
X038328Y011444D01*
X038284Y011484D01*
X038238Y011521D01*
X038190Y011555D01*
X038139Y011585D01*
X038087Y011613D01*
X038032Y011637D01*
X037977Y011658D01*
X037920Y011675D01*
X037862Y011688D01*
X037804Y011698D01*
X037745Y011704D01*
X037686Y011706D01*
X037627Y011704D01*
X037568Y011699D01*
X037509Y011690D01*
X037451Y011677D01*
X037394Y011661D01*
X037339Y011641D01*
X037284Y011617D01*
X037232Y011590D01*
X037181Y011560D01*
X037132Y011526D01*
X037085Y011490D01*
X037041Y011451D01*
X036999Y011408D01*
X036966Y010114D02*
X037003Y010147D01*
X037044Y010105D01*
X037088Y010066D01*
X037135Y010030D01*
X037183Y009996D01*
X037234Y009966D01*
X037286Y009939D01*
X037340Y009916D01*
X037396Y009896D01*
X037453Y009880D01*
X037510Y009867D01*
X037568Y009858D01*
X037627Y009853D01*
X037686Y009851D01*
X037745Y009853D01*
X037803Y009859D01*
X037861Y009869D01*
X037919Y009882D01*
X037975Y009899D01*
X038031Y009920D01*
X038084Y009944D01*
X038137Y009971D01*
X038187Y010002D01*
X038235Y010035D01*
X038281Y010072D01*
X038325Y010112D01*
X038366Y010154D01*
X038404Y010199D01*
X038439Y010246D01*
X038471Y010296D01*
X038500Y010347D01*
X038526Y010400D01*
X038571Y010380D01*
X038572Y010380D01*
X038546Y010326D01*
X038516Y010273D01*
X038484Y010223D01*
X038448Y010174D01*
X038409Y010128D01*
X038368Y010084D01*
X038324Y010043D01*
X038278Y010005D01*
X038229Y009969D01*
X038178Y009937D01*
X038125Y009908D01*
X038071Y009882D01*
X038015Y009860D01*
X037958Y009841D01*
X037900Y009826D01*
X037841Y009814D01*
X037781Y009806D01*
X037721Y009802D01*
X037661Y009801D01*
X037601Y009804D01*
X037541Y009811D01*
X037482Y009822D01*
X037423Y009836D01*
X037366Y009853D01*
X037309Y009875D01*
X037254Y009899D01*
X037201Y009927D01*
X037150Y009958D01*
X037100Y009993D01*
X037053Y010030D01*
X037008Y010070D01*
X036966Y010113D01*
X036973Y010119D01*
X037016Y010075D01*
X037062Y010035D01*
X037110Y009997D01*
X037161Y009962D01*
X037214Y009930D01*
X037269Y009902D01*
X037325Y009878D01*
X037383Y009857D01*
X037442Y009840D01*
X037502Y009827D01*
X037563Y009817D01*
X037625Y009812D01*
X037686Y009810D01*
X037748Y009812D01*
X037809Y009818D01*
X037870Y009829D01*
X037929Y009842D01*
X037988Y009860D01*
X038046Y009882D01*
X038102Y009907D01*
X038157Y009935D01*
X038209Y009967D01*
X038260Y010003D01*
X038308Y010041D01*
X038353Y010082D01*
X038396Y010127D01*
X038436Y010174D01*
X038473Y010223D01*
X038507Y010274D01*
X038537Y010328D01*
X038564Y010383D01*
X038555Y010387D01*
X038529Y010332D01*
X038499Y010279D01*
X038466Y010228D01*
X038429Y010179D01*
X038390Y010133D01*
X038347Y010089D01*
X038302Y010048D01*
X038254Y010010D01*
X038204Y009975D01*
X038152Y009943D01*
X038098Y009915D01*
X038043Y009890D01*
X037986Y009869D01*
X037927Y009851D01*
X037868Y009837D01*
X037808Y009827D01*
X037747Y009821D01*
X037686Y009819D01*
X037625Y009821D01*
X037564Y009826D01*
X037504Y009835D01*
X037445Y009849D01*
X037386Y009866D01*
X037329Y009886D01*
X037273Y009910D01*
X037218Y009938D01*
X037166Y009969D01*
X037116Y010004D01*
X037068Y010041D01*
X037022Y010082D01*
X036979Y010125D01*
X036986Y010131D01*
X037028Y010088D01*
X037073Y010048D01*
X037121Y010011D01*
X037171Y009977D01*
X037223Y009946D01*
X037277Y009919D01*
X037332Y009895D01*
X037389Y009874D01*
X037447Y009857D01*
X037506Y009844D01*
X037565Y009835D01*
X037626Y009830D01*
X037686Y009828D01*
X037746Y009830D01*
X037806Y009836D01*
X037866Y009846D01*
X037925Y009860D01*
X037983Y009877D01*
X038039Y009898D01*
X038094Y009923D01*
X038148Y009951D01*
X038200Y009982D01*
X038249Y010017D01*
X038296Y010055D01*
X038341Y010095D01*
X038383Y010139D01*
X038422Y010185D01*
X038458Y010233D01*
X038491Y010284D01*
X038521Y010336D01*
X038547Y010391D01*
X038539Y010394D01*
X038513Y010340D01*
X038483Y010288D01*
X038451Y010238D01*
X038415Y010190D01*
X038376Y010145D01*
X038335Y010102D01*
X038290Y010062D01*
X038244Y010024D01*
X038195Y009990D01*
X038143Y009959D01*
X038090Y009931D01*
X038036Y009907D01*
X037980Y009886D01*
X037922Y009869D01*
X037864Y009855D01*
X037805Y009845D01*
X037746Y009839D01*
X037686Y009837D01*
X037626Y009839D01*
X037567Y009844D01*
X037507Y009853D01*
X037449Y009866D01*
X037392Y009883D01*
X037335Y009903D01*
X037280Y009927D01*
X037227Y009954D01*
X037176Y009985D01*
X037126Y010018D01*
X037079Y010055D01*
X037035Y010095D01*
X036992Y010138D01*
X036999Y010144D01*
X037041Y010101D01*
X037085Y010062D01*
X037132Y010026D01*
X037181Y009992D01*
X037232Y009962D01*
X037284Y009935D01*
X037339Y009911D01*
X037394Y009891D01*
X037451Y009875D01*
X037509Y009862D01*
X037568Y009853D01*
X037627Y009848D01*
X037686Y009846D01*
X037745Y009848D01*
X037804Y009854D01*
X037862Y009864D01*
X037920Y009877D01*
X037977Y009894D01*
X038032Y009915D01*
X038087Y009939D01*
X038139Y009967D01*
X038190Y009997D01*
X038238Y010031D01*
X038284Y010068D01*
X038328Y010108D01*
X038369Y010151D01*
X038408Y010196D01*
X038443Y010243D01*
X038476Y010293D01*
X038505Y010345D01*
X038531Y010398D01*
D29*
X019586Y002812D02*
X019366Y002665D01*
X019586Y002665D01*
X019586Y002591D02*
X019586Y002518D01*
X019586Y002554D02*
X019366Y002554D01*
X019366Y002518D02*
X019366Y002591D01*
X019366Y002812D02*
X019586Y002812D01*
X019623Y002444D02*
X019623Y002297D01*
X019513Y002223D02*
X019366Y002223D01*
X019513Y002223D02*
X019586Y002149D01*
X019513Y002076D01*
X019366Y002076D01*
X019403Y002002D02*
X019366Y001965D01*
X019366Y001891D01*
X019403Y001855D01*
X019549Y001855D01*
X019586Y001891D01*
X019586Y001965D01*
X019549Y002002D01*
X018454Y001929D02*
X018308Y001929D01*
X018381Y001929D02*
X018381Y001709D01*
X016404Y001720D02*
X016368Y001684D01*
X016294Y001684D01*
X016258Y001720D01*
X016294Y001794D02*
X016368Y001794D01*
X016404Y001757D01*
X016404Y001720D01*
X016294Y001794D02*
X016258Y001830D01*
X016258Y001867D01*
X016294Y001904D01*
X016368Y001904D01*
X016404Y001867D01*
X003815Y004140D02*
X003815Y004200D01*
X003785Y004230D01*
X003665Y004230D01*
X003635Y004200D01*
X003635Y004140D01*
X003665Y004110D01*
X003695Y004110D01*
X003725Y004140D01*
X003725Y004230D01*
X003755Y004294D02*
X003815Y004354D01*
X003755Y004414D01*
X003635Y004414D01*
X003635Y004294D02*
X003755Y004294D01*
X003815Y004140D02*
X003785Y004110D01*
X003815Y004662D02*
X003815Y004752D01*
X003785Y004782D01*
X003755Y004782D01*
X003725Y004752D01*
X003725Y004662D01*
X003815Y004662D02*
X003635Y004662D01*
X003635Y004752D01*
X003665Y004782D01*
X003695Y004782D01*
X003725Y004752D01*
X003785Y004846D02*
X003755Y004876D01*
X003755Y004966D01*
X003725Y004966D02*
X003815Y004966D01*
X003815Y004876D01*
X003785Y004846D01*
X003695Y004876D02*
X003695Y004936D01*
X003725Y004966D01*
X003695Y005030D02*
X003695Y005090D01*
X003665Y005060D02*
X003785Y005060D01*
X003815Y005090D01*
X003785Y005183D02*
X003815Y005213D01*
X003785Y005183D02*
X003665Y005183D01*
X003695Y005153D02*
X003695Y005213D01*
X003725Y005276D02*
X003695Y005306D01*
X003695Y005366D01*
X003725Y005396D01*
X003755Y005396D01*
X003755Y005276D01*
X003785Y005276D02*
X003725Y005276D01*
X003785Y005276D02*
X003815Y005306D01*
X003815Y005366D01*
X003815Y005460D02*
X003695Y005460D01*
X003755Y005460D02*
X003695Y005520D01*
X003695Y005550D01*
X003695Y005613D02*
X003785Y005613D01*
X003815Y005643D01*
X003815Y005733D01*
X003845Y005733D02*
X003875Y005703D01*
X003875Y005673D01*
X003845Y005733D02*
X003695Y005733D01*
X003737Y014603D02*
X003774Y014639D01*
X003774Y014713D01*
X003737Y014749D01*
X003700Y014749D01*
X003664Y014713D01*
X003664Y014639D01*
X003627Y014603D01*
X003590Y014603D01*
X003554Y014639D01*
X003554Y014713D01*
X003590Y014749D01*
X003529Y016653D02*
X003529Y016799D01*
X003529Y016726D02*
X003749Y016726D01*
X003740Y017711D02*
X003667Y017784D01*
X003704Y017784D02*
X003593Y017784D01*
X003593Y017711D02*
X003593Y017931D01*
X003704Y017931D01*
X003740Y017895D01*
X003740Y017821D01*
X003704Y017784D01*
X003519Y017711D02*
X003372Y017711D01*
X003372Y017931D01*
X003519Y017931D01*
X003446Y017821D02*
X003372Y017821D01*
X003298Y017821D02*
X003225Y017821D01*
X003298Y017821D02*
X003298Y017748D01*
X003262Y017711D01*
X003188Y017711D01*
X003151Y017748D01*
X003151Y017895D01*
X003188Y017931D01*
X003262Y017931D01*
X003298Y017895D01*
X003077Y017895D02*
X003041Y017931D01*
X002967Y017931D01*
X002930Y017895D01*
X002930Y017748D01*
X002967Y017711D01*
X003041Y017711D01*
X003077Y017748D01*
X003077Y017821D01*
X003004Y017821D01*
X002857Y017711D02*
X002783Y017711D01*
X002820Y017711D02*
X002820Y017931D01*
X002783Y017931D02*
X002857Y017931D01*
X002709Y017895D02*
X002709Y017821D01*
X002672Y017784D01*
X002562Y017784D01*
X002562Y017711D02*
X002562Y017931D01*
X002672Y017931D01*
X002709Y017895D01*
X002636Y017784D02*
X002709Y017711D01*
X002415Y017711D02*
X002415Y017931D01*
X002488Y017931D02*
X002341Y017931D01*
X058341Y016895D02*
X058341Y016748D01*
X058378Y016711D01*
X058451Y016711D01*
X058488Y016748D01*
X058488Y016895D01*
X058451Y016931D01*
X058378Y016931D01*
X058341Y016895D01*
X058562Y016931D02*
X058562Y016748D01*
X058599Y016711D01*
X058672Y016711D01*
X058709Y016748D01*
X058709Y016931D01*
X058783Y016931D02*
X058930Y016931D01*
X058857Y016931D02*
X058857Y016711D01*
X059279Y015799D02*
X059279Y015653D01*
X059279Y015726D02*
X059499Y015726D01*
X059487Y013749D02*
X059524Y013713D01*
X059524Y013639D01*
X059487Y013603D01*
X059414Y013639D02*
X059414Y013713D01*
X059450Y013749D01*
X059487Y013749D01*
X059414Y013639D02*
X059377Y013603D01*
X059340Y013603D01*
X059304Y013639D01*
X059304Y013713D01*
X059340Y013749D01*
M02*
