G75*
G70*
%OFA0B0*%
%FSLAX24Y24*%
%IPPOS*%
%LPD*%
%AMOC8*
5,1,8,0,0,1.08239X$1,22.5*
%
%ADD10C,0.0060*%
%ADD11C,0.0110*%
%ADD12C,0.0040*%
%ADD13C,0.0160*%
%ADD14C,0.0080*%
%ADD15C,0.0090*%
%ADD16C,0.0100*%
%ADD17C,0.0130*%
%ADD18C,0.0120*%
%ADD19C,0.0495*%
%ADD20R,0.1750X0.0700*%
%ADD21R,0.0350X0.0350*%
%ADD22R,0.0350X0.0350*%
%ADD23C,0.0050*%
%ADD24R,0.0200X0.0150*%
%ADD25C,0.0020*%
%ADD26R,0.0200X0.0800*%
%ADD27R,0.0750X0.0200*%
%ADD28R,0.0150X0.0200*%
%ADD29C,0.0010*%
%ADD30R,0.0800X0.0200*%
%ADD31R,0.0200X0.0750*%
%ADD32C,0.0030*%
D10*
X006002Y005950D02*
X006602Y005950D01*
X006619Y005952D01*
X006636Y005956D01*
X006652Y005963D01*
X006666Y005973D01*
X006679Y005986D01*
X006689Y006000D01*
X006696Y006016D01*
X006700Y006033D01*
X006702Y006050D01*
X006702Y006450D01*
X006652Y006500D01*
X006652Y007613D01*
X006702Y007663D01*
X006702Y008063D01*
X006700Y008080D01*
X006696Y008097D01*
X006689Y008113D01*
X006679Y008127D01*
X006666Y008140D01*
X006652Y008150D01*
X006636Y008157D01*
X006619Y008161D01*
X006602Y008163D01*
X006002Y008163D01*
X005985Y008161D01*
X005968Y008157D01*
X005952Y008150D01*
X005938Y008140D01*
X005925Y008127D01*
X005915Y008113D01*
X005908Y008097D01*
X005904Y008080D01*
X005902Y008063D01*
X005902Y007663D01*
X005952Y007613D01*
X005952Y006500D01*
X005902Y006450D01*
X005902Y006050D01*
X005904Y006033D01*
X005908Y006016D01*
X005915Y006000D01*
X005925Y005986D01*
X005938Y005973D01*
X005952Y005963D01*
X005968Y005956D01*
X005985Y005952D01*
X006002Y005950D01*
X006057Y006611D02*
X006057Y006781D01*
X006114Y006838D01*
X006227Y006838D01*
X006284Y006781D01*
X006284Y006611D01*
X006397Y006611D02*
X006057Y006611D01*
X006284Y006725D02*
X006397Y006838D01*
X006341Y006980D02*
X006284Y006980D01*
X006227Y007036D01*
X006227Y007150D01*
X006284Y007206D01*
X006341Y007206D01*
X006397Y007150D01*
X006397Y007036D01*
X006341Y006980D01*
X006227Y007036D02*
X006171Y006980D01*
X006114Y006980D01*
X006057Y007036D01*
X006057Y007150D01*
X006114Y007206D01*
X006171Y007206D01*
X006227Y007150D01*
X005452Y007256D02*
X005452Y008856D01*
X005450Y008873D01*
X005446Y008890D01*
X005439Y008906D01*
X005429Y008920D01*
X005416Y008933D01*
X005402Y008943D01*
X005386Y008950D01*
X005369Y008954D01*
X005352Y008956D01*
X004752Y008956D01*
X004735Y008954D01*
X004718Y008950D01*
X004702Y008943D01*
X004688Y008933D01*
X004675Y008920D01*
X004665Y008906D01*
X004658Y008890D01*
X004654Y008873D01*
X004652Y008856D01*
X004652Y007256D01*
X004654Y007239D01*
X004658Y007222D01*
X004665Y007206D01*
X004675Y007192D01*
X004688Y007179D01*
X004702Y007169D01*
X004718Y007162D01*
X004735Y007158D01*
X004752Y007156D01*
X005352Y007156D01*
X005369Y007158D01*
X005386Y007162D01*
X005402Y007169D01*
X005416Y007179D01*
X005429Y007192D01*
X005439Y007206D01*
X005446Y007222D01*
X005450Y007239D01*
X005452Y007256D01*
X005272Y007586D02*
X005272Y007756D01*
X005216Y007813D01*
X004989Y007813D01*
X004932Y007756D01*
X004932Y007586D01*
X005272Y007586D01*
X005272Y007955D02*
X005046Y008181D01*
X004989Y008181D01*
X004932Y008125D01*
X004932Y008011D01*
X004989Y007955D01*
X005272Y007955D02*
X005272Y008181D01*
X007012Y009726D02*
X007012Y009986D01*
X006892Y009856D02*
X007142Y009856D01*
X007066Y010275D02*
X007122Y010331D01*
X007122Y010445D01*
X007066Y010502D01*
X007122Y010643D02*
X006896Y010870D01*
X006839Y010870D01*
X006782Y010813D01*
X006782Y010700D01*
X006839Y010643D01*
X006839Y010502D02*
X006782Y010445D01*
X006782Y010331D01*
X006839Y010275D01*
X007066Y010275D01*
X007122Y010643D02*
X007122Y010870D01*
X006312Y010306D02*
X006314Y010376D01*
X006320Y010446D01*
X006330Y010516D01*
X006344Y010584D01*
X006361Y010652D01*
X006383Y010719D01*
X006408Y010785D01*
X006437Y010849D01*
X006469Y010911D01*
X006505Y010971D01*
X006545Y011029D01*
X006587Y011085D01*
X006633Y011138D01*
X006681Y011189D01*
X006733Y011237D01*
X006787Y011282D01*
X006843Y011323D01*
X006902Y011362D01*
X006963Y011397D01*
X007025Y011429D01*
X007090Y011457D01*
X007155Y011481D01*
X007223Y011501D01*
X007291Y011518D01*
X007360Y011531D01*
X007429Y011540D01*
X007499Y011545D01*
X007570Y011546D01*
X007640Y011543D01*
X007710Y011536D01*
X007779Y011525D01*
X007847Y011510D01*
X007915Y011492D01*
X007982Y011469D01*
X008047Y011443D01*
X008110Y011413D01*
X008172Y011380D01*
X008232Y011343D01*
X008289Y011303D01*
X008345Y011260D01*
X008397Y011213D01*
X008447Y011164D01*
X008494Y011112D01*
X008538Y011057D01*
X008579Y011000D01*
X008617Y010941D01*
X008651Y010880D01*
X008682Y010817D01*
X008709Y010752D01*
X008732Y010686D01*
X008752Y010618D01*
X008768Y010550D01*
X008780Y010481D01*
X008788Y010411D01*
X008792Y010341D01*
X008792Y010271D01*
X008788Y010201D01*
X008780Y010131D01*
X008768Y010062D01*
X008752Y009994D01*
X008732Y009926D01*
X008709Y009860D01*
X008682Y009795D01*
X008651Y009732D01*
X008617Y009671D01*
X008579Y009612D01*
X008538Y009555D01*
X008494Y009500D01*
X008447Y009448D01*
X008397Y009399D01*
X008345Y009352D01*
X008289Y009309D01*
X008232Y009269D01*
X008172Y009232D01*
X008110Y009199D01*
X008047Y009169D01*
X007982Y009143D01*
X007915Y009120D01*
X007847Y009102D01*
X007779Y009087D01*
X007710Y009076D01*
X007640Y009069D01*
X007570Y009066D01*
X007499Y009067D01*
X007429Y009072D01*
X007360Y009081D01*
X007291Y009094D01*
X007223Y009111D01*
X007155Y009131D01*
X007090Y009155D01*
X007025Y009183D01*
X006963Y009215D01*
X006902Y009250D01*
X006843Y009289D01*
X006787Y009330D01*
X006733Y009375D01*
X006681Y009423D01*
X006633Y009474D01*
X006587Y009527D01*
X006545Y009583D01*
X006505Y009641D01*
X006469Y009701D01*
X006437Y009763D01*
X006408Y009827D01*
X006383Y009893D01*
X006361Y009960D01*
X006344Y010028D01*
X006330Y010096D01*
X006320Y010166D01*
X006314Y010236D01*
X006312Y010306D01*
X006402Y011761D02*
X006402Y011919D01*
X006952Y011981D02*
X006952Y013631D01*
X006402Y013694D02*
X006402Y013852D01*
X006402Y012919D02*
X006402Y012694D01*
X007762Y014226D02*
X007762Y014486D01*
X007642Y014356D02*
X007892Y014356D01*
X007716Y014850D02*
X007772Y014906D01*
X007772Y015020D01*
X007716Y015077D01*
X007772Y015218D02*
X007772Y015445D01*
X007772Y015331D02*
X007432Y015331D01*
X007546Y015218D01*
X007489Y015077D02*
X007432Y015020D01*
X007432Y014906D01*
X007489Y014850D01*
X007716Y014850D01*
X007062Y014806D02*
X007064Y014876D01*
X007070Y014946D01*
X007080Y015016D01*
X007094Y015084D01*
X007111Y015152D01*
X007133Y015219D01*
X007158Y015285D01*
X007187Y015349D01*
X007219Y015411D01*
X007255Y015471D01*
X007295Y015529D01*
X007337Y015585D01*
X007383Y015638D01*
X007431Y015689D01*
X007483Y015737D01*
X007537Y015782D01*
X007593Y015823D01*
X007652Y015862D01*
X007713Y015897D01*
X007775Y015929D01*
X007840Y015957D01*
X007905Y015981D01*
X007973Y016001D01*
X008041Y016018D01*
X008110Y016031D01*
X008179Y016040D01*
X008249Y016045D01*
X008320Y016046D01*
X008390Y016043D01*
X008460Y016036D01*
X008529Y016025D01*
X008597Y016010D01*
X008665Y015992D01*
X008732Y015969D01*
X008797Y015943D01*
X008860Y015913D01*
X008922Y015880D01*
X008982Y015843D01*
X009039Y015803D01*
X009095Y015760D01*
X009147Y015713D01*
X009197Y015664D01*
X009244Y015612D01*
X009288Y015557D01*
X009329Y015500D01*
X009367Y015441D01*
X009401Y015380D01*
X009432Y015317D01*
X009459Y015252D01*
X009482Y015186D01*
X009502Y015118D01*
X009518Y015050D01*
X009530Y014981D01*
X009538Y014911D01*
X009542Y014841D01*
X009542Y014771D01*
X009538Y014701D01*
X009530Y014631D01*
X009518Y014562D01*
X009502Y014494D01*
X009482Y014426D01*
X009459Y014360D01*
X009432Y014295D01*
X009401Y014232D01*
X009367Y014171D01*
X009329Y014112D01*
X009288Y014055D01*
X009244Y014000D01*
X009197Y013948D01*
X009147Y013899D01*
X009095Y013852D01*
X009039Y013809D01*
X008982Y013769D01*
X008922Y013732D01*
X008860Y013699D01*
X008797Y013669D01*
X008732Y013643D01*
X008665Y013620D01*
X008597Y013602D01*
X008529Y013587D01*
X008460Y013576D01*
X008390Y013569D01*
X008320Y013566D01*
X008249Y013567D01*
X008179Y013572D01*
X008110Y013581D01*
X008041Y013594D01*
X007973Y013611D01*
X007905Y013631D01*
X007840Y013655D01*
X007775Y013683D01*
X007713Y013715D01*
X007652Y013750D01*
X007593Y013789D01*
X007537Y013830D01*
X007483Y013875D01*
X007431Y013923D01*
X007383Y013974D01*
X007337Y014027D01*
X007295Y014083D01*
X007255Y014141D01*
X007219Y014201D01*
X007187Y014263D01*
X007158Y014327D01*
X007133Y014393D01*
X007111Y014460D01*
X007094Y014528D01*
X007080Y014596D01*
X007070Y014666D01*
X007064Y014736D01*
X007062Y014806D01*
X008857Y013088D02*
X008914Y013145D01*
X009141Y012918D01*
X009197Y012975D01*
X009197Y013088D01*
X009141Y013145D01*
X008914Y013145D01*
X008857Y013088D02*
X008857Y012975D01*
X008914Y012918D01*
X009141Y012918D01*
X009197Y012777D02*
X009197Y012550D01*
X009197Y012663D02*
X008857Y012663D01*
X008971Y012550D01*
X008914Y012408D02*
X008857Y012351D01*
X008857Y012238D01*
X008914Y012181D01*
X009141Y012181D01*
X009197Y012238D01*
X009197Y012351D01*
X009141Y012408D01*
X009352Y012306D02*
X009352Y013306D01*
X009354Y013323D01*
X009358Y013340D01*
X009365Y013356D01*
X009375Y013370D01*
X009388Y013383D01*
X009402Y013393D01*
X009418Y013400D01*
X009435Y013404D01*
X009452Y013406D01*
X012152Y013406D01*
X012169Y013404D01*
X012186Y013400D01*
X012202Y013393D01*
X012216Y013383D01*
X012229Y013370D01*
X012239Y013356D01*
X012246Y013340D01*
X012250Y013323D01*
X012252Y013306D01*
X012252Y012306D01*
X012250Y012289D01*
X012246Y012272D01*
X012239Y012256D01*
X012229Y012242D01*
X012216Y012229D01*
X012202Y012219D01*
X012186Y012212D01*
X012169Y012208D01*
X012152Y012206D01*
X009452Y012206D01*
X009435Y012208D01*
X009418Y012212D01*
X009402Y012219D01*
X009388Y012229D01*
X009375Y012242D01*
X009365Y012256D01*
X009358Y012272D01*
X009354Y012289D01*
X009352Y012306D01*
X009652Y011806D02*
X010402Y011806D01*
X010404Y011767D01*
X010410Y011728D01*
X010419Y011690D01*
X010432Y011653D01*
X010449Y011617D01*
X010469Y011584D01*
X010493Y011552D01*
X010519Y011523D01*
X010548Y011497D01*
X010580Y011473D01*
X010613Y011453D01*
X010649Y011436D01*
X010686Y011423D01*
X010724Y011414D01*
X010763Y011408D01*
X010802Y011406D01*
X010841Y011408D01*
X010880Y011414D01*
X010918Y011423D01*
X010955Y011436D01*
X010991Y011453D01*
X011024Y011473D01*
X011056Y011497D01*
X011085Y011523D01*
X011111Y011552D01*
X011135Y011584D01*
X011155Y011617D01*
X011172Y011653D01*
X011185Y011690D01*
X011194Y011728D01*
X011200Y011767D01*
X011202Y011806D01*
X011952Y011806D01*
X011952Y004806D01*
X009652Y004806D01*
X009652Y011806D01*
X010202Y012806D02*
X010672Y012806D01*
X010922Y012806D02*
X011402Y012806D01*
X011952Y013706D02*
X014652Y013706D01*
X014669Y013708D01*
X014686Y013712D01*
X014702Y013719D01*
X014716Y013729D01*
X014729Y013742D01*
X014739Y013756D01*
X014746Y013772D01*
X014750Y013789D01*
X014752Y013806D01*
X014752Y014806D01*
X014750Y014823D01*
X014746Y014840D01*
X014739Y014856D01*
X014729Y014870D01*
X014716Y014883D01*
X014702Y014893D01*
X014686Y014900D01*
X014669Y014904D01*
X014652Y014906D01*
X011952Y014906D01*
X011935Y014904D01*
X011918Y014900D01*
X011902Y014893D01*
X011888Y014883D01*
X011875Y014870D01*
X011865Y014856D01*
X011858Y014840D01*
X011854Y014823D01*
X011852Y014806D01*
X011852Y013806D01*
X011854Y013789D01*
X011858Y013772D01*
X011865Y013756D01*
X011875Y013742D01*
X011888Y013729D01*
X011902Y013719D01*
X011918Y013712D01*
X011935Y013708D01*
X011952Y013706D01*
X011747Y013931D02*
X011747Y014045D01*
X011691Y014102D01*
X011691Y014243D02*
X011747Y014243D01*
X011691Y014243D02*
X011464Y014470D01*
X011407Y014470D01*
X011407Y014243D01*
X011464Y014102D02*
X011407Y014045D01*
X011407Y013931D01*
X011464Y013875D01*
X011691Y013875D01*
X011747Y013931D01*
X012702Y014306D02*
X013172Y014306D01*
X013422Y014306D02*
X013902Y014306D01*
X014452Y015306D02*
X012152Y015306D01*
X012152Y019306D01*
X012902Y019306D01*
X012904Y019267D01*
X012910Y019228D01*
X012919Y019190D01*
X012932Y019153D01*
X012949Y019117D01*
X012969Y019084D01*
X012993Y019052D01*
X013019Y019023D01*
X013048Y018997D01*
X013080Y018973D01*
X013113Y018953D01*
X013149Y018936D01*
X013186Y018923D01*
X013224Y018914D01*
X013263Y018908D01*
X013302Y018906D01*
X013341Y018908D01*
X013380Y018914D01*
X013418Y018923D01*
X013455Y018936D01*
X013491Y018953D01*
X013524Y018973D01*
X013556Y018997D01*
X013585Y019023D01*
X013611Y019052D01*
X013635Y019084D01*
X013655Y019117D01*
X013672Y019153D01*
X013685Y019190D01*
X013694Y019228D01*
X013700Y019267D01*
X013702Y019306D01*
X014452Y019306D01*
X014452Y015306D01*
X016307Y014338D02*
X016364Y014395D01*
X016421Y014395D01*
X016477Y014338D01*
X016534Y014395D01*
X016591Y014395D01*
X016647Y014338D01*
X016647Y014225D01*
X016591Y014168D01*
X016591Y014027D02*
X016647Y013970D01*
X016647Y013856D01*
X016591Y013800D01*
X016364Y013800D01*
X016307Y013856D01*
X016307Y013970D01*
X016364Y014027D01*
X016364Y014168D02*
X016307Y014225D01*
X016307Y014338D01*
X016477Y014338D02*
X016477Y014281D01*
X015812Y014056D02*
X015814Y014126D01*
X015820Y014196D01*
X015830Y014266D01*
X015844Y014334D01*
X015861Y014402D01*
X015883Y014469D01*
X015908Y014535D01*
X015937Y014599D01*
X015969Y014661D01*
X016005Y014721D01*
X016045Y014779D01*
X016087Y014835D01*
X016133Y014888D01*
X016181Y014939D01*
X016233Y014987D01*
X016287Y015032D01*
X016343Y015073D01*
X016402Y015112D01*
X016463Y015147D01*
X016525Y015179D01*
X016590Y015207D01*
X016655Y015231D01*
X016723Y015251D01*
X016791Y015268D01*
X016860Y015281D01*
X016929Y015290D01*
X016999Y015295D01*
X017070Y015296D01*
X017140Y015293D01*
X017210Y015286D01*
X017279Y015275D01*
X017347Y015260D01*
X017415Y015242D01*
X017482Y015219D01*
X017547Y015193D01*
X017610Y015163D01*
X017672Y015130D01*
X017732Y015093D01*
X017789Y015053D01*
X017845Y015010D01*
X017897Y014963D01*
X017947Y014914D01*
X017994Y014862D01*
X018038Y014807D01*
X018079Y014750D01*
X018117Y014691D01*
X018151Y014630D01*
X018182Y014567D01*
X018209Y014502D01*
X018232Y014436D01*
X018252Y014368D01*
X018268Y014300D01*
X018280Y014231D01*
X018288Y014161D01*
X018292Y014091D01*
X018292Y014021D01*
X018288Y013951D01*
X018280Y013881D01*
X018268Y013812D01*
X018252Y013744D01*
X018232Y013676D01*
X018209Y013610D01*
X018182Y013545D01*
X018151Y013482D01*
X018117Y013421D01*
X018079Y013362D01*
X018038Y013305D01*
X017994Y013250D01*
X017947Y013198D01*
X017897Y013149D01*
X017845Y013102D01*
X017789Y013059D01*
X017732Y013019D01*
X017672Y012982D01*
X017610Y012949D01*
X017547Y012919D01*
X017482Y012893D01*
X017415Y012870D01*
X017347Y012852D01*
X017279Y012837D01*
X017210Y012826D01*
X017140Y012819D01*
X017070Y012816D01*
X016999Y012817D01*
X016929Y012822D01*
X016860Y012831D01*
X016791Y012844D01*
X016723Y012861D01*
X016655Y012881D01*
X016590Y012905D01*
X016525Y012933D01*
X016463Y012965D01*
X016402Y013000D01*
X016343Y013039D01*
X016287Y013080D01*
X016233Y013125D01*
X016181Y013173D01*
X016133Y013224D01*
X016087Y013277D01*
X016045Y013333D01*
X016005Y013391D01*
X015969Y013451D01*
X015937Y013513D01*
X015908Y013577D01*
X015883Y013643D01*
X015861Y013710D01*
X015844Y013778D01*
X015830Y013846D01*
X015820Y013916D01*
X015814Y013986D01*
X015812Y014056D01*
X017462Y014506D02*
X017712Y014506D01*
X017592Y014376D02*
X017592Y014636D01*
X017752Y017200D02*
X018352Y017200D01*
X018369Y017202D01*
X018386Y017206D01*
X018402Y017213D01*
X018416Y017223D01*
X018429Y017236D01*
X018439Y017250D01*
X018446Y017266D01*
X018450Y017283D01*
X018452Y017300D01*
X018452Y017700D01*
X018402Y017750D01*
X018402Y018863D01*
X018452Y018913D01*
X018452Y019313D01*
X018450Y019330D01*
X018446Y019347D01*
X018439Y019363D01*
X018429Y019377D01*
X018416Y019390D01*
X018402Y019400D01*
X018386Y019407D01*
X018369Y019411D01*
X018352Y019413D01*
X017752Y019413D01*
X017735Y019411D01*
X017718Y019407D01*
X017702Y019400D01*
X017688Y019390D01*
X017675Y019377D01*
X017665Y019363D01*
X017658Y019347D01*
X017654Y019330D01*
X017652Y019313D01*
X017652Y018913D01*
X017702Y018863D01*
X017702Y017750D01*
X017652Y017700D01*
X017652Y017300D01*
X017654Y017283D01*
X017658Y017266D01*
X017665Y017250D01*
X017675Y017236D01*
X017688Y017223D01*
X017702Y017213D01*
X017718Y017206D01*
X017735Y017202D01*
X017752Y017200D01*
X016952Y017300D02*
X016952Y017700D01*
X016902Y017750D01*
X016902Y018863D01*
X016952Y018913D01*
X016952Y019313D01*
X016950Y019330D01*
X016946Y019347D01*
X016939Y019363D01*
X016929Y019377D01*
X016916Y019390D01*
X016902Y019400D01*
X016886Y019407D01*
X016869Y019411D01*
X016852Y019413D01*
X016252Y019413D01*
X016235Y019411D01*
X016218Y019407D01*
X016202Y019400D01*
X016188Y019390D01*
X016175Y019377D01*
X016165Y019363D01*
X016158Y019347D01*
X016154Y019330D01*
X016152Y019313D01*
X016152Y018913D01*
X016202Y018863D01*
X016202Y017750D01*
X016152Y017700D01*
X016152Y017300D01*
X016154Y017283D01*
X016158Y017266D01*
X016165Y017250D01*
X016175Y017236D01*
X016188Y017223D01*
X016202Y017213D01*
X016218Y017206D01*
X016235Y017202D01*
X016252Y017200D01*
X016852Y017200D01*
X016869Y017202D01*
X016886Y017206D01*
X016902Y017213D01*
X016916Y017223D01*
X016929Y017236D01*
X016939Y017250D01*
X016946Y017266D01*
X016950Y017283D01*
X016952Y017300D01*
X016722Y018075D02*
X016382Y018075D01*
X016382Y018245D01*
X016439Y018302D01*
X016552Y018302D01*
X016609Y018245D01*
X016609Y018075D01*
X016609Y018188D02*
X016722Y018302D01*
X016722Y018443D02*
X016722Y018670D01*
X016722Y018556D02*
X016382Y018556D01*
X016496Y018443D01*
X017832Y018450D02*
X017889Y018393D01*
X017832Y018450D02*
X017832Y018563D01*
X017889Y018620D01*
X017946Y018620D01*
X018002Y018563D01*
X018059Y018620D01*
X018116Y018620D01*
X018172Y018563D01*
X018172Y018450D01*
X018116Y018393D01*
X018172Y018252D02*
X018059Y018138D01*
X018059Y018195D02*
X018059Y018025D01*
X018172Y018025D02*
X017832Y018025D01*
X017832Y018195D01*
X017889Y018252D01*
X018002Y018252D01*
X018059Y018195D01*
X018002Y018506D02*
X018002Y018563D01*
X020892Y018856D02*
X021142Y018856D01*
X021012Y018986D02*
X021012Y018726D01*
X020312Y019306D02*
X020314Y019376D01*
X020320Y019446D01*
X020330Y019516D01*
X020344Y019584D01*
X020361Y019652D01*
X020383Y019719D01*
X020408Y019785D01*
X020437Y019849D01*
X020469Y019911D01*
X020505Y019971D01*
X020545Y020029D01*
X020587Y020085D01*
X020633Y020138D01*
X020681Y020189D01*
X020733Y020237D01*
X020787Y020282D01*
X020843Y020323D01*
X020902Y020362D01*
X020963Y020397D01*
X021025Y020429D01*
X021090Y020457D01*
X021155Y020481D01*
X021223Y020501D01*
X021291Y020518D01*
X021360Y020531D01*
X021429Y020540D01*
X021499Y020545D01*
X021570Y020546D01*
X021640Y020543D01*
X021710Y020536D01*
X021779Y020525D01*
X021847Y020510D01*
X021915Y020492D01*
X021982Y020469D01*
X022047Y020443D01*
X022110Y020413D01*
X022172Y020380D01*
X022232Y020343D01*
X022289Y020303D01*
X022345Y020260D01*
X022397Y020213D01*
X022447Y020164D01*
X022494Y020112D01*
X022538Y020057D01*
X022579Y020000D01*
X022617Y019941D01*
X022651Y019880D01*
X022682Y019817D01*
X022709Y019752D01*
X022732Y019686D01*
X022752Y019618D01*
X022768Y019550D01*
X022780Y019481D01*
X022788Y019411D01*
X022792Y019341D01*
X022792Y019271D01*
X022788Y019201D01*
X022780Y019131D01*
X022768Y019062D01*
X022752Y018994D01*
X022732Y018926D01*
X022709Y018860D01*
X022682Y018795D01*
X022651Y018732D01*
X022617Y018671D01*
X022579Y018612D01*
X022538Y018555D01*
X022494Y018500D01*
X022447Y018448D01*
X022397Y018399D01*
X022345Y018352D01*
X022289Y018309D01*
X022232Y018269D01*
X022172Y018232D01*
X022110Y018199D01*
X022047Y018169D01*
X021982Y018143D01*
X021915Y018120D01*
X021847Y018102D01*
X021779Y018087D01*
X021710Y018076D01*
X021640Y018069D01*
X021570Y018066D01*
X021499Y018067D01*
X021429Y018072D01*
X021360Y018081D01*
X021291Y018094D01*
X021223Y018111D01*
X021155Y018131D01*
X021090Y018155D01*
X021025Y018183D01*
X020963Y018215D01*
X020902Y018250D01*
X020843Y018289D01*
X020787Y018330D01*
X020733Y018375D01*
X020681Y018423D01*
X020633Y018474D01*
X020587Y018527D01*
X020545Y018583D01*
X020505Y018641D01*
X020469Y018701D01*
X020437Y018763D01*
X020408Y018827D01*
X020383Y018893D01*
X020361Y018960D01*
X020344Y019028D01*
X020330Y019096D01*
X020320Y019166D01*
X020314Y019236D01*
X020312Y019306D01*
X022182Y019318D02*
X022522Y019318D01*
X022522Y019205D02*
X022522Y019431D01*
X022522Y019573D02*
X022522Y019800D01*
X022522Y019686D02*
X022182Y019686D01*
X022296Y019573D01*
X022182Y019318D02*
X022296Y019205D01*
X022239Y019063D02*
X022182Y019006D01*
X022182Y018893D01*
X022239Y018836D01*
X022466Y018836D01*
X022522Y018893D01*
X022522Y019006D01*
X022466Y019063D01*
X024002Y017106D02*
X024002Y017006D01*
X024002Y017106D02*
X024102Y017106D01*
X024502Y017106D02*
X024602Y017106D01*
X024602Y017006D01*
X024602Y016606D02*
X024602Y016506D01*
X024502Y016506D01*
X024102Y016506D02*
X024002Y016506D01*
X024002Y016606D01*
X024002Y016106D02*
X024002Y016006D01*
X024002Y016106D02*
X024102Y016106D01*
X024502Y016106D02*
X024602Y016106D01*
X024602Y016006D01*
X024602Y015606D02*
X024602Y015506D01*
X024502Y015506D01*
X024102Y015506D02*
X024002Y015506D01*
X024002Y015606D01*
X024002Y015106D02*
X024002Y015006D01*
X024002Y015106D02*
X024102Y015106D01*
X024502Y015106D02*
X024602Y015106D01*
X024602Y015006D01*
X024602Y014606D02*
X024602Y014506D01*
X024502Y014506D01*
X024102Y014506D02*
X024002Y014506D01*
X024002Y014606D01*
X024002Y014106D02*
X024002Y014006D01*
X024002Y014106D02*
X024102Y014106D01*
X024502Y014106D02*
X024602Y014106D01*
X024602Y014006D01*
X024602Y013606D02*
X024602Y013506D01*
X024502Y013506D01*
X024102Y013506D02*
X024002Y013506D01*
X024002Y013606D01*
X024002Y013106D02*
X024002Y013006D01*
X024002Y013106D02*
X024102Y013106D01*
X024502Y013106D02*
X024602Y013106D01*
X024602Y013006D01*
X024602Y012606D02*
X024602Y012506D01*
X024502Y012506D01*
X024102Y012506D02*
X024002Y012506D01*
X024002Y012606D01*
X025002Y012606D02*
X025002Y012506D01*
X025102Y012506D01*
X025502Y012506D02*
X025602Y012506D01*
X025602Y012606D01*
X025602Y013006D02*
X025602Y013106D01*
X025502Y013106D01*
X025102Y013106D02*
X025002Y013106D01*
X025002Y013006D01*
X025002Y013506D02*
X025102Y013506D01*
X025002Y013506D02*
X025002Y013606D01*
X025502Y013506D02*
X025602Y013506D01*
X025602Y013606D01*
X026002Y013606D02*
X026002Y013506D01*
X026102Y013506D01*
X026502Y013506D02*
X026602Y013506D01*
X026602Y013606D01*
X026602Y014006D02*
X026602Y014106D01*
X026502Y014106D01*
X026102Y014106D02*
X026002Y014106D01*
X026002Y014006D01*
X025602Y014006D02*
X025602Y014106D01*
X025502Y014106D01*
X025102Y014106D02*
X025002Y014106D01*
X025002Y014006D01*
X025002Y014506D02*
X025102Y014506D01*
X025002Y014506D02*
X025002Y014606D01*
X025502Y014506D02*
X025602Y014506D01*
X025602Y014606D01*
X026002Y014606D02*
X026002Y014506D01*
X026102Y014506D01*
X026502Y014506D02*
X026602Y014506D01*
X026602Y014606D01*
X026602Y015006D02*
X026602Y015106D01*
X026502Y015106D01*
X026102Y015106D02*
X026002Y015106D01*
X026002Y015006D01*
X025602Y015006D02*
X025602Y015106D01*
X025502Y015106D01*
X025102Y015106D02*
X025002Y015106D01*
X025002Y015006D01*
X025002Y015506D02*
X025102Y015506D01*
X025002Y015506D02*
X025002Y015606D01*
X025502Y015506D02*
X025602Y015506D01*
X025602Y015606D01*
X026002Y015606D02*
X026002Y015506D01*
X026102Y015506D01*
X026502Y015506D02*
X026602Y015506D01*
X026602Y015606D01*
X026602Y016006D02*
X026602Y016106D01*
X026502Y016106D01*
X026102Y016106D02*
X026002Y016106D01*
X026002Y016006D01*
X025602Y016006D02*
X025602Y016106D01*
X025502Y016106D01*
X025102Y016106D02*
X025002Y016106D01*
X025002Y016006D01*
X025002Y016506D02*
X025102Y016506D01*
X025002Y016506D02*
X025002Y016606D01*
X025502Y016506D02*
X025602Y016506D01*
X025602Y016606D01*
X025602Y017006D02*
X025602Y017106D01*
X025502Y017106D01*
X025102Y017106D02*
X025002Y017106D01*
X025002Y017006D01*
X028152Y019306D02*
X028902Y019306D01*
X028904Y019267D01*
X028910Y019228D01*
X028919Y019190D01*
X028932Y019153D01*
X028949Y019117D01*
X028969Y019084D01*
X028993Y019052D01*
X029019Y019023D01*
X029048Y018997D01*
X029080Y018973D01*
X029113Y018953D01*
X029149Y018936D01*
X029186Y018923D01*
X029224Y018914D01*
X029263Y018908D01*
X029302Y018906D01*
X029341Y018908D01*
X029380Y018914D01*
X029418Y018923D01*
X029455Y018936D01*
X029491Y018953D01*
X029524Y018973D01*
X029556Y018997D01*
X029585Y019023D01*
X029611Y019052D01*
X029635Y019084D01*
X029655Y019117D01*
X029672Y019153D01*
X029685Y019190D01*
X029694Y019228D01*
X029700Y019267D01*
X029702Y019306D01*
X030452Y019306D01*
X030452Y012306D01*
X028152Y012306D01*
X028152Y019306D01*
X027952Y019706D02*
X030652Y019706D01*
X030669Y019708D01*
X030686Y019712D01*
X030702Y019719D01*
X030716Y019729D01*
X030729Y019742D01*
X030739Y019756D01*
X030746Y019772D01*
X030750Y019789D01*
X030752Y019806D01*
X030752Y020806D01*
X030750Y020823D01*
X030746Y020840D01*
X030739Y020856D01*
X030729Y020870D01*
X030716Y020883D01*
X030702Y020893D01*
X030686Y020900D01*
X030669Y020904D01*
X030652Y020906D01*
X027952Y020906D01*
X027935Y020904D01*
X027918Y020900D01*
X027902Y020893D01*
X027888Y020883D01*
X027875Y020870D01*
X027865Y020856D01*
X027858Y020840D01*
X027854Y020823D01*
X027852Y020806D01*
X027852Y019806D01*
X027854Y019789D01*
X027858Y019772D01*
X027865Y019756D01*
X027875Y019742D01*
X027888Y019729D01*
X027902Y019719D01*
X027918Y019712D01*
X027935Y019708D01*
X027952Y019706D01*
X027647Y020006D02*
X027647Y020120D01*
X027591Y020177D01*
X027591Y020318D02*
X027534Y020318D01*
X027477Y020375D01*
X027477Y020488D01*
X027534Y020545D01*
X027591Y020545D01*
X027647Y020488D01*
X027647Y020375D01*
X027591Y020318D01*
X027477Y020375D02*
X027421Y020318D01*
X027364Y020318D01*
X027307Y020375D01*
X027307Y020488D01*
X027364Y020545D01*
X027421Y020545D01*
X027477Y020488D01*
X027364Y020177D02*
X027307Y020120D01*
X027307Y020006D01*
X027364Y019950D01*
X027591Y019950D01*
X027647Y020006D01*
X028702Y020306D02*
X029172Y020306D01*
X029422Y020306D02*
X029902Y020306D01*
X033012Y017736D02*
X033012Y017476D01*
X032892Y017606D02*
X033142Y017606D01*
X032312Y018056D02*
X032314Y018126D01*
X032320Y018196D01*
X032330Y018266D01*
X032344Y018334D01*
X032361Y018402D01*
X032383Y018469D01*
X032408Y018535D01*
X032437Y018599D01*
X032469Y018661D01*
X032505Y018721D01*
X032545Y018779D01*
X032587Y018835D01*
X032633Y018888D01*
X032681Y018939D01*
X032733Y018987D01*
X032787Y019032D01*
X032843Y019073D01*
X032902Y019112D01*
X032963Y019147D01*
X033025Y019179D01*
X033090Y019207D01*
X033155Y019231D01*
X033223Y019251D01*
X033291Y019268D01*
X033360Y019281D01*
X033429Y019290D01*
X033499Y019295D01*
X033570Y019296D01*
X033640Y019293D01*
X033710Y019286D01*
X033779Y019275D01*
X033847Y019260D01*
X033915Y019242D01*
X033982Y019219D01*
X034047Y019193D01*
X034110Y019163D01*
X034172Y019130D01*
X034232Y019093D01*
X034289Y019053D01*
X034345Y019010D01*
X034397Y018963D01*
X034447Y018914D01*
X034494Y018862D01*
X034538Y018807D01*
X034579Y018750D01*
X034617Y018691D01*
X034651Y018630D01*
X034682Y018567D01*
X034709Y018502D01*
X034732Y018436D01*
X034752Y018368D01*
X034768Y018300D01*
X034780Y018231D01*
X034788Y018161D01*
X034792Y018091D01*
X034792Y018021D01*
X034788Y017951D01*
X034780Y017881D01*
X034768Y017812D01*
X034752Y017744D01*
X034732Y017676D01*
X034709Y017610D01*
X034682Y017545D01*
X034651Y017482D01*
X034617Y017421D01*
X034579Y017362D01*
X034538Y017305D01*
X034494Y017250D01*
X034447Y017198D01*
X034397Y017149D01*
X034345Y017102D01*
X034289Y017059D01*
X034232Y017019D01*
X034172Y016982D01*
X034110Y016949D01*
X034047Y016919D01*
X033982Y016893D01*
X033915Y016870D01*
X033847Y016852D01*
X033779Y016837D01*
X033710Y016826D01*
X033640Y016819D01*
X033570Y016816D01*
X033499Y016817D01*
X033429Y016822D01*
X033360Y016831D01*
X033291Y016844D01*
X033223Y016861D01*
X033155Y016881D01*
X033090Y016905D01*
X033025Y016933D01*
X032963Y016965D01*
X032902Y017000D01*
X032843Y017039D01*
X032787Y017080D01*
X032733Y017125D01*
X032681Y017173D01*
X032633Y017224D01*
X032587Y017277D01*
X032545Y017333D01*
X032505Y017391D01*
X032469Y017451D01*
X032437Y017513D01*
X032408Y017577D01*
X032383Y017643D01*
X032361Y017710D01*
X032344Y017778D01*
X032330Y017846D01*
X032320Y017916D01*
X032314Y017986D01*
X032312Y018056D01*
X034007Y017988D02*
X034121Y017875D01*
X034064Y017733D02*
X034007Y017676D01*
X034007Y017563D01*
X034064Y017506D01*
X034291Y017506D01*
X034347Y017563D01*
X034347Y017676D01*
X034291Y017733D01*
X034347Y017875D02*
X034347Y018102D01*
X034347Y017988D02*
X034007Y017988D01*
X034064Y018243D02*
X034007Y018300D01*
X034007Y018413D01*
X034064Y018470D01*
X034121Y018470D01*
X034347Y018243D01*
X034347Y018470D01*
X026541Y011495D02*
X026541Y011438D01*
X026484Y011381D01*
X026541Y011325D01*
X026541Y011268D01*
X026484Y011211D01*
X026371Y011211D01*
X026314Y011268D01*
X026173Y011211D02*
X025946Y011211D01*
X026059Y011211D02*
X026059Y011552D01*
X025946Y011438D01*
X025804Y011495D02*
X025748Y011552D01*
X025634Y011552D01*
X025577Y011495D01*
X025577Y011268D01*
X025634Y011211D01*
X025748Y011211D01*
X025804Y011268D01*
X026314Y011495D02*
X026371Y011552D01*
X026484Y011552D01*
X026541Y011495D01*
X026484Y011381D02*
X026427Y011381D01*
X024812Y010806D02*
X024814Y010876D01*
X024820Y010946D01*
X024830Y011016D01*
X024844Y011084D01*
X024861Y011152D01*
X024883Y011219D01*
X024908Y011285D01*
X024937Y011349D01*
X024969Y011411D01*
X025005Y011471D01*
X025045Y011529D01*
X025087Y011585D01*
X025133Y011638D01*
X025181Y011689D01*
X025233Y011737D01*
X025287Y011782D01*
X025343Y011823D01*
X025402Y011862D01*
X025463Y011897D01*
X025525Y011929D01*
X025590Y011957D01*
X025655Y011981D01*
X025723Y012001D01*
X025791Y012018D01*
X025860Y012031D01*
X025929Y012040D01*
X025999Y012045D01*
X026070Y012046D01*
X026140Y012043D01*
X026210Y012036D01*
X026279Y012025D01*
X026347Y012010D01*
X026415Y011992D01*
X026482Y011969D01*
X026547Y011943D01*
X026610Y011913D01*
X026672Y011880D01*
X026732Y011843D01*
X026789Y011803D01*
X026845Y011760D01*
X026897Y011713D01*
X026947Y011664D01*
X026994Y011612D01*
X027038Y011557D01*
X027079Y011500D01*
X027117Y011441D01*
X027151Y011380D01*
X027182Y011317D01*
X027209Y011252D01*
X027232Y011186D01*
X027252Y011118D01*
X027268Y011050D01*
X027280Y010981D01*
X027288Y010911D01*
X027292Y010841D01*
X027292Y010771D01*
X027288Y010701D01*
X027280Y010631D01*
X027268Y010562D01*
X027252Y010494D01*
X027232Y010426D01*
X027209Y010360D01*
X027182Y010295D01*
X027151Y010232D01*
X027117Y010171D01*
X027079Y010112D01*
X027038Y010055D01*
X026994Y010000D01*
X026947Y009948D01*
X026897Y009899D01*
X026845Y009852D01*
X026789Y009809D01*
X026732Y009769D01*
X026672Y009732D01*
X026610Y009699D01*
X026547Y009669D01*
X026482Y009643D01*
X026415Y009620D01*
X026347Y009602D01*
X026279Y009587D01*
X026210Y009576D01*
X026140Y009569D01*
X026070Y009566D01*
X025999Y009567D01*
X025929Y009572D01*
X025860Y009581D01*
X025791Y009594D01*
X025723Y009611D01*
X025655Y009631D01*
X025590Y009655D01*
X025525Y009683D01*
X025463Y009715D01*
X025402Y009750D01*
X025343Y009789D01*
X025287Y009830D01*
X025233Y009875D01*
X025181Y009923D01*
X025133Y009974D01*
X025087Y010027D01*
X025045Y010083D01*
X025005Y010141D01*
X024969Y010201D01*
X024937Y010263D01*
X024908Y010327D01*
X024883Y010393D01*
X024861Y010460D01*
X024844Y010528D01*
X024830Y010596D01*
X024820Y010666D01*
X024814Y010736D01*
X024812Y010806D01*
X024402Y010406D02*
X021702Y010406D01*
X021685Y010404D01*
X021668Y010400D01*
X021652Y010393D01*
X021638Y010383D01*
X021625Y010370D01*
X021615Y010356D01*
X021608Y010340D01*
X021604Y010323D01*
X021602Y010306D01*
X021602Y009306D01*
X021604Y009289D01*
X021608Y009272D01*
X021615Y009256D01*
X021625Y009242D01*
X021638Y009229D01*
X021652Y009219D01*
X021668Y009212D01*
X021685Y009208D01*
X021702Y009206D01*
X024402Y009206D01*
X024419Y009208D01*
X024436Y009212D01*
X024452Y009219D01*
X024466Y009229D01*
X024479Y009242D01*
X024489Y009256D01*
X024496Y009272D01*
X024500Y009289D01*
X024502Y009306D01*
X024502Y010306D01*
X024500Y010323D01*
X024496Y010340D01*
X024489Y010356D01*
X024479Y010370D01*
X024466Y010383D01*
X024452Y010393D01*
X024436Y010400D01*
X024419Y010404D01*
X024402Y010406D01*
X023652Y009806D02*
X023172Y009806D01*
X022922Y009806D02*
X022452Y009806D01*
X021397Y009695D02*
X021341Y009752D01*
X021397Y009695D02*
X021397Y009581D01*
X021341Y009525D01*
X021114Y009525D01*
X021057Y009581D01*
X021057Y009695D01*
X021114Y009752D01*
X021227Y009893D02*
X021227Y010063D01*
X021284Y010120D01*
X021341Y010120D01*
X021397Y010063D01*
X021397Y009950D01*
X021341Y009893D01*
X021227Y009893D01*
X021114Y010006D01*
X021057Y010120D01*
X021902Y008806D02*
X022652Y008806D01*
X022654Y008767D01*
X022660Y008728D01*
X022669Y008690D01*
X022682Y008653D01*
X022699Y008617D01*
X022719Y008584D01*
X022743Y008552D01*
X022769Y008523D01*
X022798Y008497D01*
X022830Y008473D01*
X022863Y008453D01*
X022899Y008436D01*
X022936Y008423D01*
X022974Y008414D01*
X023013Y008408D01*
X023052Y008406D01*
X023091Y008408D01*
X023130Y008414D01*
X023168Y008423D01*
X023205Y008436D01*
X023241Y008453D01*
X023274Y008473D01*
X023306Y008497D01*
X023335Y008523D01*
X023361Y008552D01*
X023385Y008584D01*
X023405Y008617D01*
X023422Y008653D01*
X023435Y008690D01*
X023444Y008728D01*
X023450Y008767D01*
X023452Y008806D01*
X024202Y008806D01*
X024202Y001806D01*
X021902Y001806D01*
X021902Y008806D01*
X017909Y009506D02*
X017909Y010106D01*
X017907Y010123D01*
X017903Y010140D01*
X017896Y010156D01*
X017886Y010170D01*
X017873Y010183D01*
X017859Y010193D01*
X017843Y010200D01*
X017826Y010204D01*
X017809Y010206D01*
X017409Y010206D01*
X017359Y010156D01*
X016246Y010156D01*
X016196Y010206D01*
X015796Y010206D01*
X015779Y010204D01*
X015762Y010200D01*
X015746Y010193D01*
X015732Y010183D01*
X015719Y010170D01*
X015709Y010156D01*
X015702Y010140D01*
X015698Y010123D01*
X015696Y010106D01*
X015696Y009506D01*
X015698Y009489D01*
X015702Y009472D01*
X015709Y009456D01*
X015719Y009442D01*
X015732Y009429D01*
X015746Y009419D01*
X015762Y009412D01*
X015779Y009408D01*
X015796Y009406D01*
X016196Y009406D01*
X016246Y009456D01*
X017359Y009456D01*
X017409Y009406D01*
X017809Y009406D01*
X017826Y009408D01*
X017843Y009412D01*
X017859Y009419D01*
X017873Y009429D01*
X017886Y009442D01*
X017896Y009456D01*
X017903Y009472D01*
X017907Y009489D01*
X017909Y009506D01*
X017078Y009920D02*
X016851Y009693D01*
X016851Y009636D01*
X016709Y009636D02*
X016596Y009750D01*
X016652Y009750D02*
X016482Y009750D01*
X016482Y009636D02*
X016482Y009977D01*
X016652Y009977D01*
X016709Y009920D01*
X016709Y009806D01*
X016652Y009750D01*
X016851Y009977D02*
X017078Y009977D01*
X017078Y009920D01*
X016809Y010906D02*
X016409Y010906D01*
X016359Y010956D01*
X015246Y010956D01*
X015196Y010906D01*
X014796Y010906D01*
X014779Y010908D01*
X014762Y010912D01*
X014746Y010919D01*
X014732Y010929D01*
X014719Y010942D01*
X014709Y010956D01*
X014702Y010972D01*
X014698Y010989D01*
X014696Y011006D01*
X014696Y011606D01*
X014698Y011623D01*
X014702Y011640D01*
X014709Y011656D01*
X014719Y011670D01*
X014732Y011683D01*
X014746Y011693D01*
X014762Y011700D01*
X014779Y011704D01*
X014796Y011706D01*
X015196Y011706D01*
X015246Y011656D01*
X016359Y011656D01*
X016409Y011706D01*
X016809Y011706D01*
X016826Y011704D01*
X016843Y011700D01*
X016859Y011693D01*
X016873Y011683D01*
X016886Y011670D01*
X016896Y011656D01*
X016903Y011640D01*
X016907Y011623D01*
X016909Y011606D01*
X016909Y011006D01*
X016907Y010989D01*
X016903Y010972D01*
X016896Y010956D01*
X016886Y010942D01*
X016873Y010929D01*
X016859Y010919D01*
X016843Y010912D01*
X016826Y010908D01*
X016809Y010906D01*
X016103Y011168D02*
X016103Y011225D01*
X016046Y011281D01*
X015876Y011281D01*
X015876Y011168D01*
X015932Y011111D01*
X016046Y011111D01*
X016103Y011168D01*
X015876Y011281D02*
X015989Y011395D01*
X016103Y011452D01*
X015734Y011395D02*
X015734Y011281D01*
X015677Y011225D01*
X015507Y011225D01*
X015507Y011111D02*
X015507Y011452D01*
X015677Y011452D01*
X015734Y011395D01*
X015621Y011225D02*
X015734Y011111D01*
X016002Y008706D02*
X017602Y008706D01*
X017619Y008704D01*
X017636Y008700D01*
X017652Y008693D01*
X017666Y008683D01*
X017679Y008670D01*
X017689Y008656D01*
X017696Y008640D01*
X017700Y008623D01*
X017702Y008606D01*
X017702Y008006D01*
X017700Y007989D01*
X017696Y007972D01*
X017689Y007956D01*
X017679Y007942D01*
X017666Y007929D01*
X017652Y007919D01*
X017636Y007912D01*
X017619Y007908D01*
X017602Y007906D01*
X016002Y007906D01*
X015985Y007908D01*
X015968Y007912D01*
X015952Y007919D01*
X015938Y007929D01*
X015925Y007942D01*
X015915Y007956D01*
X015908Y007972D01*
X015904Y007989D01*
X015902Y008006D01*
X015902Y008606D01*
X015904Y008623D01*
X015908Y008640D01*
X015915Y008656D01*
X015925Y008670D01*
X015938Y008683D01*
X015952Y008693D01*
X015968Y008700D01*
X015985Y008704D01*
X016002Y008706D01*
X016471Y008552D02*
X016471Y008211D01*
X016641Y008211D01*
X016698Y008268D01*
X016698Y008495D01*
X016641Y008552D01*
X016471Y008552D01*
X016839Y008438D02*
X016952Y008552D01*
X016952Y008211D01*
X016839Y008211D02*
X017066Y008211D01*
X017409Y007206D02*
X017809Y007206D01*
X017826Y007204D01*
X017843Y007200D01*
X017859Y007193D01*
X017873Y007183D01*
X017886Y007170D01*
X017896Y007156D01*
X017903Y007140D01*
X017907Y007123D01*
X017909Y007106D01*
X017909Y006506D01*
X017907Y006489D01*
X017903Y006472D01*
X017896Y006456D01*
X017886Y006442D01*
X017873Y006429D01*
X017859Y006419D01*
X017843Y006412D01*
X017826Y006408D01*
X017809Y006406D01*
X017409Y006406D01*
X017359Y006456D01*
X016246Y006456D01*
X016196Y006406D01*
X015796Y006406D01*
X015779Y006408D01*
X015762Y006412D01*
X015746Y006419D01*
X015732Y006429D01*
X015719Y006442D01*
X015709Y006456D01*
X015702Y006472D01*
X015698Y006489D01*
X015696Y006506D01*
X015696Y007106D01*
X015698Y007123D01*
X015702Y007140D01*
X015709Y007156D01*
X015719Y007170D01*
X015732Y007183D01*
X015746Y007193D01*
X015762Y007200D01*
X015779Y007204D01*
X015796Y007206D01*
X016196Y007206D01*
X016246Y007156D01*
X017359Y007156D01*
X017409Y007206D01*
X017078Y006902D02*
X016851Y006902D01*
X016851Y006731D01*
X016964Y006788D01*
X017021Y006788D01*
X017078Y006731D01*
X017078Y006618D01*
X017021Y006561D01*
X016907Y006561D01*
X016851Y006618D01*
X016709Y006561D02*
X016596Y006675D01*
X016652Y006675D02*
X016482Y006675D01*
X016482Y006561D02*
X016482Y006902D01*
X016652Y006902D01*
X016709Y006845D01*
X016709Y006731D01*
X016652Y006675D01*
X016196Y005706D02*
X015796Y005706D01*
X015779Y005704D01*
X015762Y005700D01*
X015746Y005693D01*
X015732Y005683D01*
X015719Y005670D01*
X015709Y005656D01*
X015702Y005640D01*
X015698Y005623D01*
X015696Y005606D01*
X015696Y005006D01*
X015698Y004989D01*
X015702Y004972D01*
X015709Y004956D01*
X015719Y004942D01*
X015732Y004929D01*
X015746Y004919D01*
X015762Y004912D01*
X015779Y004908D01*
X015796Y004906D01*
X016196Y004906D01*
X016246Y004956D01*
X017359Y004956D01*
X017409Y004906D01*
X017809Y004906D01*
X017826Y004908D01*
X017843Y004912D01*
X017859Y004919D01*
X017873Y004929D01*
X017886Y004942D01*
X017896Y004956D01*
X017903Y004972D01*
X017907Y004989D01*
X017909Y005006D01*
X017909Y005606D01*
X017907Y005623D01*
X017903Y005640D01*
X017896Y005656D01*
X017886Y005670D01*
X017873Y005683D01*
X017859Y005693D01*
X017843Y005700D01*
X017826Y005704D01*
X017809Y005706D01*
X017409Y005706D01*
X017359Y005656D01*
X016246Y005656D01*
X016196Y005706D01*
X016432Y005467D02*
X016602Y005467D01*
X016659Y005410D01*
X016659Y005296D01*
X016602Y005240D01*
X016432Y005240D01*
X016432Y005126D02*
X016432Y005467D01*
X016546Y005240D02*
X016659Y005126D01*
X016801Y005296D02*
X017028Y005296D01*
X016971Y005126D02*
X016971Y005467D01*
X016801Y005296D01*
X026372Y010266D02*
X026632Y010266D01*
X026502Y010146D02*
X026502Y010396D01*
X026752Y008856D02*
X026752Y008756D01*
X026752Y008856D02*
X026852Y008856D01*
X027252Y008856D02*
X027352Y008856D01*
X027352Y008756D01*
X027752Y008756D02*
X027752Y008856D01*
X027852Y008856D01*
X028252Y008856D02*
X028352Y008856D01*
X028352Y008756D01*
X028752Y008756D02*
X028752Y008856D01*
X028852Y008856D01*
X029252Y008856D02*
X029352Y008856D01*
X029352Y008756D01*
X029752Y008756D02*
X029752Y008856D01*
X029852Y008856D01*
X030252Y008856D02*
X030352Y008856D01*
X030352Y008756D01*
X030352Y008356D02*
X030352Y008256D01*
X030252Y008256D01*
X029852Y008256D02*
X029752Y008256D01*
X029752Y008356D01*
X029352Y008356D02*
X029352Y008256D01*
X029252Y008256D01*
X028852Y008256D02*
X028752Y008256D01*
X028752Y008356D01*
X028352Y008356D02*
X028352Y008256D01*
X028252Y008256D01*
X027852Y008256D02*
X027752Y008256D01*
X027752Y008356D01*
X027352Y008356D02*
X027352Y008256D01*
X027252Y008256D01*
X026852Y008256D02*
X026752Y008256D01*
X026752Y008356D01*
X026752Y007856D02*
X026752Y007756D01*
X026752Y007856D02*
X026852Y007856D01*
X027252Y007856D02*
X027352Y007856D01*
X027352Y007756D01*
X027752Y007756D02*
X027752Y007856D01*
X027852Y007856D01*
X028252Y007856D02*
X028352Y007856D01*
X028352Y007756D01*
X028752Y007756D02*
X028752Y007856D01*
X028852Y007856D01*
X029252Y007856D02*
X029352Y007856D01*
X029352Y007756D01*
X029352Y007356D02*
X029352Y007256D01*
X029252Y007256D01*
X028852Y007256D02*
X028752Y007256D01*
X028752Y007356D01*
X028352Y007356D02*
X028352Y007256D01*
X028252Y007256D01*
X027852Y007256D02*
X027752Y007256D01*
X027752Y007356D01*
X027352Y007356D02*
X027352Y007256D01*
X027252Y007256D01*
X026852Y007256D02*
X026752Y007256D01*
X026752Y007356D01*
X026752Y006856D02*
X026752Y006756D01*
X026752Y006856D02*
X026852Y006856D01*
X027252Y006856D02*
X027352Y006856D01*
X027352Y006756D01*
X027752Y006756D02*
X027752Y006856D01*
X027852Y006856D01*
X028252Y006856D02*
X028352Y006856D01*
X028352Y006756D01*
X028752Y006756D02*
X028752Y006856D01*
X028852Y006856D01*
X029252Y006856D02*
X029352Y006856D01*
X029352Y006756D01*
X029352Y006356D02*
X029352Y006256D01*
X029252Y006256D01*
X028852Y006256D02*
X028752Y006256D01*
X028752Y006356D01*
X028352Y006356D02*
X028352Y006256D01*
X028252Y006256D01*
X027852Y006256D02*
X027752Y006256D01*
X027752Y006356D01*
X027352Y006356D02*
X027352Y006256D01*
X027252Y006256D01*
X026852Y006256D02*
X026752Y006256D01*
X026752Y006356D01*
X026752Y005856D02*
X026752Y005756D01*
X026752Y005856D02*
X026852Y005856D01*
X027252Y005856D02*
X027352Y005856D01*
X027352Y005756D01*
X027752Y005756D02*
X027752Y005856D01*
X027852Y005856D01*
X028252Y005856D02*
X028352Y005856D01*
X028352Y005756D01*
X028752Y005756D02*
X028752Y005856D01*
X028852Y005856D01*
X029252Y005856D02*
X029352Y005856D01*
X029352Y005756D01*
X029352Y005356D02*
X029352Y005256D01*
X029252Y005256D01*
X028852Y005256D02*
X028752Y005256D01*
X028752Y005356D01*
X028352Y005356D02*
X028352Y005256D01*
X028252Y005256D01*
X027852Y005256D02*
X027752Y005256D01*
X027752Y005356D01*
X027352Y005356D02*
X027352Y005256D01*
X027252Y005256D01*
X026852Y005256D02*
X026752Y005256D01*
X026752Y005356D01*
X026752Y004856D02*
X026752Y004756D01*
X026752Y004856D02*
X026852Y004856D01*
X027252Y004856D02*
X027352Y004856D01*
X027352Y004756D01*
X027752Y004756D02*
X027752Y004856D01*
X027852Y004856D01*
X028252Y004856D02*
X028352Y004856D01*
X028352Y004756D01*
X028752Y004756D02*
X028752Y004856D01*
X028852Y004856D01*
X029252Y004856D02*
X029352Y004856D01*
X029352Y004756D01*
X029352Y004356D02*
X029352Y004256D01*
X029252Y004256D01*
X028852Y004256D02*
X028752Y004256D01*
X028752Y004356D01*
X028352Y004356D02*
X028352Y004256D01*
X028252Y004256D01*
X027852Y004256D02*
X027752Y004256D01*
X027752Y004356D01*
X027352Y004356D02*
X027352Y004256D01*
X027252Y004256D01*
X026852Y004256D02*
X026752Y004256D01*
X026752Y004356D01*
X026752Y003856D02*
X026752Y003756D01*
X026752Y003856D02*
X026852Y003856D01*
X027252Y003856D02*
X027352Y003856D01*
X027352Y003756D01*
X027752Y003756D02*
X027752Y003856D01*
X027852Y003856D01*
X028252Y003856D02*
X028352Y003856D01*
X028352Y003756D01*
X028752Y003756D02*
X028752Y003856D01*
X028852Y003856D01*
X029252Y003856D02*
X029352Y003856D01*
X029352Y003756D01*
X029352Y003356D02*
X029352Y003256D01*
X029252Y003256D01*
X028852Y003256D02*
X028752Y003256D01*
X028752Y003356D01*
X028352Y003356D02*
X028352Y003256D01*
X028252Y003256D01*
X027852Y003256D02*
X027752Y003256D01*
X027752Y003356D01*
X027352Y003356D02*
X027352Y003256D01*
X027252Y003256D01*
X026852Y003256D02*
X026752Y003256D01*
X026752Y003356D01*
X026752Y002856D02*
X026752Y002756D01*
X026752Y002856D02*
X026852Y002856D01*
X027252Y002856D02*
X027352Y002856D01*
X027352Y002756D01*
X027752Y002756D02*
X027752Y002856D01*
X027852Y002856D01*
X028252Y002856D02*
X028352Y002856D01*
X028352Y002756D01*
X028752Y002756D02*
X028752Y002856D01*
X028852Y002856D01*
X029252Y002856D02*
X029352Y002856D01*
X029352Y002756D01*
X029352Y002356D02*
X029352Y002256D01*
X029252Y002256D01*
X028852Y002256D02*
X028752Y002256D01*
X028752Y002356D01*
X028352Y002356D02*
X028352Y002256D01*
X028252Y002256D01*
X027852Y002256D02*
X027752Y002256D01*
X027752Y002356D01*
X027352Y002356D02*
X027352Y002256D01*
X027252Y002256D01*
X026852Y002256D02*
X026752Y002256D01*
X026752Y002356D01*
X026752Y001856D02*
X026752Y001756D01*
X026752Y001856D02*
X026852Y001856D01*
X027252Y001856D02*
X027352Y001856D01*
X027352Y001756D01*
X027752Y001756D02*
X027752Y001856D01*
X027852Y001856D01*
X028252Y001856D02*
X028352Y001856D01*
X028352Y001756D01*
X028752Y001756D02*
X028752Y001856D01*
X028852Y001856D01*
X029252Y001856D02*
X029352Y001856D01*
X029352Y001756D01*
X029752Y001756D02*
X029752Y001856D01*
X029852Y001856D01*
X030252Y001856D02*
X030352Y001856D01*
X030352Y001756D01*
X030352Y001356D02*
X030352Y001256D01*
X030252Y001256D01*
X029852Y001256D02*
X029752Y001256D01*
X029752Y001356D01*
X029352Y001356D02*
X029352Y001256D01*
X029252Y001256D01*
X028852Y001256D02*
X028752Y001256D01*
X028752Y001356D01*
X028352Y001356D02*
X028352Y001256D01*
X028252Y001256D01*
X027852Y001256D02*
X027752Y001256D01*
X027752Y001356D01*
X027352Y001356D02*
X027352Y001256D01*
X027252Y001256D01*
X026852Y001256D02*
X026752Y001256D01*
X026752Y001356D01*
X007202Y017550D02*
X007202Y017950D01*
X007152Y018000D01*
X007152Y019113D01*
X007202Y019163D01*
X007202Y019563D01*
X007200Y019580D01*
X007196Y019597D01*
X007189Y019613D01*
X007179Y019627D01*
X007166Y019640D01*
X007152Y019650D01*
X007136Y019657D01*
X007119Y019661D01*
X007102Y019663D01*
X006502Y019663D01*
X006485Y019661D01*
X006468Y019657D01*
X006452Y019650D01*
X006438Y019640D01*
X006425Y019627D01*
X006415Y019613D01*
X006408Y019597D01*
X006404Y019580D01*
X006402Y019563D01*
X006402Y019163D01*
X006452Y019113D01*
X006452Y018000D01*
X006402Y017950D01*
X006402Y017550D01*
X006404Y017533D01*
X006408Y017516D01*
X006415Y017500D01*
X006425Y017486D01*
X006438Y017473D01*
X006452Y017463D01*
X006468Y017456D01*
X006485Y017452D01*
X006502Y017450D01*
X007102Y017450D01*
X007119Y017452D01*
X007136Y017456D01*
X007152Y017463D01*
X007166Y017473D01*
X007179Y017486D01*
X007189Y017500D01*
X007196Y017516D01*
X007200Y017533D01*
X007202Y017550D01*
X006972Y018200D02*
X006632Y018200D01*
X006632Y018370D01*
X006689Y018427D01*
X006802Y018427D01*
X006859Y018370D01*
X006859Y018200D01*
X006859Y018313D02*
X006972Y018427D01*
X006972Y018568D02*
X006746Y018795D01*
X006689Y018795D01*
X006632Y018738D01*
X006632Y018625D01*
X006689Y018568D01*
X006972Y018568D02*
X006972Y018795D01*
X005702Y019163D02*
X005652Y019113D01*
X005652Y018000D01*
X005702Y017950D01*
X005702Y017550D01*
X005700Y017533D01*
X005696Y017516D01*
X005689Y017500D01*
X005679Y017486D01*
X005666Y017473D01*
X005652Y017463D01*
X005636Y017456D01*
X005619Y017452D01*
X005602Y017450D01*
X005002Y017450D01*
X004985Y017452D01*
X004968Y017456D01*
X004952Y017463D01*
X004938Y017473D01*
X004925Y017486D01*
X004915Y017500D01*
X004908Y017516D01*
X004904Y017533D01*
X004902Y017550D01*
X004902Y017950D01*
X004952Y018000D01*
X004952Y019113D01*
X004902Y019163D01*
X004902Y019563D01*
X004904Y019580D01*
X004908Y019597D01*
X004915Y019613D01*
X004925Y019627D01*
X004938Y019640D01*
X004952Y019650D01*
X004968Y019657D01*
X004985Y019661D01*
X005002Y019663D01*
X005602Y019663D01*
X005619Y019661D01*
X005636Y019657D01*
X005652Y019650D01*
X005666Y019640D01*
X005679Y019627D01*
X005689Y019613D01*
X005696Y019597D01*
X005700Y019580D01*
X005702Y019563D01*
X005702Y019163D01*
X005447Y018875D02*
X005391Y018931D01*
X005164Y018931D01*
X005107Y018875D01*
X005107Y018761D01*
X005164Y018705D01*
X005221Y018705D01*
X005277Y018761D01*
X005277Y018931D01*
X005447Y018875D02*
X005447Y018761D01*
X005391Y018705D01*
X005447Y018563D02*
X005334Y018450D01*
X005334Y018506D02*
X005334Y018336D01*
X005447Y018336D02*
X005107Y018336D01*
X005107Y018506D01*
X005164Y018563D01*
X005277Y018563D01*
X005334Y018506D01*
X008807Y018456D02*
X008807Y018230D01*
X008977Y018230D01*
X008921Y018343D01*
X008921Y018400D01*
X008977Y018456D01*
X009091Y018456D01*
X009147Y018400D01*
X009147Y018286D01*
X009091Y018230D01*
X009091Y018088D02*
X009147Y018031D01*
X009147Y017918D01*
X009091Y017861D01*
X008864Y017861D01*
X008807Y017918D01*
X008807Y018031D01*
X008864Y018088D01*
X009372Y018266D02*
X009632Y018266D01*
X009502Y018146D02*
X009502Y018396D01*
X007812Y018806D02*
X007814Y018876D01*
X007820Y018946D01*
X007830Y019016D01*
X007844Y019084D01*
X007861Y019152D01*
X007883Y019219D01*
X007908Y019285D01*
X007937Y019349D01*
X007969Y019411D01*
X008005Y019471D01*
X008045Y019529D01*
X008087Y019585D01*
X008133Y019638D01*
X008181Y019689D01*
X008233Y019737D01*
X008287Y019782D01*
X008343Y019823D01*
X008402Y019862D01*
X008463Y019897D01*
X008525Y019929D01*
X008590Y019957D01*
X008655Y019981D01*
X008723Y020001D01*
X008791Y020018D01*
X008860Y020031D01*
X008929Y020040D01*
X008999Y020045D01*
X009070Y020046D01*
X009140Y020043D01*
X009210Y020036D01*
X009279Y020025D01*
X009347Y020010D01*
X009415Y019992D01*
X009482Y019969D01*
X009547Y019943D01*
X009610Y019913D01*
X009672Y019880D01*
X009732Y019843D01*
X009789Y019803D01*
X009845Y019760D01*
X009897Y019713D01*
X009947Y019664D01*
X009994Y019612D01*
X010038Y019557D01*
X010079Y019500D01*
X010117Y019441D01*
X010151Y019380D01*
X010182Y019317D01*
X010209Y019252D01*
X010232Y019186D01*
X010252Y019118D01*
X010268Y019050D01*
X010280Y018981D01*
X010288Y018911D01*
X010292Y018841D01*
X010292Y018771D01*
X010288Y018701D01*
X010280Y018631D01*
X010268Y018562D01*
X010252Y018494D01*
X010232Y018426D01*
X010209Y018360D01*
X010182Y018295D01*
X010151Y018232D01*
X010117Y018171D01*
X010079Y018112D01*
X010038Y018055D01*
X009994Y018000D01*
X009947Y017948D01*
X009897Y017899D01*
X009845Y017852D01*
X009789Y017809D01*
X009732Y017769D01*
X009672Y017732D01*
X009610Y017699D01*
X009547Y017669D01*
X009482Y017643D01*
X009415Y017620D01*
X009347Y017602D01*
X009279Y017587D01*
X009210Y017576D01*
X009140Y017569D01*
X009070Y017566D01*
X008999Y017567D01*
X008929Y017572D01*
X008860Y017581D01*
X008791Y017594D01*
X008723Y017611D01*
X008655Y017631D01*
X008590Y017655D01*
X008525Y017683D01*
X008463Y017715D01*
X008402Y017750D01*
X008343Y017789D01*
X008287Y017830D01*
X008233Y017875D01*
X008181Y017923D01*
X008133Y017974D01*
X008087Y018027D01*
X008045Y018083D01*
X008005Y018141D01*
X007969Y018201D01*
X007937Y018263D01*
X007908Y018327D01*
X007883Y018393D01*
X007861Y018460D01*
X007844Y018528D01*
X007830Y018596D01*
X007820Y018666D01*
X007814Y018736D01*
X007812Y018806D01*
X011257Y020106D02*
X011314Y020050D01*
X011541Y020050D01*
X011597Y020106D01*
X011597Y020220D01*
X011541Y020277D01*
X011541Y020418D02*
X011597Y020475D01*
X011597Y020588D01*
X011541Y020645D01*
X011314Y020645D01*
X011257Y020588D01*
X011257Y020475D01*
X011314Y020418D01*
X011371Y020418D01*
X011427Y020475D01*
X011427Y020645D01*
X011314Y020277D02*
X011257Y020220D01*
X011257Y020106D01*
X011852Y019806D02*
X011852Y020806D01*
X011854Y020823D01*
X011858Y020840D01*
X011865Y020856D01*
X011875Y020870D01*
X011888Y020883D01*
X011902Y020893D01*
X011918Y020900D01*
X011935Y020904D01*
X011952Y020906D01*
X014652Y020906D01*
X014669Y020904D01*
X014686Y020900D01*
X014702Y020893D01*
X014716Y020883D01*
X014729Y020870D01*
X014739Y020856D01*
X014746Y020840D01*
X014750Y020823D01*
X014752Y020806D01*
X014752Y019806D01*
X014750Y019789D01*
X014746Y019772D01*
X014739Y019756D01*
X014729Y019742D01*
X014716Y019729D01*
X014702Y019719D01*
X014686Y019712D01*
X014669Y019708D01*
X014652Y019706D01*
X011952Y019706D01*
X011935Y019708D01*
X011918Y019712D01*
X011902Y019719D01*
X011888Y019729D01*
X011875Y019742D01*
X011865Y019756D01*
X011858Y019772D01*
X011854Y019789D01*
X011852Y019806D01*
X012702Y020306D02*
X013172Y020306D01*
X013422Y020306D02*
X013902Y020306D01*
X001172Y010138D02*
X001172Y010025D01*
X001116Y009968D01*
X001116Y009827D02*
X000889Y009827D01*
X000832Y009770D01*
X000832Y009600D01*
X001172Y009600D01*
X001172Y009770D01*
X001116Y009827D01*
X000889Y009968D02*
X000832Y010025D01*
X000832Y010138D01*
X000889Y010195D01*
X000946Y010195D01*
X001002Y010138D01*
X001059Y010195D01*
X001116Y010195D01*
X001172Y010138D01*
X001002Y010138D02*
X001002Y010081D01*
X001802Y009056D02*
X001804Y009119D01*
X001810Y009181D01*
X001820Y009243D01*
X001833Y009305D01*
X001851Y009365D01*
X001872Y009424D01*
X001897Y009482D01*
X001926Y009538D01*
X001958Y009592D01*
X001993Y009644D01*
X002031Y009693D01*
X002073Y009741D01*
X002117Y009785D01*
X002165Y009827D01*
X002214Y009865D01*
X002266Y009900D01*
X002320Y009932D01*
X002376Y009961D01*
X002434Y009986D01*
X002493Y010007D01*
X002553Y010025D01*
X002615Y010038D01*
X002677Y010048D01*
X002739Y010054D01*
X002802Y010056D01*
X002865Y010054D01*
X002927Y010048D01*
X002989Y010038D01*
X003051Y010025D01*
X003111Y010007D01*
X003170Y009986D01*
X003228Y009961D01*
X003284Y009932D01*
X003338Y009900D01*
X003390Y009865D01*
X003439Y009827D01*
X003487Y009785D01*
X003531Y009741D01*
X003573Y009693D01*
X003611Y009644D01*
X003646Y009592D01*
X003678Y009538D01*
X003707Y009482D01*
X003732Y009424D01*
X003753Y009365D01*
X003771Y009305D01*
X003784Y009243D01*
X003794Y009181D01*
X003800Y009119D01*
X003802Y009056D01*
X003800Y008993D01*
X003794Y008931D01*
X003784Y008869D01*
X003771Y008807D01*
X003753Y008747D01*
X003732Y008688D01*
X003707Y008630D01*
X003678Y008574D01*
X003646Y008520D01*
X003611Y008468D01*
X003573Y008419D01*
X003531Y008371D01*
X003487Y008327D01*
X003439Y008285D01*
X003390Y008247D01*
X003338Y008212D01*
X003284Y008180D01*
X003228Y008151D01*
X003170Y008126D01*
X003111Y008105D01*
X003051Y008087D01*
X002989Y008074D01*
X002927Y008064D01*
X002865Y008058D01*
X002802Y008056D01*
X002739Y008058D01*
X002677Y008064D01*
X002615Y008074D01*
X002553Y008087D01*
X002493Y008105D01*
X002434Y008126D01*
X002376Y008151D01*
X002320Y008180D01*
X002266Y008212D01*
X002214Y008247D01*
X002165Y008285D01*
X002117Y008327D01*
X002073Y008371D01*
X002031Y008419D01*
X001993Y008468D01*
X001958Y008520D01*
X001926Y008574D01*
X001897Y008630D01*
X001872Y008688D01*
X001851Y008747D01*
X001833Y008807D01*
X001820Y008869D01*
X001810Y008931D01*
X001804Y008993D01*
X001802Y009056D01*
D11*
X003664Y018086D02*
X004031Y018086D01*
X004122Y018178D01*
X004122Y018361D01*
X004031Y018453D01*
X003664Y018453D01*
X003572Y018361D01*
X003572Y018178D01*
X003664Y018086D01*
X003572Y018694D02*
X004031Y018694D01*
X004122Y018786D01*
X004122Y018969D01*
X004031Y019061D01*
X003572Y019061D01*
X003572Y019302D02*
X003572Y019669D01*
X003572Y019485D02*
X004122Y019485D01*
X015247Y002986D02*
X015614Y002986D01*
X015797Y002802D01*
X015614Y002619D01*
X015247Y002619D01*
X015339Y002378D02*
X015247Y002286D01*
X015247Y002103D01*
X015339Y002011D01*
X015706Y002011D01*
X015797Y002103D01*
X015797Y002286D01*
X015706Y002378D01*
X030803Y002247D02*
X030803Y002050D01*
X030901Y001951D01*
X031000Y001951D01*
X031098Y002050D01*
X031098Y002247D01*
X031197Y002345D01*
X031295Y002345D01*
X031393Y002247D01*
X031393Y002050D01*
X031295Y001951D01*
X030901Y002345D02*
X030803Y002247D01*
X031000Y002596D02*
X031295Y002596D01*
X031393Y002694D01*
X031393Y002989D01*
X031492Y002989D02*
X031590Y002891D01*
X031590Y002793D01*
X031492Y002989D02*
X031000Y002989D01*
X031000Y003240D02*
X031000Y003536D01*
X031098Y003634D01*
X031393Y003634D01*
X031295Y003983D02*
X031393Y004082D01*
X031295Y003983D02*
X030901Y003983D01*
X031000Y003885D02*
X031000Y004082D01*
X031098Y004315D02*
X031000Y004413D01*
X031000Y004610D01*
X031098Y004708D01*
X031393Y004708D01*
X031393Y004959D02*
X031000Y004959D01*
X031197Y004959D02*
X031000Y005156D01*
X031000Y005254D01*
X031098Y005496D02*
X031000Y005595D01*
X031000Y005791D01*
X031098Y005890D01*
X031295Y005890D01*
X031393Y005791D01*
X031393Y005595D01*
X031295Y005496D01*
X031098Y005496D01*
X031000Y006141D02*
X031000Y006338D01*
X030901Y006239D02*
X031295Y006239D01*
X031393Y006338D01*
X031295Y006570D02*
X031098Y006570D01*
X031000Y006669D01*
X031000Y006866D01*
X031098Y006964D01*
X031197Y006964D01*
X031197Y006570D01*
X031295Y006570D02*
X031393Y006669D01*
X031393Y006866D01*
X031393Y007215D02*
X030803Y007215D01*
X031000Y007510D02*
X031197Y007215D01*
X031393Y007510D01*
X031393Y004315D02*
X030803Y004315D01*
X031000Y003240D02*
X031393Y003240D01*
D12*
X026456Y003610D02*
X026456Y003743D01*
X026422Y003776D01*
X026356Y003776D01*
X026322Y003743D01*
X026322Y003710D01*
X026356Y003676D01*
X026456Y003676D01*
X026456Y003610D02*
X026422Y003576D01*
X026356Y003576D01*
X026322Y003610D01*
X026356Y002776D02*
X026422Y002776D01*
X026456Y002743D01*
X026456Y002710D01*
X026422Y002676D01*
X026356Y002676D01*
X026322Y002710D01*
X026322Y002743D01*
X026356Y002776D01*
X026356Y002676D02*
X026322Y002643D01*
X026322Y002610D01*
X026356Y002576D01*
X026422Y002576D01*
X026456Y002610D01*
X026456Y002643D01*
X026422Y002676D01*
X026427Y001526D02*
X026427Y001326D01*
X026293Y001526D01*
X026293Y001326D01*
X026206Y001360D02*
X026206Y001426D01*
X026139Y001426D01*
X026072Y001360D02*
X026106Y001326D01*
X026172Y001326D01*
X026206Y001360D01*
X026206Y001493D02*
X026172Y001526D01*
X026106Y001526D01*
X026072Y001493D01*
X026072Y001360D01*
X026514Y001326D02*
X026514Y001526D01*
X026614Y001526D01*
X026648Y001493D01*
X026648Y001360D01*
X026614Y001326D01*
X026514Y001326D01*
X026393Y004576D02*
X026327Y004576D01*
X026293Y004610D01*
X026427Y004743D01*
X026427Y004610D01*
X026393Y004576D01*
X026293Y004610D02*
X026293Y004743D01*
X026327Y004776D01*
X026393Y004776D01*
X026427Y004743D01*
X026206Y004576D02*
X026072Y004576D01*
X026139Y004576D02*
X026139Y004776D01*
X026072Y004710D01*
X026072Y005576D02*
X026206Y005576D01*
X026139Y005576D02*
X026139Y005776D01*
X026072Y005710D01*
X026293Y005710D02*
X026360Y005776D01*
X026360Y005576D01*
X026293Y005576D02*
X026427Y005576D01*
X026427Y006576D02*
X026293Y006576D01*
X026427Y006710D01*
X026427Y006743D01*
X026393Y006776D01*
X026327Y006776D01*
X026293Y006743D01*
X026139Y006776D02*
X026139Y006576D01*
X026072Y006576D02*
X026206Y006576D01*
X026072Y006710D02*
X026139Y006776D01*
X026139Y007576D02*
X026139Y007776D01*
X026072Y007710D01*
X026072Y007576D02*
X026206Y007576D01*
X026293Y007610D02*
X026327Y007576D01*
X026393Y007576D01*
X026427Y007610D01*
X026427Y007643D01*
X026393Y007676D01*
X026360Y007676D01*
X026393Y007676D02*
X026427Y007710D01*
X026427Y007743D01*
X026393Y007776D01*
X026327Y007776D01*
X026293Y007743D01*
X026327Y008576D02*
X026293Y008610D01*
X026327Y008576D02*
X026393Y008576D01*
X026427Y008610D01*
X026427Y008676D01*
X026393Y008710D01*
X026360Y008710D01*
X026293Y008676D01*
X026293Y008776D01*
X026427Y008776D01*
X026514Y008776D02*
X026514Y008643D01*
X026581Y008576D01*
X026648Y008643D01*
X026648Y008776D01*
X026206Y008676D02*
X026072Y008676D01*
X026139Y008743D02*
X026139Y008610D01*
X023864Y012576D02*
X023898Y012610D01*
X023898Y012743D01*
X023864Y012776D01*
X023764Y012776D01*
X023764Y012576D01*
X023864Y012576D01*
X023677Y012576D02*
X023677Y012776D01*
X023543Y012776D02*
X023677Y012576D01*
X023543Y012576D02*
X023543Y012776D01*
X023456Y012743D02*
X023422Y012776D01*
X023356Y012776D01*
X023322Y012743D01*
X023322Y012610D01*
X023356Y012576D01*
X023422Y012576D01*
X023456Y012610D01*
X023456Y012676D01*
X023389Y012676D01*
X023606Y013576D02*
X023672Y013576D01*
X023706Y013610D01*
X023706Y013643D01*
X023672Y013676D01*
X023572Y013676D01*
X023572Y013610D01*
X023606Y013576D01*
X023572Y013676D02*
X023639Y013743D01*
X023706Y013776D01*
X023672Y014576D02*
X023606Y014576D01*
X023572Y014610D01*
X023572Y014676D02*
X023639Y014710D01*
X023672Y014710D01*
X023706Y014676D01*
X023706Y014610D01*
X023672Y014576D01*
X023572Y014676D02*
X023572Y014776D01*
X023706Y014776D01*
X023672Y015576D02*
X023672Y015776D01*
X023572Y015676D01*
X023706Y015676D01*
X023643Y016576D02*
X023577Y016576D01*
X023543Y016610D01*
X023543Y016676D02*
X023610Y016710D01*
X023643Y016710D01*
X023677Y016676D01*
X023677Y016610D01*
X023643Y016576D01*
X023764Y016643D02*
X023831Y016576D01*
X023898Y016643D01*
X023898Y016776D01*
X023764Y016776D02*
X023764Y016643D01*
X023677Y016776D02*
X023543Y016776D01*
X023543Y016676D01*
X023456Y016676D02*
X023322Y016676D01*
X023389Y016743D02*
X023389Y016610D01*
D13*
X023052Y017306D02*
X023052Y012306D01*
X026802Y012306D01*
X026802Y017306D01*
X023052Y017306D01*
X025802Y009056D02*
X030552Y009056D01*
X030552Y001056D01*
X025802Y001056D01*
X025802Y009056D01*
X031823Y008246D02*
X031823Y001246D01*
X032348Y005096D02*
X032173Y005271D01*
X032523Y005971D02*
X032698Y005971D01*
X032698Y006146D01*
X032698Y005971D01*
X032523Y006496D02*
X032348Y006496D01*
X032873Y006496D02*
X032873Y006671D01*
X033387Y007607D02*
X033387Y007891D01*
X033388Y007608D02*
X033391Y007566D01*
X033399Y007526D01*
X033410Y007486D01*
X033426Y007447D01*
X033444Y007410D01*
X033466Y007375D01*
X033491Y007342D01*
X033519Y007311D01*
X033550Y007283D01*
X033583Y007258D01*
X033618Y007236D01*
X033655Y007218D01*
X033694Y007203D01*
X033734Y007192D01*
X033775Y007184D01*
X033816Y007180D01*
X033858Y007181D01*
X033417Y008464D02*
X033392Y008464D01*
X033392Y008466D02*
X033384Y008588D01*
X033386Y008481D02*
X033386Y008470D01*
X033387Y008467D01*
X033389Y008465D01*
X033392Y008464D01*
X033393Y008467D02*
X033388Y008470D01*
X033386Y008476D01*
X033387Y008481D01*
X033385Y008588D02*
X033383Y008609D01*
X033385Y008629D01*
X033390Y008648D01*
X033398Y008667D01*
X033410Y008683D01*
X033424Y008698D01*
X033441Y008709D01*
X033459Y008718D01*
X033479Y008723D01*
X033478Y008723D02*
X034382Y008726D01*
D14*
X029464Y009416D02*
X029394Y009346D01*
X029184Y009346D01*
X029184Y009767D01*
X029394Y009767D01*
X029464Y009697D01*
X029464Y009627D01*
X029394Y009556D01*
X029184Y009556D01*
X029394Y009556D02*
X029464Y009486D01*
X029464Y009416D01*
X029004Y009276D02*
X028723Y009276D01*
X028543Y009416D02*
X028543Y009697D01*
X028473Y009767D01*
X028263Y009767D01*
X028263Y009346D01*
X028473Y009346D01*
X028543Y009416D01*
X028083Y009416D02*
X028083Y009697D01*
X028013Y009767D01*
X027873Y009767D01*
X027803Y009697D01*
X027803Y009416D01*
X027873Y009346D01*
X028013Y009346D01*
X028083Y009416D01*
X027623Y009346D02*
X027623Y009767D01*
X027482Y009627D01*
X027342Y009767D01*
X027342Y009346D01*
X025964Y017596D02*
X025964Y017877D01*
X025824Y018017D01*
X025684Y017877D01*
X025684Y017596D01*
X025504Y017526D02*
X025223Y017526D01*
X025043Y017666D02*
X025043Y017947D01*
X024973Y018017D01*
X024763Y018017D01*
X024763Y017596D01*
X024973Y017596D01*
X025043Y017666D01*
X024583Y017666D02*
X024583Y017947D01*
X024513Y018017D01*
X024373Y018017D01*
X024303Y017947D01*
X024303Y017666D01*
X024373Y017596D01*
X024513Y017596D01*
X024583Y017666D01*
X024123Y017596D02*
X024123Y018017D01*
X023982Y017877D01*
X023842Y018017D01*
X023842Y017596D01*
X025684Y017806D02*
X025964Y017806D01*
X003802Y009806D02*
X003802Y008306D01*
D15*
X010397Y008133D02*
X010600Y007929D01*
X010600Y007692D02*
X011007Y007285D01*
X011007Y007047D02*
X010600Y006640D01*
X010702Y006403D02*
X010702Y005996D01*
X010397Y006301D01*
X011007Y006301D01*
X011007Y006640D02*
X010600Y007047D01*
X010600Y007285D02*
X011007Y007692D01*
X011007Y007929D02*
X011007Y008336D01*
X011007Y008133D02*
X010397Y008133D01*
X010702Y008574D02*
X010702Y008879D01*
X010804Y008981D01*
X010906Y008981D01*
X011007Y008879D01*
X011007Y008676D01*
X010906Y008574D01*
X010702Y008574D01*
X010499Y008777D01*
X010397Y008981D01*
X010702Y009218D02*
X010702Y009625D01*
X011007Y009524D02*
X010397Y009524D01*
X010702Y009218D01*
X010499Y005758D02*
X010906Y005351D01*
X011007Y005351D01*
X010397Y005351D02*
X010397Y005758D01*
X010499Y005758D01*
X022647Y005981D02*
X022749Y005777D01*
X022952Y005574D01*
X022952Y005879D01*
X023054Y005981D01*
X023156Y005981D01*
X023257Y005879D01*
X023257Y005676D01*
X023156Y005574D01*
X022952Y005574D01*
X022850Y005336D02*
X022749Y005336D01*
X022647Y005235D01*
X022647Y005031D01*
X022749Y004929D01*
X022850Y004929D01*
X022952Y005031D01*
X022952Y005235D01*
X023054Y005336D01*
X023156Y005336D01*
X023257Y005235D01*
X023257Y005031D01*
X023156Y004929D01*
X023054Y004929D01*
X022952Y005031D01*
X022952Y005235D02*
X022850Y005336D01*
X022850Y004692D02*
X023257Y004285D01*
X023257Y004047D02*
X022850Y003640D01*
X022952Y003403D02*
X022952Y002996D01*
X022647Y003301D01*
X023257Y003301D01*
X023257Y003640D02*
X022850Y004047D01*
X022850Y004285D02*
X023257Y004692D01*
X022749Y002758D02*
X023156Y002351D01*
X023257Y002351D01*
X022647Y002351D02*
X022647Y002758D01*
X022749Y002758D01*
X029202Y012851D02*
X029202Y013258D01*
X028999Y013496D02*
X028897Y013598D01*
X028897Y013801D01*
X028999Y013903D01*
X029406Y013496D01*
X029507Y013598D01*
X029507Y013801D01*
X029406Y013903D01*
X028999Y013903D01*
X028999Y014140D02*
X029100Y014140D01*
X029202Y014242D01*
X029202Y014547D01*
X028999Y014547D02*
X028897Y014446D01*
X028897Y014242D01*
X028999Y014140D01*
X029406Y014140D02*
X029507Y014242D01*
X029507Y014446D01*
X029406Y014547D01*
X028999Y014547D01*
X028999Y014785D02*
X028897Y014887D01*
X028897Y015090D01*
X028999Y015192D01*
X029100Y015192D01*
X029202Y015090D01*
X029304Y015192D01*
X029406Y015192D01*
X029507Y015090D01*
X029507Y014887D01*
X029406Y014785D01*
X029202Y014988D02*
X029202Y015090D01*
X028999Y013496D02*
X029406Y013496D01*
X029507Y013157D02*
X028897Y013157D01*
X029202Y012851D01*
X029449Y023601D02*
X029653Y023601D01*
X029754Y023703D01*
X029754Y024110D01*
X029653Y024212D01*
X029449Y024212D01*
X029347Y024110D01*
X029347Y023703D01*
X029449Y023601D01*
X029992Y023703D02*
X030094Y023601D01*
X030297Y023601D01*
X030399Y023703D01*
X030399Y023805D01*
X030297Y023907D01*
X030094Y023907D01*
X029992Y024008D01*
X029992Y024110D01*
X030094Y024212D01*
X030297Y024212D01*
X030399Y024110D01*
X030636Y024110D02*
X030636Y023703D01*
X030738Y023601D01*
X030942Y023601D01*
X031043Y023703D01*
X031281Y023601D02*
X031688Y023601D01*
X031484Y023601D02*
X031484Y024212D01*
X031281Y024008D01*
X031043Y024110D02*
X030942Y024212D01*
X030738Y024212D01*
X030636Y024110D01*
X026622Y023601D02*
X026215Y023601D01*
X026215Y024212D01*
X025977Y024212D02*
X025977Y023805D01*
X025774Y023601D01*
X025570Y023805D01*
X025570Y024212D01*
X024925Y024212D02*
X024925Y023601D01*
X025332Y023601D01*
X024688Y023500D02*
X024281Y023500D01*
X024043Y023703D02*
X023942Y023601D01*
X023738Y023601D01*
X023636Y023703D01*
X023636Y024110D01*
X023738Y024212D01*
X023942Y024212D01*
X024043Y024110D01*
X023399Y024110D02*
X023297Y024212D01*
X023094Y024212D01*
X022992Y024110D01*
X022992Y024008D01*
X023094Y023907D01*
X023297Y023907D01*
X023399Y023805D01*
X023399Y023703D01*
X023297Y023601D01*
X023094Y023601D01*
X022992Y023703D01*
X022754Y023703D02*
X022653Y023601D01*
X022449Y023601D01*
X022347Y023703D01*
X022347Y024110D01*
X022449Y024212D01*
X022653Y024212D01*
X022754Y024110D01*
X022754Y023703D01*
X019188Y023601D02*
X018781Y023601D01*
X019188Y024008D01*
X019188Y024110D01*
X019086Y024212D01*
X018883Y024212D01*
X018781Y024110D01*
X018543Y024110D02*
X018442Y024212D01*
X018238Y024212D01*
X018136Y024110D01*
X018136Y023703D01*
X018238Y023601D01*
X018442Y023601D01*
X018543Y023703D01*
X017899Y023703D02*
X017797Y023601D01*
X017594Y023601D01*
X017492Y023703D01*
X017594Y023907D02*
X017797Y023907D01*
X017899Y023805D01*
X017899Y023703D01*
X017594Y023907D02*
X017492Y024008D01*
X017492Y024110D01*
X017594Y024212D01*
X017797Y024212D01*
X017899Y024110D01*
X017254Y024110D02*
X017254Y023703D01*
X017153Y023601D01*
X016949Y023601D01*
X016847Y023703D01*
X016847Y024110D01*
X016949Y024212D01*
X017153Y024212D01*
X017254Y024110D01*
X012973Y023907D02*
X012973Y023805D01*
X012566Y023805D01*
X012566Y023907D02*
X012668Y024008D01*
X012871Y024008D01*
X012973Y023907D01*
X012871Y023601D02*
X012668Y023601D01*
X012566Y023703D01*
X012566Y023907D01*
X012340Y024008D02*
X012136Y024008D01*
X012238Y024110D02*
X012238Y023703D01*
X012340Y023601D01*
X011899Y023601D02*
X011899Y023907D01*
X011797Y024008D01*
X011594Y024008D01*
X011594Y023805D02*
X011899Y023805D01*
X011899Y023601D02*
X011594Y023601D01*
X011492Y023703D01*
X011594Y023805D01*
X011254Y023907D02*
X011254Y024110D01*
X011153Y024212D01*
X010847Y024212D01*
X010847Y023601D01*
X010847Y023805D02*
X011153Y023805D01*
X011254Y023907D01*
X011051Y023805D02*
X011254Y023601D01*
X007262Y023805D02*
X006855Y023805D01*
X006855Y023907D02*
X006957Y024008D01*
X007160Y024008D01*
X007262Y023907D01*
X007262Y023805D01*
X007160Y023601D02*
X006957Y023601D01*
X006855Y023703D01*
X006855Y023907D01*
X006618Y023907D02*
X006618Y023601D01*
X006414Y023601D02*
X006414Y023907D01*
X006516Y024008D01*
X006618Y023907D01*
X006414Y023907D02*
X006312Y024008D01*
X006211Y024008D01*
X006211Y023601D01*
X005973Y023601D02*
X005973Y024008D01*
X005566Y024008D02*
X005566Y023703D01*
X005668Y023601D01*
X005973Y023601D01*
X005340Y023601D02*
X005136Y023601D01*
X005238Y023601D02*
X005238Y024212D01*
X005136Y024212D01*
X004899Y023907D02*
X004797Y024008D01*
X004594Y024008D01*
X004492Y023907D01*
X004492Y023703D01*
X004594Y023601D01*
X004797Y023601D01*
X004899Y023703D01*
X004899Y023907D01*
X004254Y023805D02*
X004254Y024212D01*
X003847Y024212D02*
X003847Y023805D01*
X004051Y023601D01*
X004254Y023805D01*
X012897Y017547D02*
X012897Y017140D01*
X013202Y017140D01*
X013100Y017344D01*
X013100Y017446D01*
X013202Y017547D01*
X013406Y017547D01*
X013507Y017446D01*
X013507Y017242D01*
X013406Y017140D01*
X013406Y016903D02*
X013507Y016801D01*
X013507Y016598D01*
X013406Y016496D01*
X013202Y016496D02*
X013100Y016699D01*
X013100Y016801D01*
X013202Y016903D01*
X013406Y016903D01*
X013202Y016496D02*
X012897Y016496D01*
X012897Y016903D01*
X012897Y016258D02*
X012897Y015851D01*
X013202Y015851D01*
X013100Y016055D01*
X013100Y016157D01*
X013202Y016258D01*
X013406Y016258D01*
X013507Y016157D01*
X013507Y015953D01*
X013406Y015851D01*
D16*
X004402Y004281D02*
X004402Y001306D01*
X007202Y001306D01*
X007202Y004281D01*
X006894Y004281D01*
X008542Y003585D02*
X008542Y003278D01*
X009002Y003278D01*
X009002Y003585D01*
X008772Y003432D02*
X008772Y003278D01*
X009002Y003069D02*
X008542Y003069D01*
X008542Y002763D02*
X009002Y003069D01*
X009002Y002763D02*
X008542Y002763D01*
X008619Y002554D02*
X008542Y002477D01*
X008542Y002324D01*
X008619Y002247D01*
X008926Y002247D01*
X009002Y002324D01*
X009002Y002477D01*
X008926Y002554D01*
X008619Y002554D01*
X008542Y002038D02*
X008542Y001731D01*
X008542Y001885D02*
X009002Y001885D01*
X006688Y002771D02*
X006338Y002771D01*
X005277Y002771D02*
X004923Y002771D01*
X005098Y002596D02*
X005098Y002946D01*
X004027Y003381D02*
X004027Y004189D01*
X004402Y004281D02*
X004797Y004281D01*
X004027Y003381D02*
X001052Y003381D01*
X001052Y007231D01*
X004027Y007231D01*
X004027Y006496D01*
X010327Y010383D02*
X010327Y010767D01*
X010634Y010767D02*
X010634Y010383D01*
X010558Y010306D01*
X010404Y010306D01*
X010327Y010383D01*
X010843Y010306D02*
X011150Y010613D01*
X011150Y010690D01*
X011073Y010767D01*
X010920Y010767D01*
X010843Y010690D01*
X010843Y010306D02*
X011150Y010306D01*
X001127Y012483D02*
X001127Y012636D01*
X001051Y012713D01*
X000744Y012713D01*
X000667Y012636D01*
X000667Y012483D01*
X000744Y012406D01*
X001051Y012406D01*
X001127Y012483D01*
X001127Y012922D02*
X000667Y012922D01*
X001127Y013229D01*
X000667Y013229D01*
X001127Y013438D02*
X000667Y013744D01*
X000744Y013953D02*
X000667Y014030D01*
X000667Y014183D01*
X000744Y014260D01*
X001051Y014260D01*
X001127Y014183D01*
X001127Y014030D01*
X001051Y013953D01*
X000744Y013953D01*
X000667Y014469D02*
X000667Y014776D01*
X000667Y014984D02*
X000667Y015291D01*
X000897Y015138D02*
X000897Y014984D01*
X001127Y014984D02*
X000667Y014984D01*
X000897Y014622D02*
X000897Y014469D01*
X001127Y014469D02*
X000667Y014469D01*
X012952Y018258D02*
X013029Y018181D01*
X013183Y018181D01*
X013259Y018258D01*
X013259Y018642D01*
X013468Y018488D02*
X013621Y018642D01*
X013621Y018181D01*
X013468Y018181D02*
X013775Y018181D01*
X012952Y018258D02*
X012952Y018642D01*
X022132Y016154D02*
X022132Y015847D01*
X022592Y015847D01*
X022362Y015847D02*
X022362Y016000D01*
X022132Y015638D02*
X022132Y015331D01*
X022592Y015331D01*
X022516Y015123D02*
X022209Y015123D01*
X022132Y015046D01*
X022132Y014892D01*
X022209Y014816D01*
X022516Y014816D01*
X022592Y014892D01*
X022592Y015046D01*
X022516Y015123D01*
X022362Y015331D02*
X022362Y015485D01*
X022132Y014607D02*
X022592Y014300D01*
X022592Y014091D02*
X022132Y014091D01*
X022132Y013784D02*
X022592Y014091D01*
X022592Y013784D02*
X022132Y013784D01*
X022209Y013576D02*
X022132Y013499D01*
X022132Y013346D01*
X022209Y013269D01*
X022516Y013269D01*
X022592Y013346D01*
X022592Y013499D01*
X022516Y013576D01*
X022209Y013576D01*
X022669Y013060D02*
X022669Y012753D01*
X022516Y012544D02*
X022592Y012468D01*
X022592Y012314D01*
X022516Y012238D01*
X022209Y012238D01*
X022132Y012314D01*
X022132Y012468D01*
X022209Y012544D01*
X022209Y012029D02*
X022132Y011952D01*
X022132Y011799D01*
X022209Y011722D01*
X022285Y011722D01*
X022362Y011799D01*
X022362Y011952D01*
X022439Y012029D01*
X022516Y012029D01*
X022592Y011952D01*
X022592Y011799D01*
X022516Y011722D01*
X022516Y011513D02*
X022209Y011513D01*
X022132Y011436D01*
X022132Y011283D01*
X022209Y011206D01*
X022516Y011206D01*
X022592Y011283D01*
X022592Y011436D01*
X022516Y011513D01*
X022577Y007967D02*
X022577Y007583D01*
X022654Y007506D01*
X022808Y007506D01*
X022884Y007583D01*
X022884Y007967D01*
X023093Y007890D02*
X023170Y007967D01*
X023323Y007967D01*
X023400Y007890D01*
X023400Y007813D01*
X023323Y007736D01*
X023400Y007660D01*
X023400Y007583D01*
X023323Y007506D01*
X023170Y007506D01*
X023093Y007583D01*
X023246Y007736D02*
X023323Y007736D01*
X033472Y006304D02*
X033864Y006304D01*
X033869Y006299D02*
X033869Y006294D01*
X033864Y006294D01*
X033869Y006299D02*
X033477Y006299D01*
X033485Y006165D02*
X033630Y006165D01*
X033630Y006166D02*
X033655Y006169D01*
X033679Y006168D01*
X033704Y006165D01*
X033728Y006158D01*
X033750Y006149D01*
X033771Y006136D01*
X033791Y006121D01*
X033808Y006103D01*
X033823Y006084D01*
X033835Y006062D01*
X033844Y006039D01*
X033850Y006016D01*
X033635Y006438D02*
X033490Y006438D01*
X033635Y006438D02*
X033663Y006440D01*
X033690Y006445D01*
X033717Y006453D01*
X033742Y006464D01*
X033766Y006479D01*
X033788Y006496D01*
X033808Y006516D01*
X033825Y006538D01*
X033840Y006562D01*
X033851Y006587D01*
X033859Y006614D01*
X033864Y006641D01*
X033866Y006669D01*
X033866Y006650D02*
X033866Y006649D01*
X033867Y006647D01*
X033869Y006647D01*
X029623Y018006D02*
X029623Y018467D01*
X029393Y018236D01*
X029700Y018236D01*
X029184Y018083D02*
X029184Y018467D01*
X028877Y018467D02*
X028877Y018083D01*
X028954Y018006D01*
X029108Y018006D01*
X029184Y018083D01*
D17*
X032546Y007725D02*
X032685Y007205D01*
X032650Y007335D02*
X033040Y007439D01*
X032850Y007110D02*
X032356Y007395D01*
X032523Y006942D02*
X032428Y006847D01*
X032428Y006561D01*
X032808Y006561D01*
X032713Y006242D02*
X032238Y006242D01*
X032713Y006242D02*
X032808Y006147D01*
X032808Y005956D01*
X032713Y005861D01*
X032238Y005861D01*
X032144Y005537D02*
X032193Y005353D01*
X032169Y005445D02*
X032628Y005568D01*
X032744Y005501D01*
X032769Y005409D01*
X032702Y005293D01*
X032808Y004430D02*
X032808Y004239D01*
X032808Y004334D02*
X032238Y004334D01*
X032238Y004239D02*
X032238Y004430D01*
X032333Y003975D02*
X032523Y003975D01*
X032618Y003880D01*
X032618Y003595D01*
X032618Y003785D02*
X032808Y003975D01*
X032808Y003595D02*
X032238Y003595D01*
X032238Y003880D01*
X032333Y003975D01*
X032428Y003331D02*
X032808Y003331D01*
X032523Y003331D02*
X032523Y002950D01*
X032428Y002950D02*
X032238Y003141D01*
X032428Y003331D01*
X032428Y002950D02*
X032808Y002950D01*
X032808Y002496D02*
X032238Y002496D01*
X032238Y002306D02*
X032238Y002686D01*
X032428Y002042D02*
X032808Y002042D01*
X032523Y002042D02*
X032523Y001661D01*
X032428Y001661D02*
X032238Y001851D01*
X032428Y002042D01*
X032428Y001661D02*
X032808Y001661D01*
X032808Y006942D02*
X032523Y006942D01*
D18*
X033902Y005356D02*
X035127Y005006D01*
X035127Y004306D01*
X033902Y003956D01*
X032221Y010416D02*
X031834Y010416D01*
X031737Y010513D01*
X031737Y010707D01*
X031834Y010803D01*
X032221Y010803D01*
X032317Y010707D01*
X032317Y010513D01*
X032221Y010416D01*
X032221Y011061D02*
X032317Y011158D01*
X032317Y011351D01*
X032221Y011448D01*
X032124Y011448D01*
X032027Y011351D01*
X032027Y011158D01*
X031930Y011061D01*
X031834Y011061D01*
X031737Y011158D01*
X031737Y011351D01*
X031834Y011448D01*
X031834Y011705D02*
X032221Y011705D01*
X032317Y011802D01*
X032317Y011996D01*
X032221Y012092D01*
X032414Y012350D02*
X032414Y012737D01*
X032317Y012994D02*
X032317Y013188D01*
X032317Y013091D02*
X031737Y013091D01*
X031737Y012994D02*
X031737Y013188D01*
X031737Y013424D02*
X032317Y013811D01*
X031737Y013811D01*
X031737Y013424D02*
X032317Y013424D01*
X031834Y012092D02*
X031737Y011996D01*
X031737Y011802D01*
X031834Y011705D01*
X023172Y010056D02*
X023172Y009806D01*
X023172Y009556D01*
X022922Y009556D02*
X022922Y009806D01*
X022922Y010056D01*
X021877Y010958D02*
X021877Y016155D01*
X018728Y016155D01*
X018728Y010958D01*
X021877Y010958D01*
X013422Y014056D02*
X013422Y014306D01*
X013422Y014556D01*
X013172Y014556D02*
X013172Y014306D01*
X013172Y014056D01*
X010922Y013056D02*
X010922Y012806D01*
X010922Y012556D01*
X010672Y012556D02*
X010672Y012806D01*
X010672Y013056D01*
X004627Y010958D02*
X004627Y016155D01*
X001478Y016155D01*
X001478Y010958D01*
X004627Y010958D01*
X009204Y004381D02*
X014401Y004381D01*
X014401Y001231D01*
X009204Y001231D01*
X009204Y004381D01*
X013172Y020056D02*
X013172Y020306D01*
X013172Y020556D01*
X013422Y020556D02*
X013422Y020306D01*
X013422Y020056D01*
X029172Y020056D02*
X029172Y020306D01*
X029172Y020556D01*
X029422Y020556D02*
X029422Y020306D01*
X029422Y020056D01*
D19*
X032910Y008193D03*
D20*
X034181Y008195D03*
D21*
X034077Y004481D03*
D22*
G36*
X034826Y004552D02*
X034498Y004432D01*
X034378Y004760D01*
X034706Y004880D01*
X034826Y004552D01*
G37*
G36*
X033941Y004883D02*
X033604Y004792D01*
X033513Y005129D01*
X033850Y005220D01*
X033941Y004883D01*
G37*
D23*
X034527Y010031D02*
X032602Y010031D01*
X032602Y014581D01*
X034527Y014581D01*
X034527Y010031D01*
X034252Y010637D02*
X034297Y010682D01*
X034297Y010772D01*
X034252Y010817D01*
X034207Y010817D01*
X034162Y010772D01*
X034162Y010682D01*
X034117Y010637D01*
X034072Y010637D01*
X034027Y010682D01*
X034027Y010772D01*
X034072Y010817D01*
X034072Y012124D02*
X034252Y012124D01*
X034297Y012169D01*
X034297Y012259D01*
X034252Y012304D01*
X034072Y012304D02*
X034027Y012259D01*
X034027Y012169D01*
X034072Y012124D01*
X034027Y013612D02*
X034027Y013792D01*
X034027Y013702D02*
X034297Y013702D01*
X033552Y021306D02*
X027552Y021306D01*
X027552Y023306D01*
X033552Y023306D01*
X033552Y021306D01*
X027302Y021306D02*
X027302Y023306D01*
X021302Y023306D01*
X021302Y021306D01*
X027302Y021306D01*
X021052Y021306D02*
X021052Y023306D01*
X015052Y023306D01*
X015052Y021306D01*
X021052Y021306D01*
X014802Y021306D02*
X014802Y023306D01*
X008802Y023306D01*
X008802Y021306D01*
X014802Y021306D01*
X008302Y021306D02*
X008302Y023306D01*
X002302Y023306D01*
X002302Y021306D01*
X008302Y021306D01*
X003302Y020556D02*
X001552Y020556D01*
X001552Y017056D01*
X003302Y017056D01*
X003302Y020556D01*
X005117Y014031D02*
X005117Y013806D01*
X005162Y013761D01*
X005252Y013761D01*
X005297Y013806D01*
X005297Y014031D01*
X005412Y014031D02*
X005412Y013896D01*
X005502Y013941D01*
X005547Y013941D01*
X005592Y013896D01*
X005592Y013806D01*
X005547Y013761D01*
X005457Y013761D01*
X005412Y013806D01*
X005412Y014031D02*
X005592Y014031D01*
X016027Y003531D02*
X016027Y001606D01*
X020577Y001606D01*
X020577Y003531D01*
X016027Y003531D01*
X016752Y003301D02*
X016932Y003301D01*
X016842Y003301D02*
X016842Y003031D01*
X018240Y003076D02*
X018285Y003031D01*
X018375Y003031D01*
X018420Y003076D01*
X018240Y003076D02*
X018240Y003256D01*
X018285Y003301D01*
X018375Y003301D01*
X018420Y003256D01*
X019727Y003256D02*
X019727Y003211D01*
X019772Y003166D01*
X019862Y003166D01*
X019907Y003121D01*
X019907Y003076D01*
X019862Y003031D01*
X019772Y003031D01*
X019727Y003076D01*
X019727Y003256D02*
X019772Y003301D01*
X019862Y003301D01*
X019907Y003256D01*
D24*
X006302Y005875D03*
X006302Y008238D03*
X016552Y017125D03*
X018052Y017125D03*
X018052Y019488D03*
X016552Y019488D03*
X006802Y019738D03*
X005302Y019738D03*
X005302Y017375D03*
X006802Y017375D03*
D25*
X003145Y017669D02*
X003108Y017633D01*
X003145Y017669D02*
X003145Y017743D01*
X003108Y017780D01*
X003071Y017780D01*
X003035Y017743D01*
X003035Y017669D01*
X002998Y017633D01*
X002961Y017633D01*
X002925Y017669D01*
X002925Y017743D01*
X002961Y017780D01*
X002900Y019683D02*
X002900Y019830D01*
X002900Y019756D02*
X003120Y019756D01*
X002701Y022826D02*
X002628Y022826D01*
X002591Y022863D01*
X002665Y022936D02*
X002701Y022936D01*
X002738Y022900D01*
X002738Y022863D01*
X002701Y022826D01*
X002701Y022936D02*
X002738Y022973D01*
X002738Y023010D01*
X002701Y023046D01*
X002628Y023046D01*
X002591Y023010D01*
X007841Y022973D02*
X007915Y023046D01*
X007915Y022826D01*
X007988Y022826D02*
X007841Y022826D01*
X009091Y022863D02*
X009128Y022826D01*
X009201Y022826D01*
X009238Y022863D01*
X009238Y022900D01*
X009201Y022936D01*
X009165Y022936D01*
X009201Y022936D02*
X009238Y022973D01*
X009238Y023010D01*
X009201Y023046D01*
X009128Y023046D01*
X009091Y023010D01*
X014341Y022973D02*
X014415Y023046D01*
X014415Y022826D01*
X014488Y022826D02*
X014341Y022826D01*
X015341Y022863D02*
X015378Y022826D01*
X015451Y022826D01*
X015488Y022863D01*
X015488Y022900D01*
X015451Y022936D01*
X015415Y022936D01*
X015451Y022936D02*
X015488Y022973D01*
X015488Y023010D01*
X015451Y023046D01*
X015378Y023046D01*
X015341Y023010D01*
X020591Y022973D02*
X020665Y023046D01*
X020665Y022826D01*
X020738Y022826D02*
X020591Y022826D01*
X021591Y022863D02*
X021628Y022826D01*
X021701Y022826D01*
X021738Y022863D01*
X021738Y022900D01*
X021701Y022936D01*
X021665Y022936D01*
X021701Y022936D02*
X021738Y022973D01*
X021738Y023010D01*
X021701Y023046D01*
X021628Y023046D01*
X021591Y023010D01*
X026841Y022973D02*
X026915Y023046D01*
X026915Y022826D01*
X026988Y022826D02*
X026841Y022826D01*
X027841Y022863D02*
X027878Y022826D01*
X027951Y022826D01*
X027988Y022863D01*
X027988Y022900D01*
X027951Y022936D01*
X027915Y022936D01*
X027951Y022936D02*
X027988Y022973D01*
X027988Y023010D01*
X027951Y023046D01*
X027878Y023046D01*
X027841Y023010D01*
X033091Y022973D02*
X033165Y023046D01*
X033165Y022826D01*
X033238Y022826D02*
X033091Y022826D01*
X006675Y004380D02*
X006675Y004230D01*
X006645Y004200D01*
X006615Y004200D01*
X006585Y004260D02*
X006675Y004260D01*
X006585Y004260D02*
X006555Y004290D01*
X006555Y004380D01*
X006491Y004380D02*
X006461Y004380D01*
X006401Y004320D01*
X006401Y004260D02*
X006401Y004380D01*
X006337Y004350D02*
X006337Y004320D01*
X006217Y004320D01*
X006217Y004350D02*
X006247Y004380D01*
X006307Y004380D01*
X006337Y004350D01*
X006307Y004260D02*
X006247Y004260D01*
X006217Y004290D01*
X006217Y004350D01*
X006154Y004380D02*
X006094Y004380D01*
X006124Y004410D02*
X006124Y004290D01*
X006154Y004260D01*
X006032Y004260D02*
X006001Y004290D01*
X006001Y004410D01*
X005971Y004380D02*
X006032Y004380D01*
X005907Y004350D02*
X005907Y004260D01*
X005817Y004260D01*
X005787Y004290D01*
X005817Y004320D01*
X005907Y004320D01*
X005907Y004350D02*
X005877Y004380D01*
X005817Y004380D01*
X005723Y004380D02*
X005693Y004350D01*
X005603Y004350D01*
X005603Y004440D02*
X005693Y004440D01*
X005723Y004410D01*
X005723Y004380D01*
X005693Y004350D02*
X005723Y004320D01*
X005723Y004290D01*
X005693Y004260D01*
X005603Y004260D01*
X005603Y004440D01*
X005355Y004440D02*
X005355Y004320D01*
X005295Y004260D01*
X005235Y004320D01*
X005235Y004440D01*
X005171Y004410D02*
X005141Y004440D01*
X005081Y004440D01*
X005051Y004410D01*
X005051Y004380D01*
X005081Y004350D01*
X005171Y004350D01*
X005171Y004290D02*
X005171Y004410D01*
X005171Y004290D02*
X005141Y004260D01*
X005081Y004260D01*
X005051Y004290D01*
D26*
X016152Y008306D03*
D27*
X015527Y008306D03*
X018077Y008306D03*
D28*
X017984Y006806D03*
X017984Y005306D03*
X015621Y005306D03*
X015621Y006806D03*
X015621Y009806D03*
X014621Y011306D03*
X016984Y011306D03*
X017984Y009806D03*
D29*
X005277Y012485D02*
X005325Y012499D01*
X005324Y012499D02*
X005344Y012441D01*
X005368Y012384D01*
X005395Y012328D01*
X005426Y012274D01*
X005459Y012222D01*
X005496Y012173D01*
X005536Y012125D01*
X005578Y012080D01*
X005623Y012038D01*
X005671Y011999D01*
X005720Y011962D01*
X005772Y011929D01*
X005826Y011898D01*
X005882Y011871D01*
X005939Y011848D01*
X005997Y011827D01*
X006057Y011811D01*
X006117Y011798D01*
X006178Y011789D01*
X006240Y011783D01*
X006301Y011781D01*
X006363Y011783D01*
X006425Y011788D01*
X006486Y011798D01*
X006546Y011811D01*
X006606Y011827D01*
X006664Y011847D01*
X006721Y011871D01*
X006777Y011898D01*
X006831Y011928D01*
X006883Y011961D01*
X006933Y011998D01*
X006963Y011959D01*
X006964Y011959D01*
X006911Y011920D01*
X006857Y011885D01*
X006800Y011853D01*
X006742Y011825D01*
X006682Y011800D01*
X006621Y011779D01*
X006558Y011762D01*
X006495Y011748D01*
X006431Y011739D01*
X006366Y011733D01*
X006302Y011731D01*
X006237Y011733D01*
X006172Y011739D01*
X006108Y011749D01*
X006045Y011762D01*
X005982Y011780D01*
X005921Y011801D01*
X005861Y011826D01*
X005803Y011854D01*
X005746Y011886D01*
X005692Y011921D01*
X005640Y011959D01*
X005590Y012001D01*
X005543Y012045D01*
X005498Y012092D01*
X005457Y012142D01*
X005418Y012194D01*
X005383Y012249D01*
X005351Y012305D01*
X005322Y012363D01*
X005298Y012423D01*
X005276Y012484D01*
X005285Y012487D01*
X005306Y012426D01*
X005331Y012367D01*
X005359Y012309D01*
X005391Y012253D01*
X005426Y012199D01*
X005464Y012148D01*
X005505Y012098D01*
X005549Y012051D01*
X005596Y012007D01*
X005645Y011966D01*
X005697Y011928D01*
X005751Y011893D01*
X005807Y011862D01*
X005865Y011834D01*
X005924Y011809D01*
X005985Y011788D01*
X006047Y011771D01*
X006110Y011757D01*
X006173Y011748D01*
X006237Y011742D01*
X006302Y011740D01*
X006366Y011742D01*
X006430Y011748D01*
X006493Y011757D01*
X006556Y011771D01*
X006618Y011788D01*
X006679Y011809D01*
X006738Y011833D01*
X006796Y011861D01*
X006852Y011893D01*
X006906Y011928D01*
X006958Y011966D01*
X006952Y011973D01*
X006901Y011935D01*
X006847Y011901D01*
X006792Y011869D01*
X006735Y011842D01*
X006676Y011817D01*
X006615Y011797D01*
X006554Y011779D01*
X006492Y011766D01*
X006429Y011757D01*
X006365Y011751D01*
X006301Y011749D01*
X006238Y011751D01*
X006174Y011757D01*
X006111Y011766D01*
X006049Y011780D01*
X005988Y011797D01*
X005927Y011818D01*
X005869Y011842D01*
X005811Y011870D01*
X005756Y011901D01*
X005702Y011936D01*
X005651Y011973D01*
X005602Y012014D01*
X005555Y012058D01*
X005512Y012104D01*
X005471Y012153D01*
X005433Y012204D01*
X005398Y012258D01*
X005367Y012313D01*
X005339Y012371D01*
X005314Y012429D01*
X005293Y012490D01*
X005302Y012492D01*
X005323Y012433D01*
X005347Y012374D01*
X005375Y012317D01*
X005406Y012262D01*
X005440Y012209D01*
X005478Y012159D01*
X005518Y012110D01*
X005562Y012064D01*
X005608Y012021D01*
X005656Y011981D01*
X005707Y011943D01*
X005760Y011909D01*
X005815Y011878D01*
X005872Y011850D01*
X005931Y011826D01*
X005990Y011805D01*
X006051Y011788D01*
X006113Y011775D01*
X006175Y011766D01*
X006238Y011760D01*
X006301Y011758D01*
X006365Y011760D01*
X006428Y011766D01*
X006490Y011775D01*
X006552Y011788D01*
X006613Y011805D01*
X006672Y011826D01*
X006731Y011850D01*
X006788Y011877D01*
X006843Y011908D01*
X006896Y011943D01*
X006947Y011980D01*
X006941Y011987D01*
X006891Y011950D01*
X006838Y011916D01*
X006783Y011885D01*
X006727Y011858D01*
X006669Y011834D01*
X006610Y011814D01*
X006550Y011797D01*
X006488Y011784D01*
X006426Y011774D01*
X006364Y011769D01*
X006301Y011767D01*
X006239Y011769D01*
X006176Y011775D01*
X006115Y011784D01*
X006053Y011797D01*
X005993Y011814D01*
X005934Y011834D01*
X005876Y011858D01*
X005820Y011886D01*
X005765Y011917D01*
X005712Y011950D01*
X005662Y011988D01*
X005614Y012028D01*
X005568Y012071D01*
X005525Y012116D01*
X005485Y012164D01*
X005448Y012215D01*
X005414Y012267D01*
X005383Y012322D01*
X005355Y012378D01*
X005331Y012436D01*
X005311Y012495D01*
X005319Y012498D01*
X005340Y012439D01*
X005364Y012382D01*
X005391Y012326D01*
X005421Y012272D01*
X005455Y012220D01*
X005492Y012170D01*
X005532Y012122D01*
X005574Y012077D01*
X005620Y012034D01*
X005667Y011995D01*
X005718Y011958D01*
X005770Y011924D01*
X005824Y011894D01*
X005880Y011867D01*
X005937Y011843D01*
X005996Y011823D01*
X006055Y011806D01*
X006116Y011793D01*
X006178Y011784D01*
X006239Y011778D01*
X006301Y011776D01*
X006364Y011778D01*
X006425Y011783D01*
X006487Y011793D01*
X006547Y011806D01*
X006607Y011822D01*
X006666Y011842D01*
X006723Y011866D01*
X006779Y011893D01*
X006833Y011924D01*
X006886Y011957D01*
X006936Y011994D01*
X006963Y013653D02*
X006932Y013614D01*
X006933Y013614D02*
X006883Y013651D01*
X006831Y013684D01*
X006777Y013714D01*
X006721Y013741D01*
X006664Y013765D01*
X006606Y013785D01*
X006546Y013801D01*
X006486Y013814D01*
X006425Y013824D01*
X006363Y013829D01*
X006301Y013831D01*
X006240Y013829D01*
X006178Y013823D01*
X006117Y013814D01*
X006057Y013801D01*
X005997Y013785D01*
X005939Y013764D01*
X005882Y013741D01*
X005826Y013714D01*
X005772Y013683D01*
X005720Y013650D01*
X005671Y013613D01*
X005623Y013574D01*
X005578Y013532D01*
X005536Y013487D01*
X005496Y013439D01*
X005459Y013390D01*
X005426Y013338D01*
X005395Y013284D01*
X005368Y013228D01*
X005344Y013171D01*
X005324Y013113D01*
X005277Y013127D01*
X005276Y013128D01*
X005298Y013189D01*
X005322Y013249D01*
X005351Y013307D01*
X005383Y013363D01*
X005418Y013418D01*
X005457Y013470D01*
X005498Y013520D01*
X005543Y013567D01*
X005590Y013611D01*
X005640Y013653D01*
X005692Y013691D01*
X005746Y013726D01*
X005803Y013758D01*
X005861Y013786D01*
X005921Y013811D01*
X005982Y013832D01*
X006045Y013850D01*
X006108Y013863D01*
X006172Y013873D01*
X006237Y013879D01*
X006302Y013881D01*
X006366Y013879D01*
X006431Y013873D01*
X006495Y013864D01*
X006558Y013850D01*
X006621Y013833D01*
X006682Y013812D01*
X006742Y013787D01*
X006800Y013759D01*
X006857Y013727D01*
X006911Y013692D01*
X006964Y013653D01*
X006958Y013646D01*
X006906Y013684D01*
X006852Y013719D01*
X006796Y013751D01*
X006738Y013779D01*
X006679Y013803D01*
X006618Y013824D01*
X006556Y013841D01*
X006493Y013855D01*
X006430Y013864D01*
X006366Y013870D01*
X006302Y013872D01*
X006237Y013870D01*
X006173Y013864D01*
X006110Y013855D01*
X006047Y013841D01*
X005985Y013824D01*
X005924Y013803D01*
X005865Y013778D01*
X005807Y013750D01*
X005751Y013719D01*
X005697Y013684D01*
X005645Y013646D01*
X005596Y013605D01*
X005549Y013561D01*
X005505Y013514D01*
X005464Y013464D01*
X005426Y013413D01*
X005391Y013359D01*
X005359Y013303D01*
X005331Y013245D01*
X005306Y013186D01*
X005285Y013125D01*
X005293Y013122D01*
X005314Y013183D01*
X005339Y013241D01*
X005367Y013299D01*
X005398Y013354D01*
X005433Y013408D01*
X005471Y013459D01*
X005512Y013508D01*
X005555Y013554D01*
X005602Y013598D01*
X005651Y013639D01*
X005702Y013676D01*
X005756Y013711D01*
X005811Y013742D01*
X005869Y013770D01*
X005927Y013794D01*
X005988Y013815D01*
X006049Y013832D01*
X006111Y013846D01*
X006174Y013855D01*
X006238Y013861D01*
X006301Y013863D01*
X006365Y013861D01*
X006429Y013855D01*
X006492Y013846D01*
X006554Y013833D01*
X006615Y013815D01*
X006676Y013795D01*
X006735Y013770D01*
X006792Y013743D01*
X006847Y013711D01*
X006901Y013677D01*
X006952Y013639D01*
X006947Y013632D01*
X006896Y013669D01*
X006843Y013704D01*
X006788Y013735D01*
X006731Y013762D01*
X006672Y013786D01*
X006613Y013807D01*
X006552Y013824D01*
X006490Y013837D01*
X006428Y013846D01*
X006365Y013852D01*
X006301Y013854D01*
X006238Y013852D01*
X006175Y013846D01*
X006113Y013837D01*
X006051Y013824D01*
X005990Y013807D01*
X005931Y013786D01*
X005872Y013762D01*
X005815Y013734D01*
X005760Y013703D01*
X005707Y013669D01*
X005656Y013631D01*
X005608Y013591D01*
X005562Y013548D01*
X005518Y013502D01*
X005478Y013453D01*
X005440Y013403D01*
X005406Y013350D01*
X005375Y013295D01*
X005347Y013238D01*
X005323Y013179D01*
X005302Y013120D01*
X005311Y013117D01*
X005331Y013176D01*
X005355Y013234D01*
X005383Y013290D01*
X005414Y013345D01*
X005448Y013397D01*
X005485Y013448D01*
X005525Y013496D01*
X005568Y013541D01*
X005614Y013584D01*
X005662Y013624D01*
X005712Y013662D01*
X005765Y013695D01*
X005820Y013726D01*
X005876Y013754D01*
X005934Y013778D01*
X005993Y013798D01*
X006053Y013815D01*
X006115Y013828D01*
X006176Y013837D01*
X006239Y013843D01*
X006301Y013845D01*
X006364Y013843D01*
X006426Y013838D01*
X006488Y013828D01*
X006550Y013815D01*
X006610Y013798D01*
X006669Y013778D01*
X006727Y013754D01*
X006783Y013727D01*
X006838Y013696D01*
X006891Y013662D01*
X006941Y013625D01*
X006936Y013618D01*
X006886Y013655D01*
X006833Y013688D01*
X006779Y013719D01*
X006723Y013746D01*
X006666Y013770D01*
X006607Y013790D01*
X006547Y013806D01*
X006487Y013819D01*
X006425Y013829D01*
X006364Y013834D01*
X006301Y013836D01*
X006239Y013834D01*
X006178Y013828D01*
X006116Y013819D01*
X006055Y013806D01*
X005996Y013789D01*
X005937Y013769D01*
X005880Y013745D01*
X005824Y013718D01*
X005770Y013688D01*
X005718Y013654D01*
X005667Y013617D01*
X005620Y013578D01*
X005574Y013535D01*
X005532Y013490D01*
X005492Y013442D01*
X005455Y013392D01*
X005421Y013340D01*
X005391Y013286D01*
X005364Y013230D01*
X005340Y013173D01*
X005319Y013114D01*
X003834Y009836D02*
X003762Y009782D01*
X003763Y009783D02*
X003720Y009836D01*
X003675Y009887D01*
X003626Y009935D01*
X003575Y009980D01*
X003521Y010023D01*
X003465Y010062D01*
X003407Y010098D01*
X003347Y010131D01*
X003286Y010160D01*
X003222Y010185D01*
X003158Y010207D01*
X003092Y010226D01*
X003025Y010240D01*
X002958Y010251D01*
X002890Y010258D01*
X002822Y010261D01*
X002753Y010260D01*
X002685Y010255D01*
X002617Y010247D01*
X002550Y010234D01*
X002484Y010218D01*
X002419Y010198D01*
X002354Y010175D01*
X002292Y010148D01*
X002231Y010117D01*
X002172Y010083D01*
X002114Y010046D01*
X002059Y010005D01*
X002007Y009961D01*
X001957Y009915D01*
X001910Y009866D01*
X001865Y009814D01*
X001824Y009760D01*
X001785Y009703D01*
X001750Y009644D01*
X001719Y009584D01*
X001691Y009522D01*
X001666Y009458D01*
X001645Y009393D01*
X001628Y009327D01*
X001614Y009260D01*
X001605Y009192D01*
X001599Y009124D01*
X001597Y009056D01*
X001599Y008988D01*
X001605Y008920D01*
X001614Y008852D01*
X001628Y008785D01*
X001645Y008719D01*
X001666Y008654D01*
X001691Y008590D01*
X001719Y008528D01*
X001750Y008468D01*
X001785Y008409D01*
X001824Y008352D01*
X001865Y008298D01*
X001910Y008246D01*
X001957Y008197D01*
X002007Y008151D01*
X002059Y008107D01*
X002114Y008066D01*
X002172Y008029D01*
X002231Y007995D01*
X002292Y007964D01*
X002354Y007937D01*
X002419Y007914D01*
X002484Y007894D01*
X002550Y007878D01*
X002617Y007865D01*
X002685Y007857D01*
X002753Y007852D01*
X002822Y007851D01*
X002890Y007854D01*
X002958Y007861D01*
X003025Y007872D01*
X003092Y007886D01*
X003158Y007905D01*
X003222Y007927D01*
X003286Y007952D01*
X003347Y007981D01*
X003407Y008014D01*
X003465Y008050D01*
X003521Y008089D01*
X003575Y008132D01*
X003626Y008177D01*
X003675Y008225D01*
X003720Y008276D01*
X003763Y008329D01*
X003834Y008276D01*
X003835Y008275D01*
X003791Y008220D01*
X003743Y008167D01*
X003693Y008116D01*
X003640Y008069D01*
X003585Y008025D01*
X003527Y007983D01*
X003467Y007945D01*
X003406Y007910D01*
X003342Y007879D01*
X003277Y007851D01*
X003210Y007827D01*
X003142Y007806D01*
X003073Y007790D01*
X003003Y007777D01*
X002933Y007768D01*
X002862Y007762D01*
X002791Y007761D01*
X002720Y007764D01*
X002649Y007770D01*
X002579Y007780D01*
X002510Y007794D01*
X002441Y007812D01*
X002373Y007834D01*
X002307Y007859D01*
X002242Y007888D01*
X002179Y007921D01*
X002118Y007957D01*
X002059Y007996D01*
X002002Y008038D01*
X001947Y008083D01*
X001895Y008132D01*
X001846Y008183D01*
X001799Y008236D01*
X001756Y008293D01*
X001716Y008351D01*
X001679Y008412D01*
X001645Y008474D01*
X001615Y008538D01*
X001588Y008604D01*
X001565Y008671D01*
X001546Y008740D01*
X001531Y008809D01*
X001519Y008879D01*
X001511Y008950D01*
X001507Y009021D01*
X001507Y009091D01*
X001511Y009162D01*
X001519Y009233D01*
X001531Y009303D01*
X001546Y009372D01*
X001565Y009441D01*
X001588Y009508D01*
X001615Y009574D01*
X001645Y009638D01*
X001679Y009700D01*
X001716Y009761D01*
X001756Y009819D01*
X001799Y009876D01*
X001846Y009929D01*
X001895Y009980D01*
X001947Y010029D01*
X002002Y010074D01*
X002059Y010116D01*
X002118Y010155D01*
X002179Y010191D01*
X002242Y010224D01*
X002307Y010253D01*
X002373Y010278D01*
X002441Y010300D01*
X002510Y010318D01*
X002579Y010332D01*
X002649Y010342D01*
X002720Y010348D01*
X002791Y010351D01*
X002862Y010350D01*
X002933Y010344D01*
X003003Y010335D01*
X003073Y010322D01*
X003142Y010306D01*
X003210Y010285D01*
X003277Y010261D01*
X003342Y010233D01*
X003406Y010202D01*
X003467Y010167D01*
X003527Y010129D01*
X003585Y010087D01*
X003640Y010043D01*
X003693Y009996D01*
X003743Y009945D01*
X003791Y009892D01*
X003835Y009837D01*
X003828Y009832D01*
X003783Y009887D01*
X003736Y009940D01*
X003685Y009991D01*
X003632Y010038D01*
X003576Y010083D01*
X003518Y010124D01*
X003458Y010162D01*
X003396Y010197D01*
X003332Y010228D01*
X003266Y010255D01*
X003199Y010279D01*
X003130Y010299D01*
X003061Y010316D01*
X002991Y010328D01*
X002920Y010337D01*
X002849Y010341D01*
X002778Y010342D01*
X002707Y010338D01*
X002636Y010331D01*
X002565Y010320D01*
X002496Y010305D01*
X002427Y010286D01*
X002359Y010263D01*
X002293Y010237D01*
X002228Y010207D01*
X002166Y010173D01*
X002105Y010137D01*
X002046Y010096D01*
X001989Y010053D01*
X001935Y010006D01*
X001884Y009957D01*
X001836Y009904D01*
X001790Y009850D01*
X001748Y009792D01*
X001709Y009733D01*
X001673Y009671D01*
X001640Y009608D01*
X001612Y009543D01*
X001586Y009476D01*
X001565Y009408D01*
X001547Y009339D01*
X001534Y009269D01*
X001524Y009198D01*
X001518Y009127D01*
X001516Y009056D01*
X001518Y008985D01*
X001524Y008914D01*
X001534Y008843D01*
X001547Y008773D01*
X001565Y008704D01*
X001586Y008636D01*
X001612Y008569D01*
X001640Y008504D01*
X001673Y008441D01*
X001709Y008379D01*
X001748Y008320D01*
X001790Y008262D01*
X001836Y008208D01*
X001884Y008155D01*
X001935Y008106D01*
X001989Y008059D01*
X002046Y008016D01*
X002105Y007975D01*
X002166Y007939D01*
X002228Y007905D01*
X002293Y007875D01*
X002359Y007849D01*
X002427Y007826D01*
X002496Y007807D01*
X002565Y007792D01*
X002636Y007781D01*
X002707Y007774D01*
X002778Y007770D01*
X002849Y007771D01*
X002920Y007775D01*
X002991Y007784D01*
X003061Y007796D01*
X003130Y007813D01*
X003199Y007833D01*
X003266Y007857D01*
X003332Y007884D01*
X003396Y007915D01*
X003458Y007950D01*
X003518Y007988D01*
X003576Y008029D01*
X003632Y008074D01*
X003685Y008121D01*
X003736Y008172D01*
X003783Y008225D01*
X003828Y008280D01*
X003821Y008286D01*
X003776Y008231D01*
X003729Y008178D01*
X003679Y008128D01*
X003626Y008081D01*
X003571Y008037D01*
X003513Y007995D01*
X003454Y007958D01*
X003392Y007923D01*
X003328Y007892D01*
X003263Y007865D01*
X003196Y007841D01*
X003128Y007821D01*
X003059Y007805D01*
X002990Y007793D01*
X002919Y007784D01*
X002849Y007780D01*
X002778Y007779D01*
X002707Y007783D01*
X002637Y007790D01*
X002567Y007801D01*
X002498Y007816D01*
X002430Y007835D01*
X002362Y007857D01*
X002297Y007883D01*
X002232Y007913D01*
X002170Y007946D01*
X002110Y007983D01*
X002051Y008023D01*
X001995Y008066D01*
X001941Y008112D01*
X001891Y008162D01*
X001842Y008213D01*
X001797Y008268D01*
X001755Y008325D01*
X001716Y008384D01*
X001681Y008445D01*
X001648Y008508D01*
X001620Y008573D01*
X001595Y008639D01*
X001574Y008707D01*
X001556Y008775D01*
X001543Y008845D01*
X001533Y008915D01*
X001527Y008985D01*
X001525Y009056D01*
X001527Y009127D01*
X001533Y009197D01*
X001543Y009267D01*
X001556Y009337D01*
X001574Y009405D01*
X001595Y009473D01*
X001620Y009539D01*
X001648Y009604D01*
X001681Y009667D01*
X001716Y009728D01*
X001755Y009787D01*
X001797Y009844D01*
X001842Y009899D01*
X001891Y009950D01*
X001941Y010000D01*
X001995Y010046D01*
X002051Y010089D01*
X002110Y010129D01*
X002170Y010166D01*
X002232Y010199D01*
X002297Y010229D01*
X002362Y010255D01*
X002430Y010277D01*
X002498Y010296D01*
X002567Y010311D01*
X002637Y010322D01*
X002707Y010329D01*
X002778Y010333D01*
X002849Y010332D01*
X002919Y010328D01*
X002990Y010319D01*
X003059Y010307D01*
X003128Y010291D01*
X003196Y010271D01*
X003263Y010247D01*
X003328Y010220D01*
X003392Y010189D01*
X003454Y010154D01*
X003513Y010117D01*
X003571Y010075D01*
X003626Y010031D01*
X003679Y009984D01*
X003729Y009934D01*
X003776Y009881D01*
X003821Y009826D01*
X003813Y009821D01*
X003769Y009876D01*
X003721Y009929D01*
X003671Y009979D01*
X003618Y010027D01*
X003562Y010071D01*
X003504Y010112D01*
X003444Y010149D01*
X003382Y010184D01*
X003318Y010214D01*
X003252Y010241D01*
X003185Y010265D01*
X003117Y010284D01*
X003047Y010300D01*
X002977Y010312D01*
X002907Y010320D01*
X002836Y010324D01*
X002765Y010323D01*
X002694Y010319D01*
X002623Y010311D01*
X002553Y010299D01*
X002484Y010283D01*
X002416Y010264D01*
X002348Y010240D01*
X002283Y010213D01*
X002219Y010182D01*
X002157Y010148D01*
X002097Y010110D01*
X002039Y010068D01*
X001983Y010024D01*
X001930Y009977D01*
X001880Y009926D01*
X001833Y009873D01*
X001788Y009818D01*
X001747Y009760D01*
X001710Y009700D01*
X001675Y009637D01*
X001644Y009573D01*
X001617Y009508D01*
X001594Y009441D01*
X001574Y009372D01*
X001558Y009303D01*
X001546Y009233D01*
X001538Y009162D01*
X001534Y009092D01*
X001534Y009020D01*
X001538Y008950D01*
X001546Y008879D01*
X001558Y008809D01*
X001574Y008740D01*
X001594Y008671D01*
X001617Y008604D01*
X001644Y008539D01*
X001675Y008475D01*
X001710Y008412D01*
X001747Y008352D01*
X001788Y008294D01*
X001833Y008239D01*
X001880Y008186D01*
X001930Y008135D01*
X001983Y008088D01*
X002039Y008044D01*
X002097Y008002D01*
X002157Y007964D01*
X002219Y007930D01*
X002283Y007899D01*
X002348Y007872D01*
X002416Y007848D01*
X002484Y007829D01*
X002553Y007813D01*
X002623Y007801D01*
X002694Y007793D01*
X002765Y007789D01*
X002836Y007788D01*
X002907Y007792D01*
X002977Y007800D01*
X003047Y007812D01*
X003117Y007828D01*
X003185Y007847D01*
X003252Y007871D01*
X003318Y007898D01*
X003382Y007928D01*
X003444Y007963D01*
X003504Y008000D01*
X003562Y008041D01*
X003618Y008085D01*
X003671Y008133D01*
X003721Y008183D01*
X003769Y008236D01*
X003813Y008291D01*
X003806Y008297D01*
X003762Y008242D01*
X003715Y008189D01*
X003665Y008139D01*
X003612Y008092D01*
X003557Y008048D01*
X003499Y008008D01*
X003440Y007970D01*
X003378Y007936D01*
X003314Y007906D01*
X003249Y007879D01*
X003182Y007856D01*
X003114Y007836D01*
X003046Y007821D01*
X002976Y007809D01*
X002906Y007801D01*
X002835Y007797D01*
X002765Y007798D01*
X002694Y007802D01*
X002624Y007810D01*
X002555Y007822D01*
X002486Y007837D01*
X002418Y007857D01*
X002352Y007880D01*
X002287Y007907D01*
X002223Y007938D01*
X002161Y007972D01*
X002102Y008010D01*
X002044Y008051D01*
X001989Y008095D01*
X001936Y008142D01*
X001887Y008192D01*
X001840Y008244D01*
X001796Y008300D01*
X001755Y008357D01*
X001717Y008417D01*
X001683Y008479D01*
X001653Y008542D01*
X001626Y008607D01*
X001602Y008674D01*
X001583Y008742D01*
X001567Y008811D01*
X001555Y008880D01*
X001547Y008950D01*
X001543Y009021D01*
X001543Y009091D01*
X001547Y009162D01*
X001555Y009232D01*
X001567Y009301D01*
X001583Y009370D01*
X001602Y009438D01*
X001626Y009505D01*
X001653Y009570D01*
X001683Y009633D01*
X001717Y009695D01*
X001755Y009755D01*
X001796Y009812D01*
X001840Y009868D01*
X001887Y009920D01*
X001936Y009970D01*
X001989Y010017D01*
X002044Y010061D01*
X002102Y010102D01*
X002161Y010140D01*
X002223Y010174D01*
X002287Y010205D01*
X002352Y010232D01*
X002418Y010255D01*
X002486Y010275D01*
X002555Y010290D01*
X002624Y010302D01*
X002694Y010310D01*
X002765Y010314D01*
X002835Y010315D01*
X002906Y010311D01*
X002976Y010303D01*
X003046Y010291D01*
X003114Y010276D01*
X003182Y010256D01*
X003249Y010233D01*
X003314Y010206D01*
X003378Y010176D01*
X003440Y010142D01*
X003499Y010104D01*
X003557Y010064D01*
X003612Y010020D01*
X003665Y009973D01*
X003715Y009923D01*
X003762Y009870D01*
X003806Y009815D01*
X003799Y009810D01*
X003755Y009865D01*
X003708Y009917D01*
X003659Y009966D01*
X003606Y010013D01*
X003552Y010056D01*
X003494Y010097D01*
X003435Y010134D01*
X003374Y010168D01*
X003310Y010198D01*
X003246Y010225D01*
X003179Y010248D01*
X003112Y010267D01*
X003044Y010282D01*
X002975Y010294D01*
X002905Y010302D01*
X002835Y010306D01*
X002765Y010305D01*
X002695Y010301D01*
X002626Y010293D01*
X002557Y010282D01*
X002488Y010266D01*
X002421Y010247D01*
X002355Y010223D01*
X002290Y010196D01*
X002227Y010166D01*
X002166Y010132D01*
X002107Y010095D01*
X002049Y010054D01*
X001995Y010010D01*
X001943Y009964D01*
X001893Y009914D01*
X001846Y009862D01*
X001803Y009807D01*
X001762Y009750D01*
X001725Y009691D01*
X001691Y009629D01*
X001661Y009566D01*
X001634Y009501D01*
X001611Y009435D01*
X001592Y009368D01*
X001576Y009300D01*
X001564Y009231D01*
X001556Y009161D01*
X001552Y009091D01*
X001552Y009021D01*
X001556Y008951D01*
X001564Y008881D01*
X001576Y008812D01*
X001592Y008744D01*
X001611Y008677D01*
X001634Y008611D01*
X001661Y008546D01*
X001691Y008483D01*
X001725Y008421D01*
X001762Y008362D01*
X001803Y008305D01*
X001846Y008250D01*
X001893Y008198D01*
X001943Y008148D01*
X001995Y008102D01*
X002049Y008058D01*
X002107Y008017D01*
X002166Y007980D01*
X002227Y007946D01*
X002290Y007916D01*
X002355Y007889D01*
X002421Y007865D01*
X002488Y007846D01*
X002557Y007830D01*
X002626Y007819D01*
X002695Y007811D01*
X002765Y007807D01*
X002835Y007806D01*
X002905Y007810D01*
X002975Y007818D01*
X003044Y007830D01*
X003112Y007845D01*
X003179Y007864D01*
X003246Y007887D01*
X003310Y007914D01*
X003374Y007944D01*
X003435Y007978D01*
X003494Y008015D01*
X003552Y008056D01*
X003606Y008099D01*
X003659Y008146D01*
X003708Y008195D01*
X003755Y008247D01*
X003799Y008302D01*
X003792Y008307D01*
X003748Y008253D01*
X003702Y008201D01*
X003653Y008152D01*
X003601Y008106D01*
X003546Y008063D01*
X003489Y008023D01*
X003430Y007986D01*
X003369Y007952D01*
X003307Y007922D01*
X003242Y007896D01*
X003177Y007873D01*
X003110Y007854D01*
X003042Y007838D01*
X002973Y007827D01*
X002904Y007819D01*
X002835Y007815D01*
X002765Y007816D01*
X002696Y007820D01*
X002627Y007827D01*
X002558Y007839D01*
X002491Y007855D01*
X002424Y007874D01*
X002358Y007897D01*
X002294Y007924D01*
X002231Y007954D01*
X002170Y007988D01*
X002112Y008025D01*
X002055Y008065D01*
X002001Y008108D01*
X001949Y008155D01*
X001900Y008204D01*
X001853Y008256D01*
X001810Y008310D01*
X001770Y008367D01*
X001733Y008426D01*
X001699Y008487D01*
X001669Y008550D01*
X001642Y008614D01*
X001619Y008679D01*
X001600Y008746D01*
X001585Y008814D01*
X001573Y008883D01*
X001565Y008952D01*
X001561Y009021D01*
X001561Y009091D01*
X001565Y009160D01*
X001573Y009229D01*
X001585Y009298D01*
X001600Y009366D01*
X001619Y009433D01*
X001642Y009498D01*
X001669Y009562D01*
X001699Y009625D01*
X001733Y009686D01*
X001770Y009745D01*
X001810Y009802D01*
X001853Y009856D01*
X001900Y009908D01*
X001949Y009957D01*
X002001Y010004D01*
X002055Y010047D01*
X002112Y010087D01*
X002170Y010124D01*
X002231Y010158D01*
X002294Y010188D01*
X002358Y010215D01*
X002424Y010238D01*
X002491Y010257D01*
X002558Y010273D01*
X002627Y010285D01*
X002696Y010292D01*
X002765Y010296D01*
X002835Y010297D01*
X002904Y010293D01*
X002973Y010285D01*
X003042Y010274D01*
X003110Y010258D01*
X003177Y010239D01*
X003242Y010216D01*
X003307Y010190D01*
X003369Y010160D01*
X003430Y010126D01*
X003489Y010089D01*
X003546Y010049D01*
X003601Y010006D01*
X003653Y009960D01*
X003702Y009911D01*
X003748Y009859D01*
X003792Y009805D01*
X003785Y009799D01*
X003741Y009853D01*
X003695Y009904D01*
X003646Y009953D01*
X003595Y009999D01*
X003541Y010042D01*
X003484Y010082D01*
X003426Y010118D01*
X003365Y010152D01*
X003303Y010182D01*
X003239Y010208D01*
X003174Y010230D01*
X003108Y010249D01*
X003040Y010265D01*
X002972Y010276D01*
X002904Y010284D01*
X002835Y010288D01*
X002766Y010287D01*
X002697Y010283D01*
X002628Y010276D01*
X002560Y010264D01*
X002493Y010249D01*
X002426Y010229D01*
X002361Y010206D01*
X002298Y010180D01*
X002235Y010150D01*
X002175Y010117D01*
X002117Y010080D01*
X002060Y010040D01*
X002006Y009997D01*
X001955Y009951D01*
X001906Y009902D01*
X001860Y009850D01*
X001817Y009796D01*
X001777Y009740D01*
X001741Y009681D01*
X001707Y009621D01*
X001677Y009559D01*
X001651Y009495D01*
X001628Y009430D01*
X001609Y009363D01*
X001594Y009296D01*
X001582Y009228D01*
X001574Y009159D01*
X001570Y009091D01*
X001570Y009021D01*
X001574Y008953D01*
X001582Y008884D01*
X001594Y008816D01*
X001609Y008749D01*
X001628Y008682D01*
X001651Y008617D01*
X001677Y008553D01*
X001707Y008491D01*
X001741Y008431D01*
X001777Y008372D01*
X001817Y008316D01*
X001860Y008262D01*
X001906Y008210D01*
X001955Y008161D01*
X002006Y008115D01*
X002060Y008072D01*
X002117Y008032D01*
X002175Y007995D01*
X002235Y007962D01*
X002298Y007932D01*
X002361Y007906D01*
X002426Y007883D01*
X002493Y007863D01*
X002560Y007848D01*
X002628Y007836D01*
X002697Y007829D01*
X002766Y007825D01*
X002835Y007824D01*
X002904Y007828D01*
X002972Y007836D01*
X003040Y007847D01*
X003108Y007863D01*
X003174Y007882D01*
X003239Y007904D01*
X003303Y007930D01*
X003365Y007960D01*
X003426Y007994D01*
X003484Y008030D01*
X003541Y008070D01*
X003595Y008113D01*
X003646Y008159D01*
X003695Y008208D01*
X003741Y008259D01*
X003785Y008313D01*
X003777Y008318D01*
X003734Y008264D01*
X003688Y008213D01*
X003638Y008164D01*
X003587Y008118D01*
X003532Y008075D01*
X003475Y008035D01*
X003417Y007999D01*
X003356Y007965D01*
X003293Y007936D01*
X003229Y007910D01*
X003163Y007888D01*
X003096Y007869D01*
X003029Y007854D01*
X002960Y007843D01*
X002891Y007836D01*
X002822Y007833D01*
X002753Y007834D01*
X002683Y007839D01*
X002615Y007847D01*
X002547Y007860D01*
X002479Y007876D01*
X002413Y007897D01*
X002348Y007920D01*
X002284Y007948D01*
X002222Y007979D01*
X002162Y008014D01*
X002104Y008052D01*
X002048Y008093D01*
X001995Y008137D01*
X001944Y008184D01*
X001896Y008234D01*
X001851Y008287D01*
X001809Y008342D01*
X001770Y008399D01*
X001735Y008459D01*
X001703Y008520D01*
X001674Y008583D01*
X001649Y008648D01*
X001628Y008714D01*
X001610Y008781D01*
X001597Y008849D01*
X001587Y008918D01*
X001581Y008987D01*
X001579Y009056D01*
X001581Y009125D01*
X001587Y009194D01*
X001597Y009263D01*
X001610Y009331D01*
X001628Y009398D01*
X001649Y009464D01*
X001674Y009529D01*
X001703Y009592D01*
X001735Y009653D01*
X001770Y009713D01*
X001809Y009770D01*
X001851Y009825D01*
X001896Y009878D01*
X001944Y009928D01*
X001995Y009975D01*
X002048Y010019D01*
X002104Y010060D01*
X002162Y010098D01*
X002222Y010133D01*
X002284Y010164D01*
X002348Y010192D01*
X002413Y010215D01*
X002479Y010236D01*
X002547Y010252D01*
X002615Y010265D01*
X002683Y010273D01*
X002753Y010278D01*
X002822Y010279D01*
X002891Y010276D01*
X002960Y010269D01*
X003029Y010258D01*
X003096Y010243D01*
X003163Y010224D01*
X003229Y010202D01*
X003293Y010176D01*
X003356Y010147D01*
X003417Y010113D01*
X003475Y010077D01*
X003532Y010037D01*
X003587Y009994D01*
X003638Y009948D01*
X003688Y009899D01*
X003734Y009848D01*
X003777Y009794D01*
X003770Y009788D01*
X003727Y009842D01*
X003681Y009893D01*
X003632Y009942D01*
X003581Y009987D01*
X003527Y010030D01*
X003470Y010069D01*
X003412Y010106D01*
X003352Y010139D01*
X003289Y010168D01*
X003226Y010194D01*
X003160Y010216D01*
X003094Y010234D01*
X003027Y010249D01*
X002959Y010260D01*
X002890Y010267D01*
X002822Y010270D01*
X002753Y010269D01*
X002684Y010264D01*
X002616Y010256D01*
X002548Y010243D01*
X002482Y010227D01*
X002416Y010207D01*
X002351Y010183D01*
X002288Y010156D01*
X002227Y010125D01*
X002167Y010091D01*
X002109Y010053D01*
X002054Y010012D01*
X002001Y009968D01*
X001951Y009921D01*
X001903Y009872D01*
X001858Y009820D01*
X001816Y009765D01*
X001778Y009708D01*
X001743Y009649D01*
X001711Y009588D01*
X001682Y009525D01*
X001658Y009461D01*
X001636Y009395D01*
X001619Y009329D01*
X001606Y009261D01*
X001596Y009193D01*
X001590Y009125D01*
X001588Y009056D01*
X001590Y008987D01*
X001596Y008919D01*
X001606Y008851D01*
X001619Y008783D01*
X001636Y008717D01*
X001658Y008651D01*
X001682Y008587D01*
X001711Y008524D01*
X001743Y008463D01*
X001778Y008404D01*
X001816Y008347D01*
X001858Y008292D01*
X001903Y008240D01*
X001951Y008191D01*
X002001Y008144D01*
X002054Y008100D01*
X002109Y008059D01*
X002167Y008021D01*
X002227Y007987D01*
X002288Y007956D01*
X002351Y007929D01*
X002416Y007905D01*
X002482Y007885D01*
X002548Y007869D01*
X002616Y007856D01*
X002684Y007848D01*
X002753Y007843D01*
X002822Y007842D01*
X002890Y007845D01*
X002959Y007852D01*
X003027Y007863D01*
X003094Y007878D01*
X003160Y007896D01*
X003226Y007918D01*
X003289Y007944D01*
X003352Y007973D01*
X003412Y008006D01*
X003470Y008043D01*
X003527Y008082D01*
X003581Y008125D01*
X003632Y008170D01*
X003681Y008219D01*
X003727Y008270D01*
X003770Y008324D01*
D30*
X005052Y008706D03*
D31*
X005052Y009331D03*
X005052Y006781D03*
D32*
X004170Y006007D02*
X004100Y005902D01*
X004030Y006007D01*
X003960Y005902D02*
X004170Y005902D01*
X004170Y005821D02*
X004170Y005716D01*
X004135Y005681D01*
X004065Y005681D01*
X004030Y005716D01*
X004030Y005821D01*
X004065Y005600D02*
X004170Y005600D01*
X004170Y005495D01*
X004135Y005460D01*
X004100Y005495D01*
X004100Y005600D01*
X004065Y005600D02*
X004030Y005565D01*
X004030Y005495D01*
X003960Y005379D02*
X003960Y005309D01*
X003960Y005344D02*
X004135Y005344D01*
X004170Y005309D01*
X004170Y005274D01*
X004135Y005239D01*
X004135Y004937D02*
X004170Y004902D01*
X004170Y004832D01*
X004135Y004797D01*
X003995Y004797D01*
X003960Y004832D01*
X003960Y004902D01*
X003995Y004937D01*
X003995Y004716D02*
X003960Y004681D01*
X003960Y004576D01*
X004170Y004576D01*
X004170Y004681D01*
X004135Y004716D01*
X003995Y004716D01*
X002677Y005218D02*
X002677Y005288D01*
X002642Y005323D01*
X002677Y005218D02*
X002642Y005183D01*
X002502Y005183D01*
X002467Y005218D01*
X002467Y005288D01*
X002502Y005323D01*
X002502Y006418D02*
X002467Y006453D01*
X002467Y006523D01*
X002502Y006558D01*
X002572Y006523D02*
X002607Y006558D01*
X002642Y006558D01*
X002677Y006523D01*
X002677Y006453D01*
X002642Y006418D01*
X002572Y006453D02*
X002572Y006523D01*
X002572Y006453D02*
X002537Y006418D01*
X002502Y006418D01*
X002502Y004098D02*
X002467Y004063D01*
X002467Y003958D01*
X002677Y003958D01*
X002607Y003958D02*
X002607Y004063D01*
X002572Y004098D01*
X002502Y004098D01*
X016742Y003312D02*
X016936Y003312D01*
X016839Y003312D02*
X016839Y003021D01*
X018230Y003070D02*
X018278Y003021D01*
X018375Y003021D01*
X018423Y003070D01*
X018230Y003070D02*
X018230Y003263D01*
X018278Y003312D01*
X018375Y003312D01*
X018423Y003263D01*
X019717Y003263D02*
X019717Y003215D01*
X019766Y003166D01*
X019862Y003166D01*
X019911Y003118D01*
X019911Y003070D01*
X019862Y003021D01*
X019766Y003021D01*
X019717Y003070D01*
X019717Y003263D02*
X019766Y003312D01*
X019862Y003312D01*
X019911Y003263D01*
X034017Y010675D02*
X034066Y010627D01*
X034114Y010627D01*
X034162Y010675D01*
X034162Y010772D01*
X034211Y010820D01*
X034259Y010820D01*
X034307Y010772D01*
X034307Y010675D01*
X034259Y010627D01*
X034017Y010675D02*
X034017Y010772D01*
X034066Y010820D01*
X034066Y012114D02*
X034259Y012114D01*
X034307Y012163D01*
X034307Y012259D01*
X034259Y012308D01*
X034066Y012308D02*
X034017Y012259D01*
X034017Y012163D01*
X034066Y012114D01*
X034017Y013602D02*
X034017Y013795D01*
X034017Y013698D02*
X034307Y013698D01*
M02*
