%
M48
M72
T01C0.0276
T02C0.0320
T03C0.0354
T04C0.0360
T05C0.0591
T06C0.0630
T07C0.0787
T08C0.0866
%
T01
X6302Y5056
X6302Y9056
X7552Y9806
X7552Y10806
X6302Y11806
X6302Y12806
X6302Y13806
X8302Y14306
X8302Y15306
X6802Y16556
X5302Y16556
X8552Y18806
X9552Y18806
X6802Y20556
X5302Y20556
X16552Y20306
X18052Y20306
X21552Y19806
X21552Y18806
X18052Y16306
X16552Y16306
X17052Y14556
X17052Y13556
X17802Y11306
X18802Y9806
X14802Y9806
X13802Y11306
X14802Y6806
X14802Y5306
X18802Y5306
X18802Y6806
X25552Y10806
X26552Y10806
X33552Y17556
X33552Y18556
T02
X30802Y18806
X30802Y17806
X30802Y16806
X30802Y15806
X30802Y14806
X30802Y13806
X30802Y12806
X27802Y12806
X27802Y13806
X27802Y14806
X27802Y15806
X27802Y16806
X27802Y17806
X27802Y18806
X28302Y20306
X30302Y20306
X24052Y9806
X24552Y8306
X24552Y7306
X24552Y6306
X24552Y5306
X24552Y4306
X24552Y3306
X24552Y2306
X21552Y2306
X21552Y3306
X21552Y4306
X21552Y5306
X21552Y6306
X21552Y7306
X21552Y8306
X22052Y9806
X14302Y14306
X14802Y15806
X14802Y16806
X14802Y17806
X14802Y18806
X14302Y20306
X12302Y20306
X11802Y18806
X11802Y17806
X11802Y16806
X11802Y15806
X12302Y14306
X11802Y12806
X12302Y11306
X12302Y10306
X12302Y9306
X12302Y8306
X12302Y7306
X12302Y6306
X12302Y5306
X9302Y5306
X9302Y6306
X9302Y7306
X9302Y8306
X9302Y9306
X9302Y10306
X9302Y11306
X9802Y12806
T03
X5052Y10056
X3302Y9056
X2302Y9056
X5052Y6056
X14052Y7806
X14802Y8306
X17302Y8056
X18802Y8306
X19552Y6056
X17552Y6056
X14552Y4556
T04
X24302Y12806
X25302Y12806
X25302Y13806
X24302Y13806
X24302Y14806
X25302Y14806
X26302Y14806
X26302Y13806
X26302Y15806
X25302Y15806
X24302Y15806
X24302Y16806
X25302Y16806
X27052Y8556
X28052Y8556
X29052Y8556
X30052Y8556
X29052Y7556
X28052Y7556
X27052Y7556
X27052Y6556
X28052Y6556
X29052Y6556
X29052Y5556
X28052Y5556
X27052Y5556
X27052Y4556
X28052Y4556
X29052Y4556
X29052Y3556
X28052Y3556
X27052Y3556
X27052Y2556
X28052Y2556
X29052Y2556
X29052Y1556
X28052Y1556
X27052Y1556
X30052Y1556
T05
X1302Y1806
X16802Y2306
X18302Y2306
X19802Y2306
X33302Y10806
X33302Y12306
X33302Y13806
X34302Y23806
X34302Y1806
X2302Y17806
X2302Y19806
X1302Y23806
T06
X3302Y6556
X3302Y5306
X3302Y4056
X5102Y3556
X6502Y3556
T07
X7271Y22306
X5302Y22306
X3334Y22306
X9834Y22306
X11802Y22306
X13771Y22306
X16084Y22306
X18052Y22306
X20021Y22306
X22334Y22306
X24302Y22306
X26271Y22306
X28584Y22306
X30552Y22306
X32521Y22306
T08
X20302Y13556
X20302Y11706
X13653Y2806
X11802Y2806
X9952Y2806
X6502Y2006
X5102Y2006
X1752Y4081
X1752Y5306
X1752Y6531
X3052Y11706
X3052Y13556
M30
