G75*
G70*
%OFA0B0*%
%FSLAX24Y24*%
%IPPOS*%
%LPD*%
%AMOC8*
5,1,8,0,0,1.08239X$1,22.5*
%
%ADD10C,0.0520*%
%ADD11R,0.0476X0.0476*%
%ADD12C,0.0476*%
%ADD13C,0.1181*%
%ADD14OC8,0.0520*%
%ADD15R,0.0560X0.0560*%
%ADD16C,0.0560*%
%ADD17C,0.1266*%
%ADD18OC8,0.0630*%
%ADD19OC8,0.0476*%
%ADD20C,0.0554*%
%ADD21R,0.0554X0.0554*%
%ADD22C,0.0945*%
%ADD23C,0.0886*%
%ADD24C,0.0400*%
%ADD25C,0.0320*%
%ADD26C,0.0531*%
D10*
X009040Y005300D02*
X009560Y005300D01*
X009560Y006300D02*
X009040Y006300D01*
X009040Y007300D02*
X009560Y007300D01*
X009560Y008300D02*
X009040Y008300D01*
X009040Y009300D02*
X009560Y009300D01*
X009560Y010300D02*
X009040Y010300D01*
X009040Y011300D02*
X009560Y011300D01*
X012040Y011300D02*
X012560Y011300D01*
X012560Y010300D02*
X012040Y010300D01*
X012040Y009300D02*
X012560Y009300D01*
X012560Y008300D02*
X012040Y008300D01*
X012040Y007300D02*
X012560Y007300D01*
X012560Y006300D02*
X012040Y006300D01*
X012040Y005300D02*
X012560Y005300D01*
X021290Y005300D02*
X021810Y005300D01*
X021810Y004300D02*
X021290Y004300D01*
X021290Y003300D02*
X021810Y003300D01*
X021810Y002300D02*
X021290Y002300D01*
X024290Y002300D02*
X024810Y002300D01*
X024810Y003300D02*
X024290Y003300D01*
X024290Y004300D02*
X024810Y004300D01*
X024810Y005300D02*
X024290Y005300D01*
X024290Y006300D02*
X024810Y006300D01*
X024810Y007300D02*
X024290Y007300D01*
X024290Y008300D02*
X024810Y008300D01*
X021810Y008300D02*
X021290Y008300D01*
X021290Y007300D02*
X021810Y007300D01*
X021810Y006300D02*
X021290Y006300D01*
X027540Y012800D02*
X028060Y012800D01*
X028060Y013800D02*
X027540Y013800D01*
X027540Y014800D02*
X028060Y014800D01*
X028060Y015800D02*
X027540Y015800D01*
X027540Y016800D02*
X028060Y016800D01*
X028060Y017800D02*
X027540Y017800D01*
X027540Y018800D02*
X028060Y018800D01*
X030540Y018800D02*
X031060Y018800D01*
X031060Y017800D02*
X030540Y017800D01*
X030540Y016800D02*
X031060Y016800D01*
X031060Y015800D02*
X030540Y015800D01*
X030540Y014800D02*
X031060Y014800D01*
X031060Y013800D02*
X030540Y013800D01*
X030540Y012800D02*
X031060Y012800D01*
X015060Y015800D02*
X014540Y015800D01*
X014540Y016800D02*
X015060Y016800D01*
X015060Y017800D02*
X014540Y017800D01*
X014540Y018800D02*
X015060Y018800D01*
X012060Y018800D02*
X011540Y018800D01*
X011540Y017800D02*
X012060Y017800D01*
X012060Y016800D02*
X011540Y016800D01*
X011540Y015800D02*
X012060Y015800D01*
D11*
X008300Y014300D03*
X007550Y009800D03*
X017050Y014550D03*
X021550Y018800D03*
X026550Y010800D03*
X033550Y017550D03*
X009550Y018800D03*
D12*
X008550Y018800D03*
X006800Y020550D03*
X005300Y020550D03*
X005300Y016550D03*
X006800Y016550D03*
X008300Y015300D03*
X013800Y011300D03*
X014800Y009800D03*
X017800Y011300D03*
X018800Y009800D03*
X018800Y006800D03*
X018800Y005300D03*
X014800Y005300D03*
X014800Y006800D03*
X007550Y010800D03*
X006300Y009050D03*
X006300Y005050D03*
X017050Y013550D03*
X016550Y016300D03*
X018050Y016300D03*
X021550Y019800D03*
X018050Y020300D03*
X016550Y020300D03*
X025550Y010800D03*
X033550Y018550D03*
D13*
X032519Y022300D03*
X030550Y022300D03*
X028581Y022300D03*
X026269Y022300D03*
X024300Y022300D03*
X022331Y022300D03*
X020019Y022300D03*
X018050Y022300D03*
X016081Y022300D03*
X013769Y022300D03*
X011800Y022300D03*
X009831Y022300D03*
X007269Y022300D03*
X005300Y022300D03*
X003331Y022300D03*
D14*
X012300Y020300D03*
X014300Y020300D03*
X014300Y014300D03*
X012300Y014300D03*
X011800Y012800D03*
X009800Y012800D03*
X022050Y009800D03*
X024050Y009800D03*
X028300Y020300D03*
X030300Y020300D03*
D15*
X014800Y008300D03*
X005050Y010050D03*
D16*
X005050Y006050D03*
X018800Y008300D03*
D17*
X020300Y011700D03*
X020300Y013550D03*
X013650Y002800D03*
X011800Y002800D03*
X009950Y002800D03*
X003050Y011700D03*
X003050Y013550D03*
D18*
X024300Y013800D03*
X025300Y013800D03*
X026300Y013800D03*
X026300Y014800D03*
X025300Y014800D03*
X024300Y014800D03*
X024300Y015800D03*
X025300Y015800D03*
X026300Y015800D03*
X025300Y016800D03*
X024300Y016800D03*
X024300Y012800D03*
X025300Y012800D03*
X027050Y008550D03*
X028050Y008550D03*
X029050Y008550D03*
X030050Y008550D03*
X029050Y007550D03*
X028050Y007550D03*
X027050Y007550D03*
X027050Y006550D03*
X028050Y006550D03*
X029050Y006550D03*
X029050Y005550D03*
X028050Y005550D03*
X027050Y005550D03*
X027050Y004550D03*
X028050Y004550D03*
X029050Y004550D03*
X029050Y003550D03*
X028050Y003550D03*
X027050Y003550D03*
X027050Y002550D03*
X028050Y002550D03*
X029050Y002550D03*
X029050Y001550D03*
X028050Y001550D03*
X027050Y001550D03*
X030050Y001550D03*
D19*
X006300Y011800D03*
X006300Y012800D03*
X006300Y013800D03*
D20*
X002300Y009050D03*
D21*
X003300Y009050D03*
D22*
X003300Y006550D03*
X003300Y005300D03*
X003300Y004050D03*
X005100Y003550D03*
X006500Y003550D03*
D23*
X016800Y002300D03*
X018300Y002300D03*
X019800Y002300D03*
X033300Y010800D03*
X033300Y012300D03*
X033300Y013800D03*
X002300Y017800D03*
X002300Y019800D03*
D24*
X002195Y001622D02*
X002103Y001400D01*
X004254Y001400D01*
X004137Y001601D01*
X004067Y001864D01*
X004067Y002136D01*
X004137Y002399D01*
X004273Y002634D01*
X004466Y002827D01*
X004580Y002893D01*
X004394Y003078D01*
X004268Y003384D01*
X004268Y003716D01*
X004394Y004022D01*
X004494Y004121D01*
X003896Y004719D01*
X003810Y004632D01*
X003810Y004632D01*
X003882Y004560D01*
X003944Y004480D01*
X003994Y004392D01*
X004033Y004299D01*
X004059Y004201D01*
X004072Y004101D01*
X004072Y004050D01*
X003300Y004050D01*
X003300Y004050D01*
X004072Y004050D01*
X004072Y003999D01*
X004059Y003899D01*
X004033Y003801D01*
X003994Y003708D01*
X003944Y003620D01*
X003882Y003540D01*
X003810Y003468D01*
X003730Y003406D01*
X003642Y003356D01*
X003549Y003317D01*
X003451Y003291D01*
X003351Y003278D01*
X003300Y003278D01*
X003300Y004050D01*
X003300Y004050D01*
X003300Y003278D01*
X003249Y003278D01*
X003149Y003291D01*
X003051Y003317D01*
X002958Y003356D01*
X002870Y003406D01*
X002790Y003468D01*
X002718Y003540D01*
X002670Y003602D01*
X002577Y003441D01*
X002384Y003248D01*
X002149Y003112D01*
X001886Y003042D01*
X001614Y003042D01*
X001351Y003112D01*
X001116Y003248D01*
X000923Y003441D01*
X000900Y003481D01*
X000900Y002603D01*
X001122Y002695D01*
X001478Y002695D01*
X001807Y002559D01*
X002059Y002307D01*
X002195Y001978D01*
X002195Y001622D01*
X002185Y001597D02*
X004140Y001597D01*
X004067Y001996D02*
X002188Y001996D01*
X001972Y002394D02*
X004136Y002394D01*
X004432Y002793D02*
X000900Y002793D01*
X000900Y003191D02*
X001215Y003191D01*
X002285Y003191D02*
X004348Y003191D01*
X004268Y003590D02*
X003920Y003590D01*
X003300Y003590D02*
X003300Y003590D01*
X003300Y003988D02*
X003300Y003988D01*
X002680Y003590D02*
X002663Y003590D01*
X004071Y003988D02*
X004380Y003988D01*
X004228Y004387D02*
X003997Y004387D01*
X004902Y005184D02*
X005778Y005184D01*
X005775Y005176D02*
X005762Y005092D01*
X005762Y005050D01*
X005762Y005008D01*
X005775Y004924D01*
X005802Y004844D01*
X005840Y004768D01*
X005890Y004700D01*
X005950Y004640D01*
X006018Y004590D01*
X006094Y004552D01*
X006174Y004525D01*
X006258Y004512D01*
X006300Y004512D01*
X006342Y004512D01*
X006426Y004525D01*
X006506Y004552D01*
X006582Y004590D01*
X006650Y004640D01*
X006710Y004700D01*
X006760Y004768D01*
X006798Y004844D01*
X006825Y004924D01*
X006838Y005008D01*
X006838Y005050D01*
X006300Y005050D01*
X006300Y005050D01*
X006300Y005588D01*
X006258Y005588D01*
X006174Y005575D01*
X006094Y005548D01*
X006018Y005510D01*
X005950Y005460D01*
X005890Y005400D01*
X005840Y005332D01*
X005802Y005256D01*
X005775Y005176D01*
X005762Y005050D02*
X006300Y005050D01*
X006838Y005050D01*
X006838Y005092D01*
X006825Y005176D01*
X006798Y005256D01*
X006760Y005332D01*
X006710Y005400D01*
X006650Y005460D01*
X006582Y005510D01*
X006506Y005548D01*
X006426Y005575D01*
X006342Y005588D01*
X006300Y005588D01*
X006300Y005050D01*
X006300Y005050D01*
X006300Y005050D01*
X006300Y004512D01*
X006300Y005050D01*
X006300Y005050D01*
X005762Y005050D01*
X005831Y004785D02*
X005300Y004785D01*
X005345Y004741D02*
X004345Y005741D01*
X004153Y005820D01*
X003957Y005820D01*
X003852Y005925D01*
X003957Y006030D01*
X004335Y006030D01*
X004410Y005955D01*
X004410Y005923D01*
X004507Y005687D01*
X004687Y005507D01*
X004923Y005410D01*
X005177Y005410D01*
X005413Y005507D01*
X005593Y005687D01*
X005690Y005923D01*
X005690Y006177D01*
X005593Y006413D01*
X005413Y006593D01*
X005177Y006690D01*
X005145Y006690D01*
X004991Y006845D01*
X004845Y006991D01*
X004750Y007030D01*
X006903Y007030D01*
X007095Y007109D01*
X007845Y007859D01*
X007991Y008005D01*
X008070Y008197D01*
X008070Y009335D01*
X008093Y009358D01*
X008148Y009491D01*
X008148Y009662D01*
X008491Y010006D01*
X008514Y009949D01*
X008663Y009800D01*
X008514Y009651D01*
X008420Y009423D01*
X008420Y009177D01*
X008514Y008949D01*
X008663Y008800D01*
X008514Y008651D01*
X008420Y008423D01*
X008420Y008177D01*
X008514Y007949D01*
X008663Y007800D01*
X008514Y007651D01*
X008420Y007423D01*
X008420Y007177D01*
X008514Y006949D01*
X008663Y006800D01*
X008514Y006651D01*
X008420Y006423D01*
X008420Y006177D01*
X008514Y005949D01*
X008689Y005774D01*
X008722Y005761D01*
X008675Y005727D01*
X008613Y005665D01*
X008561Y005594D01*
X008521Y005515D01*
X008494Y005431D01*
X008480Y005344D01*
X008480Y005300D01*
X009300Y005300D01*
X010120Y005300D01*
X010120Y005344D01*
X010106Y005431D01*
X010079Y005515D01*
X010039Y005594D01*
X009987Y005665D01*
X009925Y005727D01*
X009878Y005761D01*
X009911Y005774D01*
X010086Y005949D01*
X010180Y006177D01*
X010180Y006423D01*
X010086Y006651D01*
X009937Y006800D01*
X010086Y006949D01*
X010180Y007177D01*
X010180Y007423D01*
X010086Y007651D01*
X009937Y007800D01*
X010086Y007949D01*
X010180Y008177D01*
X010180Y008423D01*
X010086Y008651D01*
X009937Y008800D01*
X010086Y008949D01*
X010180Y009177D01*
X010180Y009185D01*
X010280Y009085D01*
X010280Y005061D01*
X010276Y004968D01*
X010280Y004958D01*
X010280Y004947D01*
X010315Y004861D01*
X010347Y004774D01*
X010355Y004766D01*
X010359Y004755D01*
X010425Y004690D01*
X011347Y003687D01*
X011237Y003642D01*
X010958Y003363D01*
X010841Y003079D01*
X010813Y003158D01*
X010768Y003252D01*
X010712Y003341D01*
X010646Y003423D01*
X010572Y003497D01*
X010490Y003562D01*
X010402Y003618D01*
X010307Y003663D01*
X010208Y003698D01*
X010106Y003721D01*
X010002Y003733D01*
X009966Y003733D01*
X009966Y002817D01*
X009933Y002817D01*
X009933Y003733D01*
X009897Y003733D01*
X009793Y003721D01*
X009691Y003698D01*
X009592Y003663D01*
X009498Y003618D01*
X009409Y003562D01*
X009327Y003497D01*
X009253Y003423D01*
X009187Y003341D01*
X009132Y003252D01*
X009086Y003158D01*
X009052Y003059D01*
X009028Y002957D01*
X009017Y002852D01*
X009017Y002817D01*
X009933Y002817D01*
X009933Y002783D01*
X009966Y002783D01*
X009966Y001867D01*
X010002Y001867D01*
X010106Y001879D01*
X010208Y001902D01*
X010307Y001937D01*
X010402Y001982D01*
X010490Y002038D01*
X010572Y002103D01*
X010646Y002177D01*
X010712Y002259D01*
X010768Y002348D01*
X010813Y002442D01*
X010841Y002521D01*
X010958Y002237D01*
X011237Y001958D01*
X011602Y001807D01*
X011998Y001807D01*
X012363Y001958D01*
X012642Y002237D01*
X012725Y002439D01*
X012809Y002237D01*
X013088Y001958D01*
X013453Y001807D01*
X013848Y001807D01*
X014213Y001958D01*
X014492Y002237D01*
X014643Y002602D01*
X014643Y002998D01*
X014492Y003363D01*
X014445Y003410D01*
X019519Y003410D01*
X019539Y003403D01*
X019621Y003410D01*
X019703Y003410D01*
X019724Y003418D01*
X019746Y003420D01*
X019819Y003458D01*
X019895Y003489D01*
X019910Y003505D01*
X019930Y003515D01*
X019983Y003577D01*
X020041Y003635D01*
X020049Y003656D01*
X020767Y004502D01*
X020744Y004431D01*
X020730Y004344D01*
X020730Y004300D01*
X021550Y004300D01*
X022370Y004300D01*
X022370Y004344D01*
X022356Y004431D01*
X022329Y004515D01*
X022289Y004594D01*
X022237Y004665D01*
X022175Y004727D01*
X022128Y004761D01*
X022161Y004774D01*
X022336Y004949D01*
X022430Y005177D01*
X022430Y005423D01*
X022336Y005651D01*
X022187Y005800D01*
X022336Y005949D01*
X022430Y006177D01*
X022430Y006423D01*
X022336Y006651D01*
X022187Y006800D01*
X022336Y006949D01*
X022430Y007177D01*
X022430Y007423D01*
X022336Y007651D01*
X022187Y007800D01*
X022336Y007949D01*
X022430Y008177D01*
X022430Y008423D01*
X022386Y008530D01*
X023714Y008530D01*
X023670Y008423D01*
X023670Y008177D01*
X023764Y007949D01*
X023913Y007800D01*
X023764Y007651D01*
X023670Y007423D01*
X023670Y007177D01*
X023764Y006949D01*
X023913Y006800D01*
X023764Y006651D01*
X023670Y006423D01*
X023670Y006177D01*
X023764Y005949D01*
X023913Y005800D01*
X023764Y005651D01*
X023670Y005423D01*
X023670Y005177D01*
X023764Y004949D01*
X023913Y004800D01*
X023764Y004651D01*
X023670Y004423D01*
X023670Y004177D01*
X023764Y003949D01*
X023913Y003800D01*
X023764Y003651D01*
X023670Y003423D01*
X023670Y003177D01*
X023764Y002949D01*
X023913Y002800D01*
X023764Y002651D01*
X023670Y002423D01*
X023670Y002177D01*
X023764Y001949D01*
X023939Y001774D01*
X024167Y001680D01*
X024933Y001680D01*
X025161Y001774D01*
X025336Y001949D01*
X025369Y002030D01*
X026615Y002030D01*
X026638Y002008D01*
X026435Y001805D01*
X026435Y001550D01*
X027050Y001550D01*
X028050Y001550D01*
X029050Y001550D01*
X030050Y001550D01*
X030050Y001550D01*
X030050Y002165D01*
X030305Y002165D01*
X030665Y001805D01*
X030665Y001550D01*
X030050Y001550D01*
X030050Y001550D01*
X030050Y001550D01*
X030050Y002165D01*
X029795Y002165D01*
X029550Y001920D01*
X029462Y002008D01*
X029725Y002270D01*
X029725Y002830D01*
X029505Y003050D01*
X029725Y003270D01*
X029725Y003830D01*
X029505Y004050D01*
X029725Y004270D01*
X029725Y004830D01*
X029505Y005050D01*
X029725Y005270D01*
X029725Y005830D01*
X029505Y006050D01*
X029725Y006270D01*
X029725Y006830D01*
X029505Y007050D01*
X029725Y007270D01*
X029725Y007830D01*
X029525Y008030D01*
X029615Y008030D01*
X029770Y007875D01*
X030330Y007875D01*
X030725Y008270D01*
X030725Y008830D01*
X030645Y008910D01*
X032557Y010822D01*
X032557Y010800D01*
X032557Y010751D01*
X032570Y010655D01*
X032595Y010561D01*
X032632Y010471D01*
X032681Y010386D01*
X032740Y010309D01*
X032809Y010240D01*
X032886Y010181D01*
X032971Y010132D01*
X033061Y010095D01*
X033155Y010070D01*
X033251Y010057D01*
X033300Y010057D01*
X033349Y010057D01*
X033445Y010070D01*
X033539Y010095D01*
X033629Y010132D01*
X033714Y010181D01*
X033791Y010240D01*
X033860Y010309D01*
X033919Y010386D01*
X033968Y010471D01*
X034005Y010561D01*
X034030Y010655D01*
X034043Y010751D01*
X034043Y010800D01*
X034043Y010849D01*
X034030Y010945D01*
X034005Y011039D01*
X033968Y011129D01*
X033919Y011214D01*
X033860Y011291D01*
X033791Y011360D01*
X033714Y011419D01*
X033629Y011468D01*
X033539Y011505D01*
X033503Y011515D01*
X033755Y011619D01*
X033981Y011845D01*
X034103Y012140D01*
X034103Y012460D01*
X033981Y012755D01*
X033755Y012981D01*
X033587Y013050D01*
X033755Y013119D01*
X033981Y013345D01*
X034103Y013640D01*
X034103Y013960D01*
X033981Y014255D01*
X033820Y014415D01*
X033820Y015153D01*
X033741Y015345D01*
X033595Y015491D01*
X033095Y015991D01*
X031845Y017241D01*
X031750Y017280D01*
X032340Y017280D01*
X032513Y017352D01*
X032609Y017255D01*
X032755Y017109D01*
X032947Y017030D01*
X033085Y017030D01*
X033108Y017007D01*
X033241Y016952D01*
X033859Y016952D01*
X033992Y017007D01*
X034093Y017108D01*
X034148Y017241D01*
X034148Y017859D01*
X034093Y017992D01*
X033992Y018093D01*
X033892Y018134D01*
X033900Y018140D01*
X033960Y018200D01*
X034010Y018268D01*
X034048Y018344D01*
X034075Y018424D01*
X034088Y018508D01*
X034088Y018550D01*
X033550Y018550D01*
X033550Y018550D01*
X033550Y019088D01*
X033508Y019088D01*
X033424Y019075D01*
X033344Y019048D01*
X033268Y019010D01*
X033200Y018960D01*
X033140Y018900D01*
X033090Y018832D01*
X033052Y018756D01*
X033039Y018716D01*
X033039Y021487D01*
X033057Y021494D01*
X033324Y021762D01*
X033469Y022111D01*
X033469Y022489D01*
X033324Y022838D01*
X033057Y023106D01*
X032708Y023251D01*
X032329Y023251D01*
X031980Y023106D01*
X031713Y022838D01*
X031705Y022820D01*
X031363Y022820D01*
X031356Y022838D01*
X031088Y023106D01*
X030739Y023251D01*
X030361Y023251D01*
X030012Y023106D01*
X029744Y022838D01*
X029599Y022489D01*
X029599Y022111D01*
X029744Y021762D01*
X030012Y021494D01*
X030361Y021349D01*
X030739Y021349D01*
X031088Y021494D01*
X031356Y021762D01*
X031363Y021780D01*
X031705Y021780D01*
X031713Y021762D01*
X031980Y021494D01*
X031999Y021487D01*
X031999Y018320D01*
X031457Y018320D01*
X031586Y018449D01*
X031680Y018677D01*
X031680Y018923D01*
X031586Y019151D01*
X031411Y019326D01*
X031320Y019363D01*
X031320Y019903D01*
X031241Y020095D01*
X030920Y020415D01*
X030920Y020557D01*
X030557Y020920D01*
X030043Y020920D01*
X029807Y020684D01*
X029371Y021745D01*
X029387Y021762D01*
X029532Y022111D01*
X029532Y022489D01*
X029387Y022838D01*
X029120Y023106D01*
X028771Y023251D01*
X028392Y023251D01*
X028043Y023106D01*
X027776Y022838D01*
X027631Y022489D01*
X027631Y022111D01*
X027776Y021762D01*
X028043Y021494D01*
X028392Y021349D01*
X028410Y021349D01*
X028665Y020727D01*
X028532Y020860D01*
X028300Y020860D01*
X028300Y020300D01*
X028300Y020300D01*
X028300Y020860D01*
X028068Y020860D01*
X027740Y020532D01*
X027740Y020345D01*
X026608Y021477D01*
X026663Y021500D01*
X026764Y021558D01*
X026857Y021629D01*
X026939Y021712D01*
X027011Y021804D01*
X027069Y021905D01*
X027114Y022013D01*
X027144Y022126D01*
X027159Y022242D01*
X027159Y022300D01*
X027159Y022358D01*
X027144Y022474D01*
X027114Y022587D01*
X027069Y022695D01*
X027011Y022796D01*
X026939Y022888D01*
X026857Y022971D01*
X026764Y023042D01*
X026663Y023100D01*
X026555Y023145D01*
X026443Y023175D01*
X026327Y023191D01*
X026269Y023191D01*
X026269Y022300D01*
X027159Y022300D01*
X026269Y022300D01*
X026269Y022300D01*
X026268Y022300D01*
X025378Y022300D01*
X025378Y022242D01*
X025393Y022126D01*
X025423Y022013D01*
X025468Y021905D01*
X025526Y021804D01*
X025598Y021712D01*
X025680Y021629D01*
X025757Y021570D01*
X024914Y021570D01*
X025106Y021762D01*
X025251Y022111D01*
X025251Y022489D01*
X025106Y022838D01*
X024838Y023106D01*
X024489Y023251D01*
X024111Y023251D01*
X023762Y023106D01*
X023494Y022838D01*
X023349Y022489D01*
X023349Y022111D01*
X023494Y021762D01*
X023686Y021570D01*
X023515Y021570D01*
X023192Y021893D01*
X023282Y022111D01*
X023282Y022489D01*
X023137Y022838D01*
X022870Y023106D01*
X022521Y023251D01*
X022142Y023251D01*
X021793Y023106D01*
X021526Y022838D01*
X021381Y022489D01*
X021381Y022111D01*
X021389Y022092D01*
X021116Y021820D01*
X020849Y021820D01*
X020969Y022111D01*
X020969Y022489D01*
X020824Y022838D01*
X020557Y023106D01*
X020208Y023251D01*
X019829Y023251D01*
X019480Y023106D01*
X019213Y022838D01*
X019205Y022820D01*
X018863Y022820D01*
X018856Y022838D01*
X018588Y023106D01*
X018239Y023251D01*
X017861Y023251D01*
X017512Y023106D01*
X017244Y022838D01*
X017099Y022489D01*
X017099Y022111D01*
X017220Y021820D01*
X016912Y021820D01*
X017032Y022111D01*
X017032Y022489D01*
X016887Y022838D01*
X016620Y023106D01*
X016271Y023251D01*
X015892Y023251D01*
X015543Y023106D01*
X015276Y022838D01*
X015131Y022489D01*
X015131Y022111D01*
X015276Y021762D01*
X015543Y021494D01*
X015675Y021439D01*
X016109Y021005D01*
X016255Y020859D01*
X016297Y020842D01*
X016243Y020820D01*
X014657Y020820D01*
X014557Y020920D01*
X014043Y020920D01*
X013680Y020557D01*
X013680Y020043D01*
X014043Y019680D01*
X014185Y019680D01*
X014280Y019585D01*
X014280Y019363D01*
X014189Y019326D01*
X014174Y019311D01*
X014005Y019241D01*
X013859Y019095D01*
X012859Y018095D01*
X012780Y017903D01*
X012780Y017265D01*
X012609Y017094D01*
X012586Y017151D01*
X012437Y017300D01*
X012586Y017449D01*
X012680Y017677D01*
X012680Y017923D01*
X012586Y018151D01*
X012411Y018326D01*
X012378Y018339D01*
X012425Y018373D01*
X012487Y018435D01*
X012539Y018506D01*
X012579Y018585D01*
X012606Y018669D01*
X012620Y018756D01*
X012620Y018800D01*
X012620Y018844D01*
X012606Y018931D01*
X012579Y019015D01*
X012539Y019094D01*
X012487Y019165D01*
X012425Y019227D01*
X012354Y019279D01*
X012275Y019319D01*
X012191Y019346D01*
X012104Y019360D01*
X011800Y019360D01*
X011800Y018800D01*
X011800Y018800D01*
X012620Y018800D01*
X011800Y018800D01*
X011800Y018800D01*
X011800Y019360D01*
X011496Y019360D01*
X011409Y019346D01*
X011325Y019319D01*
X011246Y019279D01*
X011175Y019227D01*
X011113Y019165D01*
X011070Y019106D01*
X011070Y020835D01*
X011592Y021357D01*
X011611Y021349D01*
X011989Y021349D01*
X012338Y021494D01*
X012606Y021762D01*
X012613Y021780D01*
X012955Y021780D01*
X012963Y021762D01*
X013230Y021494D01*
X013579Y021349D01*
X013958Y021349D01*
X014307Y021494D01*
X014574Y021762D01*
X014719Y022111D01*
X014719Y022489D01*
X014574Y022838D01*
X014307Y023106D01*
X013958Y023251D01*
X013579Y023251D01*
X013230Y023106D01*
X012963Y022838D01*
X012955Y022820D01*
X012613Y022820D01*
X012606Y022838D01*
X012338Y023106D01*
X011989Y023251D01*
X011611Y023251D01*
X011262Y023106D01*
X010994Y022838D01*
X010849Y022489D01*
X010849Y022111D01*
X010857Y022092D01*
X010716Y021951D01*
X010782Y022111D01*
X010782Y022489D01*
X010637Y022838D01*
X010370Y023106D01*
X010021Y023251D01*
X009642Y023251D01*
X009293Y023106D01*
X009026Y022838D01*
X008881Y022489D01*
X008881Y022111D01*
X009026Y021762D01*
X009293Y021494D01*
X009642Y021349D01*
X010021Y021349D01*
X010180Y021416D01*
X010109Y021345D01*
X010030Y021153D01*
X010030Y019305D01*
X009992Y019343D01*
X009859Y019398D01*
X009241Y019398D01*
X009108Y019343D01*
X009007Y019242D01*
X008991Y019204D01*
X008889Y019307D01*
X008669Y019398D01*
X008431Y019398D01*
X008211Y019307D01*
X008043Y019139D01*
X007965Y018951D01*
X006359Y017345D01*
X006280Y017153D01*
X006280Y016857D01*
X006202Y016669D01*
X006202Y016431D01*
X006293Y016211D01*
X006461Y016043D01*
X006681Y015952D01*
X006919Y015952D01*
X007139Y016043D01*
X007307Y016211D01*
X007398Y016431D01*
X007398Y016669D01*
X007326Y016841D01*
X008701Y018215D01*
X008889Y018293D01*
X008991Y018396D01*
X009007Y018358D01*
X009108Y018257D01*
X009241Y018202D01*
X009859Y018202D01*
X009992Y018257D01*
X010074Y018340D01*
X010109Y018255D01*
X010859Y017505D01*
X011005Y017359D01*
X011159Y017296D01*
X011014Y017151D01*
X010920Y016923D01*
X010920Y016677D01*
X011014Y016449D01*
X011163Y016300D01*
X011014Y016151D01*
X010920Y015923D01*
X010920Y015677D01*
X011014Y015449D01*
X011039Y015424D01*
X011030Y015403D01*
X011030Y012947D01*
X011083Y012818D01*
X010835Y012570D01*
X010360Y012570D01*
X010360Y012800D01*
X010360Y013032D01*
X010032Y013360D01*
X009800Y013360D01*
X009800Y012800D01*
X009800Y012800D01*
X010360Y012800D01*
X009800Y012800D01*
X009800Y012800D01*
X009800Y012800D01*
X009240Y012800D01*
X009240Y013032D01*
X009568Y013360D01*
X009800Y013360D01*
X009800Y012800D01*
X009240Y012800D01*
X009240Y012570D01*
X008697Y012570D01*
X008505Y012491D01*
X008359Y012345D01*
X007859Y011845D01*
X007780Y011653D01*
X007780Y011286D01*
X007756Y011298D01*
X007676Y011325D01*
X007592Y011338D01*
X007550Y011338D01*
X007508Y011338D01*
X007424Y011325D01*
X007344Y011298D01*
X007268Y011260D01*
X007200Y011210D01*
X007140Y011150D01*
X007090Y011082D01*
X007052Y011006D01*
X007025Y010926D01*
X007012Y010842D01*
X007012Y010800D01*
X007012Y010758D01*
X007025Y010674D01*
X007052Y010594D01*
X007090Y010518D01*
X007140Y010450D01*
X007200Y010390D01*
X007208Y010384D01*
X007203Y010382D01*
X006820Y010765D01*
X006820Y011475D01*
X006898Y011552D01*
X006898Y012048D01*
X006603Y012342D01*
X006838Y012577D01*
X006838Y012800D01*
X006838Y013023D01*
X006603Y013258D01*
X006625Y013280D01*
X007903Y013280D01*
X008095Y013359D01*
X008438Y013702D01*
X008609Y013702D01*
X008742Y013757D01*
X008843Y013858D01*
X008898Y013991D01*
X008898Y014609D01*
X008843Y014742D01*
X008742Y014843D01*
X008642Y014884D01*
X008650Y014890D01*
X008710Y014950D01*
X008760Y015018D01*
X008798Y015094D01*
X008825Y015174D01*
X008838Y015258D01*
X008838Y015300D01*
X008300Y015300D01*
X008300Y015300D01*
X008300Y015838D01*
X008258Y015838D01*
X008174Y015825D01*
X008094Y015798D01*
X008018Y015760D01*
X007950Y015710D01*
X007890Y015650D01*
X007840Y015582D01*
X007802Y015506D01*
X007775Y015426D01*
X007762Y015342D01*
X007762Y015300D01*
X007762Y015258D01*
X007775Y015174D01*
X007802Y015094D01*
X007840Y015018D01*
X007890Y014950D01*
X007950Y014890D01*
X007958Y014884D01*
X007858Y014843D01*
X007757Y014742D01*
X007702Y014609D01*
X007702Y014438D01*
X007585Y014320D01*
X006625Y014320D01*
X006548Y014398D01*
X006052Y014398D01*
X005725Y014070D01*
X003909Y014070D01*
X003892Y014113D01*
X003613Y014392D01*
X003248Y014543D01*
X002852Y014543D01*
X002487Y014392D01*
X002208Y014113D01*
X002057Y013748D01*
X002057Y013352D01*
X002208Y012987D01*
X002487Y012708D01*
X002689Y012625D01*
X002487Y012541D01*
X002208Y012262D01*
X002057Y011897D01*
X002057Y011502D01*
X002208Y011137D01*
X002487Y010858D01*
X002852Y010707D01*
X003248Y010707D01*
X003613Y010858D01*
X003892Y011137D01*
X003951Y011280D01*
X004085Y011280D01*
X004530Y010835D01*
X004530Y010599D01*
X004465Y010534D01*
X004410Y010402D01*
X004410Y009698D01*
X004463Y009570D01*
X003843Y009570D01*
X003781Y009632D01*
X003649Y009687D01*
X002951Y009687D01*
X002819Y009632D01*
X002719Y009532D01*
X002661Y009590D01*
X002427Y009687D01*
X002173Y009687D01*
X001939Y009590D01*
X001760Y009411D01*
X001663Y009177D01*
X001663Y008923D01*
X001760Y008689D01*
X001780Y008669D01*
X001780Y008447D01*
X001859Y008255D01*
X002850Y007265D01*
X002828Y007256D01*
X002634Y007061D01*
X002577Y007159D01*
X002384Y007352D01*
X002149Y007488D01*
X001886Y007558D01*
X001614Y007558D01*
X001351Y007488D01*
X001116Y007352D01*
X000923Y007159D01*
X000900Y007119D01*
X000900Y022997D01*
X001122Y022905D01*
X001478Y022905D01*
X001807Y023041D01*
X002059Y023293D01*
X002195Y023622D01*
X002195Y023950D01*
X033405Y023950D01*
X033405Y023622D01*
X033541Y023293D01*
X033793Y023041D01*
X034122Y022905D01*
X034478Y022905D01*
X034700Y022997D01*
X034700Y002603D01*
X034478Y002695D01*
X034122Y002695D01*
X033793Y002559D01*
X033541Y002307D01*
X033405Y001978D01*
X033405Y001622D01*
X033497Y001400D01*
X030665Y001400D01*
X030665Y001550D01*
X030050Y001550D01*
X029665Y001550D01*
X029050Y001550D01*
X029050Y001550D01*
X029050Y001550D01*
X028435Y001550D01*
X028050Y001550D01*
X028050Y001550D01*
X028050Y001550D01*
X027435Y001550D01*
X027050Y001550D01*
X027050Y001550D01*
X027050Y001550D01*
X026435Y001550D01*
X026435Y001400D01*
X007346Y001400D01*
X007463Y001601D01*
X007533Y001864D01*
X007533Y002136D01*
X007463Y002399D01*
X007327Y002634D01*
X007134Y002827D01*
X006958Y002928D01*
X007010Y002968D01*
X007082Y003040D01*
X007144Y003120D01*
X007194Y003208D01*
X007233Y003301D01*
X007259Y003399D01*
X007272Y003499D01*
X007272Y003550D01*
X006500Y003550D01*
X006500Y003550D01*
X006500Y004322D01*
X006449Y004322D01*
X006349Y004309D01*
X006251Y004283D01*
X006158Y004244D01*
X006070Y004194D01*
X005990Y004132D01*
X005918Y004060D01*
X005856Y003980D01*
X005837Y003946D01*
X005806Y004022D01*
X005572Y004256D01*
X005570Y004256D01*
X005570Y004403D01*
X005491Y004595D01*
X005345Y004741D01*
X005570Y004387D02*
X010704Y004387D01*
X011070Y003988D02*
X007138Y003988D01*
X007144Y003980D02*
X007082Y004060D01*
X007010Y004132D01*
X006930Y004194D01*
X006842Y004244D01*
X006749Y004283D01*
X006651Y004309D01*
X006551Y004322D01*
X006500Y004322D01*
X006500Y003550D01*
X007272Y003550D01*
X007272Y003601D01*
X007259Y003701D01*
X007233Y003799D01*
X007194Y003892D01*
X007144Y003980D01*
X007272Y003590D02*
X009452Y003590D01*
X009933Y003590D02*
X009966Y003590D01*
X009966Y003191D02*
X009933Y003191D01*
X009933Y002793D02*
X007168Y002793D01*
X007185Y003191D02*
X009102Y003191D01*
X009017Y002783D02*
X009017Y002748D01*
X009028Y002643D01*
X009052Y002541D01*
X009086Y002442D01*
X009132Y002348D01*
X009187Y002259D01*
X009253Y002177D01*
X009327Y002103D01*
X009409Y002038D01*
X009498Y001982D01*
X009592Y001937D01*
X009691Y001902D01*
X009793Y001879D01*
X009897Y001867D01*
X009933Y001867D01*
X009933Y002783D01*
X009017Y002783D01*
X009109Y002394D02*
X007464Y002394D01*
X007533Y001996D02*
X009476Y001996D01*
X009933Y001996D02*
X009966Y001996D01*
X009966Y002394D02*
X009933Y002394D01*
X010423Y001996D02*
X011200Y001996D01*
X010893Y002394D02*
X010790Y002394D01*
X010797Y003191D02*
X010887Y003191D01*
X011185Y003590D02*
X010447Y003590D01*
X010343Y004785D02*
X009783Y004785D01*
X009775Y004781D02*
X009854Y004821D01*
X009925Y004873D01*
X009987Y004935D01*
X010039Y005006D01*
X010079Y005085D01*
X010106Y005169D01*
X010120Y005256D01*
X010120Y005300D01*
X009300Y005300D01*
X009300Y005300D01*
X009300Y004740D01*
X009604Y004740D01*
X009691Y004754D01*
X009775Y004781D01*
X009300Y004785D02*
X009300Y004785D01*
X009300Y004740D02*
X009300Y005300D01*
X009300Y005300D01*
X009300Y005300D01*
X008480Y005300D01*
X008480Y005256D01*
X008494Y005169D01*
X008521Y005085D01*
X008561Y005006D01*
X008613Y004935D01*
X008675Y004873D01*
X008746Y004821D01*
X008825Y004781D01*
X008909Y004754D01*
X008996Y004740D01*
X009300Y004740D01*
X009300Y005184D02*
X009300Y005184D01*
X008817Y004785D02*
X006769Y004785D01*
X006822Y005184D02*
X008491Y005184D01*
X008555Y005582D02*
X006379Y005582D01*
X006300Y005582D02*
X006300Y005582D01*
X006221Y005582D02*
X005487Y005582D01*
X005690Y005981D02*
X008501Y005981D01*
X008420Y006379D02*
X005606Y006379D01*
X005058Y006778D02*
X008641Y006778D01*
X008420Y007176D02*
X007161Y007176D01*
X007560Y007575D02*
X008483Y007575D01*
X008504Y007973D02*
X007958Y007973D01*
X008070Y008372D02*
X008420Y008372D01*
X008633Y008770D02*
X008070Y008770D01*
X008070Y009169D02*
X008423Y009169D01*
X008480Y009567D02*
X008148Y009567D01*
X008451Y009966D02*
X008507Y009966D01*
X007550Y010800D02*
X007550Y010800D01*
X007550Y011338D01*
X007550Y010800D01*
X007550Y010800D01*
X007012Y010800D01*
X007550Y010800D01*
X007550Y011161D02*
X007550Y011161D01*
X007150Y011161D02*
X006820Y011161D01*
X006823Y010763D02*
X007012Y010763D01*
X006898Y011560D02*
X007780Y011560D01*
X007973Y011958D02*
X006898Y011958D01*
X006617Y012357D02*
X008371Y012357D01*
X009240Y012755D02*
X006838Y012755D01*
X006838Y012800D02*
X006300Y012800D01*
X006838Y012800D01*
X006707Y013154D02*
X009362Y013154D01*
X009800Y013154D02*
X009800Y013154D01*
X010238Y013154D02*
X011030Y013154D01*
X011020Y012755D02*
X010360Y012755D01*
X011030Y013552D02*
X008287Y013552D01*
X008881Y013951D02*
X011030Y013951D01*
X011030Y014349D02*
X008898Y014349D01*
X008837Y014748D02*
X011030Y014748D01*
X011030Y015146D02*
X008815Y015146D01*
X008838Y015300D02*
X008300Y015300D01*
X008300Y015300D01*
X008300Y015300D01*
X007762Y015300D01*
X008300Y015300D01*
X008300Y015838D01*
X008342Y015838D01*
X008426Y015825D01*
X008506Y015798D01*
X008582Y015760D01*
X008650Y015710D01*
X008710Y015650D01*
X008760Y015582D01*
X008798Y015506D01*
X008825Y015426D01*
X008838Y015342D01*
X008838Y015300D01*
X008779Y015545D02*
X010975Y015545D01*
X010928Y015943D02*
X000900Y015943D01*
X000900Y016342D02*
X004803Y016342D01*
X004802Y016344D02*
X004840Y016268D01*
X004890Y016200D01*
X004950Y016140D01*
X005018Y016090D01*
X005094Y016052D01*
X005174Y016025D01*
X005258Y016012D01*
X005300Y016012D01*
X005342Y016012D01*
X005426Y016025D01*
X005506Y016052D01*
X005582Y016090D01*
X005650Y016140D01*
X005710Y016200D01*
X005760Y016268D01*
X005798Y016344D01*
X005825Y016424D01*
X005838Y016508D01*
X005838Y016550D01*
X005300Y016550D01*
X005300Y016550D01*
X005300Y017088D01*
X005258Y017088D01*
X005174Y017075D01*
X005094Y017048D01*
X005018Y017010D01*
X004950Y016960D01*
X004890Y016900D01*
X004840Y016832D01*
X004802Y016756D01*
X004775Y016676D01*
X004762Y016592D01*
X004762Y016550D01*
X004762Y016508D01*
X004775Y016424D01*
X004802Y016344D01*
X004762Y016550D02*
X005300Y016550D01*
X005838Y016550D01*
X005838Y016592D01*
X005825Y016676D01*
X005798Y016756D01*
X005760Y016832D01*
X005710Y016900D01*
X005650Y016960D01*
X005582Y017010D01*
X005506Y017048D01*
X005426Y017075D01*
X005342Y017088D01*
X005300Y017088D01*
X005300Y016550D01*
X005300Y016550D01*
X005300Y016550D01*
X004762Y016550D01*
X004796Y016740D02*
X000900Y016740D01*
X000900Y017139D02*
X001960Y017139D01*
X001971Y017132D02*
X002061Y017095D01*
X002155Y017070D01*
X002251Y017057D01*
X002300Y017057D01*
X002349Y017057D01*
X002445Y017070D01*
X002539Y017095D01*
X002629Y017132D01*
X002714Y017181D01*
X002791Y017240D01*
X002860Y017309D01*
X002919Y017386D01*
X002968Y017471D01*
X003005Y017561D01*
X003030Y017655D01*
X003043Y017751D01*
X003043Y017800D01*
X003043Y017849D01*
X003030Y017945D01*
X003005Y018039D01*
X002968Y018129D01*
X002919Y018214D01*
X002860Y018291D01*
X002791Y018360D01*
X002714Y018419D01*
X002629Y018468D01*
X002539Y018505D01*
X002445Y018530D01*
X002349Y018543D01*
X002300Y018543D01*
X002251Y018543D01*
X002155Y018530D01*
X002061Y018505D01*
X001971Y018468D01*
X001886Y018419D01*
X001809Y018360D01*
X001740Y018291D01*
X001681Y018214D01*
X001632Y018129D01*
X001595Y018039D01*
X001570Y017945D01*
X001557Y017849D01*
X001557Y017800D01*
X001557Y017751D01*
X001570Y017655D01*
X001595Y017561D01*
X001632Y017471D01*
X001681Y017386D01*
X001740Y017309D01*
X001809Y017240D01*
X001886Y017181D01*
X001971Y017132D01*
X002300Y017139D02*
X002300Y017139D01*
X002300Y017057D02*
X002300Y017800D01*
X002300Y017800D01*
X002300Y018543D01*
X002300Y017800D01*
X003043Y017800D01*
X002300Y017800D01*
X002300Y017800D01*
X002300Y017800D01*
X001557Y017800D01*
X002300Y017800D01*
X002300Y017800D01*
X002300Y017057D01*
X002640Y017139D02*
X006280Y017139D01*
X006232Y016740D02*
X005804Y016740D01*
X005797Y016342D02*
X006239Y016342D01*
X005300Y016342D02*
X005300Y016342D01*
X005300Y016550D02*
X005300Y016012D01*
X005300Y016550D01*
X005300Y016550D01*
X005300Y016740D02*
X005300Y016740D01*
X006552Y017537D02*
X002995Y017537D01*
X003031Y017936D02*
X006950Y017936D01*
X007349Y018334D02*
X002817Y018334D01*
X002300Y018334D02*
X002300Y018334D01*
X002300Y017936D02*
X002300Y017936D01*
X001783Y018334D02*
X000900Y018334D01*
X000900Y017936D02*
X001569Y017936D01*
X001605Y017537D02*
X000900Y017537D01*
X002300Y017537D02*
X002300Y017537D01*
X000900Y018733D02*
X007747Y018733D01*
X008040Y019131D02*
X002767Y019131D01*
X002755Y019119D02*
X002981Y019345D01*
X003103Y019640D01*
X003103Y019960D01*
X002981Y020255D01*
X002755Y020481D01*
X002460Y020603D01*
X002140Y020603D01*
X001845Y020481D01*
X001619Y020255D01*
X001497Y019960D01*
X001497Y019640D01*
X001619Y019345D01*
X001845Y019119D01*
X002140Y018997D01*
X002460Y018997D01*
X002755Y019119D01*
X003057Y019530D02*
X010030Y019530D01*
X010030Y019928D02*
X003103Y019928D01*
X002909Y020327D02*
X004570Y020327D01*
X004787Y020109D02*
X004978Y020030D01*
X004993Y020030D01*
X005181Y019952D01*
X005419Y019952D01*
X005607Y020030D01*
X006493Y020030D01*
X006681Y019952D01*
X006919Y019952D01*
X007139Y020043D01*
X007307Y020211D01*
X007398Y020431D01*
X007398Y020669D01*
X007307Y020889D01*
X007139Y021057D01*
X006919Y021148D01*
X006681Y021148D01*
X006493Y021070D01*
X005607Y021070D01*
X005419Y021148D01*
X005219Y021148D01*
X004951Y021416D01*
X005111Y021349D01*
X005489Y021349D01*
X005838Y021494D01*
X006106Y021762D01*
X006251Y022111D01*
X006251Y022489D01*
X006106Y022838D01*
X005838Y023106D01*
X005489Y023251D01*
X005111Y023251D01*
X004762Y023106D01*
X004494Y022838D01*
X004349Y022489D01*
X004349Y022111D01*
X004416Y021951D01*
X004274Y022092D01*
X004282Y022111D01*
X004282Y022489D01*
X004137Y022838D01*
X003870Y023106D01*
X003521Y023251D01*
X003142Y023251D01*
X002793Y023106D01*
X002526Y022838D01*
X002381Y022489D01*
X002381Y022111D01*
X002526Y021762D01*
X002793Y021494D01*
X003142Y021349D01*
X003521Y021349D01*
X003539Y021357D01*
X004787Y020109D01*
X004171Y020725D02*
X000900Y020725D01*
X000900Y020327D02*
X001691Y020327D01*
X001497Y019928D02*
X000900Y019928D01*
X000900Y019530D02*
X001543Y019530D01*
X001833Y019131D02*
X000900Y019131D01*
X000900Y021124D02*
X003773Y021124D01*
X002765Y021522D02*
X000900Y021522D01*
X000900Y021921D02*
X002460Y021921D01*
X002381Y022319D02*
X000900Y022319D01*
X000900Y022718D02*
X002476Y022718D01*
X002818Y023116D02*
X001882Y023116D01*
X002151Y023515D02*
X033449Y023515D01*
X033718Y023116D02*
X033032Y023116D01*
X033374Y022718D02*
X034700Y022718D01*
X034700Y022319D02*
X033469Y022319D01*
X033390Y021921D02*
X034700Y021921D01*
X034700Y021522D02*
X033085Y021522D01*
X033039Y021124D02*
X034700Y021124D01*
X034700Y020725D02*
X033039Y020725D01*
X033039Y020327D02*
X034700Y020327D01*
X034700Y019928D02*
X033039Y019928D01*
X033039Y019530D02*
X034700Y019530D01*
X034700Y019131D02*
X033039Y019131D01*
X033039Y018733D02*
X033044Y018733D01*
X033550Y018733D02*
X033550Y018733D01*
X033550Y018550D02*
X033550Y019088D01*
X033592Y019088D01*
X033676Y019075D01*
X033756Y019048D01*
X033832Y019010D01*
X033900Y018960D01*
X033960Y018900D01*
X034010Y018832D01*
X034048Y018756D01*
X034075Y018676D01*
X034088Y018592D01*
X034088Y018550D01*
X033550Y018550D01*
X033550Y018550D01*
X034056Y018733D02*
X034700Y018733D01*
X034700Y018334D02*
X034044Y018334D01*
X034116Y017936D02*
X034700Y017936D01*
X034700Y017537D02*
X034148Y017537D01*
X034106Y017139D02*
X034700Y017139D01*
X034700Y016740D02*
X032345Y016740D01*
X032726Y017139D02*
X031947Y017139D01*
X032744Y016342D02*
X034700Y016342D01*
X034700Y015943D02*
X033142Y015943D01*
X033541Y015545D02*
X034700Y015545D01*
X034700Y015146D02*
X033820Y015146D01*
X033820Y014748D02*
X034700Y014748D01*
X034700Y014349D02*
X033886Y014349D01*
X034103Y013951D02*
X034700Y013951D01*
X034700Y013552D02*
X034066Y013552D01*
X033789Y013154D02*
X034700Y013154D01*
X034700Y012755D02*
X033980Y012755D01*
X034103Y012357D02*
X034700Y012357D01*
X034700Y011958D02*
X034027Y011958D01*
X033610Y011560D02*
X034700Y011560D01*
X034700Y011161D02*
X033949Y011161D01*
X034043Y010800D02*
X033300Y010800D01*
X033300Y010800D01*
X034043Y010800D01*
X034043Y010763D02*
X034700Y010763D01*
X034700Y010364D02*
X033902Y010364D01*
X033300Y010364D02*
X033300Y010364D01*
X033300Y010057D02*
X033300Y010800D01*
X033300Y010800D01*
X033300Y010800D01*
X032557Y010800D01*
X033300Y010800D01*
X033300Y010057D01*
X032698Y010364D02*
X032099Y010364D01*
X031701Y009966D02*
X034700Y009966D01*
X034700Y009567D02*
X031302Y009567D01*
X030904Y009169D02*
X034700Y009169D01*
X034700Y008770D02*
X030725Y008770D01*
X030725Y008372D02*
X034700Y008372D01*
X034700Y007973D02*
X030428Y007973D01*
X029672Y007973D02*
X029582Y007973D01*
X029725Y007575D02*
X034700Y007575D01*
X034700Y007176D02*
X029631Y007176D01*
X029725Y006778D02*
X034700Y006778D01*
X034700Y006379D02*
X029725Y006379D01*
X029574Y005981D02*
X034700Y005981D01*
X034700Y005582D02*
X029725Y005582D01*
X029638Y005184D02*
X034700Y005184D01*
X034700Y004785D02*
X029725Y004785D01*
X029725Y004387D02*
X034700Y004387D01*
X034700Y003988D02*
X029567Y003988D01*
X029725Y003590D02*
X034700Y003590D01*
X034700Y003191D02*
X029646Y003191D01*
X029725Y002793D02*
X034700Y002793D01*
X033628Y002394D02*
X029725Y002394D01*
X029626Y001996D02*
X029474Y001996D01*
X030050Y001996D02*
X030050Y001996D01*
X030474Y001996D02*
X033412Y001996D01*
X033415Y001597D02*
X030665Y001597D01*
X030050Y001597D02*
X030050Y001597D01*
X026626Y001996D02*
X025355Y001996D01*
X026435Y001597D02*
X020044Y001597D01*
X020039Y001595D02*
X020129Y001632D01*
X020214Y001681D01*
X020291Y001740D01*
X020360Y001809D01*
X020419Y001886D01*
X020468Y001971D01*
X020505Y002061D01*
X020530Y002155D01*
X020543Y002251D01*
X020543Y002300D01*
X020543Y002349D01*
X020530Y002445D01*
X020505Y002539D01*
X020468Y002629D01*
X020419Y002714D01*
X020360Y002791D01*
X020291Y002860D01*
X020214Y002919D01*
X020129Y002968D01*
X020039Y003005D01*
X019945Y003030D01*
X019849Y003043D01*
X019800Y003043D01*
X019751Y003043D01*
X019655Y003030D01*
X019561Y003005D01*
X019471Y002968D01*
X019386Y002919D01*
X019309Y002860D01*
X019240Y002791D01*
X019181Y002714D01*
X019132Y002629D01*
X019095Y002539D01*
X019085Y002503D01*
X018981Y002755D01*
X018755Y002981D01*
X018460Y003103D01*
X018140Y003103D01*
X017845Y002981D01*
X017619Y002755D01*
X017550Y002587D01*
X017481Y002755D01*
X017255Y002981D01*
X016960Y003103D01*
X016640Y003103D01*
X016345Y002981D01*
X016119Y002755D01*
X015997Y002460D01*
X015997Y002140D01*
X016119Y001845D01*
X016345Y001619D01*
X016640Y001497D01*
X016960Y001497D01*
X017255Y001619D01*
X017481Y001845D01*
X017550Y002013D01*
X017619Y001845D01*
X017845Y001619D01*
X018140Y001497D01*
X018460Y001497D01*
X018755Y001619D01*
X018981Y001845D01*
X019085Y002097D01*
X019095Y002061D01*
X019132Y001971D01*
X019181Y001886D01*
X019240Y001809D01*
X019309Y001740D01*
X019386Y001681D01*
X019471Y001632D01*
X019561Y001595D01*
X019655Y001570D01*
X019751Y001557D01*
X019800Y001557D01*
X019849Y001557D01*
X019945Y001570D01*
X020039Y001595D01*
X019800Y001597D02*
X019800Y001597D01*
X019800Y001557D02*
X019800Y002300D01*
X020543Y002300D01*
X019800Y002300D01*
X019800Y002300D01*
X019800Y002300D01*
X019800Y003043D01*
X019800Y002300D01*
X019800Y002300D01*
X019800Y001557D01*
X019556Y001597D02*
X018701Y001597D01*
X019043Y001996D02*
X019122Y001996D01*
X019800Y001996D02*
X019800Y001996D01*
X019800Y002394D02*
X019800Y002394D01*
X019800Y002793D02*
X019800Y002793D01*
X020358Y002793D02*
X020921Y002793D01*
X020939Y002774D02*
X020972Y002761D01*
X020925Y002727D01*
X020863Y002665D01*
X020811Y002594D01*
X020771Y002515D01*
X020744Y002431D01*
X020730Y002344D01*
X020730Y002300D01*
X021550Y002300D01*
X022370Y002300D01*
X022370Y002344D01*
X022356Y002431D01*
X022329Y002515D01*
X022289Y002594D01*
X022237Y002665D01*
X022175Y002727D01*
X022128Y002761D01*
X022161Y002774D01*
X022336Y002949D01*
X022430Y003177D01*
X022430Y003423D01*
X022336Y003651D01*
X022161Y003826D01*
X022128Y003839D01*
X022175Y003873D01*
X022237Y003935D01*
X022289Y004006D01*
X022329Y004085D01*
X022356Y004169D01*
X022370Y004256D01*
X022370Y004300D01*
X021550Y004300D01*
X021550Y004300D01*
X021550Y004300D01*
X020730Y004300D01*
X020730Y004256D01*
X020744Y004169D01*
X020771Y004085D01*
X020811Y004006D01*
X020863Y003935D01*
X020925Y003873D01*
X020972Y003839D01*
X020939Y003826D01*
X020764Y003651D01*
X020670Y003423D01*
X020670Y003177D01*
X020764Y002949D01*
X020939Y002774D01*
X020670Y003191D02*
X014563Y003191D01*
X014643Y002793D02*
X016157Y002793D01*
X015997Y002394D02*
X014557Y002394D01*
X014250Y001996D02*
X016057Y001996D01*
X016399Y001597D02*
X007460Y001597D01*
X006500Y003550D02*
X006500Y003550D01*
X006500Y003590D02*
X006500Y003590D01*
X006500Y003988D02*
X006500Y003988D01*
X005862Y003988D02*
X005820Y003988D01*
X006300Y004785D02*
X006300Y004785D01*
X006300Y005184D02*
X006300Y005184D01*
X004613Y005582D02*
X004503Y005582D01*
X004384Y005981D02*
X003908Y005981D01*
X002749Y007176D02*
X002560Y007176D01*
X002540Y007575D02*
X000900Y007575D01*
X000900Y007973D02*
X002142Y007973D01*
X001811Y008372D02*
X000900Y008372D01*
X000900Y008770D02*
X001726Y008770D01*
X001663Y009169D02*
X000900Y009169D01*
X000900Y009567D02*
X001916Y009567D01*
X002684Y009567D02*
X002754Y009567D01*
X002717Y010763D02*
X000900Y010763D01*
X000900Y011161D02*
X002198Y011161D01*
X002057Y011560D02*
X000900Y011560D01*
X000900Y011958D02*
X002082Y011958D01*
X002302Y012357D02*
X000900Y012357D01*
X000900Y012755D02*
X002441Y012755D01*
X002139Y013154D02*
X000900Y013154D01*
X000900Y013552D02*
X002057Y013552D01*
X002141Y013951D02*
X000900Y013951D01*
X000900Y014349D02*
X002445Y014349D01*
X003655Y014349D02*
X006004Y014349D01*
X006596Y014349D02*
X007614Y014349D01*
X007763Y014748D02*
X000900Y014748D01*
X000900Y015146D02*
X007785Y015146D01*
X007821Y015545D02*
X000900Y015545D01*
X003909Y013030D02*
X005769Y013030D01*
X005762Y013023D01*
X005762Y012800D01*
X005762Y012577D01*
X005997Y012342D01*
X005702Y012048D01*
X005702Y011552D01*
X005780Y011475D01*
X005780Y010447D01*
X005859Y010255D01*
X006501Y009614D01*
X006419Y009648D01*
X006181Y009648D01*
X005993Y009570D01*
X005637Y009570D01*
X005690Y009698D01*
X005690Y010402D01*
X005635Y010534D01*
X005570Y010599D01*
X005570Y011153D01*
X005491Y011345D01*
X004741Y012095D01*
X004595Y012241D01*
X004403Y012320D01*
X003834Y012320D01*
X003613Y012541D01*
X003411Y012625D01*
X003613Y012708D01*
X003892Y012987D01*
X003909Y013030D01*
X003659Y012755D02*
X005762Y012755D01*
X005762Y012800D02*
X006300Y012800D01*
X006300Y012800D01*
X006300Y012800D01*
X005762Y012800D01*
X005983Y012357D02*
X003798Y012357D01*
X004877Y011958D02*
X005702Y011958D01*
X005702Y011560D02*
X005276Y011560D01*
X005567Y011161D02*
X005780Y011161D01*
X005780Y010763D02*
X005570Y010763D01*
X005690Y010364D02*
X005814Y010364D01*
X005690Y009966D02*
X006149Y009966D01*
X004410Y009966D02*
X000900Y009966D01*
X000900Y010364D02*
X004410Y010364D01*
X004530Y010763D02*
X003383Y010763D01*
X003902Y011161D02*
X004204Y011161D01*
X000940Y007176D02*
X000900Y007176D01*
X009959Y006778D02*
X010280Y006778D01*
X010280Y007176D02*
X010180Y007176D01*
X010117Y007575D02*
X010280Y007575D01*
X010280Y007973D02*
X010096Y007973D01*
X010180Y008372D02*
X010280Y008372D01*
X010280Y008770D02*
X009967Y008770D01*
X010177Y009169D02*
X010196Y009169D01*
X012300Y009300D02*
X014300Y009300D01*
X014800Y009800D01*
X017300Y009300D02*
X017300Y008050D01*
X016550Y007300D02*
X017000Y006940D01*
X018060Y006040D01*
X018800Y005300D02*
X018050Y004550D01*
X014550Y004550D01*
X017443Y002793D02*
X017657Y002793D01*
X017557Y001996D02*
X017543Y001996D01*
X017201Y001597D02*
X017899Y001597D01*
X018943Y002793D02*
X019242Y002793D01*
X019995Y003590D02*
X020739Y003590D01*
X020824Y003988D02*
X020331Y003988D01*
X020669Y004387D02*
X020737Y004387D01*
X022172Y004785D02*
X023898Y004785D01*
X023670Y005184D02*
X022430Y005184D01*
X022364Y005582D02*
X023736Y005582D01*
X023751Y005981D02*
X022349Y005981D01*
X022430Y006379D02*
X023670Y006379D01*
X023891Y006778D02*
X022209Y006778D01*
X022430Y007176D02*
X023670Y007176D01*
X023733Y007575D02*
X022367Y007575D01*
X022346Y007973D02*
X023754Y007973D01*
X023670Y008372D02*
X022430Y008372D01*
X021550Y008300D02*
X021050Y008300D01*
X020550Y007800D01*
X020550Y007050D01*
X020300Y006800D01*
X019410Y006050D01*
X016550Y007300D02*
X014920Y007500D01*
X014050Y007800D01*
X017300Y009300D02*
X017550Y009550D01*
X019550Y011550D01*
X020150Y011550D01*
X020300Y011700D01*
X019386Y012088D02*
X019458Y012262D01*
X019737Y012541D01*
X019939Y012625D01*
X019737Y012708D01*
X019458Y012987D01*
X019307Y013352D01*
X019307Y013748D01*
X019458Y014113D01*
X019737Y014392D01*
X020102Y014543D01*
X020498Y014543D01*
X020863Y014392D01*
X021142Y014113D01*
X021293Y013748D01*
X021293Y013352D01*
X021142Y012987D01*
X020863Y012708D01*
X020661Y012625D01*
X020863Y012541D01*
X021142Y012262D01*
X021293Y011897D01*
X021293Y011502D01*
X021142Y011137D01*
X020863Y010858D01*
X020498Y010707D01*
X020102Y010707D01*
X019737Y010858D01*
X019694Y010902D01*
X019112Y010320D01*
X019153Y010320D01*
X019345Y010241D01*
X020015Y009570D01*
X021490Y009570D01*
X021490Y009800D01*
X022050Y009800D01*
X022050Y009800D01*
X022050Y010360D01*
X022282Y010360D01*
X022610Y010032D01*
X022610Y009800D01*
X022050Y009800D01*
X022050Y009800D01*
X022050Y009800D01*
X022050Y010360D01*
X021818Y010360D01*
X021490Y010032D01*
X021490Y009800D01*
X022050Y009800D01*
X022610Y009800D01*
X022610Y009570D01*
X023430Y009570D01*
X023430Y009685D01*
X022859Y010255D01*
X022780Y010447D01*
X022780Y016403D01*
X022859Y016595D01*
X023005Y016741D01*
X023505Y017241D01*
X023697Y017320D01*
X023865Y017320D01*
X024020Y017475D01*
X024580Y017475D01*
X024735Y017320D01*
X024865Y017320D01*
X025020Y017475D01*
X025580Y017475D01*
X025975Y017080D01*
X025975Y016520D01*
X025775Y016320D01*
X025865Y016320D01*
X026020Y016475D01*
X026580Y016475D01*
X026735Y016320D01*
X027143Y016320D01*
X027014Y016449D01*
X026920Y016677D01*
X026920Y016923D01*
X027014Y017151D01*
X027163Y017300D01*
X027014Y017449D01*
X026920Y017677D01*
X026920Y017923D01*
X027014Y018151D01*
X027143Y018280D01*
X022015Y018280D01*
X021992Y018257D01*
X021859Y018202D01*
X021241Y018202D01*
X021108Y018257D01*
X021085Y018280D01*
X020765Y018280D01*
X018635Y016149D01*
X018557Y015961D01*
X018389Y015793D01*
X018169Y015702D01*
X017931Y015702D01*
X017711Y015793D01*
X017543Y015961D01*
X017452Y016181D01*
X017452Y016419D01*
X017543Y016639D01*
X017711Y016807D01*
X017899Y016885D01*
X020109Y019095D01*
X020255Y019241D01*
X020447Y019320D01*
X021085Y019320D01*
X021108Y019343D01*
X021208Y019384D01*
X021200Y019390D01*
X021140Y019450D01*
X021090Y019518D01*
X021052Y019594D01*
X021025Y019674D01*
X021012Y019758D01*
X021012Y019800D01*
X021550Y019800D01*
X021550Y019800D01*
X021550Y020338D01*
X021508Y020338D01*
X021424Y020325D01*
X021344Y020298D01*
X021268Y020260D01*
X021200Y020210D01*
X021140Y020150D01*
X021090Y020082D01*
X021052Y020006D01*
X021025Y019926D01*
X021012Y019842D01*
X021012Y019800D01*
X021550Y019800D01*
X022088Y019800D01*
X021550Y019800D01*
X021550Y019800D01*
X021550Y019800D01*
X021550Y020338D01*
X021592Y020338D01*
X021676Y020325D01*
X021756Y020298D01*
X021832Y020260D01*
X021900Y020210D01*
X021960Y020150D01*
X022010Y020082D01*
X022048Y020006D01*
X022075Y019926D01*
X022088Y019842D01*
X022088Y019800D01*
X022088Y019758D01*
X022075Y019674D01*
X022048Y019594D01*
X022010Y019518D01*
X021960Y019450D01*
X021900Y019390D01*
X021892Y019384D01*
X021992Y019343D01*
X022015Y019320D01*
X027183Y019320D01*
X027189Y019326D01*
X027260Y019355D01*
X026085Y020530D01*
X023197Y020530D01*
X023005Y020609D01*
X022859Y020755D01*
X022265Y021349D01*
X022142Y021349D01*
X022124Y021357D01*
X021626Y020859D01*
X021435Y020780D01*
X018415Y020780D01*
X018557Y020639D01*
X018648Y020419D01*
X018648Y020181D01*
X018557Y019961D01*
X018389Y019793D01*
X018169Y019702D01*
X017931Y019702D01*
X017743Y019780D01*
X016857Y019780D01*
X016669Y019702D01*
X016431Y019702D01*
X016243Y019780D01*
X015320Y019780D01*
X015320Y019363D01*
X015411Y019326D01*
X015586Y019151D01*
X015680Y018923D01*
X015680Y018677D01*
X015586Y018449D01*
X015457Y018320D01*
X015903Y018320D01*
X016095Y018241D01*
X016241Y018095D01*
X016241Y018095D01*
X016991Y017345D01*
X017070Y017153D01*
X017070Y016607D01*
X017148Y016419D01*
X017148Y016181D01*
X017057Y015961D01*
X016889Y015793D01*
X016820Y015765D01*
X017491Y015095D01*
X017491Y015093D01*
X017492Y015093D01*
X017593Y014992D01*
X017648Y014859D01*
X017648Y014241D01*
X017593Y014108D01*
X017492Y014007D01*
X017392Y013966D01*
X017400Y013960D01*
X017460Y013900D01*
X017510Y013832D01*
X017548Y013756D01*
X017575Y013676D01*
X017588Y013592D01*
X017588Y013550D01*
X017050Y013550D01*
X017588Y013550D01*
X017588Y013508D01*
X017575Y013424D01*
X017548Y013344D01*
X017510Y013268D01*
X017460Y013200D01*
X017400Y013140D01*
X017332Y013090D01*
X017256Y013052D01*
X017176Y013025D01*
X017092Y013012D01*
X017050Y013012D01*
X017050Y013550D01*
X017050Y013550D01*
X017050Y013550D01*
X017050Y013550D01*
X016512Y013550D01*
X016512Y013508D01*
X016525Y013424D01*
X016552Y013344D01*
X016590Y013268D01*
X016640Y013200D01*
X016700Y013140D01*
X016768Y013090D01*
X016844Y013052D01*
X016924Y013025D01*
X017008Y013012D01*
X017050Y013012D01*
X017050Y013550D01*
X016512Y013550D01*
X016512Y013592D01*
X016525Y013676D01*
X016552Y013756D01*
X016590Y013832D01*
X016640Y013900D01*
X016700Y013960D01*
X016708Y013966D01*
X016608Y014007D01*
X016507Y014108D01*
X016452Y014241D01*
X016452Y014662D01*
X015859Y015255D01*
X015609Y015506D01*
X015586Y015449D01*
X015411Y015274D01*
X015183Y015180D01*
X014915Y015180D01*
X014820Y015085D01*
X014820Y014657D01*
X014920Y014557D01*
X014920Y014043D01*
X014557Y013680D01*
X014043Y013680D01*
X013680Y014043D01*
X013680Y014557D01*
X013780Y014657D01*
X013780Y015403D01*
X013859Y015595D01*
X013926Y015662D01*
X013920Y015677D01*
X013920Y015923D01*
X014014Y016151D01*
X014163Y016300D01*
X014014Y016449D01*
X013920Y016677D01*
X013920Y016923D01*
X014014Y017151D01*
X014163Y017300D01*
X014014Y017449D01*
X013920Y017677D01*
X013920Y017685D01*
X013820Y017585D01*
X013820Y016947D01*
X013741Y016755D01*
X013595Y016609D01*
X012680Y015695D01*
X012680Y015677D01*
X012586Y015449D01*
X012411Y015274D01*
X012183Y015180D01*
X012165Y015180D01*
X012070Y015085D01*
X012070Y014860D01*
X012300Y014860D01*
X012300Y014300D01*
X012300Y014300D01*
X012860Y014300D01*
X012860Y014532D01*
X012532Y014860D01*
X012300Y014860D01*
X012300Y014300D01*
X012300Y014300D01*
X012860Y014300D01*
X012860Y014068D01*
X012532Y013740D01*
X012300Y013740D01*
X012300Y014300D01*
X012300Y014300D01*
X012300Y013740D01*
X012070Y013740D01*
X012070Y013407D01*
X012420Y013057D01*
X012420Y012543D01*
X012057Y012180D01*
X011915Y012180D01*
X011785Y012050D01*
X011916Y011920D01*
X011917Y011920D01*
X012435Y011920D01*
X013109Y012595D01*
X013255Y012741D01*
X013447Y012820D01*
X016903Y012820D01*
X017095Y012741D01*
X017951Y011885D01*
X018139Y011807D01*
X018307Y011639D01*
X018398Y011419D01*
X018398Y011190D01*
X019075Y011867D01*
X019233Y012025D01*
X019386Y012088D01*
X019166Y011958D02*
X017877Y011958D01*
X017479Y012357D02*
X019552Y012357D01*
X019691Y012755D02*
X017060Y012755D01*
X017050Y013154D02*
X017050Y013154D01*
X017414Y013154D02*
X019389Y013154D01*
X019307Y013552D02*
X017588Y013552D01*
X017410Y013951D02*
X019391Y013951D01*
X019695Y014349D02*
X017648Y014349D01*
X017648Y014748D02*
X022780Y014748D01*
X022780Y015146D02*
X017439Y015146D01*
X017041Y015545D02*
X022780Y015545D01*
X022780Y015943D02*
X018538Y015943D01*
X018827Y016342D02*
X022780Y016342D01*
X023005Y016740D02*
X019225Y016740D01*
X019624Y017139D02*
X023403Y017139D01*
X025916Y017139D02*
X027009Y017139D01*
X026920Y016740D02*
X025975Y016740D01*
X025887Y016342D02*
X025796Y016342D01*
X026713Y016342D02*
X027122Y016342D01*
X026978Y017537D02*
X020022Y017537D01*
X020421Y017936D02*
X026925Y017936D01*
X027085Y019530D02*
X022016Y019530D01*
X022074Y019928D02*
X026687Y019928D01*
X026288Y020327D02*
X021664Y020327D01*
X021550Y020327D02*
X021550Y020327D01*
X021436Y020327D02*
X018648Y020327D01*
X018523Y019928D02*
X021026Y019928D01*
X021084Y019530D02*
X015320Y019530D01*
X015594Y019131D02*
X020146Y019131D01*
X019747Y018733D02*
X015680Y018733D01*
X015471Y018334D02*
X019349Y018334D01*
X018950Y017936D02*
X016400Y017936D01*
X016798Y017537D02*
X018552Y017537D01*
X018153Y017139D02*
X017070Y017139D01*
X017070Y016740D02*
X017645Y016740D01*
X017452Y016342D02*
X017148Y016342D01*
X017038Y015943D02*
X017562Y015943D01*
X016367Y014748D02*
X014820Y014748D01*
X014881Y015146D02*
X015969Y015146D01*
X016452Y014349D02*
X014920Y014349D01*
X014827Y013951D02*
X016690Y013951D01*
X016512Y013552D02*
X012070Y013552D01*
X012300Y013951D02*
X012300Y013951D01*
X012300Y014349D02*
X012300Y014349D01*
X012742Y013951D02*
X013773Y013951D01*
X013680Y014349D02*
X012860Y014349D01*
X012644Y014748D02*
X013780Y014748D01*
X013780Y015146D02*
X012131Y015146D01*
X012300Y014748D02*
X012300Y014748D01*
X012625Y015545D02*
X013838Y015545D01*
X013928Y015943D02*
X012928Y015943D01*
X013327Y016342D02*
X014122Y016342D01*
X013920Y016740D02*
X013725Y016740D01*
X013820Y017139D02*
X014009Y017139D01*
X013978Y017537D02*
X013820Y017537D01*
X012780Y017537D02*
X012622Y017537D01*
X012591Y017139D02*
X012653Y017139D01*
X012675Y017936D02*
X012793Y017936D01*
X013099Y018334D02*
X012391Y018334D01*
X012616Y018733D02*
X013497Y018733D01*
X013896Y019131D02*
X012512Y019131D01*
X011800Y019131D02*
X011800Y019131D01*
X011088Y019131D02*
X011070Y019131D01*
X011070Y019530D02*
X014280Y019530D01*
X013795Y019928D02*
X012720Y019928D01*
X012860Y020068D02*
X012532Y019740D01*
X012300Y019740D01*
X012300Y020300D01*
X012860Y020300D01*
X012860Y020532D01*
X012532Y020860D01*
X012300Y020860D01*
X012300Y020300D01*
X012300Y020300D01*
X012300Y020300D01*
X012860Y020300D01*
X012860Y020068D01*
X012860Y020327D02*
X013680Y020327D01*
X013848Y020725D02*
X012667Y020725D01*
X012300Y020725D02*
X012300Y020725D01*
X012300Y020860D02*
X012068Y020860D01*
X011740Y020532D01*
X011740Y020300D01*
X012300Y020300D01*
X012300Y020300D01*
X012300Y020300D01*
X012300Y020860D01*
X011933Y020725D02*
X011070Y020725D01*
X011070Y020327D02*
X011740Y020327D01*
X011740Y020300D02*
X011740Y020068D01*
X012068Y019740D01*
X012300Y019740D01*
X012300Y020300D01*
X011740Y020300D01*
X011880Y019928D02*
X011070Y019928D01*
X010030Y020327D02*
X007354Y020327D01*
X007375Y020725D02*
X010030Y020725D01*
X010030Y021124D02*
X006978Y021124D01*
X007094Y021425D02*
X007210Y021409D01*
X007268Y021409D01*
X007268Y022300D01*
X006378Y022300D01*
X006378Y022242D01*
X006393Y022126D01*
X006423Y022013D01*
X006468Y021905D01*
X006526Y021804D01*
X006598Y021712D01*
X006680Y021629D01*
X006773Y021558D01*
X006874Y021500D01*
X006982Y021455D01*
X007094Y021425D01*
X007269Y021409D02*
X007327Y021409D01*
X007443Y021425D01*
X007555Y021455D01*
X007663Y021500D01*
X007764Y021558D01*
X007857Y021629D01*
X007939Y021712D01*
X008011Y021804D01*
X008069Y021905D01*
X008114Y022013D01*
X008144Y022126D01*
X008159Y022242D01*
X008159Y022300D01*
X008159Y022358D01*
X008144Y022474D01*
X008114Y022587D01*
X008069Y022695D01*
X008011Y022796D01*
X007939Y022888D01*
X007857Y022971D01*
X007764Y023042D01*
X007663Y023100D01*
X007555Y023145D01*
X007443Y023175D01*
X007327Y023191D01*
X007269Y023191D01*
X007269Y022300D01*
X008159Y022300D01*
X007269Y022300D01*
X007269Y022300D01*
X007269Y021409D01*
X007268Y021522D02*
X007269Y021522D01*
X007702Y021522D02*
X009265Y021522D01*
X008960Y021921D02*
X008075Y021921D01*
X008159Y022319D02*
X008881Y022319D01*
X008976Y022718D02*
X008056Y022718D01*
X007626Y023116D02*
X009318Y023116D01*
X010345Y023116D02*
X011286Y023116D01*
X010944Y022718D02*
X010687Y022718D01*
X010782Y022319D02*
X010849Y022319D01*
X011359Y021124D02*
X015991Y021124D01*
X015515Y021522D02*
X014335Y021522D01*
X014640Y021921D02*
X015210Y021921D01*
X015131Y022319D02*
X014719Y022319D01*
X014624Y022718D02*
X015226Y022718D01*
X015568Y023116D02*
X014282Y023116D01*
X013255Y023116D02*
X012314Y023116D01*
X012366Y021522D02*
X013202Y021522D01*
X012300Y020327D02*
X012300Y020327D01*
X012300Y019928D02*
X012300Y019928D01*
X010077Y018334D02*
X010069Y018334D01*
X010429Y017936D02*
X008421Y017936D01*
X008022Y017537D02*
X010828Y017537D01*
X011009Y017139D02*
X007624Y017139D01*
X007368Y016740D02*
X010920Y016740D01*
X011122Y016342D02*
X007361Y016342D01*
X008300Y015545D02*
X008300Y015545D01*
X008929Y018334D02*
X009031Y018334D01*
X006622Y021124D02*
X005478Y021124D01*
X005866Y021522D02*
X006835Y021522D01*
X006462Y021921D02*
X006172Y021921D01*
X006251Y022319D02*
X006378Y022319D01*
X006378Y022300D02*
X007268Y022300D01*
X007268Y022300D01*
X007269Y022300D01*
X007268Y022300D01*
X007268Y023191D01*
X007210Y023191D01*
X007094Y023175D01*
X006982Y023145D01*
X006874Y023100D01*
X006773Y023042D01*
X006680Y022971D01*
X006598Y022888D01*
X006526Y022796D01*
X006468Y022695D01*
X006423Y022587D01*
X006393Y022474D01*
X006378Y022358D01*
X006378Y022300D01*
X006481Y022718D02*
X006156Y022718D01*
X005814Y023116D02*
X006911Y023116D01*
X007268Y023116D02*
X007269Y023116D01*
X007268Y022718D02*
X007269Y022718D01*
X007268Y022319D02*
X007269Y022319D01*
X007268Y021921D02*
X007269Y021921D01*
X004786Y023116D02*
X003845Y023116D01*
X004187Y022718D02*
X004444Y022718D01*
X004349Y022319D02*
X004282Y022319D01*
X002195Y023913D02*
X033405Y023913D01*
X032005Y023116D02*
X031064Y023116D01*
X030036Y023116D02*
X029095Y023116D01*
X029437Y022718D02*
X029694Y022718D01*
X029599Y022319D02*
X029532Y022319D01*
X029453Y021921D02*
X029678Y021921D01*
X029463Y021522D02*
X029984Y021522D01*
X029627Y021124D02*
X031999Y021124D01*
X031952Y021522D02*
X031116Y021522D01*
X030752Y020725D02*
X031999Y020725D01*
X031999Y020327D02*
X031009Y020327D01*
X031310Y019928D02*
X031999Y019928D01*
X031999Y019530D02*
X031320Y019530D01*
X031594Y019131D02*
X031999Y019131D01*
X031999Y018733D02*
X031680Y018733D01*
X031471Y018334D02*
X031999Y018334D01*
X029848Y020725D02*
X029790Y020725D01*
X028502Y021124D02*
X026962Y021124D01*
X026702Y021522D02*
X028015Y021522D01*
X027710Y021921D02*
X027075Y021921D01*
X027159Y022319D02*
X027631Y022319D01*
X027726Y022718D02*
X027056Y022718D01*
X026626Y023116D02*
X028068Y023116D01*
X026269Y023116D02*
X026268Y023116D01*
X026268Y023191D02*
X026210Y023191D01*
X026094Y023175D01*
X025982Y023145D01*
X025874Y023100D01*
X025773Y023042D01*
X025680Y022971D01*
X025598Y022888D01*
X025526Y022796D01*
X025468Y022695D01*
X025423Y022587D01*
X025393Y022474D01*
X025378Y022358D01*
X025378Y022300D01*
X026268Y022300D01*
X026268Y022300D01*
X026268Y023191D01*
X025911Y023116D02*
X024814Y023116D01*
X025156Y022718D02*
X025481Y022718D01*
X025378Y022319D02*
X025251Y022319D01*
X025172Y021921D02*
X025462Y021921D01*
X026268Y022319D02*
X026269Y022319D01*
X026268Y022718D02*
X026269Y022718D01*
X023786Y023116D02*
X022845Y023116D01*
X023187Y022718D02*
X023444Y022718D01*
X023349Y022319D02*
X023282Y022319D01*
X023203Y021921D02*
X023428Y021921D01*
X022491Y021124D02*
X021890Y021124D01*
X021217Y021921D02*
X020890Y021921D01*
X020969Y022319D02*
X021381Y022319D01*
X021476Y022718D02*
X020874Y022718D01*
X020532Y023116D02*
X021818Y023116D01*
X019505Y023116D02*
X018564Y023116D01*
X017536Y023116D02*
X016595Y023116D01*
X016937Y022718D02*
X017194Y022718D01*
X017099Y022319D02*
X017032Y022319D01*
X016953Y021921D02*
X017178Y021921D01*
X018470Y020725D02*
X022890Y020725D01*
X021550Y019928D02*
X021550Y019928D01*
X027360Y020725D02*
X027933Y020725D01*
X028300Y020725D02*
X028300Y020725D01*
X028300Y020327D02*
X028300Y020327D01*
X032320Y015295D02*
X032359Y015255D01*
X032780Y014835D01*
X032780Y014415D01*
X032619Y014255D01*
X032497Y013960D01*
X032497Y013640D01*
X032619Y013345D01*
X032845Y013119D01*
X033013Y013050D01*
X032845Y012981D01*
X032619Y012755D01*
X032497Y012460D01*
X032497Y012232D01*
X029755Y009491D01*
X029609Y009345D01*
X029530Y009153D01*
X029530Y009070D01*
X029485Y009070D01*
X029330Y009225D01*
X028770Y009225D01*
X028615Y009070D01*
X028485Y009070D01*
X028330Y009225D01*
X027770Y009225D01*
X027615Y009070D01*
X027485Y009070D01*
X027330Y009225D01*
X026770Y009225D01*
X026375Y008830D01*
X026375Y008820D01*
X025167Y008820D01*
X025161Y008826D01*
X024933Y008920D01*
X024915Y008920D01*
X024845Y008991D01*
X024845Y008991D01*
X024570Y009265D01*
X024570Y009443D01*
X024670Y009543D01*
X024670Y010057D01*
X024307Y010420D01*
X024165Y010420D01*
X023820Y010765D01*
X023820Y012410D01*
X024045Y012185D01*
X024300Y012185D01*
X024555Y012185D01*
X024800Y012430D01*
X025045Y012185D01*
X025300Y012185D01*
X025555Y012185D01*
X025915Y012545D01*
X025915Y012800D01*
X025915Y013055D01*
X025712Y013258D01*
X025735Y013280D01*
X025865Y013280D01*
X026020Y013125D01*
X026580Y013125D01*
X026735Y013280D01*
X027183Y013280D01*
X027189Y013274D01*
X027222Y013261D01*
X027175Y013227D01*
X027113Y013165D01*
X027061Y013094D01*
X027021Y013015D01*
X026994Y012931D01*
X026980Y012844D01*
X026980Y012800D01*
X027800Y012800D01*
X028620Y012800D01*
X028620Y012844D01*
X028606Y012931D01*
X028579Y013015D01*
X028539Y013094D01*
X028487Y013165D01*
X028425Y013227D01*
X028378Y013261D01*
X028411Y013274D01*
X028586Y013449D01*
X028680Y013677D01*
X028680Y013923D01*
X028586Y014151D01*
X028437Y014300D01*
X028586Y014449D01*
X028680Y014677D01*
X028680Y014685D01*
X028859Y014505D01*
X029005Y014359D01*
X029197Y014280D01*
X029245Y014280D01*
X029233Y014275D01*
X029075Y014117D01*
X028825Y013867D01*
X028740Y013661D01*
X028740Y012532D01*
X027568Y011360D01*
X026951Y011360D01*
X026859Y011398D01*
X026241Y011398D01*
X026108Y011343D01*
X026007Y011242D01*
X025966Y011142D01*
X025960Y011150D01*
X025900Y011210D01*
X025832Y011260D01*
X025756Y011298D01*
X025676Y011325D01*
X025592Y011338D01*
X025550Y011338D01*
X025550Y010800D01*
X025550Y010800D01*
X025550Y010262D01*
X025592Y010262D01*
X025676Y010275D01*
X025756Y010302D01*
X025832Y010340D01*
X025900Y010390D01*
X025960Y010450D01*
X025966Y010458D01*
X026007Y010358D01*
X026108Y010257D01*
X026241Y010202D01*
X026859Y010202D01*
X026951Y010240D01*
X027911Y010240D01*
X028117Y010325D01*
X029617Y011825D01*
X029775Y011983D01*
X029860Y012189D01*
X029860Y013240D01*
X030103Y013240D01*
X030014Y013151D01*
X029920Y012923D01*
X029920Y012677D01*
X030014Y012449D01*
X030189Y012274D01*
X030417Y012180D01*
X031183Y012180D01*
X031411Y012274D01*
X031426Y012289D01*
X031595Y012359D01*
X031741Y012505D01*
X032241Y013005D01*
X032320Y013197D01*
X032320Y015295D01*
X032320Y015146D02*
X032469Y015146D01*
X032320Y014748D02*
X032780Y014748D01*
X032714Y014349D02*
X032320Y014349D01*
X032320Y013951D02*
X032497Y013951D01*
X032534Y013552D02*
X032320Y013552D01*
X032302Y013154D02*
X032811Y013154D01*
X032620Y012755D02*
X031990Y012755D01*
X031588Y012357D02*
X032497Y012357D01*
X032223Y011958D02*
X029750Y011958D01*
X029860Y012357D02*
X030107Y012357D01*
X029920Y012755D02*
X029860Y012755D01*
X029860Y013154D02*
X030017Y013154D01*
X029550Y013800D02*
X029300Y013550D01*
X029300Y012300D01*
X027800Y010800D01*
X026550Y010800D01*
X025974Y011161D02*
X025950Y011161D01*
X025550Y011161D02*
X025550Y011161D01*
X025550Y011338D02*
X025550Y010800D01*
X025550Y010800D01*
X025550Y010800D01*
X025012Y010800D01*
X025012Y010758D01*
X025025Y010674D01*
X025052Y010594D01*
X025090Y010518D01*
X025140Y010450D01*
X025200Y010390D01*
X025268Y010340D01*
X025344Y010302D01*
X025424Y010275D01*
X025508Y010262D01*
X025550Y010262D01*
X025550Y010800D01*
X025012Y010800D01*
X025012Y010842D01*
X025025Y010926D01*
X025052Y011006D01*
X025090Y011082D01*
X025140Y011150D01*
X025200Y011210D01*
X025268Y011260D01*
X025344Y011298D01*
X025424Y011325D01*
X025508Y011338D01*
X025550Y011338D01*
X025150Y011161D02*
X023820Y011161D01*
X023823Y010763D02*
X025012Y010763D01*
X025550Y010763D02*
X025550Y010763D01*
X025550Y010364D02*
X025550Y010364D01*
X025865Y010364D02*
X026005Y010364D01*
X025235Y010364D02*
X024363Y010364D01*
X024670Y009966D02*
X030230Y009966D01*
X030629Y010364D02*
X028156Y010364D01*
X028554Y010763D02*
X031027Y010763D01*
X031426Y011161D02*
X028953Y011161D01*
X029351Y011560D02*
X031824Y011560D01*
X032498Y010763D02*
X032557Y010763D01*
X033300Y010763D02*
X033300Y010763D01*
X029832Y009567D02*
X024670Y009567D01*
X024667Y009169D02*
X026714Y009169D01*
X027386Y009169D02*
X027714Y009169D01*
X028386Y009169D02*
X028714Y009169D01*
X029386Y009169D02*
X029536Y009169D01*
X027768Y011560D02*
X023820Y011560D01*
X023820Y011958D02*
X028166Y011958D01*
X028104Y012240D02*
X028191Y012254D01*
X028275Y012281D01*
X028354Y012321D01*
X028425Y012373D01*
X028487Y012435D01*
X028539Y012506D01*
X028579Y012585D01*
X028606Y012669D01*
X028620Y012756D01*
X028620Y012800D01*
X027800Y012800D01*
X027800Y012800D01*
X027800Y012240D01*
X028104Y012240D01*
X027800Y012240D02*
X027800Y012800D01*
X027800Y012800D01*
X027800Y012800D01*
X026980Y012800D01*
X026980Y012756D01*
X026994Y012669D01*
X027021Y012585D01*
X027061Y012506D01*
X027113Y012435D01*
X027175Y012373D01*
X027246Y012321D01*
X027325Y012281D01*
X027409Y012254D01*
X027496Y012240D01*
X027800Y012240D01*
X027800Y012357D02*
X027800Y012357D01*
X027198Y012357D02*
X025726Y012357D01*
X025300Y012357D02*
X025300Y012357D01*
X025300Y012185D02*
X025300Y012800D01*
X025915Y012800D01*
X025300Y012800D01*
X025300Y012800D01*
X025300Y012800D01*
X024300Y012800D01*
X024300Y012800D01*
X024685Y012800D01*
X025300Y012800D01*
X025300Y012800D01*
X025300Y012185D01*
X024874Y012357D02*
X024726Y012357D01*
X024300Y012357D02*
X024300Y012357D01*
X024300Y012185D02*
X024300Y012800D01*
X024300Y012800D01*
X024300Y012185D01*
X023874Y012357D02*
X023820Y012357D01*
X024300Y012755D02*
X024300Y012755D01*
X025300Y012755D02*
X025300Y012755D01*
X025915Y012755D02*
X026980Y012755D01*
X027105Y013154D02*
X026608Y013154D01*
X025992Y013154D02*
X025816Y013154D01*
X027800Y012755D02*
X027800Y012755D01*
X028402Y012357D02*
X028565Y012357D01*
X028620Y012755D02*
X028740Y012755D01*
X028740Y013154D02*
X028495Y013154D01*
X028628Y013552D02*
X028740Y013552D01*
X028669Y013951D02*
X028909Y013951D01*
X029030Y014349D02*
X028486Y014349D01*
X029550Y013800D02*
X030800Y013800D01*
X023149Y009966D02*
X022610Y009966D01*
X022814Y010364D02*
X019156Y010364D01*
X019554Y010763D02*
X019967Y010763D01*
X020633Y010763D02*
X022780Y010763D01*
X022780Y011161D02*
X021152Y011161D01*
X021293Y011560D02*
X022780Y011560D01*
X022780Y011958D02*
X021268Y011958D01*
X021048Y012357D02*
X022780Y012357D01*
X022780Y012755D02*
X020909Y012755D01*
X021211Y013154D02*
X022780Y013154D01*
X022780Y013552D02*
X021293Y013552D01*
X021209Y013951D02*
X022780Y013951D01*
X022780Y014349D02*
X020905Y014349D01*
X018768Y011560D02*
X018340Y011560D01*
X019620Y009966D02*
X021490Y009966D01*
X022050Y009966D02*
X022050Y009966D01*
X016686Y013154D02*
X012323Y013154D01*
X012420Y012755D02*
X013290Y012755D01*
X012871Y012357D02*
X012233Y012357D01*
X012473Y011958D02*
X011877Y011958D01*
X010280Y006379D02*
X010180Y006379D01*
X010099Y005981D02*
X010280Y005981D01*
X010280Y005582D02*
X010045Y005582D01*
X010109Y005184D02*
X010280Y005184D01*
X012707Y002394D02*
X012744Y002394D01*
X013050Y001996D02*
X012400Y001996D01*
X020478Y001996D02*
X020819Y001996D01*
X020811Y002006D02*
X020863Y001935D01*
X020925Y001873D01*
X020996Y001821D01*
X021075Y001781D01*
X021159Y001754D01*
X021246Y001740D01*
X021550Y001740D01*
X021854Y001740D01*
X021941Y001754D01*
X022025Y001781D01*
X022104Y001821D01*
X022175Y001873D01*
X022237Y001935D01*
X022289Y002006D01*
X022329Y002085D01*
X022356Y002169D01*
X022370Y002256D01*
X022370Y002300D01*
X021550Y002300D01*
X021550Y002300D01*
X021550Y001740D01*
X021550Y002300D01*
X021550Y002300D01*
X021550Y002300D01*
X020730Y002300D01*
X020730Y002256D01*
X020744Y002169D01*
X020771Y002085D01*
X020811Y002006D01*
X020738Y002394D02*
X020537Y002394D01*
X021550Y001996D02*
X021550Y001996D01*
X022281Y001996D02*
X023745Y001996D01*
X023670Y002394D02*
X022362Y002394D01*
X022179Y002793D02*
X023906Y002793D01*
X023670Y003191D02*
X022430Y003191D01*
X022361Y003590D02*
X023739Y003590D01*
X023748Y003988D02*
X022276Y003988D01*
X022363Y004387D02*
X023670Y004387D01*
D25*
X024550Y004300D02*
X024800Y004300D01*
X025050Y004550D01*
X027050Y004550D01*
X028050Y004550D01*
X029050Y004550D01*
X029050Y003550D02*
X028050Y003550D01*
X029050Y003550D01*
X028050Y003550D02*
X027050Y003550D01*
X025050Y003550D01*
X024800Y003300D01*
X024550Y003300D01*
X024800Y002550D02*
X024550Y002300D01*
X024800Y002550D02*
X027050Y002550D01*
X028050Y002550D01*
X029050Y002550D01*
X028050Y002550D01*
X025050Y005550D02*
X024800Y005300D01*
X024550Y005300D01*
X025050Y005550D02*
X027050Y005550D01*
X028050Y005550D01*
X029050Y005550D01*
X029050Y006550D02*
X028050Y006550D01*
X027050Y006550D01*
X024800Y006550D01*
X024550Y006300D01*
X024550Y007300D02*
X024800Y007300D01*
X025050Y007550D01*
X027050Y007550D01*
X028050Y007550D01*
X029050Y007550D01*
X029050Y008550D02*
X028050Y008550D01*
X027050Y008550D01*
X026800Y008300D01*
X024550Y008300D01*
X024550Y008550D01*
X024050Y009050D01*
X019800Y009050D01*
X019800Y007550D01*
X019050Y006800D01*
X018800Y006800D01*
X018800Y005300D01*
X019600Y003930D02*
X020550Y005050D01*
X020550Y006050D01*
X020800Y006300D01*
X021550Y006300D01*
X024050Y009050D02*
X024550Y008550D01*
X024050Y009050D02*
X024050Y009800D01*
X023300Y010550D01*
X023300Y016300D01*
X023800Y016800D01*
X024050Y016800D01*
X025300Y016800D01*
X024300Y016800D01*
X024300Y015800D02*
X025300Y015800D01*
X026300Y015800D01*
X026800Y015800D01*
X027800Y015800D01*
X028800Y015300D02*
X029300Y014800D01*
X030800Y014800D01*
X031800Y015300D02*
X031800Y013300D01*
X031300Y012800D01*
X030800Y012800D01*
X033300Y012300D02*
X030050Y009050D01*
X030050Y008550D01*
X029050Y008550D01*
X027800Y013800D02*
X026550Y013800D01*
X026300Y013800D01*
X025300Y013800D01*
X024300Y013800D01*
X024300Y014800D02*
X025300Y014800D01*
X026300Y014800D01*
X026550Y014800D01*
X027800Y014800D01*
X028800Y015300D02*
X028800Y019300D01*
X028550Y019550D01*
X027800Y019550D01*
X026300Y021050D01*
X023300Y021050D01*
X022331Y022019D01*
X022331Y022300D01*
X021331Y021300D01*
X016550Y021300D01*
X016081Y021769D01*
X016081Y022300D01*
X018050Y022300D02*
X020019Y022300D01*
X018050Y020300D02*
X016550Y020300D01*
X014300Y020300D01*
X014800Y019800D01*
X014800Y018800D01*
X014300Y018800D01*
X013300Y017800D01*
X013300Y017050D01*
X012050Y015800D01*
X011800Y015800D01*
X011800Y015550D01*
X011550Y015300D01*
X011550Y013050D01*
X011800Y012800D01*
X011050Y012050D01*
X011800Y011300D01*
X012300Y011300D01*
X012550Y011300D01*
X013550Y012300D01*
X016800Y012300D01*
X017800Y011300D01*
X018800Y009800D02*
X019050Y009800D01*
X019800Y009050D01*
X016680Y009040D02*
X015540Y009040D01*
X014800Y008300D01*
X014800Y009800D01*
X013050Y007800D02*
X012300Y008300D01*
X013050Y007800D02*
X014050Y007800D01*
X014800Y006800D02*
X014050Y006300D01*
X012300Y006300D01*
X012300Y005300D02*
X014800Y005300D01*
X011830Y003930D02*
X019600Y003930D01*
X011830Y003930D02*
X010800Y005050D01*
X010800Y009300D01*
X009800Y010300D01*
X009300Y010300D01*
X009300Y011300D01*
X008800Y012050D02*
X011050Y012050D01*
X008800Y012050D02*
X008300Y011550D01*
X008300Y010550D01*
X007550Y009800D01*
X007550Y008300D01*
X006800Y007550D01*
X003300Y007550D01*
X002300Y008550D01*
X002300Y009050D01*
X003300Y009050D02*
X006300Y009050D01*
X007050Y009800D02*
X007550Y009800D01*
X007050Y009800D02*
X006300Y010550D01*
X006300Y011800D01*
X005050Y011050D02*
X004300Y011800D01*
X003150Y011800D01*
X003050Y011700D01*
X005050Y011050D02*
X005050Y010050D01*
X004550Y006550D02*
X003300Y006550D01*
X004550Y006550D02*
X005050Y006050D01*
X004050Y005300D02*
X005050Y004300D01*
X005050Y003600D01*
X005100Y003550D01*
X004050Y005300D02*
X003300Y005300D01*
X003050Y013550D02*
X006050Y013550D01*
X006300Y013800D01*
X007800Y013800D01*
X008300Y014300D01*
X006800Y016550D02*
X006800Y017050D01*
X008550Y018800D01*
X010550Y018550D02*
X011300Y017800D01*
X011800Y017800D01*
X010550Y018550D02*
X010550Y021050D01*
X011800Y022300D01*
X013769Y022300D01*
X014800Y017800D02*
X015800Y017800D01*
X016550Y017050D01*
X016550Y016300D01*
X016300Y015550D02*
X017050Y014800D01*
X017050Y014550D01*
X016300Y015550D02*
X015050Y016800D01*
X014800Y016800D01*
X014800Y015800D02*
X014300Y015300D01*
X014300Y014300D01*
X018050Y016300D02*
X020550Y018800D01*
X021550Y018800D01*
X027300Y018800D01*
X027800Y018800D01*
X027800Y017800D01*
X029800Y016300D02*
X029800Y019331D01*
X028581Y022300D01*
X030550Y022300D02*
X032519Y022300D01*
X032519Y018081D01*
X032237Y017800D01*
X030800Y017800D01*
X030800Y016800D02*
X031550Y016800D01*
X032800Y015550D01*
X033300Y015050D01*
X033300Y013800D01*
X031800Y015300D02*
X031300Y015800D01*
X030800Y015800D01*
X030300Y015800D01*
X029800Y016300D01*
X032519Y018081D02*
X033050Y017550D01*
X033550Y017550D01*
X030800Y018800D02*
X030800Y019800D01*
X030300Y020300D01*
X006800Y020550D02*
X005300Y020550D01*
X005081Y020550D01*
X003331Y022300D01*
D26*
X016680Y009040D03*
X017300Y008050D03*
X018060Y006040D03*
X019410Y006050D03*
X014550Y004550D03*
X014050Y007800D03*
M02*
