%
M48
M72
T01C0.0276
T02C0.0354
T03C0.0591
T04C0.0748
T05C0.1102
%
T01
X3433Y5783
X3433Y7183
X3433Y8583
X8433Y8583
X8433Y7183
X8433Y5783
X18183Y5783
X18183Y7183
X18183Y8583
X23183Y8583
X23183Y7183
X23183Y5783
T02
X16598Y6848
X16598Y7769
X13769Y10598
X12848Y10598
X10019Y7769
X10019Y6848
X12848Y4019
X13769Y4019
T03
X14433Y1433
X12433Y1433
X1683Y6183
X1683Y8183
X24683Y8183
X24683Y6183
T04
X20683Y3253
X5933Y3253
X5933Y11113
X20683Y11113
T05
X1933Y1933
X1933Y10933
X24683Y10933
X24683Y1933
M30
