G75*
G70*
%OFA0B0*%
%FSLAX24Y24*%
%IPPOS*%
%LPD*%
%AMOC8*
5,1,8,0,0,1.08239X$1,22.5*
%
%ADD10C,0.1182*%
%ADD11C,0.0592*%
%ADD12C,0.0828*%
%ADD13R,0.0634X0.0634*%
%ADD14C,0.0634*%
%ADD15C,0.0966*%
D10*
X001933Y001933D03*
X001933Y010933D03*
X024683Y010933D03*
X024683Y001933D03*
D11*
X023183Y005783D03*
X023183Y007183D03*
X023183Y008583D03*
X018183Y008583D03*
X018183Y007183D03*
X018183Y005783D03*
X008433Y005783D03*
X008433Y007183D03*
X008433Y008583D03*
X003433Y008583D03*
X003433Y007183D03*
X003433Y005783D03*
D12*
X005933Y003253D03*
X020683Y003253D03*
X020683Y011113D03*
X005933Y011113D03*
D13*
G36*
X012400Y010598D02*
X012848Y011046D01*
X013296Y010598D01*
X012848Y010150D01*
X012400Y010598D01*
G37*
G36*
X016598Y008217D02*
X017046Y007769D01*
X016598Y007321D01*
X016150Y007769D01*
X016598Y008217D01*
G37*
G36*
X010019Y006400D02*
X009571Y006848D01*
X010019Y007296D01*
X010467Y006848D01*
X010019Y006400D01*
G37*
G36*
X014217Y004019D02*
X013769Y003571D01*
X013321Y004019D01*
X013769Y004467D01*
X014217Y004019D01*
G37*
D14*
X012848Y004019D03*
X016598Y006848D03*
X010019Y007769D03*
X013769Y010598D03*
D15*
X024683Y008183D03*
X024683Y006183D03*
X014433Y001433D03*
X012433Y001433D03*
X001683Y006183D03*
X001683Y008183D03*
M02*
