G75*
G70*
%OFA0B0*%
%FSLAX24Y24*%
%IPPOS*%
%LPD*%
%AMOC8*
5,1,8,0,0,1.08239X$1,22.5*
%
%ADD10C,0.0000*%
%ADD11OC8,0.0520*%
%ADD12OC8,0.0476*%
%ADD13C,0.0100*%
D10*
X000464Y000101D02*
X000464Y009277D01*
X009034Y009277D01*
X009034Y000101D01*
X000464Y000101D01*
X000949Y000751D02*
X000951Y000785D01*
X000957Y000819D01*
X000967Y000852D01*
X000980Y000883D01*
X000998Y000913D01*
X001018Y000941D01*
X001042Y000966D01*
X001068Y000988D01*
X001096Y001006D01*
X001127Y001022D01*
X001159Y001034D01*
X001193Y001042D01*
X001227Y001046D01*
X001261Y001046D01*
X001295Y001042D01*
X001329Y001034D01*
X001361Y001022D01*
X001391Y001006D01*
X001420Y000988D01*
X001446Y000966D01*
X001470Y000941D01*
X001490Y000913D01*
X001508Y000883D01*
X001521Y000852D01*
X001531Y000819D01*
X001537Y000785D01*
X001539Y000751D01*
X001537Y000717D01*
X001531Y000683D01*
X001521Y000650D01*
X001508Y000619D01*
X001490Y000589D01*
X001470Y000561D01*
X001446Y000536D01*
X001420Y000514D01*
X001392Y000496D01*
X001361Y000480D01*
X001329Y000468D01*
X001295Y000460D01*
X001261Y000456D01*
X001227Y000456D01*
X001193Y000460D01*
X001159Y000468D01*
X001127Y000480D01*
X001096Y000496D01*
X001068Y000514D01*
X001042Y000536D01*
X001018Y000561D01*
X000998Y000589D01*
X000980Y000619D01*
X000967Y000650D01*
X000957Y000683D01*
X000951Y000717D01*
X000949Y000751D01*
X008099Y000751D02*
X008101Y000785D01*
X008107Y000819D01*
X008117Y000852D01*
X008130Y000883D01*
X008148Y000913D01*
X008168Y000941D01*
X008192Y000966D01*
X008218Y000988D01*
X008246Y001006D01*
X008277Y001022D01*
X008309Y001034D01*
X008343Y001042D01*
X008377Y001046D01*
X008411Y001046D01*
X008445Y001042D01*
X008479Y001034D01*
X008511Y001022D01*
X008541Y001006D01*
X008570Y000988D01*
X008596Y000966D01*
X008620Y000941D01*
X008640Y000913D01*
X008658Y000883D01*
X008671Y000852D01*
X008681Y000819D01*
X008687Y000785D01*
X008689Y000751D01*
X008687Y000717D01*
X008681Y000683D01*
X008671Y000650D01*
X008658Y000619D01*
X008640Y000589D01*
X008620Y000561D01*
X008596Y000536D01*
X008570Y000514D01*
X008542Y000496D01*
X008511Y000480D01*
X008479Y000468D01*
X008445Y000460D01*
X008411Y000456D01*
X008377Y000456D01*
X008343Y000460D01*
X008309Y000468D01*
X008277Y000480D01*
X008246Y000496D01*
X008218Y000514D01*
X008192Y000536D01*
X008168Y000561D01*
X008148Y000589D01*
X008130Y000619D01*
X008117Y000650D01*
X008107Y000683D01*
X008101Y000717D01*
X008099Y000751D01*
X008099Y008681D02*
X008101Y008715D01*
X008107Y008749D01*
X008117Y008782D01*
X008130Y008813D01*
X008148Y008843D01*
X008168Y008871D01*
X008192Y008896D01*
X008218Y008918D01*
X008246Y008936D01*
X008277Y008952D01*
X008309Y008964D01*
X008343Y008972D01*
X008377Y008976D01*
X008411Y008976D01*
X008445Y008972D01*
X008479Y008964D01*
X008511Y008952D01*
X008541Y008936D01*
X008570Y008918D01*
X008596Y008896D01*
X008620Y008871D01*
X008640Y008843D01*
X008658Y008813D01*
X008671Y008782D01*
X008681Y008749D01*
X008687Y008715D01*
X008689Y008681D01*
X008687Y008647D01*
X008681Y008613D01*
X008671Y008580D01*
X008658Y008549D01*
X008640Y008519D01*
X008620Y008491D01*
X008596Y008466D01*
X008570Y008444D01*
X008542Y008426D01*
X008511Y008410D01*
X008479Y008398D01*
X008445Y008390D01*
X008411Y008386D01*
X008377Y008386D01*
X008343Y008390D01*
X008309Y008398D01*
X008277Y008410D01*
X008246Y008426D01*
X008218Y008444D01*
X008192Y008466D01*
X008168Y008491D01*
X008148Y008519D01*
X008130Y008549D01*
X008117Y008580D01*
X008107Y008613D01*
X008101Y008647D01*
X008099Y008681D01*
X000949Y008681D02*
X000951Y008715D01*
X000957Y008749D01*
X000967Y008782D01*
X000980Y008813D01*
X000998Y008843D01*
X001018Y008871D01*
X001042Y008896D01*
X001068Y008918D01*
X001096Y008936D01*
X001127Y008952D01*
X001159Y008964D01*
X001193Y008972D01*
X001227Y008976D01*
X001261Y008976D01*
X001295Y008972D01*
X001329Y008964D01*
X001361Y008952D01*
X001391Y008936D01*
X001420Y008918D01*
X001446Y008896D01*
X001470Y008871D01*
X001490Y008843D01*
X001508Y008813D01*
X001521Y008782D01*
X001531Y008749D01*
X001537Y008715D01*
X001539Y008681D01*
X001537Y008647D01*
X001531Y008613D01*
X001521Y008580D01*
X001508Y008549D01*
X001490Y008519D01*
X001470Y008491D01*
X001446Y008466D01*
X001420Y008444D01*
X001392Y008426D01*
X001361Y008410D01*
X001329Y008398D01*
X001295Y008390D01*
X001261Y008386D01*
X001227Y008386D01*
X001193Y008390D01*
X001159Y008398D01*
X001127Y008410D01*
X001096Y008426D01*
X001068Y008444D01*
X001042Y008466D01*
X001018Y008491D01*
X000998Y008519D01*
X000980Y008549D01*
X000967Y008580D01*
X000957Y008613D01*
X000951Y008647D01*
X000949Y008681D01*
D11*
X003384Y005081D03*
X003384Y004081D03*
X003384Y003081D03*
X003384Y002081D03*
X006384Y002081D03*
X006384Y003081D03*
X006384Y004081D03*
X006384Y005081D03*
D12*
X007274Y007061D03*
X007274Y008561D03*
X003274Y008561D03*
X003274Y007061D03*
X001434Y006591D03*
X001434Y007591D03*
X001314Y005041D03*
X001314Y004041D03*
X001314Y002691D03*
X001314Y001921D03*
X004384Y000841D03*
X005514Y000841D03*
D13*
X005504Y000901D01*
X003824Y002581D01*
X003824Y004661D01*
X003424Y005061D01*
X003384Y005081D01*
X003344Y005141D01*
X003344Y007061D01*
X003274Y007061D01*
X003664Y006821D02*
X003664Y008181D01*
X003344Y008501D01*
X003274Y008561D01*
X003664Y006821D02*
X006384Y004101D01*
X006384Y004081D01*
X006384Y003081D01*
X006384Y005081D02*
X006384Y007621D01*
X007264Y008501D01*
X007274Y008561D01*
X002944Y003381D02*
X002944Y002501D01*
X003344Y002101D01*
X003384Y002081D01*
X003424Y002021D01*
X003424Y001861D01*
X004384Y000901D01*
X004384Y000841D01*
X002944Y003381D02*
X001344Y004981D01*
X001314Y005041D01*
M02*
