G75*
G70*
%OFA0B0*%
%FSLAX24Y24*%
%IPPOS*%
%LPD*%
%AMOC8*
5,1,8,0,0,1.08239X$1,22.5*
%
%ADD10C,0.0040*%
%ADD11C,0.0020*%
%ADD12C,0.0060*%
%ADD13R,0.0150X0.0200*%
%ADD14C,0.0080*%
D10*
X001824Y001791D02*
X001824Y002031D01*
X002163Y002001D02*
X002163Y001881D01*
X002223Y001821D01*
X002464Y001821D01*
X002524Y001881D01*
X002524Y002001D01*
X002464Y002061D01*
X002223Y002061D01*
X002163Y002001D01*
X002163Y002189D02*
X002464Y002189D01*
X002524Y002249D01*
X002524Y002369D01*
X002464Y002429D01*
X002163Y002429D01*
X002163Y002557D02*
X002163Y002798D01*
X002163Y002677D02*
X002524Y002677D01*
X001934Y002691D02*
X001694Y002691D01*
X001814Y002811D02*
X001814Y002571D01*
X001963Y004151D02*
X001903Y004211D01*
X001903Y004331D01*
X001963Y004391D01*
X002084Y004331D02*
X002144Y004391D01*
X002204Y004391D01*
X002264Y004331D01*
X002264Y004211D01*
X002204Y004151D01*
X002084Y004211D02*
X002084Y004331D01*
X002084Y004211D02*
X002023Y004151D01*
X001963Y004151D01*
X001903Y004519D02*
X002264Y004519D01*
X002144Y004639D01*
X002264Y004759D01*
X001903Y004759D01*
X002023Y004887D02*
X001903Y005007D01*
X002264Y005007D01*
X002264Y004887D02*
X002264Y005128D01*
X002353Y006881D02*
X002594Y006881D01*
X002654Y006941D01*
X002654Y007061D01*
X002594Y007121D01*
X002654Y007249D02*
X002654Y007489D01*
X002654Y007369D02*
X002293Y007369D01*
X002413Y007249D01*
X002353Y007121D02*
X002293Y007061D01*
X002293Y006941D01*
X002353Y006881D01*
X004644Y004641D02*
X004644Y004341D01*
X004704Y004281D01*
X004824Y004281D01*
X004884Y004341D01*
X004884Y004641D01*
X005012Y004521D02*
X005132Y004641D01*
X005132Y004281D01*
X005012Y004281D02*
X005252Y004281D01*
X005360Y003991D02*
X005120Y003991D01*
X005120Y003811D01*
X005240Y003871D01*
X005300Y003871D01*
X005360Y003811D01*
X005360Y003691D01*
X005300Y003631D01*
X005180Y003631D01*
X005120Y003691D01*
X004992Y003691D02*
X004932Y003631D01*
X004812Y003631D01*
X004752Y003691D01*
X004752Y003811D02*
X004872Y003871D01*
X004932Y003871D01*
X004992Y003811D01*
X004992Y003691D01*
X004752Y003811D02*
X004752Y003991D01*
X004992Y003991D01*
X004624Y003991D02*
X004384Y003991D01*
X004384Y003811D01*
X004504Y003871D01*
X004564Y003871D01*
X004624Y003811D01*
X004624Y003691D01*
X004564Y003631D01*
X004444Y003631D01*
X004384Y003691D01*
X003854Y000941D02*
X003854Y000701D01*
X003734Y000821D02*
X003974Y000821D01*
X006074Y000821D02*
X006314Y000821D01*
X007103Y002941D02*
X007163Y002941D01*
X007224Y003001D01*
X007224Y003121D01*
X007284Y003181D01*
X007344Y003181D01*
X007404Y003121D01*
X007404Y003001D01*
X007344Y002941D01*
X007103Y002941D02*
X007043Y003001D01*
X007043Y003121D01*
X007103Y003181D01*
X007163Y003309D02*
X007344Y003309D01*
X007404Y003369D01*
X007404Y003549D01*
X007464Y003549D02*
X007524Y003489D01*
X007524Y003429D01*
X007464Y003549D02*
X007163Y003549D01*
X007163Y003677D02*
X007163Y003858D01*
X007224Y003918D01*
X007404Y003918D01*
X007344Y004106D02*
X007404Y004166D01*
X007344Y004106D02*
X007103Y004106D01*
X007163Y004046D02*
X007163Y004166D01*
X007224Y004291D02*
X007163Y004351D01*
X007163Y004471D01*
X007224Y004531D01*
X007404Y004531D01*
X007404Y004660D02*
X007163Y004660D01*
X007163Y004780D02*
X007163Y004840D01*
X007163Y004780D02*
X007284Y004660D01*
X007224Y004966D02*
X007344Y004966D01*
X007404Y005026D01*
X007404Y005147D01*
X007344Y005207D01*
X007224Y005207D01*
X007163Y005147D01*
X007163Y005026D01*
X007224Y004966D01*
X007163Y005335D02*
X007163Y005455D01*
X007103Y005395D02*
X007344Y005395D01*
X007404Y005455D01*
X007344Y005580D02*
X007224Y005580D01*
X007163Y005640D01*
X007163Y005760D01*
X007224Y005820D01*
X007284Y005820D01*
X007284Y005580D01*
X007344Y005580D02*
X007404Y005640D01*
X007404Y005760D01*
X007404Y005949D02*
X007043Y005949D01*
X007163Y006129D02*
X007284Y005949D01*
X007404Y006129D01*
X007404Y004291D02*
X007043Y004291D01*
X007163Y003677D02*
X007404Y003677D01*
X005512Y006881D02*
X005272Y006881D01*
X005512Y007121D01*
X005512Y007181D01*
X005452Y007241D01*
X005332Y007241D01*
X005272Y007181D01*
X005144Y007181D02*
X005144Y007061D01*
X005084Y007001D01*
X004904Y007001D01*
X005024Y007001D02*
X005144Y006881D01*
X004904Y006881D02*
X004904Y007241D01*
X005084Y007241D01*
X005144Y007181D01*
X005144Y008441D02*
X005024Y008561D01*
X005084Y008561D02*
X004904Y008561D01*
X004904Y008441D02*
X004904Y008801D01*
X005084Y008801D01*
X005144Y008741D01*
X005144Y008621D01*
X005084Y008561D01*
X005272Y008681D02*
X005392Y008801D01*
X005392Y008441D01*
X005272Y008441D02*
X005512Y008441D01*
D11*
X008207Y005656D02*
X008243Y005656D01*
X008317Y005656D02*
X008317Y005619D01*
X008317Y005656D02*
X008464Y005656D01*
X008464Y005619D02*
X008464Y005693D01*
X008464Y005767D02*
X008464Y005877D01*
X008427Y005913D01*
X008354Y005913D01*
X008317Y005877D01*
X008317Y005767D01*
X008243Y005767D02*
X008464Y005767D01*
X008464Y005988D02*
X008317Y005988D01*
X008390Y005988D02*
X008317Y006061D01*
X008317Y006098D01*
X008427Y006172D02*
X008390Y006208D01*
X008390Y006318D01*
X008354Y006318D02*
X008464Y006318D01*
X008464Y006208D01*
X008427Y006172D01*
X008317Y006208D02*
X008317Y006282D01*
X008354Y006318D01*
X008317Y006393D02*
X008317Y006466D01*
X008280Y006429D02*
X008427Y006429D01*
X008464Y006466D01*
X008427Y006540D02*
X008354Y006540D01*
X008317Y006577D01*
X008317Y006650D01*
X008354Y006687D01*
X008427Y006687D01*
X008464Y006650D01*
X008464Y006577D01*
X008427Y006540D01*
X008464Y006761D02*
X008317Y006761D01*
X008390Y006761D02*
X008317Y006834D01*
X008317Y006871D01*
X008317Y005545D02*
X008464Y005472D01*
X008317Y005398D01*
X008317Y005288D02*
X008464Y005288D01*
X008464Y005324D02*
X008464Y005251D01*
X008464Y005177D02*
X008427Y005140D01*
X008280Y005140D01*
X008317Y005104D02*
X008317Y005177D01*
X008317Y005251D02*
X008317Y005288D01*
X008243Y005288D02*
X008207Y005288D01*
X008243Y004993D02*
X008464Y004993D01*
X008464Y004956D02*
X008464Y005030D01*
X008464Y004882D02*
X008317Y004882D01*
X008243Y004956D02*
X008243Y004993D01*
X008464Y004882D02*
X008464Y004772D01*
X008427Y004735D01*
X008317Y004735D01*
X008243Y004661D02*
X008464Y004661D01*
X008464Y004514D02*
X008243Y004514D01*
X008317Y004588D01*
X008243Y004661D01*
X007934Y004709D02*
X007897Y004673D01*
X007934Y004709D02*
X007934Y004783D01*
X007897Y004820D01*
X007824Y004820D01*
X007787Y004783D01*
X007787Y004746D01*
X007824Y004673D01*
X007713Y004673D01*
X007713Y004820D01*
X007713Y004599D02*
X007713Y004452D01*
X007824Y004452D01*
X007787Y004525D01*
X007787Y004562D01*
X007824Y004599D01*
X007897Y004599D01*
X007934Y004562D01*
X007934Y004488D01*
X007897Y004452D01*
X007897Y004378D02*
X007824Y004378D01*
X007787Y004341D01*
X007787Y004304D01*
X007824Y004231D01*
X007713Y004231D01*
X007713Y004378D01*
X007897Y004378D02*
X007934Y004341D01*
X007934Y004267D01*
X007897Y004231D01*
X008243Y003962D02*
X008243Y003925D01*
X008243Y003962D02*
X008464Y003962D01*
X008464Y003998D02*
X008464Y003925D01*
X008427Y003851D02*
X008354Y003851D01*
X008317Y003814D01*
X008317Y003704D01*
X008243Y003704D02*
X008464Y003704D01*
X008464Y003814D01*
X008427Y003851D01*
X008427Y004072D02*
X008354Y004072D01*
X008317Y004109D01*
X008317Y004182D01*
X008354Y004219D01*
X008390Y004219D01*
X008390Y004072D01*
X008427Y004072D02*
X008464Y004109D01*
X008464Y004182D01*
X008464Y003630D02*
X008354Y003630D01*
X008317Y003593D01*
X008317Y003520D01*
X008390Y003520D02*
X008390Y003630D01*
X008464Y003630D02*
X008464Y003520D01*
X008427Y003483D01*
X008390Y003520D01*
X008317Y003409D02*
X008317Y003336D01*
X008280Y003372D02*
X008427Y003372D01*
X008464Y003409D01*
X008427Y003261D02*
X008390Y003225D01*
X008390Y003151D01*
X008354Y003115D01*
X008317Y003151D01*
X008317Y003261D01*
X008427Y003261D02*
X008464Y003225D01*
X008464Y003115D01*
X008427Y003041D02*
X008354Y003041D01*
X008317Y003004D01*
X008317Y002930D01*
X008354Y002894D01*
X008427Y002894D01*
X008464Y002930D01*
X008464Y003004D01*
X008427Y003041D01*
X008464Y002820D02*
X008354Y002820D01*
X008317Y002783D01*
X008317Y002673D01*
X008464Y002673D01*
X008427Y002599D02*
X008354Y002599D01*
X008317Y002562D01*
X008317Y002488D01*
X008354Y002452D01*
X008427Y002452D01*
X008464Y002488D01*
X008464Y002562D01*
X008427Y002599D01*
X008464Y002378D02*
X008243Y002378D01*
X008317Y002304D01*
X008243Y002231D01*
X008464Y002231D01*
D12*
X006034Y001581D02*
X003734Y001581D01*
X003734Y005581D01*
X004484Y005581D01*
X004486Y005542D01*
X004492Y005503D01*
X004501Y005465D01*
X004514Y005428D01*
X004531Y005392D01*
X004551Y005359D01*
X004575Y005327D01*
X004601Y005298D01*
X004630Y005272D01*
X004662Y005248D01*
X004695Y005228D01*
X004731Y005211D01*
X004768Y005198D01*
X004806Y005189D01*
X004845Y005183D01*
X004884Y005181D01*
X004923Y005183D01*
X004962Y005189D01*
X005000Y005198D01*
X005037Y005211D01*
X005073Y005228D01*
X005106Y005248D01*
X005138Y005272D01*
X005167Y005298D01*
X005193Y005327D01*
X005217Y005359D01*
X005237Y005392D01*
X005254Y005428D01*
X005267Y005465D01*
X005276Y005503D01*
X005282Y005542D01*
X005284Y005581D01*
X006034Y005581D01*
X006034Y001581D01*
X005880Y006661D02*
X006280Y006661D01*
X006297Y006663D01*
X006314Y006667D01*
X006330Y006674D01*
X006344Y006684D01*
X006357Y006697D01*
X006367Y006711D01*
X006374Y006727D01*
X006378Y006744D01*
X006380Y006761D01*
X006380Y007361D01*
X006378Y007378D01*
X006374Y007395D01*
X006367Y007411D01*
X006357Y007425D01*
X006344Y007438D01*
X006330Y007448D01*
X006314Y007455D01*
X006297Y007459D01*
X006280Y007461D01*
X005880Y007461D01*
X005830Y007411D01*
X004717Y007411D01*
X004667Y007461D01*
X004267Y007461D01*
X004250Y007459D01*
X004233Y007455D01*
X004217Y007448D01*
X004203Y007438D01*
X004190Y007425D01*
X004180Y007411D01*
X004173Y007395D01*
X004169Y007378D01*
X004167Y007361D01*
X004167Y006761D01*
X004169Y006744D01*
X004173Y006727D01*
X004180Y006711D01*
X004190Y006697D01*
X004203Y006684D01*
X004217Y006674D01*
X004233Y006667D01*
X004250Y006663D01*
X004267Y006661D01*
X004667Y006661D01*
X004717Y006711D01*
X005830Y006711D01*
X005880Y006661D01*
X005880Y008161D02*
X006280Y008161D01*
X006297Y008163D01*
X006314Y008167D01*
X006330Y008174D01*
X006344Y008184D01*
X006357Y008197D01*
X006367Y008211D01*
X006374Y008227D01*
X006378Y008244D01*
X006380Y008261D01*
X006380Y008861D01*
X006378Y008878D01*
X006374Y008895D01*
X006367Y008911D01*
X006357Y008925D01*
X006344Y008938D01*
X006330Y008948D01*
X006314Y008955D01*
X006297Y008959D01*
X006280Y008961D01*
X005880Y008961D01*
X005830Y008911D01*
X004717Y008911D01*
X004667Y008961D01*
X004267Y008961D01*
X004250Y008959D01*
X004233Y008955D01*
X004217Y008948D01*
X004203Y008938D01*
X004190Y008925D01*
X004180Y008911D01*
X004173Y008895D01*
X004169Y008878D01*
X004167Y008861D01*
X004167Y008261D01*
X004169Y008244D01*
X004173Y008227D01*
X004180Y008211D01*
X004190Y008197D01*
X004203Y008184D01*
X004217Y008174D01*
X004233Y008167D01*
X004250Y008163D01*
X004267Y008161D01*
X004667Y008161D01*
X004717Y008211D01*
X005830Y008211D01*
X005880Y008161D01*
X001434Y008075D02*
X001388Y008073D01*
X001342Y008068D01*
X001296Y008059D01*
X001251Y008046D01*
X001208Y008030D01*
X001166Y008011D01*
X001125Y007988D01*
X001087Y007962D01*
X001050Y007933D01*
X001016Y007902D01*
X000985Y007868D01*
X000956Y007831D01*
X000930Y007793D01*
X000907Y007752D01*
X000888Y007710D01*
X000872Y007667D01*
X000859Y007622D01*
X000850Y007576D01*
X000845Y007530D01*
X000843Y007484D01*
X001434Y008075D02*
X001480Y008073D01*
X001526Y008068D01*
X001572Y008059D01*
X001617Y008046D01*
X001660Y008030D01*
X001702Y008011D01*
X001743Y007988D01*
X001781Y007962D01*
X001818Y007933D01*
X001852Y007902D01*
X001883Y007868D01*
X001912Y007831D01*
X001938Y007793D01*
X001961Y007752D01*
X001980Y007710D01*
X001996Y007667D01*
X002009Y007622D01*
X002018Y007576D01*
X002023Y007530D01*
X002025Y007484D01*
X000843Y006697D02*
X000845Y006651D01*
X000850Y006605D01*
X000859Y006559D01*
X000872Y006514D01*
X000888Y006471D01*
X000907Y006429D01*
X000930Y006388D01*
X000956Y006350D01*
X000985Y006313D01*
X001016Y006279D01*
X001050Y006248D01*
X001087Y006219D01*
X001125Y006193D01*
X001166Y006170D01*
X001208Y006151D01*
X001251Y006135D01*
X001296Y006122D01*
X001342Y006113D01*
X001388Y006108D01*
X001434Y006106D01*
X001480Y006108D01*
X001526Y006113D01*
X001572Y006122D01*
X001617Y006135D01*
X001660Y006151D01*
X001702Y006170D01*
X001743Y006193D01*
X001781Y006219D01*
X001818Y006248D01*
X001852Y006279D01*
X001883Y006313D01*
X001912Y006350D01*
X001938Y006388D01*
X001961Y006429D01*
X001980Y006471D01*
X001996Y006514D01*
X002009Y006559D01*
X002018Y006605D01*
X002023Y006651D01*
X002025Y006697D01*
D13*
X004092Y007061D03*
X004092Y008561D03*
X006455Y008561D03*
X006455Y007061D03*
D14*
X002024Y006697D02*
X002024Y007484D01*
X000843Y007484D02*
X000843Y006697D01*
M02*
