G75*
G70*
%OFA0B0*%
%FSLAX24Y24*%
%IPPOS*%
%LPD*%
%AMOC8*
5,1,8,0,0,1.08239X$1,22.5*
%
%ADD10C,0.0060*%
%ADD11C,0.0080*%
%ADD12C,0.0050*%
%ADD13C,0.0010*%
%ADD14R,0.0200X0.0150*%
%ADD15R,0.0150X0.0200*%
%ADD16C,0.0020*%
%ADD17C,0.0100*%
%ADD18C,0.0030*%
%ADD19R,0.0200X0.0700*%
D10*
X003961Y002488D02*
X003961Y002658D01*
X004018Y002715D01*
X004131Y002715D01*
X004188Y002658D01*
X004188Y002488D01*
X004301Y002488D02*
X003961Y002488D01*
X004018Y002856D02*
X003961Y002913D01*
X003961Y003027D01*
X004018Y003083D01*
X004245Y003083D01*
X004301Y003027D01*
X004301Y002913D01*
X004245Y002856D01*
X004018Y002856D01*
X003961Y003225D02*
X003961Y003452D01*
X003961Y003338D02*
X004301Y003338D01*
X004301Y003593D02*
X004301Y003820D01*
X004301Y003707D02*
X003961Y003707D01*
X004075Y003593D01*
X006181Y001931D02*
X006181Y001731D01*
X006181Y001931D02*
X006381Y001931D01*
X006981Y001931D02*
X007181Y001931D01*
X007181Y001731D01*
X007181Y001131D02*
X007181Y000931D01*
X006981Y000931D01*
X006381Y000931D02*
X006181Y000931D01*
X006181Y001131D01*
X007931Y001131D02*
X007931Y000931D01*
X008131Y000931D01*
X008731Y000931D02*
X008931Y000931D01*
X008931Y001131D01*
X008931Y001731D02*
X008931Y001931D01*
X008731Y001931D01*
X008131Y001931D02*
X007931Y001931D01*
X007931Y001731D01*
X008038Y004531D02*
X008438Y004531D01*
X008455Y004533D01*
X008472Y004537D01*
X008488Y004544D01*
X008502Y004554D01*
X008515Y004567D01*
X008525Y004581D01*
X008532Y004597D01*
X008536Y004614D01*
X008538Y004631D01*
X008538Y005231D01*
X008536Y005248D01*
X008532Y005265D01*
X008525Y005281D01*
X008515Y005295D01*
X008502Y005308D01*
X008488Y005318D01*
X008472Y005325D01*
X008455Y005329D01*
X008438Y005331D01*
X008038Y005331D01*
X007988Y005281D01*
X006875Y005281D01*
X006825Y005331D01*
X006425Y005331D01*
X006408Y005329D01*
X006391Y005325D01*
X006375Y005318D01*
X006361Y005308D01*
X006348Y005295D01*
X006338Y005281D01*
X006331Y005265D01*
X006327Y005248D01*
X006325Y005231D01*
X006325Y004631D01*
X006327Y004614D01*
X006331Y004597D01*
X006338Y004581D01*
X006348Y004567D01*
X006361Y004554D01*
X006375Y004544D01*
X006391Y004537D01*
X006408Y004533D01*
X006425Y004531D01*
X006825Y004531D01*
X006875Y004581D01*
X007988Y004581D01*
X008038Y004531D01*
X007682Y004843D02*
X007682Y004900D01*
X007625Y004957D01*
X007568Y004957D01*
X007625Y004957D02*
X007682Y005013D01*
X007682Y005070D01*
X007625Y005127D01*
X007511Y005127D01*
X007455Y005070D01*
X007313Y005070D02*
X007313Y004957D01*
X007257Y004900D01*
X007086Y004900D01*
X007086Y004786D02*
X007086Y005127D01*
X007257Y005127D01*
X007313Y005070D01*
X007200Y004900D02*
X007313Y004786D01*
X007455Y004843D02*
X007511Y004786D01*
X007625Y004786D01*
X007682Y004843D01*
X008038Y006531D02*
X008438Y006531D01*
X008455Y006533D01*
X008472Y006537D01*
X008488Y006544D01*
X008502Y006554D01*
X008515Y006567D01*
X008525Y006581D01*
X008532Y006597D01*
X008536Y006614D01*
X008538Y006631D01*
X008538Y007231D01*
X008536Y007248D01*
X008532Y007265D01*
X008525Y007281D01*
X008515Y007295D01*
X008502Y007308D01*
X008488Y007318D01*
X008472Y007325D01*
X008455Y007329D01*
X008438Y007331D01*
X008038Y007331D01*
X007988Y007281D01*
X006875Y007281D01*
X006825Y007331D01*
X006425Y007331D01*
X006408Y007329D01*
X006391Y007325D01*
X006375Y007318D01*
X006361Y007308D01*
X006348Y007295D01*
X006338Y007281D01*
X006331Y007265D01*
X006327Y007248D01*
X006325Y007231D01*
X006325Y006631D01*
X006327Y006614D01*
X006331Y006597D01*
X006338Y006581D01*
X006348Y006567D01*
X006361Y006554D01*
X006375Y006544D01*
X006391Y006537D01*
X006408Y006533D01*
X006425Y006531D01*
X006825Y006531D01*
X006875Y006581D01*
X007988Y006581D01*
X008038Y006531D01*
X007700Y006786D02*
X007700Y007127D01*
X007530Y006957D01*
X007757Y006957D01*
X007388Y006957D02*
X007332Y006900D01*
X007161Y006900D01*
X007161Y006786D02*
X007161Y007127D01*
X007332Y007127D01*
X007388Y007070D01*
X007388Y006957D01*
X007275Y006900D02*
X007388Y006786D01*
X006281Y007681D02*
X008581Y007681D01*
X008581Y014681D01*
X007831Y014681D01*
X007829Y014642D01*
X007823Y014603D01*
X007814Y014565D01*
X007801Y014528D01*
X007784Y014492D01*
X007764Y014459D01*
X007740Y014427D01*
X007714Y014398D01*
X007685Y014372D01*
X007653Y014348D01*
X007620Y014328D01*
X007584Y014311D01*
X007547Y014298D01*
X007509Y014289D01*
X007470Y014283D01*
X007431Y014281D01*
X007392Y014283D01*
X007353Y014289D01*
X007315Y014298D01*
X007278Y014311D01*
X007242Y014328D01*
X007209Y014348D01*
X007177Y014372D01*
X007148Y014398D01*
X007122Y014427D01*
X007098Y014459D01*
X007078Y014492D01*
X007061Y014528D01*
X007048Y014565D01*
X007039Y014603D01*
X007033Y014642D01*
X007031Y014681D01*
X006281Y014681D01*
X006281Y007681D01*
X002545Y012061D02*
X002601Y012118D01*
X002601Y012232D01*
X002545Y012288D01*
X002318Y012288D01*
X002261Y012232D01*
X002261Y012118D01*
X002318Y012061D01*
X002545Y012061D01*
X002545Y012430D02*
X002261Y012430D01*
X002261Y012657D02*
X002545Y012657D01*
X002601Y012600D01*
X002601Y012486D01*
X002545Y012430D01*
X002261Y012798D02*
X002261Y013025D01*
X002261Y012911D02*
X002601Y012911D01*
X002021Y016193D02*
X002021Y017170D01*
X004842Y017170D01*
X004842Y016193D01*
X002021Y016193D01*
X003100Y016618D02*
X003156Y016561D01*
X003270Y016561D01*
X003327Y016618D01*
X003468Y016561D02*
X003695Y016561D01*
X003582Y016561D02*
X003582Y016902D01*
X003468Y016788D01*
X003327Y016845D02*
X003270Y016902D01*
X003156Y016902D01*
X003100Y016845D01*
X003100Y016618D01*
X001301Y018088D02*
X000961Y018088D01*
X000961Y018258D01*
X001018Y018315D01*
X001131Y018315D01*
X001188Y018258D01*
X001188Y018088D01*
X001245Y018456D02*
X001018Y018456D01*
X000961Y018513D01*
X000961Y018627D01*
X001018Y018683D01*
X001245Y018683D01*
X001301Y018627D01*
X001301Y018513D01*
X001245Y018456D01*
X000961Y018825D02*
X000961Y019052D01*
X000961Y018938D02*
X001301Y018938D01*
X001301Y019193D02*
X001075Y019420D01*
X001018Y019420D01*
X000961Y019363D01*
X000961Y019250D01*
X001018Y019193D01*
X001301Y019193D02*
X001301Y019420D01*
X006021Y015920D02*
X006021Y014943D01*
X008842Y014943D01*
X008842Y015920D01*
X006021Y015920D01*
X006575Y016381D02*
X006575Y016981D01*
X006577Y016998D01*
X006581Y017015D01*
X006588Y017031D01*
X006598Y017045D01*
X006611Y017058D01*
X006625Y017068D01*
X006641Y017075D01*
X006658Y017079D01*
X006675Y017081D01*
X007075Y017081D01*
X007125Y017031D01*
X008238Y017031D01*
X008288Y017081D01*
X008688Y017081D01*
X008705Y017079D01*
X008722Y017075D01*
X008738Y017068D01*
X008752Y017058D01*
X008765Y017045D01*
X008775Y017031D01*
X008782Y017015D01*
X008786Y016998D01*
X008788Y016981D01*
X008788Y016381D01*
X008786Y016364D01*
X008782Y016347D01*
X008775Y016331D01*
X008765Y016317D01*
X008752Y016304D01*
X008738Y016294D01*
X008722Y016287D01*
X008705Y016283D01*
X008688Y016281D01*
X008288Y016281D01*
X008238Y016331D01*
X007125Y016331D01*
X007075Y016281D01*
X006675Y016281D01*
X006658Y016283D01*
X006641Y016287D01*
X006625Y016294D01*
X006611Y016304D01*
X006598Y016317D01*
X006588Y016331D01*
X006581Y016347D01*
X006577Y016364D01*
X006575Y016381D01*
X007386Y016561D02*
X007386Y016902D01*
X007557Y016902D01*
X007613Y016845D01*
X007613Y016732D01*
X007557Y016675D01*
X007386Y016675D01*
X007500Y016675D02*
X007613Y016561D01*
X007755Y016561D02*
X007982Y016561D01*
X007868Y016561D02*
X007868Y016902D01*
X007755Y016788D01*
X010271Y017170D02*
X010271Y016193D01*
X013092Y016193D01*
X013092Y017170D01*
X010271Y017170D01*
X011361Y016795D02*
X011361Y016568D01*
X011418Y016511D01*
X011532Y016511D01*
X011588Y016568D01*
X011730Y016511D02*
X011957Y016738D01*
X011957Y016795D01*
X011900Y016852D01*
X011786Y016852D01*
X011730Y016795D01*
X011588Y016795D02*
X011532Y016852D01*
X011418Y016852D01*
X011361Y016795D01*
X011730Y016511D02*
X011957Y016511D01*
X013611Y018061D02*
X013611Y018232D01*
X013668Y018288D01*
X013781Y018288D01*
X013838Y018232D01*
X013838Y018061D01*
X013951Y018061D02*
X013611Y018061D01*
X013668Y018430D02*
X013895Y018430D01*
X013951Y018486D01*
X013951Y018600D01*
X013895Y018657D01*
X013668Y018657D01*
X013611Y018600D01*
X013611Y018486D01*
X013668Y018430D01*
X013611Y018798D02*
X013611Y019025D01*
X013611Y018911D02*
X013951Y018911D01*
X013895Y019166D02*
X013951Y019223D01*
X013951Y019336D01*
X013895Y019393D01*
X013838Y019393D01*
X013781Y019336D01*
X013781Y019280D01*
X013781Y019336D02*
X013725Y019393D01*
X013668Y019393D01*
X013611Y019336D01*
X013611Y019223D01*
X013668Y019166D01*
X011471Y008261D02*
X011471Y008001D01*
X011591Y008131D02*
X011341Y008131D01*
X009947Y007681D02*
X009949Y007743D01*
X009955Y007806D01*
X009965Y007867D01*
X009979Y007928D01*
X009996Y007988D01*
X010017Y008047D01*
X010043Y008104D01*
X010071Y008159D01*
X010103Y008213D01*
X010139Y008264D01*
X010177Y008314D01*
X010219Y008360D01*
X010263Y008404D01*
X010311Y008445D01*
X010360Y008483D01*
X010412Y008517D01*
X010466Y008548D01*
X010522Y008576D01*
X010580Y008600D01*
X010639Y008621D01*
X010699Y008637D01*
X010760Y008650D01*
X010822Y008659D01*
X010884Y008664D01*
X010947Y008665D01*
X011009Y008662D01*
X011071Y008655D01*
X011133Y008644D01*
X011193Y008629D01*
X011253Y008611D01*
X011311Y008589D01*
X011368Y008563D01*
X011423Y008533D01*
X011476Y008500D01*
X011527Y008464D01*
X011575Y008425D01*
X011621Y008382D01*
X011664Y008337D01*
X011704Y008289D01*
X011741Y008239D01*
X011775Y008186D01*
X011806Y008132D01*
X011832Y008076D01*
X011856Y008018D01*
X011875Y007958D01*
X011891Y007898D01*
X011903Y007836D01*
X011911Y007775D01*
X011915Y007712D01*
X011915Y007650D01*
X011911Y007587D01*
X011903Y007526D01*
X011891Y007464D01*
X011875Y007404D01*
X011856Y007344D01*
X011832Y007286D01*
X011806Y007230D01*
X011775Y007176D01*
X011741Y007123D01*
X011704Y007073D01*
X011664Y007025D01*
X011621Y006980D01*
X011575Y006937D01*
X011527Y006898D01*
X011476Y006862D01*
X011423Y006829D01*
X011368Y006799D01*
X011311Y006773D01*
X011253Y006751D01*
X011193Y006733D01*
X011133Y006718D01*
X011071Y006707D01*
X011009Y006700D01*
X010947Y006697D01*
X010884Y006698D01*
X010822Y006703D01*
X010760Y006712D01*
X010699Y006725D01*
X010639Y006741D01*
X010580Y006762D01*
X010522Y006786D01*
X010466Y006814D01*
X010412Y006845D01*
X010360Y006879D01*
X010311Y006917D01*
X010263Y006958D01*
X010219Y007002D01*
X010177Y007048D01*
X010139Y007098D01*
X010103Y007149D01*
X010071Y007203D01*
X010043Y007258D01*
X010017Y007315D01*
X009996Y007374D01*
X009979Y007434D01*
X009965Y007495D01*
X009955Y007556D01*
X009949Y007619D01*
X009947Y007681D01*
X010086Y007736D02*
X010086Y007850D01*
X010143Y007907D01*
X010200Y007907D01*
X010256Y007850D01*
X010313Y007907D01*
X010370Y007907D01*
X010426Y007850D01*
X010426Y007736D01*
X010370Y007680D01*
X010370Y007538D02*
X010426Y007482D01*
X010426Y007368D01*
X010370Y007311D01*
X010143Y007311D01*
X010086Y007368D01*
X010086Y007482D01*
X010143Y007538D01*
X010143Y007680D02*
X010086Y007736D01*
X010256Y007793D02*
X010256Y007850D01*
X010947Y005181D02*
X010949Y005243D01*
X010955Y005306D01*
X010965Y005367D01*
X010979Y005428D01*
X010996Y005488D01*
X011017Y005547D01*
X011043Y005604D01*
X011071Y005659D01*
X011103Y005713D01*
X011139Y005764D01*
X011177Y005814D01*
X011219Y005860D01*
X011263Y005904D01*
X011311Y005945D01*
X011360Y005983D01*
X011412Y006017D01*
X011466Y006048D01*
X011522Y006076D01*
X011580Y006100D01*
X011639Y006121D01*
X011699Y006137D01*
X011760Y006150D01*
X011822Y006159D01*
X011884Y006164D01*
X011947Y006165D01*
X012009Y006162D01*
X012071Y006155D01*
X012133Y006144D01*
X012193Y006129D01*
X012253Y006111D01*
X012311Y006089D01*
X012368Y006063D01*
X012423Y006033D01*
X012476Y006000D01*
X012527Y005964D01*
X012575Y005925D01*
X012621Y005882D01*
X012664Y005837D01*
X012704Y005789D01*
X012741Y005739D01*
X012775Y005686D01*
X012806Y005632D01*
X012832Y005576D01*
X012856Y005518D01*
X012875Y005458D01*
X012891Y005398D01*
X012903Y005336D01*
X012911Y005275D01*
X012915Y005212D01*
X012915Y005150D01*
X012911Y005087D01*
X012903Y005026D01*
X012891Y004964D01*
X012875Y004904D01*
X012856Y004844D01*
X012832Y004786D01*
X012806Y004730D01*
X012775Y004676D01*
X012741Y004623D01*
X012704Y004573D01*
X012664Y004525D01*
X012621Y004480D01*
X012575Y004437D01*
X012527Y004398D01*
X012476Y004362D01*
X012423Y004329D01*
X012368Y004299D01*
X012311Y004273D01*
X012253Y004251D01*
X012193Y004233D01*
X012133Y004218D01*
X012071Y004207D01*
X012009Y004200D01*
X011947Y004197D01*
X011884Y004198D01*
X011822Y004203D01*
X011760Y004212D01*
X011699Y004225D01*
X011639Y004241D01*
X011580Y004262D01*
X011522Y004286D01*
X011466Y004314D01*
X011412Y004345D01*
X011360Y004379D01*
X011311Y004417D01*
X011263Y004458D01*
X011219Y004502D01*
X011177Y004548D01*
X011139Y004598D01*
X011103Y004649D01*
X011071Y004703D01*
X011043Y004758D01*
X011017Y004815D01*
X010996Y004874D01*
X010979Y004934D01*
X010965Y004995D01*
X010955Y005056D01*
X010949Y005119D01*
X010947Y005181D01*
X011271Y004731D02*
X011521Y004731D01*
X011391Y004861D02*
X011391Y004601D01*
X011176Y003432D02*
X011176Y003205D01*
X011176Y003318D02*
X010836Y003318D01*
X010950Y003205D01*
X010893Y003063D02*
X010836Y003007D01*
X010836Y002836D01*
X011176Y002836D01*
X011176Y003007D01*
X011120Y003063D01*
X010893Y003063D01*
X010631Y001781D02*
X010631Y001431D01*
X010631Y001081D01*
X011731Y001081D01*
X011731Y001431D01*
X011731Y001781D01*
X010631Y001781D01*
X010631Y001431D02*
X010581Y001431D01*
X011731Y001431D02*
X011781Y001431D01*
X013281Y002425D02*
X013281Y002825D01*
X013331Y002875D01*
X013331Y003988D01*
X013281Y004038D01*
X013281Y004438D01*
X013283Y004455D01*
X013287Y004472D01*
X013294Y004488D01*
X013304Y004502D01*
X013317Y004515D01*
X013331Y004525D01*
X013347Y004532D01*
X013364Y004536D01*
X013381Y004538D01*
X013981Y004538D01*
X013998Y004536D01*
X014015Y004532D01*
X014031Y004525D01*
X014045Y004515D01*
X014058Y004502D01*
X014068Y004488D01*
X014075Y004472D01*
X014079Y004455D01*
X014081Y004438D01*
X014081Y004038D01*
X014031Y003988D01*
X014031Y002875D01*
X014081Y002825D01*
X014081Y002425D01*
X014079Y002408D01*
X014075Y002391D01*
X014068Y002375D01*
X014058Y002361D01*
X014045Y002348D01*
X014031Y002338D01*
X014015Y002331D01*
X013998Y002327D01*
X013981Y002325D01*
X013381Y002325D01*
X013364Y002327D01*
X013347Y002331D01*
X013331Y002338D01*
X013317Y002348D01*
X013304Y002361D01*
X013294Y002375D01*
X013287Y002391D01*
X013283Y002408D01*
X013281Y002425D01*
X013536Y003000D02*
X013536Y003170D01*
X013593Y003227D01*
X013706Y003227D01*
X013763Y003170D01*
X013763Y003000D01*
X013763Y003113D02*
X013876Y003227D01*
X013876Y003368D02*
X013650Y003595D01*
X013593Y003595D01*
X013536Y003538D01*
X013536Y003425D01*
X013593Y003368D01*
X013876Y003368D02*
X013876Y003595D01*
X013876Y003000D02*
X013536Y003000D01*
D11*
X007919Y012996D02*
X007639Y012996D01*
X007779Y012996D02*
X007779Y013417D01*
X007639Y013277D01*
X007459Y013347D02*
X007388Y013417D01*
X007248Y013417D01*
X007178Y013347D01*
X007178Y013066D01*
X007248Y012996D01*
X007388Y012996D01*
X007459Y013066D01*
X007012Y012996D02*
X006871Y012996D01*
X006941Y012996D02*
X006941Y013417D01*
X006871Y013417D02*
X007012Y013417D01*
X002198Y019806D02*
X002128Y019806D01*
X002198Y019806D02*
X002269Y019876D01*
X002269Y020227D01*
X002449Y020227D02*
X002449Y019946D01*
X002269Y019946D02*
X002058Y019946D01*
X001988Y020016D01*
X001988Y020227D01*
X001808Y020297D02*
X001738Y020367D01*
X001598Y020367D01*
X001528Y020297D01*
X001528Y020227D01*
X001598Y020157D01*
X001738Y020157D01*
X001808Y020087D01*
X001808Y020016D01*
X001738Y019946D01*
X001598Y019946D01*
X001528Y020016D01*
X002449Y020227D02*
X002659Y020227D01*
X002729Y020157D01*
X002729Y019946D01*
X002979Y020016D02*
X003049Y019946D01*
X002979Y020016D02*
X002979Y020297D01*
X002909Y020227D02*
X003049Y020227D01*
X003216Y020157D02*
X003286Y020227D01*
X003426Y020227D01*
X003496Y020157D01*
X003496Y019946D01*
X003216Y019946D02*
X003216Y020367D01*
X003676Y020227D02*
X003676Y019946D01*
X003676Y020087D02*
X003816Y020227D01*
X003886Y020227D01*
X004060Y020157D02*
X004060Y020016D01*
X004130Y019946D01*
X004270Y019946D01*
X004340Y020016D01*
X004340Y020157D01*
X004270Y020227D01*
X004130Y020227D01*
X004060Y020157D01*
X004520Y020227D02*
X004660Y020227D01*
X004590Y020297D02*
X004590Y020016D01*
X004660Y019946D01*
X004827Y020016D02*
X004827Y020157D01*
X004897Y020227D01*
X005037Y020227D01*
X005107Y020157D01*
X005107Y020087D01*
X004827Y020087D01*
X004827Y020016D02*
X004897Y019946D01*
X005037Y019946D01*
X005287Y019946D02*
X005287Y020367D01*
X005498Y020227D02*
X005287Y020087D01*
X005498Y019946D01*
D12*
X005981Y019981D02*
X005981Y020282D01*
X006132Y020432D01*
X006282Y020282D01*
X006282Y019981D01*
X006282Y020207D02*
X005981Y020207D01*
X006442Y020282D02*
X006592Y020282D01*
X006517Y020357D02*
X006517Y020056D01*
X006592Y019981D01*
X006749Y020056D02*
X006824Y020132D01*
X007049Y020132D01*
X007049Y020207D02*
X007049Y019981D01*
X006824Y019981D01*
X006749Y020056D01*
X006824Y020282D02*
X006974Y020282D01*
X007049Y020207D01*
X007209Y020282D02*
X007209Y019981D01*
X007209Y020132D02*
X007359Y020282D01*
X007434Y020282D01*
X007593Y020282D02*
X007668Y020282D01*
X007668Y019981D01*
X007593Y019981D02*
X007743Y019981D01*
X007431Y019681D02*
X007431Y017681D01*
X013431Y017681D01*
X013431Y019681D01*
X007431Y019681D01*
X007431Y017681D01*
X001431Y017681D01*
X001431Y019681D01*
X007431Y019681D01*
X007668Y020432D02*
X007668Y020507D01*
X008360Y020432D02*
X008360Y019981D01*
X008360Y020132D02*
X008585Y020132D01*
X008660Y020207D01*
X008660Y020357D01*
X008585Y020432D01*
X008360Y020432D01*
X008820Y020282D02*
X008820Y020056D01*
X008895Y019981D01*
X009120Y019981D01*
X009120Y020282D01*
X009281Y020282D02*
X009506Y020282D01*
X009581Y020207D01*
X009581Y019981D01*
X009741Y019981D02*
X009741Y020432D01*
X009966Y020282D02*
X009741Y020132D01*
X009966Y019981D01*
X010585Y020056D02*
X010660Y019981D01*
X010810Y019981D01*
X010885Y020056D01*
X011045Y020056D02*
X011045Y020207D01*
X011120Y020282D01*
X011270Y020282D01*
X011346Y020207D01*
X011346Y020056D01*
X011270Y019981D01*
X011120Y019981D01*
X011045Y020056D01*
X010885Y020357D02*
X010810Y020432D01*
X010660Y020432D01*
X010585Y020357D01*
X010585Y020056D01*
X011506Y019981D02*
X011506Y020282D01*
X011731Y020282D01*
X011806Y020207D01*
X011806Y019981D01*
X011966Y019981D02*
X012191Y019981D01*
X012266Y020056D01*
X012191Y020132D01*
X012041Y020132D01*
X011966Y020207D01*
X012041Y020282D01*
X012266Y020282D01*
X012426Y020207D02*
X012426Y020056D01*
X012501Y019981D01*
X012651Y019981D01*
X012727Y020056D01*
X012727Y020207D01*
X012651Y020282D01*
X012501Y020282D01*
X012426Y020207D01*
X012887Y020432D02*
X012962Y020432D01*
X012962Y019981D01*
X012887Y019981D02*
X013037Y019981D01*
X013194Y020056D02*
X013194Y020207D01*
X013269Y020282D01*
X013419Y020282D01*
X013494Y020207D01*
X013494Y020132D01*
X013194Y020132D01*
X013194Y020056D02*
X013269Y019981D01*
X013419Y019981D01*
X013328Y015257D02*
X013211Y015257D01*
X013270Y015257D02*
X013270Y014906D01*
X013328Y014906D02*
X013211Y014906D01*
X013457Y014906D02*
X013457Y015140D01*
X013632Y015140D01*
X013690Y015082D01*
X013690Y014906D01*
X014193Y014906D02*
X014427Y014906D01*
X014310Y014906D02*
X014310Y015257D01*
X014193Y015140D01*
X014181Y014681D02*
X014181Y011181D01*
X012431Y011181D01*
X012431Y014681D01*
X014181Y014681D01*
X012708Y015023D02*
X012708Y015257D01*
X012475Y015257D02*
X012475Y015023D01*
X012591Y014906D01*
X012708Y015023D01*
X012340Y014965D02*
X012282Y014906D01*
X012165Y014906D01*
X012106Y014965D01*
X012106Y015198D01*
X012165Y015257D01*
X012282Y015257D01*
X012340Y015198D01*
X012282Y010707D02*
X012165Y010707D01*
X012106Y010648D01*
X012106Y010415D01*
X012165Y010356D01*
X012282Y010356D01*
X012340Y010415D01*
X012475Y010473D02*
X012475Y010707D01*
X012340Y010648D02*
X012282Y010707D01*
X012475Y010473D02*
X012591Y010356D01*
X012708Y010473D01*
X012708Y010707D01*
X012431Y010181D02*
X014181Y010181D01*
X014181Y006681D01*
X012431Y006681D01*
X012431Y010181D01*
X013211Y010356D02*
X013328Y010356D01*
X013270Y010356D02*
X013270Y010707D01*
X013328Y010707D02*
X013211Y010707D01*
X013457Y010590D02*
X013457Y010356D01*
X013690Y010356D02*
X013690Y010532D01*
X013632Y010590D01*
X013457Y010590D01*
X014193Y010648D02*
X014252Y010707D01*
X014369Y010707D01*
X014427Y010648D01*
X014427Y010590D01*
X014193Y010356D01*
X014427Y010356D01*
X012523Y005533D02*
X012406Y005533D01*
X012348Y005475D01*
X012348Y005416D01*
X012406Y005300D01*
X012231Y005300D01*
X012231Y005533D01*
X012523Y005533D02*
X012581Y005475D01*
X012581Y005358D01*
X012523Y005300D01*
X012523Y005165D02*
X012581Y005107D01*
X012581Y004990D01*
X012523Y004931D01*
X012290Y004931D01*
X012231Y004990D01*
X012231Y005107D01*
X012290Y005165D01*
X010431Y004181D02*
X010431Y002181D01*
X004431Y002181D01*
X004431Y004181D01*
X010431Y004181D01*
X010845Y000857D02*
X011020Y000857D01*
X011078Y000798D01*
X011078Y000565D01*
X011020Y000506D01*
X010845Y000506D01*
X010845Y000857D01*
X011213Y000798D02*
X011271Y000857D01*
X011388Y000857D01*
X011447Y000798D01*
X011447Y000740D01*
X011213Y000506D01*
X011447Y000506D01*
X008858Y000381D02*
X008858Y000732D01*
X008741Y000498D02*
X008858Y000381D01*
X008741Y000498D02*
X008625Y000381D01*
X008625Y000732D01*
X008490Y000673D02*
X008432Y000732D01*
X008315Y000732D01*
X008256Y000673D01*
X008256Y000615D01*
X008315Y000557D01*
X008432Y000557D01*
X008490Y000498D01*
X008490Y000440D01*
X008432Y000381D01*
X008315Y000381D01*
X008256Y000440D01*
X007992Y000557D02*
X007875Y000557D01*
X007746Y000557D02*
X007630Y000557D01*
X007688Y000673D02*
X007688Y000381D01*
X007934Y000381D02*
X007934Y000673D01*
X007992Y000732D01*
X007746Y000732D02*
X007688Y000673D01*
X007495Y000673D02*
X007495Y000440D01*
X007436Y000381D01*
X007320Y000381D01*
X007261Y000440D01*
X007261Y000673D01*
X007320Y000732D01*
X007436Y000732D01*
X007495Y000673D01*
X007127Y000732D02*
X006893Y000381D01*
X006758Y000381D02*
X006758Y000557D01*
X006700Y000615D01*
X006525Y000615D01*
X006525Y000381D01*
X006390Y000440D02*
X006390Y000673D01*
X006332Y000732D01*
X006215Y000732D01*
X006156Y000673D01*
X006156Y000440D01*
X006215Y000381D01*
X006332Y000381D01*
X006390Y000440D01*
X002181Y010681D02*
X000431Y010681D01*
X000431Y014181D01*
X002181Y014181D01*
X002181Y010681D01*
X006856Y012340D02*
X006915Y012281D01*
X007032Y012281D01*
X007090Y012340D01*
X007090Y012457D01*
X007032Y012515D01*
X006973Y012515D01*
X006856Y012457D01*
X006856Y012632D01*
X007090Y012632D01*
X007225Y012632D02*
X007225Y012457D01*
X007341Y012515D01*
X007400Y012515D01*
X007458Y012457D01*
X007458Y012340D01*
X007400Y012281D01*
X007283Y012281D01*
X007225Y012340D01*
X007225Y012632D02*
X007458Y012632D01*
X007593Y012457D02*
X007768Y012457D01*
X007827Y012398D01*
X007827Y012340D01*
X007768Y012281D01*
X007651Y012281D01*
X007593Y012340D01*
X007593Y012457D01*
X007710Y012573D01*
X007827Y012632D01*
X007750Y015256D02*
X007750Y015607D01*
X007575Y015432D01*
X007808Y015432D01*
X007440Y015548D02*
X007382Y015607D01*
X007265Y015607D01*
X007206Y015548D01*
X007206Y015315D01*
X007265Y015256D01*
X007382Y015256D01*
X007440Y015315D01*
X009281Y019981D02*
X009281Y020282D01*
D13*
X003508Y007911D02*
X003527Y007892D01*
X003527Y007874D01*
X003508Y007911D02*
X003417Y007911D01*
X003490Y007911D02*
X003490Y007856D01*
X003472Y007837D01*
X003417Y007837D01*
X003417Y007800D02*
X003417Y007782D01*
X003453Y007745D01*
X003417Y007745D02*
X003490Y007745D01*
X003453Y007708D02*
X003453Y007635D01*
X003435Y007635D02*
X003417Y007653D01*
X003417Y007690D01*
X003435Y007708D01*
X003453Y007708D01*
X003490Y007690D02*
X003490Y007653D01*
X003472Y007635D01*
X003435Y007635D01*
X003417Y007598D02*
X003417Y007561D01*
X003398Y007579D02*
X003472Y007579D01*
X003490Y007598D01*
X003490Y007524D02*
X003472Y007506D01*
X003398Y007506D01*
X003417Y007487D02*
X003417Y007524D01*
X003435Y007450D02*
X003490Y007450D01*
X003490Y007395D01*
X003472Y007377D01*
X003453Y007395D01*
X003453Y007450D01*
X003435Y007450D02*
X003417Y007432D01*
X003417Y007395D01*
X003417Y007340D02*
X003435Y007322D01*
X003435Y007267D01*
X003435Y007322D02*
X003453Y007340D01*
X003472Y007340D01*
X003490Y007322D01*
X003490Y007267D01*
X003380Y007267D01*
X003380Y007322D01*
X003398Y007340D01*
X003417Y007340D01*
X003453Y007119D02*
X003380Y007119D01*
X003453Y007119D02*
X003490Y007082D01*
X003453Y007046D01*
X003380Y007046D01*
X003398Y007009D02*
X003380Y006990D01*
X003380Y006953D01*
X003398Y006935D01*
X003417Y006935D01*
X003435Y006953D01*
X003435Y007009D01*
X003472Y007009D02*
X003398Y007009D01*
X003472Y007009D02*
X003490Y006990D01*
X003490Y006953D01*
X003472Y006935D01*
X011450Y002508D02*
X011528Y002553D01*
X011528Y002552D02*
X011556Y002508D01*
X011587Y002466D01*
X011620Y002426D01*
X011656Y002388D01*
X011695Y002353D01*
X011736Y002321D01*
X011780Y002291D01*
X011825Y002265D01*
X011872Y002242D01*
X011920Y002222D01*
X011970Y002206D01*
X012020Y002193D01*
X012072Y002184D01*
X012124Y002178D01*
X012176Y002176D01*
X012177Y002087D01*
X012176Y002086D01*
X012121Y002088D01*
X012067Y002094D01*
X012012Y002103D01*
X011959Y002116D01*
X011907Y002132D01*
X011855Y002151D01*
X011805Y002174D01*
X011757Y002200D01*
X011710Y002229D01*
X011666Y002261D01*
X011623Y002296D01*
X011583Y002334D01*
X011546Y002374D01*
X011511Y002416D01*
X011479Y002461D01*
X011450Y002507D01*
X011458Y002512D01*
X011486Y002466D01*
X011518Y002422D01*
X011553Y002380D01*
X011590Y002340D01*
X011629Y002303D01*
X011671Y002268D01*
X011715Y002237D01*
X011761Y002208D01*
X011809Y002182D01*
X011859Y002160D01*
X011909Y002140D01*
X011961Y002124D01*
X012014Y002112D01*
X012068Y002103D01*
X012122Y002097D01*
X012176Y002095D01*
X012176Y002104D01*
X012122Y002106D01*
X012069Y002112D01*
X012016Y002121D01*
X011964Y002133D01*
X011912Y002149D01*
X011862Y002168D01*
X011813Y002190D01*
X011766Y002216D01*
X011720Y002244D01*
X011677Y002276D01*
X011635Y002310D01*
X011596Y002346D01*
X011559Y002386D01*
X011525Y002427D01*
X011494Y002471D01*
X011465Y002516D01*
X011473Y002521D01*
X011503Y002473D01*
X011537Y002427D01*
X011573Y002384D01*
X011613Y002343D01*
X011655Y002305D01*
X011699Y002270D01*
X011746Y002238D01*
X011795Y002210D01*
X011846Y002185D01*
X011899Y002163D01*
X011952Y002146D01*
X012007Y002132D01*
X012063Y002122D01*
X012119Y002115D01*
X012176Y002113D01*
X012176Y002122D01*
X012120Y002124D01*
X012064Y002130D01*
X012009Y002140D01*
X011955Y002154D01*
X011902Y002172D01*
X011850Y002193D01*
X011799Y002218D01*
X011751Y002246D01*
X011705Y002277D01*
X011660Y002312D01*
X011619Y002349D01*
X011580Y002390D01*
X011544Y002432D01*
X011511Y002478D01*
X011481Y002525D01*
X011489Y002530D01*
X011518Y002483D01*
X011551Y002438D01*
X011587Y002396D01*
X011625Y002356D01*
X011666Y002319D01*
X011710Y002284D01*
X011756Y002253D01*
X011804Y002226D01*
X011853Y002201D01*
X011905Y002180D01*
X011957Y002163D01*
X012011Y002149D01*
X012066Y002139D01*
X012121Y002133D01*
X012176Y002131D01*
X012176Y002140D01*
X012121Y002142D01*
X012067Y002148D01*
X012013Y002158D01*
X011960Y002172D01*
X011908Y002189D01*
X011857Y002209D01*
X011808Y002234D01*
X011761Y002261D01*
X011715Y002292D01*
X011672Y002325D01*
X011631Y002362D01*
X011593Y002402D01*
X011558Y002444D01*
X011526Y002488D01*
X011497Y002534D01*
X011505Y002539D01*
X011533Y002493D01*
X011565Y002449D01*
X011600Y002408D01*
X011638Y002369D01*
X011678Y002332D01*
X011720Y002299D01*
X011765Y002269D01*
X011812Y002241D01*
X011861Y002218D01*
X011911Y002197D01*
X011962Y002180D01*
X012015Y002167D01*
X012068Y002157D01*
X012122Y002151D01*
X012176Y002149D01*
X012176Y002158D01*
X012123Y002160D01*
X012069Y002166D01*
X012017Y002176D01*
X011965Y002189D01*
X011914Y002206D01*
X011864Y002226D01*
X011816Y002249D01*
X011770Y002276D01*
X011726Y002306D01*
X011684Y002339D01*
X011644Y002375D01*
X011607Y002414D01*
X011572Y002455D01*
X011541Y002498D01*
X011512Y002543D01*
X011520Y002548D01*
X011548Y002503D01*
X011579Y002460D01*
X011613Y002420D01*
X011650Y002382D01*
X011689Y002346D01*
X011731Y002314D01*
X011775Y002284D01*
X011821Y002257D01*
X011868Y002234D01*
X011917Y002214D01*
X011967Y002197D01*
X012019Y002184D01*
X012071Y002175D01*
X012123Y002169D01*
X012176Y002167D01*
X012185Y002087D02*
X012185Y002177D01*
X012186Y002176D02*
X012240Y002178D01*
X012293Y002184D01*
X012346Y002194D01*
X012398Y002208D01*
X012449Y002225D01*
X012499Y002246D01*
X012547Y002270D01*
X012593Y002298D01*
X012637Y002329D01*
X012678Y002363D01*
X012718Y002400D01*
X012754Y002439D01*
X012822Y002382D01*
X012823Y002381D01*
X012785Y002340D01*
X012745Y002302D01*
X012702Y002266D01*
X012657Y002233D01*
X012610Y002203D01*
X012562Y002177D01*
X012511Y002153D01*
X012459Y002133D01*
X012406Y002117D01*
X012352Y002103D01*
X012297Y002094D01*
X012242Y002088D01*
X012186Y002086D01*
X012186Y002095D01*
X012241Y002097D01*
X012296Y002103D01*
X012350Y002112D01*
X012404Y002125D01*
X012456Y002142D01*
X012508Y002161D01*
X012558Y002185D01*
X012606Y002211D01*
X012652Y002241D01*
X012697Y002273D01*
X012739Y002308D01*
X012779Y002347D01*
X012816Y002387D01*
X012809Y002393D01*
X012772Y002353D01*
X012733Y002315D01*
X012691Y002280D01*
X012647Y002248D01*
X012601Y002219D01*
X012553Y002193D01*
X012504Y002170D01*
X012453Y002150D01*
X012401Y002134D01*
X012348Y002121D01*
X012295Y002112D01*
X012240Y002106D01*
X012186Y002104D01*
X012186Y002113D01*
X012240Y002115D01*
X012293Y002121D01*
X012346Y002130D01*
X012399Y002143D01*
X012450Y002159D01*
X012501Y002178D01*
X012549Y002201D01*
X012597Y002226D01*
X012642Y002255D01*
X012686Y002287D01*
X012727Y002322D01*
X012766Y002359D01*
X012802Y002399D01*
X012795Y002405D01*
X012759Y002365D01*
X012721Y002328D01*
X012680Y002294D01*
X012637Y002263D01*
X012592Y002234D01*
X012545Y002209D01*
X012497Y002186D01*
X012447Y002167D01*
X012396Y002151D01*
X012345Y002139D01*
X012292Y002130D01*
X012239Y002124D01*
X012186Y002122D01*
X012186Y002131D01*
X012239Y002133D01*
X012291Y002139D01*
X012343Y002148D01*
X012394Y002160D01*
X012444Y002176D01*
X012494Y002195D01*
X012541Y002217D01*
X012588Y002242D01*
X012632Y002270D01*
X012674Y002301D01*
X012715Y002335D01*
X012753Y002372D01*
X012788Y002410D01*
X012782Y002416D01*
X012746Y002378D01*
X012709Y002342D01*
X012669Y002308D01*
X012627Y002278D01*
X012583Y002250D01*
X012537Y002225D01*
X012490Y002203D01*
X012441Y002184D01*
X012392Y002169D01*
X012341Y002156D01*
X012290Y002148D01*
X012238Y002142D01*
X012186Y002140D01*
X012186Y002149D01*
X012242Y002151D01*
X012297Y002158D01*
X012352Y002168D01*
X012406Y002182D01*
X012459Y002200D01*
X012510Y002222D01*
X012560Y002247D01*
X012608Y002276D01*
X012653Y002308D01*
X012696Y002343D01*
X012737Y002381D01*
X012775Y002422D01*
X012768Y002428D01*
X012731Y002387D01*
X012690Y002350D01*
X012648Y002315D01*
X012603Y002283D01*
X012555Y002255D01*
X012506Y002230D01*
X012455Y002208D01*
X012403Y002191D01*
X012350Y002177D01*
X012296Y002167D01*
X012241Y002160D01*
X012186Y002158D01*
X012186Y002167D01*
X012240Y002169D01*
X012295Y002175D01*
X012348Y002185D01*
X012401Y002199D01*
X012452Y002217D01*
X012502Y002238D01*
X012551Y002263D01*
X012598Y002291D01*
X012642Y002322D01*
X012684Y002356D01*
X012724Y002394D01*
X012761Y002434D01*
X012176Y003775D02*
X012176Y003685D01*
X012176Y003686D02*
X012122Y003684D01*
X012069Y003678D01*
X012016Y003668D01*
X011964Y003654D01*
X011913Y003637D01*
X011864Y003616D01*
X011816Y003592D01*
X011770Y003564D01*
X011726Y003533D01*
X011684Y003499D01*
X011645Y003463D01*
X011608Y003423D01*
X011575Y003381D01*
X011544Y003337D01*
X011517Y003291D01*
X011438Y003333D01*
X011466Y003382D01*
X011498Y003428D01*
X011533Y003473D01*
X011570Y003515D01*
X011611Y003554D01*
X011654Y003591D01*
X011699Y003625D01*
X011746Y003656D01*
X011796Y003683D01*
X011847Y003707D01*
X011899Y003728D01*
X011953Y003745D01*
X012008Y003758D01*
X012063Y003768D01*
X012120Y003774D01*
X012176Y003776D01*
X012176Y003767D01*
X012120Y003765D01*
X012065Y003759D01*
X012010Y003749D01*
X011955Y003736D01*
X011902Y003719D01*
X011850Y003699D01*
X011800Y003675D01*
X011751Y003648D01*
X011704Y003618D01*
X011659Y003584D01*
X011617Y003548D01*
X011577Y003509D01*
X011540Y003467D01*
X011505Y003423D01*
X011474Y003377D01*
X011446Y003329D01*
X011454Y003325D01*
X011482Y003372D01*
X011513Y003418D01*
X011547Y003461D01*
X011583Y003503D01*
X011623Y003541D01*
X011665Y003577D01*
X011709Y003610D01*
X011755Y003640D01*
X011804Y003667D01*
X011854Y003690D01*
X011905Y003711D01*
X011958Y003727D01*
X012011Y003740D01*
X012066Y003750D01*
X012121Y003756D01*
X012176Y003758D01*
X012176Y003749D01*
X012121Y003747D01*
X012067Y003741D01*
X012013Y003732D01*
X011960Y003719D01*
X011908Y003702D01*
X011857Y003682D01*
X011808Y003659D01*
X011760Y003632D01*
X011714Y003603D01*
X011670Y003570D01*
X011629Y003535D01*
X011590Y003496D01*
X011553Y003456D01*
X011520Y003413D01*
X011489Y003367D01*
X011462Y003320D01*
X011470Y003316D01*
X011497Y003363D01*
X011527Y003407D01*
X011560Y003450D01*
X011596Y003490D01*
X011635Y003528D01*
X011676Y003563D01*
X011719Y003595D01*
X011765Y003625D01*
X011812Y003651D01*
X011861Y003674D01*
X011911Y003694D01*
X011963Y003710D01*
X012015Y003723D01*
X012068Y003732D01*
X012122Y003738D01*
X012176Y003740D01*
X012176Y003731D01*
X012123Y003729D01*
X012069Y003723D01*
X012017Y003714D01*
X011965Y003701D01*
X011914Y003685D01*
X011864Y003666D01*
X011816Y003643D01*
X011769Y003617D01*
X011725Y003588D01*
X011682Y003556D01*
X011641Y003521D01*
X011603Y003484D01*
X011567Y003444D01*
X011534Y003402D01*
X011504Y003358D01*
X011477Y003312D01*
X011485Y003308D01*
X011512Y003353D01*
X011542Y003397D01*
X011574Y003438D01*
X011609Y003478D01*
X011647Y003515D01*
X011687Y003549D01*
X011730Y003581D01*
X011774Y003609D01*
X011820Y003635D01*
X011868Y003657D01*
X011917Y003677D01*
X011967Y003693D01*
X012019Y003705D01*
X012071Y003714D01*
X012123Y003720D01*
X012176Y003722D01*
X012176Y003713D01*
X012120Y003711D01*
X012065Y003704D01*
X012010Y003694D01*
X011956Y003680D01*
X011904Y003662D01*
X011852Y003641D01*
X011803Y003615D01*
X011755Y003587D01*
X011709Y003555D01*
X011666Y003520D01*
X011626Y003482D01*
X011588Y003441D01*
X011553Y003397D01*
X011522Y003351D01*
X011493Y003303D01*
X011501Y003299D01*
X011529Y003347D01*
X011560Y003392D01*
X011595Y003435D01*
X011632Y003475D01*
X011672Y003513D01*
X011715Y003548D01*
X011760Y003579D01*
X011807Y003608D01*
X011856Y003632D01*
X011907Y003654D01*
X011959Y003671D01*
X012012Y003685D01*
X012066Y003695D01*
X012121Y003702D01*
X012176Y003704D01*
X012176Y003695D01*
X012122Y003693D01*
X012068Y003687D01*
X012014Y003677D01*
X011962Y003663D01*
X011910Y003645D01*
X011860Y003624D01*
X011811Y003600D01*
X011765Y003572D01*
X011720Y003540D01*
X011678Y003506D01*
X011639Y003469D01*
X011602Y003429D01*
X011568Y003387D01*
X011537Y003342D01*
X011509Y003295D01*
X012826Y003475D02*
X012757Y003418D01*
X012758Y003418D02*
X012721Y003458D01*
X012682Y003496D01*
X012640Y003530D01*
X012596Y003562D01*
X012550Y003590D01*
X012501Y003615D01*
X012451Y003636D01*
X012400Y003654D01*
X012347Y003667D01*
X012294Y003677D01*
X012240Y003684D01*
X012186Y003686D01*
X012185Y003775D01*
X012186Y003776D01*
X012242Y003774D01*
X012298Y003768D01*
X012353Y003758D01*
X012408Y003745D01*
X012461Y003728D01*
X012514Y003708D01*
X012565Y003684D01*
X012614Y003657D01*
X012661Y003626D01*
X012706Y003593D01*
X012749Y003557D01*
X012789Y003518D01*
X012827Y003476D01*
X012820Y003470D01*
X012783Y003511D01*
X012743Y003550D01*
X012701Y003586D01*
X012656Y003619D01*
X012609Y003649D01*
X012561Y003676D01*
X012510Y003699D01*
X012458Y003720D01*
X012405Y003736D01*
X012351Y003749D01*
X012297Y003759D01*
X012242Y003765D01*
X012186Y003767D01*
X012186Y003758D01*
X012241Y003756D01*
X012296Y003750D01*
X012350Y003741D01*
X012403Y003728D01*
X012455Y003711D01*
X012507Y003691D01*
X012556Y003668D01*
X012605Y003641D01*
X012651Y003612D01*
X012695Y003579D01*
X012737Y003543D01*
X012776Y003505D01*
X012813Y003464D01*
X012806Y003459D01*
X012770Y003499D01*
X012731Y003537D01*
X012689Y003572D01*
X012646Y003604D01*
X012600Y003634D01*
X012552Y003660D01*
X012503Y003683D01*
X012453Y003703D01*
X012401Y003719D01*
X012348Y003732D01*
X012294Y003741D01*
X012240Y003747D01*
X012186Y003749D01*
X012186Y003740D01*
X012240Y003738D01*
X012293Y003732D01*
X012346Y003723D01*
X012398Y003710D01*
X012450Y003694D01*
X012500Y003675D01*
X012548Y003652D01*
X012595Y003626D01*
X012641Y003597D01*
X012684Y003565D01*
X012725Y003530D01*
X012763Y003493D01*
X012799Y003453D01*
X012792Y003447D01*
X012757Y003486D01*
X012719Y003523D01*
X012678Y003558D01*
X012635Y003589D01*
X012591Y003618D01*
X012544Y003644D01*
X012496Y003666D01*
X012447Y003686D01*
X012396Y003702D01*
X012344Y003714D01*
X012292Y003723D01*
X012239Y003729D01*
X012186Y003731D01*
X012186Y003722D01*
X012238Y003720D01*
X012291Y003714D01*
X012342Y003705D01*
X012393Y003693D01*
X012444Y003677D01*
X012493Y003658D01*
X012540Y003636D01*
X012586Y003610D01*
X012630Y003582D01*
X012672Y003551D01*
X012713Y003517D01*
X012750Y003480D01*
X012785Y003441D01*
X012779Y003435D01*
X012744Y003474D01*
X012706Y003510D01*
X012667Y003544D01*
X012625Y003575D01*
X012581Y003603D01*
X012536Y003628D01*
X012489Y003650D01*
X012441Y003669D01*
X012391Y003684D01*
X012341Y003697D01*
X012290Y003705D01*
X012238Y003711D01*
X012186Y003713D01*
X012186Y003704D01*
X012237Y003702D01*
X012288Y003697D01*
X012339Y003688D01*
X012389Y003676D01*
X012438Y003660D01*
X012485Y003642D01*
X012532Y003620D01*
X012577Y003595D01*
X012620Y003567D01*
X012661Y003537D01*
X012700Y003504D01*
X012737Y003468D01*
X012772Y003430D01*
X012765Y003424D01*
X012728Y003465D01*
X012688Y003503D01*
X012646Y003537D01*
X012601Y003569D01*
X012554Y003598D01*
X012505Y003623D01*
X012454Y003644D01*
X012403Y003662D01*
X012349Y003676D01*
X012295Y003686D01*
X012241Y003693D01*
X012186Y003695D01*
X011691Y002544D02*
X011731Y002575D01*
X011730Y002574D02*
X011761Y002539D01*
X011794Y002506D01*
X011829Y002476D01*
X011868Y002449D01*
X011908Y002425D01*
X011950Y002405D01*
X011993Y002388D01*
X012038Y002374D01*
X012083Y002364D01*
X012129Y002358D01*
X012176Y002356D01*
X012177Y002307D01*
X012176Y002306D01*
X012130Y002308D01*
X012083Y002314D01*
X012038Y002323D01*
X011993Y002335D01*
X011949Y002351D01*
X011906Y002370D01*
X011865Y002392D01*
X011826Y002417D01*
X011789Y002444D01*
X011754Y002475D01*
X011721Y002508D01*
X011691Y002543D01*
X011698Y002549D01*
X011728Y002514D01*
X011760Y002481D01*
X011794Y002451D01*
X011831Y002424D01*
X011870Y002399D01*
X011910Y002378D01*
X011952Y002359D01*
X011995Y002344D01*
X012040Y002331D01*
X012085Y002323D01*
X012130Y002317D01*
X012176Y002315D01*
X012176Y002324D01*
X012131Y002326D01*
X012086Y002331D01*
X012042Y002340D01*
X011998Y002352D01*
X011956Y002367D01*
X011914Y002386D01*
X011874Y002407D01*
X011836Y002431D01*
X011800Y002458D01*
X011766Y002488D01*
X011734Y002520D01*
X011705Y002554D01*
X011712Y002560D01*
X011744Y002523D01*
X011778Y002489D01*
X011815Y002458D01*
X011855Y002430D01*
X011897Y002405D01*
X011940Y002384D01*
X011985Y002366D01*
X012032Y002352D01*
X012079Y002342D01*
X012128Y002335D01*
X012176Y002333D01*
X012176Y002342D01*
X012128Y002344D01*
X012081Y002351D01*
X012034Y002361D01*
X011988Y002374D01*
X011944Y002392D01*
X011901Y002413D01*
X011860Y002437D01*
X011821Y002465D01*
X011784Y002496D01*
X011750Y002529D01*
X011719Y002565D01*
X011726Y002571D01*
X011757Y002535D01*
X011790Y002502D01*
X011826Y002472D01*
X011865Y002445D01*
X011905Y002421D01*
X011948Y002400D01*
X011991Y002383D01*
X012036Y002369D01*
X012082Y002359D01*
X012129Y002353D01*
X012176Y002351D01*
X012185Y002307D02*
X012185Y002357D01*
X012186Y002356D02*
X012233Y002358D01*
X012279Y002364D01*
X012324Y002374D01*
X012369Y002388D01*
X012412Y002405D01*
X012454Y002425D01*
X012494Y002449D01*
X012533Y002476D01*
X012568Y002506D01*
X012601Y002539D01*
X012632Y002574D01*
X012671Y002544D01*
X012671Y002543D01*
X012641Y002508D01*
X012608Y002475D01*
X012573Y002444D01*
X012536Y002417D01*
X012497Y002392D01*
X012456Y002370D01*
X012413Y002351D01*
X012369Y002335D01*
X012324Y002323D01*
X012279Y002314D01*
X012232Y002308D01*
X012186Y002306D01*
X012186Y002315D01*
X012232Y002317D01*
X012277Y002323D01*
X012322Y002331D01*
X012367Y002344D01*
X012410Y002359D01*
X012452Y002378D01*
X012492Y002399D01*
X012531Y002424D01*
X012568Y002451D01*
X012602Y002481D01*
X012634Y002514D01*
X012664Y002549D01*
X012657Y002554D01*
X012628Y002520D01*
X012596Y002488D01*
X012562Y002458D01*
X012526Y002431D01*
X012488Y002407D01*
X012448Y002386D01*
X012406Y002367D01*
X012364Y002352D01*
X012320Y002340D01*
X012276Y002331D01*
X012231Y002326D01*
X012186Y002324D01*
X012186Y002333D01*
X012234Y002335D01*
X012283Y002342D01*
X012330Y002352D01*
X012377Y002366D01*
X012422Y002384D01*
X012465Y002405D01*
X012507Y002430D01*
X012547Y002458D01*
X012584Y002489D01*
X012618Y002523D01*
X012650Y002560D01*
X012643Y002565D01*
X012612Y002529D01*
X012578Y002496D01*
X012541Y002465D01*
X012502Y002437D01*
X012461Y002413D01*
X012418Y002392D01*
X012374Y002374D01*
X012328Y002361D01*
X012281Y002351D01*
X012234Y002344D01*
X012186Y002342D01*
X012186Y002351D01*
X012233Y002353D01*
X012280Y002359D01*
X012326Y002369D01*
X012371Y002383D01*
X012414Y002400D01*
X012457Y002421D01*
X012497Y002445D01*
X012536Y002472D01*
X012572Y002502D01*
X012605Y002535D01*
X012636Y002571D01*
X012177Y003555D02*
X012177Y003505D01*
X012176Y003506D02*
X012132Y003504D01*
X012089Y003499D01*
X012046Y003490D01*
X012004Y003478D01*
X011964Y003463D01*
X011924Y003445D01*
X011886Y003424D01*
X011849Y003401D01*
X011814Y003374D01*
X011782Y003345D01*
X011752Y003314D01*
X011724Y003280D01*
X011685Y003309D01*
X011684Y003310D01*
X011714Y003347D01*
X011747Y003381D01*
X011782Y003412D01*
X011820Y003441D01*
X011860Y003467D01*
X011901Y003490D01*
X011945Y003510D01*
X011989Y003526D01*
X012035Y003539D01*
X012081Y003548D01*
X012129Y003554D01*
X012176Y003556D01*
X012176Y003547D01*
X012129Y003545D01*
X012083Y003539D01*
X012037Y003530D01*
X011992Y003517D01*
X011948Y003501D01*
X011906Y003482D01*
X011865Y003459D01*
X011825Y003434D01*
X011788Y003406D01*
X011753Y003374D01*
X011721Y003341D01*
X011691Y003305D01*
X011698Y003299D01*
X011728Y003335D01*
X011760Y003368D01*
X011794Y003399D01*
X011831Y003427D01*
X011869Y003452D01*
X011910Y003474D01*
X011951Y003493D01*
X011995Y003509D01*
X012039Y003521D01*
X012084Y003530D01*
X012130Y003536D01*
X012176Y003538D01*
X012176Y003529D01*
X012131Y003527D01*
X012086Y003521D01*
X012041Y003512D01*
X011998Y003500D01*
X011955Y003485D01*
X011914Y003466D01*
X011874Y003444D01*
X011836Y003419D01*
X011800Y003392D01*
X011766Y003361D01*
X011734Y003329D01*
X011706Y003294D01*
X011713Y003288D01*
X011741Y003323D01*
X011772Y003355D01*
X011806Y003385D01*
X011841Y003412D01*
X011878Y003436D01*
X011918Y003458D01*
X011958Y003476D01*
X012000Y003492D01*
X012043Y003504D01*
X012087Y003512D01*
X012131Y003518D01*
X012176Y003520D01*
X012176Y003511D01*
X012132Y003509D01*
X012088Y003504D01*
X012045Y003495D01*
X012003Y003483D01*
X011962Y003468D01*
X011922Y003450D01*
X011883Y003429D01*
X011846Y003405D01*
X011811Y003378D01*
X011778Y003349D01*
X011748Y003317D01*
X011720Y003283D01*
X012686Y003298D02*
X012645Y003269D01*
X012646Y003269D02*
X012618Y003304D01*
X012588Y003337D01*
X012555Y003368D01*
X012520Y003395D01*
X012483Y003420D01*
X012444Y003442D01*
X012404Y003461D01*
X012362Y003477D01*
X012319Y003489D01*
X012275Y003498D01*
X012231Y003504D01*
X012186Y003506D01*
X012185Y003555D01*
X012186Y003556D01*
X012235Y003554D01*
X012283Y003548D01*
X012331Y003538D01*
X012377Y003524D01*
X012423Y003507D01*
X012467Y003487D01*
X012509Y003463D01*
X012550Y003436D01*
X012588Y003405D01*
X012624Y003372D01*
X012657Y003337D01*
X012687Y003298D01*
X012679Y003293D01*
X012650Y003331D01*
X012617Y003366D01*
X012582Y003399D01*
X012544Y003428D01*
X012505Y003455D01*
X012463Y003479D01*
X012419Y003499D01*
X012375Y003516D01*
X012328Y003529D01*
X012281Y003539D01*
X012234Y003545D01*
X012186Y003547D01*
X012186Y003538D01*
X012233Y003536D01*
X012280Y003530D01*
X012326Y003520D01*
X012372Y003507D01*
X012416Y003491D01*
X012459Y003471D01*
X012500Y003447D01*
X012539Y003421D01*
X012576Y003392D01*
X012611Y003360D01*
X012643Y003325D01*
X012672Y003288D01*
X012665Y003283D01*
X012636Y003319D01*
X012604Y003353D01*
X012570Y003385D01*
X012534Y003414D01*
X012495Y003440D01*
X012455Y003463D01*
X012412Y003482D01*
X012369Y003499D01*
X012324Y003512D01*
X012279Y003521D01*
X012232Y003527D01*
X012186Y003529D01*
X012186Y003520D01*
X012232Y003518D01*
X012277Y003512D01*
X012322Y003503D01*
X012366Y003490D01*
X012409Y003474D01*
X012451Y003455D01*
X012490Y003432D01*
X012528Y003407D01*
X012564Y003378D01*
X012598Y003347D01*
X012629Y003313D01*
X012657Y003277D01*
X012650Y003272D01*
X012622Y003308D01*
X012592Y003341D01*
X012558Y003371D01*
X012523Y003399D01*
X012486Y003425D01*
X012446Y003447D01*
X012406Y003466D01*
X012363Y003482D01*
X012320Y003494D01*
X012276Y003503D01*
X012231Y003509D01*
X012186Y003511D01*
D14*
X013681Y004613D03*
X013681Y002250D03*
D15*
X008613Y004931D03*
X008613Y006931D03*
X006250Y006931D03*
X006250Y004931D03*
X006500Y016681D03*
X008863Y016681D03*
D16*
X007831Y019201D02*
X007757Y019201D01*
X007720Y019238D01*
X007794Y019311D02*
X007831Y019311D01*
X007867Y019275D01*
X007867Y019238D01*
X007831Y019201D01*
X007831Y019311D02*
X007867Y019348D01*
X007867Y019385D01*
X007831Y019422D01*
X007757Y019422D01*
X007720Y019385D01*
X007117Y019201D02*
X006970Y019201D01*
X007044Y019201D02*
X007044Y019422D01*
X006970Y019348D01*
X001999Y013381D02*
X001779Y013381D01*
X001779Y013308D02*
X001779Y013455D01*
X001840Y011405D02*
X001804Y011368D01*
X001804Y011295D01*
X001840Y011258D01*
X001877Y011258D01*
X001914Y011295D01*
X001914Y011368D01*
X001951Y011405D01*
X001987Y011405D01*
X002024Y011368D01*
X002024Y011295D01*
X001987Y011258D01*
X003381Y004404D02*
X003427Y004334D01*
X003474Y004404D01*
X003474Y004334D02*
X003334Y004334D01*
X003381Y004280D02*
X003381Y004210D01*
X003404Y004186D01*
X003451Y004186D01*
X003474Y004210D01*
X003474Y004280D01*
X003474Y004132D02*
X003474Y004062D01*
X003451Y004039D01*
X003427Y004062D01*
X003427Y004132D01*
X003404Y004132D02*
X003474Y004132D01*
X003404Y004132D02*
X003381Y004109D01*
X003381Y004062D01*
X003334Y003985D02*
X003334Y003938D01*
X003334Y003962D02*
X003451Y003962D01*
X003474Y003938D01*
X003474Y003915D01*
X003451Y003892D01*
X003451Y003690D02*
X003474Y003667D01*
X003474Y003620D01*
X003451Y003597D01*
X003357Y003597D01*
X003334Y003620D01*
X003334Y003667D01*
X003357Y003690D01*
X003357Y003543D02*
X003334Y003520D01*
X003334Y003450D01*
X003474Y003450D01*
X003474Y003520D01*
X003451Y003543D01*
X003357Y003543D01*
X004720Y003738D02*
X004757Y003701D01*
X004831Y003701D01*
X004867Y003738D01*
X004867Y003775D01*
X004831Y003811D01*
X004794Y003811D01*
X004831Y003811D02*
X004867Y003848D01*
X004867Y003885D01*
X004831Y003922D01*
X004757Y003922D01*
X004720Y003885D01*
X009970Y003848D02*
X010044Y003922D01*
X010044Y003701D01*
X010117Y003701D02*
X009970Y003701D01*
X012614Y007354D02*
X012614Y007501D01*
X012614Y007427D02*
X012834Y007427D01*
X012772Y009404D02*
X012809Y009441D01*
X012809Y009514D01*
X012772Y009551D01*
X012736Y009551D01*
X012699Y009514D01*
X012699Y009441D01*
X012662Y009404D01*
X012625Y009404D01*
X012589Y009441D01*
X012589Y009514D01*
X012625Y009551D01*
X012614Y011854D02*
X012614Y012001D01*
X012614Y011927D02*
X012834Y011927D01*
X012772Y013904D02*
X012809Y013941D01*
X012809Y014014D01*
X012772Y014051D01*
X012736Y014051D01*
X012699Y014014D01*
X012699Y013941D01*
X012662Y013904D01*
X012625Y013904D01*
X012589Y013941D01*
X012589Y014014D01*
X012625Y014051D01*
X012970Y019201D02*
X013117Y019201D01*
X013044Y019201D02*
X013044Y019422D01*
X012970Y019348D01*
X001867Y019348D02*
X001831Y019311D01*
X001867Y019275D01*
X001867Y019238D01*
X001831Y019201D01*
X001757Y019201D01*
X001720Y019238D01*
X001794Y019311D02*
X001831Y019311D01*
X001867Y019348D02*
X001867Y019385D01*
X001831Y019422D01*
X001757Y019422D01*
X001720Y019385D01*
D17*
X000431Y002006D02*
X003406Y002006D01*
X003406Y003314D01*
X003406Y004621D02*
X003406Y005856D01*
X000431Y005856D01*
X000431Y002006D01*
X000431Y006031D02*
X003406Y006031D01*
X003406Y006839D01*
X003406Y008111D02*
X003406Y008831D01*
X000431Y008831D01*
X000431Y006031D01*
X001896Y006546D02*
X001896Y006896D01*
X001896Y007956D02*
X001896Y008311D01*
X001721Y008136D02*
X002071Y008136D01*
D18*
X002021Y005183D02*
X002056Y005148D01*
X002056Y005078D01*
X002021Y005043D01*
X001951Y005078D02*
X001951Y005148D01*
X001986Y005183D01*
X002021Y005183D01*
X001951Y005078D02*
X001916Y005043D01*
X001881Y005043D01*
X001846Y005078D01*
X001846Y005148D01*
X001881Y005183D01*
X001881Y003948D02*
X001846Y003913D01*
X001846Y003843D01*
X001881Y003808D01*
X002021Y003808D01*
X002056Y003843D01*
X002056Y003913D01*
X002021Y003948D01*
X001951Y002723D02*
X001881Y002723D01*
X001846Y002688D01*
X001846Y002583D01*
X002056Y002583D01*
X001986Y002583D02*
X001986Y002688D01*
X001951Y002723D01*
D19*
X011481Y001431D03*
M02*
