G75*
G70*
%OFA0B0*%
%FSLAX24Y24*%
%IPPOS*%
%LPD*%
%AMOC8*
5,1,8,0,0,1.08239X$1,22.5*
%
%ADD10C,0.0000*%
%ADD11C,0.0554*%
%ADD12R,0.0554X0.0554*%
%ADD13C,0.0476*%
%ADD14C,0.1181*%
%ADD15R,0.0476X0.0476*%
%ADD16C,0.0520*%
%ADD17C,0.0945*%
%ADD18C,0.0886*%
%ADD19OC8,0.1000*%
%ADD20OC8,0.0520*%
%ADD21C,0.0320*%
%ADD22C,0.0160*%
D10*
X000181Y000181D02*
X000181Y020927D01*
X014681Y020931D01*
X014681Y000181D01*
X000181Y000181D01*
X000836Y002706D02*
X000838Y002740D01*
X000844Y002774D01*
X000854Y002807D01*
X000867Y002838D01*
X000885Y002868D01*
X000905Y002896D01*
X000929Y002921D01*
X000955Y002943D01*
X000983Y002961D01*
X001014Y002977D01*
X001046Y002989D01*
X001080Y002997D01*
X001114Y003001D01*
X001148Y003001D01*
X001182Y002997D01*
X001216Y002989D01*
X001248Y002977D01*
X001278Y002961D01*
X001307Y002943D01*
X001333Y002921D01*
X001357Y002896D01*
X001377Y002868D01*
X001395Y002838D01*
X001408Y002807D01*
X001418Y002774D01*
X001424Y002740D01*
X001426Y002706D01*
X001424Y002672D01*
X001418Y002638D01*
X001408Y002605D01*
X001395Y002574D01*
X001377Y002544D01*
X001357Y002516D01*
X001333Y002491D01*
X001307Y002469D01*
X001279Y002451D01*
X001248Y002435D01*
X001216Y002423D01*
X001182Y002415D01*
X001148Y002411D01*
X001114Y002411D01*
X001080Y002415D01*
X001046Y002423D01*
X001014Y002435D01*
X000983Y002451D01*
X000955Y002469D01*
X000929Y002491D01*
X000905Y002516D01*
X000885Y002544D01*
X000867Y002574D01*
X000854Y002605D01*
X000844Y002638D01*
X000838Y002672D01*
X000836Y002706D01*
X000836Y003931D02*
X000838Y003965D01*
X000844Y003999D01*
X000854Y004032D01*
X000867Y004063D01*
X000885Y004093D01*
X000905Y004121D01*
X000929Y004146D01*
X000955Y004168D01*
X000983Y004186D01*
X001014Y004202D01*
X001046Y004214D01*
X001080Y004222D01*
X001114Y004226D01*
X001148Y004226D01*
X001182Y004222D01*
X001216Y004214D01*
X001248Y004202D01*
X001278Y004186D01*
X001307Y004168D01*
X001333Y004146D01*
X001357Y004121D01*
X001377Y004093D01*
X001395Y004063D01*
X001408Y004032D01*
X001418Y003999D01*
X001424Y003965D01*
X001426Y003931D01*
X001424Y003897D01*
X001418Y003863D01*
X001408Y003830D01*
X001395Y003799D01*
X001377Y003769D01*
X001357Y003741D01*
X001333Y003716D01*
X001307Y003694D01*
X001279Y003676D01*
X001248Y003660D01*
X001216Y003648D01*
X001182Y003640D01*
X001148Y003636D01*
X001114Y003636D01*
X001080Y003640D01*
X001046Y003648D01*
X001014Y003660D01*
X000983Y003676D01*
X000955Y003694D01*
X000929Y003716D01*
X000905Y003741D01*
X000885Y003769D01*
X000867Y003799D01*
X000854Y003830D01*
X000844Y003863D01*
X000838Y003897D01*
X000836Y003931D01*
X000836Y005156D02*
X000838Y005190D01*
X000844Y005224D01*
X000854Y005257D01*
X000867Y005288D01*
X000885Y005318D01*
X000905Y005346D01*
X000929Y005371D01*
X000955Y005393D01*
X000983Y005411D01*
X001014Y005427D01*
X001046Y005439D01*
X001080Y005447D01*
X001114Y005451D01*
X001148Y005451D01*
X001182Y005447D01*
X001216Y005439D01*
X001248Y005427D01*
X001278Y005411D01*
X001307Y005393D01*
X001333Y005371D01*
X001357Y005346D01*
X001377Y005318D01*
X001395Y005288D01*
X001408Y005257D01*
X001418Y005224D01*
X001424Y005190D01*
X001426Y005156D01*
X001424Y005122D01*
X001418Y005088D01*
X001408Y005055D01*
X001395Y005024D01*
X001377Y004994D01*
X001357Y004966D01*
X001333Y004941D01*
X001307Y004919D01*
X001279Y004901D01*
X001248Y004885D01*
X001216Y004873D01*
X001182Y004865D01*
X001148Y004861D01*
X001114Y004861D01*
X001080Y004865D01*
X001046Y004873D01*
X001014Y004885D01*
X000983Y004901D01*
X000955Y004919D01*
X000929Y004941D01*
X000905Y004966D01*
X000885Y004994D01*
X000867Y005024D01*
X000854Y005055D01*
X000844Y005088D01*
X000838Y005122D01*
X000836Y005156D01*
X000698Y006731D02*
X000700Y006772D01*
X000706Y006813D01*
X000716Y006853D01*
X000729Y006892D01*
X000746Y006929D01*
X000767Y006965D01*
X000791Y006999D01*
X000818Y007030D01*
X000847Y007058D01*
X000880Y007084D01*
X000914Y007106D01*
X000951Y007125D01*
X000989Y007140D01*
X001029Y007152D01*
X001069Y007160D01*
X001110Y007164D01*
X001152Y007164D01*
X001193Y007160D01*
X001233Y007152D01*
X001273Y007140D01*
X001311Y007125D01*
X001347Y007106D01*
X001382Y007084D01*
X001415Y007058D01*
X001444Y007030D01*
X001471Y006999D01*
X001495Y006965D01*
X001516Y006929D01*
X001533Y006892D01*
X001546Y006853D01*
X001556Y006813D01*
X001562Y006772D01*
X001564Y006731D01*
X001562Y006690D01*
X001556Y006649D01*
X001546Y006609D01*
X001533Y006570D01*
X001516Y006533D01*
X001495Y006497D01*
X001471Y006463D01*
X001444Y006432D01*
X001415Y006404D01*
X001382Y006378D01*
X001348Y006356D01*
X001311Y006337D01*
X001273Y006322D01*
X001233Y006310D01*
X001193Y006302D01*
X001152Y006298D01*
X001110Y006298D01*
X001069Y006302D01*
X001029Y006310D01*
X000989Y006322D01*
X000951Y006337D01*
X000915Y006356D01*
X000880Y006378D01*
X000847Y006404D01*
X000818Y006432D01*
X000791Y006463D01*
X000767Y006497D01*
X000746Y006533D01*
X000729Y006570D01*
X000716Y006609D01*
X000706Y006649D01*
X000700Y006690D01*
X000698Y006731D01*
X000698Y008131D02*
X000700Y008172D01*
X000706Y008213D01*
X000716Y008253D01*
X000729Y008292D01*
X000746Y008329D01*
X000767Y008365D01*
X000791Y008399D01*
X000818Y008430D01*
X000847Y008458D01*
X000880Y008484D01*
X000914Y008506D01*
X000951Y008525D01*
X000989Y008540D01*
X001029Y008552D01*
X001069Y008560D01*
X001110Y008564D01*
X001152Y008564D01*
X001193Y008560D01*
X001233Y008552D01*
X001273Y008540D01*
X001311Y008525D01*
X001347Y008506D01*
X001382Y008484D01*
X001415Y008458D01*
X001444Y008430D01*
X001471Y008399D01*
X001495Y008365D01*
X001516Y008329D01*
X001533Y008292D01*
X001546Y008253D01*
X001556Y008213D01*
X001562Y008172D01*
X001564Y008131D01*
X001562Y008090D01*
X001556Y008049D01*
X001546Y008009D01*
X001533Y007970D01*
X001516Y007933D01*
X001495Y007897D01*
X001471Y007863D01*
X001444Y007832D01*
X001415Y007804D01*
X001382Y007778D01*
X001348Y007756D01*
X001311Y007737D01*
X001273Y007722D01*
X001233Y007710D01*
X001193Y007702D01*
X001152Y007698D01*
X001110Y007698D01*
X001069Y007702D01*
X001029Y007710D01*
X000989Y007722D01*
X000951Y007737D01*
X000915Y007756D01*
X000880Y007778D01*
X000847Y007804D01*
X000818Y007832D01*
X000791Y007863D01*
X000767Y007897D01*
X000746Y007933D01*
X000729Y007970D01*
X000716Y008009D01*
X000706Y008049D01*
X000700Y008090D01*
X000698Y008131D01*
D11*
X011681Y002931D03*
D12*
X012681Y002931D03*
D13*
X013681Y001431D03*
X013681Y005431D03*
X011931Y005681D03*
X010931Y007181D03*
X009431Y006931D03*
X009431Y004931D03*
X005431Y004931D03*
X005431Y006931D03*
X006431Y015431D03*
X005681Y016681D03*
X004431Y016681D03*
X002431Y016681D03*
X008431Y015431D03*
X009681Y016681D03*
X010681Y016681D03*
X012681Y016681D03*
D14*
X012400Y018681D03*
X010431Y018681D03*
X008463Y018681D03*
X006400Y018681D03*
X004431Y018681D03*
X002463Y018681D03*
X005463Y003181D03*
X007431Y003181D03*
X009400Y003181D03*
D15*
X011931Y004681D03*
X010931Y008181D03*
D16*
X009191Y008181D02*
X008671Y008181D01*
X008671Y009181D02*
X009191Y009181D01*
X009191Y010181D02*
X008671Y010181D01*
X008671Y011181D02*
X009191Y011181D01*
X009191Y012181D02*
X008671Y012181D01*
X008671Y013181D02*
X009191Y013181D01*
X009191Y014181D02*
X008671Y014181D01*
X006191Y014181D02*
X005671Y014181D01*
X005671Y013181D02*
X006191Y013181D01*
X006191Y012181D02*
X005671Y012181D01*
X005671Y011181D02*
X006191Y011181D01*
X006191Y010181D02*
X005671Y010181D01*
X005671Y009181D02*
X006191Y009181D01*
X006191Y008181D02*
X005671Y008181D01*
D17*
X002681Y008131D03*
X002681Y006731D03*
X002681Y005181D03*
X002681Y003931D03*
X002681Y002681D03*
D18*
X001181Y011431D03*
X001181Y013431D03*
X013431Y013931D03*
X013431Y011931D03*
X013431Y009431D03*
X013431Y007431D03*
D19*
X008431Y001431D03*
X006681Y001431D03*
D20*
X010181Y001431D03*
X012181Y001431D03*
D21*
X012181Y002431D01*
X011681Y002931D01*
X011681Y004431D01*
X011931Y004681D01*
X011681Y004681D01*
X010181Y006181D01*
X010181Y008931D01*
X008931Y010181D01*
X006681Y012181D02*
X007681Y013181D01*
X007681Y014681D01*
X007931Y014931D01*
X010431Y014931D01*
X013431Y011931D01*
X008463Y015463D02*
X008463Y018681D01*
X010431Y018681D02*
X012400Y018681D01*
X008463Y015463D02*
X008431Y015431D01*
X006681Y012181D02*
X005931Y012181D01*
X004431Y010931D02*
X004431Y006931D01*
X005431Y005931D01*
X006181Y005931D01*
X007431Y004681D01*
X007431Y003181D01*
X006681Y001431D02*
X005181Y001431D01*
X003681Y002931D01*
X003681Y004431D01*
X002931Y005181D01*
X002681Y005181D01*
X004431Y010931D02*
X001931Y013431D01*
X001181Y013431D01*
X008431Y001431D02*
X010181Y001431D01*
X012681Y002431D02*
X013681Y001431D01*
X012681Y002431D02*
X012681Y002931D01*
D22*
X013199Y002877D02*
X014201Y002877D01*
X014201Y003035D02*
X013199Y003035D01*
X013199Y003194D02*
X014201Y003194D01*
X014201Y003352D02*
X013154Y003352D01*
X013162Y003345D02*
X013095Y003412D01*
X013006Y003449D01*
X012356Y003449D01*
X012268Y003412D01*
X012201Y003345D01*
X012164Y003256D01*
X012164Y003117D01*
X012120Y003224D01*
X012081Y003263D01*
X012081Y004204D01*
X012217Y004204D01*
X012305Y004240D01*
X012373Y004308D01*
X012409Y004396D01*
X012409Y004967D01*
X012373Y005055D01*
X012305Y005123D01*
X012217Y005159D01*
X011769Y005159D01*
X010581Y006347D01*
X010581Y006856D01*
X010661Y006776D01*
X010836Y006704D01*
X011026Y006704D01*
X011202Y006776D01*
X011336Y006911D01*
X011409Y007086D01*
X011409Y007276D01*
X011336Y007452D01*
X011202Y007586D01*
X011026Y007659D01*
X010836Y007659D01*
X010661Y007586D01*
X010581Y007507D01*
X010581Y007730D01*
X010646Y007704D01*
X011217Y007704D01*
X011305Y007740D01*
X011373Y007808D01*
X011409Y007896D01*
X011409Y008467D01*
X011373Y008555D01*
X011305Y008623D01*
X011217Y008659D01*
X010646Y008659D01*
X010581Y008632D01*
X010581Y008852D01*
X010581Y009011D01*
X010520Y009158D01*
X009664Y010015D01*
X009691Y010082D01*
X009691Y010281D01*
X009615Y010465D01*
X009475Y010605D01*
X009291Y010681D01*
X008572Y010681D01*
X008388Y010605D01*
X008248Y010465D01*
X008171Y010281D01*
X008171Y010082D01*
X008248Y009898D01*
X008388Y009758D01*
X008572Y009681D01*
X008388Y009605D01*
X008248Y009465D01*
X008171Y009281D01*
X008171Y009082D01*
X008248Y008898D01*
X008388Y008758D01*
X008572Y008681D01*
X008388Y008605D01*
X008248Y008465D01*
X008171Y008281D01*
X008171Y008082D01*
X008248Y007898D01*
X008388Y007758D01*
X008572Y007681D01*
X009291Y007681D01*
X009475Y007758D01*
X009615Y007898D01*
X009691Y008082D01*
X009691Y008281D01*
X009615Y008465D01*
X009475Y008605D01*
X009291Y008681D01*
X008572Y008681D01*
X009291Y008681D01*
X009475Y008758D01*
X009615Y008898D01*
X009625Y008922D01*
X009781Y008766D01*
X009781Y007257D01*
X009702Y007336D01*
X009526Y007409D01*
X009336Y007409D01*
X009161Y007336D01*
X009026Y007202D01*
X008954Y007026D01*
X008954Y006836D01*
X009026Y006661D01*
X009161Y006526D01*
X009336Y006454D01*
X009526Y006454D01*
X009702Y006526D01*
X009781Y006606D01*
X009781Y006102D01*
X009842Y005955D01*
X009955Y005842D01*
X011283Y004514D01*
X011281Y004511D01*
X011281Y004352D01*
X011281Y003263D01*
X011243Y003224D01*
X011164Y003034D01*
X011164Y002829D01*
X011243Y002638D01*
X011388Y002493D01*
X011579Y002414D01*
X011633Y002414D01*
X011781Y002266D01*
X011781Y001739D01*
X011681Y001639D01*
X011681Y001224D01*
X011974Y000931D01*
X012389Y000931D01*
X012681Y001224D01*
X012681Y001639D01*
X012581Y001739D01*
X012581Y001966D01*
X013204Y001344D01*
X013204Y001336D01*
X013276Y001161D01*
X013411Y001026D01*
X013586Y000954D01*
X013776Y000954D01*
X013952Y001026D01*
X014086Y001161D01*
X014159Y001336D01*
X014159Y001526D01*
X014086Y001702D01*
X013952Y001836D01*
X013776Y001909D01*
X013769Y001909D01*
X013161Y002517D01*
X013162Y002518D01*
X013199Y002606D01*
X013199Y003256D01*
X013162Y003345D01*
X013199Y002718D02*
X014201Y002718D01*
X014201Y002560D02*
X013179Y002560D01*
X013277Y002401D02*
X014201Y002401D01*
X014201Y002242D02*
X013436Y002242D01*
X013595Y002084D02*
X014201Y002084D01*
X014201Y001925D02*
X013753Y001925D01*
X014022Y001767D02*
X014201Y001767D01*
X014201Y001608D02*
X014125Y001608D01*
X014159Y001450D02*
X014201Y001450D01*
X014201Y001291D02*
X014140Y001291D01*
X014201Y001133D02*
X014058Y001133D01*
X014201Y000974D02*
X013826Y000974D01*
X013537Y000974D02*
X012431Y000974D01*
X012590Y001133D02*
X013304Y001133D01*
X013222Y001291D02*
X012681Y001291D01*
X012681Y001450D02*
X013097Y001450D01*
X012939Y001608D02*
X012681Y001608D01*
X012581Y001767D02*
X012780Y001767D01*
X012622Y001925D02*
X012581Y001925D01*
X011781Y001925D02*
X010394Y001925D01*
X010389Y001931D02*
X009974Y001931D01*
X009874Y001831D01*
X009078Y001831D01*
X008738Y002171D01*
X008125Y002171D01*
X007691Y001738D01*
X007691Y001125D01*
X008125Y000691D01*
X008738Y000691D01*
X009078Y001031D01*
X009874Y001031D01*
X009974Y000931D01*
X010389Y000931D01*
X010681Y001224D01*
X010681Y001639D01*
X010389Y001931D01*
X010553Y001767D02*
X011781Y001767D01*
X011681Y001608D02*
X010681Y001608D01*
X010681Y001450D02*
X011681Y001450D01*
X011681Y001291D02*
X010681Y001291D01*
X010590Y001133D02*
X011773Y001133D01*
X011932Y000974D02*
X010431Y000974D01*
X009932Y000974D02*
X009021Y000974D01*
X008862Y000816D02*
X014201Y000816D01*
X014201Y000661D02*
X000661Y000661D01*
X000661Y002080D01*
X000692Y002049D01*
X000977Y001931D01*
X001286Y001931D01*
X001571Y002049D01*
X001789Y002267D01*
X001907Y002552D01*
X001907Y002861D01*
X001789Y003146D01*
X001615Y003319D01*
X001789Y003492D01*
X001907Y003777D01*
X001907Y004086D01*
X001789Y004371D01*
X001615Y004544D01*
X001789Y004717D01*
X001907Y005002D01*
X001907Y005311D01*
X001789Y005596D01*
X001571Y005814D01*
X001436Y005869D01*
X001649Y005957D01*
X001905Y006214D01*
X002044Y006550D01*
X002044Y006588D01*
X002062Y006521D01*
X002095Y006442D01*
X002138Y006368D01*
X002190Y006300D01*
X002250Y006240D01*
X002318Y006188D01*
X002392Y006145D01*
X002471Y006112D01*
X002554Y006090D01*
X002604Y006084D01*
X002604Y006654D01*
X002759Y006654D01*
X002759Y006809D01*
X002604Y006809D01*
X002604Y007379D01*
X002554Y007373D01*
X002471Y007351D01*
X002392Y007318D01*
X002318Y007275D01*
X002250Y007223D01*
X002190Y007162D01*
X002138Y007095D01*
X002095Y007021D01*
X002062Y006942D01*
X002044Y006875D01*
X002044Y006913D01*
X001905Y007249D01*
X001723Y007431D01*
X001905Y007614D01*
X002015Y007879D01*
X002077Y007728D01*
X002278Y007527D01*
X002540Y007419D01*
X002823Y007419D01*
X003085Y007527D01*
X003285Y007728D01*
X003394Y007990D01*
X003394Y008273D01*
X003285Y008535D01*
X003085Y008735D01*
X002823Y008844D01*
X002540Y008844D01*
X002278Y008735D01*
X002077Y008535D01*
X002015Y008384D01*
X001905Y008649D01*
X001649Y008905D01*
X001313Y009044D01*
X000950Y009044D01*
X000661Y008925D01*
X000661Y011087D01*
X000706Y011026D01*
X000776Y010956D01*
X000855Y010899D01*
X000942Y010854D01*
X001036Y010824D01*
X001114Y010811D01*
X001114Y011364D01*
X001249Y011364D01*
X001249Y011499D01*
X001114Y011499D01*
X001114Y012051D01*
X001036Y012039D01*
X000942Y012009D01*
X000855Y011964D01*
X000776Y011907D01*
X000706Y011837D01*
X000661Y011775D01*
X000661Y012986D01*
X000795Y012852D01*
X001046Y012749D01*
X001317Y012749D01*
X001568Y012852D01*
X001747Y013031D01*
X001766Y013031D01*
X004031Y010766D01*
X004031Y007011D01*
X004031Y006852D01*
X004092Y006705D01*
X005092Y005705D01*
X005205Y005592D01*
X005352Y005531D01*
X006016Y005531D01*
X007031Y004516D01*
X007031Y003915D01*
X006961Y003885D01*
X006727Y003652D01*
X006601Y003347D01*
X006601Y003016D01*
X006727Y002711D01*
X006961Y002477D01*
X007266Y002351D01*
X007597Y002351D01*
X007902Y002477D01*
X008135Y002711D01*
X008262Y003016D01*
X008262Y003347D01*
X008135Y003652D01*
X007902Y003885D01*
X007831Y003915D01*
X007831Y004761D01*
X007770Y004908D01*
X007658Y005020D01*
X006408Y006270D01*
X006261Y006331D01*
X006102Y006331D01*
X005597Y006331D01*
X005475Y006454D01*
X005526Y006454D01*
X005702Y006526D01*
X005836Y006661D01*
X005909Y006836D01*
X005909Y007026D01*
X005836Y007202D01*
X005702Y007336D01*
X005526Y007409D01*
X005336Y007409D01*
X005161Y007336D01*
X005026Y007202D01*
X004954Y007026D01*
X004954Y006975D01*
X004831Y007097D01*
X004831Y011011D01*
X004770Y011158D01*
X004658Y011270D01*
X002158Y013770D01*
X002011Y013831D01*
X001852Y013831D01*
X001747Y013831D01*
X001568Y014010D01*
X001317Y014114D01*
X001046Y014114D01*
X000795Y014010D01*
X000661Y013877D01*
X000661Y020448D01*
X014201Y020451D01*
X014201Y000661D01*
X012164Y003194D02*
X012132Y003194D01*
X012081Y003352D02*
X012209Y003352D01*
X012081Y003511D02*
X014201Y003511D01*
X014201Y003669D02*
X012081Y003669D01*
X012081Y003828D02*
X014201Y003828D01*
X014201Y003986D02*
X012081Y003986D01*
X012081Y004145D02*
X014201Y004145D01*
X014201Y004304D02*
X012369Y004304D01*
X012409Y004462D02*
X014201Y004462D01*
X014201Y004621D02*
X012409Y004621D01*
X012409Y004779D02*
X014201Y004779D01*
X014201Y004938D02*
X012409Y004938D01*
X012332Y005096D02*
X013432Y005096D01*
X013409Y005113D02*
X013462Y005074D01*
X013521Y005044D01*
X013584Y005024D01*
X013649Y005014D01*
X013681Y005014D01*
X013681Y005431D01*
X013264Y005431D01*
X013264Y005399D01*
X013274Y005334D01*
X013294Y005271D01*
X013324Y005212D01*
X013363Y005159D01*
X013409Y005113D01*
X013302Y005255D02*
X011674Y005255D01*
X011712Y005324D02*
X011659Y005363D01*
X011613Y005409D01*
X011574Y005462D01*
X011544Y005521D01*
X011524Y005584D01*
X011514Y005649D01*
X011514Y005681D01*
X011931Y005681D01*
X011931Y005682D01*
X011931Y006099D01*
X011899Y006099D01*
X011834Y006089D01*
X011771Y006069D01*
X011712Y006039D01*
X011659Y006000D01*
X011613Y005954D01*
X011574Y005900D01*
X011544Y005842D01*
X011524Y005779D01*
X011514Y005714D01*
X011514Y005682D01*
X011931Y005682D01*
X011932Y005682D01*
X011932Y006099D01*
X011964Y006099D01*
X012029Y006089D01*
X012092Y006069D01*
X012150Y006039D01*
X012204Y006000D01*
X012250Y005954D01*
X012289Y005900D01*
X012319Y005842D01*
X012339Y005779D01*
X012349Y005714D01*
X012349Y005682D01*
X011932Y005682D01*
X011932Y005681D01*
X012349Y005681D01*
X012349Y005649D01*
X012339Y005584D01*
X012319Y005521D01*
X012289Y005462D01*
X012250Y005409D01*
X012204Y005363D01*
X012150Y005324D01*
X012092Y005294D01*
X012029Y005274D01*
X011964Y005264D01*
X011932Y005264D01*
X011932Y005681D01*
X011931Y005681D01*
X011931Y005264D01*
X011899Y005264D01*
X011834Y005274D01*
X011771Y005294D01*
X011712Y005324D01*
X011610Y005413D02*
X011515Y005413D01*
X011528Y005572D02*
X011357Y005572D01*
X011198Y005730D02*
X011516Y005730D01*
X011568Y005889D02*
X011039Y005889D01*
X010881Y006048D02*
X011730Y006048D01*
X011931Y006048D02*
X011932Y006048D01*
X011931Y005889D02*
X011932Y005889D01*
X011931Y005730D02*
X011932Y005730D01*
X011931Y005572D02*
X011932Y005572D01*
X011931Y005413D02*
X011932Y005413D01*
X012253Y005413D02*
X013264Y005413D01*
X013264Y005432D02*
X013681Y005432D01*
X013681Y005849D01*
X013649Y005849D01*
X013584Y005839D01*
X013521Y005819D01*
X013462Y005789D01*
X013409Y005750D01*
X013363Y005704D01*
X013324Y005650D01*
X013294Y005592D01*
X013274Y005529D01*
X013264Y005464D01*
X013264Y005432D01*
X013288Y005572D02*
X012335Y005572D01*
X012347Y005730D02*
X013390Y005730D01*
X013681Y005730D02*
X013682Y005730D01*
X013682Y005849D02*
X013682Y005432D01*
X013681Y005432D01*
X013681Y005431D01*
X013682Y005431D01*
X013682Y005432D01*
X014099Y005432D01*
X014099Y005464D01*
X014089Y005529D01*
X014069Y005592D01*
X014039Y005650D01*
X014000Y005704D01*
X013954Y005750D01*
X013900Y005789D01*
X013842Y005819D01*
X013779Y005839D01*
X013714Y005849D01*
X013682Y005849D01*
X013681Y005572D02*
X013682Y005572D01*
X013682Y005431D02*
X014099Y005431D01*
X014099Y005399D01*
X014089Y005334D01*
X014069Y005271D01*
X014039Y005212D01*
X014000Y005159D01*
X013954Y005113D01*
X013900Y005074D01*
X013842Y005044D01*
X013779Y005024D01*
X013714Y005014D01*
X013682Y005014D01*
X013682Y005431D01*
X013681Y005413D02*
X013682Y005413D01*
X013681Y005255D02*
X013682Y005255D01*
X013681Y005096D02*
X013682Y005096D01*
X013931Y005096D02*
X014201Y005096D01*
X014201Y005255D02*
X014060Y005255D01*
X014099Y005413D02*
X014201Y005413D01*
X014201Y005572D02*
X014075Y005572D01*
X013973Y005730D02*
X014201Y005730D01*
X014201Y005889D02*
X012295Y005889D01*
X012133Y006048D02*
X014201Y006048D01*
X014201Y006206D02*
X010722Y006206D01*
X010581Y006365D02*
X014201Y006365D01*
X014201Y006523D02*
X010581Y006523D01*
X010581Y006682D02*
X014201Y006682D01*
X014201Y006840D02*
X013789Y006840D01*
X013818Y006852D02*
X014010Y007045D01*
X014114Y007296D01*
X014114Y007567D01*
X014010Y007818D01*
X013818Y008010D01*
X013567Y008114D01*
X013296Y008114D01*
X013045Y008010D01*
X012852Y007818D01*
X012749Y007567D01*
X012749Y007296D01*
X012852Y007045D01*
X013045Y006852D01*
X013296Y006749D01*
X013567Y006749D01*
X013818Y006852D01*
X013965Y006999D02*
X014201Y006999D01*
X014201Y007157D02*
X014057Y007157D01*
X014114Y007316D02*
X014201Y007316D01*
X014201Y007474D02*
X014114Y007474D01*
X014087Y007633D02*
X014201Y007633D01*
X014201Y007791D02*
X014021Y007791D01*
X013879Y007950D02*
X014201Y007950D01*
X014201Y008109D02*
X013581Y008109D01*
X013282Y008109D02*
X011409Y008109D01*
X011409Y008267D02*
X014201Y008267D01*
X014201Y008426D02*
X011409Y008426D01*
X011344Y008584D02*
X014201Y008584D01*
X014201Y008743D02*
X010581Y008743D01*
X010581Y008901D02*
X013101Y008901D01*
X013105Y008899D02*
X013192Y008854D01*
X013286Y008824D01*
X013364Y008811D01*
X013364Y009364D01*
X012811Y009364D01*
X012824Y009286D01*
X012854Y009192D01*
X012899Y009105D01*
X012956Y009026D01*
X013026Y008956D01*
X013105Y008899D01*
X013364Y008901D02*
X013499Y008901D01*
X013499Y008811D02*
X013577Y008824D01*
X013671Y008854D01*
X013758Y008899D01*
X013837Y008956D01*
X013907Y009026D01*
X013964Y009105D01*
X014009Y009192D01*
X014039Y009286D01*
X014051Y009364D01*
X013499Y009364D01*
X013499Y009499D01*
X013364Y009499D01*
X013364Y010051D01*
X013286Y010039D01*
X013192Y010009D01*
X013105Y009964D01*
X013026Y009907D01*
X012956Y009837D01*
X012899Y009758D01*
X012854Y009671D01*
X012824Y009577D01*
X012811Y009499D01*
X013364Y009499D01*
X013364Y009364D01*
X013499Y009364D01*
X013499Y008811D01*
X013499Y009060D02*
X013364Y009060D01*
X013364Y009218D02*
X013499Y009218D01*
X013499Y009377D02*
X014201Y009377D01*
X014201Y009535D02*
X014046Y009535D01*
X014051Y009499D02*
X014039Y009577D01*
X014009Y009671D01*
X013964Y009758D01*
X013907Y009837D01*
X013837Y009907D01*
X013758Y009964D01*
X013671Y010009D01*
X013577Y010039D01*
X013499Y010051D01*
X013499Y009499D01*
X014051Y009499D01*
X013997Y009694D02*
X014201Y009694D01*
X014201Y009853D02*
X013891Y009853D01*
X013663Y010011D02*
X014201Y010011D01*
X014201Y010170D02*
X009691Y010170D01*
X009672Y010328D02*
X014201Y010328D01*
X014201Y010487D02*
X009593Y010487D01*
X009475Y010758D02*
X009615Y010898D01*
X009691Y011082D01*
X009691Y011281D01*
X009615Y011465D01*
X009475Y011605D01*
X009291Y011681D01*
X008572Y011681D01*
X008388Y011605D01*
X008248Y011465D01*
X008171Y011281D01*
X008171Y011082D01*
X008248Y010898D01*
X008388Y010758D01*
X008572Y010681D01*
X009291Y010681D01*
X009475Y010758D01*
X009521Y010804D02*
X014201Y010804D01*
X014201Y010962D02*
X009642Y010962D01*
X009691Y011121D02*
X014201Y011121D01*
X014201Y011279D02*
X013642Y011279D01*
X013567Y011249D02*
X013818Y011352D01*
X014010Y011545D01*
X014114Y011796D01*
X014114Y012067D01*
X014010Y012318D01*
X013818Y012510D01*
X013567Y012614D01*
X013314Y012614D01*
X010658Y015270D01*
X010511Y015331D01*
X010352Y015331D01*
X008907Y015331D01*
X008909Y015336D01*
X008909Y015526D01*
X008863Y015638D01*
X008863Y017948D01*
X008933Y017977D01*
X009167Y018211D01*
X009293Y018516D01*
X009293Y018847D01*
X009167Y019152D01*
X008933Y019385D01*
X008628Y019512D01*
X008298Y019512D01*
X007992Y019385D01*
X007759Y019152D01*
X007632Y018847D01*
X007632Y018516D01*
X007759Y018211D01*
X007992Y017977D01*
X008063Y017948D01*
X008063Y015739D01*
X008026Y015702D01*
X007954Y015526D01*
X007954Y015336D01*
X007956Y015331D01*
X007852Y015331D01*
X007705Y015270D01*
X007592Y015158D01*
X007342Y014908D01*
X007281Y014761D01*
X007281Y014602D01*
X007281Y013347D01*
X006516Y012581D01*
X006499Y012581D01*
X006475Y012605D01*
X006291Y012681D01*
X005572Y012681D01*
X005388Y012605D01*
X005248Y012465D01*
X005171Y012281D01*
X005171Y012082D01*
X005248Y011898D01*
X005388Y011758D01*
X005572Y011681D01*
X005388Y011605D01*
X005248Y011465D01*
X005171Y011281D01*
X005171Y011082D01*
X005248Y010898D01*
X005388Y010758D01*
X005572Y010681D01*
X005388Y010605D01*
X005248Y010465D01*
X005171Y010281D01*
X005171Y010082D01*
X005248Y009898D01*
X005388Y009758D01*
X005572Y009681D01*
X005388Y009605D01*
X005248Y009465D01*
X005171Y009281D01*
X005171Y009082D01*
X005248Y008898D01*
X005388Y008758D01*
X005572Y008681D01*
X006291Y008681D01*
X006475Y008758D01*
X006615Y008898D01*
X006691Y009082D01*
X006691Y009281D01*
X006615Y009465D01*
X006475Y009605D01*
X006291Y009681D01*
X005572Y009681D01*
X006291Y009681D01*
X006475Y009758D01*
X006615Y009898D01*
X006691Y010082D01*
X006691Y010281D01*
X006615Y010465D01*
X006475Y010605D01*
X006291Y010681D01*
X005572Y010681D01*
X006291Y010681D01*
X006475Y010758D01*
X006615Y010898D01*
X006691Y011082D01*
X006691Y011281D01*
X006615Y011465D01*
X006475Y011605D01*
X006291Y011681D01*
X005572Y011681D01*
X006291Y011681D01*
X006475Y011758D01*
X006499Y011781D01*
X006761Y011781D01*
X006908Y011842D01*
X007020Y011955D01*
X007908Y012842D01*
X008020Y012955D01*
X008081Y013102D01*
X008081Y014516D01*
X008097Y014531D01*
X008314Y014531D01*
X008248Y014465D01*
X008171Y014281D01*
X008171Y014082D01*
X008248Y013898D01*
X008388Y013758D01*
X008572Y013681D01*
X008388Y013605D01*
X008248Y013465D01*
X008171Y013281D01*
X008171Y013082D01*
X008248Y012898D01*
X008388Y012758D01*
X008572Y012681D01*
X008388Y012605D01*
X008248Y012465D01*
X008171Y012281D01*
X008171Y012082D01*
X008248Y011898D01*
X008388Y011758D01*
X008572Y011681D01*
X009291Y011681D01*
X009475Y011758D01*
X009615Y011898D01*
X009691Y012082D01*
X009691Y012281D01*
X009615Y012465D01*
X009475Y012605D01*
X009291Y012681D01*
X008572Y012681D01*
X009291Y012681D01*
X009475Y012758D01*
X009615Y012898D01*
X009691Y013082D01*
X009691Y013281D01*
X009615Y013465D01*
X009475Y013605D01*
X009291Y013681D01*
X008572Y013681D01*
X009291Y013681D01*
X009475Y013758D01*
X009615Y013898D01*
X009691Y014082D01*
X009691Y014281D01*
X009615Y014465D01*
X009548Y014531D01*
X010266Y014531D01*
X012749Y012049D01*
X012749Y011796D01*
X012852Y011545D01*
X013045Y011352D01*
X013296Y011249D01*
X013567Y011249D01*
X013221Y011279D02*
X009691Y011279D01*
X009626Y011438D02*
X012959Y011438D01*
X012831Y011597D02*
X009483Y011597D01*
X009469Y011755D02*
X012765Y011755D01*
X012749Y011914D02*
X009622Y011914D01*
X009687Y012072D02*
X012725Y012072D01*
X012566Y012231D02*
X009691Y012231D01*
X009646Y012389D02*
X012408Y012389D01*
X012249Y012548D02*
X009532Y012548D01*
X009351Y012706D02*
X012091Y012706D01*
X011932Y012865D02*
X009582Y012865D01*
X009667Y013023D02*
X011774Y013023D01*
X011615Y013182D02*
X009691Y013182D01*
X009667Y013341D02*
X011457Y013341D01*
X011298Y013499D02*
X009581Y013499D01*
X009348Y013658D02*
X011140Y013658D01*
X010981Y013816D02*
X009533Y013816D01*
X009647Y013975D02*
X010822Y013975D01*
X010664Y014133D02*
X009691Y014133D01*
X009687Y014292D02*
X010505Y014292D01*
X010347Y014450D02*
X009621Y014450D01*
X008909Y015402D02*
X014201Y015402D01*
X014201Y015560D02*
X008895Y015560D01*
X008863Y015719D02*
X014201Y015719D01*
X014201Y015877D02*
X008863Y015877D01*
X008863Y016036D02*
X014201Y016036D01*
X014201Y016194D02*
X008863Y016194D01*
X008863Y016353D02*
X009334Y016353D01*
X009276Y016411D02*
X009411Y016276D01*
X009586Y016204D01*
X009776Y016204D01*
X009952Y016276D01*
X010086Y016411D01*
X010159Y016586D01*
X010159Y016776D01*
X010086Y016952D01*
X009952Y017086D01*
X009776Y017159D01*
X009586Y017159D01*
X009411Y017086D01*
X009276Y016952D01*
X009204Y016776D01*
X009204Y016586D01*
X009276Y016411D01*
X009235Y016511D02*
X008863Y016511D01*
X008863Y016670D02*
X009204Y016670D01*
X009225Y016828D02*
X008863Y016828D01*
X008863Y016987D02*
X009311Y016987D01*
X009553Y017146D02*
X008863Y017146D01*
X008863Y017304D02*
X014201Y017304D01*
X014201Y017146D02*
X012809Y017146D01*
X012776Y017159D02*
X012952Y017086D01*
X013086Y016952D01*
X013159Y016776D01*
X013159Y016586D01*
X013086Y016411D01*
X012952Y016276D01*
X012776Y016204D01*
X012586Y016204D01*
X012411Y016276D01*
X012276Y016411D01*
X012204Y016586D01*
X012204Y016776D01*
X012276Y016952D01*
X012411Y017086D01*
X012586Y017159D01*
X012776Y017159D01*
X012553Y017146D02*
X009809Y017146D01*
X010051Y016987D02*
X010396Y016987D01*
X010409Y017000D02*
X010363Y016954D01*
X010324Y016900D01*
X010294Y016842D01*
X010274Y016779D01*
X010264Y016714D01*
X010264Y016682D01*
X010681Y016682D01*
X010681Y017099D01*
X010649Y017099D01*
X010584Y017089D01*
X010521Y017069D01*
X010462Y017039D01*
X010409Y017000D01*
X010290Y016828D02*
X010138Y016828D01*
X010159Y016670D02*
X010264Y016670D01*
X010264Y016681D02*
X010264Y016649D01*
X010274Y016584D01*
X010294Y016521D01*
X010324Y016462D01*
X010363Y016409D01*
X010409Y016363D01*
X010462Y016324D01*
X010521Y016294D01*
X010584Y016274D01*
X010649Y016264D01*
X010681Y016264D01*
X010681Y016681D01*
X010682Y016681D01*
X010682Y016682D01*
X011099Y016682D01*
X011099Y016714D01*
X011089Y016779D01*
X011069Y016842D01*
X011039Y016900D01*
X011000Y016954D01*
X010954Y017000D01*
X010900Y017039D01*
X010842Y017069D01*
X010779Y017089D01*
X010714Y017099D01*
X010682Y017099D01*
X010682Y016682D01*
X010681Y016682D01*
X010681Y016681D01*
X010264Y016681D01*
X010299Y016511D02*
X010128Y016511D01*
X010029Y016353D02*
X010423Y016353D01*
X010681Y016353D02*
X010682Y016353D01*
X010682Y016264D02*
X010714Y016264D01*
X010779Y016274D01*
X010842Y016294D01*
X010900Y016324D01*
X010954Y016363D01*
X011000Y016409D01*
X011039Y016462D01*
X011069Y016521D01*
X011089Y016584D01*
X011099Y016649D01*
X011099Y016681D01*
X010682Y016681D01*
X010682Y016264D01*
X010681Y016511D02*
X010682Y016511D01*
X010681Y016670D02*
X010682Y016670D01*
X010681Y016828D02*
X010682Y016828D01*
X010681Y016987D02*
X010682Y016987D01*
X010967Y016987D02*
X012311Y016987D01*
X012225Y016828D02*
X011073Y016828D01*
X011099Y016670D02*
X012204Y016670D01*
X012235Y016511D02*
X011064Y016511D01*
X010940Y016353D02*
X012334Y016353D01*
X013029Y016353D02*
X014201Y016353D01*
X014201Y016511D02*
X013128Y016511D01*
X013159Y016670D02*
X014201Y016670D01*
X014201Y016828D02*
X013138Y016828D01*
X013051Y016987D02*
X014201Y016987D01*
X014201Y017463D02*
X008863Y017463D01*
X008863Y017621D02*
X014201Y017621D01*
X014201Y017780D02*
X008863Y017780D01*
X008863Y017938D02*
X010055Y017938D01*
X009961Y017977D02*
X010266Y017851D01*
X010597Y017851D01*
X010902Y017977D01*
X011135Y018211D01*
X011165Y018281D01*
X011667Y018281D01*
X011696Y018211D01*
X011929Y017977D01*
X012235Y017851D01*
X012565Y017851D01*
X012870Y017977D01*
X013104Y018211D01*
X013230Y018516D01*
X013230Y018847D01*
X013104Y019152D01*
X012870Y019385D01*
X012565Y019512D01*
X012235Y019512D01*
X011929Y019385D01*
X011696Y019152D01*
X011667Y019081D01*
X011165Y019081D01*
X011135Y019152D01*
X010902Y019385D01*
X010597Y019512D01*
X010266Y019512D01*
X009961Y019385D01*
X009727Y019152D01*
X009601Y018847D01*
X009601Y018516D01*
X009727Y018211D01*
X009961Y017977D01*
X009841Y018097D02*
X009053Y018097D01*
X009185Y018255D02*
X009709Y018255D01*
X009643Y018414D02*
X009251Y018414D01*
X009293Y018572D02*
X009601Y018572D01*
X009601Y018731D02*
X009293Y018731D01*
X009276Y018890D02*
X009619Y018890D01*
X009684Y019048D02*
X009210Y019048D01*
X009112Y019207D02*
X009782Y019207D01*
X009941Y019365D02*
X008954Y019365D01*
X007972Y019365D02*
X006891Y019365D01*
X006870Y019385D02*
X006565Y019512D01*
X006235Y019512D01*
X005929Y019385D01*
X005696Y019152D01*
X005569Y018847D01*
X005569Y018516D01*
X005696Y018211D01*
X005929Y017977D01*
X006235Y017851D01*
X006565Y017851D01*
X006870Y017977D01*
X007104Y018211D01*
X007230Y018516D01*
X007230Y018847D01*
X007104Y019152D01*
X006870Y019385D01*
X007049Y019207D02*
X007814Y019207D01*
X007716Y019048D02*
X007147Y019048D01*
X007213Y018890D02*
X007650Y018890D01*
X007632Y018731D02*
X007230Y018731D01*
X007230Y018572D02*
X007632Y018572D01*
X007675Y018414D02*
X007188Y018414D01*
X007122Y018255D02*
X007740Y018255D01*
X007873Y018097D02*
X006990Y018097D01*
X006776Y017938D02*
X008063Y017938D01*
X008063Y017780D02*
X000661Y017780D01*
X000661Y017938D02*
X002087Y017938D01*
X001992Y017977D02*
X002298Y017851D01*
X002628Y017851D01*
X002933Y017977D01*
X003167Y018211D01*
X003293Y018516D01*
X003293Y018847D01*
X003167Y019152D01*
X002933Y019385D01*
X002628Y019512D01*
X002298Y019512D01*
X001992Y019385D01*
X001759Y019152D01*
X001632Y018847D01*
X001632Y018516D01*
X001759Y018211D01*
X001992Y017977D01*
X001873Y018097D02*
X000661Y018097D01*
X000661Y018255D02*
X001740Y018255D01*
X001675Y018414D02*
X000661Y018414D01*
X000661Y018572D02*
X001632Y018572D01*
X001632Y018731D02*
X000661Y018731D01*
X000661Y018890D02*
X001650Y018890D01*
X001716Y019048D02*
X000661Y019048D01*
X000661Y019207D02*
X001814Y019207D01*
X001972Y019365D02*
X000661Y019365D01*
X000661Y019524D02*
X014201Y019524D01*
X014201Y019682D02*
X000661Y019682D01*
X000661Y019841D02*
X014201Y019841D01*
X014201Y019999D02*
X000661Y019999D01*
X000661Y020158D02*
X014201Y020158D01*
X014201Y020316D02*
X000661Y020316D01*
X000661Y017621D02*
X008063Y017621D01*
X008063Y017463D02*
X000661Y017463D01*
X000661Y017304D02*
X008063Y017304D01*
X008063Y017146D02*
X005809Y017146D01*
X005776Y017159D02*
X005586Y017159D01*
X005411Y017086D01*
X005276Y016952D01*
X005204Y016776D01*
X005204Y016586D01*
X005276Y016411D01*
X005411Y016276D01*
X005586Y016204D01*
X005776Y016204D01*
X005952Y016276D01*
X006086Y016411D01*
X006159Y016586D01*
X006159Y016776D01*
X006086Y016952D01*
X005952Y017086D01*
X005776Y017159D01*
X006051Y016987D02*
X008063Y016987D01*
X008063Y016828D02*
X006138Y016828D01*
X006159Y016670D02*
X008063Y016670D01*
X008063Y016511D02*
X006128Y016511D01*
X006029Y016353D02*
X008063Y016353D01*
X008063Y016194D02*
X000661Y016194D01*
X000661Y016036D02*
X008063Y016036D01*
X008063Y015877D02*
X000661Y015877D01*
X000661Y015719D02*
X006128Y015719D01*
X006113Y015704D02*
X006074Y015650D01*
X006044Y015592D01*
X006024Y015529D01*
X006014Y015464D01*
X006014Y015432D01*
X006431Y015432D01*
X006431Y015849D01*
X006399Y015849D01*
X006334Y015839D01*
X006271Y015819D01*
X006212Y015789D01*
X006159Y015750D01*
X006113Y015704D01*
X006034Y015560D02*
X000661Y015560D01*
X000661Y015402D02*
X006014Y015402D01*
X006014Y015399D02*
X006024Y015334D01*
X006044Y015271D01*
X006074Y015212D01*
X006113Y015159D01*
X006159Y015113D01*
X006212Y015074D01*
X006271Y015044D01*
X006334Y015024D01*
X006399Y015014D01*
X006431Y015014D01*
X006431Y015431D01*
X006432Y015431D01*
X006432Y015432D01*
X006849Y015432D01*
X006849Y015464D01*
X006839Y015529D01*
X006819Y015592D01*
X006789Y015650D01*
X006750Y015704D01*
X006704Y015750D01*
X006650Y015789D01*
X006592Y015819D01*
X006529Y015839D01*
X006464Y015849D01*
X006432Y015849D01*
X006432Y015432D01*
X006431Y015432D01*
X006431Y015431D01*
X006014Y015431D01*
X006014Y015399D01*
X006058Y015243D02*
X000661Y015243D01*
X000661Y015084D02*
X006198Y015084D01*
X006431Y015084D02*
X006432Y015084D01*
X006432Y015014D02*
X006464Y015014D01*
X006529Y015024D01*
X006592Y015044D01*
X006650Y015074D01*
X006704Y015113D01*
X006750Y015159D01*
X006789Y015212D01*
X006819Y015271D01*
X006839Y015334D01*
X006849Y015399D01*
X006849Y015431D01*
X006432Y015431D01*
X006432Y015014D01*
X006431Y015243D02*
X006432Y015243D01*
X006431Y015402D02*
X006432Y015402D01*
X006431Y015560D02*
X006432Y015560D01*
X006431Y015719D02*
X006432Y015719D01*
X006735Y015719D02*
X008043Y015719D01*
X007968Y015560D02*
X006829Y015560D01*
X006849Y015402D02*
X007954Y015402D01*
X007677Y015243D02*
X006804Y015243D01*
X006665Y015084D02*
X007519Y015084D01*
X007592Y015158D02*
X007592Y015158D01*
X007360Y014926D02*
X000661Y014926D01*
X000661Y014767D02*
X007284Y014767D01*
X007281Y014609D02*
X006466Y014609D01*
X006475Y014605D02*
X006291Y014681D01*
X005572Y014681D01*
X005388Y014605D01*
X005248Y014465D01*
X005171Y014281D01*
X005171Y014082D01*
X005248Y013898D01*
X005388Y013758D01*
X005572Y013681D01*
X005388Y013605D01*
X005248Y013465D01*
X005171Y013281D01*
X005171Y013082D01*
X005248Y012898D01*
X005388Y012758D01*
X005572Y012681D01*
X006291Y012681D01*
X006475Y012758D01*
X006615Y012898D01*
X006691Y013082D01*
X006691Y013281D01*
X006615Y013465D01*
X006475Y013605D01*
X006291Y013681D01*
X005572Y013681D01*
X006291Y013681D01*
X006475Y013758D01*
X006615Y013898D01*
X006691Y014082D01*
X006691Y014281D01*
X006615Y014465D01*
X006475Y014605D01*
X006621Y014450D02*
X007281Y014450D01*
X007281Y014292D02*
X006687Y014292D01*
X006691Y014133D02*
X007281Y014133D01*
X007281Y013975D02*
X006647Y013975D01*
X006533Y013816D02*
X007281Y013816D01*
X007281Y013658D02*
X006348Y013658D01*
X006581Y013499D02*
X007281Y013499D01*
X007275Y013341D02*
X006667Y013341D01*
X006691Y013182D02*
X007116Y013182D01*
X006958Y013023D02*
X006667Y013023D01*
X006582Y012865D02*
X006799Y012865D01*
X006641Y012706D02*
X006351Y012706D01*
X007020Y011955D02*
X007020Y011955D01*
X006979Y011914D02*
X008241Y011914D01*
X008175Y012072D02*
X007138Y012072D01*
X007296Y012231D02*
X008171Y012231D01*
X008216Y012389D02*
X007455Y012389D01*
X007613Y012548D02*
X008331Y012548D01*
X008512Y012706D02*
X007772Y012706D01*
X007908Y012842D02*
X007908Y012842D01*
X007931Y012865D02*
X008281Y012865D01*
X008196Y013023D02*
X008049Y013023D01*
X008081Y013182D02*
X008171Y013182D01*
X008196Y013341D02*
X008081Y013341D01*
X008081Y013499D02*
X008282Y013499D01*
X008081Y013658D02*
X008515Y013658D01*
X008330Y013816D02*
X008081Y013816D01*
X008081Y013975D02*
X008216Y013975D01*
X008171Y014133D02*
X008081Y014133D01*
X008081Y014292D02*
X008176Y014292D01*
X008242Y014450D02*
X008081Y014450D01*
X008394Y011755D02*
X006469Y011755D01*
X006483Y011597D02*
X008379Y011597D01*
X008237Y011438D02*
X006626Y011438D01*
X006691Y011279D02*
X008171Y011279D01*
X008171Y011121D02*
X006691Y011121D01*
X006642Y010962D02*
X008221Y010962D01*
X008342Y010804D02*
X006521Y010804D01*
X006378Y010645D02*
X008485Y010645D01*
X008270Y010487D02*
X006593Y010487D01*
X006672Y010328D02*
X008191Y010328D01*
X008171Y010170D02*
X006691Y010170D01*
X006662Y010011D02*
X008201Y010011D01*
X008293Y009853D02*
X006570Y009853D01*
X006544Y009535D02*
X008318Y009535D01*
X008211Y009377D02*
X006652Y009377D01*
X006691Y009218D02*
X008171Y009218D01*
X008181Y009060D02*
X006682Y009060D01*
X006617Y008901D02*
X008246Y008901D01*
X008424Y008743D02*
X006439Y008743D01*
X006360Y008589D02*
X006294Y008611D01*
X006226Y008621D01*
X005932Y008621D01*
X005932Y008182D01*
X005931Y008182D01*
X005931Y008621D01*
X005637Y008621D01*
X005568Y008611D01*
X005502Y008589D01*
X005441Y008558D01*
X005385Y008517D01*
X005336Y008468D01*
X005295Y008412D01*
X005264Y008350D01*
X005242Y008284D01*
X005231Y008216D01*
X005231Y008182D01*
X005931Y008182D01*
X005931Y008181D01*
X005932Y008181D01*
X005932Y008182D01*
X006631Y008182D01*
X006631Y008216D01*
X006621Y008284D01*
X006599Y008350D01*
X006568Y008412D01*
X006527Y008468D01*
X006478Y008517D01*
X006422Y008558D01*
X006360Y008589D01*
X006370Y008584D02*
X008367Y008584D01*
X008231Y008426D02*
X006558Y008426D01*
X006623Y008267D02*
X008171Y008267D01*
X008171Y008109D02*
X006625Y008109D01*
X006621Y008078D02*
X006631Y008147D01*
X006631Y008181D01*
X005932Y008181D01*
X005932Y007741D01*
X006226Y007741D01*
X006294Y007752D01*
X006360Y007774D01*
X006422Y007805D01*
X006478Y007846D01*
X006527Y007895D01*
X006568Y007951D01*
X006599Y008012D01*
X006621Y008078D01*
X006567Y007950D02*
X008226Y007950D01*
X008354Y007791D02*
X006395Y007791D01*
X005932Y007791D02*
X005931Y007791D01*
X005931Y007741D02*
X005931Y008181D01*
X005231Y008181D01*
X005231Y008147D01*
X005242Y008078D01*
X005264Y008012D01*
X005295Y007951D01*
X005336Y007895D01*
X005385Y007846D01*
X005441Y007805D01*
X005502Y007774D01*
X005568Y007752D01*
X005637Y007741D01*
X005931Y007741D01*
X005931Y007950D02*
X005932Y007950D01*
X005931Y008109D02*
X005932Y008109D01*
X005931Y008267D02*
X005932Y008267D01*
X005931Y008426D02*
X005932Y008426D01*
X005931Y008584D02*
X005932Y008584D01*
X005493Y008584D02*
X004831Y008584D01*
X004831Y008426D02*
X005305Y008426D01*
X005240Y008267D02*
X004831Y008267D01*
X004831Y008109D02*
X005237Y008109D01*
X005296Y007950D02*
X004831Y007950D01*
X004831Y007791D02*
X005467Y007791D01*
X005723Y007316D02*
X009140Y007316D01*
X009008Y007157D02*
X005855Y007157D01*
X005909Y006999D02*
X008954Y006999D01*
X008954Y006840D02*
X005909Y006840D01*
X005845Y006682D02*
X009018Y006682D01*
X009168Y006523D02*
X005694Y006523D01*
X005564Y006365D02*
X009781Y006365D01*
X009781Y006523D02*
X009694Y006523D01*
X009781Y006206D02*
X006472Y006206D01*
X006631Y006048D02*
X009804Y006048D01*
X009908Y005889D02*
X006789Y005889D01*
X006948Y005730D02*
X010067Y005730D01*
X010225Y005572D02*
X007107Y005572D01*
X007265Y005413D02*
X010384Y005413D01*
X010542Y005255D02*
X009697Y005255D01*
X009704Y005250D02*
X009650Y005289D01*
X009592Y005319D01*
X009529Y005339D01*
X009464Y005349D01*
X009432Y005349D01*
X009432Y004932D01*
X009849Y004932D01*
X009849Y004964D01*
X009839Y005029D01*
X009819Y005092D01*
X009789Y005150D01*
X009750Y005204D01*
X009704Y005250D01*
X009816Y005096D02*
X010701Y005096D01*
X010859Y004938D02*
X009849Y004938D01*
X009849Y004931D02*
X009432Y004931D01*
X009432Y004932D01*
X009431Y004932D01*
X009431Y005349D01*
X009399Y005349D01*
X009334Y005339D01*
X009271Y005319D01*
X009212Y005289D01*
X009159Y005250D01*
X009113Y005204D01*
X009074Y005150D01*
X009044Y005092D01*
X009024Y005029D01*
X009014Y004964D01*
X009014Y004932D01*
X009431Y004932D01*
X009431Y004931D01*
X009432Y004931D01*
X009432Y004514D01*
X009464Y004514D01*
X009529Y004524D01*
X009592Y004544D01*
X009650Y004574D01*
X009704Y004613D01*
X009750Y004659D01*
X009789Y004712D01*
X009819Y004771D01*
X009839Y004834D01*
X009849Y004899D01*
X009849Y004931D01*
X009821Y004779D02*
X011018Y004779D01*
X011176Y004621D02*
X009711Y004621D01*
X009432Y004621D02*
X009431Y004621D01*
X009431Y004514D02*
X009431Y004931D01*
X009014Y004931D01*
X009014Y004899D01*
X009024Y004834D01*
X009044Y004771D01*
X009074Y004712D01*
X009113Y004659D01*
X009159Y004613D01*
X009212Y004574D01*
X009271Y004544D01*
X009334Y004524D01*
X009399Y004514D01*
X009431Y004514D01*
X009431Y004779D02*
X009432Y004779D01*
X009431Y004938D02*
X009432Y004938D01*
X009431Y005096D02*
X009432Y005096D01*
X009431Y005255D02*
X009432Y005255D01*
X009166Y005255D02*
X007424Y005255D01*
X007582Y005096D02*
X009047Y005096D01*
X009014Y004938D02*
X007741Y004938D01*
X007824Y004779D02*
X009042Y004779D01*
X009151Y004621D02*
X007831Y004621D01*
X007831Y004462D02*
X011281Y004462D01*
X011281Y004304D02*
X007831Y004304D01*
X007831Y004145D02*
X011281Y004145D01*
X011281Y003986D02*
X007831Y003986D01*
X007959Y003828D02*
X008979Y003828D01*
X008971Y003823D02*
X008891Y003762D01*
X008819Y003691D01*
X008758Y003610D01*
X008707Y003523D01*
X008669Y003430D01*
X008643Y003332D01*
X008633Y003261D01*
X009320Y003261D01*
X009320Y003101D01*
X009480Y003101D01*
X009480Y002415D01*
X009551Y002424D01*
X009648Y002450D01*
X009741Y002489D01*
X009829Y002539D01*
X009909Y002601D01*
X009980Y002672D01*
X010042Y002752D01*
X010092Y002840D01*
X010131Y002933D01*
X010157Y003031D01*
X010167Y003101D01*
X009480Y003101D01*
X009480Y003261D01*
X010167Y003261D01*
X010157Y003332D01*
X010131Y003430D01*
X010092Y003523D01*
X010042Y003610D01*
X009980Y003691D01*
X009909Y003762D01*
X009829Y003823D01*
X009741Y003874D01*
X009648Y003913D01*
X009551Y003939D01*
X009480Y003948D01*
X009480Y003262D01*
X009320Y003262D01*
X009320Y003948D01*
X009249Y003939D01*
X009152Y003913D01*
X009058Y003874D01*
X008971Y003823D01*
X008803Y003669D02*
X008118Y003669D01*
X008194Y003511D02*
X008702Y003511D01*
X008648Y003352D02*
X008260Y003352D01*
X008262Y003194D02*
X009320Y003194D01*
X009320Y003101D02*
X008633Y003101D01*
X008643Y003031D01*
X008669Y002933D01*
X008707Y002840D01*
X008758Y002752D01*
X008819Y002672D01*
X008891Y002601D01*
X008971Y002539D01*
X009058Y002489D01*
X009152Y002450D01*
X009249Y002424D01*
X009320Y002415D01*
X009320Y003101D01*
X009320Y003035D02*
X009480Y003035D01*
X009480Y002877D02*
X009320Y002877D01*
X009320Y002718D02*
X009480Y002718D01*
X009480Y002560D02*
X009320Y002560D01*
X008945Y002560D02*
X007984Y002560D01*
X008138Y002718D02*
X008784Y002718D01*
X008692Y002877D02*
X008204Y002877D01*
X008262Y003035D02*
X008642Y003035D01*
X009320Y003352D02*
X009480Y003352D01*
X009480Y003194D02*
X011230Y003194D01*
X011281Y003352D02*
X010152Y003352D01*
X010097Y003511D02*
X011281Y003511D01*
X011281Y003669D02*
X009997Y003669D01*
X009821Y003828D02*
X011281Y003828D01*
X011165Y003035D02*
X010158Y003035D01*
X010108Y002877D02*
X011164Y002877D01*
X011210Y002718D02*
X010016Y002718D01*
X009855Y002560D02*
X011322Y002560D01*
X011646Y002401D02*
X007718Y002401D01*
X008037Y002084D02*
X007075Y002084D01*
X006988Y002171D02*
X006375Y002171D01*
X006035Y001831D01*
X005347Y001831D01*
X004081Y003097D01*
X004081Y004511D01*
X004020Y004658D01*
X003908Y004770D01*
X003394Y005285D01*
X003394Y005323D01*
X003285Y005585D01*
X003085Y005785D01*
X002823Y005894D01*
X002540Y005894D01*
X002278Y005785D01*
X002077Y005585D01*
X001969Y005323D01*
X001969Y005040D01*
X002077Y004778D01*
X002278Y004577D01*
X002329Y004556D01*
X002278Y004535D01*
X002077Y004335D01*
X001969Y004073D01*
X001969Y003790D01*
X002077Y003528D01*
X002278Y003327D01*
X002407Y003274D01*
X002392Y003268D01*
X002318Y003225D01*
X002250Y003173D01*
X002190Y003112D01*
X002138Y003045D01*
X002095Y002971D01*
X002062Y002892D01*
X002040Y002809D01*
X002034Y002759D01*
X002604Y002759D01*
X002604Y002604D01*
X002759Y002604D01*
X002759Y002759D01*
X003320Y002759D01*
X003342Y002705D01*
X004842Y001205D01*
X004955Y001092D01*
X005102Y001031D01*
X006035Y001031D01*
X006375Y000691D01*
X006988Y000691D01*
X007421Y001125D01*
X007421Y001738D01*
X006988Y002171D01*
X007145Y002401D02*
X005749Y002401D01*
X005628Y002351D02*
X005933Y002477D01*
X006167Y002711D01*
X006293Y003016D01*
X006293Y003347D01*
X006167Y003652D01*
X005933Y003885D01*
X005628Y004012D01*
X005298Y004012D01*
X004992Y003885D01*
X004759Y003652D01*
X004632Y003347D01*
X004632Y003016D01*
X004759Y002711D01*
X004992Y002477D01*
X005298Y002351D01*
X005628Y002351D01*
X006016Y002560D02*
X006879Y002560D01*
X006724Y002718D02*
X006170Y002718D01*
X006236Y002877D02*
X006659Y002877D01*
X006601Y003035D02*
X006293Y003035D01*
X006293Y003194D02*
X006601Y003194D01*
X006603Y003352D02*
X006291Y003352D01*
X006225Y003511D02*
X006669Y003511D01*
X006745Y003669D02*
X006149Y003669D01*
X005991Y003828D02*
X006903Y003828D01*
X007031Y003986D02*
X005690Y003986D01*
X005236Y003986D02*
X004081Y003986D01*
X004081Y003828D02*
X004935Y003828D01*
X004776Y003669D02*
X004081Y003669D01*
X004081Y003511D02*
X004700Y003511D01*
X004635Y003352D02*
X004081Y003352D01*
X004081Y003194D02*
X004632Y003194D01*
X004632Y003035D02*
X004143Y003035D01*
X004302Y002877D02*
X004690Y002877D01*
X004756Y002718D02*
X004460Y002718D01*
X004619Y002560D02*
X004910Y002560D01*
X004777Y002401D02*
X005177Y002401D01*
X004936Y002242D02*
X011781Y002242D01*
X011781Y002084D02*
X008825Y002084D01*
X008984Y001925D02*
X009968Y001925D01*
X009480Y003511D02*
X009320Y003511D01*
X009320Y003669D02*
X009480Y003669D01*
X009480Y003828D02*
X009320Y003828D01*
X007879Y001925D02*
X007234Y001925D01*
X007392Y001767D02*
X007720Y001767D01*
X007691Y001608D02*
X007421Y001608D01*
X007421Y001450D02*
X007691Y001450D01*
X007691Y001291D02*
X007421Y001291D01*
X007421Y001133D02*
X007691Y001133D01*
X007842Y000974D02*
X007271Y000974D01*
X007112Y000816D02*
X008001Y000816D01*
X006251Y000816D02*
X000661Y000816D01*
X000661Y000974D02*
X006092Y000974D01*
X006129Y001925D02*
X005253Y001925D01*
X005095Y002084D02*
X006287Y002084D01*
X004914Y001133D02*
X000661Y001133D01*
X000661Y001291D02*
X004756Y001291D01*
X004597Y001450D02*
X000661Y001450D01*
X000661Y001608D02*
X004439Y001608D01*
X004280Y001767D02*
X000661Y001767D01*
X000661Y001925D02*
X004122Y001925D01*
X003963Y002084D02*
X002944Y002084D01*
X002971Y002095D02*
X003045Y002138D01*
X003112Y002190D01*
X003173Y002250D01*
X003225Y002318D01*
X003268Y002392D01*
X003301Y002471D01*
X003323Y002554D01*
X003329Y002604D01*
X002759Y002604D01*
X002759Y002034D01*
X002809Y002040D01*
X002892Y002062D01*
X002971Y002095D01*
X002759Y002084D02*
X002604Y002084D01*
X002604Y002034D02*
X002604Y002604D01*
X002034Y002604D01*
X002040Y002554D01*
X002062Y002471D01*
X002095Y002392D01*
X002138Y002318D01*
X002190Y002250D01*
X002250Y002190D01*
X002318Y002138D01*
X002392Y002095D01*
X002471Y002062D01*
X002554Y002040D01*
X002604Y002034D01*
X002419Y002084D02*
X001605Y002084D01*
X001764Y002242D02*
X002198Y002242D01*
X002091Y002401D02*
X001844Y002401D01*
X001907Y002560D02*
X002039Y002560D01*
X001907Y002718D02*
X002604Y002718D01*
X002759Y002718D02*
X003337Y002718D01*
X003323Y002560D02*
X003488Y002560D01*
X003646Y002401D02*
X003271Y002401D01*
X003165Y002242D02*
X003805Y002242D01*
X002759Y002242D02*
X002604Y002242D01*
X002604Y002401D02*
X002759Y002401D01*
X002759Y002560D02*
X002604Y002560D01*
X002132Y003035D02*
X001834Y003035D01*
X001900Y002877D02*
X002058Y002877D01*
X002277Y003194D02*
X001740Y003194D01*
X001649Y003352D02*
X002253Y003352D01*
X002094Y003511D02*
X001796Y003511D01*
X001862Y003669D02*
X002019Y003669D01*
X001969Y003828D02*
X001907Y003828D01*
X001907Y003986D02*
X001969Y003986D01*
X001999Y004145D02*
X001882Y004145D01*
X001816Y004304D02*
X002064Y004304D01*
X002205Y004462D02*
X001697Y004462D01*
X001692Y004621D02*
X002235Y004621D01*
X002077Y004779D02*
X001814Y004779D01*
X001880Y004938D02*
X002011Y004938D01*
X001969Y005096D02*
X001907Y005096D01*
X001907Y005255D02*
X001969Y005255D01*
X002006Y005413D02*
X001864Y005413D01*
X001798Y005572D02*
X002072Y005572D01*
X002223Y005730D02*
X001654Y005730D01*
X001483Y005889D02*
X002528Y005889D01*
X002759Y006084D02*
X002809Y006090D01*
X002892Y006112D01*
X002971Y006145D01*
X003045Y006188D01*
X003112Y006240D01*
X003173Y006300D01*
X003225Y006368D01*
X003268Y006442D01*
X003301Y006521D01*
X003323Y006604D01*
X003329Y006654D01*
X002759Y006654D01*
X002759Y006084D01*
X002759Y006206D02*
X002604Y006206D01*
X002604Y006365D02*
X002759Y006365D01*
X002759Y006523D02*
X002604Y006523D01*
X002759Y006682D02*
X004115Y006682D01*
X004036Y006840D02*
X003325Y006840D01*
X003323Y006859D02*
X003301Y006942D01*
X003268Y007021D01*
X003225Y007095D01*
X003173Y007162D01*
X003112Y007223D01*
X003045Y007275D01*
X002971Y007318D01*
X002892Y007351D01*
X002809Y007373D01*
X002759Y007379D01*
X002759Y006809D01*
X003329Y006809D01*
X003323Y006859D01*
X003277Y006999D02*
X004031Y006999D01*
X004031Y007157D02*
X003177Y007157D01*
X002974Y007316D02*
X004031Y007316D01*
X004031Y007474D02*
X002957Y007474D01*
X002759Y007316D02*
X002604Y007316D01*
X002604Y007157D02*
X002759Y007157D01*
X002759Y006999D02*
X002604Y006999D01*
X002604Y006840D02*
X002759Y006840D01*
X002389Y007316D02*
X001838Y007316D01*
X001766Y007474D02*
X002406Y007474D01*
X002172Y007633D02*
X001913Y007633D01*
X001979Y007791D02*
X002051Y007791D01*
X002032Y008426D02*
X001998Y008426D01*
X001932Y008584D02*
X002127Y008584D01*
X002296Y008743D02*
X001811Y008743D01*
X001653Y008901D02*
X004031Y008901D01*
X004031Y008743D02*
X003067Y008743D01*
X003236Y008584D02*
X004031Y008584D01*
X004031Y008426D02*
X003331Y008426D01*
X003394Y008267D02*
X004031Y008267D01*
X004031Y008109D02*
X003394Y008109D01*
X003377Y007950D02*
X004031Y007950D01*
X004031Y007791D02*
X003312Y007791D01*
X003190Y007633D02*
X004031Y007633D01*
X004831Y007633D02*
X009781Y007633D01*
X009781Y007791D02*
X009509Y007791D01*
X009637Y007950D02*
X009781Y007950D01*
X009781Y008109D02*
X009691Y008109D01*
X009691Y008267D02*
X009781Y008267D01*
X009781Y008426D02*
X009631Y008426D01*
X009496Y008584D02*
X009781Y008584D01*
X009781Y008743D02*
X009439Y008743D01*
X009617Y008901D02*
X009646Y008901D01*
X010143Y009535D02*
X012817Y009535D01*
X012866Y009694D02*
X009984Y009694D01*
X009826Y009853D02*
X012972Y009853D01*
X013200Y010011D02*
X009667Y010011D01*
X009378Y010645D02*
X014201Y010645D01*
X014201Y011438D02*
X013904Y011438D01*
X014032Y011597D02*
X014201Y011597D01*
X014201Y011755D02*
X014098Y011755D01*
X014114Y011914D02*
X014201Y011914D01*
X014201Y012072D02*
X014112Y012072D01*
X014047Y012231D02*
X014201Y012231D01*
X014201Y012389D02*
X013939Y012389D01*
X013728Y012548D02*
X014201Y012548D01*
X014201Y012706D02*
X013222Y012706D01*
X013064Y012865D02*
X014201Y012865D01*
X014201Y013023D02*
X012905Y013023D01*
X012746Y013182D02*
X014201Y013182D01*
X014201Y013341D02*
X013629Y013341D01*
X013671Y013354D02*
X013758Y013399D01*
X013837Y013456D01*
X013907Y013526D01*
X013964Y013605D01*
X014009Y013692D01*
X014039Y013786D01*
X014051Y013864D01*
X013499Y013864D01*
X013499Y013999D01*
X013364Y013999D01*
X013364Y014551D01*
X013286Y014539D01*
X013192Y014509D01*
X013105Y014464D01*
X013026Y014407D01*
X012956Y014337D01*
X012899Y014258D01*
X012854Y014171D01*
X012824Y014077D01*
X012811Y013999D01*
X013364Y013999D01*
X013364Y013864D01*
X012811Y013864D01*
X012824Y013786D01*
X012854Y013692D01*
X012899Y013605D01*
X012956Y013526D01*
X013026Y013456D01*
X013105Y013399D01*
X013192Y013354D01*
X013286Y013324D01*
X013364Y013311D01*
X013364Y013864D01*
X013499Y013864D01*
X013499Y013311D01*
X013577Y013324D01*
X013671Y013354D01*
X013499Y013341D02*
X013364Y013341D01*
X013234Y013341D02*
X012588Y013341D01*
X012429Y013499D02*
X012983Y013499D01*
X012872Y013658D02*
X012271Y013658D01*
X012112Y013816D02*
X012819Y013816D01*
X012842Y014133D02*
X011795Y014133D01*
X011637Y014292D02*
X012923Y014292D01*
X013086Y014450D02*
X011478Y014450D01*
X011320Y014609D02*
X014201Y014609D01*
X014201Y014767D02*
X011161Y014767D01*
X011003Y014926D02*
X014201Y014926D01*
X014201Y015084D02*
X010844Y015084D01*
X010685Y015243D02*
X014201Y015243D01*
X014201Y014450D02*
X013777Y014450D01*
X013758Y014464D02*
X013671Y014509D01*
X013577Y014539D01*
X013499Y014551D01*
X013499Y013999D01*
X014051Y013999D01*
X014039Y014077D01*
X014009Y014171D01*
X013964Y014258D01*
X013907Y014337D01*
X013837Y014407D01*
X013758Y014464D01*
X013940Y014292D02*
X014201Y014292D01*
X014201Y014133D02*
X014021Y014133D01*
X014201Y013975D02*
X013499Y013975D01*
X013364Y013975D02*
X011954Y013975D01*
X013364Y014133D02*
X013499Y014133D01*
X013499Y014292D02*
X013364Y014292D01*
X013364Y014450D02*
X013499Y014450D01*
X013499Y013816D02*
X013364Y013816D01*
X013364Y013658D02*
X013499Y013658D01*
X013499Y013499D02*
X013364Y013499D01*
X013880Y013499D02*
X014201Y013499D01*
X014201Y013658D02*
X013991Y013658D01*
X014044Y013816D02*
X014201Y013816D01*
X013499Y010011D02*
X013364Y010011D01*
X013364Y009853D02*
X013499Y009853D01*
X013499Y009694D02*
X013364Y009694D01*
X013364Y009535D02*
X013499Y009535D01*
X013364Y009377D02*
X010302Y009377D01*
X010460Y009218D02*
X012846Y009218D01*
X012931Y009060D02*
X010561Y009060D01*
X011409Y007950D02*
X012984Y007950D01*
X012841Y007791D02*
X011356Y007791D01*
X011314Y007474D02*
X012749Y007474D01*
X012749Y007316D02*
X011393Y007316D01*
X011409Y007157D02*
X012806Y007157D01*
X012898Y006999D02*
X011373Y006999D01*
X011266Y006840D02*
X013074Y006840D01*
X012776Y007633D02*
X011090Y007633D01*
X010773Y007633D02*
X010581Y007633D01*
X010581Y006840D02*
X010597Y006840D01*
X009781Y007316D02*
X009723Y007316D01*
X009781Y007474D02*
X004831Y007474D01*
X004831Y007316D02*
X005140Y007316D01*
X005008Y007157D02*
X004831Y007157D01*
X004930Y006999D02*
X004954Y006999D01*
X004433Y006365D02*
X003222Y006365D01*
X003301Y006523D02*
X004274Y006523D01*
X004591Y006206D02*
X003068Y006206D01*
X002835Y005889D02*
X004908Y005889D01*
X004750Y006048D02*
X001739Y006048D01*
X001897Y006206D02*
X002294Y006206D01*
X002140Y006365D02*
X001968Y006365D01*
X002033Y006523D02*
X002062Y006523D01*
X002086Y006999D02*
X002009Y006999D01*
X001943Y007157D02*
X002186Y007157D01*
X003140Y005730D02*
X005067Y005730D01*
X005254Y005572D02*
X003291Y005572D01*
X003356Y005413D02*
X006134Y005413D01*
X006292Y005255D02*
X005784Y005255D01*
X005836Y005202D02*
X005702Y005336D01*
X005526Y005409D01*
X005336Y005409D01*
X005161Y005336D01*
X005026Y005202D01*
X004954Y005026D01*
X004954Y004836D01*
X005026Y004661D01*
X005161Y004526D01*
X005336Y004454D01*
X005526Y004454D01*
X005702Y004526D01*
X005836Y004661D01*
X005909Y004836D01*
X005909Y005026D01*
X005836Y005202D01*
X005880Y005096D02*
X006451Y005096D01*
X006609Y004938D02*
X005909Y004938D01*
X005885Y004779D02*
X006768Y004779D01*
X006926Y004621D02*
X005796Y004621D01*
X005547Y004462D02*
X007031Y004462D01*
X007031Y004304D02*
X004081Y004304D01*
X004081Y004462D02*
X005316Y004462D01*
X005066Y004621D02*
X004036Y004621D01*
X003899Y004779D02*
X004977Y004779D01*
X004954Y004938D02*
X003741Y004938D01*
X003582Y005096D02*
X004983Y005096D01*
X005079Y005255D02*
X003424Y005255D01*
X004081Y004145D02*
X007031Y004145D01*
X005424Y008743D02*
X004831Y008743D01*
X004831Y008901D02*
X005246Y008901D01*
X005181Y009060D02*
X004831Y009060D01*
X004831Y009218D02*
X005171Y009218D01*
X005211Y009377D02*
X004831Y009377D01*
X004831Y009535D02*
X005318Y009535D01*
X005541Y009694D02*
X004831Y009694D01*
X004831Y009853D02*
X005293Y009853D01*
X005201Y010011D02*
X004831Y010011D01*
X004831Y010170D02*
X005171Y010170D01*
X005191Y010328D02*
X004831Y010328D01*
X004831Y010487D02*
X005270Y010487D01*
X005485Y010645D02*
X004831Y010645D01*
X004831Y010804D02*
X005342Y010804D01*
X005221Y010962D02*
X004831Y010962D01*
X004786Y011121D02*
X005171Y011121D01*
X005171Y011279D02*
X004649Y011279D01*
X004490Y011438D02*
X005237Y011438D01*
X005379Y011597D02*
X004332Y011597D01*
X004173Y011755D02*
X005394Y011755D01*
X005241Y011914D02*
X004015Y011914D01*
X003856Y012072D02*
X005175Y012072D01*
X005171Y012231D02*
X003698Y012231D01*
X003539Y012389D02*
X005216Y012389D01*
X005331Y012548D02*
X003381Y012548D01*
X003222Y012706D02*
X005512Y012706D01*
X005281Y012865D02*
X003064Y012865D01*
X002905Y013023D02*
X005196Y013023D01*
X005171Y013182D02*
X002746Y013182D01*
X002588Y013341D02*
X005196Y013341D01*
X005282Y013499D02*
X002429Y013499D01*
X002271Y013658D02*
X005515Y013658D01*
X005330Y013816D02*
X002048Y013816D01*
X001604Y013975D02*
X005216Y013975D01*
X005171Y014133D02*
X000661Y014133D01*
X000661Y013975D02*
X000759Y013975D01*
X000661Y014292D02*
X005176Y014292D01*
X005242Y014450D02*
X000661Y014450D01*
X000661Y014609D02*
X005397Y014609D01*
X004702Y016276D02*
X004526Y016204D01*
X004336Y016204D01*
X004161Y016276D01*
X004026Y016411D01*
X003954Y016586D01*
X003954Y016776D01*
X004026Y016952D01*
X004161Y017086D01*
X004336Y017159D01*
X004526Y017159D01*
X004702Y017086D01*
X004836Y016952D01*
X004909Y016776D01*
X004909Y016586D01*
X004836Y016411D01*
X004702Y016276D01*
X004779Y016353D02*
X005334Y016353D01*
X005235Y016511D02*
X004878Y016511D01*
X004909Y016670D02*
X005204Y016670D01*
X005225Y016828D02*
X004888Y016828D01*
X004801Y016987D02*
X005311Y016987D01*
X005553Y017146D02*
X004559Y017146D01*
X004303Y017146D02*
X000661Y017146D01*
X000661Y016987D02*
X002146Y016987D01*
X002159Y017000D02*
X002113Y016954D01*
X002074Y016900D01*
X002044Y016842D01*
X002024Y016779D01*
X002014Y016714D01*
X002014Y016682D01*
X002431Y016682D01*
X002431Y017099D01*
X002399Y017099D01*
X002334Y017089D01*
X002271Y017069D01*
X002212Y017039D01*
X002159Y017000D01*
X002040Y016828D02*
X000661Y016828D01*
X000661Y016670D02*
X002014Y016670D01*
X002014Y016681D02*
X002014Y016649D01*
X002024Y016584D01*
X002044Y016521D01*
X002074Y016462D01*
X002113Y016409D01*
X002159Y016363D01*
X002212Y016324D01*
X002271Y016294D01*
X002334Y016274D01*
X002399Y016264D01*
X002431Y016264D01*
X002431Y016681D01*
X002432Y016681D01*
X002432Y016682D01*
X002849Y016682D01*
X002849Y016714D01*
X002839Y016779D01*
X002819Y016842D01*
X002789Y016900D01*
X002750Y016954D01*
X002704Y017000D01*
X002650Y017039D01*
X002592Y017069D01*
X002529Y017089D01*
X002464Y017099D01*
X002432Y017099D01*
X002432Y016682D01*
X002431Y016682D01*
X002431Y016681D01*
X002014Y016681D01*
X002049Y016511D02*
X000661Y016511D01*
X000661Y016353D02*
X002173Y016353D01*
X002431Y016353D02*
X002432Y016353D01*
X002432Y016264D02*
X002464Y016264D01*
X002529Y016274D01*
X002592Y016294D01*
X002650Y016324D01*
X002704Y016363D01*
X002750Y016409D01*
X002789Y016462D01*
X002819Y016521D01*
X002839Y016584D01*
X002849Y016649D01*
X002849Y016681D01*
X002432Y016681D01*
X002432Y016264D01*
X002431Y016511D02*
X002432Y016511D01*
X002431Y016670D02*
X002432Y016670D01*
X002431Y016828D02*
X002432Y016828D01*
X002431Y016987D02*
X002432Y016987D01*
X002717Y016987D02*
X004061Y016987D01*
X003975Y016828D02*
X002823Y016828D01*
X002849Y016670D02*
X003954Y016670D01*
X003985Y016511D02*
X002814Y016511D01*
X002690Y016353D02*
X004084Y016353D01*
X004266Y017851D02*
X004597Y017851D01*
X004902Y017977D01*
X005135Y018211D01*
X005262Y018516D01*
X005262Y018847D01*
X005135Y019152D01*
X004902Y019385D01*
X004597Y019512D01*
X004266Y019512D01*
X003961Y019385D01*
X003727Y019152D01*
X003601Y018847D01*
X003601Y018516D01*
X003727Y018211D01*
X003961Y017977D01*
X004266Y017851D01*
X004055Y017938D02*
X002839Y017938D01*
X003053Y018097D02*
X003841Y018097D01*
X003709Y018255D02*
X003185Y018255D01*
X003251Y018414D02*
X003643Y018414D01*
X003601Y018572D02*
X003293Y018572D01*
X003293Y018731D02*
X003601Y018731D01*
X003619Y018890D02*
X003276Y018890D01*
X003210Y019048D02*
X003684Y019048D01*
X003782Y019207D02*
X003112Y019207D01*
X002954Y019365D02*
X003941Y019365D01*
X004922Y019365D02*
X005909Y019365D01*
X005751Y019207D02*
X005081Y019207D01*
X005179Y019048D02*
X005653Y019048D01*
X005587Y018890D02*
X005244Y018890D01*
X005262Y018731D02*
X005569Y018731D01*
X005569Y018572D02*
X005262Y018572D01*
X005220Y018414D02*
X005612Y018414D01*
X005677Y018255D02*
X005154Y018255D01*
X005021Y018097D02*
X005810Y018097D01*
X006024Y017938D02*
X004808Y017938D01*
X001774Y013023D02*
X001739Y013023D01*
X001581Y012865D02*
X001932Y012865D01*
X002091Y012706D02*
X000661Y012706D01*
X000661Y012548D02*
X002249Y012548D01*
X002408Y012389D02*
X000661Y012389D01*
X000661Y012231D02*
X002566Y012231D01*
X002725Y012072D02*
X000661Y012072D01*
X000661Y011914D02*
X000785Y011914D01*
X001114Y011914D02*
X001249Y011914D01*
X001249Y012051D02*
X001249Y011499D01*
X001801Y011499D01*
X001789Y011577D01*
X001759Y011671D01*
X001714Y011758D01*
X001657Y011837D01*
X001587Y011907D01*
X001508Y011964D01*
X001421Y012009D01*
X001327Y012039D01*
X001249Y012051D01*
X001249Y011755D02*
X001114Y011755D01*
X001114Y011597D02*
X001249Y011597D01*
X001249Y011438D02*
X003359Y011438D01*
X003201Y011597D02*
X001783Y011597D01*
X001716Y011755D02*
X003042Y011755D01*
X002884Y011914D02*
X001577Y011914D01*
X001801Y011364D02*
X001249Y011364D01*
X001249Y010811D01*
X001327Y010824D01*
X001421Y010854D01*
X001508Y010899D01*
X001587Y010956D01*
X001657Y011026D01*
X001714Y011105D01*
X001759Y011192D01*
X001789Y011286D01*
X001801Y011364D01*
X001787Y011279D02*
X003518Y011279D01*
X003676Y011121D02*
X001722Y011121D01*
X001593Y010962D02*
X003835Y010962D01*
X003993Y010804D02*
X000661Y010804D01*
X000661Y010962D02*
X000769Y010962D01*
X000661Y010645D02*
X004031Y010645D01*
X004031Y010487D02*
X000661Y010487D01*
X000661Y010328D02*
X004031Y010328D01*
X004031Y010170D02*
X000661Y010170D01*
X000661Y010011D02*
X004031Y010011D01*
X004031Y009853D02*
X000661Y009853D01*
X000661Y009694D02*
X004031Y009694D01*
X004031Y009535D02*
X000661Y009535D01*
X000661Y009377D02*
X004031Y009377D01*
X004031Y009218D02*
X000661Y009218D01*
X000661Y009060D02*
X004031Y009060D01*
X006321Y009694D02*
X008541Y009694D01*
X008572Y009681D02*
X008866Y009681D01*
X008572Y009681D01*
X008866Y009681D02*
X008866Y009681D01*
X013761Y008901D02*
X014201Y008901D01*
X014201Y009060D02*
X013931Y009060D01*
X014017Y009218D02*
X014201Y009218D01*
X014201Y017938D02*
X012776Y017938D01*
X012990Y018097D02*
X014201Y018097D01*
X014201Y018255D02*
X013122Y018255D01*
X013188Y018414D02*
X014201Y018414D01*
X014201Y018572D02*
X013230Y018572D01*
X013230Y018731D02*
X014201Y018731D01*
X014201Y018890D02*
X013213Y018890D01*
X013147Y019048D02*
X014201Y019048D01*
X014201Y019207D02*
X013049Y019207D01*
X012891Y019365D02*
X014201Y019365D01*
X012024Y017938D02*
X010808Y017938D01*
X011021Y018097D02*
X011810Y018097D01*
X011677Y018255D02*
X011154Y018255D01*
X011081Y019207D02*
X011751Y019207D01*
X011909Y019365D02*
X010922Y019365D01*
X001249Y011279D02*
X001114Y011279D01*
X001114Y011121D02*
X001249Y011121D01*
X001249Y010962D02*
X001114Y010962D01*
X000782Y012865D02*
X000661Y012865D01*
M02*
