G75*
G70*
%OFA0B0*%
%FSLAX24Y24*%
%IPPOS*%
%LPD*%
%AMOC8*
5,1,8,0,0,1.08239X$1,22.5*
%
%ADD10C,0.0554*%
%ADD11R,0.0554X0.0554*%
%ADD12C,0.0476*%
%ADD13C,0.1181*%
%ADD14R,0.0476X0.0476*%
%ADD15C,0.0520*%
%ADD16C,0.0945*%
%ADD17C,0.0886*%
%ADD18OC8,0.1000*%
%ADD19OC8,0.0520*%
%ADD20C,0.0160*%
%ADD21C,0.0320*%
D10*
X011681Y002931D03*
D11*
X012681Y002931D03*
D12*
X013681Y001431D03*
X013681Y005431D03*
X011931Y005681D03*
X010931Y007181D03*
X009431Y006931D03*
X009431Y004931D03*
X005431Y004931D03*
X005431Y006931D03*
X006431Y015431D03*
X005681Y016681D03*
X004431Y016681D03*
X002431Y016681D03*
X008431Y015431D03*
X009681Y016681D03*
X010681Y016681D03*
X012681Y016681D03*
D13*
X012400Y018681D03*
X010431Y018681D03*
X008463Y018681D03*
X006400Y018681D03*
X004431Y018681D03*
X002463Y018681D03*
X005463Y003181D03*
X007431Y003181D03*
X009400Y003181D03*
D14*
X011931Y004681D03*
X010931Y008181D03*
D15*
X009191Y008181D02*
X008671Y008181D01*
X008671Y009181D02*
X009191Y009181D01*
X009191Y010181D02*
X008671Y010181D01*
X008671Y011181D02*
X009191Y011181D01*
X009191Y012181D02*
X008671Y012181D01*
X008671Y013181D02*
X009191Y013181D01*
X009191Y014181D02*
X008671Y014181D01*
X006191Y014181D02*
X005671Y014181D01*
X005671Y013181D02*
X006191Y013181D01*
X006191Y012181D02*
X005671Y012181D01*
X005671Y011181D02*
X006191Y011181D01*
X006191Y010181D02*
X005671Y010181D01*
X005671Y009181D02*
X006191Y009181D01*
X006191Y008181D02*
X005671Y008181D01*
D16*
X002681Y008131D03*
X002681Y006731D03*
X002681Y005181D03*
X002681Y003931D03*
X002681Y002681D03*
D17*
X001181Y011431D03*
X001181Y013431D03*
X013431Y013931D03*
X013431Y011931D03*
X013431Y009431D03*
X013431Y007431D03*
D18*
X008431Y001431D03*
X006681Y001431D03*
D19*
X010181Y001431D03*
X012181Y001431D03*
D20*
X000661Y002080D02*
X000661Y000661D01*
X014201Y000661D01*
X014201Y020451D01*
X000661Y020448D01*
X000661Y013877D01*
X000795Y014010D01*
X001046Y014114D01*
X001317Y014114D01*
X001568Y014010D01*
X001760Y013818D01*
X001864Y013567D01*
X001864Y013296D01*
X001760Y013045D01*
X001568Y012852D01*
X001317Y012749D01*
X001046Y012749D01*
X000795Y012852D01*
X000661Y012986D01*
X000661Y011775D01*
X000706Y011837D01*
X000776Y011907D01*
X000855Y011964D01*
X000942Y012009D01*
X001036Y012039D01*
X001114Y012051D01*
X001114Y011499D01*
X001249Y011499D01*
X001249Y012051D01*
X001327Y012039D01*
X001421Y012009D01*
X001508Y011964D01*
X001587Y011907D01*
X001657Y011837D01*
X001714Y011758D01*
X001759Y011671D01*
X001789Y011577D01*
X001801Y011499D01*
X001249Y011499D01*
X001249Y011364D01*
X001801Y011364D01*
X001789Y011286D01*
X001759Y011192D01*
X001714Y011105D01*
X001657Y011026D01*
X001587Y010956D01*
X001508Y010899D01*
X001421Y010854D01*
X001327Y010824D01*
X001249Y010811D01*
X001249Y011364D01*
X001114Y011364D01*
X001114Y010811D01*
X001036Y010824D01*
X000942Y010854D01*
X000855Y010899D01*
X000776Y010956D01*
X000706Y011026D01*
X000661Y011087D01*
X000661Y008925D01*
X000950Y009044D01*
X001313Y009044D01*
X001649Y008905D01*
X001905Y008649D01*
X002015Y008384D01*
X002077Y008535D01*
X002278Y008735D01*
X002540Y008844D01*
X002823Y008844D01*
X003085Y008735D01*
X003285Y008535D01*
X003394Y008273D01*
X003394Y008035D01*
X003908Y007520D01*
X004020Y007408D01*
X004081Y007261D01*
X004081Y004761D01*
X004081Y004602D01*
X004020Y004455D01*
X003520Y003955D01*
X003394Y003828D01*
X004935Y003828D01*
X004992Y003885D02*
X004759Y003652D01*
X004632Y003347D01*
X004632Y003016D01*
X004759Y002711D01*
X004992Y002477D01*
X005298Y002351D01*
X005628Y002351D01*
X005933Y002477D01*
X006167Y002711D01*
X006293Y003016D01*
X006293Y003347D01*
X006167Y003652D01*
X005933Y003885D01*
X005831Y003928D01*
X005831Y004656D01*
X005836Y004661D01*
X005909Y004836D01*
X005909Y005026D01*
X005836Y005202D01*
X005831Y005207D01*
X005831Y006656D01*
X005836Y006661D01*
X005909Y006836D01*
X005909Y007026D01*
X005836Y007202D01*
X005702Y007336D01*
X005526Y007409D01*
X005336Y007409D01*
X005161Y007336D01*
X005026Y007202D01*
X004954Y007026D01*
X004954Y006836D01*
X005026Y006661D01*
X005031Y006656D01*
X005031Y005207D01*
X005026Y005202D01*
X004954Y005026D01*
X004954Y004836D01*
X005026Y004661D01*
X005031Y004656D01*
X005031Y003902D01*
X004992Y003885D01*
X005031Y003986D02*
X003552Y003986D01*
X003394Y003828D02*
X003394Y003790D01*
X003285Y003528D01*
X003085Y003327D01*
X002956Y003274D01*
X002971Y003268D01*
X003045Y003225D01*
X003112Y003173D01*
X003173Y003112D01*
X003225Y003045D01*
X003268Y002971D01*
X003301Y002892D01*
X003323Y002809D01*
X003329Y002759D01*
X002759Y002759D01*
X002759Y002604D01*
X003329Y002604D01*
X003323Y002554D01*
X003301Y002471D01*
X003268Y002392D01*
X003225Y002318D01*
X003173Y002250D01*
X003112Y002190D01*
X003045Y002138D01*
X002971Y002095D01*
X002892Y002062D01*
X002809Y002040D01*
X002759Y002034D01*
X002759Y002604D01*
X002604Y002604D01*
X002034Y002604D01*
X002040Y002554D01*
X002062Y002471D01*
X002095Y002392D01*
X002138Y002318D01*
X002190Y002250D01*
X002250Y002190D01*
X002318Y002138D01*
X002392Y002095D01*
X002471Y002062D01*
X002554Y002040D01*
X002604Y002034D01*
X002604Y002604D01*
X002604Y002759D01*
X002034Y002759D01*
X002040Y002809D01*
X002062Y002892D01*
X002095Y002971D01*
X002138Y003045D01*
X002190Y003112D01*
X002250Y003173D01*
X002318Y003225D01*
X002392Y003268D01*
X002407Y003274D01*
X002278Y003327D01*
X002077Y003528D01*
X001969Y003790D01*
X001969Y004073D01*
X002077Y004335D01*
X002278Y004535D01*
X002329Y004556D01*
X002278Y004577D01*
X002077Y004778D01*
X001969Y005040D01*
X001969Y005323D01*
X002077Y005585D01*
X002278Y005785D01*
X002540Y005894D01*
X002823Y005894D01*
X003085Y005785D01*
X003281Y005589D01*
X003281Y006475D01*
X003268Y006442D01*
X003225Y006368D01*
X003173Y006300D01*
X003112Y006240D01*
X003045Y006188D01*
X002971Y006145D01*
X002892Y006112D01*
X002809Y006090D01*
X002759Y006084D01*
X002759Y006654D01*
X002604Y006654D01*
X002604Y006084D01*
X002554Y006090D01*
X002471Y006112D01*
X002392Y006145D01*
X002318Y006188D01*
X002250Y006240D01*
X002190Y006300D01*
X002138Y006368D01*
X002095Y006442D01*
X002062Y006521D01*
X002044Y006588D01*
X002044Y006550D01*
X001905Y006214D01*
X001649Y005957D01*
X001436Y005869D01*
X001571Y005814D01*
X001789Y005596D01*
X001907Y005311D01*
X001907Y005002D01*
X001789Y004717D01*
X001615Y004544D01*
X001789Y004371D01*
X001907Y004086D01*
X001907Y003777D01*
X001789Y003492D01*
X001615Y003319D01*
X001789Y003146D01*
X001907Y002861D01*
X001907Y002552D01*
X001789Y002267D01*
X001571Y002049D01*
X001286Y001931D01*
X000977Y001931D01*
X000692Y002049D01*
X000661Y002080D01*
X000661Y001925D02*
X006129Y001925D01*
X005970Y001767D02*
X000661Y001767D01*
X000661Y001608D02*
X005941Y001608D01*
X005941Y001738D02*
X005941Y001125D01*
X006375Y000691D01*
X006988Y000691D01*
X007421Y001125D01*
X007421Y001738D01*
X006988Y002171D01*
X006375Y002171D01*
X005941Y001738D01*
X005941Y001450D02*
X000661Y001450D01*
X000661Y001291D02*
X005941Y001291D01*
X005941Y001133D02*
X000661Y001133D01*
X000661Y000974D02*
X006092Y000974D01*
X006251Y000816D02*
X000661Y000816D01*
X001605Y002084D02*
X002419Y002084D01*
X002604Y002084D02*
X002759Y002084D01*
X002759Y002242D02*
X002604Y002242D01*
X002604Y002401D02*
X002759Y002401D01*
X002759Y002560D02*
X002604Y002560D01*
X002604Y002718D02*
X001907Y002718D01*
X001907Y002560D02*
X002039Y002560D01*
X002091Y002401D02*
X001844Y002401D01*
X001764Y002242D02*
X002198Y002242D01*
X002058Y002877D02*
X001900Y002877D01*
X001834Y003035D02*
X002132Y003035D01*
X002277Y003194D02*
X001740Y003194D01*
X001649Y003352D02*
X002253Y003352D01*
X002094Y003511D02*
X001796Y003511D01*
X001862Y003669D02*
X002019Y003669D01*
X001969Y003828D02*
X001907Y003828D01*
X001907Y003986D02*
X001969Y003986D01*
X001999Y004145D02*
X001882Y004145D01*
X001816Y004304D02*
X002064Y004304D01*
X002205Y004462D02*
X001697Y004462D01*
X001692Y004621D02*
X002235Y004621D01*
X002077Y004779D02*
X001814Y004779D01*
X001880Y004938D02*
X002011Y004938D01*
X001969Y005096D02*
X001907Y005096D01*
X001907Y005255D02*
X001969Y005255D01*
X002006Y005413D02*
X001864Y005413D01*
X001798Y005572D02*
X002072Y005572D01*
X002223Y005730D02*
X001654Y005730D01*
X001483Y005889D02*
X002528Y005889D01*
X002835Y005889D02*
X003281Y005889D01*
X003281Y006048D02*
X001739Y006048D01*
X001897Y006206D02*
X002294Y006206D01*
X002140Y006365D02*
X001968Y006365D01*
X002033Y006523D02*
X002062Y006523D01*
X002044Y006875D02*
X002044Y006913D01*
X001905Y007249D01*
X001723Y007431D01*
X001905Y007614D01*
X002015Y007879D01*
X002077Y007728D01*
X002278Y007527D01*
X002540Y007419D01*
X002823Y007419D01*
X002862Y007435D01*
X002991Y007306D01*
X002971Y007318D01*
X002892Y007351D01*
X002809Y007373D01*
X002759Y007379D01*
X002759Y006809D01*
X002604Y006809D01*
X002604Y007379D01*
X002554Y007373D01*
X002471Y007351D01*
X002392Y007318D01*
X002318Y007275D01*
X002250Y007223D01*
X002190Y007162D01*
X002138Y007095D01*
X002095Y007021D01*
X002062Y006942D01*
X002044Y006875D01*
X002009Y006999D02*
X002086Y006999D01*
X002186Y007157D02*
X001943Y007157D01*
X001838Y007316D02*
X002389Y007316D01*
X002406Y007474D02*
X001766Y007474D01*
X001913Y007633D02*
X002172Y007633D01*
X002051Y007791D02*
X001979Y007791D01*
X001998Y008426D02*
X002032Y008426D01*
X002127Y008584D02*
X001932Y008584D01*
X001811Y008743D02*
X002296Y008743D01*
X001653Y008901D02*
X005146Y008901D01*
X005092Y008955D02*
X005205Y008842D01*
X005352Y008781D01*
X005364Y008781D01*
X005388Y008758D01*
X005572Y008681D01*
X006291Y008681D01*
X006475Y008758D01*
X006615Y008898D01*
X006691Y009082D01*
X006691Y009106D01*
X007955Y007842D01*
X008102Y007781D01*
X008261Y007781D01*
X008364Y007781D01*
X008388Y007758D01*
X008572Y007681D01*
X009291Y007681D01*
X009475Y007758D01*
X009615Y007898D01*
X009691Y008082D01*
X009691Y008281D01*
X009615Y008465D01*
X009475Y008605D01*
X009291Y008681D01*
X008572Y008681D01*
X008388Y008605D01*
X008364Y008581D01*
X008347Y008581D01*
X006691Y010237D01*
X006691Y010281D01*
X006615Y010465D01*
X006475Y010605D01*
X006291Y010681D01*
X005572Y010681D01*
X005388Y010605D01*
X005331Y010548D01*
X005331Y010814D01*
X005388Y010758D01*
X005572Y010681D01*
X006291Y010681D01*
X006475Y010758D01*
X006498Y010781D01*
X006766Y010781D01*
X007592Y009955D01*
X007705Y009842D01*
X007852Y009781D01*
X008364Y009781D01*
X008388Y009758D01*
X008572Y009681D01*
X008388Y009605D01*
X008248Y009465D01*
X008171Y009281D01*
X008171Y009082D01*
X008248Y008898D01*
X008388Y008758D01*
X008572Y008681D01*
X009291Y008681D01*
X009475Y008758D01*
X009498Y008781D01*
X009766Y008781D01*
X010454Y008094D01*
X010454Y007896D01*
X010490Y007808D01*
X010558Y007740D01*
X010646Y007704D01*
X011217Y007704D01*
X011305Y007740D01*
X011373Y007808D01*
X011409Y007896D01*
X011409Y008467D01*
X011373Y008555D01*
X011305Y008623D01*
X011217Y008659D01*
X011019Y008659D01*
X010158Y009520D01*
X010011Y009581D01*
X009852Y009581D01*
X009498Y009581D01*
X009475Y009605D01*
X009291Y009681D01*
X008572Y009681D01*
X009291Y009681D01*
X009475Y009758D01*
X009615Y009898D01*
X009691Y010082D01*
X009691Y010281D01*
X009615Y010465D01*
X009475Y010605D01*
X009291Y010681D01*
X008572Y010681D01*
X008388Y010605D01*
X008364Y010581D01*
X008097Y010581D01*
X007497Y011181D01*
X008020Y011705D01*
X008081Y011852D01*
X008081Y012011D01*
X008081Y013016D01*
X008171Y013106D01*
X008171Y013082D01*
X008248Y012898D01*
X008388Y012758D01*
X008531Y012698D01*
X008531Y012665D01*
X008388Y012605D01*
X008248Y012465D01*
X008171Y012281D01*
X008171Y012082D01*
X008248Y011898D01*
X008388Y011758D01*
X008572Y011681D01*
X008388Y011605D01*
X008248Y011465D01*
X008171Y011281D01*
X008171Y011082D01*
X008248Y010898D01*
X008388Y010758D01*
X008572Y010681D01*
X009291Y010681D01*
X009475Y010758D01*
X009498Y010781D01*
X009516Y010781D01*
X012749Y007549D01*
X012749Y007296D01*
X012852Y007045D01*
X013045Y006852D01*
X013296Y006749D01*
X013567Y006749D01*
X013818Y006852D01*
X014010Y007045D01*
X014114Y007296D01*
X014114Y007567D01*
X014010Y007818D01*
X013818Y008010D01*
X013567Y008114D01*
X013314Y008114D01*
X010020Y011408D01*
X009908Y011520D01*
X009761Y011581D01*
X009498Y011581D01*
X009475Y011605D01*
X009291Y011681D01*
X008572Y011681D01*
X009291Y011681D01*
X009475Y011758D01*
X009615Y011898D01*
X009691Y012082D01*
X009691Y012281D01*
X009615Y012465D01*
X009475Y012605D01*
X009331Y012665D01*
X009331Y012698D01*
X009475Y012758D01*
X009498Y012781D01*
X009761Y012781D01*
X009908Y012842D01*
X010020Y012955D01*
X013020Y015955D01*
X013081Y016102D01*
X013081Y016261D01*
X013081Y016406D01*
X013086Y016411D01*
X013159Y016586D01*
X013159Y016776D01*
X013086Y016952D01*
X013081Y016957D01*
X013081Y018188D01*
X013104Y018211D01*
X013230Y018516D01*
X013230Y018847D01*
X013104Y019152D01*
X012870Y019385D01*
X012565Y019512D01*
X012235Y019512D01*
X011929Y019385D01*
X011696Y019152D01*
X011569Y018847D01*
X011569Y018516D01*
X011696Y018211D01*
X011929Y017977D01*
X012235Y017851D01*
X012281Y017851D01*
X012281Y016957D01*
X012276Y016952D01*
X012204Y016776D01*
X012204Y016586D01*
X012276Y016411D01*
X012281Y016406D01*
X012281Y016347D01*
X009516Y013581D01*
X009498Y013581D01*
X009475Y013605D01*
X009291Y013681D01*
X008747Y013681D01*
X008747Y013681D01*
X009291Y013681D01*
X009475Y013758D01*
X009615Y013898D01*
X009691Y014082D01*
X009691Y014281D01*
X009615Y014465D01*
X009475Y014605D01*
X009291Y014681D01*
X008997Y014681D01*
X008831Y014847D01*
X008831Y015156D01*
X008836Y015161D01*
X008909Y015336D01*
X008909Y015526D01*
X008836Y015702D01*
X008702Y015836D01*
X008526Y015909D01*
X008336Y015909D01*
X008161Y015836D01*
X008026Y015702D01*
X007954Y015526D01*
X007954Y015336D01*
X008026Y015161D01*
X008031Y015156D01*
X008031Y014761D01*
X008031Y014602D01*
X008092Y014455D01*
X008199Y014348D01*
X008171Y014281D01*
X008171Y014237D01*
X007455Y013520D01*
X007342Y013408D01*
X007281Y013261D01*
X007281Y012097D01*
X006766Y011581D01*
X006498Y011581D01*
X006475Y011605D01*
X006291Y011681D01*
X005572Y011681D01*
X005388Y011605D01*
X005331Y011548D01*
X005331Y011814D01*
X005388Y011758D01*
X005572Y011681D01*
X006291Y011681D01*
X006475Y011758D01*
X006615Y011898D01*
X006691Y012082D01*
X006691Y012281D01*
X006615Y012465D01*
X006475Y012605D01*
X006291Y012681D01*
X005747Y012681D01*
X005747Y012681D01*
X006291Y012681D01*
X006475Y012758D01*
X006615Y012898D01*
X006691Y013082D01*
X006691Y013281D01*
X006615Y013465D01*
X006475Y013605D01*
X006291Y013681D01*
X005572Y013681D01*
X005519Y013659D01*
X005444Y013734D01*
X005572Y013681D01*
X006291Y013681D01*
X006475Y013758D01*
X006615Y013898D01*
X006691Y014082D01*
X006691Y014281D01*
X006664Y014348D01*
X008597Y016281D01*
X009406Y016281D01*
X009411Y016276D01*
X009586Y016204D01*
X009776Y016204D01*
X009952Y016276D01*
X010086Y016411D01*
X010159Y016586D01*
X010159Y016776D01*
X010086Y016952D01*
X009952Y017086D01*
X009776Y017159D01*
X009586Y017159D01*
X009411Y017086D01*
X009406Y017081D01*
X008597Y017081D01*
X007210Y018468D01*
X007230Y018516D01*
X007230Y018847D01*
X007104Y019152D01*
X006874Y019381D01*
X007197Y019381D01*
X007662Y018917D01*
X007632Y018847D01*
X007632Y018516D01*
X007759Y018211D01*
X007992Y017977D01*
X008298Y017851D01*
X008628Y017851D01*
X008933Y017977D01*
X009167Y018211D01*
X009293Y018516D01*
X009293Y018847D01*
X009167Y019152D01*
X008933Y019385D01*
X008628Y019512D01*
X008298Y019512D01*
X008227Y019483D01*
X007589Y020120D01*
X007442Y020181D01*
X007283Y020181D01*
X003602Y020181D01*
X003455Y020120D01*
X003342Y020008D01*
X002782Y019448D01*
X002628Y019512D01*
X002298Y019512D01*
X001992Y019385D01*
X001759Y019152D01*
X001632Y018847D01*
X001632Y018516D01*
X001759Y018211D01*
X001992Y017977D01*
X002298Y017851D01*
X002628Y017851D01*
X002933Y017977D01*
X003167Y018211D01*
X003293Y018516D01*
X003293Y018828D01*
X003847Y019381D01*
X003957Y019381D01*
X003727Y019152D01*
X003601Y018847D01*
X003601Y018516D01*
X003727Y018211D01*
X003961Y017977D01*
X004266Y017851D01*
X004597Y017851D01*
X004902Y017977D01*
X005135Y018211D01*
X005165Y018281D01*
X005667Y018281D01*
X005696Y018211D01*
X005929Y017977D01*
X006235Y017851D01*
X006565Y017851D01*
X006658Y017889D01*
X007866Y016681D01*
X006804Y015620D01*
X006789Y015650D01*
X006750Y015704D01*
X006704Y015750D01*
X006650Y015789D01*
X006592Y015819D01*
X006529Y015839D01*
X006464Y015849D01*
X006432Y015849D01*
X006432Y015432D01*
X006431Y015432D01*
X006431Y015849D01*
X006399Y015849D01*
X006334Y015839D01*
X006271Y015819D01*
X006212Y015789D01*
X006159Y015750D01*
X006113Y015704D01*
X006081Y015660D01*
X006081Y015761D01*
X006081Y016406D01*
X006086Y016411D01*
X006159Y016586D01*
X006159Y016776D01*
X006086Y016952D01*
X005952Y017086D01*
X005776Y017159D01*
X005586Y017159D01*
X005411Y017086D01*
X005406Y017081D01*
X004707Y017081D01*
X004702Y017086D01*
X004526Y017159D01*
X004336Y017159D01*
X004161Y017086D01*
X004026Y016952D01*
X003954Y016776D01*
X003954Y016586D01*
X004026Y016411D01*
X004161Y016276D01*
X004336Y016204D01*
X004526Y016204D01*
X004702Y016276D01*
X004707Y016281D01*
X005281Y016281D01*
X005281Y015847D01*
X004455Y015020D01*
X004342Y014908D01*
X004281Y014761D01*
X004281Y014011D01*
X004281Y013852D01*
X004342Y013705D01*
X004842Y013205D01*
X004991Y013056D01*
X004705Y012770D01*
X004592Y012658D01*
X004531Y012511D01*
X004531Y009761D01*
X004531Y009602D01*
X004592Y009455D01*
X004842Y009205D01*
X005092Y008955D01*
X004987Y009060D02*
X000661Y009060D01*
X000661Y009218D02*
X004829Y009218D01*
X004670Y009377D02*
X000661Y009377D01*
X000661Y009535D02*
X004559Y009535D01*
X004531Y009694D02*
X000661Y009694D01*
X000661Y009853D02*
X004531Y009853D01*
X004531Y010011D02*
X000661Y010011D01*
X000661Y010170D02*
X004531Y010170D01*
X004531Y010328D02*
X000661Y010328D01*
X000661Y010487D02*
X004531Y010487D01*
X004531Y010645D02*
X000661Y010645D01*
X000661Y010804D02*
X004531Y010804D01*
X004531Y010962D02*
X001593Y010962D01*
X001722Y011121D02*
X004531Y011121D01*
X004531Y011279D02*
X001787Y011279D01*
X001783Y011597D02*
X004531Y011597D01*
X004531Y011755D02*
X001716Y011755D01*
X001577Y011914D02*
X004531Y011914D01*
X004531Y012072D02*
X000661Y012072D01*
X000661Y011914D02*
X000785Y011914D01*
X000661Y012231D02*
X004531Y012231D01*
X004531Y012389D02*
X000661Y012389D01*
X000661Y012548D02*
X004547Y012548D01*
X004641Y012706D02*
X000661Y012706D01*
X000661Y012865D02*
X000782Y012865D01*
X001114Y011914D02*
X001249Y011914D01*
X001249Y011755D02*
X001114Y011755D01*
X001114Y011597D02*
X001249Y011597D01*
X001249Y011438D02*
X004531Y011438D01*
X005331Y011597D02*
X005379Y011597D01*
X005394Y011755D02*
X005331Y011755D01*
X005331Y010804D02*
X005342Y010804D01*
X005331Y010645D02*
X005485Y010645D01*
X006378Y010645D02*
X006902Y010645D01*
X007060Y010487D02*
X006593Y010487D01*
X006672Y010328D02*
X007219Y010328D01*
X007377Y010170D02*
X006759Y010170D01*
X006917Y010011D02*
X007536Y010011D01*
X007695Y009853D02*
X007076Y009853D01*
X007234Y009694D02*
X008541Y009694D01*
X008318Y009535D02*
X007393Y009535D01*
X007552Y009377D02*
X008211Y009377D01*
X008171Y009218D02*
X007710Y009218D01*
X007869Y009060D02*
X008181Y009060D01*
X008246Y008901D02*
X008027Y008901D01*
X008186Y008743D02*
X008424Y008743D01*
X008367Y008584D02*
X008344Y008584D01*
X007847Y007950D02*
X006567Y007950D01*
X006568Y007951D02*
X006599Y008012D01*
X006621Y008078D01*
X006631Y008147D01*
X006631Y008181D01*
X005932Y008181D01*
X005932Y008182D01*
X005931Y008182D01*
X005931Y008621D01*
X005637Y008621D01*
X005568Y008611D01*
X005502Y008589D01*
X005441Y008558D01*
X005385Y008517D01*
X005336Y008468D01*
X005295Y008412D01*
X005264Y008350D01*
X005242Y008284D01*
X005231Y008216D01*
X005231Y008182D01*
X005931Y008182D01*
X005931Y008181D01*
X005932Y008181D01*
X005932Y007741D01*
X006226Y007741D01*
X006294Y007752D01*
X006360Y007774D01*
X006422Y007805D01*
X006478Y007846D01*
X006527Y007895D01*
X006568Y007951D01*
X006625Y008109D02*
X007689Y008109D01*
X007530Y008267D02*
X006623Y008267D01*
X006621Y008284D02*
X006599Y008350D01*
X006568Y008412D01*
X006527Y008468D01*
X006478Y008517D01*
X006422Y008558D01*
X006360Y008589D01*
X006294Y008611D01*
X006226Y008621D01*
X005932Y008621D01*
X005932Y008182D01*
X006631Y008182D01*
X006631Y008216D01*
X006621Y008284D01*
X006558Y008426D02*
X007371Y008426D01*
X007213Y008584D02*
X006370Y008584D01*
X006439Y008743D02*
X007054Y008743D01*
X006896Y008901D02*
X006617Y008901D01*
X006682Y009060D02*
X006737Y009060D01*
X005932Y008584D02*
X005931Y008584D01*
X005931Y008426D02*
X005932Y008426D01*
X005931Y008267D02*
X005932Y008267D01*
X005931Y008181D02*
X005231Y008181D01*
X005231Y008147D01*
X005242Y008078D01*
X005264Y008012D01*
X005295Y007951D01*
X005336Y007895D01*
X005385Y007846D01*
X005441Y007805D01*
X005502Y007774D01*
X005568Y007752D01*
X005637Y007741D01*
X005931Y007741D01*
X005931Y008181D01*
X005931Y008109D02*
X005932Y008109D01*
X005931Y007950D02*
X005932Y007950D01*
X005931Y007791D02*
X005932Y007791D01*
X005723Y007316D02*
X009140Y007316D01*
X009161Y007336D02*
X009026Y007202D01*
X008954Y007026D01*
X008954Y006836D01*
X009026Y006661D01*
X009161Y006526D01*
X009336Y006454D01*
X009526Y006454D01*
X009702Y006526D01*
X009707Y006531D01*
X010761Y006531D01*
X010908Y006592D01*
X011019Y006704D01*
X011026Y006704D01*
X011202Y006776D01*
X011336Y006911D01*
X011409Y007086D01*
X011409Y007276D01*
X011336Y007452D01*
X011202Y007586D01*
X011026Y007659D01*
X010836Y007659D01*
X010661Y007586D01*
X010526Y007452D01*
X010476Y007331D01*
X009707Y007331D01*
X009702Y007336D01*
X009526Y007409D01*
X009336Y007409D01*
X009161Y007336D01*
X009008Y007157D02*
X005855Y007157D01*
X005909Y006999D02*
X008954Y006999D01*
X008954Y006840D02*
X005909Y006840D01*
X005845Y006682D02*
X009018Y006682D01*
X009168Y006523D02*
X005831Y006523D01*
X005831Y006365D02*
X014201Y006365D01*
X014201Y006523D02*
X009694Y006523D01*
X009529Y005339D02*
X009464Y005349D01*
X009432Y005349D01*
X009432Y004932D01*
X009849Y004932D01*
X009849Y004964D01*
X009839Y005029D01*
X009819Y005092D01*
X009789Y005150D01*
X009750Y005204D01*
X009704Y005250D01*
X009650Y005289D01*
X009592Y005319D01*
X009529Y005339D01*
X009431Y005349D02*
X009399Y005349D01*
X009334Y005339D01*
X009271Y005319D01*
X009212Y005289D01*
X009159Y005250D01*
X009113Y005204D01*
X009074Y005150D01*
X009044Y005092D01*
X009024Y005029D01*
X009014Y004964D01*
X009014Y004932D01*
X009431Y004932D01*
X009431Y005349D01*
X009431Y005255D02*
X009432Y005255D01*
X009431Y005096D02*
X009432Y005096D01*
X009431Y004938D02*
X009432Y004938D01*
X009432Y004932D02*
X009431Y004932D01*
X009431Y004931D01*
X009432Y004931D01*
X009432Y004932D01*
X009432Y004931D02*
X009849Y004931D01*
X009849Y004899D01*
X009839Y004834D01*
X009819Y004771D01*
X009789Y004712D01*
X009750Y004659D01*
X009704Y004613D01*
X009650Y004574D01*
X009592Y004544D01*
X009529Y004524D01*
X009464Y004514D01*
X009432Y004514D01*
X009432Y004931D01*
X009431Y004931D02*
X009431Y004514D01*
X009399Y004514D01*
X009334Y004524D01*
X009271Y004544D01*
X009212Y004574D01*
X009159Y004613D01*
X009113Y004659D01*
X009074Y004712D01*
X009044Y004771D01*
X009024Y004834D01*
X009014Y004899D01*
X009014Y004931D01*
X009431Y004931D01*
X009431Y004779D02*
X009432Y004779D01*
X009431Y004621D02*
X009432Y004621D01*
X009711Y004621D02*
X011454Y004621D01*
X011454Y004779D02*
X009821Y004779D01*
X009849Y004938D02*
X011454Y004938D01*
X011454Y004967D02*
X011454Y004396D01*
X011490Y004308D01*
X011558Y004240D01*
X011646Y004204D01*
X012217Y004204D01*
X012305Y004240D01*
X012373Y004308D01*
X012409Y004396D01*
X012409Y004967D01*
X012373Y005055D01*
X012305Y005123D01*
X012217Y005159D01*
X011646Y005159D01*
X011558Y005123D01*
X011490Y005055D01*
X011454Y004967D01*
X011531Y005096D02*
X009816Y005096D01*
X009697Y005255D02*
X013302Y005255D01*
X013294Y005271D02*
X013324Y005212D01*
X013363Y005159D01*
X013409Y005113D01*
X013462Y005074D01*
X013521Y005044D01*
X013584Y005024D01*
X013649Y005014D01*
X013681Y005014D01*
X013681Y005431D01*
X013264Y005431D01*
X013264Y005399D01*
X013274Y005334D01*
X013294Y005271D01*
X013264Y005413D02*
X012253Y005413D01*
X012250Y005409D02*
X012289Y005462D01*
X012319Y005521D01*
X012339Y005584D01*
X012349Y005649D01*
X012349Y005681D01*
X011932Y005681D01*
X011932Y005682D01*
X011931Y005682D01*
X011931Y006099D01*
X011899Y006099D01*
X011834Y006089D01*
X011771Y006069D01*
X011712Y006039D01*
X011659Y006000D01*
X011613Y005954D01*
X011574Y005900D01*
X011544Y005842D01*
X011524Y005779D01*
X011514Y005714D01*
X011514Y005682D01*
X011931Y005682D01*
X011931Y005681D01*
X011514Y005681D01*
X011514Y005649D01*
X011524Y005584D01*
X011544Y005521D01*
X011574Y005462D01*
X011613Y005409D01*
X011659Y005363D01*
X011712Y005324D01*
X011771Y005294D01*
X011834Y005274D01*
X011899Y005264D01*
X011931Y005264D01*
X011931Y005681D01*
X011932Y005681D01*
X011932Y005264D01*
X011964Y005264D01*
X012029Y005274D01*
X012092Y005294D01*
X012150Y005324D01*
X012204Y005363D01*
X012250Y005409D01*
X012335Y005572D02*
X013288Y005572D01*
X013294Y005592D02*
X013274Y005529D01*
X013264Y005464D01*
X013264Y005432D01*
X013681Y005432D01*
X013681Y005849D01*
X013649Y005849D01*
X013584Y005839D01*
X013521Y005819D01*
X013462Y005789D01*
X013409Y005750D01*
X013363Y005704D01*
X013324Y005650D01*
X013294Y005592D01*
X013390Y005730D02*
X012347Y005730D01*
X012349Y005714D02*
X012339Y005779D01*
X012319Y005842D01*
X012289Y005900D01*
X012250Y005954D01*
X012204Y006000D01*
X012150Y006039D01*
X012092Y006069D01*
X012029Y006089D01*
X011964Y006099D01*
X011932Y006099D01*
X011932Y005682D01*
X012349Y005682D01*
X012349Y005714D01*
X012295Y005889D02*
X014201Y005889D01*
X014201Y006048D02*
X012133Y006048D01*
X011932Y006048D02*
X011931Y006048D01*
X011931Y005889D02*
X011932Y005889D01*
X011931Y005730D02*
X011932Y005730D01*
X011931Y005572D02*
X011932Y005572D01*
X011931Y005413D02*
X011932Y005413D01*
X011610Y005413D02*
X005831Y005413D01*
X005831Y005255D02*
X009166Y005255D01*
X009047Y005096D02*
X005880Y005096D01*
X005909Y004938D02*
X009014Y004938D01*
X009042Y004779D02*
X005885Y004779D01*
X005831Y004621D02*
X009151Y004621D01*
X009249Y003939D02*
X009152Y003913D01*
X009058Y003874D01*
X008971Y003823D01*
X008891Y003762D01*
X008819Y003691D01*
X008758Y003610D01*
X008707Y003523D01*
X008669Y003430D01*
X008643Y003332D01*
X008633Y003261D01*
X009320Y003261D01*
X009320Y003101D01*
X009480Y003101D01*
X009480Y002415D01*
X009551Y002424D01*
X009648Y002450D01*
X009741Y002489D01*
X009829Y002539D01*
X009909Y002601D01*
X009980Y002672D01*
X010042Y002752D01*
X010092Y002840D01*
X010131Y002933D01*
X010157Y003031D01*
X010167Y003101D01*
X009480Y003101D01*
X009480Y003261D01*
X010167Y003261D01*
X010157Y003332D01*
X010131Y003430D01*
X010092Y003523D01*
X010042Y003610D01*
X009980Y003691D01*
X009909Y003762D01*
X009829Y003823D01*
X009741Y003874D01*
X009648Y003913D01*
X009551Y003939D01*
X009480Y003948D01*
X009480Y003262D01*
X009320Y003262D01*
X009320Y003948D01*
X009249Y003939D01*
X009320Y003828D02*
X009480Y003828D01*
X009480Y003669D02*
X009320Y003669D01*
X009320Y003511D02*
X009480Y003511D01*
X009480Y003352D02*
X009320Y003352D01*
X009320Y003194D02*
X008262Y003194D01*
X008262Y003347D02*
X008135Y003652D01*
X007902Y003885D01*
X007597Y004012D01*
X007266Y004012D01*
X006961Y003885D01*
X006727Y003652D01*
X006601Y003347D01*
X006601Y003016D01*
X006727Y002711D01*
X006961Y002477D01*
X007266Y002351D01*
X007597Y002351D01*
X007902Y002477D01*
X008135Y002711D01*
X008262Y003016D01*
X008262Y003347D01*
X008260Y003352D02*
X008648Y003352D01*
X008702Y003511D02*
X008194Y003511D01*
X008118Y003669D02*
X008803Y003669D01*
X008979Y003828D02*
X007959Y003828D01*
X007658Y003986D02*
X014201Y003986D01*
X014201Y003828D02*
X009821Y003828D01*
X009997Y003669D02*
X014201Y003669D01*
X014201Y003511D02*
X010097Y003511D01*
X010152Y003352D02*
X011371Y003352D01*
X011388Y003370D02*
X011243Y003224D01*
X011164Y003034D01*
X011164Y002829D01*
X011243Y002638D01*
X011388Y002493D01*
X011579Y002414D01*
X011784Y002414D01*
X011974Y002493D01*
X012120Y002638D01*
X012164Y002746D01*
X012164Y002606D01*
X012201Y002518D01*
X012268Y002451D01*
X012356Y002414D01*
X013006Y002414D01*
X013095Y002451D01*
X013162Y002518D01*
X013199Y002606D01*
X013199Y003256D01*
X013162Y003345D01*
X013095Y003412D01*
X013006Y003449D01*
X012356Y003449D01*
X012268Y003412D01*
X012201Y003345D01*
X012164Y003256D01*
X012164Y003117D01*
X012120Y003224D01*
X011974Y003370D01*
X011784Y003449D01*
X011579Y003449D01*
X011388Y003370D01*
X011230Y003194D02*
X009480Y003194D01*
X009480Y003035D02*
X009320Y003035D01*
X009320Y003101D02*
X009320Y002415D01*
X009249Y002424D01*
X009152Y002450D01*
X009058Y002489D01*
X008971Y002539D01*
X008891Y002601D01*
X008819Y002672D01*
X008758Y002752D01*
X008707Y002840D01*
X008669Y002933D01*
X008643Y003031D01*
X008633Y003101D01*
X009320Y003101D01*
X009320Y002877D02*
X009480Y002877D01*
X009480Y002718D02*
X009320Y002718D01*
X009320Y002560D02*
X009480Y002560D01*
X009855Y002560D02*
X011322Y002560D01*
X011210Y002718D02*
X010016Y002718D01*
X010108Y002877D02*
X011164Y002877D01*
X011165Y003035D02*
X010158Y003035D01*
X009974Y001931D02*
X009681Y001639D01*
X009681Y001224D01*
X009974Y000931D01*
X010389Y000931D01*
X010681Y001224D01*
X010681Y001639D01*
X010389Y001931D01*
X009974Y001931D01*
X009968Y001925D02*
X008984Y001925D01*
X009142Y001767D02*
X009810Y001767D01*
X009681Y001608D02*
X009171Y001608D01*
X009171Y001738D02*
X008738Y002171D01*
X008125Y002171D01*
X007691Y001738D01*
X007691Y001125D01*
X008125Y000691D01*
X008738Y000691D01*
X009171Y001125D01*
X009171Y001738D01*
X009171Y001450D02*
X009681Y001450D01*
X009681Y001291D02*
X009171Y001291D01*
X009171Y001133D02*
X009773Y001133D01*
X009932Y000974D02*
X009021Y000974D01*
X008862Y000816D02*
X014201Y000816D01*
X014201Y000974D02*
X013826Y000974D01*
X013776Y000954D02*
X013952Y001026D01*
X014086Y001161D01*
X014159Y001336D01*
X014159Y001526D01*
X014086Y001702D01*
X013952Y001836D01*
X013776Y001909D01*
X013586Y001909D01*
X013411Y001836D01*
X013276Y001702D01*
X013204Y001526D01*
X013204Y001336D01*
X013276Y001161D01*
X013411Y001026D01*
X013586Y000954D01*
X013776Y000954D01*
X013537Y000974D02*
X012431Y000974D01*
X012389Y000931D02*
X012681Y001224D01*
X012681Y001639D01*
X012389Y001931D01*
X011974Y001931D01*
X011681Y001639D01*
X011681Y001224D01*
X011974Y000931D01*
X012389Y000931D01*
X012590Y001133D02*
X013304Y001133D01*
X013222Y001291D02*
X012681Y001291D01*
X012681Y001450D02*
X013204Y001450D01*
X013238Y001608D02*
X012681Y001608D01*
X012553Y001767D02*
X013341Y001767D01*
X014022Y001767D02*
X014201Y001767D01*
X014201Y001925D02*
X012394Y001925D01*
X011968Y001925D02*
X010394Y001925D01*
X010553Y001767D02*
X011810Y001767D01*
X011681Y001608D02*
X010681Y001608D01*
X010681Y001450D02*
X011681Y001450D01*
X011681Y001291D02*
X010681Y001291D01*
X010590Y001133D02*
X011773Y001133D01*
X011932Y000974D02*
X010431Y000974D01*
X008825Y002084D02*
X014201Y002084D01*
X014201Y002242D02*
X003165Y002242D01*
X003271Y002401D02*
X005177Y002401D01*
X004910Y002560D02*
X003323Y002560D01*
X003305Y002877D02*
X004690Y002877D01*
X004632Y003035D02*
X003231Y003035D01*
X003085Y003194D02*
X004632Y003194D01*
X004635Y003352D02*
X003110Y003352D01*
X003268Y003511D02*
X004700Y003511D01*
X004776Y003669D02*
X003344Y003669D01*
X003711Y004145D02*
X005031Y004145D01*
X005031Y004304D02*
X003869Y004304D01*
X004023Y004462D02*
X005031Y004462D01*
X005031Y004621D02*
X004081Y004621D01*
X004081Y004779D02*
X004977Y004779D01*
X004954Y004938D02*
X004081Y004938D01*
X004081Y005096D02*
X004983Y005096D01*
X005031Y005255D02*
X004081Y005255D01*
X004081Y005413D02*
X005031Y005413D01*
X005031Y005572D02*
X004081Y005572D01*
X004081Y005730D02*
X005031Y005730D01*
X005031Y005889D02*
X004081Y005889D01*
X004081Y006048D02*
X005031Y006048D01*
X005031Y006206D02*
X004081Y006206D01*
X004081Y006365D02*
X005031Y006365D01*
X005031Y006523D02*
X004081Y006523D01*
X004081Y006682D02*
X005018Y006682D01*
X004954Y006840D02*
X004081Y006840D01*
X004081Y006999D02*
X004954Y006999D01*
X005008Y007157D02*
X004081Y007157D01*
X004059Y007316D02*
X005140Y007316D01*
X005467Y007791D02*
X003637Y007791D01*
X003796Y007633D02*
X010773Y007633D01*
X010549Y007474D02*
X003954Y007474D01*
X003478Y007950D02*
X005296Y007950D01*
X005237Y008109D02*
X003394Y008109D01*
X003394Y008267D02*
X005240Y008267D01*
X005305Y008426D02*
X003331Y008426D01*
X003236Y008584D02*
X005493Y008584D01*
X005424Y008743D02*
X003067Y008743D01*
X002981Y007316D02*
X002974Y007316D01*
X002759Y007316D02*
X002604Y007316D01*
X002604Y007157D02*
X002759Y007157D01*
X002759Y006999D02*
X002604Y006999D01*
X002604Y006840D02*
X002759Y006840D01*
X002759Y006523D02*
X002604Y006523D01*
X002604Y006365D02*
X002759Y006365D01*
X002759Y006206D02*
X002604Y006206D01*
X003068Y006206D02*
X003281Y006206D01*
X003281Y006365D02*
X003222Y006365D01*
X003281Y005730D02*
X003140Y005730D01*
X002759Y002718D02*
X004756Y002718D01*
X005749Y002401D02*
X007145Y002401D01*
X006879Y002560D02*
X006016Y002560D01*
X006170Y002718D02*
X006724Y002718D01*
X006659Y002877D02*
X006236Y002877D01*
X006293Y003035D02*
X006601Y003035D01*
X006601Y003194D02*
X006293Y003194D01*
X006291Y003352D02*
X006603Y003352D01*
X006669Y003511D02*
X006225Y003511D01*
X006149Y003669D02*
X006745Y003669D01*
X006903Y003828D02*
X005991Y003828D01*
X005831Y003986D02*
X007205Y003986D01*
X008262Y003035D02*
X008642Y003035D01*
X008692Y002877D02*
X008204Y002877D01*
X008138Y002718D02*
X008784Y002718D01*
X008945Y002560D02*
X007984Y002560D01*
X007718Y002401D02*
X014201Y002401D01*
X014201Y002560D02*
X013179Y002560D01*
X013199Y002718D02*
X014201Y002718D01*
X014201Y002877D02*
X013199Y002877D01*
X013199Y003035D02*
X014201Y003035D01*
X014201Y003194D02*
X013199Y003194D01*
X013154Y003352D02*
X014201Y003352D01*
X014201Y004145D02*
X005831Y004145D01*
X005831Y004304D02*
X011494Y004304D01*
X011454Y004462D02*
X005831Y004462D01*
X005831Y005572D02*
X011528Y005572D01*
X011516Y005730D02*
X005831Y005730D01*
X005831Y005889D02*
X011568Y005889D01*
X011730Y006048D02*
X005831Y006048D01*
X005831Y006206D02*
X014201Y006206D01*
X014201Y005730D02*
X013973Y005730D01*
X013954Y005750D02*
X013900Y005789D01*
X013842Y005819D01*
X013779Y005839D01*
X013714Y005849D01*
X013682Y005849D01*
X013682Y005432D01*
X013681Y005432D01*
X013681Y005431D01*
X013682Y005431D01*
X013682Y005432D01*
X014099Y005432D01*
X014099Y005464D01*
X014089Y005529D01*
X014069Y005592D01*
X014039Y005650D01*
X014000Y005704D01*
X013954Y005750D01*
X014075Y005572D02*
X014201Y005572D01*
X014201Y005413D02*
X014099Y005413D01*
X014099Y005399D02*
X014099Y005431D01*
X013682Y005431D01*
X013682Y005014D01*
X013714Y005014D01*
X013779Y005024D01*
X013842Y005044D01*
X013900Y005074D01*
X013954Y005113D01*
X014000Y005159D01*
X014039Y005212D01*
X014069Y005271D01*
X014089Y005334D01*
X014099Y005399D01*
X014060Y005255D02*
X014201Y005255D01*
X014201Y005096D02*
X013931Y005096D01*
X014201Y004938D02*
X012409Y004938D01*
X012409Y004779D02*
X014201Y004779D01*
X014201Y004621D02*
X012409Y004621D01*
X012409Y004462D02*
X014201Y004462D01*
X014201Y004304D02*
X012369Y004304D01*
X012332Y005096D02*
X013432Y005096D01*
X013681Y005096D02*
X013682Y005096D01*
X013681Y005255D02*
X013682Y005255D01*
X013681Y005413D02*
X013682Y005413D01*
X013681Y005572D02*
X013682Y005572D01*
X013681Y005730D02*
X013682Y005730D01*
X014201Y006682D02*
X010997Y006682D01*
X011266Y006840D02*
X013074Y006840D01*
X012898Y006999D02*
X011373Y006999D01*
X011409Y007157D02*
X012806Y007157D01*
X012749Y007316D02*
X011393Y007316D01*
X011314Y007474D02*
X012749Y007474D01*
X012664Y007633D02*
X011090Y007633D01*
X011356Y007791D02*
X012506Y007791D01*
X012347Y007950D02*
X011409Y007950D01*
X011409Y008109D02*
X012189Y008109D01*
X012030Y008267D02*
X011409Y008267D01*
X011409Y008426D02*
X011871Y008426D01*
X011713Y008584D02*
X011344Y008584D01*
X011554Y008743D02*
X010936Y008743D01*
X010777Y008901D02*
X011396Y008901D01*
X011237Y009060D02*
X010619Y009060D01*
X010460Y009218D02*
X011079Y009218D01*
X010920Y009377D02*
X010302Y009377D01*
X010122Y009535D02*
X010762Y009535D01*
X010603Y009694D02*
X009321Y009694D01*
X009570Y009853D02*
X010445Y009853D01*
X010286Y010011D02*
X009662Y010011D01*
X009691Y010170D02*
X010127Y010170D01*
X009969Y010328D02*
X009672Y010328D01*
X009593Y010487D02*
X009810Y010487D01*
X009652Y010645D02*
X009378Y010645D01*
X009483Y011597D02*
X012831Y011597D01*
X012852Y011545D02*
X013045Y011352D01*
X013296Y011249D01*
X013567Y011249D01*
X013818Y011352D01*
X014010Y011545D01*
X014114Y011796D01*
X014114Y012067D01*
X014010Y012318D01*
X013818Y012510D01*
X013567Y012614D01*
X013296Y012614D01*
X013045Y012510D01*
X012852Y012318D01*
X012749Y012067D01*
X012749Y011796D01*
X012852Y011545D01*
X012959Y011438D02*
X009990Y011438D01*
X010149Y011279D02*
X013221Y011279D01*
X013642Y011279D02*
X014201Y011279D01*
X014201Y011121D02*
X010308Y011121D01*
X010466Y010962D02*
X014201Y010962D01*
X014201Y010804D02*
X010625Y010804D01*
X010783Y010645D02*
X014201Y010645D01*
X014201Y010487D02*
X010942Y010487D01*
X011100Y010328D02*
X014201Y010328D01*
X014201Y010170D02*
X011259Y010170D01*
X011417Y010011D02*
X013200Y010011D01*
X013192Y010009D02*
X013105Y009964D01*
X013026Y009907D01*
X012956Y009837D01*
X012899Y009758D01*
X012854Y009671D01*
X012824Y009577D01*
X012811Y009499D01*
X013364Y009499D01*
X013364Y010051D01*
X013286Y010039D01*
X013192Y010009D01*
X013364Y010011D02*
X013499Y010011D01*
X013499Y010051D02*
X013499Y009499D01*
X013364Y009499D01*
X013364Y009364D01*
X012811Y009364D01*
X012824Y009286D01*
X012854Y009192D01*
X012899Y009105D01*
X012956Y009026D01*
X013026Y008956D01*
X013105Y008899D01*
X013192Y008854D01*
X013286Y008824D01*
X013364Y008811D01*
X013364Y009364D01*
X013499Y009364D01*
X013499Y009499D01*
X014051Y009499D01*
X014039Y009577D01*
X014009Y009671D01*
X013964Y009758D01*
X013907Y009837D01*
X013837Y009907D01*
X013758Y009964D01*
X013671Y010009D01*
X013577Y010039D01*
X013499Y010051D01*
X013663Y010011D02*
X014201Y010011D01*
X014201Y009853D02*
X013891Y009853D01*
X013997Y009694D02*
X014201Y009694D01*
X014201Y009535D02*
X014046Y009535D01*
X014051Y009364D02*
X013499Y009364D01*
X013499Y008811D01*
X013577Y008824D01*
X013671Y008854D01*
X013758Y008899D01*
X013837Y008956D01*
X013907Y009026D01*
X013964Y009105D01*
X014009Y009192D01*
X014039Y009286D01*
X014051Y009364D01*
X014017Y009218D02*
X014201Y009218D01*
X014201Y009060D02*
X013931Y009060D01*
X013761Y008901D02*
X014201Y008901D01*
X014201Y008743D02*
X012686Y008743D01*
X012844Y008584D02*
X014201Y008584D01*
X014201Y008426D02*
X013003Y008426D01*
X013161Y008267D02*
X014201Y008267D01*
X014201Y008109D02*
X013581Y008109D01*
X013879Y007950D02*
X014201Y007950D01*
X014201Y007791D02*
X014021Y007791D01*
X014087Y007633D02*
X014201Y007633D01*
X014201Y007474D02*
X014114Y007474D01*
X014114Y007316D02*
X014201Y007316D01*
X014201Y007157D02*
X014057Y007157D01*
X013965Y006999D02*
X014201Y006999D01*
X014201Y006840D02*
X013789Y006840D01*
X013499Y008901D02*
X013364Y008901D01*
X013364Y009060D02*
X013499Y009060D01*
X013499Y009218D02*
X013364Y009218D01*
X013364Y009377D02*
X012052Y009377D01*
X012210Y009218D02*
X012846Y009218D01*
X012931Y009060D02*
X012369Y009060D01*
X012527Y008901D02*
X013101Y008901D01*
X013499Y009377D02*
X014201Y009377D01*
X013499Y009535D02*
X013364Y009535D01*
X013364Y009694D02*
X013499Y009694D01*
X013499Y009853D02*
X013364Y009853D01*
X012972Y009853D02*
X011576Y009853D01*
X011734Y009694D02*
X012866Y009694D01*
X012817Y009535D02*
X011893Y009535D01*
X010439Y008109D02*
X009691Y008109D01*
X009691Y008267D02*
X010280Y008267D01*
X010121Y008426D02*
X009631Y008426D01*
X009496Y008584D02*
X009963Y008584D01*
X009804Y008743D02*
X009439Y008743D01*
X009637Y007950D02*
X010454Y007950D01*
X010506Y007791D02*
X009509Y007791D01*
X008077Y007791D02*
X006395Y007791D01*
X008033Y010645D02*
X008485Y010645D01*
X008342Y010804D02*
X007875Y010804D01*
X007716Y010962D02*
X008221Y010962D01*
X008171Y011121D02*
X007558Y011121D01*
X007595Y011279D02*
X008171Y011279D01*
X008237Y011438D02*
X007754Y011438D01*
X007912Y011597D02*
X008379Y011597D01*
X008394Y011755D02*
X008041Y011755D01*
X008081Y011914D02*
X008241Y011914D01*
X008175Y012072D02*
X008081Y012072D01*
X008081Y012231D02*
X008171Y012231D01*
X008216Y012389D02*
X008081Y012389D01*
X008081Y012548D02*
X008331Y012548D01*
X008512Y012706D02*
X008081Y012706D01*
X008081Y012865D02*
X008281Y012865D01*
X008196Y013023D02*
X008089Y013023D01*
X007592Y013658D02*
X006348Y013658D01*
X006533Y013816D02*
X007750Y013816D01*
X007909Y013975D02*
X006647Y013975D01*
X006691Y014133D02*
X008068Y014133D01*
X008176Y014292D02*
X006687Y014292D01*
X006766Y014450D02*
X008097Y014450D01*
X008031Y014609D02*
X006924Y014609D01*
X007083Y014767D02*
X008031Y014767D01*
X008031Y014926D02*
X007242Y014926D01*
X007400Y015084D02*
X008031Y015084D01*
X007992Y015243D02*
X007559Y015243D01*
X007717Y015402D02*
X007954Y015402D01*
X007968Y015560D02*
X007876Y015560D01*
X008034Y015719D02*
X008043Y015719D01*
X008193Y015877D02*
X008259Y015877D01*
X008351Y016036D02*
X011970Y016036D01*
X012129Y016194D02*
X008510Y016194D01*
X008604Y015877D02*
X011812Y015877D01*
X011653Y015719D02*
X008820Y015719D01*
X008895Y015560D02*
X011494Y015560D01*
X011336Y015402D02*
X008909Y015402D01*
X008871Y015243D02*
X011177Y015243D01*
X011019Y015084D02*
X008831Y015084D01*
X008831Y014926D02*
X010860Y014926D01*
X010702Y014767D02*
X008911Y014767D01*
X009466Y014609D02*
X010543Y014609D01*
X010385Y014450D02*
X009621Y014450D01*
X009687Y014292D02*
X010226Y014292D01*
X010068Y014133D02*
X009691Y014133D01*
X009647Y013975D02*
X009909Y013975D01*
X009750Y013816D02*
X009533Y013816D01*
X009592Y013658D02*
X009348Y013658D01*
X009351Y012706D02*
X014201Y012706D01*
X014201Y012548D02*
X013728Y012548D01*
X013939Y012389D02*
X014201Y012389D01*
X014201Y012231D02*
X014047Y012231D01*
X014112Y012072D02*
X014201Y012072D01*
X014201Y011914D02*
X014114Y011914D01*
X014098Y011755D02*
X014201Y011755D01*
X014201Y011597D02*
X014032Y011597D01*
X013904Y011438D02*
X014201Y011438D01*
X014201Y012865D02*
X009931Y012865D01*
X010089Y013023D02*
X014201Y013023D01*
X014201Y013182D02*
X010248Y013182D01*
X010406Y013341D02*
X013234Y013341D01*
X013192Y013354D02*
X013286Y013324D01*
X013364Y013311D01*
X013364Y013864D01*
X012811Y013864D01*
X012824Y013786D01*
X012854Y013692D01*
X012899Y013605D01*
X012956Y013526D01*
X013026Y013456D01*
X013105Y013399D01*
X013192Y013354D01*
X013364Y013341D02*
X013499Y013341D01*
X013499Y013311D02*
X013577Y013324D01*
X013671Y013354D01*
X013758Y013399D01*
X013837Y013456D01*
X013907Y013526D01*
X013964Y013605D01*
X014009Y013692D01*
X014039Y013786D01*
X014051Y013864D01*
X013499Y013864D01*
X013499Y013999D01*
X013364Y013999D01*
X013364Y014551D01*
X013286Y014539D01*
X013192Y014509D01*
X013105Y014464D01*
X013026Y014407D01*
X012956Y014337D01*
X012899Y014258D01*
X012854Y014171D01*
X012824Y014077D01*
X012811Y013999D01*
X013364Y013999D01*
X013364Y013864D01*
X013499Y013864D01*
X013499Y013311D01*
X013629Y013341D02*
X014201Y013341D01*
X014201Y013499D02*
X013880Y013499D01*
X013991Y013658D02*
X014201Y013658D01*
X014201Y013816D02*
X014044Y013816D01*
X014051Y013999D02*
X014039Y014077D01*
X014009Y014171D01*
X013964Y014258D01*
X013907Y014337D01*
X013837Y014407D01*
X013758Y014464D01*
X013671Y014509D01*
X013577Y014539D01*
X013499Y014551D01*
X013499Y013999D01*
X014051Y013999D01*
X014021Y014133D02*
X014201Y014133D01*
X014201Y013975D02*
X013499Y013975D01*
X013364Y013975D02*
X011040Y013975D01*
X010882Y013816D02*
X012819Y013816D01*
X012872Y013658D02*
X010723Y013658D01*
X010565Y013499D02*
X012983Y013499D01*
X013364Y013499D02*
X013499Y013499D01*
X013499Y013658D02*
X013364Y013658D01*
X013364Y013816D02*
X013499Y013816D01*
X013499Y014133D02*
X013364Y014133D01*
X013364Y014292D02*
X013499Y014292D01*
X013499Y014450D02*
X013364Y014450D01*
X013086Y014450D02*
X011516Y014450D01*
X011357Y014292D02*
X012923Y014292D01*
X012842Y014133D02*
X011199Y014133D01*
X011675Y014609D02*
X014201Y014609D01*
X014201Y014767D02*
X011833Y014767D01*
X011992Y014926D02*
X014201Y014926D01*
X014201Y015084D02*
X012150Y015084D01*
X012309Y015243D02*
X014201Y015243D01*
X014201Y015402D02*
X012467Y015402D01*
X012626Y015560D02*
X014201Y015560D01*
X014201Y015719D02*
X012784Y015719D01*
X012943Y015877D02*
X014201Y015877D01*
X014201Y016036D02*
X013054Y016036D01*
X013081Y016194D02*
X014201Y016194D01*
X014201Y016353D02*
X013081Y016353D01*
X013128Y016511D02*
X014201Y016511D01*
X014201Y016670D02*
X013159Y016670D01*
X013138Y016828D02*
X014201Y016828D01*
X014201Y016987D02*
X013081Y016987D01*
X013081Y017146D02*
X014201Y017146D01*
X014201Y017304D02*
X013081Y017304D01*
X013081Y017463D02*
X014201Y017463D01*
X014201Y017621D02*
X013081Y017621D01*
X013081Y017780D02*
X014201Y017780D01*
X014201Y017938D02*
X013081Y017938D01*
X013081Y018097D02*
X014201Y018097D01*
X014201Y018255D02*
X013122Y018255D01*
X013188Y018414D02*
X014201Y018414D01*
X014201Y018572D02*
X013230Y018572D01*
X013230Y018731D02*
X014201Y018731D01*
X014201Y018890D02*
X013213Y018890D01*
X013147Y019048D02*
X014201Y019048D01*
X014201Y019207D02*
X013049Y019207D01*
X012891Y019365D02*
X014201Y019365D01*
X014201Y019524D02*
X008186Y019524D01*
X008028Y019682D02*
X014201Y019682D01*
X014201Y019841D02*
X007869Y019841D01*
X007711Y019999D02*
X014201Y019999D01*
X014201Y020158D02*
X007499Y020158D01*
X007213Y019365D02*
X006891Y019365D01*
X007049Y019207D02*
X007372Y019207D01*
X007531Y019048D02*
X007147Y019048D01*
X007213Y018890D02*
X007650Y018890D01*
X007632Y018731D02*
X007230Y018731D01*
X007230Y018572D02*
X007632Y018572D01*
X007675Y018414D02*
X007265Y018414D01*
X007423Y018255D02*
X007740Y018255D01*
X007873Y018097D02*
X007582Y018097D01*
X007740Y017938D02*
X008087Y017938D01*
X007899Y017780D02*
X012281Y017780D01*
X012281Y017621D02*
X008057Y017621D01*
X008216Y017463D02*
X012281Y017463D01*
X012281Y017304D02*
X008374Y017304D01*
X008533Y017146D02*
X009553Y017146D01*
X009809Y017146D02*
X012281Y017146D01*
X012281Y016987D02*
X010967Y016987D01*
X010954Y017000D02*
X010900Y017039D01*
X010842Y017069D01*
X010779Y017089D01*
X010714Y017099D01*
X010682Y017099D01*
X010682Y016682D01*
X011099Y016682D01*
X011099Y016714D01*
X011089Y016779D01*
X011069Y016842D01*
X011039Y016900D01*
X011000Y016954D01*
X010954Y017000D01*
X011073Y016828D02*
X012225Y016828D01*
X012204Y016670D02*
X011099Y016670D01*
X011099Y016681D02*
X011099Y016649D01*
X011089Y016584D01*
X011069Y016521D01*
X011039Y016462D01*
X011000Y016409D01*
X010954Y016363D01*
X010900Y016324D01*
X010842Y016294D01*
X010779Y016274D01*
X010714Y016264D01*
X010682Y016264D01*
X010682Y016681D01*
X010682Y016682D01*
X010681Y016682D01*
X010681Y017099D01*
X010649Y017099D01*
X010584Y017089D01*
X010521Y017069D01*
X010462Y017039D01*
X010409Y017000D01*
X010363Y016954D01*
X010324Y016900D01*
X010294Y016842D01*
X010274Y016779D01*
X010264Y016714D01*
X010264Y016682D01*
X010681Y016682D01*
X010681Y016681D01*
X010682Y016681D01*
X011099Y016681D01*
X011064Y016511D02*
X012235Y016511D01*
X012281Y016353D02*
X010940Y016353D01*
X010682Y016353D02*
X010681Y016353D01*
X010681Y016264D02*
X010681Y016681D01*
X010264Y016681D01*
X010264Y016649D01*
X010274Y016584D01*
X010294Y016521D01*
X010324Y016462D01*
X010363Y016409D01*
X010409Y016363D01*
X010462Y016324D01*
X010521Y016294D01*
X010584Y016274D01*
X010649Y016264D01*
X010681Y016264D01*
X010681Y016511D02*
X010682Y016511D01*
X010681Y016670D02*
X010682Y016670D01*
X010681Y016828D02*
X010682Y016828D01*
X010681Y016987D02*
X010682Y016987D01*
X010396Y016987D02*
X010051Y016987D01*
X010138Y016828D02*
X010290Y016828D01*
X010264Y016670D02*
X010159Y016670D01*
X010128Y016511D02*
X010299Y016511D01*
X010423Y016353D02*
X010029Y016353D01*
X010266Y017851D02*
X010597Y017851D01*
X010902Y017977D01*
X011135Y018211D01*
X011262Y018516D01*
X011262Y018847D01*
X011135Y019152D01*
X010902Y019385D01*
X010597Y019512D01*
X010266Y019512D01*
X009961Y019385D01*
X009727Y019152D01*
X009601Y018847D01*
X009601Y018516D01*
X009727Y018211D01*
X009961Y017977D01*
X010266Y017851D01*
X010055Y017938D02*
X008839Y017938D01*
X009053Y018097D02*
X009841Y018097D01*
X009709Y018255D02*
X009185Y018255D01*
X009251Y018414D02*
X009643Y018414D01*
X009601Y018572D02*
X009293Y018572D01*
X009293Y018731D02*
X009601Y018731D01*
X009619Y018890D02*
X009276Y018890D01*
X009210Y019048D02*
X009684Y019048D01*
X009782Y019207D02*
X009112Y019207D01*
X008954Y019365D02*
X009941Y019365D01*
X010922Y019365D02*
X011909Y019365D01*
X011751Y019207D02*
X011081Y019207D01*
X011179Y019048D02*
X011653Y019048D01*
X011587Y018890D02*
X011244Y018890D01*
X011262Y018731D02*
X011569Y018731D01*
X011569Y018572D02*
X011262Y018572D01*
X011220Y018414D02*
X011612Y018414D01*
X011677Y018255D02*
X011154Y018255D01*
X011021Y018097D02*
X011810Y018097D01*
X012024Y017938D02*
X010808Y017938D01*
X007854Y016670D02*
X006159Y016670D01*
X006138Y016828D02*
X007719Y016828D01*
X007560Y016987D02*
X006051Y016987D01*
X005809Y017146D02*
X007402Y017146D01*
X007243Y017304D02*
X000661Y017304D01*
X000661Y017146D02*
X004303Y017146D01*
X004061Y016987D02*
X002717Y016987D01*
X002704Y017000D02*
X002750Y016954D01*
X002789Y016900D01*
X002819Y016842D01*
X002839Y016779D01*
X002849Y016714D01*
X002849Y016682D01*
X002432Y016682D01*
X002432Y016681D01*
X002849Y016681D01*
X002849Y016649D01*
X002839Y016584D01*
X002819Y016521D01*
X002789Y016462D01*
X002750Y016409D01*
X002704Y016363D01*
X002650Y016324D01*
X002592Y016294D01*
X002529Y016274D01*
X002464Y016264D01*
X002432Y016264D01*
X002432Y016681D01*
X002431Y016681D01*
X002431Y016264D01*
X002399Y016264D01*
X002334Y016274D01*
X002271Y016294D01*
X002212Y016324D01*
X002159Y016363D01*
X002113Y016409D01*
X002074Y016462D01*
X002044Y016521D01*
X002024Y016584D01*
X002014Y016649D01*
X002014Y016681D01*
X002431Y016681D01*
X002431Y016682D01*
X002431Y017099D01*
X002399Y017099D01*
X002334Y017089D01*
X002271Y017069D01*
X002212Y017039D01*
X002159Y017000D01*
X002113Y016954D01*
X002074Y016900D01*
X002044Y016842D01*
X002024Y016779D01*
X002014Y016714D01*
X002014Y016682D01*
X002431Y016682D01*
X002432Y016682D01*
X002432Y017099D01*
X002464Y017099D01*
X002529Y017089D01*
X002592Y017069D01*
X002650Y017039D01*
X002704Y017000D01*
X002823Y016828D02*
X003975Y016828D01*
X003954Y016670D02*
X002849Y016670D01*
X002814Y016511D02*
X003985Y016511D01*
X004084Y016353D02*
X002690Y016353D01*
X002432Y016353D02*
X002431Y016353D01*
X002431Y016511D02*
X002432Y016511D01*
X002431Y016670D02*
X002432Y016670D01*
X002431Y016828D02*
X002432Y016828D01*
X002431Y016987D02*
X002432Y016987D01*
X002146Y016987D02*
X000661Y016987D01*
X000661Y016828D02*
X002040Y016828D01*
X002014Y016670D02*
X000661Y016670D01*
X000661Y016511D02*
X002049Y016511D01*
X002173Y016353D02*
X000661Y016353D01*
X000661Y016194D02*
X005281Y016194D01*
X005281Y016036D02*
X000661Y016036D01*
X000661Y015877D02*
X005281Y015877D01*
X005153Y015719D02*
X000661Y015719D01*
X000661Y015560D02*
X004994Y015560D01*
X004836Y015402D02*
X000661Y015402D01*
X000661Y015243D02*
X004677Y015243D01*
X004519Y015084D02*
X000661Y015084D01*
X000661Y014926D02*
X004360Y014926D01*
X004284Y014767D02*
X000661Y014767D01*
X000661Y014609D02*
X004281Y014609D01*
X004281Y014450D02*
X000661Y014450D01*
X000661Y014292D02*
X004281Y014292D01*
X004281Y014133D02*
X000661Y014133D01*
X000661Y013975D02*
X000759Y013975D01*
X001604Y013975D02*
X004281Y013975D01*
X004296Y013816D02*
X001761Y013816D01*
X001827Y013658D02*
X004390Y013658D01*
X004548Y013499D02*
X001864Y013499D01*
X001864Y013341D02*
X004707Y013341D01*
X004865Y013182D02*
X001817Y013182D01*
X001739Y013023D02*
X004958Y013023D01*
X004799Y012865D02*
X001581Y012865D01*
X001249Y011279D02*
X001114Y011279D01*
X001114Y011121D02*
X001249Y011121D01*
X001249Y010962D02*
X001114Y010962D01*
X000769Y010962D02*
X000661Y010962D01*
X005081Y014097D02*
X005081Y014516D01*
X006014Y015448D01*
X006014Y015432D01*
X006431Y015432D01*
X006431Y015431D01*
X006014Y015431D01*
X006014Y015399D01*
X006024Y015334D01*
X006044Y015271D01*
X006074Y015212D01*
X006113Y015159D01*
X006159Y015113D01*
X006212Y015074D01*
X006243Y015059D01*
X005866Y014681D01*
X005572Y014681D01*
X005388Y014605D01*
X005248Y014465D01*
X005171Y014281D01*
X005171Y014082D01*
X005224Y013954D01*
X005081Y014097D01*
X005081Y014133D02*
X005171Y014133D01*
X005176Y014292D02*
X005081Y014292D01*
X005081Y014450D02*
X005242Y014450D01*
X005174Y014609D02*
X005397Y014609D01*
X005333Y014767D02*
X005952Y014767D01*
X006110Y014926D02*
X005492Y014926D01*
X005650Y015084D02*
X006198Y015084D01*
X006058Y015243D02*
X005809Y015243D01*
X005967Y015402D02*
X006014Y015402D01*
X006081Y015719D02*
X006128Y015719D01*
X006081Y015877D02*
X007062Y015877D01*
X007220Y016036D02*
X006081Y016036D01*
X006081Y016194D02*
X007379Y016194D01*
X007537Y016353D02*
X006081Y016353D01*
X006128Y016511D02*
X007696Y016511D01*
X007085Y017463D02*
X000661Y017463D01*
X000661Y017621D02*
X006926Y017621D01*
X006767Y017780D02*
X000661Y017780D01*
X000661Y017938D02*
X002087Y017938D01*
X001873Y018097D02*
X000661Y018097D01*
X000661Y018255D02*
X001740Y018255D01*
X001675Y018414D02*
X000661Y018414D01*
X000661Y018572D02*
X001632Y018572D01*
X001632Y018731D02*
X000661Y018731D01*
X000661Y018890D02*
X001650Y018890D01*
X001716Y019048D02*
X000661Y019048D01*
X000661Y019207D02*
X001814Y019207D01*
X001972Y019365D02*
X000661Y019365D01*
X000661Y019524D02*
X002858Y019524D01*
X003017Y019682D02*
X000661Y019682D01*
X000661Y019841D02*
X003175Y019841D01*
X003334Y019999D02*
X000661Y019999D01*
X000661Y020158D02*
X003545Y020158D01*
X003831Y019365D02*
X003941Y019365D01*
X003782Y019207D02*
X003672Y019207D01*
X003684Y019048D02*
X003514Y019048D01*
X003619Y018890D02*
X003355Y018890D01*
X003293Y018731D02*
X003601Y018731D01*
X003601Y018572D02*
X003293Y018572D01*
X003251Y018414D02*
X003643Y018414D01*
X003709Y018255D02*
X003185Y018255D01*
X003053Y018097D02*
X003841Y018097D01*
X004055Y017938D02*
X002839Y017938D01*
X004559Y017146D02*
X005553Y017146D01*
X006024Y017938D02*
X004808Y017938D01*
X005021Y018097D02*
X005810Y018097D01*
X005677Y018255D02*
X005154Y018255D01*
X006431Y015719D02*
X006432Y015719D01*
X006431Y015560D02*
X006432Y015560D01*
X006735Y015719D02*
X006903Y015719D01*
X006581Y013499D02*
X007433Y013499D01*
X007314Y013341D02*
X006667Y013341D01*
X006691Y013182D02*
X007281Y013182D01*
X007281Y013023D02*
X006667Y013023D01*
X006582Y012865D02*
X007281Y012865D01*
X007281Y012706D02*
X006351Y012706D01*
X006532Y012548D02*
X007281Y012548D01*
X007281Y012389D02*
X006646Y012389D01*
X006691Y012231D02*
X007281Y012231D01*
X007256Y012072D02*
X006687Y012072D01*
X006622Y011914D02*
X007098Y011914D01*
X006939Y011755D02*
X006469Y011755D01*
X006483Y011597D02*
X006781Y011597D01*
X005216Y013975D02*
X005204Y013975D01*
X009532Y012548D02*
X013135Y012548D01*
X012924Y012389D02*
X009646Y012389D01*
X009691Y012231D02*
X012816Y012231D01*
X012751Y012072D02*
X009687Y012072D01*
X009622Y011914D02*
X012749Y011914D01*
X012765Y011755D02*
X009469Y011755D01*
X013777Y014450D02*
X014201Y014450D01*
X014201Y014292D02*
X013940Y014292D01*
X014201Y020316D02*
X000661Y020316D01*
X011992Y003352D02*
X012209Y003352D01*
X012164Y003194D02*
X012132Y003194D01*
X012153Y002718D02*
X012164Y002718D01*
X012184Y002560D02*
X012041Y002560D01*
X014125Y001608D02*
X014201Y001608D01*
X014201Y001450D02*
X014159Y001450D01*
X014140Y001291D02*
X014201Y001291D01*
X014201Y001133D02*
X014058Y001133D01*
X008001Y000816D02*
X007112Y000816D01*
X007271Y000974D02*
X007842Y000974D01*
X007691Y001133D02*
X007421Y001133D01*
X007421Y001291D02*
X007691Y001291D01*
X007691Y001450D02*
X007421Y001450D01*
X007421Y001608D02*
X007691Y001608D01*
X007720Y001767D02*
X007392Y001767D01*
X007234Y001925D02*
X007879Y001925D01*
X008037Y002084D02*
X007075Y002084D01*
X006287Y002084D02*
X002944Y002084D01*
D21*
X002931Y003931D02*
X002681Y003931D01*
X002931Y003931D02*
X003181Y004181D01*
X003681Y004681D01*
X003681Y007181D01*
X002731Y008131D01*
X002681Y008131D01*
X004931Y009681D02*
X005181Y009431D01*
X005431Y009181D01*
X005931Y009181D01*
X005931Y010181D02*
X006181Y010181D01*
X008181Y008181D01*
X008931Y008181D01*
X008931Y009181D02*
X009931Y009181D01*
X010931Y008181D01*
X010931Y007181D02*
X010681Y006931D01*
X009431Y006931D01*
X008931Y010181D02*
X007931Y010181D01*
X006931Y011181D01*
X007681Y011931D01*
X007681Y013181D01*
X008681Y014181D01*
X008931Y014181D01*
X008431Y014681D01*
X008431Y015431D01*
X008431Y016681D02*
X005931Y014181D01*
X005931Y013181D02*
X005431Y013181D01*
X005181Y013431D01*
X004681Y013931D01*
X004681Y014681D01*
X005681Y015681D01*
X005681Y016681D01*
X004431Y016681D01*
X004431Y018681D02*
X006400Y018681D01*
X006431Y018681D01*
X008431Y016681D01*
X009681Y016681D01*
X008431Y016681D01*
X008463Y018681D02*
X007363Y019781D01*
X003681Y019781D01*
X002581Y018681D01*
X002463Y018681D01*
X005681Y013181D02*
X004931Y012431D01*
X004931Y009681D01*
X005931Y011181D02*
X006931Y011181D01*
X005931Y013181D02*
X005681Y013181D01*
X008931Y013181D02*
X008931Y012181D01*
X008931Y011181D02*
X009681Y011181D01*
X013431Y007431D01*
X009681Y013181D02*
X008931Y013181D01*
X009681Y013181D02*
X012681Y016181D01*
X012681Y016681D01*
X012681Y018400D01*
X012400Y018681D01*
X005431Y006931D02*
X005431Y004931D01*
X005431Y003213D01*
X005463Y003181D01*
M02*
