%
M48
M72
T01C0.0240
T02C0.0276
T03C0.0320
T04C0.0354
T05C0.0551
T06C0.0591
T07C0.0630
T08C0.0787
T09C0.0866
T10C0.1260
%
T01
X5081Y29481
X13781Y31281
X18381Y35081
X21681Y38581
T02
X21431Y37931
X22931Y37181
X22931Y33181
X22931Y30181
X24181Y27681
X26681Y27931
X26681Y23931
X29181Y20931
X29181Y16931
X24181Y23681
X22431Y20931
X22431Y16931
X22431Y9681
X22431Y5681
X29181Y5681
X29181Y9681
X35181Y9681
X35181Y6931
X35181Y2931
X35181Y13681
X35181Y16181
X35181Y20181
X29681Y33181
X29681Y34181
X29681Y35181
X31181Y36181
X31181Y37181
X30931Y39181
X30931Y40181
X33431Y40431
X33431Y36431
X27931Y36181
X27931Y37181
X27681Y39181
X27681Y40181
X18931Y30181
X17931Y30181
X13931Y30181
X7431Y28931
X3431Y28931
X8931Y20931
X8931Y16931
X15681Y16931
X15681Y20931
X15681Y9681
X15681Y5681
X8931Y5681
X8931Y9681
X17431Y37931
T03
X17431Y36431
X18431Y36431
X19431Y36431
X20431Y36431
X21431Y36431
X21431Y33431
X20431Y33431
X19431Y33431
X18431Y33431
X17431Y33431
X16431Y33431
X15431Y33431
X13931Y33931
X13931Y35931
X15431Y36431
X16431Y36431
X16181Y37931
X14181Y37931
X12181Y38431
X11181Y38431
X10181Y38431
X9181Y38431
X8181Y38431
X7181Y38431
X6181Y38431
X4681Y37931
X4681Y35931
X6181Y35431
X7181Y35431
X8181Y35431
X9181Y35431
X10181Y35431
X11181Y35431
X12181Y35431
X12181Y33431
X11181Y33431
X10181Y33431
X9181Y33431
X8181Y33431
X7181Y33431
X6181Y33431
X4681Y32931
X4681Y30931
X6181Y30431
X7181Y30431
X8181Y30431
X9181Y30431
X10181Y30431
X11181Y30431
X12181Y30431
X12181Y27181
X11181Y27181
X10181Y27181
X9181Y27181
X8181Y27181
X7181Y27181
X6181Y27181
X4431Y26681
X4431Y24681
X6181Y24181
X7181Y24181
X8181Y24181
X9181Y24181
X10181Y24181
X11181Y24181
X12181Y24181
X13681Y24681
X13681Y26681
X15681Y27181
X16681Y27181
X17681Y27181
X18681Y27181
X19681Y27181
X20681Y27181
X21681Y27181
X22681Y27181
X22681Y24181
X21681Y24181
X20681Y24181
X19681Y24181
X18681Y24181
X17681Y24181
X16681Y24181
X15681Y24181
X15181Y31681
X17181Y31681
X19681Y31681
X21681Y31681
X27431Y31681
X27431Y33681
X31931Y33681
X31931Y31681
X32181Y27431
X33181Y27431
X34181Y27431
X35181Y27431
X36181Y27431
X36181Y24431
X35181Y24431
X34181Y24431
X33181Y24431
X32181Y24431
X31181Y24431
X30181Y24431
X28681Y24931
X28681Y26931
X30181Y27431
X31181Y27431
T04
X33681Y31681
X33681Y33681
X33681Y42181
X34681Y42181
X25431Y32181
X24181Y32181
X24181Y30181
X25431Y30181
X25431Y26681
X25431Y24681
X24181Y20181
X24181Y18181
X26181Y15931
X27181Y15931
X24181Y8931
X24181Y6931
X26181Y4681
X27181Y4681
X20431Y4681
X19431Y4681
X17431Y6931
X17431Y8931
X13681Y4681
X12681Y4681
X10681Y6931
X10681Y8931
X6931Y4681
X5931Y4681
X3931Y6931
X3931Y8931
X5931Y15931
X6931Y15931
X3931Y18181
X3931Y20181
X10681Y20181
X10681Y18181
X12681Y15931
X13681Y15931
X17431Y18181
X17431Y20181
X19431Y15931
X20431Y15931
X5931Y40681
X5931Y42681
T05
X4181Y42681
X7931Y41681
X10181Y41681
X12431Y41681
X14681Y41681
X16931Y41681
X19931Y19931
X13181Y19931
X6431Y19931
X6431Y8681
X13181Y8681
X19931Y8681
X26681Y8681
X26681Y19931
X36681Y39431
T06
X35681Y39431
X27681Y22181
X25681Y22181
X26681Y18931
X20931Y22181
X18931Y22181
X19931Y18931
X14181Y22181
X12181Y22181
X13181Y18931
X7431Y22181
X5431Y22181
X6431Y18931
X1931Y25181
X1931Y26681
X1931Y28181
X1606Y30181
X1606Y32181
X1431Y34431
X1431Y35931
X1431Y37431
X4181Y40681
X4181Y41681
X7931Y42681
X10181Y42681
X12431Y42681
X14681Y42681
X16931Y42681
X36931Y19431
X36931Y17431
X36931Y12681
X36931Y10681
X36931Y5931
X36931Y3931
X27681Y10931
X25681Y10931
X26681Y7681
X20931Y10931
X18931Y10931
X19931Y7681
X14181Y10931
X12181Y10931
X13181Y7681
X7431Y10931
X5431Y10931
X6431Y7681
T07
X35431Y31481
X35431Y32881
X35431Y34931
X35431Y36181
X35431Y37431
T08
X30900Y42431
X28931Y42431
X26963Y42431
X24150Y42431
X22181Y42431
X20213Y42431
X20213Y40181
X22181Y40181
X24150Y40181
X33431Y20400
X33431Y18431
X33431Y16463
X33431Y13650
X33431Y11681
X33431Y9713
X33431Y6900
X33431Y4931
X33431Y2963
X28650Y1931
X26681Y1931
X24713Y1931
X21900Y1931
X19931Y1931
X17963Y1931
X15150Y1931
X13181Y1931
X11213Y1931
X8400Y1931
X6431Y1931
X4463Y1931
X4463Y13181
X6431Y13181
X8400Y13181
X11213Y13181
X13181Y13181
X15150Y13181
X17963Y13181
X19931Y13181
X21900Y13181
X24713Y13181
X26681Y13181
X28650Y13181
T09
X36981Y31481
X36981Y32881
X36981Y34956
X36981Y36181
X36981Y37406
T10
X1681Y1681
X36931Y1681
X36931Y42681
X1681Y42681
M30
