G75*
G70*
%OFA0B0*%
%FSLAX24Y24*%
%IPPOS*%
%LPD*%
%AMOC8*
5,1,8,0,0,1.08239X$1,22.5*
%
%ADD10C,0.1340*%
%ADD11C,0.0600*%
%ADD12C,0.1025*%
%ADD13C,0.0946*%
%ADD14C,0.0556*%
%ADD15C,0.0966*%
%ADD16OC8,0.0710*%
%ADD17R,0.0556X0.0556*%
%ADD18C,0.0634*%
%ADD19R,0.0634X0.0634*%
%ADD20C,0.1261*%
%ADD21C,0.0907*%
%ADD22OC8,0.0556*%
%ADD23C,0.0480*%
D10*
X001681Y001681D03*
X036931Y001681D03*
X036931Y042681D03*
X001681Y042681D03*
D11*
X006181Y038691D02*
X006181Y038171D01*
X007181Y038171D02*
X007181Y038691D01*
X008181Y038691D02*
X008181Y038171D01*
X009181Y038171D02*
X009181Y038691D01*
X010181Y038691D02*
X010181Y038171D01*
X011181Y038171D02*
X011181Y038691D01*
X012181Y038691D02*
X012181Y038171D01*
X012181Y035691D02*
X012181Y035171D01*
X011181Y035171D02*
X011181Y035691D01*
X010181Y035691D02*
X010181Y035171D01*
X009181Y035171D02*
X009181Y035691D01*
X008181Y035691D02*
X008181Y035171D01*
X007181Y035171D02*
X007181Y035691D01*
X006181Y035691D02*
X006181Y035171D01*
X006181Y033691D02*
X006181Y033171D01*
X007181Y033171D02*
X007181Y033691D01*
X008181Y033691D02*
X008181Y033171D01*
X009181Y033171D02*
X009181Y033691D01*
X010181Y033691D02*
X010181Y033171D01*
X011181Y033171D02*
X011181Y033691D01*
X012181Y033691D02*
X012181Y033171D01*
X012181Y030691D02*
X012181Y030171D01*
X011181Y030171D02*
X011181Y030691D01*
X010181Y030691D02*
X010181Y030171D01*
X009181Y030171D02*
X009181Y030691D01*
X008181Y030691D02*
X008181Y030171D01*
X007181Y030171D02*
X007181Y030691D01*
X006181Y030691D02*
X006181Y030171D01*
X006181Y027441D02*
X006181Y026921D01*
X007181Y026921D02*
X007181Y027441D01*
X008181Y027441D02*
X008181Y026921D01*
X009181Y026921D02*
X009181Y027441D01*
X010181Y027441D02*
X010181Y026921D01*
X011181Y026921D02*
X011181Y027441D01*
X012181Y027441D02*
X012181Y026921D01*
X012181Y024441D02*
X012181Y023921D01*
X011181Y023921D02*
X011181Y024441D01*
X010181Y024441D02*
X010181Y023921D01*
X009181Y023921D02*
X009181Y024441D01*
X008181Y024441D02*
X008181Y023921D01*
X007181Y023921D02*
X007181Y024441D01*
X006181Y024441D02*
X006181Y023921D01*
X015431Y033171D02*
X015431Y033691D01*
X016431Y033691D02*
X016431Y033171D01*
X017431Y033171D02*
X017431Y033691D01*
X018431Y033691D02*
X018431Y033171D01*
X019431Y033171D02*
X019431Y033691D01*
X020431Y033691D02*
X020431Y033171D01*
X021431Y033171D02*
X021431Y033691D01*
X021431Y036171D02*
X021431Y036691D01*
X020431Y036691D02*
X020431Y036171D01*
X019431Y036171D02*
X019431Y036691D01*
X018431Y036691D02*
X018431Y036171D01*
X017431Y036171D02*
X017431Y036691D01*
X016431Y036691D02*
X016431Y036171D01*
X015431Y036171D02*
X015431Y036691D01*
X015681Y027441D02*
X015681Y026921D01*
X016681Y026921D02*
X016681Y027441D01*
X017681Y027441D02*
X017681Y026921D01*
X018681Y026921D02*
X018681Y027441D01*
X019681Y027441D02*
X019681Y026921D01*
X020681Y026921D02*
X020681Y027441D01*
X021681Y027441D02*
X021681Y026921D01*
X022681Y026921D02*
X022681Y027441D01*
X022681Y024441D02*
X022681Y023921D01*
X021681Y023921D02*
X021681Y024441D01*
X020681Y024441D02*
X020681Y023921D01*
X019681Y023921D02*
X019681Y024441D01*
X018681Y024441D02*
X018681Y023921D01*
X017681Y023921D02*
X017681Y024441D01*
X016681Y024441D02*
X016681Y023921D01*
X015681Y023921D02*
X015681Y024441D01*
X030181Y024171D02*
X030181Y024691D01*
X031181Y024691D02*
X031181Y024171D01*
X032181Y024171D02*
X032181Y024691D01*
X033181Y024691D02*
X033181Y024171D01*
X034181Y024171D02*
X034181Y024691D01*
X035181Y024691D02*
X035181Y024171D01*
X036181Y024171D02*
X036181Y024691D01*
X036181Y027171D02*
X036181Y027691D01*
X035181Y027691D02*
X035181Y027171D01*
X034181Y027171D02*
X034181Y027691D01*
X033181Y027691D02*
X033181Y027171D01*
X032181Y027171D02*
X032181Y027691D01*
X031181Y027691D02*
X031181Y027171D01*
X030181Y027171D02*
X030181Y027691D01*
D12*
X035431Y031481D03*
X035431Y032881D03*
X035431Y034931D03*
X035431Y036181D03*
X035431Y037431D03*
D13*
X036981Y037406D03*
X036981Y036181D03*
X036981Y034956D03*
X036981Y032881D03*
X036981Y031481D03*
D14*
X033431Y036431D03*
X031181Y037181D03*
X030931Y039181D03*
X033431Y040431D03*
X027931Y037181D03*
X027681Y039181D03*
X022931Y037181D03*
X021431Y037931D03*
X017431Y037931D03*
X022931Y033181D03*
X022931Y030181D03*
X024181Y027681D03*
X026681Y027931D03*
X026681Y023931D03*
X029181Y020931D03*
X029181Y016931D03*
X024181Y023681D03*
X022431Y020931D03*
X022431Y016931D03*
X022431Y009681D03*
X022431Y005681D03*
X029181Y005681D03*
X029181Y009681D03*
X035181Y009681D03*
X035181Y006931D03*
X035181Y002931D03*
X035181Y013681D03*
X035181Y016181D03*
X035181Y020181D03*
X018931Y030181D03*
X017931Y030181D03*
X013931Y030181D03*
X007431Y028931D03*
X003431Y028931D03*
X008931Y020931D03*
X008931Y016931D03*
X015681Y016931D03*
X015681Y020931D03*
X015681Y009681D03*
X015681Y005681D03*
X008931Y005681D03*
X008931Y009681D03*
D15*
X007431Y010931D03*
X005431Y010931D03*
X006431Y007681D03*
X012181Y010931D03*
X014181Y010931D03*
X013181Y007681D03*
X018931Y010931D03*
X020931Y010931D03*
X019931Y007681D03*
X025681Y010931D03*
X027681Y010931D03*
X026681Y007681D03*
X026681Y018931D03*
X025681Y022181D03*
X027681Y022181D03*
X020931Y022181D03*
X018931Y022181D03*
X019931Y018931D03*
X014181Y022181D03*
X012181Y022181D03*
X013181Y018931D03*
X007431Y022181D03*
X005431Y022181D03*
X006431Y018931D03*
X001931Y025181D03*
X001931Y026681D03*
X001931Y028181D03*
X001606Y030181D03*
X001606Y032181D03*
X001431Y034431D03*
X001431Y035931D03*
X001431Y037431D03*
X004181Y040681D03*
X004181Y041681D03*
X007931Y042681D03*
X010181Y042681D03*
X012431Y042681D03*
X014681Y042681D03*
X016931Y042681D03*
X035681Y039431D03*
X036931Y019431D03*
X036931Y017431D03*
X036931Y012681D03*
X036931Y010681D03*
X036931Y005931D03*
X036931Y003931D03*
D16*
X028681Y024931D03*
X028681Y026931D03*
X027431Y031681D03*
X027431Y033681D03*
X031931Y033681D03*
X031931Y031681D03*
X021681Y031681D03*
X019681Y031681D03*
X017181Y031681D03*
X015181Y031681D03*
X013931Y033931D03*
X013931Y035931D03*
X014181Y037931D03*
X016181Y037931D03*
X013681Y026681D03*
X013681Y024681D03*
X004681Y030931D03*
X004681Y032931D03*
X004681Y035931D03*
X004681Y037931D03*
X004431Y026681D03*
X004431Y024681D03*
D17*
X027681Y040181D03*
X030931Y040181D03*
X031181Y036181D03*
X027931Y036181D03*
D18*
X025431Y032181D03*
X024181Y032181D03*
X025431Y024681D03*
X024181Y018181D03*
X026181Y015931D03*
X019431Y015931D03*
X017431Y018181D03*
X012681Y015931D03*
X010681Y018181D03*
X005931Y015931D03*
X003931Y018181D03*
X003931Y006931D03*
X005931Y004681D03*
X010681Y006931D03*
X012681Y004681D03*
X017431Y006931D03*
X019431Y004681D03*
X024181Y006931D03*
X026181Y004681D03*
X033681Y033681D03*
X034681Y042181D03*
X005931Y040681D03*
D19*
X005931Y042681D03*
X024181Y030181D03*
X025431Y030181D03*
X025431Y026681D03*
X024181Y020181D03*
X027181Y015931D03*
X024181Y008931D03*
X027181Y004681D03*
X020431Y004681D03*
X017431Y008931D03*
X013681Y004681D03*
X010681Y008931D03*
X006931Y004681D03*
X003931Y008931D03*
X006931Y015931D03*
X003931Y020181D03*
X010681Y020181D03*
X013681Y015931D03*
X017431Y020181D03*
X020431Y015931D03*
X033681Y031681D03*
X033681Y042181D03*
D20*
X030900Y042431D03*
X028931Y042431D03*
X026963Y042431D03*
X024150Y042431D03*
X022181Y042431D03*
X020213Y042431D03*
X020213Y040181D03*
X022181Y040181D03*
X024150Y040181D03*
X033431Y020400D03*
X033431Y018431D03*
X033431Y016463D03*
X033431Y013650D03*
X033431Y011681D03*
X033431Y009713D03*
X033431Y006900D03*
X033431Y004931D03*
X033431Y002963D03*
X028650Y001931D03*
X026681Y001931D03*
X024713Y001931D03*
X021900Y001931D03*
X019931Y001931D03*
X017963Y001931D03*
X015150Y001931D03*
X013181Y001931D03*
X011213Y001931D03*
X008400Y001931D03*
X006431Y001931D03*
X004463Y001931D03*
X004463Y013181D03*
X006431Y013181D03*
X008400Y013181D03*
X011213Y013181D03*
X013181Y013181D03*
X015150Y013181D03*
X017963Y013181D03*
X019931Y013181D03*
X021900Y013181D03*
X024713Y013181D03*
X026681Y013181D03*
X028650Y013181D03*
D21*
X026681Y008681D03*
X019931Y008681D03*
X013181Y008681D03*
X006431Y008681D03*
X006431Y019931D03*
X013181Y019931D03*
X019931Y019931D03*
X026681Y019931D03*
X036681Y039431D03*
X016931Y041681D03*
X014681Y041681D03*
X012431Y041681D03*
X010181Y041681D03*
X007931Y041681D03*
X004181Y042681D03*
D22*
X029681Y035181D03*
X029681Y034181D03*
X029681Y033181D03*
D23*
X021681Y038581D03*
X018381Y035081D03*
X013781Y031281D03*
X005081Y029481D03*
M02*
