%
M48
M72
T01C0.0240
T02C0.0276
T03C0.0320
T04C0.0354
%
T01
X12021Y13621
X10501Y16901
X24581Y13141
T02
X1101Y1101
X2101Y1101
X6101Y1101
X7101Y1101
X11101Y1101
X12101Y1101
X16601Y1101
X18601Y1101
X20601Y1101
X25101Y1101
X26601Y1101
X27101Y6601
X26101Y6601
X25101Y6601
X25101Y9101
X26101Y9101
X26601Y11601
X25601Y11601
X24601Y11601
X22601Y11101
X22601Y13101
X24601Y14101
X25601Y14101
X26601Y14101
X26101Y16101
X25101Y16101
X25601Y18101
X26601Y18101
X24601Y18101
X24601Y20601
X25601Y20601
X26601Y20601
X26101Y23101
X25101Y23101
X26101Y25101
X26101Y27101
X26101Y28601
X26101Y30601
X28601Y27601
X28601Y26601
X28601Y25601
X33101Y23101
X34101Y23101
X35101Y25101
X35101Y27101
X35101Y28601
X35101Y30601
X34601Y20601
X33601Y20601
X32601Y20601
X32601Y18101
X33601Y18101
X34601Y18101
X34101Y16101
X33101Y16101
X33601Y14101
X34601Y14101
X32601Y14101
X32601Y11601
X33601Y11601
X34601Y11601
X34101Y9101
X33101Y9101
X33601Y6601
X34601Y6601
X32601Y6601
X29601Y11101
X29601Y13101
X17101Y25101
X17101Y27101
X17101Y28601
X17101Y30601
X19601Y27601
X19601Y26601
X19601Y25601
X12601Y23101
X11601Y23101
X11601Y20601
X12601Y20601
X10601Y20601
X10601Y18101
X11601Y18101
X12601Y18101
X12101Y16101
X11101Y16101
X11601Y14101
X12601Y14101
X10601Y14101
X10601Y11601
X11601Y11601
X12601Y11601
X15101Y11101
X15101Y13101
X12101Y9101
X11101Y9101
X11601Y6601
X12601Y6601
X10601Y6601
X8101Y10601
X8101Y12601
X4601Y11601
X3601Y11601
X2601Y11601
X2601Y14101
X3601Y14101
X4601Y14101
X4101Y16101
X3101Y16101
X3601Y18101
X2601Y18101
X4601Y18101
X4601Y20601
X3601Y20601
X2601Y20601
X3101Y23101
X4101Y23101
X1601Y25601
X1601Y26601
X1601Y27601
X8101Y27101
X8101Y28601
X8101Y30601
X10601Y27601
X10601Y26601
X10601Y25601
X8101Y25101
X4101Y9101
X3101Y9101
X3601Y6601
X2601Y6601
X4601Y6601
T03
X17601Y14101
X17601Y15101
X17601Y16101
X17601Y17101
X17601Y18101
X17601Y19101
X17601Y20101
X20601Y20101
X20601Y19101
X20601Y18101
X20601Y17101
X20601Y16101
X20601Y15101
X20601Y14101
X21601Y25601
X21601Y26601
X21601Y27601
X21601Y28601
X24601Y28601
X24601Y27601
X24601Y26601
X24601Y25601
X30601Y25601
X30601Y26601
X30601Y27601
X30601Y28601
X33601Y28601
X33601Y27601
X33601Y26601
X33601Y25601
X15601Y25601
X15601Y26601
X15601Y27601
X15601Y28601
X12601Y28601
X12601Y27601
X12601Y26601
X12601Y25601
X6601Y25601
X6601Y26601
X6601Y27601
X6601Y28601
X3601Y28601
X3601Y27601
X3601Y26601
X3601Y25601
T04
X4601Y30601
X5601Y30601
X13601Y30601
X14601Y30601
X22601Y30601
X23601Y30601
X31601Y30601
X32601Y30601
M30
