G75*
G70*
%OFA0B0*%
%FSLAX24Y24*%
%IPPOS*%
%LPD*%
%AMOC8*
5,1,8,0,0,1.08239X$1,22.5*
%
%ADD10C,0.0060*%
%ADD11C,0.0110*%
%ADD12C,0.0050*%
%ADD13C,0.0030*%
%ADD14C,0.0010*%
%ADD15C,0.0200*%
%ADD16C,0.0040*%
%ADD17C,0.0080*%
D10*
X000587Y001631D02*
X000701Y001631D01*
X000758Y001687D01*
X000899Y001631D02*
X001013Y001631D01*
X000956Y001631D02*
X000956Y001971D01*
X000899Y001971D01*
X000758Y001914D02*
X000701Y001971D01*
X000587Y001971D01*
X000531Y001914D01*
X000531Y001687D01*
X000587Y001631D01*
X001145Y001687D02*
X001201Y001631D01*
X001315Y001631D01*
X001371Y001687D01*
X001371Y001801D01*
X001315Y001858D01*
X001201Y001858D01*
X001145Y001801D01*
X001145Y001687D01*
X001513Y001687D02*
X001570Y001631D01*
X001740Y001631D01*
X001881Y001631D02*
X001881Y001971D01*
X001740Y001858D02*
X001570Y001858D01*
X001513Y001801D01*
X001513Y001687D01*
X001881Y001744D02*
X002051Y001631D01*
X001881Y001744D02*
X002051Y001858D01*
X002556Y001971D02*
X002670Y001971D01*
X002613Y001971D02*
X002613Y001631D01*
X002556Y001631D02*
X002670Y001631D01*
X002802Y001631D02*
X002802Y001858D01*
X002972Y001858D01*
X003029Y001801D01*
X003029Y001631D01*
X006331Y001787D02*
X006387Y001731D01*
X006501Y001731D01*
X006558Y001787D01*
X006558Y002014D01*
X006501Y002071D01*
X006387Y002071D01*
X006331Y002014D01*
X006331Y001787D01*
X006699Y001787D02*
X006756Y001731D01*
X006926Y001731D01*
X006926Y001958D01*
X007067Y001958D02*
X007181Y001958D01*
X007124Y002014D02*
X007124Y001787D01*
X007181Y001731D01*
X006699Y001787D02*
X006699Y001958D01*
X010931Y002014D02*
X010931Y001787D01*
X010987Y001731D01*
X011101Y001731D01*
X011158Y001787D01*
X011299Y001844D02*
X011413Y001731D01*
X011526Y001844D01*
X011526Y002071D01*
X011299Y002071D02*
X011299Y001844D01*
X011158Y002014D02*
X011101Y002071D01*
X010987Y002071D01*
X010931Y002014D01*
X012036Y002071D02*
X012149Y002071D01*
X012092Y002071D02*
X012092Y001731D01*
X012036Y001731D02*
X012149Y001731D01*
X012281Y001731D02*
X012281Y001958D01*
X012451Y001958D01*
X012508Y001901D01*
X012508Y001731D01*
X012206Y005531D02*
X012206Y005871D01*
X012036Y005701D01*
X012263Y005701D01*
X011894Y005531D02*
X011667Y005531D01*
X011781Y005531D02*
X011781Y005871D01*
X011667Y005758D01*
X011526Y005871D02*
X011526Y005531D01*
X011413Y005644D01*
X011299Y005531D01*
X011299Y005871D01*
X011158Y005814D02*
X011101Y005871D01*
X010987Y005871D01*
X010931Y005814D01*
X010931Y005758D01*
X010987Y005701D01*
X011101Y005701D01*
X011158Y005644D01*
X011158Y005587D01*
X011101Y005531D01*
X010987Y005531D01*
X010931Y005587D01*
X010269Y008931D02*
X010326Y008987D01*
X010326Y009044D01*
X010269Y009101D01*
X010099Y009101D01*
X010099Y008987D01*
X010156Y008931D01*
X010269Y008931D01*
X010099Y009101D02*
X010213Y009214D01*
X010326Y009271D01*
X009958Y009214D02*
X009901Y009271D01*
X009787Y009271D01*
X009731Y009214D01*
X009731Y008987D01*
X009787Y008931D01*
X009901Y008931D01*
X009958Y008987D01*
X010616Y009101D02*
X010618Y009055D01*
X010623Y009009D01*
X010632Y008963D01*
X010645Y008918D01*
X010661Y008875D01*
X010680Y008833D01*
X010703Y008792D01*
X010729Y008754D01*
X010758Y008717D01*
X010789Y008683D01*
X010823Y008652D01*
X010860Y008623D01*
X010898Y008597D01*
X010939Y008574D01*
X010981Y008555D01*
X011024Y008539D01*
X011069Y008526D01*
X011115Y008517D01*
X011161Y008512D01*
X011207Y008510D01*
X010616Y009101D02*
X010618Y009147D01*
X010623Y009193D01*
X010632Y009239D01*
X010645Y009284D01*
X010661Y009327D01*
X010680Y009369D01*
X010703Y009410D01*
X010729Y009448D01*
X010758Y009485D01*
X010789Y009519D01*
X010823Y009550D01*
X010860Y009579D01*
X010898Y009605D01*
X010939Y009628D01*
X010981Y009647D01*
X011024Y009663D01*
X011069Y009676D01*
X011115Y009685D01*
X011161Y009690D01*
X011207Y009692D01*
X011994Y008510D02*
X012040Y008512D01*
X012086Y008517D01*
X012132Y008526D01*
X012177Y008539D01*
X012220Y008555D01*
X012262Y008574D01*
X012303Y008597D01*
X012341Y008623D01*
X012378Y008652D01*
X012412Y008683D01*
X012443Y008717D01*
X012472Y008754D01*
X012498Y008792D01*
X012521Y008833D01*
X012540Y008875D01*
X012556Y008918D01*
X012569Y008963D01*
X012578Y009009D01*
X012583Y009055D01*
X012585Y009101D01*
X012583Y009147D01*
X012578Y009193D01*
X012569Y009239D01*
X012556Y009284D01*
X012540Y009327D01*
X012521Y009369D01*
X012498Y009410D01*
X012472Y009448D01*
X012443Y009485D01*
X012412Y009519D01*
X012378Y009550D01*
X012341Y009579D01*
X012303Y009605D01*
X012262Y009628D01*
X012220Y009647D01*
X012177Y009663D01*
X012132Y009676D01*
X012086Y009685D01*
X012040Y009690D01*
X011994Y009692D01*
X012092Y010531D02*
X012206Y010531D01*
X012263Y010587D01*
X012263Y010644D01*
X012206Y010701D01*
X012036Y010701D01*
X012036Y010587D01*
X012092Y010531D01*
X012036Y010701D02*
X012149Y010814D01*
X012263Y010871D01*
X011894Y010871D02*
X011667Y010871D01*
X011781Y010871D02*
X011781Y010531D01*
X011526Y010587D02*
X011526Y010814D01*
X011469Y010871D01*
X011356Y010871D01*
X011299Y010814D01*
X011299Y010587D01*
X011356Y010531D01*
X011469Y010531D01*
X011526Y010587D01*
X011158Y010701D02*
X011158Y010814D01*
X011101Y010871D01*
X010931Y010871D01*
X010931Y010531D01*
X010931Y010644D02*
X011101Y010644D01*
X011158Y010701D01*
X009326Y011487D02*
X009326Y011714D01*
X009269Y011771D01*
X009156Y011771D01*
X009099Y011714D01*
X009099Y011658D01*
X009156Y011601D01*
X009326Y011601D01*
X009326Y011487D02*
X009269Y011431D01*
X009156Y011431D01*
X009099Y011487D01*
X008958Y011431D02*
X008844Y011544D01*
X008901Y011544D02*
X008731Y011544D01*
X008731Y011431D02*
X008731Y011771D01*
X008901Y011771D01*
X008958Y011714D01*
X008958Y011601D01*
X008901Y011544D01*
X008501Y011294D02*
X008501Y011094D01*
X008499Y011077D01*
X008495Y011060D01*
X008488Y011044D01*
X008478Y011030D01*
X008465Y011017D01*
X008451Y011007D01*
X008435Y011000D01*
X008418Y010996D01*
X008401Y010994D01*
X007801Y010994D01*
X007784Y010996D01*
X007767Y011000D01*
X007751Y011007D01*
X007737Y011017D01*
X007724Y011030D01*
X007714Y011044D01*
X007707Y011060D01*
X007703Y011077D01*
X007701Y011094D01*
X007701Y011294D01*
X007751Y011344D01*
X007751Y011857D01*
X007701Y011907D01*
X007701Y012107D01*
X007703Y012124D01*
X007707Y012141D01*
X007714Y012157D01*
X007724Y012171D01*
X007737Y012184D01*
X007751Y012194D01*
X007767Y012201D01*
X007784Y012205D01*
X007801Y012207D01*
X008401Y012207D01*
X008418Y012205D01*
X008435Y012201D01*
X008451Y012194D01*
X008465Y012184D01*
X008478Y012171D01*
X008488Y012157D01*
X008495Y012141D01*
X008499Y012124D01*
X008501Y012107D01*
X008501Y011907D01*
X008451Y011857D01*
X008451Y011344D01*
X008501Y011294D01*
X011031Y012987D02*
X011087Y012931D01*
X011201Y012931D01*
X011258Y012987D01*
X011258Y013044D01*
X011201Y013101D01*
X011087Y013101D01*
X011031Y013158D01*
X011031Y013214D01*
X011087Y013271D01*
X011201Y013271D01*
X011258Y013214D01*
X011399Y013271D02*
X011399Y012931D01*
X011513Y013044D01*
X011626Y012931D01*
X011626Y013271D01*
X011767Y013158D02*
X011881Y013271D01*
X011881Y012931D01*
X011994Y012931D02*
X011767Y012931D01*
X012136Y012987D02*
X012136Y013214D01*
X012192Y013271D01*
X012306Y013271D01*
X012363Y013214D01*
X012136Y012987D01*
X012192Y012931D01*
X012306Y012931D01*
X012363Y012987D01*
X012363Y013214D01*
X012038Y015231D02*
X012094Y015287D01*
X012094Y015344D01*
X012038Y015401D01*
X011867Y015401D01*
X011867Y015287D01*
X011924Y015231D01*
X012038Y015231D01*
X011867Y015401D02*
X011981Y015514D01*
X012094Y015571D01*
X011726Y015571D02*
X011726Y015231D01*
X011613Y015344D01*
X011499Y015231D01*
X011499Y015571D01*
X011358Y015514D02*
X011301Y015571D01*
X011187Y015571D01*
X011131Y015514D01*
X011131Y015458D01*
X011187Y015401D01*
X011301Y015401D01*
X011358Y015344D01*
X011358Y015287D01*
X011301Y015231D01*
X011187Y015231D01*
X011131Y015287D01*
X011287Y017231D02*
X011231Y017287D01*
X011287Y017231D02*
X011401Y017231D01*
X011458Y017287D01*
X011458Y017344D01*
X011401Y017401D01*
X011287Y017401D01*
X011231Y017458D01*
X011231Y017514D01*
X011287Y017571D01*
X011401Y017571D01*
X011458Y017514D01*
X011599Y017571D02*
X011599Y017231D01*
X011713Y017344D01*
X011826Y017231D01*
X011826Y017571D01*
X011967Y017514D02*
X012024Y017571D01*
X012138Y017571D01*
X012194Y017514D01*
X012194Y017458D01*
X011967Y017231D01*
X012194Y017231D01*
X012281Y019531D02*
X012281Y019871D01*
X012394Y019871D02*
X012167Y019871D01*
X012026Y019814D02*
X011969Y019871D01*
X011856Y019871D01*
X011799Y019814D01*
X011799Y019587D01*
X011856Y019531D01*
X011969Y019531D01*
X012026Y019587D01*
X012026Y019814D01*
X011658Y019814D02*
X011658Y019701D01*
X011601Y019644D01*
X011431Y019644D01*
X011431Y019531D02*
X011431Y019871D01*
X011601Y019871D01*
X011658Y019814D01*
X012536Y019814D02*
X012592Y019871D01*
X012706Y019871D01*
X012763Y019814D01*
X012763Y019758D01*
X012536Y019531D01*
X012763Y019531D01*
X012551Y022441D02*
X012551Y022691D01*
X012421Y022561D02*
X012681Y022561D01*
X011117Y023101D02*
X011119Y023163D01*
X011125Y023226D01*
X011135Y023287D01*
X011149Y023348D01*
X011166Y023408D01*
X011187Y023467D01*
X011213Y023524D01*
X011241Y023579D01*
X011273Y023633D01*
X011309Y023684D01*
X011347Y023734D01*
X011389Y023780D01*
X011433Y023824D01*
X011481Y023865D01*
X011530Y023903D01*
X011582Y023937D01*
X011636Y023968D01*
X011692Y023996D01*
X011750Y024020D01*
X011809Y024041D01*
X011869Y024057D01*
X011930Y024070D01*
X011992Y024079D01*
X012054Y024084D01*
X012117Y024085D01*
X012179Y024082D01*
X012241Y024075D01*
X012303Y024064D01*
X012363Y024049D01*
X012423Y024031D01*
X012481Y024009D01*
X012538Y023983D01*
X012593Y023953D01*
X012646Y023920D01*
X012697Y023884D01*
X012745Y023845D01*
X012791Y023802D01*
X012834Y023757D01*
X012874Y023709D01*
X012911Y023659D01*
X012945Y023606D01*
X012976Y023552D01*
X013002Y023496D01*
X013026Y023438D01*
X013045Y023378D01*
X013061Y023318D01*
X013073Y023256D01*
X013081Y023195D01*
X013085Y023132D01*
X013085Y023070D01*
X013081Y023007D01*
X013073Y022946D01*
X013061Y022884D01*
X013045Y022824D01*
X013026Y022764D01*
X013002Y022706D01*
X012976Y022650D01*
X012945Y022596D01*
X012911Y022543D01*
X012874Y022493D01*
X012834Y022445D01*
X012791Y022400D01*
X012745Y022357D01*
X012697Y022318D01*
X012646Y022282D01*
X012593Y022249D01*
X012538Y022219D01*
X012481Y022193D01*
X012423Y022171D01*
X012363Y022153D01*
X012303Y022138D01*
X012241Y022127D01*
X012179Y022120D01*
X012117Y022117D01*
X012054Y022118D01*
X011992Y022123D01*
X011930Y022132D01*
X011869Y022145D01*
X011809Y022161D01*
X011750Y022182D01*
X011692Y022206D01*
X011636Y022234D01*
X011582Y022265D01*
X011530Y022299D01*
X011481Y022337D01*
X011433Y022378D01*
X011389Y022422D01*
X011347Y022468D01*
X011309Y022518D01*
X011273Y022569D01*
X011241Y022623D01*
X011213Y022678D01*
X011187Y022735D01*
X011166Y022794D01*
X011149Y022854D01*
X011135Y022915D01*
X011125Y022976D01*
X011119Y023039D01*
X011117Y023101D01*
X010826Y023158D02*
X010826Y023214D01*
X010769Y023271D01*
X010656Y023271D01*
X010599Y023214D01*
X010458Y023214D02*
X010401Y023271D01*
X010287Y023271D01*
X010231Y023214D01*
X010231Y022987D01*
X010287Y022931D01*
X010401Y022931D01*
X010458Y022987D01*
X010599Y022931D02*
X010826Y023158D01*
X010826Y022931D02*
X010599Y022931D01*
X012951Y025101D02*
X015251Y025101D01*
X015251Y029101D01*
X014501Y029101D01*
X014499Y029062D01*
X014493Y029023D01*
X014484Y028985D01*
X014471Y028948D01*
X014454Y028912D01*
X014434Y028879D01*
X014410Y028847D01*
X014384Y028818D01*
X014355Y028792D01*
X014323Y028768D01*
X014290Y028748D01*
X014254Y028731D01*
X014217Y028718D01*
X014179Y028709D01*
X014140Y028703D01*
X014101Y028701D01*
X014062Y028703D01*
X014023Y028709D01*
X013985Y028718D01*
X013948Y028731D01*
X013912Y028748D01*
X013879Y028768D01*
X013847Y028792D01*
X013818Y028818D01*
X013792Y028847D01*
X013768Y028879D01*
X013748Y028912D01*
X013731Y028948D01*
X013718Y028985D01*
X013709Y029023D01*
X013703Y029062D01*
X013701Y029101D01*
X012951Y029101D01*
X012951Y025101D01*
X013731Y025631D02*
X013844Y025631D01*
X013787Y025631D02*
X013787Y025971D01*
X013731Y025971D02*
X013844Y025971D01*
X013976Y025914D02*
X014033Y025971D01*
X014146Y025971D01*
X014203Y025914D01*
X014345Y025914D02*
X014401Y025971D01*
X014515Y025971D01*
X014571Y025914D01*
X014571Y025858D01*
X014345Y025631D01*
X014571Y025631D01*
X014203Y025687D02*
X014146Y025631D01*
X014033Y025631D01*
X013976Y025687D01*
X013976Y025914D01*
X014056Y028131D02*
X013999Y028187D01*
X014056Y028131D02*
X014169Y028131D01*
X014226Y028187D01*
X014226Y028301D01*
X014169Y028358D01*
X014113Y028358D01*
X013999Y028301D01*
X013999Y028471D01*
X014226Y028471D01*
X014367Y028471D02*
X014367Y028301D01*
X014481Y028358D01*
X014538Y028358D01*
X014594Y028301D01*
X014594Y028187D01*
X014538Y028131D01*
X014424Y028131D01*
X014367Y028187D01*
X014367Y028471D02*
X014594Y028471D01*
X013858Y028471D02*
X013631Y028471D01*
X013631Y028301D01*
X013744Y028358D01*
X013801Y028358D01*
X013858Y028301D01*
X013858Y028187D01*
X013801Y028131D01*
X013687Y028131D01*
X013631Y028187D01*
X011301Y027243D02*
X011301Y025959D01*
X010026Y027631D02*
X009799Y027631D01*
X010026Y027858D01*
X010026Y027914D01*
X009969Y027971D01*
X009856Y027971D01*
X009799Y027914D01*
X009658Y027914D02*
X009658Y027687D01*
X009601Y027631D01*
X009487Y027631D01*
X009431Y027687D01*
X009431Y027914D01*
X009487Y027971D01*
X009601Y027971D01*
X009658Y027914D01*
X009544Y027744D02*
X009658Y027631D01*
X009269Y026371D02*
X009156Y026371D01*
X009099Y026314D01*
X008958Y026314D02*
X008958Y026201D01*
X008901Y026144D01*
X008731Y026144D01*
X008844Y026144D02*
X008958Y026031D01*
X009099Y026031D02*
X009326Y026258D01*
X009326Y026314D01*
X009269Y026371D01*
X008958Y026314D02*
X008901Y026371D01*
X008731Y026371D01*
X008731Y026031D01*
X008501Y025794D02*
X008451Y025844D01*
X008451Y026357D01*
X008501Y026407D01*
X008501Y026607D01*
X008499Y026624D01*
X008495Y026641D01*
X008488Y026657D01*
X008478Y026671D01*
X008465Y026684D01*
X008451Y026694D01*
X008435Y026701D01*
X008418Y026705D01*
X008401Y026707D01*
X007801Y026707D01*
X007784Y026705D01*
X007767Y026701D01*
X007751Y026694D01*
X007737Y026684D01*
X007724Y026671D01*
X007714Y026657D01*
X007707Y026641D01*
X007703Y026624D01*
X007701Y026607D01*
X007701Y026407D01*
X007751Y026357D01*
X007751Y025844D01*
X007701Y025794D01*
X007701Y025594D01*
X007703Y025577D01*
X007707Y025560D01*
X007714Y025544D01*
X007724Y025530D01*
X007737Y025517D01*
X007751Y025507D01*
X007767Y025500D01*
X007784Y025496D01*
X007801Y025494D01*
X008401Y025494D01*
X008418Y025496D01*
X008435Y025500D01*
X008451Y025507D01*
X008465Y025517D01*
X008478Y025530D01*
X008488Y025544D01*
X008495Y025560D01*
X008499Y025577D01*
X008501Y025594D01*
X008501Y025794D01*
X009099Y026031D02*
X009326Y026031D01*
X008401Y028994D02*
X007801Y028994D01*
X007784Y028996D01*
X007767Y029000D01*
X007751Y029007D01*
X007737Y029017D01*
X007724Y029030D01*
X007714Y029044D01*
X007707Y029060D01*
X007703Y029077D01*
X007701Y029094D01*
X007701Y029294D01*
X007751Y029344D01*
X007751Y029857D01*
X007701Y029907D01*
X007701Y030107D01*
X007703Y030124D01*
X007707Y030141D01*
X007714Y030157D01*
X007724Y030171D01*
X007737Y030184D01*
X007751Y030194D01*
X007767Y030201D01*
X007784Y030205D01*
X007801Y030207D01*
X008401Y030207D01*
X008418Y030205D01*
X008435Y030201D01*
X008451Y030194D01*
X008465Y030184D01*
X008478Y030171D01*
X008488Y030157D01*
X008495Y030141D01*
X008499Y030124D01*
X008501Y030107D01*
X008501Y029907D01*
X008451Y029857D01*
X008451Y029344D01*
X008501Y029294D01*
X008501Y029094D01*
X008499Y029077D01*
X008495Y029060D01*
X008488Y029044D01*
X008478Y029030D01*
X008465Y029017D01*
X008451Y029007D01*
X008435Y029000D01*
X008418Y028996D01*
X008401Y028994D01*
X008831Y029531D02*
X008831Y029871D01*
X009001Y029871D01*
X009058Y029814D01*
X009058Y029701D01*
X009001Y029644D01*
X008831Y029644D01*
X008944Y029644D02*
X009058Y029531D01*
X009199Y029531D02*
X009426Y029531D01*
X009313Y029531D02*
X009313Y029871D01*
X009199Y029758D01*
X006251Y029101D02*
X005501Y029101D01*
X005499Y029062D01*
X005493Y029023D01*
X005484Y028985D01*
X005471Y028948D01*
X005454Y028912D01*
X005434Y028879D01*
X005410Y028847D01*
X005384Y028818D01*
X005355Y028792D01*
X005323Y028768D01*
X005290Y028748D01*
X005254Y028731D01*
X005217Y028718D01*
X005179Y028709D01*
X005140Y028703D01*
X005101Y028701D01*
X005062Y028703D01*
X005023Y028709D01*
X004985Y028718D01*
X004948Y028731D01*
X004912Y028748D01*
X004879Y028768D01*
X004847Y028792D01*
X004818Y028818D01*
X004792Y028847D01*
X004768Y028879D01*
X004748Y028912D01*
X004731Y028948D01*
X004718Y028985D01*
X004709Y029023D01*
X004703Y029062D01*
X004701Y029101D01*
X003951Y029101D01*
X003951Y025101D01*
X006251Y025101D01*
X006251Y029101D01*
X005594Y028471D02*
X005367Y028471D01*
X005367Y028301D01*
X005481Y028358D01*
X005538Y028358D01*
X005594Y028301D01*
X005594Y028187D01*
X005538Y028131D01*
X005424Y028131D01*
X005367Y028187D01*
X005226Y028187D02*
X005169Y028131D01*
X005056Y028131D01*
X004999Y028187D01*
X004999Y028301D02*
X005113Y028358D01*
X005169Y028358D01*
X005226Y028301D01*
X005226Y028187D01*
X004999Y028301D02*
X004999Y028471D01*
X005226Y028471D01*
X004858Y028471D02*
X004631Y028471D01*
X004631Y028301D01*
X004744Y028358D01*
X004801Y028358D01*
X004858Y028301D01*
X004858Y028187D01*
X004801Y028131D01*
X004687Y028131D01*
X004631Y028187D01*
X002301Y027243D02*
X002301Y025959D01*
X001326Y027831D02*
X001099Y027831D01*
X001213Y027831D02*
X001213Y028171D01*
X001099Y028058D01*
X000958Y028114D02*
X000958Y027887D01*
X000901Y027831D01*
X000787Y027831D01*
X000731Y027887D01*
X000731Y028114D01*
X000787Y028171D01*
X000901Y028171D01*
X000958Y028114D01*
X000844Y027944D02*
X000958Y027831D01*
X003631Y031131D02*
X003801Y031131D01*
X003858Y031187D01*
X003858Y031414D01*
X003801Y031471D01*
X003631Y031471D01*
X003631Y031131D01*
X003999Y031131D02*
X004226Y031131D01*
X004113Y031131D02*
X004113Y031471D01*
X003999Y031358D01*
X004731Y025871D02*
X004844Y025871D01*
X004787Y025871D02*
X004787Y025531D01*
X004731Y025531D02*
X004844Y025531D01*
X004976Y025587D02*
X005033Y025531D01*
X005146Y025531D01*
X005203Y025587D01*
X005345Y025531D02*
X005571Y025531D01*
X005458Y025531D02*
X005458Y025871D01*
X005345Y025758D01*
X005203Y025814D02*
X005146Y025871D01*
X005033Y025871D01*
X004976Y025814D01*
X004976Y025587D01*
X002617Y023101D02*
X002619Y023163D01*
X002625Y023226D01*
X002635Y023287D01*
X002649Y023348D01*
X002666Y023408D01*
X002687Y023467D01*
X002713Y023524D01*
X002741Y023579D01*
X002773Y023633D01*
X002809Y023684D01*
X002847Y023734D01*
X002889Y023780D01*
X002933Y023824D01*
X002981Y023865D01*
X003030Y023903D01*
X003082Y023937D01*
X003136Y023968D01*
X003192Y023996D01*
X003250Y024020D01*
X003309Y024041D01*
X003369Y024057D01*
X003430Y024070D01*
X003492Y024079D01*
X003554Y024084D01*
X003617Y024085D01*
X003679Y024082D01*
X003741Y024075D01*
X003803Y024064D01*
X003863Y024049D01*
X003923Y024031D01*
X003981Y024009D01*
X004038Y023983D01*
X004093Y023953D01*
X004146Y023920D01*
X004197Y023884D01*
X004245Y023845D01*
X004291Y023802D01*
X004334Y023757D01*
X004374Y023709D01*
X004411Y023659D01*
X004445Y023606D01*
X004476Y023552D01*
X004502Y023496D01*
X004526Y023438D01*
X004545Y023378D01*
X004561Y023318D01*
X004573Y023256D01*
X004581Y023195D01*
X004585Y023132D01*
X004585Y023070D01*
X004581Y023007D01*
X004573Y022946D01*
X004561Y022884D01*
X004545Y022824D01*
X004526Y022764D01*
X004502Y022706D01*
X004476Y022650D01*
X004445Y022596D01*
X004411Y022543D01*
X004374Y022493D01*
X004334Y022445D01*
X004291Y022400D01*
X004245Y022357D01*
X004197Y022318D01*
X004146Y022282D01*
X004093Y022249D01*
X004038Y022219D01*
X003981Y022193D01*
X003923Y022171D01*
X003863Y022153D01*
X003803Y022138D01*
X003741Y022127D01*
X003679Y022120D01*
X003617Y022117D01*
X003554Y022118D01*
X003492Y022123D01*
X003430Y022132D01*
X003369Y022145D01*
X003309Y022161D01*
X003250Y022182D01*
X003192Y022206D01*
X003136Y022234D01*
X003082Y022265D01*
X003030Y022299D01*
X002981Y022337D01*
X002933Y022378D01*
X002889Y022422D01*
X002847Y022468D01*
X002809Y022518D01*
X002773Y022569D01*
X002741Y022623D01*
X002713Y022678D01*
X002687Y022735D01*
X002666Y022794D01*
X002649Y022854D01*
X002635Y022915D01*
X002625Y022976D01*
X002619Y023039D01*
X002617Y023101D01*
X002426Y023031D02*
X002199Y023031D01*
X002313Y023031D02*
X002313Y023371D01*
X002199Y023258D01*
X002058Y023314D02*
X002001Y023371D01*
X001887Y023371D01*
X001831Y023314D01*
X001831Y023087D01*
X001887Y023031D01*
X002001Y023031D01*
X002058Y023087D01*
X003921Y022561D02*
X004181Y022561D01*
X004051Y022441D02*
X004051Y022691D01*
X004049Y019871D02*
X004049Y019531D01*
X003936Y019531D02*
X004163Y019531D01*
X003936Y019758D02*
X004049Y019871D01*
X003794Y019871D02*
X003567Y019871D01*
X003681Y019871D02*
X003681Y019531D01*
X003426Y019587D02*
X003369Y019531D01*
X003256Y019531D01*
X003199Y019587D01*
X003199Y019814D01*
X003256Y019871D01*
X003369Y019871D01*
X003426Y019814D01*
X003426Y019587D01*
X003058Y019701D02*
X003001Y019644D01*
X002831Y019644D01*
X002831Y019531D02*
X002831Y019871D01*
X003001Y019871D01*
X003058Y019814D01*
X003058Y019701D01*
X003187Y017571D02*
X003131Y017514D01*
X003131Y017458D01*
X003187Y017401D01*
X003301Y017401D01*
X003358Y017344D01*
X003358Y017287D01*
X003301Y017231D01*
X003187Y017231D01*
X003131Y017287D01*
X003187Y017571D02*
X003301Y017571D01*
X003358Y017514D01*
X003499Y017571D02*
X003499Y017231D01*
X003613Y017344D01*
X003726Y017231D01*
X003726Y017571D01*
X003867Y017458D02*
X003981Y017571D01*
X003981Y017231D01*
X004094Y017231D02*
X003867Y017231D01*
X003867Y015571D02*
X003867Y015401D01*
X003981Y015458D01*
X004038Y015458D01*
X004094Y015401D01*
X004094Y015287D01*
X004038Y015231D01*
X003924Y015231D01*
X003867Y015287D01*
X003726Y015231D02*
X003726Y015571D01*
X003867Y015571D02*
X004094Y015571D01*
X003726Y015231D02*
X003613Y015344D01*
X003499Y015231D01*
X003499Y015571D01*
X003358Y015514D02*
X003301Y015571D01*
X003187Y015571D01*
X003131Y015514D01*
X003131Y015458D01*
X003187Y015401D01*
X003301Y015401D01*
X003358Y015344D01*
X003358Y015287D01*
X003301Y015231D01*
X003187Y015231D01*
X003131Y015287D01*
X003187Y013471D02*
X003131Y013414D01*
X003131Y013358D01*
X003187Y013301D01*
X003301Y013301D01*
X003358Y013244D01*
X003358Y013187D01*
X003301Y013131D01*
X003187Y013131D01*
X003131Y013187D01*
X003187Y013471D02*
X003301Y013471D01*
X003358Y013414D01*
X003499Y013471D02*
X003499Y013131D01*
X003613Y013244D01*
X003726Y013131D01*
X003726Y013471D01*
X003867Y013414D02*
X003867Y013358D01*
X003924Y013301D01*
X004094Y013301D01*
X004094Y013414D02*
X004038Y013471D01*
X003924Y013471D01*
X003867Y013414D01*
X003867Y013187D02*
X003924Y013131D01*
X004038Y013131D01*
X004094Y013187D01*
X004094Y013414D01*
X004036Y010871D02*
X004036Y010701D01*
X004149Y010758D01*
X004206Y010758D01*
X004263Y010701D01*
X004263Y010587D01*
X004206Y010531D01*
X004092Y010531D01*
X004036Y010587D01*
X003781Y010531D02*
X003781Y010871D01*
X003894Y010871D02*
X003667Y010871D01*
X003526Y010814D02*
X003469Y010871D01*
X003356Y010871D01*
X003299Y010814D01*
X003299Y010587D01*
X003356Y010531D01*
X003469Y010531D01*
X003526Y010587D01*
X003526Y010814D01*
X003158Y010814D02*
X003158Y010701D01*
X003101Y010644D01*
X002931Y010644D01*
X002931Y010531D02*
X002931Y010871D01*
X003101Y010871D01*
X003158Y010814D01*
X004036Y010871D02*
X004263Y010871D01*
X003994Y009692D02*
X004040Y009690D01*
X004086Y009685D01*
X004132Y009676D01*
X004177Y009663D01*
X004220Y009647D01*
X004262Y009628D01*
X004303Y009605D01*
X004341Y009579D01*
X004378Y009550D01*
X004412Y009519D01*
X004443Y009485D01*
X004472Y009448D01*
X004498Y009410D01*
X004521Y009369D01*
X004540Y009327D01*
X004556Y009284D01*
X004569Y009239D01*
X004578Y009193D01*
X004583Y009147D01*
X004585Y009101D01*
X004583Y009055D01*
X004578Y009009D01*
X004569Y008963D01*
X004556Y008918D01*
X004540Y008875D01*
X004521Y008833D01*
X004498Y008792D01*
X004472Y008754D01*
X004443Y008717D01*
X004412Y008683D01*
X004378Y008652D01*
X004341Y008623D01*
X004303Y008597D01*
X004262Y008574D01*
X004220Y008555D01*
X004177Y008539D01*
X004132Y008526D01*
X004086Y008517D01*
X004040Y008512D01*
X003994Y008510D01*
X003207Y009692D02*
X003161Y009690D01*
X003115Y009685D01*
X003069Y009676D01*
X003024Y009663D01*
X002981Y009647D01*
X002939Y009628D01*
X002898Y009605D01*
X002860Y009579D01*
X002823Y009550D01*
X002789Y009519D01*
X002758Y009485D01*
X002729Y009448D01*
X002703Y009410D01*
X002680Y009369D01*
X002661Y009327D01*
X002645Y009284D01*
X002632Y009239D01*
X002623Y009193D01*
X002618Y009147D01*
X002616Y009101D01*
X002326Y009101D02*
X002326Y008987D01*
X002269Y008931D01*
X002156Y008931D01*
X002099Y008987D01*
X002099Y009101D02*
X002213Y009158D01*
X002269Y009158D01*
X002326Y009101D01*
X002326Y009271D02*
X002099Y009271D01*
X002099Y009101D01*
X001958Y009214D02*
X001901Y009271D01*
X001787Y009271D01*
X001731Y009214D01*
X001731Y008987D01*
X001787Y008931D01*
X001901Y008931D01*
X001958Y008987D01*
X002616Y009101D02*
X002618Y009055D01*
X002623Y009009D01*
X002632Y008963D01*
X002645Y008918D01*
X002661Y008875D01*
X002680Y008833D01*
X002703Y008792D01*
X002729Y008754D01*
X002758Y008717D01*
X002789Y008683D01*
X002823Y008652D01*
X002860Y008623D01*
X002898Y008597D01*
X002939Y008574D01*
X002981Y008555D01*
X003024Y008539D01*
X003069Y008526D01*
X003115Y008517D01*
X003161Y008512D01*
X003207Y008510D01*
X003299Y005871D02*
X003299Y005531D01*
X003413Y005644D01*
X003526Y005531D01*
X003526Y005871D01*
X003667Y005758D02*
X003781Y005871D01*
X003781Y005531D01*
X003894Y005531D02*
X003667Y005531D01*
X004036Y005587D02*
X004092Y005531D01*
X004206Y005531D01*
X004263Y005587D01*
X004263Y005644D01*
X004206Y005701D01*
X004149Y005701D01*
X004206Y005701D02*
X004263Y005758D01*
X004263Y005814D01*
X004206Y005871D01*
X004092Y005871D01*
X004036Y005814D01*
X003158Y005814D02*
X003101Y005871D01*
X002987Y005871D01*
X002931Y005814D01*
X002931Y005758D01*
X002987Y005701D01*
X003101Y005701D01*
X003158Y005644D01*
X003158Y005587D01*
X003101Y005531D01*
X002987Y005531D01*
X002931Y005587D01*
X014701Y011594D02*
X014701Y011794D01*
X014751Y011844D01*
X014751Y012357D01*
X014701Y012407D01*
X014701Y012607D01*
X014703Y012624D01*
X014707Y012641D01*
X014714Y012657D01*
X014724Y012671D01*
X014737Y012684D01*
X014751Y012694D01*
X014767Y012701D01*
X014784Y012705D01*
X014801Y012707D01*
X015401Y012707D01*
X015418Y012705D01*
X015435Y012701D01*
X015451Y012694D01*
X015465Y012684D01*
X015478Y012671D01*
X015488Y012657D01*
X015495Y012641D01*
X015499Y012624D01*
X015501Y012607D01*
X015501Y012407D01*
X015451Y012357D01*
X015451Y011844D01*
X015501Y011794D01*
X015501Y011594D01*
X015499Y011577D01*
X015495Y011560D01*
X015488Y011544D01*
X015478Y011530D01*
X015465Y011517D01*
X015451Y011507D01*
X015435Y011500D01*
X015418Y011496D01*
X015401Y011494D01*
X014801Y011494D01*
X014784Y011496D01*
X014767Y011500D01*
X014751Y011507D01*
X014737Y011517D01*
X014724Y011530D01*
X014714Y011544D01*
X014707Y011560D01*
X014703Y011577D01*
X014701Y011594D01*
X015731Y011931D02*
X015731Y012271D01*
X015901Y012271D01*
X015958Y012214D01*
X015958Y012101D01*
X015901Y012044D01*
X015731Y012044D01*
X015844Y012044D02*
X015958Y011931D01*
X016099Y011931D02*
X016326Y011931D01*
X016213Y011931D02*
X016213Y012271D01*
X016099Y012158D01*
X016467Y012214D02*
X016467Y011987D01*
X016694Y012214D01*
X016694Y011987D01*
X016638Y011931D01*
X016524Y011931D01*
X016467Y011987D01*
X016467Y012214D02*
X016524Y012271D01*
X016638Y012271D01*
X016694Y012214D01*
X017951Y013601D02*
X020251Y013601D01*
X020251Y020601D01*
X019501Y020601D01*
X019499Y020562D01*
X019493Y020523D01*
X019484Y020485D01*
X019471Y020448D01*
X019454Y020412D01*
X019434Y020379D01*
X019410Y020347D01*
X019384Y020318D01*
X019355Y020292D01*
X019323Y020268D01*
X019290Y020248D01*
X019254Y020231D01*
X019217Y020218D01*
X019179Y020209D01*
X019140Y020203D01*
X019101Y020201D01*
X019062Y020203D01*
X019023Y020209D01*
X018985Y020218D01*
X018948Y020231D01*
X018912Y020248D01*
X018879Y020268D01*
X018847Y020292D01*
X018818Y020318D01*
X018792Y020347D01*
X018768Y020379D01*
X018748Y020412D01*
X018731Y020448D01*
X018718Y020485D01*
X018709Y020523D01*
X018703Y020562D01*
X018701Y020601D01*
X017951Y020601D01*
X017951Y013601D01*
X018631Y014031D02*
X018744Y014031D01*
X018687Y014031D02*
X018687Y014371D01*
X018631Y014371D02*
X018744Y014371D01*
X018876Y014314D02*
X018876Y014087D01*
X018933Y014031D01*
X019046Y014031D01*
X019103Y014087D01*
X019245Y014087D02*
X019301Y014031D01*
X019415Y014031D01*
X019471Y014087D01*
X019471Y014201D01*
X019415Y014258D01*
X019358Y014258D01*
X019245Y014201D01*
X019245Y014371D01*
X019471Y014371D01*
X019103Y014314D02*
X019046Y014371D01*
X018933Y014371D01*
X018876Y014314D01*
X021031Y012271D02*
X021201Y012271D01*
X021258Y012214D01*
X021258Y012101D01*
X021201Y012044D01*
X021031Y012044D01*
X021031Y011931D02*
X021031Y012271D01*
X021144Y012044D02*
X021258Y011931D01*
X021399Y011931D02*
X021626Y011931D01*
X021513Y011931D02*
X021513Y012271D01*
X021399Y012158D01*
X021767Y012158D02*
X021881Y012271D01*
X021881Y011931D01*
X021994Y011931D02*
X021767Y011931D01*
X022201Y011794D02*
X022251Y011844D01*
X022251Y012357D01*
X022201Y012407D01*
X022201Y012607D01*
X022203Y012624D01*
X022207Y012641D01*
X022214Y012657D01*
X022224Y012671D01*
X022237Y012684D01*
X022251Y012694D01*
X022267Y012701D01*
X022284Y012705D01*
X022301Y012707D01*
X022901Y012707D01*
X022918Y012705D01*
X022935Y012701D01*
X022951Y012694D01*
X022965Y012684D01*
X022978Y012671D01*
X022988Y012657D01*
X022995Y012641D01*
X022999Y012624D01*
X023001Y012607D01*
X023001Y012407D01*
X022951Y012357D01*
X022951Y011844D01*
X023001Y011794D01*
X023001Y011594D01*
X022999Y011577D01*
X022995Y011560D01*
X022988Y011544D01*
X022978Y011530D01*
X022965Y011517D01*
X022951Y011507D01*
X022935Y011500D01*
X022918Y011496D01*
X022901Y011494D01*
X022301Y011494D01*
X022284Y011496D01*
X022267Y011500D01*
X022251Y011507D01*
X022237Y011517D01*
X022224Y011530D01*
X022214Y011544D01*
X022207Y011560D01*
X022203Y011577D01*
X022201Y011594D01*
X022201Y011794D01*
X023787Y009271D02*
X023731Y009214D01*
X023731Y008987D01*
X023787Y008931D01*
X023901Y008931D01*
X023958Y008987D01*
X024099Y008987D02*
X024099Y008931D01*
X024099Y008987D02*
X024326Y009214D01*
X024326Y009271D01*
X024099Y009271D01*
X023958Y009214D02*
X023901Y009271D01*
X023787Y009271D01*
X024616Y009101D02*
X024618Y009055D01*
X024623Y009009D01*
X024632Y008963D01*
X024645Y008918D01*
X024661Y008875D01*
X024680Y008833D01*
X024703Y008792D01*
X024729Y008754D01*
X024758Y008717D01*
X024789Y008683D01*
X024823Y008652D01*
X024860Y008623D01*
X024898Y008597D01*
X024939Y008574D01*
X024981Y008555D01*
X025024Y008539D01*
X025069Y008526D01*
X025115Y008517D01*
X025161Y008512D01*
X025207Y008510D01*
X024616Y009101D02*
X024618Y009147D01*
X024623Y009193D01*
X024632Y009239D01*
X024645Y009284D01*
X024661Y009327D01*
X024680Y009369D01*
X024703Y009410D01*
X024729Y009448D01*
X024758Y009485D01*
X024789Y009519D01*
X024823Y009550D01*
X024860Y009579D01*
X024898Y009605D01*
X024939Y009628D01*
X024981Y009647D01*
X025024Y009663D01*
X025069Y009676D01*
X025115Y009685D01*
X025161Y009690D01*
X025207Y009692D01*
X025356Y010431D02*
X025469Y010431D01*
X025526Y010487D01*
X025526Y010714D01*
X025469Y010771D01*
X025356Y010771D01*
X025299Y010714D01*
X025299Y010487D01*
X025356Y010431D01*
X025158Y010601D02*
X025101Y010544D01*
X024931Y010544D01*
X024931Y010431D02*
X024931Y010771D01*
X025101Y010771D01*
X025158Y010714D01*
X025158Y010601D01*
X025667Y010771D02*
X025894Y010771D01*
X025781Y010771D02*
X025781Y010431D01*
X026036Y010431D02*
X026036Y010487D01*
X026263Y010714D01*
X026263Y010771D01*
X026036Y010771D01*
X026585Y009101D02*
X026583Y009055D01*
X026578Y009009D01*
X026569Y008963D01*
X026556Y008918D01*
X026540Y008875D01*
X026521Y008833D01*
X026498Y008792D01*
X026472Y008754D01*
X026443Y008717D01*
X026412Y008683D01*
X026378Y008652D01*
X026341Y008623D01*
X026303Y008597D01*
X026262Y008574D01*
X026220Y008555D01*
X026177Y008539D01*
X026132Y008526D01*
X026086Y008517D01*
X026040Y008512D01*
X025994Y008510D01*
X026585Y009101D02*
X026583Y009147D01*
X026578Y009193D01*
X026569Y009239D01*
X026556Y009284D01*
X026540Y009327D01*
X026521Y009369D01*
X026498Y009410D01*
X026472Y009448D01*
X026443Y009485D01*
X026412Y009519D01*
X026378Y009550D01*
X026341Y009579D01*
X026303Y009605D01*
X026262Y009628D01*
X026220Y009647D01*
X026177Y009663D01*
X026132Y009676D01*
X026086Y009685D01*
X026040Y009690D01*
X025994Y009692D01*
X028031Y011931D02*
X028031Y012271D01*
X028201Y012271D01*
X028258Y012214D01*
X028258Y012101D01*
X028201Y012044D01*
X028031Y012044D01*
X028144Y012044D02*
X028258Y011931D01*
X028399Y011931D02*
X028626Y011931D01*
X028513Y011931D02*
X028513Y012271D01*
X028399Y012158D01*
X028767Y012214D02*
X028824Y012271D01*
X028938Y012271D01*
X028994Y012214D01*
X028994Y012158D01*
X028767Y011931D01*
X028994Y011931D01*
X029201Y011794D02*
X029251Y011844D01*
X029251Y012357D01*
X029201Y012407D01*
X029201Y012607D01*
X029203Y012624D01*
X029207Y012641D01*
X029214Y012657D01*
X029224Y012671D01*
X029237Y012684D01*
X029251Y012694D01*
X029267Y012701D01*
X029284Y012705D01*
X029301Y012707D01*
X029901Y012707D01*
X029918Y012705D01*
X029935Y012701D01*
X029951Y012694D01*
X029965Y012684D01*
X029978Y012671D01*
X029988Y012657D01*
X029995Y012641D01*
X029999Y012624D01*
X030001Y012607D01*
X030001Y012407D01*
X029951Y012357D01*
X029951Y011844D01*
X030001Y011794D01*
X030001Y011594D01*
X029999Y011577D01*
X029995Y011560D01*
X029988Y011544D01*
X029978Y011530D01*
X029965Y011517D01*
X029951Y011507D01*
X029935Y011500D01*
X029918Y011496D01*
X029901Y011494D01*
X029301Y011494D01*
X029284Y011496D01*
X029267Y011500D01*
X029251Y011507D01*
X029237Y011517D01*
X029224Y011530D01*
X029214Y011544D01*
X029207Y011560D01*
X029203Y011577D01*
X029201Y011594D01*
X029201Y011794D01*
X026363Y013231D02*
X026136Y013231D01*
X026249Y013231D02*
X026249Y013571D01*
X026136Y013458D01*
X025994Y013231D02*
X025767Y013231D01*
X025881Y013231D02*
X025881Y013571D01*
X025767Y013458D01*
X025626Y013571D02*
X025626Y013231D01*
X025513Y013344D01*
X025399Y013231D01*
X025399Y013571D01*
X025258Y013514D02*
X025201Y013571D01*
X025087Y013571D01*
X025031Y013514D01*
X025031Y013458D01*
X025087Y013401D01*
X025201Y013401D01*
X025258Y013344D01*
X025258Y013287D01*
X025201Y013231D01*
X025087Y013231D01*
X025031Y013287D01*
X025187Y015231D02*
X025131Y015287D01*
X025187Y015231D02*
X025301Y015231D01*
X025358Y015287D01*
X025358Y015344D01*
X025301Y015401D01*
X025187Y015401D01*
X025131Y015458D01*
X025131Y015514D01*
X025187Y015571D01*
X025301Y015571D01*
X025358Y015514D01*
X025499Y015571D02*
X025499Y015231D01*
X025613Y015344D01*
X025726Y015231D01*
X025726Y015571D01*
X025867Y015571D02*
X026094Y015571D01*
X026094Y015514D01*
X025867Y015287D01*
X025867Y015231D01*
X025924Y017231D02*
X025867Y017287D01*
X025924Y017231D02*
X026038Y017231D01*
X026094Y017287D01*
X026094Y017344D01*
X026038Y017401D01*
X025981Y017401D01*
X026038Y017401D02*
X026094Y017458D01*
X026094Y017514D01*
X026038Y017571D01*
X025924Y017571D01*
X025867Y017514D01*
X025726Y017571D02*
X025726Y017231D01*
X025613Y017344D01*
X025499Y017231D01*
X025499Y017571D01*
X025358Y017514D02*
X025301Y017571D01*
X025187Y017571D01*
X025131Y017514D01*
X025131Y017458D01*
X025187Y017401D01*
X025301Y017401D01*
X025358Y017344D01*
X025358Y017287D01*
X025301Y017231D01*
X025187Y017231D01*
X025131Y017287D01*
X024931Y019531D02*
X024931Y019871D01*
X025101Y019871D01*
X025158Y019814D01*
X025158Y019701D01*
X025101Y019644D01*
X024931Y019644D01*
X025299Y019587D02*
X025356Y019531D01*
X025469Y019531D01*
X025526Y019587D01*
X025526Y019814D01*
X025469Y019871D01*
X025356Y019871D01*
X025299Y019814D01*
X025299Y019587D01*
X025667Y019871D02*
X025894Y019871D01*
X025781Y019871D02*
X025781Y019531D01*
X026036Y019587D02*
X026092Y019531D01*
X026206Y019531D01*
X026263Y019587D01*
X026263Y019644D01*
X026206Y019701D01*
X026149Y019701D01*
X026206Y019701D02*
X026263Y019758D01*
X026263Y019814D01*
X026206Y019871D01*
X026092Y019871D01*
X026036Y019814D01*
X026051Y022441D02*
X026051Y022691D01*
X025921Y022561D02*
X026181Y022561D01*
X024617Y023101D02*
X024619Y023163D01*
X024625Y023226D01*
X024635Y023287D01*
X024649Y023348D01*
X024666Y023408D01*
X024687Y023467D01*
X024713Y023524D01*
X024741Y023579D01*
X024773Y023633D01*
X024809Y023684D01*
X024847Y023734D01*
X024889Y023780D01*
X024933Y023824D01*
X024981Y023865D01*
X025030Y023903D01*
X025082Y023937D01*
X025136Y023968D01*
X025192Y023996D01*
X025250Y024020D01*
X025309Y024041D01*
X025369Y024057D01*
X025430Y024070D01*
X025492Y024079D01*
X025554Y024084D01*
X025617Y024085D01*
X025679Y024082D01*
X025741Y024075D01*
X025803Y024064D01*
X025863Y024049D01*
X025923Y024031D01*
X025981Y024009D01*
X026038Y023983D01*
X026093Y023953D01*
X026146Y023920D01*
X026197Y023884D01*
X026245Y023845D01*
X026291Y023802D01*
X026334Y023757D01*
X026374Y023709D01*
X026411Y023659D01*
X026445Y023606D01*
X026476Y023552D01*
X026502Y023496D01*
X026526Y023438D01*
X026545Y023378D01*
X026561Y023318D01*
X026573Y023256D01*
X026581Y023195D01*
X026585Y023132D01*
X026585Y023070D01*
X026581Y023007D01*
X026573Y022946D01*
X026561Y022884D01*
X026545Y022824D01*
X026526Y022764D01*
X026502Y022706D01*
X026476Y022650D01*
X026445Y022596D01*
X026411Y022543D01*
X026374Y022493D01*
X026334Y022445D01*
X026291Y022400D01*
X026245Y022357D01*
X026197Y022318D01*
X026146Y022282D01*
X026093Y022249D01*
X026038Y022219D01*
X025981Y022193D01*
X025923Y022171D01*
X025863Y022153D01*
X025803Y022138D01*
X025741Y022127D01*
X025679Y022120D01*
X025617Y022117D01*
X025554Y022118D01*
X025492Y022123D01*
X025430Y022132D01*
X025369Y022145D01*
X025309Y022161D01*
X025250Y022182D01*
X025192Y022206D01*
X025136Y022234D01*
X025082Y022265D01*
X025030Y022299D01*
X024981Y022337D01*
X024933Y022378D01*
X024889Y022422D01*
X024847Y022468D01*
X024809Y022518D01*
X024773Y022569D01*
X024741Y022623D01*
X024713Y022678D01*
X024687Y022735D01*
X024666Y022794D01*
X024649Y022854D01*
X024635Y022915D01*
X024625Y022976D01*
X024619Y023039D01*
X024617Y023101D01*
X024326Y023158D02*
X024269Y023101D01*
X024326Y023044D01*
X024326Y022987D01*
X024269Y022931D01*
X024156Y022931D01*
X024099Y022987D01*
X023958Y022987D02*
X023901Y022931D01*
X023787Y022931D01*
X023731Y022987D01*
X023731Y023214D01*
X023787Y023271D01*
X023901Y023271D01*
X023958Y023214D01*
X024099Y023214D02*
X024156Y023271D01*
X024269Y023271D01*
X024326Y023214D01*
X024326Y023158D01*
X024269Y023101D02*
X024213Y023101D01*
X024251Y025101D02*
X021951Y025101D01*
X021951Y029101D01*
X022701Y029101D01*
X022703Y029062D01*
X022709Y029023D01*
X022718Y028985D01*
X022731Y028948D01*
X022748Y028912D01*
X022768Y028879D01*
X022792Y028847D01*
X022818Y028818D01*
X022847Y028792D01*
X022879Y028768D01*
X022912Y028748D01*
X022948Y028731D01*
X022985Y028718D01*
X023023Y028709D01*
X023062Y028703D01*
X023101Y028701D01*
X023140Y028703D01*
X023179Y028709D01*
X023217Y028718D01*
X023254Y028731D01*
X023290Y028748D01*
X023323Y028768D01*
X023355Y028792D01*
X023384Y028818D01*
X023410Y028847D01*
X023434Y028879D01*
X023454Y028912D01*
X023471Y028948D01*
X023484Y028985D01*
X023493Y029023D01*
X023499Y029062D01*
X023501Y029101D01*
X024251Y029101D01*
X024251Y025101D01*
X023471Y025587D02*
X023471Y025644D01*
X023415Y025701D01*
X023358Y025701D01*
X023415Y025701D02*
X023471Y025758D01*
X023471Y025814D01*
X023415Y025871D01*
X023301Y025871D01*
X023245Y025814D01*
X023103Y025814D02*
X023046Y025871D01*
X022933Y025871D01*
X022876Y025814D01*
X022876Y025587D01*
X022933Y025531D01*
X023046Y025531D01*
X023103Y025587D01*
X023245Y025587D02*
X023301Y025531D01*
X023415Y025531D01*
X023471Y025587D01*
X022744Y025531D02*
X022631Y025531D01*
X022687Y025531D02*
X022687Y025871D01*
X022631Y025871D02*
X022744Y025871D01*
X022687Y028131D02*
X022631Y028187D01*
X022687Y028131D02*
X022801Y028131D01*
X022858Y028187D01*
X022858Y028301D01*
X022801Y028358D01*
X022744Y028358D01*
X022631Y028301D01*
X022631Y028471D01*
X022858Y028471D01*
X022999Y028471D02*
X022999Y028301D01*
X023113Y028358D01*
X023169Y028358D01*
X023226Y028301D01*
X023226Y028187D01*
X023169Y028131D01*
X023056Y028131D01*
X022999Y028187D01*
X022999Y028471D02*
X023226Y028471D01*
X023367Y028471D02*
X023367Y028301D01*
X023481Y028358D01*
X023538Y028358D01*
X023594Y028301D01*
X023594Y028187D01*
X023538Y028131D01*
X023424Y028131D01*
X023367Y028187D01*
X023367Y028471D02*
X023594Y028471D01*
X025701Y029094D02*
X025701Y029294D01*
X025751Y029344D01*
X025751Y029857D01*
X025701Y029907D01*
X025701Y030107D01*
X025703Y030124D01*
X025707Y030141D01*
X025714Y030157D01*
X025724Y030171D01*
X025737Y030184D01*
X025751Y030194D01*
X025767Y030201D01*
X025784Y030205D01*
X025801Y030207D01*
X026401Y030207D01*
X026418Y030205D01*
X026435Y030201D01*
X026451Y030194D01*
X026465Y030184D01*
X026478Y030171D01*
X026488Y030157D01*
X026495Y030141D01*
X026499Y030124D01*
X026501Y030107D01*
X026501Y029907D01*
X026451Y029857D01*
X026451Y029344D01*
X026501Y029294D01*
X026501Y029094D01*
X026499Y029077D01*
X026495Y029060D01*
X026488Y029044D01*
X026478Y029030D01*
X026465Y029017D01*
X026451Y029007D01*
X026435Y029000D01*
X026418Y028996D01*
X026401Y028994D01*
X025801Y028994D01*
X025784Y028996D01*
X025767Y029000D01*
X025751Y029007D01*
X025737Y029017D01*
X025724Y029030D01*
X025714Y029044D01*
X025707Y029060D01*
X025703Y029077D01*
X025701Y029094D01*
X026731Y029431D02*
X026731Y029771D01*
X026901Y029771D01*
X026958Y029714D01*
X026958Y029601D01*
X026901Y029544D01*
X026731Y029544D01*
X026844Y029544D02*
X026958Y029431D01*
X027099Y029487D02*
X027156Y029431D01*
X027269Y029431D01*
X027326Y029487D01*
X027326Y029601D01*
X027269Y029658D01*
X027213Y029658D01*
X027099Y029601D01*
X027099Y029771D01*
X027326Y029771D01*
X027487Y027971D02*
X027431Y027914D01*
X027431Y027687D01*
X027487Y027631D01*
X027601Y027631D01*
X027658Y027687D01*
X027658Y027914D01*
X027601Y027971D01*
X027487Y027971D01*
X027544Y027744D02*
X027658Y027631D01*
X027799Y027801D02*
X028026Y027801D01*
X027969Y027971D02*
X027799Y027801D01*
X027969Y027631D02*
X027969Y027971D01*
X029301Y027243D02*
X029301Y025959D01*
X030951Y025101D02*
X033251Y025101D01*
X033251Y029101D01*
X032501Y029101D01*
X032499Y029062D01*
X032493Y029023D01*
X032484Y028985D01*
X032471Y028948D01*
X032454Y028912D01*
X032434Y028879D01*
X032410Y028847D01*
X032384Y028818D01*
X032355Y028792D01*
X032323Y028768D01*
X032290Y028748D01*
X032254Y028731D01*
X032217Y028718D01*
X032179Y028709D01*
X032140Y028703D01*
X032101Y028701D01*
X032062Y028703D01*
X032023Y028709D01*
X031985Y028718D01*
X031948Y028731D01*
X031912Y028748D01*
X031879Y028768D01*
X031847Y028792D01*
X031818Y028818D01*
X031792Y028847D01*
X031768Y028879D01*
X031748Y028912D01*
X031731Y028948D01*
X031718Y028985D01*
X031709Y029023D01*
X031703Y029062D01*
X031701Y029101D01*
X030951Y029101D01*
X030951Y025101D01*
X031731Y025531D02*
X031844Y025531D01*
X031787Y025531D02*
X031787Y025871D01*
X031731Y025871D02*
X031844Y025871D01*
X031976Y025814D02*
X031976Y025587D01*
X032033Y025531D01*
X032146Y025531D01*
X032203Y025587D01*
X032345Y025701D02*
X032571Y025701D01*
X032515Y025871D02*
X032345Y025701D01*
X032203Y025814D02*
X032146Y025871D01*
X032033Y025871D01*
X031976Y025814D01*
X032515Y025871D02*
X032515Y025531D01*
X034701Y025594D02*
X034701Y025794D01*
X034751Y025844D01*
X034751Y026357D01*
X034701Y026407D01*
X034701Y026607D01*
X034703Y026624D01*
X034707Y026641D01*
X034714Y026657D01*
X034724Y026671D01*
X034737Y026684D01*
X034751Y026694D01*
X034767Y026701D01*
X034784Y026705D01*
X034801Y026707D01*
X035401Y026707D01*
X035418Y026705D01*
X035435Y026701D01*
X035451Y026694D01*
X035465Y026684D01*
X035478Y026671D01*
X035488Y026657D01*
X035495Y026641D01*
X035499Y026624D01*
X035501Y026607D01*
X035501Y026407D01*
X035451Y026357D01*
X035451Y025844D01*
X035501Y025794D01*
X035501Y025594D01*
X035499Y025577D01*
X035495Y025560D01*
X035488Y025544D01*
X035478Y025530D01*
X035465Y025517D01*
X035451Y025507D01*
X035435Y025500D01*
X035418Y025496D01*
X035401Y025494D01*
X034801Y025494D01*
X034784Y025496D01*
X034767Y025500D01*
X034751Y025507D01*
X034737Y025517D01*
X034724Y025530D01*
X034714Y025544D01*
X034707Y025560D01*
X034703Y025577D01*
X034701Y025594D01*
X035731Y025931D02*
X035731Y026271D01*
X035901Y026271D01*
X035958Y026214D01*
X035958Y026101D01*
X035901Y026044D01*
X035731Y026044D01*
X035844Y026044D02*
X035958Y025931D01*
X036099Y025987D02*
X036099Y026044D01*
X036156Y026101D01*
X036269Y026101D01*
X036326Y026044D01*
X036326Y025987D01*
X036269Y025931D01*
X036156Y025931D01*
X036099Y025987D01*
X036156Y026101D02*
X036099Y026158D01*
X036099Y026214D01*
X036156Y026271D01*
X036269Y026271D01*
X036326Y026214D01*
X036326Y026158D01*
X036269Y026101D01*
X035401Y028994D02*
X034801Y028994D01*
X034784Y028996D01*
X034767Y029000D01*
X034751Y029007D01*
X034737Y029017D01*
X034724Y029030D01*
X034714Y029044D01*
X034707Y029060D01*
X034703Y029077D01*
X034701Y029094D01*
X034701Y029294D01*
X034751Y029344D01*
X034751Y029857D01*
X034701Y029907D01*
X034701Y030107D01*
X034703Y030124D01*
X034707Y030141D01*
X034714Y030157D01*
X034724Y030171D01*
X034737Y030184D01*
X034751Y030194D01*
X034767Y030201D01*
X034784Y030205D01*
X034801Y030207D01*
X035401Y030207D01*
X035418Y030205D01*
X035435Y030201D01*
X035451Y030194D01*
X035465Y030184D01*
X035478Y030171D01*
X035488Y030157D01*
X035495Y030141D01*
X035499Y030124D01*
X035501Y030107D01*
X035501Y029907D01*
X035451Y029857D01*
X035451Y029344D01*
X035501Y029294D01*
X035501Y029094D01*
X035499Y029077D01*
X035495Y029060D01*
X035488Y029044D01*
X035478Y029030D01*
X035465Y029017D01*
X035451Y029007D01*
X035435Y029000D01*
X035418Y028996D01*
X035401Y028994D01*
X035731Y029431D02*
X035731Y029771D01*
X035901Y029771D01*
X035958Y029714D01*
X035958Y029601D01*
X035901Y029544D01*
X035731Y029544D01*
X035844Y029544D02*
X035958Y029431D01*
X036099Y029431D02*
X036099Y029487D01*
X036326Y029714D01*
X036326Y029771D01*
X036099Y029771D01*
X032594Y028471D02*
X032367Y028471D01*
X032367Y028301D01*
X032481Y028358D01*
X032538Y028358D01*
X032594Y028301D01*
X032594Y028187D01*
X032538Y028131D01*
X032424Y028131D01*
X032367Y028187D01*
X032226Y028187D02*
X032169Y028131D01*
X032056Y028131D01*
X031999Y028187D01*
X031999Y028301D02*
X032113Y028358D01*
X032169Y028358D01*
X032226Y028301D01*
X032226Y028187D01*
X031999Y028301D02*
X031999Y028471D01*
X032226Y028471D01*
X031858Y028471D02*
X031631Y028471D01*
X031631Y028301D01*
X031744Y028358D01*
X031801Y028358D01*
X031858Y028301D01*
X031858Y028187D01*
X031801Y028131D01*
X031687Y028131D01*
X031631Y028187D01*
X031169Y031131D02*
X031169Y031471D01*
X030999Y031301D01*
X031226Y031301D01*
X030858Y031414D02*
X030801Y031471D01*
X030631Y031471D01*
X030631Y031131D01*
X030801Y031131D01*
X030858Y031187D01*
X030858Y031414D01*
X026401Y026707D02*
X025801Y026707D01*
X025784Y026705D01*
X025767Y026701D01*
X025751Y026694D01*
X025737Y026684D01*
X025724Y026671D01*
X025714Y026657D01*
X025707Y026641D01*
X025703Y026624D01*
X025701Y026607D01*
X025701Y026407D01*
X025751Y026357D01*
X025751Y025844D01*
X025701Y025794D01*
X025701Y025594D01*
X025703Y025577D01*
X025707Y025560D01*
X025714Y025544D01*
X025724Y025530D01*
X025737Y025517D01*
X025751Y025507D01*
X025767Y025500D01*
X025784Y025496D01*
X025801Y025494D01*
X026401Y025494D01*
X026418Y025496D01*
X026435Y025500D01*
X026451Y025507D01*
X026465Y025517D01*
X026478Y025530D01*
X026488Y025544D01*
X026495Y025560D01*
X026499Y025577D01*
X026501Y025594D01*
X026501Y025794D01*
X026451Y025844D01*
X026451Y026357D01*
X026501Y026407D01*
X026501Y026607D01*
X026499Y026624D01*
X026495Y026641D01*
X026488Y026657D01*
X026478Y026671D01*
X026465Y026684D01*
X026451Y026694D01*
X026435Y026701D01*
X026418Y026705D01*
X026401Y026707D01*
X026831Y026271D02*
X027001Y026271D01*
X027058Y026214D01*
X027058Y026101D01*
X027001Y026044D01*
X026831Y026044D01*
X026944Y026044D02*
X027058Y025931D01*
X027199Y025987D02*
X027256Y025931D01*
X027369Y025931D01*
X027426Y025987D01*
X027426Y026044D01*
X027369Y026101D01*
X027199Y026101D01*
X027199Y025987D01*
X027199Y026101D02*
X027313Y026214D01*
X027426Y026271D01*
X026831Y026271D02*
X026831Y025931D01*
X031831Y023214D02*
X031831Y022987D01*
X031887Y022931D01*
X032001Y022931D01*
X032058Y022987D01*
X032199Y023101D02*
X032426Y023101D01*
X032369Y022931D02*
X032369Y023271D01*
X032199Y023101D01*
X032058Y023214D02*
X032001Y023271D01*
X031887Y023271D01*
X031831Y023214D01*
X032617Y023101D02*
X032619Y023163D01*
X032625Y023226D01*
X032635Y023287D01*
X032649Y023348D01*
X032666Y023408D01*
X032687Y023467D01*
X032713Y023524D01*
X032741Y023579D01*
X032773Y023633D01*
X032809Y023684D01*
X032847Y023734D01*
X032889Y023780D01*
X032933Y023824D01*
X032981Y023865D01*
X033030Y023903D01*
X033082Y023937D01*
X033136Y023968D01*
X033192Y023996D01*
X033250Y024020D01*
X033309Y024041D01*
X033369Y024057D01*
X033430Y024070D01*
X033492Y024079D01*
X033554Y024084D01*
X033617Y024085D01*
X033679Y024082D01*
X033741Y024075D01*
X033803Y024064D01*
X033863Y024049D01*
X033923Y024031D01*
X033981Y024009D01*
X034038Y023983D01*
X034093Y023953D01*
X034146Y023920D01*
X034197Y023884D01*
X034245Y023845D01*
X034291Y023802D01*
X034334Y023757D01*
X034374Y023709D01*
X034411Y023659D01*
X034445Y023606D01*
X034476Y023552D01*
X034502Y023496D01*
X034526Y023438D01*
X034545Y023378D01*
X034561Y023318D01*
X034573Y023256D01*
X034581Y023195D01*
X034585Y023132D01*
X034585Y023070D01*
X034581Y023007D01*
X034573Y022946D01*
X034561Y022884D01*
X034545Y022824D01*
X034526Y022764D01*
X034502Y022706D01*
X034476Y022650D01*
X034445Y022596D01*
X034411Y022543D01*
X034374Y022493D01*
X034334Y022445D01*
X034291Y022400D01*
X034245Y022357D01*
X034197Y022318D01*
X034146Y022282D01*
X034093Y022249D01*
X034038Y022219D01*
X033981Y022193D01*
X033923Y022171D01*
X033863Y022153D01*
X033803Y022138D01*
X033741Y022127D01*
X033679Y022120D01*
X033617Y022117D01*
X033554Y022118D01*
X033492Y022123D01*
X033430Y022132D01*
X033369Y022145D01*
X033309Y022161D01*
X033250Y022182D01*
X033192Y022206D01*
X033136Y022234D01*
X033082Y022265D01*
X033030Y022299D01*
X032981Y022337D01*
X032933Y022378D01*
X032889Y022422D01*
X032847Y022468D01*
X032809Y022518D01*
X032773Y022569D01*
X032741Y022623D01*
X032713Y022678D01*
X032687Y022735D01*
X032666Y022794D01*
X032649Y022854D01*
X032635Y022915D01*
X032625Y022976D01*
X032619Y023039D01*
X032617Y023101D01*
X033921Y022561D02*
X034181Y022561D01*
X034051Y022441D02*
X034051Y022691D01*
X034206Y019771D02*
X034036Y019601D01*
X034263Y019601D01*
X034206Y019431D02*
X034206Y019771D01*
X033894Y019771D02*
X033667Y019771D01*
X033781Y019771D02*
X033781Y019431D01*
X033526Y019487D02*
X033526Y019714D01*
X033469Y019771D01*
X033356Y019771D01*
X033299Y019714D01*
X033299Y019487D01*
X033356Y019431D01*
X033469Y019431D01*
X033526Y019487D01*
X033158Y019601D02*
X033101Y019544D01*
X032931Y019544D01*
X032931Y019431D02*
X032931Y019771D01*
X033101Y019771D01*
X033158Y019714D01*
X033158Y019601D01*
X033287Y017571D02*
X033231Y017514D01*
X033231Y017458D01*
X033287Y017401D01*
X033401Y017401D01*
X033458Y017344D01*
X033458Y017287D01*
X033401Y017231D01*
X033287Y017231D01*
X033231Y017287D01*
X033287Y017571D02*
X033401Y017571D01*
X033458Y017514D01*
X033599Y017571D02*
X033599Y017231D01*
X033713Y017344D01*
X033826Y017231D01*
X033826Y017571D01*
X033967Y017401D02*
X034194Y017401D01*
X034138Y017231D02*
X034138Y017571D01*
X033967Y017401D01*
X034024Y015571D02*
X034138Y015571D01*
X034194Y015514D01*
X034194Y015458D01*
X034138Y015401D01*
X034024Y015401D01*
X033967Y015458D01*
X033967Y015514D01*
X034024Y015571D01*
X034024Y015401D02*
X033967Y015344D01*
X033967Y015287D01*
X034024Y015231D01*
X034138Y015231D01*
X034194Y015287D01*
X034194Y015344D01*
X034138Y015401D01*
X033826Y015231D02*
X033826Y015571D01*
X033599Y015571D02*
X033599Y015231D01*
X033713Y015344D01*
X033826Y015231D01*
X033458Y015287D02*
X033401Y015231D01*
X033287Y015231D01*
X033231Y015287D01*
X033287Y015401D02*
X033401Y015401D01*
X033458Y015344D01*
X033458Y015287D01*
X033287Y015401D02*
X033231Y015458D01*
X033231Y015514D01*
X033287Y015571D01*
X033401Y015571D01*
X033458Y015514D01*
X033526Y013571D02*
X033526Y013231D01*
X033413Y013344D01*
X033299Y013231D01*
X033299Y013571D01*
X033158Y013514D02*
X033101Y013571D01*
X032987Y013571D01*
X032931Y013514D01*
X032931Y013458D01*
X032987Y013401D01*
X033101Y013401D01*
X033158Y013344D01*
X033158Y013287D01*
X033101Y013231D01*
X032987Y013231D01*
X032931Y013287D01*
X033667Y013231D02*
X033894Y013231D01*
X033781Y013231D02*
X033781Y013571D01*
X033667Y013458D01*
X034036Y013514D02*
X034092Y013571D01*
X034206Y013571D01*
X034263Y013514D01*
X034263Y013458D01*
X034036Y013231D01*
X034263Y013231D01*
X034106Y010871D02*
X034163Y010814D01*
X034163Y010758D01*
X034106Y010701D01*
X033992Y010701D01*
X033936Y010758D01*
X033936Y010814D01*
X033992Y010871D01*
X034106Y010871D01*
X034106Y010701D02*
X034163Y010644D01*
X034163Y010587D01*
X034106Y010531D01*
X033992Y010531D01*
X033936Y010587D01*
X033936Y010644D01*
X033992Y010701D01*
X033794Y010871D02*
X033567Y010871D01*
X033681Y010871D02*
X033681Y010531D01*
X033426Y010587D02*
X033426Y010814D01*
X033369Y010871D01*
X033256Y010871D01*
X033199Y010814D01*
X033199Y010587D01*
X033256Y010531D01*
X033369Y010531D01*
X033426Y010587D01*
X033058Y010701D02*
X033058Y010814D01*
X033001Y010871D01*
X032831Y010871D01*
X032831Y010531D01*
X032831Y010644D02*
X033001Y010644D01*
X033058Y010701D01*
X033207Y009692D02*
X033161Y009690D01*
X033115Y009685D01*
X033069Y009676D01*
X033024Y009663D01*
X032981Y009647D01*
X032939Y009628D01*
X032898Y009605D01*
X032860Y009579D01*
X032823Y009550D01*
X032789Y009519D01*
X032758Y009485D01*
X032729Y009448D01*
X032703Y009410D01*
X032680Y009369D01*
X032661Y009327D01*
X032645Y009284D01*
X032632Y009239D01*
X032623Y009193D01*
X032618Y009147D01*
X032616Y009101D01*
X032226Y009158D02*
X032169Y009101D01*
X032056Y009101D01*
X031999Y009158D01*
X031999Y009214D01*
X032056Y009271D01*
X032169Y009271D01*
X032226Y009214D01*
X032226Y009158D01*
X032169Y009101D02*
X032226Y009044D01*
X032226Y008987D01*
X032169Y008931D01*
X032056Y008931D01*
X031999Y008987D01*
X031999Y009044D01*
X032056Y009101D01*
X031858Y009214D02*
X031801Y009271D01*
X031687Y009271D01*
X031631Y009214D01*
X031631Y008987D01*
X031687Y008931D01*
X031801Y008931D01*
X031858Y008987D01*
X032616Y009101D02*
X032618Y009055D01*
X032623Y009009D01*
X032632Y008963D01*
X032645Y008918D01*
X032661Y008875D01*
X032680Y008833D01*
X032703Y008792D01*
X032729Y008754D01*
X032758Y008717D01*
X032789Y008683D01*
X032823Y008652D01*
X032860Y008623D01*
X032898Y008597D01*
X032939Y008574D01*
X032981Y008555D01*
X033024Y008539D01*
X033069Y008526D01*
X033115Y008517D01*
X033161Y008512D01*
X033207Y008510D01*
X033994Y009692D02*
X034040Y009690D01*
X034086Y009685D01*
X034132Y009676D01*
X034177Y009663D01*
X034220Y009647D01*
X034262Y009628D01*
X034303Y009605D01*
X034341Y009579D01*
X034378Y009550D01*
X034412Y009519D01*
X034443Y009485D01*
X034472Y009448D01*
X034498Y009410D01*
X034521Y009369D01*
X034540Y009327D01*
X034556Y009284D01*
X034569Y009239D01*
X034578Y009193D01*
X034583Y009147D01*
X034585Y009101D01*
X034583Y009055D01*
X034578Y009009D01*
X034569Y008963D01*
X034556Y008918D01*
X034540Y008875D01*
X034521Y008833D01*
X034498Y008792D01*
X034472Y008754D01*
X034443Y008717D01*
X034412Y008683D01*
X034378Y008652D01*
X034341Y008623D01*
X034303Y008597D01*
X034262Y008574D01*
X034220Y008555D01*
X034177Y008539D01*
X034132Y008526D01*
X034086Y008517D01*
X034040Y008512D01*
X033994Y008510D01*
X033881Y005871D02*
X033881Y005531D01*
X033994Y005531D02*
X033767Y005531D01*
X033626Y005531D02*
X033626Y005871D01*
X033767Y005758D02*
X033881Y005871D01*
X034136Y005701D02*
X034306Y005701D01*
X034363Y005644D01*
X034363Y005587D01*
X034306Y005531D01*
X034192Y005531D01*
X034136Y005587D01*
X034136Y005701D01*
X034249Y005814D01*
X034363Y005871D01*
X033626Y005531D02*
X033513Y005644D01*
X033399Y005531D01*
X033399Y005871D01*
X033258Y005814D02*
X033201Y005871D01*
X033087Y005871D01*
X033031Y005814D01*
X033031Y005758D01*
X033087Y005701D01*
X033201Y005701D01*
X033258Y005644D01*
X033258Y005587D01*
X033201Y005531D01*
X033087Y005531D01*
X033031Y005587D01*
X027120Y001687D02*
X027120Y001631D01*
X027063Y001631D01*
X027063Y001687D01*
X027120Y001687D01*
X026931Y001631D02*
X026875Y001687D01*
X026875Y001914D01*
X026818Y001858D02*
X026931Y001858D01*
X026686Y001858D02*
X026572Y001858D01*
X026629Y001914D02*
X026629Y001687D01*
X026686Y001631D01*
X026431Y001631D02*
X026261Y001631D01*
X026204Y001687D01*
X026261Y001744D01*
X026431Y001744D01*
X026431Y001801D02*
X026431Y001631D01*
X026431Y001801D02*
X026374Y001858D01*
X026261Y001858D01*
X026063Y001858D02*
X026006Y001801D01*
X025836Y001801D01*
X026006Y001801D02*
X026063Y001744D01*
X026063Y001687D01*
X026006Y001631D01*
X025836Y001631D01*
X025836Y001971D01*
X026006Y001971D01*
X026063Y001914D01*
X026063Y001858D01*
X025326Y001744D02*
X025326Y001971D01*
X025326Y001744D02*
X025213Y001631D01*
X025099Y001744D01*
X025099Y001971D01*
X024958Y001914D02*
X024901Y001971D01*
X024787Y001971D01*
X024731Y001914D01*
X024731Y001858D01*
X024787Y001801D01*
X024958Y001801D01*
X024958Y001914D02*
X024958Y001687D01*
X024901Y001631D01*
X024787Y001631D01*
X024731Y001687D01*
X025487Y005531D02*
X025431Y005587D01*
X025487Y005531D02*
X025601Y005531D01*
X025658Y005587D01*
X025658Y005644D01*
X025601Y005701D01*
X025487Y005701D01*
X025431Y005758D01*
X025431Y005814D01*
X025487Y005871D01*
X025601Y005871D01*
X025658Y005814D01*
X025799Y005871D02*
X025799Y005531D01*
X025913Y005644D01*
X026026Y005531D01*
X026026Y005871D01*
X026167Y005758D02*
X026281Y005871D01*
X026281Y005531D01*
X026394Y005531D02*
X026167Y005531D01*
X026536Y005587D02*
X026592Y005531D01*
X026706Y005531D01*
X026763Y005587D01*
X026763Y005701D01*
X026706Y005758D01*
X026649Y005758D01*
X026536Y005701D01*
X026536Y005871D01*
X026763Y005871D01*
X019911Y001958D02*
X019741Y001844D01*
X019911Y001731D01*
X019741Y001731D02*
X019741Y002071D01*
X019599Y001958D02*
X019429Y001958D01*
X019372Y001901D01*
X019372Y001787D01*
X019429Y001731D01*
X019599Y001731D01*
X019231Y001731D02*
X019061Y001731D01*
X019004Y001787D01*
X019061Y001844D01*
X019231Y001844D01*
X019231Y001901D02*
X019231Y001731D01*
X019231Y001901D02*
X019174Y001958D01*
X019061Y001958D01*
X018863Y002071D02*
X018749Y002071D01*
X018806Y002071D02*
X018806Y001787D01*
X018749Y001731D01*
X018692Y001731D01*
X018636Y001787D01*
X018126Y001787D02*
X018069Y001731D01*
X017956Y001731D01*
X017899Y001787D01*
X017899Y002014D01*
X017956Y002071D01*
X018069Y002071D01*
X018126Y002014D01*
X017758Y002014D02*
X017701Y002071D01*
X017531Y002071D01*
X017531Y001731D01*
X017701Y001731D01*
X017758Y001787D01*
X017758Y002014D01*
X018501Y019631D02*
X018501Y019971D01*
X018331Y019801D01*
X018558Y019801D01*
X018699Y019914D02*
X018699Y019687D01*
X018926Y019914D01*
X018926Y019687D01*
X018869Y019631D01*
X018756Y019631D01*
X018699Y019687D01*
X018699Y019914D02*
X018756Y019971D01*
X018869Y019971D01*
X018926Y019914D01*
X019067Y019914D02*
X019067Y019858D01*
X019124Y019801D01*
X019294Y019801D01*
X019294Y019914D02*
X019294Y019687D01*
X019238Y019631D01*
X019124Y019631D01*
X019067Y019687D01*
X019067Y019914D02*
X019124Y019971D01*
X019238Y019971D01*
X019294Y019914D01*
X019436Y019914D02*
X019492Y019971D01*
X019606Y019971D01*
X019663Y019914D01*
X019663Y019858D01*
X019606Y019801D01*
X019663Y019744D01*
X019663Y019687D01*
X019606Y019631D01*
X019492Y019631D01*
X019436Y019687D01*
X019549Y019801D02*
X019606Y019801D01*
X017401Y025494D02*
X016801Y025494D01*
X016784Y025496D01*
X016767Y025500D01*
X016751Y025507D01*
X016737Y025517D01*
X016724Y025530D01*
X016714Y025544D01*
X016707Y025560D01*
X016703Y025577D01*
X016701Y025594D01*
X016701Y025794D01*
X016751Y025844D01*
X016751Y026357D01*
X016701Y026407D01*
X016701Y026607D01*
X016703Y026624D01*
X016707Y026641D01*
X016714Y026657D01*
X016724Y026671D01*
X016737Y026684D01*
X016751Y026694D01*
X016767Y026701D01*
X016784Y026705D01*
X016801Y026707D01*
X017401Y026707D01*
X017418Y026705D01*
X017435Y026701D01*
X017451Y026694D01*
X017465Y026684D01*
X017478Y026671D01*
X017488Y026657D01*
X017495Y026641D01*
X017499Y026624D01*
X017501Y026607D01*
X017501Y026407D01*
X017451Y026357D01*
X017451Y025844D01*
X017501Y025794D01*
X017501Y025594D01*
X017499Y025577D01*
X017495Y025560D01*
X017488Y025544D01*
X017478Y025530D01*
X017465Y025517D01*
X017451Y025507D01*
X017435Y025500D01*
X017418Y025496D01*
X017401Y025494D01*
X017831Y025931D02*
X017831Y026271D01*
X018001Y026271D01*
X018058Y026214D01*
X018058Y026101D01*
X018001Y026044D01*
X017831Y026044D01*
X017944Y026044D02*
X018058Y025931D01*
X018199Y026101D02*
X018426Y026101D01*
X018369Y026271D02*
X018199Y026101D01*
X018369Y025931D02*
X018369Y026271D01*
X018487Y027731D02*
X018431Y027787D01*
X018431Y028014D01*
X018487Y028071D01*
X018601Y028071D01*
X018658Y028014D01*
X018658Y027787D01*
X018601Y027731D01*
X018487Y027731D01*
X018544Y027844D02*
X018658Y027731D01*
X018799Y027787D02*
X018856Y027731D01*
X018969Y027731D01*
X019026Y027787D01*
X019026Y027844D01*
X018969Y027901D01*
X018913Y027901D01*
X018969Y027901D02*
X019026Y027958D01*
X019026Y028014D01*
X018969Y028071D01*
X018856Y028071D01*
X018799Y028014D01*
X017501Y029094D02*
X017501Y029294D01*
X017451Y029344D01*
X017451Y029857D01*
X017501Y029907D01*
X017501Y030107D01*
X017499Y030124D01*
X017495Y030141D01*
X017488Y030157D01*
X017478Y030171D01*
X017465Y030184D01*
X017451Y030194D01*
X017435Y030201D01*
X017418Y030205D01*
X017401Y030207D01*
X016801Y030207D01*
X016784Y030205D01*
X016767Y030201D01*
X016751Y030194D01*
X016737Y030184D01*
X016724Y030171D01*
X016714Y030157D01*
X016707Y030141D01*
X016703Y030124D01*
X016701Y030107D01*
X016701Y029907D01*
X016751Y029857D01*
X016751Y029344D01*
X016701Y029294D01*
X016701Y029094D01*
X016703Y029077D01*
X016707Y029060D01*
X016714Y029044D01*
X016724Y029030D01*
X016737Y029017D01*
X016751Y029007D01*
X016767Y029000D01*
X016784Y028996D01*
X016801Y028994D01*
X017401Y028994D01*
X017418Y028996D01*
X017435Y029000D01*
X017451Y029007D01*
X017465Y029017D01*
X017478Y029030D01*
X017488Y029044D01*
X017495Y029060D01*
X017499Y029077D01*
X017501Y029094D01*
X017831Y029431D02*
X017831Y029771D01*
X018001Y029771D01*
X018058Y029714D01*
X018058Y029601D01*
X018001Y029544D01*
X017831Y029544D01*
X017944Y029544D02*
X018058Y029431D01*
X018199Y029487D02*
X018256Y029431D01*
X018369Y029431D01*
X018426Y029487D01*
X018426Y029544D01*
X018369Y029601D01*
X018313Y029601D01*
X018369Y029601D02*
X018426Y029658D01*
X018426Y029714D01*
X018369Y029771D01*
X018256Y029771D01*
X018199Y029714D01*
X020301Y027243D02*
X020301Y025959D01*
X021631Y031131D02*
X021801Y031131D01*
X021858Y031187D01*
X021858Y031414D01*
X021801Y031471D01*
X021631Y031471D01*
X021631Y031131D01*
X021999Y031187D02*
X022056Y031131D01*
X022169Y031131D01*
X022226Y031187D01*
X022226Y031244D01*
X022169Y031301D01*
X022113Y031301D01*
X022169Y031301D02*
X022226Y031358D01*
X022226Y031414D01*
X022169Y031471D01*
X022056Y031471D01*
X021999Y031414D01*
X013226Y031414D02*
X013169Y031471D01*
X013056Y031471D01*
X012999Y031414D01*
X012858Y031414D02*
X012858Y031187D01*
X012801Y031131D01*
X012631Y031131D01*
X012631Y031471D01*
X012801Y031471D01*
X012858Y031414D01*
X012999Y031131D02*
X013226Y031358D01*
X013226Y031414D01*
X013226Y031131D02*
X012999Y031131D01*
D11*
X029654Y003446D02*
X029556Y003348D01*
X029556Y003249D01*
X029654Y003151D01*
X029851Y003151D01*
X029949Y003053D01*
X029949Y002954D01*
X029851Y002856D01*
X029654Y002856D01*
X029556Y002954D01*
X029949Y003348D02*
X029851Y003446D01*
X029654Y003446D01*
X030200Y003249D02*
X030200Y002954D01*
X030299Y002856D01*
X030594Y002856D01*
X030594Y002757D02*
X030496Y002659D01*
X030397Y002659D01*
X030594Y002757D02*
X030594Y003249D01*
X030845Y003249D02*
X030845Y002856D01*
X030845Y003249D02*
X031140Y003249D01*
X031239Y003151D01*
X031239Y002856D01*
X031588Y002954D02*
X031588Y003348D01*
X031686Y003249D02*
X031489Y003249D01*
X031588Y002954D02*
X031686Y002856D01*
X031919Y002856D02*
X031919Y003446D01*
X032017Y003249D02*
X032214Y003249D01*
X032313Y003151D01*
X032313Y002856D01*
X032564Y002856D02*
X032564Y003249D01*
X032564Y003053D02*
X032760Y003249D01*
X032859Y003249D01*
X033101Y003151D02*
X033101Y002954D01*
X033199Y002856D01*
X033396Y002856D01*
X033494Y002954D01*
X033494Y003151D01*
X033396Y003249D01*
X033199Y003249D01*
X033101Y003151D01*
X033745Y003249D02*
X033942Y003249D01*
X033844Y003348D02*
X033844Y002954D01*
X033942Y002856D01*
X034175Y002954D02*
X034175Y003151D01*
X034273Y003249D01*
X034470Y003249D01*
X034569Y003151D01*
X034569Y003053D01*
X034175Y003053D01*
X034175Y002954D02*
X034273Y002856D01*
X034470Y002856D01*
X034819Y002856D02*
X034819Y003446D01*
X035115Y003249D02*
X034819Y003053D01*
X035115Y002856D01*
X032017Y003249D02*
X031919Y003151D01*
D12*
X032201Y011201D02*
X032201Y011404D01*
X032201Y011201D02*
X032606Y011201D01*
X032999Y011201D02*
X033404Y011201D01*
X033798Y011201D02*
X034202Y011201D01*
X034596Y011201D02*
X035001Y011201D01*
X035001Y011404D01*
X035001Y011798D02*
X035001Y012001D01*
X034596Y012001D01*
X034202Y012001D02*
X033798Y012001D01*
X033404Y012001D02*
X032999Y012001D01*
X032606Y012001D02*
X032201Y012001D01*
X032201Y011798D01*
X027001Y011798D02*
X027001Y012001D01*
X026596Y012001D01*
X026202Y012001D02*
X025798Y012001D01*
X025404Y012001D02*
X024999Y012001D01*
X024606Y012001D02*
X024201Y012001D01*
X024201Y011798D01*
X024201Y011404D02*
X024201Y011201D01*
X024606Y011201D01*
X024999Y011201D02*
X025404Y011201D01*
X025798Y011201D02*
X026202Y011201D01*
X026596Y011201D02*
X027001Y011201D01*
X027001Y011404D01*
X027001Y020201D02*
X026596Y020201D01*
X026202Y020201D02*
X025798Y020201D01*
X025404Y020201D02*
X024999Y020201D01*
X024606Y020201D02*
X024201Y020201D01*
X024201Y020404D01*
X024201Y020798D02*
X024201Y021001D01*
X024606Y021001D01*
X024999Y021001D02*
X025404Y021001D01*
X025798Y021001D02*
X026202Y021001D01*
X026596Y021001D02*
X027001Y021001D01*
X027001Y020798D01*
X027001Y020404D02*
X027001Y020201D01*
X032201Y020201D02*
X032201Y020404D01*
X032201Y020201D02*
X032606Y020201D01*
X032999Y020201D02*
X033404Y020201D01*
X033798Y020201D02*
X034202Y020201D01*
X034596Y020201D02*
X035001Y020201D01*
X035001Y020404D01*
X035001Y020798D02*
X035001Y021001D01*
X034596Y021001D01*
X034202Y021001D02*
X033798Y021001D01*
X033404Y021001D02*
X032999Y021001D01*
X032606Y021001D02*
X032201Y021001D01*
X032201Y020798D01*
X013001Y020798D02*
X013001Y021001D01*
X012596Y021001D01*
X012202Y021001D02*
X011798Y021001D01*
X011404Y021001D02*
X010999Y021001D01*
X010606Y021001D02*
X010201Y021001D01*
X010201Y020798D01*
X010201Y020404D02*
X010201Y020201D01*
X010606Y020201D01*
X010999Y020201D02*
X011404Y020201D01*
X011798Y020201D02*
X012202Y020201D01*
X012596Y020201D02*
X013001Y020201D01*
X013001Y020404D01*
X005001Y020404D02*
X005001Y020201D01*
X004596Y020201D01*
X004202Y020201D02*
X003798Y020201D01*
X003404Y020201D02*
X002999Y020201D01*
X002606Y020201D02*
X002201Y020201D01*
X002201Y020404D01*
X002201Y020798D02*
X002201Y021001D01*
X002606Y021001D01*
X002999Y021001D02*
X003404Y021001D01*
X003798Y021001D02*
X004202Y021001D01*
X004596Y021001D02*
X005001Y021001D01*
X005001Y020798D01*
X005001Y012001D02*
X004596Y012001D01*
X004202Y012001D02*
X003798Y012001D01*
X003404Y012001D02*
X002999Y012001D01*
X002606Y012001D02*
X002201Y012001D01*
X002201Y011798D01*
X002201Y011404D02*
X002201Y011201D01*
X002606Y011201D01*
X002999Y011201D02*
X003404Y011201D01*
X003798Y011201D02*
X004202Y011201D01*
X004596Y011201D02*
X005001Y011201D01*
X005001Y011404D01*
X005001Y011798D02*
X005001Y012001D01*
X010201Y012001D02*
X010606Y012001D01*
X010999Y012001D02*
X011404Y012001D01*
X011798Y012001D02*
X012202Y012001D01*
X012596Y012001D02*
X013001Y012001D01*
X013001Y011798D01*
X013001Y011404D02*
X013001Y011201D01*
X012596Y011201D01*
X012202Y011201D02*
X011798Y011201D01*
X011404Y011201D02*
X010999Y011201D01*
X010606Y011201D02*
X010201Y011201D01*
X010201Y011404D01*
X010201Y011798D02*
X010201Y012001D01*
D13*
X010721Y011996D02*
X010915Y011996D01*
X010818Y011996D02*
X010818Y012286D01*
X010721Y012189D01*
X012121Y012238D02*
X012169Y012286D01*
X012266Y012286D01*
X012315Y012238D01*
X012315Y012189D01*
X012266Y012141D01*
X012315Y012093D01*
X012315Y012044D01*
X012266Y011996D01*
X012169Y011996D01*
X012121Y012044D01*
X012218Y012141D02*
X012266Y012141D01*
X004315Y012093D02*
X004315Y012044D01*
X004266Y011996D01*
X004169Y011996D01*
X004121Y012044D01*
X004218Y012141D02*
X004266Y012141D01*
X004315Y012093D01*
X004266Y012141D02*
X004315Y012189D01*
X004315Y012238D01*
X004266Y012286D01*
X004169Y012286D01*
X004121Y012238D01*
X002915Y011996D02*
X002721Y011996D01*
X002818Y011996D02*
X002818Y012286D01*
X002721Y012189D01*
X002721Y020996D02*
X002915Y020996D01*
X002818Y020996D02*
X002818Y021286D01*
X002721Y021189D01*
X004121Y021238D02*
X004169Y021286D01*
X004266Y021286D01*
X004315Y021238D01*
X004315Y021189D01*
X004266Y021141D01*
X004315Y021093D01*
X004315Y021044D01*
X004266Y020996D01*
X004169Y020996D01*
X004121Y021044D01*
X004218Y021141D02*
X004266Y021141D01*
X010721Y021189D02*
X010818Y021286D01*
X010818Y020996D01*
X010721Y020996D02*
X010915Y020996D01*
X012121Y021044D02*
X012169Y020996D01*
X012266Y020996D01*
X012315Y021044D01*
X012315Y021093D01*
X012266Y021141D01*
X012218Y021141D01*
X012266Y021141D02*
X012315Y021189D01*
X012315Y021238D01*
X012266Y021286D01*
X012169Y021286D01*
X012121Y021238D01*
X024721Y021189D02*
X024818Y021286D01*
X024818Y020996D01*
X024721Y020996D02*
X024915Y020996D01*
X026121Y021044D02*
X026169Y020996D01*
X026266Y020996D01*
X026315Y021044D01*
X026315Y021093D01*
X026266Y021141D01*
X026218Y021141D01*
X026266Y021141D02*
X026315Y021189D01*
X026315Y021238D01*
X026266Y021286D01*
X026169Y021286D01*
X026121Y021238D01*
X032721Y021189D02*
X032818Y021286D01*
X032818Y020996D01*
X032721Y020996D02*
X032915Y020996D01*
X034121Y021044D02*
X034169Y020996D01*
X034266Y020996D01*
X034315Y021044D01*
X034315Y021093D01*
X034266Y021141D01*
X034218Y021141D01*
X034266Y021141D02*
X034315Y021189D01*
X034315Y021238D01*
X034266Y021286D01*
X034169Y021286D01*
X034121Y021238D01*
X034169Y012286D02*
X034266Y012286D01*
X034315Y012238D01*
X034315Y012189D01*
X034266Y012141D01*
X034315Y012093D01*
X034315Y012044D01*
X034266Y011996D01*
X034169Y011996D01*
X034121Y012044D01*
X034218Y012141D02*
X034266Y012141D01*
X034121Y012238D02*
X034169Y012286D01*
X032915Y011996D02*
X032721Y011996D01*
X032818Y011996D02*
X032818Y012286D01*
X032721Y012189D01*
X026315Y012189D02*
X026266Y012141D01*
X026315Y012093D01*
X026315Y012044D01*
X026266Y011996D01*
X026169Y011996D01*
X026121Y012044D01*
X026218Y012141D02*
X026266Y012141D01*
X026315Y012189D02*
X026315Y012238D01*
X026266Y012286D01*
X026169Y012286D01*
X026121Y012238D01*
X024915Y011996D02*
X024721Y011996D01*
X024818Y011996D02*
X024818Y012286D01*
X024721Y012189D01*
D14*
X029316Y027263D02*
X029279Y027230D01*
X029238Y027272D01*
X029194Y027311D01*
X029147Y027347D01*
X029099Y027381D01*
X029048Y027411D01*
X028996Y027438D01*
X028942Y027461D01*
X028886Y027481D01*
X028829Y027497D01*
X028772Y027510D01*
X028714Y027519D01*
X028655Y027524D01*
X028596Y027526D01*
X028537Y027524D01*
X028479Y027518D01*
X028421Y027508D01*
X028363Y027495D01*
X028307Y027478D01*
X028251Y027457D01*
X028198Y027433D01*
X028145Y027406D01*
X028095Y027375D01*
X028047Y027342D01*
X028001Y027305D01*
X027957Y027265D01*
X027916Y027223D01*
X027878Y027178D01*
X027843Y027131D01*
X027811Y027081D01*
X027782Y027030D01*
X027756Y026977D01*
X027711Y026997D01*
X027710Y026997D01*
X027736Y027051D01*
X027766Y027104D01*
X027798Y027154D01*
X027834Y027203D01*
X027873Y027249D01*
X027914Y027293D01*
X027958Y027334D01*
X028004Y027372D01*
X028053Y027408D01*
X028104Y027440D01*
X028157Y027469D01*
X028211Y027495D01*
X028267Y027517D01*
X028324Y027536D01*
X028382Y027551D01*
X028441Y027563D01*
X028501Y027571D01*
X028561Y027575D01*
X028621Y027576D01*
X028681Y027573D01*
X028741Y027566D01*
X028800Y027555D01*
X028859Y027541D01*
X028916Y027524D01*
X028973Y027502D01*
X029028Y027478D01*
X029081Y027450D01*
X029132Y027419D01*
X029182Y027384D01*
X029229Y027347D01*
X029274Y027307D01*
X029316Y027264D01*
X029309Y027258D01*
X029266Y027302D01*
X029220Y027342D01*
X029172Y027380D01*
X029121Y027415D01*
X029068Y027447D01*
X029013Y027475D01*
X028957Y027499D01*
X028899Y027520D01*
X028840Y027537D01*
X028780Y027550D01*
X028719Y027560D01*
X028657Y027565D01*
X028596Y027567D01*
X028534Y027565D01*
X028473Y027559D01*
X028412Y027548D01*
X028353Y027535D01*
X028294Y027517D01*
X028236Y027495D01*
X028180Y027470D01*
X028125Y027442D01*
X028073Y027410D01*
X028022Y027374D01*
X027974Y027336D01*
X027929Y027295D01*
X027886Y027250D01*
X027846Y027203D01*
X027809Y027154D01*
X027775Y027103D01*
X027745Y027049D01*
X027718Y026994D01*
X027727Y026990D01*
X027753Y027045D01*
X027783Y027098D01*
X027816Y027149D01*
X027853Y027198D01*
X027892Y027244D01*
X027935Y027288D01*
X027980Y027329D01*
X028028Y027367D01*
X028078Y027402D01*
X028130Y027434D01*
X028184Y027462D01*
X028239Y027487D01*
X028296Y027508D01*
X028355Y027526D01*
X028414Y027540D01*
X028474Y027550D01*
X028535Y027556D01*
X028596Y027558D01*
X028657Y027556D01*
X028718Y027551D01*
X028778Y027542D01*
X028837Y027528D01*
X028896Y027511D01*
X028953Y027491D01*
X029009Y027467D01*
X029064Y027439D01*
X029116Y027408D01*
X029166Y027373D01*
X029214Y027336D01*
X029260Y027295D01*
X029303Y027252D01*
X029296Y027246D01*
X029254Y027289D01*
X029209Y027329D01*
X029161Y027366D01*
X029111Y027400D01*
X029059Y027431D01*
X029005Y027458D01*
X028950Y027482D01*
X028893Y027503D01*
X028835Y027520D01*
X028776Y027533D01*
X028717Y027542D01*
X028656Y027547D01*
X028596Y027549D01*
X028536Y027547D01*
X028476Y027541D01*
X028416Y027531D01*
X028357Y027517D01*
X028299Y027500D01*
X028243Y027479D01*
X028188Y027454D01*
X028134Y027426D01*
X028082Y027395D01*
X028033Y027360D01*
X027986Y027322D01*
X027941Y027282D01*
X027899Y027238D01*
X027860Y027192D01*
X027824Y027144D01*
X027791Y027093D01*
X027761Y027041D01*
X027735Y026986D01*
X027743Y026983D01*
X027769Y027037D01*
X027799Y027089D01*
X027831Y027139D01*
X027867Y027187D01*
X027906Y027232D01*
X027947Y027275D01*
X027992Y027315D01*
X028038Y027353D01*
X028087Y027387D01*
X028139Y027418D01*
X028192Y027446D01*
X028246Y027470D01*
X028302Y027491D01*
X028360Y027508D01*
X028418Y027522D01*
X028477Y027532D01*
X028536Y027538D01*
X028596Y027540D01*
X028656Y027538D01*
X028715Y027533D01*
X028775Y027524D01*
X028833Y027511D01*
X028890Y027494D01*
X028947Y027474D01*
X029002Y027450D01*
X029055Y027423D01*
X029106Y027392D01*
X029156Y027359D01*
X029203Y027322D01*
X029247Y027282D01*
X029290Y027239D01*
X029283Y027233D01*
X029241Y027276D01*
X029197Y027315D01*
X029150Y027351D01*
X029101Y027385D01*
X029050Y027415D01*
X028998Y027442D01*
X028943Y027466D01*
X028888Y027486D01*
X028831Y027502D01*
X028773Y027515D01*
X028714Y027524D01*
X028655Y027529D01*
X028596Y027531D01*
X028537Y027529D01*
X028478Y027523D01*
X028420Y027513D01*
X028362Y027500D01*
X028305Y027483D01*
X028250Y027462D01*
X028195Y027438D01*
X028143Y027410D01*
X028092Y027380D01*
X028044Y027346D01*
X027998Y027309D01*
X027954Y027269D01*
X027913Y027226D01*
X027874Y027181D01*
X027839Y027134D01*
X027806Y027084D01*
X027777Y027032D01*
X027751Y026979D01*
X027711Y026205D02*
X027756Y026225D01*
X027782Y026172D01*
X027811Y026121D01*
X027843Y026071D01*
X027878Y026024D01*
X027916Y025979D01*
X027957Y025937D01*
X028001Y025897D01*
X028047Y025860D01*
X028095Y025827D01*
X028145Y025796D01*
X028198Y025769D01*
X028251Y025745D01*
X028307Y025724D01*
X028363Y025707D01*
X028421Y025694D01*
X028479Y025684D01*
X028537Y025678D01*
X028596Y025676D01*
X028655Y025678D01*
X028714Y025683D01*
X028772Y025692D01*
X028829Y025705D01*
X028886Y025721D01*
X028942Y025741D01*
X028996Y025764D01*
X029048Y025791D01*
X029099Y025821D01*
X029147Y025855D01*
X029194Y025891D01*
X029238Y025930D01*
X029279Y025972D01*
X029316Y025939D01*
X029316Y025938D01*
X029274Y025895D01*
X029229Y025855D01*
X029182Y025818D01*
X029132Y025783D01*
X029081Y025752D01*
X029028Y025724D01*
X028973Y025700D01*
X028916Y025678D01*
X028859Y025661D01*
X028800Y025647D01*
X028741Y025636D01*
X028681Y025629D01*
X028621Y025626D01*
X028561Y025627D01*
X028501Y025631D01*
X028441Y025639D01*
X028382Y025651D01*
X028324Y025666D01*
X028267Y025685D01*
X028211Y025707D01*
X028157Y025733D01*
X028104Y025762D01*
X028053Y025794D01*
X028004Y025830D01*
X027958Y025868D01*
X027914Y025909D01*
X027873Y025953D01*
X027834Y025999D01*
X027798Y026048D01*
X027766Y026098D01*
X027736Y026151D01*
X027710Y026205D01*
X027718Y026208D01*
X027745Y026153D01*
X027775Y026099D01*
X027809Y026048D01*
X027846Y025999D01*
X027886Y025952D01*
X027929Y025907D01*
X027974Y025866D01*
X028022Y025828D01*
X028073Y025792D01*
X028125Y025760D01*
X028180Y025732D01*
X028236Y025707D01*
X028294Y025685D01*
X028353Y025667D01*
X028412Y025654D01*
X028473Y025643D01*
X028534Y025637D01*
X028596Y025635D01*
X028657Y025637D01*
X028719Y025642D01*
X028780Y025652D01*
X028840Y025665D01*
X028899Y025682D01*
X028957Y025703D01*
X029013Y025727D01*
X029068Y025755D01*
X029121Y025787D01*
X029172Y025822D01*
X029220Y025860D01*
X029266Y025900D01*
X029309Y025944D01*
X029303Y025950D01*
X029260Y025907D01*
X029214Y025866D01*
X029166Y025829D01*
X029116Y025794D01*
X029064Y025763D01*
X029009Y025735D01*
X028953Y025711D01*
X028896Y025691D01*
X028837Y025674D01*
X028778Y025660D01*
X028718Y025651D01*
X028657Y025646D01*
X028596Y025644D01*
X028535Y025646D01*
X028474Y025652D01*
X028414Y025662D01*
X028355Y025676D01*
X028296Y025694D01*
X028239Y025715D01*
X028184Y025740D01*
X028130Y025768D01*
X028078Y025800D01*
X028028Y025835D01*
X027980Y025873D01*
X027935Y025914D01*
X027892Y025958D01*
X027853Y026004D01*
X027816Y026053D01*
X027783Y026104D01*
X027753Y026157D01*
X027727Y026212D01*
X027735Y026216D01*
X027761Y026161D01*
X027791Y026109D01*
X027824Y026058D01*
X027860Y026010D01*
X027899Y025964D01*
X027941Y025920D01*
X027986Y025880D01*
X028033Y025842D01*
X028082Y025807D01*
X028134Y025776D01*
X028188Y025748D01*
X028243Y025723D01*
X028299Y025702D01*
X028357Y025685D01*
X028416Y025671D01*
X028476Y025661D01*
X028536Y025655D01*
X028596Y025653D01*
X028656Y025655D01*
X028717Y025660D01*
X028776Y025669D01*
X028835Y025682D01*
X028893Y025699D01*
X028950Y025720D01*
X029005Y025744D01*
X029059Y025771D01*
X029111Y025802D01*
X029161Y025836D01*
X029209Y025873D01*
X029254Y025913D01*
X029296Y025956D01*
X029290Y025963D01*
X029247Y025920D01*
X029203Y025880D01*
X029156Y025843D01*
X029106Y025810D01*
X029055Y025779D01*
X029002Y025752D01*
X028947Y025728D01*
X028890Y025708D01*
X028833Y025691D01*
X028775Y025678D01*
X028715Y025669D01*
X028656Y025664D01*
X028596Y025662D01*
X028536Y025664D01*
X028477Y025670D01*
X028418Y025680D01*
X028360Y025694D01*
X028302Y025711D01*
X028246Y025732D01*
X028192Y025756D01*
X028139Y025784D01*
X028087Y025815D01*
X028038Y025849D01*
X027992Y025887D01*
X027947Y025927D01*
X027906Y025970D01*
X027867Y026015D01*
X027831Y026063D01*
X027799Y026113D01*
X027769Y026165D01*
X027743Y026219D01*
X027751Y026223D01*
X027777Y026170D01*
X027806Y026118D01*
X027839Y026068D01*
X027874Y026021D01*
X027913Y025976D01*
X027954Y025933D01*
X027998Y025893D01*
X028044Y025856D01*
X028092Y025822D01*
X028143Y025792D01*
X028195Y025764D01*
X028250Y025740D01*
X028305Y025719D01*
X028362Y025702D01*
X028420Y025689D01*
X028478Y025679D01*
X028537Y025673D01*
X028596Y025671D01*
X028655Y025673D01*
X028714Y025678D01*
X028773Y025687D01*
X028831Y025700D01*
X028888Y025716D01*
X028943Y025736D01*
X028998Y025760D01*
X029050Y025787D01*
X029101Y025817D01*
X029150Y025851D01*
X029197Y025887D01*
X029241Y025926D01*
X029283Y025969D01*
X031370Y030178D02*
X031448Y030223D01*
X031448Y030222D02*
X031476Y030178D01*
X031507Y030136D01*
X031540Y030096D01*
X031576Y030058D01*
X031615Y030023D01*
X031656Y029991D01*
X031700Y029961D01*
X031745Y029935D01*
X031792Y029912D01*
X031840Y029892D01*
X031890Y029876D01*
X031940Y029863D01*
X031992Y029854D01*
X032044Y029848D01*
X032096Y029846D01*
X032097Y029757D01*
X032096Y029756D01*
X032041Y029758D01*
X031987Y029764D01*
X031932Y029773D01*
X031879Y029786D01*
X031827Y029802D01*
X031775Y029821D01*
X031725Y029844D01*
X031677Y029870D01*
X031630Y029899D01*
X031586Y029931D01*
X031543Y029966D01*
X031503Y030004D01*
X031466Y030044D01*
X031431Y030086D01*
X031399Y030131D01*
X031370Y030177D01*
X031378Y030182D01*
X031406Y030136D01*
X031438Y030092D01*
X031473Y030050D01*
X031510Y030010D01*
X031549Y029973D01*
X031591Y029938D01*
X031635Y029907D01*
X031681Y029878D01*
X031729Y029852D01*
X031779Y029830D01*
X031829Y029810D01*
X031881Y029794D01*
X031934Y029782D01*
X031988Y029773D01*
X032042Y029767D01*
X032096Y029765D01*
X032096Y029774D01*
X032042Y029776D01*
X031989Y029782D01*
X031936Y029791D01*
X031884Y029803D01*
X031832Y029819D01*
X031782Y029838D01*
X031733Y029860D01*
X031686Y029886D01*
X031640Y029914D01*
X031597Y029946D01*
X031555Y029980D01*
X031516Y030016D01*
X031479Y030056D01*
X031445Y030097D01*
X031414Y030141D01*
X031385Y030186D01*
X031393Y030191D01*
X031423Y030143D01*
X031457Y030097D01*
X031493Y030054D01*
X031533Y030013D01*
X031575Y029975D01*
X031619Y029940D01*
X031666Y029908D01*
X031715Y029880D01*
X031766Y029855D01*
X031819Y029833D01*
X031872Y029816D01*
X031927Y029802D01*
X031983Y029792D01*
X032039Y029785D01*
X032096Y029783D01*
X032096Y029792D01*
X032040Y029794D01*
X031984Y029800D01*
X031929Y029810D01*
X031875Y029824D01*
X031822Y029842D01*
X031770Y029863D01*
X031719Y029888D01*
X031671Y029916D01*
X031625Y029947D01*
X031580Y029982D01*
X031539Y030019D01*
X031500Y030060D01*
X031464Y030102D01*
X031431Y030148D01*
X031401Y030195D01*
X031409Y030200D01*
X031438Y030153D01*
X031471Y030108D01*
X031507Y030066D01*
X031545Y030026D01*
X031586Y029989D01*
X031630Y029954D01*
X031676Y029923D01*
X031724Y029896D01*
X031773Y029871D01*
X031825Y029850D01*
X031877Y029833D01*
X031931Y029819D01*
X031986Y029809D01*
X032041Y029803D01*
X032096Y029801D01*
X032096Y029810D01*
X032041Y029812D01*
X031987Y029818D01*
X031933Y029828D01*
X031880Y029842D01*
X031828Y029859D01*
X031777Y029879D01*
X031728Y029904D01*
X031681Y029931D01*
X031635Y029962D01*
X031592Y029995D01*
X031551Y030032D01*
X031513Y030072D01*
X031478Y030114D01*
X031446Y030158D01*
X031417Y030204D01*
X031425Y030209D01*
X031453Y030163D01*
X031485Y030119D01*
X031520Y030078D01*
X031558Y030039D01*
X031598Y030002D01*
X031640Y029969D01*
X031685Y029939D01*
X031732Y029911D01*
X031781Y029888D01*
X031831Y029867D01*
X031882Y029850D01*
X031935Y029837D01*
X031988Y029827D01*
X032042Y029821D01*
X032096Y029819D01*
X032096Y029828D01*
X032043Y029830D01*
X031989Y029836D01*
X031937Y029846D01*
X031885Y029859D01*
X031834Y029876D01*
X031784Y029896D01*
X031736Y029919D01*
X031690Y029946D01*
X031646Y029976D01*
X031604Y030009D01*
X031564Y030045D01*
X031527Y030084D01*
X031492Y030125D01*
X031461Y030168D01*
X031432Y030213D01*
X031440Y030218D01*
X031468Y030173D01*
X031499Y030130D01*
X031533Y030090D01*
X031570Y030052D01*
X031609Y030016D01*
X031651Y029984D01*
X031695Y029954D01*
X031741Y029927D01*
X031788Y029904D01*
X031837Y029884D01*
X031887Y029867D01*
X031939Y029854D01*
X031991Y029845D01*
X032043Y029839D01*
X032096Y029837D01*
X032105Y029757D02*
X032105Y029847D01*
X032106Y029846D02*
X032160Y029848D01*
X032213Y029854D01*
X032266Y029864D01*
X032318Y029878D01*
X032369Y029895D01*
X032419Y029916D01*
X032467Y029940D01*
X032513Y029968D01*
X032557Y029999D01*
X032598Y030033D01*
X032638Y030070D01*
X032674Y030109D01*
X032742Y030052D01*
X032743Y030051D01*
X032705Y030010D01*
X032665Y029972D01*
X032622Y029936D01*
X032577Y029903D01*
X032530Y029873D01*
X032482Y029847D01*
X032431Y029823D01*
X032379Y029803D01*
X032326Y029787D01*
X032272Y029773D01*
X032217Y029764D01*
X032162Y029758D01*
X032106Y029756D01*
X032106Y029765D01*
X032161Y029767D01*
X032216Y029773D01*
X032270Y029782D01*
X032324Y029795D01*
X032376Y029812D01*
X032428Y029831D01*
X032478Y029855D01*
X032526Y029881D01*
X032572Y029911D01*
X032617Y029943D01*
X032659Y029978D01*
X032699Y030017D01*
X032736Y030057D01*
X032729Y030063D01*
X032692Y030023D01*
X032653Y029985D01*
X032611Y029950D01*
X032567Y029918D01*
X032521Y029889D01*
X032473Y029863D01*
X032424Y029840D01*
X032373Y029820D01*
X032321Y029804D01*
X032268Y029791D01*
X032215Y029782D01*
X032160Y029776D01*
X032106Y029774D01*
X032106Y029783D01*
X032160Y029785D01*
X032213Y029791D01*
X032266Y029800D01*
X032319Y029813D01*
X032370Y029829D01*
X032421Y029848D01*
X032469Y029871D01*
X032517Y029896D01*
X032562Y029925D01*
X032606Y029957D01*
X032647Y029992D01*
X032686Y030029D01*
X032722Y030069D01*
X032715Y030075D01*
X032679Y030035D01*
X032641Y029998D01*
X032600Y029964D01*
X032557Y029933D01*
X032512Y029904D01*
X032465Y029879D01*
X032417Y029856D01*
X032367Y029837D01*
X032316Y029821D01*
X032265Y029809D01*
X032212Y029800D01*
X032159Y029794D01*
X032106Y029792D01*
X032106Y029801D01*
X032159Y029803D01*
X032211Y029809D01*
X032263Y029818D01*
X032314Y029830D01*
X032364Y029846D01*
X032414Y029865D01*
X032461Y029887D01*
X032508Y029912D01*
X032552Y029940D01*
X032594Y029971D01*
X032635Y030005D01*
X032673Y030042D01*
X032708Y030080D01*
X032702Y030086D01*
X032666Y030048D01*
X032629Y030012D01*
X032589Y029978D01*
X032547Y029948D01*
X032503Y029920D01*
X032457Y029895D01*
X032410Y029873D01*
X032361Y029854D01*
X032312Y029839D01*
X032261Y029826D01*
X032210Y029818D01*
X032158Y029812D01*
X032106Y029810D01*
X032106Y029819D01*
X032162Y029821D01*
X032217Y029828D01*
X032272Y029838D01*
X032326Y029852D01*
X032379Y029870D01*
X032430Y029892D01*
X032480Y029917D01*
X032528Y029946D01*
X032573Y029978D01*
X032616Y030013D01*
X032657Y030051D01*
X032695Y030092D01*
X032688Y030098D01*
X032651Y030057D01*
X032610Y030020D01*
X032568Y029985D01*
X032523Y029953D01*
X032475Y029925D01*
X032426Y029900D01*
X032375Y029878D01*
X032323Y029861D01*
X032270Y029847D01*
X032216Y029837D01*
X032161Y029830D01*
X032106Y029828D01*
X032106Y029837D01*
X032160Y029839D01*
X032215Y029845D01*
X032268Y029855D01*
X032321Y029869D01*
X032372Y029887D01*
X032422Y029908D01*
X032471Y029933D01*
X032518Y029961D01*
X032562Y029992D01*
X032604Y030026D01*
X032644Y030064D01*
X032681Y030104D01*
X032096Y031445D02*
X032096Y031355D01*
X032096Y031356D02*
X032042Y031354D01*
X031989Y031348D01*
X031936Y031338D01*
X031884Y031324D01*
X031833Y031307D01*
X031784Y031286D01*
X031736Y031262D01*
X031690Y031234D01*
X031646Y031203D01*
X031604Y031169D01*
X031565Y031133D01*
X031528Y031093D01*
X031495Y031051D01*
X031464Y031007D01*
X031437Y030961D01*
X031358Y031003D01*
X031386Y031052D01*
X031418Y031098D01*
X031453Y031143D01*
X031490Y031185D01*
X031531Y031224D01*
X031574Y031261D01*
X031619Y031295D01*
X031666Y031326D01*
X031716Y031353D01*
X031767Y031377D01*
X031819Y031398D01*
X031873Y031415D01*
X031928Y031428D01*
X031983Y031438D01*
X032040Y031444D01*
X032096Y031446D01*
X032096Y031437D01*
X032040Y031435D01*
X031985Y031429D01*
X031930Y031419D01*
X031875Y031406D01*
X031822Y031389D01*
X031770Y031369D01*
X031720Y031345D01*
X031671Y031318D01*
X031624Y031288D01*
X031579Y031254D01*
X031537Y031218D01*
X031497Y031179D01*
X031460Y031137D01*
X031425Y031093D01*
X031394Y031047D01*
X031366Y030999D01*
X031374Y030995D01*
X031402Y031042D01*
X031433Y031088D01*
X031467Y031131D01*
X031503Y031173D01*
X031543Y031211D01*
X031585Y031247D01*
X031629Y031280D01*
X031675Y031310D01*
X031724Y031337D01*
X031774Y031360D01*
X031825Y031381D01*
X031878Y031397D01*
X031931Y031410D01*
X031986Y031420D01*
X032041Y031426D01*
X032096Y031428D01*
X032096Y031419D01*
X032041Y031417D01*
X031987Y031411D01*
X031933Y031402D01*
X031880Y031389D01*
X031828Y031372D01*
X031777Y031352D01*
X031728Y031329D01*
X031680Y031302D01*
X031634Y031273D01*
X031590Y031240D01*
X031549Y031205D01*
X031510Y031166D01*
X031473Y031126D01*
X031440Y031083D01*
X031409Y031037D01*
X031382Y030990D01*
X031390Y030986D01*
X031417Y031033D01*
X031447Y031077D01*
X031480Y031120D01*
X031516Y031160D01*
X031555Y031198D01*
X031596Y031233D01*
X031639Y031265D01*
X031685Y031295D01*
X031732Y031321D01*
X031781Y031344D01*
X031831Y031364D01*
X031883Y031380D01*
X031935Y031393D01*
X031988Y031402D01*
X032042Y031408D01*
X032096Y031410D01*
X032096Y031401D01*
X032043Y031399D01*
X031989Y031393D01*
X031937Y031384D01*
X031885Y031371D01*
X031834Y031355D01*
X031784Y031336D01*
X031736Y031313D01*
X031689Y031287D01*
X031645Y031258D01*
X031602Y031226D01*
X031561Y031191D01*
X031523Y031154D01*
X031487Y031114D01*
X031454Y031072D01*
X031424Y031028D01*
X031397Y030982D01*
X031405Y030978D01*
X031432Y031023D01*
X031462Y031067D01*
X031494Y031108D01*
X031529Y031148D01*
X031567Y031185D01*
X031607Y031219D01*
X031650Y031251D01*
X031694Y031279D01*
X031740Y031305D01*
X031788Y031327D01*
X031837Y031347D01*
X031887Y031363D01*
X031939Y031375D01*
X031991Y031384D01*
X032043Y031390D01*
X032096Y031392D01*
X032096Y031383D01*
X032040Y031381D01*
X031985Y031374D01*
X031930Y031364D01*
X031876Y031350D01*
X031824Y031332D01*
X031772Y031311D01*
X031723Y031285D01*
X031675Y031257D01*
X031629Y031225D01*
X031586Y031190D01*
X031546Y031152D01*
X031508Y031111D01*
X031473Y031067D01*
X031442Y031021D01*
X031413Y030973D01*
X031421Y030969D01*
X031449Y031017D01*
X031480Y031062D01*
X031515Y031105D01*
X031552Y031145D01*
X031592Y031183D01*
X031635Y031218D01*
X031680Y031249D01*
X031727Y031278D01*
X031776Y031302D01*
X031827Y031324D01*
X031879Y031341D01*
X031932Y031355D01*
X031986Y031365D01*
X032041Y031372D01*
X032096Y031374D01*
X032096Y031365D01*
X032042Y031363D01*
X031988Y031357D01*
X031934Y031347D01*
X031882Y031333D01*
X031830Y031315D01*
X031780Y031294D01*
X031731Y031270D01*
X031685Y031242D01*
X031640Y031210D01*
X031598Y031176D01*
X031559Y031139D01*
X031522Y031099D01*
X031488Y031057D01*
X031457Y031012D01*
X031429Y030965D01*
X032746Y031145D02*
X032677Y031088D01*
X032678Y031088D02*
X032641Y031128D01*
X032602Y031166D01*
X032560Y031200D01*
X032516Y031232D01*
X032470Y031260D01*
X032421Y031285D01*
X032371Y031306D01*
X032320Y031324D01*
X032267Y031337D01*
X032214Y031347D01*
X032160Y031354D01*
X032106Y031356D01*
X032105Y031445D01*
X032106Y031446D01*
X032162Y031444D01*
X032218Y031438D01*
X032273Y031428D01*
X032328Y031415D01*
X032381Y031398D01*
X032434Y031378D01*
X032485Y031354D01*
X032534Y031327D01*
X032581Y031296D01*
X032626Y031263D01*
X032669Y031227D01*
X032709Y031188D01*
X032747Y031146D01*
X032740Y031140D01*
X032703Y031181D01*
X032663Y031220D01*
X032621Y031256D01*
X032576Y031289D01*
X032529Y031319D01*
X032481Y031346D01*
X032430Y031369D01*
X032378Y031390D01*
X032325Y031406D01*
X032271Y031419D01*
X032217Y031429D01*
X032162Y031435D01*
X032106Y031437D01*
X032106Y031428D01*
X032161Y031426D01*
X032216Y031420D01*
X032270Y031411D01*
X032323Y031398D01*
X032375Y031381D01*
X032427Y031361D01*
X032476Y031338D01*
X032525Y031311D01*
X032571Y031282D01*
X032615Y031249D01*
X032657Y031213D01*
X032696Y031175D01*
X032733Y031134D01*
X032726Y031129D01*
X032690Y031169D01*
X032651Y031207D01*
X032609Y031242D01*
X032566Y031274D01*
X032520Y031304D01*
X032472Y031330D01*
X032423Y031353D01*
X032373Y031373D01*
X032321Y031389D01*
X032268Y031402D01*
X032214Y031411D01*
X032160Y031417D01*
X032106Y031419D01*
X032106Y031410D01*
X032160Y031408D01*
X032213Y031402D01*
X032266Y031393D01*
X032318Y031380D01*
X032370Y031364D01*
X032420Y031345D01*
X032468Y031322D01*
X032515Y031296D01*
X032561Y031267D01*
X032604Y031235D01*
X032645Y031200D01*
X032683Y031163D01*
X032719Y031123D01*
X032712Y031117D01*
X032677Y031156D01*
X032639Y031193D01*
X032598Y031228D01*
X032555Y031259D01*
X032511Y031288D01*
X032464Y031314D01*
X032416Y031336D01*
X032367Y031356D01*
X032316Y031372D01*
X032264Y031384D01*
X032212Y031393D01*
X032159Y031399D01*
X032106Y031401D01*
X032106Y031392D01*
X032158Y031390D01*
X032211Y031384D01*
X032262Y031375D01*
X032313Y031363D01*
X032364Y031347D01*
X032413Y031328D01*
X032460Y031306D01*
X032506Y031280D01*
X032550Y031252D01*
X032592Y031221D01*
X032633Y031187D01*
X032670Y031150D01*
X032705Y031111D01*
X032699Y031105D01*
X032664Y031144D01*
X032626Y031180D01*
X032587Y031214D01*
X032545Y031245D01*
X032501Y031273D01*
X032456Y031298D01*
X032409Y031320D01*
X032361Y031339D01*
X032311Y031354D01*
X032261Y031367D01*
X032210Y031375D01*
X032158Y031381D01*
X032106Y031383D01*
X032106Y031374D01*
X032157Y031372D01*
X032208Y031367D01*
X032259Y031358D01*
X032309Y031346D01*
X032358Y031330D01*
X032405Y031312D01*
X032452Y031290D01*
X032497Y031265D01*
X032540Y031237D01*
X032581Y031207D01*
X032620Y031174D01*
X032657Y031138D01*
X032692Y031100D01*
X032685Y031094D01*
X032648Y031135D01*
X032608Y031173D01*
X032566Y031207D01*
X032521Y031239D01*
X032474Y031268D01*
X032425Y031293D01*
X032374Y031314D01*
X032323Y031332D01*
X032269Y031346D01*
X032215Y031356D01*
X032161Y031363D01*
X032106Y031365D01*
X031611Y030214D02*
X031651Y030245D01*
X031650Y030244D02*
X031681Y030209D01*
X031714Y030176D01*
X031749Y030146D01*
X031788Y030119D01*
X031828Y030095D01*
X031870Y030075D01*
X031913Y030058D01*
X031958Y030044D01*
X032003Y030034D01*
X032049Y030028D01*
X032096Y030026D01*
X032097Y029977D01*
X032096Y029976D01*
X032050Y029978D01*
X032003Y029984D01*
X031958Y029993D01*
X031913Y030005D01*
X031869Y030021D01*
X031826Y030040D01*
X031785Y030062D01*
X031746Y030087D01*
X031709Y030114D01*
X031674Y030145D01*
X031641Y030178D01*
X031611Y030213D01*
X031618Y030219D01*
X031648Y030184D01*
X031680Y030151D01*
X031714Y030121D01*
X031751Y030094D01*
X031790Y030069D01*
X031830Y030048D01*
X031872Y030029D01*
X031915Y030014D01*
X031960Y030001D01*
X032005Y029993D01*
X032050Y029987D01*
X032096Y029985D01*
X032096Y029994D01*
X032051Y029996D01*
X032006Y030001D01*
X031962Y030010D01*
X031918Y030022D01*
X031876Y030037D01*
X031834Y030056D01*
X031794Y030077D01*
X031756Y030101D01*
X031720Y030128D01*
X031686Y030158D01*
X031654Y030190D01*
X031625Y030224D01*
X031632Y030230D01*
X031664Y030193D01*
X031698Y030159D01*
X031735Y030128D01*
X031775Y030100D01*
X031817Y030075D01*
X031860Y030054D01*
X031905Y030036D01*
X031952Y030022D01*
X031999Y030012D01*
X032048Y030005D01*
X032096Y030003D01*
X032096Y030012D01*
X032048Y030014D01*
X032001Y030021D01*
X031954Y030031D01*
X031908Y030044D01*
X031864Y030062D01*
X031821Y030083D01*
X031780Y030107D01*
X031741Y030135D01*
X031704Y030166D01*
X031670Y030199D01*
X031639Y030235D01*
X031646Y030241D01*
X031677Y030205D01*
X031710Y030172D01*
X031746Y030142D01*
X031785Y030115D01*
X031825Y030091D01*
X031868Y030070D01*
X031911Y030053D01*
X031956Y030039D01*
X032002Y030029D01*
X032049Y030023D01*
X032096Y030021D01*
X032105Y029977D02*
X032105Y030027D01*
X032106Y030026D02*
X032153Y030028D01*
X032199Y030034D01*
X032244Y030044D01*
X032289Y030058D01*
X032332Y030075D01*
X032374Y030095D01*
X032414Y030119D01*
X032453Y030146D01*
X032488Y030176D01*
X032521Y030209D01*
X032552Y030244D01*
X032591Y030214D01*
X032591Y030213D01*
X032561Y030178D01*
X032528Y030145D01*
X032493Y030114D01*
X032456Y030087D01*
X032417Y030062D01*
X032376Y030040D01*
X032333Y030021D01*
X032289Y030005D01*
X032244Y029993D01*
X032199Y029984D01*
X032152Y029978D01*
X032106Y029976D01*
X032106Y029985D01*
X032152Y029987D01*
X032197Y029993D01*
X032242Y030001D01*
X032287Y030014D01*
X032330Y030029D01*
X032372Y030048D01*
X032412Y030069D01*
X032451Y030094D01*
X032488Y030121D01*
X032522Y030151D01*
X032554Y030184D01*
X032584Y030219D01*
X032577Y030224D01*
X032548Y030190D01*
X032516Y030158D01*
X032482Y030128D01*
X032446Y030101D01*
X032408Y030077D01*
X032368Y030056D01*
X032326Y030037D01*
X032284Y030022D01*
X032240Y030010D01*
X032196Y030001D01*
X032151Y029996D01*
X032106Y029994D01*
X032106Y030003D01*
X032154Y030005D01*
X032203Y030012D01*
X032250Y030022D01*
X032297Y030036D01*
X032342Y030054D01*
X032385Y030075D01*
X032427Y030100D01*
X032467Y030128D01*
X032504Y030159D01*
X032538Y030193D01*
X032570Y030230D01*
X032563Y030235D01*
X032532Y030199D01*
X032498Y030166D01*
X032461Y030135D01*
X032422Y030107D01*
X032381Y030083D01*
X032338Y030062D01*
X032294Y030044D01*
X032248Y030031D01*
X032201Y030021D01*
X032154Y030014D01*
X032106Y030012D01*
X032106Y030021D01*
X032153Y030023D01*
X032200Y030029D01*
X032246Y030039D01*
X032291Y030053D01*
X032334Y030070D01*
X032377Y030091D01*
X032417Y030115D01*
X032456Y030142D01*
X032492Y030172D01*
X032525Y030205D01*
X032556Y030241D01*
X032097Y031225D02*
X032097Y031175D01*
X032096Y031176D02*
X032052Y031174D01*
X032009Y031169D01*
X031966Y031160D01*
X031924Y031148D01*
X031884Y031133D01*
X031844Y031115D01*
X031806Y031094D01*
X031769Y031071D01*
X031734Y031044D01*
X031702Y031015D01*
X031672Y030984D01*
X031644Y030950D01*
X031605Y030979D01*
X031604Y030980D01*
X031634Y031017D01*
X031667Y031051D01*
X031702Y031082D01*
X031740Y031111D01*
X031780Y031137D01*
X031821Y031160D01*
X031865Y031180D01*
X031909Y031196D01*
X031955Y031209D01*
X032001Y031218D01*
X032049Y031224D01*
X032096Y031226D01*
X032096Y031217D01*
X032049Y031215D01*
X032003Y031209D01*
X031957Y031200D01*
X031912Y031187D01*
X031868Y031171D01*
X031826Y031152D01*
X031785Y031129D01*
X031745Y031104D01*
X031708Y031076D01*
X031673Y031044D01*
X031641Y031011D01*
X031611Y030975D01*
X031618Y030969D01*
X031648Y031005D01*
X031680Y031038D01*
X031714Y031069D01*
X031751Y031097D01*
X031789Y031122D01*
X031830Y031144D01*
X031871Y031163D01*
X031915Y031179D01*
X031959Y031191D01*
X032004Y031200D01*
X032050Y031206D01*
X032096Y031208D01*
X032096Y031199D01*
X032051Y031197D01*
X032006Y031191D01*
X031961Y031182D01*
X031918Y031170D01*
X031875Y031155D01*
X031834Y031136D01*
X031794Y031114D01*
X031756Y031089D01*
X031720Y031062D01*
X031686Y031031D01*
X031654Y030999D01*
X031626Y030964D01*
X031633Y030958D01*
X031661Y030993D01*
X031692Y031025D01*
X031726Y031055D01*
X031761Y031082D01*
X031798Y031106D01*
X031838Y031128D01*
X031878Y031146D01*
X031920Y031162D01*
X031963Y031174D01*
X032007Y031182D01*
X032051Y031188D01*
X032096Y031190D01*
X032096Y031181D01*
X032052Y031179D01*
X032008Y031174D01*
X031965Y031165D01*
X031923Y031153D01*
X031882Y031138D01*
X031842Y031120D01*
X031803Y031099D01*
X031766Y031075D01*
X031731Y031048D01*
X031698Y031019D01*
X031668Y030987D01*
X031640Y030953D01*
X032606Y030968D02*
X032565Y030939D01*
X032566Y030939D02*
X032538Y030974D01*
X032508Y031007D01*
X032475Y031038D01*
X032440Y031065D01*
X032403Y031090D01*
X032364Y031112D01*
X032324Y031131D01*
X032282Y031147D01*
X032239Y031159D01*
X032195Y031168D01*
X032151Y031174D01*
X032106Y031176D01*
X032105Y031225D01*
X032106Y031226D01*
X032155Y031224D01*
X032203Y031218D01*
X032251Y031208D01*
X032297Y031194D01*
X032343Y031177D01*
X032387Y031157D01*
X032429Y031133D01*
X032470Y031106D01*
X032508Y031075D01*
X032544Y031042D01*
X032577Y031007D01*
X032607Y030968D01*
X032599Y030963D01*
X032570Y031001D01*
X032537Y031036D01*
X032502Y031069D01*
X032464Y031098D01*
X032425Y031125D01*
X032383Y031149D01*
X032339Y031169D01*
X032295Y031186D01*
X032248Y031199D01*
X032201Y031209D01*
X032154Y031215D01*
X032106Y031217D01*
X032106Y031208D01*
X032153Y031206D01*
X032200Y031200D01*
X032246Y031190D01*
X032292Y031177D01*
X032336Y031161D01*
X032379Y031141D01*
X032420Y031117D01*
X032459Y031091D01*
X032496Y031062D01*
X032531Y031030D01*
X032563Y030995D01*
X032592Y030958D01*
X032585Y030953D01*
X032556Y030989D01*
X032524Y031023D01*
X032490Y031055D01*
X032454Y031084D01*
X032415Y031110D01*
X032375Y031133D01*
X032332Y031152D01*
X032289Y031169D01*
X032244Y031182D01*
X032199Y031191D01*
X032152Y031197D01*
X032106Y031199D01*
X032106Y031190D01*
X032152Y031188D01*
X032197Y031182D01*
X032242Y031173D01*
X032286Y031160D01*
X032329Y031144D01*
X032371Y031125D01*
X032410Y031102D01*
X032448Y031077D01*
X032484Y031048D01*
X032518Y031017D01*
X032549Y030983D01*
X032577Y030947D01*
X032570Y030942D01*
X032542Y030978D01*
X032512Y031011D01*
X032478Y031041D01*
X032443Y031069D01*
X032406Y031095D01*
X032366Y031117D01*
X032326Y031136D01*
X032283Y031152D01*
X032240Y031164D01*
X032196Y031173D01*
X032151Y031179D01*
X032106Y031181D01*
X023096Y031445D02*
X023096Y031355D01*
X023096Y031356D02*
X023042Y031354D01*
X022989Y031348D01*
X022936Y031338D01*
X022884Y031324D01*
X022833Y031307D01*
X022784Y031286D01*
X022736Y031262D01*
X022690Y031234D01*
X022646Y031203D01*
X022604Y031169D01*
X022565Y031133D01*
X022528Y031093D01*
X022495Y031051D01*
X022464Y031007D01*
X022437Y030961D01*
X022358Y031003D01*
X022386Y031052D01*
X022418Y031098D01*
X022453Y031143D01*
X022490Y031185D01*
X022531Y031224D01*
X022574Y031261D01*
X022619Y031295D01*
X022666Y031326D01*
X022716Y031353D01*
X022767Y031377D01*
X022819Y031398D01*
X022873Y031415D01*
X022928Y031428D01*
X022983Y031438D01*
X023040Y031444D01*
X023096Y031446D01*
X023096Y031437D01*
X023040Y031435D01*
X022985Y031429D01*
X022930Y031419D01*
X022875Y031406D01*
X022822Y031389D01*
X022770Y031369D01*
X022720Y031345D01*
X022671Y031318D01*
X022624Y031288D01*
X022579Y031254D01*
X022537Y031218D01*
X022497Y031179D01*
X022460Y031137D01*
X022425Y031093D01*
X022394Y031047D01*
X022366Y030999D01*
X022374Y030995D01*
X022402Y031042D01*
X022433Y031088D01*
X022467Y031131D01*
X022503Y031173D01*
X022543Y031211D01*
X022585Y031247D01*
X022629Y031280D01*
X022675Y031310D01*
X022724Y031337D01*
X022774Y031360D01*
X022825Y031381D01*
X022878Y031397D01*
X022931Y031410D01*
X022986Y031420D01*
X023041Y031426D01*
X023096Y031428D01*
X023096Y031419D01*
X023041Y031417D01*
X022987Y031411D01*
X022933Y031402D01*
X022880Y031389D01*
X022828Y031372D01*
X022777Y031352D01*
X022728Y031329D01*
X022680Y031302D01*
X022634Y031273D01*
X022590Y031240D01*
X022549Y031205D01*
X022510Y031166D01*
X022473Y031126D01*
X022440Y031083D01*
X022409Y031037D01*
X022382Y030990D01*
X022390Y030986D01*
X022417Y031033D01*
X022447Y031077D01*
X022480Y031120D01*
X022516Y031160D01*
X022555Y031198D01*
X022596Y031233D01*
X022639Y031265D01*
X022685Y031295D01*
X022732Y031321D01*
X022781Y031344D01*
X022831Y031364D01*
X022883Y031380D01*
X022935Y031393D01*
X022988Y031402D01*
X023042Y031408D01*
X023096Y031410D01*
X023096Y031401D01*
X023043Y031399D01*
X022989Y031393D01*
X022937Y031384D01*
X022885Y031371D01*
X022834Y031355D01*
X022784Y031336D01*
X022736Y031313D01*
X022689Y031287D01*
X022645Y031258D01*
X022602Y031226D01*
X022561Y031191D01*
X022523Y031154D01*
X022487Y031114D01*
X022454Y031072D01*
X022424Y031028D01*
X022397Y030982D01*
X022405Y030978D01*
X022432Y031023D01*
X022462Y031067D01*
X022494Y031108D01*
X022529Y031148D01*
X022567Y031185D01*
X022607Y031219D01*
X022650Y031251D01*
X022694Y031279D01*
X022740Y031305D01*
X022788Y031327D01*
X022837Y031347D01*
X022887Y031363D01*
X022939Y031375D01*
X022991Y031384D01*
X023043Y031390D01*
X023096Y031392D01*
X023096Y031383D01*
X023040Y031381D01*
X022985Y031374D01*
X022930Y031364D01*
X022876Y031350D01*
X022824Y031332D01*
X022772Y031311D01*
X022723Y031285D01*
X022675Y031257D01*
X022629Y031225D01*
X022586Y031190D01*
X022546Y031152D01*
X022508Y031111D01*
X022473Y031067D01*
X022442Y031021D01*
X022413Y030973D01*
X022421Y030969D01*
X022449Y031017D01*
X022480Y031062D01*
X022515Y031105D01*
X022552Y031145D01*
X022592Y031183D01*
X022635Y031218D01*
X022680Y031249D01*
X022727Y031278D01*
X022776Y031302D01*
X022827Y031324D01*
X022879Y031341D01*
X022932Y031355D01*
X022986Y031365D01*
X023041Y031372D01*
X023096Y031374D01*
X023096Y031365D01*
X023042Y031363D01*
X022988Y031357D01*
X022934Y031347D01*
X022882Y031333D01*
X022830Y031315D01*
X022780Y031294D01*
X022731Y031270D01*
X022685Y031242D01*
X022640Y031210D01*
X022598Y031176D01*
X022559Y031139D01*
X022522Y031099D01*
X022488Y031057D01*
X022457Y031012D01*
X022429Y030965D01*
X022370Y030178D02*
X022448Y030223D01*
X022448Y030222D02*
X022476Y030178D01*
X022507Y030136D01*
X022540Y030096D01*
X022576Y030058D01*
X022615Y030023D01*
X022656Y029991D01*
X022700Y029961D01*
X022745Y029935D01*
X022792Y029912D01*
X022840Y029892D01*
X022890Y029876D01*
X022940Y029863D01*
X022992Y029854D01*
X023044Y029848D01*
X023096Y029846D01*
X023097Y029757D01*
X023096Y029756D01*
X023041Y029758D01*
X022987Y029764D01*
X022932Y029773D01*
X022879Y029786D01*
X022827Y029802D01*
X022775Y029821D01*
X022725Y029844D01*
X022677Y029870D01*
X022630Y029899D01*
X022586Y029931D01*
X022543Y029966D01*
X022503Y030004D01*
X022466Y030044D01*
X022431Y030086D01*
X022399Y030131D01*
X022370Y030177D01*
X022378Y030182D01*
X022406Y030136D01*
X022438Y030092D01*
X022473Y030050D01*
X022510Y030010D01*
X022549Y029973D01*
X022591Y029938D01*
X022635Y029907D01*
X022681Y029878D01*
X022729Y029852D01*
X022779Y029830D01*
X022829Y029810D01*
X022881Y029794D01*
X022934Y029782D01*
X022988Y029773D01*
X023042Y029767D01*
X023096Y029765D01*
X023096Y029774D01*
X023042Y029776D01*
X022989Y029782D01*
X022936Y029791D01*
X022884Y029803D01*
X022832Y029819D01*
X022782Y029838D01*
X022733Y029860D01*
X022686Y029886D01*
X022640Y029914D01*
X022597Y029946D01*
X022555Y029980D01*
X022516Y030016D01*
X022479Y030056D01*
X022445Y030097D01*
X022414Y030141D01*
X022385Y030186D01*
X022393Y030191D01*
X022423Y030143D01*
X022457Y030097D01*
X022493Y030054D01*
X022533Y030013D01*
X022575Y029975D01*
X022619Y029940D01*
X022666Y029908D01*
X022715Y029880D01*
X022766Y029855D01*
X022819Y029833D01*
X022872Y029816D01*
X022927Y029802D01*
X022983Y029792D01*
X023039Y029785D01*
X023096Y029783D01*
X023096Y029792D01*
X023040Y029794D01*
X022984Y029800D01*
X022929Y029810D01*
X022875Y029824D01*
X022822Y029842D01*
X022770Y029863D01*
X022719Y029888D01*
X022671Y029916D01*
X022625Y029947D01*
X022580Y029982D01*
X022539Y030019D01*
X022500Y030060D01*
X022464Y030102D01*
X022431Y030148D01*
X022401Y030195D01*
X022409Y030200D01*
X022438Y030153D01*
X022471Y030108D01*
X022507Y030066D01*
X022545Y030026D01*
X022586Y029989D01*
X022630Y029954D01*
X022676Y029923D01*
X022724Y029896D01*
X022773Y029871D01*
X022825Y029850D01*
X022877Y029833D01*
X022931Y029819D01*
X022986Y029809D01*
X023041Y029803D01*
X023096Y029801D01*
X023096Y029810D01*
X023041Y029812D01*
X022987Y029818D01*
X022933Y029828D01*
X022880Y029842D01*
X022828Y029859D01*
X022777Y029879D01*
X022728Y029904D01*
X022681Y029931D01*
X022635Y029962D01*
X022592Y029995D01*
X022551Y030032D01*
X022513Y030072D01*
X022478Y030114D01*
X022446Y030158D01*
X022417Y030204D01*
X022425Y030209D01*
X022453Y030163D01*
X022485Y030119D01*
X022520Y030078D01*
X022558Y030039D01*
X022598Y030002D01*
X022640Y029969D01*
X022685Y029939D01*
X022732Y029911D01*
X022781Y029888D01*
X022831Y029867D01*
X022882Y029850D01*
X022935Y029837D01*
X022988Y029827D01*
X023042Y029821D01*
X023096Y029819D01*
X023096Y029828D01*
X023043Y029830D01*
X022989Y029836D01*
X022937Y029846D01*
X022885Y029859D01*
X022834Y029876D01*
X022784Y029896D01*
X022736Y029919D01*
X022690Y029946D01*
X022646Y029976D01*
X022604Y030009D01*
X022564Y030045D01*
X022527Y030084D01*
X022492Y030125D01*
X022461Y030168D01*
X022432Y030213D01*
X022440Y030218D01*
X022468Y030173D01*
X022499Y030130D01*
X022533Y030090D01*
X022570Y030052D01*
X022609Y030016D01*
X022651Y029984D01*
X022695Y029954D01*
X022741Y029927D01*
X022788Y029904D01*
X022837Y029884D01*
X022887Y029867D01*
X022939Y029854D01*
X022991Y029845D01*
X023043Y029839D01*
X023096Y029837D01*
X023105Y029757D02*
X023105Y029847D01*
X023106Y029846D02*
X023160Y029848D01*
X023213Y029854D01*
X023266Y029864D01*
X023318Y029878D01*
X023369Y029895D01*
X023419Y029916D01*
X023467Y029940D01*
X023513Y029968D01*
X023557Y029999D01*
X023598Y030033D01*
X023638Y030070D01*
X023674Y030109D01*
X023742Y030052D01*
X023743Y030051D01*
X023705Y030010D01*
X023665Y029972D01*
X023622Y029936D01*
X023577Y029903D01*
X023530Y029873D01*
X023482Y029847D01*
X023431Y029823D01*
X023379Y029803D01*
X023326Y029787D01*
X023272Y029773D01*
X023217Y029764D01*
X023162Y029758D01*
X023106Y029756D01*
X023106Y029765D01*
X023161Y029767D01*
X023216Y029773D01*
X023270Y029782D01*
X023324Y029795D01*
X023376Y029812D01*
X023428Y029831D01*
X023478Y029855D01*
X023526Y029881D01*
X023572Y029911D01*
X023617Y029943D01*
X023659Y029978D01*
X023699Y030017D01*
X023736Y030057D01*
X023729Y030063D01*
X023692Y030023D01*
X023653Y029985D01*
X023611Y029950D01*
X023567Y029918D01*
X023521Y029889D01*
X023473Y029863D01*
X023424Y029840D01*
X023373Y029820D01*
X023321Y029804D01*
X023268Y029791D01*
X023215Y029782D01*
X023160Y029776D01*
X023106Y029774D01*
X023106Y029783D01*
X023160Y029785D01*
X023213Y029791D01*
X023266Y029800D01*
X023319Y029813D01*
X023370Y029829D01*
X023421Y029848D01*
X023469Y029871D01*
X023517Y029896D01*
X023562Y029925D01*
X023606Y029957D01*
X023647Y029992D01*
X023686Y030029D01*
X023722Y030069D01*
X023715Y030075D01*
X023679Y030035D01*
X023641Y029998D01*
X023600Y029964D01*
X023557Y029933D01*
X023512Y029904D01*
X023465Y029879D01*
X023417Y029856D01*
X023367Y029837D01*
X023316Y029821D01*
X023265Y029809D01*
X023212Y029800D01*
X023159Y029794D01*
X023106Y029792D01*
X023106Y029801D01*
X023159Y029803D01*
X023211Y029809D01*
X023263Y029818D01*
X023314Y029830D01*
X023364Y029846D01*
X023414Y029865D01*
X023461Y029887D01*
X023508Y029912D01*
X023552Y029940D01*
X023594Y029971D01*
X023635Y030005D01*
X023673Y030042D01*
X023708Y030080D01*
X023702Y030086D01*
X023666Y030048D01*
X023629Y030012D01*
X023589Y029978D01*
X023547Y029948D01*
X023503Y029920D01*
X023457Y029895D01*
X023410Y029873D01*
X023361Y029854D01*
X023312Y029839D01*
X023261Y029826D01*
X023210Y029818D01*
X023158Y029812D01*
X023106Y029810D01*
X023106Y029819D01*
X023162Y029821D01*
X023217Y029828D01*
X023272Y029838D01*
X023326Y029852D01*
X023379Y029870D01*
X023430Y029892D01*
X023480Y029917D01*
X023528Y029946D01*
X023573Y029978D01*
X023616Y030013D01*
X023657Y030051D01*
X023695Y030092D01*
X023688Y030098D01*
X023651Y030057D01*
X023610Y030020D01*
X023568Y029985D01*
X023523Y029953D01*
X023475Y029925D01*
X023426Y029900D01*
X023375Y029878D01*
X023323Y029861D01*
X023270Y029847D01*
X023216Y029837D01*
X023161Y029830D01*
X023106Y029828D01*
X023106Y029837D01*
X023160Y029839D01*
X023215Y029845D01*
X023268Y029855D01*
X023321Y029869D01*
X023372Y029887D01*
X023422Y029908D01*
X023471Y029933D01*
X023518Y029961D01*
X023562Y029992D01*
X023604Y030026D01*
X023644Y030064D01*
X023681Y030104D01*
X023746Y031145D02*
X023677Y031088D01*
X023678Y031088D02*
X023641Y031128D01*
X023602Y031166D01*
X023560Y031200D01*
X023516Y031232D01*
X023470Y031260D01*
X023421Y031285D01*
X023371Y031306D01*
X023320Y031324D01*
X023267Y031337D01*
X023214Y031347D01*
X023160Y031354D01*
X023106Y031356D01*
X023105Y031445D01*
X023106Y031446D01*
X023162Y031444D01*
X023218Y031438D01*
X023273Y031428D01*
X023328Y031415D01*
X023381Y031398D01*
X023434Y031378D01*
X023485Y031354D01*
X023534Y031327D01*
X023581Y031296D01*
X023626Y031263D01*
X023669Y031227D01*
X023709Y031188D01*
X023747Y031146D01*
X023740Y031140D01*
X023703Y031181D01*
X023663Y031220D01*
X023621Y031256D01*
X023576Y031289D01*
X023529Y031319D01*
X023481Y031346D01*
X023430Y031369D01*
X023378Y031390D01*
X023325Y031406D01*
X023271Y031419D01*
X023217Y031429D01*
X023162Y031435D01*
X023106Y031437D01*
X023106Y031428D01*
X023161Y031426D01*
X023216Y031420D01*
X023270Y031411D01*
X023323Y031398D01*
X023375Y031381D01*
X023427Y031361D01*
X023476Y031338D01*
X023525Y031311D01*
X023571Y031282D01*
X023615Y031249D01*
X023657Y031213D01*
X023696Y031175D01*
X023733Y031134D01*
X023726Y031129D01*
X023690Y031169D01*
X023651Y031207D01*
X023609Y031242D01*
X023566Y031274D01*
X023520Y031304D01*
X023472Y031330D01*
X023423Y031353D01*
X023373Y031373D01*
X023321Y031389D01*
X023268Y031402D01*
X023214Y031411D01*
X023160Y031417D01*
X023106Y031419D01*
X023106Y031410D01*
X023160Y031408D01*
X023213Y031402D01*
X023266Y031393D01*
X023318Y031380D01*
X023370Y031364D01*
X023420Y031345D01*
X023468Y031322D01*
X023515Y031296D01*
X023561Y031267D01*
X023604Y031235D01*
X023645Y031200D01*
X023683Y031163D01*
X023719Y031123D01*
X023712Y031117D01*
X023677Y031156D01*
X023639Y031193D01*
X023598Y031228D01*
X023555Y031259D01*
X023511Y031288D01*
X023464Y031314D01*
X023416Y031336D01*
X023367Y031356D01*
X023316Y031372D01*
X023264Y031384D01*
X023212Y031393D01*
X023159Y031399D01*
X023106Y031401D01*
X023106Y031392D01*
X023158Y031390D01*
X023211Y031384D01*
X023262Y031375D01*
X023313Y031363D01*
X023364Y031347D01*
X023413Y031328D01*
X023460Y031306D01*
X023506Y031280D01*
X023550Y031252D01*
X023592Y031221D01*
X023633Y031187D01*
X023670Y031150D01*
X023705Y031111D01*
X023699Y031105D01*
X023664Y031144D01*
X023626Y031180D01*
X023587Y031214D01*
X023545Y031245D01*
X023501Y031273D01*
X023456Y031298D01*
X023409Y031320D01*
X023361Y031339D01*
X023311Y031354D01*
X023261Y031367D01*
X023210Y031375D01*
X023158Y031381D01*
X023106Y031383D01*
X023106Y031374D01*
X023157Y031372D01*
X023208Y031367D01*
X023259Y031358D01*
X023309Y031346D01*
X023358Y031330D01*
X023405Y031312D01*
X023452Y031290D01*
X023497Y031265D01*
X023540Y031237D01*
X023581Y031207D01*
X023620Y031174D01*
X023657Y031138D01*
X023692Y031100D01*
X023685Y031094D01*
X023648Y031135D01*
X023608Y031173D01*
X023566Y031207D01*
X023521Y031239D01*
X023474Y031268D01*
X023425Y031293D01*
X023374Y031314D01*
X023323Y031332D01*
X023269Y031346D01*
X023215Y031356D01*
X023161Y031363D01*
X023106Y031365D01*
X022611Y030214D02*
X022651Y030245D01*
X022650Y030244D02*
X022681Y030209D01*
X022714Y030176D01*
X022749Y030146D01*
X022788Y030119D01*
X022828Y030095D01*
X022870Y030075D01*
X022913Y030058D01*
X022958Y030044D01*
X023003Y030034D01*
X023049Y030028D01*
X023096Y030026D01*
X023097Y029977D01*
X023096Y029976D01*
X023050Y029978D01*
X023003Y029984D01*
X022958Y029993D01*
X022913Y030005D01*
X022869Y030021D01*
X022826Y030040D01*
X022785Y030062D01*
X022746Y030087D01*
X022709Y030114D01*
X022674Y030145D01*
X022641Y030178D01*
X022611Y030213D01*
X022618Y030219D01*
X022648Y030184D01*
X022680Y030151D01*
X022714Y030121D01*
X022751Y030094D01*
X022790Y030069D01*
X022830Y030048D01*
X022872Y030029D01*
X022915Y030014D01*
X022960Y030001D01*
X023005Y029993D01*
X023050Y029987D01*
X023096Y029985D01*
X023096Y029994D01*
X023051Y029996D01*
X023006Y030001D01*
X022962Y030010D01*
X022918Y030022D01*
X022876Y030037D01*
X022834Y030056D01*
X022794Y030077D01*
X022756Y030101D01*
X022720Y030128D01*
X022686Y030158D01*
X022654Y030190D01*
X022625Y030224D01*
X022632Y030230D01*
X022664Y030193D01*
X022698Y030159D01*
X022735Y030128D01*
X022775Y030100D01*
X022817Y030075D01*
X022860Y030054D01*
X022905Y030036D01*
X022952Y030022D01*
X022999Y030012D01*
X023048Y030005D01*
X023096Y030003D01*
X023096Y030012D01*
X023048Y030014D01*
X023001Y030021D01*
X022954Y030031D01*
X022908Y030044D01*
X022864Y030062D01*
X022821Y030083D01*
X022780Y030107D01*
X022741Y030135D01*
X022704Y030166D01*
X022670Y030199D01*
X022639Y030235D01*
X022646Y030241D01*
X022677Y030205D01*
X022710Y030172D01*
X022746Y030142D01*
X022785Y030115D01*
X022825Y030091D01*
X022868Y030070D01*
X022911Y030053D01*
X022956Y030039D01*
X023002Y030029D01*
X023049Y030023D01*
X023096Y030021D01*
X023105Y029977D02*
X023105Y030027D01*
X023106Y030026D02*
X023153Y030028D01*
X023199Y030034D01*
X023244Y030044D01*
X023289Y030058D01*
X023332Y030075D01*
X023374Y030095D01*
X023414Y030119D01*
X023453Y030146D01*
X023488Y030176D01*
X023521Y030209D01*
X023552Y030244D01*
X023591Y030214D01*
X023591Y030213D01*
X023561Y030178D01*
X023528Y030145D01*
X023493Y030114D01*
X023456Y030087D01*
X023417Y030062D01*
X023376Y030040D01*
X023333Y030021D01*
X023289Y030005D01*
X023244Y029993D01*
X023199Y029984D01*
X023152Y029978D01*
X023106Y029976D01*
X023106Y029985D01*
X023152Y029987D01*
X023197Y029993D01*
X023242Y030001D01*
X023287Y030014D01*
X023330Y030029D01*
X023372Y030048D01*
X023412Y030069D01*
X023451Y030094D01*
X023488Y030121D01*
X023522Y030151D01*
X023554Y030184D01*
X023584Y030219D01*
X023577Y030224D01*
X023548Y030190D01*
X023516Y030158D01*
X023482Y030128D01*
X023446Y030101D01*
X023408Y030077D01*
X023368Y030056D01*
X023326Y030037D01*
X023284Y030022D01*
X023240Y030010D01*
X023196Y030001D01*
X023151Y029996D01*
X023106Y029994D01*
X023106Y030003D01*
X023154Y030005D01*
X023203Y030012D01*
X023250Y030022D01*
X023297Y030036D01*
X023342Y030054D01*
X023385Y030075D01*
X023427Y030100D01*
X023467Y030128D01*
X023504Y030159D01*
X023538Y030193D01*
X023570Y030230D01*
X023563Y030235D01*
X023532Y030199D01*
X023498Y030166D01*
X023461Y030135D01*
X023422Y030107D01*
X023381Y030083D01*
X023338Y030062D01*
X023294Y030044D01*
X023248Y030031D01*
X023201Y030021D01*
X023154Y030014D01*
X023106Y030012D01*
X023106Y030021D01*
X023153Y030023D01*
X023200Y030029D01*
X023246Y030039D01*
X023291Y030053D01*
X023334Y030070D01*
X023377Y030091D01*
X023417Y030115D01*
X023456Y030142D01*
X023492Y030172D01*
X023525Y030205D01*
X023556Y030241D01*
X023097Y031225D02*
X023097Y031175D01*
X023096Y031176D02*
X023052Y031174D01*
X023009Y031169D01*
X022966Y031160D01*
X022924Y031148D01*
X022884Y031133D01*
X022844Y031115D01*
X022806Y031094D01*
X022769Y031071D01*
X022734Y031044D01*
X022702Y031015D01*
X022672Y030984D01*
X022644Y030950D01*
X022605Y030979D01*
X022604Y030980D01*
X022634Y031017D01*
X022667Y031051D01*
X022702Y031082D01*
X022740Y031111D01*
X022780Y031137D01*
X022821Y031160D01*
X022865Y031180D01*
X022909Y031196D01*
X022955Y031209D01*
X023001Y031218D01*
X023049Y031224D01*
X023096Y031226D01*
X023096Y031217D01*
X023049Y031215D01*
X023003Y031209D01*
X022957Y031200D01*
X022912Y031187D01*
X022868Y031171D01*
X022826Y031152D01*
X022785Y031129D01*
X022745Y031104D01*
X022708Y031076D01*
X022673Y031044D01*
X022641Y031011D01*
X022611Y030975D01*
X022618Y030969D01*
X022648Y031005D01*
X022680Y031038D01*
X022714Y031069D01*
X022751Y031097D01*
X022789Y031122D01*
X022830Y031144D01*
X022871Y031163D01*
X022915Y031179D01*
X022959Y031191D01*
X023004Y031200D01*
X023050Y031206D01*
X023096Y031208D01*
X023096Y031199D01*
X023051Y031197D01*
X023006Y031191D01*
X022961Y031182D01*
X022918Y031170D01*
X022875Y031155D01*
X022834Y031136D01*
X022794Y031114D01*
X022756Y031089D01*
X022720Y031062D01*
X022686Y031031D01*
X022654Y030999D01*
X022626Y030964D01*
X022633Y030958D01*
X022661Y030993D01*
X022692Y031025D01*
X022726Y031055D01*
X022761Y031082D01*
X022798Y031106D01*
X022838Y031128D01*
X022878Y031146D01*
X022920Y031162D01*
X022963Y031174D01*
X023007Y031182D01*
X023051Y031188D01*
X023096Y031190D01*
X023096Y031181D01*
X023052Y031179D01*
X023008Y031174D01*
X022965Y031165D01*
X022923Y031153D01*
X022882Y031138D01*
X022842Y031120D01*
X022803Y031099D01*
X022766Y031075D01*
X022731Y031048D01*
X022698Y031019D01*
X022668Y030987D01*
X022640Y030953D01*
X023606Y030968D02*
X023565Y030939D01*
X023566Y030939D02*
X023538Y030974D01*
X023508Y031007D01*
X023475Y031038D01*
X023440Y031065D01*
X023403Y031090D01*
X023364Y031112D01*
X023324Y031131D01*
X023282Y031147D01*
X023239Y031159D01*
X023195Y031168D01*
X023151Y031174D01*
X023106Y031176D01*
X023105Y031225D01*
X023106Y031226D01*
X023155Y031224D01*
X023203Y031218D01*
X023251Y031208D01*
X023297Y031194D01*
X023343Y031177D01*
X023387Y031157D01*
X023429Y031133D01*
X023470Y031106D01*
X023508Y031075D01*
X023544Y031042D01*
X023577Y031007D01*
X023607Y030968D01*
X023599Y030963D01*
X023570Y031001D01*
X023537Y031036D01*
X023502Y031069D01*
X023464Y031098D01*
X023425Y031125D01*
X023383Y031149D01*
X023339Y031169D01*
X023295Y031186D01*
X023248Y031199D01*
X023201Y031209D01*
X023154Y031215D01*
X023106Y031217D01*
X023106Y031208D01*
X023153Y031206D01*
X023200Y031200D01*
X023246Y031190D01*
X023292Y031177D01*
X023336Y031161D01*
X023379Y031141D01*
X023420Y031117D01*
X023459Y031091D01*
X023496Y031062D01*
X023531Y031030D01*
X023563Y030995D01*
X023592Y030958D01*
X023585Y030953D01*
X023556Y030989D01*
X023524Y031023D01*
X023490Y031055D01*
X023454Y031084D01*
X023415Y031110D01*
X023375Y031133D01*
X023332Y031152D01*
X023289Y031169D01*
X023244Y031182D01*
X023199Y031191D01*
X023152Y031197D01*
X023106Y031199D01*
X023106Y031190D01*
X023152Y031188D01*
X023197Y031182D01*
X023242Y031173D01*
X023286Y031160D01*
X023329Y031144D01*
X023371Y031125D01*
X023410Y031102D01*
X023448Y031077D01*
X023484Y031048D01*
X023518Y031017D01*
X023549Y030983D01*
X023577Y030947D01*
X023570Y030942D01*
X023542Y030978D01*
X023512Y031011D01*
X023478Y031041D01*
X023443Y031069D01*
X023406Y031095D01*
X023366Y031117D01*
X023326Y031136D01*
X023283Y031152D01*
X023240Y031164D01*
X023196Y031173D01*
X023151Y031179D01*
X023106Y031181D01*
X018711Y026205D02*
X018756Y026225D01*
X018782Y026172D01*
X018811Y026121D01*
X018843Y026071D01*
X018878Y026024D01*
X018916Y025979D01*
X018957Y025937D01*
X019001Y025897D01*
X019047Y025860D01*
X019095Y025827D01*
X019145Y025796D01*
X019198Y025769D01*
X019251Y025745D01*
X019307Y025724D01*
X019363Y025707D01*
X019421Y025694D01*
X019479Y025684D01*
X019537Y025678D01*
X019596Y025676D01*
X019655Y025678D01*
X019714Y025683D01*
X019772Y025692D01*
X019829Y025705D01*
X019886Y025721D01*
X019942Y025741D01*
X019996Y025764D01*
X020048Y025791D01*
X020099Y025821D01*
X020147Y025855D01*
X020194Y025891D01*
X020238Y025930D01*
X020279Y025972D01*
X020316Y025939D01*
X020316Y025938D01*
X020274Y025895D01*
X020229Y025855D01*
X020182Y025818D01*
X020132Y025783D01*
X020081Y025752D01*
X020028Y025724D01*
X019973Y025700D01*
X019916Y025678D01*
X019859Y025661D01*
X019800Y025647D01*
X019741Y025636D01*
X019681Y025629D01*
X019621Y025626D01*
X019561Y025627D01*
X019501Y025631D01*
X019441Y025639D01*
X019382Y025651D01*
X019324Y025666D01*
X019267Y025685D01*
X019211Y025707D01*
X019157Y025733D01*
X019104Y025762D01*
X019053Y025794D01*
X019004Y025830D01*
X018958Y025868D01*
X018914Y025909D01*
X018873Y025953D01*
X018834Y025999D01*
X018798Y026048D01*
X018766Y026098D01*
X018736Y026151D01*
X018710Y026205D01*
X018718Y026208D01*
X018745Y026153D01*
X018775Y026099D01*
X018809Y026048D01*
X018846Y025999D01*
X018886Y025952D01*
X018929Y025907D01*
X018974Y025866D01*
X019022Y025828D01*
X019073Y025792D01*
X019125Y025760D01*
X019180Y025732D01*
X019236Y025707D01*
X019294Y025685D01*
X019353Y025667D01*
X019412Y025654D01*
X019473Y025643D01*
X019534Y025637D01*
X019596Y025635D01*
X019657Y025637D01*
X019719Y025642D01*
X019780Y025652D01*
X019840Y025665D01*
X019899Y025682D01*
X019957Y025703D01*
X020013Y025727D01*
X020068Y025755D01*
X020121Y025787D01*
X020172Y025822D01*
X020220Y025860D01*
X020266Y025900D01*
X020309Y025944D01*
X020303Y025950D01*
X020260Y025907D01*
X020214Y025866D01*
X020166Y025829D01*
X020116Y025794D01*
X020064Y025763D01*
X020009Y025735D01*
X019953Y025711D01*
X019896Y025691D01*
X019837Y025674D01*
X019778Y025660D01*
X019718Y025651D01*
X019657Y025646D01*
X019596Y025644D01*
X019535Y025646D01*
X019474Y025652D01*
X019414Y025662D01*
X019355Y025676D01*
X019296Y025694D01*
X019239Y025715D01*
X019184Y025740D01*
X019130Y025768D01*
X019078Y025800D01*
X019028Y025835D01*
X018980Y025873D01*
X018935Y025914D01*
X018892Y025958D01*
X018853Y026004D01*
X018816Y026053D01*
X018783Y026104D01*
X018753Y026157D01*
X018727Y026212D01*
X018735Y026216D01*
X018761Y026161D01*
X018791Y026109D01*
X018824Y026058D01*
X018860Y026010D01*
X018899Y025964D01*
X018941Y025920D01*
X018986Y025880D01*
X019033Y025842D01*
X019082Y025807D01*
X019134Y025776D01*
X019188Y025748D01*
X019243Y025723D01*
X019299Y025702D01*
X019357Y025685D01*
X019416Y025671D01*
X019476Y025661D01*
X019536Y025655D01*
X019596Y025653D01*
X019656Y025655D01*
X019717Y025660D01*
X019776Y025669D01*
X019835Y025682D01*
X019893Y025699D01*
X019950Y025720D01*
X020005Y025744D01*
X020059Y025771D01*
X020111Y025802D01*
X020161Y025836D01*
X020209Y025873D01*
X020254Y025913D01*
X020296Y025956D01*
X020290Y025963D01*
X020247Y025920D01*
X020203Y025880D01*
X020156Y025843D01*
X020106Y025810D01*
X020055Y025779D01*
X020002Y025752D01*
X019947Y025728D01*
X019890Y025708D01*
X019833Y025691D01*
X019775Y025678D01*
X019715Y025669D01*
X019656Y025664D01*
X019596Y025662D01*
X019536Y025664D01*
X019477Y025670D01*
X019418Y025680D01*
X019360Y025694D01*
X019302Y025711D01*
X019246Y025732D01*
X019192Y025756D01*
X019139Y025784D01*
X019087Y025815D01*
X019038Y025849D01*
X018992Y025887D01*
X018947Y025927D01*
X018906Y025970D01*
X018867Y026015D01*
X018831Y026063D01*
X018799Y026113D01*
X018769Y026165D01*
X018743Y026219D01*
X018751Y026223D01*
X018777Y026170D01*
X018806Y026118D01*
X018839Y026068D01*
X018874Y026021D01*
X018913Y025976D01*
X018954Y025933D01*
X018998Y025893D01*
X019044Y025856D01*
X019092Y025822D01*
X019143Y025792D01*
X019195Y025764D01*
X019250Y025740D01*
X019305Y025719D01*
X019362Y025702D01*
X019420Y025689D01*
X019478Y025679D01*
X019537Y025673D01*
X019596Y025671D01*
X019655Y025673D01*
X019714Y025678D01*
X019773Y025687D01*
X019831Y025700D01*
X019888Y025716D01*
X019943Y025736D01*
X019998Y025760D01*
X020050Y025787D01*
X020101Y025817D01*
X020150Y025851D01*
X020197Y025887D01*
X020241Y025926D01*
X020283Y025969D01*
X020316Y027263D02*
X020279Y027230D01*
X020238Y027272D01*
X020194Y027311D01*
X020147Y027347D01*
X020099Y027381D01*
X020048Y027411D01*
X019996Y027438D01*
X019942Y027461D01*
X019886Y027481D01*
X019829Y027497D01*
X019772Y027510D01*
X019714Y027519D01*
X019655Y027524D01*
X019596Y027526D01*
X019537Y027524D01*
X019479Y027518D01*
X019421Y027508D01*
X019363Y027495D01*
X019307Y027478D01*
X019251Y027457D01*
X019198Y027433D01*
X019145Y027406D01*
X019095Y027375D01*
X019047Y027342D01*
X019001Y027305D01*
X018957Y027265D01*
X018916Y027223D01*
X018878Y027178D01*
X018843Y027131D01*
X018811Y027081D01*
X018782Y027030D01*
X018756Y026977D01*
X018711Y026997D01*
X018710Y026997D01*
X018736Y027051D01*
X018766Y027104D01*
X018798Y027154D01*
X018834Y027203D01*
X018873Y027249D01*
X018914Y027293D01*
X018958Y027334D01*
X019004Y027372D01*
X019053Y027408D01*
X019104Y027440D01*
X019157Y027469D01*
X019211Y027495D01*
X019267Y027517D01*
X019324Y027536D01*
X019382Y027551D01*
X019441Y027563D01*
X019501Y027571D01*
X019561Y027575D01*
X019621Y027576D01*
X019681Y027573D01*
X019741Y027566D01*
X019800Y027555D01*
X019859Y027541D01*
X019916Y027524D01*
X019973Y027502D01*
X020028Y027478D01*
X020081Y027450D01*
X020132Y027419D01*
X020182Y027384D01*
X020229Y027347D01*
X020274Y027307D01*
X020316Y027264D01*
X020309Y027258D01*
X020266Y027302D01*
X020220Y027342D01*
X020172Y027380D01*
X020121Y027415D01*
X020068Y027447D01*
X020013Y027475D01*
X019957Y027499D01*
X019899Y027520D01*
X019840Y027537D01*
X019780Y027550D01*
X019719Y027560D01*
X019657Y027565D01*
X019596Y027567D01*
X019534Y027565D01*
X019473Y027559D01*
X019412Y027548D01*
X019353Y027535D01*
X019294Y027517D01*
X019236Y027495D01*
X019180Y027470D01*
X019125Y027442D01*
X019073Y027410D01*
X019022Y027374D01*
X018974Y027336D01*
X018929Y027295D01*
X018886Y027250D01*
X018846Y027203D01*
X018809Y027154D01*
X018775Y027103D01*
X018745Y027049D01*
X018718Y026994D01*
X018727Y026990D01*
X018753Y027045D01*
X018783Y027098D01*
X018816Y027149D01*
X018853Y027198D01*
X018892Y027244D01*
X018935Y027288D01*
X018980Y027329D01*
X019028Y027367D01*
X019078Y027402D01*
X019130Y027434D01*
X019184Y027462D01*
X019239Y027487D01*
X019296Y027508D01*
X019355Y027526D01*
X019414Y027540D01*
X019474Y027550D01*
X019535Y027556D01*
X019596Y027558D01*
X019657Y027556D01*
X019718Y027551D01*
X019778Y027542D01*
X019837Y027528D01*
X019896Y027511D01*
X019953Y027491D01*
X020009Y027467D01*
X020064Y027439D01*
X020116Y027408D01*
X020166Y027373D01*
X020214Y027336D01*
X020260Y027295D01*
X020303Y027252D01*
X020296Y027246D01*
X020254Y027289D01*
X020209Y027329D01*
X020161Y027366D01*
X020111Y027400D01*
X020059Y027431D01*
X020005Y027458D01*
X019950Y027482D01*
X019893Y027503D01*
X019835Y027520D01*
X019776Y027533D01*
X019717Y027542D01*
X019656Y027547D01*
X019596Y027549D01*
X019536Y027547D01*
X019476Y027541D01*
X019416Y027531D01*
X019357Y027517D01*
X019299Y027500D01*
X019243Y027479D01*
X019188Y027454D01*
X019134Y027426D01*
X019082Y027395D01*
X019033Y027360D01*
X018986Y027322D01*
X018941Y027282D01*
X018899Y027238D01*
X018860Y027192D01*
X018824Y027144D01*
X018791Y027093D01*
X018761Y027041D01*
X018735Y026986D01*
X018743Y026983D01*
X018769Y027037D01*
X018799Y027089D01*
X018831Y027139D01*
X018867Y027187D01*
X018906Y027232D01*
X018947Y027275D01*
X018992Y027315D01*
X019038Y027353D01*
X019087Y027387D01*
X019139Y027418D01*
X019192Y027446D01*
X019246Y027470D01*
X019302Y027491D01*
X019360Y027508D01*
X019418Y027522D01*
X019477Y027532D01*
X019536Y027538D01*
X019596Y027540D01*
X019656Y027538D01*
X019715Y027533D01*
X019775Y027524D01*
X019833Y027511D01*
X019890Y027494D01*
X019947Y027474D01*
X020002Y027450D01*
X020055Y027423D01*
X020106Y027392D01*
X020156Y027359D01*
X020203Y027322D01*
X020247Y027282D01*
X020290Y027239D01*
X020283Y027233D01*
X020241Y027276D01*
X020197Y027315D01*
X020150Y027351D01*
X020101Y027385D01*
X020050Y027415D01*
X019998Y027442D01*
X019943Y027466D01*
X019888Y027486D01*
X019831Y027502D01*
X019773Y027515D01*
X019714Y027524D01*
X019655Y027529D01*
X019596Y027531D01*
X019537Y027529D01*
X019478Y027523D01*
X019420Y027513D01*
X019362Y027500D01*
X019305Y027483D01*
X019250Y027462D01*
X019195Y027438D01*
X019143Y027410D01*
X019092Y027380D01*
X019044Y027346D01*
X018998Y027309D01*
X018954Y027269D01*
X018913Y027226D01*
X018874Y027181D01*
X018839Y027134D01*
X018806Y027084D01*
X018777Y027032D01*
X018751Y026979D01*
X014096Y031445D02*
X014096Y031355D01*
X014096Y031356D02*
X014042Y031354D01*
X013989Y031348D01*
X013936Y031338D01*
X013884Y031324D01*
X013833Y031307D01*
X013784Y031286D01*
X013736Y031262D01*
X013690Y031234D01*
X013646Y031203D01*
X013604Y031169D01*
X013565Y031133D01*
X013528Y031093D01*
X013495Y031051D01*
X013464Y031007D01*
X013437Y030961D01*
X013358Y031003D01*
X013386Y031052D01*
X013418Y031098D01*
X013453Y031143D01*
X013490Y031185D01*
X013531Y031224D01*
X013574Y031261D01*
X013619Y031295D01*
X013666Y031326D01*
X013716Y031353D01*
X013767Y031377D01*
X013819Y031398D01*
X013873Y031415D01*
X013928Y031428D01*
X013983Y031438D01*
X014040Y031444D01*
X014096Y031446D01*
X014096Y031437D01*
X014040Y031435D01*
X013985Y031429D01*
X013930Y031419D01*
X013875Y031406D01*
X013822Y031389D01*
X013770Y031369D01*
X013720Y031345D01*
X013671Y031318D01*
X013624Y031288D01*
X013579Y031254D01*
X013537Y031218D01*
X013497Y031179D01*
X013460Y031137D01*
X013425Y031093D01*
X013394Y031047D01*
X013366Y030999D01*
X013374Y030995D01*
X013402Y031042D01*
X013433Y031088D01*
X013467Y031131D01*
X013503Y031173D01*
X013543Y031211D01*
X013585Y031247D01*
X013629Y031280D01*
X013675Y031310D01*
X013724Y031337D01*
X013774Y031360D01*
X013825Y031381D01*
X013878Y031397D01*
X013931Y031410D01*
X013986Y031420D01*
X014041Y031426D01*
X014096Y031428D01*
X014096Y031419D01*
X014041Y031417D01*
X013987Y031411D01*
X013933Y031402D01*
X013880Y031389D01*
X013828Y031372D01*
X013777Y031352D01*
X013728Y031329D01*
X013680Y031302D01*
X013634Y031273D01*
X013590Y031240D01*
X013549Y031205D01*
X013510Y031166D01*
X013473Y031126D01*
X013440Y031083D01*
X013409Y031037D01*
X013382Y030990D01*
X013390Y030986D01*
X013417Y031033D01*
X013447Y031077D01*
X013480Y031120D01*
X013516Y031160D01*
X013555Y031198D01*
X013596Y031233D01*
X013639Y031265D01*
X013685Y031295D01*
X013732Y031321D01*
X013781Y031344D01*
X013831Y031364D01*
X013883Y031380D01*
X013935Y031393D01*
X013988Y031402D01*
X014042Y031408D01*
X014096Y031410D01*
X014096Y031401D01*
X014043Y031399D01*
X013989Y031393D01*
X013937Y031384D01*
X013885Y031371D01*
X013834Y031355D01*
X013784Y031336D01*
X013736Y031313D01*
X013689Y031287D01*
X013645Y031258D01*
X013602Y031226D01*
X013561Y031191D01*
X013523Y031154D01*
X013487Y031114D01*
X013454Y031072D01*
X013424Y031028D01*
X013397Y030982D01*
X013405Y030978D01*
X013432Y031023D01*
X013462Y031067D01*
X013494Y031108D01*
X013529Y031148D01*
X013567Y031185D01*
X013607Y031219D01*
X013650Y031251D01*
X013694Y031279D01*
X013740Y031305D01*
X013788Y031327D01*
X013837Y031347D01*
X013887Y031363D01*
X013939Y031375D01*
X013991Y031384D01*
X014043Y031390D01*
X014096Y031392D01*
X014096Y031383D01*
X014040Y031381D01*
X013985Y031374D01*
X013930Y031364D01*
X013876Y031350D01*
X013824Y031332D01*
X013772Y031311D01*
X013723Y031285D01*
X013675Y031257D01*
X013629Y031225D01*
X013586Y031190D01*
X013546Y031152D01*
X013508Y031111D01*
X013473Y031067D01*
X013442Y031021D01*
X013413Y030973D01*
X013421Y030969D01*
X013449Y031017D01*
X013480Y031062D01*
X013515Y031105D01*
X013552Y031145D01*
X013592Y031183D01*
X013635Y031218D01*
X013680Y031249D01*
X013727Y031278D01*
X013776Y031302D01*
X013827Y031324D01*
X013879Y031341D01*
X013932Y031355D01*
X013986Y031365D01*
X014041Y031372D01*
X014096Y031374D01*
X014096Y031365D01*
X014042Y031363D01*
X013988Y031357D01*
X013934Y031347D01*
X013882Y031333D01*
X013830Y031315D01*
X013780Y031294D01*
X013731Y031270D01*
X013685Y031242D01*
X013640Y031210D01*
X013598Y031176D01*
X013559Y031139D01*
X013522Y031099D01*
X013488Y031057D01*
X013457Y031012D01*
X013429Y030965D01*
X013370Y030178D02*
X013448Y030223D01*
X013448Y030222D02*
X013476Y030178D01*
X013507Y030136D01*
X013540Y030096D01*
X013576Y030058D01*
X013615Y030023D01*
X013656Y029991D01*
X013700Y029961D01*
X013745Y029935D01*
X013792Y029912D01*
X013840Y029892D01*
X013890Y029876D01*
X013940Y029863D01*
X013992Y029854D01*
X014044Y029848D01*
X014096Y029846D01*
X014097Y029757D01*
X014096Y029756D01*
X014041Y029758D01*
X013987Y029764D01*
X013932Y029773D01*
X013879Y029786D01*
X013827Y029802D01*
X013775Y029821D01*
X013725Y029844D01*
X013677Y029870D01*
X013630Y029899D01*
X013586Y029931D01*
X013543Y029966D01*
X013503Y030004D01*
X013466Y030044D01*
X013431Y030086D01*
X013399Y030131D01*
X013370Y030177D01*
X013378Y030182D01*
X013406Y030136D01*
X013438Y030092D01*
X013473Y030050D01*
X013510Y030010D01*
X013549Y029973D01*
X013591Y029938D01*
X013635Y029907D01*
X013681Y029878D01*
X013729Y029852D01*
X013779Y029830D01*
X013829Y029810D01*
X013881Y029794D01*
X013934Y029782D01*
X013988Y029773D01*
X014042Y029767D01*
X014096Y029765D01*
X014096Y029774D01*
X014042Y029776D01*
X013989Y029782D01*
X013936Y029791D01*
X013884Y029803D01*
X013832Y029819D01*
X013782Y029838D01*
X013733Y029860D01*
X013686Y029886D01*
X013640Y029914D01*
X013597Y029946D01*
X013555Y029980D01*
X013516Y030016D01*
X013479Y030056D01*
X013445Y030097D01*
X013414Y030141D01*
X013385Y030186D01*
X013393Y030191D01*
X013423Y030143D01*
X013457Y030097D01*
X013493Y030054D01*
X013533Y030013D01*
X013575Y029975D01*
X013619Y029940D01*
X013666Y029908D01*
X013715Y029880D01*
X013766Y029855D01*
X013819Y029833D01*
X013872Y029816D01*
X013927Y029802D01*
X013983Y029792D01*
X014039Y029785D01*
X014096Y029783D01*
X014096Y029792D01*
X014040Y029794D01*
X013984Y029800D01*
X013929Y029810D01*
X013875Y029824D01*
X013822Y029842D01*
X013770Y029863D01*
X013719Y029888D01*
X013671Y029916D01*
X013625Y029947D01*
X013580Y029982D01*
X013539Y030019D01*
X013500Y030060D01*
X013464Y030102D01*
X013431Y030148D01*
X013401Y030195D01*
X013409Y030200D01*
X013438Y030153D01*
X013471Y030108D01*
X013507Y030066D01*
X013545Y030026D01*
X013586Y029989D01*
X013630Y029954D01*
X013676Y029923D01*
X013724Y029896D01*
X013773Y029871D01*
X013825Y029850D01*
X013877Y029833D01*
X013931Y029819D01*
X013986Y029809D01*
X014041Y029803D01*
X014096Y029801D01*
X014096Y029810D01*
X014041Y029812D01*
X013987Y029818D01*
X013933Y029828D01*
X013880Y029842D01*
X013828Y029859D01*
X013777Y029879D01*
X013728Y029904D01*
X013681Y029931D01*
X013635Y029962D01*
X013592Y029995D01*
X013551Y030032D01*
X013513Y030072D01*
X013478Y030114D01*
X013446Y030158D01*
X013417Y030204D01*
X013425Y030209D01*
X013453Y030163D01*
X013485Y030119D01*
X013520Y030078D01*
X013558Y030039D01*
X013598Y030002D01*
X013640Y029969D01*
X013685Y029939D01*
X013732Y029911D01*
X013781Y029888D01*
X013831Y029867D01*
X013882Y029850D01*
X013935Y029837D01*
X013988Y029827D01*
X014042Y029821D01*
X014096Y029819D01*
X014096Y029828D01*
X014043Y029830D01*
X013989Y029836D01*
X013937Y029846D01*
X013885Y029859D01*
X013834Y029876D01*
X013784Y029896D01*
X013736Y029919D01*
X013690Y029946D01*
X013646Y029976D01*
X013604Y030009D01*
X013564Y030045D01*
X013527Y030084D01*
X013492Y030125D01*
X013461Y030168D01*
X013432Y030213D01*
X013440Y030218D01*
X013468Y030173D01*
X013499Y030130D01*
X013533Y030090D01*
X013570Y030052D01*
X013609Y030016D01*
X013651Y029984D01*
X013695Y029954D01*
X013741Y029927D01*
X013788Y029904D01*
X013837Y029884D01*
X013887Y029867D01*
X013939Y029854D01*
X013991Y029845D01*
X014043Y029839D01*
X014096Y029837D01*
X014105Y029757D02*
X014105Y029847D01*
X014106Y029846D02*
X014160Y029848D01*
X014213Y029854D01*
X014266Y029864D01*
X014318Y029878D01*
X014369Y029895D01*
X014419Y029916D01*
X014467Y029940D01*
X014513Y029968D01*
X014557Y029999D01*
X014598Y030033D01*
X014638Y030070D01*
X014674Y030109D01*
X014742Y030052D01*
X014743Y030051D01*
X014705Y030010D01*
X014665Y029972D01*
X014622Y029936D01*
X014577Y029903D01*
X014530Y029873D01*
X014482Y029847D01*
X014431Y029823D01*
X014379Y029803D01*
X014326Y029787D01*
X014272Y029773D01*
X014217Y029764D01*
X014162Y029758D01*
X014106Y029756D01*
X014106Y029765D01*
X014161Y029767D01*
X014216Y029773D01*
X014270Y029782D01*
X014324Y029795D01*
X014376Y029812D01*
X014428Y029831D01*
X014478Y029855D01*
X014526Y029881D01*
X014572Y029911D01*
X014617Y029943D01*
X014659Y029978D01*
X014699Y030017D01*
X014736Y030057D01*
X014729Y030063D01*
X014692Y030023D01*
X014653Y029985D01*
X014611Y029950D01*
X014567Y029918D01*
X014521Y029889D01*
X014473Y029863D01*
X014424Y029840D01*
X014373Y029820D01*
X014321Y029804D01*
X014268Y029791D01*
X014215Y029782D01*
X014160Y029776D01*
X014106Y029774D01*
X014106Y029783D01*
X014160Y029785D01*
X014213Y029791D01*
X014266Y029800D01*
X014319Y029813D01*
X014370Y029829D01*
X014421Y029848D01*
X014469Y029871D01*
X014517Y029896D01*
X014562Y029925D01*
X014606Y029957D01*
X014647Y029992D01*
X014686Y030029D01*
X014722Y030069D01*
X014715Y030075D01*
X014679Y030035D01*
X014641Y029998D01*
X014600Y029964D01*
X014557Y029933D01*
X014512Y029904D01*
X014465Y029879D01*
X014417Y029856D01*
X014367Y029837D01*
X014316Y029821D01*
X014265Y029809D01*
X014212Y029800D01*
X014159Y029794D01*
X014106Y029792D01*
X014106Y029801D01*
X014159Y029803D01*
X014211Y029809D01*
X014263Y029818D01*
X014314Y029830D01*
X014364Y029846D01*
X014414Y029865D01*
X014461Y029887D01*
X014508Y029912D01*
X014552Y029940D01*
X014594Y029971D01*
X014635Y030005D01*
X014673Y030042D01*
X014708Y030080D01*
X014702Y030086D01*
X014666Y030048D01*
X014629Y030012D01*
X014589Y029978D01*
X014547Y029948D01*
X014503Y029920D01*
X014457Y029895D01*
X014410Y029873D01*
X014361Y029854D01*
X014312Y029839D01*
X014261Y029826D01*
X014210Y029818D01*
X014158Y029812D01*
X014106Y029810D01*
X014106Y029819D01*
X014162Y029821D01*
X014217Y029828D01*
X014272Y029838D01*
X014326Y029852D01*
X014379Y029870D01*
X014430Y029892D01*
X014480Y029917D01*
X014528Y029946D01*
X014573Y029978D01*
X014616Y030013D01*
X014657Y030051D01*
X014695Y030092D01*
X014688Y030098D01*
X014651Y030057D01*
X014610Y030020D01*
X014568Y029985D01*
X014523Y029953D01*
X014475Y029925D01*
X014426Y029900D01*
X014375Y029878D01*
X014323Y029861D01*
X014270Y029847D01*
X014216Y029837D01*
X014161Y029830D01*
X014106Y029828D01*
X014106Y029837D01*
X014160Y029839D01*
X014215Y029845D01*
X014268Y029855D01*
X014321Y029869D01*
X014372Y029887D01*
X014422Y029908D01*
X014471Y029933D01*
X014518Y029961D01*
X014562Y029992D01*
X014604Y030026D01*
X014644Y030064D01*
X014681Y030104D01*
X014746Y031145D02*
X014677Y031088D01*
X014678Y031088D02*
X014641Y031128D01*
X014602Y031166D01*
X014560Y031200D01*
X014516Y031232D01*
X014470Y031260D01*
X014421Y031285D01*
X014371Y031306D01*
X014320Y031324D01*
X014267Y031337D01*
X014214Y031347D01*
X014160Y031354D01*
X014106Y031356D01*
X014105Y031445D01*
X014106Y031446D01*
X014162Y031444D01*
X014218Y031438D01*
X014273Y031428D01*
X014328Y031415D01*
X014381Y031398D01*
X014434Y031378D01*
X014485Y031354D01*
X014534Y031327D01*
X014581Y031296D01*
X014626Y031263D01*
X014669Y031227D01*
X014709Y031188D01*
X014747Y031146D01*
X014740Y031140D01*
X014703Y031181D01*
X014663Y031220D01*
X014621Y031256D01*
X014576Y031289D01*
X014529Y031319D01*
X014481Y031346D01*
X014430Y031369D01*
X014378Y031390D01*
X014325Y031406D01*
X014271Y031419D01*
X014217Y031429D01*
X014162Y031435D01*
X014106Y031437D01*
X014106Y031428D01*
X014161Y031426D01*
X014216Y031420D01*
X014270Y031411D01*
X014323Y031398D01*
X014375Y031381D01*
X014427Y031361D01*
X014476Y031338D01*
X014525Y031311D01*
X014571Y031282D01*
X014615Y031249D01*
X014657Y031213D01*
X014696Y031175D01*
X014733Y031134D01*
X014726Y031129D01*
X014690Y031169D01*
X014651Y031207D01*
X014609Y031242D01*
X014566Y031274D01*
X014520Y031304D01*
X014472Y031330D01*
X014423Y031353D01*
X014373Y031373D01*
X014321Y031389D01*
X014268Y031402D01*
X014214Y031411D01*
X014160Y031417D01*
X014106Y031419D01*
X014106Y031410D01*
X014160Y031408D01*
X014213Y031402D01*
X014266Y031393D01*
X014318Y031380D01*
X014370Y031364D01*
X014420Y031345D01*
X014468Y031322D01*
X014515Y031296D01*
X014561Y031267D01*
X014604Y031235D01*
X014645Y031200D01*
X014683Y031163D01*
X014719Y031123D01*
X014712Y031117D01*
X014677Y031156D01*
X014639Y031193D01*
X014598Y031228D01*
X014555Y031259D01*
X014511Y031288D01*
X014464Y031314D01*
X014416Y031336D01*
X014367Y031356D01*
X014316Y031372D01*
X014264Y031384D01*
X014212Y031393D01*
X014159Y031399D01*
X014106Y031401D01*
X014106Y031392D01*
X014158Y031390D01*
X014211Y031384D01*
X014262Y031375D01*
X014313Y031363D01*
X014364Y031347D01*
X014413Y031328D01*
X014460Y031306D01*
X014506Y031280D01*
X014550Y031252D01*
X014592Y031221D01*
X014633Y031187D01*
X014670Y031150D01*
X014705Y031111D01*
X014699Y031105D01*
X014664Y031144D01*
X014626Y031180D01*
X014587Y031214D01*
X014545Y031245D01*
X014501Y031273D01*
X014456Y031298D01*
X014409Y031320D01*
X014361Y031339D01*
X014311Y031354D01*
X014261Y031367D01*
X014210Y031375D01*
X014158Y031381D01*
X014106Y031383D01*
X014106Y031374D01*
X014157Y031372D01*
X014208Y031367D01*
X014259Y031358D01*
X014309Y031346D01*
X014358Y031330D01*
X014405Y031312D01*
X014452Y031290D01*
X014497Y031265D01*
X014540Y031237D01*
X014581Y031207D01*
X014620Y031174D01*
X014657Y031138D01*
X014692Y031100D01*
X014685Y031094D01*
X014648Y031135D01*
X014608Y031173D01*
X014566Y031207D01*
X014521Y031239D01*
X014474Y031268D01*
X014425Y031293D01*
X014374Y031314D01*
X014323Y031332D01*
X014269Y031346D01*
X014215Y031356D01*
X014161Y031363D01*
X014106Y031365D01*
X013611Y030214D02*
X013651Y030245D01*
X013650Y030244D02*
X013681Y030209D01*
X013714Y030176D01*
X013749Y030146D01*
X013788Y030119D01*
X013828Y030095D01*
X013870Y030075D01*
X013913Y030058D01*
X013958Y030044D01*
X014003Y030034D01*
X014049Y030028D01*
X014096Y030026D01*
X014097Y029977D01*
X014096Y029976D01*
X014050Y029978D01*
X014003Y029984D01*
X013958Y029993D01*
X013913Y030005D01*
X013869Y030021D01*
X013826Y030040D01*
X013785Y030062D01*
X013746Y030087D01*
X013709Y030114D01*
X013674Y030145D01*
X013641Y030178D01*
X013611Y030213D01*
X013618Y030219D01*
X013648Y030184D01*
X013680Y030151D01*
X013714Y030121D01*
X013751Y030094D01*
X013790Y030069D01*
X013830Y030048D01*
X013872Y030029D01*
X013915Y030014D01*
X013960Y030001D01*
X014005Y029993D01*
X014050Y029987D01*
X014096Y029985D01*
X014096Y029994D01*
X014051Y029996D01*
X014006Y030001D01*
X013962Y030010D01*
X013918Y030022D01*
X013876Y030037D01*
X013834Y030056D01*
X013794Y030077D01*
X013756Y030101D01*
X013720Y030128D01*
X013686Y030158D01*
X013654Y030190D01*
X013625Y030224D01*
X013632Y030230D01*
X013664Y030193D01*
X013698Y030159D01*
X013735Y030128D01*
X013775Y030100D01*
X013817Y030075D01*
X013860Y030054D01*
X013905Y030036D01*
X013952Y030022D01*
X013999Y030012D01*
X014048Y030005D01*
X014096Y030003D01*
X014096Y030012D01*
X014048Y030014D01*
X014001Y030021D01*
X013954Y030031D01*
X013908Y030044D01*
X013864Y030062D01*
X013821Y030083D01*
X013780Y030107D01*
X013741Y030135D01*
X013704Y030166D01*
X013670Y030199D01*
X013639Y030235D01*
X013646Y030241D01*
X013677Y030205D01*
X013710Y030172D01*
X013746Y030142D01*
X013785Y030115D01*
X013825Y030091D01*
X013868Y030070D01*
X013911Y030053D01*
X013956Y030039D01*
X014002Y030029D01*
X014049Y030023D01*
X014096Y030021D01*
X014105Y029977D02*
X014105Y030027D01*
X014106Y030026D02*
X014153Y030028D01*
X014199Y030034D01*
X014244Y030044D01*
X014289Y030058D01*
X014332Y030075D01*
X014374Y030095D01*
X014414Y030119D01*
X014453Y030146D01*
X014488Y030176D01*
X014521Y030209D01*
X014552Y030244D01*
X014591Y030214D01*
X014591Y030213D01*
X014561Y030178D01*
X014528Y030145D01*
X014493Y030114D01*
X014456Y030087D01*
X014417Y030062D01*
X014376Y030040D01*
X014333Y030021D01*
X014289Y030005D01*
X014244Y029993D01*
X014199Y029984D01*
X014152Y029978D01*
X014106Y029976D01*
X014106Y029985D01*
X014152Y029987D01*
X014197Y029993D01*
X014242Y030001D01*
X014287Y030014D01*
X014330Y030029D01*
X014372Y030048D01*
X014412Y030069D01*
X014451Y030094D01*
X014488Y030121D01*
X014522Y030151D01*
X014554Y030184D01*
X014584Y030219D01*
X014577Y030224D01*
X014548Y030190D01*
X014516Y030158D01*
X014482Y030128D01*
X014446Y030101D01*
X014408Y030077D01*
X014368Y030056D01*
X014326Y030037D01*
X014284Y030022D01*
X014240Y030010D01*
X014196Y030001D01*
X014151Y029996D01*
X014106Y029994D01*
X014106Y030003D01*
X014154Y030005D01*
X014203Y030012D01*
X014250Y030022D01*
X014297Y030036D01*
X014342Y030054D01*
X014385Y030075D01*
X014427Y030100D01*
X014467Y030128D01*
X014504Y030159D01*
X014538Y030193D01*
X014570Y030230D01*
X014563Y030235D01*
X014532Y030199D01*
X014498Y030166D01*
X014461Y030135D01*
X014422Y030107D01*
X014381Y030083D01*
X014338Y030062D01*
X014294Y030044D01*
X014248Y030031D01*
X014201Y030021D01*
X014154Y030014D01*
X014106Y030012D01*
X014106Y030021D01*
X014153Y030023D01*
X014200Y030029D01*
X014246Y030039D01*
X014291Y030053D01*
X014334Y030070D01*
X014377Y030091D01*
X014417Y030115D01*
X014456Y030142D01*
X014492Y030172D01*
X014525Y030205D01*
X014556Y030241D01*
X014097Y031225D02*
X014097Y031175D01*
X014096Y031176D02*
X014052Y031174D01*
X014009Y031169D01*
X013966Y031160D01*
X013924Y031148D01*
X013884Y031133D01*
X013844Y031115D01*
X013806Y031094D01*
X013769Y031071D01*
X013734Y031044D01*
X013702Y031015D01*
X013672Y030984D01*
X013644Y030950D01*
X013605Y030979D01*
X013604Y030980D01*
X013634Y031017D01*
X013667Y031051D01*
X013702Y031082D01*
X013740Y031111D01*
X013780Y031137D01*
X013821Y031160D01*
X013865Y031180D01*
X013909Y031196D01*
X013955Y031209D01*
X014001Y031218D01*
X014049Y031224D01*
X014096Y031226D01*
X014096Y031217D01*
X014049Y031215D01*
X014003Y031209D01*
X013957Y031200D01*
X013912Y031187D01*
X013868Y031171D01*
X013826Y031152D01*
X013785Y031129D01*
X013745Y031104D01*
X013708Y031076D01*
X013673Y031044D01*
X013641Y031011D01*
X013611Y030975D01*
X013618Y030969D01*
X013648Y031005D01*
X013680Y031038D01*
X013714Y031069D01*
X013751Y031097D01*
X013789Y031122D01*
X013830Y031144D01*
X013871Y031163D01*
X013915Y031179D01*
X013959Y031191D01*
X014004Y031200D01*
X014050Y031206D01*
X014096Y031208D01*
X014096Y031199D01*
X014051Y031197D01*
X014006Y031191D01*
X013961Y031182D01*
X013918Y031170D01*
X013875Y031155D01*
X013834Y031136D01*
X013794Y031114D01*
X013756Y031089D01*
X013720Y031062D01*
X013686Y031031D01*
X013654Y030999D01*
X013626Y030964D01*
X013633Y030958D01*
X013661Y030993D01*
X013692Y031025D01*
X013726Y031055D01*
X013761Y031082D01*
X013798Y031106D01*
X013838Y031128D01*
X013878Y031146D01*
X013920Y031162D01*
X013963Y031174D01*
X014007Y031182D01*
X014051Y031188D01*
X014096Y031190D01*
X014096Y031181D01*
X014052Y031179D01*
X014008Y031174D01*
X013965Y031165D01*
X013923Y031153D01*
X013882Y031138D01*
X013842Y031120D01*
X013803Y031099D01*
X013766Y031075D01*
X013731Y031048D01*
X013698Y031019D01*
X013668Y030987D01*
X013640Y030953D01*
X014606Y030968D02*
X014565Y030939D01*
X014566Y030939D02*
X014538Y030974D01*
X014508Y031007D01*
X014475Y031038D01*
X014440Y031065D01*
X014403Y031090D01*
X014364Y031112D01*
X014324Y031131D01*
X014282Y031147D01*
X014239Y031159D01*
X014195Y031168D01*
X014151Y031174D01*
X014106Y031176D01*
X014105Y031225D01*
X014106Y031226D01*
X014155Y031224D01*
X014203Y031218D01*
X014251Y031208D01*
X014297Y031194D01*
X014343Y031177D01*
X014387Y031157D01*
X014429Y031133D01*
X014470Y031106D01*
X014508Y031075D01*
X014544Y031042D01*
X014577Y031007D01*
X014607Y030968D01*
X014599Y030963D01*
X014570Y031001D01*
X014537Y031036D01*
X014502Y031069D01*
X014464Y031098D01*
X014425Y031125D01*
X014383Y031149D01*
X014339Y031169D01*
X014295Y031186D01*
X014248Y031199D01*
X014201Y031209D01*
X014154Y031215D01*
X014106Y031217D01*
X014106Y031208D01*
X014153Y031206D01*
X014200Y031200D01*
X014246Y031190D01*
X014292Y031177D01*
X014336Y031161D01*
X014379Y031141D01*
X014420Y031117D01*
X014459Y031091D01*
X014496Y031062D01*
X014531Y031030D01*
X014563Y030995D01*
X014592Y030958D01*
X014585Y030953D01*
X014556Y030989D01*
X014524Y031023D01*
X014490Y031055D01*
X014454Y031084D01*
X014415Y031110D01*
X014375Y031133D01*
X014332Y031152D01*
X014289Y031169D01*
X014244Y031182D01*
X014199Y031191D01*
X014152Y031197D01*
X014106Y031199D01*
X014106Y031190D01*
X014152Y031188D01*
X014197Y031182D01*
X014242Y031173D01*
X014286Y031160D01*
X014329Y031144D01*
X014371Y031125D01*
X014410Y031102D01*
X014448Y031077D01*
X014484Y031048D01*
X014518Y031017D01*
X014549Y030983D01*
X014577Y030947D01*
X014570Y030942D01*
X014542Y030978D01*
X014512Y031011D01*
X014478Y031041D01*
X014443Y031069D01*
X014406Y031095D01*
X014366Y031117D01*
X014326Y031136D01*
X014283Y031152D01*
X014240Y031164D01*
X014196Y031173D01*
X014151Y031179D01*
X014106Y031181D01*
X009711Y026205D02*
X009756Y026225D01*
X009782Y026172D01*
X009811Y026121D01*
X009843Y026071D01*
X009878Y026024D01*
X009916Y025979D01*
X009957Y025937D01*
X010001Y025897D01*
X010047Y025860D01*
X010095Y025827D01*
X010145Y025796D01*
X010198Y025769D01*
X010251Y025745D01*
X010307Y025724D01*
X010363Y025707D01*
X010421Y025694D01*
X010479Y025684D01*
X010537Y025678D01*
X010596Y025676D01*
X010655Y025678D01*
X010714Y025683D01*
X010772Y025692D01*
X010829Y025705D01*
X010886Y025721D01*
X010942Y025741D01*
X010996Y025764D01*
X011048Y025791D01*
X011099Y025821D01*
X011147Y025855D01*
X011194Y025891D01*
X011238Y025930D01*
X011279Y025972D01*
X011316Y025939D01*
X011316Y025938D01*
X011274Y025895D01*
X011229Y025855D01*
X011182Y025818D01*
X011132Y025783D01*
X011081Y025752D01*
X011028Y025724D01*
X010973Y025700D01*
X010916Y025678D01*
X010859Y025661D01*
X010800Y025647D01*
X010741Y025636D01*
X010681Y025629D01*
X010621Y025626D01*
X010561Y025627D01*
X010501Y025631D01*
X010441Y025639D01*
X010382Y025651D01*
X010324Y025666D01*
X010267Y025685D01*
X010211Y025707D01*
X010157Y025733D01*
X010104Y025762D01*
X010053Y025794D01*
X010004Y025830D01*
X009958Y025868D01*
X009914Y025909D01*
X009873Y025953D01*
X009834Y025999D01*
X009798Y026048D01*
X009766Y026098D01*
X009736Y026151D01*
X009710Y026205D01*
X009718Y026208D01*
X009745Y026153D01*
X009775Y026099D01*
X009809Y026048D01*
X009846Y025999D01*
X009886Y025952D01*
X009929Y025907D01*
X009974Y025866D01*
X010022Y025828D01*
X010073Y025792D01*
X010125Y025760D01*
X010180Y025732D01*
X010236Y025707D01*
X010294Y025685D01*
X010353Y025667D01*
X010412Y025654D01*
X010473Y025643D01*
X010534Y025637D01*
X010596Y025635D01*
X010657Y025637D01*
X010719Y025642D01*
X010780Y025652D01*
X010840Y025665D01*
X010899Y025682D01*
X010957Y025703D01*
X011013Y025727D01*
X011068Y025755D01*
X011121Y025787D01*
X011172Y025822D01*
X011220Y025860D01*
X011266Y025900D01*
X011309Y025944D01*
X011303Y025950D01*
X011260Y025907D01*
X011214Y025866D01*
X011166Y025829D01*
X011116Y025794D01*
X011064Y025763D01*
X011009Y025735D01*
X010953Y025711D01*
X010896Y025691D01*
X010837Y025674D01*
X010778Y025660D01*
X010718Y025651D01*
X010657Y025646D01*
X010596Y025644D01*
X010535Y025646D01*
X010474Y025652D01*
X010414Y025662D01*
X010355Y025676D01*
X010296Y025694D01*
X010239Y025715D01*
X010184Y025740D01*
X010130Y025768D01*
X010078Y025800D01*
X010028Y025835D01*
X009980Y025873D01*
X009935Y025914D01*
X009892Y025958D01*
X009853Y026004D01*
X009816Y026053D01*
X009783Y026104D01*
X009753Y026157D01*
X009727Y026212D01*
X009735Y026216D01*
X009761Y026161D01*
X009791Y026109D01*
X009824Y026058D01*
X009860Y026010D01*
X009899Y025964D01*
X009941Y025920D01*
X009986Y025880D01*
X010033Y025842D01*
X010082Y025807D01*
X010134Y025776D01*
X010188Y025748D01*
X010243Y025723D01*
X010299Y025702D01*
X010357Y025685D01*
X010416Y025671D01*
X010476Y025661D01*
X010536Y025655D01*
X010596Y025653D01*
X010656Y025655D01*
X010717Y025660D01*
X010776Y025669D01*
X010835Y025682D01*
X010893Y025699D01*
X010950Y025720D01*
X011005Y025744D01*
X011059Y025771D01*
X011111Y025802D01*
X011161Y025836D01*
X011209Y025873D01*
X011254Y025913D01*
X011296Y025956D01*
X011290Y025963D01*
X011247Y025920D01*
X011203Y025880D01*
X011156Y025843D01*
X011106Y025810D01*
X011055Y025779D01*
X011002Y025752D01*
X010947Y025728D01*
X010890Y025708D01*
X010833Y025691D01*
X010775Y025678D01*
X010715Y025669D01*
X010656Y025664D01*
X010596Y025662D01*
X010536Y025664D01*
X010477Y025670D01*
X010418Y025680D01*
X010360Y025694D01*
X010302Y025711D01*
X010246Y025732D01*
X010192Y025756D01*
X010139Y025784D01*
X010087Y025815D01*
X010038Y025849D01*
X009992Y025887D01*
X009947Y025927D01*
X009906Y025970D01*
X009867Y026015D01*
X009831Y026063D01*
X009799Y026113D01*
X009769Y026165D01*
X009743Y026219D01*
X009751Y026223D01*
X009777Y026170D01*
X009806Y026118D01*
X009839Y026068D01*
X009874Y026021D01*
X009913Y025976D01*
X009954Y025933D01*
X009998Y025893D01*
X010044Y025856D01*
X010092Y025822D01*
X010143Y025792D01*
X010195Y025764D01*
X010250Y025740D01*
X010305Y025719D01*
X010362Y025702D01*
X010420Y025689D01*
X010478Y025679D01*
X010537Y025673D01*
X010596Y025671D01*
X010655Y025673D01*
X010714Y025678D01*
X010773Y025687D01*
X010831Y025700D01*
X010888Y025716D01*
X010943Y025736D01*
X010998Y025760D01*
X011050Y025787D01*
X011101Y025817D01*
X011150Y025851D01*
X011197Y025887D01*
X011241Y025926D01*
X011283Y025969D01*
X011316Y027263D02*
X011279Y027230D01*
X011238Y027272D01*
X011194Y027311D01*
X011147Y027347D01*
X011099Y027381D01*
X011048Y027411D01*
X010996Y027438D01*
X010942Y027461D01*
X010886Y027481D01*
X010829Y027497D01*
X010772Y027510D01*
X010714Y027519D01*
X010655Y027524D01*
X010596Y027526D01*
X010537Y027524D01*
X010479Y027518D01*
X010421Y027508D01*
X010363Y027495D01*
X010307Y027478D01*
X010251Y027457D01*
X010198Y027433D01*
X010145Y027406D01*
X010095Y027375D01*
X010047Y027342D01*
X010001Y027305D01*
X009957Y027265D01*
X009916Y027223D01*
X009878Y027178D01*
X009843Y027131D01*
X009811Y027081D01*
X009782Y027030D01*
X009756Y026977D01*
X009711Y026997D01*
X009710Y026997D01*
X009736Y027051D01*
X009766Y027104D01*
X009798Y027154D01*
X009834Y027203D01*
X009873Y027249D01*
X009914Y027293D01*
X009958Y027334D01*
X010004Y027372D01*
X010053Y027408D01*
X010104Y027440D01*
X010157Y027469D01*
X010211Y027495D01*
X010267Y027517D01*
X010324Y027536D01*
X010382Y027551D01*
X010441Y027563D01*
X010501Y027571D01*
X010561Y027575D01*
X010621Y027576D01*
X010681Y027573D01*
X010741Y027566D01*
X010800Y027555D01*
X010859Y027541D01*
X010916Y027524D01*
X010973Y027502D01*
X011028Y027478D01*
X011081Y027450D01*
X011132Y027419D01*
X011182Y027384D01*
X011229Y027347D01*
X011274Y027307D01*
X011316Y027264D01*
X011309Y027258D01*
X011266Y027302D01*
X011220Y027342D01*
X011172Y027380D01*
X011121Y027415D01*
X011068Y027447D01*
X011013Y027475D01*
X010957Y027499D01*
X010899Y027520D01*
X010840Y027537D01*
X010780Y027550D01*
X010719Y027560D01*
X010657Y027565D01*
X010596Y027567D01*
X010534Y027565D01*
X010473Y027559D01*
X010412Y027548D01*
X010353Y027535D01*
X010294Y027517D01*
X010236Y027495D01*
X010180Y027470D01*
X010125Y027442D01*
X010073Y027410D01*
X010022Y027374D01*
X009974Y027336D01*
X009929Y027295D01*
X009886Y027250D01*
X009846Y027203D01*
X009809Y027154D01*
X009775Y027103D01*
X009745Y027049D01*
X009718Y026994D01*
X009727Y026990D01*
X009753Y027045D01*
X009783Y027098D01*
X009816Y027149D01*
X009853Y027198D01*
X009892Y027244D01*
X009935Y027288D01*
X009980Y027329D01*
X010028Y027367D01*
X010078Y027402D01*
X010130Y027434D01*
X010184Y027462D01*
X010239Y027487D01*
X010296Y027508D01*
X010355Y027526D01*
X010414Y027540D01*
X010474Y027550D01*
X010535Y027556D01*
X010596Y027558D01*
X010657Y027556D01*
X010718Y027551D01*
X010778Y027542D01*
X010837Y027528D01*
X010896Y027511D01*
X010953Y027491D01*
X011009Y027467D01*
X011064Y027439D01*
X011116Y027408D01*
X011166Y027373D01*
X011214Y027336D01*
X011260Y027295D01*
X011303Y027252D01*
X011296Y027246D01*
X011254Y027289D01*
X011209Y027329D01*
X011161Y027366D01*
X011111Y027400D01*
X011059Y027431D01*
X011005Y027458D01*
X010950Y027482D01*
X010893Y027503D01*
X010835Y027520D01*
X010776Y027533D01*
X010717Y027542D01*
X010656Y027547D01*
X010596Y027549D01*
X010536Y027547D01*
X010476Y027541D01*
X010416Y027531D01*
X010357Y027517D01*
X010299Y027500D01*
X010243Y027479D01*
X010188Y027454D01*
X010134Y027426D01*
X010082Y027395D01*
X010033Y027360D01*
X009986Y027322D01*
X009941Y027282D01*
X009899Y027238D01*
X009860Y027192D01*
X009824Y027144D01*
X009791Y027093D01*
X009761Y027041D01*
X009735Y026986D01*
X009743Y026983D01*
X009769Y027037D01*
X009799Y027089D01*
X009831Y027139D01*
X009867Y027187D01*
X009906Y027232D01*
X009947Y027275D01*
X009992Y027315D01*
X010038Y027353D01*
X010087Y027387D01*
X010139Y027418D01*
X010192Y027446D01*
X010246Y027470D01*
X010302Y027491D01*
X010360Y027508D01*
X010418Y027522D01*
X010477Y027532D01*
X010536Y027538D01*
X010596Y027540D01*
X010656Y027538D01*
X010715Y027533D01*
X010775Y027524D01*
X010833Y027511D01*
X010890Y027494D01*
X010947Y027474D01*
X011002Y027450D01*
X011055Y027423D01*
X011106Y027392D01*
X011156Y027359D01*
X011203Y027322D01*
X011247Y027282D01*
X011290Y027239D01*
X011283Y027233D01*
X011241Y027276D01*
X011197Y027315D01*
X011150Y027351D01*
X011101Y027385D01*
X011050Y027415D01*
X010998Y027442D01*
X010943Y027466D01*
X010888Y027486D01*
X010831Y027502D01*
X010773Y027515D01*
X010714Y027524D01*
X010655Y027529D01*
X010596Y027531D01*
X010537Y027529D01*
X010478Y027523D01*
X010420Y027513D01*
X010362Y027500D01*
X010305Y027483D01*
X010250Y027462D01*
X010195Y027438D01*
X010143Y027410D01*
X010092Y027380D01*
X010044Y027346D01*
X009998Y027309D01*
X009954Y027269D01*
X009913Y027226D01*
X009874Y027181D01*
X009839Y027134D01*
X009806Y027084D01*
X009777Y027032D01*
X009751Y026979D01*
X005096Y031445D02*
X005096Y031355D01*
X005096Y031356D02*
X005042Y031354D01*
X004989Y031348D01*
X004936Y031338D01*
X004884Y031324D01*
X004833Y031307D01*
X004784Y031286D01*
X004736Y031262D01*
X004690Y031234D01*
X004646Y031203D01*
X004604Y031169D01*
X004565Y031133D01*
X004528Y031093D01*
X004495Y031051D01*
X004464Y031007D01*
X004437Y030961D01*
X004358Y031003D01*
X004386Y031052D01*
X004418Y031098D01*
X004453Y031143D01*
X004490Y031185D01*
X004531Y031224D01*
X004574Y031261D01*
X004619Y031295D01*
X004666Y031326D01*
X004716Y031353D01*
X004767Y031377D01*
X004819Y031398D01*
X004873Y031415D01*
X004928Y031428D01*
X004983Y031438D01*
X005040Y031444D01*
X005096Y031446D01*
X005096Y031437D01*
X005040Y031435D01*
X004985Y031429D01*
X004930Y031419D01*
X004875Y031406D01*
X004822Y031389D01*
X004770Y031369D01*
X004720Y031345D01*
X004671Y031318D01*
X004624Y031288D01*
X004579Y031254D01*
X004537Y031218D01*
X004497Y031179D01*
X004460Y031137D01*
X004425Y031093D01*
X004394Y031047D01*
X004366Y030999D01*
X004374Y030995D01*
X004402Y031042D01*
X004433Y031088D01*
X004467Y031131D01*
X004503Y031173D01*
X004543Y031211D01*
X004585Y031247D01*
X004629Y031280D01*
X004675Y031310D01*
X004724Y031337D01*
X004774Y031360D01*
X004825Y031381D01*
X004878Y031397D01*
X004931Y031410D01*
X004986Y031420D01*
X005041Y031426D01*
X005096Y031428D01*
X005096Y031419D01*
X005041Y031417D01*
X004987Y031411D01*
X004933Y031402D01*
X004880Y031389D01*
X004828Y031372D01*
X004777Y031352D01*
X004728Y031329D01*
X004680Y031302D01*
X004634Y031273D01*
X004590Y031240D01*
X004549Y031205D01*
X004510Y031166D01*
X004473Y031126D01*
X004440Y031083D01*
X004409Y031037D01*
X004382Y030990D01*
X004390Y030986D01*
X004417Y031033D01*
X004447Y031077D01*
X004480Y031120D01*
X004516Y031160D01*
X004555Y031198D01*
X004596Y031233D01*
X004639Y031265D01*
X004685Y031295D01*
X004732Y031321D01*
X004781Y031344D01*
X004831Y031364D01*
X004883Y031380D01*
X004935Y031393D01*
X004988Y031402D01*
X005042Y031408D01*
X005096Y031410D01*
X005096Y031401D01*
X005043Y031399D01*
X004989Y031393D01*
X004937Y031384D01*
X004885Y031371D01*
X004834Y031355D01*
X004784Y031336D01*
X004736Y031313D01*
X004689Y031287D01*
X004645Y031258D01*
X004602Y031226D01*
X004561Y031191D01*
X004523Y031154D01*
X004487Y031114D01*
X004454Y031072D01*
X004424Y031028D01*
X004397Y030982D01*
X004405Y030978D01*
X004432Y031023D01*
X004462Y031067D01*
X004494Y031108D01*
X004529Y031148D01*
X004567Y031185D01*
X004607Y031219D01*
X004650Y031251D01*
X004694Y031279D01*
X004740Y031305D01*
X004788Y031327D01*
X004837Y031347D01*
X004887Y031363D01*
X004939Y031375D01*
X004991Y031384D01*
X005043Y031390D01*
X005096Y031392D01*
X005096Y031383D01*
X005040Y031381D01*
X004985Y031374D01*
X004930Y031364D01*
X004876Y031350D01*
X004824Y031332D01*
X004772Y031311D01*
X004723Y031285D01*
X004675Y031257D01*
X004629Y031225D01*
X004586Y031190D01*
X004546Y031152D01*
X004508Y031111D01*
X004473Y031067D01*
X004442Y031021D01*
X004413Y030973D01*
X004421Y030969D01*
X004449Y031017D01*
X004480Y031062D01*
X004515Y031105D01*
X004552Y031145D01*
X004592Y031183D01*
X004635Y031218D01*
X004680Y031249D01*
X004727Y031278D01*
X004776Y031302D01*
X004827Y031324D01*
X004879Y031341D01*
X004932Y031355D01*
X004986Y031365D01*
X005041Y031372D01*
X005096Y031374D01*
X005096Y031365D01*
X005042Y031363D01*
X004988Y031357D01*
X004934Y031347D01*
X004882Y031333D01*
X004830Y031315D01*
X004780Y031294D01*
X004731Y031270D01*
X004685Y031242D01*
X004640Y031210D01*
X004598Y031176D01*
X004559Y031139D01*
X004522Y031099D01*
X004488Y031057D01*
X004457Y031012D01*
X004429Y030965D01*
X004370Y030178D02*
X004448Y030223D01*
X004448Y030222D02*
X004476Y030178D01*
X004507Y030136D01*
X004540Y030096D01*
X004576Y030058D01*
X004615Y030023D01*
X004656Y029991D01*
X004700Y029961D01*
X004745Y029935D01*
X004792Y029912D01*
X004840Y029892D01*
X004890Y029876D01*
X004940Y029863D01*
X004992Y029854D01*
X005044Y029848D01*
X005096Y029846D01*
X005097Y029757D01*
X005096Y029756D01*
X005041Y029758D01*
X004987Y029764D01*
X004932Y029773D01*
X004879Y029786D01*
X004827Y029802D01*
X004775Y029821D01*
X004725Y029844D01*
X004677Y029870D01*
X004630Y029899D01*
X004586Y029931D01*
X004543Y029966D01*
X004503Y030004D01*
X004466Y030044D01*
X004431Y030086D01*
X004399Y030131D01*
X004370Y030177D01*
X004378Y030182D01*
X004406Y030136D01*
X004438Y030092D01*
X004473Y030050D01*
X004510Y030010D01*
X004549Y029973D01*
X004591Y029938D01*
X004635Y029907D01*
X004681Y029878D01*
X004729Y029852D01*
X004779Y029830D01*
X004829Y029810D01*
X004881Y029794D01*
X004934Y029782D01*
X004988Y029773D01*
X005042Y029767D01*
X005096Y029765D01*
X005096Y029774D01*
X005042Y029776D01*
X004989Y029782D01*
X004936Y029791D01*
X004884Y029803D01*
X004832Y029819D01*
X004782Y029838D01*
X004733Y029860D01*
X004686Y029886D01*
X004640Y029914D01*
X004597Y029946D01*
X004555Y029980D01*
X004516Y030016D01*
X004479Y030056D01*
X004445Y030097D01*
X004414Y030141D01*
X004385Y030186D01*
X004393Y030191D01*
X004423Y030143D01*
X004457Y030097D01*
X004493Y030054D01*
X004533Y030013D01*
X004575Y029975D01*
X004619Y029940D01*
X004666Y029908D01*
X004715Y029880D01*
X004766Y029855D01*
X004819Y029833D01*
X004872Y029816D01*
X004927Y029802D01*
X004983Y029792D01*
X005039Y029785D01*
X005096Y029783D01*
X005096Y029792D01*
X005040Y029794D01*
X004984Y029800D01*
X004929Y029810D01*
X004875Y029824D01*
X004822Y029842D01*
X004770Y029863D01*
X004719Y029888D01*
X004671Y029916D01*
X004625Y029947D01*
X004580Y029982D01*
X004539Y030019D01*
X004500Y030060D01*
X004464Y030102D01*
X004431Y030148D01*
X004401Y030195D01*
X004409Y030200D01*
X004438Y030153D01*
X004471Y030108D01*
X004507Y030066D01*
X004545Y030026D01*
X004586Y029989D01*
X004630Y029954D01*
X004676Y029923D01*
X004724Y029896D01*
X004773Y029871D01*
X004825Y029850D01*
X004877Y029833D01*
X004931Y029819D01*
X004986Y029809D01*
X005041Y029803D01*
X005096Y029801D01*
X005096Y029810D01*
X005041Y029812D01*
X004987Y029818D01*
X004933Y029828D01*
X004880Y029842D01*
X004828Y029859D01*
X004777Y029879D01*
X004728Y029904D01*
X004681Y029931D01*
X004635Y029962D01*
X004592Y029995D01*
X004551Y030032D01*
X004513Y030072D01*
X004478Y030114D01*
X004446Y030158D01*
X004417Y030204D01*
X004425Y030209D01*
X004453Y030163D01*
X004485Y030119D01*
X004520Y030078D01*
X004558Y030039D01*
X004598Y030002D01*
X004640Y029969D01*
X004685Y029939D01*
X004732Y029911D01*
X004781Y029888D01*
X004831Y029867D01*
X004882Y029850D01*
X004935Y029837D01*
X004988Y029827D01*
X005042Y029821D01*
X005096Y029819D01*
X005096Y029828D01*
X005043Y029830D01*
X004989Y029836D01*
X004937Y029846D01*
X004885Y029859D01*
X004834Y029876D01*
X004784Y029896D01*
X004736Y029919D01*
X004690Y029946D01*
X004646Y029976D01*
X004604Y030009D01*
X004564Y030045D01*
X004527Y030084D01*
X004492Y030125D01*
X004461Y030168D01*
X004432Y030213D01*
X004440Y030218D01*
X004468Y030173D01*
X004499Y030130D01*
X004533Y030090D01*
X004570Y030052D01*
X004609Y030016D01*
X004651Y029984D01*
X004695Y029954D01*
X004741Y029927D01*
X004788Y029904D01*
X004837Y029884D01*
X004887Y029867D01*
X004939Y029854D01*
X004991Y029845D01*
X005043Y029839D01*
X005096Y029837D01*
X005105Y029757D02*
X005105Y029847D01*
X005106Y029846D02*
X005160Y029848D01*
X005213Y029854D01*
X005266Y029864D01*
X005318Y029878D01*
X005369Y029895D01*
X005419Y029916D01*
X005467Y029940D01*
X005513Y029968D01*
X005557Y029999D01*
X005598Y030033D01*
X005638Y030070D01*
X005674Y030109D01*
X005742Y030052D01*
X005743Y030051D01*
X005705Y030010D01*
X005665Y029972D01*
X005622Y029936D01*
X005577Y029903D01*
X005530Y029873D01*
X005482Y029847D01*
X005431Y029823D01*
X005379Y029803D01*
X005326Y029787D01*
X005272Y029773D01*
X005217Y029764D01*
X005162Y029758D01*
X005106Y029756D01*
X005106Y029765D01*
X005161Y029767D01*
X005216Y029773D01*
X005270Y029782D01*
X005324Y029795D01*
X005376Y029812D01*
X005428Y029831D01*
X005478Y029855D01*
X005526Y029881D01*
X005572Y029911D01*
X005617Y029943D01*
X005659Y029978D01*
X005699Y030017D01*
X005736Y030057D01*
X005729Y030063D01*
X005692Y030023D01*
X005653Y029985D01*
X005611Y029950D01*
X005567Y029918D01*
X005521Y029889D01*
X005473Y029863D01*
X005424Y029840D01*
X005373Y029820D01*
X005321Y029804D01*
X005268Y029791D01*
X005215Y029782D01*
X005160Y029776D01*
X005106Y029774D01*
X005106Y029783D01*
X005160Y029785D01*
X005213Y029791D01*
X005266Y029800D01*
X005319Y029813D01*
X005370Y029829D01*
X005421Y029848D01*
X005469Y029871D01*
X005517Y029896D01*
X005562Y029925D01*
X005606Y029957D01*
X005647Y029992D01*
X005686Y030029D01*
X005722Y030069D01*
X005715Y030075D01*
X005679Y030035D01*
X005641Y029998D01*
X005600Y029964D01*
X005557Y029933D01*
X005512Y029904D01*
X005465Y029879D01*
X005417Y029856D01*
X005367Y029837D01*
X005316Y029821D01*
X005265Y029809D01*
X005212Y029800D01*
X005159Y029794D01*
X005106Y029792D01*
X005106Y029801D01*
X005159Y029803D01*
X005211Y029809D01*
X005263Y029818D01*
X005314Y029830D01*
X005364Y029846D01*
X005414Y029865D01*
X005461Y029887D01*
X005508Y029912D01*
X005552Y029940D01*
X005594Y029971D01*
X005635Y030005D01*
X005673Y030042D01*
X005708Y030080D01*
X005702Y030086D01*
X005666Y030048D01*
X005629Y030012D01*
X005589Y029978D01*
X005547Y029948D01*
X005503Y029920D01*
X005457Y029895D01*
X005410Y029873D01*
X005361Y029854D01*
X005312Y029839D01*
X005261Y029826D01*
X005210Y029818D01*
X005158Y029812D01*
X005106Y029810D01*
X005106Y029819D01*
X005162Y029821D01*
X005217Y029828D01*
X005272Y029838D01*
X005326Y029852D01*
X005379Y029870D01*
X005430Y029892D01*
X005480Y029917D01*
X005528Y029946D01*
X005573Y029978D01*
X005616Y030013D01*
X005657Y030051D01*
X005695Y030092D01*
X005688Y030098D01*
X005651Y030057D01*
X005610Y030020D01*
X005568Y029985D01*
X005523Y029953D01*
X005475Y029925D01*
X005426Y029900D01*
X005375Y029878D01*
X005323Y029861D01*
X005270Y029847D01*
X005216Y029837D01*
X005161Y029830D01*
X005106Y029828D01*
X005106Y029837D01*
X005160Y029839D01*
X005215Y029845D01*
X005268Y029855D01*
X005321Y029869D01*
X005372Y029887D01*
X005422Y029908D01*
X005471Y029933D01*
X005518Y029961D01*
X005562Y029992D01*
X005604Y030026D01*
X005644Y030064D01*
X005681Y030104D01*
X005746Y031145D02*
X005677Y031088D01*
X005678Y031088D02*
X005641Y031128D01*
X005602Y031166D01*
X005560Y031200D01*
X005516Y031232D01*
X005470Y031260D01*
X005421Y031285D01*
X005371Y031306D01*
X005320Y031324D01*
X005267Y031337D01*
X005214Y031347D01*
X005160Y031354D01*
X005106Y031356D01*
X005105Y031445D01*
X005106Y031446D01*
X005162Y031444D01*
X005218Y031438D01*
X005273Y031428D01*
X005328Y031415D01*
X005381Y031398D01*
X005434Y031378D01*
X005485Y031354D01*
X005534Y031327D01*
X005581Y031296D01*
X005626Y031263D01*
X005669Y031227D01*
X005709Y031188D01*
X005747Y031146D01*
X005740Y031140D01*
X005703Y031181D01*
X005663Y031220D01*
X005621Y031256D01*
X005576Y031289D01*
X005529Y031319D01*
X005481Y031346D01*
X005430Y031369D01*
X005378Y031390D01*
X005325Y031406D01*
X005271Y031419D01*
X005217Y031429D01*
X005162Y031435D01*
X005106Y031437D01*
X005106Y031428D01*
X005161Y031426D01*
X005216Y031420D01*
X005270Y031411D01*
X005323Y031398D01*
X005375Y031381D01*
X005427Y031361D01*
X005476Y031338D01*
X005525Y031311D01*
X005571Y031282D01*
X005615Y031249D01*
X005657Y031213D01*
X005696Y031175D01*
X005733Y031134D01*
X005726Y031129D01*
X005690Y031169D01*
X005651Y031207D01*
X005609Y031242D01*
X005566Y031274D01*
X005520Y031304D01*
X005472Y031330D01*
X005423Y031353D01*
X005373Y031373D01*
X005321Y031389D01*
X005268Y031402D01*
X005214Y031411D01*
X005160Y031417D01*
X005106Y031419D01*
X005106Y031410D01*
X005160Y031408D01*
X005213Y031402D01*
X005266Y031393D01*
X005318Y031380D01*
X005370Y031364D01*
X005420Y031345D01*
X005468Y031322D01*
X005515Y031296D01*
X005561Y031267D01*
X005604Y031235D01*
X005645Y031200D01*
X005683Y031163D01*
X005719Y031123D01*
X005712Y031117D01*
X005677Y031156D01*
X005639Y031193D01*
X005598Y031228D01*
X005555Y031259D01*
X005511Y031288D01*
X005464Y031314D01*
X005416Y031336D01*
X005367Y031356D01*
X005316Y031372D01*
X005264Y031384D01*
X005212Y031393D01*
X005159Y031399D01*
X005106Y031401D01*
X005106Y031392D01*
X005158Y031390D01*
X005211Y031384D01*
X005262Y031375D01*
X005313Y031363D01*
X005364Y031347D01*
X005413Y031328D01*
X005460Y031306D01*
X005506Y031280D01*
X005550Y031252D01*
X005592Y031221D01*
X005633Y031187D01*
X005670Y031150D01*
X005705Y031111D01*
X005699Y031105D01*
X005664Y031144D01*
X005626Y031180D01*
X005587Y031214D01*
X005545Y031245D01*
X005501Y031273D01*
X005456Y031298D01*
X005409Y031320D01*
X005361Y031339D01*
X005311Y031354D01*
X005261Y031367D01*
X005210Y031375D01*
X005158Y031381D01*
X005106Y031383D01*
X005106Y031374D01*
X005157Y031372D01*
X005208Y031367D01*
X005259Y031358D01*
X005309Y031346D01*
X005358Y031330D01*
X005405Y031312D01*
X005452Y031290D01*
X005497Y031265D01*
X005540Y031237D01*
X005581Y031207D01*
X005620Y031174D01*
X005657Y031138D01*
X005692Y031100D01*
X005685Y031094D01*
X005648Y031135D01*
X005608Y031173D01*
X005566Y031207D01*
X005521Y031239D01*
X005474Y031268D01*
X005425Y031293D01*
X005374Y031314D01*
X005323Y031332D01*
X005269Y031346D01*
X005215Y031356D01*
X005161Y031363D01*
X005106Y031365D01*
X004611Y030214D02*
X004651Y030245D01*
X004650Y030244D02*
X004681Y030209D01*
X004714Y030176D01*
X004749Y030146D01*
X004788Y030119D01*
X004828Y030095D01*
X004870Y030075D01*
X004913Y030058D01*
X004958Y030044D01*
X005003Y030034D01*
X005049Y030028D01*
X005096Y030026D01*
X005097Y029977D01*
X005096Y029976D01*
X005050Y029978D01*
X005003Y029984D01*
X004958Y029993D01*
X004913Y030005D01*
X004869Y030021D01*
X004826Y030040D01*
X004785Y030062D01*
X004746Y030087D01*
X004709Y030114D01*
X004674Y030145D01*
X004641Y030178D01*
X004611Y030213D01*
X004618Y030219D01*
X004648Y030184D01*
X004680Y030151D01*
X004714Y030121D01*
X004751Y030094D01*
X004790Y030069D01*
X004830Y030048D01*
X004872Y030029D01*
X004915Y030014D01*
X004960Y030001D01*
X005005Y029993D01*
X005050Y029987D01*
X005096Y029985D01*
X005096Y029994D01*
X005051Y029996D01*
X005006Y030001D01*
X004962Y030010D01*
X004918Y030022D01*
X004876Y030037D01*
X004834Y030056D01*
X004794Y030077D01*
X004756Y030101D01*
X004720Y030128D01*
X004686Y030158D01*
X004654Y030190D01*
X004625Y030224D01*
X004632Y030230D01*
X004664Y030193D01*
X004698Y030159D01*
X004735Y030128D01*
X004775Y030100D01*
X004817Y030075D01*
X004860Y030054D01*
X004905Y030036D01*
X004952Y030022D01*
X004999Y030012D01*
X005048Y030005D01*
X005096Y030003D01*
X005096Y030012D01*
X005048Y030014D01*
X005001Y030021D01*
X004954Y030031D01*
X004908Y030044D01*
X004864Y030062D01*
X004821Y030083D01*
X004780Y030107D01*
X004741Y030135D01*
X004704Y030166D01*
X004670Y030199D01*
X004639Y030235D01*
X004646Y030241D01*
X004677Y030205D01*
X004710Y030172D01*
X004746Y030142D01*
X004785Y030115D01*
X004825Y030091D01*
X004868Y030070D01*
X004911Y030053D01*
X004956Y030039D01*
X005002Y030029D01*
X005049Y030023D01*
X005096Y030021D01*
X005105Y029977D02*
X005105Y030027D01*
X005106Y030026D02*
X005153Y030028D01*
X005199Y030034D01*
X005244Y030044D01*
X005289Y030058D01*
X005332Y030075D01*
X005374Y030095D01*
X005414Y030119D01*
X005453Y030146D01*
X005488Y030176D01*
X005521Y030209D01*
X005552Y030244D01*
X005591Y030214D01*
X005591Y030213D01*
X005561Y030178D01*
X005528Y030145D01*
X005493Y030114D01*
X005456Y030087D01*
X005417Y030062D01*
X005376Y030040D01*
X005333Y030021D01*
X005289Y030005D01*
X005244Y029993D01*
X005199Y029984D01*
X005152Y029978D01*
X005106Y029976D01*
X005106Y029985D01*
X005152Y029987D01*
X005197Y029993D01*
X005242Y030001D01*
X005287Y030014D01*
X005330Y030029D01*
X005372Y030048D01*
X005412Y030069D01*
X005451Y030094D01*
X005488Y030121D01*
X005522Y030151D01*
X005554Y030184D01*
X005584Y030219D01*
X005577Y030224D01*
X005548Y030190D01*
X005516Y030158D01*
X005482Y030128D01*
X005446Y030101D01*
X005408Y030077D01*
X005368Y030056D01*
X005326Y030037D01*
X005284Y030022D01*
X005240Y030010D01*
X005196Y030001D01*
X005151Y029996D01*
X005106Y029994D01*
X005106Y030003D01*
X005154Y030005D01*
X005203Y030012D01*
X005250Y030022D01*
X005297Y030036D01*
X005342Y030054D01*
X005385Y030075D01*
X005427Y030100D01*
X005467Y030128D01*
X005504Y030159D01*
X005538Y030193D01*
X005570Y030230D01*
X005563Y030235D01*
X005532Y030199D01*
X005498Y030166D01*
X005461Y030135D01*
X005422Y030107D01*
X005381Y030083D01*
X005338Y030062D01*
X005294Y030044D01*
X005248Y030031D01*
X005201Y030021D01*
X005154Y030014D01*
X005106Y030012D01*
X005106Y030021D01*
X005153Y030023D01*
X005200Y030029D01*
X005246Y030039D01*
X005291Y030053D01*
X005334Y030070D01*
X005377Y030091D01*
X005417Y030115D01*
X005456Y030142D01*
X005492Y030172D01*
X005525Y030205D01*
X005556Y030241D01*
X005097Y031225D02*
X005097Y031175D01*
X005096Y031176D02*
X005052Y031174D01*
X005009Y031169D01*
X004966Y031160D01*
X004924Y031148D01*
X004884Y031133D01*
X004844Y031115D01*
X004806Y031094D01*
X004769Y031071D01*
X004734Y031044D01*
X004702Y031015D01*
X004672Y030984D01*
X004644Y030950D01*
X004605Y030979D01*
X004604Y030980D01*
X004634Y031017D01*
X004667Y031051D01*
X004702Y031082D01*
X004740Y031111D01*
X004780Y031137D01*
X004821Y031160D01*
X004865Y031180D01*
X004909Y031196D01*
X004955Y031209D01*
X005001Y031218D01*
X005049Y031224D01*
X005096Y031226D01*
X005096Y031217D01*
X005049Y031215D01*
X005003Y031209D01*
X004957Y031200D01*
X004912Y031187D01*
X004868Y031171D01*
X004826Y031152D01*
X004785Y031129D01*
X004745Y031104D01*
X004708Y031076D01*
X004673Y031044D01*
X004641Y031011D01*
X004611Y030975D01*
X004618Y030969D01*
X004648Y031005D01*
X004680Y031038D01*
X004714Y031069D01*
X004751Y031097D01*
X004789Y031122D01*
X004830Y031144D01*
X004871Y031163D01*
X004915Y031179D01*
X004959Y031191D01*
X005004Y031200D01*
X005050Y031206D01*
X005096Y031208D01*
X005096Y031199D01*
X005051Y031197D01*
X005006Y031191D01*
X004961Y031182D01*
X004918Y031170D01*
X004875Y031155D01*
X004834Y031136D01*
X004794Y031114D01*
X004756Y031089D01*
X004720Y031062D01*
X004686Y031031D01*
X004654Y030999D01*
X004626Y030964D01*
X004633Y030958D01*
X004661Y030993D01*
X004692Y031025D01*
X004726Y031055D01*
X004761Y031082D01*
X004798Y031106D01*
X004838Y031128D01*
X004878Y031146D01*
X004920Y031162D01*
X004963Y031174D01*
X005007Y031182D01*
X005051Y031188D01*
X005096Y031190D01*
X005096Y031181D01*
X005052Y031179D01*
X005008Y031174D01*
X004965Y031165D01*
X004923Y031153D01*
X004882Y031138D01*
X004842Y031120D01*
X004803Y031099D01*
X004766Y031075D01*
X004731Y031048D01*
X004698Y031019D01*
X004668Y030987D01*
X004640Y030953D01*
X005606Y030968D02*
X005565Y030939D01*
X005566Y030939D02*
X005538Y030974D01*
X005508Y031007D01*
X005475Y031038D01*
X005440Y031065D01*
X005403Y031090D01*
X005364Y031112D01*
X005324Y031131D01*
X005282Y031147D01*
X005239Y031159D01*
X005195Y031168D01*
X005151Y031174D01*
X005106Y031176D01*
X005105Y031225D01*
X005106Y031226D01*
X005155Y031224D01*
X005203Y031218D01*
X005251Y031208D01*
X005297Y031194D01*
X005343Y031177D01*
X005387Y031157D01*
X005429Y031133D01*
X005470Y031106D01*
X005508Y031075D01*
X005544Y031042D01*
X005577Y031007D01*
X005607Y030968D01*
X005599Y030963D01*
X005570Y031001D01*
X005537Y031036D01*
X005502Y031069D01*
X005464Y031098D01*
X005425Y031125D01*
X005383Y031149D01*
X005339Y031169D01*
X005295Y031186D01*
X005248Y031199D01*
X005201Y031209D01*
X005154Y031215D01*
X005106Y031217D01*
X005106Y031208D01*
X005153Y031206D01*
X005200Y031200D01*
X005246Y031190D01*
X005292Y031177D01*
X005336Y031161D01*
X005379Y031141D01*
X005420Y031117D01*
X005459Y031091D01*
X005496Y031062D01*
X005531Y031030D01*
X005563Y030995D01*
X005592Y030958D01*
X005585Y030953D01*
X005556Y030989D01*
X005524Y031023D01*
X005490Y031055D01*
X005454Y031084D01*
X005415Y031110D01*
X005375Y031133D01*
X005332Y031152D01*
X005289Y031169D01*
X005244Y031182D01*
X005199Y031191D01*
X005152Y031197D01*
X005106Y031199D01*
X005106Y031190D01*
X005152Y031188D01*
X005197Y031182D01*
X005242Y031173D01*
X005286Y031160D01*
X005329Y031144D01*
X005371Y031125D01*
X005410Y031102D01*
X005448Y031077D01*
X005484Y031048D01*
X005518Y031017D01*
X005549Y030983D01*
X005577Y030947D01*
X005570Y030942D01*
X005542Y030978D01*
X005512Y031011D01*
X005478Y031041D01*
X005443Y031069D01*
X005406Y031095D01*
X005366Y031117D01*
X005326Y031136D01*
X005283Y031152D01*
X005240Y031164D01*
X005196Y031173D01*
X005151Y031179D01*
X005106Y031181D01*
X000711Y026205D02*
X000756Y026225D01*
X000782Y026172D01*
X000811Y026121D01*
X000843Y026071D01*
X000878Y026024D01*
X000916Y025979D01*
X000957Y025937D01*
X001001Y025897D01*
X001047Y025860D01*
X001095Y025827D01*
X001145Y025796D01*
X001198Y025769D01*
X001251Y025745D01*
X001307Y025724D01*
X001363Y025707D01*
X001421Y025694D01*
X001479Y025684D01*
X001537Y025678D01*
X001596Y025676D01*
X001655Y025678D01*
X001714Y025683D01*
X001772Y025692D01*
X001829Y025705D01*
X001886Y025721D01*
X001942Y025741D01*
X001996Y025764D01*
X002048Y025791D01*
X002099Y025821D01*
X002147Y025855D01*
X002194Y025891D01*
X002238Y025930D01*
X002279Y025972D01*
X002316Y025939D01*
X002316Y025938D01*
X002274Y025895D01*
X002229Y025855D01*
X002182Y025818D01*
X002132Y025783D01*
X002081Y025752D01*
X002028Y025724D01*
X001973Y025700D01*
X001916Y025678D01*
X001859Y025661D01*
X001800Y025647D01*
X001741Y025636D01*
X001681Y025629D01*
X001621Y025626D01*
X001561Y025627D01*
X001501Y025631D01*
X001441Y025639D01*
X001382Y025651D01*
X001324Y025666D01*
X001267Y025685D01*
X001211Y025707D01*
X001157Y025733D01*
X001104Y025762D01*
X001053Y025794D01*
X001004Y025830D01*
X000958Y025868D01*
X000914Y025909D01*
X000873Y025953D01*
X000834Y025999D01*
X000798Y026048D01*
X000766Y026098D01*
X000736Y026151D01*
X000710Y026205D01*
X000718Y026208D01*
X000745Y026153D01*
X000775Y026099D01*
X000809Y026048D01*
X000846Y025999D01*
X000886Y025952D01*
X000929Y025907D01*
X000974Y025866D01*
X001022Y025828D01*
X001073Y025792D01*
X001125Y025760D01*
X001180Y025732D01*
X001236Y025707D01*
X001294Y025685D01*
X001353Y025667D01*
X001412Y025654D01*
X001473Y025643D01*
X001534Y025637D01*
X001596Y025635D01*
X001657Y025637D01*
X001719Y025642D01*
X001780Y025652D01*
X001840Y025665D01*
X001899Y025682D01*
X001957Y025703D01*
X002013Y025727D01*
X002068Y025755D01*
X002121Y025787D01*
X002172Y025822D01*
X002220Y025860D01*
X002266Y025900D01*
X002309Y025944D01*
X002303Y025950D01*
X002260Y025907D01*
X002214Y025866D01*
X002166Y025829D01*
X002116Y025794D01*
X002064Y025763D01*
X002009Y025735D01*
X001953Y025711D01*
X001896Y025691D01*
X001837Y025674D01*
X001778Y025660D01*
X001718Y025651D01*
X001657Y025646D01*
X001596Y025644D01*
X001535Y025646D01*
X001474Y025652D01*
X001414Y025662D01*
X001355Y025676D01*
X001296Y025694D01*
X001239Y025715D01*
X001184Y025740D01*
X001130Y025768D01*
X001078Y025800D01*
X001028Y025835D01*
X000980Y025873D01*
X000935Y025914D01*
X000892Y025958D01*
X000853Y026004D01*
X000816Y026053D01*
X000783Y026104D01*
X000753Y026157D01*
X000727Y026212D01*
X000735Y026216D01*
X000761Y026161D01*
X000791Y026109D01*
X000824Y026058D01*
X000860Y026010D01*
X000899Y025964D01*
X000941Y025920D01*
X000986Y025880D01*
X001033Y025842D01*
X001082Y025807D01*
X001134Y025776D01*
X001188Y025748D01*
X001243Y025723D01*
X001299Y025702D01*
X001357Y025685D01*
X001416Y025671D01*
X001476Y025661D01*
X001536Y025655D01*
X001596Y025653D01*
X001656Y025655D01*
X001717Y025660D01*
X001776Y025669D01*
X001835Y025682D01*
X001893Y025699D01*
X001950Y025720D01*
X002005Y025744D01*
X002059Y025771D01*
X002111Y025802D01*
X002161Y025836D01*
X002209Y025873D01*
X002254Y025913D01*
X002296Y025956D01*
X002290Y025963D01*
X002247Y025920D01*
X002203Y025880D01*
X002156Y025843D01*
X002106Y025810D01*
X002055Y025779D01*
X002002Y025752D01*
X001947Y025728D01*
X001890Y025708D01*
X001833Y025691D01*
X001775Y025678D01*
X001715Y025669D01*
X001656Y025664D01*
X001596Y025662D01*
X001536Y025664D01*
X001477Y025670D01*
X001418Y025680D01*
X001360Y025694D01*
X001302Y025711D01*
X001246Y025732D01*
X001192Y025756D01*
X001139Y025784D01*
X001087Y025815D01*
X001038Y025849D01*
X000992Y025887D01*
X000947Y025927D01*
X000906Y025970D01*
X000867Y026015D01*
X000831Y026063D01*
X000799Y026113D01*
X000769Y026165D01*
X000743Y026219D01*
X000751Y026223D01*
X000777Y026170D01*
X000806Y026118D01*
X000839Y026068D01*
X000874Y026021D01*
X000913Y025976D01*
X000954Y025933D01*
X000998Y025893D01*
X001044Y025856D01*
X001092Y025822D01*
X001143Y025792D01*
X001195Y025764D01*
X001250Y025740D01*
X001305Y025719D01*
X001362Y025702D01*
X001420Y025689D01*
X001478Y025679D01*
X001537Y025673D01*
X001596Y025671D01*
X001655Y025673D01*
X001714Y025678D01*
X001773Y025687D01*
X001831Y025700D01*
X001888Y025716D01*
X001943Y025736D01*
X001998Y025760D01*
X002050Y025787D01*
X002101Y025817D01*
X002150Y025851D01*
X002197Y025887D01*
X002241Y025926D01*
X002283Y025969D01*
X002316Y027263D02*
X002279Y027230D01*
X002238Y027272D01*
X002194Y027311D01*
X002147Y027347D01*
X002099Y027381D01*
X002048Y027411D01*
X001996Y027438D01*
X001942Y027461D01*
X001886Y027481D01*
X001829Y027497D01*
X001772Y027510D01*
X001714Y027519D01*
X001655Y027524D01*
X001596Y027526D01*
X001537Y027524D01*
X001479Y027518D01*
X001421Y027508D01*
X001363Y027495D01*
X001307Y027478D01*
X001251Y027457D01*
X001198Y027433D01*
X001145Y027406D01*
X001095Y027375D01*
X001047Y027342D01*
X001001Y027305D01*
X000957Y027265D01*
X000916Y027223D01*
X000878Y027178D01*
X000843Y027131D01*
X000811Y027081D01*
X000782Y027030D01*
X000756Y026977D01*
X000711Y026997D01*
X000710Y026997D01*
X000736Y027051D01*
X000766Y027104D01*
X000798Y027154D01*
X000834Y027203D01*
X000873Y027249D01*
X000914Y027293D01*
X000958Y027334D01*
X001004Y027372D01*
X001053Y027408D01*
X001104Y027440D01*
X001157Y027469D01*
X001211Y027495D01*
X001267Y027517D01*
X001324Y027536D01*
X001382Y027551D01*
X001441Y027563D01*
X001501Y027571D01*
X001561Y027575D01*
X001621Y027576D01*
X001681Y027573D01*
X001741Y027566D01*
X001800Y027555D01*
X001859Y027541D01*
X001916Y027524D01*
X001973Y027502D01*
X002028Y027478D01*
X002081Y027450D01*
X002132Y027419D01*
X002182Y027384D01*
X002229Y027347D01*
X002274Y027307D01*
X002316Y027264D01*
X002309Y027258D01*
X002266Y027302D01*
X002220Y027342D01*
X002172Y027380D01*
X002121Y027415D01*
X002068Y027447D01*
X002013Y027475D01*
X001957Y027499D01*
X001899Y027520D01*
X001840Y027537D01*
X001780Y027550D01*
X001719Y027560D01*
X001657Y027565D01*
X001596Y027567D01*
X001534Y027565D01*
X001473Y027559D01*
X001412Y027548D01*
X001353Y027535D01*
X001294Y027517D01*
X001236Y027495D01*
X001180Y027470D01*
X001125Y027442D01*
X001073Y027410D01*
X001022Y027374D01*
X000974Y027336D01*
X000929Y027295D01*
X000886Y027250D01*
X000846Y027203D01*
X000809Y027154D01*
X000775Y027103D01*
X000745Y027049D01*
X000718Y026994D01*
X000727Y026990D01*
X000753Y027045D01*
X000783Y027098D01*
X000816Y027149D01*
X000853Y027198D01*
X000892Y027244D01*
X000935Y027288D01*
X000980Y027329D01*
X001028Y027367D01*
X001078Y027402D01*
X001130Y027434D01*
X001184Y027462D01*
X001239Y027487D01*
X001296Y027508D01*
X001355Y027526D01*
X001414Y027540D01*
X001474Y027550D01*
X001535Y027556D01*
X001596Y027558D01*
X001657Y027556D01*
X001718Y027551D01*
X001778Y027542D01*
X001837Y027528D01*
X001896Y027511D01*
X001953Y027491D01*
X002009Y027467D01*
X002064Y027439D01*
X002116Y027408D01*
X002166Y027373D01*
X002214Y027336D01*
X002260Y027295D01*
X002303Y027252D01*
X002296Y027246D01*
X002254Y027289D01*
X002209Y027329D01*
X002161Y027366D01*
X002111Y027400D01*
X002059Y027431D01*
X002005Y027458D01*
X001950Y027482D01*
X001893Y027503D01*
X001835Y027520D01*
X001776Y027533D01*
X001717Y027542D01*
X001656Y027547D01*
X001596Y027549D01*
X001536Y027547D01*
X001476Y027541D01*
X001416Y027531D01*
X001357Y027517D01*
X001299Y027500D01*
X001243Y027479D01*
X001188Y027454D01*
X001134Y027426D01*
X001082Y027395D01*
X001033Y027360D01*
X000986Y027322D01*
X000941Y027282D01*
X000899Y027238D01*
X000860Y027192D01*
X000824Y027144D01*
X000791Y027093D01*
X000761Y027041D01*
X000735Y026986D01*
X000743Y026983D01*
X000769Y027037D01*
X000799Y027089D01*
X000831Y027139D01*
X000867Y027187D01*
X000906Y027232D01*
X000947Y027275D01*
X000992Y027315D01*
X001038Y027353D01*
X001087Y027387D01*
X001139Y027418D01*
X001192Y027446D01*
X001246Y027470D01*
X001302Y027491D01*
X001360Y027508D01*
X001418Y027522D01*
X001477Y027532D01*
X001536Y027538D01*
X001596Y027540D01*
X001656Y027538D01*
X001715Y027533D01*
X001775Y027524D01*
X001833Y027511D01*
X001890Y027494D01*
X001947Y027474D01*
X002002Y027450D01*
X002055Y027423D01*
X002106Y027392D01*
X002156Y027359D01*
X002203Y027322D01*
X002247Y027282D01*
X002290Y027239D01*
X002283Y027233D01*
X002241Y027276D01*
X002197Y027315D01*
X002150Y027351D01*
X002101Y027385D01*
X002050Y027415D01*
X001998Y027442D01*
X001943Y027466D01*
X001888Y027486D01*
X001831Y027502D01*
X001773Y027515D01*
X001714Y027524D01*
X001655Y027529D01*
X001596Y027531D01*
X001537Y027529D01*
X001478Y027523D01*
X001420Y027513D01*
X001362Y027500D01*
X001305Y027483D01*
X001250Y027462D01*
X001195Y027438D01*
X001143Y027410D01*
X001092Y027380D01*
X001044Y027346D01*
X000998Y027309D01*
X000954Y027269D01*
X000913Y027226D01*
X000874Y027181D01*
X000839Y027134D01*
X000806Y027084D01*
X000777Y027032D01*
X000751Y026979D01*
D15*
X001501Y026601D02*
X001601Y026601D01*
X001601Y025901D02*
X001601Y025601D01*
X001601Y027301D02*
X001601Y027601D01*
X010501Y026601D02*
X010601Y026601D01*
X010601Y025901D02*
X010601Y025601D01*
X010601Y027301D02*
X010601Y027601D01*
X019501Y026601D02*
X019601Y026601D01*
X019601Y025901D02*
X019601Y025601D01*
X019601Y027301D02*
X019601Y027601D01*
X028501Y026601D02*
X028601Y026601D01*
X028601Y025901D02*
X028601Y025601D01*
X028601Y027301D02*
X028601Y027601D01*
D16*
X027011Y017901D02*
X027058Y017854D01*
X027058Y017808D01*
X027011Y017761D01*
X027058Y017714D01*
X027058Y017667D01*
X027011Y017621D01*
X026917Y017621D01*
X026871Y017667D01*
X026964Y017761D02*
X027011Y017761D01*
X027011Y017901D02*
X026917Y017901D01*
X026871Y017854D01*
X026420Y016581D02*
X026420Y016301D01*
X026513Y016301D02*
X026326Y016301D01*
X026326Y016488D02*
X026420Y016581D01*
X024763Y016534D02*
X024763Y016488D01*
X024576Y016301D01*
X024763Y016301D01*
X024763Y016534D02*
X024716Y016581D01*
X024623Y016581D01*
X024576Y016534D01*
X024308Y017621D02*
X024121Y017621D01*
X024214Y017621D02*
X024214Y017901D01*
X024121Y017808D01*
X024214Y013901D02*
X024214Y013621D01*
X024121Y013621D02*
X024308Y013621D01*
X024121Y013808D02*
X024214Y013901D01*
X026871Y013854D02*
X026917Y013901D01*
X027011Y013901D01*
X027058Y013854D01*
X027058Y013808D01*
X027011Y013761D01*
X027058Y013714D01*
X027058Y013667D01*
X027011Y013621D01*
X026917Y013621D01*
X026871Y013667D01*
X026964Y013761D02*
X027011Y013761D01*
X032121Y013808D02*
X032214Y013901D01*
X032214Y013621D01*
X032121Y013621D02*
X032308Y013621D01*
X034871Y013667D02*
X034917Y013621D01*
X035011Y013621D01*
X035058Y013667D01*
X035058Y013714D01*
X035011Y013761D01*
X034964Y013761D01*
X035011Y013761D02*
X035058Y013808D01*
X035058Y013854D01*
X035011Y013901D01*
X034917Y013901D01*
X034871Y013854D01*
X034513Y016301D02*
X034326Y016301D01*
X034420Y016301D02*
X034420Y016581D01*
X034326Y016488D01*
X034917Y017621D02*
X034871Y017667D01*
X034917Y017621D02*
X035011Y017621D01*
X035058Y017667D01*
X035058Y017714D01*
X035011Y017761D01*
X034964Y017761D01*
X035011Y017761D02*
X035058Y017808D01*
X035058Y017854D01*
X035011Y017901D01*
X034917Y017901D01*
X034871Y017854D01*
X032763Y016534D02*
X032763Y016488D01*
X032576Y016301D01*
X032763Y016301D01*
X032763Y016534D02*
X032716Y016581D01*
X032623Y016581D01*
X032576Y016534D01*
X032308Y017621D02*
X032121Y017621D01*
X032214Y017621D02*
X032214Y017901D01*
X032121Y017808D01*
X032214Y006401D02*
X032214Y006121D01*
X032121Y006121D02*
X032308Y006121D01*
X032121Y006308D02*
X032214Y006401D01*
X034871Y006354D02*
X034917Y006401D01*
X035011Y006401D01*
X035058Y006354D01*
X035058Y006308D01*
X035011Y006261D01*
X035058Y006214D01*
X035058Y006167D01*
X035011Y006121D01*
X034917Y006121D01*
X034871Y006167D01*
X034964Y006261D02*
X035011Y006261D01*
X027558Y006214D02*
X027558Y006167D01*
X027511Y006121D01*
X027417Y006121D01*
X027371Y006167D01*
X027464Y006261D02*
X027511Y006261D01*
X027558Y006214D01*
X027511Y006261D02*
X027558Y006308D01*
X027558Y006354D01*
X027511Y006401D01*
X027417Y006401D01*
X027371Y006354D01*
X024808Y006121D02*
X024621Y006121D01*
X024714Y006121D02*
X024714Y006401D01*
X024621Y006308D01*
X013058Y006308D02*
X013011Y006261D01*
X013058Y006214D01*
X013058Y006167D01*
X013011Y006121D01*
X012917Y006121D01*
X012871Y006167D01*
X012964Y006261D02*
X013011Y006261D01*
X013058Y006308D02*
X013058Y006354D01*
X013011Y006401D01*
X012917Y006401D01*
X012871Y006354D01*
X010308Y006121D02*
X010121Y006121D01*
X010214Y006121D02*
X010214Y006401D01*
X010121Y006308D01*
X005058Y006308D02*
X005011Y006261D01*
X005058Y006214D01*
X005058Y006167D01*
X005011Y006121D01*
X004917Y006121D01*
X004871Y006167D01*
X004964Y006261D02*
X005011Y006261D01*
X005058Y006308D02*
X005058Y006354D01*
X005011Y006401D01*
X004917Y006401D01*
X004871Y006354D01*
X002308Y006121D02*
X002121Y006121D01*
X002214Y006121D02*
X002214Y006401D01*
X002121Y006308D01*
X002121Y013621D02*
X002308Y013621D01*
X002214Y013621D02*
X002214Y013901D01*
X002121Y013808D01*
X002576Y016301D02*
X002763Y016488D01*
X002763Y016534D01*
X002716Y016581D01*
X002623Y016581D01*
X002576Y016534D01*
X002576Y016301D02*
X002763Y016301D01*
X002308Y017621D02*
X002121Y017621D01*
X002214Y017621D02*
X002214Y017901D01*
X002121Y017808D01*
X004326Y016488D02*
X004420Y016581D01*
X004420Y016301D01*
X004513Y016301D02*
X004326Y016301D01*
X004917Y017621D02*
X004871Y017667D01*
X004917Y017621D02*
X005011Y017621D01*
X005058Y017667D01*
X005058Y017714D01*
X005011Y017761D01*
X004964Y017761D01*
X005011Y017761D02*
X005058Y017808D01*
X005058Y017854D01*
X005011Y017901D01*
X004917Y017901D01*
X004871Y017854D01*
X004917Y013901D02*
X005011Y013901D01*
X005058Y013854D01*
X005058Y013808D01*
X005011Y013761D01*
X005058Y013714D01*
X005058Y013667D01*
X005011Y013621D01*
X004917Y013621D01*
X004871Y013667D01*
X004964Y013761D02*
X005011Y013761D01*
X004871Y013854D02*
X004917Y013901D01*
X010121Y013808D02*
X010214Y013901D01*
X010214Y013621D01*
X010121Y013621D02*
X010308Y013621D01*
X012871Y013667D02*
X012917Y013621D01*
X013011Y013621D01*
X013058Y013667D01*
X013058Y013714D01*
X013011Y013761D01*
X012964Y013761D01*
X013011Y013761D02*
X013058Y013808D01*
X013058Y013854D01*
X013011Y013901D01*
X012917Y013901D01*
X012871Y013854D01*
X012513Y016301D02*
X012326Y016301D01*
X012420Y016301D02*
X012420Y016581D01*
X012326Y016488D01*
X012917Y017621D02*
X012871Y017667D01*
X012917Y017621D02*
X013011Y017621D01*
X013058Y017667D01*
X013058Y017714D01*
X013011Y017761D01*
X012964Y017761D01*
X013011Y017761D02*
X013058Y017808D01*
X013058Y017854D01*
X013011Y017901D01*
X012917Y017901D01*
X012871Y017854D01*
X010763Y016534D02*
X010763Y016488D01*
X010576Y016301D01*
X010763Y016301D01*
X010763Y016534D02*
X010716Y016581D01*
X010623Y016581D01*
X010576Y016534D01*
X010308Y017621D02*
X010121Y017621D01*
X010214Y017621D02*
X010214Y017901D01*
X010121Y017808D01*
D17*
X011207Y009691D02*
X011994Y009691D01*
X011994Y008510D02*
X011207Y008510D01*
X003994Y008510D02*
X003207Y008510D01*
X003207Y009691D02*
X003994Y009691D01*
X025207Y009691D02*
X025994Y009691D01*
X025994Y008510D02*
X025207Y008510D01*
X033207Y008510D02*
X033994Y008510D01*
X033994Y009691D02*
X033207Y009691D01*
M02*
