G75*
G70*
%OFA0B0*%
%FSLAX24Y24*%
%IPPOS*%
%LPD*%
%AMOC8*
5,1,8,0,0,1.08239X$1,22.5*
%
%ADD10C,0.0000*%
%ADD11R,0.0476X0.0476*%
%ADD12C,0.0476*%
%ADD13OC8,0.0476*%
%ADD14C,0.0100*%
D10*
X000181Y000101D02*
X000181Y017897D01*
X014951Y017897D01*
X014951Y000101D01*
X000181Y000101D01*
D11*
X001181Y001101D03*
X000681Y004601D03*
X000681Y005601D03*
X005681Y005101D03*
X007681Y008101D03*
X007181Y010601D03*
X004681Y013601D03*
X006681Y014101D03*
X009181Y014101D03*
X013681Y013101D03*
X002681Y017101D03*
X001181Y013601D03*
D12*
X003681Y017101D03*
X004681Y017101D03*
X006681Y017101D03*
X004681Y014601D03*
X007681Y014101D03*
X010181Y014101D03*
X009681Y017101D03*
X006181Y010601D03*
X006681Y008101D03*
X008681Y005101D03*
X008681Y004101D03*
X008681Y003101D03*
X008681Y002101D03*
X005681Y002101D03*
X005681Y003101D03*
X005681Y004101D03*
D13*
X002181Y001101D03*
X000681Y003601D03*
X001181Y012601D03*
X001181Y014601D03*
X013681Y014101D03*
D14*
X009681Y017101D01*
X007681Y014101D02*
X007681Y014061D01*
X008081Y013661D01*
X008081Y005661D01*
X008641Y005101D01*
X008681Y005101D01*
X008681Y004101D02*
X007681Y005101D01*
X007681Y008101D01*
X007201Y010541D02*
X007181Y010601D01*
X007201Y010541D02*
X007201Y003581D01*
X008681Y002101D01*
X006081Y003501D02*
X006081Y004301D01*
X005681Y004701D01*
X004481Y004701D01*
X004481Y013101D01*
X003681Y013901D01*
X003681Y017101D01*
X002721Y017101D02*
X002681Y017101D01*
X002721Y017101D02*
X002721Y014621D01*
X001181Y014601D01*
X001181Y012601D02*
X001141Y012581D01*
X000741Y012181D01*
X000741Y005621D01*
X000681Y005601D01*
X001161Y004721D01*
X001161Y002061D01*
X002181Y001141D01*
X002181Y001101D01*
X001181Y001101D02*
X000741Y001541D01*
X000741Y003541D01*
X000681Y003601D01*
X005281Y003661D02*
X005281Y002541D01*
X005681Y002141D01*
X005681Y002101D01*
X005681Y003101D02*
X006081Y003501D01*
X005681Y004061D02*
X005681Y004101D01*
X005681Y004061D02*
X005281Y003661D01*
X005681Y005101D02*
X005761Y005181D01*
X005761Y013181D01*
X006681Y014101D01*
X004721Y014621D02*
X004681Y014601D01*
X004721Y014621D02*
X004721Y017101D01*
X004681Y017101D01*
M02*
