G75*
G70*
%OFA0B0*%
%FSLAX24Y24*%
%IPPOS*%
%LPD*%
%AMOC8*
5,1,8,0,0,1.08239X$1,22.5*
%
%ADD10C,0.0000*%
%ADD11R,0.0476X0.0476*%
%ADD12C,0.0476*%
%ADD13OC8,0.0476*%
%ADD14C,0.0100*%
D10*
X000101Y000101D02*
X000101Y013597D01*
X018471Y013597D01*
X018471Y000101D01*
X000101Y000101D01*
D11*
X001101Y004601D03*
X007601Y003101D03*
X015601Y003601D03*
X017601Y007101D03*
X011101Y009101D03*
X011101Y011101D03*
X012101Y011101D03*
X010101Y011101D03*
X008601Y011101D03*
X007601Y011101D03*
X006601Y011101D03*
X005101Y012601D03*
X008601Y012601D03*
X012101Y012601D03*
X015601Y012601D03*
X001101Y012101D03*
X001101Y011101D03*
D12*
X003101Y010601D03*
X003101Y009601D03*
X005101Y009601D03*
X005101Y010601D03*
X004101Y012601D03*
X003101Y012601D03*
X006601Y012601D03*
X007601Y012601D03*
X010101Y012601D03*
X011101Y012601D03*
X013601Y012601D03*
X014601Y012601D03*
X015601Y011101D03*
X015601Y010101D03*
X015601Y009101D03*
X014101Y009101D03*
X014101Y008101D03*
X014101Y007101D03*
X015601Y007101D03*
X014101Y006101D03*
X014101Y005101D03*
X014101Y004101D03*
X014101Y003101D03*
X016601Y003601D03*
X011101Y004101D03*
X011101Y005101D03*
X011101Y006101D03*
X011101Y007101D03*
X011101Y008101D03*
X008101Y005101D03*
X006101Y005101D03*
X005101Y005101D03*
X003101Y005101D03*
X003101Y003601D03*
X005101Y003601D03*
X006601Y003101D03*
X011101Y003101D03*
X003101Y006601D03*
X003101Y007601D03*
D13*
X001101Y009601D03*
X001101Y003601D03*
X017601Y008101D03*
D14*
X017541Y008101D01*
X015621Y010021D01*
X015621Y010101D01*
X015601Y010101D01*
X015601Y011101D02*
X015621Y011141D01*
X015621Y012581D01*
X015601Y012601D01*
X014981Y012821D02*
X014821Y012981D01*
X011141Y012981D01*
X011141Y012661D01*
X011101Y012601D01*
X011701Y012181D02*
X010101Y012181D01*
X010101Y012601D01*
X008601Y012601D02*
X008581Y012581D01*
X007621Y012581D01*
X007601Y012601D01*
X007541Y012661D01*
X007541Y012981D01*
X006421Y012981D01*
X004661Y011221D01*
X004661Y010581D01*
X002661Y008581D01*
X002661Y007061D01*
X003061Y006661D01*
X003101Y006601D01*
X003541Y005541D02*
X003101Y005101D01*
X003141Y005061D01*
X003141Y003621D01*
X003101Y003601D01*
X003061Y003621D01*
X001141Y003621D01*
X001101Y003601D01*
X001101Y004601D02*
X001141Y004661D01*
X001541Y005061D01*
X001541Y010661D01*
X001101Y011101D01*
X003101Y009601D02*
X003141Y009621D01*
X004101Y010581D01*
X004101Y012581D01*
X004101Y012601D01*
X004101Y012581D02*
X005061Y012581D01*
X005101Y012601D01*
X006181Y012181D02*
X006601Y012601D01*
X006181Y012181D02*
X006181Y006181D01*
X005101Y005101D01*
X004661Y004661D01*
X004661Y002661D01*
X007861Y002661D01*
X008021Y002821D01*
X008021Y003061D01*
X011061Y006101D01*
X011101Y006101D01*
X010661Y006181D02*
X010661Y008661D01*
X011101Y009101D01*
X011141Y009141D01*
X011141Y010101D01*
X012101Y011061D01*
X012101Y011101D01*
X012501Y011381D02*
X011701Y012181D01*
X012501Y011381D02*
X012501Y006741D01*
X014101Y005141D01*
X014101Y005101D01*
X014101Y006101D02*
X013621Y006581D01*
X013621Y012581D01*
X013601Y012601D01*
X014581Y012581D02*
X014601Y012601D01*
X014581Y012581D02*
X014581Y008581D01*
X014101Y008101D01*
X014981Y007701D02*
X014981Y012821D01*
X011101Y011101D02*
X008101Y008101D01*
X008101Y005101D01*
X006581Y004581D02*
X006581Y003141D01*
X006601Y003101D01*
X007601Y003101D02*
X007621Y003141D01*
X010661Y006181D01*
X006581Y004581D02*
X006101Y005061D01*
X006101Y005101D01*
X005541Y005141D02*
X005541Y004021D01*
X005141Y003621D01*
X005101Y003601D01*
X005541Y005141D02*
X006421Y006021D01*
X006421Y009941D01*
X007541Y011061D01*
X007601Y011101D01*
X005101Y009601D02*
X005061Y009541D01*
X003541Y008021D01*
X003541Y005541D01*
X003101Y007601D02*
X003141Y007621D01*
X003541Y008021D01*
X014981Y007701D02*
X015541Y007141D01*
X015601Y007101D01*
X017541Y007061D02*
X017601Y007101D01*
X017541Y007061D02*
X017541Y004501D01*
X016661Y003621D01*
X016601Y003601D01*
X016021Y004021D02*
X015601Y003601D01*
X016021Y004021D02*
X016021Y008661D01*
X015621Y009061D01*
X015601Y009101D01*
M02*
