%
M48
M72
T01C0.0276
%
T01
X1101Y3601
X1101Y4601
X3101Y5101
X5101Y5101
X6101Y5101
X8101Y5101
X11101Y5101
X11101Y4101
X11101Y3101
X14101Y3101
X15601Y3601
X16601Y3601
X14101Y4101
X14101Y5101
X14101Y6101
X14101Y7101
X15601Y7101
X14101Y8101
X14101Y9101
X15601Y9101
X15601Y10101
X15601Y11101
X15601Y12601
X14601Y12601
X13601Y12601
X12101Y12601
X11101Y12601
X10101Y12601
X8601Y12601
X7601Y12601
X6601Y12601
X5101Y12601
X4101Y12601
X3101Y12601
X1101Y12101
X1101Y11101
X3101Y10601
X3101Y9601
X5101Y9601
X5101Y10601
X6601Y11101
X7601Y11101
X8601Y11101
X10101Y11101
X11101Y11101
X12101Y11101
X11101Y9101
X11101Y8101
X11101Y7101
X11101Y6101
X7601Y3101
X6601Y3101
X5101Y3601
X3101Y3601
X3101Y6601
X3101Y7601
X1101Y9601
X17601Y8101
X17601Y7101
M30
