G75*
G70*
%OFA0B0*%
%FSLAX24Y24*%
%IPPOS*%
%LPD*%
%AMOC8*
5,1,8,0,0,1.08239X$1,22.5*
%
%ADD10C,0.1182*%
%ADD11R,0.0556X0.0556*%
%ADD12C,0.0556*%
%ADD13OC8,0.0600*%
%ADD14C,0.1261*%
%ADD15C,0.0634*%
%ADD16R,0.0634X0.0634*%
%ADD17OC8,0.0710*%
%ADD18C,0.1346*%
%ADD19C,0.1025*%
%ADD20C,0.0946*%
%ADD21C,0.0671*%
%ADD22C,0.0966*%
D10*
X002054Y002740D03*
X002054Y019740D03*
X024054Y019740D03*
X024054Y002740D03*
D11*
X010304Y009490D03*
X006554Y011240D03*
X014454Y015540D03*
D12*
X015454Y015540D03*
X016554Y017240D03*
X012554Y017240D03*
X012304Y012490D03*
X011304Y012490D03*
X010304Y012490D03*
X013304Y012490D03*
X014304Y012490D03*
X015304Y012490D03*
X016304Y012490D03*
X016304Y009490D03*
X015304Y009490D03*
X014304Y009490D03*
X013304Y009490D03*
X012304Y009490D03*
X011304Y009490D03*
X012554Y006740D03*
X012554Y005240D03*
X016554Y005240D03*
X016554Y006740D03*
X006554Y010240D03*
X005054Y009240D03*
X005054Y005240D03*
X005554Y013490D03*
X005554Y017490D03*
D13*
X008354Y013640D03*
X010354Y013640D03*
X009054Y011990D03*
X009054Y009990D03*
X008054Y008240D03*
X010054Y008240D03*
X013804Y008240D03*
X015804Y008240D03*
D14*
X015304Y002990D03*
X017273Y002990D03*
X013336Y002990D03*
X011023Y002990D03*
X009054Y002990D03*
X007086Y002990D03*
X007086Y019240D03*
X009054Y019240D03*
X011023Y019240D03*
X013336Y019240D03*
X015304Y019240D03*
X017273Y019240D03*
D15*
X003804Y002990D03*
D16*
X004804Y002990D03*
D17*
X017554Y004990D03*
X017554Y005990D03*
X018554Y005990D03*
X019554Y005990D03*
X019554Y004990D03*
X018554Y004990D03*
X018554Y006990D03*
X019554Y006990D03*
X019554Y007990D03*
X018554Y007990D03*
X017554Y007990D03*
X017554Y006990D03*
X017554Y008990D03*
X017554Y009990D03*
X018554Y009990D03*
X019554Y009990D03*
X019554Y008990D03*
X018554Y008990D03*
X018554Y010990D03*
X019554Y010990D03*
X019554Y011990D03*
X018554Y011990D03*
X017554Y011990D03*
X017554Y010990D03*
X022554Y010990D03*
X023554Y010990D03*
X023554Y011990D03*
X022554Y011990D03*
X022554Y012990D03*
X024554Y011990D03*
X024554Y010990D03*
X024554Y009990D03*
X023554Y009990D03*
X022554Y009990D03*
X022554Y008990D03*
X023554Y008990D03*
X024554Y008990D03*
X024554Y007990D03*
X023554Y007990D03*
X022554Y007990D03*
X022554Y006990D03*
X023554Y006990D03*
X024554Y006990D03*
X024554Y005990D03*
X023554Y005990D03*
X022554Y005990D03*
X022554Y004990D03*
X023554Y004990D03*
X024554Y004990D03*
X022554Y003990D03*
D18*
X010905Y005740D03*
X009054Y005740D03*
X007204Y005740D03*
X002804Y005639D03*
X002804Y007490D03*
X007204Y016240D03*
X009054Y016240D03*
X010905Y016240D03*
D19*
X003554Y016690D03*
X003554Y015290D03*
X003554Y013490D03*
X003554Y012240D03*
X003554Y010990D03*
D20*
X002004Y015290D03*
X002004Y016690D03*
D21*
X002004Y013465D03*
X002004Y012240D03*
X002004Y011015D03*
D22*
X024254Y015690D03*
X024254Y017690D03*
M02*
