G75*
G70*
%OFA0B0*%
%FSLAX24Y24*%
%IPPOS*%
%LPD*%
%AMOC8*
5,1,8,0,0,1.08239X$1,22.5*
%
%ADD10C,0.0070*%
%ADD11C,0.0060*%
%ADD12C,0.0160*%
%ADD13C,0.0100*%
%ADD14C,0.0080*%
%ADD15C,0.0120*%
%ADD16R,0.0150X0.0200*%
%ADD17R,0.0200X0.0150*%
%ADD18C,0.0050*%
%ADD19C,0.0020*%
%ADD20C,0.0010*%
%ADD21C,0.0030*%
D10*
X002669Y004025D02*
X002884Y004025D01*
X002955Y004096D01*
X002955Y004383D01*
X002884Y004455D01*
X002669Y004455D01*
X002669Y004025D01*
X003129Y004025D02*
X003416Y004025D01*
X003272Y004025D02*
X003272Y004455D01*
X003129Y004312D01*
X004814Y006700D02*
X004814Y006915D01*
X004886Y006987D01*
X005029Y006987D01*
X005101Y006915D01*
X005101Y006700D01*
X005101Y006843D02*
X005244Y006987D01*
X005173Y007160D02*
X005244Y007232D01*
X005244Y007375D01*
X005173Y007447D01*
X005029Y007447D01*
X004957Y007375D01*
X004957Y007303D01*
X005029Y007160D01*
X004814Y007160D01*
X004814Y007447D01*
X004814Y006700D02*
X005244Y006700D01*
X007014Y008021D02*
X007086Y007950D01*
X007373Y007950D01*
X007444Y008021D01*
X007444Y008165D01*
X007373Y008237D01*
X007444Y008410D02*
X007444Y008697D01*
X007444Y008553D02*
X007014Y008553D01*
X007157Y008410D01*
X007086Y008237D02*
X007014Y008165D01*
X007014Y008021D01*
X008539Y006933D02*
X008539Y006862D01*
X008611Y006790D01*
X008754Y006790D01*
X008826Y006718D01*
X008826Y006646D01*
X008754Y006575D01*
X008611Y006575D01*
X008539Y006646D01*
X008539Y006933D02*
X008611Y007005D01*
X008754Y007005D01*
X008826Y006933D01*
X009000Y007005D02*
X009000Y006575D01*
X009143Y006718D01*
X009287Y006575D01*
X009287Y007005D01*
X009460Y006933D02*
X009532Y007005D01*
X009675Y007005D01*
X009747Y006933D01*
X009747Y006862D01*
X009460Y006575D01*
X009747Y006575D01*
X012789Y007896D02*
X012861Y007825D01*
X013148Y007825D01*
X013219Y007896D01*
X013219Y008040D01*
X013148Y008112D01*
X013219Y008285D02*
X012932Y008572D01*
X012861Y008572D01*
X012789Y008500D01*
X012789Y008357D01*
X012861Y008285D01*
X012861Y008112D02*
X012789Y008040D01*
X012789Y007896D01*
X013219Y008285D02*
X013219Y008572D01*
X014219Y006930D02*
X014434Y006930D01*
X014505Y006858D01*
X014505Y006715D01*
X014434Y006643D01*
X014219Y006643D01*
X014362Y006643D02*
X014505Y006500D01*
X014679Y006500D02*
X014966Y006500D01*
X014822Y006500D02*
X014822Y006930D01*
X014679Y006787D01*
X014219Y006930D02*
X014219Y006500D01*
X014194Y005405D02*
X014409Y005405D01*
X014480Y005333D01*
X014480Y005190D01*
X014409Y005118D01*
X014194Y005118D01*
X014337Y005118D02*
X014480Y004975D01*
X014654Y005046D02*
X014726Y004975D01*
X014869Y004975D01*
X014941Y005046D01*
X014941Y005118D01*
X014869Y005190D01*
X014797Y005190D01*
X014869Y005190D02*
X014941Y005262D01*
X014941Y005333D01*
X014869Y005405D01*
X014726Y005405D01*
X014654Y005333D01*
X014194Y005405D02*
X014194Y004975D01*
X012269Y010525D02*
X012269Y010668D01*
X012269Y010596D02*
X011839Y010596D01*
X011839Y010525D02*
X011839Y010668D01*
X011911Y010832D02*
X012198Y010832D01*
X012269Y010903D01*
X012269Y011047D01*
X012198Y011118D01*
X012269Y011292D02*
X012269Y011579D01*
X012269Y011435D02*
X011839Y011435D01*
X011982Y011292D01*
X011911Y011118D02*
X011839Y011047D01*
X011839Y010903D01*
X011911Y010832D01*
X013964Y011015D02*
X014251Y011015D01*
X014425Y010871D02*
X014425Y011158D01*
X014496Y011230D01*
X014640Y011230D01*
X014712Y011158D01*
X014425Y010871D01*
X014496Y010800D01*
X014640Y010800D01*
X014712Y010871D01*
X014712Y011158D01*
X014885Y011158D02*
X014885Y011087D01*
X014957Y011015D01*
X015172Y011015D01*
X015172Y011158D02*
X015172Y010871D01*
X015100Y010800D01*
X014957Y010800D01*
X014885Y010871D01*
X014885Y011158D02*
X014957Y011230D01*
X015100Y011230D01*
X015172Y011158D01*
X015345Y011158D02*
X015417Y011230D01*
X015561Y011230D01*
X015632Y011158D01*
X015632Y011087D01*
X015561Y011015D01*
X015632Y010943D01*
X015632Y010871D01*
X015561Y010800D01*
X015417Y010800D01*
X015345Y010871D01*
X015489Y011015D02*
X015561Y011015D01*
X014179Y010800D02*
X014179Y011230D01*
X013964Y011015D01*
X013773Y015125D02*
X013486Y015125D01*
X013414Y015196D01*
X013414Y015340D01*
X013486Y015412D01*
X013414Y015585D02*
X013629Y015585D01*
X013557Y015728D01*
X013557Y015800D01*
X013629Y015872D01*
X013773Y015872D01*
X013844Y015800D01*
X013844Y015657D01*
X013773Y015585D01*
X013773Y015412D02*
X013844Y015340D01*
X013844Y015196D01*
X013773Y015125D01*
X013414Y015585D02*
X013414Y015872D01*
X014239Y017025D02*
X014239Y017455D01*
X014454Y017455D01*
X014526Y017383D01*
X014526Y017240D01*
X014454Y017168D01*
X014239Y017168D01*
X014383Y017168D02*
X014526Y017025D01*
X014700Y017240D02*
X014987Y017240D01*
X014915Y017025D02*
X014915Y017455D01*
X014700Y017240D01*
X009616Y017243D02*
X009616Y017171D01*
X009544Y017100D01*
X009401Y017100D01*
X009329Y017171D01*
X009155Y017100D02*
X009155Y017530D01*
X009329Y017458D02*
X009401Y017530D01*
X009544Y017530D01*
X009616Y017458D01*
X009616Y017387D01*
X009544Y017315D01*
X009616Y017243D01*
X009544Y017315D02*
X009472Y017315D01*
X009155Y017100D02*
X009012Y017243D01*
X008869Y017100D01*
X008869Y017530D01*
X008695Y017458D02*
X008623Y017530D01*
X008480Y017530D01*
X008408Y017458D01*
X008408Y017387D01*
X008480Y017315D01*
X008623Y017315D01*
X008695Y017243D01*
X008695Y017171D01*
X008623Y017100D01*
X008480Y017100D01*
X008408Y017171D01*
X005744Y015747D02*
X005744Y015460D01*
X005457Y015747D01*
X005386Y015747D01*
X005314Y015675D01*
X005314Y015532D01*
X005386Y015460D01*
X005386Y015287D02*
X005314Y015215D01*
X005314Y015000D01*
X005744Y015000D01*
X005601Y015000D02*
X005601Y015215D01*
X005529Y015287D01*
X005386Y015287D01*
X005601Y015143D02*
X005744Y015287D01*
X007289Y013925D02*
X007361Y013997D01*
X007432Y013997D01*
X007504Y013925D01*
X007576Y013997D01*
X007648Y013997D01*
X007719Y013925D01*
X007719Y013782D01*
X007648Y013710D01*
X007648Y013537D02*
X007719Y013465D01*
X007719Y013321D01*
X007648Y013250D01*
X007361Y013250D01*
X007289Y013321D01*
X007289Y013465D01*
X007361Y013537D01*
X007361Y013710D02*
X007289Y013782D01*
X007289Y013925D01*
X007504Y013925D02*
X007504Y013853D01*
X008129Y012151D02*
X008129Y011864D01*
X007914Y012079D01*
X008344Y012079D01*
X008273Y011691D02*
X008344Y011619D01*
X008344Y011476D01*
X008273Y011404D01*
X007986Y011404D01*
X007914Y011476D01*
X007914Y011619D01*
X007986Y011691D01*
X006119Y010979D02*
X006119Y010836D01*
X006048Y010764D01*
X005904Y010764D01*
X005904Y010979D01*
X005976Y011051D01*
X006048Y011051D01*
X006119Y010979D01*
X005904Y010764D02*
X005761Y010908D01*
X005689Y011051D01*
X005761Y010591D02*
X005689Y010519D01*
X005689Y010376D01*
X005761Y010304D01*
X006048Y010304D01*
X006119Y010376D01*
X006119Y010519D01*
X006048Y010591D01*
X003272Y009005D02*
X003272Y008575D01*
X003129Y008575D02*
X003416Y008575D01*
X003129Y008862D02*
X003272Y009005D01*
X002955Y009005D02*
X002955Y008575D01*
X002812Y008718D01*
X002669Y008575D01*
X002669Y009005D01*
X002495Y008933D02*
X002423Y009005D01*
X002280Y009005D01*
X002208Y008933D01*
X002208Y008862D01*
X002280Y008790D01*
X002423Y008790D01*
X002495Y008718D01*
X002495Y008646D01*
X002423Y008575D01*
X002280Y008575D01*
X002208Y008646D01*
X023214Y012968D02*
X023358Y012825D01*
X023501Y012968D01*
X023501Y013255D01*
X023675Y013040D02*
X023962Y013040D01*
X023818Y013183D02*
X023818Y012896D01*
X023214Y012968D02*
X023214Y013255D01*
X023361Y004230D02*
X023289Y004158D01*
X023289Y003871D01*
X023361Y003800D01*
X023504Y003800D01*
X023576Y003871D01*
X023576Y004015D01*
X023433Y004015D01*
X023576Y004158D02*
X023504Y004230D01*
X023361Y004230D01*
X023750Y004230D02*
X024037Y003800D01*
X024037Y004230D01*
X024210Y004230D02*
X024425Y004230D01*
X024497Y004158D01*
X024497Y003871D01*
X024425Y003800D01*
X024210Y003800D01*
X024210Y004230D01*
X023750Y004230D02*
X023750Y003800D01*
D11*
X022854Y003790D02*
X022854Y003690D01*
X022754Y003690D01*
X022354Y003690D02*
X022254Y003690D01*
X022254Y003790D01*
X022254Y004190D02*
X022254Y004290D01*
X022354Y004290D01*
X022754Y004290D02*
X022854Y004290D01*
X022854Y004190D01*
X022854Y004690D02*
X022754Y004690D01*
X022854Y004690D02*
X022854Y004790D01*
X023254Y004790D02*
X023254Y004690D01*
X023354Y004690D01*
X023754Y004690D02*
X023854Y004690D01*
X023854Y004790D01*
X023854Y005190D02*
X023854Y005290D01*
X023754Y005290D01*
X023354Y005290D02*
X023254Y005290D01*
X023254Y005190D01*
X022854Y005190D02*
X022854Y005290D01*
X022754Y005290D01*
X022354Y005290D02*
X022254Y005290D01*
X022254Y005190D01*
X022254Y004790D02*
X022254Y004690D01*
X022354Y004690D01*
X022354Y005690D02*
X022254Y005690D01*
X022254Y005790D01*
X022254Y006190D02*
X022254Y006290D01*
X022354Y006290D01*
X022754Y006290D02*
X022854Y006290D01*
X022854Y006190D01*
X022854Y005790D02*
X022854Y005690D01*
X022754Y005690D01*
X023254Y005690D02*
X023254Y005790D01*
X023254Y005690D02*
X023354Y005690D01*
X023754Y005690D02*
X023854Y005690D01*
X023854Y005790D01*
X023854Y006190D02*
X023854Y006290D01*
X023754Y006290D01*
X023354Y006290D02*
X023254Y006290D01*
X023254Y006190D01*
X023254Y006690D02*
X023254Y006790D01*
X023254Y006690D02*
X023354Y006690D01*
X023754Y006690D02*
X023854Y006690D01*
X023854Y006790D01*
X023854Y007190D02*
X023854Y007290D01*
X023754Y007290D01*
X023354Y007290D02*
X023254Y007290D01*
X023254Y007190D01*
X022854Y007190D02*
X022854Y007290D01*
X022754Y007290D01*
X022354Y007290D02*
X022254Y007290D01*
X022254Y007190D01*
X022254Y006790D02*
X022254Y006690D01*
X022354Y006690D01*
X022754Y006690D02*
X022854Y006690D01*
X022854Y006790D01*
X022854Y007690D02*
X022754Y007690D01*
X022854Y007690D02*
X022854Y007790D01*
X022854Y008190D02*
X022854Y008290D01*
X022754Y008290D01*
X022354Y008290D02*
X022254Y008290D01*
X022254Y008190D01*
X022254Y007790D02*
X022254Y007690D01*
X022354Y007690D01*
X023254Y007690D02*
X023254Y007790D01*
X023254Y007690D02*
X023354Y007690D01*
X023754Y007690D02*
X023854Y007690D01*
X023854Y007790D01*
X023854Y008190D02*
X023854Y008290D01*
X023754Y008290D01*
X023354Y008290D02*
X023254Y008290D01*
X023254Y008190D01*
X023254Y008690D02*
X023254Y008790D01*
X023254Y008690D02*
X023354Y008690D01*
X023754Y008690D02*
X023854Y008690D01*
X023854Y008790D01*
X023854Y009190D02*
X023854Y009290D01*
X023754Y009290D01*
X023354Y009290D02*
X023254Y009290D01*
X023254Y009190D01*
X022854Y009190D02*
X022854Y009290D01*
X022754Y009290D01*
X022354Y009290D02*
X022254Y009290D01*
X022254Y009190D01*
X022254Y008790D02*
X022254Y008690D01*
X022354Y008690D01*
X022754Y008690D02*
X022854Y008690D01*
X022854Y008790D01*
X022854Y009690D02*
X022754Y009690D01*
X022854Y009690D02*
X022854Y009790D01*
X022854Y010190D02*
X022854Y010290D01*
X022754Y010290D01*
X022354Y010290D02*
X022254Y010290D01*
X022254Y010190D01*
X022254Y009790D02*
X022254Y009690D01*
X022354Y009690D01*
X023254Y009690D02*
X023254Y009790D01*
X023254Y009690D02*
X023354Y009690D01*
X023754Y009690D02*
X023854Y009690D01*
X023854Y009790D01*
X023854Y010190D02*
X023854Y010290D01*
X023754Y010290D01*
X023354Y010290D02*
X023254Y010290D01*
X023254Y010190D01*
X023254Y010690D02*
X023254Y010790D01*
X023254Y010690D02*
X023354Y010690D01*
X023754Y010690D02*
X023854Y010690D01*
X023854Y010790D01*
X023854Y011190D02*
X023854Y011290D01*
X023754Y011290D01*
X023354Y011290D02*
X023254Y011290D01*
X023254Y011190D01*
X022854Y011190D02*
X022854Y011290D01*
X022754Y011290D01*
X022354Y011290D02*
X022254Y011290D01*
X022254Y011190D01*
X022254Y010790D02*
X022254Y010690D01*
X022354Y010690D01*
X022754Y010690D02*
X022854Y010690D01*
X022854Y010790D01*
X022854Y011690D02*
X022754Y011690D01*
X022854Y011690D02*
X022854Y011790D01*
X022854Y012190D02*
X022854Y012290D01*
X022754Y012290D01*
X022354Y012290D02*
X022254Y012290D01*
X022254Y012190D01*
X022254Y011790D02*
X022254Y011690D01*
X022354Y011690D01*
X023254Y011690D02*
X023254Y011790D01*
X023254Y011690D02*
X023354Y011690D01*
X023754Y011690D02*
X023854Y011690D01*
X023854Y011790D01*
X023854Y012190D02*
X023854Y012290D01*
X023754Y012290D01*
X023354Y012290D02*
X023254Y012290D01*
X023254Y012190D01*
X022854Y012690D02*
X022754Y012690D01*
X022854Y012690D02*
X022854Y012790D01*
X022854Y013190D02*
X022854Y013290D01*
X022754Y013290D01*
X022354Y013290D02*
X022254Y013290D01*
X022254Y013190D01*
X022254Y012790D02*
X022254Y012690D01*
X022354Y012690D01*
X024254Y012290D02*
X024254Y012190D01*
X024254Y012290D02*
X024354Y012290D01*
X024754Y012290D02*
X024854Y012290D01*
X024854Y012190D01*
X024854Y011790D02*
X024854Y011690D01*
X024754Y011690D01*
X024354Y011690D02*
X024254Y011690D01*
X024254Y011790D01*
X024254Y011290D02*
X024254Y011190D01*
X024254Y011290D02*
X024354Y011290D01*
X024754Y011290D02*
X024854Y011290D01*
X024854Y011190D01*
X024854Y010790D02*
X024854Y010690D01*
X024754Y010690D01*
X024354Y010690D02*
X024254Y010690D01*
X024254Y010790D01*
X024254Y010290D02*
X024254Y010190D01*
X024254Y010290D02*
X024354Y010290D01*
X024754Y010290D02*
X024854Y010290D01*
X024854Y010190D01*
X024854Y009790D02*
X024854Y009690D01*
X024754Y009690D01*
X024354Y009690D02*
X024254Y009690D01*
X024254Y009790D01*
X024254Y009290D02*
X024254Y009190D01*
X024254Y009290D02*
X024354Y009290D01*
X024754Y009290D02*
X024854Y009290D01*
X024854Y009190D01*
X024854Y008790D02*
X024854Y008690D01*
X024754Y008690D01*
X024354Y008690D02*
X024254Y008690D01*
X024254Y008790D01*
X024254Y008290D02*
X024254Y008190D01*
X024254Y008290D02*
X024354Y008290D01*
X024754Y008290D02*
X024854Y008290D01*
X024854Y008190D01*
X024854Y007790D02*
X024854Y007690D01*
X024754Y007690D01*
X024354Y007690D02*
X024254Y007690D01*
X024254Y007790D01*
X024254Y007290D02*
X024254Y007190D01*
X024254Y007290D02*
X024354Y007290D01*
X024754Y007290D02*
X024854Y007290D01*
X024854Y007190D01*
X024854Y006790D02*
X024854Y006690D01*
X024754Y006690D01*
X024354Y006690D02*
X024254Y006690D01*
X024254Y006790D01*
X024254Y006290D02*
X024254Y006190D01*
X024254Y006290D02*
X024354Y006290D01*
X024754Y006290D02*
X024854Y006290D01*
X024854Y006190D01*
X024854Y005790D02*
X024854Y005690D01*
X024754Y005690D01*
X024354Y005690D02*
X024254Y005690D01*
X024254Y005790D01*
X024254Y005290D02*
X024254Y005190D01*
X024254Y005290D02*
X024354Y005290D01*
X024754Y005290D02*
X024854Y005290D01*
X024854Y005190D01*
X024854Y004790D02*
X024854Y004690D01*
X024754Y004690D01*
X024354Y004690D02*
X024254Y004690D01*
X024254Y004790D01*
X019854Y004790D02*
X019854Y004690D01*
X019754Y004690D01*
X019354Y004690D02*
X019254Y004690D01*
X019254Y004790D01*
X018854Y004790D02*
X018854Y004690D01*
X018754Y004690D01*
X018354Y004690D02*
X018254Y004690D01*
X018254Y004790D01*
X018254Y005190D02*
X018254Y005290D01*
X018354Y005290D01*
X018754Y005290D02*
X018854Y005290D01*
X018854Y005190D01*
X019254Y005190D02*
X019254Y005290D01*
X019354Y005290D01*
X019754Y005290D02*
X019854Y005290D01*
X019854Y005190D01*
X019854Y005690D02*
X019754Y005690D01*
X019854Y005690D02*
X019854Y005790D01*
X019854Y006190D02*
X019854Y006290D01*
X019754Y006290D01*
X019354Y006290D02*
X019254Y006290D01*
X019254Y006190D01*
X018854Y006190D02*
X018854Y006290D01*
X018754Y006290D01*
X018354Y006290D02*
X018254Y006290D01*
X018254Y006190D01*
X018254Y005790D02*
X018254Y005690D01*
X018354Y005690D01*
X018754Y005690D02*
X018854Y005690D01*
X018854Y005790D01*
X019254Y005790D02*
X019254Y005690D01*
X019354Y005690D01*
X019354Y006690D02*
X019254Y006690D01*
X019254Y006790D01*
X018854Y006790D02*
X018854Y006690D01*
X018754Y006690D01*
X018354Y006690D02*
X018254Y006690D01*
X018254Y006790D01*
X018254Y007190D02*
X018254Y007290D01*
X018354Y007290D01*
X018754Y007290D02*
X018854Y007290D01*
X018854Y007190D01*
X019254Y007190D02*
X019254Y007290D01*
X019354Y007290D01*
X019754Y007290D02*
X019854Y007290D01*
X019854Y007190D01*
X019854Y006790D02*
X019854Y006690D01*
X019754Y006690D01*
X019754Y007690D02*
X019854Y007690D01*
X019854Y007790D01*
X019854Y008190D02*
X019854Y008290D01*
X019754Y008290D01*
X019354Y008290D02*
X019254Y008290D01*
X019254Y008190D01*
X018854Y008190D02*
X018854Y008290D01*
X018754Y008290D01*
X018354Y008290D02*
X018254Y008290D01*
X018254Y008190D01*
X018254Y007790D02*
X018254Y007690D01*
X018354Y007690D01*
X018754Y007690D02*
X018854Y007690D01*
X018854Y007790D01*
X019254Y007790D02*
X019254Y007690D01*
X019354Y007690D01*
X019354Y008690D02*
X019254Y008690D01*
X019254Y008790D01*
X018854Y008790D02*
X018854Y008690D01*
X018754Y008690D01*
X018354Y008690D02*
X018254Y008690D01*
X018254Y008790D01*
X018254Y009190D02*
X018254Y009290D01*
X018354Y009290D01*
X018754Y009290D02*
X018854Y009290D01*
X018854Y009190D01*
X019254Y009190D02*
X019254Y009290D01*
X019354Y009290D01*
X019754Y009290D02*
X019854Y009290D01*
X019854Y009190D01*
X019854Y008790D02*
X019854Y008690D01*
X019754Y008690D01*
X019754Y009690D02*
X019854Y009690D01*
X019854Y009790D01*
X019854Y010190D02*
X019854Y010290D01*
X019754Y010290D01*
X019354Y010290D02*
X019254Y010290D01*
X019254Y010190D01*
X018854Y010190D02*
X018854Y010290D01*
X018754Y010290D01*
X018354Y010290D02*
X018254Y010290D01*
X018254Y010190D01*
X018254Y009790D02*
X018254Y009690D01*
X018354Y009690D01*
X018754Y009690D02*
X018854Y009690D01*
X018854Y009790D01*
X019254Y009790D02*
X019254Y009690D01*
X019354Y009690D01*
X019354Y010690D02*
X019254Y010690D01*
X019254Y010790D01*
X018854Y010790D02*
X018854Y010690D01*
X018754Y010690D01*
X018354Y010690D02*
X018254Y010690D01*
X018254Y010790D01*
X018254Y011190D02*
X018254Y011290D01*
X018354Y011290D01*
X018754Y011290D02*
X018854Y011290D01*
X018854Y011190D01*
X019254Y011190D02*
X019254Y011290D01*
X019354Y011290D01*
X019754Y011290D02*
X019854Y011290D01*
X019854Y011190D01*
X019854Y010790D02*
X019854Y010690D01*
X019754Y010690D01*
X019754Y011690D02*
X019854Y011690D01*
X019854Y011790D01*
X019854Y012190D02*
X019854Y012290D01*
X019754Y012290D01*
X019354Y012290D02*
X019254Y012290D01*
X019254Y012190D01*
X018854Y012190D02*
X018854Y012290D01*
X018754Y012290D01*
X018354Y012290D02*
X018254Y012290D01*
X018254Y012190D01*
X018254Y011790D02*
X018254Y011690D01*
X018354Y011690D01*
X018754Y011690D02*
X018854Y011690D01*
X018854Y011790D01*
X019254Y011790D02*
X019254Y011690D01*
X019354Y011690D01*
X017854Y011690D02*
X017754Y011690D01*
X017854Y011690D02*
X017854Y011790D01*
X017854Y012190D02*
X017854Y012290D01*
X017754Y012290D01*
X017354Y012290D02*
X017254Y012290D01*
X017254Y012190D01*
X017254Y011790D02*
X017254Y011690D01*
X017354Y011690D01*
X017354Y011290D02*
X017254Y011290D01*
X017254Y011190D01*
X017254Y010790D02*
X017254Y010690D01*
X017354Y010690D01*
X017354Y010290D02*
X017254Y010290D01*
X017254Y010190D01*
X017254Y009790D02*
X017254Y009690D01*
X017354Y009690D01*
X017354Y009290D02*
X017254Y009290D01*
X017254Y009190D01*
X017254Y008790D02*
X017254Y008690D01*
X017354Y008690D01*
X017354Y008290D02*
X017254Y008290D01*
X017254Y008190D01*
X017254Y007790D02*
X017254Y007690D01*
X017354Y007690D01*
X017354Y007290D02*
X017254Y007290D01*
X017254Y007190D01*
X017254Y006790D02*
X017254Y006690D01*
X017354Y006690D01*
X017354Y006290D02*
X017254Y006290D01*
X017254Y006190D01*
X017254Y005790D02*
X017254Y005690D01*
X017354Y005690D01*
X017354Y005290D02*
X017254Y005290D01*
X017254Y005190D01*
X017254Y004790D02*
X017254Y004690D01*
X017354Y004690D01*
X017754Y004690D02*
X017854Y004690D01*
X017854Y004790D01*
X017854Y005190D02*
X017854Y005290D01*
X017754Y005290D01*
X017754Y005690D02*
X017854Y005690D01*
X017854Y005790D01*
X017854Y006190D02*
X017854Y006290D01*
X017754Y006290D01*
X017754Y006690D02*
X017854Y006690D01*
X017854Y006790D01*
X017854Y007190D02*
X017854Y007290D01*
X017754Y007290D01*
X017754Y007690D02*
X017854Y007690D01*
X017854Y007790D01*
X017854Y008190D02*
X017854Y008290D01*
X017754Y008290D01*
X017754Y008690D02*
X017854Y008690D01*
X017854Y008790D01*
X017854Y009190D02*
X017854Y009290D01*
X017754Y009290D01*
X017754Y009690D02*
X017854Y009690D01*
X017854Y009790D01*
X017854Y010190D02*
X017854Y010290D01*
X017754Y010290D01*
X017754Y010690D02*
X017854Y010690D01*
X017854Y010790D01*
X017854Y011190D02*
X017854Y011290D01*
X017754Y011290D01*
X016604Y012140D02*
X016604Y009840D01*
X010004Y009840D01*
X010004Y010590D01*
X010043Y010592D01*
X010082Y010598D01*
X010120Y010607D01*
X010157Y010620D01*
X010193Y010637D01*
X010226Y010657D01*
X010258Y010681D01*
X010287Y010707D01*
X010313Y010736D01*
X010337Y010768D01*
X010357Y010801D01*
X010374Y010837D01*
X010387Y010874D01*
X010396Y010912D01*
X010402Y010951D01*
X010404Y010990D01*
X010402Y011029D01*
X010396Y011068D01*
X010387Y011106D01*
X010374Y011143D01*
X010357Y011179D01*
X010337Y011212D01*
X010313Y011244D01*
X010287Y011273D01*
X010258Y011299D01*
X010226Y011323D01*
X010193Y011343D01*
X010157Y011360D01*
X010120Y011373D01*
X010082Y011382D01*
X010043Y011388D01*
X010004Y011390D01*
X010004Y012140D01*
X016604Y012140D01*
X016154Y008840D02*
X013454Y008840D01*
X013437Y008838D01*
X013420Y008834D01*
X013404Y008827D01*
X013390Y008817D01*
X013377Y008804D01*
X013367Y008790D01*
X013360Y008774D01*
X013356Y008757D01*
X013354Y008740D01*
X013354Y007740D01*
X013356Y007723D01*
X013360Y007706D01*
X013367Y007690D01*
X013377Y007676D01*
X013390Y007663D01*
X013404Y007653D01*
X013420Y007646D01*
X013437Y007642D01*
X013454Y007640D01*
X016154Y007640D01*
X016171Y007642D01*
X016188Y007646D01*
X016204Y007653D01*
X016218Y007663D01*
X016231Y007676D01*
X016241Y007690D01*
X016248Y007706D01*
X016252Y007723D01*
X016254Y007740D01*
X016254Y008740D01*
X016252Y008757D01*
X016248Y008774D01*
X016241Y008790D01*
X016231Y008804D01*
X016218Y008817D01*
X016204Y008827D01*
X016188Y008834D01*
X016171Y008838D01*
X016154Y008840D01*
X015404Y008240D02*
X014934Y008240D01*
X014684Y008240D02*
X014204Y008240D01*
X013948Y007140D02*
X013548Y007140D01*
X013531Y007138D01*
X013514Y007134D01*
X013498Y007127D01*
X013484Y007117D01*
X013471Y007104D01*
X013461Y007090D01*
X013454Y007074D01*
X013450Y007057D01*
X013448Y007040D01*
X013448Y006440D01*
X013450Y006423D01*
X013454Y006406D01*
X013461Y006390D01*
X013471Y006376D01*
X013484Y006363D01*
X013498Y006353D01*
X013514Y006346D01*
X013531Y006342D01*
X013548Y006340D01*
X013948Y006340D01*
X013998Y006390D01*
X015111Y006390D01*
X015161Y006340D01*
X015561Y006340D01*
X015578Y006342D01*
X015595Y006346D01*
X015611Y006353D01*
X015625Y006363D01*
X015638Y006376D01*
X015648Y006390D01*
X015655Y006406D01*
X015659Y006423D01*
X015661Y006440D01*
X015661Y007040D01*
X015659Y007057D01*
X015655Y007074D01*
X015648Y007090D01*
X015638Y007104D01*
X015625Y007117D01*
X015611Y007127D01*
X015595Y007134D01*
X015578Y007138D01*
X015561Y007140D01*
X015161Y007140D01*
X015111Y007090D01*
X013998Y007090D01*
X013948Y007140D01*
X013948Y005640D02*
X013548Y005640D01*
X013531Y005638D01*
X013514Y005634D01*
X013498Y005627D01*
X013484Y005617D01*
X013471Y005604D01*
X013461Y005590D01*
X013454Y005574D01*
X013450Y005557D01*
X013448Y005540D01*
X013448Y004940D01*
X013450Y004923D01*
X013454Y004906D01*
X013461Y004890D01*
X013471Y004876D01*
X013484Y004863D01*
X013498Y004853D01*
X013514Y004846D01*
X013531Y004842D01*
X013548Y004840D01*
X013948Y004840D01*
X013998Y004890D01*
X015111Y004890D01*
X015161Y004840D01*
X015561Y004840D01*
X015578Y004842D01*
X015595Y004846D01*
X015611Y004853D01*
X015625Y004863D01*
X015638Y004876D01*
X015648Y004890D01*
X015655Y004906D01*
X015659Y004923D01*
X015661Y004940D01*
X015661Y005540D01*
X015659Y005557D01*
X015655Y005574D01*
X015648Y005590D01*
X015638Y005604D01*
X015625Y005617D01*
X015611Y005627D01*
X015595Y005634D01*
X015578Y005638D01*
X015561Y005640D01*
X015161Y005640D01*
X015111Y005590D01*
X013998Y005590D01*
X013948Y005640D01*
X010504Y007740D02*
X010504Y008740D01*
X010502Y008757D01*
X010498Y008774D01*
X010491Y008790D01*
X010481Y008804D01*
X010468Y008817D01*
X010454Y008827D01*
X010438Y008834D01*
X010421Y008838D01*
X010404Y008840D01*
X007704Y008840D01*
X007687Y008838D01*
X007670Y008834D01*
X007654Y008827D01*
X007640Y008817D01*
X007627Y008804D01*
X007617Y008790D01*
X007610Y008774D01*
X007606Y008757D01*
X007604Y008740D01*
X007604Y007740D01*
X007606Y007723D01*
X007610Y007706D01*
X007617Y007690D01*
X007627Y007676D01*
X007640Y007663D01*
X007654Y007653D01*
X007670Y007646D01*
X007687Y007642D01*
X007704Y007640D01*
X010404Y007640D01*
X010421Y007642D01*
X010438Y007646D01*
X010454Y007653D01*
X010468Y007663D01*
X010481Y007676D01*
X010491Y007690D01*
X010498Y007706D01*
X010502Y007723D01*
X010504Y007740D01*
X009654Y008240D02*
X009174Y008240D01*
X008924Y008240D02*
X008454Y008240D01*
X008554Y009540D02*
X009554Y009540D01*
X009571Y009542D01*
X009588Y009546D01*
X009604Y009553D01*
X009618Y009563D01*
X009631Y009576D01*
X009641Y009590D01*
X009648Y009606D01*
X009652Y009623D01*
X009654Y009640D01*
X009654Y012340D01*
X009652Y012357D01*
X009648Y012374D01*
X009641Y012390D01*
X009631Y012404D01*
X009618Y012417D01*
X009604Y012427D01*
X009588Y012434D01*
X009571Y012438D01*
X009554Y012440D01*
X008554Y012440D01*
X008537Y012438D01*
X008520Y012434D01*
X008504Y012427D01*
X008490Y012417D01*
X008477Y012404D01*
X008467Y012390D01*
X008460Y012374D01*
X008456Y012357D01*
X008454Y012340D01*
X008454Y009640D01*
X008456Y009623D01*
X008460Y009606D01*
X008467Y009590D01*
X008477Y009576D01*
X008490Y009563D01*
X008504Y009553D01*
X008520Y009546D01*
X008537Y009542D01*
X008554Y009540D01*
X009054Y010390D02*
X009054Y010860D01*
X009054Y011110D02*
X009054Y011590D01*
X008004Y013040D02*
X010704Y013040D01*
X010721Y013042D01*
X010738Y013046D01*
X010754Y013053D01*
X010768Y013063D01*
X010781Y013076D01*
X010791Y013090D01*
X010798Y013106D01*
X010802Y013123D01*
X010804Y013140D01*
X010804Y014140D01*
X010802Y014157D01*
X010798Y014174D01*
X010791Y014190D01*
X010781Y014204D01*
X010768Y014217D01*
X010754Y014227D01*
X010738Y014234D01*
X010721Y014238D01*
X010704Y014240D01*
X008004Y014240D01*
X007987Y014238D01*
X007970Y014234D01*
X007954Y014227D01*
X007940Y014217D01*
X007927Y014204D01*
X007917Y014190D01*
X007910Y014174D01*
X007906Y014157D01*
X007904Y014140D01*
X007904Y013140D01*
X007906Y013123D01*
X007910Y013106D01*
X007917Y013090D01*
X007927Y013076D01*
X007940Y013063D01*
X007954Y013053D01*
X007970Y013046D01*
X007987Y013042D01*
X008004Y013040D01*
X008754Y013640D02*
X009224Y013640D01*
X009474Y013640D02*
X009954Y013640D01*
X007214Y011190D02*
X006964Y011190D01*
X007094Y011060D02*
X007094Y011320D01*
X005314Y010740D02*
X005316Y010810D01*
X005322Y010880D01*
X005332Y010950D01*
X005346Y011018D01*
X005363Y011086D01*
X005385Y011153D01*
X005410Y011219D01*
X005439Y011283D01*
X005471Y011345D01*
X005507Y011405D01*
X005547Y011463D01*
X005589Y011519D01*
X005635Y011572D01*
X005683Y011623D01*
X005735Y011671D01*
X005789Y011716D01*
X005845Y011757D01*
X005904Y011796D01*
X005965Y011831D01*
X006027Y011863D01*
X006092Y011891D01*
X006157Y011915D01*
X006225Y011935D01*
X006293Y011952D01*
X006362Y011965D01*
X006431Y011974D01*
X006501Y011979D01*
X006572Y011980D01*
X006642Y011977D01*
X006712Y011970D01*
X006781Y011959D01*
X006849Y011944D01*
X006917Y011926D01*
X006984Y011903D01*
X007049Y011877D01*
X007112Y011847D01*
X007174Y011814D01*
X007234Y011777D01*
X007291Y011737D01*
X007347Y011694D01*
X007399Y011647D01*
X007449Y011598D01*
X007496Y011546D01*
X007540Y011491D01*
X007581Y011434D01*
X007619Y011375D01*
X007653Y011314D01*
X007684Y011251D01*
X007711Y011186D01*
X007734Y011120D01*
X007754Y011052D01*
X007770Y010984D01*
X007782Y010915D01*
X007790Y010845D01*
X007794Y010775D01*
X007794Y010705D01*
X007790Y010635D01*
X007782Y010565D01*
X007770Y010496D01*
X007754Y010428D01*
X007734Y010360D01*
X007711Y010294D01*
X007684Y010229D01*
X007653Y010166D01*
X007619Y010105D01*
X007581Y010046D01*
X007540Y009989D01*
X007496Y009934D01*
X007449Y009882D01*
X007399Y009833D01*
X007347Y009786D01*
X007291Y009743D01*
X007234Y009703D01*
X007174Y009666D01*
X007112Y009633D01*
X007049Y009603D01*
X006984Y009577D01*
X006917Y009554D01*
X006849Y009536D01*
X006781Y009521D01*
X006712Y009510D01*
X006642Y009503D01*
X006572Y009500D01*
X006501Y009501D01*
X006431Y009506D01*
X006362Y009515D01*
X006293Y009528D01*
X006225Y009545D01*
X006157Y009565D01*
X006092Y009589D01*
X006027Y009617D01*
X005965Y009649D01*
X005904Y009684D01*
X005845Y009723D01*
X005789Y009764D01*
X005735Y009809D01*
X005683Y009857D01*
X005635Y009908D01*
X005589Y009961D01*
X005547Y010017D01*
X005507Y010075D01*
X005471Y010135D01*
X005439Y010197D01*
X005410Y010261D01*
X005385Y010327D01*
X005363Y010394D01*
X005346Y010462D01*
X005332Y010530D01*
X005322Y010600D01*
X005316Y010670D01*
X005314Y010740D01*
X005354Y008346D02*
X004754Y008346D01*
X004737Y008344D01*
X004720Y008340D01*
X004704Y008333D01*
X004690Y008323D01*
X004677Y008310D01*
X004667Y008296D01*
X004660Y008280D01*
X004656Y008263D01*
X004654Y008246D01*
X004654Y007846D01*
X004704Y007796D01*
X004704Y006683D01*
X004654Y006633D01*
X004654Y006233D01*
X004656Y006216D01*
X004660Y006199D01*
X004667Y006183D01*
X004677Y006169D01*
X004690Y006156D01*
X004704Y006146D01*
X004720Y006139D01*
X004737Y006135D01*
X004754Y006133D01*
X005354Y006133D01*
X005371Y006135D01*
X005388Y006139D01*
X005404Y006146D01*
X005418Y006156D01*
X005431Y006169D01*
X005441Y006183D01*
X005448Y006199D01*
X005452Y006216D01*
X005454Y006233D01*
X005454Y006633D01*
X005404Y006683D01*
X005404Y007796D01*
X005454Y007846D01*
X005454Y008246D01*
X005452Y008263D01*
X005448Y008280D01*
X005441Y008296D01*
X005431Y008310D01*
X005418Y008323D01*
X005404Y008333D01*
X005388Y008340D01*
X005371Y008344D01*
X005354Y008346D01*
X005824Y003578D02*
X005824Y003351D01*
X005824Y003465D02*
X005484Y003465D01*
X005597Y003351D01*
X005484Y003210D02*
X005484Y002983D01*
X005484Y003096D02*
X005824Y003096D01*
X005768Y002842D02*
X005541Y002842D01*
X005484Y002785D01*
X005484Y002671D01*
X005541Y002615D01*
X005768Y002615D01*
X005824Y002671D01*
X005824Y002785D01*
X005768Y002842D01*
X005654Y002473D02*
X005541Y002473D01*
X005484Y002417D01*
X005484Y002246D01*
X005824Y002246D01*
X005711Y002246D02*
X005711Y002417D01*
X005654Y002473D01*
X003304Y002990D02*
X003306Y003053D01*
X003312Y003115D01*
X003322Y003177D01*
X003335Y003239D01*
X003353Y003299D01*
X003374Y003358D01*
X003399Y003416D01*
X003428Y003472D01*
X003460Y003526D01*
X003495Y003578D01*
X003533Y003627D01*
X003575Y003675D01*
X003619Y003719D01*
X003667Y003761D01*
X003716Y003799D01*
X003768Y003834D01*
X003822Y003866D01*
X003878Y003895D01*
X003936Y003920D01*
X003995Y003941D01*
X004055Y003959D01*
X004117Y003972D01*
X004179Y003982D01*
X004241Y003988D01*
X004304Y003990D01*
X004367Y003988D01*
X004429Y003982D01*
X004491Y003972D01*
X004553Y003959D01*
X004613Y003941D01*
X004672Y003920D01*
X004730Y003895D01*
X004786Y003866D01*
X004840Y003834D01*
X004892Y003799D01*
X004941Y003761D01*
X004989Y003719D01*
X005033Y003675D01*
X005075Y003627D01*
X005113Y003578D01*
X005148Y003526D01*
X005180Y003472D01*
X005209Y003416D01*
X005234Y003358D01*
X005255Y003299D01*
X005273Y003239D01*
X005286Y003177D01*
X005296Y003115D01*
X005302Y003053D01*
X005304Y002990D01*
X005302Y002927D01*
X005296Y002865D01*
X005286Y002803D01*
X005273Y002741D01*
X005255Y002681D01*
X005234Y002622D01*
X005209Y002564D01*
X005180Y002508D01*
X005148Y002454D01*
X005113Y002402D01*
X005075Y002353D01*
X005033Y002305D01*
X004989Y002261D01*
X004941Y002219D01*
X004892Y002181D01*
X004840Y002146D01*
X004786Y002114D01*
X004730Y002085D01*
X004672Y002060D01*
X004613Y002039D01*
X004553Y002021D01*
X004491Y002008D01*
X004429Y001998D01*
X004367Y001992D01*
X004304Y001990D01*
X004241Y001992D01*
X004179Y001998D01*
X004117Y002008D01*
X004055Y002021D01*
X003995Y002039D01*
X003936Y002060D01*
X003878Y002085D01*
X003822Y002114D01*
X003768Y002146D01*
X003716Y002181D01*
X003667Y002219D01*
X003619Y002261D01*
X003575Y002305D01*
X003533Y002353D01*
X003495Y002402D01*
X003460Y002454D01*
X003428Y002508D01*
X003399Y002564D01*
X003374Y002622D01*
X003353Y002681D01*
X003335Y002741D01*
X003322Y002803D01*
X003312Y002865D01*
X003306Y002927D01*
X003304Y002990D01*
X005254Y014383D02*
X005854Y014383D01*
X005871Y014385D01*
X005888Y014389D01*
X005904Y014396D01*
X005918Y014406D01*
X005931Y014419D01*
X005941Y014433D01*
X005948Y014449D01*
X005952Y014466D01*
X005954Y014483D01*
X005954Y014883D01*
X005904Y014933D01*
X005904Y016046D01*
X005954Y016096D01*
X005954Y016496D01*
X005952Y016513D01*
X005948Y016530D01*
X005941Y016546D01*
X005931Y016560D01*
X005918Y016573D01*
X005904Y016583D01*
X005888Y016590D01*
X005871Y016594D01*
X005854Y016596D01*
X005254Y016596D01*
X005237Y016594D01*
X005220Y016590D01*
X005204Y016583D01*
X005190Y016573D01*
X005177Y016560D01*
X005167Y016546D01*
X005160Y016530D01*
X005156Y016513D01*
X005154Y016496D01*
X005154Y016096D01*
X005204Y016046D01*
X005204Y014933D01*
X005154Y014883D01*
X005154Y014483D01*
X005156Y014466D01*
X005160Y014449D01*
X005167Y014433D01*
X005177Y014419D01*
X005190Y014406D01*
X005204Y014396D01*
X005220Y014389D01*
X005237Y014385D01*
X005254Y014383D01*
X005484Y018521D02*
X005484Y018692D01*
X005541Y018748D01*
X005654Y018748D01*
X005711Y018692D01*
X005711Y018521D01*
X005824Y018521D02*
X005484Y018521D01*
X005541Y018890D02*
X005768Y018890D01*
X005824Y018946D01*
X005824Y019060D01*
X005768Y019117D01*
X005541Y019117D01*
X005484Y019060D01*
X005484Y018946D01*
X005541Y018890D01*
X005484Y019258D02*
X005484Y019485D01*
X005484Y019371D02*
X005824Y019371D01*
X005824Y019626D02*
X005597Y019853D01*
X005541Y019853D01*
X005484Y019796D01*
X005484Y019683D01*
X005541Y019626D01*
X005824Y019626D02*
X005824Y019853D01*
X013448Y017540D02*
X013448Y016940D01*
X013450Y016923D01*
X013454Y016906D01*
X013461Y016890D01*
X013471Y016876D01*
X013484Y016863D01*
X013498Y016853D01*
X013514Y016846D01*
X013531Y016842D01*
X013548Y016840D01*
X013948Y016840D01*
X013998Y016890D01*
X015111Y016890D01*
X015161Y016840D01*
X015561Y016840D01*
X015578Y016842D01*
X015595Y016846D01*
X015611Y016853D01*
X015625Y016863D01*
X015638Y016876D01*
X015648Y016890D01*
X015655Y016906D01*
X015659Y016923D01*
X015661Y016940D01*
X015661Y017540D01*
X015659Y017557D01*
X015655Y017574D01*
X015648Y017590D01*
X015638Y017604D01*
X015625Y017617D01*
X015611Y017627D01*
X015595Y017634D01*
X015578Y017638D01*
X015561Y017640D01*
X015161Y017640D01*
X015111Y017590D01*
X013998Y017590D01*
X013948Y017640D01*
X013548Y017640D01*
X013531Y017638D01*
X013514Y017634D01*
X013498Y017627D01*
X013484Y017617D01*
X013471Y017604D01*
X013461Y017590D01*
X013454Y017574D01*
X013450Y017557D01*
X013448Y017540D01*
X014504Y016200D02*
X014504Y015950D01*
X014634Y016080D02*
X014374Y016080D01*
X013970Y015540D02*
X013972Y015602D01*
X013978Y015665D01*
X013988Y015726D01*
X014002Y015787D01*
X014019Y015847D01*
X014040Y015906D01*
X014066Y015963D01*
X014094Y016018D01*
X014126Y016072D01*
X014162Y016123D01*
X014200Y016173D01*
X014242Y016219D01*
X014286Y016263D01*
X014334Y016304D01*
X014383Y016342D01*
X014435Y016376D01*
X014489Y016407D01*
X014545Y016435D01*
X014603Y016459D01*
X014662Y016480D01*
X014722Y016496D01*
X014783Y016509D01*
X014845Y016518D01*
X014907Y016523D01*
X014970Y016524D01*
X015032Y016521D01*
X015094Y016514D01*
X015156Y016503D01*
X015216Y016488D01*
X015276Y016470D01*
X015334Y016448D01*
X015391Y016422D01*
X015446Y016392D01*
X015499Y016359D01*
X015550Y016323D01*
X015598Y016284D01*
X015644Y016241D01*
X015687Y016196D01*
X015727Y016148D01*
X015764Y016098D01*
X015798Y016045D01*
X015829Y015991D01*
X015855Y015935D01*
X015879Y015877D01*
X015898Y015817D01*
X015914Y015757D01*
X015926Y015695D01*
X015934Y015634D01*
X015938Y015571D01*
X015938Y015509D01*
X015934Y015446D01*
X015926Y015385D01*
X015914Y015323D01*
X015898Y015263D01*
X015879Y015203D01*
X015855Y015145D01*
X015829Y015089D01*
X015798Y015035D01*
X015764Y014982D01*
X015727Y014932D01*
X015687Y014884D01*
X015644Y014839D01*
X015598Y014796D01*
X015550Y014757D01*
X015499Y014721D01*
X015446Y014688D01*
X015391Y014658D01*
X015334Y014632D01*
X015276Y014610D01*
X015216Y014592D01*
X015156Y014577D01*
X015094Y014566D01*
X015032Y014559D01*
X014970Y014556D01*
X014907Y014557D01*
X014845Y014562D01*
X014783Y014571D01*
X014722Y014584D01*
X014662Y014600D01*
X014603Y014621D01*
X014545Y014645D01*
X014489Y014673D01*
X014435Y014704D01*
X014383Y014738D01*
X014334Y014776D01*
X014286Y014817D01*
X014242Y014861D01*
X014200Y014907D01*
X014162Y014957D01*
X014126Y015008D01*
X014094Y015062D01*
X014066Y015117D01*
X014040Y015174D01*
X014019Y015233D01*
X014002Y015293D01*
X013988Y015354D01*
X013978Y015415D01*
X013972Y015478D01*
X013970Y015540D01*
X018434Y018521D02*
X018434Y018692D01*
X018491Y018748D01*
X018604Y018748D01*
X018661Y018692D01*
X018661Y018521D01*
X018774Y018521D02*
X018434Y018521D01*
X018491Y018890D02*
X018718Y018890D01*
X018774Y018946D01*
X018774Y019060D01*
X018718Y019117D01*
X018491Y019117D01*
X018434Y019060D01*
X018434Y018946D01*
X018491Y018890D01*
X018434Y019258D02*
X018434Y019485D01*
X018434Y019371D02*
X018774Y019371D01*
X018604Y019626D02*
X018604Y019853D01*
X018774Y019796D02*
X018434Y019796D01*
X018604Y019626D01*
X018611Y003651D02*
X018668Y003651D01*
X018724Y003595D01*
X018724Y003481D01*
X018668Y003425D01*
X018554Y003538D02*
X018554Y003595D01*
X018611Y003651D01*
X018554Y003595D02*
X018497Y003651D01*
X018441Y003651D01*
X018384Y003595D01*
X018384Y003481D01*
X018441Y003425D01*
X018384Y003283D02*
X018384Y003056D01*
X018384Y003170D02*
X018724Y003170D01*
X018668Y002915D02*
X018441Y002915D01*
X018384Y002858D01*
X018384Y002745D01*
X018441Y002688D01*
X018668Y002688D01*
X018724Y002745D01*
X018724Y002858D01*
X018668Y002915D01*
X018554Y002547D02*
X018441Y002547D01*
X018384Y002490D01*
X018384Y002320D01*
X018724Y002320D01*
X018611Y002320D02*
X018611Y002490D01*
X018554Y002547D01*
D12*
X021804Y014240D02*
X022804Y014240D01*
X022804Y014490D01*
X023304Y014490D01*
X023054Y014490D02*
X022804Y014490D01*
X022804Y015490D01*
X023304Y015490D01*
X022804Y015490D02*
X022804Y015740D01*
X021804Y015740D01*
X021750Y015738D01*
X021697Y015732D01*
X021645Y015723D01*
X021593Y015710D01*
X021542Y015693D01*
X021492Y015672D01*
X021445Y015648D01*
X021399Y015621D01*
X021355Y015590D01*
X021313Y015557D01*
X021274Y015520D01*
X021237Y015481D01*
X021204Y015439D01*
X021173Y015395D01*
X021146Y015349D01*
X021122Y015302D01*
X021101Y015252D01*
X021084Y015201D01*
X021071Y015149D01*
X021062Y015097D01*
X021056Y015044D01*
X021054Y014990D01*
X021056Y014936D01*
X021062Y014883D01*
X021071Y014831D01*
X021084Y014779D01*
X021101Y014728D01*
X021122Y014678D01*
X021146Y014631D01*
X021173Y014585D01*
X021204Y014541D01*
X021237Y014499D01*
X021274Y014460D01*
X021313Y014423D01*
X021355Y014390D01*
X021399Y014359D01*
X021445Y014332D01*
X021492Y014308D01*
X021542Y014287D01*
X021593Y014270D01*
X021645Y014257D01*
X021697Y014248D01*
X021750Y014242D01*
X021804Y014240D01*
D13*
X020554Y014990D02*
X020556Y015021D01*
X020562Y015052D01*
X020572Y015082D01*
X020585Y015110D01*
X020602Y015137D01*
X020622Y015161D01*
X020645Y015183D01*
X020670Y015201D01*
X020698Y015216D01*
X020727Y015228D01*
X020757Y015236D01*
X020788Y015240D01*
X020820Y015240D01*
X020851Y015236D01*
X020881Y015228D01*
X020910Y015216D01*
X020938Y015201D01*
X020963Y015183D01*
X020986Y015161D01*
X021006Y015137D01*
X021023Y015110D01*
X021036Y015082D01*
X021046Y015052D01*
X021052Y015021D01*
X021054Y014990D01*
X021052Y014959D01*
X021046Y014928D01*
X021036Y014898D01*
X021023Y014870D01*
X021006Y014843D01*
X020986Y014819D01*
X020963Y014797D01*
X020938Y014779D01*
X020910Y014764D01*
X020881Y014752D01*
X020851Y014744D01*
X020820Y014740D01*
X020788Y014740D01*
X020757Y014744D01*
X020727Y014752D01*
X020698Y014764D01*
X020670Y014779D01*
X020645Y014797D01*
X020622Y014819D01*
X020602Y014843D01*
X020585Y014870D01*
X020572Y014898D01*
X020562Y014928D01*
X020556Y014959D01*
X020554Y014990D01*
X020304Y014990D01*
X004279Y014590D02*
X004279Y015398D01*
X004279Y014590D02*
X001304Y014590D01*
X001304Y017390D01*
X004279Y017390D01*
X004279Y016670D01*
X002944Y016694D02*
X002594Y016694D01*
X002769Y016869D02*
X002769Y016515D01*
X002769Y015454D02*
X002769Y015104D01*
X001304Y014165D02*
X004279Y014165D01*
X004279Y012930D01*
X004279Y011622D02*
X004279Y010315D01*
X001304Y010315D01*
X001304Y014165D01*
D14*
X005304Y003740D02*
X005304Y002240D01*
X020534Y015860D02*
X020614Y015780D01*
X020694Y015780D01*
X020774Y015860D01*
X020774Y016020D01*
X020854Y016100D01*
X020934Y016100D01*
X021014Y016020D01*
X021014Y015860D01*
X020934Y015780D01*
X020534Y015860D02*
X020534Y016020D01*
X020614Y016100D01*
X020694Y016295D02*
X020934Y016295D01*
X021014Y016375D01*
X021014Y016616D01*
X021094Y016616D02*
X021174Y016536D01*
X021174Y016455D01*
X021094Y016616D02*
X020694Y016616D01*
X020694Y016811D02*
X020694Y017051D01*
X020774Y017131D01*
X021014Y017131D01*
X020934Y017407D02*
X021014Y017487D01*
X020934Y017407D02*
X020614Y017407D01*
X020694Y017327D02*
X020694Y017487D01*
X020774Y017670D02*
X020694Y017750D01*
X020694Y017911D01*
X020774Y017991D01*
X021014Y017991D01*
X021014Y018186D02*
X020694Y018186D01*
X020854Y018186D02*
X020694Y018346D01*
X020694Y018426D01*
X020774Y018616D02*
X020934Y018616D01*
X021014Y018696D01*
X021014Y018856D01*
X020934Y018936D01*
X020774Y018936D01*
X020694Y018856D01*
X020694Y018696D01*
X020774Y018616D01*
X020694Y019131D02*
X020694Y019291D01*
X020614Y019211D02*
X020934Y019211D01*
X021014Y019291D01*
X020934Y019475D02*
X020774Y019475D01*
X020694Y019555D01*
X020694Y019715D01*
X020774Y019795D01*
X020854Y019795D01*
X020854Y019475D01*
X020934Y019475D02*
X021014Y019555D01*
X021014Y019715D01*
X021014Y019991D02*
X020534Y019991D01*
X020694Y020231D02*
X020854Y019991D01*
X021014Y020231D01*
X022524Y018741D02*
X022764Y018741D01*
X022524Y018741D02*
X022444Y018661D01*
X022444Y018500D01*
X022524Y018420D01*
X022444Y018237D02*
X022444Y018077D01*
X022364Y018157D02*
X022684Y018157D01*
X022764Y018237D01*
X022764Y018420D02*
X022284Y018420D01*
X022014Y018327D02*
X022014Y018567D01*
X021934Y018647D01*
X021614Y018647D01*
X021534Y018567D01*
X021534Y018327D01*
X022014Y018327D01*
X022014Y018131D02*
X021534Y018131D01*
X021534Y017811D02*
X022014Y018131D01*
X022014Y017811D02*
X021534Y017811D01*
X021694Y017616D02*
X022014Y017616D01*
X021774Y017616D02*
X021774Y017295D01*
X021694Y017295D02*
X021534Y017455D01*
X021694Y017616D01*
X021694Y017295D02*
X022014Y017295D01*
X022014Y017100D02*
X021534Y017100D01*
X021534Y016780D02*
X022014Y017100D01*
X022014Y016780D02*
X021534Y016780D01*
X021014Y016811D02*
X020694Y016811D01*
X020534Y017670D02*
X021014Y017670D01*
X022444Y017561D02*
X022444Y017801D01*
X022524Y017881D01*
X022764Y017881D01*
X022764Y017561D02*
X022444Y017561D01*
X022444Y017366D02*
X022844Y017366D01*
X022924Y017286D01*
X022924Y017205D01*
X022764Y017125D02*
X022684Y017045D01*
X022444Y017045D01*
X022364Y016850D02*
X022284Y016770D01*
X022284Y016610D01*
X022364Y016530D01*
X022444Y016530D01*
X022524Y016610D01*
X022524Y016770D01*
X022604Y016850D01*
X022684Y016850D01*
X022764Y016770D01*
X022764Y016610D01*
X022684Y016530D01*
X022764Y017125D02*
X022764Y017366D01*
D15*
X014934Y008490D02*
X014934Y008240D01*
X014934Y007990D01*
X014684Y007990D02*
X014684Y008240D01*
X014684Y008490D01*
X011653Y007314D02*
X011653Y004165D01*
X006456Y004165D01*
X006456Y007314D01*
X011653Y007314D01*
X009174Y007990D02*
X009174Y008240D01*
X009174Y008490D01*
X008924Y008490D02*
X008924Y008240D01*
X008924Y007990D01*
X009054Y010860D02*
X008804Y010860D01*
X009054Y010860D02*
X009304Y010860D01*
X009304Y011110D02*
X009054Y011110D01*
X008804Y011110D01*
X009224Y013390D02*
X009224Y013640D01*
X009224Y013890D01*
X009474Y013890D02*
X009474Y013640D01*
X009474Y013390D01*
X011653Y014665D02*
X006456Y014665D01*
X006456Y017814D01*
X011653Y017814D01*
X011653Y014665D01*
X004379Y010088D02*
X004379Y004891D01*
X001230Y004891D01*
X001230Y010088D01*
X004379Y010088D01*
D16*
X013373Y006740D03*
X013373Y005240D03*
X015736Y005240D03*
X015736Y006740D03*
X015736Y017240D03*
X013373Y017240D03*
D17*
X005554Y016671D03*
X005554Y014308D03*
X005054Y008421D03*
X005054Y006058D03*
D18*
X006054Y003990D02*
X006054Y001990D01*
X012054Y001990D01*
X012054Y003990D01*
X006054Y003990D01*
X012304Y003990D02*
X012304Y001990D01*
X018304Y001990D01*
X018304Y003990D01*
X012304Y003990D01*
X023504Y014940D02*
X023504Y018440D01*
X025254Y018440D01*
X025254Y014940D01*
X023504Y014940D01*
X018304Y018240D02*
X018304Y020240D01*
X012304Y020240D01*
X012304Y018240D01*
X018304Y018240D01*
X012054Y018240D02*
X012054Y020240D01*
X006054Y020240D01*
X006054Y018240D01*
X012054Y018240D01*
D19*
X011711Y018536D02*
X011674Y018500D01*
X011601Y018500D01*
X011564Y018536D01*
X011638Y018610D02*
X011674Y018610D01*
X011711Y018573D01*
X011711Y018536D01*
X011674Y018610D02*
X011711Y018646D01*
X011711Y018683D01*
X011674Y018720D01*
X011601Y018720D01*
X011564Y018683D01*
X012564Y018646D02*
X012638Y018720D01*
X012638Y018500D01*
X012711Y018500D02*
X012564Y018500D01*
X017814Y018536D02*
X017851Y018500D01*
X017924Y018500D01*
X017961Y018536D01*
X017961Y018573D01*
X017924Y018610D01*
X017888Y018610D01*
X017924Y018610D02*
X017961Y018646D01*
X017961Y018683D01*
X017924Y018720D01*
X017851Y018720D01*
X017814Y018683D01*
X023914Y018661D02*
X023951Y018625D01*
X024024Y018625D01*
X024061Y018661D01*
X024061Y018808D01*
X024024Y018845D01*
X023951Y018845D01*
X023914Y018808D01*
X023914Y018661D01*
X024135Y018661D02*
X024172Y018625D01*
X024245Y018625D01*
X024282Y018661D01*
X024282Y018845D01*
X024356Y018845D02*
X024503Y018845D01*
X024430Y018845D02*
X024430Y018625D01*
X024135Y018661D02*
X024135Y018845D01*
X024852Y017713D02*
X024852Y017566D01*
X024852Y017640D02*
X025072Y017640D01*
X025060Y015663D02*
X025097Y015626D01*
X025097Y015553D01*
X025060Y015516D01*
X024987Y015553D02*
X024987Y015626D01*
X025023Y015663D01*
X025060Y015663D01*
X024987Y015553D02*
X024950Y015516D01*
X024913Y015516D01*
X024877Y015553D01*
X024877Y015626D01*
X024913Y015663D01*
X017917Y003730D02*
X017917Y003510D01*
X017990Y003510D02*
X017843Y003510D01*
X017843Y003656D02*
X017917Y003730D01*
X012740Y003693D02*
X012740Y003656D01*
X012703Y003620D01*
X012740Y003583D01*
X012740Y003546D01*
X012703Y003510D01*
X012630Y003510D01*
X012593Y003546D01*
X012667Y003620D02*
X012703Y003620D01*
X012740Y003693D02*
X012703Y003730D01*
X012630Y003730D01*
X012593Y003693D01*
X011740Y003510D02*
X011593Y003510D01*
X011667Y003510D02*
X011667Y003730D01*
X011593Y003656D01*
X006490Y003656D02*
X006453Y003620D01*
X006490Y003583D01*
X006490Y003546D01*
X006453Y003510D01*
X006380Y003510D01*
X006343Y003546D01*
X006417Y003620D02*
X006453Y003620D01*
X006490Y003656D02*
X006490Y003693D01*
X006453Y003730D01*
X006380Y003730D01*
X006343Y003693D01*
X004347Y011758D02*
X004207Y011758D01*
X004207Y011828D01*
X004230Y011851D01*
X004323Y011851D01*
X004347Y011828D01*
X004347Y011758D01*
X004323Y011905D02*
X004230Y011905D01*
X004207Y011929D01*
X004207Y011975D01*
X004230Y011999D01*
X004323Y011999D02*
X004347Y011975D01*
X004347Y011929D01*
X004323Y011905D01*
X004323Y012200D02*
X004347Y012223D01*
X004347Y012247D01*
X004323Y012270D01*
X004207Y012270D01*
X004207Y012247D02*
X004207Y012293D01*
X004253Y012371D02*
X004253Y012417D01*
X004277Y012441D01*
X004347Y012441D01*
X004347Y012371D01*
X004323Y012347D01*
X004300Y012371D01*
X004300Y012441D01*
X004277Y012495D02*
X004323Y012495D01*
X004347Y012518D01*
X004347Y012588D01*
X004347Y012642D02*
X004207Y012642D01*
X004253Y012588D02*
X004253Y012518D01*
X004277Y012495D01*
X004300Y012642D02*
X004253Y012712D01*
X004300Y012642D02*
X004347Y012712D01*
X006314Y018500D02*
X006461Y018500D01*
X006388Y018500D02*
X006388Y018720D01*
X006314Y018646D01*
D20*
X005336Y003770D02*
X005264Y003716D01*
X005265Y003717D02*
X005222Y003770D01*
X005177Y003821D01*
X005128Y003869D01*
X005077Y003914D01*
X005023Y003957D01*
X004967Y003996D01*
X004909Y004032D01*
X004849Y004065D01*
X004788Y004094D01*
X004724Y004119D01*
X004660Y004141D01*
X004594Y004160D01*
X004527Y004174D01*
X004460Y004185D01*
X004392Y004192D01*
X004324Y004195D01*
X004255Y004194D01*
X004187Y004189D01*
X004119Y004181D01*
X004052Y004168D01*
X003986Y004152D01*
X003921Y004132D01*
X003856Y004109D01*
X003794Y004082D01*
X003733Y004051D01*
X003674Y004017D01*
X003616Y003980D01*
X003561Y003939D01*
X003509Y003895D01*
X003459Y003849D01*
X003412Y003800D01*
X003367Y003748D01*
X003326Y003694D01*
X003287Y003637D01*
X003252Y003578D01*
X003221Y003518D01*
X003193Y003456D01*
X003168Y003392D01*
X003147Y003327D01*
X003130Y003261D01*
X003116Y003194D01*
X003107Y003126D01*
X003101Y003058D01*
X003099Y002990D01*
X003101Y002922D01*
X003107Y002854D01*
X003116Y002786D01*
X003130Y002719D01*
X003147Y002653D01*
X003168Y002588D01*
X003193Y002524D01*
X003221Y002462D01*
X003252Y002402D01*
X003287Y002343D01*
X003326Y002286D01*
X003367Y002232D01*
X003412Y002180D01*
X003459Y002131D01*
X003509Y002085D01*
X003561Y002041D01*
X003616Y002000D01*
X003674Y001963D01*
X003733Y001929D01*
X003794Y001898D01*
X003856Y001871D01*
X003921Y001848D01*
X003986Y001828D01*
X004052Y001812D01*
X004119Y001799D01*
X004187Y001791D01*
X004255Y001786D01*
X004324Y001785D01*
X004392Y001788D01*
X004460Y001795D01*
X004527Y001806D01*
X004594Y001820D01*
X004660Y001839D01*
X004724Y001861D01*
X004788Y001886D01*
X004849Y001915D01*
X004909Y001948D01*
X004967Y001984D01*
X005023Y002023D01*
X005077Y002066D01*
X005128Y002111D01*
X005177Y002159D01*
X005222Y002210D01*
X005265Y002263D01*
X005336Y002210D01*
X005337Y002209D01*
X005293Y002154D01*
X005245Y002101D01*
X005195Y002050D01*
X005142Y002003D01*
X005087Y001959D01*
X005029Y001917D01*
X004969Y001879D01*
X004908Y001844D01*
X004844Y001813D01*
X004779Y001785D01*
X004712Y001761D01*
X004644Y001740D01*
X004575Y001724D01*
X004505Y001711D01*
X004435Y001702D01*
X004364Y001696D01*
X004293Y001695D01*
X004222Y001698D01*
X004151Y001704D01*
X004081Y001714D01*
X004012Y001728D01*
X003943Y001746D01*
X003875Y001768D01*
X003809Y001793D01*
X003744Y001822D01*
X003681Y001855D01*
X003620Y001891D01*
X003561Y001930D01*
X003504Y001972D01*
X003449Y002017D01*
X003397Y002066D01*
X003348Y002117D01*
X003301Y002170D01*
X003258Y002227D01*
X003218Y002285D01*
X003181Y002346D01*
X003147Y002408D01*
X003117Y002472D01*
X003090Y002538D01*
X003067Y002605D01*
X003048Y002674D01*
X003033Y002743D01*
X003021Y002813D01*
X003013Y002884D01*
X003009Y002955D01*
X003009Y003025D01*
X003013Y003096D01*
X003021Y003167D01*
X003033Y003237D01*
X003048Y003306D01*
X003067Y003375D01*
X003090Y003442D01*
X003117Y003508D01*
X003147Y003572D01*
X003181Y003634D01*
X003218Y003695D01*
X003258Y003753D01*
X003301Y003810D01*
X003348Y003863D01*
X003397Y003914D01*
X003449Y003963D01*
X003504Y004008D01*
X003561Y004050D01*
X003620Y004089D01*
X003681Y004125D01*
X003744Y004158D01*
X003809Y004187D01*
X003875Y004212D01*
X003943Y004234D01*
X004012Y004252D01*
X004081Y004266D01*
X004151Y004276D01*
X004222Y004282D01*
X004293Y004285D01*
X004364Y004284D01*
X004435Y004278D01*
X004505Y004269D01*
X004575Y004256D01*
X004644Y004240D01*
X004712Y004219D01*
X004779Y004195D01*
X004844Y004167D01*
X004908Y004136D01*
X004969Y004101D01*
X005029Y004063D01*
X005087Y004021D01*
X005142Y003977D01*
X005195Y003930D01*
X005245Y003879D01*
X005293Y003826D01*
X005337Y003771D01*
X005330Y003766D01*
X005285Y003821D01*
X005238Y003874D01*
X005187Y003925D01*
X005134Y003972D01*
X005078Y004017D01*
X005020Y004058D01*
X004960Y004096D01*
X004898Y004131D01*
X004834Y004162D01*
X004768Y004189D01*
X004701Y004213D01*
X004632Y004233D01*
X004563Y004250D01*
X004493Y004262D01*
X004422Y004271D01*
X004351Y004275D01*
X004280Y004276D01*
X004209Y004272D01*
X004138Y004265D01*
X004067Y004254D01*
X003998Y004239D01*
X003929Y004220D01*
X003861Y004197D01*
X003795Y004171D01*
X003730Y004141D01*
X003668Y004107D01*
X003607Y004071D01*
X003548Y004030D01*
X003491Y003987D01*
X003437Y003940D01*
X003386Y003891D01*
X003338Y003838D01*
X003292Y003784D01*
X003250Y003726D01*
X003211Y003667D01*
X003175Y003605D01*
X003142Y003542D01*
X003114Y003477D01*
X003088Y003410D01*
X003067Y003342D01*
X003049Y003273D01*
X003036Y003203D01*
X003026Y003132D01*
X003020Y003061D01*
X003018Y002990D01*
X003020Y002919D01*
X003026Y002848D01*
X003036Y002777D01*
X003049Y002707D01*
X003067Y002638D01*
X003088Y002570D01*
X003114Y002503D01*
X003142Y002438D01*
X003175Y002375D01*
X003211Y002313D01*
X003250Y002254D01*
X003292Y002196D01*
X003338Y002142D01*
X003386Y002089D01*
X003437Y002040D01*
X003491Y001993D01*
X003548Y001950D01*
X003607Y001909D01*
X003668Y001873D01*
X003730Y001839D01*
X003795Y001809D01*
X003861Y001783D01*
X003929Y001760D01*
X003998Y001741D01*
X004067Y001726D01*
X004138Y001715D01*
X004209Y001708D01*
X004280Y001704D01*
X004351Y001705D01*
X004422Y001709D01*
X004493Y001718D01*
X004563Y001730D01*
X004632Y001747D01*
X004701Y001767D01*
X004768Y001791D01*
X004834Y001818D01*
X004898Y001849D01*
X004960Y001884D01*
X005020Y001922D01*
X005078Y001963D01*
X005134Y002008D01*
X005187Y002055D01*
X005238Y002106D01*
X005285Y002159D01*
X005330Y002214D01*
X005323Y002220D01*
X005278Y002165D01*
X005231Y002112D01*
X005181Y002062D01*
X005128Y002015D01*
X005073Y001971D01*
X005015Y001929D01*
X004956Y001892D01*
X004894Y001857D01*
X004830Y001826D01*
X004765Y001799D01*
X004698Y001775D01*
X004630Y001755D01*
X004561Y001739D01*
X004492Y001727D01*
X004421Y001718D01*
X004351Y001714D01*
X004280Y001713D01*
X004209Y001717D01*
X004139Y001724D01*
X004069Y001735D01*
X004000Y001750D01*
X003932Y001769D01*
X003864Y001791D01*
X003799Y001817D01*
X003734Y001847D01*
X003672Y001880D01*
X003612Y001917D01*
X003553Y001957D01*
X003497Y002000D01*
X003443Y002046D01*
X003393Y002096D01*
X003344Y002147D01*
X003299Y002202D01*
X003257Y002259D01*
X003218Y002318D01*
X003183Y002379D01*
X003150Y002442D01*
X003122Y002507D01*
X003097Y002573D01*
X003076Y002641D01*
X003058Y002709D01*
X003045Y002779D01*
X003035Y002849D01*
X003029Y002919D01*
X003027Y002990D01*
X003029Y003061D01*
X003035Y003131D01*
X003045Y003201D01*
X003058Y003271D01*
X003076Y003339D01*
X003097Y003407D01*
X003122Y003473D01*
X003150Y003538D01*
X003183Y003601D01*
X003218Y003662D01*
X003257Y003721D01*
X003299Y003778D01*
X003344Y003833D01*
X003393Y003884D01*
X003443Y003934D01*
X003497Y003980D01*
X003553Y004023D01*
X003612Y004063D01*
X003672Y004100D01*
X003734Y004133D01*
X003799Y004163D01*
X003864Y004189D01*
X003932Y004211D01*
X004000Y004230D01*
X004069Y004245D01*
X004139Y004256D01*
X004209Y004263D01*
X004280Y004267D01*
X004351Y004266D01*
X004421Y004262D01*
X004492Y004253D01*
X004561Y004241D01*
X004630Y004225D01*
X004698Y004205D01*
X004765Y004181D01*
X004830Y004154D01*
X004894Y004123D01*
X004956Y004088D01*
X005015Y004051D01*
X005073Y004009D01*
X005128Y003965D01*
X005181Y003918D01*
X005231Y003868D01*
X005278Y003815D01*
X005323Y003760D01*
X005315Y003755D01*
X005271Y003810D01*
X005223Y003863D01*
X005173Y003913D01*
X005120Y003961D01*
X005064Y004005D01*
X005006Y004046D01*
X004946Y004083D01*
X004884Y004118D01*
X004820Y004148D01*
X004754Y004175D01*
X004687Y004199D01*
X004619Y004218D01*
X004549Y004234D01*
X004479Y004246D01*
X004409Y004254D01*
X004338Y004258D01*
X004267Y004257D01*
X004196Y004253D01*
X004125Y004245D01*
X004055Y004233D01*
X003986Y004217D01*
X003918Y004198D01*
X003850Y004174D01*
X003785Y004147D01*
X003721Y004116D01*
X003659Y004082D01*
X003599Y004044D01*
X003541Y004002D01*
X003485Y003958D01*
X003432Y003911D01*
X003382Y003860D01*
X003335Y003807D01*
X003290Y003752D01*
X003249Y003694D01*
X003212Y003634D01*
X003177Y003571D01*
X003146Y003507D01*
X003119Y003442D01*
X003096Y003375D01*
X003076Y003306D01*
X003060Y003237D01*
X003048Y003167D01*
X003040Y003096D01*
X003036Y003026D01*
X003036Y002954D01*
X003040Y002884D01*
X003048Y002813D01*
X003060Y002743D01*
X003076Y002674D01*
X003096Y002605D01*
X003119Y002538D01*
X003146Y002473D01*
X003177Y002409D01*
X003212Y002346D01*
X003249Y002286D01*
X003290Y002228D01*
X003335Y002173D01*
X003382Y002120D01*
X003432Y002069D01*
X003485Y002022D01*
X003541Y001978D01*
X003599Y001936D01*
X003659Y001898D01*
X003721Y001864D01*
X003785Y001833D01*
X003850Y001806D01*
X003918Y001782D01*
X003986Y001763D01*
X004055Y001747D01*
X004125Y001735D01*
X004196Y001727D01*
X004267Y001723D01*
X004338Y001722D01*
X004409Y001726D01*
X004479Y001734D01*
X004549Y001746D01*
X004619Y001762D01*
X004687Y001781D01*
X004754Y001805D01*
X004820Y001832D01*
X004884Y001862D01*
X004946Y001897D01*
X005006Y001934D01*
X005064Y001975D01*
X005120Y002019D01*
X005173Y002067D01*
X005223Y002117D01*
X005271Y002170D01*
X005315Y002225D01*
X005308Y002231D01*
X005264Y002176D01*
X005217Y002123D01*
X005167Y002073D01*
X005114Y002026D01*
X005059Y001982D01*
X005001Y001942D01*
X004942Y001904D01*
X004880Y001870D01*
X004816Y001840D01*
X004751Y001813D01*
X004684Y001790D01*
X004616Y001770D01*
X004548Y001755D01*
X004478Y001743D01*
X004408Y001735D01*
X004337Y001731D01*
X004267Y001732D01*
X004196Y001736D01*
X004126Y001744D01*
X004057Y001756D01*
X003988Y001771D01*
X003920Y001791D01*
X003854Y001814D01*
X003789Y001841D01*
X003725Y001872D01*
X003663Y001906D01*
X003604Y001944D01*
X003546Y001985D01*
X003491Y002029D01*
X003438Y002076D01*
X003389Y002126D01*
X003342Y002178D01*
X003298Y002234D01*
X003257Y002291D01*
X003219Y002351D01*
X003185Y002413D01*
X003155Y002476D01*
X003128Y002541D01*
X003104Y002608D01*
X003085Y002676D01*
X003069Y002745D01*
X003057Y002814D01*
X003049Y002884D01*
X003045Y002955D01*
X003045Y003025D01*
X003049Y003096D01*
X003057Y003166D01*
X003069Y003235D01*
X003085Y003304D01*
X003104Y003372D01*
X003128Y003439D01*
X003155Y003504D01*
X003185Y003567D01*
X003219Y003629D01*
X003257Y003689D01*
X003298Y003746D01*
X003342Y003802D01*
X003389Y003854D01*
X003438Y003904D01*
X003491Y003951D01*
X003546Y003995D01*
X003604Y004036D01*
X003663Y004074D01*
X003725Y004108D01*
X003789Y004139D01*
X003854Y004166D01*
X003920Y004189D01*
X003988Y004209D01*
X004057Y004224D01*
X004126Y004236D01*
X004196Y004244D01*
X004267Y004248D01*
X004337Y004249D01*
X004408Y004245D01*
X004478Y004237D01*
X004548Y004225D01*
X004616Y004210D01*
X004684Y004190D01*
X004751Y004167D01*
X004816Y004140D01*
X004880Y004110D01*
X004942Y004076D01*
X005001Y004038D01*
X005059Y003998D01*
X005114Y003954D01*
X005167Y003907D01*
X005217Y003857D01*
X005264Y003804D01*
X005308Y003749D01*
X005301Y003744D01*
X005257Y003799D01*
X005210Y003851D01*
X005161Y003900D01*
X005108Y003947D01*
X005054Y003990D01*
X004996Y004031D01*
X004937Y004068D01*
X004876Y004102D01*
X004812Y004132D01*
X004748Y004159D01*
X004681Y004182D01*
X004614Y004201D01*
X004546Y004216D01*
X004477Y004228D01*
X004407Y004236D01*
X004337Y004240D01*
X004267Y004239D01*
X004197Y004235D01*
X004128Y004227D01*
X004059Y004216D01*
X003990Y004200D01*
X003923Y004181D01*
X003857Y004157D01*
X003792Y004130D01*
X003729Y004100D01*
X003668Y004066D01*
X003609Y004029D01*
X003551Y003988D01*
X003497Y003944D01*
X003445Y003898D01*
X003395Y003848D01*
X003348Y003796D01*
X003305Y003741D01*
X003264Y003684D01*
X003227Y003625D01*
X003193Y003563D01*
X003163Y003500D01*
X003136Y003435D01*
X003113Y003369D01*
X003094Y003302D01*
X003078Y003234D01*
X003066Y003165D01*
X003058Y003095D01*
X003054Y003025D01*
X003054Y002955D01*
X003058Y002885D01*
X003066Y002815D01*
X003078Y002746D01*
X003094Y002678D01*
X003113Y002611D01*
X003136Y002545D01*
X003163Y002480D01*
X003193Y002417D01*
X003227Y002355D01*
X003264Y002296D01*
X003305Y002239D01*
X003348Y002184D01*
X003395Y002132D01*
X003445Y002082D01*
X003497Y002036D01*
X003551Y001992D01*
X003609Y001951D01*
X003668Y001914D01*
X003729Y001880D01*
X003792Y001850D01*
X003857Y001823D01*
X003923Y001799D01*
X003990Y001780D01*
X004059Y001764D01*
X004128Y001753D01*
X004197Y001745D01*
X004267Y001741D01*
X004337Y001740D01*
X004407Y001744D01*
X004477Y001752D01*
X004546Y001764D01*
X004614Y001779D01*
X004681Y001798D01*
X004748Y001821D01*
X004812Y001848D01*
X004876Y001878D01*
X004937Y001912D01*
X004996Y001949D01*
X005054Y001990D01*
X005108Y002033D01*
X005161Y002080D01*
X005210Y002129D01*
X005257Y002181D01*
X005301Y002236D01*
X005294Y002241D01*
X005250Y002187D01*
X005204Y002135D01*
X005155Y002086D01*
X005103Y002040D01*
X005048Y001997D01*
X004991Y001957D01*
X004932Y001920D01*
X004871Y001886D01*
X004809Y001856D01*
X004744Y001830D01*
X004679Y001807D01*
X004612Y001788D01*
X004544Y001772D01*
X004475Y001761D01*
X004406Y001753D01*
X004337Y001749D01*
X004267Y001750D01*
X004198Y001754D01*
X004129Y001761D01*
X004060Y001773D01*
X003993Y001789D01*
X003926Y001808D01*
X003860Y001831D01*
X003796Y001858D01*
X003733Y001888D01*
X003672Y001922D01*
X003614Y001959D01*
X003557Y001999D01*
X003503Y002042D01*
X003451Y002089D01*
X003402Y002138D01*
X003355Y002190D01*
X003312Y002244D01*
X003272Y002301D01*
X003235Y002360D01*
X003201Y002421D01*
X003171Y002484D01*
X003144Y002548D01*
X003121Y002613D01*
X003102Y002680D01*
X003087Y002748D01*
X003075Y002817D01*
X003067Y002886D01*
X003063Y002955D01*
X003063Y003025D01*
X003067Y003094D01*
X003075Y003163D01*
X003087Y003232D01*
X003102Y003300D01*
X003121Y003367D01*
X003144Y003432D01*
X003171Y003496D01*
X003201Y003559D01*
X003235Y003620D01*
X003272Y003679D01*
X003312Y003736D01*
X003355Y003790D01*
X003402Y003842D01*
X003451Y003891D01*
X003503Y003938D01*
X003557Y003981D01*
X003614Y004021D01*
X003672Y004058D01*
X003733Y004092D01*
X003796Y004122D01*
X003860Y004149D01*
X003926Y004172D01*
X003993Y004191D01*
X004060Y004207D01*
X004129Y004219D01*
X004198Y004226D01*
X004267Y004230D01*
X004337Y004231D01*
X004406Y004227D01*
X004475Y004219D01*
X004544Y004208D01*
X004612Y004192D01*
X004679Y004173D01*
X004744Y004150D01*
X004809Y004124D01*
X004871Y004094D01*
X004932Y004060D01*
X004991Y004023D01*
X005048Y003983D01*
X005103Y003940D01*
X005155Y003894D01*
X005204Y003845D01*
X005250Y003793D01*
X005294Y003739D01*
X005287Y003733D01*
X005243Y003787D01*
X005197Y003838D01*
X005148Y003887D01*
X005097Y003933D01*
X005043Y003976D01*
X004986Y004016D01*
X004928Y004052D01*
X004867Y004086D01*
X004805Y004116D01*
X004741Y004142D01*
X004676Y004164D01*
X004610Y004183D01*
X004542Y004199D01*
X004474Y004210D01*
X004406Y004218D01*
X004337Y004222D01*
X004268Y004221D01*
X004199Y004217D01*
X004130Y004210D01*
X004062Y004198D01*
X003995Y004183D01*
X003928Y004163D01*
X003863Y004140D01*
X003800Y004114D01*
X003737Y004084D01*
X003677Y004051D01*
X003619Y004014D01*
X003562Y003974D01*
X003508Y003931D01*
X003457Y003885D01*
X003408Y003836D01*
X003362Y003784D01*
X003319Y003730D01*
X003279Y003674D01*
X003243Y003615D01*
X003209Y003555D01*
X003179Y003493D01*
X003153Y003429D01*
X003130Y003364D01*
X003111Y003297D01*
X003096Y003230D01*
X003084Y003162D01*
X003076Y003093D01*
X003072Y003025D01*
X003072Y002955D01*
X003076Y002887D01*
X003084Y002818D01*
X003096Y002750D01*
X003111Y002683D01*
X003130Y002616D01*
X003153Y002551D01*
X003179Y002487D01*
X003209Y002425D01*
X003243Y002365D01*
X003279Y002306D01*
X003319Y002250D01*
X003362Y002196D01*
X003408Y002144D01*
X003457Y002095D01*
X003508Y002049D01*
X003562Y002006D01*
X003619Y001966D01*
X003677Y001929D01*
X003737Y001896D01*
X003800Y001866D01*
X003863Y001840D01*
X003928Y001817D01*
X003995Y001797D01*
X004062Y001782D01*
X004130Y001770D01*
X004199Y001763D01*
X004268Y001759D01*
X004337Y001758D01*
X004406Y001762D01*
X004474Y001770D01*
X004542Y001781D01*
X004610Y001797D01*
X004676Y001816D01*
X004741Y001838D01*
X004805Y001864D01*
X004867Y001894D01*
X004928Y001928D01*
X004986Y001964D01*
X005043Y002004D01*
X005097Y002047D01*
X005148Y002093D01*
X005197Y002142D01*
X005243Y002193D01*
X005287Y002247D01*
X005279Y002252D01*
X005236Y002198D01*
X005190Y002147D01*
X005140Y002098D01*
X005089Y002052D01*
X005034Y002009D01*
X004977Y001969D01*
X004919Y001933D01*
X004858Y001899D01*
X004795Y001870D01*
X004731Y001844D01*
X004665Y001822D01*
X004598Y001803D01*
X004531Y001788D01*
X004462Y001777D01*
X004393Y001770D01*
X004324Y001767D01*
X004255Y001768D01*
X004185Y001773D01*
X004117Y001781D01*
X004049Y001794D01*
X003981Y001810D01*
X003915Y001831D01*
X003850Y001854D01*
X003786Y001882D01*
X003724Y001913D01*
X003664Y001948D01*
X003606Y001986D01*
X003550Y002027D01*
X003497Y002071D01*
X003446Y002118D01*
X003398Y002168D01*
X003353Y002221D01*
X003311Y002276D01*
X003272Y002333D01*
X003237Y002393D01*
X003205Y002454D01*
X003176Y002517D01*
X003151Y002582D01*
X003130Y002648D01*
X003112Y002715D01*
X003099Y002783D01*
X003089Y002852D01*
X003083Y002921D01*
X003081Y002990D01*
X003083Y003059D01*
X003089Y003128D01*
X003099Y003197D01*
X003112Y003265D01*
X003130Y003332D01*
X003151Y003398D01*
X003176Y003463D01*
X003205Y003526D01*
X003237Y003587D01*
X003272Y003647D01*
X003311Y003704D01*
X003353Y003759D01*
X003398Y003812D01*
X003446Y003862D01*
X003497Y003909D01*
X003550Y003953D01*
X003606Y003994D01*
X003664Y004032D01*
X003724Y004067D01*
X003786Y004098D01*
X003850Y004126D01*
X003915Y004149D01*
X003981Y004170D01*
X004049Y004186D01*
X004117Y004199D01*
X004185Y004207D01*
X004255Y004212D01*
X004324Y004213D01*
X004393Y004210D01*
X004462Y004203D01*
X004531Y004192D01*
X004598Y004177D01*
X004665Y004158D01*
X004731Y004136D01*
X004795Y004110D01*
X004858Y004081D01*
X004919Y004047D01*
X004977Y004011D01*
X005034Y003971D01*
X005089Y003928D01*
X005140Y003882D01*
X005190Y003833D01*
X005236Y003782D01*
X005279Y003728D01*
X005272Y003722D01*
X005229Y003776D01*
X005183Y003827D01*
X005134Y003876D01*
X005083Y003921D01*
X005029Y003964D01*
X004972Y004003D01*
X004914Y004040D01*
X004854Y004073D01*
X004791Y004102D01*
X004728Y004128D01*
X004662Y004150D01*
X004596Y004168D01*
X004529Y004183D01*
X004461Y004194D01*
X004392Y004201D01*
X004324Y004204D01*
X004255Y004203D01*
X004186Y004198D01*
X004118Y004190D01*
X004050Y004177D01*
X003984Y004161D01*
X003918Y004141D01*
X003853Y004117D01*
X003790Y004090D01*
X003729Y004059D01*
X003669Y004025D01*
X003611Y003987D01*
X003556Y003946D01*
X003503Y003902D01*
X003453Y003855D01*
X003405Y003806D01*
X003360Y003754D01*
X003318Y003699D01*
X003280Y003642D01*
X003245Y003583D01*
X003213Y003522D01*
X003184Y003459D01*
X003160Y003395D01*
X003138Y003329D01*
X003121Y003263D01*
X003108Y003195D01*
X003098Y003127D01*
X003092Y003059D01*
X003090Y002990D01*
X003092Y002921D01*
X003098Y002853D01*
X003108Y002785D01*
X003121Y002717D01*
X003138Y002651D01*
X003160Y002585D01*
X003184Y002521D01*
X003213Y002458D01*
X003245Y002397D01*
X003280Y002338D01*
X003318Y002281D01*
X003360Y002226D01*
X003405Y002174D01*
X003453Y002125D01*
X003503Y002078D01*
X003556Y002034D01*
X003611Y001993D01*
X003669Y001955D01*
X003729Y001921D01*
X003790Y001890D01*
X003853Y001863D01*
X003918Y001839D01*
X003984Y001819D01*
X004050Y001803D01*
X004118Y001790D01*
X004186Y001782D01*
X004255Y001777D01*
X004324Y001776D01*
X004392Y001779D01*
X004461Y001786D01*
X004529Y001797D01*
X004596Y001812D01*
X004662Y001830D01*
X004728Y001852D01*
X004791Y001878D01*
X004854Y001907D01*
X004914Y001940D01*
X004972Y001977D01*
X005029Y002016D01*
X005083Y002059D01*
X005134Y002104D01*
X005183Y002153D01*
X005229Y002204D01*
X005272Y002258D01*
X004344Y015493D02*
X004363Y015512D01*
X004363Y015548D01*
X004344Y015567D01*
X004271Y015567D01*
X004253Y015548D01*
X004253Y015512D01*
X004271Y015493D01*
X004289Y015493D01*
X004308Y015512D01*
X004308Y015567D01*
X004326Y015604D02*
X004363Y015641D01*
X004326Y015677D01*
X004253Y015677D01*
X004253Y015604D02*
X004326Y015604D01*
X004308Y015825D02*
X004308Y015880D01*
X004326Y015898D01*
X004344Y015898D01*
X004363Y015880D01*
X004363Y015825D01*
X004253Y015825D01*
X004253Y015880D01*
X004271Y015898D01*
X004289Y015898D01*
X004308Y015880D01*
X004344Y015935D02*
X004326Y015954D01*
X004326Y016009D01*
X004308Y016009D02*
X004363Y016009D01*
X004363Y015954D01*
X004344Y015935D01*
X004289Y015954D02*
X004289Y015990D01*
X004308Y016009D01*
X004289Y016046D02*
X004289Y016082D01*
X004271Y016064D02*
X004344Y016064D01*
X004363Y016082D01*
X004344Y016138D02*
X004363Y016156D01*
X004344Y016138D02*
X004271Y016138D01*
X004289Y016156D02*
X004289Y016119D01*
X004308Y016193D02*
X004289Y016211D01*
X004289Y016248D01*
X004308Y016266D01*
X004326Y016266D01*
X004326Y016193D01*
X004344Y016193D02*
X004308Y016193D01*
X004344Y016193D02*
X004363Y016211D01*
X004363Y016248D01*
X004363Y016304D02*
X004289Y016304D01*
X004289Y016340D02*
X004289Y016359D01*
X004289Y016340D02*
X004326Y016304D01*
X004344Y016396D02*
X004363Y016414D01*
X004363Y016469D01*
X004381Y016469D02*
X004400Y016451D01*
X004400Y016432D01*
X004381Y016469D02*
X004289Y016469D01*
X004289Y016396D02*
X004344Y016396D01*
D21*
X002894Y013491D02*
X002929Y013456D01*
X002929Y013386D01*
X002894Y013351D01*
X002824Y013386D02*
X002824Y013456D01*
X002859Y013491D01*
X002894Y013491D01*
X002824Y013386D02*
X002789Y013351D01*
X002754Y013351D01*
X002719Y013386D01*
X002719Y013456D01*
X002754Y013491D01*
X002754Y012256D02*
X002719Y012221D01*
X002719Y012151D01*
X002754Y012116D01*
X002894Y012116D01*
X002929Y012151D01*
X002929Y012221D01*
X002894Y012256D01*
X002824Y011031D02*
X002859Y010996D01*
X002859Y010891D01*
X002929Y010891D02*
X002719Y010891D01*
X002719Y010996D01*
X002754Y011031D01*
X002824Y011031D01*
M02*
