G75*
G70*
%OFA0B0*%
%FSLAX24Y24*%
%IPPOS*%
%LPD*%
%AMOC8*
5,1,8,0,0,1.08239X$1,22.5*
%
%ADD10R,0.0476X0.0476*%
%ADD11C,0.0476*%
%ADD12OC8,0.0476*%
%ADD13C,0.0100*%
D10*
X001101Y004601D03*
X007601Y003101D03*
X015601Y003601D03*
X017601Y007101D03*
X011101Y009101D03*
X011101Y011101D03*
X012101Y011101D03*
X010101Y011101D03*
X008601Y011101D03*
X007601Y011101D03*
X006601Y011101D03*
X005101Y012601D03*
X008601Y012601D03*
X012101Y012601D03*
X015601Y012601D03*
X001101Y012101D03*
X001101Y011101D03*
D11*
X003101Y010601D03*
X003101Y009601D03*
X005101Y009601D03*
X005101Y010601D03*
X004101Y012601D03*
X003101Y012601D03*
X006601Y012601D03*
X007601Y012601D03*
X010101Y012601D03*
X011101Y012601D03*
X013601Y012601D03*
X014601Y012601D03*
X015601Y011101D03*
X015601Y010101D03*
X015601Y009101D03*
X014101Y009101D03*
X014101Y008101D03*
X014101Y007101D03*
X015601Y007101D03*
X014101Y006101D03*
X014101Y005101D03*
X014101Y004101D03*
X014101Y003101D03*
X016601Y003601D03*
X011101Y004101D03*
X011101Y005101D03*
X011101Y006101D03*
X011101Y007101D03*
X011101Y008101D03*
X008101Y005101D03*
X006101Y005101D03*
X005101Y005101D03*
X003101Y005101D03*
X003101Y003601D03*
X005101Y003601D03*
X006601Y003101D03*
X011101Y003101D03*
X003101Y006601D03*
X003101Y007601D03*
D12*
X001101Y003601D03*
X001101Y009601D03*
X017601Y008101D03*
D13*
X015601Y010101D02*
X014181Y010101D01*
X013701Y009621D01*
X005141Y009621D01*
X005101Y009601D01*
X005061Y009621D01*
X004101Y009621D01*
X003141Y010581D01*
X003101Y010601D01*
X003061Y010581D01*
X002101Y010581D01*
X001141Y009621D01*
X001101Y009601D01*
X000661Y009461D02*
X000661Y011541D01*
X006181Y011541D01*
X006581Y011141D01*
X006601Y011101D01*
X007941Y011781D02*
X008581Y011141D01*
X008601Y011101D01*
X008661Y011141D01*
X009061Y011541D01*
X011701Y011541D01*
X012101Y011141D01*
X012101Y011101D01*
X012341Y010661D02*
X013541Y011861D01*
X013541Y012581D01*
X013601Y012601D01*
X013781Y012981D02*
X014181Y012581D01*
X014181Y010101D01*
X014101Y009101D02*
X014101Y009061D01*
X013541Y009061D01*
X011141Y009061D01*
X011101Y009101D01*
X011061Y008101D02*
X009941Y009221D01*
X003461Y009221D01*
X003141Y009541D01*
X003101Y009601D01*
X001141Y008981D02*
X000661Y009461D01*
X001141Y008981D02*
X009221Y008981D01*
X011101Y007101D01*
X011061Y008101D02*
X011101Y008101D01*
X013541Y007701D02*
X013541Y009061D01*
X013541Y007701D02*
X014101Y007141D01*
X014101Y007101D01*
X012261Y005941D02*
X014101Y004101D01*
X013701Y003541D02*
X014101Y003141D01*
X014101Y003101D01*
X013701Y003541D02*
X009621Y003541D01*
X008101Y005061D01*
X008101Y005101D01*
X008261Y005541D02*
X008661Y005141D01*
X011061Y005141D01*
X011101Y005101D01*
X011701Y004661D02*
X011701Y005701D01*
X008421Y005701D01*
X007541Y006581D01*
X003141Y006581D01*
X003101Y006601D01*
X003541Y005541D02*
X003101Y005101D01*
X003541Y005541D02*
X005701Y005541D01*
X006101Y005141D01*
X006101Y005101D01*
X006181Y004661D02*
X007061Y004661D01*
X007941Y005541D01*
X008261Y005541D01*
X006181Y004661D02*
X005141Y003621D01*
X005101Y003601D01*
X006601Y003101D02*
X006661Y003061D01*
X007061Y002661D01*
X010661Y002661D01*
X011101Y003101D01*
X011141Y004101D02*
X011101Y004101D01*
X011141Y004101D02*
X011701Y004661D01*
X011301Y005941D02*
X012261Y005941D01*
X011301Y005941D02*
X011141Y006101D01*
X011101Y006101D01*
X005101Y010601D02*
X005141Y010661D01*
X008181Y010661D01*
X008581Y011061D01*
X008601Y011101D01*
X007941Y011781D02*
X001461Y011781D01*
X001141Y012101D01*
X001101Y012101D01*
X000821Y012501D02*
X000661Y012341D01*
X000661Y011541D01*
X000821Y012501D02*
X002981Y012501D01*
X003061Y012581D01*
X003101Y012601D01*
X010101Y011101D02*
X010101Y011061D01*
X010501Y010661D01*
X012341Y010661D01*
X012101Y012601D02*
X012101Y012661D01*
X012421Y012981D01*
X013781Y012981D01*
X014601Y012601D02*
X014661Y012581D01*
X015541Y012581D01*
X015601Y012601D01*
M02*
