%
M48
M72
T01C0.0276
T02C0.0320
T03C0.0354
T04C0.0591
T05C0.0630
T06C0.0787
T07C0.0866
T08C0.1102
%
T01
X5054Y5240
X5054Y9240
X6554Y10240
X6554Y11240
X5554Y13490
X5554Y17490
X10304Y12490
X11304Y12490
X12304Y12490
X13304Y12490
X14304Y12490
X15304Y12490
X16304Y12490
X15454Y15540
X14454Y15540
X12554Y17240
X16554Y17240
X16304Y9490
X15304Y9490
X14304Y9490
X13304Y9490
X12304Y9490
X11304Y9490
X10304Y9490
X12554Y6740
X12554Y5240
X16554Y5240
X16554Y6740
T02
X17554Y6990
X17554Y7990
X18554Y7990
X19554Y7990
X19554Y6990
X18554Y6990
X18554Y5990
X19554Y5990
X19554Y4990
X18554Y4990
X17554Y4990
X17554Y5990
X15804Y8240
X17554Y8990
X17554Y9990
X18554Y9990
X19554Y9990
X19554Y8990
X18554Y8990
X18554Y10990
X19554Y10990
X19554Y11990
X18554Y11990
X17554Y11990
X17554Y10990
X13804Y8240
X10054Y8240
X8054Y8240
X9054Y9990
X9054Y11990
X8354Y13640
X10354Y13640
X22554Y12990
X22554Y11990
X23554Y11990
X23554Y10990
X22554Y10990
X22554Y9990
X23554Y9990
X23554Y8990
X22554Y8990
X22554Y7990
X23554Y7990
X23554Y6990
X22554Y6990
X22554Y5990
X23554Y5990
X23554Y4990
X22554Y4990
X22554Y3990
X24554Y4990
X24554Y5990
X24554Y6990
X24554Y7990
X24554Y8990
X24554Y9990
X24554Y10990
X24554Y11990
T03
X4804Y2990
X3804Y2990
T04
X2004Y11015
X2004Y12240
X2004Y13465
X24254Y15690
X24254Y17690
T05
X3554Y16690
X3554Y15290
X3554Y13490
X3554Y12240
X3554Y10990
T06
X7086Y2990
X9054Y2990
X11023Y2990
X13336Y2990
X15304Y2990
X17273Y2990
X17273Y19240
X15304Y19240
X13336Y19240
X11023Y19240
X9054Y19240
X7086Y19240
T07
X7204Y16240
X9054Y16240
X10905Y16240
X2004Y16690
X2004Y15290
X2804Y7490
X2804Y5639
X7204Y5740
X9054Y5740
X10905Y5740
T08
X2054Y2740
X2054Y19740
X24054Y19740
X24054Y2740
M30
