%
M48
M72
T01C0.0276
T02C0.0354
%
T01
X2301Y2001
X2301Y4001
X3301Y4001
X7301Y4001
X8301Y4001
X7301Y2001
X12301Y2001
X12301Y4001
X13301Y4001
X17301Y4001
X18301Y4001
X17301Y2001
X25301Y3501
X25301Y5001
X25301Y6001
X25301Y9251
X25301Y10001
X25301Y11251
X25301Y12251
X25301Y13251
X25301Y15501
X25301Y16501
X25301Y17501
X25301Y18501
X22301Y18501
X22301Y17501
X22301Y16501
X22301Y15501
X18301Y16001
X17301Y16001
X17301Y18001
X13301Y16001
X12301Y16001
X12301Y18001
X8301Y16001
X7301Y16001
X7301Y18001
X3301Y16001
X2301Y16001
X2301Y18001
X1801Y11001
X1801Y9501
X3801Y9501
X3801Y11001
X6801Y11001
X6801Y9501
X8801Y9501
X8801Y11001
X11801Y11001
X11801Y9501
X13801Y9501
X13801Y11001
X16801Y11001
X16801Y9501
X18801Y9501
X18801Y11001
T02
X19801Y12501
X18301Y13501
X17301Y13501
X19801Y14501
X14801Y14501
X13301Y13501
X12301Y13501
X14801Y12501
X9801Y12501
X8301Y13501
X7301Y13501
X9801Y14501
X4801Y14501
X3301Y13501
X2301Y13501
X4801Y12501
X4701Y7901
X3301Y7001
X2301Y7001
X4701Y5901
X7301Y7001
X8301Y7001
X9801Y8001
X9801Y6001
X12301Y7001
X13301Y7001
X14801Y8001
X14801Y6001
X17301Y7001
X18301Y7001
X19801Y8001
X19801Y6001
M30
