G75*
G70*
%OFA0B0*%
%FSLAX24Y24*%
%IPPOS*%
%LPD*%
%AMOC8*
5,1,8,0,0,1.08239X$1,22.5*
%
%ADD10OC8,0.0520*%
%ADD11OC8,0.0476*%
%ADD12C,0.0100*%
D10*
X003384Y002081D03*
X003384Y003081D03*
X003384Y004081D03*
X003384Y005081D03*
X006384Y005081D03*
X006384Y004081D03*
X006384Y003081D03*
X006384Y002081D03*
D11*
X005514Y000841D03*
X004384Y000841D03*
X001314Y001921D03*
X001314Y002691D03*
X001314Y004041D03*
X001314Y005041D03*
X001434Y006591D03*
X001434Y007591D03*
X003274Y007061D03*
X003274Y008561D03*
X007274Y008561D03*
X007274Y007061D03*
D12*
X001314Y001921D02*
X001344Y001861D01*
X001984Y001221D01*
X005184Y001221D01*
X005504Y000901D01*
X005514Y000841D01*
X003384Y003081D02*
X003344Y003061D01*
X001664Y003061D01*
X001344Y002741D01*
X001314Y002691D01*
X001344Y004021D02*
X001314Y004041D01*
X001344Y004021D02*
X003344Y004021D01*
X003384Y004081D01*
X003424Y004101D01*
X003824Y004501D01*
X007264Y004501D01*
X007264Y007061D01*
X007274Y007061D01*
X005984Y005541D02*
X001824Y005541D01*
X001344Y005061D01*
X001314Y005041D01*
X001434Y006591D02*
X001904Y007061D01*
X003274Y007061D01*
X003264Y008501D02*
X002384Y008501D01*
X001504Y007621D01*
X001434Y007591D01*
X003264Y008501D02*
X003274Y008561D01*
X005984Y005541D02*
X006384Y005141D01*
X006384Y005081D01*
M02*
