%
M48
M72
T01C0.0276
T02C0.0320
T03C0.0591
%
T01
X1314Y1921
X1314Y2691
X1314Y4041
X1314Y5041
X1434Y6591
X1434Y7591
X3274Y7061
X3274Y8561
X7274Y8561
X7274Y7061
X5514Y841
X4384Y841
T02
X3384Y2081
X3384Y3081
X3384Y4081
X3384Y5081
X6384Y5081
X6384Y4081
X6384Y3081
X6384Y2081
T03
X1244Y751
X8394Y751
X8394Y8681
X1244Y8681
M30
