G75*
G70*
%OFA0B0*%
%FSLAX24Y24*%
%IPPOS*%
%LPD*%
%AMOC8*
5,1,8,0,0,1.08239X$1,22.5*
%
%ADD10C,0.0000*%
%ADD11R,0.0476X0.0476*%
%ADD12C,0.0476*%
%ADD13OC8,0.0476*%
%ADD14C,0.0476*%
%ADD15C,0.0100*%
%ADD16C,0.0400*%
D10*
X000101Y000202D02*
X000201Y019998D01*
X015871Y019998D01*
X015871Y000202D01*
X000101Y000202D01*
D11*
X001401Y001102D03*
X012601Y009202D03*
X014901Y010302D03*
X013207Y015202D03*
X014601Y018702D03*
X009601Y018702D03*
X002301Y019202D03*
D12*
X003601Y017202D03*
X003601Y014202D03*
X003601Y013202D03*
X003601Y010202D03*
X008301Y013902D03*
X008301Y016902D03*
X008601Y018702D03*
X007601Y018702D03*
X012101Y016702D03*
X013994Y015202D03*
X012101Y013702D03*
X012601Y011202D03*
X012601Y018702D03*
X013601Y018702D03*
D13*
X007101Y012702D03*
X006601Y011952D03*
X006101Y012702D03*
X006601Y010202D03*
X007101Y009452D03*
X007601Y010202D03*
X006601Y015702D03*
X005601Y016702D03*
X004601Y015702D03*
X001601Y019202D03*
X000901Y019202D03*
X000601Y010202D03*
X000601Y009202D03*
X000601Y008202D03*
X002301Y001102D03*
X014901Y009402D03*
D14*
X009239Y006402D02*
X008763Y006402D01*
X007239Y006402D02*
X006763Y006402D01*
X006763Y004402D02*
X007239Y004402D01*
X008763Y004402D02*
X009239Y004402D01*
X009239Y002402D02*
X008763Y002402D01*
X007239Y002402D02*
X006763Y002402D01*
D15*
X007001Y002402D02*
X009001Y002402D01*
X009001Y004402D02*
X009041Y004402D01*
X014901Y009962D01*
X014901Y010302D01*
X012601Y011202D02*
X012581Y011242D01*
X012581Y013162D01*
X012101Y013642D01*
X012101Y013702D01*
X013941Y015242D02*
X013621Y015562D01*
X013621Y018682D01*
X013601Y018702D01*
X012601Y018702D02*
X012101Y018202D01*
X012101Y016702D01*
X013941Y015242D02*
X013994Y015202D01*
X012601Y011202D02*
X012581Y011162D01*
X010421Y009002D01*
X010321Y006002D01*
X008641Y006002D01*
X008321Y006322D01*
X008321Y008322D01*
X007141Y009402D01*
X007101Y009452D01*
X006661Y010202D02*
X006601Y010202D01*
X006661Y010202D02*
X006661Y011882D01*
X006601Y011952D01*
X006101Y012702D02*
X006101Y012762D01*
X004661Y014202D01*
X004661Y015642D01*
X004601Y015702D01*
X005601Y016702D02*
X005621Y016682D01*
X006661Y016682D01*
X006661Y017162D01*
X006661Y016682D02*
X006661Y016122D01*
X006821Y015962D01*
X006821Y015882D01*
X006661Y015722D01*
X006601Y015702D01*
X006661Y015642D01*
X006661Y015562D01*
X008261Y013962D01*
X008301Y013902D01*
X008301Y016902D02*
X008581Y017242D01*
X008581Y017722D01*
X007601Y018702D01*
X008601Y018702D02*
X008661Y018682D01*
X009721Y017822D01*
X009721Y006302D01*
X008981Y006442D01*
X009001Y006402D01*
X006961Y004562D02*
X006961Y004402D01*
X007001Y004402D01*
X006961Y004562D02*
X001781Y009642D01*
X001381Y009242D02*
X001381Y001162D01*
X001401Y001102D01*
X001781Y001082D02*
X001781Y000762D01*
X001701Y000682D01*
X000981Y000682D01*
X000981Y019082D01*
X000901Y019162D01*
X000901Y019202D01*
X001381Y018202D02*
X002341Y019162D01*
X002301Y019202D01*
X001381Y018202D02*
X001381Y009242D01*
X003601Y013202D02*
X003621Y013242D01*
X003621Y014202D01*
X003601Y014202D01*
X002301Y001102D02*
X002261Y001082D01*
X001781Y001082D01*
D16*
X001381Y009242D03*
X001781Y009642D03*
M02*
