%
M48
M72
T01C0.0276
T02C0.0354
T03C0.0591
T04C0.0630
T05C0.0787
T06C0.0866
T07C0.1102
%
T01
X4052Y4802
X5552Y4802
X5552Y8802
X4302Y10302
X3302Y11302
X4302Y12302
X5052Y14302
X4052Y15302
X5052Y16302
X7802Y16802
X9302Y16802
X11052Y15302
X12052Y14302
X12052Y16302
X9302Y12802
X7802Y12802
X4052Y8802
X1552Y10052
X1552Y14052
X1802Y15802
X1802Y17802
X12302Y11802
X12302Y10802
X12552Y8802
X12552Y4802
X15302Y12802
X15302Y13802
T02
X9052Y11052
X9052Y10052
T03
X16052Y8552
X16052Y7052
X16052Y5552
X1552Y6052
X1552Y8052
T04
X5802Y3052
X7052Y3052
X8302Y3052
X7552Y5052
X7552Y6552
X7552Y8052
X9052Y8052
X9052Y6552
X9052Y5052
X10552Y5052
X10552Y6552
X10552Y8052
X11352Y3052
X12752Y3052
T05
X12802Y18552
X10834Y18552
X8521Y18552
X6552Y18552
X4584Y18552
X14771Y18552
T06
X12752Y1502
X11352Y1502
X8277Y1502
X7052Y1502
X5827Y1502
T07
X1302Y1302
X16802Y1302
X16802Y19302
X1302Y19302
M30
