%
M48
M72
T01C0.0240
T02C0.0276
%
T01
X1681Y9342
X2081Y9742
T02
X1701Y1202
X2601Y1202
X7301Y2502
X9301Y2502
X9301Y4502
X7301Y4502
X7301Y6502
X9301Y6502
X7401Y9552
X7901Y10302
X6901Y10302
X6901Y12052
X7401Y12802
X6401Y12802
X3901Y13302
X3901Y14302
X4901Y15802
X5901Y16802
X6901Y15802
X9101Y14502
X9101Y17502
X8901Y18802
X9901Y18802
X7901Y18802
X3901Y17302
X2601Y19302
X1901Y19302
X1201Y19302
X901Y10302
X901Y9302
X901Y8302
X3901Y10302
X12401Y13802
X13507Y15302
X14294Y15302
X12401Y16802
X12901Y18802
X13901Y18802
X14901Y18802
X12901Y11302
X12901Y9302
X15201Y9502
X15201Y10402
M30
