G75*
G70*
%OFA0B0*%
%FSLAX24Y24*%
%IPPOS*%
%LPD*%
%AMOC8*
5,1,8,0,0,1.08239X$1,22.5*
%
%ADD10C,0.0000*%
%ADD11C,0.0520*%
%ADD12R,0.0476X0.0476*%
%ADD13OC8,0.0476*%
%ADD14C,0.0476*%
%ADD15C,0.0100*%
D10*
X000101Y000101D02*
X000101Y010097D01*
X009971Y010097D01*
X009971Y000101D01*
X000101Y000101D01*
D11*
X003601Y003341D02*
X003601Y003861D01*
X004601Y003861D02*
X004601Y003341D01*
X005601Y003341D02*
X005601Y003861D01*
X006601Y003861D02*
X006601Y003341D01*
X006601Y006341D02*
X006601Y006861D01*
X005601Y006861D02*
X005601Y006341D01*
X004601Y006341D02*
X004601Y006861D01*
X003601Y006861D02*
X003601Y006341D01*
D12*
X006601Y008601D03*
X002101Y009101D03*
X002101Y001101D03*
X001101Y001101D03*
X005601Y001101D03*
X008101Y001101D03*
D13*
X009101Y001101D03*
X004851Y001101D03*
X003101Y001101D03*
D14*
X008851Y003101D03*
X008851Y004101D03*
X008851Y006101D03*
X005601Y008601D03*
X004601Y008601D03*
X002101Y008101D03*
X008851Y009101D03*
D15*
X008821Y009061D01*
X005621Y009061D01*
X005621Y008661D01*
X005601Y008601D01*
X005541Y008581D01*
X004661Y007701D01*
X004661Y006661D01*
X004601Y006601D01*
X005541Y006581D02*
X005601Y006601D01*
X005541Y006581D02*
X005541Y004501D01*
X004661Y003621D01*
X004601Y003601D01*
X003601Y003601D02*
X003541Y003541D01*
X003541Y001541D01*
X003101Y001101D01*
X002101Y001101D02*
X002101Y001141D01*
X003141Y002181D01*
X003141Y006181D01*
X003541Y006581D01*
X003601Y006601D01*
X003621Y006661D01*
X003621Y007621D01*
X004601Y008601D01*
X006601Y006601D02*
X006661Y006581D01*
X006661Y006261D01*
X008821Y004101D01*
X008851Y004101D01*
X008851Y003101D02*
X008901Y003061D01*
X009061Y002901D01*
X009061Y001541D01*
X004901Y001541D01*
X004901Y001141D01*
X004851Y001101D01*
X009061Y001141D02*
X009101Y001101D01*
X009061Y001141D02*
X009061Y001541D01*
M02*
