G75*
G70*
%OFA0B0*%
%FSLAX24Y24*%
%IPPOS*%
%LPD*%
%AMOC8*
5,1,8,0,0,1.08239X$1,22.5*
%
%ADD10C,0.0060*%
%ADD11C,0.0050*%
%ADD12C,0.0040*%
%ADD13R,0.0200X0.0150*%
%ADD14C,0.0020*%
D10*
X000681Y001851D02*
X000681Y002101D01*
X000681Y001851D02*
X000931Y001851D01*
X001931Y001851D02*
X002181Y001851D01*
X002181Y002101D01*
X002181Y003101D02*
X002181Y003351D01*
X001931Y003351D01*
X001931Y003851D02*
X002181Y003851D01*
X002181Y004101D01*
X002181Y005101D02*
X002181Y005351D01*
X001931Y005351D01*
X001931Y006101D02*
X002181Y006101D01*
X002181Y006351D01*
X002181Y007351D02*
X002181Y007601D01*
X001931Y007601D01*
X001945Y008133D02*
X002195Y008133D01*
X002195Y008383D01*
X002195Y009383D02*
X002195Y009633D01*
X001945Y009633D01*
X000945Y009633D02*
X000695Y009633D01*
X000695Y009383D01*
X000695Y008383D02*
X000695Y008133D01*
X000945Y008133D01*
X000931Y007601D02*
X000681Y007601D01*
X000681Y007351D01*
X000681Y006351D02*
X000681Y006101D01*
X000931Y006101D01*
X000931Y005351D02*
X000681Y005351D01*
X000681Y005101D01*
X000681Y004101D02*
X000681Y003851D01*
X000931Y003851D01*
X000931Y003351D02*
X000681Y003351D01*
X000681Y003101D01*
X003211Y001164D02*
X003211Y001108D01*
X003268Y001051D01*
X003382Y001051D01*
X003438Y000994D01*
X003438Y000937D01*
X003382Y000881D01*
X003268Y000881D01*
X003211Y000937D01*
X003211Y001164D02*
X003268Y001221D01*
X003382Y001221D01*
X003438Y001164D01*
X003580Y001108D02*
X003580Y000937D01*
X003636Y000881D01*
X003807Y000881D01*
X003807Y000824D02*
X003750Y000767D01*
X003693Y000767D01*
X003807Y000824D02*
X003807Y001108D01*
X003948Y001108D02*
X004118Y001108D01*
X004175Y001051D01*
X004175Y000881D01*
X004373Y000937D02*
X004373Y001164D01*
X004316Y001108D02*
X004430Y001108D01*
X004562Y001051D02*
X004619Y001108D01*
X004732Y001108D01*
X004789Y001051D01*
X004789Y000881D01*
X004930Y000881D02*
X004930Y001108D01*
X004930Y000994D02*
X005044Y001108D01*
X005100Y001108D01*
X005237Y001051D02*
X005237Y000937D01*
X005294Y000881D01*
X005407Y000881D01*
X005464Y000937D01*
X005464Y001051D01*
X005407Y001108D01*
X005294Y001108D01*
X005237Y001051D01*
X005605Y001108D02*
X005719Y001108D01*
X005662Y001164D02*
X005662Y000937D01*
X005719Y000881D01*
X005851Y000937D02*
X005851Y001051D01*
X005908Y001108D01*
X006021Y001108D01*
X006078Y001051D01*
X006078Y000994D01*
X005851Y000994D01*
X005851Y000937D02*
X005908Y000881D01*
X006021Y000881D01*
X006219Y000881D02*
X006219Y001221D01*
X006389Y001108D02*
X006219Y000994D01*
X006389Y000881D01*
X005733Y001943D02*
X005733Y002193D01*
X005603Y002063D02*
X005863Y002063D01*
X004299Y002603D02*
X004301Y002665D01*
X004307Y002728D01*
X004317Y002789D01*
X004331Y002850D01*
X004348Y002910D01*
X004369Y002969D01*
X004395Y003026D01*
X004423Y003081D01*
X004455Y003135D01*
X004491Y003186D01*
X004529Y003236D01*
X004571Y003282D01*
X004615Y003326D01*
X004663Y003367D01*
X004712Y003405D01*
X004764Y003439D01*
X004818Y003470D01*
X004874Y003498D01*
X004932Y003522D01*
X004991Y003543D01*
X005051Y003559D01*
X005112Y003572D01*
X005174Y003581D01*
X005236Y003586D01*
X005299Y003587D01*
X005361Y003584D01*
X005423Y003577D01*
X005485Y003566D01*
X005545Y003551D01*
X005605Y003533D01*
X005663Y003511D01*
X005720Y003485D01*
X005775Y003455D01*
X005828Y003422D01*
X005879Y003386D01*
X005927Y003347D01*
X005973Y003304D01*
X006016Y003259D01*
X006056Y003211D01*
X006093Y003161D01*
X006127Y003108D01*
X006158Y003054D01*
X006184Y002998D01*
X006208Y002940D01*
X006227Y002880D01*
X006243Y002820D01*
X006255Y002758D01*
X006263Y002697D01*
X006267Y002634D01*
X006267Y002572D01*
X006263Y002509D01*
X006255Y002448D01*
X006243Y002386D01*
X006227Y002326D01*
X006208Y002266D01*
X006184Y002208D01*
X006158Y002152D01*
X006127Y002098D01*
X006093Y002045D01*
X006056Y001995D01*
X006016Y001947D01*
X005973Y001902D01*
X005927Y001859D01*
X005879Y001820D01*
X005828Y001784D01*
X005775Y001751D01*
X005720Y001721D01*
X005663Y001695D01*
X005605Y001673D01*
X005545Y001655D01*
X005485Y001640D01*
X005423Y001629D01*
X005361Y001622D01*
X005299Y001619D01*
X005236Y001620D01*
X005174Y001625D01*
X005112Y001634D01*
X005051Y001647D01*
X004991Y001663D01*
X004932Y001684D01*
X004874Y001708D01*
X004818Y001736D01*
X004764Y001767D01*
X004712Y001801D01*
X004663Y001839D01*
X004615Y001880D01*
X004571Y001924D01*
X004529Y001970D01*
X004491Y002020D01*
X004455Y002071D01*
X004423Y002125D01*
X004395Y002180D01*
X004369Y002237D01*
X004348Y002296D01*
X004331Y002356D01*
X004317Y002417D01*
X004307Y002478D01*
X004301Y002541D01*
X004299Y002603D01*
X005079Y003080D02*
X005136Y003024D01*
X005249Y003024D01*
X005306Y003080D01*
X005447Y003024D02*
X005674Y003024D01*
X005561Y003024D02*
X005561Y003364D01*
X005447Y003251D01*
X005306Y003307D02*
X005249Y003364D01*
X005136Y003364D01*
X005079Y003307D01*
X005079Y003080D01*
X005136Y004381D02*
X005080Y004437D01*
X005136Y004381D02*
X005250Y004381D01*
X005307Y004437D01*
X005307Y004494D01*
X005250Y004551D01*
X005193Y004551D01*
X005250Y004551D02*
X005307Y004608D01*
X005307Y004664D01*
X005250Y004721D01*
X005136Y004721D01*
X005080Y004664D01*
X004938Y004664D02*
X004882Y004721D01*
X004768Y004721D01*
X004711Y004664D01*
X004711Y004437D01*
X004768Y004381D01*
X004882Y004381D01*
X004938Y004437D01*
X003884Y005167D02*
X006184Y005167D01*
X006184Y009167D01*
X005434Y009167D01*
X005432Y009128D01*
X005426Y009089D01*
X005417Y009051D01*
X005404Y009014D01*
X005387Y008978D01*
X005367Y008945D01*
X005343Y008913D01*
X005317Y008884D01*
X005288Y008858D01*
X005256Y008834D01*
X005223Y008814D01*
X005187Y008797D01*
X005150Y008784D01*
X005112Y008775D01*
X005073Y008769D01*
X005034Y008767D01*
X004995Y008769D01*
X004956Y008775D01*
X004918Y008784D01*
X004881Y008797D01*
X004845Y008814D01*
X004812Y008834D01*
X004780Y008858D01*
X004751Y008884D01*
X004725Y008913D01*
X004701Y008945D01*
X004681Y008978D01*
X004664Y009014D01*
X004651Y009051D01*
X004642Y009089D01*
X004636Y009128D01*
X004634Y009167D01*
X003884Y009167D01*
X003884Y005167D01*
X003771Y004839D02*
X006592Y004839D01*
X006592Y003863D01*
X003771Y003863D01*
X003771Y004839D01*
X004663Y007731D02*
X004606Y007787D01*
X004663Y007731D02*
X004777Y007731D01*
X004833Y007787D01*
X004833Y007901D01*
X004777Y007958D01*
X004720Y007958D01*
X004606Y007901D01*
X004606Y008071D01*
X004833Y008071D01*
X004975Y008071D02*
X004975Y007901D01*
X005088Y007958D01*
X005145Y007958D01*
X005202Y007901D01*
X005202Y007787D01*
X005145Y007731D01*
X005031Y007731D01*
X004975Y007787D01*
X004975Y008071D02*
X005202Y008071D01*
X005343Y008071D02*
X005343Y007901D01*
X005457Y007958D01*
X005513Y007958D01*
X005570Y007901D01*
X005570Y007787D01*
X005513Y007731D01*
X005400Y007731D01*
X005343Y007787D01*
X005343Y008071D02*
X005570Y008071D01*
X006592Y009613D02*
X006592Y010589D01*
X003771Y010589D01*
X003771Y009613D01*
X006592Y009613D01*
X007531Y009607D02*
X007531Y009207D01*
X007581Y009157D01*
X007581Y008044D01*
X007531Y007994D01*
X007531Y007594D01*
X007533Y007577D01*
X007537Y007560D01*
X007544Y007544D01*
X007554Y007530D01*
X007567Y007517D01*
X007581Y007507D01*
X007597Y007500D01*
X007614Y007496D01*
X007631Y007494D01*
X008231Y007494D01*
X008248Y007496D01*
X008265Y007500D01*
X008281Y007507D01*
X008295Y007517D01*
X008308Y007530D01*
X008318Y007544D01*
X008325Y007560D01*
X008329Y007577D01*
X008331Y007594D01*
X008331Y007994D01*
X008281Y008044D01*
X008281Y009157D01*
X008331Y009207D01*
X008331Y009607D01*
X008329Y009624D01*
X008325Y009641D01*
X008318Y009657D01*
X008308Y009671D01*
X008295Y009684D01*
X008281Y009694D01*
X008265Y009701D01*
X008248Y009705D01*
X008231Y009707D01*
X007631Y009707D01*
X007614Y009705D01*
X007597Y009701D01*
X007581Y009694D01*
X007567Y009684D01*
X007554Y009671D01*
X007544Y009657D01*
X007537Y009641D01*
X007533Y009624D01*
X007531Y009607D01*
X007881Y008989D02*
X007825Y008933D01*
X007825Y008819D01*
X007938Y008819D02*
X007938Y008989D01*
X007881Y008989D02*
X008051Y008989D01*
X008051Y008819D01*
X007995Y008762D01*
X007938Y008819D01*
X008051Y008621D02*
X008051Y008394D01*
X008051Y008508D02*
X007711Y008508D01*
X007825Y008394D01*
X007881Y008253D02*
X007768Y008253D01*
X007711Y008196D01*
X007711Y008026D01*
X008051Y008026D01*
X007938Y008026D02*
X007938Y008196D01*
X007881Y008253D01*
X007938Y008139D02*
X008051Y008253D01*
X009211Y009631D02*
X009211Y009971D01*
X009382Y009971D01*
X009438Y009914D01*
X009438Y009801D01*
X009382Y009744D01*
X009211Y009744D01*
X009325Y009744D02*
X009438Y009631D01*
X009580Y009631D02*
X009807Y009631D01*
X009693Y009631D02*
X009693Y009971D01*
X009580Y009858D01*
X009948Y009858D02*
X010118Y009858D01*
X010175Y009801D01*
X010175Y009687D01*
X010118Y009631D01*
X009948Y009631D01*
X009948Y009971D01*
X005487Y010082D02*
X005487Y010138D01*
X005430Y010195D01*
X005317Y010195D01*
X005260Y010138D01*
X005119Y010138D02*
X005062Y010195D01*
X004949Y010195D01*
X004892Y010138D01*
X004892Y009911D01*
X004949Y009855D01*
X005062Y009855D01*
X005119Y009911D01*
X005260Y009855D02*
X005487Y010082D01*
X005487Y009855D02*
X005260Y009855D01*
X007631Y004957D02*
X008231Y004957D01*
X008248Y004955D01*
X008265Y004951D01*
X008281Y004944D01*
X008295Y004934D01*
X008308Y004921D01*
X008318Y004907D01*
X008325Y004891D01*
X008329Y004874D01*
X008331Y004857D01*
X008331Y004457D01*
X008281Y004407D01*
X008281Y003294D01*
X008331Y003244D01*
X008331Y002844D01*
X008329Y002827D01*
X008325Y002810D01*
X008318Y002794D01*
X008308Y002780D01*
X008295Y002767D01*
X008281Y002757D01*
X008265Y002750D01*
X008248Y002746D01*
X008231Y002744D01*
X007631Y002744D01*
X007614Y002746D01*
X007597Y002750D01*
X007581Y002757D01*
X007567Y002767D01*
X007554Y002780D01*
X007544Y002794D01*
X007537Y002810D01*
X007533Y002827D01*
X007531Y002844D01*
X007531Y003244D01*
X007581Y003294D01*
X007581Y004407D01*
X007531Y004457D01*
X007531Y004857D01*
X007533Y004874D01*
X007537Y004891D01*
X007544Y004907D01*
X007554Y004921D01*
X007567Y004934D01*
X007581Y004944D01*
X007597Y004951D01*
X007614Y004955D01*
X007631Y004957D01*
X007768Y004239D02*
X007711Y004183D01*
X007711Y004069D01*
X007768Y004012D01*
X007768Y003871D02*
X007711Y003814D01*
X007711Y003644D01*
X008051Y003644D01*
X007938Y003644D02*
X007938Y003814D01*
X007881Y003871D01*
X007768Y003871D01*
X007938Y003758D02*
X008051Y003871D01*
X008051Y004012D02*
X007825Y004239D01*
X007768Y004239D01*
X008051Y004239D02*
X008051Y004012D01*
X004562Y001221D02*
X004562Y000881D01*
X004430Y000881D02*
X004373Y000937D01*
X003948Y000881D02*
X003948Y001108D01*
D11*
X006681Y000351D02*
X006931Y000351D01*
X006931Y000851D01*
X007431Y000851D01*
X007431Y000351D01*
X007931Y000351D01*
X007931Y000851D01*
X008431Y000851D01*
X008431Y000351D01*
X008681Y000351D01*
X008660Y003434D02*
X010660Y003434D01*
X010660Y009434D01*
X008660Y009434D01*
X008660Y003434D01*
D12*
X006250Y000504D02*
X006217Y000504D01*
X006150Y000437D01*
X006150Y000371D02*
X006150Y000504D01*
X006063Y000471D02*
X006029Y000504D01*
X005962Y000504D01*
X005929Y000471D01*
X005929Y000404D01*
X005962Y000371D01*
X006029Y000371D01*
X006063Y000404D01*
X006063Y000471D01*
X005849Y000504D02*
X005782Y000504D01*
X005815Y000538D02*
X005815Y000404D01*
X005849Y000371D01*
X005694Y000371D02*
X005594Y000371D01*
X005561Y000404D01*
X005594Y000437D01*
X005694Y000437D01*
X005694Y000471D02*
X005694Y000371D01*
X005694Y000471D02*
X005661Y000504D01*
X005594Y000504D01*
X005447Y000571D02*
X005447Y000371D01*
X005414Y000371D02*
X005480Y000371D01*
X005333Y000371D02*
X005266Y000371D01*
X005300Y000371D02*
X005300Y000571D01*
X005266Y000571D01*
X005152Y000571D02*
X005152Y000604D01*
X005152Y000504D02*
X005152Y000371D01*
X005119Y000371D02*
X005186Y000371D01*
X005152Y000504D02*
X005119Y000504D01*
X005031Y000504D02*
X004931Y000504D01*
X004898Y000471D01*
X004898Y000404D01*
X004931Y000371D01*
X005031Y000371D01*
X004810Y000404D02*
X004777Y000437D01*
X004710Y000437D01*
X004677Y000471D01*
X004710Y000504D01*
X004810Y000504D01*
X004810Y000404D02*
X004777Y000371D01*
X004677Y000371D01*
X004589Y000404D02*
X004589Y000538D01*
X004556Y000571D01*
X004489Y000571D01*
X004456Y000538D01*
X004456Y000404D01*
X004489Y000371D01*
X004556Y000371D01*
X004589Y000404D01*
X004147Y000437D02*
X004014Y000437D01*
X004014Y000404D02*
X004014Y000471D01*
X004047Y000504D01*
X004114Y000504D01*
X004147Y000471D01*
X004147Y000437D01*
X004114Y000371D02*
X004047Y000371D01*
X004014Y000404D01*
X003933Y000371D02*
X003867Y000371D01*
X003900Y000371D02*
X003900Y000571D01*
X003867Y000571D01*
X003779Y000471D02*
X003746Y000504D01*
X003646Y000504D01*
X003646Y000571D02*
X003646Y000371D01*
X003746Y000371D01*
X003779Y000404D01*
X003779Y000471D01*
X003558Y000471D02*
X003558Y000371D01*
X003458Y000371D01*
X003425Y000404D01*
X003458Y000437D01*
X003558Y000437D01*
X003558Y000471D02*
X003525Y000504D01*
X003458Y000504D01*
X003344Y000504D02*
X003277Y000504D01*
X003311Y000538D02*
X003311Y000404D01*
X003344Y000371D01*
X003190Y000404D02*
X003156Y000437D01*
X003090Y000437D01*
X003056Y000471D01*
X003090Y000504D01*
X003190Y000504D01*
X003190Y000404D02*
X003156Y000371D01*
X003056Y000371D01*
X002969Y000371D02*
X002969Y000504D01*
X002902Y000571D01*
X002835Y000504D01*
X002835Y000371D01*
X002835Y000471D02*
X002969Y000471D01*
X002527Y000471D02*
X002527Y000404D01*
X002493Y000371D01*
X002427Y000371D01*
X002393Y000404D01*
X002393Y000471D02*
X002460Y000504D01*
X002493Y000504D01*
X002527Y000471D01*
X002527Y000571D02*
X002393Y000571D01*
X002393Y000471D01*
X002306Y000471D02*
X002272Y000504D01*
X002239Y000504D01*
X002172Y000471D01*
X002172Y000571D01*
X002306Y000571D01*
X002306Y000471D02*
X002306Y000404D01*
X002272Y000371D01*
X002206Y000371D01*
X002172Y000404D01*
X002085Y000404D02*
X002051Y000371D01*
X001985Y000371D01*
X001951Y000404D01*
X001951Y000471D02*
X002018Y000504D01*
X002051Y000504D01*
X002085Y000471D01*
X002085Y000404D01*
X001951Y000471D02*
X001951Y000571D01*
X002085Y000571D01*
X002495Y002371D02*
X002628Y002371D01*
X002661Y002404D01*
X002661Y002471D01*
X002628Y002504D01*
X002495Y002504D01*
X002461Y002471D01*
X002461Y002404D01*
X002495Y002371D01*
X002528Y002592D02*
X002628Y002592D01*
X002661Y002625D01*
X002661Y002725D01*
X002528Y002725D01*
X002528Y002813D02*
X002528Y002879D01*
X002495Y002846D02*
X002628Y002846D01*
X002661Y002879D01*
X002628Y004371D02*
X002495Y004371D01*
X002461Y004404D01*
X002461Y004471D01*
X002495Y004504D01*
X002561Y004504D02*
X002561Y004437D01*
X002561Y004504D02*
X002628Y004504D01*
X002661Y004471D01*
X002661Y004404D01*
X002628Y004371D01*
X002661Y004592D02*
X002461Y004592D01*
X002661Y004725D01*
X002461Y004725D01*
X002461Y004813D02*
X002461Y004913D01*
X002495Y004946D01*
X002628Y004946D01*
X002661Y004913D01*
X002661Y004813D01*
X002461Y004813D01*
X002451Y006679D02*
X002585Y006679D01*
X002651Y006746D01*
X002585Y006812D01*
X002451Y006812D01*
X002551Y006900D02*
X002551Y007033D01*
X002485Y006966D02*
X002618Y006966D01*
X002618Y008458D02*
X002485Y008458D01*
X002451Y008491D01*
X002451Y008558D01*
X002485Y008591D01*
X002551Y008591D02*
X002551Y008525D01*
X002551Y008591D02*
X002618Y008591D01*
X002651Y008558D01*
X002651Y008491D01*
X002618Y008458D01*
X002651Y008679D02*
X002451Y008679D01*
X002651Y008812D01*
X002451Y008812D01*
X002451Y008900D02*
X002451Y009000D01*
X002485Y009033D01*
X002618Y009033D01*
X002651Y009000D01*
X002651Y008900D01*
X002451Y008900D01*
X005335Y004321D02*
X005201Y004121D01*
X005422Y004154D02*
X005422Y004288D01*
X005456Y004321D01*
X005522Y004321D01*
X005556Y004288D01*
X005643Y004321D02*
X005643Y004187D01*
X005710Y004121D01*
X005777Y004187D01*
X005777Y004321D01*
X005556Y004154D02*
X005522Y004121D01*
X005456Y004121D01*
X005422Y004154D01*
X005414Y000571D02*
X005447Y000571D01*
D13*
X007931Y002669D03*
X007931Y005032D03*
X007931Y007419D03*
X007931Y009782D03*
D14*
X010180Y009054D02*
X010180Y008981D01*
X010217Y008944D01*
X010290Y009017D02*
X010290Y009054D01*
X010327Y009091D01*
X010364Y009091D01*
X010400Y009054D01*
X010400Y008981D01*
X010364Y008944D01*
X010290Y009054D02*
X010254Y009091D01*
X010217Y009091D01*
X010180Y009054D01*
X010400Y003841D02*
X010400Y003694D01*
X010400Y003767D02*
X010180Y003767D01*
X010254Y003694D01*
M02*
