G75*
G70*
%OFA0B0*%
%FSLAX24Y24*%
%IPPOS*%
%LPD*%
%AMOC8*
5,1,8,0,0,1.08239X$1,22.5*
%
%ADD10C,0.0000*%
%ADD11R,0.0554X0.0554*%
%ADD12C,0.0554*%
%ADD13R,0.0476X0.0476*%
%ADD14C,0.0476*%
%ADD15OC8,0.0476*%
%ADD16C,0.0476*%
%ADD17C,0.0100*%
D10*
X000101Y000101D02*
X000101Y015097D01*
X014971Y015097D01*
X014971Y000101D01*
X000101Y000101D01*
D11*
X005601Y009601D03*
D12*
X007601Y009601D03*
D13*
X009601Y009601D03*
X011101Y011601D03*
X014101Y013601D03*
X008101Y013601D03*
X003401Y014401D03*
X002501Y014401D03*
X000801Y007201D03*
X000801Y006201D03*
X002801Y000901D03*
X014301Y007401D03*
D14*
X011601Y009601D03*
X010101Y011601D03*
X009101Y011601D03*
X007101Y013601D03*
X006101Y013601D03*
X004601Y011101D03*
X004601Y008101D03*
X005601Y007101D03*
X007601Y007101D03*
X008601Y007101D03*
X010601Y007101D03*
X012101Y013601D03*
X013101Y013601D03*
D15*
X007601Y011601D03*
X006601Y011601D03*
X005601Y011601D03*
X001601Y014401D03*
X000801Y008101D03*
X001801Y000901D03*
X014301Y008401D03*
D16*
X010101Y004839D02*
X010101Y004363D01*
X010101Y002839D02*
X010101Y002363D01*
X008101Y002363D02*
X008101Y002839D01*
X008101Y004363D02*
X008101Y004839D01*
X006101Y004839D02*
X006101Y004363D01*
X006101Y002839D02*
X006101Y002363D01*
D17*
X006101Y002601D02*
X006101Y004601D01*
X005601Y007101D02*
X005541Y007141D01*
X005541Y007221D01*
X004661Y008101D01*
X004601Y008101D01*
X005601Y007101D02*
X007601Y009101D01*
X007621Y009141D01*
X007621Y009541D01*
X007601Y009601D01*
X007621Y009621D01*
X007621Y011541D01*
X007601Y011601D01*
X006601Y011601D02*
X005601Y010601D01*
X005601Y009601D01*
X004601Y011101D02*
X004581Y011141D01*
X003461Y012261D01*
X003461Y014341D01*
X003401Y014401D01*
X002501Y014401D02*
X002501Y001141D01*
X002741Y000901D01*
X002801Y000901D01*
X001801Y000901D02*
X001781Y000901D01*
X001221Y001461D01*
X001221Y006741D01*
X001221Y014021D01*
X001601Y014401D01*
X005601Y011601D02*
X006101Y012101D01*
X006101Y013601D01*
X007101Y013601D02*
X008101Y013601D01*
X009101Y011601D02*
X010101Y011601D01*
X010601Y011101D01*
X010601Y007101D01*
X010601Y005101D01*
X010101Y004601D01*
X010101Y002601D02*
X013101Y005601D01*
X013101Y013601D01*
X014101Y013601D02*
X014101Y008581D01*
X014261Y008421D01*
X014301Y008401D01*
X011601Y009601D02*
X011101Y010101D01*
X011101Y011601D01*
X009601Y009601D02*
X009601Y008101D01*
X008601Y007101D01*
X001221Y006741D02*
X000821Y007141D01*
X000801Y007201D01*
M02*
