%
M48
M72
T01C0.0276
T02C0.0354
%
T01
X1801Y901
X2801Y901
X6101Y2601
X8101Y2601
X10101Y2601
X10101Y4601
X8101Y4601
X6101Y4601
X5601Y7101
X4601Y8101
X7601Y7101
X8601Y7101
X10601Y7101
X11601Y9601
X9601Y9601
X10101Y11601
X11101Y11601
X9101Y11601
X7601Y11601
X6601Y11601
X5601Y11601
X4601Y11101
X6101Y13601
X7101Y13601
X8101Y13601
X12101Y13601
X13101Y13601
X14101Y13601
X14301Y8401
X14301Y7401
X3401Y14401
X2501Y14401
X1601Y14401
X801Y8101
X801Y7201
X801Y6201
T02
X5601Y9601
X7601Y9601
M30
