G75*
G70*
%OFA0B0*%
%FSLAX24Y24*%
%IPPOS*%
%LPD*%
%AMOC8*
5,1,8,0,0,1.08239X$1,22.5*
%
%ADD10C,0.0520*%
%ADD11C,0.0476*%
%ADD12C,0.1000*%
%ADD13R,0.0476X0.0476*%
%ADD14OC8,0.1250*%
%ADD15OC8,0.0476*%
%ADD16C,0.0400*%
D10*
X009542Y009826D02*
X010062Y009826D01*
X010062Y010826D02*
X009542Y010826D01*
X009542Y011826D02*
X010062Y011826D01*
X010062Y012826D02*
X009542Y012826D01*
X009542Y013826D02*
X010062Y013826D01*
X010062Y014826D02*
X009542Y014826D01*
X009542Y015826D02*
X010062Y015826D01*
X010062Y016826D02*
X009542Y016826D01*
X012542Y016826D02*
X013062Y016826D01*
X013062Y015826D02*
X012542Y015826D01*
X012542Y014826D02*
X013062Y014826D01*
X013062Y013826D02*
X012542Y013826D01*
X012542Y012826D02*
X013062Y012826D01*
X013062Y011826D02*
X012542Y011826D01*
X012542Y010826D02*
X013062Y010826D01*
X013062Y009826D02*
X012542Y009826D01*
D11*
X013802Y007826D03*
X015302Y007326D03*
X016802Y007826D03*
X016802Y009326D03*
X015302Y009326D03*
X015302Y010326D03*
X016802Y010826D03*
X016802Y012326D03*
X015302Y012326D03*
X015302Y013326D03*
X016802Y013826D03*
X016802Y015326D03*
X015302Y015326D03*
X015302Y016326D03*
X016802Y016826D03*
X016802Y018326D03*
X015302Y018326D03*
X012302Y018326D03*
X010302Y018326D03*
X007802Y018326D03*
X006802Y014826D03*
X004802Y014826D03*
X005802Y011826D03*
X007802Y011826D03*
X007802Y009826D03*
X005802Y009826D03*
X009802Y007826D03*
X020802Y007826D03*
X020802Y009326D03*
X020802Y010826D03*
X020802Y012326D03*
X020802Y013826D03*
X020802Y015326D03*
X020802Y016826D03*
X020802Y018326D03*
X022302Y018326D03*
X024302Y018326D03*
X026802Y018326D03*
X027302Y016326D03*
X025802Y016326D03*
X023802Y015826D03*
X023802Y013326D03*
X025802Y012326D03*
X025302Y011326D03*
X023802Y010826D03*
X025302Y009826D03*
X027302Y009826D03*
X027302Y011326D03*
X027302Y012326D03*
D12*
X026771Y006826D03*
X024802Y006826D03*
X022834Y006826D03*
X007771Y006826D03*
X005802Y006826D03*
X003834Y006826D03*
D13*
X003802Y014826D03*
X007802Y014826D03*
X007802Y017326D03*
X022802Y015826D03*
X022802Y013326D03*
X022802Y010826D03*
X025802Y018326D03*
D14*
X028802Y016826D03*
X030302Y015326D03*
X028802Y013326D03*
X030302Y011826D03*
X001802Y014326D03*
X001802Y016326D03*
D15*
X005302Y016826D03*
X005302Y017826D03*
X005302Y018826D03*
D16*
X002532Y006664D02*
X002468Y006425D01*
X003141Y006425D01*
X003115Y006471D01*
X003075Y006568D01*
X003048Y006669D01*
X003034Y006773D01*
X003034Y006825D01*
X003833Y006825D01*
X003833Y006826D01*
X003034Y006826D01*
X003034Y006878D01*
X003048Y006982D01*
X003075Y007083D01*
X003115Y007180D01*
X003167Y007271D01*
X003231Y007354D01*
X003305Y007428D01*
X003388Y007492D01*
X003479Y007545D01*
X003576Y007585D01*
X003677Y007612D01*
X003781Y007625D01*
X003834Y007625D01*
X003834Y006826D01*
X003834Y006826D01*
X003834Y007625D01*
X003886Y007625D01*
X003990Y007612D01*
X004092Y007585D01*
X004188Y007545D01*
X004279Y007492D01*
X004362Y007428D01*
X004437Y007354D01*
X004500Y007271D01*
X004553Y007180D01*
X004593Y007083D01*
X004620Y006982D01*
X004634Y006878D01*
X004634Y006826D01*
X003834Y006826D01*
X003834Y006825D01*
X004634Y006825D01*
X004634Y006773D01*
X004620Y006669D01*
X004593Y006568D01*
X004553Y006471D01*
X004527Y006425D01*
X005110Y006425D01*
X005083Y006471D01*
X005043Y006568D01*
X005016Y006669D01*
X005002Y006773D01*
X005002Y006825D01*
X005802Y006825D01*
X005802Y006826D01*
X005802Y007625D01*
X005750Y007625D01*
X005646Y007612D01*
X005545Y007585D01*
X005448Y007545D01*
X005357Y007492D01*
X005274Y007428D01*
X005200Y007354D01*
X005136Y007271D01*
X005083Y007180D01*
X005043Y007083D01*
X005016Y006982D01*
X005002Y006878D01*
X005002Y006826D01*
X005802Y006826D01*
X005803Y006826D01*
X006602Y006826D01*
X006602Y006878D01*
X006589Y006982D01*
X006561Y007083D01*
X006521Y007180D01*
X006469Y007271D01*
X006405Y007354D01*
X006331Y007428D01*
X006248Y007492D01*
X006157Y007545D01*
X006060Y007585D01*
X005959Y007612D01*
X005855Y007625D01*
X005803Y007625D01*
X005803Y006826D01*
X005803Y006825D01*
X006602Y006825D01*
X006602Y006773D01*
X006589Y006669D01*
X006561Y006568D01*
X006521Y006471D01*
X006495Y006425D01*
X007006Y006425D01*
X006911Y006654D01*
X006911Y006997D01*
X007042Y007313D01*
X007284Y007555D01*
X007600Y007685D01*
X007942Y007685D01*
X008258Y007555D01*
X008427Y007385D01*
X008570Y007385D01*
X009258Y008073D01*
X009296Y008164D01*
X009464Y008332D01*
X009683Y008423D01*
X009921Y008423D01*
X010141Y008332D01*
X010309Y008164D01*
X010400Y007944D01*
X010400Y007707D01*
X010309Y007487D01*
X010141Y007319D01*
X010050Y007281D01*
X009277Y006508D01*
X009194Y006425D01*
X022069Y006425D01*
X021974Y006654D01*
X021974Y006997D01*
X022105Y007313D01*
X022347Y007555D01*
X022663Y007685D01*
X022902Y007685D01*
X023242Y008026D01*
X023242Y010282D01*
X023112Y010228D01*
X022493Y010228D01*
X022402Y010266D01*
X022191Y010266D01*
X021985Y010351D01*
X021400Y010936D01*
X021400Y010707D01*
X021309Y010487D01*
X021141Y010319D01*
X020921Y010228D01*
X020683Y010228D01*
X020464Y010319D01*
X020296Y010487D01*
X020205Y010707D01*
X020205Y010944D01*
X020296Y011164D01*
X020464Y011332D01*
X020683Y011423D01*
X020913Y011423D01*
X020555Y011781D01*
X020464Y011819D01*
X020296Y011987D01*
X020205Y012207D01*
X020205Y012444D01*
X020296Y012664D01*
X020464Y012832D01*
X020683Y012923D01*
X020921Y012923D01*
X021141Y012832D01*
X021309Y012664D01*
X021347Y012573D01*
X022313Y011607D01*
X022328Y011643D01*
X022578Y011893D01*
X022735Y012050D01*
X022941Y012135D01*
X024941Y012135D01*
X025164Y012135D01*
X025242Y012103D01*
X025242Y012115D01*
X025205Y012207D01*
X025205Y012444D01*
X025296Y012664D01*
X025397Y012766D01*
X024012Y012766D01*
X023921Y012728D01*
X023683Y012728D01*
X023464Y012819D01*
X023361Y012922D01*
X023345Y012884D01*
X023244Y012783D01*
X023112Y012728D01*
X022493Y012728D01*
X022361Y012783D01*
X022259Y012884D01*
X022205Y013016D01*
X022205Y013131D01*
X022070Y013266D01*
X021013Y013266D01*
X020921Y013228D01*
X020683Y013228D01*
X020464Y013319D01*
X020296Y013487D01*
X020205Y013707D01*
X020205Y013944D01*
X020296Y014164D01*
X020464Y014332D01*
X020683Y014423D01*
X020921Y014423D01*
X021013Y014385D01*
X022191Y014385D01*
X022414Y014385D01*
X022620Y014300D01*
X022996Y013923D01*
X023112Y013923D01*
X023244Y013868D01*
X023345Y013767D01*
X023361Y013729D01*
X023464Y013832D01*
X023683Y013923D01*
X023921Y013923D01*
X024012Y013885D01*
X027969Y013885D01*
X028394Y014310D01*
X029210Y014310D01*
X029787Y013733D01*
X029787Y012918D01*
X029210Y012341D01*
X028394Y012341D01*
X027969Y012766D01*
X027612Y012766D01*
X027653Y012736D01*
X027713Y012676D01*
X027762Y012607D01*
X027801Y012532D01*
X027827Y012451D01*
X027840Y012368D01*
X027840Y012326D01*
X027303Y012326D01*
X027303Y012325D01*
X027840Y012325D01*
X027840Y012283D01*
X027827Y012200D01*
X027801Y012119D01*
X027762Y012044D01*
X027713Y011975D01*
X027653Y011915D01*
X027584Y011866D01*
X027509Y011827D01*
X027504Y011826D01*
X027509Y011824D01*
X027584Y011785D01*
X027653Y011736D01*
X027713Y011676D01*
X027762Y011607D01*
X027801Y011532D01*
X027827Y011451D01*
X027840Y011368D01*
X027840Y011326D01*
X027303Y011326D01*
X027303Y011325D01*
X027840Y011325D01*
X027840Y011283D01*
X027827Y011200D01*
X027801Y011119D01*
X027762Y011044D01*
X027713Y010975D01*
X027653Y010915D01*
X027584Y010866D01*
X027509Y010827D01*
X027428Y010801D01*
X027345Y010788D01*
X027303Y010788D01*
X027303Y011325D01*
X027302Y011325D01*
X027302Y010788D01*
X027260Y010788D01*
X027176Y010801D01*
X027096Y010827D01*
X027020Y010866D01*
X026952Y010915D01*
X026892Y010975D01*
X026862Y011016D01*
X026862Y010135D01*
X026892Y010176D01*
X026952Y010236D01*
X027020Y010285D01*
X027096Y010324D01*
X027176Y010350D01*
X027260Y010363D01*
X027302Y010363D01*
X027302Y009826D01*
X027303Y009826D01*
X027840Y009826D01*
X027840Y009868D01*
X027827Y009951D01*
X027801Y010032D01*
X027762Y010107D01*
X027713Y010176D01*
X027653Y010236D01*
X027584Y010285D01*
X027509Y010324D01*
X027428Y010350D01*
X027345Y010363D01*
X027303Y010363D01*
X027303Y009826D01*
X027303Y009825D01*
X027840Y009825D01*
X027840Y009783D01*
X027827Y009700D01*
X027801Y009619D01*
X027762Y009544D01*
X027713Y009475D01*
X027653Y009415D01*
X027584Y009366D01*
X027509Y009327D01*
X027428Y009301D01*
X027345Y009288D01*
X027303Y009288D01*
X027303Y009825D01*
X027302Y009825D01*
X027302Y009288D01*
X027260Y009288D01*
X027176Y009301D01*
X027096Y009327D01*
X027020Y009366D01*
X026952Y009415D01*
X026892Y009475D01*
X026862Y009516D01*
X026862Y008437D01*
X026862Y008214D01*
X026777Y008008D01*
X025662Y006894D01*
X025662Y006654D01*
X025567Y006425D01*
X026078Y006425D01*
X026052Y006471D01*
X026012Y006568D01*
X025985Y006669D01*
X025971Y006773D01*
X025971Y006825D01*
X026770Y006825D01*
X026770Y006826D01*
X025971Y006826D01*
X025971Y006878D01*
X025985Y006982D01*
X026012Y007083D01*
X026052Y007180D01*
X026104Y007271D01*
X026168Y007354D01*
X026242Y007428D01*
X026325Y007492D01*
X026416Y007545D01*
X026513Y007585D01*
X026614Y007612D01*
X026718Y007625D01*
X026771Y007625D01*
X026771Y006826D01*
X026771Y006826D01*
X026771Y007625D01*
X026823Y007625D01*
X026927Y007612D01*
X027029Y007585D01*
X027125Y007545D01*
X027216Y007492D01*
X027299Y007428D01*
X027374Y007354D01*
X027437Y007271D01*
X027490Y007180D01*
X027530Y007083D01*
X027557Y006982D01*
X027571Y006878D01*
X027571Y006826D01*
X026771Y006826D01*
X026771Y006825D01*
X027571Y006825D01*
X027571Y006773D01*
X027557Y006669D01*
X027530Y006568D01*
X027490Y006471D01*
X027464Y006425D01*
X028636Y006425D01*
X028572Y006664D01*
X028572Y006987D01*
X028656Y007300D01*
X028818Y007581D01*
X029047Y007810D01*
X029328Y007972D01*
X029640Y008055D01*
X029964Y008055D01*
X030277Y007972D01*
X030558Y007810D01*
X030702Y007665D01*
X030702Y010917D01*
X030685Y010901D01*
X030303Y010901D01*
X030303Y011825D01*
X030303Y011826D01*
X030702Y011826D01*
X030702Y011825D01*
X030303Y011825D01*
X030302Y011825D01*
X030302Y010901D01*
X029919Y010901D01*
X029377Y011442D01*
X029377Y011825D01*
X030302Y011825D01*
X030302Y011826D01*
X030302Y012750D01*
X029919Y012750D01*
X029377Y012209D01*
X029377Y011826D01*
X030302Y011826D01*
X030303Y011826D01*
X030303Y012750D01*
X030685Y012750D01*
X030702Y012734D01*
X030702Y014417D01*
X030685Y014401D01*
X030303Y014401D01*
X030303Y015325D01*
X030302Y015325D01*
X030302Y014401D01*
X029919Y014401D01*
X029377Y014942D01*
X029377Y015325D01*
X030302Y015325D01*
X030302Y015326D01*
X030302Y016250D01*
X029919Y016250D01*
X029377Y015709D01*
X029377Y015326D01*
X030302Y015326D01*
X030303Y015326D01*
X030303Y016250D01*
X030685Y016250D01*
X030702Y016234D01*
X030702Y017986D01*
X030558Y017841D01*
X030277Y017679D01*
X029964Y017596D01*
X029640Y017596D01*
X029346Y017674D01*
X029787Y017233D01*
X029787Y016418D01*
X029210Y015841D01*
X028595Y015841D01*
X028414Y015766D01*
X028191Y015766D01*
X027512Y015766D01*
X027421Y015728D01*
X027183Y015728D01*
X026964Y015819D01*
X026796Y015987D01*
X026758Y016078D01*
X026400Y016436D01*
X026400Y016207D01*
X026309Y015987D01*
X026141Y015819D01*
X025921Y015728D01*
X025683Y015728D01*
X025592Y015766D01*
X024534Y015766D01*
X024347Y015578D01*
X024309Y015487D01*
X024141Y015319D01*
X023921Y015228D01*
X023683Y015228D01*
X023464Y015319D01*
X023361Y015422D01*
X023345Y015384D01*
X023244Y015283D01*
X023112Y015228D01*
X022997Y015228D01*
X022620Y014851D01*
X022414Y014766D01*
X022191Y014766D01*
X021013Y014766D01*
X020921Y014728D01*
X020683Y014728D01*
X020464Y014819D01*
X020296Y014987D01*
X020205Y015207D01*
X020205Y015444D01*
X020242Y015536D01*
X020242Y016266D01*
X019691Y016266D01*
X019485Y016351D01*
X019328Y016508D01*
X018070Y017766D01*
X017154Y017766D01*
X017277Y017643D01*
X017362Y017437D01*
X017362Y017036D01*
X017400Y016944D01*
X017400Y016707D01*
X017309Y016487D01*
X017141Y016319D01*
X017113Y016307D01*
X017120Y016300D01*
X017277Y016143D01*
X017362Y015937D01*
X017362Y015536D01*
X017400Y015444D01*
X017400Y015207D01*
X017362Y015115D01*
X017362Y014036D01*
X017400Y013944D01*
X017400Y013707D01*
X017309Y013487D01*
X017141Y013319D01*
X017113Y013307D01*
X017120Y013300D01*
X017277Y013143D01*
X017362Y012937D01*
X017362Y012885D01*
X017414Y012885D01*
X017620Y012800D01*
X018120Y012300D01*
X018277Y012143D01*
X018362Y011937D01*
X018362Y009937D01*
X018362Y009714D01*
X018277Y009508D01*
X017777Y009008D01*
X017620Y008851D01*
X017414Y008766D01*
X017012Y008766D01*
X016921Y008728D01*
X016683Y008728D01*
X016612Y008757D01*
X016612Y008625D01*
X016915Y008423D01*
X016921Y008423D01*
X017141Y008332D01*
X017309Y008164D01*
X017400Y007944D01*
X017400Y007707D01*
X017309Y007487D01*
X017141Y007319D01*
X016921Y007228D01*
X016683Y007228D01*
X016464Y007319D01*
X016296Y007487D01*
X016294Y007492D01*
X015862Y007779D01*
X015862Y007536D01*
X015900Y007444D01*
X015900Y007207D01*
X015809Y006987D01*
X015641Y006819D01*
X015421Y006728D01*
X015183Y006728D01*
X014964Y006819D01*
X014796Y006987D01*
X014705Y007207D01*
X014705Y007444D01*
X014742Y007536D01*
X014742Y008094D01*
X013570Y009266D01*
X013331Y009266D01*
X013186Y009206D01*
X012419Y009206D01*
X012191Y009300D01*
X012017Y009474D01*
X011922Y009702D01*
X011922Y009949D01*
X012017Y010177D01*
X012166Y010325D01*
X012017Y010474D01*
X011922Y010702D01*
X011922Y010949D01*
X012017Y011177D01*
X012166Y011325D01*
X012017Y011474D01*
X011922Y011702D01*
X011922Y011949D01*
X012017Y012177D01*
X012166Y012325D01*
X012017Y012474D01*
X011922Y012702D01*
X011922Y012949D01*
X012017Y013177D01*
X012166Y013325D01*
X012017Y013474D01*
X011922Y013702D01*
X011922Y013949D01*
X012017Y014177D01*
X012166Y014325D01*
X012017Y014474D01*
X011922Y014702D01*
X011922Y014949D01*
X012017Y015177D01*
X012166Y015325D01*
X012017Y015474D01*
X011922Y015702D01*
X011922Y015949D01*
X012017Y016177D01*
X012166Y016325D01*
X012017Y016474D01*
X011922Y016702D01*
X011922Y016949D01*
X012017Y017177D01*
X012191Y017351D01*
X012419Y017445D01*
X013186Y017445D01*
X013331Y017385D01*
X013570Y017385D01*
X014758Y018573D01*
X014796Y018664D01*
X014964Y018832D01*
X015183Y018923D01*
X015421Y018923D01*
X015512Y018885D01*
X015691Y018885D01*
X015914Y018885D01*
X016120Y018800D01*
X016284Y018636D01*
X016296Y018664D01*
X016464Y018832D01*
X016683Y018923D01*
X016921Y018923D01*
X017013Y018885D01*
X018191Y018885D01*
X018414Y018885D01*
X018620Y018800D01*
X020034Y017385D01*
X020592Y017385D01*
X020683Y017423D01*
X020921Y017423D01*
X021013Y017385D01*
X021070Y017385D01*
X021742Y018057D01*
X021742Y018115D01*
X021705Y018207D01*
X021705Y018436D01*
X021347Y018078D01*
X021309Y017987D01*
X021141Y017819D01*
X020921Y017728D01*
X020683Y017728D01*
X020464Y017819D01*
X020296Y017987D01*
X020205Y018207D01*
X020205Y018444D01*
X020296Y018664D01*
X020464Y018832D01*
X020555Y018870D01*
X020910Y019226D01*
X005748Y019226D01*
X005900Y019073D01*
X005900Y018578D01*
X005605Y018283D01*
X005840Y018048D01*
X005840Y017826D01*
X005303Y017826D01*
X005303Y017825D01*
X005840Y017825D01*
X005840Y017603D01*
X005623Y017385D01*
X007070Y017385D01*
X007205Y017520D01*
X007205Y017635D01*
X007259Y017767D01*
X007361Y017868D01*
X007460Y017910D01*
X007452Y017915D01*
X007392Y017975D01*
X007342Y018044D01*
X007304Y018119D01*
X007278Y018200D01*
X007265Y018283D01*
X007265Y018325D01*
X007802Y018325D01*
X007802Y018326D01*
X007802Y018863D01*
X007760Y018863D01*
X007676Y018850D01*
X007596Y018824D01*
X007520Y018785D01*
X007452Y018736D01*
X007392Y018676D01*
X007342Y018607D01*
X007304Y018532D01*
X007278Y018451D01*
X007265Y018368D01*
X007265Y018326D01*
X007802Y018326D01*
X007803Y018326D01*
X008340Y018326D01*
X008340Y018368D01*
X008327Y018451D01*
X008301Y018532D01*
X008262Y018607D01*
X008213Y018676D01*
X008153Y018736D01*
X008084Y018785D01*
X008009Y018824D01*
X007928Y018850D01*
X007845Y018863D01*
X007803Y018863D01*
X007803Y018326D01*
X007803Y018325D01*
X008340Y018325D01*
X008340Y018283D01*
X008327Y018200D01*
X008301Y018119D01*
X008297Y018112D01*
X008328Y018143D01*
X008828Y018643D01*
X008985Y018800D01*
X009191Y018885D01*
X010092Y018885D01*
X010183Y018923D01*
X010421Y018923D01*
X010641Y018832D01*
X010809Y018664D01*
X010900Y018444D01*
X010900Y018207D01*
X010862Y018115D01*
X010862Y017714D01*
X010777Y017508D01*
X010620Y017351D01*
X010517Y017248D01*
X010588Y017177D01*
X010682Y016949D01*
X010682Y016702D01*
X010588Y016474D01*
X010439Y016326D01*
X010588Y016177D01*
X010682Y015949D01*
X010682Y015702D01*
X010588Y015474D01*
X010414Y015300D01*
X010381Y015286D01*
X010427Y015253D01*
X010489Y015190D01*
X010541Y015119D01*
X010581Y015040D01*
X010609Y014957D01*
X010622Y014870D01*
X010622Y014826D01*
X009803Y014826D01*
X009803Y014825D01*
X010622Y014825D01*
X010622Y014781D01*
X010609Y014694D01*
X010581Y014611D01*
X010541Y014532D01*
X010489Y014461D01*
X010427Y014398D01*
X010356Y014347D01*
X010314Y014326D01*
X010356Y014304D01*
X010427Y014253D01*
X010489Y014190D01*
X010541Y014119D01*
X010581Y014040D01*
X010609Y013957D01*
X010622Y013870D01*
X010622Y013826D01*
X009803Y013826D01*
X009803Y013825D01*
X010622Y013825D01*
X010622Y013781D01*
X010609Y013694D01*
X010581Y013611D01*
X010541Y013532D01*
X010489Y013461D01*
X010427Y013398D01*
X010381Y013365D01*
X010414Y013351D01*
X010588Y013177D01*
X010682Y012949D01*
X010682Y012702D01*
X010588Y012474D01*
X010499Y012385D01*
X010691Y012385D01*
X010914Y012385D01*
X011120Y012300D01*
X011620Y011800D01*
X011777Y011643D01*
X011862Y011437D01*
X011862Y009557D01*
X013034Y008385D01*
X013592Y008385D01*
X013683Y008423D01*
X013921Y008423D01*
X014141Y008332D01*
X014309Y008164D01*
X014400Y007944D01*
X014400Y007707D01*
X014309Y007487D01*
X014141Y007319D01*
X013921Y007228D01*
X013683Y007228D01*
X013592Y007266D01*
X012691Y007266D01*
X012485Y007351D01*
X012328Y007508D01*
X010828Y009008D01*
X010742Y009214D01*
X010742Y009437D01*
X010742Y011094D01*
X010570Y011266D01*
X010499Y011266D01*
X010588Y011177D01*
X010682Y010949D01*
X010682Y010702D01*
X010588Y010474D01*
X010439Y010326D01*
X010588Y010177D01*
X010682Y009949D01*
X010682Y009702D01*
X010588Y009474D01*
X010414Y009300D01*
X010186Y009206D01*
X009419Y009206D01*
X009274Y009266D01*
X008012Y009266D01*
X007921Y009228D01*
X007683Y009228D01*
X007464Y009319D01*
X007296Y009487D01*
X007205Y009707D01*
X007205Y009944D01*
X007296Y010164D01*
X007464Y010332D01*
X007683Y010423D01*
X007913Y010423D01*
X007828Y010508D01*
X007328Y011008D01*
X007242Y011214D01*
X007242Y011437D01*
X007242Y011615D01*
X007205Y011707D01*
X007205Y011944D01*
X007296Y012164D01*
X007464Y012332D01*
X007683Y012423D01*
X007921Y012423D01*
X008141Y012332D01*
X008309Y012164D01*
X008400Y011944D01*
X008400Y011707D01*
X008362Y011615D01*
X008362Y011557D01*
X008534Y011385D01*
X009106Y011385D01*
X009017Y011474D01*
X008922Y011702D01*
X008922Y011949D01*
X009017Y012177D01*
X009166Y012326D01*
X009017Y012474D01*
X008922Y012702D01*
X008922Y012949D01*
X009017Y013177D01*
X009191Y013351D01*
X009224Y013365D01*
X009178Y013398D01*
X000902Y013398D01*
X000902Y012999D02*
X008943Y012999D01*
X009178Y013398D02*
X009115Y013461D01*
X009063Y013532D01*
X009023Y013611D01*
X008996Y013694D01*
X008982Y013781D01*
X008982Y013825D01*
X009802Y013825D01*
X009802Y013826D01*
X009802Y014385D01*
X009802Y014825D01*
X009803Y014825D01*
X009803Y014385D01*
X009803Y013826D01*
X009802Y013826D01*
X008982Y013826D01*
X008982Y013870D01*
X008996Y013957D01*
X009023Y014040D01*
X009063Y014119D01*
X009115Y014190D01*
X009178Y014253D01*
X009249Y014304D01*
X009290Y014326D01*
X009249Y014347D01*
X009178Y014398D01*
X009115Y014461D01*
X009063Y014532D01*
X009023Y014611D01*
X008996Y014694D01*
X008992Y014723D01*
X008620Y014351D01*
X008414Y014266D01*
X008203Y014266D01*
X008112Y014228D01*
X007493Y014228D01*
X007361Y014283D01*
X007259Y014384D01*
X007218Y014483D01*
X007213Y014475D01*
X007153Y014415D01*
X007084Y014366D01*
X007009Y014327D01*
X006928Y014301D01*
X006845Y014288D01*
X006803Y014288D01*
X006803Y014825D01*
X006802Y014825D01*
X006802Y014288D01*
X006760Y014288D01*
X006676Y014301D01*
X006596Y014327D01*
X006520Y014366D01*
X006452Y014415D01*
X006392Y014475D01*
X006342Y014544D01*
X006304Y014619D01*
X006278Y014700D01*
X006265Y014783D01*
X006265Y014825D01*
X006802Y014825D01*
X006802Y014826D01*
X006802Y015363D01*
X006760Y015363D01*
X006676Y015350D01*
X006596Y015324D01*
X006520Y015285D01*
X006452Y015236D01*
X006392Y015176D01*
X006342Y015107D01*
X006304Y015032D01*
X006278Y014951D01*
X006265Y014868D01*
X006265Y014826D01*
X006802Y014826D01*
X006803Y014826D01*
X006803Y015363D01*
X006845Y015363D01*
X006928Y015350D01*
X007009Y015324D01*
X007084Y015285D01*
X007153Y015236D01*
X007213Y015176D01*
X007218Y015168D01*
X007259Y015267D01*
X007361Y015368D01*
X007493Y015423D01*
X008108Y015423D01*
X008328Y015643D01*
X008828Y016143D01*
X008985Y016300D01*
X009131Y016360D01*
X009017Y016474D01*
X008922Y016702D01*
X008922Y016949D01*
X009017Y017177D01*
X009191Y017351D01*
X009242Y017372D01*
X009242Y017437D01*
X009268Y017500D01*
X009120Y017351D01*
X008620Y016851D01*
X008414Y016766D01*
X008203Y016766D01*
X008112Y016728D01*
X007996Y016728D01*
X007620Y016351D01*
X007414Y016266D01*
X007191Y016266D01*
X005588Y016266D01*
X005550Y016228D01*
X005055Y016228D01*
X004705Y016578D01*
X004705Y017073D01*
X004999Y017368D01*
X004765Y017603D01*
X004765Y017825D01*
X005302Y017825D01*
X005302Y017826D01*
X004765Y017826D01*
X004765Y017996D01*
X004362Y017594D01*
X004362Y015226D01*
X004386Y015168D01*
X004392Y015176D01*
X004452Y015236D01*
X004520Y015285D01*
X004596Y015324D01*
X004676Y015350D01*
X004760Y015363D01*
X004802Y015363D01*
X004802Y014826D01*
X004803Y014826D01*
X005340Y014826D01*
X005340Y014868D01*
X005327Y014951D01*
X005301Y015032D01*
X005262Y015107D01*
X005213Y015176D01*
X005153Y015236D01*
X005084Y015285D01*
X005009Y015324D01*
X004928Y015350D01*
X004845Y015363D01*
X004803Y015363D01*
X004803Y014826D01*
X004803Y014825D01*
X005340Y014825D01*
X005340Y014783D01*
X005327Y014700D01*
X005301Y014619D01*
X005262Y014544D01*
X005213Y014475D01*
X005153Y014415D01*
X005084Y014366D01*
X005009Y014327D01*
X004928Y014301D01*
X004845Y014288D01*
X004803Y014288D01*
X004803Y014825D01*
X004802Y014825D01*
X004802Y014288D01*
X004760Y014288D01*
X004676Y014301D01*
X004596Y014327D01*
X004520Y014366D01*
X004452Y014415D01*
X004392Y014475D01*
X004386Y014483D01*
X004345Y014384D01*
X004244Y014283D01*
X004112Y014228D01*
X003493Y014228D01*
X003361Y014283D01*
X003259Y014384D01*
X003205Y014516D01*
X003205Y014631D01*
X002353Y015483D01*
X002210Y015341D01*
X001394Y015341D01*
X000902Y015833D01*
X000902Y014734D01*
X001419Y015250D01*
X001802Y015250D01*
X001802Y014326D01*
X001803Y014326D01*
X002727Y014326D01*
X002727Y014709D01*
X002185Y015250D01*
X001803Y015250D01*
X001803Y014326D01*
X001803Y014325D01*
X002727Y014325D01*
X002727Y013942D01*
X002185Y013401D01*
X001803Y013401D01*
X001803Y014325D01*
X001802Y014325D01*
X001802Y013401D01*
X001419Y013401D01*
X000902Y013917D01*
X000902Y007992D01*
X001140Y008055D01*
X001464Y008055D01*
X001777Y007972D01*
X002058Y007810D01*
X002286Y007581D01*
X002448Y007300D01*
X002532Y006987D01*
X002532Y006664D01*
X002521Y006623D02*
X003060Y006623D01*
X003058Y007021D02*
X002523Y007021D01*
X002379Y007420D02*
X003297Y007420D01*
X003834Y007420D02*
X003834Y007420D01*
X004371Y007420D02*
X005265Y007420D01*
X005027Y007021D02*
X004610Y007021D01*
X004608Y006623D02*
X005029Y006623D01*
X005802Y006826D02*
X003834Y006826D01*
X003834Y007021D02*
X003834Y007021D01*
X002043Y007818D02*
X009003Y007818D01*
X009348Y008217D02*
X000902Y008217D01*
X000902Y008615D02*
X011221Y008615D01*
X010825Y009014D02*
X000902Y009014D01*
X000902Y009412D02*
X005456Y009412D01*
X005452Y009415D02*
X005520Y009366D01*
X005596Y009327D01*
X005676Y009301D01*
X005760Y009288D01*
X005802Y009288D01*
X005802Y009825D01*
X005803Y009825D01*
X005803Y009826D01*
X006340Y009826D01*
X006340Y009868D01*
X006327Y009951D01*
X006301Y010032D01*
X006262Y010107D01*
X006213Y010176D01*
X006153Y010236D01*
X006084Y010285D01*
X006009Y010324D01*
X005928Y010350D01*
X005845Y010363D01*
X005803Y010363D01*
X005803Y009826D01*
X005802Y009826D01*
X005802Y010363D01*
X005760Y010363D01*
X005676Y010350D01*
X005596Y010324D01*
X005520Y010285D01*
X005452Y010236D01*
X005392Y010176D01*
X005342Y010107D01*
X005304Y010032D01*
X005278Y009951D01*
X005265Y009868D01*
X005265Y009826D01*
X005802Y009826D01*
X005802Y009825D01*
X005265Y009825D01*
X005265Y009783D01*
X005278Y009700D01*
X005304Y009619D01*
X005342Y009544D01*
X005392Y009475D01*
X005452Y009415D01*
X005802Y009412D02*
X005803Y009412D01*
X005803Y009288D02*
X005845Y009288D01*
X005928Y009301D01*
X006009Y009327D01*
X006084Y009366D01*
X006153Y009415D01*
X006213Y009475D01*
X006262Y009544D01*
X006301Y009619D01*
X006327Y009700D01*
X006340Y009783D01*
X006340Y009825D01*
X005803Y009825D01*
X005803Y009288D01*
X006149Y009412D02*
X007370Y009412D01*
X007205Y009811D02*
X006340Y009811D01*
X006179Y010209D02*
X007341Y010209D01*
X007728Y010608D02*
X000902Y010608D01*
X000902Y010209D02*
X005426Y010209D01*
X005802Y010209D02*
X005803Y010209D01*
X005802Y009811D02*
X005803Y009811D01*
X005265Y009811D02*
X000902Y009811D01*
X000902Y011007D02*
X007329Y011007D01*
X007242Y011405D02*
X006139Y011405D01*
X006153Y011415D02*
X006213Y011475D01*
X006262Y011544D01*
X006301Y011619D01*
X006327Y011700D01*
X006340Y011783D01*
X006340Y011825D01*
X005803Y011825D01*
X005803Y011826D01*
X006340Y011826D01*
X006340Y011868D01*
X006327Y011951D01*
X006301Y012032D01*
X006262Y012107D01*
X006213Y012176D01*
X006153Y012236D01*
X006084Y012285D01*
X006009Y012324D01*
X005928Y012350D01*
X005845Y012363D01*
X005803Y012363D01*
X005803Y011826D01*
X005802Y011826D01*
X005802Y012363D01*
X005760Y012363D01*
X005676Y012350D01*
X005596Y012324D01*
X005520Y012285D01*
X005452Y012236D01*
X005392Y012176D01*
X005342Y012107D01*
X005304Y012032D01*
X005278Y011951D01*
X005265Y011868D01*
X005265Y011826D01*
X005802Y011826D01*
X005802Y011825D01*
X005803Y011825D01*
X005803Y011288D01*
X005845Y011288D01*
X005928Y011301D01*
X006009Y011327D01*
X006084Y011366D01*
X006153Y011415D01*
X005803Y011405D02*
X005802Y011405D01*
X005802Y011288D02*
X005802Y011825D01*
X005265Y011825D01*
X005265Y011783D01*
X005278Y011700D01*
X005304Y011619D01*
X005342Y011544D01*
X005392Y011475D01*
X005452Y011415D01*
X005520Y011366D01*
X005596Y011327D01*
X005676Y011301D01*
X005760Y011288D01*
X005802Y011288D01*
X005466Y011405D02*
X000902Y011405D01*
X000902Y011804D02*
X005265Y011804D01*
X005419Y012202D02*
X000902Y012202D01*
X000902Y012601D02*
X008964Y012601D01*
X009042Y012202D02*
X008271Y012202D01*
X008400Y011804D02*
X008922Y011804D01*
X009086Y011405D02*
X008515Y011405D01*
X008302Y010826D02*
X009802Y010826D01*
X010643Y010608D02*
X010742Y010608D01*
X010742Y010209D02*
X010555Y010209D01*
X010682Y009811D02*
X010742Y009811D01*
X010742Y009412D02*
X010526Y009412D01*
X011302Y009326D02*
X012802Y007826D01*
X013802Y007826D01*
X014400Y007818D02*
X014742Y007818D01*
X014705Y007420D02*
X014242Y007420D01*
X014781Y007021D02*
X009790Y007021D01*
X009391Y006623D02*
X021987Y006623D01*
X021984Y007021D02*
X015823Y007021D01*
X015900Y007420D02*
X016363Y007420D01*
X016802Y007826D02*
X016052Y008326D01*
X016052Y010076D01*
X016052Y010576D01*
X016052Y011576D01*
X015302Y012326D01*
X014802Y012826D01*
X012802Y012826D01*
X012093Y013398D02*
X010426Y013398D01*
X010661Y012999D02*
X011943Y012999D01*
X011964Y012601D02*
X010640Y012601D01*
X011218Y012202D02*
X012042Y012202D01*
X011922Y011804D02*
X011616Y011804D01*
X011862Y011405D02*
X012086Y011405D01*
X011946Y011007D02*
X011862Y011007D01*
X011862Y010608D02*
X011961Y010608D01*
X012050Y010209D02*
X011862Y010209D01*
X011862Y009811D02*
X011922Y009811D01*
X012007Y009412D02*
X012079Y009412D01*
X012406Y009014D02*
X013822Y009014D01*
X014221Y008615D02*
X012804Y008615D01*
X012018Y007818D02*
X010400Y007818D01*
X009802Y007826D02*
X008802Y006826D01*
X007771Y006826D01*
X008393Y007420D02*
X008605Y007420D01*
X007149Y007420D02*
X006339Y007420D01*
X006578Y007021D02*
X006921Y007021D01*
X006924Y006623D02*
X006576Y006623D01*
X005802Y006826D02*
X005802Y011826D01*
X006802Y012826D01*
X006802Y014826D01*
X004802Y014826D01*
X004802Y014326D01*
X004302Y013826D01*
X002302Y013826D01*
X001802Y014326D01*
X001802Y014195D02*
X001803Y014195D01*
X001802Y014593D02*
X001803Y014593D01*
X001802Y014992D02*
X001803Y014992D01*
X001344Y015391D02*
X000902Y015391D01*
X000902Y014992D02*
X001161Y014992D01*
X000946Y015789D02*
X000902Y015789D01*
X001802Y016326D02*
X002302Y016326D01*
X003802Y014826D01*
X003802Y017826D01*
X004802Y018826D01*
X005302Y018826D01*
X005900Y018977D02*
X020662Y018977D01*
X020260Y018579D02*
X018841Y018579D01*
X019239Y018180D02*
X020215Y018180D01*
X020553Y017782D02*
X019638Y017782D01*
X018851Y016985D02*
X017383Y016985D01*
X017362Y017383D02*
X018453Y017383D01*
X019250Y016586D02*
X017350Y016586D01*
X016802Y016826D02*
X016802Y017326D01*
X016302Y017826D01*
X015802Y018326D01*
X015302Y018326D01*
X013802Y016826D01*
X012802Y016826D01*
X012269Y017383D02*
X010652Y017383D01*
X010667Y016985D02*
X011937Y016985D01*
X011970Y016586D02*
X010634Y016586D01*
X010577Y016188D02*
X012028Y016188D01*
X011922Y015789D02*
X010682Y015789D01*
X010504Y015391D02*
X012100Y015391D01*
X011940Y014992D02*
X010597Y014992D01*
X010573Y014593D02*
X011967Y014593D01*
X012035Y014195D02*
X010485Y014195D01*
X010622Y013796D02*
X011922Y013796D01*
X012802Y013826D02*
X014802Y013826D01*
X015302Y013326D01*
X015802Y013826D02*
X016802Y012826D01*
X016802Y012326D01*
X017302Y012326D01*
X017802Y011826D01*
X017802Y009826D01*
X017302Y009326D01*
X016802Y009326D01*
X016627Y008615D02*
X023242Y008615D01*
X023242Y009014D02*
X021320Y009014D01*
X021309Y008987D02*
X021400Y009207D01*
X021400Y009444D01*
X021309Y009664D01*
X021141Y009832D01*
X020921Y009923D01*
X020683Y009923D01*
X020464Y009832D01*
X020296Y009664D01*
X020205Y009444D01*
X020205Y009207D01*
X020296Y008987D01*
X020464Y008819D01*
X020683Y008728D01*
X020921Y008728D01*
X021141Y008819D01*
X021309Y008987D01*
X021400Y009412D02*
X023242Y009412D01*
X023242Y009811D02*
X021162Y009811D01*
X020442Y009811D02*
X018362Y009811D01*
X018362Y010209D02*
X023242Y010209D01*
X022802Y010826D02*
X022302Y010826D01*
X020802Y012326D01*
X020269Y012601D02*
X017819Y012601D01*
X018218Y012202D02*
X020206Y012202D01*
X020500Y011804D02*
X018362Y011804D01*
X018362Y011405D02*
X020640Y011405D01*
X020230Y011007D02*
X018362Y011007D01*
X018362Y010608D02*
X020245Y010608D01*
X021359Y010608D02*
X021728Y010608D01*
X022802Y010826D02*
X022802Y011326D01*
X023052Y011576D01*
X025052Y011576D01*
X025302Y011326D01*
X025802Y012076D02*
X026302Y011576D01*
X026302Y008326D01*
X024802Y006826D01*
X025649Y006623D02*
X025997Y006623D01*
X025995Y007021D02*
X025790Y007021D01*
X026189Y007420D02*
X026234Y007420D01*
X026771Y007420D02*
X026771Y007420D01*
X026771Y007021D02*
X026771Y007021D01*
X026771Y006826D02*
X027302Y007357D01*
X027302Y009826D01*
X027302Y011326D01*
X027302Y011863D01*
X027302Y012325D01*
X027303Y012325D01*
X027303Y011863D01*
X027303Y011326D01*
X027302Y011326D01*
X027302Y012326D01*
X027302Y012325D01*
X026765Y012325D01*
X026765Y012283D01*
X026778Y012200D01*
X026804Y012119D01*
X026842Y012044D01*
X026892Y011975D01*
X026952Y011915D01*
X027020Y011866D01*
X027096Y011827D01*
X027101Y011826D01*
X027096Y011824D01*
X027020Y011785D01*
X026952Y011736D01*
X026892Y011676D01*
X026862Y011635D01*
X026862Y011687D01*
X026777Y011893D01*
X026620Y012050D01*
X026400Y012270D01*
X026400Y012444D01*
X026309Y012664D01*
X026208Y012766D01*
X026993Y012766D01*
X026952Y012736D01*
X026892Y012676D01*
X026842Y012607D01*
X026804Y012532D01*
X026778Y012451D01*
X026765Y012368D01*
X026765Y012326D01*
X027302Y012326D01*
X027802Y012326D01*
X028302Y011826D01*
X030302Y011826D01*
X030302Y015326D01*
X030302Y015391D02*
X030303Y015391D01*
X030302Y014992D02*
X030303Y014992D01*
X030302Y014593D02*
X030303Y014593D01*
X029726Y014593D02*
X017362Y014593D01*
X017362Y014195D02*
X020326Y014195D01*
X020205Y013796D02*
X017400Y013796D01*
X017220Y013398D02*
X020385Y013398D01*
X020802Y013826D02*
X022302Y013826D01*
X022802Y013326D01*
X022211Y012999D02*
X017336Y012999D01*
X016802Y013826D02*
X016802Y015326D01*
X016802Y015826D01*
X016302Y016326D01*
X015302Y016326D01*
X014802Y016326D01*
X014302Y015826D01*
X012802Y015826D01*
X012802Y014826D02*
X014302Y014826D01*
X014802Y014826D01*
X015302Y015326D01*
X015802Y014826D01*
X015802Y013826D01*
X017362Y014992D02*
X020293Y014992D01*
X020205Y015391D02*
X017400Y015391D01*
X017362Y015789D02*
X020242Y015789D01*
X020242Y016188D02*
X017232Y016188D01*
X018302Y018326D02*
X019802Y016826D01*
X020802Y016826D01*
X021302Y016826D01*
X022302Y017826D01*
X022302Y018326D01*
X022862Y018115D02*
X022900Y018207D01*
X022900Y018444D01*
X022871Y018516D01*
X023799Y018516D01*
X023778Y018451D01*
X023765Y018368D01*
X023765Y018326D01*
X024302Y018326D01*
X024302Y018325D01*
X024303Y018325D01*
X024303Y018326D01*
X024840Y018326D01*
X024840Y018368D01*
X024827Y018451D01*
X024806Y018516D01*
X025070Y018516D01*
X025205Y018381D01*
X025205Y018016D01*
X025259Y017884D01*
X025361Y017783D01*
X025493Y017728D01*
X026112Y017728D01*
X026242Y017782D01*
X026242Y017782D01*
X026242Y016937D01*
X026242Y016731D01*
X026141Y016832D01*
X025921Y016923D01*
X025683Y016923D01*
X025592Y016885D01*
X024414Y016885D01*
X024191Y016885D01*
X023985Y016800D01*
X023555Y016370D01*
X023464Y016332D01*
X023361Y016229D01*
X023345Y016267D01*
X023244Y016368D01*
X023112Y016423D01*
X022493Y016423D01*
X022361Y016368D01*
X022259Y016267D01*
X022205Y016135D01*
X022205Y016020D01*
X022070Y015885D01*
X021362Y015885D01*
X021362Y016266D01*
X021414Y016266D01*
X021620Y016351D01*
X022620Y017351D01*
X022777Y017508D01*
X022862Y017714D01*
X022862Y018115D01*
X022889Y018180D02*
X023784Y018180D01*
X023778Y018200D02*
X023804Y018119D01*
X023842Y018044D01*
X023892Y017975D01*
X023952Y017915D01*
X024020Y017866D01*
X024096Y017827D01*
X024176Y017801D01*
X024260Y017788D01*
X024302Y017788D01*
X024302Y018325D01*
X023765Y018325D01*
X023765Y018283D01*
X023778Y018200D01*
X024302Y018180D02*
X024303Y018180D01*
X024303Y018325D02*
X024303Y017788D01*
X024345Y017788D01*
X024428Y017801D01*
X024509Y017827D01*
X024584Y017866D01*
X024653Y017915D01*
X024713Y017975D01*
X024762Y018044D01*
X024801Y018119D01*
X024827Y018200D01*
X024840Y018283D01*
X024840Y018325D01*
X024303Y018325D01*
X024821Y018180D02*
X025205Y018180D01*
X025362Y017782D02*
X022862Y017782D01*
X022652Y017383D02*
X026242Y017383D01*
X026242Y016985D02*
X022254Y016985D01*
X021855Y016586D02*
X023771Y016586D01*
X024302Y016326D02*
X023802Y015826D01*
X023392Y015391D02*
X023348Y015391D01*
X022761Y014992D02*
X029377Y014992D01*
X029377Y015391D02*
X024213Y015391D01*
X022802Y015826D02*
X022302Y015326D01*
X020802Y015326D01*
X020802Y016826D01*
X021362Y016188D02*
X022226Y016188D01*
X024302Y016326D02*
X025802Y016326D01*
X026392Y016188D02*
X026648Y016188D01*
X027035Y015789D02*
X026069Y015789D01*
X026802Y016826D02*
X027302Y016326D01*
X028302Y016326D01*
X028802Y016826D01*
X029638Y017383D02*
X030702Y017383D01*
X030702Y016985D02*
X029787Y016985D01*
X029787Y016586D02*
X030702Y016586D01*
X030303Y016188D02*
X030302Y016188D01*
X029856Y016188D02*
X029557Y016188D01*
X029458Y015789D02*
X028471Y015789D01*
X030302Y015789D02*
X030303Y015789D01*
X030702Y014195D02*
X029326Y014195D01*
X029724Y013796D02*
X030702Y013796D01*
X030702Y013398D02*
X029787Y013398D01*
X029787Y012999D02*
X030702Y012999D01*
X030303Y012601D02*
X030302Y012601D01*
X029769Y012601D02*
X029471Y012601D01*
X029377Y012202D02*
X027827Y012202D01*
X027766Y012601D02*
X028134Y012601D01*
X027303Y012202D02*
X027302Y012202D01*
X027302Y011804D02*
X027303Y011804D01*
X027548Y011804D02*
X029377Y011804D01*
X029415Y011405D02*
X027834Y011405D01*
X027735Y011007D02*
X029813Y011007D01*
X030302Y011007D02*
X030303Y011007D01*
X030302Y011405D02*
X030303Y011405D01*
X030302Y011804D02*
X030303Y011804D01*
X030302Y011826D02*
X030552Y011826D01*
X030302Y011826D01*
X030302Y012202D02*
X030303Y012202D01*
X028802Y013326D02*
X023802Y013326D01*
X023428Y013796D02*
X023316Y013796D01*
X022725Y014195D02*
X028279Y014195D01*
X026839Y012601D02*
X026335Y012601D01*
X026468Y012202D02*
X026777Y012202D01*
X026814Y011804D02*
X027056Y011804D01*
X027302Y011405D02*
X027303Y011405D01*
X027302Y011007D02*
X027303Y011007D01*
X026869Y011007D02*
X026862Y011007D01*
X026862Y010608D02*
X030702Y010608D01*
X030702Y010209D02*
X027679Y010209D01*
X027303Y010209D02*
X027302Y010209D01*
X026926Y010209D02*
X026862Y010209D01*
X027302Y009811D02*
X027303Y009811D01*
X027302Y009412D02*
X027303Y009412D01*
X027649Y009412D02*
X030702Y009412D01*
X030702Y009014D02*
X026862Y009014D01*
X026862Y008615D02*
X030702Y008615D01*
X030702Y008217D02*
X026862Y008217D01*
X026587Y007818D02*
X029062Y007818D01*
X028725Y007420D02*
X027308Y007420D01*
X027547Y007021D02*
X028581Y007021D01*
X028583Y006623D02*
X027545Y006623D01*
X030543Y007818D02*
X030702Y007818D01*
X030702Y009811D02*
X027840Y009811D01*
X026956Y009412D02*
X026862Y009412D01*
X023802Y010826D02*
X023802Y007794D01*
X022834Y006826D01*
X022212Y007420D02*
X021242Y007420D01*
X021309Y007487D02*
X021400Y007707D01*
X021400Y007944D01*
X021309Y008164D01*
X021141Y008332D01*
X020921Y008423D01*
X020683Y008423D01*
X020464Y008332D01*
X020296Y008164D01*
X020205Y007944D01*
X020205Y007707D01*
X020296Y007487D01*
X020464Y007319D01*
X020683Y007228D01*
X020921Y007228D01*
X021141Y007319D01*
X021309Y007487D01*
X021400Y007818D02*
X023035Y007818D01*
X023242Y008217D02*
X021256Y008217D01*
X020348Y008217D02*
X017256Y008217D01*
X017400Y007818D02*
X020205Y007818D01*
X020363Y007420D02*
X017242Y007420D01*
X015302Y007326D02*
X015302Y008326D01*
X013802Y009826D01*
X012802Y009826D01*
X012802Y010826D02*
X013802Y010826D01*
X015302Y009326D01*
X015302Y010326D02*
X013802Y011826D01*
X012802Y011826D01*
X011302Y011326D02*
X011302Y009326D01*
X009802Y009826D02*
X007802Y009826D01*
X008302Y010826D02*
X007802Y011326D01*
X007802Y011826D01*
X007205Y011804D02*
X006340Y011804D01*
X006186Y012202D02*
X007334Y012202D01*
X005803Y012202D02*
X005802Y012202D01*
X005802Y011804D02*
X005803Y011804D01*
X008982Y013796D02*
X002581Y013796D01*
X002727Y014195D02*
X009120Y014195D01*
X009032Y014593D02*
X008862Y014593D01*
X008302Y014826D02*
X008802Y015326D01*
X009302Y015826D01*
X009802Y015826D01*
X008873Y016188D02*
X004362Y016188D01*
X004362Y016586D02*
X004705Y016586D01*
X004705Y016985D02*
X004362Y016985D01*
X004362Y017383D02*
X004984Y017383D01*
X004765Y017782D02*
X004551Y017782D01*
X005302Y017826D02*
X007302Y017826D01*
X007802Y018326D01*
X007802Y018579D02*
X007803Y018579D01*
X007328Y018579D02*
X005900Y018579D01*
X005708Y018180D02*
X007284Y018180D01*
X007274Y017782D02*
X005840Y017782D01*
X005302Y016826D02*
X007302Y016826D01*
X007802Y017326D01*
X008302Y017326D01*
X008802Y017826D01*
X009302Y018326D01*
X010302Y018326D01*
X010302Y017826D01*
X009802Y017326D01*
X009802Y016826D01*
X009242Y017383D02*
X009152Y017383D01*
X008937Y016985D02*
X008754Y016985D01*
X008970Y016586D02*
X007855Y016586D01*
X008474Y015789D02*
X004362Y015789D01*
X004362Y015391D02*
X007414Y015391D01*
X007802Y014826D02*
X008302Y014826D01*
X006803Y014992D02*
X006802Y014992D01*
X006802Y014593D02*
X006803Y014593D01*
X006317Y014593D02*
X005288Y014593D01*
X004803Y014593D02*
X004802Y014593D01*
X004802Y014992D02*
X004803Y014992D01*
X005314Y014992D02*
X006291Y014992D01*
X003205Y014593D02*
X002727Y014593D01*
X002844Y014992D02*
X002444Y014992D01*
X002445Y015391D02*
X002260Y015391D01*
X001802Y013796D02*
X001803Y013796D01*
X001023Y013796D02*
X000902Y013796D01*
X008321Y018180D02*
X008365Y018180D01*
X008277Y018579D02*
X008764Y018579D01*
X010844Y018579D02*
X011828Y018579D01*
X011842Y018607D02*
X011804Y018532D01*
X011778Y018451D01*
X011765Y018368D01*
X011765Y018326D01*
X012302Y018326D01*
X012302Y018863D01*
X012260Y018863D01*
X012176Y018850D01*
X012096Y018824D01*
X012020Y018785D01*
X011952Y018736D01*
X011892Y018676D01*
X011842Y018607D01*
X011765Y018325D02*
X011765Y018283D01*
X011778Y018200D01*
X011804Y018119D01*
X011842Y018044D01*
X011892Y017975D01*
X011952Y017915D01*
X012020Y017866D01*
X012096Y017827D01*
X012176Y017801D01*
X012260Y017788D01*
X012302Y017788D01*
X012302Y018325D01*
X012303Y018325D01*
X012303Y018326D01*
X012840Y018326D01*
X012840Y018368D01*
X012827Y018451D01*
X012801Y018532D01*
X012762Y018607D01*
X012713Y018676D01*
X012653Y018736D01*
X012584Y018785D01*
X012509Y018824D01*
X012428Y018850D01*
X012345Y018863D01*
X012303Y018863D01*
X012303Y018326D01*
X012302Y018326D01*
X012302Y018325D01*
X011765Y018325D01*
X011784Y018180D02*
X010889Y018180D01*
X010862Y017782D02*
X013967Y017782D01*
X014365Y018180D02*
X012821Y018180D01*
X012827Y018200D02*
X012840Y018283D01*
X012840Y018325D01*
X012303Y018325D01*
X012303Y017788D01*
X012345Y017788D01*
X012428Y017801D01*
X012509Y017827D01*
X012584Y017866D01*
X012653Y017915D01*
X012713Y017975D01*
X012762Y018044D01*
X012801Y018119D01*
X012827Y018200D01*
X012777Y018579D02*
X014760Y018579D01*
X016802Y018326D02*
X018302Y018326D01*
X020802Y018326D02*
X021552Y019076D01*
X025302Y019076D01*
X025802Y018576D01*
X025802Y018326D01*
X026802Y018326D02*
X026802Y016826D01*
X030454Y017782D02*
X030702Y017782D01*
X025269Y012601D02*
X021335Y012601D01*
X021718Y012202D02*
X025206Y012202D01*
X025802Y012326D02*
X025802Y012076D01*
X022489Y011804D02*
X022116Y011804D01*
X020205Y009412D02*
X018181Y009412D01*
X017783Y009014D02*
X020284Y009014D01*
X014619Y008217D02*
X014256Y008217D01*
X012416Y007420D02*
X010242Y007420D01*
X010256Y008217D02*
X011619Y008217D01*
X010742Y011007D02*
X010658Y011007D01*
X011302Y011326D02*
X010802Y011826D01*
X009802Y011826D01*
X009802Y014195D02*
X009803Y014195D01*
X009802Y014593D02*
X009803Y014593D01*
X012302Y018180D02*
X012303Y018180D01*
X012302Y018579D02*
X012303Y018579D01*
X021052Y017782D02*
X021467Y017782D01*
X021449Y018180D02*
X021715Y018180D01*
X005803Y007420D02*
X005802Y007420D01*
X005802Y007021D02*
X005803Y007021D01*
M02*
