%
M48
M72
T01C0.0276
T02C0.0320
T03C0.0354
%
T01
X1101Y1212
X2101Y1212
X3101Y1212
X6101Y1212
X7101Y1212
X9101Y1212
X10601Y1212
X11601Y1212
X12601Y1212
X14101Y1212
X13101Y4212
X11101Y4212
X8601Y4212
X6601Y4212
X4101Y6712
X4101Y8712
X4101Y10712
X4101Y12712
X1101Y12712
X1101Y11712
X3101Y16212
X5101Y16212
X4101Y18712
X3101Y18712
X2101Y18712
X7601Y16212
X9601Y16212
X11601Y18712
X12601Y18712
X13601Y18712
X14601Y12712
X14601Y11712
X13601Y7712
X13601Y6712
T02
X10101Y7212
X10101Y8212
X10101Y9212
X10101Y10212
X10101Y11212
X10101Y12212
X10101Y13212
X7101Y13212
X7101Y12212
X7101Y11212
X7101Y10212
X7101Y9212
X7101Y8212
X7101Y7212
T03
X12601Y14712
X12601Y15712
M30
