G75*
G70*
%OFA0B0*%
%FSLAX24Y24*%
%IPPOS*%
%LPD*%
%AMOC8*
5,1,8,0,0,1.08239X$1,22.5*
%
%ADD10C,0.0520*%
%ADD11C,0.0476*%
%ADD12R,0.0476X0.0476*%
%ADD13C,0.1181*%
%ADD14OC8,0.1500*%
%ADD15C,0.0400*%
%ADD16C,0.0160*%
D10*
X003274Y005667D02*
X003794Y005667D01*
X003794Y006667D02*
X003274Y006667D01*
X003274Y007667D02*
X003794Y007667D01*
X003794Y008667D02*
X003274Y008667D01*
X006274Y008667D02*
X006794Y008667D01*
X006794Y007667D02*
X006274Y007667D01*
X006274Y006667D02*
X006794Y006667D01*
X006794Y005667D02*
X006274Y005667D01*
D11*
X006181Y004351D03*
X004783Y002603D03*
X004181Y004351D03*
X007931Y005851D03*
X007931Y006601D03*
X006181Y010101D03*
X007931Y010601D03*
X004181Y010101D03*
X007931Y001851D03*
D12*
X005783Y002603D03*
D13*
X009660Y004465D03*
X009660Y006434D03*
X009660Y008402D03*
D14*
X001445Y008883D03*
X001431Y006851D03*
X001431Y004601D03*
X001431Y002601D03*
D15*
X001481Y002551D01*
X002106Y002551D01*
X002631Y003076D01*
X002631Y006051D01*
X003247Y006667D01*
X003534Y006667D01*
X003575Y007626D02*
X003534Y007667D01*
X003575Y007626D02*
X004556Y007626D01*
X005515Y006667D01*
X006534Y006667D01*
D16*
X000661Y001971D02*
X000661Y001557D01*
X000781Y001606D01*
X001082Y001606D01*
X001359Y001491D01*
X001572Y001279D01*
X001687Y001001D01*
X001687Y000700D01*
X001637Y000581D01*
X009475Y000581D01*
X009426Y000700D01*
X009426Y001001D01*
X009541Y001279D01*
X009753Y001491D01*
X010031Y001606D01*
X010332Y001606D01*
X010451Y001557D01*
X010451Y004205D01*
X010364Y003995D01*
X010131Y003761D01*
X009826Y003635D01*
X009495Y003635D01*
X009190Y003761D01*
X008956Y003995D01*
X008830Y004300D01*
X008830Y004631D01*
X008956Y004936D01*
X009190Y005169D01*
X009495Y005296D01*
X009826Y005296D01*
X010131Y005169D01*
X010364Y004936D01*
X010451Y004726D01*
X010451Y006173D01*
X010364Y005963D01*
X010131Y005730D01*
X009826Y005603D01*
X009495Y005603D01*
X009190Y005730D01*
X008956Y005963D01*
X008830Y006269D01*
X008830Y006599D01*
X008956Y006904D01*
X009190Y007138D01*
X009495Y007264D01*
X009826Y007264D01*
X010131Y007138D01*
X010364Y006904D01*
X010451Y006694D01*
X010451Y008142D01*
X010364Y007932D01*
X010131Y007698D01*
X009826Y007572D01*
X009495Y007572D01*
X009190Y007698D01*
X008956Y007932D01*
X008830Y008237D01*
X008830Y008568D01*
X008956Y008873D01*
X009190Y009106D01*
X009495Y009233D01*
X009826Y009233D01*
X010131Y009106D01*
X010364Y008873D01*
X010451Y008663D01*
X010451Y010495D01*
X010332Y010445D01*
X010031Y010445D01*
X009753Y010560D01*
X009541Y010773D01*
X009426Y011050D01*
X009426Y011351D01*
X009475Y011471D01*
X001637Y011471D01*
X001687Y011351D01*
X001687Y011050D01*
X001572Y010773D01*
X001359Y010560D01*
X001082Y010445D01*
X000781Y010445D01*
X000661Y010495D01*
X000661Y009414D01*
X001060Y009813D01*
X001388Y009813D01*
X001388Y008941D01*
X001503Y008941D01*
X001503Y009813D01*
X001831Y009813D01*
X002375Y009268D01*
X002375Y008940D01*
X001503Y008940D01*
X001503Y008825D01*
X001503Y007953D01*
X001831Y007953D01*
X002375Y008498D01*
X002375Y008825D01*
X001503Y008825D01*
X001388Y008825D01*
X001388Y007953D01*
X001060Y007953D01*
X000661Y008352D01*
X000661Y007481D01*
X001021Y007841D01*
X001841Y007841D01*
X002421Y007261D01*
X002421Y006463D01*
X002810Y006851D01*
X002851Y006950D01*
X002991Y007091D01*
X003175Y007167D01*
X003894Y007167D01*
X003940Y007186D01*
X004374Y007186D01*
X005266Y006294D01*
X005428Y006227D01*
X005603Y006227D01*
X006030Y006227D01*
X006175Y006167D01*
X006894Y006167D01*
X007078Y006243D01*
X007218Y006384D01*
X007294Y006567D01*
X007294Y006766D01*
X007218Y006950D01*
X007078Y007091D01*
X006894Y007167D01*
X007078Y007243D01*
X007218Y007384D01*
X007294Y007567D01*
X007294Y007766D01*
X007218Y007950D01*
X007078Y008091D01*
X006894Y008167D01*
X007078Y008243D01*
X007218Y008384D01*
X007294Y008567D01*
X007294Y008766D01*
X007218Y008950D01*
X007078Y009091D01*
X006894Y009167D01*
X006175Y009167D01*
X005991Y009091D01*
X005851Y008950D01*
X005774Y008766D01*
X005774Y008567D01*
X005851Y008384D01*
X005991Y008243D01*
X006175Y008167D01*
X006894Y008167D01*
X006175Y008167D01*
X005991Y008091D01*
X005851Y007950D01*
X005774Y007766D01*
X005774Y007567D01*
X005851Y007384D01*
X005991Y007243D01*
X006175Y007167D01*
X006894Y007167D01*
X006175Y007167D01*
X006030Y007107D01*
X005698Y007107D01*
X004929Y007875D01*
X004806Y007999D01*
X004644Y008066D01*
X004102Y008066D01*
X004078Y008091D01*
X003894Y008167D01*
X003175Y008167D01*
X002991Y008091D01*
X002851Y007950D01*
X002774Y007766D01*
X002774Y007567D01*
X002851Y007384D01*
X002991Y007243D01*
X003175Y007167D01*
X003894Y007167D01*
X004078Y007091D01*
X004218Y006950D01*
X004294Y006766D01*
X004294Y006567D01*
X004218Y006384D01*
X004078Y006243D01*
X003894Y006167D01*
X003370Y006167D01*
X003370Y006167D01*
X003894Y006167D01*
X004078Y006091D01*
X004218Y005950D01*
X004294Y005766D01*
X004294Y005567D01*
X004218Y005384D01*
X004078Y005243D01*
X003894Y005167D01*
X003175Y005167D01*
X003071Y005210D01*
X003071Y003163D01*
X003071Y002988D01*
X003004Y002827D01*
X002479Y002302D01*
X002421Y002244D01*
X002421Y002191D01*
X001841Y001611D01*
X001021Y001611D01*
X000661Y001971D01*
X000661Y001845D02*
X000787Y001845D01*
X000661Y001686D02*
X000946Y001686D01*
X001272Y001528D02*
X007579Y001528D01*
X007526Y001580D02*
X007661Y001446D01*
X007836Y001373D01*
X008026Y001373D01*
X008202Y001446D01*
X008336Y001580D01*
X008409Y001756D01*
X008409Y001946D01*
X008336Y002121D01*
X008202Y002256D01*
X008026Y002329D01*
X007836Y002329D01*
X007661Y002256D01*
X007526Y002121D01*
X007454Y001946D01*
X007454Y001756D01*
X007526Y001580D01*
X007482Y001686D02*
X001917Y001686D01*
X002075Y001845D02*
X007454Y001845D01*
X007477Y002003D02*
X002234Y002003D01*
X002393Y002162D02*
X005409Y002162D01*
X005410Y002161D02*
X005498Y002125D01*
X006069Y002125D01*
X006157Y002161D01*
X006225Y002229D01*
X006261Y002317D01*
X006261Y002888D01*
X006225Y002976D01*
X006157Y003044D01*
X006069Y003081D01*
X005498Y003081D01*
X005410Y003044D01*
X005342Y002976D01*
X005306Y002888D01*
X005306Y002317D01*
X005342Y002229D01*
X005410Y002161D01*
X005306Y002320D02*
X005092Y002320D01*
X005102Y002331D02*
X005141Y002384D01*
X005171Y002442D01*
X005191Y002505D01*
X005201Y002570D01*
X005201Y002603D01*
X005201Y002636D01*
X005191Y002701D01*
X005171Y002763D01*
X005141Y002822D01*
X005102Y002875D01*
X005056Y002921D01*
X005002Y002960D01*
X004944Y002990D01*
X004881Y003010D01*
X004816Y003021D01*
X004784Y003021D01*
X004784Y002603D01*
X005201Y002603D01*
X004784Y002603D01*
X004784Y002603D01*
X004783Y002603D01*
X004783Y002603D01*
X004366Y002603D01*
X004366Y002636D01*
X004376Y002701D01*
X004396Y002763D01*
X004426Y002822D01*
X004465Y002875D01*
X004511Y002921D01*
X004564Y002960D01*
X004623Y002990D01*
X004686Y003010D01*
X004750Y003021D01*
X004783Y003021D01*
X004783Y002603D01*
X004366Y002603D01*
X004366Y002570D01*
X004376Y002505D01*
X004396Y002442D01*
X004426Y002384D01*
X004465Y002331D01*
X004511Y002284D01*
X004564Y002245D01*
X004623Y002216D01*
X004686Y002195D01*
X004750Y002185D01*
X004783Y002185D01*
X004783Y002602D01*
X004784Y002602D01*
X004784Y002185D01*
X004816Y002185D01*
X004881Y002195D01*
X004944Y002216D01*
X005002Y002245D01*
X005056Y002284D01*
X005102Y002331D01*
X005182Y002479D02*
X005306Y002479D01*
X005306Y002637D02*
X005201Y002637D01*
X005154Y002796D02*
X005306Y002796D01*
X005333Y002955D02*
X005010Y002955D01*
X004784Y002955D02*
X004783Y002955D01*
X004783Y002796D02*
X004784Y002796D01*
X004783Y002637D02*
X004784Y002637D01*
X004783Y002479D02*
X004784Y002479D01*
X004783Y002320D02*
X004784Y002320D01*
X004475Y002320D02*
X002498Y002320D01*
X002657Y002479D02*
X004384Y002479D01*
X004366Y002637D02*
X002815Y002637D01*
X002974Y002796D02*
X004413Y002796D01*
X004557Y002955D02*
X003057Y002955D01*
X003071Y003113D02*
X010451Y003113D01*
X010451Y002955D02*
X006234Y002955D01*
X006261Y002796D02*
X010451Y002796D01*
X010451Y002637D02*
X006261Y002637D01*
X006261Y002479D02*
X010451Y002479D01*
X010451Y002320D02*
X008046Y002320D01*
X007817Y002320D02*
X006261Y002320D01*
X006157Y002162D02*
X007567Y002162D01*
X008296Y002162D02*
X010451Y002162D01*
X010451Y002003D02*
X008385Y002003D01*
X008409Y001845D02*
X010451Y001845D01*
X010451Y001686D02*
X008380Y001686D01*
X008284Y001528D02*
X009841Y001528D01*
X009631Y001369D02*
X001482Y001369D01*
X001600Y001211D02*
X009513Y001211D01*
X009447Y001052D02*
X001666Y001052D01*
X001687Y000894D02*
X009426Y000894D01*
X009426Y000735D02*
X001687Y000735D01*
X002183Y003249D02*
X001841Y003591D01*
X001021Y003591D01*
X000661Y003231D01*
X000661Y004056D01*
X001046Y003671D01*
X001374Y003671D01*
X001374Y004543D01*
X001489Y004543D01*
X001489Y003671D01*
X001817Y003671D01*
X002191Y004046D01*
X002191Y003258D01*
X002183Y003249D01*
X002191Y003272D02*
X002161Y003272D01*
X002191Y003430D02*
X002002Y003430D01*
X001843Y003589D02*
X002191Y003589D01*
X002191Y003747D02*
X001893Y003747D01*
X002052Y003906D02*
X002191Y003906D01*
X001489Y003906D02*
X001374Y003906D01*
X001374Y004064D02*
X001489Y004064D01*
X001489Y004223D02*
X001374Y004223D01*
X001374Y004381D02*
X001489Y004381D01*
X001489Y004540D02*
X001374Y004540D01*
X001374Y004659D02*
X001374Y005531D01*
X001046Y005531D01*
X000661Y005146D01*
X000661Y006221D01*
X001021Y005861D01*
X001841Y005861D01*
X002243Y006262D01*
X002191Y006138D01*
X002191Y005156D01*
X001817Y005531D01*
X001489Y005531D01*
X001489Y004659D01*
X001374Y004659D01*
X001374Y004699D02*
X001489Y004699D01*
X001489Y004857D02*
X001374Y004857D01*
X001374Y005016D02*
X001489Y005016D01*
X001489Y005174D02*
X001374Y005174D01*
X001374Y005333D02*
X001489Y005333D01*
X001489Y005491D02*
X001374Y005491D01*
X001007Y005491D02*
X000661Y005491D01*
X000661Y005650D02*
X002191Y005650D01*
X002191Y005808D02*
X000661Y005808D01*
X000661Y005967D02*
X000915Y005967D01*
X000757Y006125D02*
X000661Y006125D01*
X000661Y005333D02*
X000848Y005333D01*
X000690Y005174D02*
X000661Y005174D01*
X000661Y003906D02*
X000811Y003906D01*
X000661Y003747D02*
X000970Y003747D01*
X001019Y003589D02*
X000661Y003589D01*
X000661Y003430D02*
X000861Y003430D01*
X000702Y003272D02*
X000661Y003272D01*
X001374Y003747D02*
X001489Y003747D01*
X002173Y005174D02*
X002191Y005174D01*
X002191Y005333D02*
X002015Y005333D01*
X001856Y005491D02*
X002191Y005491D01*
X002191Y005967D02*
X001948Y005967D01*
X002106Y006125D02*
X002191Y006125D01*
X002421Y006601D02*
X002559Y006601D01*
X002421Y006760D02*
X002718Y006760D01*
X002837Y006918D02*
X002421Y006918D01*
X002421Y007077D02*
X002977Y007077D01*
X003010Y007235D02*
X002421Y007235D01*
X002288Y007394D02*
X002846Y007394D01*
X002781Y007552D02*
X002130Y007552D01*
X001971Y007711D02*
X002774Y007711D01*
X002817Y007869D02*
X000661Y007869D01*
X000661Y007711D02*
X000891Y007711D01*
X000733Y007552D02*
X000661Y007552D01*
X000661Y008028D02*
X000985Y008028D01*
X000826Y008186D02*
X000661Y008186D01*
X000661Y008345D02*
X000668Y008345D01*
X001388Y008345D02*
X001503Y008345D01*
X001503Y008186D02*
X001388Y008186D01*
X001388Y008028D02*
X001503Y008028D01*
X001906Y008028D02*
X002928Y008028D01*
X003044Y008290D02*
X003105Y008259D01*
X003171Y008238D01*
X003240Y008227D01*
X003534Y008227D01*
X003534Y008666D01*
X003535Y008666D01*
X003535Y008227D01*
X003829Y008227D01*
X003897Y008238D01*
X003963Y008259D01*
X004025Y008290D01*
X004081Y008331D01*
X004130Y008380D01*
X004171Y008436D01*
X004202Y008498D01*
X004224Y008564D01*
X004234Y008632D01*
X004234Y008667D01*
X004234Y008701D01*
X004224Y008770D01*
X004202Y008836D01*
X004171Y008897D01*
X004130Y008953D01*
X004081Y009002D01*
X004025Y009043D01*
X003963Y009075D01*
X003897Y009096D01*
X003829Y009107D01*
X003535Y009107D01*
X003535Y008667D01*
X004234Y008667D01*
X003535Y008667D01*
X003535Y008667D01*
X003534Y008667D01*
X003534Y008667D01*
X002834Y008667D01*
X002834Y008701D01*
X002845Y008770D01*
X002867Y008836D01*
X002898Y008897D01*
X002939Y008953D01*
X002988Y009002D01*
X003044Y009043D01*
X003105Y009075D01*
X003171Y009096D01*
X003240Y009107D01*
X003534Y009107D01*
X003534Y008667D01*
X002834Y008667D01*
X002834Y008632D01*
X002845Y008564D01*
X002867Y008498D01*
X002898Y008436D01*
X002939Y008380D01*
X002988Y008331D01*
X003044Y008290D01*
X002974Y008345D02*
X002223Y008345D01*
X002375Y008504D02*
X002865Y008504D01*
X002834Y008662D02*
X002375Y008662D01*
X002375Y008821D02*
X002862Y008821D01*
X002965Y008979D02*
X002375Y008979D01*
X002375Y009138D02*
X006105Y009138D01*
X005880Y008979D02*
X004104Y008979D01*
X004207Y008821D02*
X005797Y008821D01*
X005774Y008662D02*
X004234Y008662D01*
X004204Y008504D02*
X005801Y008504D01*
X005889Y008345D02*
X004095Y008345D01*
X003535Y008345D02*
X003534Y008345D01*
X003534Y008504D02*
X003535Y008504D01*
X003534Y008662D02*
X003535Y008662D01*
X003534Y008821D02*
X003535Y008821D01*
X003534Y008979D02*
X003535Y008979D01*
X003962Y009743D02*
X004021Y009714D01*
X004084Y009693D01*
X004149Y009683D01*
X004181Y009683D01*
X004181Y010100D01*
X004182Y010100D01*
X004182Y010101D02*
X004182Y010101D01*
X004599Y010101D01*
X004599Y010134D01*
X004589Y010199D01*
X004569Y010261D01*
X004539Y010320D01*
X004500Y010373D01*
X004454Y010419D01*
X004400Y010458D01*
X004342Y010488D01*
X004279Y010508D01*
X004214Y010519D01*
X004182Y010519D01*
X004182Y010101D01*
X004599Y010101D01*
X004599Y010068D01*
X004589Y010003D01*
X004569Y009940D01*
X004539Y009882D01*
X004500Y009829D01*
X004454Y009782D01*
X004400Y009743D01*
X004342Y009714D01*
X004279Y009693D01*
X004214Y009683D01*
X004182Y009683D01*
X004182Y010100D01*
X004181Y010101D02*
X003764Y010101D01*
X004181Y010101D01*
X004181Y010101D01*
X004181Y010519D01*
X004149Y010519D01*
X004084Y010508D01*
X004021Y010488D01*
X003962Y010458D01*
X003909Y010419D01*
X003863Y010373D01*
X003824Y010320D01*
X003794Y010261D01*
X003774Y010199D01*
X003764Y010134D01*
X003764Y010101D01*
X003764Y010068D01*
X003774Y010003D01*
X003794Y009940D01*
X003824Y009882D01*
X003863Y009829D01*
X003909Y009782D01*
X003962Y009743D01*
X003923Y009772D02*
X001871Y009772D01*
X002030Y009613D02*
X010451Y009613D01*
X010451Y009455D02*
X002189Y009455D01*
X002347Y009296D02*
X010451Y009296D01*
X010451Y009138D02*
X010055Y009138D01*
X010258Y008979D02*
X010451Y008979D01*
X010451Y008821D02*
X010386Y008821D01*
X010404Y008028D02*
X010451Y008028D01*
X010451Y007869D02*
X010302Y007869D01*
X010451Y007711D02*
X010144Y007711D01*
X010451Y007552D02*
X007288Y007552D01*
X007222Y007394D02*
X010451Y007394D01*
X010451Y007235D02*
X009896Y007235D01*
X010192Y007077D02*
X010451Y007077D01*
X010451Y006918D02*
X010351Y006918D01*
X010424Y006760D02*
X010451Y006760D01*
X010432Y006125D02*
X010451Y006125D01*
X010451Y005967D02*
X010366Y005967D01*
X010451Y005808D02*
X010209Y005808D01*
X010451Y005650D02*
X009938Y005650D01*
X010119Y005174D02*
X010451Y005174D01*
X010451Y005016D02*
X010285Y005016D01*
X010397Y004857D02*
X010451Y004857D01*
X010451Y005333D02*
X007167Y005333D01*
X007218Y005384D02*
X007078Y005243D01*
X006894Y005167D01*
X006175Y005167D01*
X005991Y005243D01*
X005851Y005384D01*
X005774Y005567D01*
X005774Y005766D01*
X005851Y005950D01*
X005991Y006091D01*
X006175Y006167D01*
X006894Y006167D01*
X007078Y006091D01*
X007218Y005950D01*
X007294Y005766D01*
X007294Y005567D01*
X007218Y005384D01*
X007263Y005491D02*
X007615Y005491D01*
X007661Y005446D02*
X007526Y005580D01*
X007454Y005756D01*
X007454Y005946D01*
X007526Y006121D01*
X007631Y006226D01*
X007526Y006330D01*
X007454Y006506D01*
X007454Y006696D01*
X007526Y006871D01*
X007661Y007006D01*
X007836Y007079D01*
X008026Y007079D01*
X008202Y007006D01*
X008336Y006871D01*
X008409Y006696D01*
X008409Y006506D01*
X008336Y006330D01*
X008232Y006226D01*
X008336Y006121D01*
X008409Y005946D01*
X008409Y005756D01*
X008336Y005580D01*
X008202Y005446D01*
X008026Y005373D01*
X007836Y005373D01*
X007661Y005446D01*
X007497Y005650D02*
X007294Y005650D01*
X007277Y005808D02*
X007454Y005808D01*
X007462Y005967D02*
X007201Y005967D01*
X006994Y006125D02*
X007530Y006125D01*
X007572Y006284D02*
X007119Y006284D01*
X007243Y006443D02*
X007480Y006443D01*
X007454Y006601D02*
X007294Y006601D01*
X007294Y006760D02*
X007480Y006760D01*
X007573Y006918D02*
X007231Y006918D01*
X007092Y007077D02*
X007832Y007077D01*
X008031Y007077D02*
X009129Y007077D01*
X008970Y006918D02*
X008290Y006918D01*
X008383Y006760D02*
X008896Y006760D01*
X008831Y006601D02*
X008409Y006601D01*
X008383Y006443D02*
X008830Y006443D01*
X008830Y006284D02*
X008290Y006284D01*
X008332Y006125D02*
X008889Y006125D01*
X008955Y005967D02*
X008400Y005967D01*
X008409Y005808D02*
X009111Y005808D01*
X009383Y005650D02*
X008365Y005650D01*
X008248Y005491D02*
X010451Y005491D01*
X009202Y005174D02*
X006912Y005174D01*
X006452Y004756D02*
X006276Y004829D01*
X006086Y004829D01*
X005911Y004756D01*
X005776Y004621D01*
X005704Y004446D01*
X005704Y004256D01*
X005776Y004080D01*
X005911Y003946D01*
X006086Y003873D01*
X006276Y003873D01*
X006452Y003946D01*
X006586Y004080D01*
X006659Y004256D01*
X006659Y004446D01*
X006586Y004621D01*
X006452Y004756D01*
X006509Y004699D02*
X008858Y004699D01*
X008830Y004540D02*
X006620Y004540D01*
X006659Y004381D02*
X008830Y004381D01*
X008862Y004223D02*
X006646Y004223D01*
X006571Y004064D02*
X008928Y004064D01*
X009045Y003906D02*
X006356Y003906D01*
X006007Y003906D02*
X003071Y003906D01*
X003071Y004064D02*
X003877Y004064D01*
X003863Y004079D02*
X003909Y004032D01*
X003962Y003993D01*
X004021Y003964D01*
X004084Y003943D01*
X004149Y003933D01*
X004181Y003933D01*
X004181Y004350D01*
X004182Y004350D01*
X004182Y004351D02*
X004182Y004351D01*
X004599Y004351D01*
X004599Y004384D01*
X004589Y004449D01*
X004569Y004511D01*
X004539Y004570D01*
X004500Y004623D01*
X004454Y004669D01*
X004400Y004708D01*
X004342Y004738D01*
X004279Y004758D01*
X004214Y004769D01*
X004182Y004769D01*
X004182Y004351D01*
X004599Y004351D01*
X004599Y004318D01*
X004589Y004253D01*
X004569Y004190D01*
X004539Y004132D01*
X004500Y004079D01*
X004454Y004032D01*
X004400Y003993D01*
X004342Y003964D01*
X004279Y003943D01*
X004214Y003933D01*
X004182Y003933D01*
X004182Y004350D01*
X004181Y004351D02*
X003764Y004351D01*
X004181Y004351D01*
X004181Y004351D01*
X004181Y004769D01*
X004149Y004769D01*
X004084Y004758D01*
X004021Y004738D01*
X003962Y004708D01*
X003909Y004669D01*
X003863Y004623D01*
X003824Y004570D01*
X003794Y004511D01*
X003774Y004449D01*
X003764Y004384D01*
X003764Y004351D01*
X003764Y004318D01*
X003774Y004253D01*
X003794Y004190D01*
X003824Y004132D01*
X003863Y004079D01*
X003784Y004223D02*
X003071Y004223D01*
X003071Y004381D02*
X003764Y004381D01*
X003809Y004540D02*
X003071Y004540D01*
X003071Y004699D02*
X003949Y004699D01*
X004181Y004699D02*
X004182Y004699D01*
X004181Y004540D02*
X004182Y004540D01*
X004181Y004381D02*
X004182Y004381D01*
X004182Y004351D02*
X004181Y004351D01*
X004181Y004223D02*
X004182Y004223D01*
X004181Y004064D02*
X004182Y004064D01*
X004486Y004064D02*
X005792Y004064D01*
X005717Y004223D02*
X004579Y004223D01*
X004599Y004381D02*
X005704Y004381D01*
X005743Y004540D02*
X004554Y004540D01*
X004414Y004699D02*
X005853Y004699D01*
X006157Y005174D02*
X003912Y005174D01*
X004167Y005333D02*
X005901Y005333D01*
X005806Y005491D02*
X004263Y005491D01*
X004294Y005650D02*
X005774Y005650D01*
X005792Y005808D02*
X004277Y005808D01*
X004201Y005967D02*
X005867Y005967D01*
X006075Y006125D02*
X003994Y006125D01*
X004119Y006284D02*
X005290Y006284D01*
X005117Y006443D02*
X004243Y006443D01*
X004294Y006601D02*
X004959Y006601D01*
X004800Y006760D02*
X004294Y006760D01*
X004231Y006918D02*
X004642Y006918D01*
X004483Y007077D02*
X004092Y007077D01*
X004735Y008028D02*
X005928Y008028D01*
X005817Y007869D02*
X004935Y007869D01*
X005094Y007711D02*
X005774Y007711D01*
X005781Y007552D02*
X005252Y007552D01*
X005411Y007394D02*
X005846Y007394D01*
X006010Y007235D02*
X005569Y007235D01*
X006127Y008186D02*
X002064Y008186D01*
X001503Y008504D02*
X001388Y008504D01*
X001388Y008662D02*
X001503Y008662D01*
X001503Y008821D02*
X001388Y008821D01*
X001388Y008979D02*
X001503Y008979D01*
X001503Y009138D02*
X001388Y009138D01*
X001388Y009296D02*
X001503Y009296D01*
X001503Y009455D02*
X001388Y009455D01*
X001388Y009613D02*
X001503Y009613D01*
X001503Y009772D02*
X001388Y009772D01*
X001019Y009772D02*
X000661Y009772D01*
X000661Y009930D02*
X003799Y009930D01*
X003764Y010089D02*
X000661Y010089D01*
X000661Y010248D02*
X003790Y010248D01*
X003896Y010406D02*
X000661Y010406D01*
X001364Y010565D02*
X006053Y010565D01*
X006086Y010579D02*
X005911Y010506D01*
X005776Y010371D01*
X005704Y010196D01*
X005704Y010006D01*
X005776Y009830D01*
X005911Y009696D01*
X006086Y009623D01*
X006276Y009623D01*
X006452Y009696D01*
X006586Y009830D01*
X006659Y010006D01*
X006659Y010196D01*
X006586Y010371D01*
X006452Y010506D01*
X006276Y010579D01*
X006086Y010579D01*
X006310Y010565D02*
X007454Y010565D01*
X007454Y010506D02*
X007526Y010330D01*
X007661Y010196D01*
X007836Y010123D01*
X008026Y010123D01*
X008202Y010196D01*
X008336Y010330D01*
X008409Y010506D01*
X008409Y010696D01*
X008336Y010871D01*
X008202Y011006D01*
X008026Y011079D01*
X007836Y011079D01*
X007661Y011006D01*
X007526Y010871D01*
X007454Y010696D01*
X007454Y010506D01*
X007495Y010406D02*
X006552Y010406D01*
X006638Y010248D02*
X007609Y010248D01*
X007465Y010723D02*
X001522Y010723D01*
X001617Y010882D02*
X007537Y010882D01*
X007744Y011040D02*
X001683Y011040D01*
X001687Y011199D02*
X009426Y011199D01*
X009430Y011040D02*
X008119Y011040D01*
X008326Y010882D02*
X009496Y010882D01*
X009590Y010723D02*
X008398Y010723D01*
X008409Y010565D02*
X009749Y010565D01*
X010451Y010406D02*
X008368Y010406D01*
X008254Y010248D02*
X010451Y010248D01*
X010451Y010089D02*
X006659Y010089D01*
X006628Y009930D02*
X010451Y009930D01*
X010451Y009772D02*
X006528Y009772D01*
X006964Y009138D02*
X009266Y009138D01*
X009063Y008979D02*
X007189Y008979D01*
X007272Y008821D02*
X008935Y008821D01*
X008869Y008662D02*
X007294Y008662D01*
X007268Y008504D02*
X008830Y008504D01*
X008830Y008345D02*
X007180Y008345D01*
X006941Y008186D02*
X008851Y008186D01*
X008916Y008028D02*
X007140Y008028D01*
X007252Y007869D02*
X009019Y007869D01*
X009177Y007711D02*
X007294Y007711D01*
X007059Y007235D02*
X009425Y007235D01*
X009036Y005016D02*
X003071Y005016D01*
X003071Y005174D02*
X003157Y005174D01*
X003071Y004857D02*
X008924Y004857D01*
X009224Y003747D02*
X003071Y003747D01*
X003071Y003589D02*
X010451Y003589D01*
X010451Y003747D02*
X010097Y003747D01*
X010275Y003906D02*
X010451Y003906D01*
X010451Y004064D02*
X010393Y004064D01*
X010451Y003430D02*
X003071Y003430D01*
X003071Y003272D02*
X010451Y003272D01*
X005835Y009772D02*
X004440Y009772D01*
X004564Y009930D02*
X005735Y009930D01*
X005704Y010089D02*
X004599Y010089D01*
X004573Y010248D02*
X005725Y010248D01*
X005811Y010406D02*
X004467Y010406D01*
X004182Y010406D02*
X004181Y010406D01*
X004181Y010248D02*
X004182Y010248D01*
X004182Y010101D02*
X004181Y010101D01*
X004181Y010089D02*
X004182Y010089D01*
X004181Y009930D02*
X004182Y009930D01*
X004181Y009772D02*
X004182Y009772D01*
X001684Y011357D02*
X009428Y011357D01*
X000861Y009613D02*
X000661Y009613D01*
X000661Y009455D02*
X000702Y009455D01*
M02*
