%
M48
M72
T01C0.0276
T02C0.0320
T03C0.0550
T04C0.0551
T05C0.0787
%
T01
X4181Y4351
X4783Y2603
X5783Y2603
X6181Y4351
X7931Y5851
X7931Y6601
X6181Y10101
X7931Y10601
X4181Y10101
X7931Y1851
T02
X6534Y5667
X6534Y6667
X6534Y7667
X6534Y8667
X3534Y8667
X3534Y7667
X3534Y6667
X3534Y5667
T03
X1431Y4601
X1431Y2601
X1431Y6851
X1445Y8883
T04
X931Y851
X10181Y851
X10181Y11201
X931Y11201
T05
X9660Y8402
X9660Y6434
X9660Y4465
M30
