%
M48
M72
T01C0.0276
T02C0.0320
%
T01
X1101Y1101
X2101Y1101
X3101Y1101
X4851Y1101
X5601Y1101
X8101Y1101
X9101Y1101
X8851Y3101
X8851Y4101
X8851Y6101
X6601Y8601
X5601Y8601
X4601Y8601
X2101Y9101
X2101Y8101
X8851Y9101
T02
X6601Y6601
X5601Y6601
X4601Y6601
X3601Y6601
X3601Y3601
X4601Y3601
X5601Y3601
X6601Y3601
M30
