G75*
G70*
%OFA0B0*%
%FSLAX24Y24*%
%IPPOS*%
%LPD*%
%AMOC8*
5,1,8,0,0,1.08239X$1,22.5*
%
%ADD10C,0.0520*%
%ADD11C,0.0476*%
%ADD12C,0.0476*%
%ADD13R,0.0476X0.0476*%
%ADD14C,0.0100*%
D10*
X004841Y010272D02*
X005361Y010272D01*
X005361Y011272D02*
X004841Y011272D01*
X004841Y012272D02*
X005361Y012272D01*
X005361Y013272D02*
X004841Y013272D01*
X007841Y013272D02*
X008361Y013272D01*
X008361Y012272D02*
X007841Y012272D01*
X007841Y011272D02*
X008361Y011272D01*
X008361Y010272D02*
X007841Y010272D01*
D11*
X009601Y010272D03*
X011101Y009272D03*
X012601Y010272D03*
X011101Y012272D03*
X012601Y013272D03*
X006601Y008272D03*
X005601Y008272D03*
X006101Y005772D03*
X005101Y005772D03*
X003101Y008772D03*
X001601Y010272D03*
X003101Y011772D03*
X001601Y013272D03*
X009601Y007272D03*
D12*
X010363Y001272D02*
X010839Y001272D01*
X012363Y001272D02*
X012839Y001272D01*
X007839Y001272D02*
X007363Y001272D01*
X006589Y001272D02*
X006113Y001272D01*
X005339Y001272D02*
X004863Y001272D01*
X001101Y005534D02*
X001101Y006010D01*
X001101Y007034D02*
X001101Y007510D01*
D13*
X001351Y001272D03*
X002351Y001272D03*
D14*
X006351Y001272D02*
X006421Y001312D01*
X006821Y001712D01*
X012181Y001712D01*
X012581Y001312D01*
X012601Y001272D01*
X009601Y007272D02*
X009541Y007312D01*
X007621Y007312D01*
X006661Y008272D01*
X006601Y008272D01*
X006661Y008272D02*
X006661Y011312D01*
X006101Y011312D01*
X005141Y012272D01*
X005101Y012272D01*
X005061Y011312D02*
X005101Y011272D01*
X005061Y011312D02*
X003541Y011312D01*
X003141Y011712D01*
X003101Y011772D01*
X001601Y013272D02*
X001621Y013312D01*
X005061Y013312D01*
X005101Y013272D01*
X006661Y011312D02*
X008101Y011312D01*
X008101Y011272D01*
X008101Y011312D02*
X010101Y011312D01*
X011061Y012272D01*
X011101Y012272D01*
X012101Y010272D02*
X012601Y010272D01*
X012101Y010272D02*
X011101Y009272D01*
X011061Y009312D01*
X010581Y009312D01*
X009621Y010272D01*
X009601Y010272D01*
X005101Y005772D02*
X005061Y005792D01*
X002581Y005792D01*
X001101Y007272D01*
M02*
