%
M48
M72
T01C0.0276
T02C0.0320
%
T01
X1351Y1272
X2351Y1272
X5101Y1272
X6351Y1272
X7601Y1272
X10601Y1272
X12601Y1272
X9601Y7272
X11101Y9272
X12601Y10272
X11101Y12272
X12601Y13272
X9601Y10272
X6601Y8272
X5601Y8272
X6101Y5772
X5101Y5772
X3101Y8772
X1601Y10272
X3101Y11772
X1601Y13272
X1101Y7272
X1101Y5772
T02
X5101Y10272
X5101Y11272
X5101Y12272
X5101Y13272
X8101Y13272
X8101Y12272
X8101Y11272
X8101Y10272
M30
