G75*
G70*
%OFA0B0*%
%FSLAX24Y24*%
%IPPOS*%
%LPD*%
%AMOC8*
5,1,8,0,0,1.08239X$1,22.5*
%
%ADD10C,0.0060*%
%ADD11C,0.0100*%
%ADD12C,0.0080*%
%ADD13C,0.0040*%
D10*
X001437Y002052D02*
X001381Y002109D01*
X001437Y002052D02*
X001551Y002052D01*
X001608Y002109D01*
X001608Y002166D01*
X001551Y002222D01*
X001437Y002222D01*
X001381Y002279D01*
X001381Y002336D01*
X001437Y002392D01*
X001551Y002392D01*
X001608Y002336D01*
X001749Y002392D02*
X001749Y002052D01*
X001863Y002166D01*
X001976Y002052D01*
X001976Y002392D01*
X002117Y002279D02*
X002231Y002392D01*
X002231Y002052D01*
X002344Y002052D02*
X002117Y002052D01*
X005131Y002029D02*
X005187Y001972D01*
X005301Y001972D01*
X005358Y001916D01*
X005358Y001859D01*
X005301Y001802D01*
X005187Y001802D01*
X005131Y001859D01*
X005131Y002029D02*
X005131Y002086D01*
X005187Y002142D01*
X005301Y002142D01*
X005358Y002086D01*
X005631Y002552D02*
X005801Y002552D01*
X005858Y002609D01*
X005858Y002836D01*
X005801Y002892D01*
X005631Y002892D01*
X005631Y002552D01*
X005999Y002609D02*
X005999Y002836D01*
X006056Y002892D01*
X006169Y002892D01*
X006226Y002836D01*
X006226Y002609D02*
X006169Y002552D01*
X006056Y002552D01*
X005999Y002609D01*
X006437Y002142D02*
X006381Y002086D01*
X006381Y001859D01*
X006437Y001802D01*
X006551Y001802D01*
X006608Y001859D01*
X006608Y002086D02*
X006551Y002142D01*
X006437Y002142D01*
X006792Y002552D02*
X006736Y002609D01*
X006792Y002552D02*
X006849Y002552D01*
X006906Y002609D01*
X006906Y002892D01*
X006849Y002892D02*
X006963Y002892D01*
X007161Y002779D02*
X007274Y002779D01*
X007331Y002722D01*
X007331Y002552D01*
X007161Y002552D01*
X007104Y002609D01*
X007161Y002666D01*
X007331Y002666D01*
X007472Y002722D02*
X007472Y002609D01*
X007529Y002552D01*
X007699Y002552D01*
X007841Y002552D02*
X007841Y002892D01*
X007699Y002779D02*
X007529Y002779D01*
X007472Y002722D01*
X007841Y002666D02*
X008011Y002779D01*
X007841Y002666D02*
X008011Y002552D01*
X007801Y002142D02*
X007631Y002142D01*
X007631Y001802D01*
X007631Y001916D02*
X007801Y001916D01*
X007858Y001972D01*
X007858Y002086D01*
X007801Y002142D01*
X010131Y002609D02*
X010187Y002552D01*
X010301Y002552D01*
X010358Y002609D01*
X010358Y002836D01*
X010301Y002892D01*
X010187Y002892D01*
X010131Y002836D01*
X010131Y002779D01*
X010187Y002722D01*
X010358Y002722D01*
X010499Y002666D02*
X010613Y002552D01*
X010726Y002666D01*
X010726Y002892D01*
X010499Y002892D02*
X010499Y002666D01*
X010881Y001972D02*
X011108Y001972D01*
X011631Y001972D02*
X011858Y001972D01*
X011744Y001859D02*
X011744Y002086D01*
X011661Y002552D02*
X011604Y002609D01*
X011661Y002666D01*
X011831Y002666D01*
X011831Y002722D02*
X011831Y002552D01*
X011661Y002552D01*
X011463Y002609D02*
X011406Y002552D01*
X011236Y002552D01*
X011236Y002892D01*
X011406Y002892D01*
X011463Y002836D01*
X011463Y002779D01*
X011406Y002722D01*
X011236Y002722D01*
X011406Y002722D02*
X011463Y002666D01*
X011463Y002609D01*
X011661Y002779D02*
X011774Y002779D01*
X011831Y002722D01*
X011972Y002779D02*
X012086Y002779D01*
X012029Y002836D02*
X012029Y002609D01*
X012086Y002552D01*
X012275Y002609D02*
X012331Y002552D01*
X012275Y002609D02*
X012275Y002836D01*
X012331Y002779D02*
X012218Y002779D01*
X012463Y002722D02*
X012463Y002609D01*
X012520Y002552D01*
X012633Y002552D01*
X012690Y002666D02*
X012463Y002666D01*
X012463Y002722D02*
X012520Y002779D01*
X012633Y002779D01*
X012690Y002722D01*
X012690Y002666D01*
X012832Y002666D02*
X012945Y002779D01*
X013002Y002779D01*
X013139Y002779D02*
X013139Y002609D01*
X013195Y002552D01*
X013365Y002552D01*
X013365Y002495D02*
X013309Y002439D01*
X013252Y002439D01*
X013365Y002495D02*
X013365Y002779D01*
X012832Y002779D02*
X012832Y002552D01*
X009506Y005209D02*
X009449Y005152D01*
X009335Y005152D01*
X009279Y005209D01*
X009279Y005436D01*
X009335Y005492D01*
X009449Y005492D01*
X009506Y005436D01*
X009301Y008166D02*
X009901Y008166D01*
X009918Y008168D01*
X009935Y008172D01*
X009951Y008179D01*
X009965Y008189D01*
X009978Y008202D01*
X009988Y008216D01*
X009995Y008232D01*
X009999Y008249D01*
X010001Y008266D01*
X010001Y008466D01*
X009951Y008516D01*
X009951Y009028D01*
X010001Y009078D01*
X010001Y009278D01*
X009999Y009295D01*
X009995Y009312D01*
X009988Y009328D01*
X009978Y009342D01*
X009965Y009355D01*
X009951Y009365D01*
X009935Y009372D01*
X009918Y009376D01*
X009901Y009378D01*
X009301Y009378D01*
X009284Y009376D01*
X009267Y009372D01*
X009251Y009365D01*
X009237Y009355D01*
X009224Y009342D01*
X009214Y009328D01*
X009207Y009312D01*
X009203Y009295D01*
X009201Y009278D01*
X009201Y009078D01*
X009251Y009028D01*
X009251Y008516D01*
X009201Y008466D01*
X009201Y008266D01*
X009203Y008249D01*
X009207Y008232D01*
X009214Y008216D01*
X009224Y008202D01*
X009237Y008189D01*
X009251Y008179D01*
X009267Y008172D01*
X009284Y008168D01*
X009301Y008166D01*
X009071Y008552D02*
X008731Y008552D01*
X008731Y008722D01*
X008787Y008779D01*
X008901Y008779D01*
X008957Y008722D01*
X008957Y008552D01*
X008957Y008666D02*
X009071Y008779D01*
X009014Y008920D02*
X009071Y008977D01*
X009071Y009091D01*
X009014Y009147D01*
X008901Y009147D01*
X008844Y009091D01*
X008844Y009034D01*
X008901Y008920D01*
X008731Y008920D01*
X008731Y009147D01*
X007751Y009772D02*
X005451Y009772D01*
X005451Y013772D01*
X006201Y013772D01*
X006203Y013733D01*
X006209Y013694D01*
X006218Y013656D01*
X006231Y013619D01*
X006248Y013583D01*
X006268Y013550D01*
X006292Y013518D01*
X006318Y013489D01*
X006347Y013463D01*
X006379Y013439D01*
X006412Y013419D01*
X006448Y013402D01*
X006485Y013389D01*
X006523Y013380D01*
X006562Y013374D01*
X006601Y013372D01*
X006640Y013374D01*
X006679Y013380D01*
X006717Y013389D01*
X006754Y013402D01*
X006790Y013419D01*
X006823Y013439D01*
X006855Y013463D01*
X006884Y013489D01*
X006910Y013518D01*
X006934Y013550D01*
X006954Y013583D01*
X006971Y013619D01*
X006984Y013656D01*
X006993Y013694D01*
X006999Y013733D01*
X007001Y013772D01*
X007751Y013772D01*
X007751Y009772D01*
X006494Y008863D02*
X006540Y008861D01*
X006586Y008856D01*
X006632Y008847D01*
X006677Y008834D01*
X006720Y008818D01*
X006762Y008799D01*
X006803Y008776D01*
X006841Y008750D01*
X006878Y008721D01*
X006912Y008690D01*
X006943Y008656D01*
X006972Y008619D01*
X006998Y008581D01*
X007021Y008540D01*
X007040Y008498D01*
X007056Y008455D01*
X007069Y008410D01*
X007078Y008364D01*
X007083Y008318D01*
X007085Y008272D01*
X007083Y008226D01*
X007078Y008180D01*
X007069Y008134D01*
X007056Y008089D01*
X007040Y008046D01*
X007021Y008004D01*
X006998Y007963D01*
X006972Y007925D01*
X006943Y007888D01*
X006912Y007854D01*
X006878Y007823D01*
X006841Y007794D01*
X006803Y007768D01*
X006762Y007745D01*
X006720Y007726D01*
X006677Y007710D01*
X006632Y007697D01*
X006586Y007688D01*
X006540Y007683D01*
X006494Y007681D01*
X006419Y007392D02*
X006306Y007392D01*
X006249Y007336D01*
X006108Y007336D02*
X006051Y007392D01*
X005937Y007392D01*
X005881Y007336D01*
X005881Y007109D01*
X005937Y007052D01*
X006051Y007052D01*
X006108Y007109D01*
X006249Y007052D02*
X006476Y007279D01*
X006476Y007336D01*
X006419Y007392D01*
X006476Y007052D02*
X006249Y007052D01*
X005116Y008272D02*
X005118Y008318D01*
X005123Y008364D01*
X005132Y008410D01*
X005145Y008455D01*
X005161Y008498D01*
X005180Y008540D01*
X005203Y008581D01*
X005229Y008619D01*
X005258Y008656D01*
X005289Y008690D01*
X005323Y008721D01*
X005360Y008750D01*
X005398Y008776D01*
X005439Y008799D01*
X005481Y008818D01*
X005524Y008834D01*
X005569Y008847D01*
X005615Y008856D01*
X005661Y008861D01*
X005707Y008863D01*
X005116Y008272D02*
X005118Y008226D01*
X005123Y008180D01*
X005132Y008134D01*
X005145Y008089D01*
X005161Y008046D01*
X005180Y008004D01*
X005203Y007963D01*
X005229Y007925D01*
X005258Y007888D01*
X005289Y007854D01*
X005323Y007823D01*
X005360Y007794D01*
X005398Y007768D01*
X005439Y007745D01*
X005481Y007726D01*
X005524Y007710D01*
X005569Y007697D01*
X005615Y007688D01*
X005661Y007683D01*
X005707Y007681D01*
X005994Y006363D02*
X006040Y006361D01*
X006086Y006356D01*
X006132Y006347D01*
X006177Y006334D01*
X006220Y006318D01*
X006262Y006299D01*
X006303Y006276D01*
X006341Y006250D01*
X006378Y006221D01*
X006412Y006190D01*
X006443Y006156D01*
X006472Y006119D01*
X006498Y006081D01*
X006521Y006040D01*
X006540Y005998D01*
X006556Y005955D01*
X006569Y005910D01*
X006578Y005864D01*
X006583Y005818D01*
X006585Y005772D01*
X006583Y005726D01*
X006578Y005680D01*
X006569Y005634D01*
X006556Y005589D01*
X006540Y005546D01*
X006521Y005504D01*
X006498Y005463D01*
X006472Y005425D01*
X006443Y005388D01*
X006412Y005354D01*
X006378Y005323D01*
X006341Y005294D01*
X006303Y005268D01*
X006262Y005245D01*
X006220Y005226D01*
X006177Y005210D01*
X006132Y005197D01*
X006086Y005188D01*
X006040Y005183D01*
X005994Y005181D01*
X005863Y004892D02*
X005749Y004779D01*
X005608Y004836D02*
X005551Y004892D01*
X005437Y004892D01*
X005381Y004836D01*
X005381Y004609D01*
X005437Y004552D01*
X005551Y004552D01*
X005608Y004609D01*
X005749Y004552D02*
X005976Y004552D01*
X005863Y004552D02*
X005863Y004892D01*
X004616Y005772D02*
X004618Y005818D01*
X004623Y005864D01*
X004632Y005910D01*
X004645Y005955D01*
X004661Y005998D01*
X004680Y006040D01*
X004703Y006081D01*
X004729Y006119D01*
X004758Y006156D01*
X004789Y006190D01*
X004823Y006221D01*
X004860Y006250D01*
X004898Y006276D01*
X004939Y006299D01*
X004981Y006318D01*
X005024Y006334D01*
X005069Y006347D01*
X005115Y006356D01*
X005161Y006361D01*
X005207Y006363D01*
X004616Y005772D02*
X004618Y005726D01*
X004623Y005680D01*
X004632Y005634D01*
X004645Y005589D01*
X004661Y005546D01*
X004680Y005504D01*
X004703Y005463D01*
X004729Y005425D01*
X004758Y005388D01*
X004789Y005354D01*
X004823Y005323D01*
X004860Y005294D01*
X004898Y005268D01*
X004939Y005245D01*
X004981Y005226D01*
X005024Y005210D01*
X005069Y005197D01*
X005115Y005188D01*
X005161Y005183D01*
X005207Y005181D01*
X002821Y006109D02*
X002764Y006052D01*
X002537Y006052D01*
X002481Y006109D01*
X002481Y006222D01*
X002537Y006279D01*
X002764Y006279D01*
X002821Y006222D01*
X002821Y006109D01*
X002764Y006420D02*
X002481Y006420D01*
X002481Y006647D02*
X002764Y006647D01*
X002821Y006591D01*
X002821Y006477D01*
X002764Y006420D01*
X002481Y006789D02*
X002481Y007016D01*
X002481Y006902D02*
X002821Y006902D01*
X001858Y007109D02*
X001801Y007052D01*
X001687Y007052D01*
X001631Y007109D01*
X001687Y007222D02*
X001631Y007279D01*
X001631Y007336D01*
X001687Y007392D01*
X001801Y007392D01*
X001858Y007336D01*
X001801Y007222D02*
X001687Y007222D01*
X001801Y007222D02*
X001858Y007166D01*
X001858Y007109D01*
X001881Y005892D02*
X002108Y005892D01*
X001994Y005892D02*
X001994Y005552D01*
X002801Y009666D02*
X003401Y009666D01*
X003418Y009668D01*
X003435Y009672D01*
X003451Y009679D01*
X003465Y009689D01*
X003478Y009702D01*
X003488Y009716D01*
X003495Y009732D01*
X003499Y009749D01*
X003501Y009766D01*
X003501Y009966D01*
X003451Y010016D01*
X003451Y010528D01*
X003501Y010578D01*
X003501Y010778D01*
X003499Y010795D01*
X003495Y010812D01*
X003488Y010828D01*
X003478Y010842D01*
X003465Y010855D01*
X003451Y010865D01*
X003435Y010872D01*
X003418Y010876D01*
X003401Y010878D01*
X002801Y010878D01*
X002784Y010876D01*
X002767Y010872D01*
X002751Y010865D01*
X002737Y010855D01*
X002724Y010842D01*
X002714Y010828D01*
X002707Y010812D01*
X002703Y010795D01*
X002701Y010778D01*
X002701Y010578D01*
X002751Y010528D01*
X002751Y010016D01*
X002701Y009966D01*
X002701Y009766D01*
X002703Y009749D01*
X002707Y009732D01*
X002714Y009716D01*
X002724Y009702D01*
X002737Y009689D01*
X002751Y009679D01*
X002767Y009672D01*
X002784Y009668D01*
X002801Y009666D01*
X003731Y010052D02*
X003731Y010222D01*
X003787Y010279D01*
X003901Y010279D01*
X003957Y010222D01*
X003957Y010052D01*
X003957Y010166D02*
X004071Y010279D01*
X004014Y010420D02*
X004071Y010477D01*
X004071Y010591D01*
X004014Y010647D01*
X003957Y010647D01*
X003901Y010591D01*
X003901Y010534D01*
X003901Y010591D02*
X003844Y010647D01*
X003787Y010647D01*
X003731Y010591D01*
X003731Y010477D01*
X003787Y010420D01*
X003731Y010052D02*
X004071Y010052D01*
X002001Y011266D02*
X002001Y011466D01*
X001951Y011516D01*
X001951Y012028D01*
X002001Y012078D01*
X002001Y012278D01*
X001999Y012295D01*
X001995Y012312D01*
X001988Y012328D01*
X001978Y012342D01*
X001965Y012355D01*
X001951Y012365D01*
X001935Y012372D01*
X001918Y012376D01*
X001901Y012378D01*
X001301Y012378D01*
X001284Y012376D01*
X001267Y012372D01*
X001251Y012365D01*
X001237Y012355D01*
X001224Y012342D01*
X001214Y012328D01*
X001207Y012312D01*
X001203Y012295D01*
X001201Y012278D01*
X001201Y012078D01*
X001251Y012028D01*
X001251Y011516D01*
X001201Y011466D01*
X001201Y011266D01*
X001203Y011249D01*
X001207Y011232D01*
X001214Y011216D01*
X001224Y011202D01*
X001237Y011189D01*
X001251Y011179D01*
X001267Y011172D01*
X001284Y011168D01*
X001301Y011166D01*
X001901Y011166D01*
X001918Y011168D01*
X001935Y011172D01*
X001951Y011179D01*
X001965Y011189D01*
X001978Y011202D01*
X001988Y011216D01*
X001995Y011232D01*
X001999Y011249D01*
X002001Y011266D01*
X000821Y011552D02*
X000481Y011552D01*
X000481Y011722D01*
X000537Y011779D01*
X000651Y011779D01*
X000707Y011722D01*
X000707Y011552D01*
X000707Y011666D02*
X000821Y011779D01*
X000651Y011920D02*
X000651Y012147D01*
X000821Y012091D02*
X000481Y012091D01*
X000651Y011920D01*
X006131Y012359D02*
X006187Y012302D01*
X006301Y012302D01*
X006358Y012359D01*
X006358Y012472D01*
X006301Y012529D01*
X006244Y012529D01*
X006131Y012472D01*
X006131Y012642D01*
X006358Y012642D01*
X006499Y012642D02*
X006499Y012472D01*
X006613Y012529D01*
X006669Y012529D01*
X006726Y012472D01*
X006726Y012359D01*
X006669Y012302D01*
X006556Y012302D01*
X006499Y012359D01*
X006499Y012642D02*
X006726Y012642D01*
X006867Y012642D02*
X006867Y012472D01*
X006981Y012529D01*
X007038Y012529D01*
X007094Y012472D01*
X007094Y012359D01*
X007038Y012302D01*
X006924Y012302D01*
X006867Y012359D01*
X006867Y012642D02*
X007094Y012642D01*
X009894Y011742D02*
X009894Y011402D01*
X009894Y011516D02*
X010064Y011516D01*
X010121Y011572D01*
X010121Y011686D01*
X010064Y011742D01*
X009894Y011742D01*
X010008Y011516D02*
X010121Y011402D01*
X010262Y011402D02*
X010489Y011629D01*
X010489Y011686D01*
X010433Y011742D01*
X010319Y011742D01*
X010262Y011686D01*
X010262Y011402D02*
X010489Y011402D01*
X010701Y011278D02*
X010701Y011078D01*
X010751Y011028D01*
X010751Y010516D01*
X010701Y010466D01*
X010701Y010266D01*
X010703Y010249D01*
X010707Y010232D01*
X010714Y010216D01*
X010724Y010202D01*
X010737Y010189D01*
X010751Y010179D01*
X010767Y010172D01*
X010784Y010168D01*
X010801Y010166D01*
X011401Y010166D01*
X011418Y010168D01*
X011435Y010172D01*
X011451Y010179D01*
X011465Y010189D01*
X011478Y010202D01*
X011488Y010216D01*
X011495Y010232D01*
X011499Y010249D01*
X011501Y010266D01*
X011501Y010466D01*
X011451Y010516D01*
X011451Y011028D01*
X011501Y011078D01*
X011501Y011278D01*
X011499Y011295D01*
X011495Y011312D01*
X011488Y011328D01*
X011478Y011342D01*
X011465Y011355D01*
X011451Y011365D01*
X011435Y011372D01*
X011418Y011376D01*
X011401Y011378D01*
X010801Y011378D01*
X010784Y011376D01*
X010767Y011372D01*
X010751Y011365D01*
X010737Y011355D01*
X010724Y011342D01*
X010714Y011328D01*
X010707Y011312D01*
X010703Y011295D01*
X010701Y011278D01*
X012201Y011266D02*
X012201Y011466D01*
X012251Y011516D01*
X012251Y012028D01*
X012201Y012078D01*
X012201Y012278D01*
X012203Y012295D01*
X012207Y012312D01*
X012214Y012328D01*
X012224Y012342D01*
X012237Y012355D01*
X012251Y012365D01*
X012267Y012372D01*
X012284Y012376D01*
X012301Y012378D01*
X012901Y012378D01*
X012918Y012376D01*
X012935Y012372D01*
X012951Y012365D01*
X012965Y012355D01*
X012978Y012342D01*
X012988Y012328D01*
X012995Y012312D01*
X012999Y012295D01*
X013001Y012278D01*
X013001Y012078D01*
X012951Y012028D01*
X012951Y011516D01*
X013001Y011466D01*
X013001Y011266D01*
X012999Y011249D01*
X012995Y011232D01*
X012988Y011216D01*
X012978Y011202D01*
X012965Y011189D01*
X012951Y011179D01*
X012935Y011172D01*
X012918Y011168D01*
X012901Y011166D01*
X012301Y011166D01*
X012284Y011168D01*
X012267Y011172D01*
X012251Y011179D01*
X012237Y011189D01*
X012224Y011202D01*
X012214Y011216D01*
X012207Y011232D01*
X012203Y011249D01*
X012201Y011266D01*
X012894Y012652D02*
X012894Y012992D01*
X013064Y012992D01*
X013121Y012936D01*
X013121Y012822D01*
X013064Y012766D01*
X012894Y012766D01*
X013008Y012766D02*
X013121Y012652D01*
X013262Y012652D02*
X013489Y012652D01*
X013376Y012652D02*
X013376Y012992D01*
X013262Y012879D01*
D11*
X012350Y005621D02*
X012350Y005060D01*
X012350Y005247D02*
X012630Y005434D01*
X012350Y005247D02*
X012630Y005060D01*
X012116Y005247D02*
X011742Y005247D01*
X011742Y005340D02*
X011836Y005434D01*
X012023Y005434D01*
X012116Y005340D01*
X012116Y005247D01*
X012023Y005060D02*
X011836Y005060D01*
X011742Y005154D01*
X011742Y005340D01*
X011524Y005434D02*
X011337Y005434D01*
X011431Y005527D02*
X011431Y005154D01*
X011524Y005060D01*
X011103Y005340D02*
X010729Y005340D01*
X010495Y005247D02*
X010495Y005154D01*
X010402Y005060D01*
X010215Y005060D01*
X010122Y005154D01*
X010215Y005340D02*
X010402Y005340D01*
X010495Y005247D01*
X010215Y005340D02*
X010122Y005434D01*
X010122Y005527D01*
X010215Y005621D01*
X010402Y005621D01*
X010495Y005527D01*
X009012Y005326D02*
X009014Y005365D01*
X009020Y005403D01*
X009029Y005441D01*
X009043Y005478D01*
X009060Y005513D01*
X009080Y005546D01*
X009103Y005577D01*
X009130Y005606D01*
X009159Y005632D01*
X009191Y005654D01*
X009225Y005674D01*
X009260Y005690D01*
X009297Y005702D01*
X009335Y005711D01*
X009374Y005716D01*
X009413Y005717D01*
X009452Y005714D01*
X009490Y005707D01*
X009528Y005697D01*
X009564Y005682D01*
X009599Y005665D01*
X009631Y005643D01*
X009662Y005619D01*
X009690Y005592D01*
X009715Y005562D01*
X009737Y005530D01*
X009755Y005496D01*
X009770Y005460D01*
X009782Y005422D01*
X009790Y005384D01*
X009794Y005345D01*
X009794Y005307D01*
X009790Y005268D01*
X009782Y005230D01*
X009770Y005192D01*
X009755Y005156D01*
X009737Y005122D01*
X009715Y005090D01*
X009690Y005060D01*
X009662Y005033D01*
X009631Y005009D01*
X009598Y004987D01*
X009564Y004970D01*
X009528Y004955D01*
X009490Y004945D01*
X009452Y004938D01*
X009413Y004935D01*
X009374Y004936D01*
X009335Y004941D01*
X009297Y004950D01*
X009260Y004962D01*
X009225Y004978D01*
X009191Y004998D01*
X009159Y005020D01*
X009130Y005046D01*
X009103Y005075D01*
X009080Y005106D01*
X009060Y005139D01*
X009043Y005174D01*
X009029Y005211D01*
X009020Y005249D01*
X009014Y005287D01*
X009012Y005326D01*
D12*
X006494Y007682D02*
X005707Y007682D01*
X005707Y008863D02*
X006494Y008863D01*
X005994Y006363D02*
X005207Y006363D01*
X005207Y005182D02*
X005994Y005182D01*
D13*
X001013Y001659D02*
X000826Y001472D01*
X001013Y001472D01*
X001013Y001659D02*
X001013Y001706D01*
X000966Y001752D01*
X000873Y001752D01*
X000826Y001706D01*
X002576Y001659D02*
X002670Y001752D01*
X002670Y001472D01*
X002763Y001472D02*
X002576Y001472D01*
M02*
