G75*
G70*
%OFA0B0*%
%FSLAX24Y24*%
%IPPOS*%
%LPD*%
%AMOC8*
5,1,8,0,0,1.08239X$1,22.5*
%
%ADD10C,0.0000*%
%ADD11C,0.0520*%
%ADD12C,0.0476*%
%ADD13C,0.0476*%
%ADD14R,0.0476X0.0476*%
%ADD15C,0.0100*%
D10*
X000101Y000272D02*
X000101Y014768D01*
X013971Y014768D01*
X013971Y000272D01*
X000101Y000272D01*
D11*
X004841Y010272D02*
X005361Y010272D01*
X005361Y011272D02*
X004841Y011272D01*
X004841Y012272D02*
X005361Y012272D01*
X005361Y013272D02*
X004841Y013272D01*
X007841Y013272D02*
X008361Y013272D01*
X008361Y012272D02*
X007841Y012272D01*
X007841Y011272D02*
X008361Y011272D01*
X008361Y010272D02*
X007841Y010272D01*
D12*
X009601Y010272D03*
X011101Y009272D03*
X012601Y010272D03*
X011101Y012272D03*
X012601Y013272D03*
X006601Y008272D03*
X005601Y008272D03*
X006101Y005772D03*
X005101Y005772D03*
X003101Y008772D03*
X001601Y010272D03*
X003101Y011772D03*
X001601Y013272D03*
X009601Y007272D03*
D13*
X010363Y001272D02*
X010839Y001272D01*
X012363Y001272D02*
X012839Y001272D01*
X007839Y001272D02*
X007363Y001272D01*
X006589Y001272D02*
X006113Y001272D01*
X005339Y001272D02*
X004863Y001272D01*
X001101Y005534D02*
X001101Y006010D01*
X001101Y007034D02*
X001101Y007510D01*
D14*
X001351Y001272D03*
X002351Y001272D03*
D15*
X002421Y001312D01*
X005061Y001312D01*
X005101Y001272D01*
X005141Y003712D02*
X007541Y001312D01*
X007601Y001272D01*
X007621Y001312D01*
X010581Y001312D01*
X010601Y001272D01*
X006101Y005772D02*
X006101Y005792D01*
X008101Y007792D01*
X008101Y010272D01*
X009541Y010272D02*
X009601Y010272D01*
X009541Y010272D02*
X009541Y010832D01*
X008101Y012272D01*
X008101Y013272D02*
X008101Y013312D01*
X005781Y013312D01*
X005781Y013472D01*
X005541Y013712D01*
X004421Y013712D01*
X004421Y010912D01*
X005061Y010272D01*
X005101Y010272D01*
X005061Y010272D02*
X004661Y009872D01*
X004661Y004592D01*
X001381Y001312D01*
X001351Y001272D01*
X005141Y003712D02*
X005141Y005712D01*
X005101Y005772D01*
X005141Y005792D01*
X005141Y007872D01*
X005541Y008272D01*
X005601Y008272D01*
X003101Y008772D02*
X003061Y008832D01*
X001621Y010272D01*
X001601Y010272D01*
X003061Y008752D02*
X003101Y008772D01*
X003061Y008752D02*
X003061Y007712D01*
X001141Y005792D01*
X001101Y005772D01*
X001101Y007272D02*
X001141Y007312D01*
X001141Y012832D01*
X001541Y013232D01*
X001601Y013272D01*
X008101Y013312D02*
X012581Y013312D01*
X012601Y013272D01*
M02*
